<?xml version="1.0" encoding="UTF-8" standalone="no"?>
<!DOCTYPE svg PUBLIC "-//W3C//DTD SVG 1.1//EN"
 "http://www.w3.org/Graphics/SVG/1.1/DTD/svg11.dtd">
<!-- Generated by graphviz version 2.40.1 (20161225.0304)
 -->
<!-- Title: classes_SMPyBandits.Policies.Experimentals Pages: 1 -->
<svg width="7809pt" height="709pt"
 viewBox="0.00 0.00 7809.00 709.00" xmlns="http://www.w3.org/2000/svg" xmlns:xlink="http://www.w3.org/1999/xlink">
<g id="graph0" class="graph" transform="scale(1 1) rotate(0) translate(4 705)">
<title>classes_SMPyBandits.Policies.Experimentals</title>
<polygon fill="#ffffff" stroke="transparent" points="-4,4 -4,-705 7805,-705 7805,4 -4,4"/>
<!-- 0 -->
<g id="node1" class="node">
<title>0</title>
<polygon fill="none" stroke="#000000" points="0,-.5 0,-249.5 377,-249.5 377,-.5 0,-.5"/>
<text text-anchor="middle" x="188.5" y="-234.3" font-family="Times,serif" font-size="14.00" fill="#000000">SMPyBandits.Policies.Experimentals.BlackBoxOpt.BlackBoxOpt</text>
<polyline fill="none" stroke="#000000" points="0,-226.5 377,-226.5 "/>
<text text-anchor="start" x="8" y="-211.3" font-family="Times,serif" font-size="14.00" fill="#000000">_args : tuple</text>
<text text-anchor="start" x="8" y="-196.3" font-family="Times,serif" font-size="14.00" fill="#000000">_est</text>
<text text-anchor="start" x="8" y="-181.3" font-family="Times,serif" font-size="14.00" fill="#000000">_kwargs : dict</text>
<text text-anchor="start" x="8" y="-166.3" font-family="Times,serif" font-size="14.00" fill="#000000">_opt</text>
<text text-anchor="start" x="8" y="-151.3" font-family="Times,serif" font-size="14.00" fill="#000000">amplitude : float</text>
<text text-anchor="start" x="8" y="-136.3" font-family="Times,serif" font-size="14.00" fill="#000000">lower : float</text>
<text text-anchor="start" x="8" y="-121.3" font-family="Times,serif" font-size="14.00" fill="#000000">nbArms</text>
<text text-anchor="start" x="8" y="-106.3" font-family="Times,serif" font-size="14.00" fill="#000000">opt : Optimizer</text>
<text text-anchor="start" x="8" y="-91.3" font-family="Times,serif" font-size="14.00" fill="#000000">t : int</text>
<polyline fill="none" stroke="#000000" points="0,-83.5 377,-83.5 "/>
<text text-anchor="start" x="8" y="-68.3" font-family="Times,serif" font-size="14.00" fill="#000000">__init__(nbArms, opt, est, lower, amplitude)</text>
<text text-anchor="start" x="8" y="-53.3" font-family="Times,serif" font-size="14.00" fill="#000000">__str__()</text>
<text text-anchor="start" x="8" y="-38.3" font-family="Times,serif" font-size="14.00" fill="#000000">choice()</text>
<text text-anchor="start" x="8" y="-23.3" font-family="Times,serif" font-size="14.00" fill="#000000">getReward(armId, reward)</text>
<text text-anchor="start" x="8" y="-8.3" font-family="Times,serif" font-size="14.00" fill="#000000">startGame()</text>
</g>
<!-- 1 -->
<g id="node2" class="node">
<title>1</title>
<polygon fill="none" stroke="#000000" points="395.5,-30.5 395.5,-219.5 763.5,-219.5 763.5,-30.5 395.5,-30.5"/>
<text text-anchor="middle" x="579.5" y="-204.3" font-family="Times,serif" font-size="14.00" fill="#000000">SMPyBandits.Policies.Experimentals.KLempUCB.KLempUCB</text>
<polyline fill="none" stroke="#000000" points="395.5,-196.5 763.5,-196.5 "/>
<text text-anchor="start" x="403.5" y="-181.3" font-family="Times,serif" font-size="14.00" fill="#000000">c : int</text>
<text text-anchor="start" x="403.5" y="-166.3" font-family="Times,serif" font-size="14.00" fill="#000000">maxReward : float</text>
<text text-anchor="start" x="403.5" y="-151.3" font-family="Times,serif" font-size="14.00" fill="#000000">obs</text>
<text text-anchor="start" x="403.5" y="-136.3" font-family="Times,serif" font-size="14.00" fill="#000000">pulls : ndarray</text>
<text text-anchor="start" x="403.5" y="-121.3" font-family="Times,serif" font-size="14.00" fill="#000000">t : int</text>
<polyline fill="none" stroke="#000000" points="395.5,-113.5 763.5,-113.5 "/>
<text text-anchor="start" x="403.5" y="-98.3" font-family="Times,serif" font-size="14.00" fill="#000000">_KLucb(obs, klMax, debug)</text>
<text text-anchor="start" x="403.5" y="-83.3" font-family="Times,serif" font-size="14.00" fill="#000000">__init__(nbArms, maxReward, lower, amplitude)</text>
<text text-anchor="start" x="403.5" y="-68.3" font-family="Times,serif" font-size="14.00" fill="#000000">computeIndex(arm)</text>
<text text-anchor="start" x="403.5" y="-53.3" font-family="Times,serif" font-size="14.00" fill="#000000">getReward(arm, reward)</text>
<text text-anchor="start" x="403.5" y="-38.3" font-family="Times,serif" font-size="14.00" fill="#000000">startGame()</text>
</g>
<!-- 2 -->
<g id="node3" class="node">
<title>2</title>
<polygon fill="none" stroke="#000000" points="781.5,-75.5 781.5,-174.5 1203.5,-174.5 1203.5,-75.5 781.5,-75.5"/>
<text text-anchor="middle" x="992.5" y="-159.3" font-family="Times,serif" font-size="14.00" fill="#000000">SMPyBandits.Policies.Experimentals.ThompsonRobust.ThompsonRobust</text>
<polyline fill="none" stroke="#000000" points="781.5,-151.5 1203.5,-151.5 "/>
<text text-anchor="start" x="789.5" y="-136.3" font-family="Times,serif" font-size="14.00" fill="#000000">averageOn : int</text>
<polyline fill="none" stroke="#000000" points="781.5,-128.5 1203.5,-128.5 "/>
<text text-anchor="start" x="789.5" y="-113.3" font-family="Times,serif" font-size="14.00" fill="#000000">__init__(nbArms, posterior, averageOn, lower, amplitude)</text>
<text text-anchor="start" x="789.5" y="-98.3" font-family="Times,serif" font-size="14.00" fill="#000000">__str__()</text>
<text text-anchor="start" x="789.5" y="-83.3" font-family="Times,serif" font-size="14.00" fill="#000000">computeIndex(arm)</text>
</g>
<!-- 3 -->
<g id="node4" class="node">
<title>3</title>
<polygon fill="none" stroke="#000000" points="1221.5,-75.5 1221.5,-174.5 1553.5,-174.5 1553.5,-75.5 1221.5,-75.5"/>
<text text-anchor="middle" x="1387.5" y="-159.3" font-family="Times,serif" font-size="14.00" fill="#000000">SMPyBandits.Policies.Experimentals.UCBjulia.UCBjulia</text>
<polyline fill="none" stroke="#000000" points="1221.5,-151.5 1553.5,-151.5 "/>
<text text-anchor="start" x="1229.5" y="-136.3" font-family="Times,serif" font-size="14.00" fill="#000000">_index_function</text>
<text text-anchor="start" x="1229.5" y="-121.3" font-family="Times,serif" font-size="14.00" fill="#000000">t : int</text>
<polyline fill="none" stroke="#000000" points="1221.5,-113.5 1553.5,-113.5 "/>
<text text-anchor="start" x="1229.5" y="-98.3" font-family="Times,serif" font-size="14.00" fill="#000000">__init__(nbArms, lower, amplitude)</text>
<text text-anchor="start" x="1229.5" y="-83.3" font-family="Times,serif" font-size="14.00" fill="#000000">computeIndex(arm)</text>
</g>
<!-- 4 -->
<g id="node5" class="node">
<title>4</title>
<polygon fill="none" stroke="#000000" points="1600.5,-458.5 1600.5,-543.5 1946.5,-543.5 1946.5,-458.5 1600.5,-458.5"/>
<text text-anchor="middle" x="1773.5" y="-528.3" font-family="Times,serif" font-size="14.00" fill="#000000">SMPyBandits.Policies.Experimentals.UCBlog10.UCBlog10</text>
<polyline fill="none" stroke="#000000" points="1600.5,-520.5 1946.5,-520.5 "/>
<polyline fill="none" stroke="#000000" points="1600.5,-496.5 1946.5,-496.5 "/>
<text text-anchor="start" x="1608.5" y="-481.3" font-family="Times,serif" font-size="14.00" fill="#000000">computeAllIndex()</text>
<text text-anchor="start" x="1608.5" y="-466.3" font-family="Times,serif" font-size="14.00" fill="#000000">computeIndex(arm)</text>
</g>
<!-- 5 -->
<g id="node6" class="node">
<title>5</title>
<polygon fill="none" stroke="#000000" points="1571.5,-68 1571.5,-182 1975.5,-182 1975.5,-68 1571.5,-68"/>
<text text-anchor="middle" x="1773.5" y="-166.8" font-family="Times,serif" font-size="14.00" fill="#000000">SMPyBandits.Policies.Experimentals.UCBlog10alpha.UCBlog10alpha</text>
<polyline fill="none" stroke="#000000" points="1571.5,-159 1975.5,-159 "/>
<text text-anchor="start" x="1579.5" y="-143.8" font-family="Times,serif" font-size="14.00" fill="#000000">alpha : int</text>
<polyline fill="none" stroke="#000000" points="1571.5,-136 1975.5,-136 "/>
<text text-anchor="start" x="1579.5" y="-120.8" font-family="Times,serif" font-size="14.00" fill="#000000">__init__(nbArms, alpha, lower, amplitude)</text>
<text text-anchor="start" x="1579.5" y="-105.8" font-family="Times,serif" font-size="14.00" fill="#000000">__str__()</text>
<text text-anchor="start" x="1579.5" y="-90.8" font-family="Times,serif" font-size="14.00" fill="#000000">computeAllIndex()</text>
<text text-anchor="start" x="1579.5" y="-75.8" font-family="Times,serif" font-size="14.00" fill="#000000">computeIndex(arm)</text>
</g>
<!-- 5&#45;&gt;4 -->
<g id="edge1" class="edge">
<title>5&#45;&gt;4</title>
<path fill="none" stroke="#000000" d="M1773.5,-182.1063C1773.5,-254.3095 1773.5,-377.6495 1773.5,-447.8991"/>
<polygon fill="none" stroke="#000000" points="1770.0001,-448.284 1773.5,-458.284 1777.0001,-448.2841 1770.0001,-448.284"/>
</g>
<!-- 6 -->
<g id="node7" class="node">
<title>6</title>
<polygon fill="none" stroke="#000000" points="1993.5,-75.5 1993.5,-174.5 2357.5,-174.5 2357.5,-75.5 1993.5,-75.5"/>
<text text-anchor="middle" x="2175.5" y="-159.3" font-family="Times,serif" font-size="14.00" fill="#000000">SMPyBandits.Policies.Experimentals.UCBoost_faster.UCB_bq</text>
<polyline fill="none" stroke="#000000" points="1993.5,-151.5 2357.5,-151.5 "/>
<text text-anchor="start" x="2001.5" y="-136.3" font-family="Times,serif" font-size="14.00" fill="#000000">c : float</text>
<polyline fill="none" stroke="#000000" points="1993.5,-128.5 2357.5,-128.5 "/>
<text text-anchor="start" x="2001.5" y="-113.3" font-family="Times,serif" font-size="14.00" fill="#000000">__init__(nbArms, c, lower, amplitude)</text>
<text text-anchor="start" x="2001.5" y="-98.3" font-family="Times,serif" font-size="14.00" fill="#000000">__str__()</text>
<text text-anchor="start" x="2001.5" y="-83.3" font-family="Times,serif" font-size="14.00" fill="#000000">computeIndex(arm)</text>
</g>
<!-- 7 -->
<g id="node8" class="node">
<title>7</title>
<polygon fill="none" stroke="#000000" points="2376,-75.5 2376,-174.5 2733,-174.5 2733,-75.5 2376,-75.5"/>
<text text-anchor="middle" x="2554.5" y="-159.3" font-family="Times,serif" font-size="14.00" fill="#000000">SMPyBandits.Policies.Experimentals.UCBoost_faster.UCB_h</text>
<polyline fill="none" stroke="#000000" points="2376,-151.5 2733,-151.5 "/>
<text text-anchor="start" x="2384" y="-136.3" font-family="Times,serif" font-size="14.00" fill="#000000">c : float</text>
<polyline fill="none" stroke="#000000" points="2376,-128.5 2733,-128.5 "/>
<text text-anchor="start" x="2384" y="-113.3" font-family="Times,serif" font-size="14.00" fill="#000000">__init__(nbArms, c, lower, amplitude)</text>
<text text-anchor="start" x="2384" y="-98.3" font-family="Times,serif" font-size="14.00" fill="#000000">__str__()</text>
<text text-anchor="start" x="2384" y="-83.3" font-family="Times,serif" font-size="14.00" fill="#000000">computeIndex(arm)</text>
</g>
<!-- 8 -->
<g id="node9" class="node">
<title>8</title>
<polygon fill="none" stroke="#000000" points="2751,-75.5 2751,-174.5 3112,-174.5 3112,-75.5 2751,-75.5"/>
<text text-anchor="middle" x="2931.5" y="-159.3" font-family="Times,serif" font-size="14.00" fill="#000000">SMPyBandits.Policies.Experimentals.UCBoost_faster.UCB_lb</text>
<polyline fill="none" stroke="#000000" points="2751,-151.5 3112,-151.5 "/>
<text text-anchor="start" x="2759" y="-136.3" font-family="Times,serif" font-size="14.00" fill="#000000">c : float</text>
<polyline fill="none" stroke="#000000" points="2751,-128.5 3112,-128.5 "/>
<text text-anchor="start" x="2759" y="-113.3" font-family="Times,serif" font-size="14.00" fill="#000000">__init__(nbArms, c, lower, amplitude)</text>
<text text-anchor="start" x="2759" y="-98.3" font-family="Times,serif" font-size="14.00" fill="#000000">__str__()</text>
<text text-anchor="start" x="2759" y="-83.3" font-family="Times,serif" font-size="14.00" fill="#000000">computeIndex(arm)</text>
</g>
<!-- 9 -->
<g id="node10" class="node">
<title>9</title>
<polygon fill="none" stroke="#000000" points="3130.5,-75.5 3130.5,-174.5 3492.5,-174.5 3492.5,-75.5 3130.5,-75.5"/>
<text text-anchor="middle" x="3311.5" y="-159.3" font-family="Times,serif" font-size="14.00" fill="#000000">SMPyBandits.Policies.Experimentals.UCBoost_faster.UCB_sq</text>
<polyline fill="none" stroke="#000000" points="3130.5,-151.5 3492.5,-151.5 "/>
<text text-anchor="start" x="3138.5" y="-136.3" font-family="Times,serif" font-size="14.00" fill="#000000">c : float</text>
<polyline fill="none" stroke="#000000" points="3130.5,-128.5 3492.5,-128.5 "/>
<text text-anchor="start" x="3138.5" y="-113.3" font-family="Times,serif" font-size="14.00" fill="#000000">__init__(nbArms, c, lower, amplitude)</text>
<text text-anchor="start" x="3138.5" y="-98.3" font-family="Times,serif" font-size="14.00" fill="#000000">__str__()</text>
<text text-anchor="start" x="3138.5" y="-83.3" font-family="Times,serif" font-size="14.00" fill="#000000">computeIndex(arm)</text>
</g>
<!-- 10 -->
<g id="node11" class="node">
<title>10</title>
<polygon fill="none" stroke="#000000" points="3510.5,-75.5 3510.5,-174.5 3864.5,-174.5 3864.5,-75.5 3510.5,-75.5"/>
<text text-anchor="middle" x="3687.5" y="-159.3" font-family="Times,serif" font-size="14.00" fill="#000000">SMPyBandits.Policies.Experimentals.UCBoost_faster.UCB_t</text>
<polyline fill="none" stroke="#000000" points="3510.5,-151.5 3864.5,-151.5 "/>
<text text-anchor="start" x="3518.5" y="-136.3" font-family="Times,serif" font-size="14.00" fill="#000000">c : float</text>
<polyline fill="none" stroke="#000000" points="3510.5,-128.5 3864.5,-128.5 "/>
<text text-anchor="start" x="3518.5" y="-113.3" font-family="Times,serif" font-size="14.00" fill="#000000">__init__(nbArms, c, lower, amplitude)</text>
<text text-anchor="start" x="3518.5" y="-98.3" font-family="Times,serif" font-size="14.00" fill="#000000">__str__()</text>
<text text-anchor="start" x="3518.5" y="-83.3" font-family="Times,serif" font-size="14.00" fill="#000000">computeIndex(arm)</text>
</g>
<!-- 11 -->
<g id="node12" class="node">
<title>11</title>
<polygon fill="none" stroke="#000000" points="4347.5,-444 4347.5,-558 4713.5,-558 4713.5,-444 4347.5,-444"/>
<text text-anchor="middle" x="4530.5" y="-542.8" font-family="Times,serif" font-size="14.00" fill="#000000">SMPyBandits.Policies.Experimentals.UCBoost_faster.UCBoost</text>
<polyline fill="none" stroke="#000000" points="4347.5,-535 4713.5,-535 "/>
<text text-anchor="start" x="4355.5" y="-519.8" font-family="Times,serif" font-size="14.00" fill="#000000">c : float</text>
<text text-anchor="start" x="4355.5" y="-504.8" font-family="Times,serif" font-size="14.00" fill="#000000">set_D : list, int, NoneType</text>
<polyline fill="none" stroke="#000000" points="4347.5,-497 4713.5,-497 "/>
<text text-anchor="start" x="4355.5" y="-481.8" font-family="Times,serif" font-size="14.00" fill="#000000">__init__(nbArms, set_D, c, lower, amplitude)</text>
<text text-anchor="start" x="4355.5" y="-466.8" font-family="Times,serif" font-size="14.00" fill="#000000">__str__()</text>
<text text-anchor="start" x="4355.5" y="-451.8" font-family="Times,serif" font-size="14.00" fill="#000000">computeIndex(arm)</text>
</g>
<!-- 12 -->
<g id="node13" class="node">
<title>12</title>
<polygon fill="none" stroke="#000000" points="5227,-68 5227,-182 5634,-182 5634,-68 5227,-68"/>
<text text-anchor="middle" x="5430.5" y="-166.8" font-family="Times,serif" font-size="14.00" fill="#000000">SMPyBandits.Policies.Experimentals.UCBoost_faster.UCBoostEpsilon</text>
<polyline fill="none" stroke="#000000" points="5227,-159 5634,-159 "/>
<text text-anchor="start" x="5235" y="-143.8" font-family="Times,serif" font-size="14.00" fill="#000000">c : float</text>
<text text-anchor="start" x="5235" y="-128.8" font-family="Times,serif" font-size="14.00" fill="#000000">epsilon : float</text>
<polyline fill="none" stroke="#000000" points="5227,-121 5634,-121 "/>
<text text-anchor="start" x="5235" y="-105.8" font-family="Times,serif" font-size="14.00" fill="#000000">__init__(nbArms, epsilon, c, lower, amplitude)</text>
<text text-anchor="start" x="5235" y="-90.8" font-family="Times,serif" font-size="14.00" fill="#000000">__str__()</text>
<text text-anchor="start" x="5235" y="-75.8" font-family="Times,serif" font-size="14.00" fill="#000000">computeIndex(arm)</text>
</g>
<!-- 13 -->
<g id="node14" class="node">
<title>13</title>
<polygon fill="none" stroke="#000000" points="3882,-75 3882,-175 4299,-175 4299,-75 3882,-75"/>
<text text-anchor="middle" x="4090.5" y="-159.8" font-family="Times,serif" font-size="14.00" fill="#000000">SMPyBandits.Policies.Experimentals.UCBoost_faster.UCBoost_bq_h_lb</text>
<polyline fill="none" stroke="#000000" points="3882,-152 4299,-152 "/>
<polyline fill="none" stroke="#000000" points="3882,-128 4299,-128 "/>
<text text-anchor="start" x="3890" y="-112.8" font-family="Times,serif" font-size="14.00" fill="#000000">__init__(nbArms, c, lower, amplitude)</text>
<text text-anchor="start" x="3890" y="-97.8" font-family="Times,serif" font-size="14.00" fill="#000000">__str__()</text>
<text text-anchor="start" x="3890" y="-82.8" font-family="Times,serif" font-size="14.00" fill="#000000">computeIndex(arm)</text>
</g>
<!-- 13&#45;&gt;11 -->
<g id="edge2" class="edge">
<title>13&#45;&gt;11</title>
<path fill="none" stroke="#000000" d="M4149.3838,-175.3189C4228.6018,-243.0143 4369.5155,-363.4315 4456.0145,-437.3487"/>
<polygon fill="none" stroke="#000000" points="4453.8184,-440.0759 4463.6945,-443.9117 4458.3659,-434.7543 4453.8184,-440.0759"/>
</g>
<!-- 14 -->
<g id="node15" class="node">
<title>14</title>
<polygon fill="none" stroke="#000000" points="4316.5,-75 4316.5,-175 4744.5,-175 4744.5,-75 4316.5,-75"/>
<text text-anchor="middle" x="4530.5" y="-159.8" font-family="Times,serif" font-size="14.00" fill="#000000">SMPyBandits.Policies.Experimentals.UCBoost_faster.UCBoost_bq_h_lb_t</text>
<polyline fill="none" stroke="#000000" points="4316.5,-152 4744.5,-152 "/>
<polyline fill="none" stroke="#000000" points="4316.5,-128 4744.5,-128 "/>
<text text-anchor="start" x="4324.5" y="-112.8" font-family="Times,serif" font-size="14.00" fill="#000000">__init__(nbArms, c, lower, amplitude)</text>
<text text-anchor="start" x="4324.5" y="-97.8" font-family="Times,serif" font-size="14.00" fill="#000000">__str__()</text>
<text text-anchor="start" x="4324.5" y="-82.8" font-family="Times,serif" font-size="14.00" fill="#000000">computeIndex(arm)</text>
</g>
<!-- 14&#45;&gt;11 -->
<g id="edge3" class="edge">
<title>14&#45;&gt;11</title>
<path fill="none" stroke="#000000" d="M4530.5,-175.3189C4530.5,-241.9246 4530.5,-359.5685 4530.5,-433.7436"/>
<polygon fill="none" stroke="#000000" points="4527.0001,-433.9116 4530.5,-443.9117 4534.0001,-433.9117 4527.0001,-433.9116"/>
</g>
<!-- 15 -->
<g id="node16" class="node">
<title>15</title>
<polygon fill="none" stroke="#000000" points="4762.5,-75 4762.5,-175 5208.5,-175 5208.5,-75 4762.5,-75"/>
<text text-anchor="middle" x="4985.5" y="-159.8" font-family="Times,serif" font-size="14.00" fill="#000000">SMPyBandits.Policies.Experimentals.UCBoost_faster.UCBoost_bq_h_lb_t_sq</text>
<polyline fill="none" stroke="#000000" points="4762.5,-152 5208.5,-152 "/>
<polyline fill="none" stroke="#000000" points="4762.5,-128 5208.5,-128 "/>
<text text-anchor="start" x="4770.5" y="-112.8" font-family="Times,serif" font-size="14.00" fill="#000000">__init__(nbArms, c, lower, amplitude)</text>
<text text-anchor="start" x="4770.5" y="-97.8" font-family="Times,serif" font-size="14.00" fill="#000000">__str__()</text>
<text text-anchor="start" x="4770.5" y="-82.8" font-family="Times,serif" font-size="14.00" fill="#000000">computeIndex(arm)</text>
</g>
<!-- 15&#45;&gt;11 -->
<g id="edge4" class="edge">
<title>15&#45;&gt;11</title>
<path fill="none" stroke="#000000" d="M4924.6088,-175.3189C4842.6902,-243.0143 4696.9726,-363.4315 4607.5248,-437.3487"/>
<polygon fill="none" stroke="#000000" points="4605.062,-434.8435 4599.583,-443.9117 4609.5211,-440.2395 4605.062,-434.8435"/>
</g>
<!-- 16 -->
<g id="node17" class="node">
<title>16</title>
<polygon fill="none" stroke="#000000" points="5652,-82.5 5652,-167.5 6005,-167.5 6005,-82.5 5652,-82.5"/>
<text text-anchor="middle" x="5828.5" y="-152.3" font-family="Times,serif" font-size="14.00" fill="#000000">SMPyBandits.Policies.Experimentals.UCBwrong.UCBwrong</text>
<polyline fill="none" stroke="#000000" points="5652,-144.5 6005,-144.5 "/>
<polyline fill="none" stroke="#000000" points="5652,-120.5 6005,-120.5 "/>
<text text-anchor="start" x="5660" y="-105.3" font-family="Times,serif" font-size="14.00" fill="#000000">computeAllIndex()</text>
<text text-anchor="start" x="5660" y="-90.3" font-family="Times,serif" font-size="14.00" fill="#000000">computeIndex(arm)</text>
</g>
<!-- 17 -->
<g id="node18" class="node">
<title>17</title>
<polygon fill="none" stroke="#000000" points="6057.5,-428.5 6057.5,-573.5 6481.5,-573.5 6481.5,-428.5 6057.5,-428.5"/>
<text text-anchor="middle" x="6269.5" y="-558.3" font-family="Times,serif" font-size="14.00" fill="#000000">SMPyBandits.Policies.Experimentals.UnsupervisedLearning.FittingModel</text>
<polyline fill="none" stroke="#000000" points="6057.5,-550.5 6481.5,-550.5 "/>
<polyline fill="none" stroke="#000000" points="6057.5,-526.5 6481.5,-526.5 "/>
<text text-anchor="start" x="6065.5" y="-511.3" font-family="Times,serif" font-size="14.00" fill="#000000">__init__()</text>
<text text-anchor="start" x="6065.5" y="-496.3" font-family="Times,serif" font-size="14.00" fill="#000000">__repr__()</text>
<text text-anchor="start" x="6065.5" y="-481.3" font-family="Times,serif" font-size="14.00" fill="#000000">fit(data)</text>
<text text-anchor="start" x="6065.5" y="-466.3" font-family="Times,serif" font-size="14.00" fill="#000000">sample(shape)</text>
<text text-anchor="start" x="6065.5" y="-451.3" font-family="Times,serif" font-size="14.00" fill="#000000">score(data)</text>
<text text-anchor="start" x="6065.5" y="-436.3" font-family="Times,serif" font-size="14.00" fill="#000000">score_samples(data)</text>
</g>
<!-- 18 -->
<g id="node19" class="node">
<title>18</title>
<polygon fill="none" stroke="#000000" points="6023,-45.5 6023,-204.5 6502,-204.5 6502,-45.5 6023,-45.5"/>
<text text-anchor="middle" x="6262.5" y="-189.3" font-family="Times,serif" font-size="14.00" fill="#000000">SMPyBandits.Policies.Experimentals.UnsupervisedLearning.SimpleBernoulliKernel</text>
<polyline fill="none" stroke="#000000" points="6023,-181.5 6502,-181.5 "/>
<text text-anchor="start" x="6031" y="-166.3" font-family="Times,serif" font-size="14.00" fill="#000000">amplitude : float</text>
<text text-anchor="start" x="6031" y="-151.3" font-family="Times,serif" font-size="14.00" fill="#000000">lower : float</text>
<text text-anchor="start" x="6031" y="-136.3" font-family="Times,serif" font-size="14.00" fill="#000000">mu : ndarray, NoneType</text>
<polyline fill="none" stroke="#000000" points="6023,-128.5 6502,-128.5 "/>
<text text-anchor="start" x="6031" y="-113.3" font-family="Times,serif" font-size="14.00" fill="#000000">__init__(p)</text>
<text text-anchor="start" x="6031" y="-98.3" font-family="Times,serif" font-size="14.00" fill="#000000">__str__()</text>
<text text-anchor="start" x="6031" y="-83.3" font-family="Times,serif" font-size="14.00" fill="#000000">fit(data)</text>
<text text-anchor="start" x="6031" y="-68.3" font-family="Times,serif" font-size="14.00" fill="#000000">sample(shape)</text>
<text text-anchor="start" x="6031" y="-53.3" font-family="Times,serif" font-size="14.00" fill="#000000">score_samples(data)</text>
</g>
<!-- 18&#45;&gt;17 -->
<g id="edge5" class="edge">
<title>18&#45;&gt;17</title>
<path fill="none" stroke="#000000" d="M6263.9845,-204.7399C6265.1516,-267.4297 6266.7723,-354.4823 6267.9547,-417.9975"/>
<polygon fill="none" stroke="#000000" points="6264.4624,-418.445 6268.148,-428.3781 6271.4612,-418.3147 6264.4624,-418.445"/>
</g>
<!-- 19 -->
<g id="node20" class="node">
<title>19</title>
<polygon fill="none" stroke="#000000" points="6520,-53 6520,-197 6997,-197 6997,-53 6520,-53"/>
<text text-anchor="middle" x="6758.5" y="-181.8" font-family="Times,serif" font-size="14.00" fill="#000000">SMPyBandits.Policies.Experimentals.UnsupervisedLearning.SimpleGaussianKernel</text>
<polyline fill="none" stroke="#000000" points="6520,-174 6997,-174 "/>
<text text-anchor="start" x="6528" y="-158.8" font-family="Times,serif" font-size="14.00" fill="#000000">loc : ndarray, float</text>
<text text-anchor="start" x="6528" y="-143.8" font-family="Times,serif" font-size="14.00" fill="#000000">scale : ndarray, float</text>
<polyline fill="none" stroke="#000000" points="6520,-136 6997,-136 "/>
<text text-anchor="start" x="6528" y="-120.8" font-family="Times,serif" font-size="14.00" fill="#000000">__init__(loc, scale)</text>
<text text-anchor="start" x="6528" y="-105.8" font-family="Times,serif" font-size="14.00" fill="#000000">__str__()</text>
<text text-anchor="start" x="6528" y="-90.8" font-family="Times,serif" font-size="14.00" fill="#000000">fit(data)</text>
<text text-anchor="start" x="6528" y="-75.8" font-family="Times,serif" font-size="14.00" fill="#000000">sample(shape)</text>
<text text-anchor="start" x="6528" y="-60.8" font-family="Times,serif" font-size="14.00" fill="#000000">score_samples(data)</text>
</g>
<!-- 19&#45;&gt;17 -->
<g id="edge6" class="edge">
<title>19&#45;&gt;17</title>
<path fill="none" stroke="#000000" d="M6664.7945,-197.0517C6581.0236,-261.4645 6458.5063,-355.67 6372.1205,-422.0935"/>
<polygon fill="none" stroke="#000000" points="6369.9319,-419.3612 6364.1379,-428.2314 6374.1988,-424.9105 6369.9319,-419.3612"/>
</g>
<!-- 20 -->
<g id="node21" class="node">
<title>20</title>
<polygon fill="none" stroke="#000000" points="6560,-301.5 6560,-700.5 7035,-700.5 7035,-301.5 6560,-301.5"/>
<text text-anchor="middle" x="6797.5" y="-685.3" font-family="Times,serif" font-size="14.00" fill="#000000">SMPyBandits.Policies.Experimentals.UnsupervisedLearning.UnsupervisedLearning</text>
<polyline fill="none" stroke="#000000" points="6560,-677.5 7035,-677.5 "/>
<text text-anchor="start" x="6568" y="-662.3" font-family="Times,serif" font-size="14.00" fill="#000000">T_0 : int</text>
<text text-anchor="start" x="6568" y="-647.3" font-family="Times,serif" font-size="14.00" fill="#000000">_args : tuple</text>
<text text-anchor="start" x="6568" y="-632.3" font-family="Times,serif" font-size="14.00" fill="#000000">_estimator</text>
<text text-anchor="start" x="6568" y="-617.3" font-family="Times,serif" font-size="14.00" fill="#000000">_kwargs : dict</text>
<text text-anchor="start" x="6568" y="-602.3" font-family="Times,serif" font-size="14.00" fill="#000000">_was_fitted : bool</text>
<text text-anchor="start" x="6568" y="-587.3" font-family="Times,serif" font-size="14.00" fill="#000000">amplitude : float</text>
<text text-anchor="start" x="6568" y="-572.3" font-family="Times,serif" font-size="14.00" fill="#000000">ests</text>
<text text-anchor="start" x="6568" y="-557.3" font-family="Times,serif" font-size="14.00" fill="#000000">fit_every : int</text>
<text text-anchor="start" x="6568" y="-542.3" font-family="Times,serif" font-size="14.00" fill="#000000">givenEstimator</text>
<text text-anchor="start" x="6568" y="-527.3" font-family="Times,serif" font-size="14.00" fill="#000000">lower : float</text>
<text text-anchor="start" x="6568" y="-512.3" font-family="Times,serif" font-size="14.00" fill="#000000">meanOf : int</text>
<text text-anchor="start" x="6568" y="-497.3" font-family="Times,serif" font-size="14.00" fill="#000000">nbArms</text>
<text text-anchor="start" x="6568" y="-482.3" font-family="Times,serif" font-size="14.00" fill="#000000">observations</text>
<text text-anchor="start" x="6568" y="-467.3" font-family="Times,serif" font-size="14.00" fill="#000000">t : int</text>
<polyline fill="none" stroke="#000000" points="6560,-459.5 7035,-459.5 "/>
<text text-anchor="start" x="6568" y="-444.3" font-family="Times,serif" font-size="14.00" fill="#000000">__init__(nbArms, estimator, T_0, fit_every, meanOf, lower, amplitude)</text>
<text text-anchor="start" x="6568" y="-429.3" font-family="Times,serif" font-size="14.00" fill="#000000">__str__()</text>
<text text-anchor="start" x="6568" y="-414.3" font-family="Times,serif" font-size="14.00" fill="#000000">choice()</text>
<text text-anchor="start" x="6568" y="-399.3" font-family="Times,serif" font-size="14.00" fill="#000000">estimatedOrder()</text>
<text text-anchor="start" x="6568" y="-384.3" font-family="Times,serif" font-size="14.00" fill="#000000">fit(data)</text>
<text text-anchor="start" x="6568" y="-369.3" font-family="Times,serif" font-size="14.00" fill="#000000">getReward(armId, reward)</text>
<text text-anchor="start" x="6568" y="-354.3" font-family="Times,serif" font-size="14.00" fill="#000000">sample()</text>
<text text-anchor="start" x="6568" y="-339.3" font-family="Times,serif" font-size="14.00" fill="#000000">sample_with_mean(meanOf)</text>
<text text-anchor="start" x="6568" y="-324.3" font-family="Times,serif" font-size="14.00" fill="#000000">score(obs)</text>
<text text-anchor="start" x="6568" y="-309.3" font-family="Times,serif" font-size="14.00" fill="#000000">startGame()</text>
</g>
<!-- 19&#45;&gt;20 -->
<g id="edge7" class="edge">
<title>19&#45;&gt;20</title>
<path fill="none" stroke="#000000" d="M6717.3652,-197.1262C6706.731,-223.7235 6699.7039,-254.3586 6705.5,-283 6705.9392,-285.1704 6706.4008,-287.3461 6706.8834,-289.5259"/>
<polygon fill="#000000" stroke="#000000" points="6706.8867,-289.5399 6712.1651,-294.453 6709.6601,-301.2151 6704.3817,-296.3019 6706.8867,-289.5399"/>
<text text-anchor="middle" x="6747.5" y="-271.8" font-family="Times,serif" font-size="14.00" fill="#00ff00">givenEstimator</text>
</g>
<!-- 19&#45;&gt;20 -->
<g id="edge8" class="edge">
<title>19&#45;&gt;20</title>
<path fill="none" stroke="#000000" d="M6776.8106,-197.3151C6781.7958,-219.8172 6786.6117,-244.8084 6789.5,-268 6790.3652,-274.9473 6791.15,-282.0194 6791.8613,-289.1679"/>
<polygon fill="#000000" stroke="#000000" points="6791.8749,-289.3136 6796.4153,-294.9158 6792.9903,-301.2617 6788.4499,-295.6595 6791.8749,-289.3136"/>
<text text-anchor="middle" x="6819.5" y="-271.8" font-family="Times,serif" font-size="14.00" fill="#00ff00">_estimator</text>
</g>
<!-- 21 -->
<g id="node22" class="node">
<title>21</title>
<polygon fill="none" stroke="#000000" points="7015,-75 7015,-175 7382,-175 7382,-75 7015,-75"/>
<text text-anchor="middle" x="7198.5" y="-159.8" font-family="Times,serif" font-size="14.00" fill="#000000">SMPyBandits.Policies.Experimentals.klUCBlog10.klUCBlog10</text>
<polyline fill="none" stroke="#000000" points="7015,-152 7382,-152 "/>
<polyline fill="none" stroke="#000000" points="7015,-128 7382,-128 "/>
<text text-anchor="start" x="7023" y="-112.8" font-family="Times,serif" font-size="14.00" fill="#000000">__str__()</text>
<text text-anchor="start" x="7023" y="-97.8" font-family="Times,serif" font-size="14.00" fill="#000000">computeAllIndex()</text>
<text text-anchor="start" x="7023" y="-82.8" font-family="Times,serif" font-size="14.00" fill="#000000">computeIndex(arm)</text>
</g>
<!-- 22 -->
<g id="node23" class="node">
<title>22</title>
<polygon fill="none" stroke="#000000" points="7400,-75 7400,-175 7801,-175 7801,-75 7400,-75"/>
<text text-anchor="middle" x="7600.5" y="-159.8" font-family="Times,serif" font-size="14.00" fill="#000000">SMPyBandits.Policies.Experimentals.klUCBloglog10.klUCBloglog10</text>
<polyline fill="none" stroke="#000000" points="7400,-152 7801,-152 "/>
<polyline fill="none" stroke="#000000" points="7400,-128 7801,-128 "/>
<text text-anchor="start" x="7408" y="-112.8" font-family="Times,serif" font-size="14.00" fill="#000000">__str__()</text>
<text text-anchor="start" x="7408" y="-97.8" font-family="Times,serif" font-size="14.00" fill="#000000">computeAllIndex()</text>
<text text-anchor="start" x="7408" y="-82.8" font-family="Times,serif" font-size="14.00" fill="#000000">computeIndex(arm)</text>
</g>
</g>
</svg>
