<?xml version="1.0" encoding="UTF-8" standalone="no"?>
<!DOCTYPE svg PUBLIC "-//W3C//DTD SVG 1.1//EN"
 "http://www.w3.org/Graphics/SVG/1.1/DTD/svg11.dtd">
<!-- Generated by graphviz version 2.40.1 (20161225.0304)
 -->
<!-- Title: classes_SMPyBandits.Arms Pages: 1 -->
<svg width="5112pt" height="711pt"
 viewBox="0.00 0.00 5111.50 711.00" xmlns="http://www.w3.org/2000/svg" xmlns:xlink="http://www.w3.org/1999/xlink">
<g id="graph0" class="graph" transform="scale(1 1) rotate(0) translate(4 707)">
<title>classes_SMPyBandits.Arms</title>
<polygon fill="#ffffff" stroke="transparent" points="-4,4 -4,-707 5107.5,-707 5107.5,4 -4,4"/>
<!-- 0 -->
<g id="node1" class="node">
<title>0</title>
<polygon fill="none" stroke="#000000" points="1089.5,-468.5 1089.5,-702.5 1274.5,-702.5 1274.5,-468.5 1089.5,-468.5"/>
<text text-anchor="middle" x="1182" y="-687.3" font-family="Times,serif" font-size="14.00" fill="#000000">SMPyBandits.Arms.Arm.Arm</text>
<polyline fill="none" stroke="#000000" points="1089.5,-679.5 1274.5,-679.5 "/>
<text text-anchor="start" x="1097.5" y="-664.3" font-family="Times,serif" font-size="14.00" fill="#000000">amplitude : float</text>
<text text-anchor="start" x="1097.5" y="-649.3" font-family="Times,serif" font-size="14.00" fill="#000000">lower : float</text>
<text text-anchor="start" x="1097.5" y="-634.3" font-family="Times,serif" font-size="14.00" fill="#000000">lower_amplitude</text>
<text text-anchor="start" x="1097.5" y="-619.3" font-family="Times,serif" font-size="14.00" fill="#000000">max : float</text>
<text text-anchor="start" x="1097.5" y="-604.3" font-family="Times,serif" font-size="14.00" fill="#000000">min : float</text>
<polyline fill="none" stroke="#000000" points="1089.5,-596.5 1274.5,-596.5 "/>
<text text-anchor="start" x="1097.5" y="-581.3" font-family="Times,serif" font-size="14.00" fill="#000000">__init__()</text>
<text text-anchor="start" x="1097.5" y="-566.3" font-family="Times,serif" font-size="14.00" fill="#000000">__repr__()</text>
<text text-anchor="start" x="1097.5" y="-551.3" font-family="Times,serif" font-size="14.00" fill="#000000">__str__()</text>
<text text-anchor="start" x="1097.5" y="-536.3" font-family="Times,serif" font-size="14.00" fill="#000000">draw()</text>
<text text-anchor="start" x="1097.5" y="-521.3" font-family="Times,serif" font-size="14.00" fill="#000000">draw_nparray()</text>
<text text-anchor="start" x="1097.5" y="-506.3" font-family="Times,serif" font-size="14.00" fill="#000000">kl()</text>
<text text-anchor="start" x="1097.5" y="-491.3" font-family="Times,serif" font-size="14.00" fill="#000000">oneHOI()</text>
<text text-anchor="start" x="1097.5" y="-476.3" font-family="Times,serif" font-size="14.00" fill="#000000">oneLR()</text>
</g>
<!-- 1 -->
<g id="node2" class="node">
<title>1</title>
<polygon fill="none" stroke="#000000" points="0,-197.5 0,-386.5 236,-386.5 236,-197.5 0,-197.5"/>
<text text-anchor="middle" x="118" y="-371.3" font-family="Times,serif" font-size="14.00" fill="#000000">SMPyBandits.Arms.Bernoulli.Bernoulli</text>
<polyline fill="none" stroke="#000000" points="0,-363.5 236,-363.5 "/>
<text text-anchor="start" x="8" y="-348.3" font-family="Times,serif" font-size="14.00" fill="#000000">lower_amplitude</text>
<text text-anchor="start" x="8" y="-333.3" font-family="Times,serif" font-size="14.00" fill="#000000">mean</text>
<text text-anchor="start" x="8" y="-318.3" font-family="Times,serif" font-size="14.00" fill="#000000">probability</text>
<polyline fill="none" stroke="#000000" points="0,-310.5 236,-310.5 "/>
<text text-anchor="start" x="8" y="-295.3" font-family="Times,serif" font-size="14.00" fill="#000000">__init__()</text>
<text text-anchor="start" x="8" y="-280.3" font-family="Times,serif" font-size="14.00" fill="#000000">__repr__()</text>
<text text-anchor="start" x="8" y="-265.3" font-family="Times,serif" font-size="14.00" fill="#000000">__str__()</text>
<text text-anchor="start" x="8" y="-250.3" font-family="Times,serif" font-size="14.00" fill="#000000">draw()</text>
<text text-anchor="start" x="8" y="-235.3" font-family="Times,serif" font-size="14.00" fill="#000000">draw_nparray()</text>
<text text-anchor="start" x="8" y="-220.3" font-family="Times,serif" font-size="14.00" fill="#000000">kl()</text>
<text text-anchor="start" x="8" y="-205.3" font-family="Times,serif" font-size="14.00" fill="#000000">oneLR()</text>
</g>
<!-- 1&#45;&gt;0 -->
<g id="edge1" class="edge">
<title>1&#45;&gt;0</title>
<path fill="none" stroke="#000000" d="M187.6488,-386.7915C204.5872,-404.2497 223.9563,-420.5525 245,-432 387.8263,-509.6954 866.9226,-558.7973 1079.2309,-577.2377"/>
<polygon fill="none" stroke="#000000" points="1079.1807,-580.7463 1089.4446,-578.119 1079.7826,-573.7722 1079.1807,-580.7463"/>
</g>
<!-- 2 -->
<g id="node3" class="node">
<title>2</title>
<polygon fill="none" stroke="#000000" points="254,-190 254,-394 490,-394 490,-190 254,-190"/>
<text text-anchor="middle" x="372" y="-378.8" font-family="Times,serif" font-size="14.00" fill="#000000">SMPyBandits.Arms.Binomial.Binomial</text>
<polyline fill="none" stroke="#000000" points="254,-371 490,-371 "/>
<text text-anchor="start" x="262" y="-355.8" font-family="Times,serif" font-size="14.00" fill="#000000">draws : int</text>
<text text-anchor="start" x="262" y="-340.8" font-family="Times,serif" font-size="14.00" fill="#000000">lower_amplitude</text>
<text text-anchor="start" x="262" y="-325.8" font-family="Times,serif" font-size="14.00" fill="#000000">mean</text>
<text text-anchor="start" x="262" y="-310.8" font-family="Times,serif" font-size="14.00" fill="#000000">probability</text>
<polyline fill="none" stroke="#000000" points="254,-303 490,-303 "/>
<text text-anchor="start" x="262" y="-287.8" font-family="Times,serif" font-size="14.00" fill="#000000">__init__()</text>
<text text-anchor="start" x="262" y="-272.8" font-family="Times,serif" font-size="14.00" fill="#000000">__repr__()</text>
<text text-anchor="start" x="262" y="-257.8" font-family="Times,serif" font-size="14.00" fill="#000000">__str__()</text>
<text text-anchor="start" x="262" y="-242.8" font-family="Times,serif" font-size="14.00" fill="#000000">draw()</text>
<text text-anchor="start" x="262" y="-227.8" font-family="Times,serif" font-size="14.00" fill="#000000">draw_nparray()</text>
<text text-anchor="start" x="262" y="-212.8" font-family="Times,serif" font-size="14.00" fill="#000000">kl()</text>
<text text-anchor="start" x="262" y="-197.8" font-family="Times,serif" font-size="14.00" fill="#000000">oneLR()</text>
</g>
<!-- 2&#45;&gt;0 -->
<g id="edge2" class="edge">
<title>2&#45;&gt;0</title>
<path fill="none" stroke="#000000" d="M450.3352,-394.0482C465.173,-408.4816 481.562,-421.8399 499,-432 596.7781,-488.9698 913.7273,-544.2834 1079.2358,-570.2033"/>
<polygon fill="none" stroke="#000000" points="1079.0093,-573.7102 1089.4291,-571.7924 1080.0876,-566.7937 1079.0093,-573.7102"/>
</g>
<!-- 3 -->
<g id="node4" class="node">
<title>3</title>
<polygon fill="none" stroke="#000000" points="508,-190 508,-394 738,-394 738,-190 508,-190"/>
<text text-anchor="middle" x="623" y="-378.8" font-family="Times,serif" font-size="14.00" fill="#000000">SMPyBandits.Arms.Constant.Constant</text>
<polyline fill="none" stroke="#000000" points="508,-371 738,-371 "/>
<text text-anchor="start" x="516" y="-355.8" font-family="Times,serif" font-size="14.00" fill="#000000">amplitude : float</text>
<text text-anchor="start" x="516" y="-340.8" font-family="Times,serif" font-size="14.00" fill="#000000">constant_reward : float</text>
<text text-anchor="start" x="516" y="-325.8" font-family="Times,serif" font-size="14.00" fill="#000000">lower</text>
<text text-anchor="start" x="516" y="-310.8" font-family="Times,serif" font-size="14.00" fill="#000000">mean : float</text>
<polyline fill="none" stroke="#000000" points="508,-303 738,-303 "/>
<text text-anchor="start" x="516" y="-287.8" font-family="Times,serif" font-size="14.00" fill="#000000">__init__()</text>
<text text-anchor="start" x="516" y="-272.8" font-family="Times,serif" font-size="14.00" fill="#000000">__repr__()</text>
<text text-anchor="start" x="516" y="-257.8" font-family="Times,serif" font-size="14.00" fill="#000000">__str__()</text>
<text text-anchor="start" x="516" y="-242.8" font-family="Times,serif" font-size="14.00" fill="#000000">draw()</text>
<text text-anchor="start" x="516" y="-227.8" font-family="Times,serif" font-size="14.00" fill="#000000">draw_nparray()</text>
<text text-anchor="start" x="516" y="-212.8" font-family="Times,serif" font-size="14.00" fill="#000000">kl()</text>
<text text-anchor="start" x="516" y="-197.8" font-family="Times,serif" font-size="14.00" fill="#000000">oneLR()</text>
</g>
<!-- 3&#45;&gt;0 -->
<g id="edge3" class="edge">
<title>3&#45;&gt;0</title>
<path fill="none" stroke="#000000" d="M702.0471,-394.1119C715.9575,-408.0974 731.1097,-421.3011 747,-432 849.5521,-501.0484 986.605,-542.6397 1079.2566,-564.7798"/>
<polygon fill="none" stroke="#000000" points="1078.6678,-568.2368 1089.2039,-567.1228 1080.2728,-561.4232 1078.6678,-568.2368"/>
</g>
<!-- 4 -->
<g id="node5" class="node">
<title>4</title>
<polygon fill="none" stroke="#000000" points="756.5,-152.5 756.5,-431.5 1031.5,-431.5 1031.5,-152.5 756.5,-152.5"/>
<text text-anchor="middle" x="894" y="-416.3" font-family="Times,serif" font-size="14.00" fill="#000000">SMPyBandits.Arms.DiscreteArm.DiscreteArm</text>
<polyline fill="none" stroke="#000000" points="756.5,-408.5 1031.5,-408.5 "/>
<text text-anchor="start" x="764.5" y="-393.3" font-family="Times,serif" font-size="14.00" fill="#000000">_amplitude</text>
<text text-anchor="start" x="764.5" y="-378.3" font-family="Times,serif" font-size="14.00" fill="#000000">_items : list</text>
<text text-anchor="start" x="764.5" y="-363.3" font-family="Times,serif" font-size="14.00" fill="#000000">_lower</text>
<text text-anchor="start" x="764.5" y="-348.3" font-family="Times,serif" font-size="14.00" fill="#000000">_probabilities : recarray, list</text>
<text text-anchor="start" x="764.5" y="-333.3" font-family="Times,serif" font-size="14.00" fill="#000000">_values : list, recarray</text>
<text text-anchor="start" x="764.5" y="-318.3" font-family="Times,serif" font-size="14.00" fill="#000000">_values_to_proba</text>
<text text-anchor="start" x="764.5" y="-303.3" font-family="Times,serif" font-size="14.00" fill="#000000">lower_amplitude</text>
<text text-anchor="start" x="764.5" y="-288.3" font-family="Times,serif" font-size="14.00" fill="#000000">mean</text>
<text text-anchor="start" x="764.5" y="-273.3" font-family="Times,serif" font-size="14.00" fill="#000000">size</text>
<polyline fill="none" stroke="#000000" points="756.5,-265.5 1031.5,-265.5 "/>
<text text-anchor="start" x="764.5" y="-250.3" font-family="Times,serif" font-size="14.00" fill="#000000">__init__()</text>
<text text-anchor="start" x="764.5" y="-235.3" font-family="Times,serif" font-size="14.00" fill="#000000">__repr__()</text>
<text text-anchor="start" x="764.5" y="-220.3" font-family="Times,serif" font-size="14.00" fill="#000000">__str__()</text>
<text text-anchor="start" x="764.5" y="-205.3" font-family="Times,serif" font-size="14.00" fill="#000000">draw()</text>
<text text-anchor="start" x="764.5" y="-190.3" font-family="Times,serif" font-size="14.00" fill="#000000">draw_nparray()</text>
<text text-anchor="start" x="764.5" y="-175.3" font-family="Times,serif" font-size="14.00" fill="#000000">kl()</text>
<text text-anchor="start" x="764.5" y="-160.3" font-family="Times,serif" font-size="14.00" fill="#000000">oneLR()</text>
</g>
<!-- 4&#45;&gt;0 -->
<g id="edge4" class="edge">
<title>4&#45;&gt;0</title>
<path fill="none" stroke="#000000" d="M1031.2522,-431.8733C1048.4927,-449.443 1065.8624,-467.1445 1082.37,-483.9673"/>
<polygon fill="none" stroke="#000000" points="1079.8869,-486.4341 1089.389,-491.1204 1084.8833,-481.5313 1079.8869,-486.4341"/>
</g>
<!-- 5 -->
<g id="node6" class="node">
<title>5</title>
<polygon fill="none" stroke="#000000" points="1049.5,-182.5 1049.5,-401.5 1314.5,-401.5 1314.5,-182.5 1049.5,-182.5"/>
<text text-anchor="middle" x="1182" y="-386.3" font-family="Times,serif" font-size="14.00" fill="#000000">SMPyBandits.Arms.Exponential.Exponential</text>
<polyline fill="none" stroke="#000000" points="1049.5,-378.5 1314.5,-378.5 "/>
<text text-anchor="start" x="1057.5" y="-363.3" font-family="Times,serif" font-size="14.00" fill="#000000">lower_amplitude</text>
<text text-anchor="start" x="1057.5" y="-348.3" font-family="Times,serif" font-size="14.00" fill="#000000">mean</text>
<text text-anchor="start" x="1057.5" y="-333.3" font-family="Times,serif" font-size="14.00" fill="#000000">p</text>
<text text-anchor="start" x="1057.5" y="-318.3" font-family="Times,serif" font-size="14.00" fill="#000000">trunc : int</text>
<polyline fill="none" stroke="#000000" points="1049.5,-310.5 1314.5,-310.5 "/>
<text text-anchor="start" x="1057.5" y="-295.3" font-family="Times,serif" font-size="14.00" fill="#000000">__init__()</text>
<text text-anchor="start" x="1057.5" y="-280.3" font-family="Times,serif" font-size="14.00" fill="#000000">__repr__()</text>
<text text-anchor="start" x="1057.5" y="-265.3" font-family="Times,serif" font-size="14.00" fill="#000000">__str__()</text>
<text text-anchor="start" x="1057.5" y="-250.3" font-family="Times,serif" font-size="14.00" fill="#000000">draw()</text>
<text text-anchor="start" x="1057.5" y="-235.3" font-family="Times,serif" font-size="14.00" fill="#000000">draw_nparray()</text>
<text text-anchor="start" x="1057.5" y="-220.3" font-family="Times,serif" font-size="14.00" fill="#000000">kl()</text>
<text text-anchor="start" x="1057.5" y="-205.3" font-family="Times,serif" font-size="14.00" fill="#000000">oneHOI()</text>
<text text-anchor="start" x="1057.5" y="-190.3" font-family="Times,serif" font-size="14.00" fill="#000000">oneLR()</text>
</g>
<!-- 5&#45;&gt;0 -->
<g id="edge5" class="edge">
<title>5&#45;&gt;0</title>
<path fill="none" stroke="#000000" d="M1182,-401.7059C1182,-420.0621 1182,-439.2457 1182,-458.0023"/>
<polygon fill="none" stroke="#000000" points="1178.5001,-458.0666 1182,-468.0667 1185.5001,-458.0667 1178.5001,-458.0666"/>
</g>
<!-- 6 -->
<g id="node7" class="node">
<title>6</title>
<polygon fill="none" stroke="#000000" points="309,-23 309,-93 635,-93 635,-23 309,-23"/>
<text text-anchor="middle" x="472" y="-77.8" font-family="Times,serif" font-size="14.00" fill="#000000">SMPyBandits.Arms.Exponential.ExponentialFromMean</text>
<polyline fill="none" stroke="#000000" points="309,-70 635,-70 "/>
<polyline fill="none" stroke="#000000" points="309,-46 635,-46 "/>
<text text-anchor="start" x="317" y="-30.8" font-family="Times,serif" font-size="14.00" fill="#000000">__init__()</text>
</g>
<!-- 6&#45;&gt;5 -->
<g id="edge6" class="edge">
<title>6&#45;&gt;5</title>
<path fill="none" stroke="#000000" d="M562.8346,-93.0568C588.7166,-101.8282 617.1742,-110.3398 644,-116 816.9185,-152.4854 879.6942,-77.6088 1040,-152 1053.7818,-158.3955 1067.0115,-166.7128 1079.4734,-176.1048"/>
<polygon fill="none" stroke="#000000" points="1077.517,-179.018 1087.5499,-182.4225 1081.8299,-173.5044 1077.517,-179.018"/>
</g>
<!-- 7 -->
<g id="node8" class="node">
<title>7</title>
<polygon fill="none" stroke="#000000" points="653,-23 653,-93 981,-93 981,-23 653,-23"/>
<text text-anchor="middle" x="817" y="-77.8" font-family="Times,serif" font-size="14.00" fill="#000000">SMPyBandits.Arms.Exponential.UnboundedExponential</text>
<polyline fill="none" stroke="#000000" points="653,-70 981,-70 "/>
<polyline fill="none" stroke="#000000" points="653,-46 981,-46 "/>
<text text-anchor="start" x="661" y="-30.8" font-family="Times,serif" font-size="14.00" fill="#000000">__init__()</text>
</g>
<!-- 7&#45;&gt;5 -->
<g id="edge7" class="edge">
<title>7&#45;&gt;5</title>
<path fill="none" stroke="#000000" d="M922.7462,-93.0701C961.2975,-108.2574 1004.1827,-128.0901 1040,-152 1050.7841,-159.1989 1061.4521,-167.288 1071.8071,-175.8527"/>
<polygon fill="none" stroke="#000000" points="1069.7638,-178.7082 1079.6615,-182.4879 1074.2812,-173.3609 1069.7638,-178.7082"/>
</g>
<!-- 8 -->
<g id="node9" class="node">
<title>8</title>
<polygon fill="none" stroke="#000000" points="1332.5,-167.5 1332.5,-416.5 1555.5,-416.5 1555.5,-167.5 1332.5,-167.5"/>
<text text-anchor="middle" x="1444" y="-401.3" font-family="Times,serif" font-size="14.00" fill="#000000">SMPyBandits.Arms.Gamma.Gamma</text>
<polyline fill="none" stroke="#000000" points="1332.5,-393.5 1555.5,-393.5 "/>
<text text-anchor="start" x="1340.5" y="-378.3" font-family="Times,serif" font-size="14.00" fill="#000000">lower_amplitude</text>
<text text-anchor="start" x="1340.5" y="-363.3" font-family="Times,serif" font-size="14.00" fill="#000000">max : int</text>
<text text-anchor="start" x="1340.5" y="-348.3" font-family="Times,serif" font-size="14.00" fill="#000000">mean</text>
<text text-anchor="start" x="1340.5" y="-333.3" font-family="Times,serif" font-size="14.00" fill="#000000">min : int</text>
<text text-anchor="start" x="1340.5" y="-318.3" font-family="Times,serif" font-size="14.00" fill="#000000">scale : float</text>
<text text-anchor="start" x="1340.5" y="-303.3" font-family="Times,serif" font-size="14.00" fill="#000000">shape</text>
<polyline fill="none" stroke="#000000" points="1332.5,-295.5 1555.5,-295.5 "/>
<text text-anchor="start" x="1340.5" y="-280.3" font-family="Times,serif" font-size="14.00" fill="#000000">__init__()</text>
<text text-anchor="start" x="1340.5" y="-265.3" font-family="Times,serif" font-size="14.00" fill="#000000">__repr__()</text>
<text text-anchor="start" x="1340.5" y="-250.3" font-family="Times,serif" font-size="14.00" fill="#000000">__str__()</text>
<text text-anchor="start" x="1340.5" y="-235.3" font-family="Times,serif" font-size="14.00" fill="#000000">draw()</text>
<text text-anchor="start" x="1340.5" y="-220.3" font-family="Times,serif" font-size="14.00" fill="#000000">draw_nparray()</text>
<text text-anchor="start" x="1340.5" y="-205.3" font-family="Times,serif" font-size="14.00" fill="#000000">kl()</text>
<text text-anchor="start" x="1340.5" y="-190.3" font-family="Times,serif" font-size="14.00" fill="#000000">oneHOI()</text>
<text text-anchor="start" x="1340.5" y="-175.3" font-family="Times,serif" font-size="14.00" fill="#000000">oneLR()</text>
</g>
<!-- 8&#45;&gt;0 -->
<g id="edge8" class="edge">
<title>8&#45;&gt;0</title>
<path fill="none" stroke="#000000" d="M1336.6551,-416.5951C1332.0542,-421.8106 1327.4881,-426.9631 1323,-432 1309.6562,-446.9752 1295.4806,-462.6618 1281.4588,-478.0497"/>
<polygon fill="none" stroke="#000000" points="1278.7469,-475.8291 1274.5921,-485.5753 1283.9179,-480.5473 1278.7469,-475.8291"/>
</g>
<!-- 9 -->
<g id="node10" class="node">
<title>9</title>
<polygon fill="none" stroke="#000000" points="999,-23 999,-93 1283,-93 1283,-23 999,-23"/>
<text text-anchor="middle" x="1141" y="-77.8" font-family="Times,serif" font-size="14.00" fill="#000000">SMPyBandits.Arms.Gamma.GammaFromMean</text>
<polyline fill="none" stroke="#000000" points="999,-70 1283,-70 "/>
<polyline fill="none" stroke="#000000" points="999,-46 1283,-46 "/>
<text text-anchor="start" x="1007" y="-30.8" font-family="Times,serif" font-size="14.00" fill="#000000">__init__()</text>
</g>
<!-- 9&#45;&gt;8 -->
<g id="edge9" class="edge">
<title>9&#45;&gt;8</title>
<path fill="none" stroke="#000000" d="M1225.1929,-93.187C1257.4419,-108.7313 1293.5317,-128.7777 1323,-152 1326.4064,-154.6844 1329.79,-157.4749 1333.1437,-160.3531"/>
<polygon fill="none" stroke="#000000" points="1331.1009,-163.2187 1340.9116,-167.2188 1335.7367,-157.9737 1331.1009,-163.2187"/>
</g>
<!-- 10 -->
<g id="node11" class="node">
<title>10</title>
<polygon fill="none" stroke="#000000" points="1301,-23 1301,-93 1587,-93 1587,-23 1301,-23"/>
<text text-anchor="middle" x="1444" y="-77.8" font-family="Times,serif" font-size="14.00" fill="#000000">SMPyBandits.Arms.Gamma.UnboundedGamma</text>
<polyline fill="none" stroke="#000000" points="1301,-70 1587,-70 "/>
<polyline fill="none" stroke="#000000" points="1301,-46 1587,-46 "/>
<text text-anchor="start" x="1309" y="-30.8" font-family="Times,serif" font-size="14.00" fill="#000000">__init__()</text>
</g>
<!-- 10&#45;&gt;8 -->
<g id="edge10" class="edge">
<title>10&#45;&gt;8</title>
<path fill="none" stroke="#000000" d="M1444,-93.0322C1444,-110.7143 1444,-133.416 1444,-157.1205"/>
<polygon fill="none" stroke="#000000" points="1440.5001,-157.3293 1444,-167.3293 1447.5001,-157.3293 1440.5001,-157.3293"/>
</g>
<!-- 11 -->
<g id="node12" class="node">
<title>11</title>
<polygon fill="none" stroke="#000000" points="2752.5,-167.5 2752.5,-416.5 2985.5,-416.5 2985.5,-167.5 2752.5,-167.5"/>
<text text-anchor="middle" x="2869" y="-401.3" font-family="Times,serif" font-size="14.00" fill="#000000">SMPyBandits.Arms.Gaussian.Gaussian</text>
<polyline fill="none" stroke="#000000" points="2752.5,-393.5 2985.5,-393.5 "/>
<text text-anchor="start" x="2760.5" y="-378.3" font-family="Times,serif" font-size="14.00" fill="#000000">lower_amplitude</text>
<text text-anchor="start" x="2760.5" y="-363.3" font-family="Times,serif" font-size="14.00" fill="#000000">max : int</text>
<text text-anchor="start" x="2760.5" y="-348.3" font-family="Times,serif" font-size="14.00" fill="#000000">mean</text>
<text text-anchor="start" x="2760.5" y="-333.3" font-family="Times,serif" font-size="14.00" fill="#000000">min : int</text>
<text text-anchor="start" x="2760.5" y="-318.3" font-family="Times,serif" font-size="14.00" fill="#000000">mu</text>
<text text-anchor="start" x="2760.5" y="-303.3" font-family="Times,serif" font-size="14.00" fill="#000000">sigma : float</text>
<polyline fill="none" stroke="#000000" points="2752.5,-295.5 2985.5,-295.5 "/>
<text text-anchor="start" x="2760.5" y="-280.3" font-family="Times,serif" font-size="14.00" fill="#000000">__init__()</text>
<text text-anchor="start" x="2760.5" y="-265.3" font-family="Times,serif" font-size="14.00" fill="#000000">__repr__()</text>
<text text-anchor="start" x="2760.5" y="-250.3" font-family="Times,serif" font-size="14.00" fill="#000000">__str__()</text>
<text text-anchor="start" x="2760.5" y="-235.3" font-family="Times,serif" font-size="14.00" fill="#000000">draw()</text>
<text text-anchor="start" x="2760.5" y="-220.3" font-family="Times,serif" font-size="14.00" fill="#000000">draw_nparray()</text>
<text text-anchor="start" x="2760.5" y="-205.3" font-family="Times,serif" font-size="14.00" fill="#000000">kl()</text>
<text text-anchor="start" x="2760.5" y="-190.3" font-family="Times,serif" font-size="14.00" fill="#000000">oneHOI()</text>
<text text-anchor="start" x="2760.5" y="-175.3" font-family="Times,serif" font-size="14.00" fill="#000000">oneLR()</text>
</g>
<!-- 11&#45;&gt;0 -->
<g id="edge11" class="edge">
<title>11&#45;&gt;0</title>
<path fill="none" stroke="#000000" d="M2752.3801,-312.2892C2438.7828,-366.8481 1581.1457,-516.0576 1284.5423,-567.6599"/>
<polygon fill="none" stroke="#000000" points="1283.9067,-564.2179 1274.6546,-569.3802 1285.1065,-571.1143 1283.9067,-564.2179"/>
</g>
<!-- 12 -->
<g id="node13" class="node">
<title>12</title>
<polygon fill="none" stroke="#000000" points="1605,-23 1605,-93 1865,-93 1865,-23 1605,-23"/>
<text text-anchor="middle" x="1735" y="-77.8" font-family="Times,serif" font-size="14.00" fill="#000000">SMPyBandits.Arms.Gaussian.Gaussian_0_1</text>
<polyline fill="none" stroke="#000000" points="1605,-70 1865,-70 "/>
<polyline fill="none" stroke="#000000" points="1605,-46 1865,-46 "/>
<text text-anchor="start" x="1613" y="-30.8" font-family="Times,serif" font-size="14.00" fill="#000000">__init__()</text>
</g>
<!-- 12&#45;&gt;11 -->
<g id="edge12" class="edge">
<title>12&#45;&gt;11</title>
<path fill="none" stroke="#000000" d="M1810.7434,-93.1466C1830.9758,-101.5512 1853.0479,-109.8573 1874,-116 2179.126,-205.4567 2550.9788,-256.4676 2742.1051,-278.6288"/>
<polygon fill="none" stroke="#000000" points="2741.8544,-282.123 2752.1894,-279.7907 2742.6558,-275.169 2741.8544,-282.123"/>
</g>
<!-- 13 -->
<g id="node14" class="node">
<title>13</title>
<polygon fill="none" stroke="#000000" points="1883.5,-23 1883.5,-93 2150.5,-93 2150.5,-23 1883.5,-23"/>
<text text-anchor="middle" x="2017" y="-77.8" font-family="Times,serif" font-size="14.00" fill="#000000">SMPyBandits.Arms.Gaussian.Gaussian_0_10</text>
<polyline fill="none" stroke="#000000" points="1883.5,-70 2150.5,-70 "/>
<polyline fill="none" stroke="#000000" points="1883.5,-46 2150.5,-46 "/>
<text text-anchor="start" x="1891.5" y="-30.8" font-family="Times,serif" font-size="14.00" fill="#000000">__init__()</text>
</g>
<!-- 13&#45;&gt;11 -->
<g id="edge13" class="edge">
<title>13&#45;&gt;11</title>
<path fill="none" stroke="#000000" d="M2097.5554,-93.0006C2117.739,-101.1229 2139.4901,-109.3323 2160,-116 2360.3829,-181.1438 2599.2875,-235.8599 2742.3195,-266.2464"/>
<polygon fill="none" stroke="#000000" points="2741.942,-269.744 2752.4502,-268.392 2743.3924,-262.8959 2741.942,-269.744"/>
</g>
<!-- 14 -->
<g id="node15" class="node">
<title>14</title>
<polygon fill="none" stroke="#000000" points="2169,-23 2169,-93 2443,-93 2443,-23 2169,-23"/>
<text text-anchor="middle" x="2306" y="-77.8" font-family="Times,serif" font-size="14.00" fill="#000000">SMPyBandits.Arms.Gaussian.Gaussian_0_100</text>
<polyline fill="none" stroke="#000000" points="2169,-70 2443,-70 "/>
<polyline fill="none" stroke="#000000" points="2169,-46 2443,-46 "/>
<text text-anchor="start" x="2177" y="-30.8" font-family="Times,serif" font-size="14.00" fill="#000000">__init__()</text>
</g>
<!-- 14&#45;&gt;11 -->
<g id="edge14" class="edge">
<title>14&#45;&gt;11</title>
<path fill="none" stroke="#000000" d="M2390.2868,-93.0322C2483.7307,-131.8703 2635.4391,-194.9249 2743.0039,-239.6322"/>
<polygon fill="none" stroke="#000000" points="2741.7165,-242.8873 2752.294,-243.4934 2744.4031,-236.4234 2741.7165,-242.8873"/>
</g>
<!-- 15 -->
<g id="node16" class="node">
<title>15</title>
<polygon fill="none" stroke="#000000" points="2461,-23 2461,-93 2721,-93 2721,-23 2461,-23"/>
<text text-anchor="middle" x="2591" y="-77.8" font-family="Times,serif" font-size="14.00" fill="#000000">SMPyBandits.Arms.Gaussian.Gaussian_0_2</text>
<polyline fill="none" stroke="#000000" points="2461,-70 2721,-70 "/>
<polyline fill="none" stroke="#000000" points="2461,-46 2721,-46 "/>
<text text-anchor="start" x="2469" y="-30.8" font-family="Times,serif" font-size="14.00" fill="#000000">__init__()</text>
</g>
<!-- 15&#45;&gt;11 -->
<g id="edge15" class="edge">
<title>15&#45;&gt;11</title>
<path fill="none" stroke="#000000" d="M2632.6194,-93.0322C2662.5022,-118.1853 2704.4522,-153.4958 2744.7331,-187.4013"/>
<polygon fill="none" stroke="#000000" points="2742.5924,-190.1742 2752.4968,-193.9362 2747.1002,-184.8188 2742.5924,-190.1742"/>
</g>
<!-- 16 -->
<g id="node17" class="node">
<title>16</title>
<polygon fill="none" stroke="#000000" points="2739,-23 2739,-93 2999,-93 2999,-23 2739,-23"/>
<text text-anchor="middle" x="2869" y="-77.8" font-family="Times,serif" font-size="14.00" fill="#000000">SMPyBandits.Arms.Gaussian.Gaussian_0_5</text>
<polyline fill="none" stroke="#000000" points="2739,-70 2999,-70 "/>
<polyline fill="none" stroke="#000000" points="2739,-46 2999,-46 "/>
<text text-anchor="start" x="2747" y="-30.8" font-family="Times,serif" font-size="14.00" fill="#000000">__init__()</text>
</g>
<!-- 16&#45;&gt;11 -->
<g id="edge16" class="edge">
<title>16&#45;&gt;11</title>
<path fill="none" stroke="#000000" d="M2869,-93.0322C2869,-110.7143 2869,-133.416 2869,-157.1205"/>
<polygon fill="none" stroke="#000000" points="2865.5001,-157.3293 2869,-167.3293 2872.5001,-157.3293 2865.5001,-157.3293"/>
</g>
<!-- 17 -->
<g id="node18" class="node">
<title>17</title>
<polygon fill="none" stroke="#000000" points="3017.5,-23 3017.5,-93 3316.5,-93 3316.5,-23 3017.5,-23"/>
<text text-anchor="middle" x="3167" y="-77.8" font-family="Times,serif" font-size="14.00" fill="#000000">SMPyBandits.Arms.Gaussian.Gaussian_m100_100</text>
<polyline fill="none" stroke="#000000" points="3017.5,-70 3316.5,-70 "/>
<polyline fill="none" stroke="#000000" points="3017.5,-46 3316.5,-46 "/>
<text text-anchor="start" x="3025.5" y="-30.8" font-family="Times,serif" font-size="14.00" fill="#000000">__init__()</text>
</g>
<!-- 17&#45;&gt;11 -->
<g id="edge17" class="edge">
<title>17&#45;&gt;11</title>
<path fill="none" stroke="#000000" d="M3089.9133,-93.0691C3058.9448,-108.9125 3023.8281,-129.2043 2995,-152 2991.4411,-154.8142 2987.8979,-157.7345 2984.379,-160.7413"/>
<polygon fill="none" stroke="#000000" points="2981.9326,-158.2314 2976.718,-167.4542 2986.5458,-163.4963 2981.9326,-158.2314"/>
</g>
<!-- 18 -->
<g id="node19" class="node">
<title>18</title>
<polygon fill="none" stroke="#000000" points="3334.5,-23 3334.5,-93 3619.5,-93 3619.5,-23 3334.5,-23"/>
<text text-anchor="middle" x="3477" y="-77.8" font-family="Times,serif" font-size="14.00" fill="#000000">SMPyBandits.Arms.Gaussian.Gaussian_m10_10</text>
<polyline fill="none" stroke="#000000" points="3334.5,-70 3619.5,-70 "/>
<polyline fill="none" stroke="#000000" points="3334.5,-46 3619.5,-46 "/>
<text text-anchor="start" x="3342.5" y="-30.8" font-family="Times,serif" font-size="14.00" fill="#000000">__init__()</text>
</g>
<!-- 18&#45;&gt;11 -->
<g id="edge18" class="edge">
<title>18&#45;&gt;11</title>
<path fill="none" stroke="#000000" d="M3397.1191,-93.092C3374.5037,-101.809 3349.6094,-110.2841 3326,-116 3182.1764,-150.8202 3126.7207,-84.5661 2995,-152 2989.365,-154.8848 2983.8618,-158.1339 2978.5025,-161.6757"/>
<polygon fill="none" stroke="#000000" points="2976.3964,-158.8775 2970.2011,-167.4721 2980.4039,-164.6168 2976.3964,-158.8775"/>
</g>
<!-- 19 -->
<g id="node20" class="node">
<title>19</title>
<polygon fill="none" stroke="#000000" points="3638,-23 3638,-93 3910,-93 3910,-23 3638,-23"/>
<text text-anchor="middle" x="3774" y="-77.8" font-family="Times,serif" font-size="14.00" fill="#000000">SMPyBandits.Arms.Gaussian.Gaussian_m1_1</text>
<polyline fill="none" stroke="#000000" points="3638,-70 3910,-70 "/>
<polyline fill="none" stroke="#000000" points="3638,-46 3910,-46 "/>
<text text-anchor="start" x="3646" y="-30.8" font-family="Times,serif" font-size="14.00" fill="#000000">__init__()</text>
</g>
<!-- 19&#45;&gt;11 -->
<g id="edge19" class="edge">
<title>19&#45;&gt;11</title>
<path fill="none" stroke="#000000" d="M3699.8376,-93.0109C3677.5363,-102.0652 3652.6884,-110.7373 3629,-116 3491.2429,-146.6047 3122.2295,-90.9563 2995,-152 2989.1957,-154.7848 2983.539,-157.9694 2978.0415,-161.4756"/>
<polygon fill="none" stroke="#000000" points="2975.8507,-158.7322 2969.5352,-167.239 2979.7771,-164.5273 2975.8507,-158.7322"/>
</g>
<!-- 20 -->
<g id="node21" class="node">
<title>20</title>
<polygon fill="none" stroke="#000000" points="3928,-23 3928,-93 4200,-93 4200,-23 3928,-23"/>
<text text-anchor="middle" x="4064" y="-77.8" font-family="Times,serif" font-size="14.00" fill="#000000">SMPyBandits.Arms.Gaussian.Gaussian_m2_2</text>
<polyline fill="none" stroke="#000000" points="3928,-70 4200,-70 "/>
<polyline fill="none" stroke="#000000" points="3928,-46 4200,-46 "/>
<text text-anchor="start" x="3936" y="-30.8" font-family="Times,serif" font-size="14.00" fill="#000000">__init__()</text>
</g>
<!-- 20&#45;&gt;11 -->
<g id="edge20" class="edge">
<title>20&#45;&gt;11</title>
<path fill="none" stroke="#000000" d="M3990.2693,-93.1265C3967.8738,-102.2431 3942.8669,-110.9199 3919,-116 3818.5067,-137.3904 3088.0255,-108.3801 2995,-152 2989.0741,-154.7787 2983.3045,-157.9787 2977.7032,-161.5171"/>
<polygon fill="none" stroke="#000000" points="2975.3848,-158.8584 2969.0411,-167.3443 2979.292,-164.6665 2975.3848,-158.8584"/>
</g>
<!-- 21 -->
<g id="node22" class="node">
<title>21</title>
<polygon fill="none" stroke="#000000" points="4218,-23 4218,-93 4490,-93 4490,-23 4218,-23"/>
<text text-anchor="middle" x="4354" y="-77.8" font-family="Times,serif" font-size="14.00" fill="#000000">SMPyBandits.Arms.Gaussian.Gaussian_m5_5</text>
<polyline fill="none" stroke="#000000" points="4218,-70 4490,-70 "/>
<polyline fill="none" stroke="#000000" points="4218,-46 4490,-46 "/>
<text text-anchor="start" x="4226" y="-30.8" font-family="Times,serif" font-size="14.00" fill="#000000">__init__()</text>
</g>
<!-- 21&#45;&gt;11 -->
<g id="edge21" class="edge">
<title>21&#45;&gt;11</title>
<path fill="none" stroke="#000000" d="M4280.6718,-93.1144C4258.182,-102.2909 4233.0229,-111.0032 4209,-116 4076.8796,-143.481 3117.4479,-95.2767 2995,-152 2989.0612,-154.7511 2983.2808,-157.9279 2977.6704,-161.4469"/>
<polygon fill="none" stroke="#000000" points="2975.3636,-158.7789 2968.9956,-167.2465 2979.2541,-164.5982 2975.3636,-158.7789"/>
</g>
<!-- 22 -->
<g id="node23" class="node">
<title>22</title>
<polygon fill="none" stroke="#000000" points="4508,-.5 4508,-115.5 4804,-115.5 4804,-.5 4508,-.5"/>
<text text-anchor="middle" x="4656" y="-100.3" font-family="Times,serif" font-size="14.00" fill="#000000">SMPyBandits.Arms.Gaussian.UnboundedGaussian</text>
<polyline fill="none" stroke="#000000" points="4508,-92.5 4804,-92.5 "/>
<polyline fill="none" stroke="#000000" points="4508,-68.5 4804,-68.5 "/>
<text text-anchor="start" x="4516" y="-53.3" font-family="Times,serif" font-size="14.00" fill="#000000">__init__()</text>
<text text-anchor="start" x="4516" y="-38.3" font-family="Times,serif" font-size="14.00" fill="#000000">__repr__()</text>
<text text-anchor="start" x="4516" y="-23.3" font-family="Times,serif" font-size="14.00" fill="#000000">draw()</text>
<text text-anchor="start" x="4516" y="-8.3" font-family="Times,serif" font-size="14.00" fill="#000000">draw_nparray()</text>
</g>
<!-- 22&#45;&gt;11 -->
<g id="edge22" class="edge">
<title>22&#45;&gt;11</title>
<path fill="none" stroke="#000000" d="M4507.6063,-114.2299C4504.7247,-114.8628 4501.8541,-115.4544 4499,-116 4334.8147,-147.3895 3146.8751,-82.171 2995,-152 2988.812,-154.8451 2982.7968,-158.154 2976.9674,-161.8324"/>
<polygon fill="none" stroke="#000000" points="2974.9133,-158.9957 2968.5609,-167.4749 2978.8145,-164.8078 2974.9133,-158.9957"/>
</g>
<!-- 23 -->
<g id="node24" class="node">
<title>23</title>
<polygon fill="none" stroke="#000000" points="3004,-197.5 3004,-386.5 3222,-386.5 3222,-197.5 3004,-197.5"/>
<text text-anchor="middle" x="3113" y="-371.3" font-family="Times,serif" font-size="14.00" fill="#000000">SMPyBandits.Arms.Poisson.Poisson</text>
<polyline fill="none" stroke="#000000" points="3004,-363.5 3222,-363.5 "/>
<text text-anchor="start" x="3012" y="-348.3" font-family="Times,serif" font-size="14.00" fill="#000000">mean : int</text>
<text text-anchor="start" x="3012" y="-333.3" font-family="Times,serif" font-size="14.00" fill="#000000">p</text>
<text text-anchor="start" x="3012" y="-318.3" font-family="Times,serif" font-size="14.00" fill="#000000">trunc : int</text>
<polyline fill="none" stroke="#000000" points="3004,-310.5 3222,-310.5 "/>
<text text-anchor="start" x="3012" y="-295.3" font-family="Times,serif" font-size="14.00" fill="#000000">__init__()</text>
<text text-anchor="start" x="3012" y="-280.3" font-family="Times,serif" font-size="14.00" fill="#000000">__repr__()</text>
<text text-anchor="start" x="3012" y="-265.3" font-family="Times,serif" font-size="14.00" fill="#000000">__str__()</text>
<text text-anchor="start" x="3012" y="-250.3" font-family="Times,serif" font-size="14.00" fill="#000000">draw()</text>
<text text-anchor="start" x="3012" y="-235.3" font-family="Times,serif" font-size="14.00" fill="#000000">draw_nparray()</text>
<text text-anchor="start" x="3012" y="-220.3" font-family="Times,serif" font-size="14.00" fill="#000000">kl()</text>
<text text-anchor="start" x="3012" y="-205.3" font-family="Times,serif" font-size="14.00" fill="#000000">oneLR()</text>
</g>
<!-- 23&#45;&gt;0 -->
<g id="edge23" class="edge">
<title>23&#45;&gt;0</title>
<path fill="none" stroke="#000000" d="M3050.5575,-386.5699C3034.2932,-404.4992 3015.2716,-421.0497 2994,-432 2841.7366,-510.3831 1645.8989,-566.1659 1284.8624,-581.3511"/>
<polygon fill="none" stroke="#000000" points="1284.5282,-577.8619 1274.6835,-581.7777 1284.8214,-584.8558 1284.5282,-577.8619"/>
</g>
<!-- 24 -->
<g id="node25" class="node">
<title>24</title>
<polygon fill="none" stroke="#000000" points="4822.5,-23 4822.5,-93 5103.5,-93 5103.5,-23 4822.5,-23"/>
<text text-anchor="middle" x="4963" y="-77.8" font-family="Times,serif" font-size="14.00" fill="#000000">SMPyBandits.Arms.Poisson.UnboundedPoisson</text>
<polyline fill="none" stroke="#000000" points="4822.5,-70 5103.5,-70 "/>
<polyline fill="none" stroke="#000000" points="4822.5,-46 5103.5,-46 "/>
<text text-anchor="start" x="4830.5" y="-30.8" font-family="Times,serif" font-size="14.00" fill="#000000">__init__()</text>
</g>
<!-- 24&#45;&gt;23 -->
<g id="edge24" class="edge">
<title>24&#45;&gt;23</title>
<path fill="none" stroke="#000000" d="M4887.4456,-93.0618C4864.0797,-102.2975 4837.922,-111.0555 4813,-116 4640.5382,-150.2163 3389.5781,-76.0604 3231,-152 3212.2751,-160.9669 3195.4241,-174.471 3180.7096,-189.6135"/>
<polygon fill="none" stroke="#000000" points="3177.9246,-187.4678 3173.6589,-197.166 3183.0414,-192.2447 3177.9246,-187.4678"/>
</g>
<!-- 25 -->
<g id="node26" class="node">
<title>25</title>
<polygon fill="none" stroke="#000000" points="3240,-197.5 3240,-386.5 3520,-386.5 3520,-197.5 3240,-197.5"/>
<text text-anchor="middle" x="3380" y="-371.3" font-family="Times,serif" font-size="14.00" fill="#000000">SMPyBandits.Arms.UniformArm.UniformArm</text>
<polyline fill="none" stroke="#000000" points="3240,-363.5 3520,-363.5 "/>
<text text-anchor="start" x="3248" y="-348.3" font-family="Times,serif" font-size="14.00" fill="#000000">amplitude</text>
<text text-anchor="start" x="3248" y="-333.3" font-family="Times,serif" font-size="14.00" fill="#000000">lower</text>
<text text-anchor="start" x="3248" y="-318.3" font-family="Times,serif" font-size="14.00" fill="#000000">mean</text>
<polyline fill="none" stroke="#000000" points="3240,-310.5 3520,-310.5 "/>
<text text-anchor="start" x="3248" y="-295.3" font-family="Times,serif" font-size="14.00" fill="#000000">__init__()</text>
<text text-anchor="start" x="3248" y="-280.3" font-family="Times,serif" font-size="14.00" fill="#000000">__repr__()</text>
<text text-anchor="start" x="3248" y="-265.3" font-family="Times,serif" font-size="14.00" fill="#000000">__str__()</text>
<text text-anchor="start" x="3248" y="-250.3" font-family="Times,serif" font-size="14.00" fill="#000000">draw()</text>
<text text-anchor="start" x="3248" y="-235.3" font-family="Times,serif" font-size="14.00" fill="#000000">draw_nparray()</text>
<text text-anchor="start" x="3248" y="-220.3" font-family="Times,serif" font-size="14.00" fill="#000000">kl()</text>
<text text-anchor="start" x="3248" y="-205.3" font-family="Times,serif" font-size="14.00" fill="#000000">oneLR()</text>
</g>
<!-- 25&#45;&gt;0 -->
<g id="edge25" class="edge">
<title>25&#45;&gt;0</title>
<path fill="none" stroke="#000000" d="M3298.8185,-386.5542C3278.5501,-404.6027 3255.5293,-421.2067 3231,-432 3051.9333,-510.7923 1675.2043,-567.2624 1284.8616,-581.8103"/>
<polygon fill="none" stroke="#000000" points="1284.5754,-578.3184 1274.7123,-582.1874 1284.8354,-585.3136 1284.5754,-578.3184"/>
</g>
</g>
</svg>
