<?xml version="1.0" encoding="UTF-8" standalone="no"?>
<!DOCTYPE svg PUBLIC "-//W3C//DTD SVG 1.1//EN"
 "http://www.w3.org/Graphics/SVG/1.1/DTD/svg11.dtd">
<!-- Generated by graphviz version 2.38.0 (20140413.2041)
 -->
<!-- Title: classes_AlgoBandits Pages: 1 -->
<svg width="4183pt" height="484pt"
 viewBox="0.00 0.00 4182.50 484.00" xmlns="http://www.w3.org/2000/svg" xmlns:xlink="http://www.w3.org/1999/xlink">
<g id="graph0" class="graph" transform="scale(1 1) rotate(0) translate(4 480)">
<title>classes_AlgoBandits</title>
<polygon fill="white" stroke="none" points="-4,4 -4,-480 4178.5,-480 4178.5,4 -4,4"/>
<!-- 0 -->
<g id="node1" class="node"><title>0</title>
<polygon fill="none" stroke="black" points="0,-98 0,-227 157,-227 157,-98 0,-98"/>
<text text-anchor="middle" x="78.5" y="-211.8" font-family="Times,serif" font-size="14.00">Arms.Bernoulli.Bernoulli</text>
<polyline fill="none" stroke="black" points="0,-204 157,-204 "/>
<text text-anchor="start" x="8" y="-188.8" font-family="Times,serif" font-size="14.00">probability</text>
<polyline fill="none" stroke="black" points="0,-181 157,-181 "/>
<text text-anchor="start" x="8" y="-165.8" font-family="Times,serif" font-size="14.00">__init__()</text>
<text text-anchor="start" x="8" y="-150.8" font-family="Times,serif" font-size="14.00">__repr__()</text>
<text text-anchor="start" x="8" y="-135.8" font-family="Times,serif" font-size="14.00">__str__()</text>
<text text-anchor="start" x="8" y="-120.8" font-family="Times,serif" font-size="14.00">draw()</text>
<text text-anchor="start" x="8" y="-105.8" font-family="Times,serif" font-size="14.00">mean()</text>
</g>
<!-- 1 -->
<g id="node2" class="node"><title>1</title>
<polygon fill="none" stroke="black" points="175,-83 175,-242 360,-242 360,-83 175,-83"/>
<text text-anchor="middle" x="267.5" y="-226.8" font-family="Times,serif" font-size="14.00">Arms.Exponential.Exponential</text>
<polyline fill="none" stroke="black" points="175,-219 360,-219 "/>
<text text-anchor="start" x="183" y="-203.8" font-family="Times,serif" font-size="14.00">expectation</text>
<text text-anchor="start" x="183" y="-188.8" font-family="Times,serif" font-size="14.00">p</text>
<text text-anchor="start" x="183" y="-173.8" font-family="Times,serif" font-size="14.00">trunc : float</text>
<polyline fill="none" stroke="black" points="175,-166 360,-166 "/>
<text text-anchor="start" x="183" y="-150.8" font-family="Times,serif" font-size="14.00">__init__()</text>
<text text-anchor="start" x="183" y="-135.8" font-family="Times,serif" font-size="14.00">__repr__()</text>
<text text-anchor="start" x="183" y="-120.8" font-family="Times,serif" font-size="14.00">__str__()</text>
<text text-anchor="start" x="183" y="-105.8" font-family="Times,serif" font-size="14.00">draw()</text>
<text text-anchor="start" x="183" y="-90.8" font-family="Times,serif" font-size="14.00">mean()</text>
</g>
<!-- 2 -->
<g id="node3" class="node"><title>2</title>
<polygon fill="none" stroke="black" points="378.5,-83 378.5,-242 532.5,-242 532.5,-83 378.5,-83"/>
<text text-anchor="middle" x="455.5" y="-226.8" font-family="Times,serif" font-size="14.00">Arms.Gaussian.Gaussian</text>
<polyline fill="none" stroke="black" points="378.5,-219 532.5,-219 "/>
<text text-anchor="start" x="386.5" y="-203.8" font-family="Times,serif" font-size="14.00">expectation</text>
<text text-anchor="start" x="386.5" y="-188.8" font-family="Times,serif" font-size="14.00">mu</text>
<text text-anchor="start" x="386.5" y="-173.8" font-family="Times,serif" font-size="14.00">sigma</text>
<polyline fill="none" stroke="black" points="378.5,-166 532.5,-166 "/>
<text text-anchor="start" x="386.5" y="-150.8" font-family="Times,serif" font-size="14.00">__init__()</text>
<text text-anchor="start" x="386.5" y="-135.8" font-family="Times,serif" font-size="14.00">__repr__()</text>
<text text-anchor="start" x="386.5" y="-120.8" font-family="Times,serif" font-size="14.00">__str__()</text>
<text text-anchor="start" x="386.5" y="-105.8" font-family="Times,serif" font-size="14.00">draw()</text>
<text text-anchor="start" x="386.5" y="-90.8" font-family="Times,serif" font-size="14.00">mean()</text>
</g>
<!-- 3 -->
<g id="node4" class="node"><title>3</title>
<polygon fill="none" stroke="black" points="551,-83 551,-242 690,-242 690,-83 551,-83"/>
<text text-anchor="middle" x="620.5" y="-226.8" font-family="Times,serif" font-size="14.00">Arms.Poisson.Poisson</text>
<polyline fill="none" stroke="black" points="551,-219 690,-219 "/>
<text text-anchor="start" x="559" y="-203.8" font-family="Times,serif" font-size="14.00">expectation : int</text>
<text text-anchor="start" x="559" y="-188.8" font-family="Times,serif" font-size="14.00">p</text>
<text text-anchor="start" x="559" y="-173.8" font-family="Times,serif" font-size="14.00">trunc : float</text>
<polyline fill="none" stroke="black" points="551,-166 690,-166 "/>
<text text-anchor="start" x="559" y="-150.8" font-family="Times,serif" font-size="14.00">__init__()</text>
<text text-anchor="start" x="559" y="-135.8" font-family="Times,serif" font-size="14.00">__repr__()</text>
<text text-anchor="start" x="559" y="-120.8" font-family="Times,serif" font-size="14.00">__str__()</text>
<text text-anchor="start" x="559" y="-105.8" font-family="Times,serif" font-size="14.00">draw()</text>
<text text-anchor="start" x="559" y="-90.8" font-family="Times,serif" font-size="14.00">mean()</text>
</g>
<!-- 4 -->
<g id="node5" class="node"><title>4</title>
<polygon fill="none" stroke="black" points="708.5,-15.5 708.5,-309.5 908.5,-309.5 908.5,-15.5 708.5,-15.5"/>
<text text-anchor="middle" x="808.5" y="-294.3" font-family="Times,serif" font-size="14.00">Environment.Evaluator.Evaluator</text>
<polyline fill="none" stroke="black" points="708.5,-286.5 908.5,-286.5 "/>
<text text-anchor="start" x="716.5" y="-271.3" font-family="Times,serif" font-size="14.00">averageOn : float</text>
<text text-anchor="start" x="716.5" y="-256.3" font-family="Times,serif" font-size="14.00">cfg</text>
<text text-anchor="start" x="716.5" y="-241.3" font-family="Times,serif" font-size="14.00">envs : list</text>
<text text-anchor="start" x="716.5" y="-226.3" font-family="Times,serif" font-size="14.00">finalRanksOnAverage : bool</text>
<text text-anchor="start" x="716.5" y="-211.3" font-family="Times,serif" font-size="14.00">policies : list</text>
<text text-anchor="start" x="716.5" y="-196.3" font-family="Times,serif" font-size="14.00">pulls : dict</text>
<text text-anchor="start" x="716.5" y="-181.3" font-family="Times,serif" font-size="14.00">rewards</text>
<text text-anchor="start" x="716.5" y="-166.3" font-family="Times,serif" font-size="14.00">useJoblibForPolicies : bool</text>
<polyline fill="none" stroke="black" points="708.5,-158.5 908.5,-158.5 "/>
<text text-anchor="start" x="716.5" y="-143.3" font-family="Times,serif" font-size="14.00">__initEnvironments__()</text>
<text text-anchor="start" x="716.5" y="-128.3" font-family="Times,serif" font-size="14.00">__initPolicies__()</text>
<text text-anchor="start" x="716.5" y="-113.3" font-family="Times,serif" font-size="14.00">__init__()</text>
<text text-anchor="start" x="716.5" y="-98.3" font-family="Times,serif" font-size="14.00">getRegret()</text>
<text text-anchor="start" x="716.5" y="-83.3" font-family="Times,serif" font-size="14.00">getReward()</text>
<text text-anchor="start" x="716.5" y="-68.3" font-family="Times,serif" font-size="14.00">giveFinalRanking()</text>
<text text-anchor="start" x="716.5" y="-53.3" font-family="Times,serif" font-size="14.00">plotResults()</text>
<text text-anchor="start" x="716.5" y="-38.3" font-family="Times,serif" font-size="14.00">start_all_env()</text>
<text text-anchor="start" x="716.5" y="-23.3" font-family="Times,serif" font-size="14.00">start_one_env()</text>
</g>
<!-- 5 -->
<g id="node6" class="node"><title>5</title>
<polygon fill="none" stroke="black" points="926.5,-105.5 926.5,-219.5 1084.5,-219.5 1084.5,-105.5 926.5,-105.5"/>
<text text-anchor="middle" x="1005.5" y="-204.3" font-family="Times,serif" font-size="14.00">Environment.MAB.MAB</text>
<polyline fill="none" stroke="black" points="926.5,-196.5 1084.5,-196.5 "/>
<text text-anchor="start" x="934.5" y="-181.3" font-family="Times,serif" font-size="14.00">arms</text>
<text text-anchor="start" x="934.5" y="-166.3" font-family="Times,serif" font-size="14.00">maxArm</text>
<text text-anchor="start" x="934.5" y="-151.3" font-family="Times,serif" font-size="14.00">nbArms</text>
<polyline fill="none" stroke="black" points="926.5,-143.5 1084.5,-143.5 "/>
<text text-anchor="start" x="934.5" y="-128.3" font-family="Times,serif" font-size="14.00">__init__()</text>
<text text-anchor="start" x="934.5" y="-113.3" font-family="Times,serif" font-size="14.00">__repr__()</text>
</g>
<!-- 6 -->
<g id="node7" class="node"><title>6</title>
<polygon fill="none" stroke="black" points="1102.5,-98 1102.5,-227 1266.5,-227 1266.5,-98 1102.5,-98"/>
<text text-anchor="middle" x="1184.5" y="-211.8" font-family="Times,serif" font-size="14.00">Environment.Result.Result</text>
<polyline fill="none" stroke="black" points="1102.5,-204 1266.5,-204 "/>
<text text-anchor="start" x="1110.5" y="-188.8" font-family="Times,serif" font-size="14.00">choices</text>
<text text-anchor="start" x="1110.5" y="-173.8" font-family="Times,serif" font-size="14.00">pulls</text>
<text text-anchor="start" x="1110.5" y="-158.8" font-family="Times,serif" font-size="14.00">rewards</text>
<polyline fill="none" stroke="black" points="1102.5,-151 1266.5,-151 "/>
<text text-anchor="start" x="1110.5" y="-135.8" font-family="Times,serif" font-size="14.00">__init__()</text>
<text text-anchor="start" x="1110.5" y="-120.8" font-family="Times,serif" font-size="14.00">getNbPulls()</text>
<text text-anchor="start" x="1110.5" y="-105.8" font-family="Times,serif" font-size="14.00">store()</text>
</g>
<!-- 7 -->
<g id="node8" class="node"><title>7</title>
<polygon fill="none" stroke="black" points="1285,-38 1285,-287 1462,-287 1462,-38 1285,-38"/>
<text text-anchor="middle" x="1373.5" y="-271.8" font-family="Times,serif" font-size="14.00">Policies.AdBandits.AdBandit</text>
<polyline fill="none" stroke="black" points="1285,-264 1462,-264 "/>
<text text-anchor="start" x="1293" y="-248.8" font-family="Times,serif" font-size="14.00">alpha</text>
<text text-anchor="start" x="1293" y="-233.8" font-family="Times,serif" font-size="14.00">horizon</text>
<text text-anchor="start" x="1293" y="-218.8" font-family="Times,serif" font-size="14.00">nbArms</text>
<text text-anchor="start" x="1293" y="-203.8" font-family="Times,serif" font-size="14.00">params</text>
<text text-anchor="start" x="1293" y="-188.8" font-family="Times,serif" font-size="14.00">posterior : dict</text>
<text text-anchor="start" x="1293" y="-173.8" font-family="Times,serif" font-size="14.00">pulls</text>
<text text-anchor="start" x="1293" y="-158.8" font-family="Times,serif" font-size="14.00">rewards</text>
<text text-anchor="start" x="1293" y="-143.8" font-family="Times,serif" font-size="14.00">t : int</text>
<polyline fill="none" stroke="black" points="1285,-136 1462,-136 "/>
<text text-anchor="start" x="1293" y="-120.8" font-family="Times,serif" font-size="14.00">__init__()</text>
<text text-anchor="start" x="1293" y="-105.8" font-family="Times,serif" font-size="14.00">__str__()</text>
<text text-anchor="start" x="1293" y="-90.8" font-family="Times,serif" font-size="14.00">choice()</text>
<text text-anchor="start" x="1293" y="-75.8" font-family="Times,serif" font-size="14.00">computeIndex()</text>
<text text-anchor="start" x="1293" y="-60.8" font-family="Times,serif" font-size="14.00">getReward()</text>
<text text-anchor="start" x="1293" y="-45.8" font-family="Times,serif" font-size="14.00">startGame()</text>
</g>
<!-- 8 -->
<g id="node9" class="node"><title>8</title>
<polygon fill="none" stroke="black" points="1480,-0.5 1480,-324.5 1639,-324.5 1639,-0.5 1480,-0.5"/>
<text text-anchor="middle" x="1559.5" y="-309.3" font-family="Times,serif" font-size="14.00">Policies.Aggr.Aggr</text>
<polyline fill="none" stroke="black" points="1480,-301.5 1639,-301.5 "/>
<text text-anchor="start" x="1488" y="-286.3" font-family="Times,serif" font-size="14.00">USE_JOBLIB : bool</text>
<text text-anchor="start" x="1488" y="-271.3" font-family="Times,serif" font-size="14.00">children : list</text>
<text text-anchor="start" x="1488" y="-256.3" font-family="Times,serif" font-size="14.00">choices</text>
<text text-anchor="start" x="1488" y="-241.3" font-family="Times,serif" font-size="14.00">learningRate</text>
<text text-anchor="start" x="1488" y="-226.3" font-family="Times,serif" font-size="14.00">n_jobs : int</text>
<text text-anchor="start" x="1488" y="-211.3" font-family="Times,serif" font-size="14.00">nbArms</text>
<text text-anchor="start" x="1488" y="-196.3" font-family="Times,serif" font-size="14.00">nbChildren</text>
<text text-anchor="start" x="1488" y="-181.3" font-family="Times,serif" font-size="14.00">params</text>
<text text-anchor="start" x="1488" y="-166.3" font-family="Times,serif" font-size="14.00">pulls</text>
<text text-anchor="start" x="1488" y="-151.3" font-family="Times,serif" font-size="14.00">rewards</text>
<text text-anchor="start" x="1488" y="-136.3" font-family="Times,serif" font-size="14.00">t : int</text>
<text text-anchor="start" x="1488" y="-121.3" font-family="Times,serif" font-size="14.00">trusts : str</text>
<text text-anchor="start" x="1488" y="-106.3" font-family="Times,serif" font-size="14.00">update_all_children : bool</text>
<text text-anchor="start" x="1488" y="-91.3" font-family="Times,serif" font-size="14.00">verbosity : int</text>
<polyline fill="none" stroke="black" points="1480,-83.5 1639,-83.5 "/>
<text text-anchor="start" x="1488" y="-68.3" font-family="Times,serif" font-size="14.00">__init__()</text>
<text text-anchor="start" x="1488" y="-53.3" font-family="Times,serif" font-size="14.00">__str__()</text>
<text text-anchor="start" x="1488" y="-38.3" font-family="Times,serif" font-size="14.00">choice()</text>
<text text-anchor="start" x="1488" y="-23.3" font-family="Times,serif" font-size="14.00">getReward()</text>
<text text-anchor="start" x="1488" y="-8.3" font-family="Times,serif" font-size="14.00">startGame()</text>
</g>
<!-- 9 -->
<g id="node10" class="node"><title>9</title>
<polygon fill="none" stroke="black" points="1657.5,-75.5 1657.5,-249.5 1845.5,-249.5 1845.5,-75.5 1657.5,-75.5"/>
<text text-anchor="middle" x="1751.5" y="-234.3" font-family="Times,serif" font-size="14.00">Policies.BayesUCB.BayesUCB</text>
<polyline fill="none" stroke="black" points="1657.5,-226.5 1845.5,-226.5 "/>
<text text-anchor="start" x="1665.5" y="-211.3" font-family="Times,serif" font-size="14.00">nbArms</text>
<text text-anchor="start" x="1665.5" y="-196.3" font-family="Times,serif" font-size="14.00">params</text>
<text text-anchor="start" x="1665.5" y="-181.3" font-family="Times,serif" font-size="14.00">posterior : dict</text>
<text text-anchor="start" x="1665.5" y="-166.3" font-family="Times,serif" font-size="14.00">t : int</text>
<polyline fill="none" stroke="black" points="1657.5,-158.5 1845.5,-158.5 "/>
<text text-anchor="start" x="1665.5" y="-143.3" font-family="Times,serif" font-size="14.00">__init__()</text>
<text text-anchor="start" x="1665.5" y="-128.3" font-family="Times,serif" font-size="14.00">__str__()</text>
<text text-anchor="start" x="1665.5" y="-113.3" font-family="Times,serif" font-size="14.00">computeIndex()</text>
<text text-anchor="start" x="1665.5" y="-98.3" font-family="Times,serif" font-size="14.00">getReward()</text>
<text text-anchor="start" x="1665.5" y="-83.3" font-family="Times,serif" font-size="14.00">startGame()</text>
</g>
<!-- 15 -->
<g id="node16" class="node"><title>15</title>
<polygon fill="none" stroke="black" points="2823,-361.5 2823,-475.5 3020,-475.5 3020,-361.5 2823,-361.5"/>
<text text-anchor="middle" x="2921.5" y="-460.3" font-family="Times,serif" font-size="14.00">Policies.IndexPolicy.IndexPolicy</text>
<polyline fill="none" stroke="black" points="2823,-452.5 3020,-452.5 "/>
<text text-anchor="start" x="2831" y="-437.3" font-family="Times,serif" font-size="14.00">nbArms : int</text>
<polyline fill="none" stroke="black" points="2823,-429.5 3020,-429.5 "/>
<text text-anchor="start" x="2831" y="-414.3" font-family="Times,serif" font-size="14.00">__init__()</text>
<text text-anchor="start" x="2831" y="-399.3" font-family="Times,serif" font-size="14.00">__str__()</text>
<text text-anchor="start" x="2831" y="-384.3" font-family="Times,serif" font-size="14.00">choice()</text>
<text text-anchor="start" x="2831" y="-369.3" font-family="Times,serif" font-size="14.00">computeIndex()</text>
</g>
<!-- 9&#45;&gt;15 -->
<g id="edge1" class="edge"><title>9&#45;&gt;15</title>
<path fill="none" stroke="black" d="M1787.74,-249.869C1804.16,-278.515 1826.51,-307.521 1855.5,-325 1936.15,-373.632 2557.95,-403.26 2812.94,-413.476"/>
<polygon fill="none" stroke="black" points="2812.83,-416.974 2822.96,-413.875 2813.11,-409.98 2812.83,-416.974"/>
</g>
<!-- 10 -->
<g id="node11" class="node"><title>10</title>
<polygon fill="none" stroke="black" points="3882.5,-60.5 3882.5,-264.5 3998.5,-264.5 3998.5,-60.5 3882.5,-60.5"/>
<text text-anchor="middle" x="3940.5" y="-249.3" font-family="Times,serif" font-size="14.00">Policies.Beta.Beta</text>
<polyline fill="none" stroke="black" points="3882.5,-241.5 3998.5,-241.5 "/>
<text text-anchor="start" x="3890.5" y="-226.3" font-family="Times,serif" font-size="14.00">N : list</text>
<text text-anchor="start" x="3890.5" y="-211.3" font-family="Times,serif" font-size="14.00">a : int</text>
<text text-anchor="start" x="3890.5" y="-196.3" font-family="Times,serif" font-size="14.00">b : int</text>
<polyline fill="none" stroke="black" points="3882.5,-188.5 3998.5,-188.5 "/>
<text text-anchor="start" x="3890.5" y="-173.3" font-family="Times,serif" font-size="14.00">__init__()</text>
<text text-anchor="start" x="3890.5" y="-158.3" font-family="Times,serif" font-size="14.00">__repr__()</text>
<text text-anchor="start" x="3890.5" y="-143.3" font-family="Times,serif" font-size="14.00">forget()</text>
<text text-anchor="start" x="3890.5" y="-128.3" font-family="Times,serif" font-size="14.00">mean()</text>
<text text-anchor="start" x="3890.5" y="-113.3" font-family="Times,serif" font-size="14.00">quantile()</text>
<text text-anchor="start" x="3890.5" y="-98.3" font-family="Times,serif" font-size="14.00">reset()</text>
<text text-anchor="start" x="3890.5" y="-83.3" font-family="Times,serif" font-size="14.00">sample()</text>
<text text-anchor="start" x="3890.5" y="-68.3" font-family="Times,serif" font-size="14.00">update()</text>
</g>
<!-- 11 -->
<g id="node12" class="node"><title>11</title>
<polygon fill="none" stroke="black" points="4016.5,-83 4016.5,-242 4174.5,-242 4174.5,-83 4016.5,-83"/>
<text text-anchor="middle" x="4095.5" y="-226.8" font-family="Times,serif" font-size="14.00">Policies.Dummy.Dummy</text>
<polyline fill="none" stroke="black" points="4016.5,-219 4174.5,-219 "/>
<text text-anchor="start" x="4024.5" y="-203.8" font-family="Times,serif" font-size="14.00">nbArms</text>
<text text-anchor="start" x="4024.5" y="-188.8" font-family="Times,serif" font-size="14.00">params : str</text>
<polyline fill="none" stroke="black" points="4016.5,-181 4174.5,-181 "/>
<text text-anchor="start" x="4024.5" y="-165.8" font-family="Times,serif" font-size="14.00">__init__()</text>
<text text-anchor="start" x="4024.5" y="-150.8" font-family="Times,serif" font-size="14.00">__str__()</text>
<text text-anchor="start" x="4024.5" y="-135.8" font-family="Times,serif" font-size="14.00">choice()</text>
<text text-anchor="start" x="4024.5" y="-120.8" font-family="Times,serif" font-size="14.00">computeIndex()</text>
<text text-anchor="start" x="4024.5" y="-105.8" font-family="Times,serif" font-size="14.00">getReward()</text>
<text text-anchor="start" x="4024.5" y="-90.8" font-family="Times,serif" font-size="14.00">startGame()</text>
</g>
<!-- 12 -->
<g id="node13" class="node"><title>12</title>
<polygon fill="none" stroke="black" points="1864,-60.5 1864,-264.5 2135,-264.5 2135,-60.5 1864,-60.5"/>
<text text-anchor="middle" x="1999.5" y="-249.3" font-family="Times,serif" font-size="14.00">Policies.EpsilonDecreasing.EpsilonDecreasing</text>
<polyline fill="none" stroke="black" points="1864,-241.5 2135,-241.5 "/>
<text text-anchor="start" x="1872" y="-226.3" font-family="Times,serif" font-size="14.00">decreasingRate : float</text>
<text text-anchor="start" x="1872" y="-211.3" font-family="Times,serif" font-size="14.00">epsilon : float</text>
<text text-anchor="start" x="1872" y="-196.3" font-family="Times,serif" font-size="14.00">nbArms</text>
<text text-anchor="start" x="1872" y="-181.3" font-family="Times,serif" font-size="14.00">params : str</text>
<text text-anchor="start" x="1872" y="-166.3" font-family="Times,serif" font-size="14.00">rewards</text>
<text text-anchor="start" x="1872" y="-151.3" font-family="Times,serif" font-size="14.00">t : int</text>
<polyline fill="none" stroke="black" points="1864,-143.5 2135,-143.5 "/>
<text text-anchor="start" x="1872" y="-128.3" font-family="Times,serif" font-size="14.00">__init__()</text>
<text text-anchor="start" x="1872" y="-113.3" font-family="Times,serif" font-size="14.00">__str__()</text>
<text text-anchor="start" x="1872" y="-98.3" font-family="Times,serif" font-size="14.00">choice()</text>
<text text-anchor="start" x="1872" y="-83.3" font-family="Times,serif" font-size="14.00">getReward()</text>
<text text-anchor="start" x="1872" y="-68.3" font-family="Times,serif" font-size="14.00">startGame()</text>
</g>
<!-- 12&#45;&gt;15 -->
<g id="edge2" class="edge"><title>12&#45;&gt;15</title>
<path fill="none" stroke="black" d="M2070.25,-264.917C2091.44,-288.282 2116.58,-310.503 2144.5,-325 2258.38,-384.118 2627.26,-406.355 2812.81,-413.951"/>
<polygon fill="none" stroke="black" points="2812.73,-417.451 2822.86,-414.356 2813.01,-410.456 2812.73,-417.451"/>
</g>
<!-- 13 -->
<g id="node14" class="node"><title>13</title>
<polygon fill="none" stroke="black" points="2153,-60.5 2153,-264.5 2352,-264.5 2352,-60.5 2153,-60.5"/>
<text text-anchor="middle" x="2252.5" y="-249.3" font-family="Times,serif" font-size="14.00">Policies.EpsilonFirst.EpsilonFirst</text>
<polyline fill="none" stroke="black" points="2153,-241.5 2352,-241.5 "/>
<text text-anchor="start" x="2161" y="-226.3" font-family="Times,serif" font-size="14.00">epsilon : float</text>
<text text-anchor="start" x="2161" y="-211.3" font-family="Times,serif" font-size="14.00">horizon</text>
<text text-anchor="start" x="2161" y="-196.3" font-family="Times,serif" font-size="14.00">nbArms</text>
<text text-anchor="start" x="2161" y="-181.3" font-family="Times,serif" font-size="14.00">params : str</text>
<text text-anchor="start" x="2161" y="-166.3" font-family="Times,serif" font-size="14.00">rewards</text>
<text text-anchor="start" x="2161" y="-151.3" font-family="Times,serif" font-size="14.00">t : int</text>
<polyline fill="none" stroke="black" points="2153,-143.5 2352,-143.5 "/>
<text text-anchor="start" x="2161" y="-128.3" font-family="Times,serif" font-size="14.00">__init__()</text>
<text text-anchor="start" x="2161" y="-113.3" font-family="Times,serif" font-size="14.00">__str__()</text>
<text text-anchor="start" x="2161" y="-98.3" font-family="Times,serif" font-size="14.00">choice()</text>
<text text-anchor="start" x="2161" y="-83.3" font-family="Times,serif" font-size="14.00">getReward()</text>
<text text-anchor="start" x="2161" y="-68.3" font-family="Times,serif" font-size="14.00">startGame()</text>
</g>
<!-- 13&#45;&gt;15 -->
<g id="edge3" class="edge"><title>13&#45;&gt;15</title>
<path fill="none" stroke="black" d="M2302.47,-264.728C2318.34,-287.802 2338.01,-309.931 2361.5,-325 2434.45,-371.798 2671.54,-397.957 2812.77,-409.744"/>
<polygon fill="none" stroke="black" points="2812.51,-413.235 2822.77,-410.568 2813.09,-406.259 2812.51,-413.235"/>
</g>
<!-- 14 -->
<g id="node15" class="node"><title>14</title>
<polygon fill="none" stroke="black" points="2370,-75.5 2370,-249.5 2599,-249.5 2599,-75.5 2370,-75.5"/>
<text text-anchor="middle" x="2484.5" y="-234.3" font-family="Times,serif" font-size="14.00">Policies.EpsilonGreedy.EpsilonGreedy</text>
<polyline fill="none" stroke="black" points="2370,-226.5 2599,-226.5 "/>
<text text-anchor="start" x="2378" y="-211.3" font-family="Times,serif" font-size="14.00">epsilon : float</text>
<text text-anchor="start" x="2378" y="-196.3" font-family="Times,serif" font-size="14.00">nbArms</text>
<text text-anchor="start" x="2378" y="-181.3" font-family="Times,serif" font-size="14.00">params</text>
<text text-anchor="start" x="2378" y="-166.3" font-family="Times,serif" font-size="14.00">rewards</text>
<polyline fill="none" stroke="black" points="2370,-158.5 2599,-158.5 "/>
<text text-anchor="start" x="2378" y="-143.3" font-family="Times,serif" font-size="14.00">__init__()</text>
<text text-anchor="start" x="2378" y="-128.3" font-family="Times,serif" font-size="14.00">__str__()</text>
<text text-anchor="start" x="2378" y="-113.3" font-family="Times,serif" font-size="14.00">choice()</text>
<text text-anchor="start" x="2378" y="-98.3" font-family="Times,serif" font-size="14.00">getReward()</text>
<text text-anchor="start" x="2378" y="-83.3" font-family="Times,serif" font-size="14.00">startGame()</text>
</g>
<!-- 14&#45;&gt;15 -->
<g id="edge4" class="edge"><title>14&#45;&gt;15</title>
<path fill="none" stroke="black" d="M2535.26,-249.711C2555.08,-277.129 2579.94,-305.392 2608.5,-325 2669.25,-366.709 2749.04,-389.912 2812.86,-402.648"/>
<polygon fill="none" stroke="black" points="2812.48,-406.139 2822.96,-404.603 2813.81,-399.266 2812.48,-406.139"/>
</g>
<!-- 16 -->
<g id="node17" class="node"><title>16</title>
<polygon fill="none" stroke="black" points="2617.5,-53 2617.5,-272 2823.5,-272 2823.5,-53 2617.5,-53"/>
<text text-anchor="middle" x="2720.5" y="-256.8" font-family="Times,serif" font-size="14.00">Policies.KLempUCB.KLempUCB</text>
<polyline fill="none" stroke="black" points="2617.5,-249 2823.5,-249 "/>
<text text-anchor="start" x="2625.5" y="-233.8" font-family="Times,serif" font-size="14.00">c : int</text>
<text text-anchor="start" x="2625.5" y="-218.8" font-family="Times,serif" font-size="14.00">maxReward : float</text>
<text text-anchor="start" x="2625.5" y="-203.8" font-family="Times,serif" font-size="14.00">nbArms</text>
<text text-anchor="start" x="2625.5" y="-188.8" font-family="Times,serif" font-size="14.00">nbpulls</text>
<text text-anchor="start" x="2625.5" y="-173.8" font-family="Times,serif" font-size="14.00">obs : dict</text>
<text text-anchor="start" x="2625.5" y="-158.8" font-family="Times,serif" font-size="14.00">params</text>
<text text-anchor="start" x="2625.5" y="-143.8" font-family="Times,serif" font-size="14.00">t : int</text>
<polyline fill="none" stroke="black" points="2617.5,-136 2823.5,-136 "/>
<text text-anchor="start" x="2625.5" y="-120.8" font-family="Times,serif" font-size="14.00">_KLucb()</text>
<text text-anchor="start" x="2625.5" y="-105.8" font-family="Times,serif" font-size="14.00">__init__()</text>
<text text-anchor="start" x="2625.5" y="-90.8" font-family="Times,serif" font-size="14.00">computeIndex()</text>
<text text-anchor="start" x="2625.5" y="-75.8" font-family="Times,serif" font-size="14.00">getReward()</text>
<text text-anchor="start" x="2625.5" y="-60.8" font-family="Times,serif" font-size="14.00">startGame()</text>
</g>
<!-- 16&#45;&gt;15 -->
<g id="edge5" class="edge"><title>16&#45;&gt;15</title>
<path fill="none" stroke="black" d="M2792.26,-272.115C2805.18,-290.144 2818.88,-308.37 2832.5,-325 2840.3,-334.523 2848.88,-344.242 2857.53,-353.631"/>
<polygon fill="none" stroke="black" points="2855.1,-356.152 2864.48,-361.079 2860.22,-351.378 2855.1,-356.152"/>
</g>
<!-- 17 -->
<g id="node18" class="node"><title>17</title>
<polygon fill="none" stroke="black" points="2841.5,-60.5 2841.5,-264.5 3001.5,-264.5 3001.5,-60.5 2841.5,-60.5"/>
<text text-anchor="middle" x="2921.5" y="-249.3" font-family="Times,serif" font-size="14.00">Policies.Softmax.Softmax</text>
<polyline fill="none" stroke="black" points="2841.5,-241.5 3001.5,-241.5 "/>
<text text-anchor="start" x="2849.5" y="-226.3" font-family="Times,serif" font-size="14.00">nbArms</text>
<text text-anchor="start" x="2849.5" y="-211.3" font-family="Times,serif" font-size="14.00">params</text>
<text text-anchor="start" x="2849.5" y="-196.3" font-family="Times,serif" font-size="14.00">pulls</text>
<text text-anchor="start" x="2849.5" y="-181.3" font-family="Times,serif" font-size="14.00">rewards</text>
<text text-anchor="start" x="2849.5" y="-166.3" font-family="Times,serif" font-size="14.00">t : int</text>
<text text-anchor="start" x="2849.5" y="-151.3" font-family="Times,serif" font-size="14.00">temperature : int</text>
<polyline fill="none" stroke="black" points="2841.5,-143.5 3001.5,-143.5 "/>
<text text-anchor="start" x="2849.5" y="-128.3" font-family="Times,serif" font-size="14.00">__init__()</text>
<text text-anchor="start" x="2849.5" y="-113.3" font-family="Times,serif" font-size="14.00">__str__()</text>
<text text-anchor="start" x="2849.5" y="-98.3" font-family="Times,serif" font-size="14.00">choice()</text>
<text text-anchor="start" x="2849.5" y="-83.3" font-family="Times,serif" font-size="14.00">getReward()</text>
<text text-anchor="start" x="2849.5" y="-68.3" font-family="Times,serif" font-size="14.00">startGame()</text>
</g>
<!-- 17&#45;&gt;15 -->
<g id="edge6" class="edge"><title>17&#45;&gt;15</title>
<path fill="none" stroke="black" d="M2921.5,-264.617C2921.5,-293.685 2921.5,-324.641 2921.5,-351.042"/>
<polygon fill="none" stroke="black" points="2918,-351.299 2921.5,-361.299 2925,-351.299 2918,-351.299"/>
</g>
<!-- 18 -->
<g id="node19" class="node"><title>18</title>
<polygon fill="none" stroke="black" points="3019.5,-75.5 3019.5,-249.5 3203.5,-249.5 3203.5,-75.5 3019.5,-75.5"/>
<text text-anchor="middle" x="3111.5" y="-234.3" font-family="Times,serif" font-size="14.00">Policies.Thompson.Thompson</text>
<polyline fill="none" stroke="black" points="3019.5,-226.5 3203.5,-226.5 "/>
<text text-anchor="start" x="3027.5" y="-211.3" font-family="Times,serif" font-size="14.00">nbArms</text>
<text text-anchor="start" x="3027.5" y="-196.3" font-family="Times,serif" font-size="14.00">params : str</text>
<text text-anchor="start" x="3027.5" y="-181.3" font-family="Times,serif" font-size="14.00">posterior : dict</text>
<text text-anchor="start" x="3027.5" y="-166.3" font-family="Times,serif" font-size="14.00">t : int</text>
<polyline fill="none" stroke="black" points="3019.5,-158.5 3203.5,-158.5 "/>
<text text-anchor="start" x="3027.5" y="-143.3" font-family="Times,serif" font-size="14.00">__init__()</text>
<text text-anchor="start" x="3027.5" y="-128.3" font-family="Times,serif" font-size="14.00">__str__()</text>
<text text-anchor="start" x="3027.5" y="-113.3" font-family="Times,serif" font-size="14.00">computeIndex()</text>
<text text-anchor="start" x="3027.5" y="-98.3" font-family="Times,serif" font-size="14.00">getReward()</text>
<text text-anchor="start" x="3027.5" y="-83.3" font-family="Times,serif" font-size="14.00">startGame()</text>
</g>
<!-- 18&#45;&gt;15 -->
<g id="edge7" class="edge"><title>18&#45;&gt;15</title>
<path fill="none" stroke="black" d="M3062.26,-249.551C3046.72,-274.606 3028.81,-301.533 3010.5,-325 3002.93,-334.705 2994.48,-344.529 2985.89,-353.967"/>
<polygon fill="none" stroke="black" points="2983.2,-351.725 2978.98,-361.445 2988.34,-356.475 2983.2,-351.725"/>
</g>
<!-- 19 -->
<g id="node20" class="node"><title>19</title>
<polygon fill="none" stroke="black" points="3221.5,-68 3221.5,-257 3343.5,-257 3343.5,-68 3221.5,-68"/>
<text text-anchor="middle" x="3282.5" y="-241.8" font-family="Times,serif" font-size="14.00">Policies.UCB.UCB</text>
<polyline fill="none" stroke="black" points="3221.5,-234 3343.5,-234 "/>
<text text-anchor="start" x="3229.5" y="-218.8" font-family="Times,serif" font-size="14.00">nbArms</text>
<text text-anchor="start" x="3229.5" y="-203.8" font-family="Times,serif" font-size="14.00">params : str</text>
<text text-anchor="start" x="3229.5" y="-188.8" font-family="Times,serif" font-size="14.00">pulls</text>
<text text-anchor="start" x="3229.5" y="-173.8" font-family="Times,serif" font-size="14.00">rewards</text>
<text text-anchor="start" x="3229.5" y="-158.8" font-family="Times,serif" font-size="14.00">t : int</text>
<polyline fill="none" stroke="black" points="3221.5,-151 3343.5,-151 "/>
<text text-anchor="start" x="3229.5" y="-135.8" font-family="Times,serif" font-size="14.00">__init__()</text>
<text text-anchor="start" x="3229.5" y="-120.8" font-family="Times,serif" font-size="14.00">__str__()</text>
<text text-anchor="start" x="3229.5" y="-105.8" font-family="Times,serif" font-size="14.00">choice()</text>
<text text-anchor="start" x="3229.5" y="-90.8" font-family="Times,serif" font-size="14.00">getReward()</text>
<text text-anchor="start" x="3229.5" y="-75.8" font-family="Times,serif" font-size="14.00">startGame()</text>
</g>
<!-- 19&#45;&gt;15 -->
<g id="edge8" class="edge"><title>19&#45;&gt;15</title>
<path fill="none" stroke="black" d="M3257.58,-257.156C3247.12,-281.973 3232.57,-306.869 3212.5,-325 3162.39,-370.281 3090.08,-393.402 3030.08,-405.205"/>
<polygon fill="none" stroke="black" points="3029.35,-401.779 3020.18,-407.073 3030.65,-408.658 3029.35,-401.779"/>
</g>
<!-- 20 -->
<g id="node21" class="node"><title>20</title>
<polygon fill="none" stroke="black" points="3361.5,-45.5 3361.5,-279.5 3503.5,-279.5 3503.5,-45.5 3361.5,-45.5"/>
<text text-anchor="middle" x="3432.5" y="-264.3" font-family="Times,serif" font-size="14.00">Policies.UCBV.UCBV</text>
<polyline fill="none" stroke="black" points="3361.5,-256.5 3503.5,-256.5 "/>
<text text-anchor="start" x="3369.5" y="-241.3" font-family="Times,serif" font-size="14.00">amplitude : float</text>
<text text-anchor="start" x="3369.5" y="-226.3" font-family="Times,serif" font-size="14.00">lower : float</text>
<text text-anchor="start" x="3369.5" y="-211.3" font-family="Times,serif" font-size="14.00">nbArms</text>
<text text-anchor="start" x="3369.5" y="-196.3" font-family="Times,serif" font-size="14.00">params</text>
<text text-anchor="start" x="3369.5" y="-181.3" font-family="Times,serif" font-size="14.00">pulls</text>
<text text-anchor="start" x="3369.5" y="-166.3" font-family="Times,serif" font-size="14.00">rewards</text>
<text text-anchor="start" x="3369.5" y="-151.3" font-family="Times,serif" font-size="14.00">rewardsCorrected</text>
<text text-anchor="start" x="3369.5" y="-136.3" font-family="Times,serif" font-size="14.00">t : int</text>
<polyline fill="none" stroke="black" points="3361.5,-128.5 3503.5,-128.5 "/>
<text text-anchor="start" x="3369.5" y="-113.3" font-family="Times,serif" font-size="14.00">__init__()</text>
<text text-anchor="start" x="3369.5" y="-98.3" font-family="Times,serif" font-size="14.00">__str__()</text>
<text text-anchor="start" x="3369.5" y="-83.3" font-family="Times,serif" font-size="14.00">computeIndex()</text>
<text text-anchor="start" x="3369.5" y="-68.3" font-family="Times,serif" font-size="14.00">getReward()</text>
<text text-anchor="start" x="3369.5" y="-53.3" font-family="Times,serif" font-size="14.00">startGame()</text>
</g>
<!-- 20&#45;&gt;15 -->
<g id="edge9" class="edge"><title>20&#45;&gt;15</title>
<path fill="none" stroke="black" d="M3391.18,-279.833C3380.8,-296.969 3368.06,-312.896 3352.5,-325 3303.15,-363.391 3141.21,-390.458 3030.51,-405.017"/>
<polygon fill="none" stroke="black" points="3029.76,-401.584 3020.3,-406.343 3030.67,-408.526 3029.76,-401.584"/>
</g>
<!-- 21 -->
<g id="node22" class="node"><title>21</title>
<polygon fill="none" stroke="black" points="3522,-60.5 3522,-264.5 3703,-264.5 3703,-60.5 3522,-60.5"/>
<text text-anchor="middle" x="3612.5" y="-249.3" font-family="Times,serif" font-size="14.00">Policies.UCBalpha.UCBalpha</text>
<polyline fill="none" stroke="black" points="3522,-241.5 3703,-241.5 "/>
<text text-anchor="start" x="3530" y="-226.3" font-family="Times,serif" font-size="14.00">alpha : int</text>
<text text-anchor="start" x="3530" y="-211.3" font-family="Times,serif" font-size="14.00">nbArms</text>
<text text-anchor="start" x="3530" y="-196.3" font-family="Times,serif" font-size="14.00">params</text>
<text text-anchor="start" x="3530" y="-181.3" font-family="Times,serif" font-size="14.00">pulls</text>
<text text-anchor="start" x="3530" y="-166.3" font-family="Times,serif" font-size="14.00">rewards</text>
<text text-anchor="start" x="3530" y="-151.3" font-family="Times,serif" font-size="14.00">t : int</text>
<polyline fill="none" stroke="black" points="3522,-143.5 3703,-143.5 "/>
<text text-anchor="start" x="3530" y="-128.3" font-family="Times,serif" font-size="14.00">__init__()</text>
<text text-anchor="start" x="3530" y="-113.3" font-family="Times,serif" font-size="14.00">__str__()</text>
<text text-anchor="start" x="3530" y="-98.3" font-family="Times,serif" font-size="14.00">choice()</text>
<text text-anchor="start" x="3530" y="-83.3" font-family="Times,serif" font-size="14.00">getReward()</text>
<text text-anchor="start" x="3530" y="-68.3" font-family="Times,serif" font-size="14.00">startGame()</text>
</g>
<!-- 21&#45;&gt;15 -->
<g id="edge10" class="edge"><title>21&#45;&gt;15</title>
<path fill="none" stroke="black" d="M3568.2,-264.765C3553.61,-287.838 3535.17,-309.958 3512.5,-325 3435.31,-376.218 3178.69,-400.972 3030.21,-411.273"/>
<polygon fill="none" stroke="black" points="3029.89,-407.787 3020.15,-411.96 3030.36,-414.771 3029.89,-407.787"/>
</g>
<!-- 22 -->
<g id="node23" class="node"><title>22</title>
<polygon fill="none" stroke="black" points="3721,-30.5 3721,-294.5 3864,-294.5 3864,-30.5 3721,-30.5"/>
<text text-anchor="middle" x="3792.5" y="-279.3" font-family="Times,serif" font-size="14.00">Policies.klUCB.klUCB</text>
<polyline fill="none" stroke="black" points="3721,-271.5 3864,-271.5 "/>
<text text-anchor="start" x="3729" y="-256.3" font-family="Times,serif" font-size="14.00">amplitude : float</text>
<text text-anchor="start" x="3729" y="-241.3" font-family="Times,serif" font-size="14.00">c : float</text>
<text text-anchor="start" x="3729" y="-226.3" font-family="Times,serif" font-size="14.00">klucb</text>
<text text-anchor="start" x="3729" y="-211.3" font-family="Times,serif" font-size="14.00">lower : float</text>
<text text-anchor="start" x="3729" y="-196.3" font-family="Times,serif" font-size="14.00">nbArms</text>
<text text-anchor="start" x="3729" y="-181.3" font-family="Times,serif" font-size="14.00">params</text>
<text text-anchor="start" x="3729" y="-166.3" font-family="Times,serif" font-size="14.00">pulls</text>
<text text-anchor="start" x="3729" y="-151.3" font-family="Times,serif" font-size="14.00">rewards</text>
<text text-anchor="start" x="3729" y="-136.3" font-family="Times,serif" font-size="14.00">t : int</text>
<text text-anchor="start" x="3729" y="-121.3" font-family="Times,serif" font-size="14.00">tolerance : float</text>
<polyline fill="none" stroke="black" points="3721,-113.5 3864,-113.5 "/>
<text text-anchor="start" x="3729" y="-98.3" font-family="Times,serif" font-size="14.00">__init__()</text>
<text text-anchor="start" x="3729" y="-83.3" font-family="Times,serif" font-size="14.00">__str__()</text>
<text text-anchor="start" x="3729" y="-68.3" font-family="Times,serif" font-size="14.00">computeIndex()</text>
<text text-anchor="start" x="3729" y="-53.3" font-family="Times,serif" font-size="14.00">getReward()</text>
<text text-anchor="start" x="3729" y="-38.3" font-family="Times,serif" font-size="14.00">startGame()</text>
</g>
<!-- 22&#45;&gt;15 -->
<g id="edge11" class="edge"><title>22&#45;&gt;15</title>
<path fill="none" stroke="black" d="M3742.79,-294.879C3734.17,-306.416 3724.14,-316.802 3712.5,-325 3604.99,-400.725 3220.52,-414.987 3030.04,-417.316"/>
<polygon fill="none" stroke="black" points="3029.96,-413.816 3020,-417.43 3030.04,-420.816 3029.96,-413.816"/>
</g>
</g>
</svg>
