<?xml version="1.0" encoding="UTF-8" standalone="no"?>
<!DOCTYPE svg PUBLIC "-//W3C//DTD SVG 1.1//EN"
 "http://www.w3.org/Graphics/SVG/1.1/DTD/svg11.dtd">
<!-- Generated by graphviz version 2.38.0 (20140413.2041)
 -->
<!-- Title: classes_AlgoBandits Pages: 1 -->
<svg width="5627pt" height="784pt"
 viewBox="0.00 0.00 5626.50 784.00" xmlns="http://www.w3.org/2000/svg" xmlns:xlink="http://www.w3.org/1999/xlink">
<g id="graph0" class="graph" transform="scale(1 1) rotate(0) translate(4 780)">
<title>classes_AlgoBandits</title>
<polygon fill="white" stroke="none" points="-4,4 -4,-780 5622.5,-780 5622.5,4 -4,4"/>
<!-- 0 -->
<g id="node1" class="node"><title>0</title>
<polygon fill="none" stroke="black" points="308.5,-608.5 308.5,-738.5 414.5,-738.5 414.5,-608.5 308.5,-608.5"/>
<text text-anchor="middle" x="361.5" y="-723.3" font-family="Times,serif" font-size="14.00">Arms.Arm.Arm</text>
<polyline fill="none" stroke="black" points="308.5,-715.5 414.5,-715.5 "/>
<polyline fill="none" stroke="black" points="308.5,-691.5 414.5,-691.5 "/>
<text text-anchor="start" x="316.5" y="-676.3" font-family="Times,serif" font-size="14.00">__init__()</text>
<text text-anchor="start" x="316.5" y="-661.3" font-family="Times,serif" font-size="14.00">__repr__()</text>
<text text-anchor="start" x="316.5" y="-646.3" font-family="Times,serif" font-size="14.00">__str__()</text>
<text text-anchor="start" x="316.5" y="-631.3" font-family="Times,serif" font-size="14.00">draw()</text>
<text text-anchor="start" x="316.5" y="-616.3" font-family="Times,serif" font-size="14.00">mean()</text>
</g>
<!-- 1 -->
<g id="node2" class="node"><title>1</title>
<polygon fill="none" stroke="black" points="0,-203 0,-332 157,-332 157,-203 0,-203"/>
<text text-anchor="middle" x="78.5" y="-316.8" font-family="Times,serif" font-size="14.00">Arms.Bernoulli.Bernoulli</text>
<polyline fill="none" stroke="black" points="0,-309 157,-309 "/>
<text text-anchor="start" x="8" y="-293.8" font-family="Times,serif" font-size="14.00">probability</text>
<polyline fill="none" stroke="black" points="0,-286 157,-286 "/>
<text text-anchor="start" x="8" y="-270.8" font-family="Times,serif" font-size="14.00">__init__()</text>
<text text-anchor="start" x="8" y="-255.8" font-family="Times,serif" font-size="14.00">__repr__()</text>
<text text-anchor="start" x="8" y="-240.8" font-family="Times,serif" font-size="14.00">__str__()</text>
<text text-anchor="start" x="8" y="-225.8" font-family="Times,serif" font-size="14.00">draw()</text>
<text text-anchor="start" x="8" y="-210.8" font-family="Times,serif" font-size="14.00">mean()</text>
</g>
<!-- 1&#45;&gt;0 -->
<g id="edge1" class="edge"><title>1&#45;&gt;0</title>
<path fill="none" stroke="black" d="M87.5312,-332.18C98.2594,-389.735 120.684,-474.467 165.5,-535 200.366,-582.095 256.268,-619.018 299.465,-642.69"/>
<polygon fill="none" stroke="black" points="298.013,-645.883 308.478,-647.539 301.33,-639.719 298.013,-645.883"/>
</g>
<!-- 2 -->
<g id="node3" class="node"><title>2</title>
<polygon fill="none" stroke="black" points="175,-188 175,-347 360,-347 360,-188 175,-188"/>
<text text-anchor="middle" x="267.5" y="-331.8" font-family="Times,serif" font-size="14.00">Arms.Exponential.Exponential</text>
<polyline fill="none" stroke="black" points="175,-324 360,-324 "/>
<text text-anchor="start" x="183" y="-308.8" font-family="Times,serif" font-size="14.00">expectation</text>
<text text-anchor="start" x="183" y="-293.8" font-family="Times,serif" font-size="14.00">p</text>
<text text-anchor="start" x="183" y="-278.8" font-family="Times,serif" font-size="14.00">trunc : float</text>
<polyline fill="none" stroke="black" points="175,-271 360,-271 "/>
<text text-anchor="start" x="183" y="-255.8" font-family="Times,serif" font-size="14.00">__init__()</text>
<text text-anchor="start" x="183" y="-240.8" font-family="Times,serif" font-size="14.00">__repr__()</text>
<text text-anchor="start" x="183" y="-225.8" font-family="Times,serif" font-size="14.00">__str__()</text>
<text text-anchor="start" x="183" y="-210.8" font-family="Times,serif" font-size="14.00">draw()</text>
<text text-anchor="start" x="183" y="-195.8" font-family="Times,serif" font-size="14.00">mean()</text>
</g>
<!-- 2&#45;&gt;0 -->
<g id="edge2" class="edge"><title>2&#45;&gt;0</title>
<path fill="none" stroke="black" d="M285.847,-347.354C302.789,-420.167 327.762,-527.5 344.322,-598.669"/>
<polygon fill="none" stroke="black" points="340.925,-599.517 346.601,-608.464 347.743,-597.931 340.925,-599.517"/>
</g>
<!-- 3 -->
<g id="node4" class="node"><title>3</title>
<polygon fill="none" stroke="black" points="378.5,-188 378.5,-347 532.5,-347 532.5,-188 378.5,-188"/>
<text text-anchor="middle" x="455.5" y="-331.8" font-family="Times,serif" font-size="14.00">Arms.Gaussian.Gaussian</text>
<polyline fill="none" stroke="black" points="378.5,-324 532.5,-324 "/>
<text text-anchor="start" x="386.5" y="-308.8" font-family="Times,serif" font-size="14.00">expectation</text>
<text text-anchor="start" x="386.5" y="-293.8" font-family="Times,serif" font-size="14.00">mu</text>
<text text-anchor="start" x="386.5" y="-278.8" font-family="Times,serif" font-size="14.00">sigma</text>
<polyline fill="none" stroke="black" points="378.5,-271 532.5,-271 "/>
<text text-anchor="start" x="386.5" y="-255.8" font-family="Times,serif" font-size="14.00">__init__()</text>
<text text-anchor="start" x="386.5" y="-240.8" font-family="Times,serif" font-size="14.00">__repr__()</text>
<text text-anchor="start" x="386.5" y="-225.8" font-family="Times,serif" font-size="14.00">__str__()</text>
<text text-anchor="start" x="386.5" y="-210.8" font-family="Times,serif" font-size="14.00">draw()</text>
<text text-anchor="start" x="386.5" y="-195.8" font-family="Times,serif" font-size="14.00">mean()</text>
</g>
<!-- 3&#45;&gt;0 -->
<g id="edge3" class="edge"><title>3&#45;&gt;0</title>
<path fill="none" stroke="black" d="M437.153,-347.354C420.211,-420.167 395.238,-527.5 378.678,-598.669"/>
<polygon fill="none" stroke="black" points="375.257,-597.931 376.399,-608.464 382.075,-599.517 375.257,-597.931"/>
</g>
<!-- 4 -->
<g id="node5" class="node"><title>4</title>
<polygon fill="none" stroke="black" points="551,-188 551,-347 690,-347 690,-188 551,-188"/>
<text text-anchor="middle" x="620.5" y="-331.8" font-family="Times,serif" font-size="14.00">Arms.Poisson.Poisson</text>
<polyline fill="none" stroke="black" points="551,-324 690,-324 "/>
<text text-anchor="start" x="559" y="-308.8" font-family="Times,serif" font-size="14.00">expectation : int</text>
<text text-anchor="start" x="559" y="-293.8" font-family="Times,serif" font-size="14.00">p</text>
<text text-anchor="start" x="559" y="-278.8" font-family="Times,serif" font-size="14.00">trunc : float</text>
<polyline fill="none" stroke="black" points="551,-271 690,-271 "/>
<text text-anchor="start" x="559" y="-255.8" font-family="Times,serif" font-size="14.00">__init__()</text>
<text text-anchor="start" x="559" y="-240.8" font-family="Times,serif" font-size="14.00">__repr__()</text>
<text text-anchor="start" x="559" y="-225.8" font-family="Times,serif" font-size="14.00">__str__()</text>
<text text-anchor="start" x="559" y="-210.8" font-family="Times,serif" font-size="14.00">draw()</text>
<text text-anchor="start" x="559" y="-195.8" font-family="Times,serif" font-size="14.00">mean()</text>
</g>
<!-- 4&#45;&gt;0 -->
<g id="edge4" class="edge"><title>4&#45;&gt;0</title>
<path fill="none" stroke="black" d="M610.477,-347.002C600.293,-403.282 580.243,-478.771 541.5,-535 511.215,-578.953 462.442,-614.952 423.301,-639.075"/>
<polygon fill="none" stroke="black" points="421.34,-636.171 414.597,-644.343 424.965,-642.159 421.34,-636.171"/>
</g>
<!-- 5 -->
<g id="node6" class="node"><title>5</title>
<polygon fill="none" stroke="black" points="708.5,-83 708.5,-452 908.5,-452 908.5,-83 708.5,-83"/>
<text text-anchor="middle" x="808.5" y="-436.8" font-family="Times,serif" font-size="14.00">Environment.Evaluator.Evaluator</text>
<polyline fill="none" stroke="black" points="708.5,-429 908.5,-429 "/>
<text text-anchor="start" x="716.5" y="-413.8" font-family="Times,serif" font-size="14.00">BestArmPulls : dict</text>
<text text-anchor="start" x="716.5" y="-398.8" font-family="Times,serif" font-size="14.00">averageOn : float</text>
<text text-anchor="start" x="716.5" y="-383.8" font-family="Times,serif" font-size="14.00">cfg</text>
<text text-anchor="start" x="716.5" y="-368.8" font-family="Times,serif" font-size="14.00">envs : list</text>
<text text-anchor="start" x="716.5" y="-353.8" font-family="Times,serif" font-size="14.00">finalRanksOnAverage : bool</text>
<text text-anchor="start" x="716.5" y="-338.8" font-family="Times,serif" font-size="14.00">policies : list</text>
<text text-anchor="start" x="716.5" y="-323.8" font-family="Times,serif" font-size="14.00">pulls : dict</text>
<text text-anchor="start" x="716.5" y="-308.8" font-family="Times,serif" font-size="14.00">rewards</text>
<text text-anchor="start" x="716.5" y="-293.8" font-family="Times,serif" font-size="14.00">useJoblib</text>
<text text-anchor="start" x="716.5" y="-278.8" font-family="Times,serif" font-size="14.00">useJoblibForPolicies : bool</text>
<polyline fill="none" stroke="black" points="708.5,-271 908.5,-271 "/>
<text text-anchor="start" x="716.5" y="-255.8" font-family="Times,serif" font-size="14.00">__initEnvironments__()</text>
<text text-anchor="start" x="716.5" y="-240.8" font-family="Times,serif" font-size="14.00">__initPolicies__()</text>
<text text-anchor="start" x="716.5" y="-225.8" font-family="Times,serif" font-size="14.00">__init__()</text>
<text text-anchor="start" x="716.5" y="-210.8" font-family="Times,serif" font-size="14.00">getBestArmPulls()</text>
<text text-anchor="start" x="716.5" y="-195.8" font-family="Times,serif" font-size="14.00">getPulls()</text>
<text text-anchor="start" x="716.5" y="-180.8" font-family="Times,serif" font-size="14.00">getRegret()</text>
<text text-anchor="start" x="716.5" y="-165.8" font-family="Times,serif" font-size="14.00">getReward()</text>
<text text-anchor="start" x="716.5" y="-150.8" font-family="Times,serif" font-size="14.00">giveFinalRanking()</text>
<text text-anchor="start" x="716.5" y="-135.8" font-family="Times,serif" font-size="14.00">plotBestArmPulls()</text>
<text text-anchor="start" x="716.5" y="-120.8" font-family="Times,serif" font-size="14.00">plotRewards()</text>
<text text-anchor="start" x="716.5" y="-105.8" font-family="Times,serif" font-size="14.00">start_all_env()</text>
<text text-anchor="start" x="716.5" y="-90.8" font-family="Times,serif" font-size="14.00">start_one_env()</text>
</g>
<!-- 6 -->
<g id="node7" class="node"><title>6</title>
<polygon fill="none" stroke="black" points="927,-0.5 927,-534.5 1268,-534.5 1268,-0.5 927,-0.5"/>
<text text-anchor="middle" x="1097.5" y="-519.3" font-family="Times,serif" font-size="14.00">Environment.EvaluatorMultiPlayers.EvaluatorMultiPlayers</text>
<polyline fill="none" stroke="black" points="927,-511.5 1268,-511.5 "/>
<text text-anchor="start" x="935" y="-496.3" font-family="Times,serif" font-size="14.00">BestArmPulls : dict</text>
<text text-anchor="start" x="935" y="-481.3" font-family="Times,serif" font-size="14.00">FreeTransmissions : dict</text>
<text text-anchor="start" x="935" y="-466.3" font-family="Times,serif" font-size="14.00">averageOn</text>
<text text-anchor="start" x="935" y="-451.3" font-family="Times,serif" font-size="14.00">cfg</text>
<text text-anchor="start" x="935" y="-436.3" font-family="Times,serif" font-size="14.00">collisionModel</text>
<text text-anchor="start" x="935" y="-421.3" font-family="Times,serif" font-size="14.00">collisions : dict</text>
<text text-anchor="start" x="935" y="-406.3" font-family="Times,serif" font-size="14.00">envs : list</text>
<text text-anchor="start" x="935" y="-391.3" font-family="Times,serif" font-size="14.00">finalRanksOnAverage</text>
<text text-anchor="start" x="935" y="-376.3" font-family="Times,serif" font-size="14.00">horizon</text>
<text text-anchor="start" x="935" y="-361.3" font-family="Times,serif" font-size="14.00">nbPlayers</text>
<text text-anchor="start" x="935" y="-346.3" font-family="Times,serif" font-size="14.00">players : list</text>
<text text-anchor="start" x="935" y="-331.3" font-family="Times,serif" font-size="14.00">pulls : dict</text>
<text text-anchor="start" x="935" y="-316.3" font-family="Times,serif" font-size="14.00">repetitions</text>
<text text-anchor="start" x="935" y="-301.3" font-family="Times,serif" font-size="14.00">rewards : dict</text>
<text text-anchor="start" x="935" y="-286.3" font-family="Times,serif" font-size="14.00">useJoblib</text>
<polyline fill="none" stroke="black" points="927,-278.5 1268,-278.5 "/>
<text text-anchor="start" x="935" y="-263.3" font-family="Times,serif" font-size="14.00">__initEnvironments__()</text>
<text text-anchor="start" x="935" y="-248.3" font-family="Times,serif" font-size="14.00">__initPlayers__()</text>
<text text-anchor="start" x="935" y="-233.3" font-family="Times,serif" font-size="14.00">__init__()</text>
<text text-anchor="start" x="935" y="-218.3" font-family="Times,serif" font-size="14.00">getBestArmPulls()</text>
<text text-anchor="start" x="935" y="-203.3" font-family="Times,serif" font-size="14.00">getCentralizedRegret()</text>
<text text-anchor="start" x="935" y="-188.3" font-family="Times,serif" font-size="14.00">getFreeTransmissions()</text>
<text text-anchor="start" x="935" y="-173.3" font-family="Times,serif" font-size="14.00">getFrequencyCollisions()</text>
<text text-anchor="start" x="935" y="-158.3" font-family="Times,serif" font-size="14.00">getPulls()</text>
<text text-anchor="start" x="935" y="-143.3" font-family="Times,serif" font-size="14.00">getRegret()</text>
<text text-anchor="start" x="935" y="-128.3" font-family="Times,serif" font-size="14.00">getReward()</text>
<text text-anchor="start" x="935" y="-113.3" font-family="Times,serif" font-size="14.00">giveFinalRanking()</text>
<text text-anchor="start" x="935" y="-98.3" font-family="Times,serif" font-size="14.00">plotBestArmPulls()</text>
<text text-anchor="start" x="935" y="-83.3" font-family="Times,serif" font-size="14.00">plotFreeTransmissions()</text>
<text text-anchor="start" x="935" y="-68.3" font-family="Times,serif" font-size="14.00">plotFrequencyCollisions()</text>
<text text-anchor="start" x="935" y="-53.3" font-family="Times,serif" font-size="14.00">plotRewards()</text>
<text text-anchor="start" x="935" y="-38.3" font-family="Times,serif" font-size="14.00">plotRewardsCentralized()</text>
<text text-anchor="start" x="935" y="-23.3" font-family="Times,serif" font-size="14.00">start_all_env()</text>
<text text-anchor="start" x="935" y="-8.3" font-family="Times,serif" font-size="14.00">start_one_env()</text>
</g>
<!-- 7 -->
<g id="node8" class="node"><title>7</title>
<polygon fill="none" stroke="black" points="1286.5,-210.5 1286.5,-324.5 1444.5,-324.5 1444.5,-210.5 1286.5,-210.5"/>
<text text-anchor="middle" x="1365.5" y="-309.3" font-family="Times,serif" font-size="14.00">Environment.MAB.MAB</text>
<polyline fill="none" stroke="black" points="1286.5,-301.5 1444.5,-301.5 "/>
<text text-anchor="start" x="1294.5" y="-286.3" font-family="Times,serif" font-size="14.00">arms</text>
<text text-anchor="start" x="1294.5" y="-271.3" font-family="Times,serif" font-size="14.00">maxArm</text>
<text text-anchor="start" x="1294.5" y="-256.3" font-family="Times,serif" font-size="14.00">nbArms</text>
<polyline fill="none" stroke="black" points="1286.5,-248.5 1444.5,-248.5 "/>
<text text-anchor="start" x="1294.5" y="-233.3" font-family="Times,serif" font-size="14.00">__init__()</text>
<text text-anchor="start" x="1294.5" y="-218.3" font-family="Times,serif" font-size="14.00">__repr__()</text>
</g>
<!-- 8 -->
<g id="node9" class="node"><title>8</title>
<polygon fill="none" stroke="black" points="1462.5,-210.5 1462.5,-324.5 1626.5,-324.5 1626.5,-210.5 1462.5,-210.5"/>
<text text-anchor="middle" x="1544.5" y="-309.3" font-family="Times,serif" font-size="14.00">Environment.Result.Result</text>
<polyline fill="none" stroke="black" points="1462.5,-301.5 1626.5,-301.5 "/>
<text text-anchor="start" x="1470.5" y="-286.3" font-family="Times,serif" font-size="14.00">choices</text>
<text text-anchor="start" x="1470.5" y="-271.3" font-family="Times,serif" font-size="14.00">pulls</text>
<text text-anchor="start" x="1470.5" y="-256.3" font-family="Times,serif" font-size="14.00">rewards</text>
<polyline fill="none" stroke="black" points="1462.5,-248.5 1626.5,-248.5 "/>
<text text-anchor="start" x="1470.5" y="-233.3" font-family="Times,serif" font-size="14.00">__init__()</text>
<text text-anchor="start" x="1470.5" y="-218.3" font-family="Times,serif" font-size="14.00">store()</text>
</g>
<!-- 9 -->
<g id="node10" class="node"><title>9</title>
<polygon fill="none" stroke="black" points="1645,-203 1645,-332 1950,-332 1950,-203 1645,-203"/>
<text text-anchor="middle" x="1797.5" y="-316.8" font-family="Times,serif" font-size="14.00">Environment.ResultMultiPlayers.ResultMultiPlayers</text>
<polyline fill="none" stroke="black" points="1645,-309 1950,-309 "/>
<text text-anchor="start" x="1653" y="-293.8" font-family="Times,serif" font-size="14.00">choices</text>
<text text-anchor="start" x="1653" y="-278.8" font-family="Times,serif" font-size="14.00">collisions</text>
<text text-anchor="start" x="1653" y="-263.8" font-family="Times,serif" font-size="14.00">pulls</text>
<text text-anchor="start" x="1653" y="-248.8" font-family="Times,serif" font-size="14.00">rewards</text>
<polyline fill="none" stroke="black" points="1645,-241 1950,-241 "/>
<text text-anchor="start" x="1653" y="-225.8" font-family="Times,serif" font-size="14.00">__init__()</text>
<text text-anchor="start" x="1653" y="-210.8" font-family="Times,serif" font-size="14.00">store()</text>
</g>
<!-- 10 -->
<g id="node11" class="node"><title>10</title>
<polygon fill="none" stroke="black" points="1968,-143 1968,-392 2145,-392 2145,-143 1968,-143"/>
<text text-anchor="middle" x="2056.5" y="-376.8" font-family="Times,serif" font-size="14.00">Policies.AdBandits.AdBandit</text>
<polyline fill="none" stroke="black" points="1968,-369 2145,-369 "/>
<text text-anchor="start" x="1976" y="-353.8" font-family="Times,serif" font-size="14.00">alpha</text>
<text text-anchor="start" x="1976" y="-338.8" font-family="Times,serif" font-size="14.00">horizon</text>
<text text-anchor="start" x="1976" y="-323.8" font-family="Times,serif" font-size="14.00">nbArms</text>
<text text-anchor="start" x="1976" y="-308.8" font-family="Times,serif" font-size="14.00">params</text>
<text text-anchor="start" x="1976" y="-293.8" font-family="Times,serif" font-size="14.00">posterior : dict</text>
<text text-anchor="start" x="1976" y="-278.8" font-family="Times,serif" font-size="14.00">pulls</text>
<text text-anchor="start" x="1976" y="-263.8" font-family="Times,serif" font-size="14.00">rewards</text>
<text text-anchor="start" x="1976" y="-248.8" font-family="Times,serif" font-size="14.00">t : int</text>
<polyline fill="none" stroke="black" points="1968,-241 2145,-241 "/>
<text text-anchor="start" x="1976" y="-225.8" font-family="Times,serif" font-size="14.00">__init__()</text>
<text text-anchor="start" x="1976" y="-210.8" font-family="Times,serif" font-size="14.00">__str__()</text>
<text text-anchor="start" x="1976" y="-195.8" font-family="Times,serif" font-size="14.00">choice()</text>
<text text-anchor="start" x="1976" y="-180.8" font-family="Times,serif" font-size="14.00">computeIndex()</text>
<text text-anchor="start" x="1976" y="-165.8" font-family="Times,serif" font-size="14.00">getReward()</text>
<text text-anchor="start" x="1976" y="-150.8" font-family="Times,serif" font-size="14.00">startGame()</text>
</g>
<!-- 11 -->
<g id="node12" class="node"><title>11</title>
<polygon fill="none" stroke="black" points="2163,-135.5 2163,-399.5 2322,-399.5 2322,-135.5 2163,-135.5"/>
<text text-anchor="middle" x="2242.5" y="-384.3" font-family="Times,serif" font-size="14.00">Policies.Aggr.Aggr</text>
<polyline fill="none" stroke="black" points="2163,-376.5 2322,-376.5 "/>
<text text-anchor="start" x="2171" y="-361.3" font-family="Times,serif" font-size="14.00">children : list</text>
<text text-anchor="start" x="2171" y="-346.3" font-family="Times,serif" font-size="14.00">choices</text>
<text text-anchor="start" x="2171" y="-331.3" font-family="Times,serif" font-size="14.00">decreaseRate : NoneType</text>
<text text-anchor="start" x="2171" y="-316.3" font-family="Times,serif" font-size="14.00">learningRate</text>
<text text-anchor="start" x="2171" y="-301.3" font-family="Times,serif" font-size="14.00">nbArms</text>
<text text-anchor="start" x="2171" y="-286.3" font-family="Times,serif" font-size="14.00">nbChildren</text>
<text text-anchor="start" x="2171" y="-271.3" font-family="Times,serif" font-size="14.00">params</text>
<text text-anchor="start" x="2171" y="-256.3" font-family="Times,serif" font-size="14.00">t : int</text>
<text text-anchor="start" x="2171" y="-241.3" font-family="Times,serif" font-size="14.00">trusts : str</text>
<text text-anchor="start" x="2171" y="-226.3" font-family="Times,serif" font-size="14.00">update_all_children : bool</text>
<polyline fill="none" stroke="black" points="2163,-218.5 2322,-218.5 "/>
<text text-anchor="start" x="2171" y="-203.3" font-family="Times,serif" font-size="14.00">__init__()</text>
<text text-anchor="start" x="2171" y="-188.3" font-family="Times,serif" font-size="14.00">__str__()</text>
<text text-anchor="start" x="2171" y="-173.3" font-family="Times,serif" font-size="14.00">choice()</text>
<text text-anchor="start" x="2171" y="-158.3" font-family="Times,serif" font-size="14.00">getReward()</text>
<text text-anchor="start" x="2171" y="-143.3" font-family="Times,serif" font-size="14.00">startGame()</text>
</g>
<!-- 12 -->
<g id="node13" class="node"><title>12</title>
<polygon fill="none" stroke="black" points="2340.5,-188 2340.5,-347 2528.5,-347 2528.5,-188 2340.5,-188"/>
<text text-anchor="middle" x="2434.5" y="-331.8" font-family="Times,serif" font-size="14.00">Policies.BayesUCB.BayesUCB</text>
<polyline fill="none" stroke="black" points="2340.5,-324 2528.5,-324 "/>
<text text-anchor="start" x="2348.5" y="-308.8" font-family="Times,serif" font-size="14.00">params</text>
<text text-anchor="start" x="2348.5" y="-293.8" font-family="Times,serif" font-size="14.00">posterior</text>
<text text-anchor="start" x="2348.5" y="-278.8" font-family="Times,serif" font-size="14.00">t : int</text>
<polyline fill="none" stroke="black" points="2340.5,-271 2528.5,-271 "/>
<text text-anchor="start" x="2348.5" y="-255.8" font-family="Times,serif" font-size="14.00">__init__()</text>
<text text-anchor="start" x="2348.5" y="-240.8" font-family="Times,serif" font-size="14.00">__str__()</text>
<text text-anchor="start" x="2348.5" y="-225.8" font-family="Times,serif" font-size="14.00">computeIndex()</text>
<text text-anchor="start" x="2348.5" y="-210.8" font-family="Times,serif" font-size="14.00">getReward()</text>
<text text-anchor="start" x="2348.5" y="-195.8" font-family="Times,serif" font-size="14.00">startGame()</text>
</g>
<!-- 17 -->
<g id="node18" class="node"><title>17</title>
<polygon fill="none" stroke="black" points="2764,-571.5 2764,-775.5 2961,-775.5 2961,-571.5 2764,-571.5"/>
<text text-anchor="middle" x="2862.5" y="-760.3" font-family="Times,serif" font-size="14.00">Policies.IndexPolicy.IndexPolicy</text>
<polyline fill="none" stroke="black" points="2764,-752.5 2961,-752.5 "/>
<text text-anchor="start" x="2772" y="-737.3" font-family="Times,serif" font-size="14.00">_index</text>
<text text-anchor="start" x="2772" y="-722.3" font-family="Times,serif" font-size="14.00">nbArms</text>
<text text-anchor="start" x="2772" y="-707.3" font-family="Times,serif" font-size="14.00">params : str</text>
<text text-anchor="start" x="2772" y="-692.3" font-family="Times,serif" font-size="14.00">pulls</text>
<text text-anchor="start" x="2772" y="-677.3" font-family="Times,serif" font-size="14.00">rewards</text>
<text text-anchor="start" x="2772" y="-662.3" font-family="Times,serif" font-size="14.00">t : int</text>
<polyline fill="none" stroke="black" points="2764,-654.5 2961,-654.5 "/>
<text text-anchor="start" x="2772" y="-639.3" font-family="Times,serif" font-size="14.00">__init__()</text>
<text text-anchor="start" x="2772" y="-624.3" font-family="Times,serif" font-size="14.00">__str__()</text>
<text text-anchor="start" x="2772" y="-609.3" font-family="Times,serif" font-size="14.00">choice()</text>
<text text-anchor="start" x="2772" y="-594.3" font-family="Times,serif" font-size="14.00">getReward()</text>
<text text-anchor="start" x="2772" y="-579.3" font-family="Times,serif" font-size="14.00">startGame()</text>
</g>
<!-- 12&#45;&gt;17 -->
<g id="edge5" class="edge"><title>12&#45;&gt;17</title>
<path fill="none" stroke="black" d="M2447.78,-347.138C2461.32,-405.524 2487.71,-483.616 2537.5,-535 2595.63,-594.984 2684.02,-630.076 2753.96,-649.776"/>
<polygon fill="none" stroke="black" points="2753.13,-653.178 2763.7,-652.455 2754.98,-646.428 2753.13,-653.178"/>
</g>
<!-- 13 -->
<g id="node14" class="node"><title>13</title>
<polygon fill="none" stroke="black" points="3294.5,-165.5 3294.5,-369.5 3410.5,-369.5 3410.5,-165.5 3294.5,-165.5"/>
<text text-anchor="middle" x="3352.5" y="-354.3" font-family="Times,serif" font-size="14.00">Policies.Beta.Beta</text>
<polyline fill="none" stroke="black" points="3294.5,-346.5 3410.5,-346.5 "/>
<text text-anchor="start" x="3302.5" y="-331.3" font-family="Times,serif" font-size="14.00">N : list</text>
<text text-anchor="start" x="3302.5" y="-316.3" font-family="Times,serif" font-size="14.00">a : int</text>
<text text-anchor="start" x="3302.5" y="-301.3" font-family="Times,serif" font-size="14.00">b : int</text>
<polyline fill="none" stroke="black" points="3294.5,-293.5 3410.5,-293.5 "/>
<text text-anchor="start" x="3302.5" y="-278.3" font-family="Times,serif" font-size="14.00">__init__()</text>
<text text-anchor="start" x="3302.5" y="-263.3" font-family="Times,serif" font-size="14.00">__repr__()</text>
<text text-anchor="start" x="3302.5" y="-248.3" font-family="Times,serif" font-size="14.00">forget()</text>
<text text-anchor="start" x="3302.5" y="-233.3" font-family="Times,serif" font-size="14.00">mean()</text>
<text text-anchor="start" x="3302.5" y="-218.3" font-family="Times,serif" font-size="14.00">quantile()</text>
<text text-anchor="start" x="3302.5" y="-203.3" font-family="Times,serif" font-size="14.00">reset()</text>
<text text-anchor="start" x="3302.5" y="-188.3" font-family="Times,serif" font-size="14.00">sample()</text>
<text text-anchor="start" x="3302.5" y="-173.3" font-family="Times,serif" font-size="14.00">update()</text>
</g>
<!-- 14 -->
<g id="node15" class="node"><title>14</title>
<polygon fill="none" stroke="black" points="3429,-165.5 3429,-369.5 3700,-369.5 3700,-165.5 3429,-165.5"/>
<text text-anchor="middle" x="3564.5" y="-354.3" font-family="Times,serif" font-size="14.00">Policies.EpsilonDecreasing.EpsilonDecreasing</text>
<polyline fill="none" stroke="black" points="3429,-346.5 3700,-346.5 "/>
<text text-anchor="start" x="3437" y="-331.3" font-family="Times,serif" font-size="14.00">decreasingRate : float</text>
<text text-anchor="start" x="3437" y="-316.3" font-family="Times,serif" font-size="14.00">epsilon : float</text>
<text text-anchor="start" x="3437" y="-301.3" font-family="Times,serif" font-size="14.00">nbArms</text>
<text text-anchor="start" x="3437" y="-286.3" font-family="Times,serif" font-size="14.00">params : str</text>
<text text-anchor="start" x="3437" y="-271.3" font-family="Times,serif" font-size="14.00">rewards</text>
<text text-anchor="start" x="3437" y="-256.3" font-family="Times,serif" font-size="14.00">t : int</text>
<polyline fill="none" stroke="black" points="3429,-248.5 3700,-248.5 "/>
<text text-anchor="start" x="3437" y="-233.3" font-family="Times,serif" font-size="14.00">__init__()</text>
<text text-anchor="start" x="3437" y="-218.3" font-family="Times,serif" font-size="14.00">__str__()</text>
<text text-anchor="start" x="3437" y="-203.3" font-family="Times,serif" font-size="14.00">choice()</text>
<text text-anchor="start" x="3437" y="-188.3" font-family="Times,serif" font-size="14.00">getReward()</text>
<text text-anchor="start" x="3437" y="-173.3" font-family="Times,serif" font-size="14.00">startGame()</text>
</g>
<!-- 15 -->
<g id="node16" class="node"><title>15</title>
<polygon fill="none" stroke="black" points="3718,-165.5 3718,-369.5 3917,-369.5 3917,-165.5 3718,-165.5"/>
<text text-anchor="middle" x="3817.5" y="-354.3" font-family="Times,serif" font-size="14.00">Policies.EpsilonFirst.EpsilonFirst</text>
<polyline fill="none" stroke="black" points="3718,-346.5 3917,-346.5 "/>
<text text-anchor="start" x="3726" y="-331.3" font-family="Times,serif" font-size="14.00">epsilon : float</text>
<text text-anchor="start" x="3726" y="-316.3" font-family="Times,serif" font-size="14.00">horizon</text>
<text text-anchor="start" x="3726" y="-301.3" font-family="Times,serif" font-size="14.00">nbArms</text>
<text text-anchor="start" x="3726" y="-286.3" font-family="Times,serif" font-size="14.00">params : str</text>
<text text-anchor="start" x="3726" y="-271.3" font-family="Times,serif" font-size="14.00">rewards</text>
<text text-anchor="start" x="3726" y="-256.3" font-family="Times,serif" font-size="14.00">t : int</text>
<polyline fill="none" stroke="black" points="3718,-248.5 3917,-248.5 "/>
<text text-anchor="start" x="3726" y="-233.3" font-family="Times,serif" font-size="14.00">__init__()</text>
<text text-anchor="start" x="3726" y="-218.3" font-family="Times,serif" font-size="14.00">__str__()</text>
<text text-anchor="start" x="3726" y="-203.3" font-family="Times,serif" font-size="14.00">choice()</text>
<text text-anchor="start" x="3726" y="-188.3" font-family="Times,serif" font-size="14.00">getReward()</text>
<text text-anchor="start" x="3726" y="-173.3" font-family="Times,serif" font-size="14.00">startGame()</text>
</g>
<!-- 16 -->
<g id="node17" class="node"><title>16</title>
<polygon fill="none" stroke="black" points="3935,-180.5 3935,-354.5 4164,-354.5 4164,-180.5 3935,-180.5"/>
<text text-anchor="middle" x="4049.5" y="-339.3" font-family="Times,serif" font-size="14.00">Policies.EpsilonGreedy.EpsilonGreedy</text>
<polyline fill="none" stroke="black" points="3935,-331.5 4164,-331.5 "/>
<text text-anchor="start" x="3943" y="-316.3" font-family="Times,serif" font-size="14.00">epsilon : float</text>
<text text-anchor="start" x="3943" y="-301.3" font-family="Times,serif" font-size="14.00">nbArms</text>
<text text-anchor="start" x="3943" y="-286.3" font-family="Times,serif" font-size="14.00">params</text>
<text text-anchor="start" x="3943" y="-271.3" font-family="Times,serif" font-size="14.00">rewards</text>
<polyline fill="none" stroke="black" points="3935,-263.5 4164,-263.5 "/>
<text text-anchor="start" x="3943" y="-248.3" font-family="Times,serif" font-size="14.00">__init__()</text>
<text text-anchor="start" x="3943" y="-233.3" font-family="Times,serif" font-size="14.00">__str__()</text>
<text text-anchor="start" x="3943" y="-218.3" font-family="Times,serif" font-size="14.00">choice()</text>
<text text-anchor="start" x="3943" y="-203.3" font-family="Times,serif" font-size="14.00">getReward()</text>
<text text-anchor="start" x="3943" y="-188.3" font-family="Times,serif" font-size="14.00">startGame()</text>
</g>
<!-- 18 -->
<g id="node19" class="node"><title>18</title>
<polygon fill="none" stroke="black" points="2546.5,-165.5 2546.5,-369.5 2752.5,-369.5 2752.5,-165.5 2546.5,-165.5"/>
<text text-anchor="middle" x="2649.5" y="-354.3" font-family="Times,serif" font-size="14.00">Policies.KLempUCB.KLempUCB</text>
<polyline fill="none" stroke="black" points="2546.5,-346.5 2752.5,-346.5 "/>
<text text-anchor="start" x="2554.5" y="-331.3" font-family="Times,serif" font-size="14.00">c : int</text>
<text text-anchor="start" x="2554.5" y="-316.3" font-family="Times,serif" font-size="14.00">maxReward : float</text>
<text text-anchor="start" x="2554.5" y="-301.3" font-family="Times,serif" font-size="14.00">obs</text>
<text text-anchor="start" x="2554.5" y="-286.3" font-family="Times,serif" font-size="14.00">params</text>
<text text-anchor="start" x="2554.5" y="-271.3" font-family="Times,serif" font-size="14.00">pulls</text>
<text text-anchor="start" x="2554.5" y="-256.3" font-family="Times,serif" font-size="14.00">t : int</text>
<polyline fill="none" stroke="black" points="2546.5,-248.5 2752.5,-248.5 "/>
<text text-anchor="start" x="2554.5" y="-233.3" font-family="Times,serif" font-size="14.00">_KLucb()</text>
<text text-anchor="start" x="2554.5" y="-218.3" font-family="Times,serif" font-size="14.00">__init__()</text>
<text text-anchor="start" x="2554.5" y="-203.3" font-family="Times,serif" font-size="14.00">computeIndex()</text>
<text text-anchor="start" x="2554.5" y="-188.3" font-family="Times,serif" font-size="14.00">getReward()</text>
<text text-anchor="start" x="2554.5" y="-173.3" font-family="Times,serif" font-size="14.00">startGame()</text>
</g>
<!-- 18&#45;&gt;17 -->
<g id="edge6" class="edge"><title>18&#45;&gt;17</title>
<path fill="none" stroke="black" d="M2685.47,-369.548C2705.23,-420.518 2731.74,-482.498 2761.5,-535 2766.76,-544.272 2772.53,-553.655 2778.57,-562.933"/>
<polygon fill="none" stroke="black" points="2775.75,-565.012 2784.19,-571.418 2781.59,-561.148 2775.75,-565.012"/>
</g>
<!-- 19 -->
<g id="node20" class="node"><title>19</title>
<polygon fill="none" stroke="black" points="4182.5,-165.5 4182.5,-369.5 4342.5,-369.5 4342.5,-165.5 4182.5,-165.5"/>
<text text-anchor="middle" x="4262.5" y="-354.3" font-family="Times,serif" font-size="14.00">Policies.Softmax.Softmax</text>
<polyline fill="none" stroke="black" points="4182.5,-346.5 4342.5,-346.5 "/>
<text text-anchor="start" x="4190.5" y="-331.3" font-family="Times,serif" font-size="14.00">nbArms</text>
<text text-anchor="start" x="4190.5" y="-316.3" font-family="Times,serif" font-size="14.00">params</text>
<text text-anchor="start" x="4190.5" y="-301.3" font-family="Times,serif" font-size="14.00">pulls</text>
<text text-anchor="start" x="4190.5" y="-286.3" font-family="Times,serif" font-size="14.00">rewards</text>
<text text-anchor="start" x="4190.5" y="-271.3" font-family="Times,serif" font-size="14.00">t : int</text>
<text text-anchor="start" x="4190.5" y="-256.3" font-family="Times,serif" font-size="14.00">temperature : int</text>
<polyline fill="none" stroke="black" points="4182.5,-248.5 4342.5,-248.5 "/>
<text text-anchor="start" x="4190.5" y="-233.3" font-family="Times,serif" font-size="14.00">__init__()</text>
<text text-anchor="start" x="4190.5" y="-218.3" font-family="Times,serif" font-size="14.00">__str__()</text>
<text text-anchor="start" x="4190.5" y="-203.3" font-family="Times,serif" font-size="14.00">choice()</text>
<text text-anchor="start" x="4190.5" y="-188.3" font-family="Times,serif" font-size="14.00">getReward()</text>
<text text-anchor="start" x="4190.5" y="-173.3" font-family="Times,serif" font-size="14.00">startGame()</text>
</g>
<!-- 20 -->
<g id="node21" class="node"><title>20</title>
<polygon fill="none" stroke="black" points="4361,-188 4361,-347 4594,-347 4594,-188 4361,-188"/>
<text text-anchor="middle" x="4477.5" y="-331.8" font-family="Times,serif" font-size="14.00">Policies.TakeFixedArm.TakeFixedArm</text>
<polyline fill="none" stroke="black" points="4361,-324 4594,-324 "/>
<text text-anchor="start" x="4369" y="-308.8" font-family="Times,serif" font-size="14.00">armIndex</text>
<text text-anchor="start" x="4369" y="-293.8" font-family="Times,serif" font-size="14.00">nbArms</text>
<text text-anchor="start" x="4369" y="-278.8" font-family="Times,serif" font-size="14.00">params : str</text>
<polyline fill="none" stroke="black" points="4361,-271 4594,-271 "/>
<text text-anchor="start" x="4369" y="-255.8" font-family="Times,serif" font-size="14.00">__init__()</text>
<text text-anchor="start" x="4369" y="-240.8" font-family="Times,serif" font-size="14.00">__str__()</text>
<text text-anchor="start" x="4369" y="-225.8" font-family="Times,serif" font-size="14.00">choice()</text>
<text text-anchor="start" x="4369" y="-210.8" font-family="Times,serif" font-size="14.00">getReward()</text>
<text text-anchor="start" x="4369" y="-195.8" font-family="Times,serif" font-size="14.00">startGame()</text>
</g>
<!-- 21 -->
<g id="node22" class="node"><title>21</title>
<polygon fill="none" stroke="black" points="2770.5,-195.5 2770.5,-339.5 2954.5,-339.5 2954.5,-195.5 2770.5,-195.5"/>
<text text-anchor="middle" x="2862.5" y="-324.3" font-family="Times,serif" font-size="14.00">Policies.Thompson.Thompson</text>
<polyline fill="none" stroke="black" points="2770.5,-316.5 2954.5,-316.5 "/>
<text text-anchor="start" x="2778.5" y="-301.3" font-family="Times,serif" font-size="14.00">posterior</text>
<text text-anchor="start" x="2778.5" y="-286.3" font-family="Times,serif" font-size="14.00">t : int</text>
<polyline fill="none" stroke="black" points="2770.5,-278.5 2954.5,-278.5 "/>
<text text-anchor="start" x="2778.5" y="-263.3" font-family="Times,serif" font-size="14.00">__init__()</text>
<text text-anchor="start" x="2778.5" y="-248.3" font-family="Times,serif" font-size="14.00">__str__()</text>
<text text-anchor="start" x="2778.5" y="-233.3" font-family="Times,serif" font-size="14.00">computeIndex()</text>
<text text-anchor="start" x="2778.5" y="-218.3" font-family="Times,serif" font-size="14.00">getReward()</text>
<text text-anchor="start" x="2778.5" y="-203.3" font-family="Times,serif" font-size="14.00">startGame()</text>
</g>
<!-- 21&#45;&gt;17 -->
<g id="edge7" class="edge"><title>21&#45;&gt;17</title>
<path fill="none" stroke="black" d="M2862.5,-339.797C2862.5,-401.006 2862.5,-490.275 2862.5,-560.938"/>
<polygon fill="none" stroke="black" points="2859,-561.223 2862.5,-571.223 2866,-561.223 2859,-561.223"/>
</g>
<!-- 22 -->
<g id="node23" class="node"><title>22</title>
<polygon fill="none" stroke="black" points="4612.5,-173 4612.5,-362 4734.5,-362 4734.5,-173 4612.5,-173"/>
<text text-anchor="middle" x="4673.5" y="-346.8" font-family="Times,serif" font-size="14.00">Policies.UCB.UCB</text>
<polyline fill="none" stroke="black" points="4612.5,-339 4734.5,-339 "/>
<text text-anchor="start" x="4620.5" y="-323.8" font-family="Times,serif" font-size="14.00">nbArms</text>
<text text-anchor="start" x="4620.5" y="-308.8" font-family="Times,serif" font-size="14.00">params : str</text>
<text text-anchor="start" x="4620.5" y="-293.8" font-family="Times,serif" font-size="14.00">pulls</text>
<text text-anchor="start" x="4620.5" y="-278.8" font-family="Times,serif" font-size="14.00">rewards</text>
<text text-anchor="start" x="4620.5" y="-263.8" font-family="Times,serif" font-size="14.00">t : int</text>
<polyline fill="none" stroke="black" points="4612.5,-256 4734.5,-256 "/>
<text text-anchor="start" x="4620.5" y="-240.8" font-family="Times,serif" font-size="14.00">__init__()</text>
<text text-anchor="start" x="4620.5" y="-225.8" font-family="Times,serif" font-size="14.00">__str__()</text>
<text text-anchor="start" x="4620.5" y="-210.8" font-family="Times,serif" font-size="14.00">choice()</text>
<text text-anchor="start" x="4620.5" y="-195.8" font-family="Times,serif" font-size="14.00">getReward()</text>
<text text-anchor="start" x="4620.5" y="-180.8" font-family="Times,serif" font-size="14.00">startGame()</text>
</g>
<!-- 23 -->
<g id="node24" class="node"><title>23</title>
<polygon fill="none" stroke="black" points="2972.5,-158 2972.5,-377 3114.5,-377 3114.5,-158 2972.5,-158"/>
<text text-anchor="middle" x="3043.5" y="-361.8" font-family="Times,serif" font-size="14.00">Policies.UCBV.UCBV</text>
<polyline fill="none" stroke="black" points="2972.5,-354 3114.5,-354 "/>
<text text-anchor="start" x="2980.5" y="-338.8" font-family="Times,serif" font-size="14.00">amplitude : float</text>
<text text-anchor="start" x="2980.5" y="-323.8" font-family="Times,serif" font-size="14.00">lower : float</text>
<text text-anchor="start" x="2980.5" y="-308.8" font-family="Times,serif" font-size="14.00">params</text>
<text text-anchor="start" x="2980.5" y="-293.8" font-family="Times,serif" font-size="14.00">pulls</text>
<text text-anchor="start" x="2980.5" y="-278.8" font-family="Times,serif" font-size="14.00">rewards</text>
<text text-anchor="start" x="2980.5" y="-263.8" font-family="Times,serif" font-size="14.00">rewardsCorrected</text>
<text text-anchor="start" x="2980.5" y="-248.8" font-family="Times,serif" font-size="14.00">t : int</text>
<polyline fill="none" stroke="black" points="2972.5,-241 3114.5,-241 "/>
<text text-anchor="start" x="2980.5" y="-225.8" font-family="Times,serif" font-size="14.00">__init__()</text>
<text text-anchor="start" x="2980.5" y="-210.8" font-family="Times,serif" font-size="14.00">__str__()</text>
<text text-anchor="start" x="2980.5" y="-195.8" font-family="Times,serif" font-size="14.00">computeIndex()</text>
<text text-anchor="start" x="2980.5" y="-180.8" font-family="Times,serif" font-size="14.00">getReward()</text>
<text text-anchor="start" x="2980.5" y="-165.8" font-family="Times,serif" font-size="14.00">startGame()</text>
</g>
<!-- 23&#45;&gt;17 -->
<g id="edge8" class="edge"><title>23&#45;&gt;17</title>
<path fill="none" stroke="black" d="M3019.9,-377.06C3006.87,-426.713 2988.24,-485.393 2963.5,-535 2958.89,-544.24 2953.67,-553.513 2948.08,-562.639"/>
<polygon fill="none" stroke="black" points="2944.97,-561.008 2942.61,-571.338 2950.9,-564.73 2944.97,-561.008"/>
</g>
<!-- 24 -->
<g id="node25" class="node"><title>24</title>
<polygon fill="none" stroke="black" points="4753,-165.5 4753,-369.5 4934,-369.5 4934,-165.5 4753,-165.5"/>
<text text-anchor="middle" x="4843.5" y="-354.3" font-family="Times,serif" font-size="14.00">Policies.UCBalpha.UCBalpha</text>
<polyline fill="none" stroke="black" points="4753,-346.5 4934,-346.5 "/>
<text text-anchor="start" x="4761" y="-331.3" font-family="Times,serif" font-size="14.00">alpha : int</text>
<text text-anchor="start" x="4761" y="-316.3" font-family="Times,serif" font-size="14.00">nbArms</text>
<text text-anchor="start" x="4761" y="-301.3" font-family="Times,serif" font-size="14.00">params</text>
<text text-anchor="start" x="4761" y="-286.3" font-family="Times,serif" font-size="14.00">pulls</text>
<text text-anchor="start" x="4761" y="-271.3" font-family="Times,serif" font-size="14.00">rewards</text>
<text text-anchor="start" x="4761" y="-256.3" font-family="Times,serif" font-size="14.00">t : int</text>
<polyline fill="none" stroke="black" points="4753,-248.5 4934,-248.5 "/>
<text text-anchor="start" x="4761" y="-233.3" font-family="Times,serif" font-size="14.00">__init__()</text>
<text text-anchor="start" x="4761" y="-218.3" font-family="Times,serif" font-size="14.00">__str__()</text>
<text text-anchor="start" x="4761" y="-203.3" font-family="Times,serif" font-size="14.00">choice()</text>
<text text-anchor="start" x="4761" y="-188.3" font-family="Times,serif" font-size="14.00">getReward()</text>
<text text-anchor="start" x="4761" y="-173.3" font-family="Times,serif" font-size="14.00">startGame()</text>
</g>
<!-- 25 -->
<g id="node26" class="node"><title>25</title>
<polygon fill="none" stroke="black" points="4952,-195.5 4952,-339.5 5113,-339.5 5113,-195.5 4952,-195.5"/>
<text text-anchor="middle" x="5032.5" y="-324.3" font-family="Times,serif" font-size="14.00">Policies.Uniform.Uniform</text>
<polyline fill="none" stroke="black" points="4952,-316.5 5113,-316.5 "/>
<text text-anchor="start" x="4960" y="-301.3" font-family="Times,serif" font-size="14.00">nbArms</text>
<text text-anchor="start" x="4960" y="-286.3" font-family="Times,serif" font-size="14.00">params : str</text>
<polyline fill="none" stroke="black" points="4952,-278.5 5113,-278.5 "/>
<text text-anchor="start" x="4960" y="-263.3" font-family="Times,serif" font-size="14.00">__init__()</text>
<text text-anchor="start" x="4960" y="-248.3" font-family="Times,serif" font-size="14.00">__str__()</text>
<text text-anchor="start" x="4960" y="-233.3" font-family="Times,serif" font-size="14.00">choice()</text>
<text text-anchor="start" x="4960" y="-218.3" font-family="Times,serif" font-size="14.00">getReward()</text>
<text text-anchor="start" x="4960" y="-203.3" font-family="Times,serif" font-size="14.00">startGame()</text>
</g>
<!-- 26 -->
<g id="node27" class="node"><title>26</title>
<polygon fill="none" stroke="black" points="5131,-188 5131,-347 5388,-347 5388,-188 5131,-188"/>
<text text-anchor="middle" x="5259.5" y="-331.8" font-family="Times,serif" font-size="14.00">Policies.UniformOnSome.UniformOnSome</text>
<polyline fill="none" stroke="black" points="5131,-324 5388,-324 "/>
<text text-anchor="start" x="5139" y="-308.8" font-family="Times,serif" font-size="14.00">armIndexes : list, NoneType</text>
<text text-anchor="start" x="5139" y="-293.8" font-family="Times,serif" font-size="14.00">nbArms</text>
<text text-anchor="start" x="5139" y="-278.8" font-family="Times,serif" font-size="14.00">params</text>
<polyline fill="none" stroke="black" points="5131,-271 5388,-271 "/>
<text text-anchor="start" x="5139" y="-255.8" font-family="Times,serif" font-size="14.00">__init__()</text>
<text text-anchor="start" x="5139" y="-240.8" font-family="Times,serif" font-size="14.00">__str__()</text>
<text text-anchor="start" x="5139" y="-225.8" font-family="Times,serif" font-size="14.00">choice()</text>
<text text-anchor="start" x="5139" y="-210.8" font-family="Times,serif" font-size="14.00">getReward()</text>
<text text-anchor="start" x="5139" y="-195.8" font-family="Times,serif" font-size="14.00">startGame()</text>
</g>
<!-- 27 -->
<g id="node28" class="node"><title>27</title>
<polygon fill="none" stroke="black" points="3133,-143 3133,-392 3276,-392 3276,-143 3133,-143"/>
<text text-anchor="middle" x="3204.5" y="-376.8" font-family="Times,serif" font-size="14.00">Policies.klUCB.klUCB</text>
<polyline fill="none" stroke="black" points="3133,-369 3276,-369 "/>
<text text-anchor="start" x="3141" y="-353.8" font-family="Times,serif" font-size="14.00">amplitude : float</text>
<text text-anchor="start" x="3141" y="-338.8" font-family="Times,serif" font-size="14.00">c : float</text>
<text text-anchor="start" x="3141" y="-323.8" font-family="Times,serif" font-size="14.00">klucb</text>
<text text-anchor="start" x="3141" y="-308.8" font-family="Times,serif" font-size="14.00">lower : float</text>
<text text-anchor="start" x="3141" y="-293.8" font-family="Times,serif" font-size="14.00">params</text>
<text text-anchor="start" x="3141" y="-278.8" font-family="Times,serif" font-size="14.00">pulls</text>
<text text-anchor="start" x="3141" y="-263.8" font-family="Times,serif" font-size="14.00">rewards</text>
<text text-anchor="start" x="3141" y="-248.8" font-family="Times,serif" font-size="14.00">t : int</text>
<text text-anchor="start" x="3141" y="-233.8" font-family="Times,serif" font-size="14.00">tolerance : float</text>
<polyline fill="none" stroke="black" points="3133,-226 3276,-226 "/>
<text text-anchor="start" x="3141" y="-210.8" font-family="Times,serif" font-size="14.00">__init__()</text>
<text text-anchor="start" x="3141" y="-195.8" font-family="Times,serif" font-size="14.00">__str__()</text>
<text text-anchor="start" x="3141" y="-180.8" font-family="Times,serif" font-size="14.00">computeIndex()</text>
<text text-anchor="start" x="3141" y="-165.8" font-family="Times,serif" font-size="14.00">getReward()</text>
<text text-anchor="start" x="3141" y="-150.8" font-family="Times,serif" font-size="14.00">startGame()</text>
</g>
<!-- 27&#45;&gt;17 -->
<g id="edge9" class="edge"><title>27&#45;&gt;17</title>
<path fill="none" stroke="black" d="M3188.02,-392.018C3176.47,-440.766 3156.84,-494.644 3123.5,-535 3083.96,-582.863 3023.34,-616.228 2970.47,-638.094"/>
<polygon fill="none" stroke="black" points="2969,-634.915 2961.04,-641.909 2971.63,-641.404 2969,-634.915"/>
</g>
<!-- 28 -->
<g id="node29" class="node"><title>28</title>
<polygon fill="none" stroke="black" points="5406.5,-188 5406.5,-347 5618.5,-347 5618.5,-188 5406.5,-188"/>
<text text-anchor="middle" x="5512.5" y="-331.8" font-family="Times,serif" font-size="14.00">PoliciesMultiPlayers.Selfish.Selfish</text>
<polyline fill="none" stroke="black" points="5406.5,-324 5618.5,-324 "/>
<text text-anchor="start" x="5414.5" y="-308.8" font-family="Times,serif" font-size="14.00">nbPlayers</text>
<text text-anchor="start" x="5414.5" y="-293.8" font-family="Times,serif" font-size="14.00">params : str</text>
<text text-anchor="start" x="5414.5" y="-278.8" font-family="Times,serif" font-size="14.00">players</text>
<polyline fill="none" stroke="black" points="5406.5,-271 5618.5,-271 "/>
<text text-anchor="start" x="5414.5" y="-255.8" font-family="Times,serif" font-size="14.00">__init__()</text>
<text text-anchor="start" x="5414.5" y="-240.8" font-family="Times,serif" font-size="14.00">__str__()</text>
<text text-anchor="start" x="5414.5" y="-225.8" font-family="Times,serif" font-size="14.00">choice()</text>
<text text-anchor="start" x="5414.5" y="-210.8" font-family="Times,serif" font-size="14.00">getReward()</text>
<text text-anchor="start" x="5414.5" y="-195.8" font-family="Times,serif" font-size="14.00">startGame()</text>
</g>
</g>
</svg>
