<?xml version="1.0" encoding="UTF-8" standalone="no"?>
<!DOCTYPE svg PUBLIC "-//W3C//DTD SVG 1.1//EN"
 "http://www.w3.org/Graphics/SVG/1.1/DTD/svg11.dtd">
<!-- Generated by graphviz version 2.38.0 (20140413.2041)
 -->
<!-- Title: classes_AlgoBandits Pages: 1 -->
<svg width="5782pt" height="724pt"
 viewBox="0.00 0.00 5781.50 724.00" xmlns="http://www.w3.org/2000/svg" xmlns:xlink="http://www.w3.org/1999/xlink">
<g id="graph0" class="graph" transform="scale(1 1) rotate(0) translate(4 720)">
<title>classes_AlgoBandits</title>
<polygon fill="white" stroke="none" points="-4,4 -4,-720 5777.5,-720 5777.5,4 -4,4"/>
<!-- 0 -->
<g id="node1" class="node"><title>0</title>
<polygon fill="none" stroke="black" points="308.5,-548.5 308.5,-678.5 414.5,-678.5 414.5,-548.5 308.5,-548.5"/>
<text text-anchor="middle" x="361.5" y="-663.3" font-family="Times,serif" font-size="14.00">Arms.Arm.Arm</text>
<polyline fill="none" stroke="black" points="308.5,-655.5 414.5,-655.5 "/>
<polyline fill="none" stroke="black" points="308.5,-631.5 414.5,-631.5 "/>
<text text-anchor="start" x="316.5" y="-616.3" font-family="Times,serif" font-size="14.00">__init__()</text>
<text text-anchor="start" x="316.5" y="-601.3" font-family="Times,serif" font-size="14.00">__repr__()</text>
<text text-anchor="start" x="316.5" y="-586.3" font-family="Times,serif" font-size="14.00">__str__()</text>
<text text-anchor="start" x="316.5" y="-571.3" font-family="Times,serif" font-size="14.00">draw()</text>
<text text-anchor="start" x="316.5" y="-556.3" font-family="Times,serif" font-size="14.00">mean()</text>
</g>
<!-- 1 -->
<g id="node2" class="node"><title>1</title>
<polygon fill="none" stroke="black" points="0,-173 0,-302 157,-302 157,-173 0,-173"/>
<text text-anchor="middle" x="78.5" y="-286.8" font-family="Times,serif" font-size="14.00">Arms.Bernoulli.Bernoulli</text>
<polyline fill="none" stroke="black" points="0,-279 157,-279 "/>
<text text-anchor="start" x="8" y="-263.8" font-family="Times,serif" font-size="14.00">probability</text>
<polyline fill="none" stroke="black" points="0,-256 157,-256 "/>
<text text-anchor="start" x="8" y="-240.8" font-family="Times,serif" font-size="14.00">__init__()</text>
<text text-anchor="start" x="8" y="-225.8" font-family="Times,serif" font-size="14.00">__repr__()</text>
<text text-anchor="start" x="8" y="-210.8" font-family="Times,serif" font-size="14.00">__str__()</text>
<text text-anchor="start" x="8" y="-195.8" font-family="Times,serif" font-size="14.00">draw()</text>
<text text-anchor="start" x="8" y="-180.8" font-family="Times,serif" font-size="14.00">mean()</text>
</g>
<!-- 1&#45;&gt;0 -->
<g id="edge1" class="edge"><title>1&#45;&gt;0</title>
<path fill="none" stroke="black" d="M90.8693,-302.118C103.187,-352.895 126.085,-423.768 165.5,-475 200.994,-521.135 256.307,-557.941 299.134,-581.819"/>
<polygon fill="none" stroke="black" points="297.62,-584.981 308.072,-586.717 300.984,-578.842 297.62,-584.981"/>
</g>
<!-- 2 -->
<g id="node3" class="node"><title>2</title>
<polygon fill="none" stroke="black" points="175,-158 175,-317 360,-317 360,-158 175,-158"/>
<text text-anchor="middle" x="267.5" y="-301.8" font-family="Times,serif" font-size="14.00">Arms.Exponential.Exponential</text>
<polyline fill="none" stroke="black" points="175,-294 360,-294 "/>
<text text-anchor="start" x="183" y="-278.8" font-family="Times,serif" font-size="14.00">expectation</text>
<text text-anchor="start" x="183" y="-263.8" font-family="Times,serif" font-size="14.00">p</text>
<text text-anchor="start" x="183" y="-248.8" font-family="Times,serif" font-size="14.00">trunc : float</text>
<polyline fill="none" stroke="black" points="175,-241 360,-241 "/>
<text text-anchor="start" x="183" y="-225.8" font-family="Times,serif" font-size="14.00">__init__()</text>
<text text-anchor="start" x="183" y="-210.8" font-family="Times,serif" font-size="14.00">__repr__()</text>
<text text-anchor="start" x="183" y="-195.8" font-family="Times,serif" font-size="14.00">__str__()</text>
<text text-anchor="start" x="183" y="-180.8" font-family="Times,serif" font-size="14.00">draw()</text>
<text text-anchor="start" x="183" y="-165.8" font-family="Times,serif" font-size="14.00">mean()</text>
</g>
<!-- 2&#45;&gt;0 -->
<g id="edge2" class="edge"><title>2&#45;&gt;0</title>
<path fill="none" stroke="black" d="M287.32,-317.359C303.707,-382.558 326.81,-474.478 342.862,-538.346"/>
<polygon fill="none" stroke="black" points="339.544,-539.502 345.376,-548.347 346.333,-537.796 339.544,-539.502"/>
</g>
<!-- 3 -->
<g id="node4" class="node"><title>3</title>
<polygon fill="none" stroke="black" points="378.5,-158 378.5,-317 532.5,-317 532.5,-158 378.5,-158"/>
<text text-anchor="middle" x="455.5" y="-301.8" font-family="Times,serif" font-size="14.00">Arms.Gaussian.Gaussian</text>
<polyline fill="none" stroke="black" points="378.5,-294 532.5,-294 "/>
<text text-anchor="start" x="386.5" y="-278.8" font-family="Times,serif" font-size="14.00">expectation</text>
<text text-anchor="start" x="386.5" y="-263.8" font-family="Times,serif" font-size="14.00">mu</text>
<text text-anchor="start" x="386.5" y="-248.8" font-family="Times,serif" font-size="14.00">sigma</text>
<polyline fill="none" stroke="black" points="378.5,-241 532.5,-241 "/>
<text text-anchor="start" x="386.5" y="-225.8" font-family="Times,serif" font-size="14.00">__init__()</text>
<text text-anchor="start" x="386.5" y="-210.8" font-family="Times,serif" font-size="14.00">__repr__()</text>
<text text-anchor="start" x="386.5" y="-195.8" font-family="Times,serif" font-size="14.00">__str__()</text>
<text text-anchor="start" x="386.5" y="-180.8" font-family="Times,serif" font-size="14.00">draw()</text>
<text text-anchor="start" x="386.5" y="-165.8" font-family="Times,serif" font-size="14.00">mean()</text>
</g>
<!-- 3&#45;&gt;0 -->
<g id="edge3" class="edge"><title>3&#45;&gt;0</title>
<path fill="none" stroke="black" d="M435.68,-317.359C419.293,-382.558 396.19,-474.478 380.138,-538.346"/>
<polygon fill="none" stroke="black" points="376.667,-537.796 377.624,-548.347 383.456,-539.502 376.667,-537.796"/>
</g>
<!-- 4 -->
<g id="node5" class="node"><title>4</title>
<polygon fill="none" stroke="black" points="551,-158 551,-317 690,-317 690,-158 551,-158"/>
<text text-anchor="middle" x="620.5" y="-301.8" font-family="Times,serif" font-size="14.00">Arms.Poisson.Poisson</text>
<polyline fill="none" stroke="black" points="551,-294 690,-294 "/>
<text text-anchor="start" x="559" y="-278.8" font-family="Times,serif" font-size="14.00">expectation : int</text>
<text text-anchor="start" x="559" y="-263.8" font-family="Times,serif" font-size="14.00">p</text>
<text text-anchor="start" x="559" y="-248.8" font-family="Times,serif" font-size="14.00">trunc : float</text>
<polyline fill="none" stroke="black" points="551,-241 690,-241 "/>
<text text-anchor="start" x="559" y="-225.8" font-family="Times,serif" font-size="14.00">__init__()</text>
<text text-anchor="start" x="559" y="-210.8" font-family="Times,serif" font-size="14.00">__repr__()</text>
<text text-anchor="start" x="559" y="-195.8" font-family="Times,serif" font-size="14.00">__str__()</text>
<text text-anchor="start" x="559" y="-180.8" font-family="Times,serif" font-size="14.00">draw()</text>
<text text-anchor="start" x="559" y="-165.8" font-family="Times,serif" font-size="14.00">mean()</text>
</g>
<!-- 4&#45;&gt;0 -->
<g id="edge4" class="edge"><title>4&#45;&gt;0</title>
<path fill="none" stroke="black" d="M606.56,-317.108C595.064,-365.918 575.036,-428.067 541.5,-475 510.574,-518.28 462.074,-554.213 423.206,-578.478"/>
<polygon fill="none" stroke="black" points="421.257,-575.568 414.565,-583.782 424.919,-581.534 421.257,-575.568"/>
</g>
<!-- 5 -->
<g id="node6" class="node"><title>5</title>
<polygon fill="none" stroke="black" points="708.5,-53 708.5,-422 908.5,-422 908.5,-53 708.5,-53"/>
<text text-anchor="middle" x="808.5" y="-406.8" font-family="Times,serif" font-size="14.00">Environment.Evaluator.Evaluator</text>
<polyline fill="none" stroke="black" points="708.5,-399 908.5,-399 "/>
<text text-anchor="start" x="716.5" y="-383.8" font-family="Times,serif" font-size="14.00">averageOn : float</text>
<text text-anchor="start" x="716.5" y="-368.8" font-family="Times,serif" font-size="14.00">bestArmPulls : dict</text>
<text text-anchor="start" x="716.5" y="-353.8" font-family="Times,serif" font-size="14.00">cfg</text>
<text text-anchor="start" x="716.5" y="-338.8" font-family="Times,serif" font-size="14.00">envs : list</text>
<text text-anchor="start" x="716.5" y="-323.8" font-family="Times,serif" font-size="14.00">finalRanksOnAverage : bool</text>
<text text-anchor="start" x="716.5" y="-308.8" font-family="Times,serif" font-size="14.00">policies : list</text>
<text text-anchor="start" x="716.5" y="-293.8" font-family="Times,serif" font-size="14.00">pulls : dict</text>
<text text-anchor="start" x="716.5" y="-278.8" font-family="Times,serif" font-size="14.00">rewards</text>
<text text-anchor="start" x="716.5" y="-263.8" font-family="Times,serif" font-size="14.00">useJoblib</text>
<text text-anchor="start" x="716.5" y="-248.8" font-family="Times,serif" font-size="14.00">useJoblibForPolicies : bool</text>
<polyline fill="none" stroke="black" points="708.5,-241 908.5,-241 "/>
<text text-anchor="start" x="716.5" y="-225.8" font-family="Times,serif" font-size="14.00">__initEnvironments__()</text>
<text text-anchor="start" x="716.5" y="-210.8" font-family="Times,serif" font-size="14.00">__initPolicies__()</text>
<text text-anchor="start" x="716.5" y="-195.8" font-family="Times,serif" font-size="14.00">__init__()</text>
<text text-anchor="start" x="716.5" y="-180.8" font-family="Times,serif" font-size="14.00">getPulls()</text>
<text text-anchor="start" x="716.5" y="-165.8" font-family="Times,serif" font-size="14.00">getRegret()</text>
<text text-anchor="start" x="716.5" y="-150.8" font-family="Times,serif" font-size="14.00">getReward()</text>
<text text-anchor="start" x="716.5" y="-135.8" font-family="Times,serif" font-size="14.00">getbestArmPulls()</text>
<text text-anchor="start" x="716.5" y="-120.8" font-family="Times,serif" font-size="14.00">giveFinalRanking()</text>
<text text-anchor="start" x="716.5" y="-105.8" font-family="Times,serif" font-size="14.00">plotBestArmPulls()</text>
<text text-anchor="start" x="716.5" y="-90.8" font-family="Times,serif" font-size="14.00">plotRewards()</text>
<text text-anchor="start" x="716.5" y="-75.8" font-family="Times,serif" font-size="14.00">start_all_env()</text>
<text text-anchor="start" x="716.5" y="-60.8" font-family="Times,serif" font-size="14.00">start_one_env()</text>
</g>
<!-- 6 -->
<g id="node7" class="node"><title>6</title>
<polygon fill="none" stroke="black" points="927,-0.5 927,-474.5 1268,-474.5 1268,-0.5 927,-0.5"/>
<text text-anchor="middle" x="1097.5" y="-459.3" font-family="Times,serif" font-size="14.00">Environment.EvaluatorMultiPlayers.EvaluatorMultiPlayers</text>
<polyline fill="none" stroke="black" points="927,-451.5 1268,-451.5 "/>
<text text-anchor="start" x="935" y="-436.3" font-family="Times,serif" font-size="14.00">averageOn</text>
<text text-anchor="start" x="935" y="-421.3" font-family="Times,serif" font-size="14.00">bestArmPulls : dict</text>
<text text-anchor="start" x="935" y="-406.3" font-family="Times,serif" font-size="14.00">cfg</text>
<text text-anchor="start" x="935" y="-391.3" font-family="Times,serif" font-size="14.00">collisionModel</text>
<text text-anchor="start" x="935" y="-376.3" font-family="Times,serif" font-size="14.00">collisions : dict</text>
<text text-anchor="start" x="935" y="-361.3" font-family="Times,serif" font-size="14.00">envs : list</text>
<text text-anchor="start" x="935" y="-346.3" font-family="Times,serif" font-size="14.00">finalRanksOnAverage</text>
<text text-anchor="start" x="935" y="-331.3" font-family="Times,serif" font-size="14.00">horizon</text>
<text text-anchor="start" x="935" y="-316.3" font-family="Times,serif" font-size="14.00">nbPlayers</text>
<text text-anchor="start" x="935" y="-301.3" font-family="Times,serif" font-size="14.00">players : list</text>
<text text-anchor="start" x="935" y="-286.3" font-family="Times,serif" font-size="14.00">pulls : dict</text>
<text text-anchor="start" x="935" y="-271.3" font-family="Times,serif" font-size="14.00">repetitions</text>
<text text-anchor="start" x="935" y="-256.3" font-family="Times,serif" font-size="14.00">rewards : dict</text>
<text text-anchor="start" x="935" y="-241.3" font-family="Times,serif" font-size="14.00">useJoblib</text>
<polyline fill="none" stroke="black" points="927,-233.5 1268,-233.5 "/>
<text text-anchor="start" x="935" y="-218.3" font-family="Times,serif" font-size="14.00">__initEnvironments__()</text>
<text text-anchor="start" x="935" y="-203.3" font-family="Times,serif" font-size="14.00">__initPlayers__()</text>
<text text-anchor="start" x="935" y="-188.3" font-family="Times,serif" font-size="14.00">__init__()</text>
<text text-anchor="start" x="935" y="-173.3" font-family="Times,serif" font-size="14.00">getFrequencyCollisions()</text>
<text text-anchor="start" x="935" y="-158.3" font-family="Times,serif" font-size="14.00">getPulls()</text>
<text text-anchor="start" x="935" y="-143.3" font-family="Times,serif" font-size="14.00">getRegret()</text>
<text text-anchor="start" x="935" y="-128.3" font-family="Times,serif" font-size="14.00">getReward()</text>
<text text-anchor="start" x="935" y="-113.3" font-family="Times,serif" font-size="14.00">getbestArmPulls()</text>
<text text-anchor="start" x="935" y="-98.3" font-family="Times,serif" font-size="14.00">giveFinalRanking()</text>
<text text-anchor="start" x="935" y="-83.3" font-family="Times,serif" font-size="14.00">plotBestArmPulls()</text>
<text text-anchor="start" x="935" y="-68.3" font-family="Times,serif" font-size="14.00">plotFrequencyCollisions()</text>
<text text-anchor="start" x="935" y="-53.3" font-family="Times,serif" font-size="14.00">plotRewards()</text>
<text text-anchor="start" x="935" y="-38.3" font-family="Times,serif" font-size="14.00">plotRewardsCentralized()</text>
<text text-anchor="start" x="935" y="-23.3" font-family="Times,serif" font-size="14.00">start_all_env()</text>
<text text-anchor="start" x="935" y="-8.3" font-family="Times,serif" font-size="14.00">start_one_env()</text>
</g>
<!-- 7 -->
<g id="node8" class="node"><title>7</title>
<polygon fill="none" stroke="black" points="1286.5,-180.5 1286.5,-294.5 1444.5,-294.5 1444.5,-180.5 1286.5,-180.5"/>
<text text-anchor="middle" x="1365.5" y="-279.3" font-family="Times,serif" font-size="14.00">Environment.MAB.MAB</text>
<polyline fill="none" stroke="black" points="1286.5,-271.5 1444.5,-271.5 "/>
<text text-anchor="start" x="1294.5" y="-256.3" font-family="Times,serif" font-size="14.00">arms</text>
<text text-anchor="start" x="1294.5" y="-241.3" font-family="Times,serif" font-size="14.00">maxArm</text>
<text text-anchor="start" x="1294.5" y="-226.3" font-family="Times,serif" font-size="14.00">nbArms</text>
<polyline fill="none" stroke="black" points="1286.5,-218.5 1444.5,-218.5 "/>
<text text-anchor="start" x="1294.5" y="-203.3" font-family="Times,serif" font-size="14.00">__init__()</text>
<text text-anchor="start" x="1294.5" y="-188.3" font-family="Times,serif" font-size="14.00">__repr__()</text>
</g>
<!-- 8 -->
<g id="node9" class="node"><title>8</title>
<polygon fill="none" stroke="black" points="1462.5,-180.5 1462.5,-294.5 1626.5,-294.5 1626.5,-180.5 1462.5,-180.5"/>
<text text-anchor="middle" x="1544.5" y="-279.3" font-family="Times,serif" font-size="14.00">Environment.Result.Result</text>
<polyline fill="none" stroke="black" points="1462.5,-271.5 1626.5,-271.5 "/>
<text text-anchor="start" x="1470.5" y="-256.3" font-family="Times,serif" font-size="14.00">choices</text>
<text text-anchor="start" x="1470.5" y="-241.3" font-family="Times,serif" font-size="14.00">pulls</text>
<text text-anchor="start" x="1470.5" y="-226.3" font-family="Times,serif" font-size="14.00">rewards</text>
<polyline fill="none" stroke="black" points="1462.5,-218.5 1626.5,-218.5 "/>
<text text-anchor="start" x="1470.5" y="-203.3" font-family="Times,serif" font-size="14.00">__init__()</text>
<text text-anchor="start" x="1470.5" y="-188.3" font-family="Times,serif" font-size="14.00">store()</text>
</g>
<!-- 9 -->
<g id="node10" class="node"><title>9</title>
<polygon fill="none" stroke="black" points="1645,-173 1645,-302 1950,-302 1950,-173 1645,-173"/>
<text text-anchor="middle" x="1797.5" y="-286.8" font-family="Times,serif" font-size="14.00">Environment.ResultMultiPlayers.ResultMultiPlayers</text>
<polyline fill="none" stroke="black" points="1645,-279 1950,-279 "/>
<text text-anchor="start" x="1653" y="-263.8" font-family="Times,serif" font-size="14.00">choices</text>
<text text-anchor="start" x="1653" y="-248.8" font-family="Times,serif" font-size="14.00">collisions</text>
<text text-anchor="start" x="1653" y="-233.8" font-family="Times,serif" font-size="14.00">pulls</text>
<text text-anchor="start" x="1653" y="-218.8" font-family="Times,serif" font-size="14.00">rewards</text>
<polyline fill="none" stroke="black" points="1645,-211 1950,-211 "/>
<text text-anchor="start" x="1653" y="-195.8" font-family="Times,serif" font-size="14.00">__init__()</text>
<text text-anchor="start" x="1653" y="-180.8" font-family="Times,serif" font-size="14.00">store()</text>
</g>
<!-- 10 -->
<g id="node11" class="node"><title>10</title>
<polygon fill="none" stroke="black" points="1968,-113 1968,-362 2145,-362 2145,-113 1968,-113"/>
<text text-anchor="middle" x="2056.5" y="-346.8" font-family="Times,serif" font-size="14.00">Policies.AdBandits.AdBandit</text>
<polyline fill="none" stroke="black" points="1968,-339 2145,-339 "/>
<text text-anchor="start" x="1976" y="-323.8" font-family="Times,serif" font-size="14.00">alpha</text>
<text text-anchor="start" x="1976" y="-308.8" font-family="Times,serif" font-size="14.00">horizon</text>
<text text-anchor="start" x="1976" y="-293.8" font-family="Times,serif" font-size="14.00">nbArms</text>
<text text-anchor="start" x="1976" y="-278.8" font-family="Times,serif" font-size="14.00">params</text>
<text text-anchor="start" x="1976" y="-263.8" font-family="Times,serif" font-size="14.00">posterior : dict</text>
<text text-anchor="start" x="1976" y="-248.8" font-family="Times,serif" font-size="14.00">pulls</text>
<text text-anchor="start" x="1976" y="-233.8" font-family="Times,serif" font-size="14.00">rewards</text>
<text text-anchor="start" x="1976" y="-218.8" font-family="Times,serif" font-size="14.00">t : int</text>
<polyline fill="none" stroke="black" points="1968,-211 2145,-211 "/>
<text text-anchor="start" x="1976" y="-195.8" font-family="Times,serif" font-size="14.00">__init__()</text>
<text text-anchor="start" x="1976" y="-180.8" font-family="Times,serif" font-size="14.00">__str__()</text>
<text text-anchor="start" x="1976" y="-165.8" font-family="Times,serif" font-size="14.00">choice()</text>
<text text-anchor="start" x="1976" y="-150.8" font-family="Times,serif" font-size="14.00">computeIndex()</text>
<text text-anchor="start" x="1976" y="-135.8" font-family="Times,serif" font-size="14.00">getReward()</text>
<text text-anchor="start" x="1976" y="-120.8" font-family="Times,serif" font-size="14.00">startGame()</text>
</g>
<!-- 11 -->
<g id="node12" class="node"><title>11</title>
<polygon fill="none" stroke="black" points="2163,-105.5 2163,-369.5 2322,-369.5 2322,-105.5 2163,-105.5"/>
<text text-anchor="middle" x="2242.5" y="-354.3" font-family="Times,serif" font-size="14.00">Policies.Aggr.Aggr</text>
<polyline fill="none" stroke="black" points="2163,-346.5 2322,-346.5 "/>
<text text-anchor="start" x="2171" y="-331.3" font-family="Times,serif" font-size="14.00">children : list</text>
<text text-anchor="start" x="2171" y="-316.3" font-family="Times,serif" font-size="14.00">choices</text>
<text text-anchor="start" x="2171" y="-301.3" font-family="Times,serif" font-size="14.00">decreaseRate : NoneType</text>
<text text-anchor="start" x="2171" y="-286.3" font-family="Times,serif" font-size="14.00">learningRate</text>
<text text-anchor="start" x="2171" y="-271.3" font-family="Times,serif" font-size="14.00">nbArms</text>
<text text-anchor="start" x="2171" y="-256.3" font-family="Times,serif" font-size="14.00">nbChildren</text>
<text text-anchor="start" x="2171" y="-241.3" font-family="Times,serif" font-size="14.00">params</text>
<text text-anchor="start" x="2171" y="-226.3" font-family="Times,serif" font-size="14.00">t : int</text>
<text text-anchor="start" x="2171" y="-211.3" font-family="Times,serif" font-size="14.00">trusts : str</text>
<text text-anchor="start" x="2171" y="-196.3" font-family="Times,serif" font-size="14.00">update_all_children : bool</text>
<polyline fill="none" stroke="black" points="2163,-188.5 2322,-188.5 "/>
<text text-anchor="start" x="2171" y="-173.3" font-family="Times,serif" font-size="14.00">__init__()</text>
<text text-anchor="start" x="2171" y="-158.3" font-family="Times,serif" font-size="14.00">__str__()</text>
<text text-anchor="start" x="2171" y="-143.3" font-family="Times,serif" font-size="14.00">choice()</text>
<text text-anchor="start" x="2171" y="-128.3" font-family="Times,serif" font-size="14.00">getReward()</text>
<text text-anchor="start" x="2171" y="-113.3" font-family="Times,serif" font-size="14.00">startGame()</text>
</g>
<!-- 12 -->
<g id="node13" class="node"><title>12</title>
<polygon fill="none" stroke="black" points="2340.5,-158 2340.5,-317 2528.5,-317 2528.5,-158 2340.5,-158"/>
<text text-anchor="middle" x="2434.5" y="-301.8" font-family="Times,serif" font-size="14.00">Policies.BayesUCB.BayesUCB</text>
<polyline fill="none" stroke="black" points="2340.5,-294 2528.5,-294 "/>
<text text-anchor="start" x="2348.5" y="-278.8" font-family="Times,serif" font-size="14.00">params</text>
<text text-anchor="start" x="2348.5" y="-263.8" font-family="Times,serif" font-size="14.00">posterior</text>
<text text-anchor="start" x="2348.5" y="-248.8" font-family="Times,serif" font-size="14.00">t : int</text>
<polyline fill="none" stroke="black" points="2340.5,-241 2528.5,-241 "/>
<text text-anchor="start" x="2348.5" y="-225.8" font-family="Times,serif" font-size="14.00">__init__()</text>
<text text-anchor="start" x="2348.5" y="-210.8" font-family="Times,serif" font-size="14.00">__str__()</text>
<text text-anchor="start" x="2348.5" y="-195.8" font-family="Times,serif" font-size="14.00">computeIndex()</text>
<text text-anchor="start" x="2348.5" y="-180.8" font-family="Times,serif" font-size="14.00">getReward()</text>
<text text-anchor="start" x="2348.5" y="-165.8" font-family="Times,serif" font-size="14.00">startGame()</text>
</g>
<!-- 18 -->
<g id="node19" class="node"><title>18</title>
<polygon fill="none" stroke="black" points="2764,-511.5 2764,-715.5 2961,-715.5 2961,-511.5 2764,-511.5"/>
<text text-anchor="middle" x="2862.5" y="-700.3" font-family="Times,serif" font-size="14.00">Policies.IndexPolicy.IndexPolicy</text>
<polyline fill="none" stroke="black" points="2764,-692.5 2961,-692.5 "/>
<text text-anchor="start" x="2772" y="-677.3" font-family="Times,serif" font-size="14.00">_index</text>
<text text-anchor="start" x="2772" y="-662.3" font-family="Times,serif" font-size="14.00">nbArms</text>
<text text-anchor="start" x="2772" y="-647.3" font-family="Times,serif" font-size="14.00">params : str</text>
<text text-anchor="start" x="2772" y="-632.3" font-family="Times,serif" font-size="14.00">pulls</text>
<text text-anchor="start" x="2772" y="-617.3" font-family="Times,serif" font-size="14.00">rewards</text>
<text text-anchor="start" x="2772" y="-602.3" font-family="Times,serif" font-size="14.00">t : int</text>
<polyline fill="none" stroke="black" points="2764,-594.5 2961,-594.5 "/>
<text text-anchor="start" x="2772" y="-579.3" font-family="Times,serif" font-size="14.00">__init__()</text>
<text text-anchor="start" x="2772" y="-564.3" font-family="Times,serif" font-size="14.00">__str__()</text>
<text text-anchor="start" x="2772" y="-549.3" font-family="Times,serif" font-size="14.00">choice()</text>
<text text-anchor="start" x="2772" y="-534.3" font-family="Times,serif" font-size="14.00">getReward()</text>
<text text-anchor="start" x="2772" y="-519.3" font-family="Times,serif" font-size="14.00">startGame()</text>
</g>
<!-- 12&#45;&gt;18 -->
<g id="edge5" class="edge"><title>12&#45;&gt;18</title>
<path fill="none" stroke="black" d="M2452.56,-317.16C2467.75,-367.855 2494.13,-432.081 2537.5,-475 2596.66,-533.546 2684.57,-568.678 2754.04,-588.757"/>
<polygon fill="none" stroke="black" points="2753.14,-592.14 2763.72,-591.492 2755.04,-585.404 2753.14,-592.14"/>
</g>
<!-- 13 -->
<g id="node14" class="node"><title>13</title>
<polygon fill="none" stroke="black" points="3294.5,-135.5 3294.5,-339.5 3410.5,-339.5 3410.5,-135.5 3294.5,-135.5"/>
<text text-anchor="middle" x="3352.5" y="-324.3" font-family="Times,serif" font-size="14.00">Policies.Beta.Beta</text>
<polyline fill="none" stroke="black" points="3294.5,-316.5 3410.5,-316.5 "/>
<text text-anchor="start" x="3302.5" y="-301.3" font-family="Times,serif" font-size="14.00">N : list</text>
<text text-anchor="start" x="3302.5" y="-286.3" font-family="Times,serif" font-size="14.00">a : int</text>
<text text-anchor="start" x="3302.5" y="-271.3" font-family="Times,serif" font-size="14.00">b : int</text>
<polyline fill="none" stroke="black" points="3294.5,-263.5 3410.5,-263.5 "/>
<text text-anchor="start" x="3302.5" y="-248.3" font-family="Times,serif" font-size="14.00">__init__()</text>
<text text-anchor="start" x="3302.5" y="-233.3" font-family="Times,serif" font-size="14.00">__repr__()</text>
<text text-anchor="start" x="3302.5" y="-218.3" font-family="Times,serif" font-size="14.00">forget()</text>
<text text-anchor="start" x="3302.5" y="-203.3" font-family="Times,serif" font-size="14.00">mean()</text>
<text text-anchor="start" x="3302.5" y="-188.3" font-family="Times,serif" font-size="14.00">quantile()</text>
<text text-anchor="start" x="3302.5" y="-173.3" font-family="Times,serif" font-size="14.00">reset()</text>
<text text-anchor="start" x="3302.5" y="-158.3" font-family="Times,serif" font-size="14.00">sample()</text>
<text text-anchor="start" x="3302.5" y="-143.3" font-family="Times,serif" font-size="14.00">update()</text>
</g>
<!-- 14 -->
<g id="node15" class="node"><title>14</title>
<polygon fill="none" stroke="black" points="3428.5,-165.5 3428.5,-309.5 3586.5,-309.5 3586.5,-165.5 3428.5,-165.5"/>
<text text-anchor="middle" x="3507.5" y="-294.3" font-family="Times,serif" font-size="14.00">Policies.Dummy.Dummy</text>
<polyline fill="none" stroke="black" points="3428.5,-286.5 3586.5,-286.5 "/>
<text text-anchor="start" x="3436.5" y="-271.3" font-family="Times,serif" font-size="14.00">nbArms</text>
<text text-anchor="start" x="3436.5" y="-256.3" font-family="Times,serif" font-size="14.00">params : str</text>
<polyline fill="none" stroke="black" points="3428.5,-248.5 3586.5,-248.5 "/>
<text text-anchor="start" x="3436.5" y="-233.3" font-family="Times,serif" font-size="14.00">__init__()</text>
<text text-anchor="start" x="3436.5" y="-218.3" font-family="Times,serif" font-size="14.00">__str__()</text>
<text text-anchor="start" x="3436.5" y="-203.3" font-family="Times,serif" font-size="14.00">choice()</text>
<text text-anchor="start" x="3436.5" y="-188.3" font-family="Times,serif" font-size="14.00">getReward()</text>
<text text-anchor="start" x="3436.5" y="-173.3" font-family="Times,serif" font-size="14.00">startGame()</text>
</g>
<!-- 15 -->
<g id="node16" class="node"><title>15</title>
<polygon fill="none" stroke="black" points="3605,-135.5 3605,-339.5 3876,-339.5 3876,-135.5 3605,-135.5"/>
<text text-anchor="middle" x="3740.5" y="-324.3" font-family="Times,serif" font-size="14.00">Policies.EpsilonDecreasing.EpsilonDecreasing</text>
<polyline fill="none" stroke="black" points="3605,-316.5 3876,-316.5 "/>
<text text-anchor="start" x="3613" y="-301.3" font-family="Times,serif" font-size="14.00">decreasingRate : float</text>
<text text-anchor="start" x="3613" y="-286.3" font-family="Times,serif" font-size="14.00">epsilon : float</text>
<text text-anchor="start" x="3613" y="-271.3" font-family="Times,serif" font-size="14.00">nbArms</text>
<text text-anchor="start" x="3613" y="-256.3" font-family="Times,serif" font-size="14.00">params : str</text>
<text text-anchor="start" x="3613" y="-241.3" font-family="Times,serif" font-size="14.00">rewards</text>
<text text-anchor="start" x="3613" y="-226.3" font-family="Times,serif" font-size="14.00">t : int</text>
<polyline fill="none" stroke="black" points="3605,-218.5 3876,-218.5 "/>
<text text-anchor="start" x="3613" y="-203.3" font-family="Times,serif" font-size="14.00">__init__()</text>
<text text-anchor="start" x="3613" y="-188.3" font-family="Times,serif" font-size="14.00">__str__()</text>
<text text-anchor="start" x="3613" y="-173.3" font-family="Times,serif" font-size="14.00">choice()</text>
<text text-anchor="start" x="3613" y="-158.3" font-family="Times,serif" font-size="14.00">getReward()</text>
<text text-anchor="start" x="3613" y="-143.3" font-family="Times,serif" font-size="14.00">startGame()</text>
</g>
<!-- 16 -->
<g id="node17" class="node"><title>16</title>
<polygon fill="none" stroke="black" points="3894,-135.5 3894,-339.5 4093,-339.5 4093,-135.5 3894,-135.5"/>
<text text-anchor="middle" x="3993.5" y="-324.3" font-family="Times,serif" font-size="14.00">Policies.EpsilonFirst.EpsilonFirst</text>
<polyline fill="none" stroke="black" points="3894,-316.5 4093,-316.5 "/>
<text text-anchor="start" x="3902" y="-301.3" font-family="Times,serif" font-size="14.00">epsilon : float</text>
<text text-anchor="start" x="3902" y="-286.3" font-family="Times,serif" font-size="14.00">horizon</text>
<text text-anchor="start" x="3902" y="-271.3" font-family="Times,serif" font-size="14.00">nbArms</text>
<text text-anchor="start" x="3902" y="-256.3" font-family="Times,serif" font-size="14.00">params : str</text>
<text text-anchor="start" x="3902" y="-241.3" font-family="Times,serif" font-size="14.00">rewards</text>
<text text-anchor="start" x="3902" y="-226.3" font-family="Times,serif" font-size="14.00">t : int</text>
<polyline fill="none" stroke="black" points="3894,-218.5 4093,-218.5 "/>
<text text-anchor="start" x="3902" y="-203.3" font-family="Times,serif" font-size="14.00">__init__()</text>
<text text-anchor="start" x="3902" y="-188.3" font-family="Times,serif" font-size="14.00">__str__()</text>
<text text-anchor="start" x="3902" y="-173.3" font-family="Times,serif" font-size="14.00">choice()</text>
<text text-anchor="start" x="3902" y="-158.3" font-family="Times,serif" font-size="14.00">getReward()</text>
<text text-anchor="start" x="3902" y="-143.3" font-family="Times,serif" font-size="14.00">startGame()</text>
</g>
<!-- 17 -->
<g id="node18" class="node"><title>17</title>
<polygon fill="none" stroke="black" points="4111,-150.5 4111,-324.5 4340,-324.5 4340,-150.5 4111,-150.5"/>
<text text-anchor="middle" x="4225.5" y="-309.3" font-family="Times,serif" font-size="14.00">Policies.EpsilonGreedy.EpsilonGreedy</text>
<polyline fill="none" stroke="black" points="4111,-301.5 4340,-301.5 "/>
<text text-anchor="start" x="4119" y="-286.3" font-family="Times,serif" font-size="14.00">epsilon : float</text>
<text text-anchor="start" x="4119" y="-271.3" font-family="Times,serif" font-size="14.00">nbArms</text>
<text text-anchor="start" x="4119" y="-256.3" font-family="Times,serif" font-size="14.00">params</text>
<text text-anchor="start" x="4119" y="-241.3" font-family="Times,serif" font-size="14.00">rewards</text>
<polyline fill="none" stroke="black" points="4111,-233.5 4340,-233.5 "/>
<text text-anchor="start" x="4119" y="-218.3" font-family="Times,serif" font-size="14.00">__init__()</text>
<text text-anchor="start" x="4119" y="-203.3" font-family="Times,serif" font-size="14.00">__str__()</text>
<text text-anchor="start" x="4119" y="-188.3" font-family="Times,serif" font-size="14.00">choice()</text>
<text text-anchor="start" x="4119" y="-173.3" font-family="Times,serif" font-size="14.00">getReward()</text>
<text text-anchor="start" x="4119" y="-158.3" font-family="Times,serif" font-size="14.00">startGame()</text>
</g>
<!-- 19 -->
<g id="node20" class="node"><title>19</title>
<polygon fill="none" stroke="black" points="2546.5,-135.5 2546.5,-339.5 2752.5,-339.5 2752.5,-135.5 2546.5,-135.5"/>
<text text-anchor="middle" x="2649.5" y="-324.3" font-family="Times,serif" font-size="14.00">Policies.KLempUCB.KLempUCB</text>
<polyline fill="none" stroke="black" points="2546.5,-316.5 2752.5,-316.5 "/>
<text text-anchor="start" x="2554.5" y="-301.3" font-family="Times,serif" font-size="14.00">c : int</text>
<text text-anchor="start" x="2554.5" y="-286.3" font-family="Times,serif" font-size="14.00">maxReward : float</text>
<text text-anchor="start" x="2554.5" y="-271.3" font-family="Times,serif" font-size="14.00">obs</text>
<text text-anchor="start" x="2554.5" y="-256.3" font-family="Times,serif" font-size="14.00">params</text>
<text text-anchor="start" x="2554.5" y="-241.3" font-family="Times,serif" font-size="14.00">pulls</text>
<text text-anchor="start" x="2554.5" y="-226.3" font-family="Times,serif" font-size="14.00">t : int</text>
<polyline fill="none" stroke="black" points="2546.5,-218.5 2752.5,-218.5 "/>
<text text-anchor="start" x="2554.5" y="-203.3" font-family="Times,serif" font-size="14.00">_KLucb()</text>
<text text-anchor="start" x="2554.5" y="-188.3" font-family="Times,serif" font-size="14.00">__init__()</text>
<text text-anchor="start" x="2554.5" y="-173.3" font-family="Times,serif" font-size="14.00">computeIndex()</text>
<text text-anchor="start" x="2554.5" y="-158.3" font-family="Times,serif" font-size="14.00">getReward()</text>
<text text-anchor="start" x="2554.5" y="-143.3" font-family="Times,serif" font-size="14.00">startGame()</text>
</g>
<!-- 19&#45;&gt;18 -->
<g id="edge6" class="edge"><title>19&#45;&gt;18</title>
<path fill="none" stroke="black" d="M2692.25,-339.652C2711.62,-382.383 2735.9,-432.084 2761.5,-475 2767.02,-484.251 2773.01,-493.648 2779.22,-502.963"/>
<polygon fill="none" stroke="black" points="2776.49,-505.164 2784.99,-511.489 2782.28,-501.244 2776.49,-505.164"/>
</g>
<!-- 20 -->
<g id="node21" class="node"><title>20</title>
<polygon fill="none" stroke="black" points="4358.5,-135.5 4358.5,-339.5 4518.5,-339.5 4518.5,-135.5 4358.5,-135.5"/>
<text text-anchor="middle" x="4438.5" y="-324.3" font-family="Times,serif" font-size="14.00">Policies.Softmax.Softmax</text>
<polyline fill="none" stroke="black" points="4358.5,-316.5 4518.5,-316.5 "/>
<text text-anchor="start" x="4366.5" y="-301.3" font-family="Times,serif" font-size="14.00">nbArms</text>
<text text-anchor="start" x="4366.5" y="-286.3" font-family="Times,serif" font-size="14.00">params</text>
<text text-anchor="start" x="4366.5" y="-271.3" font-family="Times,serif" font-size="14.00">pulls</text>
<text text-anchor="start" x="4366.5" y="-256.3" font-family="Times,serif" font-size="14.00">rewards</text>
<text text-anchor="start" x="4366.5" y="-241.3" font-family="Times,serif" font-size="14.00">t : int</text>
<text text-anchor="start" x="4366.5" y="-226.3" font-family="Times,serif" font-size="14.00">temperature : int</text>
<polyline fill="none" stroke="black" points="4358.5,-218.5 4518.5,-218.5 "/>
<text text-anchor="start" x="4366.5" y="-203.3" font-family="Times,serif" font-size="14.00">__init__()</text>
<text text-anchor="start" x="4366.5" y="-188.3" font-family="Times,serif" font-size="14.00">__str__()</text>
<text text-anchor="start" x="4366.5" y="-173.3" font-family="Times,serif" font-size="14.00">choice()</text>
<text text-anchor="start" x="4366.5" y="-158.3" font-family="Times,serif" font-size="14.00">getReward()</text>
<text text-anchor="start" x="4366.5" y="-143.3" font-family="Times,serif" font-size="14.00">startGame()</text>
</g>
<!-- 21 -->
<g id="node22" class="node"><title>21</title>
<polygon fill="none" stroke="black" points="2770.5,-165.5 2770.5,-309.5 2954.5,-309.5 2954.5,-165.5 2770.5,-165.5"/>
<text text-anchor="middle" x="2862.5" y="-294.3" font-family="Times,serif" font-size="14.00">Policies.Thompson.Thompson</text>
<polyline fill="none" stroke="black" points="2770.5,-286.5 2954.5,-286.5 "/>
<text text-anchor="start" x="2778.5" y="-271.3" font-family="Times,serif" font-size="14.00">posterior</text>
<text text-anchor="start" x="2778.5" y="-256.3" font-family="Times,serif" font-size="14.00">t : int</text>
<polyline fill="none" stroke="black" points="2770.5,-248.5 2954.5,-248.5 "/>
<text text-anchor="start" x="2778.5" y="-233.3" font-family="Times,serif" font-size="14.00">__init__()</text>
<text text-anchor="start" x="2778.5" y="-218.3" font-family="Times,serif" font-size="14.00">__str__()</text>
<text text-anchor="start" x="2778.5" y="-203.3" font-family="Times,serif" font-size="14.00">computeIndex()</text>
<text text-anchor="start" x="2778.5" y="-188.3" font-family="Times,serif" font-size="14.00">getReward()</text>
<text text-anchor="start" x="2778.5" y="-173.3" font-family="Times,serif" font-size="14.00">startGame()</text>
</g>
<!-- 21&#45;&gt;18 -->
<g id="edge7" class="edge"><title>21&#45;&gt;18</title>
<path fill="none" stroke="black" d="M2862.5,-309.727C2862.5,-363.732 2862.5,-438.976 2862.5,-500.942"/>
<polygon fill="none" stroke="black" points="2859,-501.161 2862.5,-511.161 2866,-501.161 2859,-501.161"/>
</g>
<!-- 22 -->
<g id="node23" class="node"><title>22</title>
<polygon fill="none" stroke="black" points="4536.5,-143 4536.5,-332 4658.5,-332 4658.5,-143 4536.5,-143"/>
<text text-anchor="middle" x="4597.5" y="-316.8" font-family="Times,serif" font-size="14.00">Policies.UCB.UCB</text>
<polyline fill="none" stroke="black" points="4536.5,-309 4658.5,-309 "/>
<text text-anchor="start" x="4544.5" y="-293.8" font-family="Times,serif" font-size="14.00">nbArms</text>
<text text-anchor="start" x="4544.5" y="-278.8" font-family="Times,serif" font-size="14.00">params : str</text>
<text text-anchor="start" x="4544.5" y="-263.8" font-family="Times,serif" font-size="14.00">pulls</text>
<text text-anchor="start" x="4544.5" y="-248.8" font-family="Times,serif" font-size="14.00">rewards</text>
<text text-anchor="start" x="4544.5" y="-233.8" font-family="Times,serif" font-size="14.00">t : int</text>
<polyline fill="none" stroke="black" points="4536.5,-226 4658.5,-226 "/>
<text text-anchor="start" x="4544.5" y="-210.8" font-family="Times,serif" font-size="14.00">__init__()</text>
<text text-anchor="start" x="4544.5" y="-195.8" font-family="Times,serif" font-size="14.00">__str__()</text>
<text text-anchor="start" x="4544.5" y="-180.8" font-family="Times,serif" font-size="14.00">choice()</text>
<text text-anchor="start" x="4544.5" y="-165.8" font-family="Times,serif" font-size="14.00">getReward()</text>
<text text-anchor="start" x="4544.5" y="-150.8" font-family="Times,serif" font-size="14.00">startGame()</text>
</g>
<!-- 23 -->
<g id="node24" class="node"><title>23</title>
<polygon fill="none" stroke="black" points="2972.5,-128 2972.5,-347 3114.5,-347 3114.5,-128 2972.5,-128"/>
<text text-anchor="middle" x="3043.5" y="-331.8" font-family="Times,serif" font-size="14.00">Policies.UCBV.UCBV</text>
<polyline fill="none" stroke="black" points="2972.5,-324 3114.5,-324 "/>
<text text-anchor="start" x="2980.5" y="-308.8" font-family="Times,serif" font-size="14.00">amplitude : float</text>
<text text-anchor="start" x="2980.5" y="-293.8" font-family="Times,serif" font-size="14.00">lower : float</text>
<text text-anchor="start" x="2980.5" y="-278.8" font-family="Times,serif" font-size="14.00">params</text>
<text text-anchor="start" x="2980.5" y="-263.8" font-family="Times,serif" font-size="14.00">pulls</text>
<text text-anchor="start" x="2980.5" y="-248.8" font-family="Times,serif" font-size="14.00">rewards</text>
<text text-anchor="start" x="2980.5" y="-233.8" font-family="Times,serif" font-size="14.00">rewardsCorrected</text>
<text text-anchor="start" x="2980.5" y="-218.8" font-family="Times,serif" font-size="14.00">t : int</text>
<polyline fill="none" stroke="black" points="2972.5,-211 3114.5,-211 "/>
<text text-anchor="start" x="2980.5" y="-195.8" font-family="Times,serif" font-size="14.00">__init__()</text>
<text text-anchor="start" x="2980.5" y="-180.8" font-family="Times,serif" font-size="14.00">__str__()</text>
<text text-anchor="start" x="2980.5" y="-165.8" font-family="Times,serif" font-size="14.00">computeIndex()</text>
<text text-anchor="start" x="2980.5" y="-150.8" font-family="Times,serif" font-size="14.00">getReward()</text>
<text text-anchor="start" x="2980.5" y="-135.8" font-family="Times,serif" font-size="14.00">startGame()</text>
</g>
<!-- 23&#45;&gt;18 -->
<g id="edge8" class="edge"><title>23&#45;&gt;18</title>
<path fill="none" stroke="black" d="M3014.49,-347.03C3001.5,-388.26 2984.36,-434.917 2963.5,-475 2958.73,-484.159 2953.39,-493.373 2947.72,-502.458"/>
<polygon fill="none" stroke="black" points="2944.62,-500.81 2942.19,-511.122 2950.52,-504.576 2944.62,-500.81"/>
</g>
<!-- 24 -->
<g id="node25" class="node"><title>24</title>
<polygon fill="none" stroke="black" points="4677,-135.5 4677,-339.5 4858,-339.5 4858,-135.5 4677,-135.5"/>
<text text-anchor="middle" x="4767.5" y="-324.3" font-family="Times,serif" font-size="14.00">Policies.UCBalpha.UCBalpha</text>
<polyline fill="none" stroke="black" points="4677,-316.5 4858,-316.5 "/>
<text text-anchor="start" x="4685" y="-301.3" font-family="Times,serif" font-size="14.00">alpha : int</text>
<text text-anchor="start" x="4685" y="-286.3" font-family="Times,serif" font-size="14.00">nbArms</text>
<text text-anchor="start" x="4685" y="-271.3" font-family="Times,serif" font-size="14.00">params</text>
<text text-anchor="start" x="4685" y="-256.3" font-family="Times,serif" font-size="14.00">pulls</text>
<text text-anchor="start" x="4685" y="-241.3" font-family="Times,serif" font-size="14.00">rewards</text>
<text text-anchor="start" x="4685" y="-226.3" font-family="Times,serif" font-size="14.00">t : int</text>
<polyline fill="none" stroke="black" points="4677,-218.5 4858,-218.5 "/>
<text text-anchor="start" x="4685" y="-203.3" font-family="Times,serif" font-size="14.00">__init__()</text>
<text text-anchor="start" x="4685" y="-188.3" font-family="Times,serif" font-size="14.00">__str__()</text>
<text text-anchor="start" x="4685" y="-173.3" font-family="Times,serif" font-size="14.00">choice()</text>
<text text-anchor="start" x="4685" y="-158.3" font-family="Times,serif" font-size="14.00">getReward()</text>
<text text-anchor="start" x="4685" y="-143.3" font-family="Times,serif" font-size="14.00">startGame()</text>
</g>
<!-- 25 -->
<g id="node26" class="node"><title>25</title>
<polygon fill="none" stroke="black" points="3133,-113 3133,-362 3276,-362 3276,-113 3133,-113"/>
<text text-anchor="middle" x="3204.5" y="-346.8" font-family="Times,serif" font-size="14.00">Policies.klUCB.klUCB</text>
<polyline fill="none" stroke="black" points="3133,-339 3276,-339 "/>
<text text-anchor="start" x="3141" y="-323.8" font-family="Times,serif" font-size="14.00">amplitude : float</text>
<text text-anchor="start" x="3141" y="-308.8" font-family="Times,serif" font-size="14.00">c : float</text>
<text text-anchor="start" x="3141" y="-293.8" font-family="Times,serif" font-size="14.00">klucb</text>
<text text-anchor="start" x="3141" y="-278.8" font-family="Times,serif" font-size="14.00">lower : float</text>
<text text-anchor="start" x="3141" y="-263.8" font-family="Times,serif" font-size="14.00">params</text>
<text text-anchor="start" x="3141" y="-248.8" font-family="Times,serif" font-size="14.00">pulls</text>
<text text-anchor="start" x="3141" y="-233.8" font-family="Times,serif" font-size="14.00">rewards</text>
<text text-anchor="start" x="3141" y="-218.8" font-family="Times,serif" font-size="14.00">t : int</text>
<text text-anchor="start" x="3141" y="-203.8" font-family="Times,serif" font-size="14.00">tolerance : float</text>
<polyline fill="none" stroke="black" points="3133,-196 3276,-196 "/>
<text text-anchor="start" x="3141" y="-180.8" font-family="Times,serif" font-size="14.00">__init__()</text>
<text text-anchor="start" x="3141" y="-165.8" font-family="Times,serif" font-size="14.00">__str__()</text>
<text text-anchor="start" x="3141" y="-150.8" font-family="Times,serif" font-size="14.00">computeIndex()</text>
<text text-anchor="start" x="3141" y="-135.8" font-family="Times,serif" font-size="14.00">getReward()</text>
<text text-anchor="start" x="3141" y="-120.8" font-family="Times,serif" font-size="14.00">startGame()</text>
</g>
<!-- 25&#45;&gt;18 -->
<g id="edge9" class="edge"><title>25&#45;&gt;18</title>
<path fill="none" stroke="black" d="M3181.16,-362.161C3169.04,-401.533 3150.81,-443.1 3123.5,-475 3083.28,-521.982 3022.94,-555.235 2970.4,-577.257"/>
<polygon fill="none" stroke="black" points="2968.95,-574.068 2961.03,-581.102 2971.61,-580.544 2968.95,-574.068"/>
</g>
<!-- 26 -->
<g id="node27" class="node"><title>26</title>
<polygon fill="none" stroke="black" points="4876,-165.5 4876,-309.5 5105,-309.5 5105,-165.5 4876,-165.5"/>
<text text-anchor="middle" x="4990.5" y="-294.3" font-family="Times,serif" font-size="14.00">PoliciesMultiPlayers.Dummy.Dummy</text>
<polyline fill="none" stroke="black" points="4876,-286.5 5105,-286.5 "/>
<text text-anchor="start" x="4884" y="-271.3" font-family="Times,serif" font-size="14.00">nbArms</text>
<text text-anchor="start" x="4884" y="-256.3" font-family="Times,serif" font-size="14.00">params : str</text>
<polyline fill="none" stroke="black" points="4876,-248.5 5105,-248.5 "/>
<text text-anchor="start" x="4884" y="-233.3" font-family="Times,serif" font-size="14.00">__init__()</text>
<text text-anchor="start" x="4884" y="-218.3" font-family="Times,serif" font-size="14.00">__str__()</text>
<text text-anchor="start" x="4884" y="-203.3" font-family="Times,serif" font-size="14.00">choice()</text>
<text text-anchor="start" x="4884" y="-188.3" font-family="Times,serif" font-size="14.00">getReward()</text>
<text text-anchor="start" x="4884" y="-173.3" font-family="Times,serif" font-size="14.00">startGame()</text>
</g>
<!-- 27 -->
<g id="node28" class="node"><title>27</title>
<polygon fill="none" stroke="black" points="5123.5,-158 5123.5,-317 5427.5,-317 5427.5,-158 5123.5,-158"/>
<text text-anchor="middle" x="5275.5" y="-301.8" font-family="Times,serif" font-size="14.00">PoliciesMultiPlayers.TakeFixedArm.TakeFixedArm</text>
<polyline fill="none" stroke="black" points="5123.5,-294 5427.5,-294 "/>
<text text-anchor="start" x="5131.5" y="-278.8" font-family="Times,serif" font-size="14.00">armIndex</text>
<text text-anchor="start" x="5131.5" y="-263.8" font-family="Times,serif" font-size="14.00">nbArms</text>
<text text-anchor="start" x="5131.5" y="-248.8" font-family="Times,serif" font-size="14.00">params : str</text>
<polyline fill="none" stroke="black" points="5123.5,-241 5427.5,-241 "/>
<text text-anchor="start" x="5131.5" y="-225.8" font-family="Times,serif" font-size="14.00">__init__()</text>
<text text-anchor="start" x="5131.5" y="-210.8" font-family="Times,serif" font-size="14.00">__str__()</text>
<text text-anchor="start" x="5131.5" y="-195.8" font-family="Times,serif" font-size="14.00">choice()</text>
<text text-anchor="start" x="5131.5" y="-180.8" font-family="Times,serif" font-size="14.00">getReward()</text>
<text text-anchor="start" x="5131.5" y="-165.8" font-family="Times,serif" font-size="14.00">startGame()</text>
</g>
<!-- 28 -->
<g id="node29" class="node"><title>28</title>
<polygon fill="none" stroke="black" points="5445.5,-158 5445.5,-317 5773.5,-317 5773.5,-158 5445.5,-158"/>
<text text-anchor="middle" x="5609.5" y="-301.8" font-family="Times,serif" font-size="14.00">PoliciesMultiPlayers.UniformOnSome.UniformOnSome</text>
<polyline fill="none" stroke="black" points="5445.5,-294 5773.5,-294 "/>
<text text-anchor="start" x="5453.5" y="-278.8" font-family="Times,serif" font-size="14.00">armIndexes : list, NoneType</text>
<text text-anchor="start" x="5453.5" y="-263.8" font-family="Times,serif" font-size="14.00">nbArms</text>
<text text-anchor="start" x="5453.5" y="-248.8" font-family="Times,serif" font-size="14.00">params</text>
<polyline fill="none" stroke="black" points="5445.5,-241 5773.5,-241 "/>
<text text-anchor="start" x="5453.5" y="-225.8" font-family="Times,serif" font-size="14.00">__init__()</text>
<text text-anchor="start" x="5453.5" y="-210.8" font-family="Times,serif" font-size="14.00">__str__()</text>
<text text-anchor="start" x="5453.5" y="-195.8" font-family="Times,serif" font-size="14.00">choice()</text>
<text text-anchor="start" x="5453.5" y="-180.8" font-family="Times,serif" font-size="14.00">getReward()</text>
<text text-anchor="start" x="5453.5" y="-165.8" font-family="Times,serif" font-size="14.00">startGame()</text>
</g>
</g>
</svg>
