<?xml version="1.0" encoding="UTF-8" standalone="no"?>
<!DOCTYPE svg PUBLIC "-//W3C//DTD SVG 1.1//EN"
 "http://www.w3.org/Graphics/SVG/1.1/DTD/svg11.dtd">
<!-- Generated by graphviz version 2.40.1 (20161225.0304)
 -->
<!-- Title: classes_SMPyBandits.Policies.Posterior Pages: 1 -->
<svg width="906pt" height="741pt"
 viewBox="0.00 0.00 906.00 741.00" xmlns="http://www.w3.org/2000/svg" xmlns:xlink="http://www.w3.org/1999/xlink">
<g id="graph0" class="graph" transform="scale(1 1) rotate(0) translate(4 737)">
<title>classes_SMPyBandits.Policies.Posterior</title>
<polygon fill="#ffffff" stroke="transparent" points="-4,4 -4,-737 902,-737 902,4 -4,4"/>
<!-- 0 -->
<g id="node1" class="node">
<title>0</title>
<polygon fill="none" stroke="#000000" points="588.5,-301.5 588.5,-505.5 836.5,-505.5 836.5,-301.5 588.5,-301.5"/>
<text text-anchor="middle" x="712.5" y="-490.3" font-family="Times,serif" font-size="14.00" fill="#000000">SMPyBandits.Policies.Posterior.Beta.Beta</text>
<polyline fill="none" stroke="#000000" points="588.5,-482.5 836.5,-482.5 "/>
<text text-anchor="start" x="596.5" y="-467.3" font-family="Times,serif" font-size="14.00" fill="#000000">N : list</text>
<text text-anchor="start" x="596.5" y="-452.3" font-family="Times,serif" font-size="14.00" fill="#000000">_a : int</text>
<text text-anchor="start" x="596.5" y="-437.3" font-family="Times,serif" font-size="14.00" fill="#000000">_b : int</text>
<polyline fill="none" stroke="#000000" points="588.5,-429.5 836.5,-429.5 "/>
<text text-anchor="start" x="596.5" y="-414.3" font-family="Times,serif" font-size="14.00" fill="#000000">__init__(a, b)</text>
<text text-anchor="start" x="596.5" y="-399.3" font-family="Times,serif" font-size="14.00" fill="#000000">__str__()</text>
<text text-anchor="start" x="596.5" y="-384.3" font-family="Times,serif" font-size="14.00" fill="#000000">forget(obs)</text>
<text text-anchor="start" x="596.5" y="-369.3" font-family="Times,serif" font-size="14.00" fill="#000000">mean()</text>
<text text-anchor="start" x="596.5" y="-354.3" font-family="Times,serif" font-size="14.00" fill="#000000">quantile(p)</text>
<text text-anchor="start" x="596.5" y="-339.3" font-family="Times,serif" font-size="14.00" fill="#000000">reset(a, b)</text>
<text text-anchor="start" x="596.5" y="-324.3" font-family="Times,serif" font-size="14.00" fill="#000000">sample()</text>
<text text-anchor="start" x="596.5" y="-309.3" font-family="Times,serif" font-size="14.00" fill="#000000">update(obs)</text>
</g>
<!-- 4 -->
<g id="node5" class="node">
<title>4</title>
<polygon fill="none" stroke="#000000" points="289.5,-572.5 289.5,-732.5 585.5,-732.5 585.5,-572.5 289.5,-572.5"/>
<text text-anchor="middle" x="437.5" y="-717.3" font-family="Times,serif" font-size="14.00" fill="#000000">SMPyBandits.Policies.Posterior.Posterior.Posterior</text>
<polyline fill="none" stroke="#000000" points="289.5,-709.5 585.5,-709.5 "/>
<polyline fill="none" stroke="#000000" points="289.5,-685.5 585.5,-685.5 "/>
<text text-anchor="start" x="297.5" y="-670.3" font-family="Times,serif" font-size="14.00" fill="#000000">__init__()</text>
<text text-anchor="start" x="297.5" y="-655.3" font-family="Times,serif" font-size="14.00" fill="#000000">forget(obs)</text>
<text text-anchor="start" x="297.5" y="-640.3" font-family="Times,serif" font-size="14.00" fill="#000000">mean()</text>
<text text-anchor="start" x="297.5" y="-625.3" font-family="Times,serif" font-size="14.00" fill="#000000">quantile(p)</text>
<text text-anchor="start" x="297.5" y="-610.3" font-family="Times,serif" font-size="14.00" fill="#000000">reset()</text>
<text text-anchor="start" x="297.5" y="-595.3" font-family="Times,serif" font-size="14.00" fill="#000000">sample()</text>
<text text-anchor="start" x="297.5" y="-580.3" font-family="Times,serif" font-size="14.00" fill="#000000">update(obs)</text>
</g>
<!-- 0&#45;&gt;4 -->
<g id="edge1" class="edge">
<title>0&#45;&gt;4</title>
<path fill="none" stroke="#000000" d="M611.8181,-505.811C601.0445,-516.1526 590.1358,-526.38 579.5,-536 568.6362,-545.8263 557.0988,-555.8773 545.4795,-565.7561"/>
<polygon fill="none" stroke="#000000" points="543.2134,-563.0887 537.8384,-572.2188 547.7339,-568.4334 543.2134,-563.0887"/>
</g>
<!-- 1 -->
<g id="node2" class="node">
<title>1</title>
<polygon fill="none" stroke="#000000" points="527,-.5 527,-234.5 898,-234.5 898,-.5 527,-.5"/>
<text text-anchor="middle" x="712.5" y="-219.3" font-family="Times,serif" font-size="14.00" fill="#000000">SMPyBandits.Policies.Posterior.DiscountedBeta.DiscountedBeta</text>
<polyline fill="none" stroke="#000000" points="527,-211.5 898,-211.5 "/>
<text text-anchor="start" x="535" y="-196.3" font-family="Times,serif" font-size="14.00" fill="#000000">N : list</text>
<text text-anchor="start" x="535" y="-181.3" font-family="Times,serif" font-size="14.00" fill="#000000">_a : int</text>
<text text-anchor="start" x="535" y="-166.3" font-family="Times,serif" font-size="14.00" fill="#000000">_b : int</text>
<text text-anchor="start" x="535" y="-151.3" font-family="Times,serif" font-size="14.00" fill="#000000">gamma : float</text>
<polyline fill="none" stroke="#000000" points="527,-143.5 898,-143.5 "/>
<text text-anchor="start" x="535" y="-128.3" font-family="Times,serif" font-size="14.00" fill="#000000">__init__(gamma, a, b)</text>
<text text-anchor="start" x="535" y="-113.3" font-family="Times,serif" font-size="14.00" fill="#000000">__str__()</text>
<text text-anchor="start" x="535" y="-98.3" font-family="Times,serif" font-size="14.00" fill="#000000">discount()</text>
<text text-anchor="start" x="535" y="-83.3" font-family="Times,serif" font-size="14.00" fill="#000000">forget(obs)</text>
<text text-anchor="start" x="535" y="-68.3" font-family="Times,serif" font-size="14.00" fill="#000000">quantile(p)</text>
<text text-anchor="start" x="535" y="-53.3" font-family="Times,serif" font-size="14.00" fill="#000000">reset(a, b)</text>
<text text-anchor="start" x="535" y="-38.3" font-family="Times,serif" font-size="14.00" fill="#000000">sample()</text>
<text text-anchor="start" x="535" y="-23.3" font-family="Times,serif" font-size="14.00" fill="#000000">undiscount()</text>
<text text-anchor="start" x="535" y="-8.3" font-family="Times,serif" font-size="14.00" fill="#000000">update(obs)</text>
</g>
<!-- 1&#45;&gt;0 -->
<g id="edge2" class="edge">
<title>1&#45;&gt;0</title>
<path fill="none" stroke="#000000" d="M712.5,-234.6524C712.5,-253.2652 712.5,-272.4823 712.5,-290.9853"/>
<polygon fill="none" stroke="#000000" points="709.0001,-291.1829 712.5,-301.1829 716.0001,-291.183 709.0001,-291.1829"/>
</g>
<!-- 2 -->
<g id="node3" class="node">
<title>2</title>
<polygon fill="none" stroke="#000000" points="0,-294 0,-513 287,-513 287,-294 0,-294"/>
<text text-anchor="middle" x="143.5" y="-497.8" font-family="Times,serif" font-size="14.00" fill="#000000">SMPyBandits.Policies.Posterior.Gamma.Gamma</text>
<polyline fill="none" stroke="#000000" points="0,-490 287,-490 "/>
<text text-anchor="start" x="8" y="-474.8" font-family="Times,serif" font-size="14.00" fill="#000000">_k : int</text>
<text text-anchor="start" x="8" y="-459.8" font-family="Times,serif" font-size="14.00" fill="#000000">_lmbda : int</text>
<text text-anchor="start" x="8" y="-444.8" font-family="Times,serif" font-size="14.00" fill="#000000">k : int</text>
<text text-anchor="start" x="8" y="-429.8" font-family="Times,serif" font-size="14.00" fill="#000000">lmbda : int</text>
<polyline fill="none" stroke="#000000" points="0,-422 287,-422 "/>
<text text-anchor="start" x="8" y="-406.8" font-family="Times,serif" font-size="14.00" fill="#000000">__init__(k, lmbda)</text>
<text text-anchor="start" x="8" y="-391.8" font-family="Times,serif" font-size="14.00" fill="#000000">__str__()</text>
<text text-anchor="start" x="8" y="-376.8" font-family="Times,serif" font-size="14.00" fill="#000000">forget(obs)</text>
<text text-anchor="start" x="8" y="-361.8" font-family="Times,serif" font-size="14.00" fill="#000000">mean()</text>
<text text-anchor="start" x="8" y="-346.8" font-family="Times,serif" font-size="14.00" fill="#000000">quantile(p)</text>
<text text-anchor="start" x="8" y="-331.8" font-family="Times,serif" font-size="14.00" fill="#000000">reset(k, lmbda)</text>
<text text-anchor="start" x="8" y="-316.8" font-family="Times,serif" font-size="14.00" fill="#000000">sample()</text>
<text text-anchor="start" x="8" y="-301.8" font-family="Times,serif" font-size="14.00" fill="#000000">update(obs)</text>
</g>
<!-- 2&#45;&gt;4 -->
<g id="edge3" class="edge">
<title>2&#45;&gt;4</title>
<path fill="none" stroke="#000000" d="M269.7915,-513.2704C278.8101,-520.986 287.7811,-528.6244 296.5,-536 307.935,-545.6732 319.9429,-555.7368 331.9243,-565.7185"/>
<polygon fill="none" stroke="#000000" points="329.862,-568.5557 339.7877,-572.2612 334.3392,-563.1747 329.862,-568.5557"/>
</g>
<!-- 3 -->
<g id="node4" class="node">
<title>3</title>
<polygon fill="none" stroke="#000000" points="305,-271.5 305,-535.5 570,-535.5 570,-271.5 305,-271.5"/>
<text text-anchor="middle" x="437.5" y="-520.3" font-family="Times,serif" font-size="14.00" fill="#000000">SMPyBandits.Policies.Posterior.Gauss.Gauss</text>
<polyline fill="none" stroke="#000000" points="305,-512.5 570,-512.5 "/>
<text text-anchor="start" x="313" y="-497.3" font-family="Times,serif" font-size="14.00" fill="#000000">_mu : float</text>
<text text-anchor="start" x="313" y="-482.3" font-family="Times,serif" font-size="14.00" fill="#000000">_nb_data : int</text>
<text text-anchor="start" x="313" y="-467.3" font-family="Times,serif" font-size="14.00" fill="#000000">_nu : float</text>
<text text-anchor="start" x="313" y="-452.3" font-family="Times,serif" font-size="14.00" fill="#000000">_sum_data : float</text>
<text text-anchor="start" x="313" y="-437.3" font-family="Times,serif" font-size="14.00" fill="#000000">mu : float</text>
<text text-anchor="start" x="313" y="-422.3" font-family="Times,serif" font-size="14.00" fill="#000000">sigma : float</text>
<polyline fill="none" stroke="#000000" points="305,-414.5 570,-414.5 "/>
<text text-anchor="start" x="313" y="-399.3" font-family="Times,serif" font-size="14.00" fill="#000000">__init__(mu)</text>
<text text-anchor="start" x="313" y="-384.3" font-family="Times,serif" font-size="14.00" fill="#000000">__str__()</text>
<text text-anchor="start" x="313" y="-369.3" font-family="Times,serif" font-size="14.00" fill="#000000">forget(obs)</text>
<text text-anchor="start" x="313" y="-354.3" font-family="Times,serif" font-size="14.00" fill="#000000">mean()</text>
<text text-anchor="start" x="313" y="-339.3" font-family="Times,serif" font-size="14.00" fill="#000000">quantile(p)</text>
<text text-anchor="start" x="313" y="-324.3" font-family="Times,serif" font-size="14.00" fill="#000000">reset(mu)</text>
<text text-anchor="start" x="313" y="-309.3" font-family="Times,serif" font-size="14.00" fill="#000000">sample()</text>
<text text-anchor="start" x="313" y="-294.3" font-family="Times,serif" font-size="14.00" fill="#000000">update(obs)</text>
<text text-anchor="start" x="313" y="-279.3" font-family="Times,serif" font-size="14.00" fill="#000000">variance()</text>
</g>
<!-- 3&#45;&gt;4 -->
<g id="edge4" class="edge">
<title>3&#45;&gt;4</title>
<path fill="none" stroke="#000000" d="M437.5,-535.6554C437.5,-544.6072 437.5,-553.506 437.5,-562.1658"/>
<polygon fill="none" stroke="#000000" points="434.0001,-562.2107 437.5,-572.2107 441.0001,-562.2108 434.0001,-562.2107"/>
</g>
</g>
</svg>
