<?xml version="1.0" encoding="UTF-8" standalone="no"?>
<!DOCTYPE svg PUBLIC "-//W3C//DTD SVG 1.1//EN"
 "http://www.w3.org/Graphics/SVG/1.1/DTD/svg11.dtd">
<!-- Generated by graphviz version 2.40.1 (20161225.0304)
 -->
<!-- Title: classes_SMPyBandits.Policies.Posterior Pages: 1 -->
<svg width="906pt" height="696pt"
 viewBox="0.00 0.00 906.00 696.00" xmlns="http://www.w3.org/2000/svg" xmlns:xlink="http://www.w3.org/1999/xlink">
<g id="graph0" class="graph" transform="scale(1 1) rotate(0) translate(4 692)">
<title>classes_SMPyBandits.Policies.Posterior</title>
<polygon fill="#ffffff" stroke="transparent" points="-4,4 -4,-692 902,-692 902,4 -4,4"/>
<!-- 0 -->
<g id="node1" class="node">
<title>0</title>
<polygon fill="none" stroke="#000000" points="588.5,-256.5 588.5,-460.5 836.5,-460.5 836.5,-256.5 588.5,-256.5"/>
<text text-anchor="middle" x="712.5" y="-445.3" font-family="Times,serif" font-size="14.00" fill="#000000">SMPyBandits.Policies.Posterior.Beta.Beta</text>
<polyline fill="none" stroke="#000000" points="588.5,-437.5 836.5,-437.5 "/>
<text text-anchor="start" x="596.5" y="-422.3" font-family="Times,serif" font-size="14.00" fill="#000000">N : list</text>
<text text-anchor="start" x="596.5" y="-407.3" font-family="Times,serif" font-size="14.00" fill="#000000">_a : int</text>
<text text-anchor="start" x="596.5" y="-392.3" font-family="Times,serif" font-size="14.00" fill="#000000">_b : int</text>
<polyline fill="none" stroke="#000000" points="588.5,-384.5 836.5,-384.5 "/>
<text text-anchor="start" x="596.5" y="-369.3" font-family="Times,serif" font-size="14.00" fill="#000000">__init__()</text>
<text text-anchor="start" x="596.5" y="-354.3" font-family="Times,serif" font-size="14.00" fill="#000000">__str__()</text>
<text text-anchor="start" x="596.5" y="-339.3" font-family="Times,serif" font-size="14.00" fill="#000000">forget()</text>
<text text-anchor="start" x="596.5" y="-324.3" font-family="Times,serif" font-size="14.00" fill="#000000">mean()</text>
<text text-anchor="start" x="596.5" y="-309.3" font-family="Times,serif" font-size="14.00" fill="#000000">quantile()</text>
<text text-anchor="start" x="596.5" y="-294.3" font-family="Times,serif" font-size="14.00" fill="#000000">reset()</text>
<text text-anchor="start" x="596.5" y="-279.3" font-family="Times,serif" font-size="14.00" fill="#000000">sample()</text>
<text text-anchor="start" x="596.5" y="-264.3" font-family="Times,serif" font-size="14.00" fill="#000000">update()</text>
</g>
<!-- 4 -->
<g id="node5" class="node">
<title>4</title>
<polygon fill="none" stroke="#000000" points="289.5,-527.5 289.5,-687.5 585.5,-687.5 585.5,-527.5 289.5,-527.5"/>
<text text-anchor="middle" x="437.5" y="-672.3" font-family="Times,serif" font-size="14.00" fill="#000000">SMPyBandits.Policies.Posterior.Posterior.Posterior</text>
<polyline fill="none" stroke="#000000" points="289.5,-664.5 585.5,-664.5 "/>
<polyline fill="none" stroke="#000000" points="289.5,-640.5 585.5,-640.5 "/>
<text text-anchor="start" x="297.5" y="-625.3" font-family="Times,serif" font-size="14.00" fill="#000000">__init__()</text>
<text text-anchor="start" x="297.5" y="-610.3" font-family="Times,serif" font-size="14.00" fill="#000000">forget()</text>
<text text-anchor="start" x="297.5" y="-595.3" font-family="Times,serif" font-size="14.00" fill="#000000">mean()</text>
<text text-anchor="start" x="297.5" y="-580.3" font-family="Times,serif" font-size="14.00" fill="#000000">quantile()</text>
<text text-anchor="start" x="297.5" y="-565.3" font-family="Times,serif" font-size="14.00" fill="#000000">reset()</text>
<text text-anchor="start" x="297.5" y="-550.3" font-family="Times,serif" font-size="14.00" fill="#000000">sample()</text>
<text text-anchor="start" x="297.5" y="-535.3" font-family="Times,serif" font-size="14.00" fill="#000000">update()</text>
</g>
<!-- 0&#45;&gt;4 -->
<g id="edge1" class="edge">
<title>0&#45;&gt;4</title>
<path fill="none" stroke="#000000" d="M611.8181,-460.811C601.0445,-471.1526 590.1358,-481.38 579.5,-491 568.6362,-500.8263 557.0988,-510.8773 545.4795,-520.7561"/>
<polygon fill="none" stroke="#000000" points="543.2134,-518.0887 537.8384,-527.2188 547.7339,-523.4334 543.2134,-518.0887"/>
</g>
<!-- 1 -->
<g id="node2" class="node">
<title>1</title>
<polygon fill="none" stroke="#000000" points="527,-.5 527,-189.5 898,-189.5 898,-.5 527,-.5"/>
<text text-anchor="middle" x="712.5" y="-174.3" font-family="Times,serif" font-size="14.00" fill="#000000">SMPyBandits.Policies.Posterior.DiscountedBeta.DiscountedBeta</text>
<polyline fill="none" stroke="#000000" points="527,-166.5 898,-166.5 "/>
<text text-anchor="start" x="535" y="-151.3" font-family="Times,serif" font-size="14.00" fill="#000000">N : list</text>
<text text-anchor="start" x="535" y="-136.3" font-family="Times,serif" font-size="14.00" fill="#000000">_a : int</text>
<text text-anchor="start" x="535" y="-121.3" font-family="Times,serif" font-size="14.00" fill="#000000">_b : int</text>
<text text-anchor="start" x="535" y="-106.3" font-family="Times,serif" font-size="14.00" fill="#000000">gamma : float</text>
<polyline fill="none" stroke="#000000" points="527,-98.5 898,-98.5 "/>
<text text-anchor="start" x="535" y="-83.3" font-family="Times,serif" font-size="14.00" fill="#000000">__init__()</text>
<text text-anchor="start" x="535" y="-68.3" font-family="Times,serif" font-size="14.00" fill="#000000">__str__()</text>
<text text-anchor="start" x="535" y="-53.3" font-family="Times,serif" font-size="14.00" fill="#000000">discount()</text>
<text text-anchor="start" x="535" y="-38.3" font-family="Times,serif" font-size="14.00" fill="#000000">forget()</text>
<text text-anchor="start" x="535" y="-23.3" font-family="Times,serif" font-size="14.00" fill="#000000">undiscount()</text>
<text text-anchor="start" x="535" y="-8.3" font-family="Times,serif" font-size="14.00" fill="#000000">update()</text>
</g>
<!-- 1&#45;&gt;0 -->
<g id="edge2" class="edge">
<title>1&#45;&gt;0</title>
<path fill="none" stroke="#000000" d="M712.5,-189.7573C712.5,-208.0171 712.5,-227.3085 712.5,-246.066"/>
<polygon fill="none" stroke="#000000" points="709.0001,-246.1186 712.5,-256.1187 716.0001,-246.1187 709.0001,-246.1186"/>
</g>
<!-- 2 -->
<g id="node3" class="node">
<title>2</title>
<polygon fill="none" stroke="#000000" points="0,-249 0,-468 287,-468 287,-249 0,-249"/>
<text text-anchor="middle" x="143.5" y="-452.8" font-family="Times,serif" font-size="14.00" fill="#000000">SMPyBandits.Policies.Posterior.Gamma.Gamma</text>
<polyline fill="none" stroke="#000000" points="0,-445 287,-445 "/>
<text text-anchor="start" x="8" y="-429.8" font-family="Times,serif" font-size="14.00" fill="#000000">_k : int</text>
<text text-anchor="start" x="8" y="-414.8" font-family="Times,serif" font-size="14.00" fill="#000000">_lmbda : int</text>
<text text-anchor="start" x="8" y="-399.8" font-family="Times,serif" font-size="14.00" fill="#000000">k : int</text>
<text text-anchor="start" x="8" y="-384.8" font-family="Times,serif" font-size="14.00" fill="#000000">lmbda : int</text>
<polyline fill="none" stroke="#000000" points="0,-377 287,-377 "/>
<text text-anchor="start" x="8" y="-361.8" font-family="Times,serif" font-size="14.00" fill="#000000">__init__()</text>
<text text-anchor="start" x="8" y="-346.8" font-family="Times,serif" font-size="14.00" fill="#000000">__str__()</text>
<text text-anchor="start" x="8" y="-331.8" font-family="Times,serif" font-size="14.00" fill="#000000">forget()</text>
<text text-anchor="start" x="8" y="-316.8" font-family="Times,serif" font-size="14.00" fill="#000000">mean()</text>
<text text-anchor="start" x="8" y="-301.8" font-family="Times,serif" font-size="14.00" fill="#000000">quantile()</text>
<text text-anchor="start" x="8" y="-286.8" font-family="Times,serif" font-size="14.00" fill="#000000">reset()</text>
<text text-anchor="start" x="8" y="-271.8" font-family="Times,serif" font-size="14.00" fill="#000000">sample()</text>
<text text-anchor="start" x="8" y="-256.8" font-family="Times,serif" font-size="14.00" fill="#000000">update()</text>
</g>
<!-- 2&#45;&gt;4 -->
<g id="edge3" class="edge">
<title>2&#45;&gt;4</title>
<path fill="none" stroke="#000000" d="M269.7915,-468.2704C278.8101,-475.986 287.7811,-483.6244 296.5,-491 307.935,-500.6732 319.9429,-510.7368 331.9243,-520.7185"/>
<polygon fill="none" stroke="#000000" points="329.862,-523.5557 339.7877,-527.2612 334.3392,-518.1747 329.862,-523.5557"/>
</g>
<!-- 3 -->
<g id="node4" class="node">
<title>3</title>
<polygon fill="none" stroke="#000000" points="305,-226.5 305,-490.5 570,-490.5 570,-226.5 305,-226.5"/>
<text text-anchor="middle" x="437.5" y="-475.3" font-family="Times,serif" font-size="14.00" fill="#000000">SMPyBandits.Policies.Posterior.Gauss.Gauss</text>
<polyline fill="none" stroke="#000000" points="305,-467.5 570,-467.5 "/>
<text text-anchor="start" x="313" y="-452.3" font-family="Times,serif" font-size="14.00" fill="#000000">_mu : float</text>
<text text-anchor="start" x="313" y="-437.3" font-family="Times,serif" font-size="14.00" fill="#000000">_nb_data : int</text>
<text text-anchor="start" x="313" y="-422.3" font-family="Times,serif" font-size="14.00" fill="#000000">_nu : float</text>
<text text-anchor="start" x="313" y="-407.3" font-family="Times,serif" font-size="14.00" fill="#000000">_sum_data : float</text>
<text text-anchor="start" x="313" y="-392.3" font-family="Times,serif" font-size="14.00" fill="#000000">mu : float</text>
<text text-anchor="start" x="313" y="-377.3" font-family="Times,serif" font-size="14.00" fill="#000000">sigma : float</text>
<polyline fill="none" stroke="#000000" points="305,-369.5 570,-369.5 "/>
<text text-anchor="start" x="313" y="-354.3" font-family="Times,serif" font-size="14.00" fill="#000000">__init__()</text>
<text text-anchor="start" x="313" y="-339.3" font-family="Times,serif" font-size="14.00" fill="#000000">__str__()</text>
<text text-anchor="start" x="313" y="-324.3" font-family="Times,serif" font-size="14.00" fill="#000000">forget()</text>
<text text-anchor="start" x="313" y="-309.3" font-family="Times,serif" font-size="14.00" fill="#000000">mean()</text>
<text text-anchor="start" x="313" y="-294.3" font-family="Times,serif" font-size="14.00" fill="#000000">quantile()</text>
<text text-anchor="start" x="313" y="-279.3" font-family="Times,serif" font-size="14.00" fill="#000000">reset()</text>
<text text-anchor="start" x="313" y="-264.3" font-family="Times,serif" font-size="14.00" fill="#000000">sample()</text>
<text text-anchor="start" x="313" y="-249.3" font-family="Times,serif" font-size="14.00" fill="#000000">update()</text>
<text text-anchor="start" x="313" y="-234.3" font-family="Times,serif" font-size="14.00" fill="#000000">variance()</text>
</g>
<!-- 3&#45;&gt;4 -->
<g id="edge4" class="edge">
<title>3&#45;&gt;4</title>
<path fill="none" stroke="#000000" d="M437.5,-490.6554C437.5,-499.6072 437.5,-508.506 437.5,-517.1658"/>
<polygon fill="none" stroke="#000000" points="434.0001,-517.2107 437.5,-527.2107 441.0001,-517.2108 434.0001,-517.2107"/>
</g>
</g>
</svg>
