<?xml version="1.0" encoding="UTF-8" standalone="no"?>
<!DOCTYPE svg PUBLIC "-//W3C//DTD SVG 1.1//EN"
 "http://www.w3.org/Graphics/SVG/1.1/DTD/svg11.dtd">
<!-- Generated by graphviz version 2.40.1 (20161225.0304)
 -->
<!-- Title: classes_SMPyBandits.Arms Pages: 1 -->
<svg width="7103pt" height="741pt"
 viewBox="0.00 0.00 7103.00 741.00" xmlns="http://www.w3.org/2000/svg" xmlns:xlink="http://www.w3.org/1999/xlink">
<g id="graph0" class="graph" transform="scale(1 1) rotate(0) translate(4 737)">
<title>classes_SMPyBandits.Arms</title>
<polygon fill="#ffffff" stroke="transparent" points="-4,4 -4,-737 7099,-737 7099,4 -4,4"/>
<!-- 0 -->
<g id="node1" class="node">
<title>0</title>
<polygon fill="none" stroke="#000000" points="1500.5,-468.5 1500.5,-732.5 1685.5,-732.5 1685.5,-468.5 1500.5,-468.5"/>
<text text-anchor="middle" x="1593" y="-717.3" font-family="Times,serif" font-size="14.00" fill="#000000">SMPyBandits.Arms.Arm.Arm</text>
<polyline fill="none" stroke="#000000" points="1500.5,-709.5 1685.5,-709.5 "/>
<text text-anchor="start" x="1508.5" y="-694.3" font-family="Times,serif" font-size="14.00" fill="#000000">amplitude : float</text>
<text text-anchor="start" x="1508.5" y="-679.3" font-family="Times,serif" font-size="14.00" fill="#000000">lower : float</text>
<text text-anchor="start" x="1508.5" y="-664.3" font-family="Times,serif" font-size="14.00" fill="#000000">lower_amplitude</text>
<text text-anchor="start" x="1508.5" y="-649.3" font-family="Times,serif" font-size="14.00" fill="#000000">max : float</text>
<text text-anchor="start" x="1508.5" y="-634.3" font-family="Times,serif" font-size="14.00" fill="#000000">min : float</text>
<polyline fill="none" stroke="#000000" points="1500.5,-626.5 1685.5,-626.5 "/>
<text text-anchor="start" x="1508.5" y="-611.3" font-family="Times,serif" font-size="14.00" fill="#000000">__init__(lower, amplitude)</text>
<text text-anchor="start" x="1508.5" y="-596.3" font-family="Times,serif" font-size="14.00" fill="#000000">__repr__()</text>
<text text-anchor="start" x="1508.5" y="-581.3" font-family="Times,serif" font-size="14.00" fill="#000000">__str__()</text>
<text text-anchor="start" x="1508.5" y="-566.3" font-family="Times,serif" font-size="14.00" fill="#000000">draw(t)</text>
<text text-anchor="start" x="1508.5" y="-551.3" font-family="Times,serif" font-size="14.00" fill="#000000">draw_nparray(shape)</text>
<text text-anchor="start" x="1508.5" y="-536.3" font-family="Times,serif" font-size="14.00" fill="#000000">kl(x, y)</text>
<text text-anchor="start" x="1508.5" y="-521.3" font-family="Times,serif" font-size="14.00" fill="#000000">oneHOI(mumax, mu)</text>
<text text-anchor="start" x="1508.5" y="-506.3" font-family="Times,serif" font-size="14.00" fill="#000000">oneLR(mumax, mu)</text>
<text text-anchor="start" x="1508.5" y="-491.3" font-family="Times,serif" font-size="14.00" fill="#000000">oracle_draw(t)</text>
<text text-anchor="start" x="1508.5" y="-476.3" font-family="Times,serif" font-size="14.00" fill="#000000">set_mean_param(mean)</text>
</g>
<!-- 1 -->
<g id="node2" class="node">
<title>1</title>
<polygon fill="none" stroke="#000000" points="250,-190 250,-394 486,-394 486,-190 250,-190"/>
<text text-anchor="middle" x="368" y="-378.8" font-family="Times,serif" font-size="14.00" fill="#000000">SMPyBandits.Arms.Bernoulli.Bernoulli</text>
<polyline fill="none" stroke="#000000" points="250,-371 486,-371 "/>
<text text-anchor="start" x="258" y="-355.8" font-family="Times,serif" font-size="14.00" fill="#000000">lower_amplitude</text>
<text text-anchor="start" x="258" y="-340.8" font-family="Times,serif" font-size="14.00" fill="#000000">mean</text>
<text text-anchor="start" x="258" y="-325.8" font-family="Times,serif" font-size="14.00" fill="#000000">probability</text>
<polyline fill="none" stroke="#000000" points="250,-318 486,-318 "/>
<text text-anchor="start" x="258" y="-302.8" font-family="Times,serif" font-size="14.00" fill="#000000">__init__(probability)</text>
<text text-anchor="start" x="258" y="-287.8" font-family="Times,serif" font-size="14.00" fill="#000000">__repr__()</text>
<text text-anchor="start" x="258" y="-272.8" font-family="Times,serif" font-size="14.00" fill="#000000">__str__()</text>
<text text-anchor="start" x="258" y="-257.8" font-family="Times,serif" font-size="14.00" fill="#000000">draw(t)</text>
<text text-anchor="start" x="258" y="-242.8" font-family="Times,serif" font-size="14.00" fill="#000000">draw_nparray(shape)</text>
<text text-anchor="start" x="258" y="-227.8" font-family="Times,serif" font-size="14.00" fill="#000000">kl(x, y)</text>
<text text-anchor="start" x="258" y="-212.8" font-family="Times,serif" font-size="14.00" fill="#000000">oneLR(mumax, mu)</text>
<text text-anchor="start" x="258" y="-197.8" font-family="Times,serif" font-size="14.00" fill="#000000">set_mean_param(probability)</text>
</g>
<!-- 1&#45;&gt;0 -->
<g id="edge1" class="edge">
<title>1&#45;&gt;0</title>
<path fill="none" stroke="#000000" d="M444.66,-394.0483C459.8503,-408.7637 476.7893,-422.2126 495,-432 666.6572,-524.2581 1251.5818,-575.8637 1490.2925,-593.5054"/>
<polygon fill="none" stroke="#000000" points="1490.1327,-597.003 1500.3621,-594.2446 1490.6452,-590.0218 1490.1327,-597.003"/>
</g>
<!-- 2 -->
<g id="node3" class="node">
<title>2</title>
<polygon fill="none" stroke="#000000" points="504,-182.5 504,-401.5 740,-401.5 740,-182.5 504,-182.5"/>
<text text-anchor="middle" x="622" y="-386.3" font-family="Times,serif" font-size="14.00" fill="#000000">SMPyBandits.Arms.Binomial.Binomial</text>
<polyline fill="none" stroke="#000000" points="504,-378.5 740,-378.5 "/>
<text text-anchor="start" x="512" y="-363.3" font-family="Times,serif" font-size="14.00" fill="#000000">draws : int, NoneType</text>
<text text-anchor="start" x="512" y="-348.3" font-family="Times,serif" font-size="14.00" fill="#000000">lower_amplitude</text>
<text text-anchor="start" x="512" y="-333.3" font-family="Times,serif" font-size="14.00" fill="#000000">mean</text>
<text text-anchor="start" x="512" y="-318.3" font-family="Times,serif" font-size="14.00" fill="#000000">probability</text>
<polyline fill="none" stroke="#000000" points="504,-310.5 740,-310.5 "/>
<text text-anchor="start" x="512" y="-295.3" font-family="Times,serif" font-size="14.00" fill="#000000">__init__(probability, draws)</text>
<text text-anchor="start" x="512" y="-280.3" font-family="Times,serif" font-size="14.00" fill="#000000">__repr__()</text>
<text text-anchor="start" x="512" y="-265.3" font-family="Times,serif" font-size="14.00" fill="#000000">__str__()</text>
<text text-anchor="start" x="512" y="-250.3" font-family="Times,serif" font-size="14.00" fill="#000000">draw(t)</text>
<text text-anchor="start" x="512" y="-235.3" font-family="Times,serif" font-size="14.00" fill="#000000">draw_nparray(shape)</text>
<text text-anchor="start" x="512" y="-220.3" font-family="Times,serif" font-size="14.00" fill="#000000">kl(x, y)</text>
<text text-anchor="start" x="512" y="-205.3" font-family="Times,serif" font-size="14.00" fill="#000000">oneLR(mumax, mu)</text>
<text text-anchor="start" x="512" y="-190.3" font-family="Times,serif" font-size="14.00" fill="#000000">set_mean_param(probability, draws)</text>
</g>
<!-- 2&#45;&gt;0 -->
<g id="edge2" class="edge">
<title>2&#45;&gt;0</title>
<path fill="none" stroke="#000000" d="M707.8756,-401.6716C720.6394,-413.2288 734.4391,-423.7488 749,-432 875.0194,-503.4114 1294.2476,-563.3029 1490.287,-588.1645"/>
<polygon fill="none" stroke="#000000" points="1489.9478,-591.6493 1500.3074,-589.4294 1490.8245,-584.7044 1489.9478,-591.6493"/>
</g>
<!-- 3 -->
<g id="node4" class="node">
<title>3</title>
<polygon fill="none" stroke="#000000" points="758,-182.5 758,-401.5 1018,-401.5 1018,-182.5 758,-182.5"/>
<text text-anchor="middle" x="888" y="-386.3" font-family="Times,serif" font-size="14.00" fill="#000000">SMPyBandits.Arms.Constant.Constant</text>
<polyline fill="none" stroke="#000000" points="758,-378.5 1018,-378.5 "/>
<text text-anchor="start" x="766" y="-363.3" font-family="Times,serif" font-size="14.00" fill="#000000">amplitude : float</text>
<text text-anchor="start" x="766" y="-348.3" font-family="Times,serif" font-size="14.00" fill="#000000">constant_reward : float</text>
<text text-anchor="start" x="766" y="-333.3" font-family="Times,serif" font-size="14.00" fill="#000000">lower</text>
<text text-anchor="start" x="766" y="-318.3" font-family="Times,serif" font-size="14.00" fill="#000000">mean : float</text>
<polyline fill="none" stroke="#000000" points="758,-310.5 1018,-310.5 "/>
<text text-anchor="start" x="766" y="-295.3" font-family="Times,serif" font-size="14.00" fill="#000000">__init__(constant_reward, lower, amplitude)</text>
<text text-anchor="start" x="766" y="-280.3" font-family="Times,serif" font-size="14.00" fill="#000000">__repr__()</text>
<text text-anchor="start" x="766" y="-265.3" font-family="Times,serif" font-size="14.00" fill="#000000">__str__()</text>
<text text-anchor="start" x="766" y="-250.3" font-family="Times,serif" font-size="14.00" fill="#000000">draw(t)</text>
<text text-anchor="start" x="766" y="-235.3" font-family="Times,serif" font-size="14.00" fill="#000000">draw_nparray(shape)</text>
<text text-anchor="start" x="766" y="-220.3" font-family="Times,serif" font-size="14.00" fill="#000000">kl(x, y)</text>
<text text-anchor="start" x="766" y="-205.3" font-family="Times,serif" font-size="14.00" fill="#000000">oneLR(mumax, mu)</text>
<text text-anchor="start" x="766" y="-190.3" font-family="Times,serif" font-size="14.00" fill="#000000">set_mean_param(mean)</text>
</g>
<!-- 3&#45;&gt;0 -->
<g id="edge3" class="edge">
<title>3&#45;&gt;0</title>
<path fill="none" stroke="#000000" d="M985.423,-401.6749C998.6168,-412.9362 1012.598,-423.3834 1027,-432 1174.5765,-520.2944 1371.754,-565.2235 1490.1769,-585.7091"/>
<polygon fill="none" stroke="#000000" points="1489.8817,-589.2091 1500.3276,-587.4384 1491.0575,-582.3086 1489.8817,-589.2091"/>
</g>
<!-- 4 -->
<g id="node5" class="node">
<title>4</title>
<polygon fill="none" stroke="#000000" points="1036.5,-152.5 1036.5,-431.5 1311.5,-431.5 1311.5,-152.5 1036.5,-152.5"/>
<text text-anchor="middle" x="1174" y="-416.3" font-family="Times,serif" font-size="14.00" fill="#000000">SMPyBandits.Arms.DiscreteArm.DiscreteArm</text>
<polyline fill="none" stroke="#000000" points="1036.5,-408.5 1311.5,-408.5 "/>
<text text-anchor="start" x="1044.5" y="-393.3" font-family="Times,serif" font-size="14.00" fill="#000000">_amplitude</text>
<text text-anchor="start" x="1044.5" y="-378.3" font-family="Times,serif" font-size="14.00" fill="#000000">_items : list</text>
<text text-anchor="start" x="1044.5" y="-363.3" font-family="Times,serif" font-size="14.00" fill="#000000">_lower</text>
<text text-anchor="start" x="1044.5" y="-348.3" font-family="Times,serif" font-size="14.00" fill="#000000">_probabilities : ndarray</text>
<text text-anchor="start" x="1044.5" y="-333.3" font-family="Times,serif" font-size="14.00" fill="#000000">_values : ndarray</text>
<text text-anchor="start" x="1044.5" y="-318.3" font-family="Times,serif" font-size="14.00" fill="#000000">_values_to_proba</text>
<text text-anchor="start" x="1044.5" y="-303.3" font-family="Times,serif" font-size="14.00" fill="#000000">lower_amplitude</text>
<text text-anchor="start" x="1044.5" y="-288.3" font-family="Times,serif" font-size="14.00" fill="#000000">mean</text>
<text text-anchor="start" x="1044.5" y="-273.3" font-family="Times,serif" font-size="14.00" fill="#000000">size : int</text>
<polyline fill="none" stroke="#000000" points="1036.5,-265.5 1311.5,-265.5 "/>
<text text-anchor="start" x="1044.5" y="-250.3" font-family="Times,serif" font-size="14.00" fill="#000000">__init__(values_to_proba)</text>
<text text-anchor="start" x="1044.5" y="-235.3" font-family="Times,serif" font-size="14.00" fill="#000000">__repr__()</text>
<text text-anchor="start" x="1044.5" y="-220.3" font-family="Times,serif" font-size="14.00" fill="#000000">__str__()</text>
<text text-anchor="start" x="1044.5" y="-205.3" font-family="Times,serif" font-size="14.00" fill="#000000">draw(t)</text>
<text text-anchor="start" x="1044.5" y="-190.3" font-family="Times,serif" font-size="14.00" fill="#000000">draw_nparray(shape)</text>
<text text-anchor="start" x="1044.5" y="-175.3" font-family="Times,serif" font-size="14.00" fill="#000000">kl(x, y)</text>
<text text-anchor="start" x="1044.5" y="-160.3" font-family="Times,serif" font-size="14.00" fill="#000000">oneLR(mumax, mu)</text>
</g>
<!-- 4&#45;&gt;0 -->
<g id="edge4" class="edge">
<title>4&#45;&gt;0</title>
<path fill="none" stroke="#000000" d="M1311.6561,-425.4212C1314.4401,-427.6553 1317.2229,-429.8505 1320,-432 1373.9252,-473.7396 1438.7136,-514.0958 1491.64,-544.8446"/>
<polygon fill="none" stroke="#000000" points="1489.956,-547.9138 1500.3651,-549.8892 1493.4598,-541.8538 1489.956,-547.9138"/>
</g>
<!-- 5 -->
<g id="node6" class="node">
<title>5</title>
<polygon fill="none" stroke="#000000" points="1329.5,-175 1329.5,-409 1594.5,-409 1594.5,-175 1329.5,-175"/>
<text text-anchor="middle" x="1462" y="-393.8" font-family="Times,serif" font-size="14.00" fill="#000000">SMPyBandits.Arms.Exponential.Exponential</text>
<polyline fill="none" stroke="#000000" points="1329.5,-386 1594.5,-386 "/>
<text text-anchor="start" x="1337.5" y="-370.8" font-family="Times,serif" font-size="14.00" fill="#000000">lower_amplitude</text>
<text text-anchor="start" x="1337.5" y="-355.8" font-family="Times,serif" font-size="14.00" fill="#000000">mean</text>
<text text-anchor="start" x="1337.5" y="-340.8" font-family="Times,serif" font-size="14.00" fill="#000000">p</text>
<text text-anchor="start" x="1337.5" y="-325.8" font-family="Times,serif" font-size="14.00" fill="#000000">trunc : int</text>
<polyline fill="none" stroke="#000000" points="1329.5,-318 1594.5,-318 "/>
<text text-anchor="start" x="1337.5" y="-302.8" font-family="Times,serif" font-size="14.00" fill="#000000">__init__(p, trunc)</text>
<text text-anchor="start" x="1337.5" y="-287.8" font-family="Times,serif" font-size="14.00" fill="#000000">__repr__()</text>
<text text-anchor="start" x="1337.5" y="-272.8" font-family="Times,serif" font-size="14.00" fill="#000000">__str__()</text>
<text text-anchor="start" x="1337.5" y="-257.8" font-family="Times,serif" font-size="14.00" fill="#000000">draw(t)</text>
<text text-anchor="start" x="1337.5" y="-242.8" font-family="Times,serif" font-size="14.00" fill="#000000">draw_nparray(shape)</text>
<text text-anchor="start" x="1337.5" y="-227.8" font-family="Times,serif" font-size="14.00" fill="#000000">kl(x, y)</text>
<text text-anchor="start" x="1337.5" y="-212.8" font-family="Times,serif" font-size="14.00" fill="#000000">oneHOI(mumax, mu)</text>
<text text-anchor="start" x="1337.5" y="-197.8" font-family="Times,serif" font-size="14.00" fill="#000000">oneLR(mumax, mu)</text>
<text text-anchor="start" x="1337.5" y="-182.8" font-family="Times,serif" font-size="14.00" fill="#000000">set_mean_param(p_inv)</text>
</g>
<!-- 5&#45;&gt;0 -->
<g id="edge5" class="edge">
<title>5&#45;&gt;0</title>
<path fill="none" stroke="#000000" d="M1511.7123,-409.0705C1518.6439,-425.3941 1525.8263,-442.3084 1532.9232,-459.0214"/>
<polygon fill="none" stroke="#000000" points="1529.7248,-460.4442 1536.855,-468.2807 1536.168,-457.7081 1529.7248,-460.4442"/>
</g>
<!-- 6 -->
<g id="node7" class="node">
<title>6</title>
<polygon fill="none" stroke="#000000" points="0,-23 0,-93 326,-93 326,-23 0,-23"/>
<text text-anchor="middle" x="163" y="-77.8" font-family="Times,serif" font-size="14.00" fill="#000000">SMPyBandits.Arms.Exponential.ExponentialFromMean</text>
<polyline fill="none" stroke="#000000" points="0,-70 326,-70 "/>
<polyline fill="none" stroke="#000000" points="0,-46 326,-46 "/>
<text text-anchor="start" x="8" y="-30.8" font-family="Times,serif" font-size="14.00" fill="#000000">__init__(mean, trunc)</text>
</g>
<!-- 6&#45;&gt;5 -->
<g id="edge6" class="edge">
<title>6&#45;&gt;5</title>
<path fill="none" stroke="#000000" d="M250.9794,-93.0986C277.5598,-102.2144 307.1009,-110.8977 335,-116 442.7308,-135.7021 1219.4469,-108.6047 1320,-152 1330.5713,-156.5622 1340.7925,-162.3019 1350.5761,-168.8361"/>
<polygon fill="none" stroke="#000000" points="1348.8594,-171.9066 1359.059,-174.7732 1352.8732,-166.1717 1348.8594,-171.9066"/>
</g>
<!-- 7 -->
<g id="node8" class="node">
<title>7</title>
<polygon fill="none" stroke="#000000" points="344,-23 344,-93 672,-93 672,-23 344,-23"/>
<text text-anchor="middle" x="508" y="-77.8" font-family="Times,serif" font-size="14.00" fill="#000000">SMPyBandits.Arms.Exponential.UnboundedExponential</text>
<polyline fill="none" stroke="#000000" points="344,-70 672,-70 "/>
<polyline fill="none" stroke="#000000" points="344,-46 672,-46 "/>
<text text-anchor="start" x="352" y="-30.8" font-family="Times,serif" font-size="14.00" fill="#000000">__init__(mu)</text>
</g>
<!-- 7&#45;&gt;5 -->
<g id="edge7" class="edge">
<title>7&#45;&gt;5</title>
<path fill="none" stroke="#000000" d="M597.4638,-93.0504C623.9682,-102.0473 653.3135,-110.6788 681,-116 820.6689,-142.8439 1189.9792,-94.358 1320,-152 1330.4033,-156.6121 1340.4762,-162.348 1350.132,-168.8431"/>
<polygon fill="none" stroke="#000000" points="1348.3155,-171.8445 1358.5079,-174.7371 1352.344,-166.1199 1348.3155,-171.8445"/>
</g>
<!-- 8 -->
<g id="node9" class="node">
<title>8</title>
<polygon fill="none" stroke="#000000" points="1612.5,-167.5 1612.5,-416.5 1835.5,-416.5 1835.5,-167.5 1612.5,-167.5"/>
<text text-anchor="middle" x="1724" y="-401.3" font-family="Times,serif" font-size="14.00" fill="#000000">SMPyBandits.Arms.Gamma.Gamma</text>
<polyline fill="none" stroke="#000000" points="1612.5,-393.5 1835.5,-393.5 "/>
<text text-anchor="start" x="1620.5" y="-378.3" font-family="Times,serif" font-size="14.00" fill="#000000">lower_amplitude</text>
<text text-anchor="start" x="1620.5" y="-363.3" font-family="Times,serif" font-size="14.00" fill="#000000">max : int</text>
<text text-anchor="start" x="1620.5" y="-348.3" font-family="Times,serif" font-size="14.00" fill="#000000">mean</text>
<text text-anchor="start" x="1620.5" y="-333.3" font-family="Times,serif" font-size="14.00" fill="#000000">min : int</text>
<text text-anchor="start" x="1620.5" y="-318.3" font-family="Times,serif" font-size="14.00" fill="#000000">scale : float</text>
<text text-anchor="start" x="1620.5" y="-303.3" font-family="Times,serif" font-size="14.00" fill="#000000">shape</text>
<polyline fill="none" stroke="#000000" points="1612.5,-295.5 1835.5,-295.5 "/>
<text text-anchor="start" x="1620.5" y="-280.3" font-family="Times,serif" font-size="14.00" fill="#000000">__init__(shape, scale, mini, maxi)</text>
<text text-anchor="start" x="1620.5" y="-265.3" font-family="Times,serif" font-size="14.00" fill="#000000">__repr__()</text>
<text text-anchor="start" x="1620.5" y="-250.3" font-family="Times,serif" font-size="14.00" fill="#000000">__str__()</text>
<text text-anchor="start" x="1620.5" y="-235.3" font-family="Times,serif" font-size="14.00" fill="#000000">draw(t)</text>
<text text-anchor="start" x="1620.5" y="-220.3" font-family="Times,serif" font-size="14.00" fill="#000000">draw_nparray(shape)</text>
<text text-anchor="start" x="1620.5" y="-205.3" font-family="Times,serif" font-size="14.00" fill="#000000">kl(x, y)</text>
<text text-anchor="start" x="1620.5" y="-190.3" font-family="Times,serif" font-size="14.00" fill="#000000">oneHOI(mumax, mu)</text>
<text text-anchor="start" x="1620.5" y="-175.3" font-family="Times,serif" font-size="14.00" fill="#000000">oneLR(mumax, mu)</text>
</g>
<!-- 8&#45;&gt;0 -->
<g id="edge8" class="edge">
<title>8&#45;&gt;0</title>
<path fill="none" stroke="#000000" d="M1671.0949,-416.5895C1665.1533,-430.5817 1659.0681,-444.9123 1653.0447,-459.0969"/>
<polygon fill="none" stroke="#000000" points="1649.7847,-457.8196 1649.0977,-468.3922 1656.2279,-460.5557 1649.7847,-457.8196"/>
</g>
<!-- 9 -->
<g id="node10" class="node">
<title>9</title>
<polygon fill="none" stroke="#000000" points="690,-23 690,-93 974,-93 974,-23 690,-23"/>
<text text-anchor="middle" x="832" y="-77.8" font-family="Times,serif" font-size="14.00" fill="#000000">SMPyBandits.Arms.Gamma.GammaFromMean</text>
<polyline fill="none" stroke="#000000" points="690,-70 974,-70 "/>
<polyline fill="none" stroke="#000000" points="690,-46 974,-46 "/>
<text text-anchor="start" x="698" y="-30.8" font-family="Times,serif" font-size="14.00" fill="#000000">__init__(mean, scale, mini, maxi)</text>
</g>
<!-- 9&#45;&gt;8 -->
<g id="edge9" class="edge">
<title>9&#45;&gt;8</title>
<path fill="none" stroke="#000000" d="M909.7467,-93.1184C932.8732,-102.1168 958.5679,-110.7321 983,-116 1117.9095,-145.0886 1479.2157,-90.9741 1603,-152 1608.6728,-154.7967 1614.1887,-157.9912 1619.5383,-161.5059"/>
<polygon fill="none" stroke="#000000" points="1617.6041,-164.4242 1627.8065,-167.2812 1621.6126,-158.6855 1617.6041,-164.4242"/>
</g>
<!-- 10 -->
<g id="node11" class="node">
<title>10</title>
<polygon fill="none" stroke="#000000" points="992,-23 992,-93 1278,-93 1278,-23 992,-23"/>
<text text-anchor="middle" x="1135" y="-77.8" font-family="Times,serif" font-size="14.00" fill="#000000">SMPyBandits.Arms.Gamma.UnboundedGamma</text>
<polyline fill="none" stroke="#000000" points="992,-70 1278,-70 "/>
<polyline fill="none" stroke="#000000" points="992,-46 1278,-46 "/>
<text text-anchor="start" x="1000" y="-30.8" font-family="Times,serif" font-size="14.00" fill="#000000">__init__(shape, scale)</text>
</g>
<!-- 10&#45;&gt;8 -->
<g id="edge10" class="edge">
<title>10&#45;&gt;8</title>
<path fill="none" stroke="#000000" d="M1215.4473,-93.0034C1238.2127,-101.7198 1263.2626,-110.2167 1287,-116 1424.3356,-149.46 1477.9982,-86.0062 1603,-152 1608.2779,-154.7864 1613.4271,-157.9058 1618.4383,-161.295"/>
<polygon fill="none" stroke="#000000" points="1616.5725,-164.2638 1626.7401,-167.2425 1620.6493,-158.5734 1616.5725,-164.2638"/>
</g>
<!-- 11 -->
<g id="node12" class="node">
<title>11</title>
<polygon fill="none" stroke="#000000" points="2592.5,-160 2592.5,-424 2825.5,-424 2825.5,-160 2592.5,-160"/>
<text text-anchor="middle" x="2709" y="-408.8" font-family="Times,serif" font-size="14.00" fill="#000000">SMPyBandits.Arms.Gaussian.Gaussian</text>
<polyline fill="none" stroke="#000000" points="2592.5,-401 2825.5,-401 "/>
<text text-anchor="start" x="2600.5" y="-385.8" font-family="Times,serif" font-size="14.00" fill="#000000">lower_amplitude</text>
<text text-anchor="start" x="2600.5" y="-370.8" font-family="Times,serif" font-size="14.00" fill="#000000">max : int</text>
<text text-anchor="start" x="2600.5" y="-355.8" font-family="Times,serif" font-size="14.00" fill="#000000">mean</text>
<text text-anchor="start" x="2600.5" y="-340.8" font-family="Times,serif" font-size="14.00" fill="#000000">min : int</text>
<text text-anchor="start" x="2600.5" y="-325.8" font-family="Times,serif" font-size="14.00" fill="#000000">mu</text>
<text text-anchor="start" x="2600.5" y="-310.8" font-family="Times,serif" font-size="14.00" fill="#000000">sigma : float</text>
<polyline fill="none" stroke="#000000" points="2592.5,-303 2825.5,-303 "/>
<text text-anchor="start" x="2600.5" y="-287.8" font-family="Times,serif" font-size="14.00" fill="#000000">__init__(mu, sigma, mini, maxi)</text>
<text text-anchor="start" x="2600.5" y="-272.8" font-family="Times,serif" font-size="14.00" fill="#000000">__repr__()</text>
<text text-anchor="start" x="2600.5" y="-257.8" font-family="Times,serif" font-size="14.00" fill="#000000">__str__()</text>
<text text-anchor="start" x="2600.5" y="-242.8" font-family="Times,serif" font-size="14.00" fill="#000000">draw(t)</text>
<text text-anchor="start" x="2600.5" y="-227.8" font-family="Times,serif" font-size="14.00" fill="#000000">draw_nparray(shape)</text>
<text text-anchor="start" x="2600.5" y="-212.8" font-family="Times,serif" font-size="14.00" fill="#000000">kl(x, y)</text>
<text text-anchor="start" x="2600.5" y="-197.8" font-family="Times,serif" font-size="14.00" fill="#000000">oneHOI(mumax, mu)</text>
<text text-anchor="start" x="2600.5" y="-182.8" font-family="Times,serif" font-size="14.00" fill="#000000">oneLR(mumax, mu)</text>
<text text-anchor="start" x="2600.5" y="-167.8" font-family="Times,serif" font-size="14.00" fill="#000000">set_mean_param(mean)</text>
</g>
<!-- 11&#45;&gt;0 -->
<g id="edge11" class="edge">
<title>11&#45;&gt;0</title>
<path fill="none" stroke="#000000" d="M2592.4648,-324.2143C2373.3362,-384.7888 1903.2968,-514.7235 1695.4502,-572.1793"/>
<polygon fill="none" stroke="#000000" points="1694.4589,-568.822 1685.7529,-574.86 1696.324,-575.569 1694.4589,-568.822"/>
</g>
<!-- 12 -->
<g id="node13" class="node">
<title>12</title>
<polygon fill="none" stroke="#000000" points="1296,-23 1296,-93 1556,-93 1556,-23 1296,-23"/>
<text text-anchor="middle" x="1426" y="-77.8" font-family="Times,serif" font-size="14.00" fill="#000000">SMPyBandits.Arms.Gaussian.Gaussian_0_1</text>
<polyline fill="none" stroke="#000000" points="1296,-70 1556,-70 "/>
<polyline fill="none" stroke="#000000" points="1296,-46 1556,-46 "/>
<text text-anchor="start" x="1304" y="-30.8" font-family="Times,serif" font-size="14.00" fill="#000000">__init__(mu, sigma, mini, maxi)</text>
</g>
<!-- 12&#45;&gt;11 -->
<g id="edge12" class="edge">
<title>12&#45;&gt;11</title>
<path fill="none" stroke="#000000" d="M1499.7434,-93.061C1520.4646,-101.7241 1543.2786,-110.1795 1565,-116 1685.7673,-148.3612 1720.2731,-134.0098 1844,-152 2107.1049,-190.2561 2414.1182,-241.5273 2582.4642,-270.2131"/>
<polygon fill="none" stroke="#000000" points="2581.9121,-273.6694 2592.3582,-271.9003 2583.0889,-266.769 2581.9121,-273.6694"/>
</g>
<!-- 13 -->
<g id="node14" class="node">
<title>13</title>
<polygon fill="none" stroke="#000000" points="1574.5,-23 1574.5,-93 1841.5,-93 1841.5,-23 1574.5,-23"/>
<text text-anchor="middle" x="1708" y="-77.8" font-family="Times,serif" font-size="14.00" fill="#000000">SMPyBandits.Arms.Gaussian.Gaussian_0_10</text>
<polyline fill="none" stroke="#000000" points="1574.5,-70 1841.5,-70 "/>
<polyline fill="none" stroke="#000000" points="1574.5,-46 1841.5,-46 "/>
<text text-anchor="start" x="1582.5" y="-30.8" font-family="Times,serif" font-size="14.00" fill="#000000">__init__(mu, sigma, mini, maxi)</text>
</g>
<!-- 13&#45;&gt;11 -->
<g id="edge13" class="edge">
<title>13&#45;&gt;11</title>
<path fill="none" stroke="#000000" d="M1787.2419,-93.1421C1807.7447,-101.4004 1829.9731,-109.6377 1851,-116 2105.8991,-193.127 2413.6003,-247.0978 2582.557,-273.4983"/>
<polygon fill="none" stroke="#000000" points="2582.0682,-276.9643 2592.4874,-275.0432 2583.1443,-270.0475 2582.0682,-276.9643"/>
</g>
<!-- 14 -->
<g id="node15" class="node">
<title>14</title>
<polygon fill="none" stroke="#000000" points="1860,-23 1860,-93 2134,-93 2134,-23 1860,-23"/>
<text text-anchor="middle" x="1997" y="-77.8" font-family="Times,serif" font-size="14.00" fill="#000000">SMPyBandits.Arms.Gaussian.Gaussian_0_100</text>
<polyline fill="none" stroke="#000000" points="1860,-70 2134,-70 "/>
<polyline fill="none" stroke="#000000" points="1860,-46 2134,-46 "/>
<text text-anchor="start" x="1868" y="-30.8" font-family="Times,serif" font-size="14.00" fill="#000000">__init__(mu, sigma, mini, maxi)</text>
</g>
<!-- 14&#45;&gt;11 -->
<g id="edge14" class="edge">
<title>14&#45;&gt;11</title>
<path fill="none" stroke="#000000" d="M2082.2789,-93.1481C2102.1022,-100.964 2123.1998,-109.0002 2143,-116 2292.5406,-168.8659 2467.1859,-221.8729 2582.4971,-255.6872"/>
<polygon fill="none" stroke="#000000" points="2581.8457,-259.1434 2592.4263,-258.5944 2583.8127,-252.4254 2581.8457,-259.1434"/>
</g>
<!-- 15 -->
<g id="node16" class="node">
<title>15</title>
<polygon fill="none" stroke="#000000" points="2152,-23 2152,-93 2412,-93 2412,-23 2152,-23"/>
<text text-anchor="middle" x="2282" y="-77.8" font-family="Times,serif" font-size="14.00" fill="#000000">SMPyBandits.Arms.Gaussian.Gaussian_0_2</text>
<polyline fill="none" stroke="#000000" points="2152,-70 2412,-70 "/>
<polyline fill="none" stroke="#000000" points="2152,-46 2412,-46 "/>
<text text-anchor="start" x="2160" y="-30.8" font-family="Times,serif" font-size="14.00" fill="#000000">__init__(mu, sigma, mini, maxi)</text>
</g>
<!-- 15&#45;&gt;11 -->
<g id="edge15" class="edge">
<title>15&#45;&gt;11</title>
<path fill="none" stroke="#000000" d="M2345.9262,-93.0322C2408.4278,-127.2836 2505.2982,-180.3695 2583.2633,-223.0951"/>
<polygon fill="none" stroke="#000000" points="2581.7387,-226.2507 2592.1903,-227.9872 2585.1028,-220.112 2581.7387,-226.2507"/>
</g>
<!-- 16 -->
<g id="node17" class="node">
<title>16</title>
<polygon fill="none" stroke="#000000" points="2430,-23 2430,-93 2690,-93 2690,-23 2430,-23"/>
<text text-anchor="middle" x="2560" y="-77.8" font-family="Times,serif" font-size="14.00" fill="#000000">SMPyBandits.Arms.Gaussian.Gaussian_0_5</text>
<polyline fill="none" stroke="#000000" points="2430,-70 2690,-70 "/>
<polyline fill="none" stroke="#000000" points="2430,-46 2690,-46 "/>
<text text-anchor="start" x="2438" y="-30.8" font-family="Times,serif" font-size="14.00" fill="#000000">__init__(mu, sigma, mini, maxi)</text>
</g>
<!-- 16&#45;&gt;11 -->
<g id="edge16" class="edge">
<title>16&#45;&gt;11</title>
<path fill="none" stroke="#000000" d="M2582.3068,-93.0322C2592.6273,-109.2401 2605.6332,-129.6656 2619.3548,-151.215"/>
<polygon fill="none" stroke="#000000" points="2616.529,-153.2935 2624.8524,-159.8488 2622.4336,-149.5337 2616.529,-153.2935"/>
</g>
<!-- 17 -->
<g id="node18" class="node">
<title>17</title>
<polygon fill="none" stroke="#000000" points="2708.5,-23 2708.5,-93 3007.5,-93 3007.5,-23 2708.5,-23"/>
<text text-anchor="middle" x="2858" y="-77.8" font-family="Times,serif" font-size="14.00" fill="#000000">SMPyBandits.Arms.Gaussian.Gaussian_m100_100</text>
<polyline fill="none" stroke="#000000" points="2708.5,-70 3007.5,-70 "/>
<polyline fill="none" stroke="#000000" points="2708.5,-46 3007.5,-46 "/>
<text text-anchor="start" x="2716.5" y="-30.8" font-family="Times,serif" font-size="14.00" fill="#000000">__init__(mu, sigma, mini, maxi)</text>
</g>
<!-- 17&#45;&gt;11 -->
<g id="edge17" class="edge">
<title>17&#45;&gt;11</title>
<path fill="none" stroke="#000000" d="M2835.6932,-93.0322C2825.3727,-109.2401 2812.3668,-129.6656 2798.6452,-151.215"/>
<polygon fill="none" stroke="#000000" points="2795.5664,-149.5337 2793.1476,-159.8488 2801.471,-153.2935 2795.5664,-149.5337"/>
</g>
<!-- 18 -->
<g id="node19" class="node">
<title>18</title>
<polygon fill="none" stroke="#000000" points="3025.5,-23 3025.5,-93 3310.5,-93 3310.5,-23 3025.5,-23"/>
<text text-anchor="middle" x="3168" y="-77.8" font-family="Times,serif" font-size="14.00" fill="#000000">SMPyBandits.Arms.Gaussian.Gaussian_m10_10</text>
<polyline fill="none" stroke="#000000" points="3025.5,-70 3310.5,-70 "/>
<polyline fill="none" stroke="#000000" points="3025.5,-46 3310.5,-46 "/>
<text text-anchor="start" x="3033.5" y="-30.8" font-family="Times,serif" font-size="14.00" fill="#000000">__init__(mu, sigma, mini, maxi)</text>
</g>
<!-- 18&#45;&gt;11 -->
<g id="edge18" class="edge">
<title>18&#45;&gt;11</title>
<path fill="none" stroke="#000000" d="M3099.2831,-93.0322C3029.5984,-128.5577 2920.1699,-184.3447 2834.8948,-227.8183"/>
<polygon fill="none" stroke="#000000" points="2833.2543,-224.726 2825.9349,-232.3861 2836.4336,-230.9624 2833.2543,-224.726"/>
</g>
<!-- 19 -->
<g id="node20" class="node">
<title>19</title>
<polygon fill="none" stroke="#000000" points="3329,-23 3329,-93 3601,-93 3601,-23 3329,-23"/>
<text text-anchor="middle" x="3465" y="-77.8" font-family="Times,serif" font-size="14.00" fill="#000000">SMPyBandits.Arms.Gaussian.Gaussian_m1_1</text>
<polyline fill="none" stroke="#000000" points="3329,-70 3601,-70 "/>
<polyline fill="none" stroke="#000000" points="3329,-46 3601,-46 "/>
<text text-anchor="start" x="3337" y="-30.8" font-family="Times,serif" font-size="14.00" fill="#000000">__init__(mu, sigma, mini, maxi)</text>
</g>
<!-- 19&#45;&gt;11 -->
<g id="edge19" class="edge">
<title>19&#45;&gt;11</title>
<path fill="none" stroke="#000000" d="M3380.5971,-93.1436C3360.546,-101.0426 3339.1292,-109.1161 3319,-116 3153.8664,-172.4737 2959.6505,-226.4173 2835.4989,-259.3567"/>
<polygon fill="none" stroke="#000000" points="2834.3393,-256.043 2825.5684,-261.9862 2836.1312,-262.8098 2834.3393,-256.043"/>
</g>
<!-- 20 -->
<g id="node21" class="node">
<title>20</title>
<polygon fill="none" stroke="#000000" points="3619,-23 3619,-93 3891,-93 3891,-23 3619,-23"/>
<text text-anchor="middle" x="3755" y="-77.8" font-family="Times,serif" font-size="14.00" fill="#000000">SMPyBandits.Arms.Gaussian.Gaussian_m2_2</text>
<polyline fill="none" stroke="#000000" points="3619,-70 3891,-70 "/>
<polyline fill="none" stroke="#000000" points="3619,-46 3891,-46 "/>
<text text-anchor="start" x="3627" y="-30.8" font-family="Times,serif" font-size="14.00" fill="#000000">__init__(mu, sigma, mini, maxi)</text>
</g>
<!-- 20&#45;&gt;11 -->
<g id="edge20" class="edge">
<title>20&#45;&gt;11</title>
<path fill="none" stroke="#000000" d="M3675.0354,-93.0951C3654.1406,-101.4022 3631.455,-109.6744 3610,-116 3339.1294,-195.861 3011.5953,-249.4854 2835.5938,-274.9345"/>
<polygon fill="none" stroke="#000000" points="2834.9161,-271.4959 2825.5167,-276.3847 2835.9133,-278.4245 2834.9161,-271.4959"/>
</g>
<!-- 21 -->
<g id="node22" class="node">
<title>21</title>
<polygon fill="none" stroke="#000000" points="3909,-23 3909,-93 4181,-93 4181,-23 3909,-23"/>
<text text-anchor="middle" x="4045" y="-77.8" font-family="Times,serif" font-size="14.00" fill="#000000">SMPyBandits.Arms.Gaussian.Gaussian_m5_5</text>
<polyline fill="none" stroke="#000000" points="3909,-70 4181,-70 "/>
<polyline fill="none" stroke="#000000" points="3909,-46 4181,-46 "/>
<text text-anchor="start" x="3917" y="-30.8" font-family="Times,serif" font-size="14.00" fill="#000000">__init__(mu, sigma, mini, maxi)</text>
</g>
<!-- 21&#45;&gt;11 -->
<g id="edge21" class="edge">
<title>21&#45;&gt;11</title>
<path fill="none" stroke="#000000" d="M3967.968,-93.0633C3946.352,-101.7264 3922.5793,-110.1812 3900,-116 3774.6581,-148.3013 3739.1895,-134.0718 3611,-152 3333.8791,-190.7573 3009.9255,-242.6529 2835.5796,-271.1247"/>
<polygon fill="none" stroke="#000000" points="2834.9012,-267.6891 2825.5966,-272.7561 2836.0302,-274.5974 2834.9012,-267.6891"/>
</g>
<!-- 22 -->
<g id="node23" class="node">
<title>22</title>
<polygon fill="none" stroke="#000000" points="4199,-.5 4199,-115.5 4495,-115.5 4495,-.5 4199,-.5"/>
<text text-anchor="middle" x="4347" y="-100.3" font-family="Times,serif" font-size="14.00" fill="#000000">SMPyBandits.Arms.Gaussian.UnboundedGaussian</text>
<polyline fill="none" stroke="#000000" points="4199,-92.5 4495,-92.5 "/>
<polyline fill="none" stroke="#000000" points="4199,-68.5 4495,-68.5 "/>
<text text-anchor="start" x="4207" y="-53.3" font-family="Times,serif" font-size="14.00" fill="#000000">__init__(mu, sigma)</text>
<text text-anchor="start" x="4207" y="-38.3" font-family="Times,serif" font-size="14.00" fill="#000000">__repr__()</text>
<text text-anchor="start" x="4207" y="-23.3" font-family="Times,serif" font-size="14.00" fill="#000000">draw(t)</text>
<text text-anchor="start" x="4207" y="-8.3" font-family="Times,serif" font-size="14.00" fill="#000000">draw_nparray(shape)</text>
</g>
<!-- 22&#45;&gt;11 -->
<g id="edge22" class="edge">
<title>22&#45;&gt;11</title>
<path fill="none" stroke="#000000" d="M4198.576,-114.0793C4195.7037,-114.7584 4192.8431,-115.4 4190,-116 3937.7263,-169.2393 3867.327,-124.1984 3611,-152 3333.0067,-182.1516 3009.7136,-237.2492 2835.6346,-268.5802"/>
<polygon fill="none" stroke="#000000" points="2834.8868,-265.1585 2825.6667,-270.3777 2836.1291,-272.0474 2834.8868,-265.1585"/>
</g>
<!-- 23 -->
<g id="node24" class="node">
<title>23</title>
<polygon fill="none" stroke="#000000" points="3620,-190 3620,-394 3838,-394 3838,-190 3620,-190"/>
<text text-anchor="middle" x="3729" y="-378.8" font-family="Times,serif" font-size="14.00" fill="#000000">SMPyBandits.Arms.Poisson.Poisson</text>
<polyline fill="none" stroke="#000000" points="3620,-371 3838,-371 "/>
<text text-anchor="start" x="3628" y="-355.8" font-family="Times,serif" font-size="14.00" fill="#000000">mean : int</text>
<text text-anchor="start" x="3628" y="-340.8" font-family="Times,serif" font-size="14.00" fill="#000000">p</text>
<text text-anchor="start" x="3628" y="-325.8" font-family="Times,serif" font-size="14.00" fill="#000000">trunc : int</text>
<polyline fill="none" stroke="#000000" points="3620,-318 3838,-318 "/>
<text text-anchor="start" x="3628" y="-302.8" font-family="Times,serif" font-size="14.00" fill="#000000">__init__(p, trunc)</text>
<text text-anchor="start" x="3628" y="-287.8" font-family="Times,serif" font-size="14.00" fill="#000000">__repr__()</text>
<text text-anchor="start" x="3628" y="-272.8" font-family="Times,serif" font-size="14.00" fill="#000000">__str__()</text>
<text text-anchor="start" x="3628" y="-257.8" font-family="Times,serif" font-size="14.00" fill="#000000">draw(t)</text>
<text text-anchor="start" x="3628" y="-242.8" font-family="Times,serif" font-size="14.00" fill="#000000">draw_nparray(shape)</text>
<text text-anchor="start" x="3628" y="-227.8" font-family="Times,serif" font-size="14.00" fill="#000000">kl(x, y)</text>
<text text-anchor="start" x="3628" y="-212.8" font-family="Times,serif" font-size="14.00" fill="#000000">oneLR(mumax, mu)</text>
<text text-anchor="start" x="3628" y="-197.8" font-family="Times,serif" font-size="14.00" fill="#000000">set_mean_param(p)</text>
</g>
<!-- 23&#45;&gt;0 -->
<g id="edge23" class="edge">
<title>23&#45;&gt;0</title>
<path fill="none" stroke="#000000" d="M3619.9217,-309.7906C3451.4748,-337.0995 3117.8114,-390.5392 2834,-432 2412.2315,-493.6144 1908.6818,-559.6741 1695.936,-587.2391"/>
<polygon fill="none" stroke="#000000" points="1695.1867,-583.8068 1685.7191,-588.5623 1696.0858,-590.7489 1695.1867,-583.8068"/>
</g>
<!-- 24 -->
<g id="node25" class="node">
<title>24</title>
<polygon fill="none" stroke="#000000" points="4513.5,-23 4513.5,-93 4794.5,-93 4794.5,-23 4513.5,-23"/>
<text text-anchor="middle" x="4654" y="-77.8" font-family="Times,serif" font-size="14.00" fill="#000000">SMPyBandits.Arms.Poisson.UnboundedPoisson</text>
<polyline fill="none" stroke="#000000" points="4513.5,-70 4794.5,-70 "/>
<polyline fill="none" stroke="#000000" points="4513.5,-46 4794.5,-46 "/>
<text text-anchor="start" x="4521.5" y="-30.8" font-family="Times,serif" font-size="14.00" fill="#000000">__init__(p)</text>
</g>
<!-- 24&#45;&gt;23 -->
<g id="edge24" class="edge">
<title>24&#45;&gt;23</title>
<path fill="none" stroke="#000000" d="M4569.8728,-93.0025C4548.591,-101.1702 4525.6313,-109.4002 4504,-116 4275.4338,-185.7369 4001.4065,-241.6717 3848.0516,-270.5599"/>
<polygon fill="none" stroke="#000000" points="3847.309,-267.1381 3838.1266,-272.4235 3848.6008,-274.0179 3847.309,-267.1381"/>
</g>
<!-- 25 -->
<g id="node26" class="node">
<title>25</title>
<polygon fill="none" stroke="#000000" points="5399,-227.5 5399,-356.5 5739,-356.5 5739,-227.5 5399,-227.5"/>
<text text-anchor="middle" x="5569" y="-341.3" font-family="Times,serif" font-size="14.00" fill="#000000">SMPyBandits.Arms.RestedRottingArm.RestedRottingArm</text>
<polyline fill="none" stroke="#000000" points="5399,-333.5 5739,-333.5 "/>
<text text-anchor="start" x="5407" y="-318.3" font-family="Times,serif" font-size="14.00" fill="#000000">arm</text>
<text text-anchor="start" x="5407" y="-303.3" font-family="Times,serif" font-size="14.00" fill="#000000">decayingFunction</text>
<text text-anchor="start" x="5407" y="-288.3" font-family="Times,serif" font-size="14.00" fill="#000000">mean</text>
<text text-anchor="start" x="5407" y="-273.3" font-family="Times,serif" font-size="14.00" fill="#000000">pull_count : int</text>
<polyline fill="none" stroke="#000000" points="5399,-265.5 5739,-265.5 "/>
<text text-anchor="start" x="5407" y="-250.3" font-family="Times,serif" font-size="14.00" fill="#000000">__init__(decayingFunction, staticArm)</text>
<text text-anchor="start" x="5407" y="-235.3" font-family="Times,serif" font-size="14.00" fill="#000000">draw(t)</text>
</g>
<!-- 25&#45;&gt;0 -->
<g id="edge25" class="edge">
<title>25&#45;&gt;0</title>
<path fill="none" stroke="#000000" d="M5398.8555,-306.202C5089.8411,-331.9132 4415.7287,-387.6235 3847,-432 3017.0848,-496.7563 2014.858,-569.8941 1695.759,-593.0573"/>
<polygon fill="none" stroke="#000000" points="1695.327,-589.5794 1685.6067,-593.7941 1695.8338,-596.561 1695.327,-589.5794"/>
</g>
<!-- 26 -->
<g id="node27" class="node">
<title>26</title>
<polygon fill="none" stroke="#000000" points="4812.5,-23 4812.5,-93 5177.5,-93 5177.5,-23 4812.5,-23"/>
<text text-anchor="middle" x="4995" y="-77.8" font-family="Times,serif" font-size="14.00" fill="#000000">SMPyBandits.Arms.RestedRottingArm.RestedRottingBernoulli</text>
<polyline fill="none" stroke="#000000" points="4812.5,-70 5177.5,-70 "/>
<polyline fill="none" stroke="#000000" points="4812.5,-46 5177.5,-46 "/>
<text text-anchor="start" x="4820.5" y="-30.8" font-family="Times,serif" font-size="14.00" fill="#000000">__init__(decayingFunction)</text>
</g>
<!-- 26&#45;&gt;25 -->
<g id="edge26" class="edge">
<title>26&#45;&gt;25</title>
<path fill="none" stroke="#000000" d="M5080.9336,-93.0322C5165.2544,-127.4068 5296.1087,-180.7516 5401.1069,-223.5558"/>
<polygon fill="none" stroke="#000000" points="5399.9598,-226.8677 5410.5411,-227.4018 5402.6023,-220.3857 5399.9598,-226.8677"/>
</g>
<!-- 27 -->
<g id="node28" class="node">
<title>27</title>
<polygon fill="none" stroke="#000000" points="5195.5,-23 5195.5,-93 5560.5,-93 5560.5,-23 5195.5,-23"/>
<text text-anchor="middle" x="5378" y="-77.8" font-family="Times,serif" font-size="14.00" fill="#000000">SMPyBandits.Arms.RestedRottingArm.RestedRottingBinomial</text>
<polyline fill="none" stroke="#000000" points="5195.5,-70 5560.5,-70 "/>
<polyline fill="none" stroke="#000000" points="5195.5,-46 5560.5,-46 "/>
<text text-anchor="start" x="5203.5" y="-30.8" font-family="Times,serif" font-size="14.00" fill="#000000">__init__(decayingFunction, draws)</text>
</g>
<!-- 27&#45;&gt;25 -->
<g id="edge27" class="edge">
<title>27&#45;&gt;25</title>
<path fill="none" stroke="#000000" d="M5406.5946,-93.0322C5433.676,-126.2104 5475.1824,-177.0611 5509.4546,-219.0491"/>
<polygon fill="none" stroke="#000000" points="5506.9503,-221.5161 5515.9851,-227.0498 5512.3732,-217.0897 5506.9503,-221.5161"/>
</g>
<!-- 28 -->
<g id="node29" class="node">
<title>28</title>
<polygon fill="none" stroke="#000000" points="5579,-23 5579,-93 5941,-93 5941,-23 5579,-23"/>
<text text-anchor="middle" x="5760" y="-77.8" font-family="Times,serif" font-size="14.00" fill="#000000">SMPyBandits.Arms.RestedRottingArm.RestedRottingConstant</text>
<polyline fill="none" stroke="#000000" points="5579,-70 5941,-70 "/>
<polyline fill="none" stroke="#000000" points="5579,-46 5941,-46 "/>
<text text-anchor="start" x="5587" y="-30.8" font-family="Times,serif" font-size="14.00" fill="#000000">__init__(decayingFunction)</text>
</g>
<!-- 28&#45;&gt;25 -->
<g id="edge28" class="edge">
<title>28&#45;&gt;25</title>
<path fill="none" stroke="#000000" d="M5731.4054,-93.0322C5704.324,-126.2104 5662.8176,-177.0611 5628.5454,-219.0491"/>
<polygon fill="none" stroke="#000000" points="5625.6268,-217.0897 5622.0149,-227.0498 5631.0497,-221.5161 5625.6268,-217.0897"/>
</g>
<!-- 29 -->
<g id="node30" class="node">
<title>29</title>
<polygon fill="none" stroke="#000000" points="5959,-23 5959,-93 6339,-93 6339,-23 5959,-23"/>
<text text-anchor="middle" x="6149" y="-77.8" font-family="Times,serif" font-size="14.00" fill="#000000">SMPyBandits.Arms.RestedRottingArm.RestedRottingExponential</text>
<polyline fill="none" stroke="#000000" points="5959,-70 6339,-70 "/>
<polyline fill="none" stroke="#000000" points="5959,-46 6339,-46 "/>
<text text-anchor="start" x="5967" y="-30.8" font-family="Times,serif" font-size="14.00" fill="#000000">__init__(decayingFunction)</text>
</g>
<!-- 29&#45;&gt;25 -->
<g id="edge29" class="edge">
<title>29&#45;&gt;25</title>
<path fill="none" stroke="#000000" d="M6036.6866,-93.0151C6008.5377,-101.1597 5978.2937,-109.3757 5950,-116 5861.2087,-136.7884 5831.2647,-114.8107 5748,-152 5710.3027,-168.8371 5673.5139,-195.3032 5643.1902,-220.7125"/>
<polygon fill="none" stroke="#000000" points="5640.5697,-218.3465 5635.2197,-227.4914 5645.1048,-223.6788 5640.5697,-218.3465"/>
</g>
<!-- 30 -->
<g id="node31" class="node">
<title>30</title>
<polygon fill="none" stroke="#000000" points="6357,-23 6357,-93 6721,-93 6721,-23 6357,-23"/>
<text text-anchor="middle" x="6539" y="-77.8" font-family="Times,serif" font-size="14.00" fill="#000000">SMPyBandits.Arms.RestedRottingArm.RestedRottingGaussian</text>
<polyline fill="none" stroke="#000000" points="6357,-70 6721,-70 "/>
<polyline fill="none" stroke="#000000" points="6357,-46 6721,-46 "/>
<text text-anchor="start" x="6365" y="-30.8" font-family="Times,serif" font-size="14.00" fill="#000000">__init__(decayingFunction, sigma)</text>
</g>
<!-- 30&#45;&gt;25 -->
<g id="edge30" class="edge">
<title>30&#45;&gt;25</title>
<path fill="none" stroke="#000000" d="M6439.4685,-93.0477C6410.3309,-101.987 6378.1884,-110.5886 6348,-116 6216.5225,-139.5681 5872.924,-104.7161 5748,-152 5708.2021,-167.0635 5670.1648,-194.2859 5639.4691,-220.7474"/>
<polygon fill="none" stroke="#000000" points="5637.0367,-218.2254 5631.8267,-227.4507 5641.6526,-223.4879 5637.0367,-218.2254"/>
</g>
<!-- 31 -->
<g id="node32" class="node">
<title>31</title>
<polygon fill="none" stroke="#000000" points="6739,-23 6739,-93 7095,-93 7095,-23 6739,-23"/>
<text text-anchor="middle" x="6917" y="-77.8" font-family="Times,serif" font-size="14.00" fill="#000000">SMPyBandits.Arms.RestedRottingArm.RestedRottingPoisson</text>
<polyline fill="none" stroke="#000000" points="6739,-70 7095,-70 "/>
<polyline fill="none" stroke="#000000" points="6739,-46 7095,-46 "/>
<text text-anchor="start" x="6747" y="-30.8" font-family="Times,serif" font-size="14.00" fill="#000000">__init__(decayingFunction, sigma)</text>
</g>
<!-- 31&#45;&gt;25 -->
<g id="edge31" class="edge">
<title>31&#45;&gt;25</title>
<path fill="none" stroke="#000000" d="M6821.1277,-93.0556C6792.2232,-102.1702 6760.1576,-110.8637 6730,-116 6514.7311,-152.6638 5953.1152,-77.082 5748,-152 5707.8587,-166.6616 5669.6396,-193.9808 5638.9029,-220.6211"/>
<polygon fill="none" stroke="#000000" points="5636.4355,-218.1305 5631.253,-227.3713 5641.067,-223.3792 5636.4355,-218.1305"/>
</g>
<!-- 32 -->
<g id="node33" class="node">
<title>32</title>
<polygon fill="none" stroke="#000000" points="5757,-197.5 5757,-386.5 6037,-386.5 6037,-197.5 5757,-197.5"/>
<text text-anchor="middle" x="5897" y="-371.3" font-family="Times,serif" font-size="14.00" fill="#000000">SMPyBandits.Arms.UniformArm.UniformArm</text>
<polyline fill="none" stroke="#000000" points="5757,-363.5 6037,-363.5 "/>
<text text-anchor="start" x="5765" y="-348.3" font-family="Times,serif" font-size="14.00" fill="#000000">amplitude</text>
<text text-anchor="start" x="5765" y="-333.3" font-family="Times,serif" font-size="14.00" fill="#000000">lower</text>
<text text-anchor="start" x="5765" y="-318.3" font-family="Times,serif" font-size="14.00" fill="#000000">mean</text>
<polyline fill="none" stroke="#000000" points="5757,-310.5 6037,-310.5 "/>
<text text-anchor="start" x="5765" y="-295.3" font-family="Times,serif" font-size="14.00" fill="#000000">__init__(mini, maxi, mean, lower, amplitude)</text>
<text text-anchor="start" x="5765" y="-280.3" font-family="Times,serif" font-size="14.00" fill="#000000">__repr__()</text>
<text text-anchor="start" x="5765" y="-265.3" font-family="Times,serif" font-size="14.00" fill="#000000">__str__()</text>
<text text-anchor="start" x="5765" y="-250.3" font-family="Times,serif" font-size="14.00" fill="#000000">draw(t)</text>
<text text-anchor="start" x="5765" y="-235.3" font-family="Times,serif" font-size="14.00" fill="#000000">draw_nparray(shape)</text>
<text text-anchor="start" x="5765" y="-220.3" font-family="Times,serif" font-size="14.00" fill="#000000">kl(x, y)</text>
<text text-anchor="start" x="5765" y="-205.3" font-family="Times,serif" font-size="14.00" fill="#000000">oneLR(mumax, mu)</text>
</g>
<!-- 32&#45;&gt;0 -->
<g id="edge32" class="edge">
<title>32&#45;&gt;0</title>
<path fill="none" stroke="#000000" d="M5816.4913,-386.8248C5796.1114,-404.9793 5772.8742,-421.5596 5748,-432 5555.5178,-512.7906 2318.4403,-585.1539 1696.049,-598.3562"/>
<polygon fill="none" stroke="#000000" points="1695.6799,-594.8631 1685.7563,-598.5742 1695.8282,-601.8616 1695.6799,-594.8631"/>
</g>
</g>
</svg>
