<?xml version="1.0" encoding="UTF-8" standalone="no"?>
<!DOCTYPE svg PUBLIC "-//W3C//DTD SVG 1.1//EN"
 "http://www.w3.org/Graphics/SVG/1.1/DTD/svg11.dtd">
<!-- Generated by graphviz version 2.40.1 (20161225.0304)
 -->
<!-- Title: classes_SMPyBandits.Arms Pages: 1 -->
<svg width="5142pt" height="711pt"
 viewBox="0.00 0.00 5141.50 711.00" xmlns="http://www.w3.org/2000/svg" xmlns:xlink="http://www.w3.org/1999/xlink">
<g id="graph0" class="graph" transform="scale(1 1) rotate(0) translate(4 707)">
<title>classes_SMPyBandits.Arms</title>
<polygon fill="#ffffff" stroke="transparent" points="-4,4 -4,-707 5137.5,-707 5137.5,4 -4,4"/>
<!-- 0 -->
<g id="node1" class="node">
<title>0</title>
<polygon fill="none" stroke="#000000" points="1119.5,-468.5 1119.5,-702.5 1304.5,-702.5 1304.5,-468.5 1119.5,-468.5"/>
<text text-anchor="middle" x="1212" y="-687.3" font-family="Times,serif" font-size="14.00" fill="#000000">SMPyBandits.Arms.Arm.Arm</text>
<polyline fill="none" stroke="#000000" points="1119.5,-679.5 1304.5,-679.5 "/>
<text text-anchor="start" x="1127.5" y="-664.3" font-family="Times,serif" font-size="14.00" fill="#000000">amplitude : float</text>
<text text-anchor="start" x="1127.5" y="-649.3" font-family="Times,serif" font-size="14.00" fill="#000000">lower : float</text>
<text text-anchor="start" x="1127.5" y="-634.3" font-family="Times,serif" font-size="14.00" fill="#000000">lower_amplitude</text>
<text text-anchor="start" x="1127.5" y="-619.3" font-family="Times,serif" font-size="14.00" fill="#000000">max : float</text>
<text text-anchor="start" x="1127.5" y="-604.3" font-family="Times,serif" font-size="14.00" fill="#000000">min : float</text>
<polyline fill="none" stroke="#000000" points="1119.5,-596.5 1304.5,-596.5 "/>
<text text-anchor="start" x="1127.5" y="-581.3" font-family="Times,serif" font-size="14.00" fill="#000000">__init__(lower, amplitude)</text>
<text text-anchor="start" x="1127.5" y="-566.3" font-family="Times,serif" font-size="14.00" fill="#000000">__repr__()</text>
<text text-anchor="start" x="1127.5" y="-551.3" font-family="Times,serif" font-size="14.00" fill="#000000">__str__()</text>
<text text-anchor="start" x="1127.5" y="-536.3" font-family="Times,serif" font-size="14.00" fill="#000000">draw(t)</text>
<text text-anchor="start" x="1127.5" y="-521.3" font-family="Times,serif" font-size="14.00" fill="#000000">draw_nparray(shape)</text>
<text text-anchor="start" x="1127.5" y="-506.3" font-family="Times,serif" font-size="14.00" fill="#000000">kl(x, y)</text>
<text text-anchor="start" x="1127.5" y="-491.3" font-family="Times,serif" font-size="14.00" fill="#000000">oneHOI(mumax, mu)</text>
<text text-anchor="start" x="1127.5" y="-476.3" font-family="Times,serif" font-size="14.00" fill="#000000">oneLR(mumax, mu)</text>
</g>
<!-- 1 -->
<g id="node2" class="node">
<title>1</title>
<polygon fill="none" stroke="#000000" points="0,-197.5 0,-386.5 236,-386.5 236,-197.5 0,-197.5"/>
<text text-anchor="middle" x="118" y="-371.3" font-family="Times,serif" font-size="14.00" fill="#000000">SMPyBandits.Arms.Bernoulli.Bernoulli</text>
<polyline fill="none" stroke="#000000" points="0,-363.5 236,-363.5 "/>
<text text-anchor="start" x="8" y="-348.3" font-family="Times,serif" font-size="14.00" fill="#000000">lower_amplitude</text>
<text text-anchor="start" x="8" y="-333.3" font-family="Times,serif" font-size="14.00" fill="#000000">mean</text>
<text text-anchor="start" x="8" y="-318.3" font-family="Times,serif" font-size="14.00" fill="#000000">probability</text>
<polyline fill="none" stroke="#000000" points="0,-310.5 236,-310.5 "/>
<text text-anchor="start" x="8" y="-295.3" font-family="Times,serif" font-size="14.00" fill="#000000">__init__(probability)</text>
<text text-anchor="start" x="8" y="-280.3" font-family="Times,serif" font-size="14.00" fill="#000000">__repr__()</text>
<text text-anchor="start" x="8" y="-265.3" font-family="Times,serif" font-size="14.00" fill="#000000">__str__()</text>
<text text-anchor="start" x="8" y="-250.3" font-family="Times,serif" font-size="14.00" fill="#000000">draw(t)</text>
<text text-anchor="start" x="8" y="-235.3" font-family="Times,serif" font-size="14.00" fill="#000000">draw_nparray(shape)</text>
<text text-anchor="start" x="8" y="-220.3" font-family="Times,serif" font-size="14.00" fill="#000000">kl(x, y)</text>
<text text-anchor="start" x="8" y="-205.3" font-family="Times,serif" font-size="14.00" fill="#000000">oneLR(mumax, mu)</text>
</g>
<!-- 1&#45;&gt;0 -->
<g id="edge1" class="edge">
<title>1&#45;&gt;0</title>
<path fill="none" stroke="#000000" d="M187.2577,-386.5127C204.2814,-404.1011 223.7837,-420.5267 245,-432 393.1966,-512.1417 891.6878,-560.2078 1109.1295,-577.8205"/>
<polygon fill="none" stroke="#000000" points="1109.0204,-581.323 1119.2689,-578.6362 1109.5818,-574.3455 1109.0204,-581.323"/>
</g>
<!-- 2 -->
<g id="node3" class="node">
<title>2</title>
<polygon fill="none" stroke="#000000" points="254,-190 254,-394 490,-394 490,-190 254,-190"/>
<text text-anchor="middle" x="372" y="-378.8" font-family="Times,serif" font-size="14.00" fill="#000000">SMPyBandits.Arms.Binomial.Binomial</text>
<polyline fill="none" stroke="#000000" points="254,-371 490,-371 "/>
<text text-anchor="start" x="262" y="-355.8" font-family="Times,serif" font-size="14.00" fill="#000000">draws : int</text>
<text text-anchor="start" x="262" y="-340.8" font-family="Times,serif" font-size="14.00" fill="#000000">lower_amplitude</text>
<text text-anchor="start" x="262" y="-325.8" font-family="Times,serif" font-size="14.00" fill="#000000">mean</text>
<text text-anchor="start" x="262" y="-310.8" font-family="Times,serif" font-size="14.00" fill="#000000">probability</text>
<polyline fill="none" stroke="#000000" points="254,-303 490,-303 "/>
<text text-anchor="start" x="262" y="-287.8" font-family="Times,serif" font-size="14.00" fill="#000000">__init__(probability, draws)</text>
<text text-anchor="start" x="262" y="-272.8" font-family="Times,serif" font-size="14.00" fill="#000000">__repr__()</text>
<text text-anchor="start" x="262" y="-257.8" font-family="Times,serif" font-size="14.00" fill="#000000">__str__()</text>
<text text-anchor="start" x="262" y="-242.8" font-family="Times,serif" font-size="14.00" fill="#000000">draw(t)</text>
<text text-anchor="start" x="262" y="-227.8" font-family="Times,serif" font-size="14.00" fill="#000000">draw_nparray(shape)</text>
<text text-anchor="start" x="262" y="-212.8" font-family="Times,serif" font-size="14.00" fill="#000000">kl(x, y)</text>
<text text-anchor="start" x="262" y="-197.8" font-family="Times,serif" font-size="14.00" fill="#000000">oneLR(mumax, mu)</text>
</g>
<!-- 2&#45;&gt;0 -->
<g id="edge2" class="edge">
<title>2&#45;&gt;0</title>
<path fill="none" stroke="#000000" d="M450.2562,-394.1846C465.1036,-408.6013 481.5164,-421.9186 499,-432 602.0456,-491.418 937.8821,-546.3004 1109.3083,-571.3003"/>
<polygon fill="none" stroke="#000000" points="1108.9549,-574.7856 1119.354,-572.7585 1109.9605,-567.8582 1108.9549,-574.7856"/>
</g>
<!-- 3 -->
<g id="node4" class="node">
<title>3</title>
<polygon fill="none" stroke="#000000" points="508,-190 508,-394 768,-394 768,-190 508,-190"/>
<text text-anchor="middle" x="638" y="-378.8" font-family="Times,serif" font-size="14.00" fill="#000000">SMPyBandits.Arms.Constant.Constant</text>
<polyline fill="none" stroke="#000000" points="508,-371 768,-371 "/>
<text text-anchor="start" x="516" y="-355.8" font-family="Times,serif" font-size="14.00" fill="#000000">amplitude : float</text>
<text text-anchor="start" x="516" y="-340.8" font-family="Times,serif" font-size="14.00" fill="#000000">constant_reward : float</text>
<text text-anchor="start" x="516" y="-325.8" font-family="Times,serif" font-size="14.00" fill="#000000">lower</text>
<text text-anchor="start" x="516" y="-310.8" font-family="Times,serif" font-size="14.00" fill="#000000">mean : float</text>
<polyline fill="none" stroke="#000000" points="508,-303 768,-303 "/>
<text text-anchor="start" x="516" y="-287.8" font-family="Times,serif" font-size="14.00" fill="#000000">__init__(constant_reward, lower, amplitude)</text>
<text text-anchor="start" x="516" y="-272.8" font-family="Times,serif" font-size="14.00" fill="#000000">__repr__()</text>
<text text-anchor="start" x="516" y="-257.8" font-family="Times,serif" font-size="14.00" fill="#000000">__str__()</text>
<text text-anchor="start" x="516" y="-242.8" font-family="Times,serif" font-size="14.00" fill="#000000">draw(t)</text>
<text text-anchor="start" x="516" y="-227.8" font-family="Times,serif" font-size="14.00" fill="#000000">draw_nparray(shape)</text>
<text text-anchor="start" x="516" y="-212.8" font-family="Times,serif" font-size="14.00" fill="#000000">kl(x, y)</text>
<text text-anchor="start" x="516" y="-197.8" font-family="Times,serif" font-size="14.00" fill="#000000">oneLR(mumax, mu)</text>
</g>
<!-- 3&#45;&gt;0 -->
<g id="edge3" class="edge">
<title>3&#45;&gt;0</title>
<path fill="none" stroke="#000000" d="M728.3082,-394.2806C743.6155,-408.1597 760.0677,-421.2872 777,-432 881.1499,-497.8942 1017.279,-540.0355 1109.3022,-563.1692"/>
<polygon fill="none" stroke="#000000" points="1108.6333,-566.6094 1119.1821,-565.6225 1110.3203,-559.8157 1108.6333,-566.6094"/>
</g>
<!-- 4 -->
<g id="node5" class="node">
<title>4</title>
<polygon fill="none" stroke="#000000" points="786.5,-152.5 786.5,-431.5 1061.5,-431.5 1061.5,-152.5 786.5,-152.5"/>
<text text-anchor="middle" x="924" y="-416.3" font-family="Times,serif" font-size="14.00" fill="#000000">SMPyBandits.Arms.DiscreteArm.DiscreteArm</text>
<polyline fill="none" stroke="#000000" points="786.5,-408.5 1061.5,-408.5 "/>
<text text-anchor="start" x="794.5" y="-393.3" font-family="Times,serif" font-size="14.00" fill="#000000">_amplitude</text>
<text text-anchor="start" x="794.5" y="-378.3" font-family="Times,serif" font-size="14.00" fill="#000000">_items : list</text>
<text text-anchor="start" x="794.5" y="-363.3" font-family="Times,serif" font-size="14.00" fill="#000000">_lower</text>
<text text-anchor="start" x="794.5" y="-348.3" font-family="Times,serif" font-size="14.00" fill="#000000">_probabilities : ndarray</text>
<text text-anchor="start" x="794.5" y="-333.3" font-family="Times,serif" font-size="14.00" fill="#000000">_values : ndarray</text>
<text text-anchor="start" x="794.5" y="-318.3" font-family="Times,serif" font-size="14.00" fill="#000000">_values_to_proba</text>
<text text-anchor="start" x="794.5" y="-303.3" font-family="Times,serif" font-size="14.00" fill="#000000">lower_amplitude</text>
<text text-anchor="start" x="794.5" y="-288.3" font-family="Times,serif" font-size="14.00" fill="#000000">mean</text>
<text text-anchor="start" x="794.5" y="-273.3" font-family="Times,serif" font-size="14.00" fill="#000000">size : int</text>
<polyline fill="none" stroke="#000000" points="786.5,-265.5 1061.5,-265.5 "/>
<text text-anchor="start" x="794.5" y="-250.3" font-family="Times,serif" font-size="14.00" fill="#000000">__init__(values_to_proba)</text>
<text text-anchor="start" x="794.5" y="-235.3" font-family="Times,serif" font-size="14.00" fill="#000000">__repr__()</text>
<text text-anchor="start" x="794.5" y="-220.3" font-family="Times,serif" font-size="14.00" fill="#000000">__str__()</text>
<text text-anchor="start" x="794.5" y="-205.3" font-family="Times,serif" font-size="14.00" fill="#000000">draw(t)</text>
<text text-anchor="start" x="794.5" y="-190.3" font-family="Times,serif" font-size="14.00" fill="#000000">draw_nparray(shape)</text>
<text text-anchor="start" x="794.5" y="-175.3" font-family="Times,serif" font-size="14.00" fill="#000000">kl(x, y)</text>
<text text-anchor="start" x="794.5" y="-160.3" font-family="Times,serif" font-size="14.00" fill="#000000">oneLR(mumax, mu)</text>
</g>
<!-- 4&#45;&gt;0 -->
<g id="edge4" class="edge">
<title>4&#45;&gt;0</title>
<path fill="none" stroke="#000000" d="M1061.2522,-431.8733C1078.4927,-449.443 1095.8624,-467.1445 1112.37,-483.9673"/>
<polygon fill="none" stroke="#000000" points="1109.8869,-486.4341 1119.389,-491.1204 1114.8833,-481.5313 1109.8869,-486.4341"/>
</g>
<!-- 5 -->
<g id="node6" class="node">
<title>5</title>
<polygon fill="none" stroke="#000000" points="1079.5,-182.5 1079.5,-401.5 1344.5,-401.5 1344.5,-182.5 1079.5,-182.5"/>
<text text-anchor="middle" x="1212" y="-386.3" font-family="Times,serif" font-size="14.00" fill="#000000">SMPyBandits.Arms.Exponential.Exponential</text>
<polyline fill="none" stroke="#000000" points="1079.5,-378.5 1344.5,-378.5 "/>
<text text-anchor="start" x="1087.5" y="-363.3" font-family="Times,serif" font-size="14.00" fill="#000000">lower_amplitude</text>
<text text-anchor="start" x="1087.5" y="-348.3" font-family="Times,serif" font-size="14.00" fill="#000000">mean</text>
<text text-anchor="start" x="1087.5" y="-333.3" font-family="Times,serif" font-size="14.00" fill="#000000">p</text>
<text text-anchor="start" x="1087.5" y="-318.3" font-family="Times,serif" font-size="14.00" fill="#000000">trunc : int</text>
<polyline fill="none" stroke="#000000" points="1079.5,-310.5 1344.5,-310.5 "/>
<text text-anchor="start" x="1087.5" y="-295.3" font-family="Times,serif" font-size="14.00" fill="#000000">__init__(p, trunc)</text>
<text text-anchor="start" x="1087.5" y="-280.3" font-family="Times,serif" font-size="14.00" fill="#000000">__repr__()</text>
<text text-anchor="start" x="1087.5" y="-265.3" font-family="Times,serif" font-size="14.00" fill="#000000">__str__()</text>
<text text-anchor="start" x="1087.5" y="-250.3" font-family="Times,serif" font-size="14.00" fill="#000000">draw(t)</text>
<text text-anchor="start" x="1087.5" y="-235.3" font-family="Times,serif" font-size="14.00" fill="#000000">draw_nparray(shape)</text>
<text text-anchor="start" x="1087.5" y="-220.3" font-family="Times,serif" font-size="14.00" fill="#000000">kl(x, y)</text>
<text text-anchor="start" x="1087.5" y="-205.3" font-family="Times,serif" font-size="14.00" fill="#000000">oneHOI(mumax, mu)</text>
<text text-anchor="start" x="1087.5" y="-190.3" font-family="Times,serif" font-size="14.00" fill="#000000">oneLR(mumax, mu)</text>
</g>
<!-- 5&#45;&gt;0 -->
<g id="edge5" class="edge">
<title>5&#45;&gt;0</title>
<path fill="none" stroke="#000000" d="M1212,-401.7059C1212,-420.0621 1212,-439.2457 1212,-458.0023"/>
<polygon fill="none" stroke="#000000" points="1208.5001,-458.0666 1212,-468.0667 1215.5001,-458.0667 1208.5001,-458.0666"/>
</g>
<!-- 6 -->
<g id="node7" class="node">
<title>6</title>
<polygon fill="none" stroke="#000000" points="339,-23 339,-93 665,-93 665,-23 339,-23"/>
<text text-anchor="middle" x="502" y="-77.8" font-family="Times,serif" font-size="14.00" fill="#000000">SMPyBandits.Arms.Exponential.ExponentialFromMean</text>
<polyline fill="none" stroke="#000000" points="339,-70 665,-70 "/>
<polyline fill="none" stroke="#000000" points="339,-46 665,-46 "/>
<text text-anchor="start" x="347" y="-30.8" font-family="Times,serif" font-size="14.00" fill="#000000">__init__(mean, trunc)</text>
</g>
<!-- 6&#45;&gt;5 -->
<g id="edge6" class="edge">
<title>6&#45;&gt;5</title>
<path fill="none" stroke="#000000" d="M592.8346,-93.0568C618.7166,-101.8282 647.1742,-110.3398 674,-116 846.9185,-152.4854 909.6942,-77.6088 1070,-152 1083.7818,-158.3955 1097.0115,-166.7128 1109.4734,-176.1048"/>
<polygon fill="none" stroke="#000000" points="1107.517,-179.018 1117.5499,-182.4225 1111.8299,-173.5044 1107.517,-179.018"/>
</g>
<!-- 7 -->
<g id="node8" class="node">
<title>7</title>
<polygon fill="none" stroke="#000000" points="683,-23 683,-93 1011,-93 1011,-23 683,-23"/>
<text text-anchor="middle" x="847" y="-77.8" font-family="Times,serif" font-size="14.00" fill="#000000">SMPyBandits.Arms.Exponential.UnboundedExponential</text>
<polyline fill="none" stroke="#000000" points="683,-70 1011,-70 "/>
<polyline fill="none" stroke="#000000" points="683,-46 1011,-46 "/>
<text text-anchor="start" x="691" y="-30.8" font-family="Times,serif" font-size="14.00" fill="#000000">__init__(mu)</text>
</g>
<!-- 7&#45;&gt;5 -->
<g id="edge7" class="edge">
<title>7&#45;&gt;5</title>
<path fill="none" stroke="#000000" d="M952.7462,-93.0701C991.2975,-108.2574 1034.1827,-128.0901 1070,-152 1080.7841,-159.1989 1091.4521,-167.288 1101.8071,-175.8527"/>
<polygon fill="none" stroke="#000000" points="1099.7638,-178.7082 1109.6615,-182.4879 1104.2812,-173.3609 1099.7638,-178.7082"/>
</g>
<!-- 8 -->
<g id="node9" class="node">
<title>8</title>
<polygon fill="none" stroke="#000000" points="1362.5,-167.5 1362.5,-416.5 1585.5,-416.5 1585.5,-167.5 1362.5,-167.5"/>
<text text-anchor="middle" x="1474" y="-401.3" font-family="Times,serif" font-size="14.00" fill="#000000">SMPyBandits.Arms.Gamma.Gamma</text>
<polyline fill="none" stroke="#000000" points="1362.5,-393.5 1585.5,-393.5 "/>
<text text-anchor="start" x="1370.5" y="-378.3" font-family="Times,serif" font-size="14.00" fill="#000000">lower_amplitude</text>
<text text-anchor="start" x="1370.5" y="-363.3" font-family="Times,serif" font-size="14.00" fill="#000000">max : int</text>
<text text-anchor="start" x="1370.5" y="-348.3" font-family="Times,serif" font-size="14.00" fill="#000000">mean</text>
<text text-anchor="start" x="1370.5" y="-333.3" font-family="Times,serif" font-size="14.00" fill="#000000">min : int</text>
<text text-anchor="start" x="1370.5" y="-318.3" font-family="Times,serif" font-size="14.00" fill="#000000">scale : float</text>
<text text-anchor="start" x="1370.5" y="-303.3" font-family="Times,serif" font-size="14.00" fill="#000000">shape</text>
<polyline fill="none" stroke="#000000" points="1362.5,-295.5 1585.5,-295.5 "/>
<text text-anchor="start" x="1370.5" y="-280.3" font-family="Times,serif" font-size="14.00" fill="#000000">__init__(shape, scale, mini, maxi)</text>
<text text-anchor="start" x="1370.5" y="-265.3" font-family="Times,serif" font-size="14.00" fill="#000000">__repr__()</text>
<text text-anchor="start" x="1370.5" y="-250.3" font-family="Times,serif" font-size="14.00" fill="#000000">__str__()</text>
<text text-anchor="start" x="1370.5" y="-235.3" font-family="Times,serif" font-size="14.00" fill="#000000">draw(t)</text>
<text text-anchor="start" x="1370.5" y="-220.3" font-family="Times,serif" font-size="14.00" fill="#000000">draw_nparray(shape)</text>
<text text-anchor="start" x="1370.5" y="-205.3" font-family="Times,serif" font-size="14.00" fill="#000000">kl(x, y)</text>
<text text-anchor="start" x="1370.5" y="-190.3" font-family="Times,serif" font-size="14.00" fill="#000000">oneHOI(mumax, mu)</text>
<text text-anchor="start" x="1370.5" y="-175.3" font-family="Times,serif" font-size="14.00" fill="#000000">oneLR(mumax, mu)</text>
</g>
<!-- 8&#45;&gt;0 -->
<g id="edge8" class="edge">
<title>8&#45;&gt;0</title>
<path fill="none" stroke="#000000" d="M1366.6551,-416.5951C1362.0542,-421.8106 1357.4881,-426.9631 1353,-432 1339.6562,-446.9752 1325.4806,-462.6618 1311.4588,-478.0497"/>
<polygon fill="none" stroke="#000000" points="1308.7469,-475.8291 1304.5921,-485.5753 1313.9179,-480.5473 1308.7469,-475.8291"/>
</g>
<!-- 9 -->
<g id="node10" class="node">
<title>9</title>
<polygon fill="none" stroke="#000000" points="1029,-23 1029,-93 1313,-93 1313,-23 1029,-23"/>
<text text-anchor="middle" x="1171" y="-77.8" font-family="Times,serif" font-size="14.00" fill="#000000">SMPyBandits.Arms.Gamma.GammaFromMean</text>
<polyline fill="none" stroke="#000000" points="1029,-70 1313,-70 "/>
<polyline fill="none" stroke="#000000" points="1029,-46 1313,-46 "/>
<text text-anchor="start" x="1037" y="-30.8" font-family="Times,serif" font-size="14.00" fill="#000000">__init__(mean, scale, mini, maxi)</text>
</g>
<!-- 9&#45;&gt;8 -->
<g id="edge9" class="edge">
<title>9&#45;&gt;8</title>
<path fill="none" stroke="#000000" d="M1255.1929,-93.187C1287.4419,-108.7313 1323.5317,-128.7777 1353,-152 1356.4064,-154.6844 1359.79,-157.4749 1363.1437,-160.3531"/>
<polygon fill="none" stroke="#000000" points="1361.1009,-163.2187 1370.9116,-167.2188 1365.7367,-157.9737 1361.1009,-163.2187"/>
</g>
<!-- 10 -->
<g id="node11" class="node">
<title>10</title>
<polygon fill="none" stroke="#000000" points="1331,-23 1331,-93 1617,-93 1617,-23 1331,-23"/>
<text text-anchor="middle" x="1474" y="-77.8" font-family="Times,serif" font-size="14.00" fill="#000000">SMPyBandits.Arms.Gamma.UnboundedGamma</text>
<polyline fill="none" stroke="#000000" points="1331,-70 1617,-70 "/>
<polyline fill="none" stroke="#000000" points="1331,-46 1617,-46 "/>
<text text-anchor="start" x="1339" y="-30.8" font-family="Times,serif" font-size="14.00" fill="#000000">__init__(shape, scale)</text>
</g>
<!-- 10&#45;&gt;8 -->
<g id="edge10" class="edge">
<title>10&#45;&gt;8</title>
<path fill="none" stroke="#000000" d="M1474,-93.0322C1474,-110.7143 1474,-133.416 1474,-157.1205"/>
<polygon fill="none" stroke="#000000" points="1470.5001,-157.3293 1474,-167.3293 1477.5001,-157.3293 1470.5001,-157.3293"/>
</g>
<!-- 11 -->
<g id="node12" class="node">
<title>11</title>
<polygon fill="none" stroke="#000000" points="2782.5,-167.5 2782.5,-416.5 3015.5,-416.5 3015.5,-167.5 2782.5,-167.5"/>
<text text-anchor="middle" x="2899" y="-401.3" font-family="Times,serif" font-size="14.00" fill="#000000">SMPyBandits.Arms.Gaussian.Gaussian</text>
<polyline fill="none" stroke="#000000" points="2782.5,-393.5 3015.5,-393.5 "/>
<text text-anchor="start" x="2790.5" y="-378.3" font-family="Times,serif" font-size="14.00" fill="#000000">lower_amplitude</text>
<text text-anchor="start" x="2790.5" y="-363.3" font-family="Times,serif" font-size="14.00" fill="#000000">max : int</text>
<text text-anchor="start" x="2790.5" y="-348.3" font-family="Times,serif" font-size="14.00" fill="#000000">mean</text>
<text text-anchor="start" x="2790.5" y="-333.3" font-family="Times,serif" font-size="14.00" fill="#000000">min : int</text>
<text text-anchor="start" x="2790.5" y="-318.3" font-family="Times,serif" font-size="14.00" fill="#000000">mu</text>
<text text-anchor="start" x="2790.5" y="-303.3" font-family="Times,serif" font-size="14.00" fill="#000000">sigma : float</text>
<polyline fill="none" stroke="#000000" points="2782.5,-295.5 3015.5,-295.5 "/>
<text text-anchor="start" x="2790.5" y="-280.3" font-family="Times,serif" font-size="14.00" fill="#000000">__init__(mu, sigma, mini, maxi)</text>
<text text-anchor="start" x="2790.5" y="-265.3" font-family="Times,serif" font-size="14.00" fill="#000000">__repr__()</text>
<text text-anchor="start" x="2790.5" y="-250.3" font-family="Times,serif" font-size="14.00" fill="#000000">__str__()</text>
<text text-anchor="start" x="2790.5" y="-235.3" font-family="Times,serif" font-size="14.00" fill="#000000">draw(t)</text>
<text text-anchor="start" x="2790.5" y="-220.3" font-family="Times,serif" font-size="14.00" fill="#000000">draw_nparray(shape)</text>
<text text-anchor="start" x="2790.5" y="-205.3" font-family="Times,serif" font-size="14.00" fill="#000000">kl(x, y)</text>
<text text-anchor="start" x="2790.5" y="-190.3" font-family="Times,serif" font-size="14.00" fill="#000000">oneHOI(mumax, mu)</text>
<text text-anchor="start" x="2790.5" y="-175.3" font-family="Times,serif" font-size="14.00" fill="#000000">oneLR(mumax, mu)</text>
</g>
<!-- 11&#45;&gt;0 -->
<g id="edge11" class="edge">
<title>11&#45;&gt;0</title>
<path fill="none" stroke="#000000" d="M2782.3801,-312.2892C2468.7828,-366.8481 1611.1457,-516.0576 1314.5423,-567.6599"/>
<polygon fill="none" stroke="#000000" points="1313.9067,-564.2179 1304.6546,-569.3802 1315.1065,-571.1143 1313.9067,-564.2179"/>
</g>
<!-- 12 -->
<g id="node13" class="node">
<title>12</title>
<polygon fill="none" stroke="#000000" points="1635,-23 1635,-93 1895,-93 1895,-23 1635,-23"/>
<text text-anchor="middle" x="1765" y="-77.8" font-family="Times,serif" font-size="14.00" fill="#000000">SMPyBandits.Arms.Gaussian.Gaussian_0_1</text>
<polyline fill="none" stroke="#000000" points="1635,-70 1895,-70 "/>
<polyline fill="none" stroke="#000000" points="1635,-46 1895,-46 "/>
<text text-anchor="start" x="1643" y="-30.8" font-family="Times,serif" font-size="14.00" fill="#000000">__init__(mu, sigma, mini, maxi)</text>
</g>
<!-- 12&#45;&gt;11 -->
<g id="edge12" class="edge">
<title>12&#45;&gt;11</title>
<path fill="none" stroke="#000000" d="M1840.7434,-93.1466C1860.9758,-101.5512 1883.0479,-109.8573 1904,-116 2209.126,-205.4567 2580.9788,-256.4676 2772.1051,-278.6288"/>
<polygon fill="none" stroke="#000000" points="2771.8544,-282.123 2782.1894,-279.7907 2772.6558,-275.169 2771.8544,-282.123"/>
</g>
<!-- 13 -->
<g id="node14" class="node">
<title>13</title>
<polygon fill="none" stroke="#000000" points="1913.5,-23 1913.5,-93 2180.5,-93 2180.5,-23 1913.5,-23"/>
<text text-anchor="middle" x="2047" y="-77.8" font-family="Times,serif" font-size="14.00" fill="#000000">SMPyBandits.Arms.Gaussian.Gaussian_0_10</text>
<polyline fill="none" stroke="#000000" points="1913.5,-70 2180.5,-70 "/>
<polyline fill="none" stroke="#000000" points="1913.5,-46 2180.5,-46 "/>
<text text-anchor="start" x="1921.5" y="-30.8" font-family="Times,serif" font-size="14.00" fill="#000000">__init__(mu, sigma, mini, maxi)</text>
</g>
<!-- 13&#45;&gt;11 -->
<g id="edge13" class="edge">
<title>13&#45;&gt;11</title>
<path fill="none" stroke="#000000" d="M2127.5554,-93.0006C2147.739,-101.1229 2169.4901,-109.3323 2190,-116 2390.3829,-181.1438 2629.2875,-235.8599 2772.3195,-266.2464"/>
<polygon fill="none" stroke="#000000" points="2771.942,-269.744 2782.4502,-268.392 2773.3924,-262.8959 2771.942,-269.744"/>
</g>
<!-- 14 -->
<g id="node15" class="node">
<title>14</title>
<polygon fill="none" stroke="#000000" points="2199,-23 2199,-93 2473,-93 2473,-23 2199,-23"/>
<text text-anchor="middle" x="2336" y="-77.8" font-family="Times,serif" font-size="14.00" fill="#000000">SMPyBandits.Arms.Gaussian.Gaussian_0_100</text>
<polyline fill="none" stroke="#000000" points="2199,-70 2473,-70 "/>
<polyline fill="none" stroke="#000000" points="2199,-46 2473,-46 "/>
<text text-anchor="start" x="2207" y="-30.8" font-family="Times,serif" font-size="14.00" fill="#000000">__init__(mu, sigma, mini, maxi)</text>
</g>
<!-- 14&#45;&gt;11 -->
<g id="edge14" class="edge">
<title>14&#45;&gt;11</title>
<path fill="none" stroke="#000000" d="M2420.2868,-93.0322C2513.7307,-131.8703 2665.4391,-194.9249 2773.0039,-239.6322"/>
<polygon fill="none" stroke="#000000" points="2771.7165,-242.8873 2782.294,-243.4934 2774.4031,-236.4234 2771.7165,-242.8873"/>
</g>
<!-- 15 -->
<g id="node16" class="node">
<title>15</title>
<polygon fill="none" stroke="#000000" points="2491,-23 2491,-93 2751,-93 2751,-23 2491,-23"/>
<text text-anchor="middle" x="2621" y="-77.8" font-family="Times,serif" font-size="14.00" fill="#000000">SMPyBandits.Arms.Gaussian.Gaussian_0_2</text>
<polyline fill="none" stroke="#000000" points="2491,-70 2751,-70 "/>
<polyline fill="none" stroke="#000000" points="2491,-46 2751,-46 "/>
<text text-anchor="start" x="2499" y="-30.8" font-family="Times,serif" font-size="14.00" fill="#000000">__init__(mu, sigma, mini, maxi)</text>
</g>
<!-- 15&#45;&gt;11 -->
<g id="edge15" class="edge">
<title>15&#45;&gt;11</title>
<path fill="none" stroke="#000000" d="M2662.6194,-93.0322C2692.5022,-118.1853 2734.4522,-153.4958 2774.7331,-187.4013"/>
<polygon fill="none" stroke="#000000" points="2772.5924,-190.1742 2782.4968,-193.9362 2777.1002,-184.8188 2772.5924,-190.1742"/>
</g>
<!-- 16 -->
<g id="node17" class="node">
<title>16</title>
<polygon fill="none" stroke="#000000" points="2769,-23 2769,-93 3029,-93 3029,-23 2769,-23"/>
<text text-anchor="middle" x="2899" y="-77.8" font-family="Times,serif" font-size="14.00" fill="#000000">SMPyBandits.Arms.Gaussian.Gaussian_0_5</text>
<polyline fill="none" stroke="#000000" points="2769,-70 3029,-70 "/>
<polyline fill="none" stroke="#000000" points="2769,-46 3029,-46 "/>
<text text-anchor="start" x="2777" y="-30.8" font-family="Times,serif" font-size="14.00" fill="#000000">__init__(mu, sigma, mini, maxi)</text>
</g>
<!-- 16&#45;&gt;11 -->
<g id="edge16" class="edge">
<title>16&#45;&gt;11</title>
<path fill="none" stroke="#000000" d="M2899,-93.0322C2899,-110.7143 2899,-133.416 2899,-157.1205"/>
<polygon fill="none" stroke="#000000" points="2895.5001,-157.3293 2899,-167.3293 2902.5001,-157.3293 2895.5001,-157.3293"/>
</g>
<!-- 17 -->
<g id="node18" class="node">
<title>17</title>
<polygon fill="none" stroke="#000000" points="3047.5,-23 3047.5,-93 3346.5,-93 3346.5,-23 3047.5,-23"/>
<text text-anchor="middle" x="3197" y="-77.8" font-family="Times,serif" font-size="14.00" fill="#000000">SMPyBandits.Arms.Gaussian.Gaussian_m100_100</text>
<polyline fill="none" stroke="#000000" points="3047.5,-70 3346.5,-70 "/>
<polyline fill="none" stroke="#000000" points="3047.5,-46 3346.5,-46 "/>
<text text-anchor="start" x="3055.5" y="-30.8" font-family="Times,serif" font-size="14.00" fill="#000000">__init__(mu, sigma, mini, maxi)</text>
</g>
<!-- 17&#45;&gt;11 -->
<g id="edge17" class="edge">
<title>17&#45;&gt;11</title>
<path fill="none" stroke="#000000" d="M3119.9133,-93.0691C3088.9448,-108.9125 3053.8281,-129.2043 3025,-152 3021.4411,-154.8142 3017.8979,-157.7345 3014.379,-160.7413"/>
<polygon fill="none" stroke="#000000" points="3011.9326,-158.2314 3006.718,-167.4542 3016.5458,-163.4963 3011.9326,-158.2314"/>
</g>
<!-- 18 -->
<g id="node19" class="node">
<title>18</title>
<polygon fill="none" stroke="#000000" points="3364.5,-23 3364.5,-93 3649.5,-93 3649.5,-23 3364.5,-23"/>
<text text-anchor="middle" x="3507" y="-77.8" font-family="Times,serif" font-size="14.00" fill="#000000">SMPyBandits.Arms.Gaussian.Gaussian_m10_10</text>
<polyline fill="none" stroke="#000000" points="3364.5,-70 3649.5,-70 "/>
<polyline fill="none" stroke="#000000" points="3364.5,-46 3649.5,-46 "/>
<text text-anchor="start" x="3372.5" y="-30.8" font-family="Times,serif" font-size="14.00" fill="#000000">__init__(mu, sigma, mini, maxi)</text>
</g>
<!-- 18&#45;&gt;11 -->
<g id="edge18" class="edge">
<title>18&#45;&gt;11</title>
<path fill="none" stroke="#000000" d="M3427.1191,-93.092C3404.5037,-101.809 3379.6094,-110.2841 3356,-116 3212.1764,-150.8202 3156.7207,-84.5661 3025,-152 3019.365,-154.8848 3013.8618,-158.1339 3008.5025,-161.6757"/>
<polygon fill="none" stroke="#000000" points="3006.3964,-158.8775 3000.2011,-167.4721 3010.4039,-164.6168 3006.3964,-158.8775"/>
</g>
<!-- 19 -->
<g id="node20" class="node">
<title>19</title>
<polygon fill="none" stroke="#000000" points="3668,-23 3668,-93 3940,-93 3940,-23 3668,-23"/>
<text text-anchor="middle" x="3804" y="-77.8" font-family="Times,serif" font-size="14.00" fill="#000000">SMPyBandits.Arms.Gaussian.Gaussian_m1_1</text>
<polyline fill="none" stroke="#000000" points="3668,-70 3940,-70 "/>
<polyline fill="none" stroke="#000000" points="3668,-46 3940,-46 "/>
<text text-anchor="start" x="3676" y="-30.8" font-family="Times,serif" font-size="14.00" fill="#000000">__init__(mu, sigma, mini, maxi)</text>
</g>
<!-- 19&#45;&gt;11 -->
<g id="edge19" class="edge">
<title>19&#45;&gt;11</title>
<path fill="none" stroke="#000000" d="M3729.8376,-93.0109C3707.5363,-102.0652 3682.6884,-110.7373 3659,-116 3521.2429,-146.6047 3152.2295,-90.9563 3025,-152 3019.1957,-154.7848 3013.539,-157.9694 3008.0415,-161.4756"/>
<polygon fill="none" stroke="#000000" points="3005.8507,-158.7322 2999.5352,-167.239 3009.7771,-164.5273 3005.8507,-158.7322"/>
</g>
<!-- 20 -->
<g id="node21" class="node">
<title>20</title>
<polygon fill="none" stroke="#000000" points="3958,-23 3958,-93 4230,-93 4230,-23 3958,-23"/>
<text text-anchor="middle" x="4094" y="-77.8" font-family="Times,serif" font-size="14.00" fill="#000000">SMPyBandits.Arms.Gaussian.Gaussian_m2_2</text>
<polyline fill="none" stroke="#000000" points="3958,-70 4230,-70 "/>
<polyline fill="none" stroke="#000000" points="3958,-46 4230,-46 "/>
<text text-anchor="start" x="3966" y="-30.8" font-family="Times,serif" font-size="14.00" fill="#000000">__init__(mu, sigma, mini, maxi)</text>
</g>
<!-- 20&#45;&gt;11 -->
<g id="edge20" class="edge">
<title>20&#45;&gt;11</title>
<path fill="none" stroke="#000000" d="M4020.2693,-93.1265C3997.8738,-102.2431 3972.8669,-110.9199 3949,-116 3848.5067,-137.3904 3118.0255,-108.3801 3025,-152 3019.0741,-154.7787 3013.3045,-157.9787 3007.7032,-161.5171"/>
<polygon fill="none" stroke="#000000" points="3005.3848,-158.8584 2999.0411,-167.3443 3009.292,-164.6665 3005.3848,-158.8584"/>
</g>
<!-- 21 -->
<g id="node22" class="node">
<title>21</title>
<polygon fill="none" stroke="#000000" points="4248,-23 4248,-93 4520,-93 4520,-23 4248,-23"/>
<text text-anchor="middle" x="4384" y="-77.8" font-family="Times,serif" font-size="14.00" fill="#000000">SMPyBandits.Arms.Gaussian.Gaussian_m5_5</text>
<polyline fill="none" stroke="#000000" points="4248,-70 4520,-70 "/>
<polyline fill="none" stroke="#000000" points="4248,-46 4520,-46 "/>
<text text-anchor="start" x="4256" y="-30.8" font-family="Times,serif" font-size="14.00" fill="#000000">__init__(mu, sigma, mini, maxi)</text>
</g>
<!-- 21&#45;&gt;11 -->
<g id="edge21" class="edge">
<title>21&#45;&gt;11</title>
<path fill="none" stroke="#000000" d="M4310.6718,-93.1144C4288.182,-102.2909 4263.0229,-111.0032 4239,-116 4106.8796,-143.481 3147.4479,-95.2767 3025,-152 3019.0612,-154.7511 3013.2808,-157.9279 3007.6704,-161.4469"/>
<polygon fill="none" stroke="#000000" points="3005.3636,-158.7789 2998.9956,-167.2465 3009.2541,-164.5982 3005.3636,-158.7789"/>
</g>
<!-- 22 -->
<g id="node23" class="node">
<title>22</title>
<polygon fill="none" stroke="#000000" points="4538,-.5 4538,-115.5 4834,-115.5 4834,-.5 4538,-.5"/>
<text text-anchor="middle" x="4686" y="-100.3" font-family="Times,serif" font-size="14.00" fill="#000000">SMPyBandits.Arms.Gaussian.UnboundedGaussian</text>
<polyline fill="none" stroke="#000000" points="4538,-92.5 4834,-92.5 "/>
<polyline fill="none" stroke="#000000" points="4538,-68.5 4834,-68.5 "/>
<text text-anchor="start" x="4546" y="-53.3" font-family="Times,serif" font-size="14.00" fill="#000000">__init__(mu, sigma)</text>
<text text-anchor="start" x="4546" y="-38.3" font-family="Times,serif" font-size="14.00" fill="#000000">__repr__()</text>
<text text-anchor="start" x="4546" y="-23.3" font-family="Times,serif" font-size="14.00" fill="#000000">draw(t)</text>
<text text-anchor="start" x="4546" y="-8.3" font-family="Times,serif" font-size="14.00" fill="#000000">draw_nparray(shape)</text>
</g>
<!-- 22&#45;&gt;11 -->
<g id="edge22" class="edge">
<title>22&#45;&gt;11</title>
<path fill="none" stroke="#000000" d="M4537.6063,-114.2299C4534.7247,-114.8628 4531.8541,-115.4544 4529,-116 4364.8147,-147.3895 3176.8751,-82.171 3025,-152 3018.812,-154.8451 3012.7968,-158.154 3006.9674,-161.8324"/>
<polygon fill="none" stroke="#000000" points="3004.9133,-158.9957 2998.5609,-167.4749 3008.8145,-164.8078 3004.9133,-158.9957"/>
</g>
<!-- 23 -->
<g id="node24" class="node">
<title>23</title>
<polygon fill="none" stroke="#000000" points="3034,-197.5 3034,-386.5 3252,-386.5 3252,-197.5 3034,-197.5"/>
<text text-anchor="middle" x="3143" y="-371.3" font-family="Times,serif" font-size="14.00" fill="#000000">SMPyBandits.Arms.Poisson.Poisson</text>
<polyline fill="none" stroke="#000000" points="3034,-363.5 3252,-363.5 "/>
<text text-anchor="start" x="3042" y="-348.3" font-family="Times,serif" font-size="14.00" fill="#000000">mean : int</text>
<text text-anchor="start" x="3042" y="-333.3" font-family="Times,serif" font-size="14.00" fill="#000000">p</text>
<text text-anchor="start" x="3042" y="-318.3" font-family="Times,serif" font-size="14.00" fill="#000000">trunc : int</text>
<polyline fill="none" stroke="#000000" points="3034,-310.5 3252,-310.5 "/>
<text text-anchor="start" x="3042" y="-295.3" font-family="Times,serif" font-size="14.00" fill="#000000">__init__(p, trunc)</text>
<text text-anchor="start" x="3042" y="-280.3" font-family="Times,serif" font-size="14.00" fill="#000000">__repr__()</text>
<text text-anchor="start" x="3042" y="-265.3" font-family="Times,serif" font-size="14.00" fill="#000000">__str__()</text>
<text text-anchor="start" x="3042" y="-250.3" font-family="Times,serif" font-size="14.00" fill="#000000">draw(t)</text>
<text text-anchor="start" x="3042" y="-235.3" font-family="Times,serif" font-size="14.00" fill="#000000">draw_nparray(shape)</text>
<text text-anchor="start" x="3042" y="-220.3" font-family="Times,serif" font-size="14.00" fill="#000000">kl(x, y)</text>
<text text-anchor="start" x="3042" y="-205.3" font-family="Times,serif" font-size="14.00" fill="#000000">oneLR(mumax, mu)</text>
</g>
<!-- 23&#45;&gt;0 -->
<g id="edge23" class="edge">
<title>23&#45;&gt;0</title>
<path fill="none" stroke="#000000" d="M3080.5575,-386.5699C3064.2932,-404.4992 3045.2716,-421.0497 3024,-432 2871.7366,-510.3831 1675.8989,-566.1659 1314.8624,-581.3511"/>
<polygon fill="none" stroke="#000000" points="1314.5282,-577.8619 1304.6835,-581.7777 1314.8214,-584.8558 1314.5282,-577.8619"/>
</g>
<!-- 24 -->
<g id="node25" class="node">
<title>24</title>
<polygon fill="none" stroke="#000000" points="4852.5,-23 4852.5,-93 5133.5,-93 5133.5,-23 4852.5,-23"/>
<text text-anchor="middle" x="4993" y="-77.8" font-family="Times,serif" font-size="14.00" fill="#000000">SMPyBandits.Arms.Poisson.UnboundedPoisson</text>
<polyline fill="none" stroke="#000000" points="4852.5,-70 5133.5,-70 "/>
<polyline fill="none" stroke="#000000" points="4852.5,-46 5133.5,-46 "/>
<text text-anchor="start" x="4860.5" y="-30.8" font-family="Times,serif" font-size="14.00" fill="#000000">__init__(p)</text>
</g>
<!-- 24&#45;&gt;23 -->
<g id="edge24" class="edge">
<title>24&#45;&gt;23</title>
<path fill="none" stroke="#000000" d="M4917.4456,-93.0618C4894.0797,-102.2975 4867.922,-111.0555 4843,-116 4670.5382,-150.2163 3419.5781,-76.0604 3261,-152 3242.2751,-160.9669 3225.4241,-174.471 3210.7096,-189.6135"/>
<polygon fill="none" stroke="#000000" points="3207.9246,-187.4678 3203.6589,-197.166 3213.0414,-192.2447 3207.9246,-187.4678"/>
</g>
<!-- 25 -->
<g id="node26" class="node">
<title>25</title>
<polygon fill="none" stroke="#000000" points="3270,-197.5 3270,-386.5 3550,-386.5 3550,-197.5 3270,-197.5"/>
<text text-anchor="middle" x="3410" y="-371.3" font-family="Times,serif" font-size="14.00" fill="#000000">SMPyBandits.Arms.UniformArm.UniformArm</text>
<polyline fill="none" stroke="#000000" points="3270,-363.5 3550,-363.5 "/>
<text text-anchor="start" x="3278" y="-348.3" font-family="Times,serif" font-size="14.00" fill="#000000">amplitude</text>
<text text-anchor="start" x="3278" y="-333.3" font-family="Times,serif" font-size="14.00" fill="#000000">lower</text>
<text text-anchor="start" x="3278" y="-318.3" font-family="Times,serif" font-size="14.00" fill="#000000">mean</text>
<polyline fill="none" stroke="#000000" points="3270,-310.5 3550,-310.5 "/>
<text text-anchor="start" x="3278" y="-295.3" font-family="Times,serif" font-size="14.00" fill="#000000">__init__(mini, maxi, mean, lower, amplitude)</text>
<text text-anchor="start" x="3278" y="-280.3" font-family="Times,serif" font-size="14.00" fill="#000000">__repr__()</text>
<text text-anchor="start" x="3278" y="-265.3" font-family="Times,serif" font-size="14.00" fill="#000000">__str__()</text>
<text text-anchor="start" x="3278" y="-250.3" font-family="Times,serif" font-size="14.00" fill="#000000">draw(t)</text>
<text text-anchor="start" x="3278" y="-235.3" font-family="Times,serif" font-size="14.00" fill="#000000">draw_nparray(shape)</text>
<text text-anchor="start" x="3278" y="-220.3" font-family="Times,serif" font-size="14.00" fill="#000000">kl(x, y)</text>
<text text-anchor="start" x="3278" y="-205.3" font-family="Times,serif" font-size="14.00" fill="#000000">oneLR(mumax, mu)</text>
</g>
<!-- 25&#45;&gt;0 -->
<g id="edge25" class="edge">
<title>25&#45;&gt;0</title>
<path fill="none" stroke="#000000" d="M3328.8185,-386.5542C3308.5501,-404.6027 3285.5293,-421.2067 3261,-432 3081.9333,-510.7923 1705.2043,-567.2624 1314.8616,-581.8103"/>
<polygon fill="none" stroke="#000000" points="1314.5754,-578.3184 1304.7123,-582.1874 1314.8354,-585.3136 1314.5754,-578.3184"/>
</g>
</g>
</svg>
