<?xml version="1.0" encoding="UTF-8" standalone="no"?>
<!DOCTYPE svg PUBLIC "-//W3C//DTD SVG 1.1//EN"
 "http://www.w3.org/Graphics/SVG/1.1/DTD/svg11.dtd">
<!-- Generated by graphviz version 2.38.0 (20140413.2041)
 -->
<!-- Title: classes_AlgoBandits Pages: 1 -->
<svg width="4183pt" height="589pt"
 viewBox="0.00 0.00 4183.00 589.00" xmlns="http://www.w3.org/2000/svg" xmlns:xlink="http://www.w3.org/1999/xlink">
<g id="graph0" class="graph" transform="scale(1 1) rotate(0) translate(4 585)">
<title>classes_AlgoBandits</title>
<polygon fill="white" stroke="none" points="-4,4 -4,-585 4179,-585 4179,4 -4,4"/>
<!-- 0 -->
<g id="node1" class="node"><title>0</title>
<polygon fill="none" stroke="black" points="0,-105.5 0,-234.5 157,-234.5 157,-105.5 0,-105.5"/>
<text text-anchor="middle" x="78.5" y="-219.3" font-family="Times,serif" font-size="14.00">Arms.Bernoulli.Bernoulli</text>
<polyline fill="none" stroke="black" points="0,-211.5 157,-211.5 "/>
<text text-anchor="start" x="8" y="-196.3" font-family="Times,serif" font-size="14.00">probability</text>
<polyline fill="none" stroke="black" points="0,-188.5 157,-188.5 "/>
<text text-anchor="start" x="8" y="-173.3" font-family="Times,serif" font-size="14.00">__init__()</text>
<text text-anchor="start" x="8" y="-158.3" font-family="Times,serif" font-size="14.00">__repr__()</text>
<text text-anchor="start" x="8" y="-143.3" font-family="Times,serif" font-size="14.00">__str__()</text>
<text text-anchor="start" x="8" y="-128.3" font-family="Times,serif" font-size="14.00">draw()</text>
<text text-anchor="start" x="8" y="-113.3" font-family="Times,serif" font-size="14.00">mean()</text>
</g>
<!-- 1 -->
<g id="node2" class="node"><title>1</title>
<polygon fill="none" stroke="black" points="175,-90.5 175,-249.5 360,-249.5 360,-90.5 175,-90.5"/>
<text text-anchor="middle" x="267.5" y="-234.3" font-family="Times,serif" font-size="14.00">Arms.Exponential.Exponential</text>
<polyline fill="none" stroke="black" points="175,-226.5 360,-226.5 "/>
<text text-anchor="start" x="183" y="-211.3" font-family="Times,serif" font-size="14.00">expectation</text>
<text text-anchor="start" x="183" y="-196.3" font-family="Times,serif" font-size="14.00">p</text>
<text text-anchor="start" x="183" y="-181.3" font-family="Times,serif" font-size="14.00">trunc : float</text>
<polyline fill="none" stroke="black" points="175,-173.5 360,-173.5 "/>
<text text-anchor="start" x="183" y="-158.3" font-family="Times,serif" font-size="14.00">__init__()</text>
<text text-anchor="start" x="183" y="-143.3" font-family="Times,serif" font-size="14.00">__repr__()</text>
<text text-anchor="start" x="183" y="-128.3" font-family="Times,serif" font-size="14.00">__str__()</text>
<text text-anchor="start" x="183" y="-113.3" font-family="Times,serif" font-size="14.00">draw()</text>
<text text-anchor="start" x="183" y="-98.3" font-family="Times,serif" font-size="14.00">mean()</text>
</g>
<!-- 2 -->
<g id="node3" class="node"><title>2</title>
<polygon fill="none" stroke="black" points="378.5,-90.5 378.5,-249.5 532.5,-249.5 532.5,-90.5 378.5,-90.5"/>
<text text-anchor="middle" x="455.5" y="-234.3" font-family="Times,serif" font-size="14.00">Arms.Gaussian.Gaussian</text>
<polyline fill="none" stroke="black" points="378.5,-226.5 532.5,-226.5 "/>
<text text-anchor="start" x="386.5" y="-211.3" font-family="Times,serif" font-size="14.00">expectation</text>
<text text-anchor="start" x="386.5" y="-196.3" font-family="Times,serif" font-size="14.00">mu</text>
<text text-anchor="start" x="386.5" y="-181.3" font-family="Times,serif" font-size="14.00">sigma</text>
<polyline fill="none" stroke="black" points="378.5,-173.5 532.5,-173.5 "/>
<text text-anchor="start" x="386.5" y="-158.3" font-family="Times,serif" font-size="14.00">__init__()</text>
<text text-anchor="start" x="386.5" y="-143.3" font-family="Times,serif" font-size="14.00">__repr__()</text>
<text text-anchor="start" x="386.5" y="-128.3" font-family="Times,serif" font-size="14.00">__str__()</text>
<text text-anchor="start" x="386.5" y="-113.3" font-family="Times,serif" font-size="14.00">draw()</text>
<text text-anchor="start" x="386.5" y="-98.3" font-family="Times,serif" font-size="14.00">mean()</text>
</g>
<!-- 3 -->
<g id="node4" class="node"><title>3</title>
<polygon fill="none" stroke="black" points="551,-90.5 551,-249.5 690,-249.5 690,-90.5 551,-90.5"/>
<text text-anchor="middle" x="620.5" y="-234.3" font-family="Times,serif" font-size="14.00">Arms.Poisson.Poisson</text>
<polyline fill="none" stroke="black" points="551,-226.5 690,-226.5 "/>
<text text-anchor="start" x="559" y="-211.3" font-family="Times,serif" font-size="14.00">expectation : int</text>
<text text-anchor="start" x="559" y="-196.3" font-family="Times,serif" font-size="14.00">p</text>
<text text-anchor="start" x="559" y="-181.3" font-family="Times,serif" font-size="14.00">trunc : float</text>
<polyline fill="none" stroke="black" points="551,-173.5 690,-173.5 "/>
<text text-anchor="start" x="559" y="-158.3" font-family="Times,serif" font-size="14.00">__init__()</text>
<text text-anchor="start" x="559" y="-143.3" font-family="Times,serif" font-size="14.00">__repr__()</text>
<text text-anchor="start" x="559" y="-128.3" font-family="Times,serif" font-size="14.00">__str__()</text>
<text text-anchor="start" x="559" y="-113.3" font-family="Times,serif" font-size="14.00">draw()</text>
<text text-anchor="start" x="559" y="-98.3" font-family="Times,serif" font-size="14.00">mean()</text>
</g>
<!-- 4 -->
<g id="node5" class="node"><title>4</title>
<polygon fill="none" stroke="black" points="708.5,-15.5 708.5,-324.5 908.5,-324.5 908.5,-15.5 708.5,-15.5"/>
<text text-anchor="middle" x="808.5" y="-309.3" font-family="Times,serif" font-size="14.00">Environment.Evaluator.Evaluator</text>
<polyline fill="none" stroke="black" points="708.5,-301.5 908.5,-301.5 "/>
<text text-anchor="start" x="716.5" y="-286.3" font-family="Times,serif" font-size="14.00">averageOn : float</text>
<text text-anchor="start" x="716.5" y="-271.3" font-family="Times,serif" font-size="14.00">cfg</text>
<text text-anchor="start" x="716.5" y="-256.3" font-family="Times,serif" font-size="14.00">envs : list</text>
<text text-anchor="start" x="716.5" y="-241.3" font-family="Times,serif" font-size="14.00">finalRanksOnAverage : bool</text>
<text text-anchor="start" x="716.5" y="-226.3" font-family="Times,serif" font-size="14.00">policies : list</text>
<text text-anchor="start" x="716.5" y="-211.3" font-family="Times,serif" font-size="14.00">pulls : dict</text>
<text text-anchor="start" x="716.5" y="-196.3" font-family="Times,serif" font-size="14.00">rewards</text>
<text text-anchor="start" x="716.5" y="-181.3" font-family="Times,serif" font-size="14.00">useJoblib</text>
<text text-anchor="start" x="716.5" y="-166.3" font-family="Times,serif" font-size="14.00">useJoblibForPolicies : bool</text>
<polyline fill="none" stroke="black" points="708.5,-158.5 908.5,-158.5 "/>
<text text-anchor="start" x="716.5" y="-143.3" font-family="Times,serif" font-size="14.00">__initEnvironments__()</text>
<text text-anchor="start" x="716.5" y="-128.3" font-family="Times,serif" font-size="14.00">__initPolicies__()</text>
<text text-anchor="start" x="716.5" y="-113.3" font-family="Times,serif" font-size="14.00">__init__()</text>
<text text-anchor="start" x="716.5" y="-98.3" font-family="Times,serif" font-size="14.00">getRegret()</text>
<text text-anchor="start" x="716.5" y="-83.3" font-family="Times,serif" font-size="14.00">getReward()</text>
<text text-anchor="start" x="716.5" y="-68.3" font-family="Times,serif" font-size="14.00">giveFinalRanking()</text>
<text text-anchor="start" x="716.5" y="-53.3" font-family="Times,serif" font-size="14.00">plotResults()</text>
<text text-anchor="start" x="716.5" y="-38.3" font-family="Times,serif" font-size="14.00">start_all_env()</text>
<text text-anchor="start" x="716.5" y="-23.3" font-family="Times,serif" font-size="14.00">start_one_env()</text>
</g>
<!-- 5 -->
<g id="node6" class="node"><title>5</title>
<polygon fill="none" stroke="black" points="926.5,-113 926.5,-227 1084.5,-227 1084.5,-113 926.5,-113"/>
<text text-anchor="middle" x="1005.5" y="-211.8" font-family="Times,serif" font-size="14.00">Environment.MAB.MAB</text>
<polyline fill="none" stroke="black" points="926.5,-204 1084.5,-204 "/>
<text text-anchor="start" x="934.5" y="-188.8" font-family="Times,serif" font-size="14.00">arms</text>
<text text-anchor="start" x="934.5" y="-173.8" font-family="Times,serif" font-size="14.00">maxArm</text>
<text text-anchor="start" x="934.5" y="-158.8" font-family="Times,serif" font-size="14.00">nbArms</text>
<polyline fill="none" stroke="black" points="926.5,-151 1084.5,-151 "/>
<text text-anchor="start" x="934.5" y="-135.8" font-family="Times,serif" font-size="14.00">__init__()</text>
<text text-anchor="start" x="934.5" y="-120.8" font-family="Times,serif" font-size="14.00">__repr__()</text>
</g>
<!-- 6 -->
<g id="node7" class="node"><title>6</title>
<polygon fill="none" stroke="black" points="1102.5,-105.5 1102.5,-234.5 1266.5,-234.5 1266.5,-105.5 1102.5,-105.5"/>
<text text-anchor="middle" x="1184.5" y="-219.3" font-family="Times,serif" font-size="14.00">Environment.Result.Result</text>
<polyline fill="none" stroke="black" points="1102.5,-211.5 1266.5,-211.5 "/>
<text text-anchor="start" x="1110.5" y="-196.3" font-family="Times,serif" font-size="14.00">choices</text>
<text text-anchor="start" x="1110.5" y="-181.3" font-family="Times,serif" font-size="14.00">pulls</text>
<text text-anchor="start" x="1110.5" y="-166.3" font-family="Times,serif" font-size="14.00">rewards</text>
<polyline fill="none" stroke="black" points="1102.5,-158.5 1266.5,-158.5 "/>
<text text-anchor="start" x="1110.5" y="-143.3" font-family="Times,serif" font-size="14.00">__init__()</text>
<text text-anchor="start" x="1110.5" y="-128.3" font-family="Times,serif" font-size="14.00">getNbPulls()</text>
<text text-anchor="start" x="1110.5" y="-113.3" font-family="Times,serif" font-size="14.00">store()</text>
</g>
<!-- 7 -->
<g id="node8" class="node"><title>7</title>
<polygon fill="none" stroke="black" points="1285,-45.5 1285,-294.5 1462,-294.5 1462,-45.5 1285,-45.5"/>
<text text-anchor="middle" x="1373.5" y="-279.3" font-family="Times,serif" font-size="14.00">Policies.AdBandits.AdBandit</text>
<polyline fill="none" stroke="black" points="1285,-271.5 1462,-271.5 "/>
<text text-anchor="start" x="1293" y="-256.3" font-family="Times,serif" font-size="14.00">alpha</text>
<text text-anchor="start" x="1293" y="-241.3" font-family="Times,serif" font-size="14.00">horizon</text>
<text text-anchor="start" x="1293" y="-226.3" font-family="Times,serif" font-size="14.00">nbArms</text>
<text text-anchor="start" x="1293" y="-211.3" font-family="Times,serif" font-size="14.00">params</text>
<text text-anchor="start" x="1293" y="-196.3" font-family="Times,serif" font-size="14.00">posterior : dict</text>
<text text-anchor="start" x="1293" y="-181.3" font-family="Times,serif" font-size="14.00">pulls</text>
<text text-anchor="start" x="1293" y="-166.3" font-family="Times,serif" font-size="14.00">rewards</text>
<text text-anchor="start" x="1293" y="-151.3" font-family="Times,serif" font-size="14.00">t : int</text>
<polyline fill="none" stroke="black" points="1285,-143.5 1462,-143.5 "/>
<text text-anchor="start" x="1293" y="-128.3" font-family="Times,serif" font-size="14.00">__init__()</text>
<text text-anchor="start" x="1293" y="-113.3" font-family="Times,serif" font-size="14.00">__str__()</text>
<text text-anchor="start" x="1293" y="-98.3" font-family="Times,serif" font-size="14.00">choice()</text>
<text text-anchor="start" x="1293" y="-83.3" font-family="Times,serif" font-size="14.00">computeIndex()</text>
<text text-anchor="start" x="1293" y="-68.3" font-family="Times,serif" font-size="14.00">getReward()</text>
<text text-anchor="start" x="1293" y="-53.3" font-family="Times,serif" font-size="14.00">startGame()</text>
</g>
<!-- 8 -->
<g id="node9" class="node"><title>8</title>
<polygon fill="none" stroke="black" points="1480,-0.5 1480,-339.5 1639,-339.5 1639,-0.5 1480,-0.5"/>
<text text-anchor="middle" x="1559.5" y="-324.3" font-family="Times,serif" font-size="14.00">Policies.Aggr.Aggr</text>
<polyline fill="none" stroke="black" points="1480,-316.5 1639,-316.5 "/>
<text text-anchor="start" x="1488" y="-301.3" font-family="Times,serif" font-size="14.00">USE_JOBLIB : bool</text>
<text text-anchor="start" x="1488" y="-286.3" font-family="Times,serif" font-size="14.00">children : list</text>
<text text-anchor="start" x="1488" y="-271.3" font-family="Times,serif" font-size="14.00">choices</text>
<text text-anchor="start" x="1488" y="-256.3" font-family="Times,serif" font-size="14.00">decreaseRate : NoneType</text>
<text text-anchor="start" x="1488" y="-241.3" font-family="Times,serif" font-size="14.00">learningRate</text>
<text text-anchor="start" x="1488" y="-226.3" font-family="Times,serif" font-size="14.00">n_jobs : int</text>
<text text-anchor="start" x="1488" y="-211.3" font-family="Times,serif" font-size="14.00">nbArms</text>
<text text-anchor="start" x="1488" y="-196.3" font-family="Times,serif" font-size="14.00">nbChildren</text>
<text text-anchor="start" x="1488" y="-181.3" font-family="Times,serif" font-size="14.00">params</text>
<text text-anchor="start" x="1488" y="-166.3" font-family="Times,serif" font-size="14.00">pulls</text>
<text text-anchor="start" x="1488" y="-151.3" font-family="Times,serif" font-size="14.00">rewards</text>
<text text-anchor="start" x="1488" y="-136.3" font-family="Times,serif" font-size="14.00">t : int</text>
<text text-anchor="start" x="1488" y="-121.3" font-family="Times,serif" font-size="14.00">trusts : str</text>
<text text-anchor="start" x="1488" y="-106.3" font-family="Times,serif" font-size="14.00">update_all_children : bool</text>
<text text-anchor="start" x="1488" y="-91.3" font-family="Times,serif" font-size="14.00">verbosity : int</text>
<polyline fill="none" stroke="black" points="1480,-83.5 1639,-83.5 "/>
<text text-anchor="start" x="1488" y="-68.3" font-family="Times,serif" font-size="14.00">__init__()</text>
<text text-anchor="start" x="1488" y="-53.3" font-family="Times,serif" font-size="14.00">__str__()</text>
<text text-anchor="start" x="1488" y="-38.3" font-family="Times,serif" font-size="14.00">choice()</text>
<text text-anchor="start" x="1488" y="-23.3" font-family="Times,serif" font-size="14.00">getReward()</text>
<text text-anchor="start" x="1488" y="-8.3" font-family="Times,serif" font-size="14.00">startGame()</text>
</g>
<!-- 9 -->
<g id="node10" class="node"><title>9</title>
<polygon fill="none" stroke="black" points="1657.5,-90.5 1657.5,-249.5 1845.5,-249.5 1845.5,-90.5 1657.5,-90.5"/>
<text text-anchor="middle" x="1751.5" y="-234.3" font-family="Times,serif" font-size="14.00">Policies.BayesUCB.BayesUCB</text>
<polyline fill="none" stroke="black" points="1657.5,-226.5 1845.5,-226.5 "/>
<text text-anchor="start" x="1665.5" y="-211.3" font-family="Times,serif" font-size="14.00">params</text>
<text text-anchor="start" x="1665.5" y="-196.3" font-family="Times,serif" font-size="14.00">posterior</text>
<text text-anchor="start" x="1665.5" y="-181.3" font-family="Times,serif" font-size="14.00">t : int</text>
<polyline fill="none" stroke="black" points="1657.5,-173.5 1845.5,-173.5 "/>
<text text-anchor="start" x="1665.5" y="-158.3" font-family="Times,serif" font-size="14.00">__init__()</text>
<text text-anchor="start" x="1665.5" y="-143.3" font-family="Times,serif" font-size="14.00">__str__()</text>
<text text-anchor="start" x="1665.5" y="-128.3" font-family="Times,serif" font-size="14.00">computeIndex()</text>
<text text-anchor="start" x="1665.5" y="-113.3" font-family="Times,serif" font-size="14.00">getReward()</text>
<text text-anchor="start" x="1665.5" y="-98.3" font-family="Times,serif" font-size="14.00">startGame()</text>
</g>
<!-- 15 -->
<g id="node16" class="node"><title>15</title>
<polygon fill="none" stroke="black" points="2081,-376.5 2081,-580.5 2278,-580.5 2278,-376.5 2081,-376.5"/>
<text text-anchor="middle" x="2179.5" y="-565.3" font-family="Times,serif" font-size="14.00">Policies.IndexPolicy.IndexPolicy</text>
<polyline fill="none" stroke="black" points="2081,-557.5 2278,-557.5 "/>
<text text-anchor="start" x="2089" y="-542.3" font-family="Times,serif" font-size="14.00">_index</text>
<text text-anchor="start" x="2089" y="-527.3" font-family="Times,serif" font-size="14.00">nbArms</text>
<text text-anchor="start" x="2089" y="-512.3" font-family="Times,serif" font-size="14.00">params : str</text>
<text text-anchor="start" x="2089" y="-497.3" font-family="Times,serif" font-size="14.00">pulls</text>
<text text-anchor="start" x="2089" y="-482.3" font-family="Times,serif" font-size="14.00">rewards</text>
<text text-anchor="start" x="2089" y="-467.3" font-family="Times,serif" font-size="14.00">t : int</text>
<polyline fill="none" stroke="black" points="2081,-459.5 2278,-459.5 "/>
<text text-anchor="start" x="2089" y="-444.3" font-family="Times,serif" font-size="14.00">__init__()</text>
<text text-anchor="start" x="2089" y="-429.3" font-family="Times,serif" font-size="14.00">__str__()</text>
<text text-anchor="start" x="2089" y="-414.3" font-family="Times,serif" font-size="14.00">choice()</text>
<text text-anchor="start" x="2089" y="-399.3" font-family="Times,serif" font-size="14.00">getReward()</text>
<text text-anchor="start" x="2089" y="-384.3" font-family="Times,serif" font-size="14.00">startGame()</text>
</g>
<!-- 9&#45;&gt;15 -->
<g id="edge1" class="edge"><title>9&#45;&gt;15</title>
<path fill="none" stroke="black" d="M1786.1,-249.545C1803.05,-280.951 1826.01,-315.423 1854.5,-340 1916.73,-393.688 2002.99,-428.867 2071,-450.191"/>
<polygon fill="none" stroke="black" points="2070.31,-453.641 2080.9,-453.238 2072.37,-446.951 2070.31,-453.641"/>
</g>
<!-- 10 -->
<g id="node11" class="node"><title>10</title>
<polygon fill="none" stroke="black" points="2611.5,-68 2611.5,-272 2727.5,-272 2727.5,-68 2611.5,-68"/>
<text text-anchor="middle" x="2669.5" y="-256.8" font-family="Times,serif" font-size="14.00">Policies.Beta.Beta</text>
<polyline fill="none" stroke="black" points="2611.5,-249 2727.5,-249 "/>
<text text-anchor="start" x="2619.5" y="-233.8" font-family="Times,serif" font-size="14.00">N : list</text>
<text text-anchor="start" x="2619.5" y="-218.8" font-family="Times,serif" font-size="14.00">a : int</text>
<text text-anchor="start" x="2619.5" y="-203.8" font-family="Times,serif" font-size="14.00">b : int</text>
<polyline fill="none" stroke="black" points="2611.5,-196 2727.5,-196 "/>
<text text-anchor="start" x="2619.5" y="-180.8" font-family="Times,serif" font-size="14.00">__init__()</text>
<text text-anchor="start" x="2619.5" y="-165.8" font-family="Times,serif" font-size="14.00">__repr__()</text>
<text text-anchor="start" x="2619.5" y="-150.8" font-family="Times,serif" font-size="14.00">forget()</text>
<text text-anchor="start" x="2619.5" y="-135.8" font-family="Times,serif" font-size="14.00">mean()</text>
<text text-anchor="start" x="2619.5" y="-120.8" font-family="Times,serif" font-size="14.00">quantile()</text>
<text text-anchor="start" x="2619.5" y="-105.8" font-family="Times,serif" font-size="14.00">reset()</text>
<text text-anchor="start" x="2619.5" y="-90.8" font-family="Times,serif" font-size="14.00">sample()</text>
<text text-anchor="start" x="2619.5" y="-75.8" font-family="Times,serif" font-size="14.00">update()</text>
</g>
<!-- 11 -->
<g id="node12" class="node"><title>11</title>
<polygon fill="none" stroke="black" points="2745.5,-98 2745.5,-242 2903.5,-242 2903.5,-98 2745.5,-98"/>
<text text-anchor="middle" x="2824.5" y="-226.8" font-family="Times,serif" font-size="14.00">Policies.Dummy.Dummy</text>
<polyline fill="none" stroke="black" points="2745.5,-219 2903.5,-219 "/>
<text text-anchor="start" x="2753.5" y="-203.8" font-family="Times,serif" font-size="14.00">nbArms</text>
<text text-anchor="start" x="2753.5" y="-188.8" font-family="Times,serif" font-size="14.00">params : str</text>
<polyline fill="none" stroke="black" points="2745.5,-181 2903.5,-181 "/>
<text text-anchor="start" x="2753.5" y="-165.8" font-family="Times,serif" font-size="14.00">__init__()</text>
<text text-anchor="start" x="2753.5" y="-150.8" font-family="Times,serif" font-size="14.00">__str__()</text>
<text text-anchor="start" x="2753.5" y="-135.8" font-family="Times,serif" font-size="14.00">choice()</text>
<text text-anchor="start" x="2753.5" y="-120.8" font-family="Times,serif" font-size="14.00">getReward()</text>
<text text-anchor="start" x="2753.5" y="-105.8" font-family="Times,serif" font-size="14.00">startGame()</text>
</g>
<!-- 12 -->
<g id="node13" class="node"><title>12</title>
<polygon fill="none" stroke="black" points="2922,-68 2922,-272 3193,-272 3193,-68 2922,-68"/>
<text text-anchor="middle" x="3057.5" y="-256.8" font-family="Times,serif" font-size="14.00">Policies.EpsilonDecreasing.EpsilonDecreasing</text>
<polyline fill="none" stroke="black" points="2922,-249 3193,-249 "/>
<text text-anchor="start" x="2930" y="-233.8" font-family="Times,serif" font-size="14.00">decreasingRate : float</text>
<text text-anchor="start" x="2930" y="-218.8" font-family="Times,serif" font-size="14.00">epsilon : float</text>
<text text-anchor="start" x="2930" y="-203.8" font-family="Times,serif" font-size="14.00">nbArms</text>
<text text-anchor="start" x="2930" y="-188.8" font-family="Times,serif" font-size="14.00">params : str</text>
<text text-anchor="start" x="2930" y="-173.8" font-family="Times,serif" font-size="14.00">rewards</text>
<text text-anchor="start" x="2930" y="-158.8" font-family="Times,serif" font-size="14.00">t : int</text>
<polyline fill="none" stroke="black" points="2922,-151 3193,-151 "/>
<text text-anchor="start" x="2930" y="-135.8" font-family="Times,serif" font-size="14.00">__init__()</text>
<text text-anchor="start" x="2930" y="-120.8" font-family="Times,serif" font-size="14.00">__str__()</text>
<text text-anchor="start" x="2930" y="-105.8" font-family="Times,serif" font-size="14.00">choice()</text>
<text text-anchor="start" x="2930" y="-90.8" font-family="Times,serif" font-size="14.00">getReward()</text>
<text text-anchor="start" x="2930" y="-75.8" font-family="Times,serif" font-size="14.00">startGame()</text>
</g>
<!-- 13 -->
<g id="node14" class="node"><title>13</title>
<polygon fill="none" stroke="black" points="3211,-68 3211,-272 3410,-272 3410,-68 3211,-68"/>
<text text-anchor="middle" x="3310.5" y="-256.8" font-family="Times,serif" font-size="14.00">Policies.EpsilonFirst.EpsilonFirst</text>
<polyline fill="none" stroke="black" points="3211,-249 3410,-249 "/>
<text text-anchor="start" x="3219" y="-233.8" font-family="Times,serif" font-size="14.00">epsilon : float</text>
<text text-anchor="start" x="3219" y="-218.8" font-family="Times,serif" font-size="14.00">horizon</text>
<text text-anchor="start" x="3219" y="-203.8" font-family="Times,serif" font-size="14.00">nbArms</text>
<text text-anchor="start" x="3219" y="-188.8" font-family="Times,serif" font-size="14.00">params : str</text>
<text text-anchor="start" x="3219" y="-173.8" font-family="Times,serif" font-size="14.00">rewards</text>
<text text-anchor="start" x="3219" y="-158.8" font-family="Times,serif" font-size="14.00">t : int</text>
<polyline fill="none" stroke="black" points="3211,-151 3410,-151 "/>
<text text-anchor="start" x="3219" y="-135.8" font-family="Times,serif" font-size="14.00">__init__()</text>
<text text-anchor="start" x="3219" y="-120.8" font-family="Times,serif" font-size="14.00">__str__()</text>
<text text-anchor="start" x="3219" y="-105.8" font-family="Times,serif" font-size="14.00">choice()</text>
<text text-anchor="start" x="3219" y="-90.8" font-family="Times,serif" font-size="14.00">getReward()</text>
<text text-anchor="start" x="3219" y="-75.8" font-family="Times,serif" font-size="14.00">startGame()</text>
</g>
<!-- 14 -->
<g id="node15" class="node"><title>14</title>
<polygon fill="none" stroke="black" points="3428,-83 3428,-257 3657,-257 3657,-83 3428,-83"/>
<text text-anchor="middle" x="3542.5" y="-241.8" font-family="Times,serif" font-size="14.00">Policies.EpsilonGreedy.EpsilonGreedy</text>
<polyline fill="none" stroke="black" points="3428,-234 3657,-234 "/>
<text text-anchor="start" x="3436" y="-218.8" font-family="Times,serif" font-size="14.00">epsilon : float</text>
<text text-anchor="start" x="3436" y="-203.8" font-family="Times,serif" font-size="14.00">nbArms</text>
<text text-anchor="start" x="3436" y="-188.8" font-family="Times,serif" font-size="14.00">params</text>
<text text-anchor="start" x="3436" y="-173.8" font-family="Times,serif" font-size="14.00">rewards</text>
<polyline fill="none" stroke="black" points="3428,-166 3657,-166 "/>
<text text-anchor="start" x="3436" y="-150.8" font-family="Times,serif" font-size="14.00">__init__()</text>
<text text-anchor="start" x="3436" y="-135.8" font-family="Times,serif" font-size="14.00">__str__()</text>
<text text-anchor="start" x="3436" y="-120.8" font-family="Times,serif" font-size="14.00">choice()</text>
<text text-anchor="start" x="3436" y="-105.8" font-family="Times,serif" font-size="14.00">getReward()</text>
<text text-anchor="start" x="3436" y="-90.8" font-family="Times,serif" font-size="14.00">startGame()</text>
</g>
<!-- 16 -->
<g id="node17" class="node"><title>16</title>
<polygon fill="none" stroke="black" points="1863.5,-68 1863.5,-272 2069.5,-272 2069.5,-68 1863.5,-68"/>
<text text-anchor="middle" x="1966.5" y="-256.8" font-family="Times,serif" font-size="14.00">Policies.KLempUCB.KLempUCB</text>
<polyline fill="none" stroke="black" points="1863.5,-249 2069.5,-249 "/>
<text text-anchor="start" x="1871.5" y="-233.8" font-family="Times,serif" font-size="14.00">c : int</text>
<text text-anchor="start" x="1871.5" y="-218.8" font-family="Times,serif" font-size="14.00">maxReward : float</text>
<text text-anchor="start" x="1871.5" y="-203.8" font-family="Times,serif" font-size="14.00">obs</text>
<text text-anchor="start" x="1871.5" y="-188.8" font-family="Times,serif" font-size="14.00">params</text>
<text text-anchor="start" x="1871.5" y="-173.8" font-family="Times,serif" font-size="14.00">pulls</text>
<text text-anchor="start" x="1871.5" y="-158.8" font-family="Times,serif" font-size="14.00">t : int</text>
<polyline fill="none" stroke="black" points="1863.5,-151 2069.5,-151 "/>
<text text-anchor="start" x="1871.5" y="-135.8" font-family="Times,serif" font-size="14.00">_KLucb()</text>
<text text-anchor="start" x="1871.5" y="-120.8" font-family="Times,serif" font-size="14.00">__init__()</text>
<text text-anchor="start" x="1871.5" y="-105.8" font-family="Times,serif" font-size="14.00">computeIndex()</text>
<text text-anchor="start" x="1871.5" y="-90.8" font-family="Times,serif" font-size="14.00">getReward()</text>
<text text-anchor="start" x="1871.5" y="-75.8" font-family="Times,serif" font-size="14.00">startGame()</text>
</g>
<!-- 16&#45;&gt;15 -->
<g id="edge2" class="edge"><title>16&#45;&gt;15</title>
<path fill="none" stroke="black" d="M2032.34,-272.073C2047.31,-294.572 2063.29,-318.209 2078.5,-340 2084.86,-349.111 2091.52,-358.504 2098.27,-367.901"/>
<polygon fill="none" stroke="black" points="2095.52,-370.082 2104.21,-376.153 2101.21,-365.992 2095.52,-370.082"/>
</g>
<!-- 17 -->
<g id="node18" class="node"><title>17</title>
<polygon fill="none" stroke="black" points="3675.5,-68 3675.5,-272 3835.5,-272 3835.5,-68 3675.5,-68"/>
<text text-anchor="middle" x="3755.5" y="-256.8" font-family="Times,serif" font-size="14.00">Policies.Softmax.Softmax</text>
<polyline fill="none" stroke="black" points="3675.5,-249 3835.5,-249 "/>
<text text-anchor="start" x="3683.5" y="-233.8" font-family="Times,serif" font-size="14.00">nbArms</text>
<text text-anchor="start" x="3683.5" y="-218.8" font-family="Times,serif" font-size="14.00">params</text>
<text text-anchor="start" x="3683.5" y="-203.8" font-family="Times,serif" font-size="14.00">pulls</text>
<text text-anchor="start" x="3683.5" y="-188.8" font-family="Times,serif" font-size="14.00">rewards</text>
<text text-anchor="start" x="3683.5" y="-173.8" font-family="Times,serif" font-size="14.00">t : int</text>
<text text-anchor="start" x="3683.5" y="-158.8" font-family="Times,serif" font-size="14.00">temperature : int</text>
<polyline fill="none" stroke="black" points="3675.5,-151 3835.5,-151 "/>
<text text-anchor="start" x="3683.5" y="-135.8" font-family="Times,serif" font-size="14.00">__init__()</text>
<text text-anchor="start" x="3683.5" y="-120.8" font-family="Times,serif" font-size="14.00">__str__()</text>
<text text-anchor="start" x="3683.5" y="-105.8" font-family="Times,serif" font-size="14.00">choice()</text>
<text text-anchor="start" x="3683.5" y="-90.8" font-family="Times,serif" font-size="14.00">getReward()</text>
<text text-anchor="start" x="3683.5" y="-75.8" font-family="Times,serif" font-size="14.00">startGame()</text>
</g>
<!-- 18 -->
<g id="node19" class="node"><title>18</title>
<polygon fill="none" stroke="black" points="2087.5,-98 2087.5,-242 2271.5,-242 2271.5,-98 2087.5,-98"/>
<text text-anchor="middle" x="2179.5" y="-226.8" font-family="Times,serif" font-size="14.00">Policies.Thompson.Thompson</text>
<polyline fill="none" stroke="black" points="2087.5,-219 2271.5,-219 "/>
<text text-anchor="start" x="2095.5" y="-203.8" font-family="Times,serif" font-size="14.00">posterior</text>
<text text-anchor="start" x="2095.5" y="-188.8" font-family="Times,serif" font-size="14.00">t : int</text>
<polyline fill="none" stroke="black" points="2087.5,-181 2271.5,-181 "/>
<text text-anchor="start" x="2095.5" y="-165.8" font-family="Times,serif" font-size="14.00">__init__()</text>
<text text-anchor="start" x="2095.5" y="-150.8" font-family="Times,serif" font-size="14.00">__str__()</text>
<text text-anchor="start" x="2095.5" y="-135.8" font-family="Times,serif" font-size="14.00">computeIndex()</text>
<text text-anchor="start" x="2095.5" y="-120.8" font-family="Times,serif" font-size="14.00">getReward()</text>
<text text-anchor="start" x="2095.5" y="-105.8" font-family="Times,serif" font-size="14.00">startGame()</text>
</g>
<!-- 18&#45;&gt;15 -->
<g id="edge3" class="edge"><title>18&#45;&gt;15</title>
<path fill="none" stroke="black" d="M2179.5,-242.088C2179.5,-278.928 2179.5,-324.762 2179.5,-366.172"/>
<polygon fill="none" stroke="black" points="2176,-366.318 2179.5,-376.318 2183,-366.318 2176,-366.318"/>
</g>
<!-- 19 -->
<g id="node20" class="node"><title>19</title>
<polygon fill="none" stroke="black" points="3853.5,-75.5 3853.5,-264.5 3975.5,-264.5 3975.5,-75.5 3853.5,-75.5"/>
<text text-anchor="middle" x="3914.5" y="-249.3" font-family="Times,serif" font-size="14.00">Policies.UCB.UCB</text>
<polyline fill="none" stroke="black" points="3853.5,-241.5 3975.5,-241.5 "/>
<text text-anchor="start" x="3861.5" y="-226.3" font-family="Times,serif" font-size="14.00">nbArms</text>
<text text-anchor="start" x="3861.5" y="-211.3" font-family="Times,serif" font-size="14.00">params : str</text>
<text text-anchor="start" x="3861.5" y="-196.3" font-family="Times,serif" font-size="14.00">pulls</text>
<text text-anchor="start" x="3861.5" y="-181.3" font-family="Times,serif" font-size="14.00">rewards</text>
<text text-anchor="start" x="3861.5" y="-166.3" font-family="Times,serif" font-size="14.00">t : int</text>
<polyline fill="none" stroke="black" points="3853.5,-158.5 3975.5,-158.5 "/>
<text text-anchor="start" x="3861.5" y="-143.3" font-family="Times,serif" font-size="14.00">__init__()</text>
<text text-anchor="start" x="3861.5" y="-128.3" font-family="Times,serif" font-size="14.00">__str__()</text>
<text text-anchor="start" x="3861.5" y="-113.3" font-family="Times,serif" font-size="14.00">choice()</text>
<text text-anchor="start" x="3861.5" y="-98.3" font-family="Times,serif" font-size="14.00">getReward()</text>
<text text-anchor="start" x="3861.5" y="-83.3" font-family="Times,serif" font-size="14.00">startGame()</text>
</g>
<!-- 20 -->
<g id="node21" class="node"><title>20</title>
<polygon fill="none" stroke="black" points="2289.5,-60.5 2289.5,-279.5 2431.5,-279.5 2431.5,-60.5 2289.5,-60.5"/>
<text text-anchor="middle" x="2360.5" y="-264.3" font-family="Times,serif" font-size="14.00">Policies.UCBV.UCBV</text>
<polyline fill="none" stroke="black" points="2289.5,-256.5 2431.5,-256.5 "/>
<text text-anchor="start" x="2297.5" y="-241.3" font-family="Times,serif" font-size="14.00">amplitude : float</text>
<text text-anchor="start" x="2297.5" y="-226.3" font-family="Times,serif" font-size="14.00">lower : float</text>
<text text-anchor="start" x="2297.5" y="-211.3" font-family="Times,serif" font-size="14.00">params</text>
<text text-anchor="start" x="2297.5" y="-196.3" font-family="Times,serif" font-size="14.00">pulls</text>
<text text-anchor="start" x="2297.5" y="-181.3" font-family="Times,serif" font-size="14.00">rewards</text>
<text text-anchor="start" x="2297.5" y="-166.3" font-family="Times,serif" font-size="14.00">rewardsCorrected</text>
<text text-anchor="start" x="2297.5" y="-151.3" font-family="Times,serif" font-size="14.00">t : int</text>
<polyline fill="none" stroke="black" points="2289.5,-143.5 2431.5,-143.5 "/>
<text text-anchor="start" x="2297.5" y="-128.3" font-family="Times,serif" font-size="14.00">__init__()</text>
<text text-anchor="start" x="2297.5" y="-113.3" font-family="Times,serif" font-size="14.00">__str__()</text>
<text text-anchor="start" x="2297.5" y="-98.3" font-family="Times,serif" font-size="14.00">computeIndex()</text>
<text text-anchor="start" x="2297.5" y="-83.3" font-family="Times,serif" font-size="14.00">getReward()</text>
<text text-anchor="start" x="2297.5" y="-68.3" font-family="Times,serif" font-size="14.00">startGame()</text>
</g>
<!-- 20&#45;&gt;15 -->
<g id="edge4" class="edge"><title>20&#45;&gt;15</title>
<path fill="none" stroke="black" d="M2312.73,-279.891C2302.75,-300.232 2291.81,-321.042 2280.5,-340 2274.98,-349.251 2268.99,-358.649 2262.78,-367.964"/>
<polygon fill="none" stroke="black" points="2259.72,-366.245 2257.02,-376.49 2265.52,-370.165 2259.72,-366.245"/>
</g>
<!-- 21 -->
<g id="node22" class="node"><title>21</title>
<polygon fill="none" stroke="black" points="3994,-68 3994,-272 4175,-272 4175,-68 3994,-68"/>
<text text-anchor="middle" x="4084.5" y="-256.8" font-family="Times,serif" font-size="14.00">Policies.UCBalpha.UCBalpha</text>
<polyline fill="none" stroke="black" points="3994,-249 4175,-249 "/>
<text text-anchor="start" x="4002" y="-233.8" font-family="Times,serif" font-size="14.00">alpha : int</text>
<text text-anchor="start" x="4002" y="-218.8" font-family="Times,serif" font-size="14.00">nbArms</text>
<text text-anchor="start" x="4002" y="-203.8" font-family="Times,serif" font-size="14.00">params</text>
<text text-anchor="start" x="4002" y="-188.8" font-family="Times,serif" font-size="14.00">pulls</text>
<text text-anchor="start" x="4002" y="-173.8" font-family="Times,serif" font-size="14.00">rewards</text>
<text text-anchor="start" x="4002" y="-158.8" font-family="Times,serif" font-size="14.00">t : int</text>
<polyline fill="none" stroke="black" points="3994,-151 4175,-151 "/>
<text text-anchor="start" x="4002" y="-135.8" font-family="Times,serif" font-size="14.00">__init__()</text>
<text text-anchor="start" x="4002" y="-120.8" font-family="Times,serif" font-size="14.00">__str__()</text>
<text text-anchor="start" x="4002" y="-105.8" font-family="Times,serif" font-size="14.00">choice()</text>
<text text-anchor="start" x="4002" y="-90.8" font-family="Times,serif" font-size="14.00">getReward()</text>
<text text-anchor="start" x="4002" y="-75.8" font-family="Times,serif" font-size="14.00">startGame()</text>
</g>
<!-- 22 -->
<g id="node23" class="node"><title>22</title>
<polygon fill="none" stroke="black" points="2450,-45.5 2450,-294.5 2593,-294.5 2593,-45.5 2450,-45.5"/>
<text text-anchor="middle" x="2521.5" y="-279.3" font-family="Times,serif" font-size="14.00">Policies.klUCB.klUCB</text>
<polyline fill="none" stroke="black" points="2450,-271.5 2593,-271.5 "/>
<text text-anchor="start" x="2458" y="-256.3" font-family="Times,serif" font-size="14.00">amplitude : float</text>
<text text-anchor="start" x="2458" y="-241.3" font-family="Times,serif" font-size="14.00">c : float</text>
<text text-anchor="start" x="2458" y="-226.3" font-family="Times,serif" font-size="14.00">klucb</text>
<text text-anchor="start" x="2458" y="-211.3" font-family="Times,serif" font-size="14.00">lower : float</text>
<text text-anchor="start" x="2458" y="-196.3" font-family="Times,serif" font-size="14.00">params</text>
<text text-anchor="start" x="2458" y="-181.3" font-family="Times,serif" font-size="14.00">pulls</text>
<text text-anchor="start" x="2458" y="-166.3" font-family="Times,serif" font-size="14.00">rewards</text>
<text text-anchor="start" x="2458" y="-151.3" font-family="Times,serif" font-size="14.00">t : int</text>
<text text-anchor="start" x="2458" y="-136.3" font-family="Times,serif" font-size="14.00">tolerance : float</text>
<polyline fill="none" stroke="black" points="2450,-128.5 2593,-128.5 "/>
<text text-anchor="start" x="2458" y="-113.3" font-family="Times,serif" font-size="14.00">__init__()</text>
<text text-anchor="start" x="2458" y="-98.3" font-family="Times,serif" font-size="14.00">__str__()</text>
<text text-anchor="start" x="2458" y="-83.3" font-family="Times,serif" font-size="14.00">computeIndex()</text>
<text text-anchor="start" x="2458" y="-68.3" font-family="Times,serif" font-size="14.00">getReward()</text>
<text text-anchor="start" x="2458" y="-53.3" font-family="Times,serif" font-size="14.00">startGame()</text>
</g>
<!-- 22&#45;&gt;15 -->
<g id="edge5" class="edge"><title>22&#45;&gt;15</title>
<path fill="none" stroke="black" d="M2473.82,-294.81C2464.32,-311.128 2453.25,-326.757 2440.5,-340 2398.28,-383.851 2339.01,-416.622 2287.61,-439.15"/>
<polygon fill="none" stroke="black" points="2285.92,-436.069 2278.12,-443.237 2288.68,-442.499 2285.92,-436.069"/>
</g>
</g>
</svg>
