<?xml version="1.0" encoding="UTF-8" standalone="no"?>
<!DOCTYPE svg PUBLIC "-//W3C//DTD SVG 1.1//EN"
 "http://www.w3.org/Graphics/SVG/1.1/DTD/svg11.dtd">
<!-- Generated by graphviz version 2.38.0 (20140413.2041)
 -->
<!-- Title: classes_AlgoBandits Pages: 1 -->
<svg width="5782pt" height="664pt"
 viewBox="0.00 0.00 5781.50 664.00" xmlns="http://www.w3.org/2000/svg" xmlns:xlink="http://www.w3.org/1999/xlink">
<g id="graph0" class="graph" transform="scale(1 1) rotate(0) translate(4 660)">
<title>classes_AlgoBandits</title>
<polygon fill="white" stroke="none" points="-4,4 -4,-660 5777.5,-660 5777.5,4 -4,4"/>
<!-- 0 -->
<g id="node1" class="node"><title>0</title>
<polygon fill="none" stroke="black" points="308.5,-488.5 308.5,-618.5 414.5,-618.5 414.5,-488.5 308.5,-488.5"/>
<text text-anchor="middle" x="361.5" y="-603.3" font-family="Times,serif" font-size="14.00">Arms.Arm.Arm</text>
<polyline fill="none" stroke="black" points="308.5,-595.5 414.5,-595.5 "/>
<polyline fill="none" stroke="black" points="308.5,-571.5 414.5,-571.5 "/>
<text text-anchor="start" x="316.5" y="-556.3" font-family="Times,serif" font-size="14.00">__init__()</text>
<text text-anchor="start" x="316.5" y="-541.3" font-family="Times,serif" font-size="14.00">__repr__()</text>
<text text-anchor="start" x="316.5" y="-526.3" font-family="Times,serif" font-size="14.00">__str__()</text>
<text text-anchor="start" x="316.5" y="-511.3" font-family="Times,serif" font-size="14.00">draw()</text>
<text text-anchor="start" x="316.5" y="-496.3" font-family="Times,serif" font-size="14.00">mean()</text>
</g>
<!-- 1 -->
<g id="node2" class="node"><title>1</title>
<polygon fill="none" stroke="black" points="0,-143 0,-272 157,-272 157,-143 0,-143"/>
<text text-anchor="middle" x="78.5" y="-256.8" font-family="Times,serif" font-size="14.00">Arms.Bernoulli.Bernoulli</text>
<polyline fill="none" stroke="black" points="0,-249 157,-249 "/>
<text text-anchor="start" x="8" y="-233.8" font-family="Times,serif" font-size="14.00">probability</text>
<polyline fill="none" stroke="black" points="0,-226 157,-226 "/>
<text text-anchor="start" x="8" y="-210.8" font-family="Times,serif" font-size="14.00">__init__()</text>
<text text-anchor="start" x="8" y="-195.8" font-family="Times,serif" font-size="14.00">__repr__()</text>
<text text-anchor="start" x="8" y="-180.8" font-family="Times,serif" font-size="14.00">__str__()</text>
<text text-anchor="start" x="8" y="-165.8" font-family="Times,serif" font-size="14.00">draw()</text>
<text text-anchor="start" x="8" y="-150.8" font-family="Times,serif" font-size="14.00">mean()</text>
</g>
<!-- 1&#45;&gt;0 -->
<g id="edge1" class="edge"><title>1&#45;&gt;0</title>
<path fill="none" stroke="black" d="M95.129,-272.102C108.814,-315.653 131.545,-372.915 165.5,-415 201.929,-460.151 256.896,-496.941 299.359,-521.065"/>
<polygon fill="none" stroke="black" points="297.782,-524.194 308.219,-526.019 301.199,-518.084 297.782,-524.194"/>
</g>
<!-- 2 -->
<g id="node3" class="node"><title>2</title>
<polygon fill="none" stroke="black" points="175,-128 175,-287 360,-287 360,-128 175,-128"/>
<text text-anchor="middle" x="267.5" y="-271.8" font-family="Times,serif" font-size="14.00">Arms.Exponential.Exponential</text>
<polyline fill="none" stroke="black" points="175,-264 360,-264 "/>
<text text-anchor="start" x="183" y="-248.8" font-family="Times,serif" font-size="14.00">expectation</text>
<text text-anchor="start" x="183" y="-233.8" font-family="Times,serif" font-size="14.00">p</text>
<text text-anchor="start" x="183" y="-218.8" font-family="Times,serif" font-size="14.00">trunc : float</text>
<polyline fill="none" stroke="black" points="175,-211 360,-211 "/>
<text text-anchor="start" x="183" y="-195.8" font-family="Times,serif" font-size="14.00">__init__()</text>
<text text-anchor="start" x="183" y="-180.8" font-family="Times,serif" font-size="14.00">__repr__()</text>
<text text-anchor="start" x="183" y="-165.8" font-family="Times,serif" font-size="14.00">__str__()</text>
<text text-anchor="start" x="183" y="-150.8" font-family="Times,serif" font-size="14.00">draw()</text>
<text text-anchor="start" x="183" y="-135.8" font-family="Times,serif" font-size="14.00">mean()</text>
</g>
<!-- 2&#45;&gt;0 -->
<g id="edge2" class="edge"><title>2&#45;&gt;0</title>
<path fill="none" stroke="black" d="M289.065,-287.421C304.763,-344.868 325.878,-422.139 341.259,-478.427"/>
<polygon fill="none" stroke="black" points="337.953,-479.607 343.965,-488.33 344.706,-477.761 337.953,-479.607"/>
</g>
<!-- 3 -->
<g id="node4" class="node"><title>3</title>
<polygon fill="none" stroke="black" points="378.5,-128 378.5,-287 532.5,-287 532.5,-128 378.5,-128"/>
<text text-anchor="middle" x="455.5" y="-271.8" font-family="Times,serif" font-size="14.00">Arms.Gaussian.Gaussian</text>
<polyline fill="none" stroke="black" points="378.5,-264 532.5,-264 "/>
<text text-anchor="start" x="386.5" y="-248.8" font-family="Times,serif" font-size="14.00">expectation</text>
<text text-anchor="start" x="386.5" y="-233.8" font-family="Times,serif" font-size="14.00">mu</text>
<text text-anchor="start" x="386.5" y="-218.8" font-family="Times,serif" font-size="14.00">sigma</text>
<polyline fill="none" stroke="black" points="378.5,-211 532.5,-211 "/>
<text text-anchor="start" x="386.5" y="-195.8" font-family="Times,serif" font-size="14.00">__init__()</text>
<text text-anchor="start" x="386.5" y="-180.8" font-family="Times,serif" font-size="14.00">__repr__()</text>
<text text-anchor="start" x="386.5" y="-165.8" font-family="Times,serif" font-size="14.00">__str__()</text>
<text text-anchor="start" x="386.5" y="-150.8" font-family="Times,serif" font-size="14.00">draw()</text>
<text text-anchor="start" x="386.5" y="-135.8" font-family="Times,serif" font-size="14.00">mean()</text>
</g>
<!-- 3&#45;&gt;0 -->
<g id="edge3" class="edge"><title>3&#45;&gt;0</title>
<path fill="none" stroke="black" d="M433.935,-287.421C418.237,-344.868 397.122,-422.139 381.741,-478.427"/>
<polygon fill="none" stroke="black" points="378.294,-477.761 379.035,-488.33 385.047,-479.607 378.294,-477.761"/>
</g>
<!-- 4 -->
<g id="node5" class="node"><title>4</title>
<polygon fill="none" stroke="black" points="551,-128 551,-287 690,-287 690,-128 551,-128"/>
<text text-anchor="middle" x="620.5" y="-271.8" font-family="Times,serif" font-size="14.00">Arms.Poisson.Poisson</text>
<polyline fill="none" stroke="black" points="551,-264 690,-264 "/>
<text text-anchor="start" x="559" y="-248.8" font-family="Times,serif" font-size="14.00">expectation : int</text>
<text text-anchor="start" x="559" y="-233.8" font-family="Times,serif" font-size="14.00">p</text>
<text text-anchor="start" x="559" y="-218.8" font-family="Times,serif" font-size="14.00">trunc : float</text>
<polyline fill="none" stroke="black" points="551,-211 690,-211 "/>
<text text-anchor="start" x="559" y="-195.8" font-family="Times,serif" font-size="14.00">__init__()</text>
<text text-anchor="start" x="559" y="-180.8" font-family="Times,serif" font-size="14.00">__repr__()</text>
<text text-anchor="start" x="559" y="-165.8" font-family="Times,serif" font-size="14.00">__str__()</text>
<text text-anchor="start" x="559" y="-150.8" font-family="Times,serif" font-size="14.00">draw()</text>
<text text-anchor="start" x="559" y="-135.8" font-family="Times,serif" font-size="14.00">mean()</text>
</g>
<!-- 4&#45;&gt;0 -->
<g id="edge4" class="edge"><title>4&#45;&gt;0</title>
<path fill="none" stroke="black" d="M601.577,-287.176C589.11,-328.037 569.768,-377.185 541.5,-415 509.87,-457.313 461.868,-493.081 423.388,-517.522"/>
<polygon fill="none" stroke="black" points="421.456,-514.602 414.832,-522.871 425.166,-520.538 421.456,-514.602"/>
</g>
<!-- 5 -->
<g id="node6" class="node"><title>5</title>
<polygon fill="none" stroke="black" points="708.5,-23 708.5,-392 908.5,-392 908.5,-23 708.5,-23"/>
<text text-anchor="middle" x="808.5" y="-376.8" font-family="Times,serif" font-size="14.00">Environment.Evaluator.Evaluator</text>
<polyline fill="none" stroke="black" points="708.5,-369 908.5,-369 "/>
<text text-anchor="start" x="716.5" y="-353.8" font-family="Times,serif" font-size="14.00">averageOn : float</text>
<text text-anchor="start" x="716.5" y="-338.8" font-family="Times,serif" font-size="14.00">bestArmPulls : dict</text>
<text text-anchor="start" x="716.5" y="-323.8" font-family="Times,serif" font-size="14.00">cfg</text>
<text text-anchor="start" x="716.5" y="-308.8" font-family="Times,serif" font-size="14.00">envs : list</text>
<text text-anchor="start" x="716.5" y="-293.8" font-family="Times,serif" font-size="14.00">finalRanksOnAverage : bool</text>
<text text-anchor="start" x="716.5" y="-278.8" font-family="Times,serif" font-size="14.00">policies : list</text>
<text text-anchor="start" x="716.5" y="-263.8" font-family="Times,serif" font-size="14.00">pulls : dict</text>
<text text-anchor="start" x="716.5" y="-248.8" font-family="Times,serif" font-size="14.00">rewards</text>
<text text-anchor="start" x="716.5" y="-233.8" font-family="Times,serif" font-size="14.00">useJoblib</text>
<text text-anchor="start" x="716.5" y="-218.8" font-family="Times,serif" font-size="14.00">useJoblibForPolicies : bool</text>
<polyline fill="none" stroke="black" points="708.5,-211 908.5,-211 "/>
<text text-anchor="start" x="716.5" y="-195.8" font-family="Times,serif" font-size="14.00">__initEnvironments__()</text>
<text text-anchor="start" x="716.5" y="-180.8" font-family="Times,serif" font-size="14.00">__initPolicies__()</text>
<text text-anchor="start" x="716.5" y="-165.8" font-family="Times,serif" font-size="14.00">__init__()</text>
<text text-anchor="start" x="716.5" y="-150.8" font-family="Times,serif" font-size="14.00">getPulls()</text>
<text text-anchor="start" x="716.5" y="-135.8" font-family="Times,serif" font-size="14.00">getRegret()</text>
<text text-anchor="start" x="716.5" y="-120.8" font-family="Times,serif" font-size="14.00">getReward()</text>
<text text-anchor="start" x="716.5" y="-105.8" font-family="Times,serif" font-size="14.00">getbestArmPulls()</text>
<text text-anchor="start" x="716.5" y="-90.8" font-family="Times,serif" font-size="14.00">giveFinalRanking()</text>
<text text-anchor="start" x="716.5" y="-75.8" font-family="Times,serif" font-size="14.00">plotBestArmPulls()</text>
<text text-anchor="start" x="716.5" y="-60.8" font-family="Times,serif" font-size="14.00">plotRewards()</text>
<text text-anchor="start" x="716.5" y="-45.8" font-family="Times,serif" font-size="14.00">start_all_env()</text>
<text text-anchor="start" x="716.5" y="-30.8" font-family="Times,serif" font-size="14.00">start_one_env()</text>
</g>
<!-- 6 -->
<g id="node7" class="node"><title>6</title>
<polygon fill="none" stroke="black" points="927,-0.5 927,-414.5 1268,-414.5 1268,-0.5 927,-0.5"/>
<text text-anchor="middle" x="1097.5" y="-399.3" font-family="Times,serif" font-size="14.00">Environment.EvaluatorMultiPlayers.EvaluatorMultiPlayers</text>
<polyline fill="none" stroke="black" points="927,-391.5 1268,-391.5 "/>
<text text-anchor="start" x="935" y="-376.3" font-family="Times,serif" font-size="14.00">averageOn</text>
<text text-anchor="start" x="935" y="-361.3" font-family="Times,serif" font-size="14.00">bestArmPulls : dict</text>
<text text-anchor="start" x="935" y="-346.3" font-family="Times,serif" font-size="14.00">cfg</text>
<text text-anchor="start" x="935" y="-331.3" font-family="Times,serif" font-size="14.00">collisionModel</text>
<text text-anchor="start" x="935" y="-316.3" font-family="Times,serif" font-size="14.00">envs : list</text>
<text text-anchor="start" x="935" y="-301.3" font-family="Times,serif" font-size="14.00">finalRanksOnAverage</text>
<text text-anchor="start" x="935" y="-286.3" font-family="Times,serif" font-size="14.00">horizon</text>
<text text-anchor="start" x="935" y="-271.3" font-family="Times,serif" font-size="14.00">nbPlayers</text>
<text text-anchor="start" x="935" y="-256.3" font-family="Times,serif" font-size="14.00">players : list</text>
<text text-anchor="start" x="935" y="-241.3" font-family="Times,serif" font-size="14.00">pulls : dict</text>
<text text-anchor="start" x="935" y="-226.3" font-family="Times,serif" font-size="14.00">repetitions</text>
<text text-anchor="start" x="935" y="-211.3" font-family="Times,serif" font-size="14.00">rewards : dict</text>
<text text-anchor="start" x="935" y="-196.3" font-family="Times,serif" font-size="14.00">useJoblib</text>
<polyline fill="none" stroke="black" points="927,-188.5 1268,-188.5 "/>
<text text-anchor="start" x="935" y="-173.3" font-family="Times,serif" font-size="14.00">__initEnvironments__()</text>
<text text-anchor="start" x="935" y="-158.3" font-family="Times,serif" font-size="14.00">__initPlayers__()</text>
<text text-anchor="start" x="935" y="-143.3" font-family="Times,serif" font-size="14.00">__init__()</text>
<text text-anchor="start" x="935" y="-128.3" font-family="Times,serif" font-size="14.00">getPulls()</text>
<text text-anchor="start" x="935" y="-113.3" font-family="Times,serif" font-size="14.00">getRegret()</text>
<text text-anchor="start" x="935" y="-98.3" font-family="Times,serif" font-size="14.00">getReward()</text>
<text text-anchor="start" x="935" y="-83.3" font-family="Times,serif" font-size="14.00">getbestArmPulls()</text>
<text text-anchor="start" x="935" y="-68.3" font-family="Times,serif" font-size="14.00">giveFinalRanking()</text>
<text text-anchor="start" x="935" y="-53.3" font-family="Times,serif" font-size="14.00">plotBestArmPulls()</text>
<text text-anchor="start" x="935" y="-38.3" font-family="Times,serif" font-size="14.00">plotRewards()</text>
<text text-anchor="start" x="935" y="-23.3" font-family="Times,serif" font-size="14.00">start_all_env()</text>
<text text-anchor="start" x="935" y="-8.3" font-family="Times,serif" font-size="14.00">start_one_env()</text>
</g>
<!-- 7 -->
<g id="node8" class="node"><title>7</title>
<polygon fill="none" stroke="black" points="1286.5,-150.5 1286.5,-264.5 1444.5,-264.5 1444.5,-150.5 1286.5,-150.5"/>
<text text-anchor="middle" x="1365.5" y="-249.3" font-family="Times,serif" font-size="14.00">Environment.MAB.MAB</text>
<polyline fill="none" stroke="black" points="1286.5,-241.5 1444.5,-241.5 "/>
<text text-anchor="start" x="1294.5" y="-226.3" font-family="Times,serif" font-size="14.00">arms</text>
<text text-anchor="start" x="1294.5" y="-211.3" font-family="Times,serif" font-size="14.00">maxArm</text>
<text text-anchor="start" x="1294.5" y="-196.3" font-family="Times,serif" font-size="14.00">nbArms</text>
<polyline fill="none" stroke="black" points="1286.5,-188.5 1444.5,-188.5 "/>
<text text-anchor="start" x="1294.5" y="-173.3" font-family="Times,serif" font-size="14.00">__init__()</text>
<text text-anchor="start" x="1294.5" y="-158.3" font-family="Times,serif" font-size="14.00">__repr__()</text>
</g>
<!-- 8 -->
<g id="node9" class="node"><title>8</title>
<polygon fill="none" stroke="black" points="1462.5,-150.5 1462.5,-264.5 1626.5,-264.5 1626.5,-150.5 1462.5,-150.5"/>
<text text-anchor="middle" x="1544.5" y="-249.3" font-family="Times,serif" font-size="14.00">Environment.Result.Result</text>
<polyline fill="none" stroke="black" points="1462.5,-241.5 1626.5,-241.5 "/>
<text text-anchor="start" x="1470.5" y="-226.3" font-family="Times,serif" font-size="14.00">choices</text>
<text text-anchor="start" x="1470.5" y="-211.3" font-family="Times,serif" font-size="14.00">pulls</text>
<text text-anchor="start" x="1470.5" y="-196.3" font-family="Times,serif" font-size="14.00">rewards</text>
<polyline fill="none" stroke="black" points="1462.5,-188.5 1626.5,-188.5 "/>
<text text-anchor="start" x="1470.5" y="-173.3" font-family="Times,serif" font-size="14.00">__init__()</text>
<text text-anchor="start" x="1470.5" y="-158.3" font-family="Times,serif" font-size="14.00">store()</text>
</g>
<!-- 9 -->
<g id="node10" class="node"><title>9</title>
<polygon fill="none" stroke="black" points="1645,-150.5 1645,-264.5 1950,-264.5 1950,-150.5 1645,-150.5"/>
<text text-anchor="middle" x="1797.5" y="-249.3" font-family="Times,serif" font-size="14.00">Environment.ResultMultiPlayers.ResultMultiPlayers</text>
<polyline fill="none" stroke="black" points="1645,-241.5 1950,-241.5 "/>
<text text-anchor="start" x="1653" y="-226.3" font-family="Times,serif" font-size="14.00">choices</text>
<text text-anchor="start" x="1653" y="-211.3" font-family="Times,serif" font-size="14.00">pulls</text>
<text text-anchor="start" x="1653" y="-196.3" font-family="Times,serif" font-size="14.00">rewards</text>
<polyline fill="none" stroke="black" points="1645,-188.5 1950,-188.5 "/>
<text text-anchor="start" x="1653" y="-173.3" font-family="Times,serif" font-size="14.00">__init__()</text>
<text text-anchor="start" x="1653" y="-158.3" font-family="Times,serif" font-size="14.00">store()</text>
</g>
<!-- 10 -->
<g id="node11" class="node"><title>10</title>
<polygon fill="none" stroke="black" points="1968,-83 1968,-332 2145,-332 2145,-83 1968,-83"/>
<text text-anchor="middle" x="2056.5" y="-316.8" font-family="Times,serif" font-size="14.00">Policies.AdBandits.AdBandit</text>
<polyline fill="none" stroke="black" points="1968,-309 2145,-309 "/>
<text text-anchor="start" x="1976" y="-293.8" font-family="Times,serif" font-size="14.00">alpha</text>
<text text-anchor="start" x="1976" y="-278.8" font-family="Times,serif" font-size="14.00">horizon</text>
<text text-anchor="start" x="1976" y="-263.8" font-family="Times,serif" font-size="14.00">nbArms</text>
<text text-anchor="start" x="1976" y="-248.8" font-family="Times,serif" font-size="14.00">params</text>
<text text-anchor="start" x="1976" y="-233.8" font-family="Times,serif" font-size="14.00">posterior : dict</text>
<text text-anchor="start" x="1976" y="-218.8" font-family="Times,serif" font-size="14.00">pulls</text>
<text text-anchor="start" x="1976" y="-203.8" font-family="Times,serif" font-size="14.00">rewards</text>
<text text-anchor="start" x="1976" y="-188.8" font-family="Times,serif" font-size="14.00">t : int</text>
<polyline fill="none" stroke="black" points="1968,-181 2145,-181 "/>
<text text-anchor="start" x="1976" y="-165.8" font-family="Times,serif" font-size="14.00">__init__()</text>
<text text-anchor="start" x="1976" y="-150.8" font-family="Times,serif" font-size="14.00">__str__()</text>
<text text-anchor="start" x="1976" y="-135.8" font-family="Times,serif" font-size="14.00">choice()</text>
<text text-anchor="start" x="1976" y="-120.8" font-family="Times,serif" font-size="14.00">computeIndex()</text>
<text text-anchor="start" x="1976" y="-105.8" font-family="Times,serif" font-size="14.00">getReward()</text>
<text text-anchor="start" x="1976" y="-90.8" font-family="Times,serif" font-size="14.00">startGame()</text>
</g>
<!-- 11 -->
<g id="node12" class="node"><title>11</title>
<polygon fill="none" stroke="black" points="2163,-75.5 2163,-339.5 2322,-339.5 2322,-75.5 2163,-75.5"/>
<text text-anchor="middle" x="2242.5" y="-324.3" font-family="Times,serif" font-size="14.00">Policies.Aggr.Aggr</text>
<polyline fill="none" stroke="black" points="2163,-316.5 2322,-316.5 "/>
<text text-anchor="start" x="2171" y="-301.3" font-family="Times,serif" font-size="14.00">children : list</text>
<text text-anchor="start" x="2171" y="-286.3" font-family="Times,serif" font-size="14.00">choices</text>
<text text-anchor="start" x="2171" y="-271.3" font-family="Times,serif" font-size="14.00">decreaseRate : NoneType</text>
<text text-anchor="start" x="2171" y="-256.3" font-family="Times,serif" font-size="14.00">learningRate</text>
<text text-anchor="start" x="2171" y="-241.3" font-family="Times,serif" font-size="14.00">nbArms</text>
<text text-anchor="start" x="2171" y="-226.3" font-family="Times,serif" font-size="14.00">nbChildren</text>
<text text-anchor="start" x="2171" y="-211.3" font-family="Times,serif" font-size="14.00">params</text>
<text text-anchor="start" x="2171" y="-196.3" font-family="Times,serif" font-size="14.00">t : int</text>
<text text-anchor="start" x="2171" y="-181.3" font-family="Times,serif" font-size="14.00">trusts : str</text>
<text text-anchor="start" x="2171" y="-166.3" font-family="Times,serif" font-size="14.00">update_all_children : bool</text>
<polyline fill="none" stroke="black" points="2163,-158.5 2322,-158.5 "/>
<text text-anchor="start" x="2171" y="-143.3" font-family="Times,serif" font-size="14.00">__init__()</text>
<text text-anchor="start" x="2171" y="-128.3" font-family="Times,serif" font-size="14.00">__str__()</text>
<text text-anchor="start" x="2171" y="-113.3" font-family="Times,serif" font-size="14.00">choice()</text>
<text text-anchor="start" x="2171" y="-98.3" font-family="Times,serif" font-size="14.00">getReward()</text>
<text text-anchor="start" x="2171" y="-83.3" font-family="Times,serif" font-size="14.00">startGame()</text>
</g>
<!-- 12 -->
<g id="node13" class="node"><title>12</title>
<polygon fill="none" stroke="black" points="2340.5,-128 2340.5,-287 2528.5,-287 2528.5,-128 2340.5,-128"/>
<text text-anchor="middle" x="2434.5" y="-271.8" font-family="Times,serif" font-size="14.00">Policies.BayesUCB.BayesUCB</text>
<polyline fill="none" stroke="black" points="2340.5,-264 2528.5,-264 "/>
<text text-anchor="start" x="2348.5" y="-248.8" font-family="Times,serif" font-size="14.00">params</text>
<text text-anchor="start" x="2348.5" y="-233.8" font-family="Times,serif" font-size="14.00">posterior</text>
<text text-anchor="start" x="2348.5" y="-218.8" font-family="Times,serif" font-size="14.00">t : int</text>
<polyline fill="none" stroke="black" points="2340.5,-211 2528.5,-211 "/>
<text text-anchor="start" x="2348.5" y="-195.8" font-family="Times,serif" font-size="14.00">__init__()</text>
<text text-anchor="start" x="2348.5" y="-180.8" font-family="Times,serif" font-size="14.00">__str__()</text>
<text text-anchor="start" x="2348.5" y="-165.8" font-family="Times,serif" font-size="14.00">computeIndex()</text>
<text text-anchor="start" x="2348.5" y="-150.8" font-family="Times,serif" font-size="14.00">getReward()</text>
<text text-anchor="start" x="2348.5" y="-135.8" font-family="Times,serif" font-size="14.00">startGame()</text>
</g>
<!-- 18 -->
<g id="node19" class="node"><title>18</title>
<polygon fill="none" stroke="black" points="2764,-451.5 2764,-655.5 2961,-655.5 2961,-451.5 2764,-451.5"/>
<text text-anchor="middle" x="2862.5" y="-640.3" font-family="Times,serif" font-size="14.00">Policies.IndexPolicy.IndexPolicy</text>
<polyline fill="none" stroke="black" points="2764,-632.5 2961,-632.5 "/>
<text text-anchor="start" x="2772" y="-617.3" font-family="Times,serif" font-size="14.00">_index</text>
<text text-anchor="start" x="2772" y="-602.3" font-family="Times,serif" font-size="14.00">nbArms</text>
<text text-anchor="start" x="2772" y="-587.3" font-family="Times,serif" font-size="14.00">params : str</text>
<text text-anchor="start" x="2772" y="-572.3" font-family="Times,serif" font-size="14.00">pulls</text>
<text text-anchor="start" x="2772" y="-557.3" font-family="Times,serif" font-size="14.00">rewards</text>
<text text-anchor="start" x="2772" y="-542.3" font-family="Times,serif" font-size="14.00">t : int</text>
<polyline fill="none" stroke="black" points="2764,-534.5 2961,-534.5 "/>
<text text-anchor="start" x="2772" y="-519.3" font-family="Times,serif" font-size="14.00">__init__()</text>
<text text-anchor="start" x="2772" y="-504.3" font-family="Times,serif" font-size="14.00">__str__()</text>
<text text-anchor="start" x="2772" y="-489.3" font-family="Times,serif" font-size="14.00">choice()</text>
<text text-anchor="start" x="2772" y="-474.3" font-family="Times,serif" font-size="14.00">getReward()</text>
<text text-anchor="start" x="2772" y="-459.3" font-family="Times,serif" font-size="14.00">startGame()</text>
</g>
<!-- 12&#45;&gt;18 -->
<g id="edge5" class="edge"><title>12&#45;&gt;18</title>
<path fill="none" stroke="black" d="M2458.65,-287.179C2475.08,-329.672 2500.64,-380.369 2537.5,-415 2597.95,-471.79 2685.36,-506.969 2754.3,-527.512"/>
<polygon fill="none" stroke="black" points="2753.32,-530.873 2763.9,-530.315 2755.28,-524.153 2753.32,-530.873"/>
</g>
<!-- 13 -->
<g id="node14" class="node"><title>13</title>
<polygon fill="none" stroke="black" points="3294.5,-105.5 3294.5,-309.5 3410.5,-309.5 3410.5,-105.5 3294.5,-105.5"/>
<text text-anchor="middle" x="3352.5" y="-294.3" font-family="Times,serif" font-size="14.00">Policies.Beta.Beta</text>
<polyline fill="none" stroke="black" points="3294.5,-286.5 3410.5,-286.5 "/>
<text text-anchor="start" x="3302.5" y="-271.3" font-family="Times,serif" font-size="14.00">N : list</text>
<text text-anchor="start" x="3302.5" y="-256.3" font-family="Times,serif" font-size="14.00">a : int</text>
<text text-anchor="start" x="3302.5" y="-241.3" font-family="Times,serif" font-size="14.00">b : int</text>
<polyline fill="none" stroke="black" points="3294.5,-233.5 3410.5,-233.5 "/>
<text text-anchor="start" x="3302.5" y="-218.3" font-family="Times,serif" font-size="14.00">__init__()</text>
<text text-anchor="start" x="3302.5" y="-203.3" font-family="Times,serif" font-size="14.00">__repr__()</text>
<text text-anchor="start" x="3302.5" y="-188.3" font-family="Times,serif" font-size="14.00">forget()</text>
<text text-anchor="start" x="3302.5" y="-173.3" font-family="Times,serif" font-size="14.00">mean()</text>
<text text-anchor="start" x="3302.5" y="-158.3" font-family="Times,serif" font-size="14.00">quantile()</text>
<text text-anchor="start" x="3302.5" y="-143.3" font-family="Times,serif" font-size="14.00">reset()</text>
<text text-anchor="start" x="3302.5" y="-128.3" font-family="Times,serif" font-size="14.00">sample()</text>
<text text-anchor="start" x="3302.5" y="-113.3" font-family="Times,serif" font-size="14.00">update()</text>
</g>
<!-- 14 -->
<g id="node15" class="node"><title>14</title>
<polygon fill="none" stroke="black" points="3428.5,-135.5 3428.5,-279.5 3586.5,-279.5 3586.5,-135.5 3428.5,-135.5"/>
<text text-anchor="middle" x="3507.5" y="-264.3" font-family="Times,serif" font-size="14.00">Policies.Dummy.Dummy</text>
<polyline fill="none" stroke="black" points="3428.5,-256.5 3586.5,-256.5 "/>
<text text-anchor="start" x="3436.5" y="-241.3" font-family="Times,serif" font-size="14.00">nbArms</text>
<text text-anchor="start" x="3436.5" y="-226.3" font-family="Times,serif" font-size="14.00">params : str</text>
<polyline fill="none" stroke="black" points="3428.5,-218.5 3586.5,-218.5 "/>
<text text-anchor="start" x="3436.5" y="-203.3" font-family="Times,serif" font-size="14.00">__init__()</text>
<text text-anchor="start" x="3436.5" y="-188.3" font-family="Times,serif" font-size="14.00">__str__()</text>
<text text-anchor="start" x="3436.5" y="-173.3" font-family="Times,serif" font-size="14.00">choice()</text>
<text text-anchor="start" x="3436.5" y="-158.3" font-family="Times,serif" font-size="14.00">getReward()</text>
<text text-anchor="start" x="3436.5" y="-143.3" font-family="Times,serif" font-size="14.00">startGame()</text>
</g>
<!-- 15 -->
<g id="node16" class="node"><title>15</title>
<polygon fill="none" stroke="black" points="3605,-105.5 3605,-309.5 3876,-309.5 3876,-105.5 3605,-105.5"/>
<text text-anchor="middle" x="3740.5" y="-294.3" font-family="Times,serif" font-size="14.00">Policies.EpsilonDecreasing.EpsilonDecreasing</text>
<polyline fill="none" stroke="black" points="3605,-286.5 3876,-286.5 "/>
<text text-anchor="start" x="3613" y="-271.3" font-family="Times,serif" font-size="14.00">decreasingRate : float</text>
<text text-anchor="start" x="3613" y="-256.3" font-family="Times,serif" font-size="14.00">epsilon : float</text>
<text text-anchor="start" x="3613" y="-241.3" font-family="Times,serif" font-size="14.00">nbArms</text>
<text text-anchor="start" x="3613" y="-226.3" font-family="Times,serif" font-size="14.00">params : str</text>
<text text-anchor="start" x="3613" y="-211.3" font-family="Times,serif" font-size="14.00">rewards</text>
<text text-anchor="start" x="3613" y="-196.3" font-family="Times,serif" font-size="14.00">t : int</text>
<polyline fill="none" stroke="black" points="3605,-188.5 3876,-188.5 "/>
<text text-anchor="start" x="3613" y="-173.3" font-family="Times,serif" font-size="14.00">__init__()</text>
<text text-anchor="start" x="3613" y="-158.3" font-family="Times,serif" font-size="14.00">__str__()</text>
<text text-anchor="start" x="3613" y="-143.3" font-family="Times,serif" font-size="14.00">choice()</text>
<text text-anchor="start" x="3613" y="-128.3" font-family="Times,serif" font-size="14.00">getReward()</text>
<text text-anchor="start" x="3613" y="-113.3" font-family="Times,serif" font-size="14.00">startGame()</text>
</g>
<!-- 16 -->
<g id="node17" class="node"><title>16</title>
<polygon fill="none" stroke="black" points="3894,-105.5 3894,-309.5 4093,-309.5 4093,-105.5 3894,-105.5"/>
<text text-anchor="middle" x="3993.5" y="-294.3" font-family="Times,serif" font-size="14.00">Policies.EpsilonFirst.EpsilonFirst</text>
<polyline fill="none" stroke="black" points="3894,-286.5 4093,-286.5 "/>
<text text-anchor="start" x="3902" y="-271.3" font-family="Times,serif" font-size="14.00">epsilon : float</text>
<text text-anchor="start" x="3902" y="-256.3" font-family="Times,serif" font-size="14.00">horizon</text>
<text text-anchor="start" x="3902" y="-241.3" font-family="Times,serif" font-size="14.00">nbArms</text>
<text text-anchor="start" x="3902" y="-226.3" font-family="Times,serif" font-size="14.00">params : str</text>
<text text-anchor="start" x="3902" y="-211.3" font-family="Times,serif" font-size="14.00">rewards</text>
<text text-anchor="start" x="3902" y="-196.3" font-family="Times,serif" font-size="14.00">t : int</text>
<polyline fill="none" stroke="black" points="3894,-188.5 4093,-188.5 "/>
<text text-anchor="start" x="3902" y="-173.3" font-family="Times,serif" font-size="14.00">__init__()</text>
<text text-anchor="start" x="3902" y="-158.3" font-family="Times,serif" font-size="14.00">__str__()</text>
<text text-anchor="start" x="3902" y="-143.3" font-family="Times,serif" font-size="14.00">choice()</text>
<text text-anchor="start" x="3902" y="-128.3" font-family="Times,serif" font-size="14.00">getReward()</text>
<text text-anchor="start" x="3902" y="-113.3" font-family="Times,serif" font-size="14.00">startGame()</text>
</g>
<!-- 17 -->
<g id="node18" class="node"><title>17</title>
<polygon fill="none" stroke="black" points="4111,-120.5 4111,-294.5 4340,-294.5 4340,-120.5 4111,-120.5"/>
<text text-anchor="middle" x="4225.5" y="-279.3" font-family="Times,serif" font-size="14.00">Policies.EpsilonGreedy.EpsilonGreedy</text>
<polyline fill="none" stroke="black" points="4111,-271.5 4340,-271.5 "/>
<text text-anchor="start" x="4119" y="-256.3" font-family="Times,serif" font-size="14.00">epsilon : float</text>
<text text-anchor="start" x="4119" y="-241.3" font-family="Times,serif" font-size="14.00">nbArms</text>
<text text-anchor="start" x="4119" y="-226.3" font-family="Times,serif" font-size="14.00">params</text>
<text text-anchor="start" x="4119" y="-211.3" font-family="Times,serif" font-size="14.00">rewards</text>
<polyline fill="none" stroke="black" points="4111,-203.5 4340,-203.5 "/>
<text text-anchor="start" x="4119" y="-188.3" font-family="Times,serif" font-size="14.00">__init__()</text>
<text text-anchor="start" x="4119" y="-173.3" font-family="Times,serif" font-size="14.00">__str__()</text>
<text text-anchor="start" x="4119" y="-158.3" font-family="Times,serif" font-size="14.00">choice()</text>
<text text-anchor="start" x="4119" y="-143.3" font-family="Times,serif" font-size="14.00">getReward()</text>
<text text-anchor="start" x="4119" y="-128.3" font-family="Times,serif" font-size="14.00">startGame()</text>
</g>
<!-- 19 -->
<g id="node20" class="node"><title>19</title>
<polygon fill="none" stroke="black" points="2546.5,-105.5 2546.5,-309.5 2752.5,-309.5 2752.5,-105.5 2546.5,-105.5"/>
<text text-anchor="middle" x="2649.5" y="-294.3" font-family="Times,serif" font-size="14.00">Policies.KLempUCB.KLempUCB</text>
<polyline fill="none" stroke="black" points="2546.5,-286.5 2752.5,-286.5 "/>
<text text-anchor="start" x="2554.5" y="-271.3" font-family="Times,serif" font-size="14.00">c : int</text>
<text text-anchor="start" x="2554.5" y="-256.3" font-family="Times,serif" font-size="14.00">maxReward : float</text>
<text text-anchor="start" x="2554.5" y="-241.3" font-family="Times,serif" font-size="14.00">obs</text>
<text text-anchor="start" x="2554.5" y="-226.3" font-family="Times,serif" font-size="14.00">params</text>
<text text-anchor="start" x="2554.5" y="-211.3" font-family="Times,serif" font-size="14.00">pulls</text>
<text text-anchor="start" x="2554.5" y="-196.3" font-family="Times,serif" font-size="14.00">t : int</text>
<polyline fill="none" stroke="black" points="2546.5,-188.5 2752.5,-188.5 "/>
<text text-anchor="start" x="2554.5" y="-173.3" font-family="Times,serif" font-size="14.00">_KLucb()</text>
<text text-anchor="start" x="2554.5" y="-158.3" font-family="Times,serif" font-size="14.00">__init__()</text>
<text text-anchor="start" x="2554.5" y="-143.3" font-family="Times,serif" font-size="14.00">computeIndex()</text>
<text text-anchor="start" x="2554.5" y="-128.3" font-family="Times,serif" font-size="14.00">getReward()</text>
<text text-anchor="start" x="2554.5" y="-113.3" font-family="Times,serif" font-size="14.00">startGame()</text>
</g>
<!-- 19&#45;&gt;18 -->
<g id="edge6" class="edge"><title>19&#45;&gt;18</title>
<path fill="none" stroke="black" d="M2700.78,-309.601C2718.99,-343.66 2740.26,-381.507 2761.5,-415 2767.39,-424.286 2773.7,-433.77 2780.17,-443.2"/>
<polygon fill="none" stroke="black" points="2777.33,-445.242 2785.9,-451.467 2783.08,-441.254 2777.33,-445.242"/>
</g>
<!-- 20 -->
<g id="node21" class="node"><title>20</title>
<polygon fill="none" stroke="black" points="4358.5,-105.5 4358.5,-309.5 4518.5,-309.5 4518.5,-105.5 4358.5,-105.5"/>
<text text-anchor="middle" x="4438.5" y="-294.3" font-family="Times,serif" font-size="14.00">Policies.Softmax.Softmax</text>
<polyline fill="none" stroke="black" points="4358.5,-286.5 4518.5,-286.5 "/>
<text text-anchor="start" x="4366.5" y="-271.3" font-family="Times,serif" font-size="14.00">nbArms</text>
<text text-anchor="start" x="4366.5" y="-256.3" font-family="Times,serif" font-size="14.00">params</text>
<text text-anchor="start" x="4366.5" y="-241.3" font-family="Times,serif" font-size="14.00">pulls</text>
<text text-anchor="start" x="4366.5" y="-226.3" font-family="Times,serif" font-size="14.00">rewards</text>
<text text-anchor="start" x="4366.5" y="-211.3" font-family="Times,serif" font-size="14.00">t : int</text>
<text text-anchor="start" x="4366.5" y="-196.3" font-family="Times,serif" font-size="14.00">temperature : int</text>
<polyline fill="none" stroke="black" points="4358.5,-188.5 4518.5,-188.5 "/>
<text text-anchor="start" x="4366.5" y="-173.3" font-family="Times,serif" font-size="14.00">__init__()</text>
<text text-anchor="start" x="4366.5" y="-158.3" font-family="Times,serif" font-size="14.00">__str__()</text>
<text text-anchor="start" x="4366.5" y="-143.3" font-family="Times,serif" font-size="14.00">choice()</text>
<text text-anchor="start" x="4366.5" y="-128.3" font-family="Times,serif" font-size="14.00">getReward()</text>
<text text-anchor="start" x="4366.5" y="-113.3" font-family="Times,serif" font-size="14.00">startGame()</text>
</g>
<!-- 21 -->
<g id="node22" class="node"><title>21</title>
<polygon fill="none" stroke="black" points="2770.5,-135.5 2770.5,-279.5 2954.5,-279.5 2954.5,-135.5 2770.5,-135.5"/>
<text text-anchor="middle" x="2862.5" y="-264.3" font-family="Times,serif" font-size="14.00">Policies.Thompson.Thompson</text>
<polyline fill="none" stroke="black" points="2770.5,-256.5 2954.5,-256.5 "/>
<text text-anchor="start" x="2778.5" y="-241.3" font-family="Times,serif" font-size="14.00">posterior</text>
<text text-anchor="start" x="2778.5" y="-226.3" font-family="Times,serif" font-size="14.00">t : int</text>
<polyline fill="none" stroke="black" points="2770.5,-218.5 2954.5,-218.5 "/>
<text text-anchor="start" x="2778.5" y="-203.3" font-family="Times,serif" font-size="14.00">__init__()</text>
<text text-anchor="start" x="2778.5" y="-188.3" font-family="Times,serif" font-size="14.00">__str__()</text>
<text text-anchor="start" x="2778.5" y="-173.3" font-family="Times,serif" font-size="14.00">computeIndex()</text>
<text text-anchor="start" x="2778.5" y="-158.3" font-family="Times,serif" font-size="14.00">getReward()</text>
<text text-anchor="start" x="2778.5" y="-143.3" font-family="Times,serif" font-size="14.00">startGame()</text>
</g>
<!-- 21&#45;&gt;18 -->
<g id="edge7" class="edge"><title>21&#45;&gt;18</title>
<path fill="none" stroke="black" d="M2862.5,-279.777C2862.5,-326.367 2862.5,-388.18 2862.5,-441.178"/>
<polygon fill="none" stroke="black" points="2859,-441.309 2862.5,-451.309 2866,-441.309 2859,-441.309"/>
</g>
<!-- 22 -->
<g id="node23" class="node"><title>22</title>
<polygon fill="none" stroke="black" points="4536.5,-113 4536.5,-302 4658.5,-302 4658.5,-113 4536.5,-113"/>
<text text-anchor="middle" x="4597.5" y="-286.8" font-family="Times,serif" font-size="14.00">Policies.UCB.UCB</text>
<polyline fill="none" stroke="black" points="4536.5,-279 4658.5,-279 "/>
<text text-anchor="start" x="4544.5" y="-263.8" font-family="Times,serif" font-size="14.00">nbArms</text>
<text text-anchor="start" x="4544.5" y="-248.8" font-family="Times,serif" font-size="14.00">params : str</text>
<text text-anchor="start" x="4544.5" y="-233.8" font-family="Times,serif" font-size="14.00">pulls</text>
<text text-anchor="start" x="4544.5" y="-218.8" font-family="Times,serif" font-size="14.00">rewards</text>
<text text-anchor="start" x="4544.5" y="-203.8" font-family="Times,serif" font-size="14.00">t : int</text>
<polyline fill="none" stroke="black" points="4536.5,-196 4658.5,-196 "/>
<text text-anchor="start" x="4544.5" y="-180.8" font-family="Times,serif" font-size="14.00">__init__()</text>
<text text-anchor="start" x="4544.5" y="-165.8" font-family="Times,serif" font-size="14.00">__str__()</text>
<text text-anchor="start" x="4544.5" y="-150.8" font-family="Times,serif" font-size="14.00">choice()</text>
<text text-anchor="start" x="4544.5" y="-135.8" font-family="Times,serif" font-size="14.00">getReward()</text>
<text text-anchor="start" x="4544.5" y="-120.8" font-family="Times,serif" font-size="14.00">startGame()</text>
</g>
<!-- 23 -->
<g id="node24" class="node"><title>23</title>
<polygon fill="none" stroke="black" points="2972.5,-98 2972.5,-317 3114.5,-317 3114.5,-98 2972.5,-98"/>
<text text-anchor="middle" x="3043.5" y="-301.8" font-family="Times,serif" font-size="14.00">Policies.UCBV.UCBV</text>
<polyline fill="none" stroke="black" points="2972.5,-294 3114.5,-294 "/>
<text text-anchor="start" x="2980.5" y="-278.8" font-family="Times,serif" font-size="14.00">amplitude : float</text>
<text text-anchor="start" x="2980.5" y="-263.8" font-family="Times,serif" font-size="14.00">lower : float</text>
<text text-anchor="start" x="2980.5" y="-248.8" font-family="Times,serif" font-size="14.00">params</text>
<text text-anchor="start" x="2980.5" y="-233.8" font-family="Times,serif" font-size="14.00">pulls</text>
<text text-anchor="start" x="2980.5" y="-218.8" font-family="Times,serif" font-size="14.00">rewards</text>
<text text-anchor="start" x="2980.5" y="-203.8" font-family="Times,serif" font-size="14.00">rewardsCorrected</text>
<text text-anchor="start" x="2980.5" y="-188.8" font-family="Times,serif" font-size="14.00">t : int</text>
<polyline fill="none" stroke="black" points="2972.5,-181 3114.5,-181 "/>
<text text-anchor="start" x="2980.5" y="-165.8" font-family="Times,serif" font-size="14.00">__init__()</text>
<text text-anchor="start" x="2980.5" y="-150.8" font-family="Times,serif" font-size="14.00">__str__()</text>
<text text-anchor="start" x="2980.5" y="-135.8" font-family="Times,serif" font-size="14.00">computeIndex()</text>
<text text-anchor="start" x="2980.5" y="-120.8" font-family="Times,serif" font-size="14.00">getReward()</text>
<text text-anchor="start" x="2980.5" y="-105.8" font-family="Times,serif" font-size="14.00">startGame()</text>
</g>
<!-- 23&#45;&gt;18 -->
<g id="edge8" class="edge"><title>23&#45;&gt;18</title>
<path fill="none" stroke="black" d="M3007.6,-317.04C2995.29,-349.362 2980.32,-384.323 2963.5,-415 2958.43,-424.246 2952.82,-433.58 2946.91,-442.798"/>
<polygon fill="none" stroke="black" points="2943.94,-440.938 2941.41,-451.225 2949.81,-444.764 2943.94,-440.938"/>
</g>
<!-- 24 -->
<g id="node25" class="node"><title>24</title>
<polygon fill="none" stroke="black" points="4677,-105.5 4677,-309.5 4858,-309.5 4858,-105.5 4677,-105.5"/>
<text text-anchor="middle" x="4767.5" y="-294.3" font-family="Times,serif" font-size="14.00">Policies.UCBalpha.UCBalpha</text>
<polyline fill="none" stroke="black" points="4677,-286.5 4858,-286.5 "/>
<text text-anchor="start" x="4685" y="-271.3" font-family="Times,serif" font-size="14.00">alpha : int</text>
<text text-anchor="start" x="4685" y="-256.3" font-family="Times,serif" font-size="14.00">nbArms</text>
<text text-anchor="start" x="4685" y="-241.3" font-family="Times,serif" font-size="14.00">params</text>
<text text-anchor="start" x="4685" y="-226.3" font-family="Times,serif" font-size="14.00">pulls</text>
<text text-anchor="start" x="4685" y="-211.3" font-family="Times,serif" font-size="14.00">rewards</text>
<text text-anchor="start" x="4685" y="-196.3" font-family="Times,serif" font-size="14.00">t : int</text>
<polyline fill="none" stroke="black" points="4677,-188.5 4858,-188.5 "/>
<text text-anchor="start" x="4685" y="-173.3" font-family="Times,serif" font-size="14.00">__init__()</text>
<text text-anchor="start" x="4685" y="-158.3" font-family="Times,serif" font-size="14.00">__str__()</text>
<text text-anchor="start" x="4685" y="-143.3" font-family="Times,serif" font-size="14.00">choice()</text>
<text text-anchor="start" x="4685" y="-128.3" font-family="Times,serif" font-size="14.00">getReward()</text>
<text text-anchor="start" x="4685" y="-113.3" font-family="Times,serif" font-size="14.00">startGame()</text>
</g>
<!-- 25 -->
<g id="node26" class="node"><title>25</title>
<polygon fill="none" stroke="black" points="3133,-83 3133,-332 3276,-332 3276,-83 3133,-83"/>
<text text-anchor="middle" x="3204.5" y="-316.8" font-family="Times,serif" font-size="14.00">Policies.klUCB.klUCB</text>
<polyline fill="none" stroke="black" points="3133,-309 3276,-309 "/>
<text text-anchor="start" x="3141" y="-293.8" font-family="Times,serif" font-size="14.00">amplitude : float</text>
<text text-anchor="start" x="3141" y="-278.8" font-family="Times,serif" font-size="14.00">c : float</text>
<text text-anchor="start" x="3141" y="-263.8" font-family="Times,serif" font-size="14.00">klucb</text>
<text text-anchor="start" x="3141" y="-248.8" font-family="Times,serif" font-size="14.00">lower : float</text>
<text text-anchor="start" x="3141" y="-233.8" font-family="Times,serif" font-size="14.00">params</text>
<text text-anchor="start" x="3141" y="-218.8" font-family="Times,serif" font-size="14.00">pulls</text>
<text text-anchor="start" x="3141" y="-203.8" font-family="Times,serif" font-size="14.00">rewards</text>
<text text-anchor="start" x="3141" y="-188.8" font-family="Times,serif" font-size="14.00">t : int</text>
<text text-anchor="start" x="3141" y="-173.8" font-family="Times,serif" font-size="14.00">tolerance : float</text>
<polyline fill="none" stroke="black" points="3133,-166 3276,-166 "/>
<text text-anchor="start" x="3141" y="-150.8" font-family="Times,serif" font-size="14.00">__init__()</text>
<text text-anchor="start" x="3141" y="-135.8" font-family="Times,serif" font-size="14.00">__str__()</text>
<text text-anchor="start" x="3141" y="-120.8" font-family="Times,serif" font-size="14.00">computeIndex()</text>
<text text-anchor="start" x="3141" y="-105.8" font-family="Times,serif" font-size="14.00">getReward()</text>
<text text-anchor="start" x="3141" y="-90.8" font-family="Times,serif" font-size="14.00">startGame()</text>
</g>
<!-- 25&#45;&gt;18 -->
<g id="edge9" class="edge"><title>25&#45;&gt;18</title>
<path fill="none" stroke="black" d="M3172.4,-332.126C3160.53,-361.641 3144.62,-391.394 3123.5,-415 3082.51,-460.819 3022.57,-493.902 2970.47,-516.117"/>
<polygon fill="none" stroke="black" points="2969.05,-512.916 2961.17,-520.002 2971.75,-519.375 2969.05,-512.916"/>
</g>
<!-- 26 -->
<g id="node27" class="node"><title>26</title>
<polygon fill="none" stroke="black" points="4876,-135.5 4876,-279.5 5105,-279.5 5105,-135.5 4876,-135.5"/>
<text text-anchor="middle" x="4990.5" y="-264.3" font-family="Times,serif" font-size="14.00">PoliciesMultiPlayers.Dummy.Dummy</text>
<polyline fill="none" stroke="black" points="4876,-256.5 5105,-256.5 "/>
<text text-anchor="start" x="4884" y="-241.3" font-family="Times,serif" font-size="14.00">nbArms</text>
<text text-anchor="start" x="4884" y="-226.3" font-family="Times,serif" font-size="14.00">params : str</text>
<polyline fill="none" stroke="black" points="4876,-218.5 5105,-218.5 "/>
<text text-anchor="start" x="4884" y="-203.3" font-family="Times,serif" font-size="14.00">__init__()</text>
<text text-anchor="start" x="4884" y="-188.3" font-family="Times,serif" font-size="14.00">__str__()</text>
<text text-anchor="start" x="4884" y="-173.3" font-family="Times,serif" font-size="14.00">choice()</text>
<text text-anchor="start" x="4884" y="-158.3" font-family="Times,serif" font-size="14.00">getReward()</text>
<text text-anchor="start" x="4884" y="-143.3" font-family="Times,serif" font-size="14.00">startGame()</text>
</g>
<!-- 27 -->
<g id="node28" class="node"><title>27</title>
<polygon fill="none" stroke="black" points="5123.5,-128 5123.5,-287 5427.5,-287 5427.5,-128 5123.5,-128"/>
<text text-anchor="middle" x="5275.5" y="-271.8" font-family="Times,serif" font-size="14.00">PoliciesMultiPlayers.TakeFixedArm.TakeFixedArm</text>
<polyline fill="none" stroke="black" points="5123.5,-264 5427.5,-264 "/>
<text text-anchor="start" x="5131.5" y="-248.8" font-family="Times,serif" font-size="14.00">armIndex</text>
<text text-anchor="start" x="5131.5" y="-233.8" font-family="Times,serif" font-size="14.00">nbArms</text>
<text text-anchor="start" x="5131.5" y="-218.8" font-family="Times,serif" font-size="14.00">params : str</text>
<polyline fill="none" stroke="black" points="5123.5,-211 5427.5,-211 "/>
<text text-anchor="start" x="5131.5" y="-195.8" font-family="Times,serif" font-size="14.00">__init__()</text>
<text text-anchor="start" x="5131.5" y="-180.8" font-family="Times,serif" font-size="14.00">__str__()</text>
<text text-anchor="start" x="5131.5" y="-165.8" font-family="Times,serif" font-size="14.00">choice()</text>
<text text-anchor="start" x="5131.5" y="-150.8" font-family="Times,serif" font-size="14.00">getReward()</text>
<text text-anchor="start" x="5131.5" y="-135.8" font-family="Times,serif" font-size="14.00">startGame()</text>
</g>
<!-- 28 -->
<g id="node29" class="node"><title>28</title>
<polygon fill="none" stroke="black" points="5445.5,-128 5445.5,-287 5773.5,-287 5773.5,-128 5445.5,-128"/>
<text text-anchor="middle" x="5609.5" y="-271.8" font-family="Times,serif" font-size="14.00">PoliciesMultiPlayers.UniformOnSome.UniformOnSome</text>
<polyline fill="none" stroke="black" points="5445.5,-264 5773.5,-264 "/>
<text text-anchor="start" x="5453.5" y="-248.8" font-family="Times,serif" font-size="14.00">armIndexes : NoneType, list</text>
<text text-anchor="start" x="5453.5" y="-233.8" font-family="Times,serif" font-size="14.00">nbArms</text>
<text text-anchor="start" x="5453.5" y="-218.8" font-family="Times,serif" font-size="14.00">params</text>
<polyline fill="none" stroke="black" points="5445.5,-211 5773.5,-211 "/>
<text text-anchor="start" x="5453.5" y="-195.8" font-family="Times,serif" font-size="14.00">__init__()</text>
<text text-anchor="start" x="5453.5" y="-180.8" font-family="Times,serif" font-size="14.00">__str__()</text>
<text text-anchor="start" x="5453.5" y="-165.8" font-family="Times,serif" font-size="14.00">choice()</text>
<text text-anchor="start" x="5453.5" y="-150.8" font-family="Times,serif" font-size="14.00">getReward()</text>
<text text-anchor="start" x="5453.5" y="-135.8" font-family="Times,serif" font-size="14.00">startGame()</text>
</g>
</g>
</svg>
