<?xml version="1.0" encoding="UTF-8" standalone="no"?>
<!DOCTYPE svg PUBLIC "-//W3C//DTD SVG 1.1//EN"
 "http://www.w3.org/Graphics/SVG/1.1/DTD/svg11.dtd">
<!-- Generated by graphviz version 2.38.0 (20140413.2041)
 -->
<!-- Title: classes_AlgoBandits Pages: 1 -->
<svg width="5782pt" height="649pt"
 viewBox="0.00 0.00 5781.50 649.00" xmlns="http://www.w3.org/2000/svg" xmlns:xlink="http://www.w3.org/1999/xlink">
<g id="graph0" class="graph" transform="scale(1 1) rotate(0) translate(4 645)">
<title>classes_AlgoBandits</title>
<polygon fill="white" stroke="none" points="-4,4 -4,-645 5777.5,-645 5777.5,4 -4,4"/>
<!-- 0 -->
<g id="node1" class="node"><title>0</title>
<polygon fill="none" stroke="black" points="308.5,-473.5 308.5,-603.5 414.5,-603.5 414.5,-473.5 308.5,-473.5"/>
<text text-anchor="middle" x="361.5" y="-588.3" font-family="Times,serif" font-size="14.00">Arms.Arm.Arm</text>
<polyline fill="none" stroke="black" points="308.5,-580.5 414.5,-580.5 "/>
<polyline fill="none" stroke="black" points="308.5,-556.5 414.5,-556.5 "/>
<text text-anchor="start" x="316.5" y="-541.3" font-family="Times,serif" font-size="14.00">__init__()</text>
<text text-anchor="start" x="316.5" y="-526.3" font-family="Times,serif" font-size="14.00">__repr__()</text>
<text text-anchor="start" x="316.5" y="-511.3" font-family="Times,serif" font-size="14.00">__str__()</text>
<text text-anchor="start" x="316.5" y="-496.3" font-family="Times,serif" font-size="14.00">draw()</text>
<text text-anchor="start" x="316.5" y="-481.3" font-family="Times,serif" font-size="14.00">mean()</text>
</g>
<!-- 1 -->
<g id="node2" class="node"><title>1</title>
<polygon fill="none" stroke="black" points="0,-135.5 0,-264.5 157,-264.5 157,-135.5 0,-135.5"/>
<text text-anchor="middle" x="78.5" y="-249.3" font-family="Times,serif" font-size="14.00">Arms.Bernoulli.Bernoulli</text>
<polyline fill="none" stroke="black" points="0,-241.5 157,-241.5 "/>
<text text-anchor="start" x="8" y="-226.3" font-family="Times,serif" font-size="14.00">probability</text>
<polyline fill="none" stroke="black" points="0,-218.5 157,-218.5 "/>
<text text-anchor="start" x="8" y="-203.3" font-family="Times,serif" font-size="14.00">__init__()</text>
<text text-anchor="start" x="8" y="-188.3" font-family="Times,serif" font-size="14.00">__repr__()</text>
<text text-anchor="start" x="8" y="-173.3" font-family="Times,serif" font-size="14.00">__str__()</text>
<text text-anchor="start" x="8" y="-158.3" font-family="Times,serif" font-size="14.00">draw()</text>
<text text-anchor="start" x="8" y="-143.3" font-family="Times,serif" font-size="14.00">mean()</text>
</g>
<!-- 1&#45;&gt;0 -->
<g id="edge1" class="edge"><title>1&#45;&gt;0</title>
<path fill="none" stroke="black" d="M96.3716,-264.561C110.343,-306.23 132.913,-360.161 165.5,-400 202.231,-444.906 257.171,-481.718 299.546,-505.913"/>
<polygon fill="none" stroke="black" points="297.955,-509.033 308.387,-510.883 301.385,-502.931 297.955,-509.033"/>
</g>
<!-- 2 -->
<g id="node3" class="node"><title>2</title>
<polygon fill="none" stroke="black" points="175,-120.5 175,-279.5 360,-279.5 360,-120.5 175,-120.5"/>
<text text-anchor="middle" x="267.5" y="-264.3" font-family="Times,serif" font-size="14.00">Arms.Exponential.Exponential</text>
<polyline fill="none" stroke="black" points="175,-256.5 360,-256.5 "/>
<text text-anchor="start" x="183" y="-241.3" font-family="Times,serif" font-size="14.00">expectation</text>
<text text-anchor="start" x="183" y="-226.3" font-family="Times,serif" font-size="14.00">p</text>
<text text-anchor="start" x="183" y="-211.3" font-family="Times,serif" font-size="14.00">trunc : float</text>
<polyline fill="none" stroke="black" points="175,-203.5 360,-203.5 "/>
<text text-anchor="start" x="183" y="-188.3" font-family="Times,serif" font-size="14.00">__init__()</text>
<text text-anchor="start" x="183" y="-173.3" font-family="Times,serif" font-size="14.00">__repr__()</text>
<text text-anchor="start" x="183" y="-158.3" font-family="Times,serif" font-size="14.00">__str__()</text>
<text text-anchor="start" x="183" y="-143.3" font-family="Times,serif" font-size="14.00">draw()</text>
<text text-anchor="start" x="183" y="-128.3" font-family="Times,serif" font-size="14.00">mean()</text>
</g>
<!-- 2&#45;&gt;0 -->
<g id="edge2" class="edge"><title>2&#45;&gt;0</title>
<path fill="none" stroke="black" d="M289.539,-279.894C305.043,-335.397 325.653,-409.175 340.842,-463.547"/>
<polygon fill="none" stroke="black" points="337.551,-464.776 343.612,-473.465 344.293,-462.892 337.551,-464.776"/>
</g>
<!-- 3 -->
<g id="node4" class="node"><title>3</title>
<polygon fill="none" stroke="black" points="378.5,-120.5 378.5,-279.5 532.5,-279.5 532.5,-120.5 378.5,-120.5"/>
<text text-anchor="middle" x="455.5" y="-264.3" font-family="Times,serif" font-size="14.00">Arms.Gaussian.Gaussian</text>
<polyline fill="none" stroke="black" points="378.5,-256.5 532.5,-256.5 "/>
<text text-anchor="start" x="386.5" y="-241.3" font-family="Times,serif" font-size="14.00">expectation</text>
<text text-anchor="start" x="386.5" y="-226.3" font-family="Times,serif" font-size="14.00">mu</text>
<text text-anchor="start" x="386.5" y="-211.3" font-family="Times,serif" font-size="14.00">sigma</text>
<polyline fill="none" stroke="black" points="378.5,-203.5 532.5,-203.5 "/>
<text text-anchor="start" x="386.5" y="-188.3" font-family="Times,serif" font-size="14.00">__init__()</text>
<text text-anchor="start" x="386.5" y="-173.3" font-family="Times,serif" font-size="14.00">__repr__()</text>
<text text-anchor="start" x="386.5" y="-158.3" font-family="Times,serif" font-size="14.00">__str__()</text>
<text text-anchor="start" x="386.5" y="-143.3" font-family="Times,serif" font-size="14.00">draw()</text>
<text text-anchor="start" x="386.5" y="-128.3" font-family="Times,serif" font-size="14.00">mean()</text>
</g>
<!-- 3&#45;&gt;0 -->
<g id="edge3" class="edge"><title>3&#45;&gt;0</title>
<path fill="none" stroke="black" d="M433.461,-279.894C417.957,-335.397 397.347,-409.175 382.158,-463.547"/>
<polygon fill="none" stroke="black" points="378.707,-462.892 379.388,-473.465 385.449,-464.776 378.707,-462.892"/>
</g>
<!-- 4 -->
<g id="node5" class="node"><title>4</title>
<polygon fill="none" stroke="black" points="551,-120.5 551,-279.5 690,-279.5 690,-120.5 551,-120.5"/>
<text text-anchor="middle" x="620.5" y="-264.3" font-family="Times,serif" font-size="14.00">Arms.Poisson.Poisson</text>
<polyline fill="none" stroke="black" points="551,-256.5 690,-256.5 "/>
<text text-anchor="start" x="559" y="-241.3" font-family="Times,serif" font-size="14.00">expectation : int</text>
<text text-anchor="start" x="559" y="-226.3" font-family="Times,serif" font-size="14.00">p</text>
<text text-anchor="start" x="559" y="-211.3" font-family="Times,serif" font-size="14.00">trunc : float</text>
<polyline fill="none" stroke="black" points="551,-203.5 690,-203.5 "/>
<text text-anchor="start" x="559" y="-188.3" font-family="Times,serif" font-size="14.00">__init__()</text>
<text text-anchor="start" x="559" y="-173.3" font-family="Times,serif" font-size="14.00">__repr__()</text>
<text text-anchor="start" x="559" y="-158.3" font-family="Times,serif" font-size="14.00">__str__()</text>
<text text-anchor="start" x="559" y="-143.3" font-family="Times,serif" font-size="14.00">draw()</text>
<text text-anchor="start" x="559" y="-128.3" font-family="Times,serif" font-size="14.00">mean()</text>
</g>
<!-- 4&#45;&gt;0 -->
<g id="edge4" class="edge"><title>4&#45;&gt;0</title>
<path fill="none" stroke="black" d="M600.103,-279.709C587.472,-318.493 568.43,-364.441 541.5,-400 509.605,-442.114 461.617,-477.892 423.209,-502.388"/>
<polygon fill="none" stroke="black" points="421.277,-499.468 414.67,-507.75 425,-505.396 421.277,-499.468"/>
</g>
<!-- 5 -->
<g id="node6" class="node"><title>5</title>
<polygon fill="none" stroke="black" points="708.5,-15.5 708.5,-384.5 908.5,-384.5 908.5,-15.5 708.5,-15.5"/>
<text text-anchor="middle" x="808.5" y="-369.3" font-family="Times,serif" font-size="14.00">Environment.Evaluator.Evaluator</text>
<polyline fill="none" stroke="black" points="708.5,-361.5 908.5,-361.5 "/>
<text text-anchor="start" x="716.5" y="-346.3" font-family="Times,serif" font-size="14.00">averageOn : float</text>
<text text-anchor="start" x="716.5" y="-331.3" font-family="Times,serif" font-size="14.00">bestArmPulls : dict</text>
<text text-anchor="start" x="716.5" y="-316.3" font-family="Times,serif" font-size="14.00">cfg</text>
<text text-anchor="start" x="716.5" y="-301.3" font-family="Times,serif" font-size="14.00">envs : list</text>
<text text-anchor="start" x="716.5" y="-286.3" font-family="Times,serif" font-size="14.00">finalRanksOnAverage : bool</text>
<text text-anchor="start" x="716.5" y="-271.3" font-family="Times,serif" font-size="14.00">policies : list</text>
<text text-anchor="start" x="716.5" y="-256.3" font-family="Times,serif" font-size="14.00">pulls : dict</text>
<text text-anchor="start" x="716.5" y="-241.3" font-family="Times,serif" font-size="14.00">rewards</text>
<text text-anchor="start" x="716.5" y="-226.3" font-family="Times,serif" font-size="14.00">useJoblib</text>
<text text-anchor="start" x="716.5" y="-211.3" font-family="Times,serif" font-size="14.00">useJoblibForPolicies : bool</text>
<polyline fill="none" stroke="black" points="708.5,-203.5 908.5,-203.5 "/>
<text text-anchor="start" x="716.5" y="-188.3" font-family="Times,serif" font-size="14.00">__initEnvironments__()</text>
<text text-anchor="start" x="716.5" y="-173.3" font-family="Times,serif" font-size="14.00">__initPolicies__()</text>
<text text-anchor="start" x="716.5" y="-158.3" font-family="Times,serif" font-size="14.00">__init__()</text>
<text text-anchor="start" x="716.5" y="-143.3" font-family="Times,serif" font-size="14.00">getPulls()</text>
<text text-anchor="start" x="716.5" y="-128.3" font-family="Times,serif" font-size="14.00">getRegret()</text>
<text text-anchor="start" x="716.5" y="-113.3" font-family="Times,serif" font-size="14.00">getReward()</text>
<text text-anchor="start" x="716.5" y="-98.3" font-family="Times,serif" font-size="14.00">getbestArmPulls()</text>
<text text-anchor="start" x="716.5" y="-83.3" font-family="Times,serif" font-size="14.00">giveFinalRanking()</text>
<text text-anchor="start" x="716.5" y="-68.3" font-family="Times,serif" font-size="14.00">plotBestArmPulls()</text>
<text text-anchor="start" x="716.5" y="-53.3" font-family="Times,serif" font-size="14.00">plotRewards()</text>
<text text-anchor="start" x="716.5" y="-38.3" font-family="Times,serif" font-size="14.00">start_all_env()</text>
<text text-anchor="start" x="716.5" y="-23.3" font-family="Times,serif" font-size="14.00">start_one_env()</text>
</g>
<!-- 6 -->
<g id="node7" class="node"><title>6</title>
<polygon fill="none" stroke="black" points="927,-0.5 927,-399.5 1268,-399.5 1268,-0.5 927,-0.5"/>
<text text-anchor="middle" x="1097.5" y="-384.3" font-family="Times,serif" font-size="14.00">Environment.EvaluatorMultiPlayers.EvaluatorMultiPlayers</text>
<polyline fill="none" stroke="black" points="927,-376.5 1268,-376.5 "/>
<text text-anchor="start" x="935" y="-361.3" font-family="Times,serif" font-size="14.00">averageOn : float</text>
<text text-anchor="start" x="935" y="-346.3" font-family="Times,serif" font-size="14.00">bestArmPulls : dict</text>
<text text-anchor="start" x="935" y="-331.3" font-family="Times,serif" font-size="14.00">cfg</text>
<text text-anchor="start" x="935" y="-316.3" font-family="Times,serif" font-size="14.00">envs : list</text>
<text text-anchor="start" x="935" y="-301.3" font-family="Times,serif" font-size="14.00">finalRanksOnAverage : bool</text>
<text text-anchor="start" x="935" y="-286.3" font-family="Times,serif" font-size="14.00">horizon</text>
<text text-anchor="start" x="935" y="-271.3" font-family="Times,serif" font-size="14.00">nbPlayers</text>
<text text-anchor="start" x="935" y="-256.3" font-family="Times,serif" font-size="14.00">players : list</text>
<text text-anchor="start" x="935" y="-241.3" font-family="Times,serif" font-size="14.00">pulls : dict</text>
<text text-anchor="start" x="935" y="-226.3" font-family="Times,serif" font-size="14.00">repetitions</text>
<text text-anchor="start" x="935" y="-211.3" font-family="Times,serif" font-size="14.00">rewards : dict</text>
<text text-anchor="start" x="935" y="-196.3" font-family="Times,serif" font-size="14.00">useJoblib</text>
<polyline fill="none" stroke="black" points="927,-188.5 1268,-188.5 "/>
<text text-anchor="start" x="935" y="-173.3" font-family="Times,serif" font-size="14.00">__initEnvironments__()</text>
<text text-anchor="start" x="935" y="-158.3" font-family="Times,serif" font-size="14.00">__initPlayers__()</text>
<text text-anchor="start" x="935" y="-143.3" font-family="Times,serif" font-size="14.00">__init__()</text>
<text text-anchor="start" x="935" y="-128.3" font-family="Times,serif" font-size="14.00">getPulls()</text>
<text text-anchor="start" x="935" y="-113.3" font-family="Times,serif" font-size="14.00">getRegret()</text>
<text text-anchor="start" x="935" y="-98.3" font-family="Times,serif" font-size="14.00">getReward()</text>
<text text-anchor="start" x="935" y="-83.3" font-family="Times,serif" font-size="14.00">getbestArmPulls()</text>
<text text-anchor="start" x="935" y="-68.3" font-family="Times,serif" font-size="14.00">giveFinalRanking()</text>
<text text-anchor="start" x="935" y="-53.3" font-family="Times,serif" font-size="14.00">plotBestArmPulls()</text>
<text text-anchor="start" x="935" y="-38.3" font-family="Times,serif" font-size="14.00">plotRewards()</text>
<text text-anchor="start" x="935" y="-23.3" font-family="Times,serif" font-size="14.00">start_all_env()</text>
<text text-anchor="start" x="935" y="-8.3" font-family="Times,serif" font-size="14.00">start_one_env()</text>
</g>
<!-- 7 -->
<g id="node8" class="node"><title>7</title>
<polygon fill="none" stroke="black" points="1286.5,-143 1286.5,-257 1444.5,-257 1444.5,-143 1286.5,-143"/>
<text text-anchor="middle" x="1365.5" y="-241.8" font-family="Times,serif" font-size="14.00">Environment.MAB.MAB</text>
<polyline fill="none" stroke="black" points="1286.5,-234 1444.5,-234 "/>
<text text-anchor="start" x="1294.5" y="-218.8" font-family="Times,serif" font-size="14.00">arms</text>
<text text-anchor="start" x="1294.5" y="-203.8" font-family="Times,serif" font-size="14.00">maxArm</text>
<text text-anchor="start" x="1294.5" y="-188.8" font-family="Times,serif" font-size="14.00">nbArms</text>
<polyline fill="none" stroke="black" points="1286.5,-181 1444.5,-181 "/>
<text text-anchor="start" x="1294.5" y="-165.8" font-family="Times,serif" font-size="14.00">__init__()</text>
<text text-anchor="start" x="1294.5" y="-150.8" font-family="Times,serif" font-size="14.00">__repr__()</text>
</g>
<!-- 8 -->
<g id="node9" class="node"><title>8</title>
<polygon fill="none" stroke="black" points="1462.5,-143 1462.5,-257 1626.5,-257 1626.5,-143 1462.5,-143"/>
<text text-anchor="middle" x="1544.5" y="-241.8" font-family="Times,serif" font-size="14.00">Environment.Result.Result</text>
<polyline fill="none" stroke="black" points="1462.5,-234 1626.5,-234 "/>
<text text-anchor="start" x="1470.5" y="-218.8" font-family="Times,serif" font-size="14.00">choices</text>
<text text-anchor="start" x="1470.5" y="-203.8" font-family="Times,serif" font-size="14.00">pulls</text>
<text text-anchor="start" x="1470.5" y="-188.8" font-family="Times,serif" font-size="14.00">rewards</text>
<polyline fill="none" stroke="black" points="1462.5,-181 1626.5,-181 "/>
<text text-anchor="start" x="1470.5" y="-165.8" font-family="Times,serif" font-size="14.00">__init__()</text>
<text text-anchor="start" x="1470.5" y="-150.8" font-family="Times,serif" font-size="14.00">store()</text>
</g>
<!-- 9 -->
<g id="node10" class="node"><title>9</title>
<polygon fill="none" stroke="black" points="1645,-143 1645,-257 1950,-257 1950,-143 1645,-143"/>
<text text-anchor="middle" x="1797.5" y="-241.8" font-family="Times,serif" font-size="14.00">Environment.ResultMultiPlayers.ResultMultiPlayers</text>
<polyline fill="none" stroke="black" points="1645,-234 1950,-234 "/>
<text text-anchor="start" x="1653" y="-218.8" font-family="Times,serif" font-size="14.00">choices</text>
<text text-anchor="start" x="1653" y="-203.8" font-family="Times,serif" font-size="14.00">pulls</text>
<text text-anchor="start" x="1653" y="-188.8" font-family="Times,serif" font-size="14.00">rewards</text>
<polyline fill="none" stroke="black" points="1645,-181 1950,-181 "/>
<text text-anchor="start" x="1653" y="-165.8" font-family="Times,serif" font-size="14.00">__init__()</text>
<text text-anchor="start" x="1653" y="-150.8" font-family="Times,serif" font-size="14.00">store()</text>
</g>
<!-- 10 -->
<g id="node11" class="node"><title>10</title>
<polygon fill="none" stroke="black" points="1968,-75.5 1968,-324.5 2145,-324.5 2145,-75.5 1968,-75.5"/>
<text text-anchor="middle" x="2056.5" y="-309.3" font-family="Times,serif" font-size="14.00">Policies.AdBandits.AdBandit</text>
<polyline fill="none" stroke="black" points="1968,-301.5 2145,-301.5 "/>
<text text-anchor="start" x="1976" y="-286.3" font-family="Times,serif" font-size="14.00">alpha</text>
<text text-anchor="start" x="1976" y="-271.3" font-family="Times,serif" font-size="14.00">horizon</text>
<text text-anchor="start" x="1976" y="-256.3" font-family="Times,serif" font-size="14.00">nbArms</text>
<text text-anchor="start" x="1976" y="-241.3" font-family="Times,serif" font-size="14.00">params</text>
<text text-anchor="start" x="1976" y="-226.3" font-family="Times,serif" font-size="14.00">posterior : dict</text>
<text text-anchor="start" x="1976" y="-211.3" font-family="Times,serif" font-size="14.00">pulls</text>
<text text-anchor="start" x="1976" y="-196.3" font-family="Times,serif" font-size="14.00">rewards</text>
<text text-anchor="start" x="1976" y="-181.3" font-family="Times,serif" font-size="14.00">t : int</text>
<polyline fill="none" stroke="black" points="1968,-173.5 2145,-173.5 "/>
<text text-anchor="start" x="1976" y="-158.3" font-family="Times,serif" font-size="14.00">__init__()</text>
<text text-anchor="start" x="1976" y="-143.3" font-family="Times,serif" font-size="14.00">__str__()</text>
<text text-anchor="start" x="1976" y="-128.3" font-family="Times,serif" font-size="14.00">choice()</text>
<text text-anchor="start" x="1976" y="-113.3" font-family="Times,serif" font-size="14.00">computeIndex()</text>
<text text-anchor="start" x="1976" y="-98.3" font-family="Times,serif" font-size="14.00">getReward()</text>
<text text-anchor="start" x="1976" y="-83.3" font-family="Times,serif" font-size="14.00">startGame()</text>
</g>
<!-- 11 -->
<g id="node12" class="node"><title>11</title>
<polygon fill="none" stroke="black" points="2163,-45.5 2163,-354.5 2322,-354.5 2322,-45.5 2163,-45.5"/>
<text text-anchor="middle" x="2242.5" y="-339.3" font-family="Times,serif" font-size="14.00">Policies.Aggr.Aggr</text>
<polyline fill="none" stroke="black" points="2163,-331.5 2322,-331.5 "/>
<text text-anchor="start" x="2171" y="-316.3" font-family="Times,serif" font-size="14.00">USE_JOBLIB : bool</text>
<text text-anchor="start" x="2171" y="-301.3" font-family="Times,serif" font-size="14.00">children : list</text>
<text text-anchor="start" x="2171" y="-286.3" font-family="Times,serif" font-size="14.00">choices</text>
<text text-anchor="start" x="2171" y="-271.3" font-family="Times,serif" font-size="14.00">decreaseRate : NoneType</text>
<text text-anchor="start" x="2171" y="-256.3" font-family="Times,serif" font-size="14.00">learningRate</text>
<text text-anchor="start" x="2171" y="-241.3" font-family="Times,serif" font-size="14.00">n_jobs : int</text>
<text text-anchor="start" x="2171" y="-226.3" font-family="Times,serif" font-size="14.00">nbArms</text>
<text text-anchor="start" x="2171" y="-211.3" font-family="Times,serif" font-size="14.00">nbChildren</text>
<text text-anchor="start" x="2171" y="-196.3" font-family="Times,serif" font-size="14.00">params</text>
<text text-anchor="start" x="2171" y="-181.3" font-family="Times,serif" font-size="14.00">t : int</text>
<text text-anchor="start" x="2171" y="-166.3" font-family="Times,serif" font-size="14.00">trusts : str</text>
<text text-anchor="start" x="2171" y="-151.3" font-family="Times,serif" font-size="14.00">update_all_children : bool</text>
<text text-anchor="start" x="2171" y="-136.3" font-family="Times,serif" font-size="14.00">verbosity : int</text>
<polyline fill="none" stroke="black" points="2163,-128.5 2322,-128.5 "/>
<text text-anchor="start" x="2171" y="-113.3" font-family="Times,serif" font-size="14.00">__init__()</text>
<text text-anchor="start" x="2171" y="-98.3" font-family="Times,serif" font-size="14.00">__str__()</text>
<text text-anchor="start" x="2171" y="-83.3" font-family="Times,serif" font-size="14.00">choice()</text>
<text text-anchor="start" x="2171" y="-68.3" font-family="Times,serif" font-size="14.00">getReward()</text>
<text text-anchor="start" x="2171" y="-53.3" font-family="Times,serif" font-size="14.00">startGame()</text>
</g>
<!-- 12 -->
<g id="node13" class="node"><title>12</title>
<polygon fill="none" stroke="black" points="2340.5,-120.5 2340.5,-279.5 2528.5,-279.5 2528.5,-120.5 2340.5,-120.5"/>
<text text-anchor="middle" x="2434.5" y="-264.3" font-family="Times,serif" font-size="14.00">Policies.BayesUCB.BayesUCB</text>
<polyline fill="none" stroke="black" points="2340.5,-256.5 2528.5,-256.5 "/>
<text text-anchor="start" x="2348.5" y="-241.3" font-family="Times,serif" font-size="14.00">params</text>
<text text-anchor="start" x="2348.5" y="-226.3" font-family="Times,serif" font-size="14.00">posterior</text>
<text text-anchor="start" x="2348.5" y="-211.3" font-family="Times,serif" font-size="14.00">t : int</text>
<polyline fill="none" stroke="black" points="2340.5,-203.5 2528.5,-203.5 "/>
<text text-anchor="start" x="2348.5" y="-188.3" font-family="Times,serif" font-size="14.00">__init__()</text>
<text text-anchor="start" x="2348.5" y="-173.3" font-family="Times,serif" font-size="14.00">__str__()</text>
<text text-anchor="start" x="2348.5" y="-158.3" font-family="Times,serif" font-size="14.00">computeIndex()</text>
<text text-anchor="start" x="2348.5" y="-143.3" font-family="Times,serif" font-size="14.00">getReward()</text>
<text text-anchor="start" x="2348.5" y="-128.3" font-family="Times,serif" font-size="14.00">startGame()</text>
</g>
<!-- 18 -->
<g id="node19" class="node"><title>18</title>
<polygon fill="none" stroke="black" points="2764,-436.5 2764,-640.5 2961,-640.5 2961,-436.5 2764,-436.5"/>
<text text-anchor="middle" x="2862.5" y="-625.3" font-family="Times,serif" font-size="14.00">Policies.IndexPolicy.IndexPolicy</text>
<polyline fill="none" stroke="black" points="2764,-617.5 2961,-617.5 "/>
<text text-anchor="start" x="2772" y="-602.3" font-family="Times,serif" font-size="14.00">_index</text>
<text text-anchor="start" x="2772" y="-587.3" font-family="Times,serif" font-size="14.00">nbArms</text>
<text text-anchor="start" x="2772" y="-572.3" font-family="Times,serif" font-size="14.00">params : str</text>
<text text-anchor="start" x="2772" y="-557.3" font-family="Times,serif" font-size="14.00">pulls</text>
<text text-anchor="start" x="2772" y="-542.3" font-family="Times,serif" font-size="14.00">rewards</text>
<text text-anchor="start" x="2772" y="-527.3" font-family="Times,serif" font-size="14.00">t : int</text>
<polyline fill="none" stroke="black" points="2764,-519.5 2961,-519.5 "/>
<text text-anchor="start" x="2772" y="-504.3" font-family="Times,serif" font-size="14.00">__init__()</text>
<text text-anchor="start" x="2772" y="-489.3" font-family="Times,serif" font-size="14.00">__str__()</text>
<text text-anchor="start" x="2772" y="-474.3" font-family="Times,serif" font-size="14.00">choice()</text>
<text text-anchor="start" x="2772" y="-459.3" font-family="Times,serif" font-size="14.00">getReward()</text>
<text text-anchor="start" x="2772" y="-444.3" font-family="Times,serif" font-size="14.00">startGame()</text>
</g>
<!-- 12&#45;&gt;18 -->
<g id="edge5" class="edge"><title>12&#45;&gt;18</title>
<path fill="none" stroke="black" d="M2460.38,-279.519C2477.03,-319.906 2502.24,-367.367 2537.5,-400 2598.14,-456.123 2685.09,-491.274 2753.8,-511.974"/>
<polygon fill="none" stroke="black" points="2753.21,-515.451 2763.8,-514.924 2755.2,-508.737 2753.21,-515.451"/>
</g>
<!-- 13 -->
<g id="node14" class="node"><title>13</title>
<polygon fill="none" stroke="black" points="3294.5,-98 3294.5,-302 3410.5,-302 3410.5,-98 3294.5,-98"/>
<text text-anchor="middle" x="3352.5" y="-286.8" font-family="Times,serif" font-size="14.00">Policies.Beta.Beta</text>
<polyline fill="none" stroke="black" points="3294.5,-279 3410.5,-279 "/>
<text text-anchor="start" x="3302.5" y="-263.8" font-family="Times,serif" font-size="14.00">N : list</text>
<text text-anchor="start" x="3302.5" y="-248.8" font-family="Times,serif" font-size="14.00">a : int</text>
<text text-anchor="start" x="3302.5" y="-233.8" font-family="Times,serif" font-size="14.00">b : int</text>
<polyline fill="none" stroke="black" points="3294.5,-226 3410.5,-226 "/>
<text text-anchor="start" x="3302.5" y="-210.8" font-family="Times,serif" font-size="14.00">__init__()</text>
<text text-anchor="start" x="3302.5" y="-195.8" font-family="Times,serif" font-size="14.00">__repr__()</text>
<text text-anchor="start" x="3302.5" y="-180.8" font-family="Times,serif" font-size="14.00">forget()</text>
<text text-anchor="start" x="3302.5" y="-165.8" font-family="Times,serif" font-size="14.00">mean()</text>
<text text-anchor="start" x="3302.5" y="-150.8" font-family="Times,serif" font-size="14.00">quantile()</text>
<text text-anchor="start" x="3302.5" y="-135.8" font-family="Times,serif" font-size="14.00">reset()</text>
<text text-anchor="start" x="3302.5" y="-120.8" font-family="Times,serif" font-size="14.00">sample()</text>
<text text-anchor="start" x="3302.5" y="-105.8" font-family="Times,serif" font-size="14.00">update()</text>
</g>
<!-- 14 -->
<g id="node15" class="node"><title>14</title>
<polygon fill="none" stroke="black" points="3428.5,-128 3428.5,-272 3586.5,-272 3586.5,-128 3428.5,-128"/>
<text text-anchor="middle" x="3507.5" y="-256.8" font-family="Times,serif" font-size="14.00">Policies.Dummy.Dummy</text>
<polyline fill="none" stroke="black" points="3428.5,-249 3586.5,-249 "/>
<text text-anchor="start" x="3436.5" y="-233.8" font-family="Times,serif" font-size="14.00">nbArms</text>
<text text-anchor="start" x="3436.5" y="-218.8" font-family="Times,serif" font-size="14.00">params : str</text>
<polyline fill="none" stroke="black" points="3428.5,-211 3586.5,-211 "/>
<text text-anchor="start" x="3436.5" y="-195.8" font-family="Times,serif" font-size="14.00">__init__()</text>
<text text-anchor="start" x="3436.5" y="-180.8" font-family="Times,serif" font-size="14.00">__str__()</text>
<text text-anchor="start" x="3436.5" y="-165.8" font-family="Times,serif" font-size="14.00">choice()</text>
<text text-anchor="start" x="3436.5" y="-150.8" font-family="Times,serif" font-size="14.00">getReward()</text>
<text text-anchor="start" x="3436.5" y="-135.8" font-family="Times,serif" font-size="14.00">startGame()</text>
</g>
<!-- 15 -->
<g id="node16" class="node"><title>15</title>
<polygon fill="none" stroke="black" points="3605,-98 3605,-302 3876,-302 3876,-98 3605,-98"/>
<text text-anchor="middle" x="3740.5" y="-286.8" font-family="Times,serif" font-size="14.00">Policies.EpsilonDecreasing.EpsilonDecreasing</text>
<polyline fill="none" stroke="black" points="3605,-279 3876,-279 "/>
<text text-anchor="start" x="3613" y="-263.8" font-family="Times,serif" font-size="14.00">decreasingRate : float</text>
<text text-anchor="start" x="3613" y="-248.8" font-family="Times,serif" font-size="14.00">epsilon : float</text>
<text text-anchor="start" x="3613" y="-233.8" font-family="Times,serif" font-size="14.00">nbArms</text>
<text text-anchor="start" x="3613" y="-218.8" font-family="Times,serif" font-size="14.00">params : str</text>
<text text-anchor="start" x="3613" y="-203.8" font-family="Times,serif" font-size="14.00">rewards</text>
<text text-anchor="start" x="3613" y="-188.8" font-family="Times,serif" font-size="14.00">t : int</text>
<polyline fill="none" stroke="black" points="3605,-181 3876,-181 "/>
<text text-anchor="start" x="3613" y="-165.8" font-family="Times,serif" font-size="14.00">__init__()</text>
<text text-anchor="start" x="3613" y="-150.8" font-family="Times,serif" font-size="14.00">__str__()</text>
<text text-anchor="start" x="3613" y="-135.8" font-family="Times,serif" font-size="14.00">choice()</text>
<text text-anchor="start" x="3613" y="-120.8" font-family="Times,serif" font-size="14.00">getReward()</text>
<text text-anchor="start" x="3613" y="-105.8" font-family="Times,serif" font-size="14.00">startGame()</text>
</g>
<!-- 16 -->
<g id="node17" class="node"><title>16</title>
<polygon fill="none" stroke="black" points="3894,-98 3894,-302 4093,-302 4093,-98 3894,-98"/>
<text text-anchor="middle" x="3993.5" y="-286.8" font-family="Times,serif" font-size="14.00">Policies.EpsilonFirst.EpsilonFirst</text>
<polyline fill="none" stroke="black" points="3894,-279 4093,-279 "/>
<text text-anchor="start" x="3902" y="-263.8" font-family="Times,serif" font-size="14.00">epsilon : float</text>
<text text-anchor="start" x="3902" y="-248.8" font-family="Times,serif" font-size="14.00">horizon</text>
<text text-anchor="start" x="3902" y="-233.8" font-family="Times,serif" font-size="14.00">nbArms</text>
<text text-anchor="start" x="3902" y="-218.8" font-family="Times,serif" font-size="14.00">params : str</text>
<text text-anchor="start" x="3902" y="-203.8" font-family="Times,serif" font-size="14.00">rewards</text>
<text text-anchor="start" x="3902" y="-188.8" font-family="Times,serif" font-size="14.00">t : int</text>
<polyline fill="none" stroke="black" points="3894,-181 4093,-181 "/>
<text text-anchor="start" x="3902" y="-165.8" font-family="Times,serif" font-size="14.00">__init__()</text>
<text text-anchor="start" x="3902" y="-150.8" font-family="Times,serif" font-size="14.00">__str__()</text>
<text text-anchor="start" x="3902" y="-135.8" font-family="Times,serif" font-size="14.00">choice()</text>
<text text-anchor="start" x="3902" y="-120.8" font-family="Times,serif" font-size="14.00">getReward()</text>
<text text-anchor="start" x="3902" y="-105.8" font-family="Times,serif" font-size="14.00">startGame()</text>
</g>
<!-- 17 -->
<g id="node18" class="node"><title>17</title>
<polygon fill="none" stroke="black" points="4111,-113 4111,-287 4340,-287 4340,-113 4111,-113"/>
<text text-anchor="middle" x="4225.5" y="-271.8" font-family="Times,serif" font-size="14.00">Policies.EpsilonGreedy.EpsilonGreedy</text>
<polyline fill="none" stroke="black" points="4111,-264 4340,-264 "/>
<text text-anchor="start" x="4119" y="-248.8" font-family="Times,serif" font-size="14.00">epsilon : float</text>
<text text-anchor="start" x="4119" y="-233.8" font-family="Times,serif" font-size="14.00">nbArms</text>
<text text-anchor="start" x="4119" y="-218.8" font-family="Times,serif" font-size="14.00">params</text>
<text text-anchor="start" x="4119" y="-203.8" font-family="Times,serif" font-size="14.00">rewards</text>
<polyline fill="none" stroke="black" points="4111,-196 4340,-196 "/>
<text text-anchor="start" x="4119" y="-180.8" font-family="Times,serif" font-size="14.00">__init__()</text>
<text text-anchor="start" x="4119" y="-165.8" font-family="Times,serif" font-size="14.00">__str__()</text>
<text text-anchor="start" x="4119" y="-150.8" font-family="Times,serif" font-size="14.00">choice()</text>
<text text-anchor="start" x="4119" y="-135.8" font-family="Times,serif" font-size="14.00">getReward()</text>
<text text-anchor="start" x="4119" y="-120.8" font-family="Times,serif" font-size="14.00">startGame()</text>
</g>
<!-- 19 -->
<g id="node20" class="node"><title>19</title>
<polygon fill="none" stroke="black" points="2546.5,-98 2546.5,-302 2752.5,-302 2752.5,-98 2546.5,-98"/>
<text text-anchor="middle" x="2649.5" y="-286.8" font-family="Times,serif" font-size="14.00">Policies.KLempUCB.KLempUCB</text>
<polyline fill="none" stroke="black" points="2546.5,-279 2752.5,-279 "/>
<text text-anchor="start" x="2554.5" y="-263.8" font-family="Times,serif" font-size="14.00">c : int</text>
<text text-anchor="start" x="2554.5" y="-248.8" font-family="Times,serif" font-size="14.00">maxReward : float</text>
<text text-anchor="start" x="2554.5" y="-233.8" font-family="Times,serif" font-size="14.00">obs</text>
<text text-anchor="start" x="2554.5" y="-218.8" font-family="Times,serif" font-size="14.00">params</text>
<text text-anchor="start" x="2554.5" y="-203.8" font-family="Times,serif" font-size="14.00">pulls</text>
<text text-anchor="start" x="2554.5" y="-188.8" font-family="Times,serif" font-size="14.00">t : int</text>
<polyline fill="none" stroke="black" points="2546.5,-181 2752.5,-181 "/>
<text text-anchor="start" x="2554.5" y="-165.8" font-family="Times,serif" font-size="14.00">_KLucb()</text>
<text text-anchor="start" x="2554.5" y="-150.8" font-family="Times,serif" font-size="14.00">__init__()</text>
<text text-anchor="start" x="2554.5" y="-135.8" font-family="Times,serif" font-size="14.00">computeIndex()</text>
<text text-anchor="start" x="2554.5" y="-120.8" font-family="Times,serif" font-size="14.00">getReward()</text>
<text text-anchor="start" x="2554.5" y="-105.8" font-family="Times,serif" font-size="14.00">startGame()</text>
</g>
<!-- 19&#45;&gt;18 -->
<g id="edge6" class="edge"><title>19&#45;&gt;18</title>
<path fill="none" stroke="black" d="M2703.3,-302.105C2721.04,-333.914 2741.4,-368.854 2761.5,-400 2767.46,-409.239 2773.82,-418.691 2780.33,-428.098"/>
<polygon fill="none" stroke="black" points="2777.5,-430.15 2786.09,-436.348 2783.24,-426.144 2777.5,-430.15"/>
</g>
<!-- 20 -->
<g id="node21" class="node"><title>20</title>
<polygon fill="none" stroke="black" points="4358.5,-98 4358.5,-302 4518.5,-302 4518.5,-98 4358.5,-98"/>
<text text-anchor="middle" x="4438.5" y="-286.8" font-family="Times,serif" font-size="14.00">Policies.Softmax.Softmax</text>
<polyline fill="none" stroke="black" points="4358.5,-279 4518.5,-279 "/>
<text text-anchor="start" x="4366.5" y="-263.8" font-family="Times,serif" font-size="14.00">nbArms</text>
<text text-anchor="start" x="4366.5" y="-248.8" font-family="Times,serif" font-size="14.00">params</text>
<text text-anchor="start" x="4366.5" y="-233.8" font-family="Times,serif" font-size="14.00">pulls</text>
<text text-anchor="start" x="4366.5" y="-218.8" font-family="Times,serif" font-size="14.00">rewards</text>
<text text-anchor="start" x="4366.5" y="-203.8" font-family="Times,serif" font-size="14.00">t : int</text>
<text text-anchor="start" x="4366.5" y="-188.8" font-family="Times,serif" font-size="14.00">temperature : int</text>
<polyline fill="none" stroke="black" points="4358.5,-181 4518.5,-181 "/>
<text text-anchor="start" x="4366.5" y="-165.8" font-family="Times,serif" font-size="14.00">__init__()</text>
<text text-anchor="start" x="4366.5" y="-150.8" font-family="Times,serif" font-size="14.00">__str__()</text>
<text text-anchor="start" x="4366.5" y="-135.8" font-family="Times,serif" font-size="14.00">choice()</text>
<text text-anchor="start" x="4366.5" y="-120.8" font-family="Times,serif" font-size="14.00">getReward()</text>
<text text-anchor="start" x="4366.5" y="-105.8" font-family="Times,serif" font-size="14.00">startGame()</text>
</g>
<!-- 21 -->
<g id="node22" class="node"><title>21</title>
<polygon fill="none" stroke="black" points="2770.5,-128 2770.5,-272 2954.5,-272 2954.5,-128 2770.5,-128"/>
<text text-anchor="middle" x="2862.5" y="-256.8" font-family="Times,serif" font-size="14.00">Policies.Thompson.Thompson</text>
<polyline fill="none" stroke="black" points="2770.5,-249 2954.5,-249 "/>
<text text-anchor="start" x="2778.5" y="-233.8" font-family="Times,serif" font-size="14.00">posterior</text>
<text text-anchor="start" x="2778.5" y="-218.8" font-family="Times,serif" font-size="14.00">t : int</text>
<polyline fill="none" stroke="black" points="2770.5,-211 2954.5,-211 "/>
<text text-anchor="start" x="2778.5" y="-195.8" font-family="Times,serif" font-size="14.00">__init__()</text>
<text text-anchor="start" x="2778.5" y="-180.8" font-family="Times,serif" font-size="14.00">__str__()</text>
<text text-anchor="start" x="2778.5" y="-165.8" font-family="Times,serif" font-size="14.00">computeIndex()</text>
<text text-anchor="start" x="2778.5" y="-150.8" font-family="Times,serif" font-size="14.00">getReward()</text>
<text text-anchor="start" x="2778.5" y="-135.8" font-family="Times,serif" font-size="14.00">startGame()</text>
</g>
<!-- 21&#45;&gt;18 -->
<g id="edge7" class="edge"><title>21&#45;&gt;18</title>
<path fill="none" stroke="black" d="M2862.5,-272.363C2862.5,-317.037 2862.5,-375.535 2862.5,-426.214"/>
<polygon fill="none" stroke="black" points="2859,-426.239 2862.5,-436.239 2866,-426.24 2859,-426.239"/>
</g>
<!-- 22 -->
<g id="node23" class="node"><title>22</title>
<polygon fill="none" stroke="black" points="4536.5,-105.5 4536.5,-294.5 4658.5,-294.5 4658.5,-105.5 4536.5,-105.5"/>
<text text-anchor="middle" x="4597.5" y="-279.3" font-family="Times,serif" font-size="14.00">Policies.UCB.UCB</text>
<polyline fill="none" stroke="black" points="4536.5,-271.5 4658.5,-271.5 "/>
<text text-anchor="start" x="4544.5" y="-256.3" font-family="Times,serif" font-size="14.00">nbArms</text>
<text text-anchor="start" x="4544.5" y="-241.3" font-family="Times,serif" font-size="14.00">params : str</text>
<text text-anchor="start" x="4544.5" y="-226.3" font-family="Times,serif" font-size="14.00">pulls</text>
<text text-anchor="start" x="4544.5" y="-211.3" font-family="Times,serif" font-size="14.00">rewards</text>
<text text-anchor="start" x="4544.5" y="-196.3" font-family="Times,serif" font-size="14.00">t : int</text>
<polyline fill="none" stroke="black" points="4536.5,-188.5 4658.5,-188.5 "/>
<text text-anchor="start" x="4544.5" y="-173.3" font-family="Times,serif" font-size="14.00">__init__()</text>
<text text-anchor="start" x="4544.5" y="-158.3" font-family="Times,serif" font-size="14.00">__str__()</text>
<text text-anchor="start" x="4544.5" y="-143.3" font-family="Times,serif" font-size="14.00">choice()</text>
<text text-anchor="start" x="4544.5" y="-128.3" font-family="Times,serif" font-size="14.00">getReward()</text>
<text text-anchor="start" x="4544.5" y="-113.3" font-family="Times,serif" font-size="14.00">startGame()</text>
</g>
<!-- 23 -->
<g id="node24" class="node"><title>23</title>
<polygon fill="none" stroke="black" points="2972.5,-90.5 2972.5,-309.5 3114.5,-309.5 3114.5,-90.5 2972.5,-90.5"/>
<text text-anchor="middle" x="3043.5" y="-294.3" font-family="Times,serif" font-size="14.00">Policies.UCBV.UCBV</text>
<polyline fill="none" stroke="black" points="2972.5,-286.5 3114.5,-286.5 "/>
<text text-anchor="start" x="2980.5" y="-271.3" font-family="Times,serif" font-size="14.00">amplitude : float</text>
<text text-anchor="start" x="2980.5" y="-256.3" font-family="Times,serif" font-size="14.00">lower : float</text>
<text text-anchor="start" x="2980.5" y="-241.3" font-family="Times,serif" font-size="14.00">params</text>
<text text-anchor="start" x="2980.5" y="-226.3" font-family="Times,serif" font-size="14.00">pulls</text>
<text text-anchor="start" x="2980.5" y="-211.3" font-family="Times,serif" font-size="14.00">rewards</text>
<text text-anchor="start" x="2980.5" y="-196.3" font-family="Times,serif" font-size="14.00">rewardsCorrected</text>
<text text-anchor="start" x="2980.5" y="-181.3" font-family="Times,serif" font-size="14.00">t : int</text>
<polyline fill="none" stroke="black" points="2972.5,-173.5 3114.5,-173.5 "/>
<text text-anchor="start" x="2980.5" y="-158.3" font-family="Times,serif" font-size="14.00">__init__()</text>
<text text-anchor="start" x="2980.5" y="-143.3" font-family="Times,serif" font-size="14.00">__str__()</text>
<text text-anchor="start" x="2980.5" y="-128.3" font-family="Times,serif" font-size="14.00">computeIndex()</text>
<text text-anchor="start" x="2980.5" y="-113.3" font-family="Times,serif" font-size="14.00">getReward()</text>
<text text-anchor="start" x="2980.5" y="-98.3" font-family="Times,serif" font-size="14.00">startGame()</text>
</g>
<!-- 23&#45;&gt;18 -->
<g id="edge8" class="edge"><title>23&#45;&gt;18</title>
<path fill="none" stroke="black" d="M3005.54,-309.664C2993.54,-339.644 2979.25,-371.694 2963.5,-400 2958.37,-409.214 2952.72,-418.524 2946.78,-427.726"/>
<polygon fill="none" stroke="black" points="2943.82,-425.86 2941.26,-436.141 2949.67,-429.702 2943.82,-425.86"/>
</g>
<!-- 24 -->
<g id="node25" class="node"><title>24</title>
<polygon fill="none" stroke="black" points="4677,-98 4677,-302 4858,-302 4858,-98 4677,-98"/>
<text text-anchor="middle" x="4767.5" y="-286.8" font-family="Times,serif" font-size="14.00">Policies.UCBalpha.UCBalpha</text>
<polyline fill="none" stroke="black" points="4677,-279 4858,-279 "/>
<text text-anchor="start" x="4685" y="-263.8" font-family="Times,serif" font-size="14.00">alpha : int</text>
<text text-anchor="start" x="4685" y="-248.8" font-family="Times,serif" font-size="14.00">nbArms</text>
<text text-anchor="start" x="4685" y="-233.8" font-family="Times,serif" font-size="14.00">params</text>
<text text-anchor="start" x="4685" y="-218.8" font-family="Times,serif" font-size="14.00">pulls</text>
<text text-anchor="start" x="4685" y="-203.8" font-family="Times,serif" font-size="14.00">rewards</text>
<text text-anchor="start" x="4685" y="-188.8" font-family="Times,serif" font-size="14.00">t : int</text>
<polyline fill="none" stroke="black" points="4677,-181 4858,-181 "/>
<text text-anchor="start" x="4685" y="-165.8" font-family="Times,serif" font-size="14.00">__init__()</text>
<text text-anchor="start" x="4685" y="-150.8" font-family="Times,serif" font-size="14.00">__str__()</text>
<text text-anchor="start" x="4685" y="-135.8" font-family="Times,serif" font-size="14.00">choice()</text>
<text text-anchor="start" x="4685" y="-120.8" font-family="Times,serif" font-size="14.00">getReward()</text>
<text text-anchor="start" x="4685" y="-105.8" font-family="Times,serif" font-size="14.00">startGame()</text>
</g>
<!-- 25 -->
<g id="node26" class="node"><title>25</title>
<polygon fill="none" stroke="black" points="3133,-75.5 3133,-324.5 3276,-324.5 3276,-75.5 3133,-75.5"/>
<text text-anchor="middle" x="3204.5" y="-309.3" font-family="Times,serif" font-size="14.00">Policies.klUCB.klUCB</text>
<polyline fill="none" stroke="black" points="3133,-301.5 3276,-301.5 "/>
<text text-anchor="start" x="3141" y="-286.3" font-family="Times,serif" font-size="14.00">amplitude : float</text>
<text text-anchor="start" x="3141" y="-271.3" font-family="Times,serif" font-size="14.00">c : float</text>
<text text-anchor="start" x="3141" y="-256.3" font-family="Times,serif" font-size="14.00">klucb</text>
<text text-anchor="start" x="3141" y="-241.3" font-family="Times,serif" font-size="14.00">lower : float</text>
<text text-anchor="start" x="3141" y="-226.3" font-family="Times,serif" font-size="14.00">params</text>
<text text-anchor="start" x="3141" y="-211.3" font-family="Times,serif" font-size="14.00">pulls</text>
<text text-anchor="start" x="3141" y="-196.3" font-family="Times,serif" font-size="14.00">rewards</text>
<text text-anchor="start" x="3141" y="-181.3" font-family="Times,serif" font-size="14.00">t : int</text>
<text text-anchor="start" x="3141" y="-166.3" font-family="Times,serif" font-size="14.00">tolerance : float</text>
<polyline fill="none" stroke="black" points="3133,-158.5 3276,-158.5 "/>
<text text-anchor="start" x="3141" y="-143.3" font-family="Times,serif" font-size="14.00">__init__()</text>
<text text-anchor="start" x="3141" y="-128.3" font-family="Times,serif" font-size="14.00">__str__()</text>
<text text-anchor="start" x="3141" y="-113.3" font-family="Times,serif" font-size="14.00">computeIndex()</text>
<text text-anchor="start" x="3141" y="-98.3" font-family="Times,serif" font-size="14.00">getReward()</text>
<text text-anchor="start" x="3141" y="-83.3" font-family="Times,serif" font-size="14.00">startGame()</text>
</g>
<!-- 25&#45;&gt;18 -->
<g id="edge9" class="edge"><title>25&#45;&gt;18</title>
<path fill="none" stroke="black" d="M3169.81,-324.567C3158.19,-351.545 3143.04,-378.441 3123.5,-400 3082.3,-445.468 3022.49,-478.493 2970.53,-500.764"/>
<polygon fill="none" stroke="black" points="2969.12,-497.559 2961.26,-504.66 2971.83,-504.012 2969.12,-497.559"/>
</g>
<!-- 26 -->
<g id="node27" class="node"><title>26</title>
<polygon fill="none" stroke="black" points="4876,-120.5 4876,-279.5 5105,-279.5 5105,-120.5 4876,-120.5"/>
<text text-anchor="middle" x="4990.5" y="-264.3" font-family="Times,serif" font-size="14.00">PoliciesMultiPlayers.Dummy.Dummy</text>
<polyline fill="none" stroke="black" points="4876,-256.5 5105,-256.5 "/>
<text text-anchor="start" x="4884" y="-241.3" font-family="Times,serif" font-size="14.00">nbArms</text>
<text text-anchor="start" x="4884" y="-226.3" font-family="Times,serif" font-size="14.00">params : str</text>
<polyline fill="none" stroke="black" points="4876,-218.5 5105,-218.5 "/>
<text text-anchor="start" x="4884" y="-203.3" font-family="Times,serif" font-size="14.00">__init__()</text>
<text text-anchor="start" x="4884" y="-188.3" font-family="Times,serif" font-size="14.00">__str__()</text>
<text text-anchor="start" x="4884" y="-173.3" font-family="Times,serif" font-size="14.00">choice()</text>
<text text-anchor="start" x="4884" y="-158.3" font-family="Times,serif" font-size="14.00">getReward()</text>
<text text-anchor="start" x="4884" y="-143.3" font-family="Times,serif" font-size="14.00">handleCollision()</text>
<text text-anchor="start" x="4884" y="-128.3" font-family="Times,serif" font-size="14.00">startGame()</text>
</g>
<!-- 27 -->
<g id="node28" class="node"><title>27</title>
<polygon fill="none" stroke="black" points="5123.5,-113 5123.5,-287 5427.5,-287 5427.5,-113 5123.5,-113"/>
<text text-anchor="middle" x="5275.5" y="-271.8" font-family="Times,serif" font-size="14.00">PoliciesMultiPlayers.TakeFixedArm.TakeFixedArm</text>
<polyline fill="none" stroke="black" points="5123.5,-264 5427.5,-264 "/>
<text text-anchor="start" x="5131.5" y="-248.8" font-family="Times,serif" font-size="14.00">armIndex</text>
<text text-anchor="start" x="5131.5" y="-233.8" font-family="Times,serif" font-size="14.00">nbArms</text>
<text text-anchor="start" x="5131.5" y="-218.8" font-family="Times,serif" font-size="14.00">params : str</text>
<polyline fill="none" stroke="black" points="5123.5,-211 5427.5,-211 "/>
<text text-anchor="start" x="5131.5" y="-195.8" font-family="Times,serif" font-size="14.00">__init__()</text>
<text text-anchor="start" x="5131.5" y="-180.8" font-family="Times,serif" font-size="14.00">__str__()</text>
<text text-anchor="start" x="5131.5" y="-165.8" font-family="Times,serif" font-size="14.00">choice()</text>
<text text-anchor="start" x="5131.5" y="-150.8" font-family="Times,serif" font-size="14.00">getReward()</text>
<text text-anchor="start" x="5131.5" y="-135.8" font-family="Times,serif" font-size="14.00">handleCollision()</text>
<text text-anchor="start" x="5131.5" y="-120.8" font-family="Times,serif" font-size="14.00">startGame()</text>
</g>
<!-- 28 -->
<g id="node29" class="node"><title>28</title>
<polygon fill="none" stroke="black" points="5445.5,-113 5445.5,-287 5773.5,-287 5773.5,-113 5445.5,-113"/>
<text text-anchor="middle" x="5609.5" y="-271.8" font-family="Times,serif" font-size="14.00">PoliciesMultiPlayers.UniformOnSome.UniformOnSome</text>
<polyline fill="none" stroke="black" points="5445.5,-264 5773.5,-264 "/>
<text text-anchor="start" x="5453.5" y="-248.8" font-family="Times,serif" font-size="14.00">armIndexes : NoneType, list</text>
<text text-anchor="start" x="5453.5" y="-233.8" font-family="Times,serif" font-size="14.00">nbArms</text>
<text text-anchor="start" x="5453.5" y="-218.8" font-family="Times,serif" font-size="14.00">params</text>
<polyline fill="none" stroke="black" points="5445.5,-211 5773.5,-211 "/>
<text text-anchor="start" x="5453.5" y="-195.8" font-family="Times,serif" font-size="14.00">__init__()</text>
<text text-anchor="start" x="5453.5" y="-180.8" font-family="Times,serif" font-size="14.00">__str__()</text>
<text text-anchor="start" x="5453.5" y="-165.8" font-family="Times,serif" font-size="14.00">choice()</text>
<text text-anchor="start" x="5453.5" y="-150.8" font-family="Times,serif" font-size="14.00">getReward()</text>
<text text-anchor="start" x="5453.5" y="-135.8" font-family="Times,serif" font-size="14.00">handleCollision()</text>
<text text-anchor="start" x="5453.5" y="-120.8" font-family="Times,serif" font-size="14.00">startGame()</text>
</g>
</g>
</svg>
