<?xml version="1.0" encoding="UTF-8" standalone="no"?>
<!DOCTYPE svg PUBLIC "-//W3C//DTD SVG 1.1//EN"
 "http://www.w3.org/Graphics/SVG/1.1/DTD/svg11.dtd">
<!-- Generated by graphviz version 2.40.1 (20161225.0304)
 -->
<!-- Title: classes_SMPyBandits.Policies.Posterior Pages: 1 -->
<svg width="845pt" height="470pt"
 viewBox="0.00 0.00 844.50 470.00" xmlns="http://www.w3.org/2000/svg" xmlns:xlink="http://www.w3.org/1999/xlink">
<g id="graph0" class="graph" transform="scale(1 1) rotate(0) translate(4 466)">
<title>classes_SMPyBandits.Policies.Posterior</title>
<polygon fill="#ffffff" stroke="transparent" points="-4,4 -4,-466 840.5,-466 840.5,4 -4,4"/>
<!-- 0 -->
<g id="node1" class="node">
<title>0</title>
<polygon fill="none" stroke="#000000" points="0,-30.5 0,-234.5 248,-234.5 248,-30.5 0,-30.5"/>
<text text-anchor="middle" x="124" y="-219.3" font-family="Times,serif" font-size="14.00" fill="#000000">SMPyBandits.Policies.Posterior.Beta.Beta</text>
<polyline fill="none" stroke="#000000" points="0,-211.5 248,-211.5 "/>
<text text-anchor="start" x="8" y="-196.3" font-family="Times,serif" font-size="14.00" fill="#000000">N : list</text>
<text text-anchor="start" x="8" y="-181.3" font-family="Times,serif" font-size="14.00" fill="#000000">_a : int</text>
<text text-anchor="start" x="8" y="-166.3" font-family="Times,serif" font-size="14.00" fill="#000000">_b : int</text>
<polyline fill="none" stroke="#000000" points="0,-158.5 248,-158.5 "/>
<text text-anchor="start" x="8" y="-143.3" font-family="Times,serif" font-size="14.00" fill="#000000">__init__()</text>
<text text-anchor="start" x="8" y="-128.3" font-family="Times,serif" font-size="14.00" fill="#000000">__str__()</text>
<text text-anchor="start" x="8" y="-113.3" font-family="Times,serif" font-size="14.00" fill="#000000">forget()</text>
<text text-anchor="start" x="8" y="-98.3" font-family="Times,serif" font-size="14.00" fill="#000000">mean()</text>
<text text-anchor="start" x="8" y="-83.3" font-family="Times,serif" font-size="14.00" fill="#000000">quantile()</text>
<text text-anchor="start" x="8" y="-68.3" font-family="Times,serif" font-size="14.00" fill="#000000">reset()</text>
<text text-anchor="start" x="8" y="-53.3" font-family="Times,serif" font-size="14.00" fill="#000000">sample()</text>
<text text-anchor="start" x="8" y="-38.3" font-family="Times,serif" font-size="14.00" fill="#000000">update()</text>
</g>
<!-- 3 -->
<g id="node4" class="node">
<title>3</title>
<polygon fill="none" stroke="#000000" points="262,-301.5 262,-461.5 558,-461.5 558,-301.5 262,-301.5"/>
<text text-anchor="middle" x="410" y="-446.3" font-family="Times,serif" font-size="14.00" fill="#000000">SMPyBandits.Policies.Posterior.Posterior.Posterior</text>
<polyline fill="none" stroke="#000000" points="262,-438.5 558,-438.5 "/>
<polyline fill="none" stroke="#000000" points="262,-414.5 558,-414.5 "/>
<text text-anchor="start" x="270" y="-399.3" font-family="Times,serif" font-size="14.00" fill="#000000">__init__()</text>
<text text-anchor="start" x="270" y="-384.3" font-family="Times,serif" font-size="14.00" fill="#000000">forget()</text>
<text text-anchor="start" x="270" y="-369.3" font-family="Times,serif" font-size="14.00" fill="#000000">mean()</text>
<text text-anchor="start" x="270" y="-354.3" font-family="Times,serif" font-size="14.00" fill="#000000">quantile()</text>
<text text-anchor="start" x="270" y="-339.3" font-family="Times,serif" font-size="14.00" fill="#000000">reset()</text>
<text text-anchor="start" x="270" y="-324.3" font-family="Times,serif" font-size="14.00" fill="#000000">sample()</text>
<text text-anchor="start" x="270" y="-309.3" font-family="Times,serif" font-size="14.00" fill="#000000">update()</text>
</g>
<!-- 0&#45;&gt;3 -->
<g id="edge1" class="edge">
<title>0&#45;&gt;3</title>
<path fill="none" stroke="#000000" d="M223.5874,-234.5112C234.6682,-245.0155 245.9458,-255.3603 257,-265 268.4559,-274.9899 280.6762,-285.1113 293.0266,-295.0012"/>
<polygon fill="none" stroke="#000000" points="291.1488,-297.9797 301.1546,-301.4632 295.5051,-292.5003 291.1488,-297.9797"/>
</g>
<!-- 1 -->
<g id="node2" class="node">
<title>1</title>
<polygon fill="none" stroke="#000000" points="266.5,-23 266.5,-242 553.5,-242 553.5,-23 266.5,-23"/>
<text text-anchor="middle" x="410" y="-226.8" font-family="Times,serif" font-size="14.00" fill="#000000">SMPyBandits.Policies.Posterior.Gamma.Gamma</text>
<polyline fill="none" stroke="#000000" points="266.5,-219 553.5,-219 "/>
<text text-anchor="start" x="274.5" y="-203.8" font-family="Times,serif" font-size="14.00" fill="#000000">_k : int</text>
<text text-anchor="start" x="274.5" y="-188.8" font-family="Times,serif" font-size="14.00" fill="#000000">_lmbda : int</text>
<text text-anchor="start" x="274.5" y="-173.8" font-family="Times,serif" font-size="14.00" fill="#000000">k : int</text>
<text text-anchor="start" x="274.5" y="-158.8" font-family="Times,serif" font-size="14.00" fill="#000000">lmbda : int</text>
<polyline fill="none" stroke="#000000" points="266.5,-151 553.5,-151 "/>
<text text-anchor="start" x="274.5" y="-135.8" font-family="Times,serif" font-size="14.00" fill="#000000">__init__()</text>
<text text-anchor="start" x="274.5" y="-120.8" font-family="Times,serif" font-size="14.00" fill="#000000">__str__()</text>
<text text-anchor="start" x="274.5" y="-105.8" font-family="Times,serif" font-size="14.00" fill="#000000">forget()</text>
<text text-anchor="start" x="274.5" y="-90.8" font-family="Times,serif" font-size="14.00" fill="#000000">mean()</text>
<text text-anchor="start" x="274.5" y="-75.8" font-family="Times,serif" font-size="14.00" fill="#000000">quantile()</text>
<text text-anchor="start" x="274.5" y="-60.8" font-family="Times,serif" font-size="14.00" fill="#000000">reset()</text>
<text text-anchor="start" x="274.5" y="-45.8" font-family="Times,serif" font-size="14.00" fill="#000000">sample()</text>
<text text-anchor="start" x="274.5" y="-30.8" font-family="Times,serif" font-size="14.00" fill="#000000">update()</text>
</g>
<!-- 1&#45;&gt;3 -->
<g id="edge2" class="edge">
<title>1&#45;&gt;3</title>
<path fill="none" stroke="#000000" d="M410,-242.0774C410,-258.4531 410,-275.1783 410,-291.0976"/>
<polygon fill="none" stroke="#000000" points="406.5001,-291.4307 410,-301.4307 413.5001,-291.4308 406.5001,-291.4307"/>
</g>
<!-- 2 -->
<g id="node3" class="node">
<title>2</title>
<polygon fill="none" stroke="#000000" points="571.5,-.5 571.5,-264.5 836.5,-264.5 836.5,-.5 571.5,-.5"/>
<text text-anchor="middle" x="704" y="-249.3" font-family="Times,serif" font-size="14.00" fill="#000000">SMPyBandits.Policies.Posterior.Gauss.Gauss</text>
<polyline fill="none" stroke="#000000" points="571.5,-241.5 836.5,-241.5 "/>
<text text-anchor="start" x="579.5" y="-226.3" font-family="Times,serif" font-size="14.00" fill="#000000">_mu : float</text>
<text text-anchor="start" x="579.5" y="-211.3" font-family="Times,serif" font-size="14.00" fill="#000000">_nb_data : int</text>
<text text-anchor="start" x="579.5" y="-196.3" font-family="Times,serif" font-size="14.00" fill="#000000">_nu : float</text>
<text text-anchor="start" x="579.5" y="-181.3" font-family="Times,serif" font-size="14.00" fill="#000000">_sum_data : float</text>
<text text-anchor="start" x="579.5" y="-166.3" font-family="Times,serif" font-size="14.00" fill="#000000">mu : float</text>
<text text-anchor="start" x="579.5" y="-151.3" font-family="Times,serif" font-size="14.00" fill="#000000">sigma : float</text>
<polyline fill="none" stroke="#000000" points="571.5,-143.5 836.5,-143.5 "/>
<text text-anchor="start" x="579.5" y="-128.3" font-family="Times,serif" font-size="14.00" fill="#000000">__init__()</text>
<text text-anchor="start" x="579.5" y="-113.3" font-family="Times,serif" font-size="14.00" fill="#000000">__str__()</text>
<text text-anchor="start" x="579.5" y="-98.3" font-family="Times,serif" font-size="14.00" fill="#000000">forget()</text>
<text text-anchor="start" x="579.5" y="-83.3" font-family="Times,serif" font-size="14.00" fill="#000000">mean()</text>
<text text-anchor="start" x="579.5" y="-68.3" font-family="Times,serif" font-size="14.00" fill="#000000">quantile()</text>
<text text-anchor="start" x="579.5" y="-53.3" font-family="Times,serif" font-size="14.00" fill="#000000">reset()</text>
<text text-anchor="start" x="579.5" y="-38.3" font-family="Times,serif" font-size="14.00" fill="#000000">sample()</text>
<text text-anchor="start" x="579.5" y="-23.3" font-family="Times,serif" font-size="14.00" fill="#000000">update()</text>
<text text-anchor="start" x="579.5" y="-8.3" font-family="Times,serif" font-size="14.00" fill="#000000">variance()</text>
</g>
<!-- 2&#45;&gt;3 -->
<g id="edge3" class="edge">
<title>2&#45;&gt;3</title>
<path fill="none" stroke="#000000" d="M571.1189,-258.0616C568.4001,-260.4058 565.6919,-262.7209 563,-265 551.1836,-275.0046 538.6274,-285.2075 525.9873,-295.2087"/>
<polygon fill="none" stroke="#000000" points="523.806,-292.4714 518.112,-301.4062 528.135,-297.9723 523.806,-292.4714"/>
</g>
</g>
</svg>
