<?xml version="1.0" encoding="UTF-8" standalone="no"?>
<!DOCTYPE svg PUBLIC "-//W3C//DTD SVG 1.1//EN"
 "http://www.w3.org/Graphics/SVG/1.1/DTD/svg11.dtd">
<!-- Generated by graphviz version 2.38.0 (20140413.2041)
 -->
<!-- Title: classes_AlgoBandits Pages: 1 -->
<svg width="4183pt" height="499pt"
 viewBox="0.00 0.00 4182.50 499.00" xmlns="http://www.w3.org/2000/svg" xmlns:xlink="http://www.w3.org/1999/xlink">
<g id="graph0" class="graph" transform="scale(1 1) rotate(0) translate(4 495)">
<title>classes_AlgoBandits</title>
<polygon fill="white" stroke="none" points="-4,4 -4,-495 4178.5,-495 4178.5,4 -4,4"/>
<!-- 0 -->
<g id="node1" class="node"><title>0</title>
<polygon fill="none" stroke="black" points="0,-105.5 0,-234.5 157,-234.5 157,-105.5 0,-105.5"/>
<text text-anchor="middle" x="78.5" y="-219.3" font-family="Times,serif" font-size="14.00">Arms.Bernoulli.Bernoulli</text>
<polyline fill="none" stroke="black" points="0,-211.5 157,-211.5 "/>
<text text-anchor="start" x="8" y="-196.3" font-family="Times,serif" font-size="14.00">probability</text>
<polyline fill="none" stroke="black" points="0,-188.5 157,-188.5 "/>
<text text-anchor="start" x="8" y="-173.3" font-family="Times,serif" font-size="14.00">__init__()</text>
<text text-anchor="start" x="8" y="-158.3" font-family="Times,serif" font-size="14.00">__repr__()</text>
<text text-anchor="start" x="8" y="-143.3" font-family="Times,serif" font-size="14.00">__str__()</text>
<text text-anchor="start" x="8" y="-128.3" font-family="Times,serif" font-size="14.00">draw()</text>
<text text-anchor="start" x="8" y="-113.3" font-family="Times,serif" font-size="14.00">mean()</text>
</g>
<!-- 1 -->
<g id="node2" class="node"><title>1</title>
<polygon fill="none" stroke="black" points="175,-90.5 175,-249.5 360,-249.5 360,-90.5 175,-90.5"/>
<text text-anchor="middle" x="267.5" y="-234.3" font-family="Times,serif" font-size="14.00">Arms.Exponential.Exponential</text>
<polyline fill="none" stroke="black" points="175,-226.5 360,-226.5 "/>
<text text-anchor="start" x="183" y="-211.3" font-family="Times,serif" font-size="14.00">expectation</text>
<text text-anchor="start" x="183" y="-196.3" font-family="Times,serif" font-size="14.00">p</text>
<text text-anchor="start" x="183" y="-181.3" font-family="Times,serif" font-size="14.00">trunc : float</text>
<polyline fill="none" stroke="black" points="175,-173.5 360,-173.5 "/>
<text text-anchor="start" x="183" y="-158.3" font-family="Times,serif" font-size="14.00">__init__()</text>
<text text-anchor="start" x="183" y="-143.3" font-family="Times,serif" font-size="14.00">__repr__()</text>
<text text-anchor="start" x="183" y="-128.3" font-family="Times,serif" font-size="14.00">__str__()</text>
<text text-anchor="start" x="183" y="-113.3" font-family="Times,serif" font-size="14.00">draw()</text>
<text text-anchor="start" x="183" y="-98.3" font-family="Times,serif" font-size="14.00">mean()</text>
</g>
<!-- 2 -->
<g id="node3" class="node"><title>2</title>
<polygon fill="none" stroke="black" points="378.5,-90.5 378.5,-249.5 532.5,-249.5 532.5,-90.5 378.5,-90.5"/>
<text text-anchor="middle" x="455.5" y="-234.3" font-family="Times,serif" font-size="14.00">Arms.Gaussian.Gaussian</text>
<polyline fill="none" stroke="black" points="378.5,-226.5 532.5,-226.5 "/>
<text text-anchor="start" x="386.5" y="-211.3" font-family="Times,serif" font-size="14.00">expectation</text>
<text text-anchor="start" x="386.5" y="-196.3" font-family="Times,serif" font-size="14.00">mu</text>
<text text-anchor="start" x="386.5" y="-181.3" font-family="Times,serif" font-size="14.00">sigma</text>
<polyline fill="none" stroke="black" points="378.5,-173.5 532.5,-173.5 "/>
<text text-anchor="start" x="386.5" y="-158.3" font-family="Times,serif" font-size="14.00">__init__()</text>
<text text-anchor="start" x="386.5" y="-143.3" font-family="Times,serif" font-size="14.00">__repr__()</text>
<text text-anchor="start" x="386.5" y="-128.3" font-family="Times,serif" font-size="14.00">__str__()</text>
<text text-anchor="start" x="386.5" y="-113.3" font-family="Times,serif" font-size="14.00">draw()</text>
<text text-anchor="start" x="386.5" y="-98.3" font-family="Times,serif" font-size="14.00">mean()</text>
</g>
<!-- 3 -->
<g id="node4" class="node"><title>3</title>
<polygon fill="none" stroke="black" points="551,-90.5 551,-249.5 690,-249.5 690,-90.5 551,-90.5"/>
<text text-anchor="middle" x="620.5" y="-234.3" font-family="Times,serif" font-size="14.00">Arms.Poisson.Poisson</text>
<polyline fill="none" stroke="black" points="551,-226.5 690,-226.5 "/>
<text text-anchor="start" x="559" y="-211.3" font-family="Times,serif" font-size="14.00">expectation : int</text>
<text text-anchor="start" x="559" y="-196.3" font-family="Times,serif" font-size="14.00">p</text>
<text text-anchor="start" x="559" y="-181.3" font-family="Times,serif" font-size="14.00">trunc : float</text>
<polyline fill="none" stroke="black" points="551,-173.5 690,-173.5 "/>
<text text-anchor="start" x="559" y="-158.3" font-family="Times,serif" font-size="14.00">__init__()</text>
<text text-anchor="start" x="559" y="-143.3" font-family="Times,serif" font-size="14.00">__repr__()</text>
<text text-anchor="start" x="559" y="-128.3" font-family="Times,serif" font-size="14.00">__str__()</text>
<text text-anchor="start" x="559" y="-113.3" font-family="Times,serif" font-size="14.00">draw()</text>
<text text-anchor="start" x="559" y="-98.3" font-family="Times,serif" font-size="14.00">mean()</text>
</g>
<!-- 4 -->
<g id="node5" class="node"><title>4</title>
<polygon fill="none" stroke="black" points="708.5,-23 708.5,-317 908.5,-317 908.5,-23 708.5,-23"/>
<text text-anchor="middle" x="808.5" y="-301.8" font-family="Times,serif" font-size="14.00">Environment.Evaluator.Evaluator</text>
<polyline fill="none" stroke="black" points="708.5,-294 908.5,-294 "/>
<text text-anchor="start" x="716.5" y="-278.8" font-family="Times,serif" font-size="14.00">averageOn : float</text>
<text text-anchor="start" x="716.5" y="-263.8" font-family="Times,serif" font-size="14.00">cfg</text>
<text text-anchor="start" x="716.5" y="-248.8" font-family="Times,serif" font-size="14.00">envs : list</text>
<text text-anchor="start" x="716.5" y="-233.8" font-family="Times,serif" font-size="14.00">finalRanksOnAverage : bool</text>
<text text-anchor="start" x="716.5" y="-218.8" font-family="Times,serif" font-size="14.00">policies : list</text>
<text text-anchor="start" x="716.5" y="-203.8" font-family="Times,serif" font-size="14.00">pulls : dict</text>
<text text-anchor="start" x="716.5" y="-188.8" font-family="Times,serif" font-size="14.00">rewards</text>
<text text-anchor="start" x="716.5" y="-173.8" font-family="Times,serif" font-size="14.00">useJoblibForPolicies : bool</text>
<polyline fill="none" stroke="black" points="708.5,-166 908.5,-166 "/>
<text text-anchor="start" x="716.5" y="-150.8" font-family="Times,serif" font-size="14.00">__initEnvironments__()</text>
<text text-anchor="start" x="716.5" y="-135.8" font-family="Times,serif" font-size="14.00">__initPolicies__()</text>
<text text-anchor="start" x="716.5" y="-120.8" font-family="Times,serif" font-size="14.00">__init__()</text>
<text text-anchor="start" x="716.5" y="-105.8" font-family="Times,serif" font-size="14.00">getRegret()</text>
<text text-anchor="start" x="716.5" y="-90.8" font-family="Times,serif" font-size="14.00">getReward()</text>
<text text-anchor="start" x="716.5" y="-75.8" font-family="Times,serif" font-size="14.00">giveFinalRanking()</text>
<text text-anchor="start" x="716.5" y="-60.8" font-family="Times,serif" font-size="14.00">plotResults()</text>
<text text-anchor="start" x="716.5" y="-45.8" font-family="Times,serif" font-size="14.00">start_all_env()</text>
<text text-anchor="start" x="716.5" y="-30.8" font-family="Times,serif" font-size="14.00">start_one_env()</text>
</g>
<!-- 5 -->
<g id="node6" class="node"><title>5</title>
<polygon fill="none" stroke="black" points="926.5,-113 926.5,-227 1084.5,-227 1084.5,-113 926.5,-113"/>
<text text-anchor="middle" x="1005.5" y="-211.8" font-family="Times,serif" font-size="14.00">Environment.MAB.MAB</text>
<polyline fill="none" stroke="black" points="926.5,-204 1084.5,-204 "/>
<text text-anchor="start" x="934.5" y="-188.8" font-family="Times,serif" font-size="14.00">arms</text>
<text text-anchor="start" x="934.5" y="-173.8" font-family="Times,serif" font-size="14.00">maxArm</text>
<text text-anchor="start" x="934.5" y="-158.8" font-family="Times,serif" font-size="14.00">nbArms</text>
<polyline fill="none" stroke="black" points="926.5,-151 1084.5,-151 "/>
<text text-anchor="start" x="934.5" y="-135.8" font-family="Times,serif" font-size="14.00">__init__()</text>
<text text-anchor="start" x="934.5" y="-120.8" font-family="Times,serif" font-size="14.00">__repr__()</text>
</g>
<!-- 6 -->
<g id="node7" class="node"><title>6</title>
<polygon fill="none" stroke="black" points="1102.5,-105.5 1102.5,-234.5 1266.5,-234.5 1266.5,-105.5 1102.5,-105.5"/>
<text text-anchor="middle" x="1184.5" y="-219.3" font-family="Times,serif" font-size="14.00">Environment.Result.Result</text>
<polyline fill="none" stroke="black" points="1102.5,-211.5 1266.5,-211.5 "/>
<text text-anchor="start" x="1110.5" y="-196.3" font-family="Times,serif" font-size="14.00">choices</text>
<text text-anchor="start" x="1110.5" y="-181.3" font-family="Times,serif" font-size="14.00">pulls</text>
<text text-anchor="start" x="1110.5" y="-166.3" font-family="Times,serif" font-size="14.00">rewards</text>
<polyline fill="none" stroke="black" points="1102.5,-158.5 1266.5,-158.5 "/>
<text text-anchor="start" x="1110.5" y="-143.3" font-family="Times,serif" font-size="14.00">__init__()</text>
<text text-anchor="start" x="1110.5" y="-128.3" font-family="Times,serif" font-size="14.00">getNbPulls()</text>
<text text-anchor="start" x="1110.5" y="-113.3" font-family="Times,serif" font-size="14.00">store()</text>
</g>
<!-- 7 -->
<g id="node8" class="node"><title>7</title>
<polygon fill="none" stroke="black" points="1285,-45.5 1285,-294.5 1462,-294.5 1462,-45.5 1285,-45.5"/>
<text text-anchor="middle" x="1373.5" y="-279.3" font-family="Times,serif" font-size="14.00">Policies.AdBandits.AdBandit</text>
<polyline fill="none" stroke="black" points="1285,-271.5 1462,-271.5 "/>
<text text-anchor="start" x="1293" y="-256.3" font-family="Times,serif" font-size="14.00">alpha</text>
<text text-anchor="start" x="1293" y="-241.3" font-family="Times,serif" font-size="14.00">horizon</text>
<text text-anchor="start" x="1293" y="-226.3" font-family="Times,serif" font-size="14.00">nbArms</text>
<text text-anchor="start" x="1293" y="-211.3" font-family="Times,serif" font-size="14.00">params</text>
<text text-anchor="start" x="1293" y="-196.3" font-family="Times,serif" font-size="14.00">posterior : dict</text>
<text text-anchor="start" x="1293" y="-181.3" font-family="Times,serif" font-size="14.00">pulls</text>
<text text-anchor="start" x="1293" y="-166.3" font-family="Times,serif" font-size="14.00">rewards</text>
<text text-anchor="start" x="1293" y="-151.3" font-family="Times,serif" font-size="14.00">t : int</text>
<polyline fill="none" stroke="black" points="1285,-143.5 1462,-143.5 "/>
<text text-anchor="start" x="1293" y="-128.3" font-family="Times,serif" font-size="14.00">__init__()</text>
<text text-anchor="start" x="1293" y="-113.3" font-family="Times,serif" font-size="14.00">__str__()</text>
<text text-anchor="start" x="1293" y="-98.3" font-family="Times,serif" font-size="14.00">choice()</text>
<text text-anchor="start" x="1293" y="-83.3" font-family="Times,serif" font-size="14.00">computeIndex()</text>
<text text-anchor="start" x="1293" y="-68.3" font-family="Times,serif" font-size="14.00">getReward()</text>
<text text-anchor="start" x="1293" y="-53.3" font-family="Times,serif" font-size="14.00">startGame()</text>
</g>
<!-- 8 -->
<g id="node9" class="node"><title>8</title>
<polygon fill="none" stroke="black" points="1480,-0.5 1480,-339.5 1639,-339.5 1639,-0.5 1480,-0.5"/>
<text text-anchor="middle" x="1559.5" y="-324.3" font-family="Times,serif" font-size="14.00">Policies.Aggr.Aggr</text>
<polyline fill="none" stroke="black" points="1480,-316.5 1639,-316.5 "/>
<text text-anchor="start" x="1488" y="-301.3" font-family="Times,serif" font-size="14.00">USE_JOBLIB : bool</text>
<text text-anchor="start" x="1488" y="-286.3" font-family="Times,serif" font-size="14.00">children : list</text>
<text text-anchor="start" x="1488" y="-271.3" font-family="Times,serif" font-size="14.00">choices</text>
<text text-anchor="start" x="1488" y="-256.3" font-family="Times,serif" font-size="14.00">decreaseRate : NoneType</text>
<text text-anchor="start" x="1488" y="-241.3" font-family="Times,serif" font-size="14.00">learningRate</text>
<text text-anchor="start" x="1488" y="-226.3" font-family="Times,serif" font-size="14.00">n_jobs : int</text>
<text text-anchor="start" x="1488" y="-211.3" font-family="Times,serif" font-size="14.00">nbArms</text>
<text text-anchor="start" x="1488" y="-196.3" font-family="Times,serif" font-size="14.00">nbChildren</text>
<text text-anchor="start" x="1488" y="-181.3" font-family="Times,serif" font-size="14.00">params</text>
<text text-anchor="start" x="1488" y="-166.3" font-family="Times,serif" font-size="14.00">pulls</text>
<text text-anchor="start" x="1488" y="-151.3" font-family="Times,serif" font-size="14.00">rewards</text>
<text text-anchor="start" x="1488" y="-136.3" font-family="Times,serif" font-size="14.00">t : int</text>
<text text-anchor="start" x="1488" y="-121.3" font-family="Times,serif" font-size="14.00">trusts : str</text>
<text text-anchor="start" x="1488" y="-106.3" font-family="Times,serif" font-size="14.00">update_all_children : bool</text>
<text text-anchor="start" x="1488" y="-91.3" font-family="Times,serif" font-size="14.00">verbosity : int</text>
<polyline fill="none" stroke="black" points="1480,-83.5 1639,-83.5 "/>
<text text-anchor="start" x="1488" y="-68.3" font-family="Times,serif" font-size="14.00">__init__()</text>
<text text-anchor="start" x="1488" y="-53.3" font-family="Times,serif" font-size="14.00">__str__()</text>
<text text-anchor="start" x="1488" y="-38.3" font-family="Times,serif" font-size="14.00">choice()</text>
<text text-anchor="start" x="1488" y="-23.3" font-family="Times,serif" font-size="14.00">getReward()</text>
<text text-anchor="start" x="1488" y="-8.3" font-family="Times,serif" font-size="14.00">startGame()</text>
</g>
<!-- 9 -->
<g id="node10" class="node"><title>9</title>
<polygon fill="none" stroke="black" points="1657.5,-83 1657.5,-257 1845.5,-257 1845.5,-83 1657.5,-83"/>
<text text-anchor="middle" x="1751.5" y="-241.8" font-family="Times,serif" font-size="14.00">Policies.BayesUCB.BayesUCB</text>
<polyline fill="none" stroke="black" points="1657.5,-234 1845.5,-234 "/>
<text text-anchor="start" x="1665.5" y="-218.8" font-family="Times,serif" font-size="14.00">nbArms</text>
<text text-anchor="start" x="1665.5" y="-203.8" font-family="Times,serif" font-size="14.00">params</text>
<text text-anchor="start" x="1665.5" y="-188.8" font-family="Times,serif" font-size="14.00">posterior : dict</text>
<text text-anchor="start" x="1665.5" y="-173.8" font-family="Times,serif" font-size="14.00">t : int</text>
<polyline fill="none" stroke="black" points="1657.5,-166 1845.5,-166 "/>
<text text-anchor="start" x="1665.5" y="-150.8" font-family="Times,serif" font-size="14.00">__init__()</text>
<text text-anchor="start" x="1665.5" y="-135.8" font-family="Times,serif" font-size="14.00">__str__()</text>
<text text-anchor="start" x="1665.5" y="-120.8" font-family="Times,serif" font-size="14.00">computeIndex()</text>
<text text-anchor="start" x="1665.5" y="-105.8" font-family="Times,serif" font-size="14.00">getReward()</text>
<text text-anchor="start" x="1665.5" y="-90.8" font-family="Times,serif" font-size="14.00">startGame()</text>
</g>
<!-- 15 -->
<g id="node16" class="node"><title>15</title>
<polygon fill="none" stroke="black" points="2823,-376.5 2823,-490.5 3020,-490.5 3020,-376.5 2823,-376.5"/>
<text text-anchor="middle" x="2921.5" y="-475.3" font-family="Times,serif" font-size="14.00">Policies.IndexPolicy.IndexPolicy</text>
<polyline fill="none" stroke="black" points="2823,-467.5 3020,-467.5 "/>
<text text-anchor="start" x="2831" y="-452.3" font-family="Times,serif" font-size="14.00">nbArms : int</text>
<polyline fill="none" stroke="black" points="2823,-444.5 3020,-444.5 "/>
<text text-anchor="start" x="2831" y="-429.3" font-family="Times,serif" font-size="14.00">__init__()</text>
<text text-anchor="start" x="2831" y="-414.3" font-family="Times,serif" font-size="14.00">__str__()</text>
<text text-anchor="start" x="2831" y="-399.3" font-family="Times,serif" font-size="14.00">choice()</text>
<text text-anchor="start" x="2831" y="-384.3" font-family="Times,serif" font-size="14.00">computeIndex()</text>
</g>
<!-- 9&#45;&gt;15 -->
<g id="edge1" class="edge"><title>9&#45;&gt;15</title>
<path fill="none" stroke="black" d="M1784.77,-257.32C1801.25,-288.553 1824.42,-320.824 1855.5,-340 1935.65,-389.454 2557.74,-418.602 2812.87,-428.582"/>
<polygon fill="none" stroke="black" points="2812.77,-432.081 2822.9,-428.972 2813.05,-425.086 2812.77,-432.081"/>
</g>
<!-- 10 -->
<g id="node11" class="node"><title>10</title>
<polygon fill="none" stroke="black" points="3882.5,-68 3882.5,-272 3998.5,-272 3998.5,-68 3882.5,-68"/>
<text text-anchor="middle" x="3940.5" y="-256.8" font-family="Times,serif" font-size="14.00">Policies.Beta.Beta</text>
<polyline fill="none" stroke="black" points="3882.5,-249 3998.5,-249 "/>
<text text-anchor="start" x="3890.5" y="-233.8" font-family="Times,serif" font-size="14.00">N : list</text>
<text text-anchor="start" x="3890.5" y="-218.8" font-family="Times,serif" font-size="14.00">a : int</text>
<text text-anchor="start" x="3890.5" y="-203.8" font-family="Times,serif" font-size="14.00">b : int</text>
<polyline fill="none" stroke="black" points="3882.5,-196 3998.5,-196 "/>
<text text-anchor="start" x="3890.5" y="-180.8" font-family="Times,serif" font-size="14.00">__init__()</text>
<text text-anchor="start" x="3890.5" y="-165.8" font-family="Times,serif" font-size="14.00">__repr__()</text>
<text text-anchor="start" x="3890.5" y="-150.8" font-family="Times,serif" font-size="14.00">forget()</text>
<text text-anchor="start" x="3890.5" y="-135.8" font-family="Times,serif" font-size="14.00">mean()</text>
<text text-anchor="start" x="3890.5" y="-120.8" font-family="Times,serif" font-size="14.00">quantile()</text>
<text text-anchor="start" x="3890.5" y="-105.8" font-family="Times,serif" font-size="14.00">reset()</text>
<text text-anchor="start" x="3890.5" y="-90.8" font-family="Times,serif" font-size="14.00">sample()</text>
<text text-anchor="start" x="3890.5" y="-75.8" font-family="Times,serif" font-size="14.00">update()</text>
</g>
<!-- 11 -->
<g id="node12" class="node"><title>11</title>
<polygon fill="none" stroke="black" points="4016.5,-90.5 4016.5,-249.5 4174.5,-249.5 4174.5,-90.5 4016.5,-90.5"/>
<text text-anchor="middle" x="4095.5" y="-234.3" font-family="Times,serif" font-size="14.00">Policies.Dummy.Dummy</text>
<polyline fill="none" stroke="black" points="4016.5,-226.5 4174.5,-226.5 "/>
<text text-anchor="start" x="4024.5" y="-211.3" font-family="Times,serif" font-size="14.00">nbArms</text>
<text text-anchor="start" x="4024.5" y="-196.3" font-family="Times,serif" font-size="14.00">params : str</text>
<polyline fill="none" stroke="black" points="4016.5,-188.5 4174.5,-188.5 "/>
<text text-anchor="start" x="4024.5" y="-173.3" font-family="Times,serif" font-size="14.00">__init__()</text>
<text text-anchor="start" x="4024.5" y="-158.3" font-family="Times,serif" font-size="14.00">__str__()</text>
<text text-anchor="start" x="4024.5" y="-143.3" font-family="Times,serif" font-size="14.00">choice()</text>
<text text-anchor="start" x="4024.5" y="-128.3" font-family="Times,serif" font-size="14.00">computeIndex()</text>
<text text-anchor="start" x="4024.5" y="-113.3" font-family="Times,serif" font-size="14.00">getReward()</text>
<text text-anchor="start" x="4024.5" y="-98.3" font-family="Times,serif" font-size="14.00">startGame()</text>
</g>
<!-- 12 -->
<g id="node13" class="node"><title>12</title>
<polygon fill="none" stroke="black" points="1864,-68 1864,-272 2135,-272 2135,-68 1864,-68"/>
<text text-anchor="middle" x="1999.5" y="-256.8" font-family="Times,serif" font-size="14.00">Policies.EpsilonDecreasing.EpsilonDecreasing</text>
<polyline fill="none" stroke="black" points="1864,-249 2135,-249 "/>
<text text-anchor="start" x="1872" y="-233.8" font-family="Times,serif" font-size="14.00">decreasingRate : float</text>
<text text-anchor="start" x="1872" y="-218.8" font-family="Times,serif" font-size="14.00">epsilon : float</text>
<text text-anchor="start" x="1872" y="-203.8" font-family="Times,serif" font-size="14.00">nbArms</text>
<text text-anchor="start" x="1872" y="-188.8" font-family="Times,serif" font-size="14.00">params : str</text>
<text text-anchor="start" x="1872" y="-173.8" font-family="Times,serif" font-size="14.00">rewards</text>
<text text-anchor="start" x="1872" y="-158.8" font-family="Times,serif" font-size="14.00">t : int</text>
<polyline fill="none" stroke="black" points="1864,-151 2135,-151 "/>
<text text-anchor="start" x="1872" y="-135.8" font-family="Times,serif" font-size="14.00">__init__()</text>
<text text-anchor="start" x="1872" y="-120.8" font-family="Times,serif" font-size="14.00">__str__()</text>
<text text-anchor="start" x="1872" y="-105.8" font-family="Times,serif" font-size="14.00">choice()</text>
<text text-anchor="start" x="1872" y="-90.8" font-family="Times,serif" font-size="14.00">getReward()</text>
<text text-anchor="start" x="1872" y="-75.8" font-family="Times,serif" font-size="14.00">startGame()</text>
</g>
<!-- 12&#45;&gt;15 -->
<g id="edge2" class="edge"><title>12&#45;&gt;15</title>
<path fill="none" stroke="black" d="M2065.35,-272.248C2087.37,-298.444 2114.14,-323.805 2144.5,-340 2257.71,-400.395 2626.91,-422.025 2812.67,-429.214"/>
<polygon fill="none" stroke="black" points="2812.61,-432.714 2822.74,-429.597 2812.88,-425.72 2812.61,-432.714"/>
</g>
<!-- 13 -->
<g id="node14" class="node"><title>13</title>
<polygon fill="none" stroke="black" points="2153,-68 2153,-272 2352,-272 2352,-68 2153,-68"/>
<text text-anchor="middle" x="2252.5" y="-256.8" font-family="Times,serif" font-size="14.00">Policies.EpsilonFirst.EpsilonFirst</text>
<polyline fill="none" stroke="black" points="2153,-249 2352,-249 "/>
<text text-anchor="start" x="2161" y="-233.8" font-family="Times,serif" font-size="14.00">epsilon : float</text>
<text text-anchor="start" x="2161" y="-218.8" font-family="Times,serif" font-size="14.00">horizon</text>
<text text-anchor="start" x="2161" y="-203.8" font-family="Times,serif" font-size="14.00">nbArms</text>
<text text-anchor="start" x="2161" y="-188.8" font-family="Times,serif" font-size="14.00">params : str</text>
<text text-anchor="start" x="2161" y="-173.8" font-family="Times,serif" font-size="14.00">rewards</text>
<text text-anchor="start" x="2161" y="-158.8" font-family="Times,serif" font-size="14.00">t : int</text>
<polyline fill="none" stroke="black" points="2153,-151 2352,-151 "/>
<text text-anchor="start" x="2161" y="-135.8" font-family="Times,serif" font-size="14.00">__init__()</text>
<text text-anchor="start" x="2161" y="-120.8" font-family="Times,serif" font-size="14.00">__str__()</text>
<text text-anchor="start" x="2161" y="-105.8" font-family="Times,serif" font-size="14.00">choice()</text>
<text text-anchor="start" x="2161" y="-90.8" font-family="Times,serif" font-size="14.00">getReward()</text>
<text text-anchor="start" x="2161" y="-75.8" font-family="Times,serif" font-size="14.00">startGame()</text>
</g>
<!-- 13&#45;&gt;15 -->
<g id="edge3" class="edge"><title>13&#45;&gt;15</title>
<path fill="none" stroke="black" d="M2298.53,-272.039C2314.91,-297.903 2335.81,-323.141 2361.5,-340 2434,-387.589 2671.56,-413.467 2812.92,-424.991"/>
<polygon fill="none" stroke="black" points="2812.68,-428.483 2822.92,-425.796 2813.24,-421.506 2812.68,-428.483"/>
</g>
<!-- 14 -->
<g id="node15" class="node"><title>14</title>
<polygon fill="none" stroke="black" points="2370,-83 2370,-257 2599,-257 2599,-83 2370,-83"/>
<text text-anchor="middle" x="2484.5" y="-241.8" font-family="Times,serif" font-size="14.00">Policies.EpsilonGreedy.EpsilonGreedy</text>
<polyline fill="none" stroke="black" points="2370,-234 2599,-234 "/>
<text text-anchor="start" x="2378" y="-218.8" font-family="Times,serif" font-size="14.00">epsilon : float</text>
<text text-anchor="start" x="2378" y="-203.8" font-family="Times,serif" font-size="14.00">nbArms</text>
<text text-anchor="start" x="2378" y="-188.8" font-family="Times,serif" font-size="14.00">params</text>
<text text-anchor="start" x="2378" y="-173.8" font-family="Times,serif" font-size="14.00">rewards</text>
<polyline fill="none" stroke="black" points="2370,-166 2599,-166 "/>
<text text-anchor="start" x="2378" y="-150.8" font-family="Times,serif" font-size="14.00">__init__()</text>
<text text-anchor="start" x="2378" y="-135.8" font-family="Times,serif" font-size="14.00">__str__()</text>
<text text-anchor="start" x="2378" y="-120.8" font-family="Times,serif" font-size="14.00">choice()</text>
<text text-anchor="start" x="2378" y="-105.8" font-family="Times,serif" font-size="14.00">getReward()</text>
<text text-anchor="start" x="2378" y="-90.8" font-family="Times,serif" font-size="14.00">startGame()</text>
</g>
<!-- 14&#45;&gt;15 -->
<g id="edge4" class="edge"><title>14&#45;&gt;15</title>
<path fill="none" stroke="black" d="M2531.87,-257.284C2552.02,-287.188 2577.98,-318.553 2608.5,-340 2668.79,-382.368 2748.59,-405.561 2812.53,-418.127"/>
<polygon fill="none" stroke="black" points="2812.17,-421.621 2822.65,-420.054 2813.48,-414.745 2812.17,-421.621"/>
</g>
<!-- 16 -->
<g id="node17" class="node"><title>16</title>
<polygon fill="none" stroke="black" points="2617.5,-60.5 2617.5,-279.5 2823.5,-279.5 2823.5,-60.5 2617.5,-60.5"/>
<text text-anchor="middle" x="2720.5" y="-264.3" font-family="Times,serif" font-size="14.00">Policies.KLempUCB.KLempUCB</text>
<polyline fill="none" stroke="black" points="2617.5,-256.5 2823.5,-256.5 "/>
<text text-anchor="start" x="2625.5" y="-241.3" font-family="Times,serif" font-size="14.00">c : int</text>
<text text-anchor="start" x="2625.5" y="-226.3" font-family="Times,serif" font-size="14.00">maxReward : float</text>
<text text-anchor="start" x="2625.5" y="-211.3" font-family="Times,serif" font-size="14.00">nbArms</text>
<text text-anchor="start" x="2625.5" y="-196.3" font-family="Times,serif" font-size="14.00">nbpulls</text>
<text text-anchor="start" x="2625.5" y="-181.3" font-family="Times,serif" font-size="14.00">obs : dict</text>
<text text-anchor="start" x="2625.5" y="-166.3" font-family="Times,serif" font-size="14.00">params</text>
<text text-anchor="start" x="2625.5" y="-151.3" font-family="Times,serif" font-size="14.00">t : int</text>
<polyline fill="none" stroke="black" points="2617.5,-143.5 2823.5,-143.5 "/>
<text text-anchor="start" x="2625.5" y="-128.3" font-family="Times,serif" font-size="14.00">_KLucb()</text>
<text text-anchor="start" x="2625.5" y="-113.3" font-family="Times,serif" font-size="14.00">__init__()</text>
<text text-anchor="start" x="2625.5" y="-98.3" font-family="Times,serif" font-size="14.00">computeIndex()</text>
<text text-anchor="start" x="2625.5" y="-83.3" font-family="Times,serif" font-size="14.00">getReward()</text>
<text text-anchor="start" x="2625.5" y="-68.3" font-family="Times,serif" font-size="14.00">startGame()</text>
</g>
<!-- 16&#45;&gt;15 -->
<g id="edge5" class="edge"><title>16&#45;&gt;15</title>
<path fill="none" stroke="black" d="M2788.47,-279.899C2802.39,-300.342 2817.42,-321.187 2832.5,-340 2840.2,-349.605 2848.72,-359.371 2857.35,-368.781"/>
<polygon fill="none" stroke="black" points="2854.91,-371.297 2864.28,-376.243 2860.04,-366.533 2854.91,-371.297"/>
</g>
<!-- 17 -->
<g id="node18" class="node"><title>17</title>
<polygon fill="none" stroke="black" points="2841.5,-68 2841.5,-272 3001.5,-272 3001.5,-68 2841.5,-68"/>
<text text-anchor="middle" x="2921.5" y="-256.8" font-family="Times,serif" font-size="14.00">Policies.Softmax.Softmax</text>
<polyline fill="none" stroke="black" points="2841.5,-249 3001.5,-249 "/>
<text text-anchor="start" x="2849.5" y="-233.8" font-family="Times,serif" font-size="14.00">nbArms</text>
<text text-anchor="start" x="2849.5" y="-218.8" font-family="Times,serif" font-size="14.00">params</text>
<text text-anchor="start" x="2849.5" y="-203.8" font-family="Times,serif" font-size="14.00">pulls</text>
<text text-anchor="start" x="2849.5" y="-188.8" font-family="Times,serif" font-size="14.00">rewards</text>
<text text-anchor="start" x="2849.5" y="-173.8" font-family="Times,serif" font-size="14.00">t : int</text>
<text text-anchor="start" x="2849.5" y="-158.8" font-family="Times,serif" font-size="14.00">temperature : int</text>
<polyline fill="none" stroke="black" points="2841.5,-151 3001.5,-151 "/>
<text text-anchor="start" x="2849.5" y="-135.8" font-family="Times,serif" font-size="14.00">__init__()</text>
<text text-anchor="start" x="2849.5" y="-120.8" font-family="Times,serif" font-size="14.00">__str__()</text>
<text text-anchor="start" x="2849.5" y="-105.8" font-family="Times,serif" font-size="14.00">choice()</text>
<text text-anchor="start" x="2849.5" y="-90.8" font-family="Times,serif" font-size="14.00">getReward()</text>
<text text-anchor="start" x="2849.5" y="-75.8" font-family="Times,serif" font-size="14.00">startGame()</text>
</g>
<!-- 17&#45;&gt;15 -->
<g id="edge6" class="edge"><title>17&#45;&gt;15</title>
<path fill="none" stroke="black" d="M2921.5,-272.103C2921.5,-303.591 2921.5,-337.502 2921.5,-365.996"/>
<polygon fill="none" stroke="black" points="2918,-366.234 2921.5,-376.234 2925,-366.234 2918,-366.234"/>
</g>
<!-- 18 -->
<g id="node19" class="node"><title>18</title>
<polygon fill="none" stroke="black" points="3019.5,-83 3019.5,-257 3203.5,-257 3203.5,-83 3019.5,-83"/>
<text text-anchor="middle" x="3111.5" y="-241.8" font-family="Times,serif" font-size="14.00">Policies.Thompson.Thompson</text>
<polyline fill="none" stroke="black" points="3019.5,-234 3203.5,-234 "/>
<text text-anchor="start" x="3027.5" y="-218.8" font-family="Times,serif" font-size="14.00">nbArms</text>
<text text-anchor="start" x="3027.5" y="-203.8" font-family="Times,serif" font-size="14.00">params : str</text>
<text text-anchor="start" x="3027.5" y="-188.8" font-family="Times,serif" font-size="14.00">posterior : dict</text>
<text text-anchor="start" x="3027.5" y="-173.8" font-family="Times,serif" font-size="14.00">t : int</text>
<polyline fill="none" stroke="black" points="3019.5,-166 3203.5,-166 "/>
<text text-anchor="start" x="3027.5" y="-150.8" font-family="Times,serif" font-size="14.00">__init__()</text>
<text text-anchor="start" x="3027.5" y="-135.8" font-family="Times,serif" font-size="14.00">__str__()</text>
<text text-anchor="start" x="3027.5" y="-120.8" font-family="Times,serif" font-size="14.00">computeIndex()</text>
<text text-anchor="start" x="3027.5" y="-105.8" font-family="Times,serif" font-size="14.00">getReward()</text>
<text text-anchor="start" x="3027.5" y="-90.8" font-family="Times,serif" font-size="14.00">startGame()</text>
</g>
<!-- 18&#45;&gt;15 -->
<g id="edge7" class="edge"><title>18&#45;&gt;15</title>
<path fill="none" stroke="black" d="M3065.04,-257.27C3049,-284.587 3030.11,-314.333 3010.5,-340 3003.08,-349.711 2994.76,-359.507 2986.25,-368.905"/>
<polygon fill="none" stroke="black" points="2983.6,-366.617 2979.41,-376.347 2988.76,-371.354 2983.6,-366.617"/>
</g>
<!-- 19 -->
<g id="node20" class="node"><title>19</title>
<polygon fill="none" stroke="black" points="3221.5,-75.5 3221.5,-264.5 3343.5,-264.5 3343.5,-75.5 3221.5,-75.5"/>
<text text-anchor="middle" x="3282.5" y="-249.3" font-family="Times,serif" font-size="14.00">Policies.UCB.UCB</text>
<polyline fill="none" stroke="black" points="3221.5,-241.5 3343.5,-241.5 "/>
<text text-anchor="start" x="3229.5" y="-226.3" font-family="Times,serif" font-size="14.00">nbArms</text>
<text text-anchor="start" x="3229.5" y="-211.3" font-family="Times,serif" font-size="14.00">params : str</text>
<text text-anchor="start" x="3229.5" y="-196.3" font-family="Times,serif" font-size="14.00">pulls</text>
<text text-anchor="start" x="3229.5" y="-181.3" font-family="Times,serif" font-size="14.00">rewards</text>
<text text-anchor="start" x="3229.5" y="-166.3" font-family="Times,serif" font-size="14.00">t : int</text>
<polyline fill="none" stroke="black" points="3221.5,-158.5 3343.5,-158.5 "/>
<text text-anchor="start" x="3229.5" y="-143.3" font-family="Times,serif" font-size="14.00">__init__()</text>
<text text-anchor="start" x="3229.5" y="-128.3" font-family="Times,serif" font-size="14.00">__str__()</text>
<text text-anchor="start" x="3229.5" y="-113.3" font-family="Times,serif" font-size="14.00">choice()</text>
<text text-anchor="start" x="3229.5" y="-98.3" font-family="Times,serif" font-size="14.00">getReward()</text>
<text text-anchor="start" x="3229.5" y="-83.3" font-family="Times,serif" font-size="14.00">startGame()</text>
</g>
<!-- 19&#45;&gt;15 -->
<g id="edge8" class="edge"><title>19&#45;&gt;15</title>
<path fill="none" stroke="black" d="M3260.13,-264.556C3249.6,-291.956 3234.37,-319.914 3212.5,-340 3162.66,-385.773 3090.18,-408.897 3030.02,-420.578"/>
<polygon fill="none" stroke="black" points="3029.29,-417.155 3020.1,-422.425 3030.57,-424.037 3029.29,-417.155"/>
</g>
<!-- 20 -->
<g id="node21" class="node"><title>20</title>
<polygon fill="none" stroke="black" points="3361.5,-53 3361.5,-287 3503.5,-287 3503.5,-53 3361.5,-53"/>
<text text-anchor="middle" x="3432.5" y="-271.8" font-family="Times,serif" font-size="14.00">Policies.UCBV.UCBV</text>
<polyline fill="none" stroke="black" points="3361.5,-264 3503.5,-264 "/>
<text text-anchor="start" x="3369.5" y="-248.8" font-family="Times,serif" font-size="14.00">amplitude : float</text>
<text text-anchor="start" x="3369.5" y="-233.8" font-family="Times,serif" font-size="14.00">lower : float</text>
<text text-anchor="start" x="3369.5" y="-218.8" font-family="Times,serif" font-size="14.00">nbArms</text>
<text text-anchor="start" x="3369.5" y="-203.8" font-family="Times,serif" font-size="14.00">params</text>
<text text-anchor="start" x="3369.5" y="-188.8" font-family="Times,serif" font-size="14.00">pulls</text>
<text text-anchor="start" x="3369.5" y="-173.8" font-family="Times,serif" font-size="14.00">rewards</text>
<text text-anchor="start" x="3369.5" y="-158.8" font-family="Times,serif" font-size="14.00">rewardsCorrected</text>
<text text-anchor="start" x="3369.5" y="-143.8" font-family="Times,serif" font-size="14.00">t : int</text>
<polyline fill="none" stroke="black" points="3361.5,-136 3503.5,-136 "/>
<text text-anchor="start" x="3369.5" y="-120.8" font-family="Times,serif" font-size="14.00">__init__()</text>
<text text-anchor="start" x="3369.5" y="-105.8" font-family="Times,serif" font-size="14.00">__str__()</text>
<text text-anchor="start" x="3369.5" y="-90.8" font-family="Times,serif" font-size="14.00">computeIndex()</text>
<text text-anchor="start" x="3369.5" y="-75.8" font-family="Times,serif" font-size="14.00">getReward()</text>
<text text-anchor="start" x="3369.5" y="-60.8" font-family="Times,serif" font-size="14.00">startGame()</text>
</g>
<!-- 20&#45;&gt;15 -->
<g id="edge9" class="edge"><title>20&#45;&gt;15</title>
<path fill="none" stroke="black" d="M3395.14,-287.087C3384.16,-307.13 3370.18,-325.989 3352.5,-340 3303.49,-378.829 3141.46,-405.775 3030.65,-420.188"/>
<polygon fill="none" stroke="black" points="3029.9,-416.756 3020.42,-421.502 3030.79,-423.699 3029.9,-416.756"/>
</g>
<!-- 21 -->
<g id="node22" class="node"><title>21</title>
<polygon fill="none" stroke="black" points="3522,-68 3522,-272 3703,-272 3703,-68 3522,-68"/>
<text text-anchor="middle" x="3612.5" y="-256.8" font-family="Times,serif" font-size="14.00">Policies.UCBalpha.UCBalpha</text>
<polyline fill="none" stroke="black" points="3522,-249 3703,-249 "/>
<text text-anchor="start" x="3530" y="-233.8" font-family="Times,serif" font-size="14.00">alpha : int</text>
<text text-anchor="start" x="3530" y="-218.8" font-family="Times,serif" font-size="14.00">nbArms</text>
<text text-anchor="start" x="3530" y="-203.8" font-family="Times,serif" font-size="14.00">params</text>
<text text-anchor="start" x="3530" y="-188.8" font-family="Times,serif" font-size="14.00">pulls</text>
<text text-anchor="start" x="3530" y="-173.8" font-family="Times,serif" font-size="14.00">rewards</text>
<text text-anchor="start" x="3530" y="-158.8" font-family="Times,serif" font-size="14.00">t : int</text>
<polyline fill="none" stroke="black" points="3522,-151 3703,-151 "/>
<text text-anchor="start" x="3530" y="-135.8" font-family="Times,serif" font-size="14.00">__init__()</text>
<text text-anchor="start" x="3530" y="-120.8" font-family="Times,serif" font-size="14.00">__str__()</text>
<text text-anchor="start" x="3530" y="-105.8" font-family="Times,serif" font-size="14.00">choice()</text>
<text text-anchor="start" x="3530" y="-90.8" font-family="Times,serif" font-size="14.00">getReward()</text>
<text text-anchor="start" x="3530" y="-75.8" font-family="Times,serif" font-size="14.00">startGame()</text>
</g>
<!-- 21&#45;&gt;15 -->
<g id="edge10" class="edge"><title>21&#45;&gt;15</title>
<path fill="none" stroke="black" d="M3571.91,-272.066C3556.91,-297.931 3537.33,-323.163 3512.5,-340 3435.83,-391.991 3179,-416.441 3030.35,-426.486"/>
<polygon fill="none" stroke="black" points="3030.03,-423 3020.28,-427.156 3030.49,-429.985 3030.03,-423"/>
</g>
<!-- 22 -->
<g id="node23" class="node"><title>22</title>
<polygon fill="none" stroke="black" points="3721,-38 3721,-302 3864,-302 3864,-38 3721,-38"/>
<text text-anchor="middle" x="3792.5" y="-286.8" font-family="Times,serif" font-size="14.00">Policies.klUCB.klUCB</text>
<polyline fill="none" stroke="black" points="3721,-279 3864,-279 "/>
<text text-anchor="start" x="3729" y="-263.8" font-family="Times,serif" font-size="14.00">amplitude : float</text>
<text text-anchor="start" x="3729" y="-248.8" font-family="Times,serif" font-size="14.00">c : float</text>
<text text-anchor="start" x="3729" y="-233.8" font-family="Times,serif" font-size="14.00">klucb</text>
<text text-anchor="start" x="3729" y="-218.8" font-family="Times,serif" font-size="14.00">lower : float</text>
<text text-anchor="start" x="3729" y="-203.8" font-family="Times,serif" font-size="14.00">nbArms</text>
<text text-anchor="start" x="3729" y="-188.8" font-family="Times,serif" font-size="14.00">params</text>
<text text-anchor="start" x="3729" y="-173.8" font-family="Times,serif" font-size="14.00">pulls</text>
<text text-anchor="start" x="3729" y="-158.8" font-family="Times,serif" font-size="14.00">rewards</text>
<text text-anchor="start" x="3729" y="-143.8" font-family="Times,serif" font-size="14.00">t : int</text>
<text text-anchor="start" x="3729" y="-128.8" font-family="Times,serif" font-size="14.00">tolerance : float</text>
<polyline fill="none" stroke="black" points="3721,-121 3864,-121 "/>
<text text-anchor="start" x="3729" y="-105.8" font-family="Times,serif" font-size="14.00">__init__()</text>
<text text-anchor="start" x="3729" y="-90.8" font-family="Times,serif" font-size="14.00">__str__()</text>
<text text-anchor="start" x="3729" y="-75.8" font-family="Times,serif" font-size="14.00">computeIndex()</text>
<text text-anchor="start" x="3729" y="-60.8" font-family="Times,serif" font-size="14.00">getReward()</text>
<text text-anchor="start" x="3729" y="-45.8" font-family="Times,serif" font-size="14.00">startGame()</text>
</g>
<!-- 22&#45;&gt;15 -->
<g id="edge11" class="edge"><title>22&#45;&gt;15</title>
<path fill="none" stroke="black" d="M3747.73,-302.344C3738.1,-316.846 3726.48,-329.968 3712.5,-340 3605.67,-416.679 3220.87,-430.477 3030.17,-432.505"/>
<polygon fill="none" stroke="black" points="3030.09,-429.005 3020.13,-432.603 3030.16,-436.005 3030.09,-429.005"/>
</g>
</g>
</svg>
