<?xml version="1.0" encoding="UTF-8" standalone="no"?>
<!DOCTYPE svg PUBLIC "-//W3C//DTD SVG 1.1//EN"
 "http://www.w3.org/Graphics/SVG/1.1/DTD/svg11.dtd">
<!-- Generated by graphviz version 2.38.0 (20140413.2041)
 -->
<!-- Title: packages_AlgoBandits Pages: 1 -->
<svg width="5422pt" height="404pt"
 viewBox="0.00 0.00 5422.00 404.00" xmlns="http://www.w3.org/2000/svg" xmlns:xlink="http://www.w3.org/1999/xlink">
<g id="graph0" class="graph" transform="scale(1 1) rotate(0) translate(4 400)">
<title>packages_AlgoBandits</title>
<polygon fill="white" stroke="none" points="-4,4 -4,-400 5418,-400 5418,4 -4,4"/>
<!-- 0 -->
<g id="node1" class="node"><title>0</title>
<polygon fill="none" stroke="black" points="253,-108 199,-108 199,-72 253,-72 253,-108"/>
<text text-anchor="middle" x="226" y="-86.3" font-family="Times,serif" font-size="14.00">Arms</text>
</g>
<!-- 2 -->
<g id="node3" class="node"><title>2</title>
<polygon fill="none" stroke="black" points="467,-180 365,-180 365,-144 467,-144 467,-180"/>
<text text-anchor="middle" x="416" y="-158.3" font-family="Times,serif" font-size="14.00">Arms.Bernoulli</text>
</g>
<!-- 0&#45;&gt;2 -->
<g id="edge1" class="edge"><title>0&#45;&gt;2</title>
<path fill="none" stroke="black" d="M253.222,-101.029C280.985,-111.258 324.862,-127.423 360.069,-140.394"/>
<polygon fill="black" stroke="black" points="369.749,-143.96 358.809,-144.725 365.057,-142.231 360.365,-140.503 360.365,-140.503 360.365,-140.503 365.057,-142.231 361.921,-136.28 369.749,-143.96 369.749,-143.96"/>
</g>
<!-- 3 -->
<g id="node4" class="node"><title>3</title>
<polygon fill="none" stroke="black" points="116,-180 7.10543e-15,-180 7.10543e-15,-144 116,-144 116,-180"/>
<text text-anchor="middle" x="58" y="-158.3" font-family="Times,serif" font-size="14.00">Arms.Exponential</text>
</g>
<!-- 0&#45;&gt;3 -->
<g id="edge2" class="edge"><title>0&#45;&gt;3</title>
<path fill="none" stroke="black" d="M198.634,-102.403C174.22,-112.575 137.858,-127.726 108.224,-140.073"/>
<polygon fill="black" stroke="black" points="98.8633,-143.974 106.363,-135.974 103.479,-142.051 108.094,-140.127 108.094,-140.127 108.094,-140.127 103.479,-142.051 109.825,-144.281 98.8633,-143.974 98.8633,-143.974"/>
</g>
<!-- 4 -->
<g id="node5" class="node"><title>4</title>
<polygon fill="none" stroke="black" points="235.5,-180 134.5,-180 134.5,-144 235.5,-144 235.5,-180"/>
<text text-anchor="middle" x="185" y="-158.3" font-family="Times,serif" font-size="14.00">Arms.Gaussian</text>
</g>
<!-- 0&#45;&gt;4 -->
<g id="edge3" class="edge"><title>0&#45;&gt;4</title>
<path fill="none" stroke="black" d="M215.865,-108.303C211.148,-116.356 205.438,-126.106 200.218,-135.018"/>
<polygon fill="black" stroke="black" points="195.018,-143.896 196.189,-132.992 197.545,-139.581 200.072,-135.267 200.072,-135.267 200.072,-135.267 197.545,-139.581 203.955,-137.541 195.018,-143.896 195.018,-143.896"/>
</g>
<!-- 5 -->
<g id="node6" class="node"><title>5</title>
<polygon fill="none" stroke="black" points="346.5,-180 253.5,-180 253.5,-144 346.5,-144 346.5,-180"/>
<text text-anchor="middle" x="300" y="-158.3" font-family="Times,serif" font-size="14.00">Arms.Poisson</text>
</g>
<!-- 0&#45;&gt;5 -->
<g id="edge4" class="edge"><title>0&#45;&gt;5</title>
<path fill="none" stroke="black" d="M244.292,-108.303C253.433,-116.95 264.64,-127.551 274.6,-136.973"/>
<polygon fill="black" stroke="black" points="281.918,-143.896 271.561,-140.293 278.286,-140.46 274.654,-137.024 274.654,-137.024 274.654,-137.024 278.286,-140.46 277.746,-133.755 281.918,-143.896 281.918,-143.896"/>
</g>
<!-- 1 -->
<g id="node2" class="node"><title>1</title>
<polygon fill="none" stroke="black" points="96.5,-252 19.5,-252 19.5,-216 96.5,-216 96.5,-252"/>
<text text-anchor="middle" x="58" y="-230.3" font-family="Times,serif" font-size="14.00">Arms.Arm</text>
</g>
<!-- 2&#45;&gt;1 -->
<g id="edge5" class="edge"><title>2&#45;&gt;1</title>
<path fill="none" stroke="black" d="M364.863,-177.766C361.536,-178.567 358.227,-179.321 355,-180 248.26,-202.461 215.737,-189.55 106.303,-215.946"/>
<polygon fill="black" stroke="black" points="96.5347,-218.356 105.166,-211.592 101.389,-217.158 106.244,-215.961 106.244,-215.961 106.244,-215.961 101.389,-217.158 107.322,-220.329 96.5347,-218.356 96.5347,-218.356"/>
</g>
<!-- 3&#45;&gt;1 -->
<g id="edge6" class="edge"><title>3&#45;&gt;1</title>
<path fill="none" stroke="black" d="M58,-180.303C58,-188.017 58,-197.288 58,-205.888"/>
<polygon fill="black" stroke="black" points="58,-215.896 53.5001,-205.896 58,-210.896 58.0001,-205.896 58.0001,-205.896 58.0001,-205.896 58,-210.896 62.5001,-205.896 58,-215.896 58,-215.896"/>
</g>
<!-- 4&#45;&gt;1 -->
<g id="edge7" class="edge"><title>4&#45;&gt;1</title>
<path fill="none" stroke="black" d="M153.932,-180.124C137.173,-189.361 116.294,-200.869 98.2982,-210.788"/>
<polygon fill="black" stroke="black" points="89.1871,-215.81 95.7727,-207.042 93.566,-213.397 97.9449,-210.983 97.9449,-210.983 97.9449,-210.983 93.566,-213.397 100.117,-214.924 89.1871,-215.81 89.1871,-215.81"/>
</g>
<!-- 5&#45;&gt;1 -->
<g id="edge8" class="edge"><title>5&#45;&gt;1</title>
<path fill="none" stroke="black" d="M253.291,-177.337C250.151,-178.252 247.032,-179.148 244,-180 185.566,-196.429 167.69,-197.099 106.422,-215.693"/>
<polygon fill="black" stroke="black" points="96.6316,-218.702 104.868,-211.462 101.411,-217.233 106.19,-215.764 106.19,-215.764 106.19,-215.764 101.411,-217.233 107.513,-220.065 96.6316,-218.702 96.6316,-218.702"/>
</g>
<!-- 6 -->
<g id="node7" class="node"><title>6</title>
<polygon fill="none" stroke="black" points="3760,-108 3672,-108 3672,-72 3760,-72 3760,-108"/>
<text text-anchor="middle" x="3716" y="-86.3" font-family="Times,serif" font-size="14.00">Environment</text>
</g>
<!-- 8 -->
<g id="node9" class="node"><title>8</title>
<polygon fill="none" stroke="black" points="3888,-180 3744,-180 3744,-144 3888,-144 3888,-180"/>
<text text-anchor="middle" x="3816" y="-158.3" font-family="Times,serif" font-size="14.00">Environment.Evaluator</text>
</g>
<!-- 6&#45;&gt;8 -->
<g id="edge9" class="edge"><title>6&#45;&gt;8</title>
<path fill="none" stroke="black" d="M3740.46,-108.124C3753.3,-117.107 3769.2,-128.237 3783.09,-137.966"/>
<polygon fill="black" stroke="black" points="3791.44,-143.81 3780.67,-141.762 3787.35,-140.943 3783.25,-138.076 3783.25,-138.076 3783.25,-138.076 3787.35,-140.943 3785.83,-134.389 3791.44,-143.81 3791.44,-143.81"/>
</g>
<!-- 9 -->
<g id="node10" class="node"><title>9</title>
<polygon fill="none" stroke="black" points="3687.5,-180 3472.5,-180 3472.5,-144 3687.5,-144 3687.5,-180"/>
<text text-anchor="middle" x="3580" y="-158.3" font-family="Times,serif" font-size="14.00">Environment.EvaluatorMultiPlayers</text>
</g>
<!-- 6&#45;&gt;9 -->
<g id="edge10" class="edge"><title>6&#45;&gt;9</title>
<path fill="none" stroke="black" d="M3682.73,-108.124C3664.54,-117.488 3641.81,-129.186 3622.36,-139.197"/>
<polygon fill="black" stroke="black" points="3613.4,-143.81 3620.23,-135.233 3617.84,-141.522 3622.29,-139.234 3622.29,-139.234 3622.29,-139.234 3617.84,-141.522 3624.35,-143.235 3613.4,-143.81 3613.4,-143.81"/>
</g>
<!-- 10 -->
<g id="node11" class="node"><title>10</title>
<polygon fill="none" stroke="black" points="3777.5,-252 3654.5,-252 3654.5,-216 3777.5,-216 3777.5,-252"/>
<text text-anchor="middle" x="3716" y="-230.3" font-family="Times,serif" font-size="14.00">Environment.MAB</text>
</g>
<!-- 6&#45;&gt;10 -->
<g id="edge11" class="edge"><title>6&#45;&gt;10</title>
<path fill="none" stroke="black" d="M3716,-108.129C3716,-132.33 3716,-176.789 3716,-205.607"/>
<polygon fill="black" stroke="black" points="3716,-215.811 3711.5,-205.811 3716,-210.811 3716,-205.811 3716,-205.811 3716,-205.811 3716,-210.811 3720.5,-205.811 3716,-215.811 3716,-215.811"/>
</g>
<!-- 11 -->
<g id="node12" class="node"><title>11</title>
<polygon fill="none" stroke="black" points="4094,-252 3968,-252 3968,-216 4094,-216 4094,-252"/>
<text text-anchor="middle" x="4031" y="-230.3" font-family="Times,serif" font-size="14.00">Environment.Result</text>
</g>
<!-- 6&#45;&gt;11 -->
<g id="edge12" class="edge"><title>6&#45;&gt;11</title>
<path fill="none" stroke="black" d="M3760.12,-99.9912C3797.62,-108.545 3852.32,-123.208 3897,-144 3935.38,-161.863 3975.3,-189.779 4001.47,-209.578"/>
<polygon fill="black" stroke="black" points="4009.46,-215.698 3998.79,-213.193 4005.49,-212.659 4001.52,-209.619 4001.52,-209.619 4001.52,-209.619 4005.49,-212.659 4004.26,-206.046 4009.46,-215.698 4009.46,-215.698"/>
</g>
<!-- 7 -->
<g id="node8" class="node"><title>7</title>
<polygon fill="none" stroke="black" points="3421,-252 3239,-252 3239,-216 3421,-216 3421,-252"/>
<text text-anchor="middle" x="3330" y="-230.3" font-family="Times,serif" font-size="14.00">Environment.CollisionModels</text>
</g>
<!-- 8&#45;&gt;10 -->
<g id="edge13" class="edge"><title>8&#45;&gt;10</title>
<path fill="none" stroke="black" d="M3791.54,-180.124C3778.7,-189.107 3762.8,-200.237 3748.91,-209.966"/>
<polygon fill="black" stroke="black" points="3740.56,-215.81 3746.17,-206.389 3744.65,-212.943 3748.75,-210.076 3748.75,-210.076 3748.75,-210.076 3744.65,-212.943 3751.33,-213.762 3740.56,-215.81 3740.56,-215.81"/>
</g>
<!-- 8&#45;&gt;11 -->
<g id="edge14" class="edge"><title>8&#45;&gt;11</title>
<path fill="none" stroke="black" d="M3868.32,-180.034C3898.62,-189.9 3936.95,-202.378 3968.79,-212.745"/>
<polygon fill="black" stroke="black" points="3978.45,-215.889 3967.54,-217.072 3973.69,-214.341 3968.94,-212.793 3968.94,-212.793 3968.94,-212.793 3973.69,-214.341 3970.33,-208.514 3978.45,-215.889 3978.45,-215.889"/>
</g>
<!-- 13 -->
<g id="node14" class="node"><title>13</title>
<polygon fill="none" stroke="black" points="3950,-252 3796,-252 3796,-216 3950,-216 3950,-252"/>
<text text-anchor="middle" x="3873" y="-230.3" font-family="Times,serif" font-size="14.00">Environment.plotsettings</text>
</g>
<!-- 8&#45;&gt;13 -->
<g id="edge15" class="edge"><title>8&#45;&gt;13</title>
<path fill="none" stroke="black" d="M3830.09,-180.303C3836.92,-188.695 3845.26,-198.93 3852.76,-208.139"/>
<polygon fill="black" stroke="black" points="3859.07,-215.896 3849.27,-210.983 3855.92,-212.018 3852.76,-208.141 3852.76,-208.141 3852.76,-208.141 3855.92,-212.018 3856.25,-205.3 3859.07,-215.896 3859.07,-215.896"/>
</g>
<!-- 9&#45;&gt;7 -->
<g id="edge16" class="edge"><title>9&#45;&gt;7</title>
<path fill="none" stroke="black" d="M3519.16,-180.034C3483.47,-190.028 3438.21,-202.702 3400.91,-213.146"/>
<polygon fill="black" stroke="black" points="3391.11,-215.889 3399.53,-208.859 3395.92,-214.541 3400.74,-213.193 3400.74,-213.193 3400.74,-213.193 3395.92,-214.541 3401.95,-217.526 3391.11,-215.889 3391.11,-215.889"/>
</g>
<!-- 9&#45;&gt;10 -->
<g id="edge17" class="edge"><title>9&#45;&gt;10</title>
<path fill="none" stroke="black" d="M3613.27,-180.124C3631.46,-189.488 3654.19,-201.186 3673.64,-211.197"/>
<polygon fill="black" stroke="black" points="3682.6,-215.81 3671.65,-215.235 3678.16,-213.522 3673.71,-211.234 3673.71,-211.234 3673.71,-211.234 3678.16,-213.522 3675.77,-207.233 3682.6,-215.81 3682.6,-215.81"/>
</g>
<!-- 12 -->
<g id="node13" class="node"><title>12</title>
<polygon fill="none" stroke="black" points="3636.5,-252 3439.5,-252 3439.5,-216 3636.5,-216 3636.5,-252"/>
<text text-anchor="middle" x="3538" y="-230.3" font-family="Times,serif" font-size="14.00">Environment.ResultMultiPlayers</text>
</g>
<!-- 9&#45;&gt;12 -->
<g id="edge18" class="edge"><title>9&#45;&gt;12</title>
<path fill="none" stroke="black" d="M3569.62,-180.303C3564.74,-188.441 3558.81,-198.311 3553.42,-207.299"/>
<polygon fill="black" stroke="black" points="3548.26,-215.896 3549.55,-205.005 3550.84,-211.608 3553.41,-207.321 3553.41,-207.321 3553.41,-207.321 3550.84,-211.608 3557.27,-209.636 3548.26,-215.896 3548.26,-215.896"/>
</g>
<!-- 9&#45;&gt;13 -->
<g id="edge19" class="edge"><title>9&#45;&gt;13</title>
<path fill="none" stroke="black" d="M3651.3,-180.034C3693.74,-190.174 3747.74,-203.073 3791.81,-213.604"/>
<polygon fill="black" stroke="black" points="3801.63,-215.95 3790.86,-218.003 3796.77,-214.788 3791.91,-213.626 3791.91,-213.626 3791.91,-213.626 3796.77,-214.788 3792.95,-209.249 3801.63,-215.95 3801.63,-215.95"/>
</g>
<!-- 14 -->
<g id="node15" class="node"><title>14</title>
<polygon fill="none" stroke="black" points="1608.5,-180 1549.5,-180 1549.5,-144 1608.5,-144 1608.5,-180"/>
<text text-anchor="middle" x="1579" y="-158.3" font-family="Times,serif" font-size="14.00">Policies</text>
</g>
<!-- 15 -->
<g id="node16" class="node"><title>15</title>
<polygon fill="none" stroke="black" points="235.5,-252 114.5,-252 114.5,-216 235.5,-216 235.5,-252"/>
<text text-anchor="middle" x="175" y="-230.3" font-family="Times,serif" font-size="14.00">Policies.AdBandits</text>
</g>
<!-- 14&#45;&gt;15 -->
<g id="edge20" class="edge"><title>14&#45;&gt;15</title>
<path fill="none" stroke="black" d="M1549.25,-163.379C1379.39,-165.661 530.352,-178.711 245.851,-216.115"/>
<polygon fill="black" stroke="black" points="235.564,-217.513 244.867,-211.707 240.519,-216.839 245.473,-216.166 245.473,-216.166 245.473,-216.166 240.519,-216.839 246.079,-220.625 235.564,-217.513 235.564,-217.513"/>
</g>
<!-- 16 -->
<g id="node17" class="node"><title>16</title>
<polygon fill="none" stroke="black" points="1395.5,-252 1304.5,-252 1304.5,-216 1395.5,-216 1395.5,-252"/>
<text text-anchor="middle" x="1350" y="-230.3" font-family="Times,serif" font-size="14.00">Policies.Aggr</text>
</g>
<!-- 14&#45;&gt;16 -->
<g id="edge21" class="edge"><title>14&#45;&gt;16</title>
<path fill="none" stroke="black" d="M1549.24,-171.904C1516.3,-181.784 1461.38,-198.327 1405.38,-215.587"/>
<polygon fill="black" stroke="black" points="1395.65,-218.589 1403.88,-211.34 1400.43,-217.114 1405.21,-215.64 1405.21,-215.64 1405.21,-215.64 1400.43,-217.114 1406.54,-219.94 1395.65,-218.589 1395.65,-218.589"/>
</g>
<!-- 17 -->
<g id="node18" class="node"><title>17</title>
<polygon fill="none" stroke="black" points="378,-252 254,-252 254,-216 378,-216 378,-252"/>
<text text-anchor="middle" x="316" y="-230.3" font-family="Times,serif" font-size="14.00">Policies.BayesUCB</text>
</g>
<!-- 14&#45;&gt;17 -->
<g id="edge22" class="edge"><title>14&#45;&gt;17</title>
<path fill="none" stroke="black" d="M1549.33,-163.552C1390.88,-166.616 642.479,-182.559 388.484,-215.995"/>
<polygon fill="black" stroke="black" points="378.21,-217.396 387.51,-211.586 383.164,-216.721 388.118,-216.045 388.118,-216.045 388.118,-216.045 383.164,-216.721 388.726,-220.504 378.21,-217.396 378.21,-217.396"/>
</g>
<!-- 19 -->
<g id="node20" class="node"><title>19</title>
<polygon fill="none" stroke="black" points="1578.5,-252 1413.5,-252 1413.5,-216 1578.5,-216 1578.5,-252"/>
<text text-anchor="middle" x="1496" y="-230.3" font-family="Times,serif" font-size="14.00">Policies.EpsilonDecreasing</text>
</g>
<!-- 14&#45;&gt;19 -->
<g id="edge23" class="edge"><title>14&#45;&gt;19</title>
<path fill="none" stroke="black" d="M1558.48,-180.303C1548.13,-189.035 1535.41,-199.76 1524.16,-209.25"/>
<polygon fill="black" stroke="black" points="1516.28,-215.896 1521.02,-206.009 1520.1,-212.672 1523.93,-209.449 1523.93,-209.449 1523.93,-209.449 1520.1,-212.672 1526.83,-212.889 1516.28,-215.896 1516.28,-215.896"/>
</g>
<!-- 20 -->
<g id="node21" class="node"><title>20</title>
<polygon fill="none" stroke="black" points="1725.5,-252 1596.5,-252 1596.5,-216 1725.5,-216 1725.5,-252"/>
<text text-anchor="middle" x="1661" y="-230.3" font-family="Times,serif" font-size="14.00">Policies.EpsilonFirst</text>
</g>
<!-- 14&#45;&gt;20 -->
<g id="edge24" class="edge"><title>14&#45;&gt;20</title>
<path fill="none" stroke="black" d="M1599.27,-180.303C1609.5,-189.035 1622.06,-199.76 1633.18,-209.25"/>
<polygon fill="black" stroke="black" points="1640.96,-215.896 1630.44,-212.826 1637.16,-212.649 1633.36,-209.403 1633.36,-209.403 1633.36,-209.403 1637.16,-212.649 1636.28,-205.98 1640.96,-215.896 1640.96,-215.896"/>
</g>
<!-- 21 -->
<g id="node22" class="node"><title>21</title>
<polygon fill="none" stroke="black" points="1888,-252 1744,-252 1744,-216 1888,-216 1888,-252"/>
<text text-anchor="middle" x="1816" y="-230.3" font-family="Times,serif" font-size="14.00">Policies.EpsilonGreedy</text>
</g>
<!-- 14&#45;&gt;21 -->
<g id="edge25" class="edge"><title>14&#45;&gt;21</title>
<path fill="none" stroke="black" d="M1608.54,-171.724C1643.41,-182.023 1702.5,-199.475 1748.71,-213.126"/>
<polygon fill="black" stroke="black" points="1758.37,-215.978 1747.5,-217.461 1753.57,-214.561 1748.78,-213.145 1748.78,-213.145 1748.78,-213.145 1753.57,-214.561 1750.05,-208.829 1758.37,-215.978 1758.37,-215.978"/>
</g>
<!-- 24 -->
<g id="node25" class="node"><title>24</title>
<polygon fill="none" stroke="black" points="2010,-252 1906,-252 1906,-216 2010,-216 2010,-252"/>
<text text-anchor="middle" x="1958" y="-230.3" font-family="Times,serif" font-size="14.00">Policies.MEGA</text>
</g>
<!-- 14&#45;&gt;24 -->
<g id="edge26" class="edge"><title>14&#45;&gt;24</title>
<path fill="none" stroke="black" d="M1608.58,-166.855C1663.36,-174.225 1784.45,-191.591 1895.8,-215.856"/>
<polygon fill="black" stroke="black" points="1905.85,-218.072 1895.11,-220.314 1900.97,-216.996 1896.08,-215.919 1896.08,-215.919 1896.08,-215.919 1900.97,-216.996 1897.05,-211.525 1905.85,-218.072 1905.85,-218.072"/>
</g>
<!-- 25 -->
<g id="node26" class="node"><title>25</title>
<polygon fill="none" stroke="black" points="675.5,-252 574.5,-252 574.5,-216 675.5,-216 675.5,-252"/>
<text text-anchor="middle" x="625" y="-230.3" font-family="Times,serif" font-size="14.00">Policies.MOSS</text>
</g>
<!-- 14&#45;&gt;25 -->
<g id="edge27" class="edge"><title>14&#45;&gt;25</title>
<path fill="none" stroke="black" d="M1549.09,-163.901C1416.01,-168.041 876.331,-186.253 685.468,-216.221"/>
<polygon fill="black" stroke="black" points="675.562,-217.841 684.705,-211.786 680.497,-217.034 685.431,-216.227 685.431,-216.227 685.431,-216.227 680.497,-217.034 686.158,-220.668 675.562,-217.841 675.562,-217.841"/>
</g>
<!-- 26 -->
<g id="node27" class="node"><title>26</title>
<polygon fill="none" stroke="black" points="2165.5,-252 2028.5,-252 2028.5,-216 2165.5,-216 2165.5,-252"/>
<text text-anchor="middle" x="2097" y="-230.3" font-family="Times,serif" font-size="14.00">Policies.MusicalChair</text>
</g>
<!-- 14&#45;&gt;26 -->
<g id="edge28" class="edge"><title>14&#45;&gt;26</title>
<path fill="none" stroke="black" d="M1608.75,-165.603C1678.48,-171.91 1857.99,-189.362 2018.13,-215.945"/>
<polygon fill="black" stroke="black" points="2028.17,-217.627 2017.56,-220.412 2023.23,-216.801 2018.3,-215.974 2018.3,-215.974 2018.3,-215.974 2023.23,-216.801 2019.05,-211.536 2028.17,-217.627 2028.17,-217.627"/>
</g>
<!-- 27 -->
<g id="node28" class="node"><title>27</title>
<polygon fill="none" stroke="black" points="2294,-252 2184,-252 2184,-216 2294,-216 2294,-252"/>
<text text-anchor="middle" x="2239" y="-230.3" font-family="Times,serif" font-size="14.00">Policies.Softmax</text>
</g>
<!-- 14&#45;&gt;27 -->
<g id="edge29" class="edge"><title>14&#45;&gt;27</title>
<path fill="none" stroke="black" d="M1608.63,-163.891C1695.88,-166.887 1959.18,-178.611 2174,-216 2174.1,-216.018 2174.2,-216.035 2174.3,-216.053"/>
<polygon fill="black" stroke="black" points="2183.82,-217.898 2173.15,-220.412 2178.91,-216.946 2174,-215.995 2174,-215.995 2174,-215.995 2178.91,-216.946 2174.86,-211.577 2183.82,-217.898 2183.82,-217.898"/>
</g>
<!-- 28 -->
<g id="node29" class="node"><title>28</title>
<polygon fill="none" stroke="black" points="2458,-252 2312,-252 2312,-216 2458,-216 2458,-252"/>
<text text-anchor="middle" x="2385" y="-230.3" font-family="Times,serif" font-size="14.00">Policies.TakeFixedArm</text>
</g>
<!-- 14&#45;&gt;28 -->
<g id="edge30" class="edge"><title>14&#45;&gt;28</title>
<path fill="none" stroke="black" d="M1608.8,-163.779C1706.69,-166.634 2027.3,-178.322 2301.62,-215.915"/>
<polygon fill="black" stroke="black" points="2311.77,-217.32 2301.24,-220.406 2306.81,-216.634 2301.86,-215.948 2301.86,-215.948 2301.86,-215.948 2306.81,-216.634 2302.48,-211.491 2311.77,-217.32 2311.77,-217.32"/>
</g>
<!-- 29 -->
<g id="node30" class="node"><title>29</title>
<polygon fill="none" stroke="black" points="2669.5,-252 2476.5,-252 2476.5,-216 2669.5,-216 2669.5,-252"/>
<text text-anchor="middle" x="2573" y="-230.3" font-family="Times,serif" font-size="14.00">Policies.TakeRandomFixedArm</text>
</g>
<!-- 14&#45;&gt;29 -->
<g id="edge31" class="edge"><title>14&#45;&gt;29</title>
<path fill="none" stroke="black" d="M1608.6,-163.699C1719.79,-166.547 2123.19,-178.897 2466.16,-215.979"/>
<polygon fill="black" stroke="black" points="2476.29,-217.084 2465.86,-220.473 2471.32,-216.542 2466.35,-216 2466.35,-216 2466.35,-216 2471.32,-216.542 2466.84,-211.526 2476.29,-217.084 2476.29,-217.084"/>
</g>
<!-- 30 -->
<g id="node31" class="node"><title>30</title>
<polygon fill="none" stroke="black" points="518,-252 396,-252 396,-216 518,-216 518,-252"/>
<text text-anchor="middle" x="457" y="-230.3" font-family="Times,serif" font-size="14.00">Policies.Thompson</text>
</g>
<!-- 14&#45;&gt;30 -->
<g id="edge32" class="edge"><title>14&#45;&gt;30</title>
<path fill="none" stroke="black" d="M1549.26,-162.638C1424.57,-161.512 931.826,-160.985 532,-216 530.735,-216.174 529.46,-216.359 528.178,-216.553"/>
<polygon fill="black" stroke="black" points="518.237,-218.216 527.358,-212.128 523.169,-217.391 528.1,-216.566 528.1,-216.566 528.1,-216.566 523.169,-217.391 528.843,-221.004 518.237,-218.216 518.237,-218.216"/>
</g>
<!-- 31 -->
<g id="node32" class="node"><title>31</title>
<polygon fill="none" stroke="black" points="2778.5,-252 2687.5,-252 2687.5,-216 2778.5,-216 2778.5,-252"/>
<text text-anchor="middle" x="2733" y="-230.3" font-family="Times,serif" font-size="14.00">Policies.UCB</text>
</g>
<!-- 14&#45;&gt;31 -->
<g id="edge33" class="edge"><title>14&#45;&gt;31</title>
<path fill="none" stroke="black" d="M1608.62,-163.422C1759.42,-165.721 2443.42,-177.999 2677.17,-216.209"/>
<polygon fill="black" stroke="black" points="2687.3,-217.93 2676.68,-220.69 2682.37,-217.092 2677.44,-216.254 2677.44,-216.254 2677.44,-216.254 2682.37,-217.092 2678.19,-211.818 2687.3,-217.93 2687.3,-217.93"/>
</g>
<!-- 33 -->
<g id="node34" class="node"><title>33</title>
<polygon fill="none" stroke="black" points="951.5,-252 826.5,-252 826.5,-216 951.5,-216 951.5,-252"/>
<text text-anchor="middle" x="889" y="-230.3" font-family="Times,serif" font-size="14.00">Policies.UCBTuned</text>
</g>
<!-- 14&#45;&gt;33 -->
<g id="edge34" class="edge"><title>14&#45;&gt;33</title>
<path fill="none" stroke="black" d="M1549.49,-164.178C1460.76,-168.015 1188.8,-181.924 966,-216 964.706,-216.198 963.401,-216.405 962.088,-216.62"/>
<polygon fill="black" stroke="black" points="951.906,-218.408 960.977,-212.246 956.831,-217.543 961.755,-216.678 961.755,-216.678 961.755,-216.678 956.831,-217.543 962.533,-221.11 951.906,-218.408 951.906,-218.408"/>
</g>
<!-- 34 -->
<g id="node35" class="node"><title>34</title>
<polygon fill="none" stroke="black" points="737.5,-324 636.5,-324 636.5,-288 737.5,-288 737.5,-324"/>
<text text-anchor="middle" x="687" y="-302.3" font-family="Times,serif" font-size="14.00">Policies.UCBV</text>
</g>
<!-- 14&#45;&gt;34 -->
<g id="edge35" class="edge"><title>14&#45;&gt;34</title>
<path fill="none" stroke="black" d="M1549.24,-163.415C1385.43,-165.84 599.775,-179.36 565,-216 553.986,-227.605 556.225,-238.621 565,-252 578.852,-273.121 603.138,-285.868 626.412,-293.542"/>
<polygon fill="black" stroke="black" points="636.292,-296.53 625.418,-297.943 631.506,-295.083 626.72,-293.636 626.72,-293.636 626.72,-293.636 631.506,-295.083 628.023,-289.328 636.292,-296.53 636.292,-296.53"/>
</g>
<!-- 35 -->
<g id="node36" class="node"><title>35</title>
<polygon fill="none" stroke="black" points="2917,-252 2797,-252 2797,-216 2917,-216 2917,-252"/>
<text text-anchor="middle" x="2857" y="-230.3" font-family="Times,serif" font-size="14.00">Policies.UCBalpha</text>
</g>
<!-- 14&#45;&gt;35 -->
<g id="edge36" class="edge"><title>14&#45;&gt;35</title>
<path fill="none" stroke="black" d="M1608.54,-163.517C1768.05,-166.424 2528.6,-181.797 2786.74,-216.208"/>
<polygon fill="black" stroke="black" points="2796.82,-217.597 2786.29,-220.689 2791.86,-216.914 2786.91,-216.231 2786.91,-216.231 2786.91,-216.231 2791.86,-216.914 2787.52,-211.773 2796.82,-217.597 2796.82,-217.597"/>
</g>
<!-- 36 -->
<g id="node37" class="node"><title>36</title>
<polygon fill="none" stroke="black" points="3045,-252 2935,-252 2935,-216 3045,-216 3045,-252"/>
<text text-anchor="middle" x="2990" y="-230.3" font-family="Times,serif" font-size="14.00">Policies.Uniform</text>
</g>
<!-- 14&#45;&gt;36 -->
<g id="edge37" class="edge"><title>14&#45;&gt;36</title>
<path fill="none" stroke="black" d="M1608.77,-163.28C1779.77,-165.022 2638.95,-175.602 2924.73,-216.049"/>
<polygon fill="black" stroke="black" points="2934.65,-217.5 2924.11,-220.505 2929.71,-216.776 2924.76,-216.053 2924.76,-216.053 2924.76,-216.053 2929.71,-216.776 2925.41,-211.6 2934.65,-217.5 2934.65,-217.5"/>
</g>
<!-- 37 -->
<g id="node38" class="node"><title>37</title>
<polygon fill="none" stroke="black" points="3221,-252 3063,-252 3063,-216 3221,-216 3221,-252"/>
<text text-anchor="middle" x="3142" y="-230.3" font-family="Times,serif" font-size="14.00">Policies.UniformOnSome</text>
</g>
<!-- 14&#45;&gt;37 -->
<g id="edge38" class="edge"><title>14&#45;&gt;37</title>
<path fill="none" stroke="black" d="M1608.55,-163.437C1788.41,-166.189 2738.42,-182.081 3052.92,-216.015"/>
<polygon fill="black" stroke="black" points="3062.94,-217.127 3052.5,-220.496 3057.97,-216.575 3053,-216.024 3053,-216.024 3053,-216.024 3057.97,-216.575 3053.49,-211.551 3062.94,-217.127 3062.94,-217.127"/>
</g>
<!-- 38 -->
<g id="node39" class="node"><title>38</title>
<polygon fill="none" stroke="black" points="1070.5,-324 969.5,-324 969.5,-288 1070.5,-288 1070.5,-324"/>
<text text-anchor="middle" x="1020" y="-302.3" font-family="Times,serif" font-size="14.00">Policies.klUCB</text>
</g>
<!-- 14&#45;&gt;38 -->
<g id="edge39" class="edge"><title>14&#45;&gt;38</title>
<path fill="none" stroke="black" d="M1549.27,-163.426C1436.07,-165.35 1036.41,-175.019 999,-216 983.478,-233.006 992.283,-259.308 1002.83,-278.915"/>
<polygon fill="black" stroke="black" points="1007.89,-287.663 998.989,-281.256 1005.39,-283.334 1002.89,-279.005 1002.89,-279.005 1002.89,-279.005 1005.39,-283.334 1006.78,-276.753 1007.89,-287.663 1007.89,-287.663"/>
</g>
<!-- 39 -->
<g id="node40" class="node"><title>39</title>
<polygon fill="none" stroke="black" points="1286,-252 1152,-252 1152,-216 1286,-216 1286,-252"/>
<text text-anchor="middle" x="1219" y="-230.3" font-family="Times,serif" font-size="14.00">Policies.klUCBHPlus</text>
</g>
<!-- 14&#45;&gt;39 -->
<g id="edge40" class="edge"><title>14&#45;&gt;39</title>
<path fill="none" stroke="black" d="M1549.5,-168.149C1499.49,-176.955 1394.66,-195.743 1295.95,-215.841"/>
<polygon fill="black" stroke="black" points="1286.11,-217.853 1295,-211.441 1291.01,-216.851 1295.91,-215.85 1295.91,-215.85 1295.91,-215.85 1291.01,-216.851 1296.81,-220.258 1286.11,-217.853 1286.11,-217.853"/>
</g>
<!-- 40 -->
<g id="node41" class="node"><title>40</title>
<polygon fill="none" stroke="black" points="1133.5,-252 1008.5,-252 1008.5,-216 1133.5,-216 1133.5,-252"/>
<text text-anchor="middle" x="1071" y="-230.3" font-family="Times,serif" font-size="14.00">Policies.klUCBPlus</text>
</g>
<!-- 14&#45;&gt;40 -->
<g id="edge41" class="edge"><title>14&#45;&gt;40</title>
<path fill="none" stroke="black" d="M1549.49,-165.449C1480.34,-171.429 1302.33,-188.226 1143.68,-215.995"/>
<polygon fill="black" stroke="black" points="1133.74,-217.753 1142.81,-211.579 1138.67,-216.882 1143.59,-216.011 1143.59,-216.011 1143.59,-216.011 1138.67,-216.882 1144.37,-220.442 1133.74,-217.753 1133.74,-217.753"/>
</g>
<!-- 18 -->
<g id="node19" class="node"><title>18</title>
<polygon fill="none" stroke="black" points="360,-324 272,-324 272,-288 360,-288 360,-324"/>
<text text-anchor="middle" x="316" y="-302.3" font-family="Times,serif" font-size="14.00">Policies.Beta</text>
</g>
<!-- 15&#45;&gt;18 -->
<g id="edge42" class="edge"><title>15&#45;&gt;18</title>
<path fill="none" stroke="black" d="M209.492,-252.124C228.44,-261.531 252.132,-273.292 272.356,-283.333"/>
<polygon fill="black" stroke="black" points="281.375,-287.81 270.417,-287.394 276.896,-285.587 272.418,-283.363 272.418,-283.363 272.418,-283.363 276.896,-285.587 274.419,-279.333 281.375,-287.81 281.375,-287.81"/>
</g>
<!-- 17&#45;&gt;18 -->
<g id="edge43" class="edge"><title>17&#45;&gt;18</title>
<path fill="none" stroke="black" d="M316,-252.303C316,-260.017 316,-269.288 316,-277.888"/>
<polygon fill="black" stroke="black" points="316,-287.896 311.5,-277.896 316,-282.896 316,-277.896 316,-277.896 316,-277.896 316,-282.896 320.5,-277.896 316,-287.896 316,-287.896"/>
</g>
<!-- 22 -->
<g id="node23" class="node"><title>22</title>
<polygon fill="none" stroke="black" points="751,-396 623,-396 623,-360 751,-360 751,-396"/>
<text text-anchor="middle" x="687" y="-374.3" font-family="Times,serif" font-size="14.00">Policies.IndexPolicy</text>
</g>
<!-- 17&#45;&gt;22 -->
<g id="edge44" class="edge"><title>17&#45;&gt;22</title>
<path fill="none" stroke="black" d="M358.159,-252.091C403.265,-270.279 476.976,-299.722 541,-324 569.968,-334.985 602.342,-346.785 629.229,-356.456"/>
<polygon fill="black" stroke="black" points="638.87,-359.917 627.938,-360.773 634.164,-358.227 629.458,-356.538 629.458,-356.538 629.458,-356.538 634.164,-358.227 630.979,-352.303 638.87,-359.917 638.87,-359.917"/>
</g>
<!-- 23 -->
<g id="node24" class="node"><title>23</title>
<polygon fill="none" stroke="black" points="909.5,-324 776.5,-324 776.5,-288 909.5,-288 909.5,-324"/>
<text text-anchor="middle" x="843" y="-302.3" font-family="Times,serif" font-size="14.00">Policies.KLempUCB</text>
</g>
<!-- 23&#45;&gt;22 -->
<g id="edge45" class="edge"><title>23&#45;&gt;22</title>
<path fill="none" stroke="black" d="M804.838,-324.124C783.607,-333.651 756.992,-345.593 734.431,-355.717"/>
<polygon fill="black" stroke="black" points="725.038,-359.932 732.319,-351.732 729.6,-357.885 734.162,-355.838 734.162,-355.838 734.162,-355.838 729.6,-357.885 736.004,-359.943 725.038,-359.932 725.038,-359.932"/>
</g>
<!-- 41 -->
<g id="node42" class="node"><title>41</title>
<polygon fill="none" stroke="black" points="1075,-396 965,-396 965,-360 1075,-360 1075,-396"/>
<text text-anchor="middle" x="1020" y="-374.3" font-family="Times,serif" font-size="14.00">Policies.kullback</text>
</g>
<!-- 23&#45;&gt;41 -->
<g id="edge46" class="edge"><title>23&#45;&gt;41</title>
<path fill="none" stroke="black" d="M886.299,-324.124C910.711,-333.778 941.396,-345.913 967.21,-356.122"/>
<polygon fill="black" stroke="black" points="976.842,-359.932 965.887,-360.439 972.192,-358.093 967.542,-356.254 967.542,-356.254 967.542,-356.254 972.192,-358.093 969.197,-352.069 976.842,-359.932 976.842,-359.932"/>
</g>
<!-- 25&#45;&gt;34 -->
<g id="edge47" class="edge"><title>25&#45;&gt;34</title>
<path fill="none" stroke="black" d="M640.326,-252.303C647.759,-260.695 656.823,-270.93 664.98,-280.139"/>
<polygon fill="black" stroke="black" points="671.85,-287.896 661.851,-283.393 668.535,-284.153 665.22,-280.41 665.22,-280.41 665.22,-280.41 668.535,-284.153 668.589,-277.426 671.85,-287.896 671.85,-287.896"/>
</g>
<!-- 30&#45;&gt;18 -->
<g id="edge48" class="edge"><title>30&#45;&gt;18</title>
<path fill="none" stroke="black" d="M422.508,-252.124C403.56,-261.531 379.868,-273.292 359.644,-283.333"/>
<polygon fill="black" stroke="black" points="350.625,-287.81 357.581,-279.333 355.104,-285.587 359.582,-283.363 359.582,-283.363 359.582,-283.363 355.104,-285.587 361.583,-287.394 350.625,-287.81 350.625,-287.81"/>
</g>
<!-- 30&#45;&gt;22 -->
<g id="edge49" class="edge"><title>30&#45;&gt;22</title>
<path fill="none" stroke="black" d="M484.743,-252.129C526.187,-277.716 604.31,-325.948 650.39,-354.397"/>
<polygon fill="black" stroke="black" points="659.158,-359.811 648.285,-358.386 654.904,-357.184 650.649,-354.557 650.649,-354.557 650.649,-354.557 654.904,-357.184 653.013,-350.728 659.158,-359.811 659.158,-359.811"/>
</g>
<!-- 32 -->
<g id="node33" class="node"><title>32</title>
<polygon fill="none" stroke="black" points="808,-252 694,-252 694,-216 808,-216 808,-252"/>
<text text-anchor="middle" x="751" y="-230.3" font-family="Times,serif" font-size="14.00">Policies.UCBPlus</text>
</g>
<!-- 32&#45;&gt;34 -->
<g id="edge50" class="edge"><title>32&#45;&gt;34</title>
<path fill="none" stroke="black" d="M735.18,-252.303C727.43,-260.78 717.961,-271.136 709.476,-280.417"/>
<polygon fill="black" stroke="black" points="702.638,-287.896 706.065,-277.479 706.012,-284.206 709.386,-280.515 709.386,-280.515 709.386,-280.515 706.012,-284.206 712.707,-283.552 702.638,-287.896 702.638,-287.896"/>
</g>
<!-- 33&#45;&gt;34 -->
<g id="edge51" class="edge"><title>33&#45;&gt;34</title>
<path fill="none" stroke="black" d="M839.844,-252.034C811.497,-261.858 775.675,-274.271 745.837,-284.611"/>
<polygon fill="black" stroke="black" points="736.377,-287.889 744.352,-280.363 741.101,-286.252 745.826,-284.615 745.826,-284.615 745.826,-284.615 741.101,-286.252 747.299,-288.867 736.377,-287.889 736.377,-287.889"/>
</g>
<!-- 34&#45;&gt;22 -->
<g id="edge52" class="edge"><title>34&#45;&gt;22</title>
<path fill="none" stroke="black" d="M687,-324.303C687,-332.017 687,-341.288 687,-349.888"/>
<polygon fill="black" stroke="black" points="687,-359.896 682.5,-349.896 687,-354.896 687,-349.896 687,-349.896 687,-349.896 687,-354.896 691.5,-349.896 687,-359.896 687,-359.896"/>
</g>
<!-- 38&#45;&gt;22 -->
<g id="edge53" class="edge"><title>38&#45;&gt;22</title>
<path fill="none" stroke="black" d="M969.424,-317.631C913.986,-329.285 824.508,-348.094 761.14,-361.415"/>
<polygon fill="black" stroke="black" points="751.203,-363.504 760.063,-357.043 756.096,-362.475 760.989,-361.447 760.989,-361.447 760.989,-361.447 756.096,-362.475 761.915,-365.85 751.203,-363.504 751.203,-363.504"/>
</g>
<!-- 38&#45;&gt;41 -->
<g id="edge54" class="edge"><title>38&#45;&gt;41</title>
<path fill="none" stroke="black" d="M1020,-324.303C1020,-332.017 1020,-341.288 1020,-349.888"/>
<polygon fill="black" stroke="black" points="1020,-359.896 1015.5,-349.896 1020,-354.896 1020,-349.896 1020,-349.896 1020,-349.896 1020,-354.896 1024.5,-349.896 1020,-359.896 1020,-359.896"/>
</g>
<!-- 39&#45;&gt;38 -->
<g id="edge55" class="edge"><title>39&#45;&gt;38</title>
<path fill="none" stroke="black" d="M1170.57,-252.034C1142.77,-261.815 1107.66,-274.164 1078.35,-284.476"/>
<polygon fill="black" stroke="black" points="1068.64,-287.889 1076.58,-280.326 1073.36,-286.23 1078.08,-284.571 1078.08,-284.571 1078.08,-284.571 1073.36,-286.23 1079.57,-288.816 1068.64,-287.889 1068.64,-287.889"/>
</g>
<!-- 39&#45;&gt;41 -->
<g id="edge56" class="edge"><title>39&#45;&gt;41</title>
<path fill="none" stroke="black" d="M1195,-252.129C1159.36,-277.556 1092.39,-325.346 1052.43,-353.861"/>
<polygon fill="black" stroke="black" points="1044.09,-359.811 1049.62,-350.339 1048.16,-356.906 1052.23,-354.002 1052.23,-354.002 1052.23,-354.002 1048.16,-356.906 1054.84,-357.665 1044.09,-359.811 1044.09,-359.811"/>
</g>
<!-- 40&#45;&gt;38 -->
<g id="edge57" class="edge"><title>40&#45;&gt;38</title>
<path fill="none" stroke="black" d="M1058.39,-252.303C1052.4,-260.526 1045.12,-270.517 1038.52,-279.579"/>
<polygon fill="black" stroke="black" points="1032.46,-287.896 1034.71,-277.163 1035.41,-283.854 1038.35,-279.813 1038.35,-279.813 1038.35,-279.813 1035.41,-283.854 1041.99,-282.463 1032.46,-287.896 1032.46,-287.896"/>
</g>
<!-- 42 -->
<g id="node43" class="node"><title>42</title>
<polygon fill="none" stroke="black" points="4765,-180 4635,-180 4635,-144 4765,-144 4765,-180"/>
<text text-anchor="middle" x="4700" y="-158.3" font-family="Times,serif" font-size="14.00">PoliciesMultiPlayers</text>
</g>
<!-- 43 -->
<g id="node44" class="node"><title>43</title>
<polygon fill="none" stroke="black" points="4330,-252 4112,-252 4112,-216 4330,-216 4330,-252"/>
<text text-anchor="middle" x="4221" y="-230.3" font-family="Times,serif" font-size="14.00">PoliciesMultiPlayers.CentralizedFair</text>
</g>
<!-- 42&#45;&gt;43 -->
<g id="edge58" class="edge"><title>42&#45;&gt;43</title>
<path fill="none" stroke="black" d="M4634.9,-172.513C4559.38,-183.55 4433.33,-201.971 4340.13,-215.59"/>
<polygon fill="black" stroke="black" points="4330.08,-217.059 4339.32,-211.161 4335.03,-216.336 4339.97,-215.613 4339.97,-215.613 4339.97,-215.613 4335.03,-216.336 4340.62,-220.066 4330.08,-217.059 4330.08,-217.059"/>
</g>
<!-- 44 -->
<g id="node45" class="node"><title>44</title>
<polygon fill="none" stroke="black" points="4586,-252 4348,-252 4348,-216 4586,-216 4586,-252"/>
<text text-anchor="middle" x="4467" y="-230.3" font-family="Times,serif" font-size="14.00">PoliciesMultiPlayers.CentralizedNotFair</text>
</g>
<!-- 42&#45;&gt;44 -->
<g id="edge59" class="edge"><title>42&#45;&gt;44</title>
<path fill="none" stroke="black" d="M4643.3,-180.034C4610.32,-189.943 4568.57,-202.486 4533.97,-212.879"/>
<polygon fill="black" stroke="black" points="4523.95,-215.889 4532.24,-208.702 4528.74,-214.451 4533.53,-213.012 4533.53,-213.012 4533.53,-213.012 4528.74,-214.451 4534.83,-217.322 4523.95,-215.889 4523.95,-215.889"/>
</g>
<!-- 47 -->
<g id="node48" class="node"><title>47</title>
<polygon fill="none" stroke="black" points="4795.5,-252 4604.5,-252 4604.5,-216 4795.5,-216 4795.5,-252"/>
<text text-anchor="middle" x="4700" y="-230.3" font-family="Times,serif" font-size="14.00">PoliciesMultiPlayers.OracleFair</text>
</g>
<!-- 42&#45;&gt;47 -->
<g id="edge60" class="edge"><title>42&#45;&gt;47</title>
<path fill="none" stroke="black" d="M4700,-180.303C4700,-188.017 4700,-197.288 4700,-205.888"/>
<polygon fill="black" stroke="black" points="4700,-215.896 4695.5,-205.896 4700,-210.896 4700,-205.896 4700,-205.896 4700,-205.896 4700,-210.896 4704.5,-205.896 4700,-215.896 4700,-215.896"/>
</g>
<!-- 48 -->
<g id="node49" class="node"><title>48</title>
<polygon fill="none" stroke="black" points="5026,-252 4814,-252 4814,-216 5026,-216 5026,-252"/>
<text text-anchor="middle" x="4920" y="-230.3" font-family="Times,serif" font-size="14.00">PoliciesMultiPlayers.OracleNotFair</text>
</g>
<!-- 42&#45;&gt;48 -->
<g id="edge61" class="edge"><title>42&#45;&gt;48</title>
<path fill="none" stroke="black" d="M4753.54,-180.034C4784.54,-189.9 4823.76,-202.378 4856.34,-212.745"/>
<polygon fill="black" stroke="black" points="4866.22,-215.889 4855.33,-217.145 4861.46,-214.373 4856.69,-212.857 4856.69,-212.857 4856.69,-212.857 4861.46,-214.373 4858.06,-208.569 4866.22,-215.889 4866.22,-215.889"/>
</g>
<!-- 49 -->
<g id="node50" class="node"><title>49</title>
<polygon fill="none" stroke="black" points="5215.5,-252 5044.5,-252 5044.5,-216 5215.5,-216 5215.5,-252"/>
<text text-anchor="middle" x="5130" y="-230.3" font-family="Times,serif" font-size="14.00">PoliciesMultiPlayers.Selfish</text>
</g>
<!-- 42&#45;&gt;49 -->
<g id="edge62" class="edge"><title>42&#45;&gt;49</title>
<path fill="none" stroke="black" d="M4765.22,-172.921C4830.6,-182.956 4934.42,-199.134 5034.34,-215.906"/>
<polygon fill="black" stroke="black" points="5044.31,-217.584 5033.7,-220.362 5039.38,-216.754 5034.45,-215.924 5034.45,-215.924 5034.45,-215.924 5039.38,-216.754 5035.19,-211.487 5044.31,-217.584 5044.31,-217.584"/>
</g>
<!-- 51 -->
<g id="node52" class="node"><title>51</title>
<polygon fill="none" stroke="black" points="5414,-252 5234,-252 5234,-216 5414,-216 5414,-252"/>
<text text-anchor="middle" x="5324" y="-230.3" font-family="Times,serif" font-size="14.00">PoliciesMultiPlayers.rhoRand</text>
</g>
<!-- 42&#45;&gt;51 -->
<g id="edge63" class="edge"><title>42&#45;&gt;51</title>
<path fill="none" stroke="black" d="M4765.24,-168.12C4862.78,-176.1 5052.62,-192.881 5223.97,-215.912"/>
<polygon fill="black" stroke="black" points="5233.93,-217.261 5223.42,-220.378 5228.98,-216.59 5224.02,-215.919 5224.02,-215.919 5224.02,-215.919 5228.98,-216.59 5224.63,-211.46 5233.93,-217.261 5233.93,-217.261"/>
</g>
<!-- 45 -->
<g id="node46" class="node"><title>45</title>
<polygon fill="none" stroke="black" points="4911.5,-324 4708.5,-324 4708.5,-288 4911.5,-288 4911.5,-324"/>
<text text-anchor="middle" x="4810" y="-302.3" font-family="Times,serif" font-size="14.00">PoliciesMultiPlayers.ChildPointer</text>
</g>
<!-- 43&#45;&gt;45 -->
<g id="edge64" class="edge"><title>43&#45;&gt;45</title>
<path fill="none" stroke="black" d="M4330.27,-250.865C4333.21,-251.252 4336.13,-251.631 4339,-252 4461.78,-267.748 4602.89,-283.288 4698.4,-293.428"/>
<polygon fill="black" stroke="black" points="4708.37,-294.484 4697.95,-297.905 4703.39,-293.957 4698.42,-293.43 4698.42,-293.43 4698.42,-293.43 4703.39,-293.957 4698.9,-288.955 4708.37,-294.484 4708.37,-294.484"/>
</g>
<!-- 44&#45;&gt;45 -->
<g id="edge65" class="edge"><title>44&#45;&gt;45</title>
<path fill="none" stroke="black" d="M4550.47,-252.034C4600.67,-262.28 4664.69,-275.345 4716.58,-285.935"/>
<polygon fill="black" stroke="black" points="4726.45,-287.95 4715.76,-290.359 4721.56,-286.95 4716.66,-285.95 4716.66,-285.95 4716.66,-285.95 4721.56,-286.95 4717.56,-281.541 4726.45,-287.95 4726.45,-287.95"/>
</g>
<!-- 46 -->
<g id="node47" class="node"><title>46</title>
<polygon fill="none" stroke="black" points="3926.5,-36 3761.5,-36 3761.5,-0 3926.5,-0 3926.5,-36"/>
<text text-anchor="middle" x="3844" y="-14.3" font-family="Times,serif" font-size="14.00">PoliciesMultiPlayers.DMC</text>
</g>
<!-- 47&#45;&gt;45 -->
<g id="edge66" class="edge"><title>47&#45;&gt;45</title>
<path fill="none" stroke="black" d="M4726.91,-252.124C4741.16,-261.192 4758.85,-272.448 4774.24,-282.241"/>
<polygon fill="black" stroke="black" points="4782.99,-287.81 4772.13,-286.238 4778.77,-285.126 4774.55,-282.441 4774.55,-282.441 4774.55,-282.441 4778.77,-285.126 4776.97,-278.645 4782.99,-287.81 4782.99,-287.81"/>
</g>
<!-- 48&#45;&gt;45 -->
<g id="edge67" class="edge"><title>48&#45;&gt;45</title>
<path fill="none" stroke="black" d="M4893.09,-252.124C4878.84,-261.192 4861.15,-272.448 4845.76,-282.241"/>
<polygon fill="black" stroke="black" points="4837.01,-287.81 4843.03,-278.645 4841.23,-285.126 4845.45,-282.441 4845.45,-282.441 4845.45,-282.441 4841.23,-285.126 4847.87,-286.238 4837.01,-287.81 4837.01,-287.81"/>
</g>
<!-- 49&#45;&gt;45 -->
<g id="edge68" class="edge"><title>49&#45;&gt;45</title>
<path fill="none" stroke="black" d="M5052.13,-252.034C5005.48,-262.238 4946.06,-275.236 4897.76,-285.802"/>
<polygon fill="black" stroke="black" points="4887.94,-287.95 4896.75,-281.417 4892.83,-286.881 4897.71,-285.813 4897.71,-285.813 4897.71,-285.813 4892.83,-286.881 4898.67,-290.209 4887.94,-287.95 4887.94,-287.95"/>
</g>
<!-- 50 -->
<g id="node51" class="node"><title>50</title>
<polygon fill="none" stroke="black" points="4111.5,-36 3944.5,-36 3944.5,-0 4111.5,-0 4111.5,-36"/>
<text text-anchor="middle" x="4028" y="-14.3" font-family="Times,serif" font-size="14.00">PoliciesMultiPlayers.TDFS</text>
</g>
<!-- 51&#45;&gt;45 -->
<g id="edge69" class="edge"><title>51&#45;&gt;45</title>
<path fill="none" stroke="black" d="M5233.92,-250.638C5230.91,-251.106 5227.93,-251.561 5225,-252 5122.49,-267.339 5005.32,-282.046 4921.68,-292.059"/>
<polygon fill="black" stroke="black" points="4911.65,-293.256 4921.04,-287.602 4916.61,-292.663 4921.58,-292.071 4921.58,-292.071 4921.58,-292.071 4916.61,-292.663 4922.11,-296.539 4911.65,-293.256 4911.65,-293.256"/>
</g>
<!-- 52 -->
<g id="node53" class="node"><title>52</title>
<polygon fill="none" stroke="black" points="402.5,-108 313.5,-108 313.5,-72 402.5,-72 402.5,-108"/>
<text text-anchor="middle" x="358" y="-86.3" font-family="Times,serif" font-size="14.00">configuration</text>
</g>
<!-- 52&#45;&gt;2 -->
<g id="edge70" class="edge"><title>52&#45;&gt;2</title>
<path fill="none" stroke="black" d="M372.337,-108.303C379.291,-116.695 387.77,-126.93 395.401,-136.139"/>
<polygon fill="black" stroke="black" points="401.828,-143.896 391.983,-139.067 398.638,-140.046 395.448,-136.195 395.448,-136.195 395.448,-136.195 398.638,-140.046 398.913,-133.324 401.828,-143.896 401.828,-143.896"/>
</g>
<!-- 52&#45;&gt;3 -->
<g id="edge71" class="edge"><title>52&#45;&gt;3</title>
<path fill="none" stroke="black" d="M313.255,-100.832C268.4,-110.766 197.106,-126.763 126.098,-143.764"/>
<polygon fill="black" stroke="black" points="116.083,-146.169 124.756,-139.458 120.945,-145.001 125.806,-143.834 125.806,-143.834 125.806,-143.834 120.945,-145.001 126.857,-148.209 116.083,-146.169 116.083,-146.169"/>
</g>
<!-- 52&#45;&gt;4 -->
<g id="edge72" class="edge"><title>52&#45;&gt;4</title>
<path fill="none" stroke="black" d="M315.679,-108.124C291.819,-117.778 261.828,-129.913 236.597,-140.122"/>
<polygon fill="black" stroke="black" points="227.183,-143.932 234.765,-136.009 231.818,-142.056 236.453,-140.181 236.453,-140.181 236.453,-140.181 231.818,-142.056 238.141,-144.352 227.183,-143.932 227.183,-143.932"/>
</g>
<!-- 52&#45;&gt;5 -->
<g id="edge73" class="edge"><title>52&#45;&gt;5</title>
<path fill="none" stroke="black" d="M343.663,-108.303C336.709,-116.695 328.23,-126.93 320.599,-136.139"/>
<polygon fill="black" stroke="black" points="314.172,-143.896 317.087,-133.324 317.362,-140.046 320.552,-136.195 320.552,-136.195 320.552,-136.195 317.362,-140.046 324.017,-139.067 314.172,-143.896 314.172,-143.896"/>
</g>
<!-- 52&#45;&gt;14 -->
<g id="edge74" class="edge"><title>52&#45;&gt;14</title>
<path fill="none" stroke="black" d="M402.54,-93.5535C595.338,-104.607 1356.46,-148.242 1539.34,-158.726"/>
<polygon fill="black" stroke="black" points="1549.32,-159.299 1539.08,-163.219 1544.33,-159.012 1539.34,-158.726 1539.34,-158.726 1539.34,-158.726 1544.33,-159.012 1539.6,-154.234 1549.32,-159.299 1549.32,-159.299"/>
</g>
<!-- 53 -->
<g id="node54" class="node"><title>53</title>
<polygon fill="none" stroke="black" points="3460,-108 3296,-108 3296,-72 3460,-72 3460,-108"/>
<text text-anchor="middle" x="3378" y="-86.3" font-family="Times,serif" font-size="14.00">configuration_multiplayers</text>
</g>
<!-- 53&#45;&gt;2 -->
<g id="edge75" class="edge"><title>53&#45;&gt;2</title>
<path fill="none" stroke="black" d="M3295.69,-92.9453C2862.7,-103.178 854.455,-150.638 477.184,-159.554"/>
<polygon fill="black" stroke="black" points="467.017,-159.794 476.908,-155.059 472.016,-159.676 477.015,-159.558 477.015,-159.558 477.015,-159.558 472.016,-159.676 477.121,-164.057 467.017,-159.794 467.017,-159.794"/>
</g>
<!-- 53&#45;&gt;7 -->
<g id="edge76" class="edge"><title>53&#45;&gt;7</title>
<path fill="none" stroke="black" d="M3372.21,-108.129C3363.99,-132.436 3348.87,-177.181 3339.13,-205.987"/>
<polygon fill="black" stroke="black" points="3335.81,-215.811 3334.75,-204.896 3337.41,-211.074 3339.01,-206.337 3339.01,-206.337 3339.01,-206.337 3337.41,-211.074 3343.28,-207.778 3335.81,-215.811 3335.81,-215.811"/>
</g>
<!-- 53&#45;&gt;10 -->
<g id="edge77" class="edge"><title>53&#45;&gt;10</title>
<path fill="none" stroke="black" d="M3389.3,-108.107C3403.8,-128.619 3430.97,-162.425 3463,-180 3532.54,-218.153 3562.16,-199.928 3644.43,-216.028"/>
<polygon fill="black" stroke="black" points="3654.46,-218.107 3643.76,-220.482 3649.56,-217.092 3644.67,-216.076 3644.67,-216.076 3644.67,-216.076 3649.56,-217.092 3645.58,-211.67 3654.46,-218.107 3654.46,-218.107"/>
</g>
<!-- 53&#45;&gt;14 -->
<g id="edge78" class="edge"><title>53&#45;&gt;14</title>
<path fill="none" stroke="black" d="M3295.73,-94.2012C2979.15,-106.519 1845.94,-150.613 1618.8,-159.451"/>
<polygon fill="black" stroke="black" points="1608.68,-159.845 1618.5,-154.96 1613.68,-159.651 1618.67,-159.456 1618.67,-159.456 1618.67,-159.456 1613.68,-159.651 1618.85,-163.953 1608.68,-159.845 1608.68,-159.845"/>
</g>
<!-- 53&#45;&gt;42 -->
<g id="edge79" class="edge"><title>53&#45;&gt;42</title>
<path fill="none" stroke="black" d="M3460.3,-96.0952C3517.22,-99.5733 3594.7,-104.218 3663,-108 4023.06,-127.939 4453.6,-149.079 4624.62,-157.368"/>
<polygon fill="black" stroke="black" points="4634.77,-157.86 4624.57,-161.87 4629.78,-157.618 4624.79,-157.376 4624.79,-157.376 4624.79,-157.376 4629.78,-157.618 4625,-152.881 4634.77,-157.86 4634.77,-157.86"/>
</g>
<!-- 54 -->
<g id="node55" class="node"><title>54</title>
<polygon fill="none" stroke="black" points="3743,-36 3689,-36 3689,-0 3743,-0 3743,-36"/>
<text text-anchor="middle" x="3716" y="-14.3" font-family="Times,serif" font-size="14.00">main</text>
</g>
<!-- 54&#45;&gt;6 -->
<g id="edge80" class="edge"><title>54&#45;&gt;6</title>
<path fill="none" stroke="black" d="M3716,-36.3034C3716,-44.0173 3716,-53.2875 3716,-61.8876"/>
<polygon fill="black" stroke="black" points="3716,-71.8957 3711.5,-61.8956 3716,-66.8957 3716,-61.8957 3716,-61.8957 3716,-61.8957 3716,-66.8957 3720.5,-61.8957 3716,-71.8957 3716,-71.8957"/>
</g>
<!-- 54&#45;&gt;8 -->
<g id="edge81" class="edge"><title>54&#45;&gt;8</title>
<path fill="none" stroke="black" d="M3735.85,-36.1491C3746.48,-45.9679 3759.34,-58.9109 3769,-72 3783.42,-91.5469 3796.04,-116.109 3804.56,-134.476"/>
<polygon fill="black" stroke="black" points="3808.74,-143.713 3800.52,-136.46 3806.68,-139.158 3804.62,-134.604 3804.62,-134.604 3804.62,-134.604 3806.68,-139.158 3808.72,-132.747 3808.74,-143.713 3808.74,-143.713"/>
</g>
<!-- 54&#45;&gt;52 -->
<g id="edge82" class="edge"><title>54&#45;&gt;52</title>
<path fill="none" stroke="black" d="M3688.81,-27.3117C3676.48,-30.688 3661.63,-34.21 3648,-36 3314.92,-79.7298 816.219,-87.8445 412.895,-88.8735"/>
<polygon fill="black" stroke="black" points="402.663,-88.8992 412.652,-84.374 407.663,-88.8866 412.663,-88.874 412.663,-88.874 412.663,-88.874 407.663,-88.8866 412.674,-93.374 402.663,-88.8992 402.663,-88.8992"/>
</g>
<!-- 55 -->
<g id="node56" class="node"><title>55</title>
<polygon fill="none" stroke="black" points="3639.5,-36 3520.5,-36 3520.5,-0 3639.5,-0 3639.5,-36"/>
<text text-anchor="middle" x="3580" y="-14.3" font-family="Times,serif" font-size="14.00">main_multiplayers</text>
</g>
<!-- 55&#45;&gt;6 -->
<g id="edge83" class="edge"><title>55&#45;&gt;6</title>
<path fill="none" stroke="black" d="M3613.27,-36.1239C3631.46,-45.4883 3654.19,-57.1864 3673.64,-67.197"/>
<polygon fill="black" stroke="black" points="3682.6,-71.8102 3671.65,-71.2349 3678.16,-69.522 3673.71,-67.2338 3673.71,-67.2338 3673.71,-67.2338 3678.16,-69.522 3675.77,-63.2326 3682.6,-71.8102 3682.6,-71.8102"/>
</g>
<!-- 55&#45;&gt;9 -->
<g id="edge84" class="edge"><title>55&#45;&gt;9</title>
<path fill="none" stroke="black" d="M3580,-36.1285C3580,-60.3298 3580,-104.789 3580,-133.607"/>
<polygon fill="black" stroke="black" points="3580,-143.811 3575.5,-133.811 3580,-138.811 3580,-133.811 3580,-133.811 3580,-133.811 3580,-138.811 3584.5,-133.811 3580,-143.811 3580,-143.811"/>
</g>
<!-- 55&#45;&gt;53 -->
<g id="edge85" class="edge"><title>55&#45;&gt;53</title>
<path fill="none" stroke="black" d="M3530.84,-36.0344C3502.5,-45.8575 3466.68,-58.2709 3436.84,-68.6109"/>
<polygon fill="black" stroke="black" points="3427.38,-71.8892 3435.35,-64.3629 3432.1,-70.252 3436.83,-68.6148 3436.83,-68.6148 3436.83,-68.6148 3432.1,-70.252 3438.3,-72.8667 3427.38,-71.8892 3427.38,-71.8892"/>
</g>
</g>
</svg>
