<?xml version="1.0" encoding="UTF-8" standalone="no"?>
<!DOCTYPE svg PUBLIC "-//W3C//DTD SVG 1.1//EN"
 "http://www.w3.org/Graphics/SVG/1.1/DTD/svg11.dtd">
<!-- Generated by graphviz version 2.38.0 (20140413.2041)
 -->
<!-- Title: packages_AlgoBandits Pages: 1 -->
<svg width="4845pt" height="332pt"
 viewBox="0.00 0.00 4844.50 332.00" xmlns="http://www.w3.org/2000/svg" xmlns:xlink="http://www.w3.org/1999/xlink">
<g id="graph0" class="graph" transform="scale(1 1) rotate(0) translate(4 328)">
<title>packages_AlgoBandits</title>
<polygon fill="white" stroke="none" points="-4,4 -4,-328 4840.5,-328 4840.5,4 -4,4"/>
<!-- 0 -->
<g id="node1" class="node"><title>0</title>
<polygon fill="none" stroke="black" points="253,-108 199,-108 199,-72 253,-72 253,-108"/>
<text text-anchor="middle" x="226" y="-86.3" font-family="Times,serif" font-size="14.00">Arms</text>
</g>
<!-- 2 -->
<g id="node3" class="node"><title>2</title>
<polygon fill="none" stroke="black" points="466,-180 364,-180 364,-144 466,-144 466,-180"/>
<text text-anchor="middle" x="415" y="-158.3" font-family="Times,serif" font-size="14.00">Arms.Bernoulli</text>
</g>
<!-- 0&#45;&gt;2 -->
<g id="edge1" class="edge"><title>0&#45;&gt;2</title>
<path fill="none" stroke="black" d="M253.079,-101.029C280.696,-111.258 324.341,-127.423 359.363,-140.394"/>
<polygon fill="black" stroke="black" points="368.992,-143.96 358.052,-144.707 364.303,-142.223 359.614,-140.487 359.614,-140.487 359.614,-140.487 364.303,-142.223 361.177,-136.267 368.992,-143.96 368.992,-143.96"/>
</g>
<!-- 3 -->
<g id="node4" class="node"><title>3</title>
<polygon fill="none" stroke="black" points="116,-180 7.10543e-15,-180 7.10543e-15,-144 116,-144 116,-180"/>
<text text-anchor="middle" x="58" y="-158.3" font-family="Times,serif" font-size="14.00">Arms.Exponential</text>
</g>
<!-- 0&#45;&gt;3 -->
<g id="edge2" class="edge"><title>0&#45;&gt;3</title>
<path fill="none" stroke="black" d="M198.634,-102.403C174.22,-112.575 137.858,-127.726 108.224,-140.073"/>
<polygon fill="black" stroke="black" points="98.8633,-143.974 106.363,-135.974 103.479,-142.051 108.094,-140.127 108.094,-140.127 108.094,-140.127 103.479,-142.051 109.825,-144.281 98.8633,-143.974 98.8633,-143.974"/>
</g>
<!-- 4 -->
<g id="node5" class="node"><title>4</title>
<polygon fill="none" stroke="black" points="235.5,-180 134.5,-180 134.5,-144 235.5,-144 235.5,-180"/>
<text text-anchor="middle" x="185" y="-158.3" font-family="Times,serif" font-size="14.00">Arms.Gaussian</text>
</g>
<!-- 0&#45;&gt;4 -->
<g id="edge3" class="edge"><title>0&#45;&gt;4</title>
<path fill="none" stroke="black" d="M215.865,-108.303C211.148,-116.356 205.438,-126.106 200.218,-135.018"/>
<polygon fill="black" stroke="black" points="195.018,-143.896 196.189,-132.992 197.545,-139.581 200.072,-135.267 200.072,-135.267 200.072,-135.267 197.545,-139.581 203.955,-137.541 195.018,-143.896 195.018,-143.896"/>
</g>
<!-- 5 -->
<g id="node6" class="node"><title>5</title>
<polygon fill="none" stroke="black" points="346.5,-180 253.5,-180 253.5,-144 346.5,-144 346.5,-180"/>
<text text-anchor="middle" x="300" y="-158.3" font-family="Times,serif" font-size="14.00">Arms.Poisson</text>
</g>
<!-- 0&#45;&gt;5 -->
<g id="edge4" class="edge"><title>0&#45;&gt;5</title>
<path fill="none" stroke="black" d="M244.292,-108.303C253.433,-116.95 264.64,-127.551 274.6,-136.973"/>
<polygon fill="black" stroke="black" points="281.918,-143.896 271.561,-140.293 278.286,-140.46 274.654,-137.024 274.654,-137.024 274.654,-137.024 278.286,-140.46 277.746,-133.755 281.918,-143.896 281.918,-143.896"/>
</g>
<!-- 1 -->
<g id="node2" class="node"><title>1</title>
<polygon fill="none" stroke="black" points="96.5,-252 19.5,-252 19.5,-216 96.5,-216 96.5,-252"/>
<text text-anchor="middle" x="58" y="-230.3" font-family="Times,serif" font-size="14.00">Arms.Arm</text>
</g>
<!-- 2&#45;&gt;1 -->
<g id="edge5" class="edge"><title>2&#45;&gt;1</title>
<path fill="none" stroke="black" d="M363.725,-178.013C360.783,-178.723 357.859,-179.392 355,-180 248.308,-202.691 215.739,-189.563 106.303,-215.946"/>
<polygon fill="black" stroke="black" points="96.5347,-218.356 105.166,-211.592 101.389,-217.158 106.244,-215.961 106.244,-215.961 106.244,-215.961 101.389,-217.158 107.321,-220.33 96.5347,-218.356 96.5347,-218.356"/>
</g>
<!-- 3&#45;&gt;1 -->
<g id="edge6" class="edge"><title>3&#45;&gt;1</title>
<path fill="none" stroke="black" d="M58,-180.303C58,-188.017 58,-197.288 58,-205.888"/>
<polygon fill="black" stroke="black" points="58,-215.896 53.5001,-205.896 58,-210.896 58.0001,-205.896 58.0001,-205.896 58.0001,-205.896 58,-210.896 62.5001,-205.896 58,-215.896 58,-215.896"/>
</g>
<!-- 4&#45;&gt;1 -->
<g id="edge7" class="edge"><title>4&#45;&gt;1</title>
<path fill="none" stroke="black" d="M153.932,-180.124C137.173,-189.361 116.294,-200.869 98.2982,-210.788"/>
<polygon fill="black" stroke="black" points="89.1871,-215.81 95.7727,-207.042 93.566,-213.397 97.9449,-210.983 97.9449,-210.983 97.9449,-210.983 93.566,-213.397 100.117,-214.924 89.1871,-215.81 89.1871,-215.81"/>
</g>
<!-- 5&#45;&gt;1 -->
<g id="edge8" class="edge"><title>5&#45;&gt;1</title>
<path fill="none" stroke="black" d="M253.291,-177.337C250.151,-178.252 247.032,-179.148 244,-180 185.566,-196.429 167.69,-197.099 106.422,-215.693"/>
<polygon fill="black" stroke="black" points="96.6316,-218.702 104.868,-211.462 101.411,-217.233 106.19,-215.764 106.19,-215.764 106.19,-215.764 101.411,-217.233 107.513,-220.065 96.6316,-218.702 96.6316,-218.702"/>
</g>
<!-- 6 -->
<g id="node7" class="node"><title>6</title>
<polygon fill="none" stroke="black" points="3381,-108 3293,-108 3293,-72 3381,-72 3381,-108"/>
<text text-anchor="middle" x="3337" y="-86.3" font-family="Times,serif" font-size="14.00">Environment</text>
</g>
<!-- 8 -->
<g id="node9" class="node"><title>8</title>
<polygon fill="none" stroke="black" points="3509,-180 3365,-180 3365,-144 3509,-144 3509,-180"/>
<text text-anchor="middle" x="3437" y="-158.3" font-family="Times,serif" font-size="14.00">Environment.Evaluator</text>
</g>
<!-- 6&#45;&gt;8 -->
<g id="edge9" class="edge"><title>6&#45;&gt;8</title>
<path fill="none" stroke="black" d="M3361.46,-108.124C3374.3,-117.107 3390.2,-128.237 3404.09,-137.966"/>
<polygon fill="black" stroke="black" points="3412.44,-143.81 3401.67,-141.762 3408.35,-140.943 3404.25,-138.076 3404.25,-138.076 3404.25,-138.076 3408.35,-140.943 3406.83,-134.389 3412.44,-143.81 3412.44,-143.81"/>
</g>
<!-- 9 -->
<g id="node10" class="node"><title>9</title>
<polygon fill="none" stroke="black" points="3308.5,-180 3093.5,-180 3093.5,-144 3308.5,-144 3308.5,-180"/>
<text text-anchor="middle" x="3201" y="-158.3" font-family="Times,serif" font-size="14.00">Environment.EvaluatorMultiPlayers</text>
</g>
<!-- 6&#45;&gt;9 -->
<g id="edge10" class="edge"><title>6&#45;&gt;9</title>
<path fill="none" stroke="black" d="M3303.73,-108.124C3285.54,-117.488 3262.81,-129.186 3243.36,-139.197"/>
<polygon fill="black" stroke="black" points="3234.4,-143.81 3241.23,-135.233 3238.84,-141.522 3243.29,-139.234 3243.29,-139.234 3243.29,-139.234 3238.84,-141.522 3245.35,-143.235 3234.4,-143.81 3234.4,-143.81"/>
</g>
<!-- 10 -->
<g id="node11" class="node"><title>10</title>
<polygon fill="none" stroke="black" points="3398.5,-252 3275.5,-252 3275.5,-216 3398.5,-216 3398.5,-252"/>
<text text-anchor="middle" x="3337" y="-230.3" font-family="Times,serif" font-size="14.00">Environment.MAB</text>
</g>
<!-- 6&#45;&gt;10 -->
<g id="edge11" class="edge"><title>6&#45;&gt;10</title>
<path fill="none" stroke="black" d="M3337,-108.129C3337,-132.33 3337,-176.789 3337,-205.607"/>
<polygon fill="black" stroke="black" points="3337,-215.811 3332.5,-205.811 3337,-210.811 3337,-205.811 3337,-205.811 3337,-205.811 3337,-210.811 3341.5,-205.811 3337,-215.811 3337,-215.811"/>
</g>
<!-- 11 -->
<g id="node12" class="node"><title>11</title>
<polygon fill="none" stroke="black" points="3715,-252 3589,-252 3589,-216 3715,-216 3715,-252"/>
<text text-anchor="middle" x="3652" y="-230.3" font-family="Times,serif" font-size="14.00">Environment.Result</text>
</g>
<!-- 6&#45;&gt;11 -->
<g id="edge12" class="edge"><title>6&#45;&gt;11</title>
<path fill="none" stroke="black" d="M3381.12,-99.9912C3418.62,-108.545 3473.32,-123.208 3518,-144 3556.38,-161.863 3596.3,-189.779 3622.47,-209.578"/>
<polygon fill="black" stroke="black" points="3630.46,-215.698 3619.79,-213.193 3626.49,-212.659 3622.52,-209.619 3622.52,-209.619 3622.52,-209.619 3626.49,-212.659 3625.26,-206.046 3630.46,-215.698 3630.46,-215.698"/>
</g>
<!-- 7 -->
<g id="node8" class="node"><title>7</title>
<polygon fill="none" stroke="black" points="3042,-252 2860,-252 2860,-216 3042,-216 3042,-252"/>
<text text-anchor="middle" x="2951" y="-230.3" font-family="Times,serif" font-size="14.00">Environment.CollisionModels</text>
</g>
<!-- 8&#45;&gt;10 -->
<g id="edge13" class="edge"><title>8&#45;&gt;10</title>
<path fill="none" stroke="black" d="M3412.54,-180.124C3399.7,-189.107 3383.8,-200.237 3369.91,-209.966"/>
<polygon fill="black" stroke="black" points="3361.56,-215.81 3367.17,-206.389 3365.65,-212.943 3369.75,-210.076 3369.75,-210.076 3369.75,-210.076 3365.65,-212.943 3372.33,-213.762 3361.56,-215.81 3361.56,-215.81"/>
</g>
<!-- 8&#45;&gt;11 -->
<g id="edge14" class="edge"><title>8&#45;&gt;11</title>
<path fill="none" stroke="black" d="M3489.32,-180.034C3519.62,-189.9 3557.95,-202.378 3589.79,-212.745"/>
<polygon fill="black" stroke="black" points="3599.45,-215.889 3588.54,-217.072 3594.69,-214.341 3589.94,-212.793 3589.94,-212.793 3589.94,-212.793 3594.69,-214.341 3591.33,-208.514 3599.45,-215.889 3599.45,-215.889"/>
</g>
<!-- 13 -->
<g id="node14" class="node"><title>13</title>
<polygon fill="none" stroke="black" points="3571,-252 3417,-252 3417,-216 3571,-216 3571,-252"/>
<text text-anchor="middle" x="3494" y="-230.3" font-family="Times,serif" font-size="14.00">Environment.plotsettings</text>
</g>
<!-- 8&#45;&gt;13 -->
<g id="edge15" class="edge"><title>8&#45;&gt;13</title>
<path fill="none" stroke="black" d="M3451.09,-180.303C3457.92,-188.695 3466.26,-198.93 3473.76,-208.139"/>
<polygon fill="black" stroke="black" points="3480.07,-215.896 3470.27,-210.983 3476.92,-212.018 3473.76,-208.141 3473.76,-208.141 3473.76,-208.141 3476.92,-212.018 3477.25,-205.3 3480.07,-215.896 3480.07,-215.896"/>
</g>
<!-- 9&#45;&gt;7 -->
<g id="edge16" class="edge"><title>9&#45;&gt;7</title>
<path fill="none" stroke="black" d="M3140.16,-180.034C3104.47,-190.028 3059.21,-202.702 3021.91,-213.146"/>
<polygon fill="black" stroke="black" points="3012.11,-215.889 3020.53,-208.859 3016.92,-214.541 3021.74,-213.193 3021.74,-213.193 3021.74,-213.193 3016.92,-214.541 3022.95,-217.526 3012.11,-215.889 3012.11,-215.889"/>
</g>
<!-- 9&#45;&gt;10 -->
<g id="edge17" class="edge"><title>9&#45;&gt;10</title>
<path fill="none" stroke="black" d="M3234.27,-180.124C3252.46,-189.488 3275.19,-201.186 3294.64,-211.197"/>
<polygon fill="black" stroke="black" points="3303.6,-215.81 3292.65,-215.235 3299.16,-213.522 3294.71,-211.234 3294.71,-211.234 3294.71,-211.234 3299.16,-213.522 3296.77,-207.233 3303.6,-215.81 3303.6,-215.81"/>
</g>
<!-- 12 -->
<g id="node13" class="node"><title>12</title>
<polygon fill="none" stroke="black" points="3257.5,-252 3060.5,-252 3060.5,-216 3257.5,-216 3257.5,-252"/>
<text text-anchor="middle" x="3159" y="-230.3" font-family="Times,serif" font-size="14.00">Environment.ResultMultiPlayers</text>
</g>
<!-- 9&#45;&gt;12 -->
<g id="edge18" class="edge"><title>9&#45;&gt;12</title>
<path fill="none" stroke="black" d="M3190.62,-180.303C3185.74,-188.441 3179.81,-198.311 3174.42,-207.299"/>
<polygon fill="black" stroke="black" points="3169.26,-215.896 3170.55,-205.005 3171.84,-211.608 3174.41,-207.321 3174.41,-207.321 3174.41,-207.321 3171.84,-211.608 3178.27,-209.636 3169.26,-215.896 3169.26,-215.896"/>
</g>
<!-- 9&#45;&gt;13 -->
<g id="edge19" class="edge"><title>9&#45;&gt;13</title>
<path fill="none" stroke="black" d="M3272.3,-180.034C3314.74,-190.174 3368.74,-203.073 3412.81,-213.604"/>
<polygon fill="black" stroke="black" points="3422.63,-215.95 3411.86,-218.003 3417.77,-214.788 3412.91,-213.626 3412.91,-213.626 3412.91,-213.626 3417.77,-214.788 3413.95,-209.249 3422.63,-215.95 3422.63,-215.95"/>
</g>
<!-- 14 -->
<g id="node15" class="node"><title>14</title>
<polygon fill="none" stroke="black" points="1537.5,-180 1478.5,-180 1478.5,-144 1537.5,-144 1537.5,-180"/>
<text text-anchor="middle" x="1508" y="-158.3" font-family="Times,serif" font-size="14.00">Policies</text>
</g>
<!-- 15 -->
<g id="node16" class="node"><title>15</title>
<polygon fill="none" stroke="black" points="235.5,-252 114.5,-252 114.5,-216 235.5,-216 235.5,-252"/>
<text text-anchor="middle" x="175" y="-230.3" font-family="Times,serif" font-size="14.00">Policies.AdBandits</text>
</g>
<!-- 14&#45;&gt;15 -->
<g id="edge20" class="edge"><title>14&#45;&gt;15</title>
<path fill="none" stroke="black" d="M1478.49,-163.451C1314.68,-166.075 515.169,-180.445 245.695,-216.134"/>
<polygon fill="black" stroke="black" points="235.565,-217.521 244.862,-211.706 240.519,-216.843 245.473,-216.164 245.473,-216.164 245.473,-216.164 240.519,-216.843 246.084,-220.623 235.565,-217.521 235.565,-217.521"/>
</g>
<!-- 16 -->
<g id="node17" class="node"><title>16</title>
<polygon fill="none" stroke="black" points="1016.5,-252 925.5,-252 925.5,-216 1016.5,-216 1016.5,-252"/>
<text text-anchor="middle" x="971" y="-230.3" font-family="Times,serif" font-size="14.00">Policies.Aggr</text>
</g>
<!-- 14&#45;&gt;16 -->
<g id="edge21" class="edge"><title>14&#45;&gt;16</title>
<path fill="none" stroke="black" d="M1478.28,-164.238C1403.57,-167.776 1201.91,-179.97 1026.7,-215.852"/>
<polygon fill="black" stroke="black" points="1016.79,-217.912 1025.67,-211.47 1021.69,-216.894 1026.59,-215.876 1026.59,-215.876 1026.59,-215.876 1021.69,-216.894 1027.5,-220.282 1016.79,-217.912 1016.79,-217.912"/>
</g>
<!-- 17 -->
<g id="node18" class="node"><title>17</title>
<polygon fill="none" stroke="black" points="378,-252 254,-252 254,-216 378,-216 378,-252"/>
<text text-anchor="middle" x="316" y="-230.3" font-family="Times,serif" font-size="14.00">Policies.BayesUCB</text>
</g>
<!-- 14&#45;&gt;17 -->
<g id="edge22" class="edge"><title>14&#45;&gt;17</title>
<path fill="none" stroke="black" d="M1478.34,-163.648C1325.7,-167.095 626.969,-184.278 388.211,-216.029"/>
<polygon fill="black" stroke="black" points="378.211,-217.406 387.504,-211.584 383.164,-216.724 388.117,-216.042 388.117,-216.042 388.117,-216.042 383.164,-216.724 388.731,-220.5 378.211,-217.406 378.211,-217.406"/>
</g>
<!-- 19 -->
<g id="node20" class="node"><title>19</title>
<polygon fill="none" stroke="black" points="1199.5,-252 1034.5,-252 1034.5,-216 1199.5,-216 1199.5,-252"/>
<text text-anchor="middle" x="1117" y="-230.3" font-family="Times,serif" font-size="14.00">Policies.EpsilonDecreasing</text>
</g>
<!-- 14&#45;&gt;19 -->
<g id="edge23" class="edge"><title>14&#45;&gt;19</title>
<path fill="none" stroke="black" d="M1478.18,-168.169C1425.92,-177.248 1314.14,-196.762 1209.88,-215.665"/>
<polygon fill="black" stroke="black" points="1199.82,-217.492 1208.86,-211.278 1204.74,-216.599 1209.66,-215.706 1209.66,-215.706 1209.66,-215.706 1204.74,-216.599 1210.46,-220.134 1199.82,-217.492 1199.82,-217.492"/>
</g>
<!-- 20 -->
<g id="node21" class="node"><title>20</title>
<polygon fill="none" stroke="black" points="1346.5,-252 1217.5,-252 1217.5,-216 1346.5,-216 1346.5,-252"/>
<text text-anchor="middle" x="1282" y="-230.3" font-family="Times,serif" font-size="14.00">Policies.EpsilonFirst</text>
</g>
<!-- 14&#45;&gt;20 -->
<g id="edge24" class="edge"><title>14&#45;&gt;20</title>
<path fill="none" stroke="black" d="M1478.45,-172.151C1445.19,-182.453 1390.14,-199.505 1346.76,-212.94"/>
<polygon fill="black" stroke="black" points="1337.14,-215.922 1345.36,-208.665 1341.91,-214.443 1346.69,-212.964 1346.69,-212.964 1346.69,-212.964 1341.91,-214.443 1348.02,-217.262 1337.14,-215.922 1337.14,-215.922"/>
</g>
<!-- 21 -->
<g id="node22" class="node"><title>21</title>
<polygon fill="none" stroke="black" points="1509,-252 1365,-252 1365,-216 1509,-216 1509,-252"/>
<text text-anchor="middle" x="1437" y="-230.3" font-family="Times,serif" font-size="14.00">Policies.EpsilonGreedy</text>
</g>
<!-- 14&#45;&gt;21 -->
<g id="edge25" class="edge"><title>14&#45;&gt;21</title>
<path fill="none" stroke="black" d="M1490.45,-180.303C1481.77,-188.865 1471.14,-199.344 1461.65,-208.696"/>
<polygon fill="black" stroke="black" points="1454.35,-215.896 1458.31,-205.67 1457.91,-212.385 1461.47,-208.875 1461.47,-208.875 1461.47,-208.875 1457.91,-212.385 1464.63,-212.079 1454.35,-215.896 1454.35,-215.896"/>
</g>
<!-- 24 -->
<g id="node25" class="node"><title>24</title>
<polygon fill="none" stroke="black" points="1631,-252 1527,-252 1527,-216 1631,-216 1631,-252"/>
<text text-anchor="middle" x="1579" y="-230.3" font-family="Times,serif" font-size="14.00">Policies.MEGA</text>
</g>
<!-- 14&#45;&gt;24 -->
<g id="edge26" class="edge"><title>14&#45;&gt;24</title>
<path fill="none" stroke="black" d="M1525.55,-180.303C1534.23,-188.865 1544.86,-199.344 1554.35,-208.696"/>
<polygon fill="black" stroke="black" points="1561.65,-215.896 1551.37,-212.079 1558.09,-212.385 1554.53,-208.875 1554.53,-208.875 1554.53,-208.875 1558.09,-212.385 1557.69,-205.67 1561.65,-215.896 1561.65,-215.896"/>
</g>
<!-- 25 -->
<g id="node26" class="node"><title>25</title>
<polygon fill="none" stroke="black" points="1786.5,-252 1649.5,-252 1649.5,-216 1786.5,-216 1786.5,-252"/>
<text text-anchor="middle" x="1718" y="-230.3" font-family="Times,serif" font-size="14.00">Policies.MusicalChair</text>
</g>
<!-- 14&#45;&gt;25 -->
<g id="edge27" class="edge"><title>14&#45;&gt;25</title>
<path fill="none" stroke="black" d="M1537.64,-172.881C1568.49,-183.165 1617.69,-199.563 1656.91,-212.638"/>
<polygon fill="black" stroke="black" points="1666.65,-215.884 1655.74,-216.991 1661.91,-214.303 1657.17,-212.722 1657.17,-212.722 1657.17,-212.722 1661.91,-214.303 1658.59,-208.453 1666.65,-215.884 1666.65,-215.884"/>
</g>
<!-- 26 -->
<g id="node27" class="node"><title>26</title>
<polygon fill="none" stroke="black" points="1915,-252 1805,-252 1805,-216 1915,-216 1915,-252"/>
<text text-anchor="middle" x="1860" y="-230.3" font-family="Times,serif" font-size="14.00">Policies.Softmax</text>
</g>
<!-- 14&#45;&gt;26 -->
<g id="edge28" class="edge"><title>14&#45;&gt;26</title>
<path fill="none" stroke="black" d="M1537.89,-167.779C1590.23,-176.312 1701.77,-195.23 1795,-216 1795.1,-216.022 1795.2,-216.044 1795.3,-216.067"/>
<polygon fill="black" stroke="black" points="1804.75,-218.256 1793.99,-220.383 1799.88,-217.127 1795.01,-215.999 1795.01,-215.999 1795.01,-215.999 1799.88,-217.127 1796.02,-211.615 1804.75,-218.256 1804.75,-218.256"/>
</g>
<!-- 27 -->
<g id="node28" class="node"><title>27</title>
<polygon fill="none" stroke="black" points="2079,-252 1933,-252 1933,-216 2079,-216 2079,-252"/>
<text text-anchor="middle" x="2006" y="-230.3" font-family="Times,serif" font-size="14.00">Policies.TakeFixedArm</text>
</g>
<!-- 14&#45;&gt;27 -->
<g id="edge29" class="edge"><title>14&#45;&gt;27</title>
<path fill="none" stroke="black" d="M1537.62,-165.974C1604.49,-172.859 1772.42,-191.104 1922.85,-215.876"/>
<polygon fill="black" stroke="black" points="1932.74,-217.517 1922.13,-220.318 1927.8,-216.698 1922.87,-215.879 1922.87,-215.879 1922.87,-215.879 1927.8,-216.698 1923.61,-211.439 1932.74,-217.517 1932.74,-217.517"/>
</g>
<!-- 28 -->
<g id="node29" class="node"><title>28</title>
<polygon fill="none" stroke="black" points="2290.5,-252 2097.5,-252 2097.5,-216 2290.5,-216 2290.5,-252"/>
<text text-anchor="middle" x="2194" y="-230.3" font-family="Times,serif" font-size="14.00">Policies.TakeRandomFixedArm</text>
</g>
<!-- 14&#45;&gt;28 -->
<g id="edge30" class="edge"><title>14&#45;&gt;28</title>
<path fill="none" stroke="black" d="M1537.65,-164.995C1621.92,-170.816 1870.15,-189.012 2087.29,-215.961"/>
<polygon fill="black" stroke="black" points="2097.28,-217.21 2086.8,-220.435 2092.31,-216.59 2087.35,-215.969 2087.35,-215.969 2087.35,-215.969 2092.31,-216.59 2087.91,-211.504 2097.28,-217.21 2097.28,-217.21"/>
</g>
<!-- 29 -->
<g id="node30" class="node"><title>29</title>
<polygon fill="none" stroke="black" points="518,-252 396,-252 396,-216 518,-216 518,-252"/>
<text text-anchor="middle" x="457" y="-230.3" font-family="Times,serif" font-size="14.00">Policies.Thompson</text>
</g>
<!-- 14&#45;&gt;29 -->
<g id="edge31" class="edge"><title>14&#45;&gt;29</title>
<path fill="none" stroke="black" d="M1478.1,-162.616C1359.04,-161.504 907.12,-161.25 528.391,-215.959"/>
<polygon fill="black" stroke="black" points="518.334,-217.428 527.579,-211.53 523.282,-216.705 528.229,-215.983 528.229,-215.983 528.229,-215.983 523.282,-216.705 528.88,-220.436 518.334,-217.428 518.334,-217.428"/>
</g>
<!-- 30 -->
<g id="node31" class="node"><title>30</title>
<polygon fill="none" stroke="black" points="2399.5,-252 2308.5,-252 2308.5,-216 2399.5,-216 2399.5,-252"/>
<text text-anchor="middle" x="2354" y="-230.3" font-family="Times,serif" font-size="14.00">Policies.UCB</text>
</g>
<!-- 14&#45;&gt;30 -->
<g id="edge32" class="edge"><title>14&#45;&gt;30</title>
<path fill="none" stroke="black" d="M1537.76,-162.516C1641.67,-161.342 1997.89,-161.667 2298.08,-216.12"/>
<polygon fill="black" stroke="black" points="2308.28,-217.996 2297.63,-220.614 2303.37,-217.092 2298.45,-216.188 2298.45,-216.188 2298.45,-216.188 2303.37,-217.092 2299.26,-211.762 2308.28,-217.996 2308.28,-217.996"/>
</g>
<!-- 31 -->
<g id="node32" class="node"><title>31</title>
<polygon fill="none" stroke="black" points="637.5,-252 536.5,-252 536.5,-216 637.5,-216 637.5,-252"/>
<text text-anchor="middle" x="587" y="-230.3" font-family="Times,serif" font-size="14.00">Policies.UCBV</text>
</g>
<!-- 14&#45;&gt;31 -->
<g id="edge33" class="edge"><title>14&#45;&gt;31</title>
<path fill="none" stroke="black" d="M1478.33,-162.486C1368.76,-161.073 976.618,-160.339 647.881,-215.888"/>
<polygon fill="black" stroke="black" points="637.684,-217.632 646.782,-211.51 642.613,-216.789 647.541,-215.946 647.541,-215.946 647.541,-215.946 642.613,-216.789 648.3,-220.381 637.684,-217.632 637.684,-217.632"/>
</g>
<!-- 32 -->
<g id="node33" class="node"><title>32</title>
<polygon fill="none" stroke="black" points="2538,-252 2418,-252 2418,-216 2538,-216 2538,-252"/>
<text text-anchor="middle" x="2478" y="-230.3" font-family="Times,serif" font-size="14.00">Policies.UCBalpha</text>
</g>
<!-- 14&#45;&gt;32 -->
<g id="edge34" class="edge"><title>14&#45;&gt;32</title>
<path fill="none" stroke="black" d="M1537.72,-162.822C1650.28,-162.552 2061.07,-165.221 2407.82,-216.173"/>
<polygon fill="black" stroke="black" points="2417.81,-217.656 2407.25,-220.637 2412.86,-216.921 2407.92,-216.186 2407.92,-216.186 2407.92,-216.186 2412.86,-216.921 2408.58,-211.735 2417.81,-217.656 2417.81,-217.656"/>
</g>
<!-- 33 -->
<g id="node34" class="node"><title>33</title>
<polygon fill="none" stroke="black" points="2666,-252 2556,-252 2556,-216 2666,-216 2666,-252"/>
<text text-anchor="middle" x="2611" y="-230.3" font-family="Times,serif" font-size="14.00">Policies.Uniform</text>
</g>
<!-- 14&#45;&gt;33 -->
<g id="edge35" class="edge"><title>14&#45;&gt;33</title>
<path fill="none" stroke="black" d="M1537.67,-163.677C1683.39,-167.129 2324.86,-183.811 2546.1,-216.11"/>
<polygon fill="black" stroke="black" points="2556,-217.61 2545.44,-220.561 2551.05,-216.861 2546.11,-216.112 2546.11,-216.112 2546.11,-216.112 2551.05,-216.861 2546.78,-211.662 2556,-217.61 2556,-217.61"/>
</g>
<!-- 34 -->
<g id="node35" class="node"><title>34</title>
<polygon fill="none" stroke="black" points="2842,-252 2684,-252 2684,-216 2842,-216 2842,-252"/>
<text text-anchor="middle" x="2763" y="-230.3" font-family="Times,serif" font-size="14.00">Policies.UniformOnSome</text>
</g>
<!-- 14&#45;&gt;34 -->
<g id="edge36" class="edge"><title>14&#45;&gt;34</title>
<path fill="none" stroke="black" d="M1537.89,-162.763C1670.23,-162.046 2216.78,-162.58 2673.83,-215.972"/>
<polygon fill="black" stroke="black" points="2683.93,-217.163 2673.47,-220.461 2678.97,-216.578 2674,-215.992 2674,-215.992 2674,-215.992 2678.97,-216.578 2674.53,-211.523 2683.93,-217.163 2683.93,-217.163"/>
</g>
<!-- 35 -->
<g id="node36" class="node"><title>35</title>
<polygon fill="none" stroke="black" points="907.5,-252 806.5,-252 806.5,-216 907.5,-216 907.5,-252"/>
<text text-anchor="middle" x="857" y="-230.3" font-family="Times,serif" font-size="14.00">Policies.klUCB</text>
</g>
<!-- 14&#45;&gt;35 -->
<g id="edge37" class="edge"><title>14&#45;&gt;35</title>
<path fill="none" stroke="black" d="M1478.47,-163.651C1392.85,-165.958 1137.16,-175.806 917.789,-215.856"/>
<polygon fill="black" stroke="black" points="907.701,-217.724 916.714,-211.479 912.617,-216.814 917.534,-215.903 917.534,-215.903 917.534,-215.903 912.617,-216.814 918.353,-220.328 907.701,-217.724 907.701,-217.724"/>
</g>
<!-- 18 -->
<g id="node19" class="node"><title>18</title>
<polygon fill="none" stroke="black" points="360,-324 272,-324 272,-288 360,-288 360,-324"/>
<text text-anchor="middle" x="316" y="-302.3" font-family="Times,serif" font-size="14.00">Policies.Beta</text>
</g>
<!-- 15&#45;&gt;18 -->
<g id="edge38" class="edge"><title>15&#45;&gt;18</title>
<path fill="none" stroke="black" d="M209.492,-252.124C228.44,-261.531 252.132,-273.292 272.356,-283.333"/>
<polygon fill="black" stroke="black" points="281.375,-287.81 270.417,-287.394 276.896,-285.587 272.418,-283.363 272.418,-283.363 272.418,-283.363 276.896,-285.587 274.419,-279.333 281.375,-287.81 281.375,-287.81"/>
</g>
<!-- 17&#45;&gt;18 -->
<g id="edge39" class="edge"><title>17&#45;&gt;18</title>
<path fill="none" stroke="black" d="M316,-252.303C316,-260.017 316,-269.288 316,-277.888"/>
<polygon fill="black" stroke="black" points="316,-287.896 311.5,-277.896 316,-282.896 316,-277.896 316,-277.896 316,-277.896 316,-282.896 320.5,-277.896 316,-287.896 316,-287.896"/>
</g>
<!-- 22 -->
<g id="node23" class="node"><title>22</title>
<polygon fill="none" stroke="black" points="651,-324 523,-324 523,-288 651,-288 651,-324"/>
<text text-anchor="middle" x="587" y="-302.3" font-family="Times,serif" font-size="14.00">Policies.IndexPolicy</text>
</g>
<!-- 17&#45;&gt;22 -->
<g id="edge40" class="edge"><title>17&#45;&gt;22</title>
<path fill="none" stroke="black" d="M378.173,-251.059C418.331,-261.432 470.785,-274.981 513.075,-285.905"/>
<polygon fill="black" stroke="black" points="522.762,-288.407 511.954,-290.263 517.921,-287.157 513.08,-285.906 513.08,-285.906 513.08,-285.906 517.921,-287.157 514.205,-281.549 522.762,-288.407 522.762,-288.407"/>
</g>
<!-- 23 -->
<g id="node24" class="node"><title>23</title>
<polygon fill="none" stroke="black" points="788.5,-252 655.5,-252 655.5,-216 788.5,-216 788.5,-252"/>
<text text-anchor="middle" x="722" y="-230.3" font-family="Times,serif" font-size="14.00">Policies.KLempUCB</text>
</g>
<!-- 23&#45;&gt;22 -->
<g id="edge41" class="edge"><title>23&#45;&gt;22</title>
<path fill="none" stroke="black" d="M688.975,-252.124C670.915,-261.488 648.355,-273.186 629.049,-283.197"/>
<polygon fill="black" stroke="black" points="620.152,-287.81 626.958,-279.212 624.59,-285.509 629.029,-283.207 629.029,-283.207 629.029,-283.207 624.59,-285.509 631.101,-287.202 620.152,-287.81 620.152,-287.81"/>
</g>
<!-- 36 -->
<g id="node37" class="node"><title>36</title>
<polygon fill="none" stroke="black" points="845,-324 735,-324 735,-288 845,-288 845,-324"/>
<text text-anchor="middle" x="790" y="-302.3" font-family="Times,serif" font-size="14.00">Policies.kullback</text>
</g>
<!-- 23&#45;&gt;36 -->
<g id="edge42" class="edge"><title>23&#45;&gt;36</title>
<path fill="none" stroke="black" d="M738.809,-252.303C747.126,-260.865 757.305,-271.344 766.39,-280.696"/>
<polygon fill="black" stroke="black" points="773.384,-287.896 763.189,-283.858 769.9,-284.309 766.416,-280.723 766.416,-280.723 766.416,-280.723 769.9,-284.309 769.644,-277.587 773.384,-287.896 773.384,-287.896"/>
</g>
<!-- 29&#45;&gt;18 -->
<g id="edge43" class="edge"><title>29&#45;&gt;18</title>
<path fill="none" stroke="black" d="M422.508,-252.124C403.56,-261.531 379.868,-273.292 359.644,-283.333"/>
<polygon fill="black" stroke="black" points="350.625,-287.81 357.581,-279.333 355.104,-285.587 359.582,-283.363 359.582,-283.363 359.582,-283.363 355.104,-285.587 361.583,-287.394 350.625,-287.81 350.625,-287.81"/>
</g>
<!-- 29&#45;&gt;22 -->
<g id="edge44" class="edge"><title>29&#45;&gt;22</title>
<path fill="none" stroke="black" d="M488.802,-252.124C506.114,-261.446 527.721,-273.081 546.256,-283.061"/>
<polygon fill="black" stroke="black" points="555.076,-287.81 544.138,-287.031 550.674,-285.44 546.271,-283.069 546.271,-283.069 546.271,-283.069 550.674,-285.44 548.405,-279.107 555.076,-287.81 555.076,-287.81"/>
</g>
<!-- 31&#45;&gt;22 -->
<g id="edge45" class="edge"><title>31&#45;&gt;22</title>
<path fill="none" stroke="black" d="M587,-252.303C587,-260.017 587,-269.288 587,-277.888"/>
<polygon fill="black" stroke="black" points="587,-287.896 582.5,-277.896 587,-282.896 587,-277.896 587,-277.896 587,-277.896 587,-282.896 591.5,-277.896 587,-287.896 587,-287.896"/>
</g>
<!-- 35&#45;&gt;22 -->
<g id="edge46" class="edge"><title>35&#45;&gt;22</title>
<path fill="none" stroke="black" d="M806.289,-249.479C803.149,-250.341 800.033,-251.188 797,-252 752.036,-264.041 701.453,-276.83 661.199,-286.828"/>
<polygon fill="black" stroke="black" points="651.461,-289.242 660.085,-282.468 656.314,-288.039 661.167,-286.836 661.167,-286.836 661.167,-286.836 656.314,-288.039 662.25,-291.204 651.461,-289.242 651.461,-289.242"/>
</g>
<!-- 35&#45;&gt;36 -->
<g id="edge47" class="edge"><title>35&#45;&gt;36</title>
<path fill="none" stroke="black" d="M840.438,-252.303C832.325,-260.78 822.412,-271.136 813.529,-280.417"/>
<polygon fill="black" stroke="black" points="806.371,-287.896 810.035,-277.56 809.829,-284.284 813.286,-280.671 813.286,-280.671 813.286,-280.671 809.829,-284.284 816.537,-283.783 806.371,-287.896 806.371,-287.896"/>
</g>
<!-- 37 -->
<g id="node38" class="node"><title>37</title>
<polygon fill="none" stroke="black" points="4269,-180 4139,-180 4139,-144 4269,-144 4269,-180"/>
<text text-anchor="middle" x="4204" y="-158.3" font-family="Times,serif" font-size="14.00">PoliciesMultiPlayers</text>
</g>
<!-- 38 -->
<g id="node39" class="node"><title>38</title>
<polygon fill="none" stroke="black" points="3951,-252 3733,-252 3733,-216 3951,-216 3951,-252"/>
<text text-anchor="middle" x="3842" y="-230.3" font-family="Times,serif" font-size="14.00">PoliciesMultiPlayers.CentralizedFair</text>
</g>
<!-- 37&#45;&gt;38 -->
<g id="edge48" class="edge"><title>37&#45;&gt;38</title>
<path fill="none" stroke="black" d="M4138.86,-175.595C4083.51,-186.3 4003.2,-201.828 3940.07,-214.036"/>
<polygon fill="black" stroke="black" points="3930.09,-215.965 3939.06,-209.649 3935,-215.016 3939.91,-214.067 3939.91,-214.067 3939.91,-214.067 3935,-215.016 3940.77,-218.485 3930.09,-215.965 3930.09,-215.965"/>
</g>
<!-- 39 -->
<g id="node40" class="node"><title>39</title>
<polygon fill="none" stroke="black" points="4207,-252 3969,-252 3969,-216 4207,-216 4207,-252"/>
<text text-anchor="middle" x="4088" y="-230.3" font-family="Times,serif" font-size="14.00">PoliciesMultiPlayers.CentralizedNotFair</text>
</g>
<!-- 37&#45;&gt;39 -->
<g id="edge49" class="edge"><title>37&#45;&gt;39</title>
<path fill="none" stroke="black" d="M4175.62,-180.124C4160.46,-189.276 4141.59,-200.658 4125.26,-210.515"/>
<polygon fill="black" stroke="black" points="4116.49,-215.81 4122.72,-206.791 4120.77,-213.227 4125.05,-210.644 4125.05,-210.644 4125.05,-210.644 4120.77,-213.227 4127.37,-214.496 4116.49,-215.81 4116.49,-215.81"/>
</g>
<!-- 42 -->
<g id="node43" class="node"><title>42</title>
<polygon fill="none" stroke="black" points="4416.5,-252 4225.5,-252 4225.5,-216 4416.5,-216 4416.5,-252"/>
<text text-anchor="middle" x="4321" y="-230.3" font-family="Times,serif" font-size="14.00">PoliciesMultiPlayers.OracleFair</text>
</g>
<!-- 37&#45;&gt;42 -->
<g id="edge50" class="edge"><title>37&#45;&gt;42</title>
<path fill="none" stroke="black" d="M4232.62,-180.124C4247.92,-189.276 4266.94,-200.658 4283.42,-210.515"/>
<polygon fill="black" stroke="black" points="4292.27,-215.81 4281.38,-214.538 4287.98,-213.243 4283.69,-210.676 4283.69,-210.676 4283.69,-210.676 4287.98,-213.243 4286,-206.814 4292.27,-215.81 4292.27,-215.81"/>
</g>
<!-- 43 -->
<g id="node44" class="node"><title>43</title>
<polygon fill="none" stroke="black" points="4647,-252 4435,-252 4435,-216 4647,-216 4647,-252"/>
<text text-anchor="middle" x="4541" y="-230.3" font-family="Times,serif" font-size="14.00">PoliciesMultiPlayers.OracleNotFair</text>
</g>
<!-- 37&#45;&gt;43 -->
<g id="edge51" class="edge"><title>37&#45;&gt;43</title>
<path fill="none" stroke="black" d="M4269.38,-176.58C4320.48,-187.194 4392.14,-202.079 4449.02,-213.895"/>
<polygon fill="black" stroke="black" points="4459.1,-215.989 4448.4,-218.361 4454.21,-214.972 4449.31,-213.955 4449.31,-213.955 4449.31,-213.955 4454.21,-214.972 4450.23,-209.549 4459.1,-215.989 4459.1,-215.989"/>
</g>
<!-- 45 -->
<g id="node46" class="node"><title>45</title>
<polygon fill="none" stroke="black" points="4836.5,-252 4665.5,-252 4665.5,-216 4836.5,-216 4836.5,-252"/>
<text text-anchor="middle" x="4751" y="-230.3" font-family="Times,serif" font-size="14.00">PoliciesMultiPlayers.Selfish</text>
</g>
<!-- 37&#45;&gt;45 -->
<g id="edge52" class="edge"><title>37&#45;&gt;45</title>
<path fill="none" stroke="black" d="M4269.28,-169.405C4355.33,-178.127 4511.61,-194.928 4655.44,-215.968"/>
<polygon fill="black" stroke="black" points="4665.33,-217.425 4654.79,-220.42 4660.39,-216.696 4655.44,-215.968 4655.44,-215.968 4655.44,-215.968 4660.39,-216.696 4656.1,-211.516 4665.33,-217.425 4665.33,-217.425"/>
</g>
<!-- 40 -->
<g id="node41" class="node"><title>40</title>
<polygon fill="none" stroke="black" points="4422.5,-324 4219.5,-324 4219.5,-288 4422.5,-288 4422.5,-324"/>
<text text-anchor="middle" x="4321" y="-302.3" font-family="Times,serif" font-size="14.00">PoliciesMultiPlayers.ChildPointer</text>
</g>
<!-- 38&#45;&gt;40 -->
<g id="edge53" class="edge"><title>38&#45;&gt;40</title>
<path fill="none" stroke="black" d="M3951.29,-250.972C4028.32,-262.229 4131.17,-277.259 4208.83,-288.608"/>
<polygon fill="black" stroke="black" points="4219.14,-290.114 4208.59,-293.12 4214.19,-289.391 4209.24,-288.668 4209.24,-288.668 4209.24,-288.668 4214.19,-289.391 4209.89,-284.215 4219.14,-290.114 4219.14,-290.114"/>
</g>
<!-- 39&#45;&gt;40 -->
<g id="edge54" class="edge"><title>39&#45;&gt;40</title>
<path fill="none" stroke="black" d="M4144.7,-252.034C4177.68,-261.943 4219.43,-274.486 4254.03,-284.879"/>
<polygon fill="black" stroke="black" points="4264.05,-287.889 4253.17,-289.322 4259.26,-286.451 4254.47,-285.012 4254.47,-285.012 4254.47,-285.012 4259.26,-286.451 4255.76,-280.702 4264.05,-287.889 4264.05,-287.889"/>
</g>
<!-- 41 -->
<g id="node42" class="node"><title>41</title>
<polygon fill="none" stroke="black" points="3547.5,-36 3382.5,-36 3382.5,-0 3547.5,-0 3547.5,-36"/>
<text text-anchor="middle" x="3465" y="-14.3" font-family="Times,serif" font-size="14.00">PoliciesMultiPlayers.DMC</text>
</g>
<!-- 42&#45;&gt;40 -->
<g id="edge55" class="edge"><title>42&#45;&gt;40</title>
<path fill="none" stroke="black" d="M4321,-252.303C4321,-260.017 4321,-269.288 4321,-277.888"/>
<polygon fill="black" stroke="black" points="4321,-287.896 4316.5,-277.896 4321,-282.896 4321,-277.896 4321,-277.896 4321,-277.896 4321,-282.896 4325.5,-277.896 4321,-287.896 4321,-287.896"/>
</g>
<!-- 43&#45;&gt;40 -->
<g id="edge56" class="edge"><title>43&#45;&gt;40</title>
<path fill="none" stroke="black" d="M4487.46,-252.034C4456.46,-261.9 4417.24,-274.378 4384.66,-284.745"/>
<polygon fill="black" stroke="black" points="4374.78,-287.889 4382.94,-280.569 4379.54,-286.373 4384.31,-284.857 4384.31,-284.857 4384.31,-284.857 4379.54,-286.373 4385.67,-289.145 4374.78,-287.889 4374.78,-287.889"/>
</g>
<!-- 44 -->
<g id="node45" class="node"><title>44</title>
<polygon fill="none" stroke="black" points="3750.5,-36 3565.5,-36 3565.5,-0 3750.5,-0 3750.5,-36"/>
<text text-anchor="middle" x="3658" y="-14.3" font-family="Times,serif" font-size="14.00">PoliciesMultiPlayers.RhoRand</text>
</g>
<!-- 45&#45;&gt;40 -->
<g id="edge57" class="edge"><title>45&#45;&gt;40</title>
<path fill="none" stroke="black" d="M4665.31,-250.416C4662.17,-250.955 4659.06,-251.485 4656,-252 4581.58,-264.544 4497.71,-277.813 4432.5,-287.936"/>
<polygon fill="black" stroke="black" points="4422.61,-289.47 4431.8,-283.491 4427.55,-288.704 4432.49,-287.937 4432.49,-287.937 4432.49,-287.937 4427.55,-288.704 4433.18,-292.384 4422.61,-289.47 4422.61,-289.47"/>
</g>
<!-- 46 -->
<g id="node47" class="node"><title>46</title>
<polygon fill="none" stroke="black" points="3935.5,-36 3768.5,-36 3768.5,-0 3935.5,-0 3935.5,-36"/>
<text text-anchor="middle" x="3852" y="-14.3" font-family="Times,serif" font-size="14.00">PoliciesMultiPlayers.TDFS</text>
</g>
<!-- 47 -->
<g id="node48" class="node"><title>47</title>
<polygon fill="none" stroke="black" points="402.5,-108 313.5,-108 313.5,-72 402.5,-72 402.5,-108"/>
<text text-anchor="middle" x="358" y="-86.3" font-family="Times,serif" font-size="14.00">configuration</text>
</g>
<!-- 47&#45;&gt;2 -->
<g id="edge58" class="edge"><title>47&#45;&gt;2</title>
<path fill="none" stroke="black" d="M372.09,-108.303C378.923,-116.695 387.257,-126.93 394.756,-136.139"/>
<polygon fill="black" stroke="black" points="401.072,-143.896 391.268,-138.983 397.915,-140.018 394.758,-136.141 394.758,-136.141 394.758,-136.141 397.915,-140.018 398.247,-133.3 401.072,-143.896 401.072,-143.896"/>
</g>
<!-- 47&#45;&gt;3 -->
<g id="edge59" class="edge"><title>47&#45;&gt;3</title>
<path fill="none" stroke="black" d="M313.255,-100.832C268.4,-110.766 197.106,-126.763 126.098,-143.764"/>
<polygon fill="black" stroke="black" points="116.083,-146.169 124.756,-139.458 120.945,-145.001 125.806,-143.834 125.806,-143.834 125.806,-143.834 120.945,-145.001 126.857,-148.209 116.083,-146.169 116.083,-146.169"/>
</g>
<!-- 47&#45;&gt;4 -->
<g id="edge60" class="edge"><title>47&#45;&gt;4</title>
<path fill="none" stroke="black" d="M315.679,-108.124C291.819,-117.778 261.828,-129.913 236.597,-140.122"/>
<polygon fill="black" stroke="black" points="227.183,-143.932 234.765,-136.009 231.818,-142.056 236.453,-140.181 236.453,-140.181 236.453,-140.181 231.818,-142.056 238.141,-144.352 227.183,-143.932 227.183,-143.932"/>
</g>
<!-- 47&#45;&gt;5 -->
<g id="edge61" class="edge"><title>47&#45;&gt;5</title>
<path fill="none" stroke="black" d="M343.663,-108.303C336.709,-116.695 328.23,-126.93 320.599,-136.139"/>
<polygon fill="black" stroke="black" points="314.172,-143.896 317.087,-133.324 317.362,-140.046 320.552,-136.195 320.552,-136.195 320.552,-136.195 317.362,-140.046 324.017,-139.067 314.172,-143.896 314.172,-143.896"/>
</g>
<!-- 47&#45;&gt;14 -->
<g id="edge62" class="edge"><title>47&#45;&gt;14</title>
<path fill="none" stroke="black" d="M402.728,-93.7226C587.847,-104.991 1292.53,-147.885 1468.17,-158.575"/>
<polygon fill="black" stroke="black" points="1478.26,-159.19 1468,-163.074 1473.27,-158.886 1468.28,-158.582 1468.28,-158.582 1468.28,-158.582 1473.27,-158.886 1468.55,-154.09 1478.26,-159.19 1478.26,-159.19"/>
</g>
<!-- 48 -->
<g id="node49" class="node"><title>48</title>
<polygon fill="none" stroke="black" points="3081,-108 2917,-108 2917,-72 3081,-72 3081,-108"/>
<text text-anchor="middle" x="2999" y="-86.3" font-family="Times,serif" font-size="14.00">configuration_multiplayers</text>
</g>
<!-- 48&#45;&gt;2 -->
<g id="edge63" class="edge"><title>48&#45;&gt;2</title>
<path fill="none" stroke="black" d="M2916.68,-93.2301C2521.13,-103.945 820.768,-150.008 476.085,-159.345"/>
<polygon fill="black" stroke="black" points="466.048,-159.617 475.923,-154.848 471.047,-159.482 476.045,-159.346 476.045,-159.346 476.045,-159.346 471.047,-159.482 476.167,-163.845 466.048,-159.617 466.048,-159.617"/>
</g>
<!-- 48&#45;&gt;7 -->
<g id="edge64" class="edge"><title>48&#45;&gt;7</title>
<path fill="none" stroke="black" d="M2993.21,-108.129C2984.99,-132.436 2969.87,-177.181 2960.13,-205.987"/>
<polygon fill="black" stroke="black" points="2956.81,-215.811 2955.75,-204.896 2958.41,-211.074 2960.01,-206.337 2960.01,-206.337 2960.01,-206.337 2958.41,-211.074 2964.28,-207.778 2956.81,-215.811 2956.81,-215.811"/>
</g>
<!-- 48&#45;&gt;10 -->
<g id="edge65" class="edge"><title>48&#45;&gt;10</title>
<path fill="none" stroke="black" d="M3010.3,-108.107C3024.8,-128.619 3051.97,-162.425 3084,-180 3153.54,-218.153 3183.16,-199.928 3265.43,-216.028"/>
<polygon fill="black" stroke="black" points="3275.46,-218.107 3264.76,-220.482 3270.56,-217.092 3265.67,-216.076 3265.67,-216.076 3265.67,-216.076 3270.56,-217.092 3266.58,-211.67 3275.46,-218.107 3275.46,-218.107"/>
</g>
<!-- 48&#45;&gt;14 -->
<g id="edge66" class="edge"><title>48&#45;&gt;14</title>
<path fill="none" stroke="black" d="M2916.98,-94.8507C2640.21,-107.845 1746.89,-149.784 1547.65,-159.139"/>
<polygon fill="black" stroke="black" points="1537.63,-159.609 1547.4,-154.645 1542.62,-159.375 1547.62,-159.14 1547.62,-159.14 1547.62,-159.14 1542.62,-159.375 1547.83,-163.635 1537.63,-159.609 1537.63,-159.609"/>
</g>
<!-- 48&#45;&gt;37 -->
<g id="edge67" class="edge"><title>48&#45;&gt;37</title>
<path fill="none" stroke="black" d="M3081,-95.9356C3137.95,-99.3525 3215.59,-103.989 3284,-108 3597.74,-126.394 3971.69,-147.766 4128.72,-156.715"/>
<polygon fill="black" stroke="black" points="4138.74,-157.286 4128.5,-161.21 4133.75,-157.002 4128.76,-156.717 4128.76,-156.717 4128.76,-156.717 4133.75,-157.002 4129.01,-152.225 4138.74,-157.286 4138.74,-157.286"/>
</g>
<!-- 49 -->
<g id="node50" class="node"><title>49</title>
<polygon fill="none" stroke="black" points="3364,-36 3310,-36 3310,-0 3364,-0 3364,-36"/>
<text text-anchor="middle" x="3337" y="-14.3" font-family="Times,serif" font-size="14.00">main</text>
</g>
<!-- 49&#45;&gt;6 -->
<g id="edge68" class="edge"><title>49&#45;&gt;6</title>
<path fill="none" stroke="black" d="M3337,-36.3034C3337,-44.0173 3337,-53.2875 3337,-61.8876"/>
<polygon fill="black" stroke="black" points="3337,-71.8957 3332.5,-61.8956 3337,-66.8957 3337,-61.8957 3337,-61.8957 3337,-61.8957 3337,-66.8957 3341.5,-61.8957 3337,-71.8957 3337,-71.8957"/>
</g>
<!-- 49&#45;&gt;8 -->
<g id="edge69" class="edge"><title>49&#45;&gt;8</title>
<path fill="none" stroke="black" d="M3356.85,-36.1491C3367.48,-45.9679 3380.34,-58.9109 3390,-72 3404.42,-91.5469 3417.04,-116.109 3425.56,-134.476"/>
<polygon fill="black" stroke="black" points="3429.74,-143.713 3421.52,-136.46 3427.68,-139.158 3425.62,-134.604 3425.62,-134.604 3425.62,-134.604 3427.68,-139.158 3429.72,-132.747 3429.74,-143.713 3429.74,-143.713"/>
</g>
<!-- 49&#45;&gt;47 -->
<g id="edge70" class="edge"><title>49&#45;&gt;47</title>
<path fill="none" stroke="black" d="M3309.81,-27.2983C3297.48,-30.672 3282.63,-34.1957 3269,-36 2975.94,-74.7883 787.674,-86.9438 412.621,-88.7511"/>
<polygon fill="black" stroke="black" points="402.565,-88.7992 412.543,-84.2513 407.565,-88.7752 412.564,-88.7513 412.564,-88.7513 412.564,-88.7513 407.565,-88.7752 412.586,-93.2512 402.565,-88.7992 402.565,-88.7992"/>
</g>
<!-- 50 -->
<g id="node51" class="node"><title>50</title>
<polygon fill="none" stroke="black" points="3260.5,-36 3141.5,-36 3141.5,-0 3260.5,-0 3260.5,-36"/>
<text text-anchor="middle" x="3201" y="-14.3" font-family="Times,serif" font-size="14.00">main_multiplayers</text>
</g>
<!-- 50&#45;&gt;6 -->
<g id="edge71" class="edge"><title>50&#45;&gt;6</title>
<path fill="none" stroke="black" d="M3234.27,-36.1239C3252.46,-45.4883 3275.19,-57.1864 3294.64,-67.197"/>
<polygon fill="black" stroke="black" points="3303.6,-71.8102 3292.65,-71.2349 3299.16,-69.522 3294.71,-67.2338 3294.71,-67.2338 3294.71,-67.2338 3299.16,-69.522 3296.77,-63.2326 3303.6,-71.8102 3303.6,-71.8102"/>
</g>
<!-- 50&#45;&gt;9 -->
<g id="edge72" class="edge"><title>50&#45;&gt;9</title>
<path fill="none" stroke="black" d="M3201,-36.1285C3201,-60.3298 3201,-104.789 3201,-133.607"/>
<polygon fill="black" stroke="black" points="3201,-143.811 3196.5,-133.811 3201,-138.811 3201,-133.811 3201,-133.811 3201,-133.811 3201,-138.811 3205.5,-133.811 3201,-143.811 3201,-143.811"/>
</g>
<!-- 50&#45;&gt;48 -->
<g id="edge73" class="edge"><title>50&#45;&gt;48</title>
<path fill="none" stroke="black" d="M3151.84,-36.0344C3123.5,-45.8575 3087.68,-58.2709 3057.84,-68.6109"/>
<polygon fill="black" stroke="black" points="3048.38,-71.8892 3056.35,-64.3629 3053.1,-70.252 3057.83,-68.6148 3057.83,-68.6148 3057.83,-68.6148 3053.1,-70.252 3059.3,-72.8667 3048.38,-71.8892 3048.38,-71.8892"/>
</g>
</g>
</svg>
