<?xml version="1.0" encoding="UTF-8" standalone="no"?>
<!DOCTYPE svg PUBLIC "-//W3C//DTD SVG 1.1//EN"
 "http://www.w3.org/Graphics/SVG/1.1/DTD/svg11.dtd">
<!-- Generated by graphviz version 2.38.0 (20140413.2041)
 -->
<!-- Title: packages_AlgoBandits Pages: 1 -->
<svg width="6056pt" height="548pt"
 viewBox="0.00 0.00 6056.46 548.00" xmlns="http://www.w3.org/2000/svg" xmlns:xlink="http://www.w3.org/1999/xlink">
<g id="graph0" class="graph" transform="scale(1 1) rotate(0) translate(4 544)">
<title>packages_AlgoBandits</title>
<polygon fill="white" stroke="none" points="-4,4 -4,-544 6052.46,-544 6052.46,4 -4,4"/>
<!-- 0 -->
<g id="node1" class="node"><title>0</title>
<polygon fill="none" stroke="black" points="4957.46,-180 4903.46,-180 4903.46,-144 4957.46,-144 4957.46,-180"/>
<text text-anchor="middle" x="4930.46" y="-158.3" font-family="Times,serif" font-size="14.00">Arms</text>
</g>
<!-- 2 -->
<g id="node3" class="node"><title>2</title>
<polygon fill="none" stroke="black" points="5150.46,-252 5048.46,-252 5048.46,-216 5150.46,-216 5150.46,-252"/>
<text text-anchor="middle" x="5099.46" y="-230.3" font-family="Times,serif" font-size="14.00">Arms.Bernoulli</text>
</g>
<!-- 0&#45;&gt;2 -->
<g id="edge1" class="edge"><title>0&#45;&gt;2</title>
<path fill="none" stroke="black" d="M4957.62,-174.247C4982.12,-184.395 5018.79,-199.587 5048.72,-211.981"/>
<polygon fill="black" stroke="black" points="5058.17,-215.896 5047.21,-216.227 5053.55,-213.983 5048.93,-212.07 5048.93,-212.07 5048.93,-212.07 5053.55,-213.983 5050.65,-207.912 5058.17,-215.896 5058.17,-215.896"/>
</g>
<!-- 3 -->
<g id="node4" class="node"><title>3</title>
<polygon fill="none" stroke="black" points="5030.46,-252 4914.46,-252 4914.46,-216 5030.46,-216 5030.46,-252"/>
<text text-anchor="middle" x="4972.46" y="-230.3" font-family="Times,serif" font-size="14.00">Arms.Exponential</text>
</g>
<!-- 0&#45;&gt;3 -->
<g id="edge2" class="edge"><title>0&#45;&gt;3</title>
<path fill="none" stroke="black" d="M4940.85,-180.303C4945.73,-188.441 4951.65,-198.311 4957.04,-207.299"/>
<polygon fill="black" stroke="black" points="4962.2,-215.896 4953.2,-209.636 4959.63,-211.608 4957.06,-207.321 4957.06,-207.321 4957.06,-207.321 4959.63,-211.608 4960.91,-205.005 4962.2,-215.896 4962.2,-215.896"/>
</g>
<!-- 4 -->
<g id="node5" class="node"><title>4</title>
<polygon fill="none" stroke="black" points="5269.96,-252 5168.96,-252 5168.96,-216 5269.96,-216 5269.96,-252"/>
<text text-anchor="middle" x="5219.46" y="-230.3" font-family="Times,serif" font-size="14.00">Arms.Gaussian</text>
</g>
<!-- 0&#45;&gt;4 -->
<g id="edge3" class="edge"><title>0&#45;&gt;4</title>
<path fill="none" stroke="black" d="M4957.71,-168.856C4998.96,-177.819 5079.94,-195.792 5158.68,-215.864"/>
<polygon fill="black" stroke="black" points="5168.77,-218.45 5157.97,-220.325 5163.93,-217.208 5159.08,-215.966 5159.08,-215.966 5159.08,-215.966 5163.93,-217.208 5160.2,-211.607 5168.77,-218.45 5168.77,-218.45"/>
</g>
<!-- 5 -->
<g id="node6" class="node"><title>5</title>
<polygon fill="none" stroke="black" points="4779.96,-252 4686.96,-252 4686.96,-216 4779.96,-216 4779.96,-252"/>
<text text-anchor="middle" x="4733.46" y="-230.3" font-family="Times,serif" font-size="14.00">Arms.Poisson</text>
</g>
<!-- 0&#45;&gt;5 -->
<g id="edge4" class="edge"><title>0&#45;&gt;5</title>
<path fill="none" stroke="black" d="M4903.07,-172.733C4873.96,-183.079 4827.09,-199.731 4790,-212.912"/>
<polygon fill="black" stroke="black" points="4780.31,-216.356 4788.22,-208.767 4785.02,-214.681 4789.73,-213.007 4789.73,-213.007 4789.73,-213.007 4785.02,-214.681 4791.23,-217.247 4780.31,-216.356 4780.31,-216.356"/>
</g>
<!-- 6 -->
<g id="node7" class="node"><title>6</title>
<polygon fill="none" stroke="black" points="4896.46,-252 4798.46,-252 4798.46,-216 4896.46,-216 4896.46,-252"/>
<text text-anchor="middle" x="4847.46" y="-230.3" font-family="Times,serif" font-size="14.00">Arms.Uniform</text>
</g>
<!-- 0&#45;&gt;6 -->
<g id="edge5" class="edge"><title>0&#45;&gt;6</title>
<path fill="none" stroke="black" d="M4909.95,-180.303C4899.59,-189.035 4886.88,-199.76 4875.62,-209.25"/>
<polygon fill="black" stroke="black" points="4867.74,-215.896 4872.49,-206.009 4871.57,-212.672 4875.39,-209.449 4875.39,-209.449 4875.39,-209.449 4871.57,-212.672 4878.29,-212.889 4867.74,-215.896 4867.74,-215.896"/>
</g>
<!-- 1 -->
<g id="node2" class="node"><title>1</title>
<polygon fill="none" stroke="black" points="5010.96,-324 4933.96,-324 4933.96,-288 5010.96,-288 5010.96,-324"/>
<text text-anchor="middle" x="4972.46" y="-302.3" font-family="Times,serif" font-size="14.00">Arms.Arm</text>
</g>
<!-- 2&#45;&gt;1 -->
<g id="edge6" class="edge"><title>2&#45;&gt;1</title>
<path fill="none" stroke="black" d="M5068.4,-252.124C5051.64,-261.361 5030.76,-272.869 5012.76,-282.788"/>
<polygon fill="black" stroke="black" points="5003.65,-287.81 5010.24,-279.042 5008.03,-285.397 5012.41,-282.983 5012.41,-282.983 5012.41,-282.983 5008.03,-285.397 5014.58,-286.924 5003.65,-287.81 5003.65,-287.81"/>
</g>
<!-- 7 -->
<g id="node8" class="node"><title>7</title>
<polygon fill="none" stroke="black" points="5138.46,-324 5040.46,-324 5040.46,-288 5138.46,-288 5138.46,-324"/>
<text text-anchor="middle" x="5089.46" y="-302.3" font-family="Times,serif" font-size="14.00">Arms.kullback</text>
</g>
<!-- 2&#45;&gt;7 -->
<g id="edge7" class="edge"><title>2&#45;&gt;7</title>
<path fill="none" stroke="black" d="M5096.99,-252.303C5095.89,-260.017 5094.56,-269.288 5093.34,-277.888"/>
<polygon fill="black" stroke="black" points="5091.91,-287.896 5088.87,-277.36 5092.61,-282.946 5093.32,-277.996 5093.32,-277.996 5093.32,-277.996 5092.61,-282.946 5097.78,-278.633 5091.91,-287.896 5091.91,-287.896"/>
</g>
<!-- 3&#45;&gt;1 -->
<g id="edge8" class="edge"><title>3&#45;&gt;1</title>
<path fill="none" stroke="black" d="M4972.46,-252.303C4972.46,-260.017 4972.46,-269.288 4972.46,-277.888"/>
<polygon fill="black" stroke="black" points="4972.46,-287.896 4967.96,-277.896 4972.46,-282.896 4972.46,-277.896 4972.46,-277.896 4972.46,-277.896 4972.46,-282.896 4976.96,-277.896 4972.46,-287.896 4972.46,-287.896"/>
</g>
<!-- 3&#45;&gt;7 -->
<g id="edge9" class="edge"><title>3&#45;&gt;7</title>
<path fill="none" stroke="black" d="M5001.08,-252.124C5016.38,-261.276 5035.41,-272.658 5051.88,-282.515"/>
<polygon fill="black" stroke="black" points="5060.73,-287.81 5049.84,-286.538 5056.44,-285.243 5052.15,-282.676 5052.15,-282.676 5052.15,-282.676 5056.44,-285.243 5054.46,-278.814 5060.73,-287.81 5060.73,-287.81"/>
</g>
<!-- 4&#45;&gt;1 -->
<g id="edge10" class="edge"><title>4&#45;&gt;1</title>
<path fill="none" stroke="black" d="M5168.73,-249.383C5165.59,-250.269 5162.48,-251.147 5159.46,-252 5102.59,-268.055 5088.3,-271.819 5031.46,-288 5028.08,-288.963 5024.59,-289.961 5021.07,-290.967"/>
<polygon fill="black" stroke="black" points="5011.17,-293.809 5019.54,-286.725 5015.98,-292.429 5020.78,-291.05 5020.78,-291.05 5020.78,-291.05 5015.98,-292.429 5022.03,-295.376 5011.17,-293.809 5011.17,-293.809"/>
</g>
<!-- 4&#45;&gt;7 -->
<g id="edge11" class="edge"><title>4&#45;&gt;7</title>
<path fill="none" stroke="black" d="M5187.66,-252.124C5170.35,-261.446 5148.74,-273.081 5130.21,-283.061"/>
<polygon fill="black" stroke="black" points="5121.39,-287.81 5128.06,-279.107 5125.79,-285.44 5130.19,-283.069 5130.19,-283.069 5130.19,-283.069 5125.79,-285.44 5132.33,-287.031 5121.39,-287.81 5121.39,-287.81"/>
</g>
<!-- 5&#45;&gt;1 -->
<g id="edge12" class="edge"><title>5&#45;&gt;1</title>
<path fill="none" stroke="black" d="M4780.2,-249.237C4783.33,-250.176 4786.44,-251.104 4789.46,-252 4834.97,-265.497 4886.96,-280.517 4923.87,-291.111"/>
<polygon fill="black" stroke="black" points="4933.86,-293.976 4923.01,-295.545 4929.06,-292.598 4924.25,-291.219 4924.25,-291.219 4924.25,-291.219 4929.06,-292.598 4925.49,-286.894 4933.86,-293.976 4933.86,-293.976"/>
</g>
<!-- 5&#45;&gt;7 -->
<g id="edge13" class="edge"><title>5&#45;&gt;7</title>
<path fill="none" stroke="black" d="M4780.08,-249.684C4783.24,-250.515 4786.39,-251.297 4789.46,-252 4890.32,-275.084 4917.99,-267.774 5019.46,-288 5023.05,-288.714 5026.72,-289.487 5030.43,-290.296"/>
<polygon fill="black" stroke="black" points="5040.24,-292.504 5029.5,-294.699 5035.37,-291.406 5030.49,-290.309 5030.49,-290.309 5030.49,-290.309 5035.37,-291.406 5031.47,-285.919 5040.24,-292.504 5040.24,-292.504"/>
</g>
<!-- 6&#45;&gt;1 -->
<g id="edge14" class="edge"><title>6&#45;&gt;1</title>
<path fill="none" stroke="black" d="M4878.04,-252.124C4894.54,-261.361 4915.09,-272.869 4932.8,-282.788"/>
<polygon fill="black" stroke="black" points="4941.77,-287.81 4930.84,-286.85 4937.4,-285.367 4933.04,-282.924 4933.04,-282.924 4933.04,-282.924 4937.4,-285.367 4935.24,-278.998 4941.77,-287.81 4941.77,-287.81"/>
</g>
<!-- 8 -->
<g id="node9" class="node"><title>8</title>
<polygon fill="none" stroke="black" points="5455.46,-108 5367.46,-108 5367.46,-72 5455.46,-72 5455.46,-108"/>
<text text-anchor="middle" x="5411.46" y="-86.3" font-family="Times,serif" font-size="14.00">Environment</text>
</g>
<!-- 10 -->
<g id="node11" class="node"><title>10</title>
<polygon fill="none" stroke="black" points="5382.46,-180 5238.46,-180 5238.46,-144 5382.46,-144 5382.46,-180"/>
<text text-anchor="middle" x="5310.46" y="-158.3" font-family="Times,serif" font-size="14.00">Environment.Evaluator</text>
</g>
<!-- 8&#45;&gt;10 -->
<g id="edge15" class="edge"><title>8&#45;&gt;10</title>
<path fill="none" stroke="black" d="M5386.76,-108.124C5373.79,-117.107 5357.73,-128.237 5343.7,-137.966"/>
<polygon fill="black" stroke="black" points="5335.27,-143.81 5340.92,-134.415 5339.37,-140.962 5343.48,-138.114 5343.48,-138.114 5343.48,-138.114 5339.37,-140.962 5346.05,-141.812 5335.27,-143.81 5335.27,-143.81"/>
</g>
<!-- 11 -->
<g id="node12" class="node"><title>11</title>
<polygon fill="none" stroke="black" points="5729.96,-180 5514.96,-180 5514.96,-144 5729.96,-144 5729.96,-180"/>
<text text-anchor="middle" x="5622.46" y="-158.3" font-family="Times,serif" font-size="14.00">Environment.EvaluatorMultiPlayers</text>
</g>
<!-- 8&#45;&gt;11 -->
<g id="edge16" class="edge"><title>8&#45;&gt;11</title>
<path fill="none" stroke="black" d="M5455.7,-105.674C5486.27,-115.818 5527.36,-129.448 5561.09,-140.64"/>
<polygon fill="black" stroke="black" points="5570.85,-143.878 5559.94,-145 5566.11,-142.304 5561.36,-140.729 5561.36,-140.729 5561.36,-140.729 5566.11,-142.304 5562.78,-136.458 5570.85,-143.878 5570.85,-143.878"/>
</g>
<!-- 12 -->
<g id="node13" class="node"><title>12</title>
<polygon fill="none" stroke="black" points="5593.96,-252 5470.96,-252 5470.96,-216 5593.96,-216 5593.96,-252"/>
<text text-anchor="middle" x="5532.46" y="-230.3" font-family="Times,serif" font-size="14.00">Environment.MAB</text>
</g>
<!-- 8&#45;&gt;12 -->
<g id="edge17" class="edge"><title>8&#45;&gt;12</title>
<path fill="none" stroke="black" d="M5428.91,-108.254C5438.98,-118.422 5451.73,-131.672 5462.46,-144 5480.54,-164.769 5499.8,-189.456 5513.52,-207.556"/>
<polygon fill="black" stroke="black" points="5519.79,-215.865 5510.18,-210.59 5516.78,-211.873 5513.77,-207.881 5513.77,-207.881 5513.77,-207.881 5516.78,-211.873 5517.36,-205.172 5519.79,-215.865 5519.79,-215.865"/>
</g>
<!-- 13 -->
<g id="node14" class="node"><title>13</title>
<polygon fill="none" stroke="black" points="5452.46,-252 5326.46,-252 5326.46,-216 5452.46,-216 5452.46,-252"/>
<text text-anchor="middle" x="5389.46" y="-230.3" font-family="Times,serif" font-size="14.00">Environment.Result</text>
</g>
<!-- 8&#45;&gt;13 -->
<g id="edge18" class="edge"><title>8&#45;&gt;13</title>
<path fill="none" stroke="black" d="M5408.81,-108.129C5405.06,-132.33 5398.17,-176.789 5393.71,-205.607"/>
<polygon fill="black" stroke="black" points="5392.13,-215.811 5389.21,-205.24 5392.89,-210.87 5393.66,-205.929 5393.66,-205.929 5393.66,-205.929 5392.89,-210.87 5398.1,-206.618 5392.13,-215.811 5392.13,-215.811"/>
</g>
<!-- 9 -->
<g id="node10" class="node"><title>9</title>
<polygon fill="none" stroke="black" points="6048.46,-252 5866.46,-252 5866.46,-216 6048.46,-216 6048.46,-252"/>
<text text-anchor="middle" x="5957.46" y="-230.3" font-family="Times,serif" font-size="14.00">Environment.CollisionModels</text>
</g>
<!-- 10&#45;&gt;12 -->
<g id="edge19" class="edge"><title>10&#45;&gt;12</title>
<path fill="none" stroke="black" d="M5364.49,-180.034C5395.91,-189.943 5435.69,-202.486 5468.65,-212.879"/>
<polygon fill="black" stroke="black" points="5478.2,-215.889 5467.31,-217.174 5473.43,-214.386 5468.66,-212.882 5468.66,-212.882 5468.66,-212.882 5473.43,-214.386 5470.01,-208.59 5478.2,-215.889 5478.2,-215.889"/>
</g>
<!-- 10&#45;&gt;13 -->
<g id="edge20" class="edge"><title>10&#45;&gt;13</title>
<path fill="none" stroke="black" d="M5329.99,-180.303C5339.84,-189.035 5351.95,-199.76 5362.66,-209.25"/>
<polygon fill="black" stroke="black" points="5370.16,-215.896 5359.69,-212.632 5366.42,-212.58 5362.68,-209.264 5362.68,-209.264 5362.68,-209.264 5366.42,-212.58 5365.66,-205.896 5370.16,-215.896 5370.16,-215.896"/>
</g>
<!-- 15 -->
<g id="node16" class="node"><title>15</title>
<polygon fill="none" stroke="black" points="5609.46,-324 5455.46,-324 5455.46,-288 5609.46,-288 5609.46,-324"/>
<text text-anchor="middle" x="5532.46" y="-302.3" font-family="Times,serif" font-size="14.00">Environment.plotsettings</text>
</g>
<!-- 10&#45;&gt;15 -->
<g id="edge21" class="edge"><title>10&#45;&gt;15</title>
<path fill="none" stroke="black" d="M5306.4,-180.282C5302.86,-200.023 5300.61,-232.148 5317.46,-252 5334.29,-271.825 5393.37,-285.498 5445.35,-293.984"/>
<polygon fill="black" stroke="black" points="5455.3,-295.56 5444.72,-298.44 5450.36,-294.778 5445.42,-293.995 5445.42,-293.995 5445.42,-293.995 5450.36,-294.778 5446.13,-289.551 5455.3,-295.56 5455.3,-295.56"/>
</g>
<!-- 11&#45;&gt;9 -->
<g id="edge22" class="edge"><title>11&#45;&gt;9</title>
<path fill="none" stroke="black" d="M5703.98,-180.034C5752.92,-190.259 5815.28,-203.29 5865.91,-213.869"/>
<polygon fill="black" stroke="black" points="5875.87,-215.95 5865.16,-218.309 5870.97,-214.927 5866.08,-213.904 5866.08,-213.904 5866.08,-213.904 5870.97,-214.927 5867,-209.5 5875.87,-215.95 5875.87,-215.95"/>
</g>
<!-- 11&#45;&gt;12 -->
<g id="edge23" class="edge"><title>11&#45;&gt;12</title>
<path fill="none" stroke="black" d="M5600.22,-180.303C5588.88,-189.119 5574.93,-199.968 5562.64,-209.526"/>
<polygon fill="black" stroke="black" points="5554.45,-215.896 5559.59,-206.204 5558.4,-212.826 5562.35,-209.756 5562.35,-209.756 5562.35,-209.756 5558.4,-212.826 5565.11,-213.308 5554.45,-215.896 5554.45,-215.896"/>
</g>
<!-- 14 -->
<g id="node15" class="node"><title>14</title>
<polygon fill="none" stroke="black" points="5847.96,-252 5650.96,-252 5650.96,-216 5847.96,-216 5847.96,-252"/>
<text text-anchor="middle" x="5749.46" y="-230.3" font-family="Times,serif" font-size="14.00">Environment.ResultMultiPlayers</text>
</g>
<!-- 11&#45;&gt;14 -->
<g id="edge24" class="edge"><title>11&#45;&gt;14</title>
<path fill="none" stroke="black" d="M5653.53,-180.124C5670.29,-189.361 5691.17,-200.869 5709.16,-210.788"/>
<polygon fill="black" stroke="black" points="5718.28,-215.81 5707.35,-214.924 5713.9,-213.397 5709.52,-210.983 5709.52,-210.983 5709.52,-210.983 5713.9,-213.397 5711.69,-207.042 5718.28,-215.81 5718.28,-215.81"/>
</g>
<!-- 11&#45;&gt;15 -->
<g id="edge25" class="edge"><title>11&#45;&gt;15</title>
<path fill="none" stroke="black" d="M5622.32,-180.078C5621.4,-199.052 5617.61,-229.918 5603.46,-252 5595.92,-263.765 5584.79,-273.854 5573.57,-281.975"/>
<polygon fill="black" stroke="black" points="5565.03,-287.797 5570.76,-278.446 5569.16,-284.981 5573.29,-282.165 5573.29,-282.165 5573.29,-282.165 5569.16,-284.981 5575.83,-285.883 5565.03,-287.797 5565.03,-287.797"/>
</g>
<!-- 12&#45;&gt;15 -->
<g id="edge26" class="edge"><title>12&#45;&gt;15</title>
<path fill="none" stroke="black" d="M5532.46,-252.303C5532.46,-260.017 5532.46,-269.288 5532.46,-277.888"/>
<polygon fill="black" stroke="black" points="5532.46,-287.896 5527.96,-277.896 5532.46,-282.896 5532.46,-277.896 5532.46,-277.896 5532.46,-277.896 5532.46,-282.896 5536.96,-277.896 5532.46,-287.896 5532.46,-287.896"/>
</g>
<!-- 16 -->
<g id="node17" class="node"><title>16</title>
<polygon fill="none" stroke="black" points="1580.96,-180 1521.96,-180 1521.96,-144 1580.96,-144 1580.96,-180"/>
<text text-anchor="middle" x="1551.46" y="-158.3" font-family="Times,serif" font-size="14.00">Policies</text>
</g>
<!-- 17 -->
<g id="node18" class="node"><title>17</title>
<polygon fill="none" stroke="black" points="2743.96,-324 2622.96,-324 2622.96,-288 2743.96,-288 2743.96,-324"/>
<text text-anchor="middle" x="2683.46" y="-302.3" font-family="Times,serif" font-size="14.00">Policies.AdBandits</text>
</g>
<!-- 16&#45;&gt;17 -->
<g id="edge27" class="edge"><title>16&#45;&gt;17</title>
<path fill="none" stroke="black" d="M1580.98,-162.936C1743.69,-162.785 2527.11,-164.739 2620.46,-216 2645.25,-229.609 2662.55,-257.629 2672.67,-278.615"/>
<polygon fill="black" stroke="black" points="2676.94,-287.971 2668.7,-280.741 2674.87,-283.422 2672.79,-278.873 2672.79,-278.873 2672.79,-278.873 2674.87,-283.422 2676.89,-277.005 2676.94,-287.971 2676.94,-287.971"/>
</g>
<!-- 18 -->
<g id="node19" class="node"><title>18</title>
<polygon fill="none" stroke="black" points="304.963,-468 213.963,-468 213.963,-432 304.963,-432 304.963,-468"/>
<text text-anchor="middle" x="259.463" y="-446.3" font-family="Times,serif" font-size="14.00">Policies.Aggr</text>
</g>
<!-- 16&#45;&gt;18 -->
<g id="edge28" class="edge"><title>16&#45;&gt;18</title>
<path fill="none" stroke="black" d="M1521.7,-162.895C1315.59,-162.312 107.319,-161.24 54.463,-216 -17.7767,-290.843 135.53,-385.315 215.281,-427.245"/>
<polygon fill="black" stroke="black" points="224.157,-431.854 213.208,-431.239 219.719,-429.55 215.282,-427.245 215.282,-427.245 215.282,-427.245 219.719,-429.55 217.356,-423.252 224.157,-431.854 224.157,-431.854"/>
</g>
<!-- 20 -->
<g id="node21" class="node"><title>20</title>
<polygon fill="none" stroke="black" points="2397.46,-252 2273.46,-252 2273.46,-216 2397.46,-216 2397.46,-252"/>
<text text-anchor="middle" x="2335.46" y="-230.3" font-family="Times,serif" font-size="14.00">Policies.BayesUCB</text>
</g>
<!-- 16&#45;&gt;20 -->
<g id="edge29" class="edge"><title>16&#45;&gt;20</title>
<path fill="none" stroke="black" d="M1581.2,-163.502C1678.15,-165.495 1993.86,-174.816 2263.27,-215.963"/>
<polygon fill="black" stroke="black" points="2273.24,-217.503 2262.67,-220.423 2268.3,-216.739 2263.35,-215.975 2263.35,-215.975 2263.35,-215.975 2268.3,-216.739 2264.04,-211.528 2273.24,-217.503 2273.24,-217.503"/>
</g>
<!-- 23 -->
<g id="node24" class="node"><title>23</title>
<polygon fill="none" stroke="black" points="414.963,-252 249.963,-252 249.963,-216 414.963,-216 414.963,-252"/>
<text text-anchor="middle" x="332.463" y="-230.3" font-family="Times,serif" font-size="14.00">Policies.EpsilonDecreasing</text>
</g>
<!-- 16&#45;&gt;23 -->
<g id="edge30" class="edge"><title>16&#45;&gt;23</title>
<path fill="none" stroke="black" d="M1521.74,-162.92C1392.49,-162.878 866.435,-165.894 425.215,-216.021"/>
<polygon fill="black" stroke="black" points="415.135,-217.176 424.558,-211.567 420.103,-216.607 425.07,-216.038 425.07,-216.038 425.07,-216.038 420.103,-216.607 425.583,-220.509 415.135,-217.176 415.135,-217.176"/>
</g>
<!-- 24 -->
<g id="node25" class="node"><title>24</title>
<polygon fill="none" stroke="black" points="639.463,-252 433.463,-252 433.463,-216 639.463,-216 639.463,-252"/>
<text text-anchor="middle" x="536.463" y="-230.3" font-family="Times,serif" font-size="14.00">Policies.EpsilonDecreasingMEGA</text>
</g>
<!-- 16&#45;&gt;24 -->
<g id="edge31" class="edge"><title>16&#45;&gt;24</title>
<path fill="none" stroke="black" d="M1521.76,-163.75C1409.25,-166.801 998.427,-179.83 649.596,-215.94"/>
<polygon fill="black" stroke="black" points="639.554,-216.987 649.033,-211.474 644.527,-216.469 649.5,-215.95 649.5,-215.95 649.5,-215.95 644.527,-216.469 649.967,-220.425 639.554,-216.987 639.554,-216.987"/>
</g>
<!-- 25 -->
<g id="node26" class="node"><title>25</title>
<polygon fill="none" stroke="black" points="844.963,-252 657.963,-252 657.963,-216 844.963,-216 844.963,-252"/>
<text text-anchor="middle" x="751.463" y="-230.3" font-family="Times,serif" font-size="14.00">Policies.EpsilonExpDecreasing</text>
</g>
<!-- 16&#45;&gt;25 -->
<g id="edge32" class="edge"><title>16&#45;&gt;25</title>
<path fill="none" stroke="black" d="M1521.66,-164.412C1425.42,-169.156 1114.32,-185.941 858.463,-216 857.366,-216.129 856.262,-216.261 855.153,-216.396"/>
<polygon fill="black" stroke="black" points="845.061,-217.68 854.413,-211.954 850.021,-217.049 854.981,-216.418 854.981,-216.418 854.981,-216.418 850.021,-217.049 855.549,-220.882 845.061,-217.68 845.061,-217.68"/>
</g>
<!-- 26 -->
<g id="node27" class="node"><title>26</title>
<polygon fill="none" stroke="black" points="192.963,-252 63.963,-252 63.963,-216 192.963,-216 192.963,-252"/>
<text text-anchor="middle" x="128.463" y="-230.3" font-family="Times,serif" font-size="14.00">Policies.EpsilonFirst</text>
</g>
<!-- 16&#45;&gt;26 -->
<g id="edge33" class="edge"><title>16&#45;&gt;26</title>
<path fill="none" stroke="black" d="M1521.78,-163.473C1349.29,-166.329 474.321,-182.282 207.463,-216 205.984,-216.187 204.492,-216.387 202.99,-216.6"/>
<polygon fill="black" stroke="black" points="192.976,-218.169 202.16,-212.176 197.916,-217.395 202.856,-216.621 202.856,-216.621 202.856,-216.621 197.916,-217.395 203.552,-221.067 192.976,-218.169 192.976,-218.169"/>
</g>
<!-- 27 -->
<g id="node28" class="node"><title>27</title>
<polygon fill="none" stroke="black" points="506.463,-324 362.463,-324 362.463,-288 506.463,-288 506.463,-324"/>
<text text-anchor="middle" x="434.463" y="-302.3" font-family="Times,serif" font-size="14.00">Policies.EpsilonGreedy</text>
</g>
<!-- 16&#45;&gt;27 -->
<g id="edge34" class="edge"><title>16&#45;&gt;27</title>
<path fill="none" stroke="black" d="M1521.82,-163.05C1331.36,-163.513 286.344,-168.227 240.463,-216 200.097,-258.031 282.539,-282.009 352.137,-294.252"/>
<polygon fill="black" stroke="black" points="362.296,-295.974 351.684,-298.74 357.366,-295.138 352.436,-294.303 352.436,-294.303 352.436,-294.303 357.366,-295.138 353.188,-289.866 362.296,-295.974 362.296,-295.974"/>
</g>
<!-- 28 -->
<g id="node29" class="node"><title>28</title>
<polygon fill="none" stroke="black" points="772.463,-396 680.463,-396 680.463,-360 772.463,-360 772.463,-396"/>
<text text-anchor="middle" x="726.463" y="-374.3" font-family="Times,serif" font-size="14.00">Policies.Exp3</text>
</g>
<!-- 16&#45;&gt;28 -->
<g id="edge35" class="edge"><title>16&#45;&gt;28</title>
<path fill="none" stroke="black" d="M1521.91,-162.814C1409.7,-162.5 1010.69,-165.062 896.463,-216 887.536,-219.981 796.03,-308.892 751.094,-352.844"/>
<polygon fill="black" stroke="black" points="743.788,-359.995 747.787,-349.784 747.361,-356.498 750.935,-353 750.935,-353 750.935,-353 747.361,-356.498 754.082,-356.216 743.788,-359.995 743.788,-359.995"/>
</g>
<!-- 31 -->
<g id="node32" class="node"><title>31</title>
<polygon fill="none" stroke="black" points="811.463,-468 707.463,-468 707.463,-432 811.463,-432 811.463,-468"/>
<text text-anchor="middle" x="759.463" y="-446.3" font-family="Times,serif" font-size="14.00">Policies.MEGA</text>
</g>
<!-- 16&#45;&gt;31 -->
<g id="edge36" class="edge"><title>16&#45;&gt;31</title>
<path fill="none" stroke="black" d="M1521.75,-162.844C1416.89,-162.729 1065.24,-166.148 966.463,-216 872.751,-263.295 802.197,-372.713 773.518,-422.94"/>
<polygon fill="black" stroke="black" points="768.499,-431.881 769.47,-420.958 770.947,-427.521 773.394,-423.161 773.394,-423.161 773.394,-423.161 770.947,-427.521 777.318,-425.363 768.499,-431.881 768.499,-431.881"/>
</g>
<!-- 32 -->
<g id="node33" class="node"><title>32</title>
<polygon fill="none" stroke="black" points="1252.96,-396 1151.96,-396 1151.96,-360 1252.96,-360 1252.96,-396"/>
<text text-anchor="middle" x="1202.46" y="-374.3" font-family="Times,serif" font-size="14.00">Policies.MOSS</text>
</g>
<!-- 16&#45;&gt;32 -->
<g id="edge37" class="edge"><title>16&#45;&gt;32</title>
<path fill="none" stroke="black" d="M1521.86,-163.861C1472,-166.414 1369.29,-176.476 1293.46,-216 1290.88,-217.344 1218.83,-285.434 1217.46,-288 1207.3,-307.073 1203.73,-331.429 1202.6,-349.839"/>
<polygon fill="black" stroke="black" points="1202.19,-359.906 1198.11,-349.73 1202.4,-354.911 1202.6,-349.915 1202.6,-349.915 1202.6,-349.915 1202.4,-354.911 1207.1,-350.099 1202.19,-359.906 1202.19,-359.906"/>
</g>
<!-- 33 -->
<g id="node34" class="node"><title>33</title>
<polygon fill="none" stroke="black" points="966.963,-468 829.963,-468 829.963,-432 966.963,-432 966.963,-468"/>
<text text-anchor="middle" x="898.463" y="-446.3" font-family="Times,serif" font-size="14.00">Policies.MusicalChair</text>
</g>
<!-- 16&#45;&gt;33 -->
<g id="edge38" class="edge"><title>16&#45;&gt;33</title>
<path fill="none" stroke="black" d="M1521.73,-164.157C1413.92,-168.584 1047.64,-185.742 1005.46,-216 934.184,-267.14 961.787,-316.609 924.463,-396 920.344,-404.761 915.726,-414.272 911.536,-422.786"/>
<polygon fill="black" stroke="black" points="907.039,-431.884 907.437,-420.925 909.255,-427.402 911.471,-422.92 911.471,-422.92 911.471,-422.92 909.255,-427.402 915.505,-424.914 907.039,-431.884 907.039,-431.884"/>
</g>
<!-- 35 -->
<g id="node36" class="node"><title>35</title>
<polygon fill="none" stroke="black" points="1095.46,-468 985.463,-468 985.463,-432 1095.46,-432 1095.46,-468"/>
<text text-anchor="middle" x="1040.46" y="-446.3" font-family="Times,serif" font-size="14.00">Policies.Softmax</text>
</g>
<!-- 16&#45;&gt;35 -->
<g id="edge39" class="edge"><title>16&#45;&gt;35</title>
<path fill="none" stroke="black" d="M1521.64,-164.08C1416.95,-168.134 1070.53,-183.888 1033.46,-216 974.657,-266.945 1008.12,-372.782 1028.44,-422.331"/>
<polygon fill="black" stroke="black" points="1032.42,-431.734 1024.38,-424.276 1030.47,-427.128 1028.52,-422.523 1028.52,-422.523 1028.52,-422.523 1030.47,-427.128 1032.66,-420.771 1032.42,-431.734 1032.42,-431.734"/>
</g>
<!-- 36 -->
<g id="node37" class="node"><title>36</title>
<polygon fill="none" stroke="black" points="1170.46,-324 1024.46,-324 1024.46,-288 1170.46,-288 1170.46,-324"/>
<text text-anchor="middle" x="1097.46" y="-302.3" font-family="Times,serif" font-size="14.00">Policies.TakeFixedArm</text>
</g>
<!-- 16&#45;&gt;36 -->
<g id="edge40" class="edge"><title>16&#45;&gt;36</title>
<path fill="none" stroke="black" d="M1521.93,-163.827C1418.28,-167.03 1075.67,-180.263 1043.46,-216 1025.58,-235.85 1046.36,-262.456 1067.11,-281.395"/>
<polygon fill="black" stroke="black" points="1074.69,-287.998 1064.19,-284.818 1070.92,-284.712 1067.15,-281.426 1067.15,-281.426 1067.15,-281.426 1070.92,-284.712 1070.11,-278.034 1074.69,-287.998 1074.69,-287.998"/>
</g>
<!-- 37 -->
<g id="node38" class="node"><title>37</title>
<polygon fill="none" stroke="black" points="1245.96,-252 1052.96,-252 1052.96,-216 1245.96,-216 1245.96,-252"/>
<text text-anchor="middle" x="1149.46" y="-230.3" font-family="Times,serif" font-size="14.00">Policies.TakeRandomFixedArm</text>
</g>
<!-- 16&#45;&gt;37 -->
<g id="edge41" class="edge"><title>16&#45;&gt;37</title>
<path fill="none" stroke="black" d="M1521.9,-168.147C1466.68,-177.764 1345.35,-198.89 1256.12,-214.428"/>
<polygon fill="black" stroke="black" points="1246.22,-216.151 1255.3,-210.002 1251.15,-215.293 1256.08,-214.436 1256.08,-214.436 1256.08,-214.436 1251.15,-215.293 1256.85,-218.869 1246.22,-216.151 1246.22,-216.151"/>
</g>
<!-- 38 -->
<g id="node39" class="node"><title>38</title>
<polygon fill="none" stroke="black" points="2255.46,-252 2133.46,-252 2133.46,-216 2255.46,-216 2255.46,-252"/>
<text text-anchor="middle" x="2194.46" y="-230.3" font-family="Times,serif" font-size="14.00">Policies.Thompson</text>
</g>
<!-- 16&#45;&gt;38 -->
<g id="edge42" class="edge"><title>16&#45;&gt;38</title>
<path fill="none" stroke="black" d="M1581.2,-164.411C1665.82,-168.718 1915.05,-183.437 2119.46,-216 2120.72,-216.201 2122,-216.41 2123.27,-216.628"/>
<polygon fill="black" stroke="black" points="2133.19,-218.431 2122.55,-221.07 2128.27,-217.537 2123.36,-216.642 2123.36,-216.642 2123.36,-216.642 2128.27,-217.537 2124.16,-212.215 2133.19,-218.431 2133.19,-218.431"/>
</g>
<!-- 39 -->
<g id="node40" class="node"><title>39</title>
<polygon fill="none" stroke="black" points="1808.96,-396 1717.96,-396 1717.96,-360 1808.96,-360 1808.96,-396"/>
<text text-anchor="middle" x="1763.46" y="-374.3" font-family="Times,serif" font-size="14.00">Policies.UCB</text>
</g>
<!-- 16&#45;&gt;39 -->
<g id="edge43" class="edge"><title>16&#45;&gt;39</title>
<path fill="none" stroke="black" d="M1581.07,-174.739C1600.87,-183.732 1626.49,-197.704 1644.46,-216 1682.79,-255.022 1669.34,-281.252 1703.46,-324 1711.88,-334.543 1722.54,-344.709 1732.53,-353.27"/>
<polygon fill="black" stroke="black" points="1740.34,-359.767 1729.78,-356.834 1736.5,-356.57 1732.65,-353.373 1732.65,-353.373 1732.65,-353.373 1736.5,-356.57 1735.53,-349.913 1740.34,-359.767 1740.34,-359.767"/>
</g>
<!-- 40 -->
<g id="node41" class="node"><title>40</title>
<polygon fill="none" stroke="black" points="1813.96,-324 1712.96,-324 1712.96,-288 1813.96,-288 1813.96,-324"/>
<text text-anchor="middle" x="1763.46" y="-302.3" font-family="Times,serif" font-size="14.00">Policies.UCBV</text>
</g>
<!-- 16&#45;&gt;40 -->
<g id="edge44" class="edge"><title>16&#45;&gt;40</title>
<path fill="none" stroke="black" d="M1581.14,-163.593C1650.1,-165.661 1817.97,-174.9 1852.46,-216 1862.75,-228.255 1860.37,-238.09 1852.46,-252 1845.1,-264.957 1833.17,-275.08 1820.42,-282.845"/>
<polygon fill="black" stroke="black" points="1811.49,-287.85 1818.01,-279.032 1815.86,-285.403 1820.22,-282.957 1820.22,-282.957 1820.22,-282.957 1815.86,-285.403 1822.42,-286.881 1811.49,-287.85 1811.49,-287.85"/>
</g>
<!-- 41 -->
<g id="node42" class="node"><title>41</title>
<polygon fill="none" stroke="black" points="1843.96,-252 1712.96,-252 1712.96,-216 1843.96,-216 1843.96,-252"/>
<text text-anchor="middle" x="1778.46" y="-230.3" font-family="Times,serif" font-size="14.00">Policies.UCBVtuned</text>
</g>
<!-- 16&#45;&gt;41 -->
<g id="edge45" class="edge"><title>16&#45;&gt;41</title>
<path fill="none" stroke="black" d="M1581.14,-172.151C1614.55,-182.453 1669.84,-199.505 1713.41,-212.94"/>
<polygon fill="black" stroke="black" points="1723.08,-215.922 1712.2,-217.276 1718.3,-214.449 1713.53,-212.975 1713.53,-212.975 1713.53,-212.975 1718.3,-214.449 1714.85,-208.675 1723.08,-215.922 1723.08,-215.922"/>
</g>
<!-- 42 -->
<g id="node43" class="node"><title>42</title>
<polygon fill="none" stroke="black" points="1656.46,-324 1536.46,-324 1536.46,-288 1656.46,-288 1656.46,-324"/>
<text text-anchor="middle" x="1596.46" y="-302.3" font-family="Times,serif" font-size="14.00">Policies.UCBalpha</text>
</g>
<!-- 16&#45;&gt;42 -->
<g id="edge46" class="edge"><title>16&#45;&gt;42</title>
<path fill="none" stroke="black" d="M1581.15,-175.206C1598.04,-183.877 1617.71,-197.318 1627.46,-216 1638.13,-236.444 1627.66,-261.353 1616.09,-279.614"/>
<polygon fill="black" stroke="black" points="1610.41,-287.996 1612.29,-277.193 1613.21,-283.857 1616.02,-279.718 1616.02,-279.718 1616.02,-279.718 1613.21,-283.857 1619.74,-282.242 1610.41,-287.996 1610.41,-287.996"/>
</g>
<!-- 43 -->
<g id="node44" class="node"><title>43</title>
<polygon fill="none" stroke="black" points="1940.46,-324 1832.46,-324 1832.46,-288 1940.46,-288 1940.46,-324"/>
<text text-anchor="middle" x="1886.46" y="-302.3" font-family="Times,serif" font-size="14.00">Policies.UCBopt</text>
</g>
<!-- 16&#45;&gt;43 -->
<g id="edge47" class="edge"><title>16&#45;&gt;43</title>
<path fill="none" stroke="black" d="M1581.08,-163.71C1652.21,-166.052 1829.8,-175.876 1870.46,-216 1886.57,-231.89 1889.61,-258.091 1889.19,-277.96"/>
<polygon fill="black" stroke="black" points="1888.69,-287.963 1884.7,-277.749 1888.94,-282.969 1889.19,-277.976 1889.19,-277.976 1889.19,-277.976 1888.94,-282.969 1893.69,-278.202 1888.69,-287.963 1888.69,-287.963"/>
</g>
<!-- 44 -->
<g id="node45" class="node"><title>44</title>
<polygon fill="none" stroke="black" points="2071.96,-324 1958.96,-324 1958.96,-288 2071.96,-288 2071.96,-324"/>
<text text-anchor="middle" x="2015.46" y="-302.3" font-family="Times,serif" font-size="14.00">Policies.UCBplus</text>
</g>
<!-- 16&#45;&gt;44 -->
<g id="edge48" class="edge"><title>16&#45;&gt;44</title>
<path fill="none" stroke="black" d="M1581.08,-162.955C1641.97,-163.843 1784.63,-171.009 1893.46,-216 1930.52,-231.321 1966.85,-260.109 1990.09,-280.799"/>
<polygon fill="black" stroke="black" points="1997.75,-287.745 1987.32,-284.357 1994.05,-284.385 1990.34,-281.025 1990.34,-281.025 1990.34,-281.025 1994.05,-284.385 1993.37,-277.692 1997.75,-287.745 1997.75,-287.745"/>
</g>
<!-- 45 -->
<g id="node46" class="node"><title>45</title>
<polygon fill="none" stroke="black" points="2242.46,-324 2090.46,-324 2090.46,-288 2242.46,-288 2242.46,-324"/>
<text text-anchor="middle" x="2166.46" y="-302.3" font-family="Times,serif" font-size="14.00">Policies.UCBrandomInit</text>
</g>
<!-- 16&#45;&gt;45 -->
<g id="edge49" class="edge"><title>16&#45;&gt;45</title>
<path fill="none" stroke="black" d="M1581.05,-164.667C1646.45,-168.866 1807.85,-182.073 1938.46,-216 2003.93,-233.005 2076.13,-263.272 2121.38,-283.734"/>
<polygon fill="black" stroke="black" points="2130.62,-287.944 2119.65,-287.891 2126.07,-285.87 2121.52,-283.796 2121.52,-283.796 2121.52,-283.796 2126.07,-285.87 2123.39,-279.701 2130.62,-287.944 2130.62,-287.944"/>
</g>
<!-- 46 -->
<g id="node47" class="node"><title>46</title>
<polygon fill="none" stroke="black" points="2035.96,-396 1910.96,-396 1910.96,-360 2035.96,-360 2035.96,-396"/>
<text text-anchor="middle" x="1973.46" y="-374.3" font-family="Times,serif" font-size="14.00">Policies.UCBwrong</text>
</g>
<!-- 16&#45;&gt;46 -->
<g id="edge50" class="edge"><title>16&#45;&gt;46</title>
<path fill="none" stroke="black" d="M1581.09,-164.701C1653.72,-169.252 1846.17,-183.632 2003.46,-216 2058.42,-227.309 2070.58,-236.349 2124.46,-252 2180.8,-268.365 2216.08,-241.199 2251.46,-288 2344.87,-411.563 2306.87,-306.519 2046.36,-358.825"/>
<polygon fill="black" stroke="black" points="2036.2,-360.922 2045.08,-354.494 2041.09,-359.911 2045.99,-358.901 2045.99,-358.901 2045.99,-358.901 2041.09,-359.911 2046.9,-363.308 2036.2,-360.922 2036.2,-360.922"/>
</g>
<!-- 47 -->
<g id="node48" class="node"><title>47</title>
<polygon fill="none" stroke="black" points="2604.46,-324 2494.46,-324 2494.46,-288 2604.46,-288 2604.46,-324"/>
<text text-anchor="middle" x="2549.46" y="-302.3" font-family="Times,serif" font-size="14.00">Policies.Uniform</text>
</g>
<!-- 16&#45;&gt;47 -->
<g id="edge51" class="edge"><title>16&#45;&gt;47</title>
<path fill="none" stroke="black" d="M1581.23,-163.643C1723.39,-166.876 2329.49,-182.532 2406.46,-216 2427.8,-225.276 2425.43,-238.617 2444.46,-252 2461.53,-264.004 2481.7,-274.869 2499.78,-283.592"/>
<polygon fill="black" stroke="black" points="2509.02,-287.954 2498.05,-287.753 2504.5,-285.819 2499.98,-283.683 2499.98,-283.683 2499.98,-283.683 2504.5,-285.819 2501.9,-279.614 2509.02,-287.954 2509.02,-287.954"/>
</g>
<!-- 48 -->
<g id="node49" class="node"><title>48</title>
<polygon fill="none" stroke="black" points="2611.46,-252 2453.46,-252 2453.46,-216 2611.46,-216 2611.46,-252"/>
<text text-anchor="middle" x="2532.46" y="-230.3" font-family="Times,serif" font-size="14.00">Policies.UniformOnSome</text>
</g>
<!-- 16&#45;&gt;48 -->
<g id="edge52" class="edge"><title>16&#45;&gt;48</title>
<path fill="none" stroke="black" d="M1581.09,-163.467C1693.48,-165.512 2104.06,-175.487 2439.46,-216 2440.75,-216.155 2442.04,-216.317 2443.34,-216.484"/>
<polygon fill="black" stroke="black" points="2453.41,-217.877 2442.89,-220.965 2448.46,-217.192 2443.51,-216.508 2443.51,-216.508 2443.51,-216.508 2448.46,-217.192 2444.13,-212.05 2453.41,-217.877 2453.41,-217.877"/>
</g>
<!-- 49 -->
<g id="node50" class="node"><title>49</title>
<polygon fill="none" stroke="black" points="1327.96,-324 1226.96,-324 1226.96,-288 1327.96,-288 1327.96,-324"/>
<text text-anchor="middle" x="1277.46" y="-302.3" font-family="Times,serif" font-size="14.00">Policies.klUCB</text>
</g>
<!-- 16&#45;&gt;49 -->
<g id="edge53" class="edge"><title>16&#45;&gt;49</title>
<path fill="none" stroke="black" d="M1525.15,-180.059C1510.21,-190.055 1491.38,-203.199 1475.46,-216 1457.08,-230.781 1456.77,-240.002 1436.46,-252 1406.06,-269.962 1368.75,-282.805 1337.91,-291.345"/>
<polygon fill="black" stroke="black" points="1328.14,-293.968 1336.63,-287.029 1332.97,-292.671 1337.8,-291.375 1337.8,-291.375 1337.8,-291.375 1332.97,-292.671 1338.97,-295.721 1328.14,-293.968 1328.14,-293.968"/>
</g>
<!-- 50 -->
<g id="node51" class="node"><title>50</title>
<polygon fill="none" stroke="black" points="1618.46,-252 1484.46,-252 1484.46,-216 1618.46,-216 1618.46,-252"/>
<text text-anchor="middle" x="1551.46" y="-230.3" font-family="Times,serif" font-size="14.00">Policies.klUCBHPlus</text>
</g>
<!-- 16&#45;&gt;50 -->
<g id="edge54" class="edge"><title>16&#45;&gt;50</title>
<path fill="none" stroke="black" d="M1551.46,-180.303C1551.46,-188.017 1551.46,-197.288 1551.46,-205.888"/>
<polygon fill="black" stroke="black" points="1551.46,-215.896 1546.96,-205.896 1551.46,-210.896 1551.46,-205.896 1551.46,-205.896 1551.46,-205.896 1551.46,-210.896 1555.96,-205.896 1551.46,-215.896 1551.46,-215.896"/>
</g>
<!-- 51 -->
<g id="node52" class="node"><title>51</title>
<polygon fill="none" stroke="black" points="1427.96,-252 1302.96,-252 1302.96,-216 1427.96,-216 1427.96,-252"/>
<text text-anchor="middle" x="1365.46" y="-230.3" font-family="Times,serif" font-size="14.00">Policies.klUCBPlus</text>
</g>
<!-- 16&#45;&gt;51 -->
<g id="edge55" class="edge"><title>16&#45;&gt;51</title>
<path fill="none" stroke="black" d="M1521.58,-174.247C1494.38,-184.483 1453.55,-199.851 1420.46,-212.302"/>
<polygon fill="black" stroke="black" points="1410.91,-215.896 1418.68,-208.162 1415.59,-214.135 1420.27,-212.374 1420.27,-212.374 1420.27,-212.374 1415.59,-214.135 1421.85,-216.586 1410.91,-215.896 1410.91,-215.896"/>
</g>
<!-- 19 -->
<g id="node20" class="node"><title>19</title>
<polygon fill="none" stroke="black" points="1031.46,-540 907.463,-540 907.463,-504 1031.46,-504 1031.46,-540"/>
<text text-anchor="middle" x="969.463" y="-518.3" font-family="Times,serif" font-size="14.00">Policies.BasePolicy</text>
</g>
<!-- 17&#45;&gt;19 -->
<g id="edge56" class="edge"><title>17&#45;&gt;19</title>
<path fill="none" stroke="black" d="M2675.28,-324.227C2657.73,-358.949 2612.74,-436.691 2548.46,-468 2480.04,-501.331 1342.93,-516.71 1042.03,-520.207"/>
<polygon fill="black" stroke="black" points="1031.68,-520.327 1041.63,-515.711 1036.68,-520.269 1041.68,-520.211 1041.68,-520.211 1041.68,-520.211 1036.68,-520.269 1041.73,-524.711 1031.68,-520.327 1031.68,-520.327"/>
</g>
<!-- 22 -->
<g id="node23" class="node"><title>22</title>
<polygon fill="none" stroke="black" points="2527.46,-396 2439.46,-396 2439.46,-360 2527.46,-360 2527.46,-396"/>
<text text-anchor="middle" x="2483.46" y="-374.3" font-family="Times,serif" font-size="14.00">Policies.Beta</text>
</g>
<!-- 17&#45;&gt;22 -->
<g id="edge57" class="edge"><title>17&#45;&gt;22</title>
<path fill="none" stroke="black" d="M2634.79,-324.034C2605.27,-334.369 2567.55,-347.57 2537.16,-358.208"/>
<polygon fill="black" stroke="black" points="2527.56,-361.565 2535.52,-354.014 2532.28,-359.913 2537,-358.261 2537,-358.261 2537,-358.261 2532.28,-359.913 2538.49,-362.508 2527.56,-361.565 2527.56,-361.565"/>
</g>
<!-- 18&#45;&gt;19 -->
<g id="edge58" class="edge"><title>18&#45;&gt;19</title>
<path fill="none" stroke="black" d="M305.229,-455.512C425.474,-467.367 751.092,-499.47 897.016,-513.857"/>
<polygon fill="black" stroke="black" points="907.206,-514.862 896.813,-518.359 902.23,-514.371 897.255,-513.881 897.255,-513.881 897.255,-513.881 902.23,-514.371 897.696,-509.402 907.206,-514.862 907.206,-514.862"/>
</g>
<!-- 21 -->
<g id="node22" class="node"><title>21</title>
<polygon fill="none" stroke="black" points="2476.46,-324 2298.46,-324 2298.46,-288 2476.46,-288 2476.46,-324"/>
<text text-anchor="middle" x="2387.46" y="-302.3" font-family="Times,serif" font-size="14.00">Policies.BayesianIndexPolicy</text>
</g>
<!-- 20&#45;&gt;21 -->
<g id="edge59" class="edge"><title>20&#45;&gt;21</title>
<path fill="none" stroke="black" d="M2348.32,-252.303C2354.49,-260.611 2362,-270.723 2368.79,-279.859"/>
<polygon fill="black" stroke="black" points="2374.76,-287.896 2365.18,-282.552 2371.78,-283.882 2368.79,-279.868 2368.79,-279.868 2368.79,-279.868 2371.78,-283.882 2372.41,-277.185 2374.76,-287.896 2374.76,-287.896"/>
</g>
<!-- 21&#45;&gt;22 -->
<g id="edge60" class="edge"><title>21&#45;&gt;22</title>
<path fill="none" stroke="black" d="M2411.19,-324.303C2423.4,-333.204 2438.45,-344.177 2451.65,-353.801"/>
<polygon fill="black" stroke="black" points="2460.01,-359.896 2449.27,-357.64 2455.97,-356.95 2451.93,-354.004 2451.93,-354.004 2451.93,-354.004 2455.97,-356.95 2454.58,-350.368 2460.01,-359.896 2460.01,-359.896"/>
</g>
<!-- 29 -->
<g id="node30" class="node"><title>29</title>
<polygon fill="none" stroke="black" points="1515.46,-468 1387.46,-468 1387.46,-432 1515.46,-432 1515.46,-468"/>
<text text-anchor="middle" x="1451.46" y="-446.3" font-family="Times,serif" font-size="14.00">Policies.IndexPolicy</text>
</g>
<!-- 21&#45;&gt;29 -->
<g id="edge61" class="edge"><title>21&#45;&gt;29</title>
<path fill="none" stroke="black" d="M2333.12,-324.071C2265.99,-344.465 2147.97,-378.072 2044.46,-396 1859.53,-428.032 1638.6,-441.288 1525.78,-446.288"/>
<polygon fill="black" stroke="black" points="1515.53,-446.733 1525.33,-441.803 1520.53,-446.516 1525.52,-446.299 1525.52,-446.299 1525.52,-446.299 1520.53,-446.516 1525.72,-450.795 1515.53,-446.733 1515.53,-446.733"/>
</g>
<!-- 34 -->
<g id="node35" class="node"><title>34</title>
<polygon fill="none" stroke="black" points="2539.46,-468 2427.46,-468 2427.46,-432 2539.46,-432 2539.46,-468"/>
<text text-anchor="middle" x="2483.46" y="-446.3" font-family="Times,serif" font-size="14.00">Policies.Posterior</text>
</g>
<!-- 22&#45;&gt;34 -->
<g id="edge62" class="edge"><title>22&#45;&gt;34</title>
<path fill="none" stroke="black" d="M2483.46,-396.303C2483.46,-404.017 2483.46,-413.288 2483.46,-421.888"/>
<polygon fill="black" stroke="black" points="2483.46,-431.896 2478.96,-421.896 2483.46,-426.896 2483.46,-421.896 2483.46,-421.896 2483.46,-421.896 2483.46,-426.896 2487.96,-421.896 2483.46,-431.896 2483.46,-431.896"/>
</g>
<!-- 23&#45;&gt;27 -->
<g id="edge63" class="edge"><title>23&#45;&gt;27</title>
<path fill="none" stroke="black" d="M357.415,-252.124C370.505,-261.107 386.723,-272.237 400.899,-281.966"/>
<polygon fill="black" stroke="black" points="409.415,-287.81 398.624,-285.862 405.293,-284.981 401.17,-282.152 401.17,-282.152 401.17,-282.152 405.293,-284.981 403.716,-278.441 409.415,-287.81 409.415,-287.81"/>
</g>
<!-- 24&#45;&gt;27 -->
<g id="edge64" class="edge"><title>24&#45;&gt;27</title>
<path fill="none" stroke="black" d="M511.511,-252.124C498.422,-261.107 482.203,-272.237 468.027,-281.966"/>
<polygon fill="black" stroke="black" points="459.511,-287.81 465.21,-278.441 463.634,-284.981 467.756,-282.152 467.756,-282.152 467.756,-282.152 463.634,-284.981 470.302,-285.862 459.511,-287.81 459.511,-287.81"/>
</g>
<!-- 25&#45;&gt;27 -->
<g id="edge65" class="edge"><title>25&#45;&gt;27</title>
<path fill="none" stroke="black" d="M674.321,-252.034C626.485,-262.598 565.085,-276.156 516.382,-286.911"/>
<polygon fill="black" stroke="black" points="506.506,-289.091 515.3,-282.541 511.388,-288.013 516.271,-286.935 516.271,-286.935 516.271,-286.935 511.388,-288.013 517.241,-291.329 506.506,-289.091 506.506,-289.091"/>
</g>
<!-- 26&#45;&gt;27 -->
<g id="edge66" class="edge"><title>26&#45;&gt;27</title>
<path fill="none" stroke="black" d="M192.984,-249.76C239.423,-260.383 302.432,-274.797 352.442,-286.237"/>
<polygon fill="black" stroke="black" points="362.262,-288.483 351.51,-290.64 357.388,-287.368 352.514,-286.253 352.514,-286.253 352.514,-286.253 357.388,-287.368 353.517,-281.867 362.262,-288.483 362.262,-288.483"/>
</g>
<!-- 27&#45;&gt;19 -->
<g id="edge67" class="edge"><title>27&#45;&gt;19</title>
<path fill="none" stroke="black" d="M455.264,-324.226C496.669,-357.565 593.526,-430.888 687.463,-468 755.755,-494.98 838.894,-508.462 897.143,-515.045"/>
<polygon fill="black" stroke="black" points="907.357,-516.157 896.928,-519.548 902.386,-515.616 897.416,-515.074 897.416,-515.074 897.416,-515.074 902.386,-515.616 897.903,-510.601 907.357,-516.157 907.357,-516.157"/>
</g>
<!-- 28&#45;&gt;19 -->
<g id="edge68" class="edge"><title>28&#45;&gt;19</title>
<path fill="none" stroke="black" d="M712.429,-396.219C698.423,-415.606 681.269,-447.117 698.463,-468 723.187,-498.027 825.451,-511.283 897.022,-516.964"/>
<polygon fill="black" stroke="black" points="907.346,-517.748 897.034,-521.478 902.36,-517.369 897.375,-516.991 897.375,-516.991 897.375,-516.991 902.36,-517.369 897.716,-512.504 907.346,-517.748 907.346,-517.748"/>
</g>
<!-- 29&#45;&gt;19 -->
<g id="edge69" class="edge"><title>29&#45;&gt;19</title>
<path fill="none" stroke="black" d="M1387.46,-460.295C1297.89,-473.303 1135.64,-496.867 1041.8,-510.495"/>
<polygon fill="black" stroke="black" points="1031.82,-511.944 1041.07,-506.053 1036.77,-511.225 1041.72,-510.507 1041.72,-510.507 1041.72,-510.507 1036.77,-511.225 1042.36,-514.96 1031.82,-511.944 1031.82,-511.944"/>
</g>
<!-- 30 -->
<g id="node31" class="node"><title>30</title>
<polygon fill="none" stroke="black" points="1517.96,-324 1384.96,-324 1384.96,-288 1517.96,-288 1517.96,-324"/>
<text text-anchor="middle" x="1451.46" y="-302.3" font-family="Times,serif" font-size="14.00">Policies.KLempUCB</text>
</g>
<!-- 30&#45;&gt;29 -->
<g id="edge70" class="edge"><title>30&#45;&gt;29</title>
<path fill="none" stroke="black" d="M1451.46,-324.129C1451.46,-348.33 1451.46,-392.789 1451.46,-421.607"/>
<polygon fill="black" stroke="black" points="1451.46,-431.811 1446.96,-421.811 1451.46,-426.811 1451.46,-421.811 1451.46,-421.811 1451.46,-421.811 1451.46,-426.811 1455.96,-421.811 1451.46,-431.811 1451.46,-431.811"/>
</g>
<!-- 52 -->
<g id="node53" class="node"><title>52</title>
<polygon fill="none" stroke="black" points="1419.46,-396 1309.46,-396 1309.46,-360 1419.46,-360 1419.46,-396"/>
<text text-anchor="middle" x="1364.46" y="-374.3" font-family="Times,serif" font-size="14.00">Policies.kullback</text>
</g>
<!-- 30&#45;&gt;52 -->
<g id="edge71" class="edge"><title>30&#45;&gt;52</title>
<path fill="none" stroke="black" d="M1429.96,-324.303C1419,-333.119 1405.52,-343.968 1393.64,-353.526"/>
<polygon fill="black" stroke="black" points="1385.72,-359.896 1390.69,-350.121 1389.62,-356.761 1393.51,-353.627 1393.51,-353.627 1393.51,-353.627 1389.62,-356.761 1396.33,-357.133 1385.72,-359.896 1385.72,-359.896"/>
</g>
<!-- 31&#45;&gt;19 -->
<g id="edge72" class="edge"><title>31&#45;&gt;19</title>
<path fill="none" stroke="black" d="M810.566,-468.034C840.036,-477.858 877.276,-490.271 908.296,-500.611"/>
<polygon fill="black" stroke="black" points="918.131,-503.889 907.221,-504.996 913.387,-502.308 908.644,-500.727 908.644,-500.727 908.644,-500.727 913.387,-502.308 910.067,-496.458 918.131,-503.889 918.131,-503.889"/>
</g>
<!-- 32&#45;&gt;29 -->
<g id="edge73" class="edge"><title>32&#45;&gt;29</title>
<path fill="none" stroke="black" d="M1253.15,-393.25C1289.93,-403.59 1340.17,-417.712 1380.87,-429.156"/>
<polygon fill="black" stroke="black" points="1390.73,-431.928 1379.89,-433.554 1385.92,-430.575 1381.11,-429.221 1381.11,-429.221 1381.11,-429.221 1385.92,-430.575 1382.33,-424.889 1390.73,-431.928 1390.73,-431.928"/>
</g>
<!-- 33&#45;&gt;19 -->
<g id="edge74" class="edge"><title>33&#45;&gt;19</title>
<path fill="none" stroke="black" d="M916.014,-468.303C924.698,-476.865 935.326,-487.344 944.811,-496.696"/>
<polygon fill="black" stroke="black" points="952.114,-503.896 941.834,-500.079 948.554,-500.385 944.993,-496.875 944.993,-496.875 944.993,-496.875 948.554,-500.385 948.153,-493.67 952.114,-503.896 952.114,-503.896"/>
</g>
<!-- 35&#45;&gt;19 -->
<g id="edge75" class="edge"><title>35&#45;&gt;19</title>
<path fill="none" stroke="black" d="M1022.91,-468.303C1014.23,-476.865 1003.6,-487.344 994.115,-496.696"/>
<polygon fill="black" stroke="black" points="986.812,-503.896 990.773,-493.67 990.372,-500.385 993.933,-496.875 993.933,-496.875 993.933,-496.875 990.372,-500.385 997.092,-500.079 986.812,-503.896 986.812,-503.896"/>
</g>
<!-- 36&#45;&gt;19 -->
<g id="edge76" class="edge"><title>36&#45;&gt;19</title>
<path fill="none" stroke="black" d="M1104.41,-324.328C1115.85,-355.957 1134.56,-423.846 1104.46,-468 1090,-489.211 1065.65,-501.933 1041.57,-509.564"/>
<polygon fill="black" stroke="black" points="1031.67,-512.437 1040.02,-505.33 1036.47,-511.045 1041.27,-509.652 1041.27,-509.652 1041.27,-509.652 1036.47,-511.045 1042.52,-513.974 1031.67,-512.437 1031.67,-512.437"/>
</g>
<!-- 37&#45;&gt;36 -->
<g id="edge77" class="edge"><title>37&#45;&gt;36</title>
<path fill="none" stroke="black" d="M1136.61,-252.303C1130.44,-260.611 1122.93,-270.723 1116.14,-279.859"/>
<polygon fill="black" stroke="black" points="1110.17,-287.896 1112.52,-277.185 1113.15,-283.882 1116.13,-279.868 1116.13,-279.868 1116.13,-279.868 1113.15,-283.882 1119.74,-282.552 1110.17,-287.896 1110.17,-287.896"/>
</g>
<!-- 38&#45;&gt;21 -->
<g id="edge78" class="edge"><title>38&#45;&gt;21</title>
<path fill="none" stroke="black" d="M2241.68,-252.124C2268.53,-261.863 2302.34,-274.128 2330.64,-284.392"/>
<polygon fill="black" stroke="black" points="2340.4,-287.932 2329.47,-288.752 2335.7,-286.227 2331,-284.522 2331,-284.522 2331,-284.522 2335.7,-286.227 2332.54,-280.292 2340.4,-287.932 2340.4,-287.932"/>
</g>
<!-- 39&#45;&gt;29 -->
<g id="edge79" class="edge"><title>39&#45;&gt;29</title>
<path fill="none" stroke="black" d="M1717.76,-389.254C1667.36,-400.561 1585.51,-418.925 1525.84,-432.313"/>
<polygon fill="black" stroke="black" points="1515.72,-434.584 1524.49,-428.004 1520.6,-433.489 1525.47,-432.395 1525.47,-432.395 1525.47,-432.395 1520.6,-433.489 1526.46,-436.786 1515.72,-434.584 1515.72,-434.584"/>
</g>
<!-- 40&#45;&gt;39 -->
<g id="edge80" class="edge"><title>40&#45;&gt;39</title>
<path fill="none" stroke="black" d="M1763.46,-324.303C1763.46,-332.017 1763.46,-341.288 1763.46,-349.888"/>
<polygon fill="black" stroke="black" points="1763.46,-359.896 1758.96,-349.896 1763.46,-354.896 1763.46,-349.896 1763.46,-349.896 1763.46,-349.896 1763.46,-354.896 1767.96,-349.896 1763.46,-359.896 1763.46,-359.896"/>
</g>
<!-- 41&#45;&gt;40 -->
<g id="edge81" class="edge"><title>41&#45;&gt;40</title>
<path fill="none" stroke="black" d="M1774.76,-252.303C1773.1,-260.017 1771.12,-269.288 1769.27,-277.888"/>
<polygon fill="black" stroke="black" points="1767.13,-287.896 1764.82,-277.175 1768.18,-283.007 1769.22,-278.118 1769.22,-278.118 1769.22,-278.118 1768.18,-283.007 1773.62,-279.061 1767.13,-287.896 1767.13,-287.896"/>
</g>
<!-- 42&#45;&gt;39 -->
<g id="edge82" class="edge"><title>42&#45;&gt;39</title>
<path fill="none" stroke="black" d="M1637.32,-324.124C1660.25,-333.736 1689.04,-345.807 1713.33,-355.987"/>
<polygon fill="black" stroke="black" points="1722.74,-359.932 1711.78,-360.216 1718.13,-357.999 1713.52,-356.066 1713.52,-356.066 1713.52,-356.066 1718.13,-357.999 1715.26,-351.916 1722.74,-359.932 1722.74,-359.932"/>
</g>
<!-- 43&#45;&gt;39 -->
<g id="edge83" class="edge"><title>43&#45;&gt;39</title>
<path fill="none" stroke="black" d="M1856.37,-324.124C1840.14,-333.361 1819.92,-344.869 1802.49,-354.788"/>
<polygon fill="black" stroke="black" points="1793.67,-359.81 1800.13,-350.953 1798.01,-357.337 1802.36,-354.864 1802.36,-354.864 1802.36,-354.864 1798.01,-357.337 1804.58,-358.775 1793.67,-359.81 1793.67,-359.81"/>
</g>
<!-- 44&#45;&gt;39 -->
<g id="edge84" class="edge"><title>44&#45;&gt;39</title>
<path fill="none" stroke="black" d="M1958.91,-322.709C1917.13,-334.315 1860.53,-350.036 1819,-361.574"/>
<polygon fill="black" stroke="black" points="1809.31,-364.264 1817.74,-357.252 1814.13,-362.926 1818.95,-361.588 1818.95,-361.588 1818.95,-361.588 1814.13,-362.926 1820.15,-365.924 1809.31,-364.264 1809.31,-364.264"/>
</g>
<!-- 45&#45;&gt;39 -->
<g id="edge85" class="edge"><title>45&#45;&gt;39</title>
<path fill="none" stroke="black" d="M2090.05,-322.226C2086.81,-322.833 2083.61,-323.427 2080.46,-324 1989.21,-340.645 1882.79,-358.022 1819.39,-368.162"/>
<polygon fill="black" stroke="black" points="1809.21,-369.786 1818.37,-363.766 1814.15,-368.998 1819.08,-368.21 1819.08,-368.21 1819.08,-368.21 1814.15,-368.998 1819.79,-372.654 1809.21,-369.786 1809.21,-369.786"/>
</g>
<!-- 46&#45;&gt;29 -->
<g id="edge86" class="edge"><title>46&#45;&gt;29</title>
<path fill="none" stroke="black" d="M1910.76,-387.409C1814.02,-400.381 1628.79,-425.22 1525.57,-439.062"/>
<polygon fill="black" stroke="black" points="1515.54,-440.407 1524.85,-434.618 1520.5,-439.743 1525.45,-439.078 1525.45,-439.078 1525.45,-439.078 1520.5,-439.743 1526.05,-443.538 1515.54,-440.407 1515.54,-440.407"/>
</g>
<!-- 47&#45;&gt;19 -->
<g id="edge87" class="edge"><title>47&#45;&gt;19</title>
<path fill="none" stroke="black" d="M2494.35,-321.843C2491.35,-322.588 2488.37,-323.312 2485.46,-324 2332.61,-360.175 2294.51,-370.843 2139.46,-396 1726.59,-462.991 1225.7,-502.785 1041.71,-516.032"/>
<polygon fill="black" stroke="black" points="1031.62,-516.755 1041.27,-511.552 1036.61,-516.397 1041.59,-516.04 1041.59,-516.04 1041.59,-516.04 1036.61,-516.397 1041.91,-520.529 1031.62,-516.755 1031.62,-516.755"/>
</g>
<!-- 48&#45;&gt;47 -->
<g id="edge88" class="edge"><title>48&#45;&gt;47</title>
<path fill="none" stroke="black" d="M2536.67,-252.303C2538.56,-260.102 2540.84,-269.491 2542.95,-278.171"/>
<polygon fill="black" stroke="black" points="2545.31,-287.896 2538.58,-279.24 2544.13,-283.037 2542.95,-278.178 2542.95,-278.178 2542.95,-278.178 2544.13,-283.037 2547.32,-277.116 2545.31,-287.896 2545.31,-287.896"/>
</g>
<!-- 49&#45;&gt;29 -->
<g id="edge89" class="edge"><title>49&#45;&gt;29</title>
<path fill="none" stroke="black" d="M1277.32,-324.321C1278.09,-344.097 1282.32,-376.256 1300.46,-396 1320.38,-417.684 1349.69,-430.497 1377.2,-438.069"/>
<polygon fill="black" stroke="black" points="1387.23,-440.628 1376.43,-442.517 1382.39,-439.392 1377.54,-438.156 1377.54,-438.156 1377.54,-438.156 1382.39,-439.392 1378.65,-433.796 1387.23,-440.628 1387.23,-440.628"/>
</g>
<!-- 49&#45;&gt;52 -->
<g id="edge90" class="edge"><title>49&#45;&gt;52</title>
<path fill="none" stroke="black" d="M1298.97,-324.303C1309.93,-333.119 1323.41,-343.968 1335.29,-353.526"/>
<polygon fill="black" stroke="black" points="1343.2,-359.896 1332.59,-357.133 1339.31,-356.761 1335.41,-353.627 1335.41,-353.627 1335.41,-353.627 1339.31,-356.761 1338.23,-350.121 1343.2,-359.896 1343.2,-359.896"/>
</g>
<!-- 50&#45;&gt;49 -->
<g id="edge91" class="edge"><title>50&#45;&gt;49</title>
<path fill="none" stroke="black" d="M1484.13,-251.939C1443.16,-262.281 1389.77,-275.816 1342.46,-288 1341.02,-288.373 1339.55,-288.751 1338.07,-289.133"/>
<polygon fill="black" stroke="black" points="1328.2,-291.692 1336.75,-284.828 1333.04,-290.438 1337.88,-289.184 1337.88,-289.184 1337.88,-289.184 1333.04,-290.438 1339,-293.54 1328.2,-291.692 1328.2,-291.692"/>
</g>
<!-- 50&#45;&gt;52 -->
<g id="edge92" class="edge"><title>50&#45;&gt;52</title>
<path fill="none" stroke="black" d="M1484.13,-251.514C1437.63,-263.546 1382.87,-279.218 1375.46,-288 1361.24,-304.87 1359.39,-330.345 1360.58,-349.723"/>
<polygon fill="black" stroke="black" points="1361.49,-359.768 1356.1,-350.216 1361.04,-354.789 1360.59,-349.809 1360.59,-349.809 1360.59,-349.809 1361.04,-354.789 1365.07,-349.402 1361.49,-359.768 1361.49,-359.768"/>
</g>
<!-- 51&#45;&gt;49 -->
<g id="edge93" class="edge"><title>51&#45;&gt;49</title>
<path fill="none" stroke="black" d="M1343.71,-252.303C1332.63,-261.119 1318.99,-271.968 1306.97,-281.526"/>
<polygon fill="black" stroke="black" points="1298.97,-287.896 1303.99,-278.149 1302.88,-284.783 1306.79,-281.67 1306.79,-281.67 1306.79,-281.67 1302.88,-284.783 1309.59,-285.192 1298.97,-287.896 1298.97,-287.896"/>
</g>
<!-- 53 -->
<g id="node54" class="node"><title>53</title>
<polygon fill="none" stroke="black" points="3924.46,-180 3794.46,-180 3794.46,-144 3924.46,-144 3924.46,-180"/>
<text text-anchor="middle" x="3859.46" y="-158.3" font-family="Times,serif" font-size="14.00">PoliciesMultiPlayers</text>
</g>
<!-- 54 -->
<g id="node55" class="node"><title>54</title>
<polygon fill="none" stroke="black" points="3054.96,-252 2873.96,-252 2873.96,-216 3054.96,-216 3054.96,-252"/>
<text text-anchor="middle" x="2964.46" y="-230.3" font-family="Times,serif" font-size="14.00">PoliciesMultiPlayers.ALOHA</text>
</g>
<!-- 53&#45;&gt;54 -->
<g id="edge94" class="edge"><title>53&#45;&gt;54</title>
<path fill="none" stroke="black" d="M3794.25,-165.054C3659.73,-169.788 3341.61,-183.546 3065.27,-215.853"/>
<polygon fill="black" stroke="black" points="3055.05,-217.059 3064.45,-211.418 3060.01,-216.473 3064.98,-215.887 3064.98,-215.887 3064.98,-215.887 3060.01,-216.473 3065.5,-220.356 3055.05,-217.059 3055.05,-217.059"/>
</g>
<!-- 57 -->
<g id="node58" class="node"><title>57</title>
<polygon fill="none" stroke="black" points="4668.96,-252 4429.96,-252 4429.96,-216 4668.96,-216 4668.96,-252"/>
<text text-anchor="middle" x="4549.46" y="-230.3" font-family="Times,serif" font-size="14.00">PoliciesMultiPlayers.CentralizedCycling</text>
</g>
<!-- 53&#45;&gt;57 -->
<g id="edge95" class="edge"><title>53&#45;&gt;57</title>
<path fill="none" stroke="black" d="M3924.88,-168.357C4027.88,-176.971 4234.41,-194.968 4419.7,-215.822"/>
<polygon fill="black" stroke="black" points="4429.91,-216.975 4419.46,-220.323 4424.94,-216.414 4419.97,-215.852 4419.97,-215.852 4419.97,-215.852 4424.94,-216.414 4420.47,-211.38 4429.91,-216.975 4429.91,-216.975"/>
</g>
<!-- 58 -->
<g id="node59" class="node"><title>58</title>
<polygon fill="none" stroke="black" points="3972.96,-252 3745.96,-252 3745.96,-216 3972.96,-216 3972.96,-252"/>
<text text-anchor="middle" x="3859.46" y="-230.3" font-family="Times,serif" font-size="14.00">PoliciesMultiPlayers.CentralizedFixed</text>
</g>
<!-- 53&#45;&gt;58 -->
<g id="edge96" class="edge"><title>53&#45;&gt;58</title>
<path fill="none" stroke="black" d="M3859.46,-180.303C3859.46,-188.017 3859.46,-197.288 3859.46,-205.888"/>
<polygon fill="black" stroke="black" points="3859.46,-215.896 3854.96,-205.896 3859.46,-210.896 3859.46,-205.896 3859.46,-205.896 3859.46,-205.896 3859.46,-210.896 3863.96,-205.896 3859.46,-215.896 3859.46,-215.896"/>
</g>
<!-- 59 -->
<g id="node60" class="node"><title>59</title>
<polygon fill="none" stroke="black" points="3339.96,-252 3072.96,-252 3072.96,-216 3339.96,-216 3339.96,-252"/>
<text text-anchor="middle" x="3206.46" y="-230.3" font-family="Times,serif" font-size="14.00">PoliciesMultiPlayers.CentralizedMultiplePlay</text>
</g>
<!-- 53&#45;&gt;59 -->
<g id="edge97" class="edge"><title>53&#45;&gt;59</title>
<path fill="none" stroke="black" d="M3794.09,-169.447C3698.86,-178.911 3516.15,-197.351 3350.61,-215.768"/>
<polygon fill="black" stroke="black" points="3340.24,-216.925 3349.68,-211.344 3345.21,-216.37 3350.18,-215.816 3350.18,-215.816 3350.18,-215.816 3345.21,-216.37 3350.68,-220.289 3340.24,-216.925 3340.24,-216.925"/>
</g>
<!-- 62 -->
<g id="node63" class="node"><title>62</title>
<polygon fill="none" stroke="black" points="4181.96,-252 3990.96,-252 3990.96,-216 4181.96,-216 4181.96,-252"/>
<text text-anchor="middle" x="4086.46" y="-230.3" font-family="Times,serif" font-size="14.00">PoliciesMultiPlayers.OracleFair</text>
</g>
<!-- 53&#45;&gt;62 -->
<g id="edge98" class="edge"><title>53&#45;&gt;62</title>
<path fill="none" stroke="black" d="M3914.7,-180.034C3946.83,-189.943 3987.51,-202.486 4021.21,-212.879"/>
<polygon fill="black" stroke="black" points="4030.98,-215.889 4020.09,-217.243 4026.2,-214.416 4021.42,-212.942 4021.42,-212.942 4021.42,-212.942 4026.2,-214.416 4022.75,-208.642 4030.98,-215.889 4030.98,-215.889"/>
</g>
<!-- 63 -->
<g id="node64" class="node"><title>63</title>
<polygon fill="none" stroke="black" points="4412.46,-252 4200.46,-252 4200.46,-216 4412.46,-216 4412.46,-252"/>
<text text-anchor="middle" x="4306.46" y="-230.3" font-family="Times,serif" font-size="14.00">PoliciesMultiPlayers.OracleNotFair</text>
</g>
<!-- 53&#45;&gt;63 -->
<g id="edge99" class="edge"><title>53&#45;&gt;63</title>
<path fill="none" stroke="black" d="M3924.94,-173.254C3994.45,-184.139 4105.72,-201.563 4190.19,-214.792"/>
<polygon fill="black" stroke="black" points="4200.1,-216.343 4189.52,-219.242 4195.16,-215.57 4190.22,-214.796 4190.22,-214.796 4190.22,-214.796 4195.16,-215.57 4190.92,-210.35 4200.1,-216.343 4200.1,-216.343"/>
</g>
<!-- 64 -->
<g id="node65" class="node"><title>64</title>
<polygon fill="none" stroke="black" points="2855.46,-252 2667.46,-252 2667.46,-216 2855.46,-216 2855.46,-252"/>
<text text-anchor="middle" x="2761.46" y="-230.3" font-family="Times,serif" font-size="14.00">PoliciesMultiPlayers.Scenario1</text>
</g>
<!-- 53&#45;&gt;64 -->
<g id="edge100" class="edge"><title>53&#45;&gt;64</title>
<path fill="none" stroke="black" d="M3794.36,-163.984C3636.66,-166.902 3221.58,-177.782 2865.69,-215.939"/>
<polygon fill="black" stroke="black" points="2855.71,-217.018 2865.16,-211.469 2860.68,-216.481 2865.65,-215.943 2865.65,-215.943 2865.65,-215.943 2860.68,-216.481 2866.13,-220.417 2855.71,-217.018 2855.71,-217.018"/>
</g>
<!-- 65 -->
<g id="node66" class="node"><title>65</title>
<polygon fill="none" stroke="black" points="3528.96,-252 3357.96,-252 3357.96,-216 3528.96,-216 3528.96,-252"/>
<text text-anchor="middle" x="3443.46" y="-230.3" font-family="Times,serif" font-size="14.00">PoliciesMultiPlayers.Selfish</text>
</g>
<!-- 53&#45;&gt;65 -->
<g id="edge101" class="edge"><title>53&#45;&gt;65</title>
<path fill="none" stroke="black" d="M3794.25,-173.504C3731.58,-183.658 3633.93,-199.636 3539.2,-215.885"/>
<polygon fill="black" stroke="black" points="3529.16,-217.61 3538.25,-211.482 3534.09,-216.764 3539.01,-215.917 3539.01,-215.917 3539.01,-215.917 3534.09,-216.764 3539.78,-220.352 3529.16,-217.61 3529.16,-217.61"/>
</g>
<!-- 67 -->
<g id="node68" class="node"><title>67</title>
<polygon fill="none" stroke="black" points="3727.46,-252 3547.46,-252 3547.46,-216 3727.46,-216 3727.46,-252"/>
<text text-anchor="middle" x="3637.46" y="-230.3" font-family="Times,serif" font-size="14.00">PoliciesMultiPlayers.rhoRand</text>
</g>
<!-- 53&#45;&gt;67 -->
<g id="edge102" class="edge"><title>53&#45;&gt;67</title>
<path fill="none" stroke="black" d="M3805.44,-180.034C3774.02,-189.943 3734.24,-202.486 3701.28,-212.879"/>
<polygon fill="black" stroke="black" points="3691.73,-215.889 3699.91,-208.59 3696.5,-214.386 3701.27,-212.882 3701.27,-212.882 3701.27,-212.882 3696.5,-214.386 3702.62,-217.174 3691.73,-215.889 3691.73,-215.889"/>
</g>
<!-- 56 -->
<g id="node57" class="node"><title>56</title>
<polygon fill="none" stroke="black" points="3634.96,-324 3419.96,-324 3419.96,-288 3634.96,-288 3634.96,-324"/>
<text text-anchor="middle" x="3527.46" y="-302.3" font-family="Times,serif" font-size="14.00">PoliciesMultiPlayers.BaseMPPolicy</text>
</g>
<!-- 54&#45;&gt;56 -->
<g id="edge103" class="edge"><title>54&#45;&gt;56</title>
<path fill="none" stroke="black" d="M3055.07,-250.769C3057.9,-251.194 3060.7,-251.605 3063.46,-252 3180.98,-268.788 3315.85,-283.71 3409.79,-293.408"/>
<polygon fill="black" stroke="black" points="3419.89,-294.447 3409.48,-297.9 3414.91,-293.936 3409.94,-293.424 3409.94,-293.424 3409.94,-293.424 3414.91,-293.936 3410.4,-288.948 3419.89,-294.447 3419.89,-294.447"/>
</g>
<!-- 60 -->
<g id="node61" class="node"><title>60</title>
<polygon fill="none" stroke="black" points="3855.96,-324 3652.96,-324 3652.96,-288 3855.96,-288 3855.96,-324"/>
<text text-anchor="middle" x="3754.46" y="-302.3" font-family="Times,serif" font-size="14.00">PoliciesMultiPlayers.ChildPointer</text>
</g>
<!-- 54&#45;&gt;60 -->
<g id="edge104" class="edge"><title>54&#45;&gt;60</title>
<path fill="none" stroke="black" d="M3055.04,-250.957C3057.88,-251.328 3060.69,-251.677 3063.46,-252 3316.74,-281.519 3384.94,-260.959 3642.84,-288.002"/>
<polygon fill="black" stroke="black" points="3652.89,-289.069 3642.47,-292.487 3647.92,-288.541 3642.94,-288.013 3642.94,-288.013 3642.94,-288.013 3647.92,-288.541 3643.42,-283.538 3652.89,-289.069 3652.89,-289.069"/>
</g>
<!-- 55 -->
<g id="node56" class="node"><title>55</title>
<polygon fill="none" stroke="black" points="4324.96,-324 4067.96,-324 4067.96,-288 4324.96,-288 4324.96,-324"/>
<text text-anchor="middle" x="4196.46" y="-302.3" font-family="Times,serif" font-size="14.00">PoliciesMultiPlayers.BaseCentralizedPolicy</text>
</g>
<!-- 57&#45;&gt;55 -->
<g id="edge105" class="edge"><title>57&#45;&gt;55</title>
<path fill="none" stroke="black" d="M4463.56,-252.034C4411.78,-262.302 4345.74,-275.399 4292.27,-286.001"/>
<polygon fill="black" stroke="black" points="4282.44,-287.95 4291.38,-281.591 4287.35,-286.977 4292.25,-286.005 4292.25,-286.005 4292.25,-286.005 4287.35,-286.977 4293.13,-290.419 4282.44,-287.95 4282.44,-287.95"/>
</g>
<!-- 57&#45;&gt;56 -->
<g id="edge106" class="edge"><title>57&#45;&gt;56</title>
<path fill="none" stroke="black" d="M4429.92,-251.205C4427.08,-251.485 4424.25,-251.751 4421.46,-252 4079.97,-282.521 3989.73,-255.39 3645.17,-287.891"/>
<polygon fill="black" stroke="black" points="3635.17,-288.845 3644.69,-283.416 3640.14,-288.37 3645.12,-287.896 3645.12,-287.896 3645.12,-287.896 3640.14,-288.37 3645.55,-292.376 3635.17,-288.845 3635.17,-288.845"/>
</g>
<!-- 57&#45;&gt;60 -->
<g id="edge107" class="edge"><title>57&#45;&gt;60</title>
<path fill="none" stroke="black" d="M4429.91,-251.08C4427.07,-251.397 4424.25,-251.704 4421.46,-252 4226.55,-272.672 3998.82,-289.118 3866.2,-297.929"/>
<polygon fill="black" stroke="black" points="3856.03,-298.602 3865.72,-293.451 3861.02,-298.271 3866.01,-297.941 3866.01,-297.941 3866.01,-297.941 3861.02,-298.271 3866.31,-302.431 3856.03,-298.602 3856.03,-298.602"/>
</g>
<!-- 58&#45;&gt;55 -->
<g id="edge108" class="edge"><title>58&#45;&gt;55</title>
<path fill="none" stroke="black" d="M3941.47,-252.034C3990.7,-262.259 4053.43,-275.29 4104.36,-285.869"/>
<polygon fill="black" stroke="black" points="4114.38,-287.95 4103.67,-290.322 4109.48,-286.933 4104.59,-285.916 4104.59,-285.916 4104.59,-285.916 4109.48,-286.933 4105.5,-281.51 4114.38,-287.95 4114.38,-287.95"/>
</g>
<!-- 58&#45;&gt;56 -->
<g id="edge109" class="edge"><title>58&#45;&gt;56</title>
<path fill="none" stroke="black" d="M3778.67,-252.034C3730.18,-262.259 3668.37,-275.29 3618.2,-285.869"/>
<polygon fill="black" stroke="black" points="3608.33,-287.95 3617.19,-281.484 3613.22,-286.918 3618.11,-285.887 3618.11,-285.887 3618.11,-285.887 3613.22,-286.918 3619.04,-290.29 3608.33,-287.95 3608.33,-287.95"/>
</g>
<!-- 58&#45;&gt;60 -->
<g id="edge110" class="edge"><title>58&#45;&gt;60</title>
<path fill="none" stroke="black" d="M3833.78,-252.124C3820.18,-261.192 3803.29,-272.448 3788.6,-282.241"/>
<polygon fill="black" stroke="black" points="3780.25,-287.81 3786.07,-278.519 3784.41,-285.037 3788.57,-282.263 3788.57,-282.263 3788.57,-282.263 3784.41,-285.037 3791.06,-286.007 3780.25,-287.81 3780.25,-287.81"/>
</g>
<!-- 59&#45;&gt;56 -->
<g id="edge111" class="edge"><title>59&#45;&gt;56</title>
<path fill="none" stroke="black" d="M3284.58,-252.034C3331.37,-262.238 3390.97,-275.236 3439.43,-285.802"/>
<polygon fill="black" stroke="black" points="3449.28,-287.95 3438.55,-290.216 3444.39,-286.885 3439.51,-285.819 3439.51,-285.819 3439.51,-285.819 3444.39,-286.885 3440.46,-281.423 3449.28,-287.95 3449.28,-287.95"/>
</g>
<!-- 59&#45;&gt;60 -->
<g id="edge112" class="edge"><title>59&#45;&gt;60</title>
<path fill="none" stroke="black" d="M3340.05,-250.988C3449.12,-264.074 3592.05,-281.309 3642.94,-287.982"/>
<polygon fill="black" stroke="black" points="3652.86,-289.309 3642.35,-292.443 3647.9,-288.646 3642.95,-287.982 3642.95,-287.982 3642.95,-287.982 3647.9,-288.646 3643.54,-283.522 3652.86,-289.309 3652.86,-289.309"/>
</g>
<!-- 61 -->
<g id="node62" class="node"><title>61</title>
<polygon fill="none" stroke="black" points="5654.96,-36 5489.96,-36 5489.96,-0 5654.96,-0 5654.96,-36"/>
<text text-anchor="middle" x="5572.46" y="-14.3" font-family="Times,serif" font-size="14.00">PoliciesMultiPlayers.DMC</text>
</g>
<!-- 62&#45;&gt;55 -->
<g id="edge113" class="edge"><title>62&#45;&gt;55</title>
<path fill="none" stroke="black" d="M4113.37,-252.124C4127.62,-261.192 4145.31,-272.448 4160.7,-282.241"/>
<polygon fill="black" stroke="black" points="4169.45,-287.81 4158.6,-286.238 4165.23,-285.126 4161.01,-282.441 4161.01,-282.441 4161.01,-282.441 4165.23,-285.126 4163.43,-278.645 4169.45,-287.81 4169.45,-287.81"/>
</g>
<!-- 62&#45;&gt;56 -->
<g id="edge114" class="edge"><title>62&#45;&gt;56</title>
<path fill="none" stroke="black" d="M3990.93,-250.694C3987.74,-251.146 3984.57,-251.583 3981.46,-252 3834.95,-271.648 3795.04,-269.163 3645.22,-287.806"/>
<polygon fill="black" stroke="black" points="3635.19,-289.065 3644.55,-283.354 3640.15,-288.442 3645.11,-287.819 3645.11,-287.819 3645.11,-287.819 3640.15,-288.442 3645.67,-292.284 3635.19,-289.065 3635.19,-289.065"/>
</g>
<!-- 62&#45;&gt;60 -->
<g id="edge115" class="edge"><title>62&#45;&gt;60</title>
<path fill="none" stroke="black" d="M4005.67,-252.034C3957.18,-262.259 3895.37,-275.29 3845.2,-285.869"/>
<polygon fill="black" stroke="black" points="3835.33,-287.95 3844.19,-281.484 3840.22,-286.918 3845.11,-285.887 3845.11,-285.887 3845.11,-285.887 3840.22,-286.918 3846.04,-290.29 3835.33,-287.95 3835.33,-287.95"/>
</g>
<!-- 63&#45;&gt;55 -->
<g id="edge116" class="edge"><title>63&#45;&gt;55</title>
<path fill="none" stroke="black" d="M4279.55,-252.124C4265.3,-261.192 4247.62,-272.448 4232.23,-282.241"/>
<polygon fill="black" stroke="black" points="4223.48,-287.81 4229.5,-278.645 4227.69,-285.126 4231.91,-282.441 4231.91,-282.441 4231.91,-282.441 4227.69,-285.126 4234.33,-286.238 4223.48,-287.81 4223.48,-287.81"/>
</g>
<!-- 63&#45;&gt;56 -->
<g id="edge117" class="edge"><title>63&#45;&gt;56</title>
<path fill="none" stroke="black" d="M4200.3,-250.904C4196.99,-251.29 4193.7,-251.657 4190.46,-252 3951.5,-277.333 3887.48,-262.728 3645.35,-287.849"/>
<polygon fill="black" stroke="black" points="3635.17,-288.917 3644.65,-283.397 3640.15,-288.395 3645.12,-287.873 3645.12,-287.873 3645.12,-287.873 3640.15,-288.395 3645.59,-292.348 3635.17,-288.917 3635.17,-288.917"/>
</g>
<!-- 63&#45;&gt;60 -->
<g id="edge118" class="edge"><title>63&#45;&gt;60</title>
<path fill="none" stroke="black" d="M4200.28,-250.668C4196.97,-251.122 4193.69,-251.567 4190.46,-252 4080.4,-266.753 3954.45,-281.873 3866.32,-292.168"/>
<polygon fill="black" stroke="black" points="3856.3,-293.336 3865.72,-287.708 3861.27,-292.757 3866.24,-292.178 3866.24,-292.178 3866.24,-292.178 3861.27,-292.757 3866.76,-296.648 3856.3,-293.336 3856.3,-293.336"/>
</g>
<!-- 64&#45;&gt;56 -->
<g id="edge119" class="edge"><title>64&#45;&gt;56</title>
<path fill="none" stroke="black" d="M2855.72,-250.881C2858.66,-251.274 2861.58,-251.648 2864.46,-252 3054.65,-275.255 3276.82,-290.63 3409.62,-298.57"/>
<polygon fill="black" stroke="black" points="3419.82,-299.175 3409.57,-303.075 3414.82,-298.879 3409.83,-298.583 3409.83,-298.583 3409.83,-298.583 3414.82,-298.879 3410.1,-294.09 3419.82,-299.175 3419.82,-299.175"/>
</g>
<!-- 64&#45;&gt;60 -->
<g id="edge120" class="edge"><title>64&#45;&gt;60</title>
<path fill="none" stroke="black" d="M2855.7,-251.009C2858.65,-251.364 2861.58,-251.696 2864.46,-252 3205.87,-287.937 3296.85,-254.369 3642.84,-288.015"/>
<polygon fill="black" stroke="black" points="3652.89,-289.004 3642.5,-292.503 3647.92,-288.515 3642.94,-288.025 3642.94,-288.025 3642.94,-288.025 3647.92,-288.515 3643.38,-283.547 3652.89,-289.004 3652.89,-289.004"/>
</g>
<!-- 65&#45;&gt;56 -->
<g id="edge121" class="edge"><title>65&#45;&gt;56</title>
<path fill="none" stroke="black" d="M3464.23,-252.303C3474.7,-261.035 3487.57,-271.76 3498.96,-281.25"/>
<polygon fill="black" stroke="black" points="3506.94,-287.896 3496.37,-284.951 3503.1,-284.695 3499.26,-281.494 3499.26,-281.494 3499.26,-281.494 3503.1,-284.695 3502.14,-278.037 3506.94,-287.896 3506.94,-287.896"/>
</g>
<!-- 65&#45;&gt;60 -->
<g id="edge122" class="edge"><title>65&#45;&gt;60</title>
<path fill="none" stroke="black" d="M3519.14,-252.034C3564.38,-262.217 3621.99,-275.182 3668.88,-285.736"/>
<polygon fill="black" stroke="black" points="3678.71,-287.95 3667.97,-290.144 3673.83,-286.852 3668.96,-285.754 3668.96,-285.754 3668.96,-285.754 3673.83,-286.852 3669.94,-281.364 3678.71,-287.95 3678.71,-287.95"/>
</g>
<!-- 66 -->
<g id="node67" class="node"><title>66</title>
<polygon fill="none" stroke="black" points="5839.96,-36 5672.96,-36 5672.96,-0 5839.96,-0 5839.96,-36"/>
<text text-anchor="middle" x="5756.46" y="-14.3" font-family="Times,serif" font-size="14.00">PoliciesMultiPlayers.TDFS</text>
</g>
<!-- 67&#45;&gt;56 -->
<g id="edge123" class="edge"><title>67&#45;&gt;56</title>
<path fill="none" stroke="black" d="M3610.55,-252.124C3596.3,-261.192 3578.62,-272.448 3563.23,-282.241"/>
<polygon fill="black" stroke="black" points="3554.48,-287.81 3560.5,-278.645 3558.69,-285.126 3562.91,-282.441 3562.91,-282.441 3562.91,-282.441 3558.69,-285.126 3565.33,-286.238 3554.48,-287.81 3554.48,-287.81"/>
</g>
<!-- 67&#45;&gt;60 -->
<g id="edge124" class="edge"><title>67&#45;&gt;60</title>
<path fill="none" stroke="black" d="M3666.08,-252.124C3681.38,-261.276 3700.41,-272.658 3716.88,-282.515"/>
<polygon fill="black" stroke="black" points="3725.73,-287.81 3714.84,-286.538 3721.44,-285.243 3717.15,-282.676 3717.15,-282.676 3717.15,-282.676 3721.44,-285.243 3719.46,-278.814 3725.73,-287.81 3725.73,-287.81"/>
</g>
<!-- 68 -->
<g id="node69" class="node"><title>68</title>
<polygon fill="none" stroke="black" points="5912.46,-36 5858.46,-36 5858.46,-0 5912.46,-0 5912.46,-36"/>
<text text-anchor="middle" x="5885.46" y="-14.3" font-family="Times,serif" font-size="14.00">conf</text>
</g>
<!-- 69 -->
<g id="node70" class="node"><title>69</title>
<polygon fill="none" stroke="black" points="4809.96,-108 4720.96,-108 4720.96,-72 4809.96,-72 4809.96,-108"/>
<text text-anchor="middle" x="4765.46" y="-86.3" font-family="Times,serif" font-size="14.00">configuration</text>
</g>
<!-- 69&#45;&gt;0 -->
<g id="edge125" class="edge"><title>69&#45;&gt;0</title>
<path fill="none" stroke="black" d="M4805.83,-108.124C4832.73,-119.537 4867.8,-134.417 4893.89,-145.483"/>
<polygon fill="black" stroke="black" points="4903.41,-149.522 4892.45,-149.759 4898.81,-147.57 4894.2,-145.617 4894.2,-145.617 4894.2,-145.617 4898.81,-147.57 4895.96,-141.474 4903.41,-149.522 4903.41,-149.522"/>
</g>
<!-- 69&#45;&gt;2 -->
<g id="edge126" class="edge"><title>69&#45;&gt;2</title>
<path fill="none" stroke="black" d="M4810.02,-98.3461C4851.73,-106.233 4915.14,-120.85 4966.46,-144 5005.08,-161.422 5044.89,-189.669 5070.76,-209.662"/>
<polygon fill="black" stroke="black" points="5078.65,-215.839 5068,-213.219 5074.71,-212.757 5070.78,-209.676 5070.78,-209.676 5070.78,-209.676 5074.71,-212.757 5073.55,-206.132 5078.65,-215.839 5078.65,-215.839"/>
</g>
<!-- 69&#45;&gt;3 -->
<g id="edge127" class="edge"><title>69&#45;&gt;3</title>
<path fill="none" stroke="black" d="M4790.16,-108.114C4816.1,-126.072 4858.09,-155.098 4894.46,-180 4908.87,-189.864 4924.81,-200.707 4938.5,-210.001"/>
<polygon fill="black" stroke="black" points="4947.14,-215.86 4936.34,-213.97 4943,-213.053 4938.86,-210.246 4938.86,-210.246 4938.86,-210.246 4943,-213.053 4941.39,-206.522 4947.14,-215.86 4947.14,-215.86"/>
</g>
<!-- 69&#45;&gt;4 -->
<g id="edge128" class="edge"><title>69&#45;&gt;4</title>
<path fill="none" stroke="black" d="M4810.13,-97.9631C4859.94,-106.339 4942.57,-122.063 5011.46,-144 5042.64,-153.928 5121.36,-188.638 5172.51,-211.663"/>
<polygon fill="black" stroke="black" points="5181.73,-215.818 5170.76,-215.809 5177.17,-213.762 5172.61,-211.707 5172.61,-211.707 5172.61,-211.707 5177.17,-213.762 5174.46,-207.605 5181.73,-215.818 5181.73,-215.818"/>
</g>
<!-- 69&#45;&gt;5 -->
<g id="edge129" class="edge"><title>69&#45;&gt;5</title>
<path fill="none" stroke="black" d="M4761.6,-108.129C4756.13,-132.436 4746.04,-177.181 4739.55,-205.987"/>
<polygon fill="black" stroke="black" points="4737.34,-215.811 4735.15,-205.066 4738.44,-210.933 4739.54,-206.055 4739.54,-206.055 4739.54,-206.055 4738.44,-210.933 4743.93,-207.045 4737.34,-215.811 4737.34,-215.811"/>
</g>
<!-- 69&#45;&gt;16 -->
<g id="edge130" class="edge"><title>69&#45;&gt;16</title>
<path fill="none" stroke="black" d="M4720.95,-91.9695C4361.21,-99.8045 1933.91,-152.67 1591.57,-160.127"/>
<polygon fill="black" stroke="black" points="1581.38,-160.348 1591.28,-155.632 1586.38,-160.239 1591.38,-160.131 1591.38,-160.131 1591.38,-160.131 1586.38,-160.239 1591.48,-164.629 1581.38,-160.348 1581.38,-160.348"/>
</g>
<!-- 69&#45;&gt;52 -->
<g id="edge131" class="edge"><title>69&#45;&gt;52</title>
<path fill="none" stroke="black" d="M4720.83,-91.3098C4245.91,-94.7088 139.495,-126.666 54.463,-216 -21.0946,-295.381 -84.9125,-263.133 353.463,-324 753.498,-379.544 859.673,-319.037 1261.46,-360 1273.77,-361.255 1286.84,-363.049 1299.38,-365.005"/>
<polygon fill="black" stroke="black" points="1309.31,-366.602 1298.72,-369.457 1304.37,-365.808 1299.43,-365.014 1299.43,-365.014 1299.43,-365.014 1304.37,-365.808 1300.15,-360.571 1309.31,-366.602 1309.31,-366.602"/>
</g>
<!-- 69&#45;&gt;53 -->
<g id="edge132" class="edge"><title>69&#45;&gt;53</title>
<path fill="none" stroke="black" d="M4720.84,-94.4474C4575.78,-105.656 4116.4,-141.148 3934.59,-155.195"/>
<polygon fill="black" stroke="black" points="3924.58,-155.969 3934.21,-150.712 3929.57,-155.583 3934.55,-155.198 3934.55,-155.198 3934.55,-155.198 3929.57,-155.583 3934.9,-159.685 3924.58,-155.969 3924.58,-155.969"/>
</g>
<!-- 69&#45;&gt;64 -->
<g id="edge133" class="edge"><title>69&#45;&gt;64</title>
<path fill="none" stroke="black" d="M4720.74,-92.1194C4511.8,-97.7286 3611,-126.116 2865.85,-215.887"/>
<polygon fill="black" stroke="black" points="2855.72,-217.112 2865.1,-211.444 2860.68,-216.512 2865.64,-215.911 2865.64,-215.911 2865.64,-215.911 2860.68,-216.512 2866.18,-220.379 2855.72,-217.112 2855.72,-217.112"/>
</g>
<!-- 70 -->
<g id="node71" class="node"><title>70</title>
<polygon fill="none" stroke="black" points="5124.46,-108 4960.46,-108 4960.46,-72 5124.46,-72 5124.46,-108"/>
<text text-anchor="middle" x="5042.46" y="-86.3" font-family="Times,serif" font-size="14.00">configuration_multiplayers</text>
</g>
<!-- 70&#45;&gt;0 -->
<g id="edge134" class="edge"><title>70&#45;&gt;0</title>
<path fill="none" stroke="black" d="M5015.06,-108.124C5000.31,-117.345 4981.94,-128.828 4966.09,-138.735"/>
<polygon fill="black" stroke="black" points="4957.58,-144.053 4963.67,-134.937 4961.82,-141.403 4966.06,-138.753 4966.06,-138.753 4966.06,-138.753 4961.82,-141.403 4968.44,-142.569 4957.58,-144.053 4957.58,-144.053"/>
</g>
<!-- 70&#45;&gt;2 -->
<g id="edge135" class="edge"><title>70&#45;&gt;2</title>
<path fill="none" stroke="black" d="M5049.34,-108.129C5059.14,-132.543 5077.21,-177.574 5088.77,-206.365"/>
<polygon fill="black" stroke="black" points="5092.56,-215.811 5084.66,-208.207 5090.7,-211.171 5088.84,-206.53 5088.84,-206.53 5088.84,-206.53 5090.7,-211.171 5093.01,-204.854 5092.56,-215.811 5092.56,-215.811"/>
</g>
<!-- 70&#45;&gt;3 -->
<g id="edge136" class="edge"><title>70&#45;&gt;3</title>
<path fill="none" stroke="black" d="M5034.02,-108.129C5021.93,-132.65 4999.59,-177.968 4985.41,-206.741"/>
<polygon fill="black" stroke="black" points="4980.94,-215.811 4981.32,-204.852 4983.15,-211.326 4985.36,-206.841 4985.36,-206.841 4985.36,-206.841 4983.15,-211.326 4989.39,-208.831 4980.94,-215.811 4980.94,-215.811"/>
</g>
<!-- 70&#45;&gt;4 -->
<g id="edge137" class="edge"><title>70&#45;&gt;4</title>
<path fill="none" stroke="black" d="M5063.81,-108.129C5095.31,-133.396 5154.33,-180.746 5189.95,-209.321"/>
<polygon fill="black" stroke="black" points="5198.04,-215.811 5187.42,-213.063 5194.14,-212.682 5190.24,-209.553 5190.24,-209.553 5190.24,-209.553 5194.14,-212.682 5193.05,-206.043 5198.04,-215.811 5198.04,-215.811"/>
</g>
<!-- 70&#45;&gt;5 -->
<g id="edge138" class="edge"><title>70&#45;&gt;5</title>
<path fill="none" stroke="black" d="M4988.2,-108.091C4959.84,-117.609 4924.81,-130.288 4894.46,-144 4850.3,-163.956 4801.93,-191.522 4769.85,-210.667"/>
<polygon fill="black" stroke="black" points="4761.25,-215.829 4767.51,-206.824 4765.54,-213.256 4769.83,-210.682 4769.83,-210.682 4769.83,-210.682 4765.54,-213.256 4772.14,-214.539 4761.25,-215.829 4761.25,-215.829"/>
</g>
<!-- 70&#45;&gt;9 -->
<g id="edge139" class="edge"><title>70&#45;&gt;9</title>
<path fill="none" stroke="black" d="M5124.58,-95.8042C5296.02,-106.043 5681,-130.203 5739.46,-144 5803.4,-159.089 5872.98,-190.308 5915.91,-211.458"/>
<polygon fill="black" stroke="black" points="5924.92,-215.94 5913.96,-215.514 5920.44,-213.713 5915.97,-211.485 5915.97,-211.485 5915.97,-211.485 5920.44,-213.713 5917.97,-207.457 5924.92,-215.94 5924.92,-215.94"/>
</g>
<!-- 70&#45;&gt;12 -->
<g id="edge140" class="edge"><title>70&#45;&gt;12</title>
<path fill="none" stroke="black" d="M5124.53,-93.9738C5196.81,-98.7914 5303.89,-111.35 5391.46,-144 5433.5,-159.672 5476.31,-188.984 5503.55,-209.678"/>
<polygon fill="black" stroke="black" points="5511.49,-215.8 5500.83,-213.256 5507.53,-212.746 5503.57,-209.693 5503.57,-209.693 5503.57,-209.693 5507.53,-212.746 5506.32,-206.129 5511.49,-215.8 5511.49,-215.8"/>
</g>
<!-- 70&#45;&gt;16 -->
<g id="edge141" class="edge"><title>70&#45;&gt;16</title>
<path fill="none" stroke="black" d="M4960.35,-98.4087C4918.01,-101.93 4865.51,-105.835 4818.46,-108 4146.81,-138.908 1917.66,-158.021 1591.45,-160.68"/>
<polygon fill="black" stroke="black" points="1581.07,-160.764 1591.03,-156.183 1586.07,-160.724 1591.07,-160.683 1591.07,-160.683 1591.07,-160.683 1586.07,-160.724 1591.11,-165.183 1581.07,-160.764 1581.07,-160.764"/>
</g>
<!-- 70&#45;&gt;53 -->
<g id="edge142" class="edge"><title>70&#45;&gt;53</title>
<path fill="none" stroke="black" d="M4960.31,-97.6411C4917.95,-100.962 4865.46,-104.919 4818.46,-108 4489.58,-129.566 4096.85,-149.425 3934.94,-157.357"/>
<polygon fill="black" stroke="black" points="3924.61,-157.862 3934.38,-152.879 3929.6,-157.618 3934.6,-157.374 3934.6,-157.374 3934.6,-157.374 3929.6,-157.618 3934.82,-161.868 3924.61,-157.862 3924.61,-157.862"/>
</g>
<!-- 71 -->
<g id="node72" class="node"><title>71</title>
<polygon fill="none" stroke="black" points="5334.46,-36 5280.46,-36 5280.46,-0 5334.46,-0 5334.46,-36"/>
<text text-anchor="middle" x="5307.46" y="-14.3" font-family="Times,serif" font-size="14.00">main</text>
</g>
<!-- 71&#45;&gt;8 -->
<g id="edge143" class="edge"><title>71&#45;&gt;8</title>
<path fill="none" stroke="black" d="M5332.9,-36.1239C5346.25,-45.1069 5362.79,-56.2375 5377.24,-65.9659"/>
<polygon fill="black" stroke="black" points="5385.92,-71.8102 5375.12,-69.9596 5381.78,-69.0183 5377.63,-66.2264 5377.63,-66.2264 5377.63,-66.2264 5381.78,-69.0183 5380.14,-62.4933 5385.92,-71.8102 5385.92,-71.8102"/>
</g>
<!-- 71&#45;&gt;10 -->
<g id="edge144" class="edge"><title>71&#45;&gt;10</title>
<path fill="none" stroke="black" d="M5307.82,-36.1285C5308.34,-60.3298 5309.28,-104.789 5309.88,-133.607"/>
<polygon fill="black" stroke="black" points="5310.1,-143.811 5305.39,-133.908 5309.99,-138.812 5309.89,-133.813 5309.89,-133.813 5309.89,-133.813 5309.99,-138.812 5314.39,-133.718 5310.1,-143.811 5310.1,-143.811"/>
</g>
<!-- 71&#45;&gt;69 -->
<g id="edge145" class="edge"><title>71&#45;&gt;69</title>
<path fill="none" stroke="black" d="M5280.21,-22.5193C5195.3,-33.4859 4934.35,-67.1884 4820.05,-81.9504"/>
<polygon fill="black" stroke="black" points="4810.11,-83.2341 4819.45,-77.4902 4815.07,-82.5936 4820.03,-81.9532 4820.03,-81.9532 4820.03,-81.9532 4815.07,-82.5936 4820.6,-86.4161 4810.11,-83.2341 4810.11,-83.2341"/>
</g>
<!-- 72 -->
<g id="node73" class="node"><title>72</title>
<polygon fill="none" stroke="black" points="5471.96,-36 5352.96,-36 5352.96,-0 5471.96,-0 5471.96,-36"/>
<text text-anchor="middle" x="5412.46" y="-14.3" font-family="Times,serif" font-size="14.00">main_multiplayers</text>
</g>
<!-- 72&#45;&gt;8 -->
<g id="edge146" class="edge"><title>72&#45;&gt;8</title>
<path fill="none" stroke="black" d="M5412.22,-36.3034C5412.11,-44.0173 5411.97,-53.2875 5411.85,-61.8876"/>
<polygon fill="black" stroke="black" points="5411.71,-71.8957 5407.35,-61.8324 5411.78,-66.8962 5411.85,-61.8967 5411.85,-61.8967 5411.85,-61.8967 5411.78,-66.8962 5416.35,-61.961 5411.71,-71.8957 5411.71,-71.8957"/>
</g>
<!-- 72&#45;&gt;11 -->
<g id="edge147" class="edge"><title>72&#45;&gt;11</title>
<path fill="none" stroke="black" d="M5437.79,-36.1285C5475.48,-61.6091 5546.37,-109.546 5588.51,-138.041"/>
<polygon fill="black" stroke="black" points="5597.04,-143.811 5586.24,-141.937 5592.9,-141.01 5588.76,-138.209 5588.76,-138.209 5588.76,-138.209 5592.9,-141.01 5591.28,-134.481 5597.04,-143.811 5597.04,-143.811"/>
</g>
<!-- 72&#45;&gt;70 -->
<g id="edge148" class="edge"><title>72&#45;&gt;70</title>
<path fill="none" stroke="black" d="M5352.68,-33.99C5349.57,-34.6888 5346.48,-35.3633 5343.46,-36 5273.77,-50.7035 5194.41,-64.5595 5134.68,-74.4141"/>
<polygon fill="black" stroke="black" points="5124.51,-76.0836 5133.65,-70.0221 5129.45,-75.2731 5134.38,-74.4626 5134.38,-74.4626 5134.38,-74.4626 5129.45,-75.2731 5135.11,-78.9031 5124.51,-76.0836 5124.51,-76.0836"/>
</g>
</g>
</svg>
