<?xml version="1.0" encoding="UTF-8" standalone="no"?>
<!DOCTYPE svg PUBLIC "-//W3C//DTD SVG 1.1//EN"
 "http://www.w3.org/Graphics/SVG/1.1/DTD/svg11.dtd">
<!-- Generated by graphviz version 2.38.0 (20140413.2041)
 -->
<!-- Title: packages_AlgoBandits Pages: 1 -->
<svg width="6894pt" height="548pt"
 viewBox="0.00 0.00 6893.50 548.00" xmlns="http://www.w3.org/2000/svg" xmlns:xlink="http://www.w3.org/1999/xlink">
<g id="graph0" class="graph" transform="scale(1 1) rotate(0) translate(4 544)">
<title>packages_AlgoBandits</title>
<polygon fill="white" stroke="none" points="-4,4 -4,-544 6889.5,-544 6889.5,4 -4,4"/>
<!-- 0 -->
<g id="node1" class="node"><title>0</title>
<polygon fill="none" stroke="black" points="432,-180 378,-180 378,-144 432,-144 432,-180"/>
<text text-anchor="middle" x="405" y="-158.3" font-family="Times,serif" font-size="14.00">Arms</text>
</g>
<!-- 2 -->
<g id="node3" class="node"><title>2</title>
<polygon fill="none" stroke="black" points="352,-252 250,-252 250,-216 352,-216 352,-252"/>
<text text-anchor="middle" x="301" y="-230.3" font-family="Times,serif" font-size="14.00">Arms.Bernoulli</text>
</g>
<!-- 0&#45;&gt;2 -->
<g id="edge1" class="edge"><title>0&#45;&gt;2</title>
<path fill="none" stroke="black" d="M379.559,-180.124C366.213,-189.107 349.676,-200.237 335.222,-209.966"/>
<polygon fill="black" stroke="black" points="326.539,-215.81 332.322,-206.493 330.687,-213.018 334.835,-210.226 334.835,-210.226 334.835,-210.226 330.687,-213.018 337.348,-213.96 326.539,-215.81 326.539,-215.81"/>
</g>
<!-- 3 -->
<g id="node4" class="node"><title>3</title>
<polygon fill="none" stroke="black" points="116,-252 7.10543e-15,-252 7.10543e-15,-216 116,-216 116,-252"/>
<text text-anchor="middle" x="58" y="-230.3" font-family="Times,serif" font-size="14.00">Arms.Exponential</text>
</g>
<!-- 0&#45;&gt;3 -->
<g id="edge2" class="edge"><title>0&#45;&gt;3</title>
<path fill="none" stroke="black" d="M377.843,-174.548C372.34,-176.587 366.54,-178.526 361,-180 261.569,-206.455 230.84,-195.639 126.06,-215.918"/>
<polygon fill="black" stroke="black" points="116.026,-217.91 124.958,-211.549 120.93,-216.936 125.834,-215.963 125.834,-215.963 125.834,-215.963 120.93,-216.936 126.71,-220.377 116.026,-217.91 116.026,-217.91"/>
</g>
<!-- 4 -->
<g id="node5" class="node"><title>4</title>
<polygon fill="none" stroke="black" points="471.5,-252 370.5,-252 370.5,-216 471.5,-216 471.5,-252"/>
<text text-anchor="middle" x="421" y="-230.3" font-family="Times,serif" font-size="14.00">Arms.Gaussian</text>
</g>
<!-- 0&#45;&gt;4 -->
<g id="edge3" class="edge"><title>0&#45;&gt;4</title>
<path fill="none" stroke="black" d="M408.955,-180.303C410.718,-188.017 412.837,-197.288 414.803,-205.888"/>
<polygon fill="black" stroke="black" points="417.09,-215.896 410.475,-207.15 415.976,-211.021 414.862,-206.147 414.862,-206.147 414.862,-206.147 415.976,-211.021 419.249,-205.144 417.09,-215.896 417.09,-215.896"/>
</g>
<!-- 5 -->
<g id="node6" class="node"><title>5</title>
<polygon fill="none" stroke="black" points="582.5,-252 489.5,-252 489.5,-216 582.5,-216 582.5,-252"/>
<text text-anchor="middle" x="536" y="-230.3" font-family="Times,serif" font-size="14.00">Arms.Poisson</text>
</g>
<!-- 0&#45;&gt;5 -->
<g id="edge4" class="edge"><title>0&#45;&gt;5</title>
<path fill="none" stroke="black" d="M432.143,-177.504C450.21,-187.158 474.289,-200.025 494.713,-210.938"/>
<polygon fill="black" stroke="black" points="503.804,-215.796 492.864,-215.052 499.394,-213.44 494.985,-211.083 494.985,-211.083 494.985,-211.083 499.394,-213.44 497.105,-207.114 503.804,-215.796 503.804,-215.796"/>
</g>
<!-- 6 -->
<g id="node7" class="node"><title>6</title>
<polygon fill="none" stroke="black" points="232,-252 134,-252 134,-216 232,-216 232,-252"/>
<text text-anchor="middle" x="183" y="-230.3" font-family="Times,serif" font-size="14.00">Arms.Uniform</text>
</g>
<!-- 0&#45;&gt;6 -->
<g id="edge5" class="edge"><title>0&#45;&gt;6</title>
<path fill="none" stroke="black" d="M377.662,-173.948C372.173,-176.037 366.425,-178.148 361,-180 349.463,-183.94 289.43,-201.723 242.23,-215.618"/>
<polygon fill="black" stroke="black" points="232.374,-218.517 240.698,-211.377 237.171,-217.106 241.968,-215.694 241.968,-215.694 241.968,-215.694 237.171,-217.106 243.238,-220.011 232.374,-218.517 232.374,-218.517"/>
</g>
<!-- 1 -->
<g id="node2" class="node"><title>1</title>
<polygon fill="none" stroke="black" points="339.5,-324 262.5,-324 262.5,-288 339.5,-288 339.5,-324"/>
<text text-anchor="middle" x="301" y="-302.3" font-family="Times,serif" font-size="14.00">Arms.Arm</text>
</g>
<!-- 2&#45;&gt;1 -->
<g id="edge6" class="edge"><title>2&#45;&gt;1</title>
<path fill="none" stroke="black" d="M301,-252.303C301,-260.017 301,-269.288 301,-277.888"/>
<polygon fill="black" stroke="black" points="301,-287.896 296.5,-277.896 301,-282.896 301,-277.896 301,-277.896 301,-277.896 301,-282.896 305.5,-277.896 301,-287.896 301,-287.896"/>
</g>
<!-- 7 -->
<g id="node8" class="node"><title>7</title>
<polygon fill="none" stroke="black" points="463,-324 365,-324 365,-288 463,-288 463,-324"/>
<text text-anchor="middle" x="414" y="-302.3" font-family="Times,serif" font-size="14.00">Arms.kullback</text>
</g>
<!-- 2&#45;&gt;7 -->
<g id="edge7" class="edge"><title>2&#45;&gt;7</title>
<path fill="none" stroke="black" d="M328.643,-252.124C343.418,-261.276 361.791,-272.658 377.703,-282.515"/>
<polygon fill="black" stroke="black" points="386.251,-287.81 375.38,-286.37 382,-285.177 377.75,-282.544 377.75,-282.544 377.75,-282.544 382,-285.177 380.12,-278.719 386.251,-287.81 386.251,-287.81"/>
</g>
<!-- 3&#45;&gt;1 -->
<g id="edge8" class="edge"><title>3&#45;&gt;1</title>
<path fill="none" stroke="black" d="M116.205,-251.767C157.884,-263.773 213.351,-279.751 252.608,-291.06"/>
<polygon fill="black" stroke="black" points="262.221,-293.829 251.366,-295.385 257.416,-292.445 252.612,-291.061 252.612,-291.061 252.612,-291.061 257.416,-292.445 253.857,-286.737 262.221,-293.829 262.221,-293.829"/>
</g>
<!-- 3&#45;&gt;7 -->
<g id="edge9" class="edge"><title>3&#45;&gt;7</title>
<path fill="none" stroke="black" d="M116.032,-250.059C119.059,-250.74 122.062,-251.391 125,-252 223.307,-272.365 249.73,-267.457 348,-288 350.296,-288.48 352.633,-288.988 354.99,-289.516"/>
<polygon fill="black" stroke="black" points="364.742,-291.784 353.982,-293.902 359.872,-290.651 355.002,-289.519 355.002,-289.519 355.002,-289.519 359.872,-290.651 356.021,-285.136 364.742,-291.784 364.742,-291.784"/>
</g>
<!-- 4&#45;&gt;1 -->
<g id="edge10" class="edge"><title>4&#45;&gt;1</title>
<path fill="none" stroke="black" d="M391.645,-252.124C375.955,-261.276 356.443,-272.658 339.546,-282.515"/>
<polygon fill="black" stroke="black" points="330.468,-287.81 336.839,-278.884 334.787,-285.291 339.106,-282.771 339.106,-282.771 339.106,-282.771 334.787,-285.291 341.373,-286.659 330.468,-287.81 330.468,-287.81"/>
</g>
<!-- 4&#45;&gt;7 -->
<g id="edge11" class="edge"><title>4&#45;&gt;7</title>
<path fill="none" stroke="black" d="M419.27,-252.303C418.498,-260.017 417.571,-269.288 416.711,-277.888"/>
<polygon fill="black" stroke="black" points="415.71,-287.896 412.228,-277.497 416.208,-282.92 416.706,-277.945 416.706,-277.945 416.706,-277.945 416.208,-282.92 421.183,-278.393 415.71,-287.896 415.71,-287.896"/>
</g>
<!-- 5&#45;&gt;1 -->
<g id="edge12" class="edge"><title>5&#45;&gt;1</title>
<path fill="none" stroke="black" d="M489.262,-249.235C486.129,-250.175 483.019,-251.103 480,-252 424.987,-268.335 410.971,-271.526 356,-288 353.861,-288.641 351.676,-289.3 349.47,-289.968"/>
<polygon fill="black" stroke="black" points="339.737,-292.935 347.99,-285.715 344.519,-291.477 349.302,-290.019 349.302,-290.019 349.302,-290.019 344.519,-291.477 350.614,-294.324 339.737,-292.935 339.737,-292.935"/>
</g>
<!-- 5&#45;&gt;7 -->
<g id="edge13" class="edge"><title>5&#45;&gt;7</title>
<path fill="none" stroke="black" d="M506.155,-252.124C490.056,-261.361 469.999,-272.869 452.712,-282.788"/>
<polygon fill="black" stroke="black" points="443.959,-287.81 450.393,-278.93 448.296,-285.322 452.633,-282.834 452.633,-282.834 452.633,-282.834 448.296,-285.322 454.872,-286.737 443.959,-287.81 443.959,-287.81"/>
</g>
<!-- 6&#45;&gt;1 -->
<g id="edge14" class="edge"><title>6&#45;&gt;1</title>
<path fill="none" stroke="black" d="M211.866,-252.124C227.295,-261.276 246.481,-272.658 263.097,-282.515"/>
<polygon fill="black" stroke="black" points="272.023,-287.81 261.126,-286.578 267.723,-285.259 263.422,-282.708 263.422,-282.708 263.422,-282.708 267.723,-285.259 265.718,-278.838 272.023,-287.81 272.023,-287.81"/>
</g>
<!-- 8 -->
<g id="node9" class="node"><title>8</title>
<polygon fill="none" stroke="black" points="4046,-108 3958,-108 3958,-72 4046,-72 4046,-108"/>
<text text-anchor="middle" x="4002" y="-86.3" font-family="Times,serif" font-size="14.00">Environment</text>
</g>
<!-- 10 -->
<g id="node11" class="node"><title>10</title>
<polygon fill="none" stroke="black" points="3973,-180 3829,-180 3829,-144 3973,-144 3973,-180"/>
<text text-anchor="middle" x="3901" y="-158.3" font-family="Times,serif" font-size="14.00">Environment.Evaluator</text>
</g>
<!-- 8&#45;&gt;10 -->
<g id="edge15" class="edge"><title>8&#45;&gt;10</title>
<path fill="none" stroke="black" d="M3977.29,-108.124C3964.33,-117.107 3948.27,-128.237 3934.23,-137.966"/>
<polygon fill="black" stroke="black" points="3925.8,-143.81 3931.46,-134.415 3929.91,-140.962 3934.02,-138.114 3934.02,-138.114 3934.02,-138.114 3929.91,-140.962 3936.58,-141.812 3925.8,-143.81 3925.8,-143.81"/>
</g>
<!-- 11 -->
<g id="node12" class="node"><title>11</title>
<polygon fill="none" stroke="black" points="4320.5,-180 4105.5,-180 4105.5,-144 4320.5,-144 4320.5,-180"/>
<text text-anchor="middle" x="4213" y="-158.3" font-family="Times,serif" font-size="14.00">Environment.EvaluatorMultiPlayers</text>
</g>
<!-- 8&#45;&gt;11 -->
<g id="edge16" class="edge"><title>8&#45;&gt;11</title>
<path fill="none" stroke="black" d="M4046.23,-105.674C4076.81,-115.818 4117.89,-129.448 4151.63,-140.64"/>
<polygon fill="black" stroke="black" points="4161.39,-143.878 4150.48,-145 4156.64,-142.304 4151.9,-140.729 4151.9,-140.729 4151.9,-140.729 4156.64,-142.304 4153.32,-136.458 4161.39,-143.878 4161.39,-143.878"/>
</g>
<!-- 12 -->
<g id="node13" class="node"><title>12</title>
<polygon fill="none" stroke="black" points="4184.5,-252 4061.5,-252 4061.5,-216 4184.5,-216 4184.5,-252"/>
<text text-anchor="middle" x="4123" y="-230.3" font-family="Times,serif" font-size="14.00">Environment.MAB</text>
</g>
<!-- 8&#45;&gt;12 -->
<g id="edge17" class="edge"><title>8&#45;&gt;12</title>
<path fill="none" stroke="black" d="M4019.45,-108.254C4029.52,-118.422 4042.27,-131.672 4053,-144 4071.08,-164.769 4090.33,-189.456 4104.06,-207.556"/>
<polygon fill="black" stroke="black" points="4110.33,-215.865 4100.71,-210.59 4107.32,-211.873 4104.31,-207.881 4104.31,-207.881 4104.31,-207.881 4107.32,-211.873 4107.9,-205.172 4110.33,-215.865 4110.33,-215.865"/>
</g>
<!-- 13 -->
<g id="node14" class="node"><title>13</title>
<polygon fill="none" stroke="black" points="4043,-252 3917,-252 3917,-216 4043,-216 4043,-252"/>
<text text-anchor="middle" x="3980" y="-230.3" font-family="Times,serif" font-size="14.00">Environment.Result</text>
</g>
<!-- 8&#45;&gt;13 -->
<g id="edge18" class="edge"><title>8&#45;&gt;13</title>
<path fill="none" stroke="black" d="M3999.35,-108.129C3995.6,-132.33 3988.71,-176.789 3984.24,-205.607"/>
<polygon fill="black" stroke="black" points="3982.66,-215.811 3979.75,-205.24 3983.43,-210.87 3984.19,-205.929 3984.19,-205.929 3984.19,-205.929 3983.43,-210.87 3988.64,-206.618 3982.66,-215.811 3982.66,-215.811"/>
</g>
<!-- 9 -->
<g id="node10" class="node"><title>9</title>
<polygon fill="none" stroke="black" points="4639,-252 4457,-252 4457,-216 4639,-216 4639,-252"/>
<text text-anchor="middle" x="4548" y="-230.3" font-family="Times,serif" font-size="14.00">Environment.CollisionModels</text>
</g>
<!-- 10&#45;&gt;12 -->
<g id="edge19" class="edge"><title>10&#45;&gt;12</title>
<path fill="none" stroke="black" d="M3955.02,-180.034C3986.45,-189.943 4026.23,-202.486 4059.19,-212.879"/>
<polygon fill="black" stroke="black" points="4068.73,-215.889 4057.84,-217.174 4063.97,-214.386 4059.2,-212.882 4059.2,-212.882 4059.2,-212.882 4063.97,-214.386 4060.55,-208.59 4068.73,-215.889 4068.73,-215.889"/>
</g>
<!-- 10&#45;&gt;13 -->
<g id="edge20" class="edge"><title>10&#45;&gt;13</title>
<path fill="none" stroke="black" d="M3920.53,-180.303C3930.38,-189.035 3942.49,-199.76 3953.2,-209.25"/>
<polygon fill="black" stroke="black" points="3960.7,-215.896 3950.23,-212.632 3956.95,-212.58 3953.21,-209.264 3953.21,-209.264 3953.21,-209.264 3956.95,-212.58 3956.2,-205.896 3960.7,-215.896 3960.7,-215.896"/>
</g>
<!-- 15 -->
<g id="node16" class="node"><title>15</title>
<polygon fill="none" stroke="black" points="4200,-324 4046,-324 4046,-288 4200,-288 4200,-324"/>
<text text-anchor="middle" x="4123" y="-302.3" font-family="Times,serif" font-size="14.00">Environment.plotsettings</text>
</g>
<!-- 10&#45;&gt;15 -->
<g id="edge21" class="edge"><title>10&#45;&gt;15</title>
<path fill="none" stroke="black" d="M3896.94,-180.282C3893.4,-200.023 3891.15,-232.148 3908,-252 3924.83,-271.825 3983.91,-285.498 4035.89,-293.984"/>
<polygon fill="black" stroke="black" points="4045.84,-295.56 4035.26,-298.44 4040.9,-294.778 4035.96,-293.995 4035.96,-293.995 4035.96,-293.995 4040.9,-294.778 4036.66,-289.551 4045.84,-295.56 4045.84,-295.56"/>
</g>
<!-- 11&#45;&gt;9 -->
<g id="edge22" class="edge"><title>11&#45;&gt;9</title>
<path fill="none" stroke="black" d="M4294.52,-180.034C4343.45,-190.259 4405.82,-203.29 4456.44,-213.869"/>
<polygon fill="black" stroke="black" points="4466.4,-215.95 4455.69,-218.309 4461.51,-214.927 4456.61,-213.904 4456.61,-213.904 4456.61,-213.904 4461.51,-214.927 4457.54,-209.5 4466.4,-215.95 4466.4,-215.95"/>
</g>
<!-- 11&#45;&gt;12 -->
<g id="edge23" class="edge"><title>11&#45;&gt;12</title>
<path fill="none" stroke="black" d="M4190.75,-180.303C4179.42,-189.119 4165.47,-199.968 4153.18,-209.526"/>
<polygon fill="black" stroke="black" points="4144.99,-215.896 4150.12,-206.204 4148.94,-212.826 4152.88,-209.756 4152.88,-209.756 4152.88,-209.756 4148.94,-212.826 4155.65,-213.308 4144.99,-215.896 4144.99,-215.896"/>
</g>
<!-- 14 -->
<g id="node15" class="node"><title>14</title>
<polygon fill="none" stroke="black" points="4438.5,-252 4241.5,-252 4241.5,-216 4438.5,-216 4438.5,-252"/>
<text text-anchor="middle" x="4340" y="-230.3" font-family="Times,serif" font-size="14.00">Environment.ResultMultiPlayers</text>
</g>
<!-- 11&#45;&gt;14 -->
<g id="edge24" class="edge"><title>11&#45;&gt;14</title>
<path fill="none" stroke="black" d="M4244.07,-180.124C4260.83,-189.361 4281.71,-200.869 4299.7,-210.788"/>
<polygon fill="black" stroke="black" points="4308.81,-215.81 4297.88,-214.924 4304.43,-213.397 4300.06,-210.983 4300.06,-210.983 4300.06,-210.983 4304.43,-213.397 4302.23,-207.042 4308.81,-215.81 4308.81,-215.81"/>
</g>
<!-- 11&#45;&gt;15 -->
<g id="edge25" class="edge"><title>11&#45;&gt;15</title>
<path fill="none" stroke="black" d="M4212.85,-180.078C4211.94,-199.052 4208.15,-229.918 4194,-252 4186.46,-263.765 4175.33,-273.854 4164.11,-281.975"/>
<polygon fill="black" stroke="black" points="4155.57,-287.797 4161.3,-278.446 4159.7,-284.981 4163.83,-282.165 4163.83,-282.165 4163.83,-282.165 4159.7,-284.981 4166.37,-285.883 4155.57,-287.797 4155.57,-287.797"/>
</g>
<!-- 12&#45;&gt;15 -->
<g id="edge26" class="edge"><title>12&#45;&gt;15</title>
<path fill="none" stroke="black" d="M4123,-252.303C4123,-260.017 4123,-269.288 4123,-277.888"/>
<polygon fill="black" stroke="black" points="4123,-287.896 4118.5,-277.896 4123,-282.896 4123,-277.896 4123,-277.896 4123,-277.896 4123,-282.896 4127.5,-277.896 4123,-287.896 4123,-287.896"/>
</g>
<!-- 16 -->
<g id="node17" class="node"><title>16</title>
<polygon fill="none" stroke="black" points="2254.5,-180 2195.5,-180 2195.5,-144 2254.5,-144 2254.5,-180"/>
<text text-anchor="middle" x="2225" y="-158.3" font-family="Times,serif" font-size="14.00">Policies</text>
</g>
<!-- 17 -->
<g id="node18" class="node"><title>17</title>
<polygon fill="none" stroke="black" points="2003.5,-324 1882.5,-324 1882.5,-288 2003.5,-288 2003.5,-324"/>
<text text-anchor="middle" x="1943" y="-302.3" font-family="Times,serif" font-size="14.00">Policies.AdBandits</text>
</g>
<!-- 16&#45;&gt;17 -->
<g id="edge27" class="edge"><title>16&#45;&gt;17</title>
<path fill="none" stroke="black" d="M2195.42,-170.291C2165.55,-178.488 2118.83,-193.645 2083,-216 2063.26,-228.314 2063.95,-238.505 2045,-252 2028.54,-263.72 2009.15,-274.46 1991.71,-283.162"/>
<polygon fill="black" stroke="black" points="1982.26,-287.78 1989.27,-279.347 1986.75,-285.585 1991.24,-283.39 1991.24,-283.39 1991.24,-283.39 1986.75,-285.585 1993.22,-287.434 1982.26,-287.78 1982.26,-287.78"/>
</g>
<!-- 18 -->
<g id="node19" class="node"><title>18</title>
<polygon fill="none" stroke="black" points="935.5,-468 844.5,-468 844.5,-432 935.5,-432 935.5,-468"/>
<text text-anchor="middle" x="890" y="-446.3" font-family="Times,serif" font-size="14.00">Policies.Aggr</text>
</g>
<!-- 16&#45;&gt;18 -->
<g id="edge28" class="edge"><title>16&#45;&gt;18</title>
<path fill="none" stroke="black" d="M2195.48,-163.416C1980.1,-166.519 658.308,-186.736 630,-216 548.943,-299.795 736.466,-389.206 834.734,-428.489"/>
<polygon fill="black" stroke="black" points="844.24,-432.245 833.286,-432.756 839.59,-430.408 834.94,-428.57 834.94,-428.57 834.94,-428.57 839.59,-430.408 836.593,-424.385 844.24,-432.245 844.24,-432.245"/>
</g>
<!-- 20 -->
<g id="node21" class="node"><title>20</title>
<polygon fill="none" stroke="black" points="2216,-252 2092,-252 2092,-216 2216,-216 2216,-252"/>
<text text-anchor="middle" x="2154" y="-230.3" font-family="Times,serif" font-size="14.00">Policies.BayesUCB</text>
</g>
<!-- 16&#45;&gt;20 -->
<g id="edge29" class="edge"><title>16&#45;&gt;20</title>
<path fill="none" stroke="black" d="M2207.45,-180.303C2198.77,-188.865 2188.14,-199.344 2178.65,-208.696"/>
<polygon fill="black" stroke="black" points="2171.35,-215.896 2175.31,-205.67 2174.91,-212.385 2178.47,-208.875 2178.47,-208.875 2178.47,-208.875 2174.91,-212.385 2181.63,-212.079 2171.35,-215.896 2171.35,-215.896"/>
</g>
<!-- 23 -->
<g id="node24" class="node"><title>23</title>
<polygon fill="none" stroke="black" points="990.5,-252 825.5,-252 825.5,-216 990.5,-216 990.5,-252"/>
<text text-anchor="middle" x="908" y="-230.3" font-family="Times,serif" font-size="14.00">Policies.EpsilonDecreasing</text>
</g>
<!-- 16&#45;&gt;23 -->
<g id="edge30" class="edge"><title>16&#45;&gt;23</title>
<path fill="none" stroke="black" d="M2195.23,-164.231C2018.7,-171.535 1113.41,-209.089 1000.89,-216.37"/>
<polygon fill="black" stroke="black" points="990.67,-217.162 1000.29,-211.903 995.656,-216.775 1000.64,-216.389 1000.64,-216.389 1000.64,-216.389 995.656,-216.775 1000.99,-220.876 990.67,-217.162 990.67,-217.162"/>
</g>
<!-- 24 -->
<g id="node25" class="node"><title>24</title>
<polygon fill="none" stroke="black" points="1215,-252 1009,-252 1009,-216 1215,-216 1215,-252"/>
<text text-anchor="middle" x="1112" y="-230.3" font-family="Times,serif" font-size="14.00">Policies.EpsilonDecreasingMEGA</text>
</g>
<!-- 16&#45;&gt;24 -->
<g id="edge31" class="edge"><title>16&#45;&gt;24</title>
<path fill="none" stroke="black" d="M2195.04,-164.19C2052.33,-169.918 1439.82,-195.189 1225.3,-215.949"/>
<polygon fill="black" stroke="black" points="1215.09,-216.965 1224.59,-211.497 1220.06,-216.47 1225.04,-215.975 1225.04,-215.975 1225.04,-215.975 1220.06,-216.47 1225.48,-220.453 1215.09,-216.965 1215.09,-216.965"/>
</g>
<!-- 25 -->
<g id="node26" class="node"><title>25</title>
<polygon fill="none" stroke="black" points="1420.5,-252 1233.5,-252 1233.5,-216 1420.5,-216 1420.5,-252"/>
<text text-anchor="middle" x="1327" y="-230.3" font-family="Times,serif" font-size="14.00">Policies.EpsilonExpDecreasing</text>
</g>
<!-- 16&#45;&gt;25 -->
<g id="edge32" class="edge"><title>16&#45;&gt;25</title>
<path fill="none" stroke="black" d="M2195.46,-164.012C2091.11,-167.795 1730.1,-182.627 1434,-216 1432.9,-216.124 1431.8,-216.251 1430.69,-216.381"/>
<polygon fill="black" stroke="black" points="1420.59,-217.628 1429.96,-211.936 1425.55,-217.015 1430.52,-216.402 1430.52,-216.402 1430.52,-216.402 1425.55,-217.015 1431.07,-220.868 1420.59,-217.628 1420.59,-217.628"/>
</g>
<!-- 26 -->
<g id="node27" class="node"><title>26</title>
<polygon fill="none" stroke="black" points="768.5,-252 639.5,-252 639.5,-216 768.5,-216 768.5,-252"/>
<text text-anchor="middle" x="704" y="-230.3" font-family="Times,serif" font-size="14.00">Policies.EpsilonFirst</text>
</g>
<!-- 16&#45;&gt;26 -->
<g id="edge33" class="edge"><title>16&#45;&gt;26</title>
<path fill="none" stroke="black" d="M2195.31,-164.276C2127.21,-167.191 1954.47,-174.509 1810,-180 1353.6,-197.347 1236.25,-159.738 783,-216 781.521,-216.184 780.028,-216.381 778.526,-216.592"/>
<polygon fill="black" stroke="black" points="768.51,-218.146 777.702,-212.165 773.451,-217.379 778.392,-216.612 778.392,-216.612 778.392,-216.612 773.451,-217.379 779.082,-221.059 768.51,-218.146 768.51,-218.146"/>
</g>
<!-- 27 -->
<g id="node28" class="node"><title>27</title>
<polygon fill="none" stroke="black" points="1082,-324 938,-324 938,-288 1082,-288 1082,-324"/>
<text text-anchor="middle" x="1010" y="-302.3" font-family="Times,serif" font-size="14.00">Policies.EpsilonGreedy</text>
</g>
<!-- 16&#45;&gt;27 -->
<g id="edge34" class="edge"><title>16&#45;&gt;27</title>
<path fill="none" stroke="black" d="M2195.31,-164.264C2127.21,-167.155 1954.47,-174.425 1810,-180 1754.78,-182.131 854.36,-176.226 816,-216 775.545,-257.946 858.008,-281.943 927.634,-294.214"/>
<polygon fill="black" stroke="black" points="937.798,-295.94 927.185,-298.702 932.868,-295.103 927.939,-294.266 927.939,-294.266 927.939,-294.266 932.868,-295.103 928.692,-289.829 937.798,-295.94 937.798,-295.94"/>
</g>
<!-- 28 -->
<g id="node29" class="node"><title>28</title>
<polygon fill="none" stroke="black" points="1398,-396 1306,-396 1306,-360 1398,-360 1398,-396"/>
<text text-anchor="middle" x="1352" y="-374.3" font-family="Times,serif" font-size="14.00">Policies.Exp3</text>
</g>
<!-- 16&#45;&gt;28 -->
<g id="edge35" class="edge"><title>16&#45;&gt;28</title>
<path fill="none" stroke="black" d="M2195.22,-163.637C2063.44,-166.653 1536.32,-180.837 1472,-216 1443.49,-231.585 1392.88,-309.833 1367.46,-351.227"/>
<polygon fill="black" stroke="black" points="1362.15,-359.943 1363.51,-349.062 1364.75,-355.674 1367.36,-351.405 1367.36,-351.405 1367.36,-351.405 1364.75,-355.674 1371.2,-353.747 1362.15,-359.943 1362.15,-359.943"/>
</g>
<!-- 31 -->
<g id="node32" class="node"><title>31</title>
<polygon fill="none" stroke="black" points="1448,-468 1344,-468 1344,-432 1448,-432 1448,-468"/>
<text text-anchor="middle" x="1396" y="-446.3" font-family="Times,serif" font-size="14.00">Policies.MEGA</text>
</g>
<!-- 16&#45;&gt;31 -->
<g id="edge36" class="edge"><title>16&#45;&gt;31</title>
<path fill="none" stroke="black" d="M2195.47,-163.663C2070.62,-166.678 1589.86,-180.52 1533,-216 1456.25,-263.89 1417.4,-371.79 1402.9,-422.156"/>
<polygon fill="black" stroke="black" points="1400.16,-431.988 1398.5,-421.149 1401.5,-427.171 1402.84,-422.353 1402.84,-422.353 1402.84,-422.353 1401.5,-427.171 1407.18,-423.557 1400.16,-431.988 1400.16,-431.988"/>
</g>
<!-- 32 -->
<g id="node33" class="node"><title>32</title>
<polygon fill="none" stroke="black" points="3032.5,-396 2931.5,-396 2931.5,-360 3032.5,-360 3032.5,-396"/>
<text text-anchor="middle" x="2982" y="-374.3" font-family="Times,serif" font-size="14.00">Policies.MOSS</text>
</g>
<!-- 16&#45;&gt;32 -->
<g id="edge37" class="edge"><title>16&#45;&gt;32</title>
<path fill="none" stroke="black" d="M2254.69,-162.805C2374.27,-162.38 2820.46,-164.357 2950,-216 2973.47,-225.357 2972.58,-238.598 2994,-252 3026.37,-272.251 3051.42,-255.839 3072,-288 3080.62,-301.477 3079.94,-310.109 3072,-324 3064.54,-337.047 3052.48,-347.201 3039.58,-354.967"/>
<polygon fill="black" stroke="black" points="3030.56,-359.969 3037.12,-351.184 3034.93,-357.545 3039.3,-355.12 3039.3,-355.12 3039.3,-355.12 3034.93,-357.545 3041.49,-359.055 3030.56,-359.969 3030.56,-359.969"/>
</g>
<!-- 33 -->
<g id="node34" class="node"><title>33</title>
<polygon fill="none" stroke="black" points="1603.5,-468 1466.5,-468 1466.5,-432 1603.5,-432 1603.5,-468"/>
<text text-anchor="middle" x="1535" y="-446.3" font-family="Times,serif" font-size="14.00">Policies.MusicalChair</text>
</g>
<!-- 16&#45;&gt;33 -->
<g id="edge38" class="edge"><title>16&#45;&gt;33</title>
<path fill="none" stroke="black" d="M2195.36,-163.184C2072.33,-164.236 1606.07,-171.174 1560,-216 1504.31,-270.186 1517.8,-373.204 1528.24,-422.035"/>
<polygon fill="black" stroke="black" points="1530.46,-431.867 1523.87,-423.105 1529.36,-426.99 1528.26,-422.113 1528.26,-422.113 1528.26,-422.113 1529.36,-426.99 1532.65,-421.122 1530.46,-431.867 1530.46,-431.867"/>
</g>
<!-- 35 -->
<g id="node36" class="node"><title>35</title>
<polygon fill="none" stroke="black" points="1732,-468 1622,-468 1622,-432 1732,-432 1732,-468"/>
<text text-anchor="middle" x="1677" y="-446.3" font-family="Times,serif" font-size="14.00">Policies.Softmax</text>
</g>
<!-- 16&#45;&gt;35 -->
<g id="edge39" class="edge"><title>16&#45;&gt;35</title>
<path fill="none" stroke="black" d="M2195.36,-163.139C2074.46,-164.007 1623.09,-170.307 1581,-216 1523.86,-278.033 1607.21,-378.758 1651.87,-424.731"/>
<polygon fill="black" stroke="black" points="1658.93,-431.884 1648.7,-427.933 1655.42,-428.327 1651.9,-424.771 1651.9,-424.771 1651.9,-424.771 1655.42,-428.327 1655.11,-421.608 1658.93,-431.884 1658.93,-431.884"/>
</g>
<!-- 36 -->
<g id="node37" class="node"><title>36</title>
<polygon fill="none" stroke="black" points="1736,-324 1590,-324 1590,-288 1736,-288 1736,-324"/>
<text text-anchor="middle" x="1663" y="-302.3" font-family="Times,serif" font-size="14.00">Policies.TakeFixedArm</text>
</g>
<!-- 16&#45;&gt;36 -->
<g id="edge40" class="edge"><title>16&#45;&gt;36</title>
<path fill="none" stroke="black" d="M2195.49,-164.669C2115.46,-169.557 1895.96,-185.454 1831,-216 1809.65,-226.038 1811.89,-239.318 1792,-252 1771.64,-264.983 1747.56,-275.895 1725.75,-284.379"/>
<polygon fill="black" stroke="black" points="1716.24,-287.984 1724,-280.232 1720.92,-286.212 1725.59,-284.44 1725.59,-284.44 1725.59,-284.44 1720.92,-286.212 1727.19,-288.648 1716.24,-287.984 1716.24,-287.984"/>
</g>
<!-- 37 -->
<g id="node38" class="node"><title>37</title>
<polygon fill="none" stroke="black" points="1783.5,-252 1590.5,-252 1590.5,-216 1783.5,-216 1783.5,-252"/>
<text text-anchor="middle" x="1687" y="-230.3" font-family="Times,serif" font-size="14.00">Policies.TakeRandomFixedArm</text>
</g>
<!-- 16&#45;&gt;37 -->
<g id="edge41" class="edge"><title>16&#45;&gt;37</title>
<path fill="none" stroke="black" d="M2195.45,-166.374C2126.03,-174.365 1947.1,-195.334 1798,-216 1796.52,-216.205 1795.03,-216.413 1793.53,-216.623"/>
<polygon fill="black" stroke="black" points="1783.54,-218.046 1792.8,-212.182 1788.49,-217.341 1793.44,-216.637 1793.44,-216.637 1793.44,-216.637 1788.49,-217.341 1794.07,-221.092 1783.54,-218.046 1783.54,-218.046"/>
</g>
<!-- 38 -->
<g id="node39" class="node"><title>38</title>
<polygon fill="none" stroke="black" points="2356,-252 2234,-252 2234,-216 2356,-216 2356,-252"/>
<text text-anchor="middle" x="2295" y="-230.3" font-family="Times,serif" font-size="14.00">Policies.Thompson</text>
</g>
<!-- 16&#45;&gt;38 -->
<g id="edge42" class="edge"><title>16&#45;&gt;38</title>
<path fill="none" stroke="black" d="M2242.3,-180.303C2250.86,-188.865 2261.34,-199.344 2270.7,-208.696"/>
<polygon fill="black" stroke="black" points="2277.9,-215.896 2267.64,-212.007 2274.36,-212.36 2270.82,-208.825 2270.82,-208.825 2270.82,-208.825 2274.36,-212.36 2274.01,-205.643 2277.9,-215.896 2277.9,-215.896"/>
</g>
<!-- 39 -->
<g id="node40" class="node"><title>39</title>
<polygon fill="none" stroke="black" points="2803.5,-396 2712.5,-396 2712.5,-360 2803.5,-360 2803.5,-396"/>
<text text-anchor="middle" x="2758" y="-374.3" font-family="Times,serif" font-size="14.00">Policies.UCB</text>
</g>
<!-- 16&#45;&gt;39 -->
<g id="edge43" class="edge"><title>16&#45;&gt;39</title>
<path fill="none" stroke="black" d="M2254.57,-164.18C2333.64,-167.785 2548,-180.648 2608,-216 2659.7,-246.456 2646.82,-281.33 2689,-324 2699.6,-334.719 2712.41,-345.134 2724.11,-353.853"/>
<polygon fill="black" stroke="black" points="2732.39,-359.883 2721.65,-357.629 2728.35,-356.938 2724.3,-353.993 2724.3,-353.993 2724.3,-353.993 2728.35,-356.938 2726.96,-350.356 2732.39,-359.883 2732.39,-359.883"/>
</g>
<!-- 40 -->
<g id="node41" class="node"><title>40</title>
<polygon fill="none" stroke="black" points="3063.5,-324 2962.5,-324 2962.5,-288 3063.5,-288 3063.5,-324"/>
<text text-anchor="middle" x="3013" y="-302.3" font-family="Times,serif" font-size="14.00">Policies.UCBV</text>
</g>
<!-- 16&#45;&gt;40 -->
<g id="edge44" class="edge"><title>16&#45;&gt;40</title>
<path fill="none" stroke="black" d="M2254.81,-163.715C2352.96,-166.418 2664.92,-177.878 2757,-216 2780.35,-225.665 2778.35,-240.802 2801,-252 2860.44,-281.385 2883.7,-271.546 2952.31,-287.97"/>
<polygon fill="black" stroke="black" points="2962.3,-290.468 2951.51,-292.408 2957.45,-289.255 2952.6,-288.042 2952.6,-288.042 2952.6,-288.042 2957.45,-289.255 2953.69,-283.677 2962.3,-290.468 2962.3,-290.468"/>
</g>
<!-- 41 -->
<g id="node42" class="node"><title>41</title>
<polygon fill="none" stroke="black" points="2941.5,-252 2810.5,-252 2810.5,-216 2941.5,-216 2941.5,-252"/>
<text text-anchor="middle" x="2876" y="-230.3" font-family="Times,serif" font-size="14.00">Policies.UCBVtuned</text>
</g>
<!-- 16&#45;&gt;41 -->
<g id="edge45" class="edge"><title>16&#45;&gt;41</title>
<path fill="none" stroke="black" d="M2254.57,-164.522C2339.28,-169.147 2590.04,-184.668 2796,-216 2797.3,-216.198 2798.62,-216.404 2799.94,-216.618"/>
<polygon fill="black" stroke="black" points="2810.19,-218.379 2799.57,-221.121 2805.26,-217.532 2800.33,-216.686 2800.33,-216.686 2800.33,-216.686 2805.26,-217.532 2801.1,-212.251 2810.19,-218.379 2810.19,-218.379"/>
</g>
<!-- 42 -->
<g id="node43" class="node"><title>42</title>
<polygon fill="none" stroke="black" points="2818,-324 2698,-324 2698,-288 2818,-288 2818,-324"/>
<text text-anchor="middle" x="2758" y="-302.3" font-family="Times,serif" font-size="14.00">Policies.UCBalpha</text>
</g>
<!-- 16&#45;&gt;42 -->
<g id="edge46" class="edge"><title>16&#45;&gt;42</title>
<path fill="none" stroke="black" d="M2254.55,-163.638C2343.53,-165.987 2607.38,-176.221 2682,-216 2708.86,-230.32 2730.32,-258.364 2743.49,-279.162"/>
<polygon fill="black" stroke="black" points="2748.78,-287.851 2739.74,-281.653 2746.18,-283.582 2743.58,-279.312 2743.58,-279.312 2743.58,-279.312 2746.18,-283.582 2747.42,-276.97 2748.78,-287.851 2748.78,-287.851"/>
</g>
<!-- 43 -->
<g id="node44" class="node"><title>43</title>
<polygon fill="none" stroke="black" points="2340,-324 2218,-324 2218,-288 2340,-288 2340,-324"/>
<text text-anchor="middle" x="2279" y="-302.3" font-family="Times,serif" font-size="14.00">Policies.UCBlog10</text>
</g>
<!-- 16&#45;&gt;43 -->
<g id="edge47" class="edge"><title>16&#45;&gt;43</title>
<path fill="none" stroke="black" d="M2254.76,-164.781C2287.96,-168.545 2340.26,-180.182 2365,-216 2374.09,-229.165 2372.8,-238.03 2365,-252 2357.78,-264.939 2345.95,-275.111 2333.35,-282.933"/>
<polygon fill="black" stroke="black" points="2324.55,-287.977 2330.99,-279.1 2328.89,-285.491 2333.22,-283.004 2333.22,-283.004 2333.22,-283.004 2328.89,-285.491 2335.46,-286.908 2324.55,-287.977 2324.55,-287.977"/>
</g>
<!-- 44 -->
<g id="node45" class="node"><title>44</title>
<polygon fill="none" stroke="black" points="2563.5,-252 2412.5,-252 2412.5,-216 2563.5,-216 2563.5,-252"/>
<text text-anchor="middle" x="2488" y="-230.3" font-family="Times,serif" font-size="14.00">Policies.UCBlog10alpha</text>
</g>
<!-- 16&#45;&gt;44 -->
<g id="edge48" class="edge"><title>16&#45;&gt;44</title>
<path fill="none" stroke="black" d="M2254.66,-170.894C2293.1,-181.127 2361.48,-199.324 2414.31,-213.385"/>
<polygon fill="black" stroke="black" points="2423.98,-215.96 2413.16,-217.736 2419.15,-214.674 2414.31,-213.388 2414.31,-213.388 2414.31,-213.388 2419.15,-214.674 2415.47,-209.039 2423.98,-215.96 2423.98,-215.96"/>
</g>
<!-- 45 -->
<g id="node46" class="node"><title>45</title>
<polygon fill="none" stroke="black" points="2944,-324 2836,-324 2836,-288 2944,-288 2944,-324"/>
<text text-anchor="middle" x="2890" y="-302.3" font-family="Times,serif" font-size="14.00">Policies.UCBopt</text>
</g>
<!-- 16&#45;&gt;45 -->
<g id="edge49" class="edge"><title>16&#45;&gt;45</title>
<path fill="none" stroke="black" d="M2254.73,-164.248C2347.64,-168.453 2631.4,-183.684 2717,-216 2742.96,-225.799 2743.82,-238.401 2768,-252 2789.39,-264.029 2814.05,-275.204 2835.57,-284.162"/>
<polygon fill="black" stroke="black" points="2844.9,-287.988 2833.94,-288.357 2840.27,-286.091 2835.65,-284.193 2835.65,-284.193 2835.65,-284.193 2840.27,-286.091 2837.36,-280.03 2844.9,-287.988 2844.9,-287.988"/>
</g>
<!-- 46 -->
<g id="node47" class="node"><title>46</title>
<polygon fill="none" stroke="black" points="2471.5,-324 2358.5,-324 2358.5,-288 2471.5,-288 2471.5,-324"/>
<text text-anchor="middle" x="2415" y="-302.3" font-family="Times,serif" font-size="14.00">Policies.UCBplus</text>
</g>
<!-- 16&#45;&gt;46 -->
<g id="edge50" class="edge"><title>16&#45;&gt;46</title>
<path fill="none" stroke="black" d="M2254.58,-162.825C2330.85,-163.068 2531.05,-168.324 2572,-216 2582.42,-228.138 2581.33,-239.002 2572,-252 2566.25,-260.015 2521.57,-274.66 2481.34,-286.528"/>
<polygon fill="black" stroke="black" points="2471.51,-289.401 2479.84,-282.278 2476.31,-287.999 2481.11,-286.597 2481.11,-286.597 2481.11,-286.597 2476.31,-287.999 2482.37,-290.916 2471.51,-289.401 2471.51,-289.401"/>
</g>
<!-- 47 -->
<g id="node48" class="node"><title>47</title>
<polygon fill="none" stroke="black" points="2642,-324 2490,-324 2490,-288 2642,-288 2642,-324"/>
<text text-anchor="middle" x="2566" y="-302.3" font-family="Times,serif" font-size="14.00">Policies.UCBrandomInit</text>
</g>
<!-- 16&#45;&gt;47 -->
<g id="edge51" class="edge"><title>16&#45;&gt;47</title>
<path fill="none" stroke="black" d="M2254.66,-162.577C2333.73,-162.144 2546.53,-165.762 2590,-216 2605.19,-233.551 2595.46,-259.781 2584.18,-279.223"/>
<polygon fill="black" stroke="black" points="2578.79,-287.888 2580.25,-277.019 2581.43,-283.641 2584.07,-279.394 2584.07,-279.394 2584.07,-279.394 2581.43,-283.641 2587.9,-281.77 2578.79,-287.888 2578.79,-287.888"/>
</g>
<!-- 48 -->
<g id="node49" class="node"><title>48</title>
<polygon fill="none" stroke="black" points="3732.5,-396 3607.5,-396 3607.5,-360 3732.5,-360 3732.5,-396"/>
<text text-anchor="middle" x="3670" y="-374.3" font-family="Times,serif" font-size="14.00">Policies.UCBwrong</text>
</g>
<!-- 16&#45;&gt;48 -->
<g id="edge52" class="edge"><title>16&#45;&gt;48</title>
<path fill="none" stroke="black" d="M2254.51,-162.834C2466.98,-161.779 3756.7,-157.786 3813,-216 3859.5,-264.082 3771.14,-323.602 3713.73,-355.082"/>
<polygon fill="black" stroke="black" points="3704.8,-359.888 3711.47,-351.185 3709.2,-357.517 3713.61,-355.147 3713.61,-355.147 3713.61,-355.147 3709.2,-357.517 3715.74,-359.109 3704.8,-359.888 3704.8,-359.888"/>
</g>
<!-- 49 -->
<g id="node50" class="node"><title>49</title>
<polygon fill="none" stroke="black" points="1864,-324 1754,-324 1754,-288 1864,-288 1864,-324"/>
<text text-anchor="middle" x="1809" y="-302.3" font-family="Times,serif" font-size="14.00">Policies.Uniform</text>
</g>
<!-- 16&#45;&gt;49 -->
<g id="edge53" class="edge"><title>16&#45;&gt;49</title>
<path fill="none" stroke="black" d="M2195.25,-164.375C2119.83,-168.334 1923.31,-181.748 1869,-216 1845.73,-230.675 1829.35,-258.02 1819.65,-278.543"/>
<polygon fill="black" stroke="black" points="1815.54,-287.703 1815.52,-276.737 1817.58,-283.14 1819.63,-278.578 1819.63,-278.578 1819.63,-278.578 1817.58,-283.14 1823.74,-280.42 1815.54,-287.703 1815.54,-287.703"/>
</g>
<!-- 50 -->
<g id="node51" class="node"><title>50</title>
<polygon fill="none" stroke="black" points="2036,-252 1878,-252 1878,-216 2036,-216 2036,-252"/>
<text text-anchor="middle" x="1957" y="-230.3" font-family="Times,serif" font-size="14.00">Policies.UniformOnSome</text>
</g>
<!-- 16&#45;&gt;50 -->
<g id="edge54" class="edge"><title>16&#45;&gt;50</title>
<path fill="none" stroke="black" d="M2195.3,-170.759C2156.23,-180.963 2086.21,-199.251 2032.14,-213.373"/>
<polygon fill="black" stroke="black" points="2022.25,-215.958 2030.78,-209.077 2027.08,-214.695 2031.92,-213.431 2031.92,-213.431 2031.92,-213.431 2027.08,-214.695 2033.06,-217.785 2022.25,-215.958 2022.25,-215.958"/>
</g>
<!-- 51 -->
<g id="node52" class="node"><title>51</title>
<polygon fill="none" stroke="black" points="3449.5,-324 3348.5,-324 3348.5,-288 3449.5,-288 3449.5,-324"/>
<text text-anchor="middle" x="3399" y="-302.3" font-family="Times,serif" font-size="14.00">Policies.klUCB</text>
</g>
<!-- 16&#45;&gt;51 -->
<g id="edge55" class="edge"><title>16&#45;&gt;51</title>
<path fill="none" stroke="black" d="M2254.51,-162.846C2465.59,-161.882 3739.37,-158.465 3795,-216 3806.12,-227.503 3805.54,-239.959 3795,-252 3773.28,-276.816 3565.31,-294.01 3459.79,-301.211"/>
<polygon fill="black" stroke="black" points="3449.6,-301.897 3459.27,-296.736 3454.58,-301.561 3459.57,-301.226 3459.57,-301.226 3459.57,-301.226 3454.58,-301.561 3459.88,-305.715 3449.6,-301.897 3449.6,-301.897"/>
</g>
<!-- 52 -->
<g id="node53" class="node"><title>52</title>
<polygon fill="none" stroke="black" points="3170,-252 3036,-252 3036,-216 3170,-216 3170,-252"/>
<text text-anchor="middle" x="3103" y="-230.3" font-family="Times,serif" font-size="14.00">Policies.klUCBHPlus</text>
</g>
<!-- 16&#45;&gt;52 -->
<g id="edge56" class="edge"><title>16&#45;&gt;52</title>
<path fill="none" stroke="black" d="M2254.72,-164.303C2356.59,-168.931 2700.93,-185.938 2984,-216 2997.53,-217.437 3011.88,-219.244 3025.76,-221.139"/>
<polygon fill="black" stroke="black" points="3035.77,-222.531 3025.24,-225.611 3030.81,-221.842 3025.86,-221.153 3025.86,-221.153 3025.86,-221.153 3030.81,-221.842 3026.48,-216.696 3035.77,-222.531 3035.77,-222.531"/>
</g>
<!-- 53 -->
<g id="node54" class="node"><title>53</title>
<polygon fill="none" stroke="black" points="3313.5,-252 3188.5,-252 3188.5,-216 3313.5,-216 3313.5,-252"/>
<text text-anchor="middle" x="3251" y="-230.3" font-family="Times,serif" font-size="14.00">Policies.klUCBPlus</text>
</g>
<!-- 16&#45;&gt;53 -->
<g id="edge57" class="edge"><title>16&#45;&gt;53</title>
<path fill="none" stroke="black" d="M2254.86,-162.749C2371.8,-162.167 2809.81,-163.717 3178.24,-216.064"/>
<polygon fill="black" stroke="black" points="3188.3,-217.508 3177.76,-220.541 3183.35,-216.797 3178.4,-216.086 3178.4,-216.086 3178.4,-216.086 3183.35,-216.797 3179.04,-211.632 3188.3,-217.508 3188.3,-217.508"/>
</g>
<!-- 54 -->
<g id="node55" class="node"><title>54</title>
<polygon fill="none" stroke="black" points="3464,-252 3332,-252 3332,-216 3464,-216 3464,-252"/>
<text text-anchor="middle" x="3398" y="-230.3" font-family="Times,serif" font-size="14.00">Policies.klUCBlog10</text>
</g>
<!-- 16&#45;&gt;54 -->
<g id="edge58" class="edge"><title>16&#45;&gt;54</title>
<path fill="none" stroke="black" d="M2254.84,-162.57C2382.28,-161.122 2893.49,-159.279 3321.7,-216.136"/>
<polygon fill="black" stroke="black" points="3331.8,-217.49 3321.29,-220.621 3326.85,-216.825 3321.89,-216.161 3321.89,-216.161 3321.89,-216.161 3326.85,-216.825 3322.49,-211.701 3331.8,-217.49 3331.8,-217.49"/>
</g>
<!-- 55 -->
<g id="node56" class="node"><title>55</title>
<polygon fill="none" stroke="black" points="3618,-252 3482,-252 3482,-216 3618,-216 3618,-252"/>
<text text-anchor="middle" x="3550" y="-230.3" font-family="Times,serif" font-size="14.00">Policies.klUCBloglog</text>
</g>
<!-- 16&#45;&gt;55 -->
<g id="edge59" class="edge"><title>16&#45;&gt;55</title>
<path fill="none" stroke="black" d="M2254.69,-163.555C2417.7,-166.711 3206,-183.36 3471.69,-215.999"/>
<polygon fill="black" stroke="black" points="3481.68,-217.266 3471.19,-220.471 3476.72,-216.636 3471.76,-216.007 3471.76,-216.007 3471.76,-216.007 3476.72,-216.636 3472.32,-211.543 3481.68,-217.266 3481.68,-217.266"/>
</g>
<!-- 56 -->
<g id="node57" class="node"><title>56</title>
<polygon fill="none" stroke="black" points="3785.5,-252 3636.5,-252 3636.5,-216 3785.5,-216 3785.5,-252"/>
<text text-anchor="middle" x="3711" y="-230.3" font-family="Times,serif" font-size="14.00">Policies.klUCBloglog10</text>
</g>
<!-- 16&#45;&gt;56 -->
<g id="edge60" class="edge"><title>16&#45;&gt;56</title>
<path fill="none" stroke="black" d="M2254.51,-163.464C2428.92,-166.305 3327.15,-182.309 3626.48,-216.102"/>
<polygon fill="black" stroke="black" points="3636.45,-217.26 3625.99,-220.575 3631.48,-216.683 3626.51,-216.105 3626.51,-216.105 3626.51,-216.105 3631.48,-216.683 3627.03,-211.636 3636.45,-217.26 3636.45,-217.26"/>
</g>
<!-- 19 -->
<g id="node20" class="node"><title>19</title>
<polygon fill="none" stroke="black" points="1668,-540 1544,-540 1544,-504 1668,-504 1668,-540"/>
<text text-anchor="middle" x="1606" y="-518.3" font-family="Times,serif" font-size="14.00">Policies.BasePolicy</text>
</g>
<!-- 17&#45;&gt;19 -->
<g id="edge61" class="edge"><title>17&#45;&gt;19</title>
<path fill="none" stroke="black" d="M1931.07,-324.133C1907.3,-356.984 1850.71,-429.02 1786,-468 1753.24,-487.736 1712.66,-500.517 1678.34,-508.571"/>
<polygon fill="black" stroke="black" points="1668.37,-510.82 1677.13,-504.23 1673.25,-509.72 1678.12,-508.619 1678.12,-508.619 1678.12,-508.619 1673.25,-509.72 1679.11,-513.009 1668.37,-510.82 1668.37,-510.82"/>
</g>
<!-- 22 -->
<g id="node23" class="node"><title>22</title>
<polygon fill="none" stroke="black" points="2102,-396 2014,-396 2014,-360 2102,-360 2102,-396"/>
<text text-anchor="middle" x="2058" y="-374.3" font-family="Times,serif" font-size="14.00">Policies.Beta</text>
</g>
<!-- 17&#45;&gt;22 -->
<g id="edge62" class="edge"><title>17&#45;&gt;22</title>
<path fill="none" stroke="black" d="M1971.13,-324.124C1986.17,-333.276 2004.87,-344.658 2021.06,-354.515"/>
<polygon fill="black" stroke="black" points="2029.76,-359.81 2018.88,-358.455 2025.49,-357.21 2021.22,-354.611 2021.22,-354.611 2021.22,-354.611 2025.49,-357.21 2023.56,-350.767 2029.76,-359.81 2029.76,-359.81"/>
</g>
<!-- 18&#45;&gt;19 -->
<g id="edge63" class="edge"><title>18&#45;&gt;19</title>
<path fill="none" stroke="black" d="M935.605,-455.459C1056.61,-467.288 1386.56,-499.546 1533.61,-513.923"/>
<polygon fill="black" stroke="black" points="1543.87,-514.926 1533.48,-518.432 1538.9,-514.44 1533.92,-513.953 1533.92,-513.953 1533.92,-513.953 1538.9,-514.44 1534.36,-509.475 1543.87,-514.926 1543.87,-514.926"/>
</g>
<!-- 21 -->
<g id="node22" class="node"><title>21</title>
<polygon fill="none" stroke="black" points="2200,-324 2022,-324 2022,-288 2200,-288 2200,-324"/>
<text text-anchor="middle" x="2111" y="-302.3" font-family="Times,serif" font-size="14.00">Policies.BayesianIndexPolicy</text>
</g>
<!-- 20&#45;&gt;21 -->
<g id="edge64" class="edge"><title>20&#45;&gt;21</title>
<path fill="none" stroke="black" d="M2143.37,-252.303C2138.37,-260.441 2132.31,-270.311 2126.79,-279.299"/>
<polygon fill="black" stroke="black" points="2121.51,-287.896 2122.91,-277.019 2124.12,-283.635 2126.74,-279.375 2126.74,-279.375 2126.74,-279.375 2124.12,-283.635 2130.58,-281.73 2121.51,-287.896 2121.51,-287.896"/>
</g>
<!-- 21&#45;&gt;22 -->
<g id="edge65" class="edge"><title>21&#45;&gt;22</title>
<path fill="none" stroke="black" d="M2097.9,-324.303C2091.61,-332.611 2083.95,-342.723 2077.04,-351.859"/>
<polygon fill="black" stroke="black" points="2070.95,-359.896 2073.4,-349.207 2073.97,-355.909 2076.99,-351.923 2076.99,-351.923 2076.99,-351.923 2073.97,-355.909 2080.57,-354.639 2070.95,-359.896 2070.95,-359.896"/>
</g>
<!-- 29 -->
<g id="node30" class="node"><title>29</title>
<polygon fill="none" stroke="black" points="2934,-468 2806,-468 2806,-432 2934,-432 2934,-468"/>
<text text-anchor="middle" x="2870" y="-446.3" font-family="Times,serif" font-size="14.00">Policies.IndexPolicy</text>
</g>
<!-- 21&#45;&gt;29 -->
<g id="edge66" class="edge"><title>21&#45;&gt;29</title>
<path fill="none" stroke="black" d="M2178.29,-324.001C2256.11,-343.258 2388.24,-374.72 2503,-396 2603.81,-414.692 2721.22,-430.639 2795.57,-440.022"/>
<polygon fill="black" stroke="black" points="2805.77,-441.302 2795.29,-444.522 2800.81,-440.68 2795.85,-440.057 2795.85,-440.057 2795.85,-440.057 2800.81,-440.68 2796.41,-435.592 2805.77,-441.302 2805.77,-441.302"/>
</g>
<!-- 34 -->
<g id="node35" class="node"><title>34</title>
<polygon fill="none" stroke="black" points="2114,-468 2002,-468 2002,-432 2114,-432 2114,-468"/>
<text text-anchor="middle" x="2058" y="-446.3" font-family="Times,serif" font-size="14.00">Policies.Posterior</text>
</g>
<!-- 22&#45;&gt;34 -->
<g id="edge67" class="edge"><title>22&#45;&gt;34</title>
<path fill="none" stroke="black" d="M2058,-396.303C2058,-404.017 2058,-413.288 2058,-421.888"/>
<polygon fill="black" stroke="black" points="2058,-431.896 2053.5,-421.896 2058,-426.896 2058,-421.896 2058,-421.896 2058,-421.896 2058,-426.896 2062.5,-421.896 2058,-431.896 2058,-431.896"/>
</g>
<!-- 23&#45;&gt;27 -->
<g id="edge68" class="edge"><title>23&#45;&gt;27</title>
<path fill="none" stroke="black" d="M932.952,-252.124C946.042,-261.107 962.26,-272.237 976.436,-281.966"/>
<polygon fill="black" stroke="black" points="984.952,-287.81 974.161,-285.862 980.83,-284.981 976.707,-282.152 976.707,-282.152 976.707,-282.152 980.83,-284.981 979.253,-278.441 984.952,-287.81 984.952,-287.81"/>
</g>
<!-- 24&#45;&gt;27 -->
<g id="edge69" class="edge"><title>24&#45;&gt;27</title>
<path fill="none" stroke="black" d="M1087.05,-252.124C1073.96,-261.107 1057.74,-272.237 1043.56,-281.966"/>
<polygon fill="black" stroke="black" points="1035.05,-287.81 1040.75,-278.441 1039.17,-284.981 1043.29,-282.152 1043.29,-282.152 1043.29,-282.152 1039.17,-284.981 1045.84,-285.862 1035.05,-287.81 1035.05,-287.81"/>
</g>
<!-- 25&#45;&gt;27 -->
<g id="edge70" class="edge"><title>25&#45;&gt;27</title>
<path fill="none" stroke="black" d="M1249.86,-252.034C1202.02,-262.598 1140.62,-276.156 1091.92,-286.911"/>
<polygon fill="black" stroke="black" points="1082.04,-289.091 1090.84,-282.541 1086.93,-288.013 1091.81,-286.935 1091.81,-286.935 1091.81,-286.935 1086.93,-288.013 1092.78,-291.329 1082.04,-289.091 1082.04,-289.091"/>
</g>
<!-- 26&#45;&gt;27 -->
<g id="edge71" class="edge"><title>26&#45;&gt;27</title>
<path fill="none" stroke="black" d="M768.521,-249.76C814.96,-260.383 877.969,-274.797 927.979,-286.237"/>
<polygon fill="black" stroke="black" points="937.799,-288.483 927.047,-290.64 932.925,-287.368 928.051,-286.253 928.051,-286.253 928.051,-286.253 932.925,-287.368 929.054,-281.867 937.799,-288.483 937.799,-288.483"/>
</g>
<!-- 27&#45;&gt;19 -->
<g id="edge72" class="edge"><title>27&#45;&gt;19</title>
<path fill="none" stroke="black" d="M1036.86,-324.25C1089.56,-357.302 1211.14,-429.672 1323,-468 1392.59,-491.845 1475.69,-505.789 1533.77,-513.336"/>
<polygon fill="black" stroke="black" points="1543.96,-514.627 1533.47,-517.834 1539,-513.998 1534.04,-513.369 1534.04,-513.369 1534.04,-513.369 1539,-513.998 1534.6,-508.905 1543.96,-514.627 1543.96,-514.627"/>
</g>
<!-- 28&#45;&gt;19 -->
<g id="edge73" class="edge"><title>28&#45;&gt;19</title>
<path fill="none" stroke="black" d="M1341.4,-396.087C1330.77,-415.645 1318.2,-447.598 1335,-468 1359.72,-498.027 1461.99,-511.283 1533.56,-516.964"/>
<polygon fill="black" stroke="black" points="1543.88,-517.748 1533.57,-521.478 1538.9,-517.369 1533.91,-516.991 1533.91,-516.991 1533.91,-516.991 1538.9,-517.369 1534.25,-512.504 1543.88,-517.748 1543.88,-517.748"/>
</g>
<!-- 29&#45;&gt;19 -->
<g id="edge74" class="edge"><title>29&#45;&gt;19</title>
<path fill="none" stroke="black" d="M2805.58,-454.568C2591.29,-466.435 1903.29,-504.536 1678.1,-517.007"/>
<polygon fill="black" stroke="black" points="1668.05,-517.564 1677.78,-512.518 1673.04,-517.287 1678.03,-517.011 1678.03,-517.011 1678.03,-517.011 1673.04,-517.287 1678.28,-521.504 1668.05,-517.564 1668.05,-517.564"/>
</g>
<!-- 30 -->
<g id="node31" class="node"><title>30</title>
<polygon fill="none" stroke="black" points="3253.5,-324 3120.5,-324 3120.5,-288 3253.5,-288 3253.5,-324"/>
<text text-anchor="middle" x="3187" y="-302.3" font-family="Times,serif" font-size="14.00">Policies.KLempUCB</text>
</g>
<!-- 30&#45;&gt;29 -->
<g id="edge75" class="edge"><title>30&#45;&gt;29</title>
<path fill="none" stroke="black" d="M3163.22,-324.046C3135.13,-343.565 3086.46,-375.483 3041,-396 3010.2,-409.903 2974.71,-421.558 2944.08,-430.365"/>
<polygon fill="black" stroke="black" points="2934.32,-433.124 2942.72,-426.074 2939.13,-431.764 2943.94,-430.404 2943.94,-430.404 2943.94,-430.404 2939.13,-431.764 2945.16,-434.735 2934.32,-433.124 2934.32,-433.124"/>
</g>
<!-- 57 -->
<g id="node58" class="node"><title>57</title>
<polygon fill="none" stroke="black" points="3345,-396 3235,-396 3235,-360 3345,-360 3345,-396"/>
<text text-anchor="middle" x="3290" y="-374.3" font-family="Times,serif" font-size="14.00">Policies.kullback</text>
</g>
<!-- 30&#45;&gt;57 -->
<g id="edge76" class="edge"><title>30&#45;&gt;57</title>
<path fill="none" stroke="black" d="M3212.2,-324.124C3225.41,-333.107 3241.79,-344.237 3256.11,-353.966"/>
<polygon fill="black" stroke="black" points="3264.71,-359.81 3253.91,-357.911 3260.57,-357 3256.44,-354.189 3256.44,-354.189 3256.44,-354.189 3260.57,-357 3258.97,-350.467 3264.71,-359.81 3264.71,-359.81"/>
</g>
<!-- 31&#45;&gt;19 -->
<g id="edge77" class="edge"><title>31&#45;&gt;19</title>
<path fill="none" stroke="black" d="M1447.1,-468.034C1476.57,-477.858 1513.81,-490.271 1544.83,-500.611"/>
<polygon fill="black" stroke="black" points="1554.67,-503.889 1543.76,-504.996 1549.92,-502.308 1545.18,-500.727 1545.18,-500.727 1545.18,-500.727 1549.92,-502.308 1546.6,-496.458 1554.67,-503.889 1554.67,-503.889"/>
</g>
<!-- 32&#45;&gt;29 -->
<g id="edge78" class="edge"><title>32&#45;&gt;29</title>
<path fill="none" stroke="black" d="M2954.6,-396.124C2940.09,-405.192 2922.08,-416.448 2906.41,-426.241"/>
<polygon fill="black" stroke="black" points="2897.5,-431.81 2903.6,-422.694 2901.74,-429.16 2905.98,-426.51 2905.98,-426.51 2905.98,-426.51 2901.74,-429.16 2908.37,-430.326 2897.5,-431.81 2897.5,-431.81"/>
</g>
<!-- 33&#45;&gt;19 -->
<g id="edge79" class="edge"><title>33&#45;&gt;19</title>
<path fill="none" stroke="black" d="M1552.55,-468.303C1561.23,-476.865 1571.86,-487.344 1581.35,-496.696"/>
<polygon fill="black" stroke="black" points="1588.65,-503.896 1578.37,-500.079 1585.09,-500.385 1581.53,-496.875 1581.53,-496.875 1581.53,-496.875 1585.09,-500.385 1584.69,-493.67 1588.65,-503.896 1588.65,-503.896"/>
</g>
<!-- 35&#45;&gt;19 -->
<g id="edge80" class="edge"><title>35&#45;&gt;19</title>
<path fill="none" stroke="black" d="M1659.45,-468.303C1650.77,-476.865 1640.14,-487.344 1630.65,-496.696"/>
<polygon fill="black" stroke="black" points="1623.35,-503.896 1627.31,-493.67 1626.91,-500.385 1630.47,-496.875 1630.47,-496.875 1630.47,-496.875 1626.91,-500.385 1633.63,-500.079 1623.35,-503.896 1623.35,-503.896"/>
</g>
<!-- 36&#45;&gt;19 -->
<g id="edge81" class="edge"><title>36&#45;&gt;19</title>
<path fill="none" stroke="black" d="M1682.77,-324.103C1715.48,-354.515 1774.15,-419.369 1741,-468 1726.54,-489.211 1702.19,-501.933 1678.11,-509.564"/>
<polygon fill="black" stroke="black" points="1668.2,-512.437 1676.55,-505.33 1673.01,-511.045 1677.81,-509.652 1677.81,-509.652 1677.81,-509.652 1673.01,-511.045 1679.06,-513.974 1668.2,-512.437 1668.2,-512.437"/>
</g>
<!-- 37&#45;&gt;36 -->
<g id="edge82" class="edge"><title>37&#45;&gt;36</title>
<path fill="none" stroke="black" d="M1681.07,-252.303C1678.39,-260.102 1675.17,-269.491 1672.2,-278.171"/>
<polygon fill="black" stroke="black" points="1668.86,-287.896 1667.85,-276.977 1670.49,-283.166 1672.11,-278.436 1672.11,-278.436 1672.11,-278.436 1670.49,-283.166 1676.36,-279.896 1668.86,-287.896 1668.86,-287.896"/>
</g>
<!-- 38&#45;&gt;21 -->
<g id="edge83" class="edge"><title>38&#45;&gt;21</title>
<path fill="none" stroke="black" d="M2249.99,-252.124C2224.5,-261.821 2192.43,-274.02 2165.52,-284.257"/>
<polygon fill="black" stroke="black" points="2155.87,-287.932 2163.61,-280.17 2160.54,-286.154 2165.21,-284.376 2165.21,-284.376 2165.21,-284.376 2160.54,-286.154 2166.81,-288.582 2155.87,-287.932 2155.87,-287.932"/>
</g>
<!-- 39&#45;&gt;29 -->
<g id="edge84" class="edge"><title>39&#45;&gt;29</title>
<path fill="none" stroke="black" d="M2785.4,-396.124C2799.91,-405.192 2817.92,-416.448 2833.59,-426.241"/>
<polygon fill="black" stroke="black" points="2842.5,-431.81 2831.63,-430.326 2838.26,-429.16 2834.02,-426.51 2834.02,-426.51 2834.02,-426.51 2838.26,-429.16 2836.4,-422.694 2842.5,-431.81 2842.5,-431.81"/>
</g>
<!-- 40&#45;&gt;39 -->
<g id="edge85" class="edge"><title>40&#45;&gt;39</title>
<path fill="none" stroke="black" d="M2962.27,-321.414C2959.14,-322.293 2956.03,-323.16 2953,-324 2906.14,-337.006 2852.86,-351.466 2813.84,-361.992"/>
<polygon fill="black" stroke="black" points="2803.74,-364.716 2812.23,-357.768 2808.57,-363.414 2813.4,-362.113 2813.4,-362.113 2813.4,-362.113 2808.57,-363.414 2814.57,-366.457 2803.74,-364.716 2803.74,-364.716"/>
</g>
<!-- 41&#45;&gt;40 -->
<g id="edge86" class="edge"><title>41&#45;&gt;40</title>
<path fill="none" stroke="black" d="M2909.51,-252.124C2927.84,-261.488 2950.74,-273.186 2970.33,-283.197"/>
<polygon fill="black" stroke="black" points="2979.36,-287.81 2968.4,-287.267 2974.9,-285.535 2970.45,-283.26 2970.45,-283.26 2970.45,-283.26 2974.9,-285.535 2972.5,-279.253 2979.36,-287.81 2979.36,-287.81"/>
</g>
<!-- 42&#45;&gt;39 -->
<g id="edge87" class="edge"><title>42&#45;&gt;39</title>
<path fill="none" stroke="black" d="M2758,-324.303C2758,-332.017 2758,-341.288 2758,-349.888"/>
<polygon fill="black" stroke="black" points="2758,-359.896 2753.5,-349.896 2758,-354.896 2758,-349.896 2758,-349.896 2758,-349.896 2758,-354.896 2762.5,-349.896 2758,-359.896 2758,-359.896"/>
</g>
<!-- 43&#45;&gt;29 -->
<g id="edge88" class="edge"><title>43&#45;&gt;29</title>
<path fill="none" stroke="black" d="M2340.08,-321.844C2343.1,-322.574 2346.08,-323.296 2349,-324 2508.26,-362.444 2695,-407.16 2796.02,-431.318"/>
<polygon fill="black" stroke="black" points="2805.82,-433.662 2795.05,-435.713 2800.96,-432.499 2796.09,-431.336 2796.09,-431.336 2796.09,-431.336 2800.96,-432.499 2797.14,-426.96 2805.82,-433.662 2805.82,-433.662"/>
</g>
<!-- 44&#45;&gt;43 -->
<g id="edge89" class="edge"><title>44&#45;&gt;43</title>
<path fill="none" stroke="black" d="M2437.14,-252.034C2407.81,-261.858 2370.75,-274.271 2339.88,-284.611"/>
<polygon fill="black" stroke="black" points="2330.09,-287.889 2338.14,-280.446 2334.83,-286.301 2339.57,-284.713 2339.57,-284.713 2339.57,-284.713 2334.83,-286.301 2341,-288.98 2330.09,-287.889 2330.09,-287.889"/>
</g>
<!-- 45&#45;&gt;39 -->
<g id="edge90" class="edge"><title>45&#45;&gt;39</title>
<path fill="none" stroke="black" d="M2857.71,-324.124C2840.13,-333.446 2818.19,-345.081 2799.37,-355.061"/>
<polygon fill="black" stroke="black" points="2790.41,-359.81 2797.14,-351.15 2794.83,-357.468 2799.25,-355.125 2799.25,-355.125 2799.25,-355.125 2794.83,-357.468 2801.36,-359.101 2790.41,-359.81 2790.41,-359.81"/>
</g>
<!-- 46&#45;&gt;39 -->
<g id="edge91" class="edge"><title>46&#45;&gt;39</title>
<path fill="none" stroke="black" d="M2471.83,-321.88C2474.93,-322.615 2478,-323.327 2481,-324 2557.24,-341.094 2646.05,-357.47 2702.15,-367.381"/>
<polygon fill="black" stroke="black" points="2712.23,-369.155 2701.6,-371.854 2707.31,-368.289 2702.38,-367.422 2702.38,-367.422 2702.38,-367.422 2707.31,-368.289 2703.16,-362.99 2712.23,-369.155 2712.23,-369.155"/>
</g>
<!-- 47&#45;&gt;39 -->
<g id="edge92" class="edge"><title>47&#45;&gt;39</title>
<path fill="none" stroke="black" d="M2612.97,-324.124C2639.98,-333.972 2674.07,-346.401 2702.41,-356.735"/>
<polygon fill="black" stroke="black" points="2712.18,-360.294 2701.24,-361.097 2707.48,-358.582 2702.78,-356.869 2702.78,-356.869 2702.78,-356.869 2707.48,-358.582 2704.33,-352.641 2712.18,-360.294 2712.18,-360.294"/>
</g>
<!-- 48&#45;&gt;29 -->
<g id="edge93" class="edge"><title>48&#45;&gt;29</title>
<path fill="none" stroke="black" d="M3607.23,-384.493C3461.43,-397.25 3100.47,-428.834 2944.14,-442.512"/>
<polygon fill="black" stroke="black" points="2934.15,-443.387 2943.72,-438.033 2939.13,-442.951 2944.11,-442.515 2944.11,-442.515 2944.11,-442.515 2939.13,-442.951 2944.5,-446.998 2934.15,-443.387 2934.15,-443.387"/>
</g>
<!-- 49&#45;&gt;19 -->
<g id="edge94" class="edge"><title>49&#45;&gt;19</title>
<path fill="none" stroke="black" d="M1808.67,-324.079C1807.12,-356.516 1799.15,-427.415 1760,-468 1738.49,-490.3 1707.18,-503.22 1678.4,-510.704"/>
<polygon fill="black" stroke="black" points="1668.34,-513.131 1677.01,-506.41 1673.2,-511.958 1678.06,-510.785 1678.06,-510.785 1678.06,-510.785 1673.2,-511.958 1679.12,-515.159 1668.34,-513.131 1668.34,-513.131"/>
</g>
<!-- 50&#45;&gt;49 -->
<g id="edge95" class="edge"><title>50&#45;&gt;49</title>
<path fill="none" stroke="black" d="M1920.8,-252.124C1900.74,-261.608 1875.63,-273.487 1854.29,-283.581"/>
<polygon fill="black" stroke="black" points="1845.09,-287.932 1852.2,-279.588 1849.61,-285.794 1854.13,-283.656 1854.13,-283.656 1854.13,-283.656 1849.61,-285.794 1856.05,-287.724 1845.09,-287.932 1845.09,-287.932"/>
</g>
<!-- 51&#45;&gt;29 -->
<g id="edge96" class="edge"><title>51&#45;&gt;29</title>
<path fill="none" stroke="black" d="M3395.46,-324.343C3390.24,-345.093 3378.34,-379.139 3354,-396 3289.35,-440.787 3062.97,-448.467 2944.13,-449.322"/>
<polygon fill="black" stroke="black" points="2934.02,-449.38 2943.99,-444.822 2939.02,-449.351 2944.02,-449.322 2944.02,-449.322 2944.02,-449.322 2939.02,-449.351 2944.05,-453.822 2934.02,-449.38 2934.02,-449.38"/>
</g>
<!-- 51&#45;&gt;57 -->
<g id="edge97" class="edge"><title>51&#45;&gt;57</title>
<path fill="none" stroke="black" d="M3372.34,-324.124C3358.22,-333.192 3340.69,-344.448 3325.44,-354.241"/>
<polygon fill="black" stroke="black" points="3316.77,-359.81 3322.75,-350.62 3320.97,-357.108 3325.18,-354.407 3325.18,-354.407 3325.18,-354.407 3320.97,-357.108 3327.61,-358.193 3316.77,-359.81 3316.77,-359.81"/>
</g>
<!-- 52&#45;&gt;51 -->
<g id="edge98" class="edge"><title>52&#45;&gt;51</title>
<path fill="none" stroke="black" d="M3170.25,-250.191C3226.89,-263.031 3303.43,-280.497 3334,-288 3335.45,-288.356 3336.92,-288.719 3338.4,-289.088"/>
<polygon fill="black" stroke="black" points="3348.3,-291.581 3337.5,-293.501 3343.45,-290.359 3338.6,-289.137 3338.6,-289.137 3338.6,-289.137 3343.45,-290.359 3339.7,-284.774 3348.3,-291.581 3348.3,-291.581"/>
</g>
<!-- 52&#45;&gt;57 -->
<g id="edge99" class="edge"><title>52&#45;&gt;57</title>
<path fill="none" stroke="black" d="M3170.16,-251.402C3224.26,-264.933 3291.98,-282.733 3296,-288 3309.29,-305.434 3306.05,-330.8 3300.49,-349.996"/>
<polygon fill="black" stroke="black" points="3297.36,-359.666 3296.16,-348.765 3298.9,-354.91 3300.44,-350.154 3300.44,-350.154 3300.44,-350.154 3298.9,-354.91 3304.72,-351.542 3297.36,-359.666 3297.36,-359.666"/>
</g>
<!-- 53&#45;&gt;51 -->
<g id="edge100" class="edge"><title>53&#45;&gt;51</title>
<path fill="none" stroke="black" d="M3287.2,-252.124C3307.26,-261.608 3332.37,-273.487 3353.71,-283.581"/>
<polygon fill="black" stroke="black" points="3362.91,-287.932 3351.95,-287.724 3358.39,-285.794 3353.87,-283.656 3353.87,-283.656 3353.87,-283.656 3358.39,-285.794 3355.8,-279.588 3362.91,-287.932 3362.91,-287.932"/>
</g>
<!-- 54&#45;&gt;51 -->
<g id="edge101" class="edge"><title>54&#45;&gt;51</title>
<path fill="none" stroke="black" d="M3398.25,-252.303C3398.36,-260.017 3398.49,-269.288 3398.61,-277.888"/>
<polygon fill="black" stroke="black" points="3398.76,-287.896 3394.11,-277.961 3398.68,-282.896 3398.61,-277.897 3398.61,-277.897 3398.61,-277.897 3398.68,-282.896 3403.11,-277.832 3398.76,-287.896 3398.76,-287.896"/>
</g>
<!-- 55&#45;&gt;51 -->
<g id="edge102" class="edge"><title>55&#45;&gt;51</title>
<path fill="none" stroke="black" d="M3513.06,-252.124C3492.51,-261.651 3466.75,-273.593 3444.91,-283.717"/>
<polygon fill="black" stroke="black" points="3435.82,-287.932 3443,-279.643 3440.36,-285.829 3444.89,-283.726 3444.89,-283.726 3444.89,-283.726 3440.36,-285.829 3446.78,-287.808 3435.82,-287.932 3435.82,-287.932"/>
</g>
<!-- 56&#45;&gt;51 -->
<g id="edge103" class="edge"><title>56&#45;&gt;51</title>
<path fill="none" stroke="black" d="M3636.27,-251.767C3582.18,-263.901 3510.02,-280.091 3459.53,-291.419"/>
<polygon fill="black" stroke="black" points="3449.74,-293.617 3458.51,-287.037 3454.61,-292.522 3459.49,-291.428 3459.49,-291.428 3459.49,-291.428 3454.61,-292.522 3460.48,-295.819 3449.74,-293.617 3449.74,-293.617"/>
</g>
<!-- 58 -->
<g id="node59" class="node"><title>58</title>
<polygon fill="none" stroke="black" points="5670,-180 5540,-180 5540,-144 5670,-144 5670,-180"/>
<text text-anchor="middle" x="5605" y="-158.3" font-family="Times,serif" font-size="14.00">PoliciesMultiPlayers</text>
</g>
<!-- 59 -->
<g id="node60" class="node"><title>59</title>
<polygon fill="none" stroke="black" points="5453.5,-252 5272.5,-252 5272.5,-216 5453.5,-216 5453.5,-252"/>
<text text-anchor="middle" x="5363" y="-230.3" font-family="Times,serif" font-size="14.00">PoliciesMultiPlayers.ALOHA</text>
</g>
<!-- 58&#45;&gt;59 -->
<g id="edge104" class="edge"><title>58&#45;&gt;59</title>
<path fill="none" stroke="black" d="M5546.11,-180.034C5511.71,-189.985 5468.12,-202.594 5432.1,-213.013"/>
<polygon fill="black" stroke="black" points="5422.15,-215.889 5430.51,-208.788 5426.96,-214.5 5431.76,-213.11 5431.76,-213.11 5431.76,-213.11 5426.96,-214.5 5433.01,-217.433 5422.15,-215.889 5422.15,-215.889"/>
</g>
<!-- 62 -->
<g id="node63" class="node"><title>62</title>
<polygon fill="none" stroke="black" points="6431.5,-252 6192.5,-252 6192.5,-216 6431.5,-216 6431.5,-252"/>
<text text-anchor="middle" x="6312" y="-230.3" font-family="Times,serif" font-size="14.00">PoliciesMultiPlayers.CentralizedCycling</text>
</g>
<!-- 58&#45;&gt;62 -->
<g id="edge105" class="edge"><title>58&#45;&gt;62</title>
<path fill="none" stroke="black" d="M5670.21,-168.098C5775.67,-176.533 5990.42,-194.507 6182.45,-215.849"/>
<polygon fill="black" stroke="black" points="6192.44,-216.965 6182.01,-220.327 6187.47,-216.41 6182.51,-215.855 6182.51,-215.855 6182.51,-215.855 6187.47,-216.41 6183.01,-211.383 6192.44,-216.965 6192.44,-216.965"/>
</g>
<!-- 63 -->
<g id="node64" class="node"><title>63</title>
<polygon fill="none" stroke="black" points="6676.5,-252 6449.5,-252 6449.5,-216 6676.5,-216 6676.5,-252"/>
<text text-anchor="middle" x="6563" y="-230.3" font-family="Times,serif" font-size="14.00">PoliciesMultiPlayers.CentralizedFixed</text>
</g>
<!-- 58&#45;&gt;63 -->
<g id="edge106" class="edge"><title>58&#45;&gt;63</title>
<path fill="none" stroke="black" d="M5670.18,-165.463C5809.5,-171.091 6146.82,-186.645 6439.44,-215.882"/>
<polygon fill="black" stroke="black" points="6449.39,-216.884 6438.99,-220.36 6444.41,-216.383 6439.44,-215.883 6439.44,-215.883 6439.44,-215.883 6444.41,-216.383 6439.89,-211.405 6449.39,-216.884 6449.39,-216.884"/>
</g>
<!-- 64 -->
<g id="node65" class="node"><title>64</title>
<polygon fill="none" stroke="black" points="5738.5,-252 5471.5,-252 5471.5,-216 5738.5,-216 5738.5,-252"/>
<text text-anchor="middle" x="5605" y="-230.3" font-family="Times,serif" font-size="14.00">PoliciesMultiPlayers.CentralizedMultiplePlay</text>
</g>
<!-- 58&#45;&gt;64 -->
<g id="edge107" class="edge"><title>58&#45;&gt;64</title>
<path fill="none" stroke="black" d="M5605,-180.303C5605,-188.017 5605,-197.288 5605,-205.888"/>
<polygon fill="black" stroke="black" points="5605,-215.896 5600.5,-205.896 5605,-210.896 5605,-205.896 5605,-205.896 5605,-205.896 5605,-210.896 5609.5,-205.896 5605,-215.896 5605,-215.896"/>
</g>
<!-- 67 -->
<g id="node68" class="node"><title>67</title>
<polygon fill="none" stroke="black" points="6885.5,-252 6694.5,-252 6694.5,-216 6885.5,-216 6885.5,-252"/>
<text text-anchor="middle" x="6790" y="-230.3" font-family="Times,serif" font-size="14.00">PoliciesMultiPlayers.OracleFair</text>
</g>
<!-- 58&#45;&gt;67 -->
<g id="edge108" class="edge"><title>58&#45;&gt;67</title>
<path fill="none" stroke="black" d="M5670.08,-163.63C5837.05,-165.797 6294.34,-175.197 6684.22,-215.878"/>
<polygon fill="black" stroke="black" points="6694.29,-216.937 6683.87,-220.366 6689.31,-216.414 6684.34,-215.89 6684.34,-215.89 6684.34,-215.89 6689.31,-216.414 6684.81,-211.415 6694.29,-216.937 6694.29,-216.937"/>
</g>
<!-- 68 -->
<g id="node69" class="node"><title>68</title>
<polygon fill="none" stroke="black" points="6175,-252 5963,-252 5963,-216 6175,-216 6175,-252"/>
<text text-anchor="middle" x="6069" y="-230.3" font-family="Times,serif" font-size="14.00">PoliciesMultiPlayers.OracleNotFair</text>
</g>
<!-- 58&#45;&gt;68 -->
<g id="edge109" class="edge"><title>58&#45;&gt;68</title>
<path fill="none" stroke="black" d="M5670.01,-172.807C5743.21,-183.85 5863.6,-202.012 5953.02,-215.503"/>
<polygon fill="black" stroke="black" points="5962.94,-216.999 5952.38,-219.957 5958,-216.254 5953.05,-215.508 5953.05,-215.508 5953.05,-215.508 5958,-216.254 5953.72,-211.058 5962.94,-216.999 5962.94,-216.999"/>
</g>
<!-- 69 -->
<g id="node70" class="node"><title>69</title>
<polygon fill="none" stroke="black" points="5945,-252 5757,-252 5757,-216 5945,-216 5945,-252"/>
<text text-anchor="middle" x="5851" y="-230.3" font-family="Times,serif" font-size="14.00">PoliciesMultiPlayers.Scenario1</text>
</g>
<!-- 58&#45;&gt;69 -->
<g id="edge110" class="edge"><title>58&#45;&gt;69</title>
<path fill="none" stroke="black" d="M5664.86,-180.034C5699.98,-190.028 5744.52,-202.702 5781.23,-213.146"/>
<polygon fill="black" stroke="black" points="5790.87,-215.889 5780.02,-217.48 5786.06,-214.521 5781.25,-213.152 5781.25,-213.152 5781.25,-213.152 5786.06,-214.521 5782.48,-208.824 5790.87,-215.889 5790.87,-215.889"/>
</g>
<!-- 70 -->
<g id="node71" class="node"><title>70</title>
<polygon fill="none" stroke="black" points="4828.5,-252 4657.5,-252 4657.5,-216 4828.5,-216 4828.5,-252"/>
<text text-anchor="middle" x="4743" y="-230.3" font-family="Times,serif" font-size="14.00">PoliciesMultiPlayers.Selfish</text>
</g>
<!-- 58&#45;&gt;70 -->
<g id="edge111" class="edge"><title>58&#45;&gt;70</title>
<path fill="none" stroke="black" d="M5539.87,-165.125C5409,-169.911 5104.67,-183.642 4838.87,-215.979"/>
<polygon fill="black" stroke="black" points="4828.64,-217.236 4838.02,-211.55 4833.6,-216.626 4838.57,-216.017 4838.57,-216.017 4838.57,-216.017 4833.6,-216.626 4839.11,-220.483 4828.64,-217.236 4828.64,-217.236"/>
</g>
<!-- 72 -->
<g id="node73" class="node"><title>72</title>
<polygon fill="none" stroke="black" points="5027,-252 4847,-252 4847,-216 5027,-216 5027,-252"/>
<text text-anchor="middle" x="4937" y="-230.3" font-family="Times,serif" font-size="14.00">PoliciesMultiPlayers.rhoRand</text>
</g>
<!-- 58&#45;&gt;72 -->
<g id="edge112" class="edge"><title>58&#45;&gt;72</title>
<path fill="none" stroke="black" d="M5539.65,-167.489C5435.67,-174.987 5225.95,-191.555 5037.28,-216.029"/>
<polygon fill="black" stroke="black" points="5027.17,-217.35 5036.5,-211.592 5032.13,-216.702 5037.08,-216.054 5037.08,-216.054 5037.08,-216.054 5032.13,-216.702 5037.67,-220.516 5027.17,-217.35 5027.17,-217.35"/>
</g>
<!-- 73 -->
<g id="node74" class="node"><title>73</title>
<polygon fill="none" stroke="black" points="5254.5,-252 5045.5,-252 5045.5,-216 5254.5,-216 5254.5,-252"/>
<text text-anchor="middle" x="5150" y="-230.3" font-family="Times,serif" font-size="14.00">PoliciesMultiPlayers.rhoRandRand</text>
</g>
<!-- 58&#45;&gt;73 -->
<g id="edge113" class="edge"><title>58&#45;&gt;73</title>
<path fill="none" stroke="black" d="M5539.81,-173.029C5468.12,-184.059 5351.55,-201.992 5264.54,-215.379"/>
<polygon fill="black" stroke="black" points="5254.61,-216.906 5263.81,-210.937 5259.56,-216.145 5264.5,-215.385 5264.5,-215.385 5264.5,-215.385 5259.56,-216.145 5265.18,-219.833 5254.61,-216.906 5254.61,-216.906"/>
</g>
<!-- 61 -->
<g id="node62" class="node"><title>61</title>
<polygon fill="none" stroke="black" points="5717.5,-324 5502.5,-324 5502.5,-288 5717.5,-288 5717.5,-324"/>
<text text-anchor="middle" x="5610" y="-302.3" font-family="Times,serif" font-size="14.00">PoliciesMultiPlayers.BaseMPPolicy</text>
</g>
<!-- 59&#45;&gt;61 -->
<g id="edge114" class="edge"><title>59&#45;&gt;61</title>
<path fill="none" stroke="black" d="M5423.11,-252.034C5458.37,-262.028 5503.09,-274.702 5539.94,-285.146"/>
<polygon fill="black" stroke="black" points="5549.62,-287.889 5538.78,-289.492 5544.81,-286.526 5540,-285.162 5540,-285.162 5540,-285.162 5544.81,-286.526 5541.23,-280.833 5549.62,-287.889 5549.62,-287.889"/>
</g>
<!-- 65 -->
<g id="node66" class="node"><title>65</title>
<polygon fill="none" stroke="black" points="5943.5,-324 5740.5,-324 5740.5,-288 5943.5,-288 5943.5,-324"/>
<text text-anchor="middle" x="5842" y="-302.3" font-family="Times,serif" font-size="14.00">PoliciesMultiPlayers.ChildPointer</text>
</g>
<!-- 59&#45;&gt;65 -->
<g id="edge115" class="edge"><title>59&#45;&gt;65</title>
<path fill="none" stroke="black" d="M5453.73,-250.558C5456.86,-251.051 5459.95,-251.533 5463,-252 5580.05,-269.926 5609.76,-271.341 5727,-288 5728.1,-288.156 5729.2,-288.313 5730.31,-288.472"/>
<polygon fill="black" stroke="black" points="5740.42,-289.921 5729.88,-292.956 5735.47,-289.211 5730.52,-288.501 5730.52,-288.501 5730.52,-288.501 5735.47,-289.211 5731.16,-284.047 5740.42,-289.921 5740.42,-289.921"/>
</g>
<!-- 60 -->
<g id="node61" class="node"><title>60</title>
<polygon fill="none" stroke="black" points="6565.5,-324 6308.5,-324 6308.5,-288 6565.5,-288 6565.5,-324"/>
<text text-anchor="middle" x="6437" y="-302.3" font-family="Times,serif" font-size="14.00">PoliciesMultiPlayers.BaseCentralizedPolicy</text>
</g>
<!-- 62&#45;&gt;60 -->
<g id="edge116" class="edge"><title>62&#45;&gt;60</title>
<path fill="none" stroke="black" d="M6342.58,-252.124C6359.07,-261.361 6379.62,-272.869 6397.34,-282.788"/>
<polygon fill="black" stroke="black" points="6406.3,-287.81 6395.38,-286.85 6401.94,-285.367 6397.58,-282.924 6397.58,-282.924 6397.58,-282.924 6401.94,-285.367 6399.78,-278.998 6406.3,-287.81 6406.3,-287.81"/>
</g>
<!-- 62&#45;&gt;61 -->
<g id="edge117" class="edge"><title>62&#45;&gt;61</title>
<path fill="none" stroke="black" d="M6192.45,-251.08C6189.61,-251.397 6186.79,-251.704 6184,-252 5983.6,-273.273 5932.33,-266.084 5732,-288 5730.68,-288.144 5729.36,-288.291 5728.03,-288.44"/>
<polygon fill="black" stroke="black" points="5717.73,-289.638 5727.14,-284.013 5722.7,-289.06 5727.66,-288.483 5727.66,-288.483 5727.66,-288.483 5722.7,-289.06 5728.18,-292.953 5717.73,-289.638 5717.73,-289.638"/>
</g>
<!-- 62&#45;&gt;65 -->
<g id="edge118" class="edge"><title>62&#45;&gt;65</title>
<path fill="none" stroke="black" d="M6197.63,-252.034C6123.53,-263.069 6027.49,-277.373 5953.9,-288.334"/>
<polygon fill="black" stroke="black" points="5943.67,-289.858 5952.9,-283.934 5948.61,-289.121 5953.56,-288.385 5953.56,-288.385 5953.56,-288.385 5948.61,-289.121 5954.22,-292.836 5943.67,-289.858 5943.67,-289.858"/>
</g>
<!-- 63&#45;&gt;60 -->
<g id="edge119" class="edge"><title>63&#45;&gt;60</title>
<path fill="none" stroke="black" d="M6532.18,-252.124C6515.55,-261.361 6494.84,-272.869 6476.98,-282.788"/>
<polygon fill="black" stroke="black" points="6467.94,-287.81 6474.5,-279.02 6472.31,-285.382 6476.68,-282.954 6476.68,-282.954 6476.68,-282.954 6472.31,-285.382 6478.87,-286.887 6467.94,-287.81 6467.94,-287.81"/>
</g>
<!-- 63&#45;&gt;61 -->
<g id="edge120" class="edge"><title>63&#45;&gt;61</title>
<path fill="none" stroke="black" d="M6449.39,-251.163C6446.57,-251.458 6443.77,-251.737 6441,-252 6126.89,-281.801 6046.11,-258.199 5732,-288 5730.68,-288.125 5729.36,-288.254 5728.03,-288.386"/>
<polygon fill="black" stroke="black" points="5717.71,-289.469 5727.19,-283.95 5722.68,-288.947 5727.66,-288.425 5727.66,-288.425 5727.66,-288.425 5722.68,-288.947 5728.13,-292.9 5717.71,-289.469 5717.71,-289.469"/>
</g>
<!-- 63&#45;&gt;65 -->
<g id="edge121" class="edge"><title>63&#45;&gt;65</title>
<path fill="none" stroke="black" d="M6449.38,-251.023C6446.56,-251.359 6443.76,-251.686 6441,-252 6271.37,-271.31 6074.04,-287.577 5953.61,-296.808"/>
<polygon fill="black" stroke="black" points="5943.64,-297.57 5953.27,-292.322 5948.62,-297.189 5953.61,-296.808 5953.61,-296.808 5953.61,-296.808 5948.62,-297.189 5953.95,-301.295 5943.64,-297.57 5943.64,-297.57"/>
</g>
<!-- 64&#45;&gt;61 -->
<g id="edge122" class="edge"><title>64&#45;&gt;61</title>
<path fill="none" stroke="black" d="M5606.24,-252.303C5606.79,-260.017 5607.45,-269.288 5608.06,-277.888"/>
<polygon fill="black" stroke="black" points="5608.78,-287.896 5603.58,-278.242 5608.42,-282.908 5608.07,-277.921 5608.07,-277.921 5608.07,-277.921 5608.42,-282.908 5612.55,-277.6 5608.78,-287.896 5608.78,-287.896"/>
</g>
<!-- 64&#45;&gt;65 -->
<g id="edge123" class="edge"><title>64&#45;&gt;65</title>
<path fill="none" stroke="black" d="M5662.67,-252.034C5696.36,-261.985 5739.05,-274.594 5774.33,-285.013"/>
<polygon fill="black" stroke="black" points="5784.07,-287.889 5773.2,-289.372 5779.27,-286.473 5774.48,-285.057 5774.48,-285.057 5774.48,-285.057 5779.27,-286.473 5775.75,-280.741 5784.07,-287.889 5784.07,-287.889"/>
</g>
<!-- 66 -->
<g id="node67" class="node"><title>66</title>
<polygon fill="none" stroke="black" points="4245.5,-36 4080.5,-36 4080.5,-0 4245.5,-0 4245.5,-36"/>
<text text-anchor="middle" x="4163" y="-14.3" font-family="Times,serif" font-size="14.00">PoliciesMultiPlayers.DMC</text>
</g>
<!-- 67&#45;&gt;60 -->
<g id="edge124" class="edge"><title>67&#45;&gt;60</title>
<path fill="none" stroke="black" d="M6704.1,-252.034C6652.32,-262.302 6586.27,-275.399 6532.81,-286.001"/>
<polygon fill="black" stroke="black" points="6522.98,-287.95 6531.91,-281.591 6527.89,-286.977 6532.79,-286.005 6532.79,-286.005 6532.79,-286.005 6527.89,-286.977 6533.67,-290.419 6522.98,-287.95 6522.98,-287.95"/>
</g>
<!-- 67&#45;&gt;61 -->
<g id="edge125" class="edge"><title>67&#45;&gt;61</title>
<path fill="none" stroke="black" d="M6694.29,-251.104C6691.5,-251.426 6688.73,-251.726 6686,-252 6263.81,-294.306 6154.66,-250.674 5732,-288 5730.68,-288.116 5729.36,-288.237 5728.02,-288.362"/>
<polygon fill="black" stroke="black" points="5717.7,-289.392 5727.21,-283.921 5722.68,-288.896 5727.66,-288.399 5727.66,-288.399 5727.66,-288.399 5722.68,-288.896 5728.1,-292.876 5717.7,-289.392 5717.7,-289.392"/>
</g>
<!-- 67&#45;&gt;65 -->
<g id="edge126" class="edge"><title>67&#45;&gt;65</title>
<path fill="none" stroke="black" d="M6694.28,-251.014C6691.49,-251.362 6688.73,-251.692 6686,-252 6424.76,-281.48 6116.03,-295.65 5954.07,-301.505"/>
<polygon fill="black" stroke="black" points="5943.62,-301.878 5953.45,-297.024 5948.62,-301.7 5953.61,-301.521 5953.61,-301.521 5953.61,-301.521 5948.62,-301.7 5953.77,-306.018 5943.62,-301.878 5943.62,-301.878"/>
</g>
<!-- 68&#45;&gt;60 -->
<g id="edge127" class="edge"><title>68&#45;&gt;60</title>
<path fill="none" stroke="black" d="M6158.55,-252.034C6212.64,-262.323 6281.67,-275.453 6337.46,-286.067"/>
<polygon fill="black" stroke="black" points="6347.37,-287.95 6336.7,-290.502 6342.45,-287.016 6337.54,-286.081 6337.54,-286.081 6337.54,-286.081 6342.45,-287.016 6338.38,-281.66 6347.37,-287.95 6347.37,-287.95"/>
</g>
<!-- 68&#45;&gt;61 -->
<g id="edge128" class="edge"><title>68&#45;&gt;61</title>
<path fill="none" stroke="black" d="M5962.83,-251.191C5892.53,-261.913 5800.25,-275.985 5727.7,-287.049"/>
<polygon fill="black" stroke="black" points="5717.6,-288.59 5726.81,-282.634 5722.55,-287.836 5727.49,-287.082 5727.49,-287.082 5727.49,-287.082 5722.55,-287.836 5728.17,-291.531 5717.6,-288.59 5717.6,-288.59"/>
</g>
<!-- 68&#45;&gt;65 -->
<g id="edge129" class="edge"><title>68&#45;&gt;65</title>
<path fill="none" stroke="black" d="M6013.76,-252.034C5981.63,-261.943 5940.95,-274.486 5907.25,-284.879"/>
<polygon fill="black" stroke="black" points="5897.49,-287.889 5905.72,-280.642 5902.27,-286.416 5907.04,-284.942 5907.04,-284.942 5907.04,-284.942 5902.27,-286.416 5908.37,-289.243 5897.49,-287.889 5897.49,-287.889"/>
</g>
<!-- 69&#45;&gt;61 -->
<g id="edge130" class="edge"><title>69&#45;&gt;61</title>
<path fill="none" stroke="black" d="M5792.35,-252.034C5758.09,-261.985 5714.68,-274.594 5678.81,-285.013"/>
<polygon fill="black" stroke="black" points="5668.91,-287.889 5677.26,-280.778 5673.71,-286.495 5678.51,-285.1 5678.51,-285.1 5678.51,-285.1 5673.71,-286.495 5679.77,-289.421 5668.91,-287.889 5668.91,-287.889"/>
</g>
<!-- 69&#45;&gt;65 -->
<g id="edge131" class="edge"><title>69&#45;&gt;65</title>
<path fill="none" stroke="black" d="M5848.78,-252.303C5847.78,-260.017 5846.59,-269.288 5845.49,-277.888"/>
<polygon fill="black" stroke="black" points="5844.2,-287.896 5841.01,-277.403 5844.84,-282.936 5845.47,-277.977 5845.47,-277.977 5845.47,-277.977 5844.84,-282.936 5849.94,-278.551 5844.2,-287.896 5844.2,-287.896"/>
</g>
<!-- 70&#45;&gt;61 -->
<g id="edge132" class="edge"><title>70&#45;&gt;61</title>
<path fill="none" stroke="black" d="M4828.64,-250.766C4831.8,-251.207 4834.92,-251.62 4838,-252 5068.7,-280.475 5340.2,-294.67 5491.97,-300.88"/>
<polygon fill="black" stroke="black" points="5502.24,-301.295 5492.07,-305.387 5497.25,-301.093 5492.25,-300.891 5492.25,-300.891 5492.25,-300.891 5497.25,-301.093 5492.43,-296.395 5502.24,-301.295 5502.24,-301.295"/>
</g>
<!-- 70&#45;&gt;65 -->
<g id="edge133" class="edge"><title>70&#45;&gt;65</title>
<path fill="none" stroke="black" d="M4828.63,-250.878C4831.79,-251.287 4834.92,-251.664 4838,-252 5231.1,-294.928 5333.3,-251.034 5727,-288 5728.11,-288.104 5729.22,-288.211 5730.33,-288.321"/>
<polygon fill="black" stroke="black" points="5740.48,-289.395 5730.06,-292.818 5735.51,-288.869 5730.54,-288.343 5730.54,-288.343 5730.54,-288.343 5735.51,-288.869 5731.01,-283.868 5740.48,-289.395 5740.48,-289.395"/>
</g>
<!-- 71 -->
<g id="node72" class="node"><title>71</title>
<polygon fill="none" stroke="black" points="4430.5,-36 4263.5,-36 4263.5,-0 4430.5,-0 4430.5,-36"/>
<text text-anchor="middle" x="4347" y="-14.3" font-family="Times,serif" font-size="14.00">PoliciesMultiPlayers.TDFS</text>
</g>
<!-- 72&#45;&gt;61 -->
<g id="edge134" class="edge"><title>72&#45;&gt;61</title>
<path fill="none" stroke="black" d="M5027.17,-250.653C5030.48,-251.126 5033.77,-251.577 5037,-252 5194.01,-272.577 5376.26,-287.991 5492.3,-296.747"/>
<polygon fill="black" stroke="black" points="5502.27,-297.496 5491.96,-301.235 5497.29,-297.122 5492.3,-296.747 5492.3,-296.747 5492.3,-296.747 5497.29,-297.122 5492.64,-292.26 5502.27,-297.496 5502.27,-297.496"/>
</g>
<!-- 72&#45;&gt;65 -->
<g id="edge135" class="edge"><title>72&#45;&gt;65</title>
<path fill="none" stroke="black" d="M5027.15,-250.821C5030.47,-251.246 5033.76,-251.642 5037,-252 5342.22,-285.79 5421.43,-257.512 5727,-288 5728.1,-288.11 5729.21,-288.224 5730.33,-288.34"/>
<polygon fill="black" stroke="black" points="5740.48,-289.46 5730.04,-292.835 5735.51,-288.911 5730.54,-288.363 5730.54,-288.363 5730.54,-288.363 5735.51,-288.911 5731.03,-283.89 5740.48,-289.46 5740.48,-289.46"/>
</g>
<!-- 73&#45;&gt;61 -->
<g id="edge136" class="edge"><title>73&#45;&gt;61</title>
<path fill="none" stroke="black" d="M5254.67,-250.928C5325.31,-261.678 5418.67,-275.885 5491.96,-287.038"/>
<polygon fill="black" stroke="black" points="5502.17,-288.591 5491.61,-291.535 5497.23,-287.839 5492.28,-287.086 5492.28,-287.086 5492.28,-287.086 5497.23,-287.839 5492.96,-282.638 5502.17,-288.591 5502.17,-288.591"/>
</g>
<!-- 73&#45;&gt;65 -->
<g id="edge137" class="edge"><title>73&#45;&gt;65</title>
<path fill="none" stroke="black" d="M5254.64,-250.896C5257.79,-251.282 5260.92,-251.651 5264,-252 5469.09,-275.235 5521.9,-264.895 5727,-288 5728.1,-288.124 5729.21,-288.251 5730.33,-288.38"/>
<polygon fill="black" stroke="black" points="5740.46,-289.601 5729.99,-292.873 5735.5,-289.003 5730.53,-288.405 5730.53,-288.405 5730.53,-288.405 5735.5,-289.003 5731.07,-283.937 5740.46,-289.601 5740.46,-289.601"/>
</g>
<!-- 74 -->
<g id="node75" class="node"><title>74</title>
<polygon fill="none" stroke="black" points="4503,-36 4449,-36 4449,-0 4503,-0 4503,-36"/>
<text text-anchor="middle" x="4476" y="-14.3" font-family="Times,serif" font-size="14.00">conf</text>
</g>
<!-- 75 -->
<g id="node76" class="node"><title>75</title>
<polygon fill="none" stroke="black" points="542.5,-108 453.5,-108 453.5,-72 542.5,-72 542.5,-108"/>
<text text-anchor="middle" x="498" y="-86.3" font-family="Times,serif" font-size="14.00">configuration</text>
</g>
<!-- 75&#45;&gt;0 -->
<g id="edge138" class="edge"><title>75&#45;&gt;0</title>
<path fill="none" stroke="black" d="M475.011,-108.303C463.186,-117.204 448.608,-128.177 435.821,-137.801"/>
<polygon fill="black" stroke="black" points="427.724,-143.896 433.008,-134.287 431.719,-140.889 435.714,-137.882 435.714,-137.882 435.714,-137.882 431.719,-140.889 438.42,-141.477 427.724,-143.896 427.724,-143.896"/>
</g>
<!-- 75&#45;&gt;2 -->
<g id="edge139" class="edge"><title>75&#45;&gt;2</title>
<path fill="none" stroke="black" d="M453.469,-102.863C427.108,-111.378 394.075,-124.775 369,-144 346.619,-161.159 327.772,-187.441 315.638,-207.002"/>
<polygon fill="black" stroke="black" points="310.391,-215.726 311.689,-204.838 312.968,-211.442 315.545,-207.157 315.545,-207.157 315.545,-207.157 312.968,-211.442 319.401,-209.476 310.391,-215.726 310.391,-215.726"/>
</g>
<!-- 75&#45;&gt;3 -->
<g id="edge140" class="edge"><title>75&#45;&gt;3</title>
<path fill="none" stroke="black" d="M453.241,-105.223C419.821,-115.86 373.035,-130.785 332,-144 259.131,-167.467 175.45,-194.688 119.934,-212.785"/>
<polygon fill="black" stroke="black" points="110.247,-215.943 118.36,-208.565 115.001,-214.393 119.755,-212.843 119.755,-212.843 119.755,-212.843 115.001,-214.393 121.15,-217.121 110.247,-215.943 110.247,-215.943"/>
</g>
<!-- 75&#45;&gt;4 -->
<g id="edge141" class="edge"><title>75&#45;&gt;4</title>
<path fill="none" stroke="black" d="M488.712,-108.129C475.415,-132.65 450.841,-177.968 435.239,-206.741"/>
<polygon fill="black" stroke="black" points="430.321,-215.811 431.132,-204.875 432.704,-211.415 435.088,-207.02 435.088,-207.02 435.088,-207.02 432.704,-211.415 439.044,-209.165 430.321,-215.811 430.321,-215.811"/>
</g>
<!-- 75&#45;&gt;5 -->
<g id="edge142" class="edge"><title>75&#45;&gt;5</title>
<path fill="none" stroke="black" d="M502.584,-108.129C509.089,-132.436 521.063,-177.181 528.771,-205.987"/>
<polygon fill="black" stroke="black" points="531.4,-215.811 524.468,-207.314 530.107,-210.981 528.815,-206.151 528.815,-206.151 528.815,-206.151 530.107,-210.981 533.162,-204.987 531.4,-215.811 531.4,-215.811"/>
</g>
<!-- 75&#45;&gt;16 -->
<g id="edge143" class="edge"><title>75&#45;&gt;16</title>
<path fill="none" stroke="black" d="M542.864,-92.8185C787.066,-102.717 1953.68,-150.003 2185.06,-159.381"/>
<polygon fill="black" stroke="black" points="2195.36,-159.799 2185.19,-163.89 2190.37,-159.596 2185.37,-159.394 2185.37,-159.394 2185.37,-159.394 2190.37,-159.596 2185.55,-154.897 2195.36,-159.799 2195.36,-159.799"/>
</g>
<!-- 75&#45;&gt;57 -->
<g id="edge144" class="edge"><title>75&#45;&gt;57</title>
<path fill="none" stroke="black" d="M542.525,-91.3566C858.288,-94.1311 2753.4,-114.929 2986,-216 3008.24,-225.664 3005.02,-241.753 3027,-252 3122.77,-296.65 3181.8,-219.205 3262,-288 3279.72,-303.197 3286.36,-329.485 3288.78,-349.563"/>
<polygon fill="black" stroke="black" points="3289.72,-359.686 3284.32,-350.144 3289.26,-354.707 3288.8,-349.729 3288.8,-349.729 3288.8,-349.729 3289.26,-354.707 3293.28,-349.314 3289.72,-359.686 3289.72,-359.686"/>
</g>
<!-- 76 -->
<g id="node77" class="node"><title>76</title>
<polygon fill="none" stroke="black" points="2093,-108 1929,-108 1929,-72 2093,-72 2093,-108"/>
<text text-anchor="middle" x="2011" y="-86.3" font-family="Times,serif" font-size="14.00">configuration_multiplayers</text>
</g>
<!-- 76&#45;&gt;0 -->
<g id="edge145" class="edge"><title>76&#45;&gt;0</title>
<path fill="none" stroke="black" d="M1928.78,-91.9317C1653.75,-95.3496 767.322,-108.881 484,-144 470.268,-145.702 455.39,-148.616 442.288,-151.556"/>
<polygon fill="black" stroke="black" points="432.217,-153.896 440.939,-147.249 437.087,-152.764 441.957,-151.632 441.957,-151.632 441.957,-151.632 437.087,-152.764 442.976,-156.016 432.217,-153.896 432.217,-153.896"/>
</g>
<!-- 76&#45;&gt;2 -->
<g id="edge146" class="edge"><title>76&#45;&gt;2</title>
<path fill="none" stroke="black" d="M1928.76,-92.1242C1675.34,-95.9207 908.697,-109.982 662,-144 554.665,-158.801 432.884,-192.455 361.747,-213.876"/>
<polygon fill="black" stroke="black" points="352.052,-216.814 360.317,-209.607 356.837,-215.364 361.622,-213.914 361.622,-213.914 361.622,-213.914 356.837,-215.364 362.927,-218.22 352.052,-216.814 352.052,-216.814"/>
</g>
<!-- 76&#45;&gt;3 -->
<g id="edge147" class="edge"><title>76&#45;&gt;3</title>
<path fill="none" stroke="black" d="M1928.86,-91.6642C1617.63,-94.4528 520.901,-106.844 369,-144 333.084,-152.785 328.995,-168.064 294,-180 224.296,-203.774 201.64,-199.013 126.066,-215.838"/>
<polygon fill="black" stroke="black" points="116.071,-218.12 124.819,-211.507 120.946,-217.007 125.82,-215.894 125.82,-215.894 125.82,-215.894 120.946,-217.007 126.822,-220.282 116.071,-218.12 116.071,-218.12"/>
</g>
<!-- 76&#45;&gt;4 -->
<g id="edge148" class="edge"><title>76&#45;&gt;4</title>
<path fill="none" stroke="black" d="M1928.82,-92.5311C1752.68,-96.3951 1325.9,-108.873 970,-144 754.264,-165.293 696.859,-169.303 481.769,-215.739"/>
<polygon fill="black" stroke="black" points="471.738,-217.911 480.56,-211.397 476.625,-216.853 481.512,-215.795 481.512,-215.795 481.512,-215.795 476.625,-216.853 482.464,-220.193 471.738,-217.911 471.738,-217.911"/>
</g>
<!-- 76&#45;&gt;5 -->
<g id="edge149" class="edge"><title>76&#45;&gt;5</title>
<path fill="none" stroke="black" d="M1928.9,-97.8383C1636.94,-122.21 662.901,-204.009 597,-216 595.547,-216.264 594.078,-216.548 592.599,-216.848"/>
<polygon fill="black" stroke="black" points="582.756,-219.035 591.541,-212.473 587.637,-217.951 592.518,-216.866 592.518,-216.866 592.518,-216.866 587.637,-217.951 593.494,-221.259 582.756,-219.035 582.756,-219.035"/>
</g>
<!-- 76&#45;&gt;9 -->
<g id="edge150" class="edge"><title>76&#45;&gt;9</title>
<path fill="none" stroke="black" d="M2093.08,-91.1087C2479.5,-91.8588 4107.86,-97.7598 4330,-144 4394.88,-157.505 4465,-189.593 4507.72,-211.315"/>
<polygon fill="black" stroke="black" points="4516.66,-215.917 4505.71,-215.344 4512.22,-213.63 4507.77,-211.343 4507.77,-211.343 4507.77,-211.343 4512.22,-213.63 4509.83,-207.341 4516.66,-215.917 4516.66,-215.917"/>
</g>
<!-- 76&#45;&gt;12 -->
<g id="edge151" class="edge"><title>76&#45;&gt;12</title>
<path fill="none" stroke="black" d="M2093.18,-90.6445C2443.13,-89.4778 3799.66,-88.5995 3982,-144 4004.92,-150.963 4057.12,-186.11 4091.17,-210.097"/>
<polygon fill="black" stroke="black" points="4099.41,-215.931 4088.65,-213.824 4095.33,-213.041 4091.25,-210.151 4091.25,-210.151 4091.25,-210.151 4095.33,-213.041 4093.85,-206.479 4099.41,-215.931 4099.41,-215.931"/>
</g>
<!-- 76&#45;&gt;16 -->
<g id="edge152" class="edge"><title>76&#45;&gt;16</title>
<path fill="none" stroke="black" d="M2063.08,-108.034C2100.91,-120.41 2151.32,-136.898 2185.78,-148.17"/>
<polygon fill="black" stroke="black" points="2195.49,-151.347 2184.59,-152.515 2190.74,-149.793 2185.99,-148.238 2185.99,-148.238 2185.99,-148.238 2190.74,-149.793 2187.38,-143.961 2195.49,-151.347 2195.49,-151.347"/>
</g>
<!-- 76&#45;&gt;58 -->
<g id="edge153" class="edge"><title>76&#45;&gt;58</title>
<path fill="none" stroke="black" d="M2093.25,-92.602C2578.56,-102.054 5062.78,-150.439 5529.4,-159.527"/>
<polygon fill="black" stroke="black" points="5539.72,-159.729 5529.63,-164.033 5534.72,-159.631 5529.72,-159.534 5529.72,-159.534 5529.72,-159.534 5534.72,-159.631 5529.81,-155.035 5539.72,-159.729 5539.72,-159.729"/>
</g>
<!-- 77 -->
<g id="node78" class="node"><title>77</title>
<polygon fill="none" stroke="black" points="3925,-36 3871,-36 3871,-0 3925,-0 3925,-36"/>
<text text-anchor="middle" x="3898" y="-14.3" font-family="Times,serif" font-size="14.00">main</text>
</g>
<!-- 77&#45;&gt;8 -->
<g id="edge154" class="edge"><title>77&#45;&gt;8</title>
<path fill="none" stroke="black" d="M3923.44,-36.1239C3936.79,-45.1069 3953.32,-56.2375 3967.78,-65.9659"/>
<polygon fill="black" stroke="black" points="3976.46,-71.8102 3965.65,-69.9596 3972.31,-69.0183 3968.17,-66.2264 3968.17,-66.2264 3968.17,-66.2264 3972.31,-69.0183 3970.68,-62.4933 3976.46,-71.8102 3976.46,-71.8102"/>
</g>
<!-- 77&#45;&gt;10 -->
<g id="edge155" class="edge"><title>77&#45;&gt;10</title>
<path fill="none" stroke="black" d="M3898.36,-36.1285C3898.87,-60.3298 3899.81,-104.789 3900.42,-133.607"/>
<polygon fill="black" stroke="black" points="3900.64,-143.811 3895.93,-133.908 3900.53,-138.812 3900.43,-133.813 3900.43,-133.813 3900.43,-133.813 3900.53,-138.812 3904.92,-133.718 3900.64,-143.811 3900.64,-143.811"/>
</g>
<!-- 77&#45;&gt;75 -->
<g id="edge156" class="edge"><title>77&#45;&gt;75</title>
<path fill="none" stroke="black" d="M3870.63,-19.5635C3574.43,-25.6617 965.651,-79.3719 552.898,-87.8697"/>
<polygon fill="black" stroke="black" points="542.718,-88.0793 552.623,-83.3744 547.717,-87.9764 552.716,-87.8734 552.716,-87.8734 552.716,-87.8734 547.717,-87.9764 552.809,-92.3724 542.718,-88.0793 542.718,-88.0793"/>
</g>
<!-- 78 -->
<g id="node79" class="node"><title>78</title>
<polygon fill="none" stroke="black" points="4062.5,-36 3943.5,-36 3943.5,-0 4062.5,-0 4062.5,-36"/>
<text text-anchor="middle" x="4003" y="-14.3" font-family="Times,serif" font-size="14.00">main_multiplayers</text>
</g>
<!-- 78&#45;&gt;8 -->
<g id="edge157" class="edge"><title>78&#45;&gt;8</title>
<path fill="none" stroke="black" d="M4002.75,-36.3034C4002.64,-44.0173 4002.51,-53.2875 4002.39,-61.8876"/>
<polygon fill="black" stroke="black" points="4002.24,-71.8957 3997.89,-61.8324 4002.32,-66.8962 4002.39,-61.8967 4002.39,-61.8967 4002.39,-61.8967 4002.32,-66.8962 4006.89,-61.961 4002.24,-71.8957 4002.24,-71.8957"/>
</g>
<!-- 78&#45;&gt;11 -->
<g id="edge158" class="edge"><title>78&#45;&gt;11</title>
<path fill="none" stroke="black" d="M4028.33,-36.1285C4066.01,-61.6091 4136.91,-109.546 4179.05,-138.041"/>
<polygon fill="black" stroke="black" points="4187.58,-143.811 4176.77,-141.937 4183.44,-141.01 4179.3,-138.209 4179.3,-138.209 4179.3,-138.209 4183.44,-141.01 4181.82,-134.481 4187.58,-143.811 4187.58,-143.811"/>
</g>
<!-- 78&#45;&gt;76 -->
<g id="edge159" class="edge"><title>78&#45;&gt;76</title>
<path fill="none" stroke="black" d="M3943.31,-34.5346C3940.17,-35.0911 3937.06,-35.5862 3934,-36 3573.78,-84.7662 2435.75,-88.92 2103.14,-89.0709"/>
<polygon fill="black" stroke="black" points="2093.06,-89.0743 2103.06,-84.5708 2098.06,-89.0726 2103.06,-89.0708 2103.06,-89.0708 2103.06,-89.0708 2098.06,-89.0726 2103.06,-93.5708 2093.06,-89.0743 2093.06,-89.0743"/>
</g>
</g>
</svg>
