<?xml version="1.0" encoding="UTF-8" standalone="no"?>
<!DOCTYPE svg PUBLIC "-//W3C//DTD SVG 1.1//EN"
 "http://www.w3.org/Graphics/SVG/1.1/DTD/svg11.dtd">
<!-- Generated by graphviz version 2.38.0 (20140413.2041)
 -->
<!-- Title: packages_AlgoBandits Pages: 1 -->
<svg width="5764pt" height="548pt"
 viewBox="0.00 0.00 5763.77 548.00" xmlns="http://www.w3.org/2000/svg" xmlns:xlink="http://www.w3.org/1999/xlink">
<g id="graph0" class="graph" transform="scale(1 1) rotate(0) translate(4 544)">
<title>packages_AlgoBandits</title>
<polygon fill="white" stroke="none" points="-4,4 -4,-544 5759.77,-544 5759.77,4 -4,4"/>
<!-- 0 -->
<g id="node1" class="node"><title>0</title>
<polygon fill="none" stroke="black" points="471.27,-180 417.27,-180 417.27,-144 471.27,-144 471.27,-180"/>
<text text-anchor="middle" x="444.27" y="-158.3" font-family="Times,serif" font-size="14.00">Arms</text>
</g>
<!-- 2 -->
<g id="node3" class="node"><title>2</title>
<polygon fill="none" stroke="black" points="243.27,-252 141.27,-252 141.27,-216 243.27,-216 243.27,-252"/>
<text text-anchor="middle" x="192.27" y="-230.3" font-family="Times,serif" font-size="14.00">Arms.Bernoulli</text>
</g>
<!-- 0&#45;&gt;2 -->
<g id="edge1" class="edge"><title>0&#45;&gt;2</title>
<path fill="none" stroke="black" d="M417.149,-174.953C412.563,-176.769 407.815,-178.526 403.27,-180 340.59,-200.324 320.797,-198.786 253.164,-215.85"/>
<polygon fill="black" stroke="black" points="243.293,-218.386 251.859,-211.539 248.136,-217.142 252.979,-215.898 252.979,-215.898 252.979,-215.898 248.136,-217.142 254.099,-220.256 243.293,-218.386 243.293,-218.386"/>
</g>
<!-- 3 -->
<g id="node4" class="node"><title>3</title>
<polygon fill="none" stroke="black" points="377.27,-252 261.27,-252 261.27,-216 377.27,-216 377.27,-252"/>
<text text-anchor="middle" x="319.27" y="-230.3" font-family="Times,serif" font-size="14.00">Arms.Exponential</text>
</g>
<!-- 0&#45;&gt;3 -->
<g id="edge2" class="edge"><title>0&#45;&gt;3</title>
<path fill="none" stroke="black" d="M417.147,-178.189C400.039,-187.77 377.657,-200.303 358.615,-210.967"/>
<polygon fill="black" stroke="black" points="349.854,-215.873 356.38,-207.061 354.216,-213.43 358.579,-210.987 358.579,-210.987 358.579,-210.987 354.216,-213.43 360.777,-214.913 349.854,-215.873 349.854,-215.873"/>
</g>
<!-- 4 -->
<g id="node5" class="node"><title>4</title>
<polygon fill="none" stroke="black" points="122.77,-252 21.7701,-252 21.7701,-216 122.77,-216 122.77,-252"/>
<text text-anchor="middle" x="72.2701" y="-230.3" font-family="Times,serif" font-size="14.00">Arms.Gaussian</text>
</g>
<!-- 0&#45;&gt;4 -->
<g id="edge3" class="edge"><title>0&#45;&gt;4</title>
<path fill="none" stroke="black" d="M416.929,-169.297C401.754,-172.687 382.515,-176.815 365.27,-180 265.348,-198.454 236.388,-193.978 132.821,-216.038"/>
<polygon fill="black" stroke="black" points="122.899,-218.183 131.722,-211.671 127.786,-217.126 132.673,-216.07 132.673,-216.07 132.673,-216.07 127.786,-217.126 133.624,-220.468 122.899,-218.183 122.899,-218.183"/>
</g>
<!-- 5 -->
<g id="node6" class="node"><title>5</title>
<polygon fill="none" stroke="black" points="604.77,-252 511.77,-252 511.77,-216 604.77,-216 604.77,-252"/>
<text text-anchor="middle" x="558.27" y="-230.3" font-family="Times,serif" font-size="14.00">Arms.Poisson</text>
</g>
<!-- 0&#45;&gt;5 -->
<g id="edge4" class="edge"><title>0&#45;&gt;5</title>
<path fill="none" stroke="black" d="M471.286,-179.589C486.286,-188.799 505.159,-200.388 521.488,-210.414"/>
<polygon fill="black" stroke="black" points="530.257,-215.799 519.381,-214.401 525.996,-213.183 521.735,-210.566 521.735,-210.566 521.735,-210.566 525.996,-213.183 524.09,-206.732 530.257,-215.799 530.257,-215.799"/>
</g>
<!-- 6 -->
<g id="node7" class="node"><title>6</title>
<polygon fill="none" stroke="black" points="493.27,-252 395.27,-252 395.27,-216 493.27,-216 493.27,-252"/>
<text text-anchor="middle" x="444.27" y="-230.3" font-family="Times,serif" font-size="14.00">Arms.Uniform</text>
</g>
<!-- 0&#45;&gt;6 -->
<g id="edge5" class="edge"><title>0&#45;&gt;6</title>
<path fill="none" stroke="black" d="M444.27,-180.303C444.27,-188.017 444.27,-197.288 444.27,-205.888"/>
<polygon fill="black" stroke="black" points="444.27,-215.896 439.77,-205.896 444.27,-210.896 444.27,-205.896 444.27,-205.896 444.27,-205.896 444.27,-210.896 448.77,-205.896 444.27,-215.896 444.27,-215.896"/>
</g>
<!-- 1 -->
<g id="node2" class="node"><title>1</title>
<polygon fill="none" stroke="black" points="357.77,-324 280.77,-324 280.77,-288 357.77,-288 357.77,-324"/>
<text text-anchor="middle" x="319.27" y="-302.3" font-family="Times,serif" font-size="14.00">Arms.Arm</text>
</g>
<!-- 2&#45;&gt;1 -->
<g id="edge6" class="edge"><title>2&#45;&gt;1</title>
<path fill="none" stroke="black" d="M223.338,-252.124C240.097,-261.361 260.976,-272.869 278.972,-282.788"/>
<polygon fill="black" stroke="black" points="288.083,-287.81 277.153,-286.924 283.704,-285.397 279.325,-282.983 279.325,-282.983 279.325,-282.983 283.704,-285.397 281.497,-279.042 288.083,-287.81 288.083,-287.81"/>
</g>
<!-- 7 -->
<g id="node8" class="node"><title>7</title>
<polygon fill="none" stroke="black" points="251.27,-324 153.27,-324 153.27,-288 251.27,-288 251.27,-324"/>
<text text-anchor="middle" x="202.27" y="-302.3" font-family="Times,serif" font-size="14.00">Arms.kullback</text>
</g>
<!-- 2&#45;&gt;7 -->
<g id="edge7" class="edge"><title>2&#45;&gt;7</title>
<path fill="none" stroke="black" d="M194.742,-252.303C195.844,-260.017 197.168,-269.288 198.397,-277.888"/>
<polygon fill="black" stroke="black" points="199.827,-287.896 193.958,-278.633 199.119,-282.946 198.412,-277.996 198.412,-277.996 198.412,-277.996 199.119,-282.946 202.867,-277.36 199.827,-287.896 199.827,-287.896"/>
</g>
<!-- 3&#45;&gt;1 -->
<g id="edge8" class="edge"><title>3&#45;&gt;1</title>
<path fill="none" stroke="black" d="M319.27,-252.303C319.27,-260.017 319.27,-269.288 319.27,-277.888"/>
<polygon fill="black" stroke="black" points="319.27,-287.896 314.77,-277.896 319.27,-282.896 319.27,-277.896 319.27,-277.896 319.27,-277.896 319.27,-282.896 323.77,-277.896 319.27,-287.896 319.27,-287.896"/>
</g>
<!-- 3&#45;&gt;7 -->
<g id="edge9" class="edge"><title>3&#45;&gt;7</title>
<path fill="none" stroke="black" d="M290.649,-252.124C275.351,-261.276 256.327,-272.658 239.852,-282.515"/>
<polygon fill="black" stroke="black" points="231.002,-287.81 237.273,-278.814 235.292,-285.243 239.583,-282.676 239.583,-282.676 239.583,-282.676 235.292,-285.243 241.893,-286.538 231.002,-287.81 231.002,-287.81"/>
</g>
<!-- 4&#45;&gt;1 -->
<g id="edge10" class="edge"><title>4&#45;&gt;1</title>
<path fill="none" stroke="black" d="M123.007,-249.383C126.141,-250.269 129.248,-251.147 132.27,-252 189.144,-268.055 203.432,-271.819 260.27,-288 263.653,-288.963 267.145,-289.961 270.66,-290.967"/>
<polygon fill="black" stroke="black" points="280.561,-293.809 269.708,-295.376 275.755,-292.429 270.949,-291.05 270.949,-291.05 270.949,-291.05 275.755,-292.429 272.191,-286.725 280.561,-293.809 280.561,-293.809"/>
</g>
<!-- 4&#45;&gt;7 -->
<g id="edge11" class="edge"><title>4&#45;&gt;7</title>
<path fill="none" stroke="black" d="M104.072,-252.124C121.384,-261.446 142.991,-273.081 161.526,-283.061"/>
<polygon fill="black" stroke="black" points="170.346,-287.81 159.408,-287.031 165.944,-285.44 161.542,-283.069 161.542,-283.069 161.542,-283.069 165.944,-285.44 163.675,-279.107 170.346,-287.81 170.346,-287.81"/>
</g>
<!-- 5&#45;&gt;1 -->
<g id="edge12" class="edge"><title>5&#45;&gt;1</title>
<path fill="none" stroke="black" d="M511.533,-249.237C508.399,-250.176 505.29,-251.104 502.27,-252 456.762,-265.497 404.768,-280.517 367.861,-291.111"/>
<polygon fill="black" stroke="black" points="357.869,-293.976 366.241,-286.894 362.676,-292.598 367.482,-291.219 367.482,-291.219 367.482,-291.219 362.676,-292.598 368.723,-295.545 357.869,-293.976 357.869,-293.976"/>
</g>
<!-- 5&#45;&gt;7 -->
<g id="edge13" class="edge"><title>5&#45;&gt;7</title>
<path fill="none" stroke="black" d="M511.65,-249.686C508.489,-250.517 505.341,-251.298 502.27,-252 400.975,-275.148 373.144,-267.552 271.27,-288 268.065,-288.643 264.783,-289.336 261.476,-290.06"/>
<polygon fill="black" stroke="black" points="251.529,-292.312 260.288,-285.715 256.405,-291.208 261.282,-290.104 261.282,-290.104 261.282,-290.104 256.405,-291.208 262.275,-294.493 251.529,-292.312 251.529,-292.312"/>
</g>
<!-- 6&#45;&gt;1 -->
<g id="edge14" class="edge"><title>6&#45;&gt;1</title>
<path fill="none" stroke="black" d="M413.692,-252.124C397.197,-261.361 376.646,-272.869 358.934,-282.788"/>
<polygon fill="black" stroke="black" points="349.966,-287.81 356.492,-278.998 354.329,-285.367 358.691,-282.924 358.691,-282.924 358.691,-282.924 354.329,-285.367 360.89,-286.85 349.966,-287.81 349.966,-287.81"/>
</g>
<!-- 8 -->
<g id="node9" class="node"><title>8</title>
<polygon fill="none" stroke="black" points="3431.27,-108 3343.27,-108 3343.27,-72 3431.27,-72 3431.27,-108"/>
<text text-anchor="middle" x="3387.27" y="-86.3" font-family="Times,serif" font-size="14.00">Environment</text>
</g>
<!-- 10 -->
<g id="node11" class="node"><title>10</title>
<polygon fill="none" stroke="black" points="3357.27,-180 3213.27,-180 3213.27,-144 3357.27,-144 3357.27,-180"/>
<text text-anchor="middle" x="3285.27" y="-158.3" font-family="Times,serif" font-size="14.00">Environment.Evaluator</text>
</g>
<!-- 8&#45;&gt;10 -->
<g id="edge15" class="edge"><title>8&#45;&gt;10</title>
<path fill="none" stroke="black" d="M3362.32,-108.124C3349.23,-117.107 3333.01,-128.237 3318.83,-137.966"/>
<polygon fill="black" stroke="black" points="3310.32,-143.81 3316.02,-134.441 3314.44,-140.981 3318.56,-138.152 3318.56,-138.152 3318.56,-138.152 3314.44,-140.981 3321.11,-141.862 3310.32,-143.81 3310.32,-143.81"/>
</g>
<!-- 11 -->
<g id="node12" class="node"><title>11</title>
<polygon fill="none" stroke="black" points="3706.77,-180 3491.77,-180 3491.77,-144 3706.77,-144 3706.77,-180"/>
<text text-anchor="middle" x="3599.27" y="-158.3" font-family="Times,serif" font-size="14.00">Environment.EvaluatorMultiPlayers</text>
</g>
<!-- 8&#45;&gt;11 -->
<g id="edge16" class="edge"><title>8&#45;&gt;11</title>
<path fill="none" stroke="black" d="M3431.45,-105.589C3462.27,-115.764 3503.8,-129.476 3537.83,-140.714"/>
<polygon fill="black" stroke="black" points="3547.67,-143.964 3536.77,-145.101 3542.93,-142.396 3538.18,-140.828 3538.18,-140.828 3538.18,-140.828 3542.93,-142.396 3539.59,-136.555 3547.67,-143.964 3547.67,-143.964"/>
</g>
<!-- 12 -->
<g id="node13" class="node"><title>12</title>
<polygon fill="none" stroke="black" points="3489.77,-252 3366.77,-252 3366.77,-216 3489.77,-216 3489.77,-252"/>
<text text-anchor="middle" x="3428.27" y="-230.3" font-family="Times,serif" font-size="14.00">Environment.MAB</text>
</g>
<!-- 8&#45;&gt;12 -->
<g id="edge17" class="edge"><title>8&#45;&gt;12</title>
<path fill="none" stroke="black" d="M3392.22,-108.129C3399.23,-132.436 3412.15,-177.181 3420.47,-205.987"/>
<polygon fill="black" stroke="black" points="3423.31,-215.811 3416.21,-207.452 3421.92,-211.007 3420.53,-206.203 3420.53,-206.203 3420.53,-206.203 3421.92,-211.007 3424.86,-204.955 3423.31,-215.811 3423.31,-215.811"/>
</g>
<!-- 13 -->
<g id="node14" class="node"><title>13</title>
<polygon fill="none" stroke="black" points="3348.27,-252 3222.27,-252 3222.27,-216 3348.27,-216 3348.27,-252"/>
<text text-anchor="middle" x="3285.27" y="-230.3" font-family="Times,serif" font-size="14.00">Environment.Result</text>
</g>
<!-- 8&#45;&gt;13 -->
<g id="edge18" class="edge"><title>8&#45;&gt;13</title>
<path fill="none" stroke="black" d="M3386.92,-108.265C3385.74,-127.407 3381.4,-158.423 3366.27,-180 3357.57,-192.409 3344.94,-202.653 3332.24,-210.717"/>
<polygon fill="black" stroke="black" points="3323.48,-215.951 3329.76,-206.959 3327.78,-213.386 3332.07,-210.822 3332.07,-210.822 3332.07,-210.822 3327.78,-213.386 3334.38,-214.684 3323.48,-215.951 3323.48,-215.951"/>
</g>
<!-- 9 -->
<g id="node10" class="node"><title>9</title>
<polygon fill="none" stroke="black" points="3690.27,-252 3508.27,-252 3508.27,-216 3690.27,-216 3690.27,-252"/>
<text text-anchor="middle" x="3599.27" y="-230.3" font-family="Times,serif" font-size="14.00">Environment.CollisionModels</text>
</g>
<!-- 10&#45;&gt;12 -->
<g id="edge19" class="edge"><title>10&#45;&gt;12</title>
<path fill="none" stroke="black" d="M3320.25,-180.124C3339.47,-189.531 3363.5,-201.292 3384.01,-211.333"/>
<polygon fill="black" stroke="black" points="3393.15,-215.81 3382.19,-215.455 3388.66,-213.612 3384.17,-211.414 3384.17,-211.414 3384.17,-211.414 3388.66,-213.612 3386.15,-207.372 3393.15,-215.81 3393.15,-215.81"/>
</g>
<!-- 10&#45;&gt;13 -->
<g id="edge20" class="edge"><title>10&#45;&gt;13</title>
<path fill="none" stroke="black" d="M3285.27,-180.303C3285.27,-188.017 3285.27,-197.288 3285.27,-205.888"/>
<polygon fill="black" stroke="black" points="3285.27,-215.896 3280.77,-205.896 3285.27,-210.896 3285.27,-205.896 3285.27,-205.896 3285.27,-205.896 3285.27,-210.896 3289.77,-205.896 3285.27,-215.896 3285.27,-215.896"/>
</g>
<!-- 15 -->
<g id="node16" class="node"><title>15</title>
<polygon fill="none" stroke="black" points="3505.27,-324 3351.27,-324 3351.27,-288 3505.27,-288 3505.27,-324"/>
<text text-anchor="middle" x="3428.27" y="-302.3" font-family="Times,serif" font-size="14.00">Environment.plotsettings</text>
</g>
<!-- 10&#45;&gt;15 -->
<g id="edge21" class="edge"><title>10&#45;&gt;15</title>
<path fill="none" stroke="black" d="M3249.24,-180.185C3235.35,-188.835 3220.97,-200.763 3213.27,-216 3206.05,-230.279 3203.4,-239.405 3213.27,-252 3229.36,-272.541 3288.84,-286.2 3341.17,-294.501"/>
<polygon fill="black" stroke="black" points="3351.19,-296.039 3340.62,-298.968 3346.25,-295.28 3341.31,-294.521 3341.31,-294.521 3341.31,-294.521 3346.25,-295.28 3341.99,-290.073 3351.19,-296.039 3351.19,-296.039"/>
</g>
<!-- 11&#45;&gt;9 -->
<g id="edge22" class="edge"><title>11&#45;&gt;9</title>
<path fill="none" stroke="black" d="M3599.27,-180.303C3599.27,-188.017 3599.27,-197.288 3599.27,-205.888"/>
<polygon fill="black" stroke="black" points="3599.27,-215.896 3594.77,-205.896 3599.27,-210.896 3599.27,-205.896 3599.27,-205.896 3599.27,-205.896 3599.27,-210.896 3603.77,-205.896 3599.27,-215.896 3599.27,-215.896"/>
</g>
<!-- 11&#45;&gt;12 -->
<g id="edge23" class="edge"><title>11&#45;&gt;12</title>
<path fill="none" stroke="black" d="M3557.44,-180.124C3533.85,-189.778 3504.21,-201.913 3479.27,-212.122"/>
<polygon fill="black" stroke="black" points="3469.97,-215.932 3477.52,-207.979 3474.59,-214.037 3479.22,-212.143 3479.22,-212.143 3479.22,-212.143 3474.59,-214.037 3480.92,-216.308 3469.97,-215.932 3469.97,-215.932"/>
</g>
<!-- 14 -->
<g id="node15" class="node"><title>14</title>
<polygon fill="none" stroke="black" points="3943.77,-252 3746.77,-252 3746.77,-216 3943.77,-216 3943.77,-252"/>
<text text-anchor="middle" x="3845.27" y="-230.3" font-family="Times,serif" font-size="14.00">Environment.ResultMultiPlayers</text>
</g>
<!-- 11&#45;&gt;14 -->
<g id="edge24" class="edge"><title>11&#45;&gt;14</title>
<path fill="none" stroke="black" d="M3659.13,-180.034C3694.25,-190.028 3738.79,-202.702 3775.5,-213.146"/>
<polygon fill="black" stroke="black" points="3785.14,-215.889 3774.29,-217.48 3780.33,-214.521 3775.52,-213.152 3775.52,-213.152 3775.52,-213.152 3780.33,-214.521 3776.75,-208.824 3785.14,-215.889 3785.14,-215.889"/>
</g>
<!-- 11&#45;&gt;15 -->
<g id="edge25" class="edge"><title>11&#45;&gt;15</title>
<path fill="none" stroke="black" d="M3655.71,-180.04C3672.71,-188.105 3689.44,-199.67 3699.27,-216 3707.52,-229.709 3709.44,-239.648 3699.27,-252 3676.22,-279.999 3585.74,-293.415 3515.6,-299.706"/>
<polygon fill="black" stroke="black" points="3505.41,-300.583 3514.99,-295.242 3510.39,-300.155 3515.37,-299.726 3515.37,-299.726 3515.37,-299.726 3510.39,-300.155 3515.76,-304.209 3505.41,-300.583 3505.41,-300.583"/>
</g>
<!-- 12&#45;&gt;15 -->
<g id="edge26" class="edge"><title>12&#45;&gt;15</title>
<path fill="none" stroke="black" d="M3428.27,-252.303C3428.27,-260.017 3428.27,-269.288 3428.27,-277.888"/>
<polygon fill="black" stroke="black" points="3428.27,-287.896 3423.77,-277.896 3428.27,-282.896 3428.27,-277.896 3428.27,-277.896 3428.27,-277.896 3428.27,-282.896 3432.77,-277.896 3428.27,-287.896 3428.27,-287.896"/>
</g>
<!-- 16 -->
<g id="node17" class="node"><title>16</title>
<polygon fill="none" stroke="black" points="1643.77,-180 1584.77,-180 1584.77,-144 1643.77,-144 1643.77,-180"/>
<text text-anchor="middle" x="1614.27" y="-158.3" font-family="Times,serif" font-size="14.00">Policies</text>
</g>
<!-- 17 -->
<g id="node18" class="node"><title>17</title>
<polygon fill="none" stroke="black" points="1867.77,-324 1746.77,-324 1746.77,-288 1867.77,-288 1867.77,-324"/>
<text text-anchor="middle" x="1807.27" y="-302.3" font-family="Times,serif" font-size="14.00">Policies.AdBandits</text>
</g>
<!-- 16&#45;&gt;17 -->
<g id="edge27" class="edge"><title>16&#45;&gt;17</title>
<path fill="none" stroke="black" d="M1644.06,-175.398C1665.4,-184.964 1694.32,-199.351 1717.27,-216 1743.11,-234.74 1768.6,-260.866 1785.82,-279.963"/>
<polygon fill="black" stroke="black" points="1792.67,-287.676 1782.66,-283.188 1789.35,-283.937 1786.03,-280.199 1786.03,-280.199 1786.03,-280.199 1789.35,-283.937 1789.39,-277.211 1792.67,-287.676 1792.67,-287.676"/>
</g>
<!-- 18 -->
<g id="node19" class="node"><title>18</title>
<polygon fill="none" stroke="black" points="1748.77,-468 1657.77,-468 1657.77,-432 1748.77,-432 1748.77,-468"/>
<text text-anchor="middle" x="1703.27" y="-446.3" font-family="Times,serif" font-size="14.00">Policies.Aggr</text>
</g>
<!-- 16&#45;&gt;18 -->
<g id="edge28" class="edge"><title>16&#45;&gt;18</title>
<path fill="none" stroke="black" d="M1644.01,-177.744C1658.74,-186.687 1675.25,-199.565 1684.27,-216 1720.79,-282.532 1714.1,-376.197 1707.83,-421.85"/>
<polygon fill="black" stroke="black" points="1706.36,-431.865 1703.36,-421.316 1707.09,-426.918 1707.81,-421.972 1707.81,-421.972 1707.81,-421.972 1707.09,-426.918 1712.27,-422.628 1706.36,-431.865 1706.36,-431.865"/>
</g>
<!-- 20 -->
<g id="node21" class="node"><title>20</title>
<polygon fill="none" stroke="black" points="1535.27,-252 1411.27,-252 1411.27,-216 1535.27,-216 1535.27,-252"/>
<text text-anchor="middle" x="1473.27" y="-230.3" font-family="Times,serif" font-size="14.00">Policies.BayesUCB</text>
</g>
<!-- 16&#45;&gt;20 -->
<g id="edge29" class="edge"><title>16&#45;&gt;20</title>
<path fill="none" stroke="black" d="M1584.71,-177.674C1565.07,-187.426 1538.94,-200.4 1516.91,-211.333"/>
<polygon fill="black" stroke="black" points="1507.76,-215.878 1514.71,-207.401 1512.24,-213.655 1516.72,-211.431 1516.72,-211.431 1516.72,-211.431 1512.24,-213.655 1518.72,-215.462 1507.76,-215.878 1507.76,-215.878"/>
</g>
<!-- 23 -->
<g id="node24" class="node"><title>23</title>
<polygon fill="none" stroke="black" points="2549.77,-252 2384.77,-252 2384.77,-216 2549.77,-216 2549.77,-252"/>
<text text-anchor="middle" x="2467.27" y="-230.3" font-family="Times,serif" font-size="14.00">Policies.EpsilonDecreasing</text>
</g>
<!-- 16&#45;&gt;23 -->
<g id="edge30" class="edge"><title>16&#45;&gt;23</title>
<path fill="none" stroke="black" d="M1643.92,-163.974C1745.5,-167.548 2088.83,-181.566 2370.27,-216 2371.58,-216.161 2372.9,-216.327 2374.23,-216.499"/>
<polygon fill="black" stroke="black" points="2384.54,-217.911 2374.02,-221.012 2379.59,-217.232 2374.63,-216.554 2374.63,-216.554 2374.63,-216.554 2379.59,-217.232 2375.25,-212.095 2384.54,-217.911 2384.54,-217.911"/>
</g>
<!-- 24 -->
<g id="node25" class="node"><title>24</title>
<polygon fill="none" stroke="black" points="1975.27,-252 1769.27,-252 1769.27,-216 1975.27,-216 1975.27,-252"/>
<text text-anchor="middle" x="1872.27" y="-230.3" font-family="Times,serif" font-size="14.00">Policies.EpsilonDecreasingMEGA</text>
</g>
<!-- 16&#45;&gt;24 -->
<g id="edge31" class="edge"><title>16&#45;&gt;24</title>
<path fill="none" stroke="black" d="M1643.87,-171.03C1681.6,-181.269 1748.14,-199.322 1799.7,-213.311"/>
<polygon fill="black" stroke="black" points="1809.47,-215.962 1798.64,-217.686 1804.65,-214.653 1799.82,-213.344 1799.82,-213.344 1799.82,-213.344 1804.65,-214.653 1801,-209.001 1809.47,-215.962 1809.47,-215.962"/>
</g>
<!-- 25 -->
<g id="node26" class="node"><title>25</title>
<polygon fill="none" stroke="black" points="2180.77,-252 1993.77,-252 1993.77,-216 2180.77,-216 2180.77,-252"/>
<text text-anchor="middle" x="2087.27" y="-230.3" font-family="Times,serif" font-size="14.00">Policies.EpsilonExpDecreasing</text>
</g>
<!-- 16&#45;&gt;25 -->
<g id="edge32" class="edge"><title>16&#45;&gt;25</title>
<path fill="none" stroke="black" d="M1644.04,-167.045C1705.39,-175.429 1850.6,-195.514 1983.58,-215.91"/>
<polygon fill="black" stroke="black" points="1993.53,-217.442 1982.97,-220.37 1988.59,-216.682 1983.65,-215.922 1983.65,-215.922 1983.65,-215.922 1988.59,-216.682 1984.34,-211.474 1993.53,-217.442 1993.53,-217.442"/>
</g>
<!-- 26 -->
<g id="node27" class="node"><title>26</title>
<polygon fill="none" stroke="black" points="2327.77,-252 2198.77,-252 2198.77,-216 2327.77,-216 2327.77,-252"/>
<text text-anchor="middle" x="2263.27" y="-230.3" font-family="Times,serif" font-size="14.00">Policies.EpsilonFirst</text>
</g>
<!-- 16&#45;&gt;26 -->
<g id="edge33" class="edge"><title>16&#45;&gt;26</title>
<path fill="none" stroke="black" d="M1644.07,-164.337C1728.12,-168.405 1974.28,-182.369 2188.23,-215.964"/>
<polygon fill="black" stroke="black" points="2198.39,-217.579 2187.81,-220.454 2193.46,-216.794 2188.52,-216.01 2188.52,-216.01 2188.52,-216.01 2193.46,-216.794 2189.22,-211.566 2198.39,-217.579 2198.39,-217.579"/>
</g>
<!-- 27 -->
<g id="node28" class="node"><title>27</title>
<polygon fill="none" stroke="black" points="2347.27,-324 2203.27,-324 2203.27,-288 2347.27,-288 2347.27,-324"/>
<text text-anchor="middle" x="2275.27" y="-302.3" font-family="Times,serif" font-size="14.00">Policies.EpsilonGreedy</text>
</g>
<!-- 16&#45;&gt;27 -->
<g id="edge34" class="edge"><title>16&#45;&gt;27</title>
<path fill="none" stroke="black" d="M1643.91,-162.858C1773.82,-162.541 2288.46,-164.557 2336.27,-216 2355.09,-236.253 2331.93,-262.737 2308.94,-281.535"/>
<polygon fill="black" stroke="black" points="2300.89,-287.84 2305.99,-278.133 2304.83,-284.758 2308.76,-281.676 2308.76,-281.676 2308.76,-281.676 2304.83,-284.758 2311.54,-285.22 2300.89,-287.84 2300.89,-287.84"/>
</g>
<!-- 28 -->
<g id="node29" class="node"><title>28</title>
<polygon fill="none" stroke="black" points="2501.27,-396 2409.27,-396 2409.27,-360 2501.27,-360 2501.27,-396"/>
<text text-anchor="middle" x="2455.27" y="-374.3" font-family="Times,serif" font-size="14.00">Policies.Exp3</text>
</g>
<!-- 16&#45;&gt;28 -->
<g id="edge35" class="edge"><title>16&#45;&gt;28</title>
<path fill="none" stroke="black" d="M1644.01,-163.534C1800.86,-166.49 2526.1,-181.968 2558.27,-216 2599.07,-259.152 2532.48,-320.654 2488.72,-353.76"/>
<polygon fill="black" stroke="black" points="2480.58,-359.795 2485.93,-350.226 2484.59,-356.818 2488.61,-353.841 2488.61,-353.841 2488.61,-353.841 2484.59,-356.818 2491.29,-357.456 2480.58,-359.795 2480.58,-359.795"/>
</g>
<!-- 31 -->
<g id="node32" class="node"><title>31</title>
<polygon fill="none" stroke="black" points="2467.27,-468 2363.27,-468 2363.27,-432 2467.27,-432 2467.27,-468"/>
<text text-anchor="middle" x="2415.27" y="-446.3" font-family="Times,serif" font-size="14.00">Policies.MEGA</text>
</g>
<!-- 16&#45;&gt;31 -->
<g id="edge36" class="edge"><title>16&#45;&gt;31</title>
<path fill="none" stroke="black" d="M1643.88,-163.494C1802.57,-166.281 2546.31,-181.177 2579.27,-216 2638.17,-278.221 2572.04,-336.631 2510.27,-396 2497.29,-408.472 2480.81,-419.002 2465.24,-427.309"/>
<polygon fill="black" stroke="black" points="2456.2,-431.941 2463.05,-423.374 2460.65,-429.659 2465.1,-427.378 2465.1,-427.378 2465.1,-427.378 2460.65,-429.659 2467.16,-431.383 2456.2,-431.941 2456.2,-431.941"/>
</g>
<!-- 32 -->
<g id="node33" class="node"><title>32</title>
<polygon fill="none" stroke="black" points="510.77,-396 409.77,-396 409.77,-360 510.77,-360 510.77,-396"/>
<text text-anchor="middle" x="460.27" y="-374.3" font-family="Times,serif" font-size="14.00">Policies.MOSS</text>
</g>
<!-- 16&#45;&gt;32 -->
<g id="edge37" class="edge"><title>16&#45;&gt;32</title>
<path fill="none" stroke="black" d="M1584.71,-163.322C1431.79,-165.161 734.112,-175.714 647.27,-216 627.306,-225.262 632.469,-241.242 613.27,-252 545.515,-289.964 491.205,-227.69 442.27,-288 427.93,-305.674 435.489,-331.72 444.808,-351.073"/>
<polygon fill="black" stroke="black" points="449.436,-359.971 440.829,-353.176 447.129,-355.535 444.822,-351.099 444.822,-351.099 444.822,-351.099 447.129,-355.535 448.814,-349.023 449.436,-359.971 449.436,-359.971"/>
</g>
<!-- 33 -->
<g id="node34" class="node"><title>33</title>
<polygon fill="none" stroke="black" points="2622.77,-468 2485.77,-468 2485.77,-432 2622.77,-432 2622.77,-468"/>
<text text-anchor="middle" x="2554.27" y="-446.3" font-family="Times,serif" font-size="14.00">Policies.MusicalChair</text>
</g>
<!-- 16&#45;&gt;33 -->
<g id="edge38" class="edge"><title>16&#45;&gt;33</title>
<path fill="none" stroke="black" d="M1643.85,-163.451C1804.94,-166.047 2570.38,-180.242 2604.27,-216 2658.95,-273.686 2603.4,-376.014 2572.27,-423.491"/>
<polygon fill="black" stroke="black" points="2566.59,-431.96 2568.42,-421.148 2569.38,-427.807 2572.16,-423.654 2572.16,-423.654 2572.16,-423.654 2569.38,-427.807 2575.9,-426.16 2566.59,-431.96 2566.59,-431.96"/>
</g>
<!-- 35 -->
<g id="node36" class="node"><title>35</title>
<polygon fill="none" stroke="black" points="2751.27,-468 2641.27,-468 2641.27,-432 2751.27,-432 2751.27,-468"/>
<text text-anchor="middle" x="2696.27" y="-446.3" font-family="Times,serif" font-size="14.00">Policies.Softmax</text>
</g>
<!-- 16&#45;&gt;35 -->
<g id="edge39" class="edge"><title>16&#45;&gt;35</title>
<path fill="none" stroke="black" d="M1643.87,-163.588C1806.83,-166.946 2588.66,-184.649 2628.27,-216 2691.68,-266.191 2698.23,-372.078 2697.54,-421.945"/>
<polygon fill="black" stroke="black" points="2697.29,-431.973 2693.04,-421.863 2697.42,-426.974 2697.54,-421.976 2697.54,-421.976 2697.54,-421.976 2697.42,-426.974 2702.04,-422.088 2697.29,-431.973 2697.29,-431.973"/>
</g>
<!-- 36 -->
<g id="node37" class="node"><title>36</title>
<polygon fill="none" stroke="black" points="2866.27,-324 2720.27,-324 2720.27,-288 2866.27,-288 2866.27,-324"/>
<text text-anchor="middle" x="2793.27" y="-302.3" font-family="Times,serif" font-size="14.00">Policies.TakeFixedArm</text>
</g>
<!-- 16&#45;&gt;36 -->
<g id="edge40" class="edge"><title>16&#45;&gt;36</title>
<path fill="none" stroke="black" d="M1644.03,-163.152C1808.95,-164.165 2607,-171.357 2706.27,-216 2722.12,-223.126 2752.39,-256.422 2772.71,-280.195"/>
<polygon fill="black" stroke="black" points="2779.18,-287.841 2769.28,-283.117 2775.95,-284.025 2772.72,-280.209 2772.72,-280.209 2772.72,-280.209 2775.95,-284.025 2776.15,-277.302 2779.18,-287.841 2779.18,-287.841"/>
</g>
<!-- 37 -->
<g id="node38" class="node"><title>37</title>
<polygon fill="none" stroke="black" points="2951.77,-252 2758.77,-252 2758.77,-216 2951.77,-216 2951.77,-252"/>
<text text-anchor="middle" x="2855.27" y="-230.3" font-family="Times,serif" font-size="14.00">Policies.TakeRandomFixedArm</text>
</g>
<!-- 16&#45;&gt;37 -->
<g id="edge41" class="edge"><title>16&#45;&gt;37</title>
<path fill="none" stroke="black" d="M1644.04,-163.248C1774.47,-164.576 2308.47,-172.529 2744.27,-216 2745.58,-216.131 2746.9,-216.266 2748.22,-216.406"/>
<polygon fill="black" stroke="black" points="2758.49,-217.564 2748.04,-220.915 2753.52,-217.004 2748.55,-216.443 2748.55,-216.443 2748.55,-216.443 2753.52,-217.004 2749.05,-211.971 2758.49,-217.564 2758.49,-217.564"/>
</g>
<!-- 38 -->
<g id="node39" class="node"><title>38</title>
<polygon fill="none" stroke="black" points="1675.27,-252 1553.27,-252 1553.27,-216 1675.27,-216 1675.27,-252"/>
<text text-anchor="middle" x="1614.27" y="-230.3" font-family="Times,serif" font-size="14.00">Policies.Thompson</text>
</g>
<!-- 16&#45;&gt;38 -->
<g id="edge42" class="edge"><title>16&#45;&gt;38</title>
<path fill="none" stroke="black" d="M1614.27,-180.303C1614.27,-188.017 1614.27,-197.288 1614.27,-205.888"/>
<polygon fill="black" stroke="black" points="1614.27,-215.896 1609.77,-205.896 1614.27,-210.896 1614.27,-205.896 1614.27,-205.896 1614.27,-205.896 1614.27,-210.896 1618.77,-205.896 1614.27,-215.896 1614.27,-215.896"/>
</g>
<!-- 39 -->
<g id="node40" class="node"><title>39</title>
<polygon fill="none" stroke="black" points="947.77,-396 856.77,-396 856.77,-360 947.77,-360 947.77,-396"/>
<text text-anchor="middle" x="902.27" y="-374.3" font-family="Times,serif" font-size="14.00">Policies.UCB</text>
</g>
<!-- 16&#45;&gt;39 -->
<g id="edge43" class="edge"><title>16&#45;&gt;39</title>
<path fill="none" stroke="black" d="M1584.42,-162.707C1448.64,-161.678 893.728,-160.888 842.27,-216 831.351,-227.695 835.671,-237.424 842.27,-252 852.271,-274.091 871.005,-267.081 883.27,-288 894.292,-306.799 898.953,-331.177 900.907,-349.665"/>
<polygon fill="black" stroke="black" points="901.773,-359.783 896.437,-350.203 901.346,-354.801 900.92,-349.819 900.92,-349.819 900.92,-349.819 901.346,-354.801 905.404,-349.435 901.773,-359.783 901.773,-359.783"/>
</g>
<!-- 40 -->
<g id="node41" class="node"><title>40</title>
<polygon fill="none" stroke="black" points="1031.77,-324 930.77,-324 930.77,-288 1031.77,-288 1031.77,-324"/>
<text text-anchor="middle" x="981.27" y="-302.3" font-family="Times,serif" font-size="14.00">Policies.UCBV</text>
</g>
<!-- 16&#45;&gt;40 -->
<g id="edge44" class="edge"><title>16&#45;&gt;40</title>
<path fill="none" stroke="black" d="M1584.54,-162.933C1482.89,-163.146 1150.35,-167.607 1057.27,-216 1030.26,-230.043 1008.83,-258.134 995.706,-279.019"/>
<polygon fill="black" stroke="black" points="990.433,-287.749 991.752,-276.862 993.018,-283.469 995.604,-279.189 995.604,-279.189 995.604,-279.189 993.018,-283.469 999.455,-281.516 990.433,-287.749 990.433,-287.749"/>
</g>
<!-- 41 -->
<g id="node42" class="node"><title>41</title>
<polygon fill="none" stroke="black" points="982.77,-252 851.77,-252 851.77,-216 982.77,-216 982.77,-252"/>
<text text-anchor="middle" x="917.27" y="-230.3" font-family="Times,serif" font-size="14.00">Policies.UCBVtuned</text>
</g>
<!-- 16&#45;&gt;41 -->
<g id="edge45" class="edge"><title>16&#45;&gt;41</title>
<path fill="none" stroke="black" d="M1584.58,-164.246C1495.31,-168.271 1221.66,-182.652 997.27,-216 995.967,-216.194 994.652,-216.396 993.33,-216.605"/>
<polygon fill="black" stroke="black" points="983.074,-218.343 992.182,-212.236 988.004,-217.507 992.934,-216.672 992.934,-216.672 992.934,-216.672 988.004,-217.507 993.685,-221.109 983.074,-218.343 983.074,-218.343"/>
</g>
<!-- 42 -->
<g id="node43" class="node"><title>42</title>
<polygon fill="none" stroke="black" points="1170.27,-324 1050.27,-324 1050.27,-288 1170.27,-288 1170.27,-324"/>
<text text-anchor="middle" x="1110.27" y="-302.3" font-family="Times,serif" font-size="14.00">Policies.UCBalpha</text>
</g>
<!-- 16&#45;&gt;42 -->
<g id="edge46" class="edge"><title>16&#45;&gt;42</title>
<path fill="none" stroke="black" d="M1584.43,-163.607C1475.42,-166.13 1103.19,-177.522 1068.27,-216 1051.42,-234.569 1067.7,-261.102 1084.65,-280.362"/>
<polygon fill="black" stroke="black" points="1091.62,-287.869 1081.52,-283.598 1088.22,-284.204 1084.82,-280.538 1084.82,-280.538 1084.82,-280.538 1088.22,-284.204 1088.12,-277.478 1091.62,-287.869 1091.62,-287.869"/>
</g>
<!-- 43 -->
<g id="node44" class="node"><title>43</title>
<polygon fill="none" stroke="black" points="572.27,-324 464.27,-324 464.27,-288 572.27,-288 572.27,-324"/>
<text text-anchor="middle" x="518.27" y="-302.3" font-family="Times,serif" font-size="14.00">Policies.UCBopt</text>
</g>
<!-- 16&#45;&gt;43 -->
<g id="edge47" class="edge"><title>16&#45;&gt;43</title>
<path fill="none" stroke="black" d="M1584.31,-163.614C1438.4,-166.759 805.95,-182.252 725.27,-216 703.205,-225.23 706.025,-240.115 685.27,-252 667.324,-262.277 621.326,-276.589 582.14,-287.751"/>
<polygon fill="black" stroke="black" points="572.346,-290.516 580.747,-283.468 577.158,-289.158 581.97,-287.799 581.97,-287.799 581.97,-287.799 577.158,-289.158 583.192,-292.13 572.346,-290.516 572.346,-290.516"/>
</g>
<!-- 44 -->
<g id="node45" class="node"><title>44</title>
<polygon fill="none" stroke="black" points="703.77,-324 590.77,-324 590.77,-288 703.77,-288 703.77,-324"/>
<text text-anchor="middle" x="647.27" y="-302.3" font-family="Times,serif" font-size="14.00">Policies.UCBplus</text>
</g>
<!-- 16&#45;&gt;44 -->
<g id="edge48" class="edge"><title>16&#45;&gt;44</title>
<path fill="none" stroke="black" d="M1584.74,-162.98C1455.91,-163.185 942.635,-167.114 790.27,-216 767.297,-223.371 714.524,-258.219 679.914,-282.058"/>
<polygon fill="black" stroke="black" points="671.535,-287.858 677.196,-278.467 675.646,-285.012 679.757,-282.166 679.757,-282.166 679.757,-282.166 675.646,-285.012 682.319,-285.866 671.535,-287.858 671.535,-287.858"/>
</g>
<!-- 45 -->
<g id="node46" class="node"><title>45</title>
<polygon fill="none" stroke="black" points="874.27,-324 722.27,-324 722.27,-288 874.27,-288 874.27,-324"/>
<text text-anchor="middle" x="798.27" y="-302.3" font-family="Times,serif" font-size="14.00">Policies.UCBrandomInit</text>
</g>
<!-- 16&#45;&gt;45 -->
<g id="edge49" class="edge"><title>16&#45;&gt;45</title>
<path fill="none" stroke="black" d="M1584.7,-162.766C1446.27,-161.959 866.613,-161.848 809.27,-216 792.959,-231.404 791.525,-257.666 793.388,-277.681"/>
<polygon fill="black" stroke="black" points="794.645,-287.769 788.943,-278.402 794.027,-282.807 793.409,-277.845 793.409,-277.845 793.409,-277.845 794.027,-282.807 797.874,-277.289 794.645,-287.769 794.645,-287.769"/>
</g>
<!-- 46 -->
<g id="node47" class="node"><title>46</title>
<polygon fill="none" stroke="black" points="715.77,-396 590.77,-396 590.77,-360 715.77,-360 715.77,-396"/>
<text text-anchor="middle" x="653.27" y="-374.3" font-family="Times,serif" font-size="14.00">Policies.UCBwrong</text>
</g>
<!-- 16&#45;&gt;46 -->
<g id="edge50" class="edge"><title>16&#45;&gt;46</title>
<path fill="none" stroke="black" d="M1584.45,-163.487C1434.78,-166.092 769.434,-179.651 685.27,-216 663.912,-225.224 667.992,-241.425 647.27,-252 569.937,-291.464 510.717,-221.191 455.27,-288 415.616,-335.78 509.007,-358.922 580.621,-369.35"/>
<polygon fill="black" stroke="black" points="590.566,-370.738 580.04,-373.812 585.614,-370.047 580.662,-369.355 580.662,-369.355 580.662,-369.355 585.614,-370.047 581.284,-364.899 590.566,-370.738 590.566,-370.738"/>
</g>
<!-- 47 -->
<g id="node48" class="node"><title>47</title>
<polygon fill="none" stroke="black" points="3104.27,-324 2994.27,-324 2994.27,-288 3104.27,-288 3104.27,-324"/>
<text text-anchor="middle" x="3049.27" y="-302.3" font-family="Times,serif" font-size="14.00">Policies.Uniform</text>
</g>
<!-- 16&#45;&gt;47 -->
<g id="edge51" class="edge"><title>16&#45;&gt;47</title>
<path fill="none" stroke="black" d="M1644.07,-163.755C1855.73,-169.151 3123.79,-202.047 3137.27,-216 3148.39,-227.509 3145.14,-238.07 3137.27,-252 3129.93,-264.994 3117.98,-275.157 3105.23,-282.95"/>
<polygon fill="black" stroke="black" points="3096.31,-287.973 3102.82,-279.143 3100.67,-285.518 3105.02,-283.063 3105.02,-283.063 3105.02,-283.063 3100.67,-285.518 3107.23,-286.984 3096.31,-287.973 3096.31,-287.973"/>
</g>
<!-- 48 -->
<g id="node49" class="node"><title>48</title>
<polygon fill="none" stroke="black" points="3128.27,-252 2970.27,-252 2970.27,-216 3128.27,-216 3128.27,-252"/>
<text text-anchor="middle" x="3049.27" y="-230.3" font-family="Times,serif" font-size="14.00">Policies.UniformOnSome</text>
</g>
<!-- 16&#45;&gt;48 -->
<g id="edge52" class="edge"><title>16&#45;&gt;48</title>
<path fill="none" stroke="black" d="M1643.98,-163.565C1816.67,-166.942 2692.64,-185.345 2960.27,-216 2960.37,-216.012 2960.48,-216.024 2960.58,-216.035"/>
<polygon fill="black" stroke="black" points="2970.27,-217.275 2959.78,-220.469 2965.31,-216.64 2960.35,-216.006 2960.35,-216.006 2960.35,-216.006 2965.31,-216.64 2960.92,-211.542 2970.27,-217.275 2970.27,-217.275"/>
</g>
<!-- 49 -->
<g id="node50" class="node"><title>49</title>
<polygon fill="none" stroke="black" points="1478.77,-324 1377.77,-324 1377.77,-288 1478.77,-288 1478.77,-324"/>
<text text-anchor="middle" x="1428.27" y="-302.3" font-family="Times,serif" font-size="14.00">Policies.klUCB</text>
</g>
<!-- 16&#45;&gt;49 -->
<g id="edge53" class="edge"><title>16&#45;&gt;49</title>
<path fill="none" stroke="black" d="M1584.5,-162.698C1506.7,-162.607 1300.45,-167.076 1258.27,-216 1247.82,-228.118 1248.79,-239.112 1258.27,-252 1260.01,-254.366 1319.64,-272.613 1367.78,-287.045"/>
<polygon fill="black" stroke="black" points="1377.55,-289.967 1366.68,-291.411 1372.76,-288.533 1367.97,-287.1 1367.97,-287.1 1367.97,-287.1 1372.76,-288.533 1369.26,-282.789 1377.55,-289.967 1377.55,-289.967"/>
</g>
<!-- 50 -->
<g id="node51" class="node"><title>50</title>
<polygon fill="none" stroke="black" points="1211.27,-252 1077.27,-252 1077.27,-216 1211.27,-216 1211.27,-252"/>
<text text-anchor="middle" x="1144.27" y="-230.3" font-family="Times,serif" font-size="14.00">Policies.klUCBHPlus</text>
</g>
<!-- 16&#45;&gt;50 -->
<g id="edge54" class="edge"><title>16&#45;&gt;50</title>
<path fill="none" stroke="black" d="M1584.39,-166.333C1519.04,-173.784 1358.59,-192.958 1225.27,-216 1224,-216.22 1222.71,-216.446 1221.42,-216.677"/>
<polygon fill="black" stroke="black" points="1211.38,-218.529 1220.4,-212.288 1216.3,-217.621 1221.22,-216.714 1221.22,-216.714 1221.22,-216.714 1216.3,-217.621 1222.03,-221.139 1211.38,-218.529 1211.38,-218.529"/>
</g>
<!-- 51 -->
<g id="node52" class="node"><title>51</title>
<polygon fill="none" stroke="black" points="1392.77,-252 1267.77,-252 1267.77,-216 1392.77,-216 1392.77,-252"/>
<text text-anchor="middle" x="1330.27" y="-230.3" font-family="Times,serif" font-size="14.00">Policies.klUCBPlus</text>
</g>
<!-- 16&#45;&gt;51 -->
<g id="edge55" class="edge"><title>16&#45;&gt;51</title>
<path fill="none" stroke="black" d="M1584.68,-170.293C1542.04,-180.803 1461.97,-200.539 1403,-215.073"/>
<polygon fill="black" stroke="black" points="1392.99,-217.541 1401.62,-210.778 1397.85,-216.344 1402.7,-215.148 1402.7,-215.148 1402.7,-215.148 1397.85,-216.344 1403.78,-219.517 1392.99,-217.541 1392.99,-217.541"/>
</g>
<!-- 19 -->
<g id="node20" class="node"><title>19</title>
<polygon fill="none" stroke="black" points="2437.27,-540 2313.27,-540 2313.27,-504 2437.27,-504 2437.27,-540"/>
<text text-anchor="middle" x="2375.27" y="-518.3" font-family="Times,serif" font-size="14.00">Policies.BasePolicy</text>
</g>
<!-- 17&#45;&gt;19 -->
<g id="edge56" class="edge"><title>17&#45;&gt;19</title>
<path fill="none" stroke="black" d="M1852.79,-324.151C1956.26,-363.134 2208.77,-458.27 2320.52,-500.373"/>
<polygon fill="black" stroke="black" points="2329.93,-503.916 2318.98,-504.602 2325.25,-502.153 2320.57,-500.391 2320.57,-500.391 2320.57,-500.391 2325.25,-502.153 2322.16,-496.18 2329.93,-503.916 2329.93,-503.916"/>
</g>
<!-- 22 -->
<g id="node23" class="node"><title>22</title>
<polygon fill="none" stroke="black" points="1851.27,-396 1763.27,-396 1763.27,-360 1851.27,-360 1851.27,-396"/>
<text text-anchor="middle" x="1807.27" y="-374.3" font-family="Times,serif" font-size="14.00">Policies.Beta</text>
</g>
<!-- 17&#45;&gt;22 -->
<g id="edge57" class="edge"><title>17&#45;&gt;22</title>
<path fill="none" stroke="black" d="M1807.27,-324.303C1807.27,-332.017 1807.27,-341.288 1807.27,-349.888"/>
<polygon fill="black" stroke="black" points="1807.27,-359.896 1802.77,-349.896 1807.27,-354.896 1807.27,-349.896 1807.27,-349.896 1807.27,-349.896 1807.27,-354.896 1811.77,-349.896 1807.27,-359.896 1807.27,-359.896"/>
</g>
<!-- 18&#45;&gt;19 -->
<g id="edge58" class="edge"><title>18&#45;&gt;19</title>
<path fill="none" stroke="black" d="M1749,-465.937C1752.12,-466.708 1755.23,-467.407 1758.27,-468 1952.63,-505.931 2186.71,-516.716 2302.74,-519.782"/>
<polygon fill="black" stroke="black" points="2312.92,-520.039 2302.81,-524.285 2307.92,-519.913 2302.92,-519.787 2302.92,-519.787 2302.92,-519.787 2307.92,-519.913 2303.04,-515.288 2312.92,-520.039 2312.92,-520.039"/>
</g>
<!-- 21 -->
<g id="node22" class="node"><title>21</title>
<polygon fill="none" stroke="black" points="1675.27,-324 1497.27,-324 1497.27,-288 1675.27,-288 1675.27,-324"/>
<text text-anchor="middle" x="1586.27" y="-302.3" font-family="Times,serif" font-size="14.00">Policies.BayesianIndexPolicy</text>
</g>
<!-- 20&#45;&gt;21 -->
<g id="edge59" class="edge"><title>20&#45;&gt;21</title>
<path fill="none" stroke="black" d="M1500.91,-252.124C1515.69,-261.276 1534.06,-272.658 1549.97,-282.515"/>
<polygon fill="black" stroke="black" points="1558.52,-287.81 1547.65,-286.37 1554.27,-285.177 1550.02,-282.544 1550.02,-282.544 1550.02,-282.544 1554.27,-285.177 1552.39,-278.719 1558.52,-287.81 1558.52,-287.81"/>
</g>
<!-- 21&#45;&gt;22 -->
<g id="edge60" class="edge"><title>21&#45;&gt;22</title>
<path fill="none" stroke="black" d="M1640.05,-324.034C1674.36,-334.9 1718.67,-348.935 1753.06,-359.828"/>
<polygon fill="black" stroke="black" points="1762.93,-362.956 1752.04,-364.226 1758.16,-361.446 1753.4,-359.936 1753.4,-359.936 1753.4,-359.936 1758.16,-361.446 1754.76,-355.646 1762.93,-362.956 1762.93,-362.956"/>
</g>
<!-- 29 -->
<g id="node30" class="node"><title>29</title>
<polygon fill="none" stroke="black" points="1357.27,-468 1229.27,-468 1229.27,-432 1357.27,-432 1357.27,-468"/>
<text text-anchor="middle" x="1293.27" y="-446.3" font-family="Times,serif" font-size="14.00">Policies.IndexPolicy</text>
</g>
<!-- 21&#45;&gt;29 -->
<g id="edge61" class="edge"><title>21&#45;&gt;29</title>
<path fill="none" stroke="black" d="M1550.93,-324.129C1497.58,-349.982 1396.53,-398.955 1338.09,-427.28"/>
<polygon fill="black" stroke="black" points="1328.74,-431.811 1335.77,-423.4 1333.24,-429.63 1337.74,-427.449 1337.74,-427.449 1337.74,-427.449 1333.24,-429.63 1339.7,-431.499 1328.74,-431.811 1328.74,-431.811"/>
</g>
<!-- 34 -->
<g id="node35" class="node"><title>34</title>
<polygon fill="none" stroke="black" points="1879.27,-468 1767.27,-468 1767.27,-432 1879.27,-432 1879.27,-468"/>
<text text-anchor="middle" x="1823.27" y="-446.3" font-family="Times,serif" font-size="14.00">Policies.Posterior</text>
</g>
<!-- 22&#45;&gt;34 -->
<g id="edge62" class="edge"><title>22&#45;&gt;34</title>
<path fill="none" stroke="black" d="M1811.23,-396.303C1812.99,-404.017 1815.11,-413.288 1817.07,-421.888"/>
<polygon fill="black" stroke="black" points="1819.36,-431.896 1812.75,-423.15 1818.25,-427.021 1817.13,-422.147 1817.13,-422.147 1817.13,-422.147 1818.25,-427.021 1821.52,-421.144 1819.36,-431.896 1819.36,-431.896"/>
</g>
<!-- 23&#45;&gt;27 -->
<g id="edge63" class="edge"><title>23&#45;&gt;27</title>
<path fill="none" stroke="black" d="M2420.3,-252.124C2393.59,-261.863 2359.95,-274.128 2331.8,-284.392"/>
<polygon fill="black" stroke="black" points="2322.09,-287.932 2329.94,-280.279 2326.78,-286.219 2331.48,-284.506 2331.48,-284.506 2331.48,-284.506 2326.78,-286.219 2333.02,-288.734 2322.09,-287.932 2322.09,-287.932"/>
</g>
<!-- 24&#45;&gt;27 -->
<g id="edge64" class="edge"><title>24&#45;&gt;27</title>
<path fill="none" stroke="black" d="M1970.34,-252.034C2038.57,-263.885 2128.5,-279.506 2192.99,-290.708"/>
<polygon fill="black" stroke="black" points="2203.11,-292.466 2192.49,-295.189 2198.19,-291.611 2193.26,-290.755 2193.26,-290.755 2193.26,-290.755 2198.19,-291.611 2194.03,-286.321 2203.11,-292.466 2203.11,-292.466"/>
</g>
<!-- 25&#45;&gt;27 -->
<g id="edge65" class="edge"><title>25&#45;&gt;27</title>
<path fill="none" stroke="black" d="M2133.26,-252.124C2159.42,-261.863 2192.36,-274.128 2219.92,-284.392"/>
<polygon fill="black" stroke="black" points="2229.43,-287.932 2218.49,-288.659 2224.74,-286.187 2220.06,-284.442 2220.06,-284.442 2220.06,-284.442 2224.74,-286.187 2221.63,-280.225 2229.43,-287.932 2229.43,-287.932"/>
</g>
<!-- 26&#45;&gt;27 -->
<g id="edge66" class="edge"><title>26&#45;&gt;27</title>
<path fill="none" stroke="black" d="M2266.24,-252.303C2267.56,-260.017 2269.15,-269.288 2270.62,-277.888"/>
<polygon fill="black" stroke="black" points="2272.34,-287.896 2266.21,-278.8 2271.49,-282.968 2270.65,-278.039 2270.65,-278.039 2270.65,-278.039 2271.49,-282.968 2275.08,-277.279 2272.34,-287.896 2272.34,-287.896"/>
</g>
<!-- 27&#45;&gt;19 -->
<g id="edge67" class="edge"><title>27&#45;&gt;19</title>
<path fill="none" stroke="black" d="M2282.05,-324.19C2293.93,-353.93 2319.7,-416.722 2345.27,-468 2349.71,-476.894 2354.93,-486.403 2359.76,-494.875"/>
<polygon fill="black" stroke="black" points="2364.8,-503.583 2355.9,-497.18 2362.3,-499.255 2359.79,-494.927 2359.79,-494.927 2359.79,-494.927 2362.3,-499.255 2363.69,-492.674 2364.8,-503.583 2364.8,-503.583"/>
</g>
<!-- 28&#45;&gt;19 -->
<g id="edge68" class="edge"><title>28&#45;&gt;19</title>
<path fill="none" stroke="black" d="M2409.14,-391.269C2388.57,-399.29 2366.31,-412.088 2354.27,-432 2342.68,-451.177 2350.25,-476.264 2359.38,-494.913"/>
<polygon fill="black" stroke="black" points="2364.06,-503.755 2355.41,-497.019 2361.72,-499.335 2359.38,-494.915 2359.38,-494.915 2359.38,-494.915 2361.72,-499.335 2363.36,-492.811 2364.06,-503.755 2364.06,-503.755"/>
</g>
<!-- 29&#45;&gt;19 -->
<g id="edge69" class="edge"><title>29&#45;&gt;19</title>
<path fill="none" stroke="black" d="M1357.31,-455.143C1546.73,-467.398 2103.46,-503.416 2303.04,-516.327"/>
<polygon fill="black" stroke="black" points="2313.13,-516.98 2302.86,-520.824 2308.14,-516.657 2303.15,-516.334 2303.15,-516.334 2303.15,-516.334 2308.14,-516.657 2303.44,-511.843 2313.13,-516.98 2313.13,-516.98"/>
</g>
<!-- 30 -->
<g id="node31" class="node"><title>30</title>
<polygon fill="none" stroke="black" points="1359.77,-324 1226.77,-324 1226.77,-288 1359.77,-288 1359.77,-324"/>
<text text-anchor="middle" x="1293.27" y="-302.3" font-family="Times,serif" font-size="14.00">Policies.KLempUCB</text>
</g>
<!-- 30&#45;&gt;29 -->
<g id="edge70" class="edge"><title>30&#45;&gt;29</title>
<path fill="none" stroke="black" d="M1293.27,-324.129C1293.27,-348.33 1293.27,-392.789 1293.27,-421.607"/>
<polygon fill="black" stroke="black" points="1293.27,-431.811 1288.77,-421.811 1293.27,-426.811 1293.27,-421.811 1293.27,-421.811 1293.27,-421.811 1293.27,-426.811 1297.77,-421.811 1293.27,-431.811 1293.27,-431.811"/>
</g>
<!-- 52 -->
<g id="node53" class="node"><title>52</title>
<polygon fill="none" stroke="black" points="1259.27,-396 1149.27,-396 1149.27,-360 1259.27,-360 1259.27,-396"/>
<text text-anchor="middle" x="1204.27" y="-374.3" font-family="Times,serif" font-size="14.00">Policies.kullback</text>
</g>
<!-- 30&#45;&gt;52 -->
<g id="edge71" class="edge"><title>30&#45;&gt;52</title>
<path fill="none" stroke="black" d="M1271.27,-324.303C1260.06,-333.119 1246.27,-343.968 1234.12,-353.526"/>
<polygon fill="black" stroke="black" points="1226.02,-359.896 1231.1,-350.176 1229.95,-356.805 1233.88,-353.714 1233.88,-353.714 1233.88,-353.714 1229.95,-356.805 1236.66,-357.251 1226.02,-359.896 1226.02,-359.896"/>
</g>
<!-- 31&#45;&gt;19 -->
<g id="edge72" class="edge"><title>31&#45;&gt;19</title>
<path fill="none" stroke="black" d="M2405.38,-468.303C2400.78,-476.356 2395.21,-486.106 2390.12,-495.018"/>
<polygon fill="black" stroke="black" points="2385.04,-503.896 2386.1,-492.981 2387.52,-499.554 2390.01,-495.213 2390.01,-495.213 2390.01,-495.213 2387.52,-499.554 2393.91,-497.446 2385.04,-503.896 2385.04,-503.896"/>
</g>
<!-- 32&#45;&gt;29 -->
<g id="edge73" class="edge"><title>32&#45;&gt;29</title>
<path fill="none" stroke="black" d="M510.809,-386.851C532.466,-390.02 558.069,-393.509 581.27,-396 813.161,-420.894 1088.8,-437.825 1218.61,-445.051"/>
<polygon fill="black" stroke="black" points="1228.84,-445.617 1218.6,-449.557 1223.84,-445.34 1218.85,-445.064 1218.85,-445.064 1218.85,-445.064 1223.84,-445.34 1219.1,-440.571 1228.84,-445.617 1228.84,-445.617"/>
</g>
<!-- 33&#45;&gt;19 -->
<g id="edge74" class="edge"><title>33&#45;&gt;19</title>
<path fill="none" stroke="black" d="M2510.48,-468.124C2485.69,-477.821 2454.49,-490.02 2428.31,-500.257"/>
<polygon fill="black" stroke="black" points="2418.92,-503.932 2426.59,-496.099 2423.57,-502.111 2428.23,-500.29 2428.23,-500.29 2428.23,-500.29 2423.57,-502.111 2429.87,-504.481 2418.92,-503.932 2418.92,-503.932"/>
</g>
<!-- 35&#45;&gt;19 -->
<g id="edge75" class="edge"><title>35&#45;&gt;19</title>
<path fill="none" stroke="black" d="M2641,-465.663C2637.71,-466.47 2634.45,-467.255 2631.27,-468 2569.44,-482.477 2498.72,-496.961 2447.3,-507.121"/>
<polygon fill="black" stroke="black" points="2437.28,-509.094 2446.22,-502.746 2442.19,-508.127 2447.09,-507.161 2447.09,-507.161 2447.09,-507.161 2442.19,-508.127 2447.96,-511.576 2437.28,-509.094 2437.28,-509.094"/>
</g>
<!-- 36&#45;&gt;19 -->
<g id="edge76" class="edge"><title>36&#45;&gt;19</title>
<path fill="none" stroke="black" d="M2795.51,-324.098C2798.79,-357.212 2800.67,-430.159 2760.27,-468 2716.34,-509.151 2546.6,-518.685 2447.78,-520.685"/>
<polygon fill="black" stroke="black" points="2437.57,-520.87 2447.48,-516.19 2442.57,-520.78 2447.57,-520.689 2447.57,-520.689 2447.57,-520.689 2442.57,-520.78 2447.65,-525.188 2437.57,-520.87 2437.57,-520.87"/>
</g>
<!-- 37&#45;&gt;36 -->
<g id="edge77" class="edge"><title>37&#45;&gt;36</title>
<path fill="none" stroke="black" d="M2839.94,-252.303C2832.51,-260.695 2823.45,-270.93 2815.29,-280.139"/>
<polygon fill="black" stroke="black" points="2808.42,-287.896 2811.68,-277.426 2811.73,-284.153 2815.05,-280.41 2815.05,-280.41 2815.05,-280.41 2811.73,-284.153 2818.42,-283.393 2808.42,-287.896 2808.42,-287.896"/>
</g>
<!-- 38&#45;&gt;21 -->
<g id="edge78" class="edge"><title>38&#45;&gt;21</title>
<path fill="none" stroke="black" d="M1607.35,-252.303C1604.2,-260.187 1600.39,-269.696 1596.89,-278.454"/>
<polygon fill="black" stroke="black" points="1593.11,-287.896 1592.65,-276.94 1594.97,-283.253 1596.83,-278.611 1596.83,-278.611 1596.83,-278.611 1594.97,-283.253 1601,-280.282 1593.11,-287.896 1593.11,-287.896"/>
</g>
<!-- 39&#45;&gt;29 -->
<g id="edge79" class="edge"><title>39&#45;&gt;29</title>
<path fill="none" stroke="black" d="M947.888,-387.167C1014.54,-399.099 1139.27,-421.429 1219.19,-435.737"/>
<polygon fill="black" stroke="black" points="1229.19,-437.528 1218.55,-440.195 1224.27,-436.646 1219.34,-435.765 1219.34,-435.765 1219.34,-435.765 1224.27,-436.646 1220.14,-431.336 1229.19,-437.528 1229.19,-437.528"/>
</g>
<!-- 40&#45;&gt;39 -->
<g id="edge80" class="edge"><title>40&#45;&gt;39</title>
<path fill="none" stroke="black" d="M961.742,-324.303C951.888,-333.035 939.784,-343.76 929.074,-353.25"/>
<polygon fill="black" stroke="black" points="921.574,-359.896 926.074,-349.896 925.316,-356.58 929.058,-353.264 929.058,-353.264 929.058,-353.264 925.316,-356.58 932.042,-356.632 921.574,-359.896 921.574,-359.896"/>
</g>
<!-- 41&#45;&gt;40 -->
<g id="edge81" class="edge"><title>41&#45;&gt;40</title>
<path fill="none" stroke="black" d="M933.09,-252.303C940.841,-260.78 950.309,-271.136 958.795,-280.417"/>
<polygon fill="black" stroke="black" points="965.632,-287.896 955.563,-283.552 962.258,-284.206 958.884,-280.515 958.884,-280.515 958.884,-280.515 962.258,-284.206 962.205,-277.479 965.632,-287.896 965.632,-287.896"/>
</g>
<!-- 42&#45;&gt;39 -->
<g id="edge82" class="edge"><title>42&#45;&gt;39</title>
<path fill="none" stroke="black" d="M1059.65,-324.034C1028.7,-334.45 989.1,-347.778 957.364,-358.459"/>
<polygon fill="black" stroke="black" points="947.786,-361.682 955.828,-354.228 952.525,-360.087 957.264,-358.492 957.264,-358.492 957.264,-358.492 952.525,-360.087 958.699,-362.757 947.786,-361.682 947.786,-361.682"/>
</g>
<!-- 43&#45;&gt;39 -->
<g id="edge83" class="edge"><title>43&#45;&gt;39</title>
<path fill="none" stroke="black" d="M572.482,-321.998C575.448,-322.703 578.392,-323.376 581.27,-324 673.62,-344.031 782.359,-360.516 846.625,-369.535"/>
<polygon fill="black" stroke="black" points="856.548,-370.918 846.023,-373.995 851.596,-370.228 846.644,-369.538 846.644,-369.538 846.644,-369.538 851.596,-370.228 847.265,-365.081 856.548,-370.918 856.548,-370.918"/>
</g>
<!-- 44&#45;&gt;39 -->
<g id="edge84" class="edge"><title>44&#45;&gt;39</title>
<path fill="none" stroke="black" d="M703.863,-322.535C746.38,-334.207 804.323,-350.113 846.612,-361.721"/>
<polygon fill="black" stroke="black" points="856.465,-364.426 845.63,-366.118 851.643,-363.102 846.822,-361.779 846.822,-361.779 846.822,-361.779 851.643,-363.102 848.013,-357.439 856.465,-364.426 856.465,-364.426"/>
</g>
<!-- 45&#45;&gt;39 -->
<g id="edge85" class="edge"><title>45&#45;&gt;39</title>
<path fill="none" stroke="black" d="M823.711,-324.124C837.058,-333.107 853.594,-344.237 868.048,-353.966"/>
<polygon fill="black" stroke="black" points="876.731,-359.81 865.922,-357.96 872.583,-357.018 868.435,-354.226 868.435,-354.226 868.435,-354.226 872.583,-357.018 870.948,-350.493 876.731,-359.81 876.731,-359.81"/>
</g>
<!-- 46&#45;&gt;29 -->
<g id="edge86" class="edge"><title>46&#45;&gt;29</title>
<path fill="none" stroke="black" d="M715.801,-385.839C834.469,-398.819 1091.81,-426.965 1219.02,-440.879"/>
<polygon fill="black" stroke="black" points="1229.06,-441.977 1218.63,-445.363 1224.09,-441.433 1219.12,-440.89 1219.12,-440.89 1219.12,-440.89 1224.09,-441.433 1219.61,-436.416 1229.06,-441.977 1229.06,-441.977"/>
</g>
<!-- 47&#45;&gt;19 -->
<g id="edge87" class="edge"><title>47&#45;&gt;19</title>
<path fill="none" stroke="black" d="M3028.36,-324.158C2985.79,-358.051 2884.73,-433.306 2786.27,-468 2672.44,-508.11 2531.31,-518.411 2447.54,-520.747"/>
<polygon fill="black" stroke="black" points="2437.36,-520.999 2447.24,-516.253 2442.36,-520.875 2447.36,-520.751 2447.36,-520.751 2447.36,-520.751 2442.36,-520.875 2447.47,-525.25 2437.36,-520.999 2437.36,-520.999"/>
</g>
<!-- 48&#45;&gt;47 -->
<g id="edge88" class="edge"><title>48&#45;&gt;47</title>
<path fill="none" stroke="black" d="M3049.27,-252.303C3049.27,-260.017 3049.27,-269.288 3049.27,-277.888"/>
<polygon fill="black" stroke="black" points="3049.27,-287.896 3044.77,-277.896 3049.27,-282.896 3049.27,-277.896 3049.27,-277.896 3049.27,-277.896 3049.27,-282.896 3053.77,-277.896 3049.27,-287.896 3049.27,-287.896"/>
</g>
<!-- 49&#45;&gt;29 -->
<g id="edge89" class="edge"><title>49&#45;&gt;29</title>
<path fill="none" stroke="black" d="M1411.99,-324.129C1388.27,-349.076 1344.08,-395.55 1316.82,-424.227"/>
<polygon fill="black" stroke="black" points="1309.61,-431.811 1313.24,-421.463 1313.06,-428.187 1316.5,-424.563 1316.5,-424.563 1316.5,-424.563 1313.06,-428.187 1319.76,-427.664 1309.61,-431.811 1309.61,-431.811"/>
</g>
<!-- 49&#45;&gt;52 -->
<g id="edge90" class="edge"><title>49&#45;&gt;52</title>
<path fill="none" stroke="black" d="M1377.72,-322.797C1345.4,-332.896 1303.2,-346.085 1268.51,-356.924"/>
<polygon fill="black" stroke="black" points="1258.94,-359.914 1267.15,-352.636 1263.72,-358.423 1268.49,-356.931 1268.49,-356.931 1268.49,-356.931 1263.72,-358.423 1269.83,-361.227 1258.94,-359.914 1258.94,-359.914"/>
</g>
<!-- 50&#45;&gt;49 -->
<g id="edge91" class="edge"><title>50&#45;&gt;49</title>
<path fill="none" stroke="black" d="M1211.6,-250.122C1253.83,-259.793 1309.61,-272.911 1367.83,-287.94"/>
<polygon fill="black" stroke="black" points="1377.57,-290.468 1366.76,-292.313 1372.73,-289.212 1367.89,-287.957 1367.89,-287.957 1367.89,-287.957 1372.73,-289.212 1369.02,-283.601 1377.57,-290.468 1377.57,-290.468"/>
</g>
<!-- 50&#45;&gt;52 -->
<g id="edge92" class="edge"><title>50&#45;&gt;52</title>
<path fill="none" stroke="black" d="M1157.71,-252.345C1164.93,-262.327 1173.49,-275.364 1179.27,-288 1188.36,-307.889 1194.86,-331.82 1198.95,-349.855"/>
<polygon fill="black" stroke="black" points="1201.08,-359.717 1194.57,-350.892 1200.02,-354.83 1198.96,-349.942 1198.96,-349.942 1198.96,-349.942 1200.02,-354.83 1203.36,-348.992 1201.08,-359.717 1201.08,-359.717"/>
</g>
<!-- 51&#45;&gt;49 -->
<g id="edge93" class="edge"><title>51&#45;&gt;49</title>
<path fill="none" stroke="black" d="M1354.24,-252.124C1366.82,-261.107 1382.4,-272.237 1396.02,-281.966"/>
<polygon fill="black" stroke="black" points="1404.2,-287.81 1393.45,-285.66 1400.14,-284.904 1396.07,-281.998 1396.07,-281.998 1396.07,-281.998 1400.14,-284.904 1398.68,-278.336 1404.2,-287.81 1404.2,-287.81"/>
</g>
<!-- 53 -->
<g id="node54" class="node"><title>53</title>
<polygon fill="none" stroke="black" points="4790.27,-180 4660.27,-180 4660.27,-144 4790.27,-144 4790.27,-180"/>
<text text-anchor="middle" x="4725.27" y="-158.3" font-family="Times,serif" font-size="14.00">PoliciesMultiPlayers</text>
</g>
<!-- 54 -->
<g id="node55" class="node"><title>54</title>
<polygon fill="none" stroke="black" points="4142.77,-252 3961.77,-252 3961.77,-216 4142.77,-216 4142.77,-252"/>
<text text-anchor="middle" x="4052.27" y="-230.3" font-family="Times,serif" font-size="14.00">PoliciesMultiPlayers.ALOHA</text>
</g>
<!-- 53&#45;&gt;54 -->
<g id="edge94" class="edge"><title>53&#45;&gt;54</title>
<path fill="none" stroke="black" d="M4660.21,-167.396C4555.62,-174.821 4343.4,-191.357 4153.17,-215.943"/>
<polygon fill="black" stroke="black" points="4142.98,-217.27 4152.31,-211.516 4147.93,-216.624 4152.89,-215.978 4152.89,-215.978 4152.89,-215.978 4147.93,-216.624 4153.47,-220.441 4142.98,-217.27 4142.98,-217.27"/>
</g>
<!-- 57 -->
<g id="node58" class="node"><title>57</title>
<polygon fill="none" stroke="black" points="5301.77,-252 5062.77,-252 5062.77,-216 5301.77,-216 5301.77,-252"/>
<text text-anchor="middle" x="5182.27" y="-230.3" font-family="Times,serif" font-size="14.00">PoliciesMultiPlayers.CentralizedCycling</text>
</g>
<!-- 53&#45;&gt;57 -->
<g id="edge95" class="edge"><title>53&#45;&gt;57</title>
<path fill="none" stroke="black" d="M4790.75,-173.029C4861.09,-183.804 4974.44,-201.167 5061.12,-214.444"/>
<polygon fill="black" stroke="black" points="5071.02,-215.96 5060.46,-218.894 5066.08,-215.203 5061.14,-214.446 5061.14,-214.446 5061.14,-214.446 5066.08,-215.203 5061.82,-209.998 5071.02,-215.96 5071.02,-215.96"/>
</g>
<!-- 58 -->
<g id="node59" class="node"><title>58</title>
<polygon fill="none" stroke="black" points="5546.77,-252 5319.77,-252 5319.77,-216 5546.77,-216 5546.77,-252"/>
<text text-anchor="middle" x="5433.27" y="-230.3" font-family="Times,serif" font-size="14.00">PoliciesMultiPlayers.CentralizedFixed</text>
</g>
<!-- 53&#45;&gt;58 -->
<g id="edge96" class="edge"><title>53&#45;&gt;58</title>
<path fill="none" stroke="black" d="M4790.41,-167.859C4896.85,-176.026 5114.89,-193.708 5309.52,-215.827"/>
<polygon fill="black" stroke="black" points="5319.65,-216.984 5309.2,-220.32 5314.68,-216.417 5309.71,-215.849 5309.71,-215.849 5309.71,-215.849 5314.68,-216.417 5310.22,-211.378 5319.65,-216.984 5319.65,-216.984"/>
</g>
<!-- 59 -->
<g id="node60" class="node"><title>59</title>
<polygon fill="none" stroke="black" points="4427.77,-252 4160.77,-252 4160.77,-216 4427.77,-216 4427.77,-252"/>
<text text-anchor="middle" x="4294.27" y="-230.3" font-family="Times,serif" font-size="14.00">PoliciesMultiPlayers.CentralizedMultiplePlay</text>
</g>
<!-- 53&#45;&gt;59 -->
<g id="edge97" class="edge"><title>53&#45;&gt;59</title>
<path fill="none" stroke="black" d="M4659.81,-173.631C4593.42,-184.415 4489.3,-201.325 4409.14,-214.344"/>
<polygon fill="black" stroke="black" points="4398.99,-215.992 4408.14,-209.947 4403.93,-215.191 4408.86,-214.389 4408.86,-214.389 4408.86,-214.389 4403.93,-215.191 4409.58,-218.831 4398.99,-215.992 4398.99,-215.992"/>
</g>
<!-- 62 -->
<g id="node63" class="node"><title>62</title>
<polygon fill="none" stroke="black" points="5755.77,-252 5564.77,-252 5564.77,-216 5755.77,-216 5755.77,-252"/>
<text text-anchor="middle" x="5660.27" y="-230.3" font-family="Times,serif" font-size="14.00">PoliciesMultiPlayers.OracleFair</text>
</g>
<!-- 53&#45;&gt;62 -->
<g id="edge98" class="edge"><title>53&#45;&gt;62</title>
<path fill="none" stroke="black" d="M4790.38,-164.974C4929.07,-169.65 5264.06,-183.455 5554.25,-215.83"/>
<polygon fill="black" stroke="black" points="5564.55,-216.99 5554.11,-220.343 5559.58,-216.431 5554.61,-215.872 5554.61,-215.872 5554.61,-215.872 5559.58,-216.431 5555.12,-211.4 5564.55,-216.99 5564.55,-216.99"/>
</g>
<!-- 63 -->
<g id="node64" class="node"><title>63</title>
<polygon fill="none" stroke="black" points="5045.27,-252 4833.27,-252 4833.27,-216 5045.27,-216 5045.27,-252"/>
<text text-anchor="middle" x="4939.27" y="-230.3" font-family="Times,serif" font-size="14.00">PoliciesMultiPlayers.OracleNotFair</text>
</g>
<!-- 53&#45;&gt;63 -->
<g id="edge99" class="edge"><title>53&#45;&gt;63</title>
<path fill="none" stroke="black" d="M4777.35,-180.034C4807.51,-189.9 4845.66,-202.378 4877.35,-212.745"/>
<polygon fill="black" stroke="black" points="4886.96,-215.889 4876.06,-217.057 4882.21,-214.335 4877.46,-212.78 4877.46,-212.78 4877.46,-212.78 4882.21,-214.335 4878.85,-208.503 4886.96,-215.889 4886.96,-215.889"/>
</g>
<!-- 64 -->
<g id="node65" class="node"><title>64</title>
<polygon fill="none" stroke="black" points="4616.77,-252 4445.77,-252 4445.77,-216 4616.77,-216 4616.77,-252"/>
<text text-anchor="middle" x="4531.27" y="-230.3" font-family="Times,serif" font-size="14.00">PoliciesMultiPlayers.Selfish</text>
</g>
<!-- 53&#45;&gt;64 -->
<g id="edge100" class="edge"><title>53&#45;&gt;64</title>
<path fill="none" stroke="black" d="M4677.81,-180.124C4650.7,-189.906 4616.53,-202.235 4588.01,-212.526"/>
<polygon fill="black" stroke="black" points="4578.57,-215.932 4586.45,-208.305 4583.28,-214.235 4587.98,-212.538 4587.98,-212.538 4587.98,-212.538 4583.28,-214.235 4589.51,-216.77 4578.57,-215.932 4578.57,-215.932"/>
</g>
<!-- 66 -->
<g id="node67" class="node"><title>66</title>
<polygon fill="none" stroke="black" points="4815.27,-252 4635.27,-252 4635.27,-216 4815.27,-216 4815.27,-252"/>
<text text-anchor="middle" x="4725.27" y="-230.3" font-family="Times,serif" font-size="14.00">PoliciesMultiPlayers.rhoRand</text>
</g>
<!-- 53&#45;&gt;66 -->
<g id="edge101" class="edge"><title>53&#45;&gt;66</title>
<path fill="none" stroke="black" d="M4725.27,-180.303C4725.27,-188.017 4725.27,-197.288 4725.27,-205.888"/>
<polygon fill="black" stroke="black" points="4725.27,-215.896 4720.77,-205.896 4725.27,-210.896 4725.27,-205.896 4725.27,-205.896 4725.27,-205.896 4725.27,-210.896 4729.77,-205.896 4725.27,-215.896 4725.27,-215.896"/>
</g>
<!-- 56 -->
<g id="node57" class="node"><title>56</title>
<polygon fill="none" stroke="black" points="5052.77,-324 4837.77,-324 4837.77,-288 5052.77,-288 5052.77,-324"/>
<text text-anchor="middle" x="4945.27" y="-302.3" font-family="Times,serif" font-size="14.00">PoliciesMultiPlayers.BaseMPPolicy</text>
</g>
<!-- 54&#45;&gt;56 -->
<g id="edge102" class="edge"><title>54&#45;&gt;56</title>
<path fill="none" stroke="black" d="M4142.96,-250.886C4146.1,-251.286 4149.21,-251.659 4152.27,-252 4448.37,-284.931 4527.67,-258.725 4827.27,-287.856"/>
<polygon fill="black" stroke="black" points="4837.56,-288.87 4827.17,-292.368 4832.59,-288.38 4827.61,-287.89 4827.61,-287.89 4827.61,-287.89 4832.59,-288.38 4828.05,-283.411 4837.56,-288.87 4837.56,-288.87"/>
</g>
<!-- 60 -->
<g id="node61" class="node"><title>60</title>
<polygon fill="none" stroke="black" points="4819.77,-324 4616.77,-324 4616.77,-288 4819.77,-288 4819.77,-324"/>
<text text-anchor="middle" x="4718.27" y="-302.3" font-family="Times,serif" font-size="14.00">PoliciesMultiPlayers.ChildPointer</text>
</g>
<!-- 54&#45;&gt;60 -->
<g id="edge103" class="edge"><title>54&#45;&gt;60</title>
<path fill="none" stroke="black" d="M4142.98,-250.725C4146.11,-251.171 4149.21,-251.598 4152.27,-252 4309.35,-272.676 4491.99,-288.262 4606.37,-297.011"/>
<polygon fill="black" stroke="black" points="4616.53,-297.785 4606.22,-301.513 4611.55,-297.406 4606.56,-297.026 4606.56,-297.026 4606.56,-297.026 4611.55,-297.406 4606.91,-292.539 4616.53,-297.785 4616.53,-297.785"/>
</g>
<!-- 55 -->
<g id="node56" class="node"><title>55</title>
<polygon fill="none" stroke="black" points="5447.77,-324 5190.77,-324 5190.77,-288 5447.77,-288 5447.77,-324"/>
<text text-anchor="middle" x="5319.27" y="-302.3" font-family="Times,serif" font-size="14.00">PoliciesMultiPlayers.BaseCentralizedPolicy</text>
</g>
<!-- 57&#45;&gt;55 -->
<g id="edge104" class="edge"><title>57&#45;&gt;55</title>
<path fill="none" stroke="black" d="M5215.78,-252.124C5234.11,-261.488 5257.01,-273.186 5276.6,-283.197"/>
<polygon fill="black" stroke="black" points="5285.63,-287.81 5274.67,-287.267 5281.17,-285.535 5276.72,-283.26 5276.72,-283.26 5276.72,-283.26 5281.17,-285.535 5278.77,-279.253 5285.63,-287.81 5285.63,-287.81"/>
</g>
<!-- 57&#45;&gt;56 -->
<g id="edge105" class="edge"><title>57&#45;&gt;56</title>
<path fill="none" stroke="black" d="M5124.6,-252.034C5090.91,-261.985 5048.22,-274.594 5012.94,-285.013"/>
<polygon fill="black" stroke="black" points="5003.2,-287.889 5011.52,-280.741 5008,-286.473 5012.79,-285.057 5012.79,-285.057 5012.79,-285.057 5008,-286.473 5014.07,-289.372 5003.2,-287.889 5003.2,-287.889"/>
</g>
<!-- 57&#45;&gt;60 -->
<g id="edge106" class="edge"><title>57&#45;&gt;60</title>
<path fill="none" stroke="black" d="M5068.19,-252.041C5001.62,-262.006 4915.72,-274.9 4829.82,-287.918"/>
<polygon fill="black" stroke="black" points="4819.89,-289.424 4829.1,-283.476 4824.84,-288.675 4829.78,-287.925 4829.78,-287.925 4829.78,-287.925 4824.84,-288.675 4830.45,-292.374 4819.89,-289.424 4819.89,-289.424"/>
</g>
<!-- 58&#45;&gt;55 -->
<g id="edge107" class="edge"><title>58&#45;&gt;55</title>
<path fill="none" stroke="black" d="M5405.38,-252.124C5390.48,-261.276 5371.94,-272.658 5355.89,-282.515"/>
<polygon fill="black" stroke="black" points="5347.26,-287.81 5353.43,-278.743 5351.53,-285.194 5355.79,-282.578 5355.79,-282.578 5355.79,-282.578 5351.53,-285.194 5358.14,-286.412 5347.26,-287.81 5347.26,-287.81"/>
</g>
<!-- 58&#45;&gt;56 -->
<g id="edge108" class="edge"><title>58&#45;&gt;56</title>
<path fill="none" stroke="black" d="M5319.47,-251.324C5242.52,-262.362 5141.13,-276.905 5063.3,-288.069"/>
<polygon fill="black" stroke="black" points="5052.96,-289.552 5062.22,-283.678 5057.91,-288.842 5062.86,-288.132 5062.86,-288.132 5062.86,-288.132 5057.91,-288.842 5063.5,-292.586 5052.96,-289.552 5052.96,-289.552"/>
</g>
<!-- 58&#45;&gt;60 -->
<g id="edge109" class="edge"><title>58&#45;&gt;60</title>
<path fill="none" stroke="black" d="M5319.65,-251.074C5316.83,-251.395 5314.03,-251.704 5311.27,-252 5100.9,-274.49 5044.41,-264.05 4829.86,-287.992"/>
<polygon fill="black" stroke="black" points="4819.85,-289.12 4829.28,-283.528 4824.82,-288.56 4829.79,-288 4829.79,-288 4829.79,-288 4824.82,-288.56 4830.29,-292.471 4819.85,-289.12 4819.85,-289.12"/>
</g>
<!-- 59&#45;&gt;56 -->
<g id="edge110" class="edge"><title>59&#45;&gt;56</title>
<path fill="none" stroke="black" d="M4427.85,-250.994C4431.02,-251.337 4434.16,-251.673 4437.27,-252 4608.03,-269.988 4653.85,-267.413 4827.56,-287.829"/>
<polygon fill="black" stroke="black" points="4837.55,-289.012 4827.09,-292.305 4832.58,-288.424 4827.62,-287.836 4827.62,-287.836 4827.62,-287.836 4832.58,-288.424 4828.15,-283.367 4837.55,-289.012 4837.55,-289.012"/>
</g>
<!-- 59&#45;&gt;60 -->
<g id="edge111" class="edge"><title>59&#45;&gt;60</title>
<path fill="none" stroke="black" d="M4397.45,-252.034C4460.62,-262.464 4541.48,-275.813 4606.22,-286.501"/>
<polygon fill="black" stroke="black" points="4616.46,-288.192 4605.86,-291.003 4611.53,-287.378 4606.6,-286.563 4606.6,-286.563 4606.6,-286.563 4611.53,-287.378 4607.33,-282.123 4616.46,-288.192 4616.46,-288.192"/>
</g>
<!-- 61 -->
<g id="node62" class="node"><title>61</title>
<polygon fill="none" stroke="black" points="3629.77,-36 3464.77,-36 3464.77,-0 3629.77,-0 3629.77,-36"/>
<text text-anchor="middle" x="3547.27" y="-14.3" font-family="Times,serif" font-size="14.00">PoliciesMultiPlayers.DMC</text>
</g>
<!-- 62&#45;&gt;55 -->
<g id="edge112" class="edge"><title>62&#45;&gt;55</title>
<path fill="none" stroke="black" d="M5577.29,-252.034C5527.38,-262.28 5463.73,-275.345 5412.15,-285.935"/>
<polygon fill="black" stroke="black" points="5402.33,-287.95 5411.22,-281.531 5407.23,-286.944 5412.12,-285.939 5412.12,-285.939 5412.12,-285.939 5407.23,-286.944 5413.03,-290.347 5402.33,-287.95 5402.33,-287.95"/>
</g>
<!-- 62&#45;&gt;56 -->
<g id="edge113" class="edge"><title>62&#45;&gt;56</title>
<path fill="none" stroke="black" d="M5564.54,-250.927C5561.75,-251.301 5558.99,-251.66 5556.27,-252 5463.96,-263.531 5213.01,-284.013 5062.98,-295.854"/>
<polygon fill="black" stroke="black" points="5052.81,-296.657 5062.42,-291.385 5057.79,-296.264 5062.78,-295.871 5062.78,-295.871 5062.78,-295.871 5057.79,-296.264 5063.13,-300.357 5052.81,-296.657 5052.81,-296.657"/>
</g>
<!-- 62&#45;&gt;60 -->
<g id="edge114" class="edge"><title>62&#45;&gt;60</title>
<path fill="none" stroke="black" d="M5564.55,-251.062C5561.77,-251.396 5559,-251.71 5556.27,-252 5237.87,-285.798 5152.87,-256.092 4829.95,-288.006"/>
<polygon fill="black" stroke="black" points="4819.84,-289.018 4829.34,-283.545 4824.82,-288.52 4829.79,-288.022 4829.79,-288.022 4829.79,-288.022 4824.82,-288.52 4830.24,-292.5 4819.84,-289.018 4819.84,-289.018"/>
</g>
<!-- 63&#45;&gt;55 -->
<g id="edge115" class="edge"><title>63&#45;&gt;55</title>
<path fill="none" stroke="black" d="M5031.74,-252.034C5087.71,-262.344 5159.17,-275.508 5216.85,-286.133"/>
<polygon fill="black" stroke="black" points="5226.71,-287.95 5216.06,-290.564 5221.8,-287.044 5216.88,-286.138 5216.88,-286.138 5216.88,-286.138 5221.8,-287.044 5217.69,-281.713 5226.71,-287.95 5226.71,-287.95"/>
</g>
<!-- 63&#45;&gt;56 -->
<g id="edge116" class="edge"><title>63&#45;&gt;56</title>
<path fill="none" stroke="black" d="M4940.75,-252.303C4941.41,-260.017 4942.21,-269.288 4942.95,-277.888"/>
<polygon fill="black" stroke="black" points="4943.8,-287.896 4938.47,-278.317 4943.38,-282.914 4942.95,-277.932 4942.95,-277.932 4942.95,-277.932 4943.38,-282.914 4947.43,-277.548 4943.8,-287.896 4943.8,-287.896"/>
</g>
<!-- 63&#45;&gt;60 -->
<g id="edge117" class="edge"><title>63&#45;&gt;60</title>
<path fill="none" stroke="black" d="M4885.49,-252.034C4854.34,-261.9 4814.95,-274.378 4782.22,-284.745"/>
<polygon fill="black" stroke="black" points="4772.29,-287.889 4780.47,-280.58 4777.06,-286.379 4781.82,-284.87 4781.82,-284.87 4781.82,-284.87 4777.06,-286.379 4783.18,-289.16 4772.29,-287.889 4772.29,-287.889"/>
</g>
<!-- 64&#45;&gt;56 -->
<g id="edge118" class="edge"><title>64&#45;&gt;56</title>
<path fill="none" stroke="black" d="M4616.97,-250.386C4620.11,-250.933 4623.22,-251.473 4626.27,-252 4694.01,-263.687 4769.92,-276.318 4830.69,-286.317"/>
<polygon fill="black" stroke="black" points="4840.69,-287.961 4830.1,-290.78 4835.76,-287.15 4830.83,-286.339 4830.83,-286.339 4830.83,-286.339 4835.76,-287.15 4831.56,-281.899 4840.69,-287.961 4840.69,-287.961"/>
</g>
<!-- 64&#45;&gt;60 -->
<g id="edge119" class="edge"><title>64&#45;&gt;60</title>
<path fill="none" stroke="black" d="M4577.02,-252.124C4603.03,-261.863 4635.8,-274.128 4663.22,-284.392"/>
<polygon fill="black" stroke="black" points="4672.67,-287.932 4661.73,-288.64 4667.99,-286.179 4663.31,-284.426 4663.31,-284.426 4663.31,-284.426 4667.99,-286.179 4664.89,-280.211 4672.67,-287.932 4672.67,-287.932"/>
</g>
<!-- 65 -->
<g id="node66" class="node"><title>65</title>
<polygon fill="none" stroke="black" points="3814.77,-36 3647.77,-36 3647.77,-0 3814.77,-0 3814.77,-36"/>
<text text-anchor="middle" x="3731.27" y="-14.3" font-family="Times,serif" font-size="14.00">PoliciesMultiPlayers.TDFS</text>
</g>
<!-- 66&#45;&gt;56 -->
<g id="edge120" class="edge"><title>66&#45;&gt;56</title>
<path fill="none" stroke="black" d="M4778.81,-252.034C4809.81,-261.9 4849.03,-274.378 4881.61,-284.745"/>
<polygon fill="black" stroke="black" points="4891.49,-287.889 4880.6,-289.145 4886.73,-286.373 4881.96,-284.857 4881.96,-284.857 4881.96,-284.857 4886.73,-286.373 4883.33,-280.569 4891.49,-287.889 4891.49,-287.889"/>
</g>
<!-- 66&#45;&gt;60 -->
<g id="edge121" class="edge"><title>66&#45;&gt;60</title>
<path fill="none" stroke="black" d="M4723.54,-252.303C4722.77,-260.017 4721.84,-269.288 4720.98,-277.888"/>
<polygon fill="black" stroke="black" points="4719.98,-287.896 4716.5,-277.497 4720.48,-282.92 4720.98,-277.945 4720.98,-277.945 4720.98,-277.945 4720.48,-282.92 4725.45,-278.393 4719.98,-287.896 4719.98,-287.896"/>
</g>
<!-- 67 -->
<g id="node68" class="node"><title>67</title>
<polygon fill="none" stroke="black" points="3887.27,-36 3833.27,-36 3833.27,-0 3887.27,-0 3887.27,-36"/>
<text text-anchor="middle" x="3860.27" y="-14.3" font-family="Times,serif" font-size="14.00">conf</text>
</g>
<!-- 68 -->
<g id="node69" class="node"><title>68</title>
<polygon fill="none" stroke="black" points="423.77,-108 334.77,-108 334.77,-72 423.77,-72 423.77,-108"/>
<text text-anchor="middle" x="379.27" y="-86.3" font-family="Times,serif" font-size="14.00">configuration</text>
</g>
<!-- 68&#45;&gt;0 -->
<g id="edge122" class="edge"><title>68&#45;&gt;0</title>
<path fill="none" stroke="black" d="M395.338,-108.303C403.209,-116.78 412.825,-127.136 421.443,-136.417"/>
<polygon fill="black" stroke="black" points="428.387,-143.896 418.285,-139.63 424.985,-140.232 421.583,-136.568 421.583,-136.568 421.583,-136.568 424.985,-140.232 424.881,-133.506 428.387,-143.896 428.387,-143.896"/>
</g>
<!-- 68&#45;&gt;2 -->
<g id="edge123" class="edge"><title>68&#45;&gt;2</title>
<path fill="none" stroke="black" d="M356.714,-108.129C323.298,-133.503 260.557,-181.146 222.978,-209.682"/>
<polygon fill="black" stroke="black" points="214.907,-215.811 220.149,-206.179 218.889,-212.787 222.871,-209.763 222.871,-209.763 222.871,-209.763 218.889,-212.787 225.592,-213.347 214.907,-215.811 214.907,-215.811"/>
</g>
<!-- 68&#45;&gt;3 -->
<g id="edge124" class="edge"><title>68&#45;&gt;3</title>
<path fill="none" stroke="black" d="M372.033,-108.129C361.717,-132.543 342.689,-177.574 330.524,-206.365"/>
<polygon fill="black" stroke="black" points="326.533,-215.811 326.28,-204.848 328.479,-211.205 330.425,-206.599 330.425,-206.599 330.425,-206.599 328.479,-211.205 334.571,-208.351 326.533,-215.811 326.533,-215.811"/>
</g>
<!-- 68&#45;&gt;4 -->
<g id="edge125" class="edge"><title>68&#45;&gt;4</title>
<path fill="none" stroke="black" d="M340.312,-108.079C317.024,-118.356 286.885,-131.775 260.27,-144 211.111,-166.58 155.108,-193.209 117.105,-211.417"/>
<polygon fill="black" stroke="black" points="107.846,-215.857 114.917,-207.476 112.355,-213.695 116.863,-211.533 116.863,-211.533 116.863,-211.533 112.355,-213.695 118.809,-215.591 107.846,-215.857 107.846,-215.857"/>
</g>
<!-- 68&#45;&gt;5 -->
<g id="edge126" class="edge"><title>68&#45;&gt;5</title>
<path fill="none" stroke="black" d="M420.167,-108.228C439.409,-117.361 462.07,-129.663 480.27,-144 503.644,-162.412 525.534,-188.474 540.139,-207.639"/>
<polygon fill="black" stroke="black" points="546.316,-215.907 536.726,-210.589 543.323,-211.901 540.331,-207.896 540.331,-207.896 540.331,-207.896 543.323,-211.901 543.936,-205.203 546.316,-215.907 546.316,-215.907"/>
</g>
<!-- 68&#45;&gt;16 -->
<g id="edge127" class="edge"><title>68&#45;&gt;16</title>
<path fill="none" stroke="black" d="M423.954,-93.5327C618.559,-104.563 1390.62,-148.324 1574.71,-158.758"/>
<polygon fill="black" stroke="black" points="1584.76,-159.327 1574.52,-163.254 1579.77,-159.044 1574.78,-158.761 1574.78,-158.761 1574.78,-158.761 1579.77,-159.044 1575.03,-154.269 1584.76,-159.327 1584.76,-159.327"/>
</g>
<!-- 68&#45;&gt;52 -->
<g id="edge128" class="edge"><title>68&#45;&gt;52</title>
<path fill="none" stroke="black" d="M334.366,-92.9213C221.331,-99.6054 -60.8938,-128.752 12.2701,-252 46.3826,-309.464 79.8973,-306.058 144.27,-324 318.26,-372.495 775.935,-349.823 956.27,-360 1018.35,-363.503 1089.1,-368.448 1139.1,-372.102"/>
<polygon fill="black" stroke="black" points="1149.13,-372.838 1138.83,-376.594 1144.15,-372.472 1139.16,-372.106 1139.16,-372.106 1139.16,-372.106 1144.15,-372.472 1139.49,-367.618 1149.13,-372.838 1149.13,-372.838"/>
</g>
<!-- 69 -->
<g id="node70" class="node"><title>69</title>
<polygon fill="none" stroke="black" points="1427.27,-108 1263.27,-108 1263.27,-72 1427.27,-72 1427.27,-108"/>
<text text-anchor="middle" x="1345.27" y="-86.3" font-family="Times,serif" font-size="14.00">configuration_multiplayers</text>
</g>
<!-- 69&#45;&gt;0 -->
<g id="edge129" class="edge"><title>69&#45;&gt;0</title>
<path fill="none" stroke="black" d="M1263.26,-93.4046C1079.75,-99.2246 640.772,-115.714 495.27,-144 490.592,-144.909 485.751,-146.132 480.998,-147.508"/>
<polygon fill="black" stroke="black" points="471.447,-150.493 479.649,-143.215 476.219,-149.001 480.992,-147.51 480.992,-147.51 480.992,-147.51 476.219,-149.001 482.334,-151.805 471.447,-150.493 471.447,-150.493"/>
</g>
<!-- 69&#45;&gt;2 -->
<g id="edge130" class="edge"><title>69&#45;&gt;2</title>
<path fill="none" stroke="black" d="M1262.88,-92.6985C1048.87,-97.5281 486.532,-113.035 408.27,-144 385.094,-153.17 387.177,-168.113 365.27,-180 355.078,-185.531 299.083,-202.315 253.517,-215.53"/>
<polygon fill="black" stroke="black" points="243.677,-218.376 252.034,-211.275 248.481,-216.987 253.284,-215.598 253.284,-215.598 253.284,-215.598 248.481,-216.987 254.534,-219.92 243.677,-218.376 243.677,-218.376"/>
</g>
<!-- 69&#45;&gt;3 -->
<g id="edge131" class="edge"><title>69&#45;&gt;3</title>
<path fill="none" stroke="black" d="M1262.89,-96.8881C1154.96,-105.068 959.958,-121.447 794.27,-144 615.024,-168.398 567.942,-177.027 387.148,-215.879"/>
<polygon fill="black" stroke="black" points="377.313,-217.994 386.144,-211.492 382.201,-216.943 387.09,-215.891 387.09,-215.891 387.09,-215.891 382.201,-216.943 388.036,-220.291 377.313,-217.994 377.313,-217.994"/>
</g>
<!-- 69&#45;&gt;4 -->
<g id="edge132" class="edge"><title>69&#45;&gt;4</title>
<path fill="none" stroke="black" d="M1263.08,-92.9002C1059.67,-98.0119 536.847,-113.759 365.27,-144 342.174,-148.071 211.715,-188.813 132.869,-213.74"/>
<polygon fill="black" stroke="black" points="123.048,-216.847 131.225,-209.54 127.815,-215.339 132.582,-213.83 132.582,-213.83 132.582,-213.83 127.815,-215.339 133.94,-218.121 123.048,-216.847 123.048,-216.847"/>
</g>
<!-- 69&#45;&gt;5 -->
<g id="edge133" class="edge"><title>69&#45;&gt;5</title>
<path fill="none" stroke="black" d="M1263.08,-102.378C1127.95,-121.705 850.74,-163.96 619.27,-216 617.795,-216.332 616.303,-216.677 614.799,-217.033"/>
<polygon fill="black" stroke="black" points="604.774,-219.517 613.398,-212.744 609.627,-218.314 614.48,-217.112 614.48,-217.112 614.48,-217.112 609.627,-218.314 615.563,-221.479 604.774,-219.517 604.774,-219.517"/>
</g>
<!-- 69&#45;&gt;9 -->
<g id="edge134" class="edge"><title>69&#45;&gt;9</title>
<path fill="none" stroke="black" d="M1427.49,-91.5176C1782.46,-93.9746 3174.27,-105.969 3366.27,-144 3402.31,-151.138 3492.94,-187.915 3549.96,-211.903"/>
<polygon fill="black" stroke="black" points="3559.5,-215.93 3548.54,-216.188 3554.89,-213.986 3550.29,-212.042 3550.29,-212.042 3550.29,-212.042 3554.89,-213.986 3552.04,-207.896 3559.5,-215.93 3559.5,-215.93"/>
</g>
<!-- 69&#45;&gt;12 -->
<g id="edge135" class="edge"><title>69&#45;&gt;12</title>
<path fill="none" stroke="black" d="M1427.74,-91.0293C1701.74,-92.2042 2606.4,-104.732 3356.51,-216.05"/>
<polygon fill="black" stroke="black" points="3366.44,-217.529 3355.88,-220.505 3361.49,-216.792 3356.55,-216.054 3356.55,-216.054 3356.55,-216.054 3361.49,-216.792 3357.21,-211.604 3366.44,-217.529 3366.44,-217.529"/>
</g>
<!-- 69&#45;&gt;16 -->
<g id="edge136" class="edge"><title>69&#45;&gt;16</title>
<path fill="none" stroke="black" d="M1410.73,-108.034C1461.99,-121.372 1531.59,-139.485 1574.69,-150.7"/>
<polygon fill="black" stroke="black" points="1584.52,-153.258 1573.71,-155.094 1579.68,-151.998 1574.84,-150.739 1574.84,-150.739 1574.84,-150.739 1579.68,-151.998 1575.97,-146.384 1584.52,-153.258 1584.52,-153.258"/>
</g>
<!-- 69&#45;&gt;53 -->
<g id="edge137" class="edge"><title>69&#45;&gt;53</title>
<path fill="none" stroke="black" d="M1427.56,-92.7043C1894.17,-102.368 4202.43,-150.172 4650.02,-159.442"/>
<polygon fill="black" stroke="black" points="4660.25,-159.653 4650.16,-163.945 4655.25,-159.55 4650.25,-159.446 4650.25,-159.446 4650.25,-159.446 4655.25,-159.55 4650.34,-154.947 4660.25,-159.653 4660.25,-159.653"/>
</g>
<!-- 70 -->
<g id="node71" class="node"><title>70</title>
<polygon fill="none" stroke="black" points="3309.27,-36 3255.27,-36 3255.27,-0 3309.27,-0 3309.27,-36"/>
<text text-anchor="middle" x="3282.27" y="-14.3" font-family="Times,serif" font-size="14.00">main</text>
</g>
<!-- 70&#45;&gt;8 -->
<g id="edge138" class="edge"><title>70&#45;&gt;8</title>
<path fill="none" stroke="black" d="M3307.96,-36.1239C3321.56,-45.1917 3338.44,-56.4477 3353.13,-66.2408"/>
<polygon fill="black" stroke="black" points="3361.49,-71.8102 3350.67,-70.0074 3357.33,-69.0367 3353.16,-66.2632 3353.16,-66.2632 3353.16,-66.2632 3357.33,-69.0367 3355.66,-62.519 3361.49,-71.8102 3361.49,-71.8102"/>
</g>
<!-- 70&#45;&gt;10 -->
<g id="edge139" class="edge"><title>70&#45;&gt;10</title>
<path fill="none" stroke="black" d="M3282.63,-36.1285C3283.14,-60.3298 3284.08,-104.789 3284.69,-133.607"/>
<polygon fill="black" stroke="black" points="3284.91,-143.811 3280.2,-133.908 3284.8,-138.812 3284.7,-133.813 3284.7,-133.813 3284.7,-133.813 3284.8,-138.812 3289.19,-133.718 3284.91,-143.811 3284.91,-143.811"/>
</g>
<!-- 70&#45;&gt;68 -->
<g id="edge140" class="edge"><title>70&#45;&gt;68</title>
<path fill="none" stroke="black" d="M3254.93,-19.6593C2985.54,-26.155 808.335,-78.654 433.971,-87.681"/>
<polygon fill="black" stroke="black" points="423.932,-87.9231 433.82,-83.1832 428.93,-87.8025 433.929,-87.6819 433.929,-87.6819 433.929,-87.6819 428.93,-87.8025 434.037,-92.1806 423.932,-87.9231 423.932,-87.9231"/>
</g>
<!-- 71 -->
<g id="node72" class="node"><title>71</title>
<polygon fill="none" stroke="black" points="3446.77,-36 3327.77,-36 3327.77,-0 3446.77,-0 3446.77,-36"/>
<text text-anchor="middle" x="3387.27" y="-14.3" font-family="Times,serif" font-size="14.00">main_multiplayers</text>
</g>
<!-- 71&#45;&gt;8 -->
<g id="edge141" class="edge"><title>71&#45;&gt;8</title>
<path fill="none" stroke="black" d="M3387.27,-36.3034C3387.27,-44.0173 3387.27,-53.2875 3387.27,-61.8876"/>
<polygon fill="black" stroke="black" points="3387.27,-71.8957 3382.77,-61.8956 3387.27,-66.8957 3387.27,-61.8957 3387.27,-61.8957 3387.27,-61.8957 3387.27,-66.8957 3391.77,-61.8957 3387.27,-71.8957 3387.27,-71.8957"/>
</g>
<!-- 71&#45;&gt;11 -->
<g id="edge142" class="edge"><title>71&#45;&gt;11</title>
<path fill="none" stroke="black" d="M3412.84,-36.1285C3450.96,-61.6624 3522.75,-109.747 3565.26,-138.219"/>
<polygon fill="black" stroke="black" points="3573.61,-143.811 3562.79,-141.984 3569.45,-141.028 3565.3,-138.246 3565.3,-138.246 3565.3,-138.246 3569.45,-141.028 3567.8,-134.507 3573.61,-143.811 3573.61,-143.811"/>
</g>
<!-- 71&#45;&gt;69 -->
<g id="edge143" class="edge"><title>71&#45;&gt;69</title>
<path fill="none" stroke="black" d="M3327.58,-34.5372C3324.44,-35.0931 3321.33,-35.5873 3318.27,-36 2947.84,-86.0159 1775.83,-89.2754 1437.53,-89.1466"/>
<polygon fill="black" stroke="black" points="1427.52,-89.1417 1437.52,-84.6467 1432.52,-89.1442 1437.52,-89.1467 1437.52,-89.1467 1437.52,-89.1467 1432.52,-89.1442 1437.52,-93.6467 1427.52,-89.1417 1427.52,-89.1417"/>
</g>
</g>
</svg>
