<?xml version="1.0" encoding="UTF-8" standalone="no"?>
<!DOCTYPE svg PUBLIC "-//W3C//DTD SVG 1.1//EN"
 "http://www.w3.org/Graphics/SVG/1.1/DTD/svg11.dtd">
<!-- Generated by graphviz version 2.38.0 (20140413.2041)
 -->
<!-- Title: packages_AlgoBandits Pages: 1 -->
<svg width="3636pt" height="332pt"
 viewBox="0.00 0.00 3635.50 332.00" xmlns="http://www.w3.org/2000/svg" xmlns:xlink="http://www.w3.org/1999/xlink">
<g id="graph0" class="graph" transform="scale(1 1) rotate(0) translate(4 328)">
<title>packages_AlgoBandits</title>
<polygon fill="white" stroke="none" points="-4,4 -4,-328 3631.5,-328 3631.5,4 -4,4"/>
<!-- 0 -->
<g id="node1" class="node"><title>0</title>
<polygon fill="none" stroke="black" points="269,-108 215,-108 215,-72 269,-72 269,-108"/>
<text text-anchor="middle" x="242" y="-86.3" font-family="Times,serif" font-size="14.00">Arms</text>
</g>
<!-- 2 -->
<g id="node3" class="node"><title>2</title>
<polygon fill="none" stroke="black" points="770,-180 668,-180 668,-144 770,-144 770,-180"/>
<text text-anchor="middle" x="719" y="-158.3" font-family="Times,serif" font-size="14.00">Arms.Bernoulli</text>
</g>
<!-- 0&#45;&gt;2 -->
<g id="edge1" class="edge"><title>0&#45;&gt;2</title>
<path fill="none" stroke="black" d="M269.012,-94.9641C343.398,-105.88 552.646,-136.588 657.501,-151.975"/>
<polygon fill="black" stroke="black" points="667.62,-153.46 657.073,-156.46 662.673,-152.734 657.726,-152.008 657.726,-152.008 657.726,-152.008 662.673,-152.734 658.379,-147.556 667.62,-153.46 667.62,-153.46"/>
</g>
<!-- 3 -->
<g id="node4" class="node"><title>3</title>
<polygon fill="none" stroke="black" points="116,-180 7.10543e-15,-180 7.10543e-15,-144 116,-144 116,-180"/>
<text text-anchor="middle" x="58" y="-158.3" font-family="Times,serif" font-size="14.00">Arms.Exponential</text>
</g>
<!-- 0&#45;&gt;3 -->
<g id="edge2" class="edge"><title>0&#45;&gt;3</title>
<path fill="none" stroke="black" d="M214.85,-101.329C188.01,-111.54 146.186,-127.451 112.474,-140.276"/>
<polygon fill="black" stroke="black" points="102.75,-143.975 110.497,-136.214 107.424,-142.197 112.097,-140.42 112.097,-140.42 112.097,-140.42 107.424,-142.197 113.697,-144.625 102.75,-143.975 102.75,-143.975"/>
</g>
<!-- 4 -->
<g id="node5" class="node"><title>4</title>
<polygon fill="none" stroke="black" points="235.5,-180 134.5,-180 134.5,-144 235.5,-144 235.5,-180"/>
<text text-anchor="middle" x="185" y="-158.3" font-family="Times,serif" font-size="14.00">Arms.Gaussian</text>
</g>
<!-- 0&#45;&gt;4 -->
<g id="edge3" class="edge"><title>0&#45;&gt;4</title>
<path fill="none" stroke="black" d="M227.91,-108.303C221.077,-116.695 212.743,-126.93 205.244,-136.139"/>
<polygon fill="black" stroke="black" points="198.928,-143.896 201.753,-133.3 202.085,-140.018 205.242,-136.141 205.242,-136.141 205.242,-136.141 202.085,-140.018 208.732,-138.983 198.928,-143.896 198.928,-143.896"/>
</g>
<!-- 5 -->
<g id="node6" class="node"><title>5</title>
<polygon fill="none" stroke="black" points="346.5,-180 253.5,-180 253.5,-144 346.5,-144 346.5,-180"/>
<text text-anchor="middle" x="300" y="-158.3" font-family="Times,serif" font-size="14.00">Arms.Poisson</text>
</g>
<!-- 0&#45;&gt;5 -->
<g id="edge4" class="edge"><title>0&#45;&gt;5</title>
<path fill="none" stroke="black" d="M256.337,-108.303C263.291,-116.695 271.77,-126.93 279.401,-136.139"/>
<polygon fill="black" stroke="black" points="285.828,-143.896 275.983,-139.067 282.638,-140.046 279.448,-136.195 279.448,-136.195 279.448,-136.195 282.638,-140.046 282.913,-133.324 285.828,-143.896 285.828,-143.896"/>
</g>
<!-- 1 -->
<g id="node2" class="node"><title>1</title>
<polygon fill="none" stroke="black" points="159.5,-252 82.5,-252 82.5,-216 159.5,-216 159.5,-252"/>
<text text-anchor="middle" x="121" y="-230.3" font-family="Times,serif" font-size="14.00">Arms.Arm</text>
</g>
<!-- 2&#45;&gt;1 -->
<g id="edge5" class="edge"><title>2&#45;&gt;1</title>
<path fill="none" stroke="black" d="M667.926,-163.776C571.719,-166.131 357.23,-175.627 169.581,-216.231"/>
<polygon fill="black" stroke="black" points="159.535,-218.441 168.335,-211.897 164.419,-217.366 169.302,-216.292 169.302,-216.292 169.302,-216.292 164.419,-217.366 170.269,-220.687 159.535,-218.441 159.535,-218.441"/>
</g>
<!-- 3&#45;&gt;1 -->
<g id="edge6" class="edge"><title>3&#45;&gt;1</title>
<path fill="none" stroke="black" d="M73.573,-180.303C81.2022,-188.78 90.5228,-199.136 98.8757,-208.417"/>
<polygon fill="black" stroke="black" points="105.606,-215.896 95.5716,-211.473 102.261,-212.179 98.9164,-208.463 98.9164,-208.463 98.9164,-208.463 102.261,-212.179 102.261,-205.452 105.606,-215.896 105.606,-215.896"/>
</g>
<!-- 4&#45;&gt;1 -->
<g id="edge7" class="edge"><title>4&#45;&gt;1</title>
<path fill="none" stroke="black" d="M169.18,-180.303C161.43,-188.78 151.961,-199.136 143.476,-208.417"/>
<polygon fill="black" stroke="black" points="136.638,-215.896 140.065,-205.479 140.012,-212.206 143.386,-208.515 143.386,-208.515 143.386,-208.515 140.012,-212.206 146.707,-211.552 136.638,-215.896 136.638,-215.896"/>
</g>
<!-- 5&#45;&gt;1 -->
<g id="edge8" class="edge"><title>5&#45;&gt;1</title>
<path fill="none" stroke="black" d="M256.212,-180.124C229.94,-190.398 196.485,-203.481 169.427,-214.062"/>
<polygon fill="black" stroke="black" points="159.772,-217.838 167.447,-210.005 164.429,-216.017 169.085,-214.196 169.085,-214.196 169.085,-214.196 164.429,-216.017 170.724,-218.387 159.772,-217.838 159.772,-217.838"/>
</g>
<!-- 6 -->
<g id="node7" class="node"><title>6</title>
<polygon fill="none" stroke="black" points="2256,-108 2168,-108 2168,-72 2256,-72 2256,-108"/>
<text text-anchor="middle" x="2212" y="-86.3" font-family="Times,serif" font-size="14.00">Environment</text>
</g>
<!-- 8 -->
<g id="node9" class="node"><title>8</title>
<polygon fill="none" stroke="black" points="2276,-180 2132,-180 2132,-144 2276,-144 2276,-180"/>
<text text-anchor="middle" x="2204" y="-158.3" font-family="Times,serif" font-size="14.00">Environment.Evaluator</text>
</g>
<!-- 6&#45;&gt;8 -->
<g id="edge9" class="edge"><title>6&#45;&gt;8</title>
<path fill="none" stroke="black" d="M2210.02,-108.303C2209.14,-116.017 2208.08,-125.288 2207.1,-133.888"/>
<polygon fill="black" stroke="black" points="2205.95,-143.896 2202.62,-133.449 2206.52,-138.928 2207.09,-133.96 2207.09,-133.96 2207.09,-133.96 2206.52,-138.928 2211.56,-134.471 2205.95,-143.896 2205.95,-143.896"/>
</g>
<!-- 9 -->
<g id="node10" class="node"><title>9</title>
<polygon fill="none" stroke="black" points="2573.5,-180 2358.5,-180 2358.5,-144 2573.5,-144 2573.5,-180"/>
<text text-anchor="middle" x="2466" y="-158.3" font-family="Times,serif" font-size="14.00">Environment.EvaluatorMultiPlayers</text>
</g>
<!-- 6&#45;&gt;9 -->
<g id="edge10" class="edge"><title>6&#45;&gt;9</title>
<path fill="none" stroke="black" d="M2256.19,-105.367C2259.17,-106.275 2262.12,-107.16 2265,-108 2305.39,-119.793 2350.67,-131.836 2388.02,-141.456"/>
<polygon fill="black" stroke="black" points="2397.84,-143.976 2387.03,-145.848 2392.99,-142.732 2388.15,-141.489 2388.15,-141.489 2388.15,-141.489 2392.99,-142.732 2389.27,-137.13 2397.84,-143.976 2397.84,-143.976"/>
</g>
<!-- 10 -->
<g id="node11" class="node"><title>10</title>
<polygon fill="none" stroke="black" points="2361.5,-252 2238.5,-252 2238.5,-216 2361.5,-216 2361.5,-252"/>
<text text-anchor="middle" x="2300" y="-230.3" font-family="Times,serif" font-size="14.00">Environment.MAB</text>
</g>
<!-- 6&#45;&gt;10 -->
<g id="edge11" class="edge"><title>6&#45;&gt;10</title>
<path fill="none" stroke="black" d="M2246.16,-108.056C2260.36,-116.869 2275.68,-128.958 2285,-144 2296.46,-162.481 2299.9,-187.077 2300.65,-205.728"/>
<polygon fill="black" stroke="black" points="2300.82,-215.932 2296.16,-206.009 2300.74,-210.932 2300.65,-205.933 2300.65,-205.933 2300.65,-205.933 2300.74,-210.932 2305.15,-205.857 2300.82,-215.932 2300.82,-215.932"/>
</g>
<!-- 11 -->
<g id="node12" class="node"><title>11</title>
<polygon fill="none" stroke="black" points="2220,-252 2094,-252 2094,-216 2220,-216 2220,-252"/>
<text text-anchor="middle" x="2157" y="-230.3" font-family="Times,serif" font-size="14.00">Environment.Result</text>
</g>
<!-- 6&#45;&gt;11 -->
<g id="edge12" class="edge"><title>6&#45;&gt;11</title>
<path fill="none" stroke="black" d="M2167.71,-106.272C2150.58,-114.598 2132.78,-126.802 2123,-144 2111.48,-164.267 2122.95,-189.194 2135.59,-207.506"/>
<polygon fill="black" stroke="black" points="2141.79,-215.916 2132.23,-210.539 2138.82,-211.892 2135.85,-207.868 2135.85,-207.868 2135.85,-207.868 2138.82,-211.892 2139.48,-205.197 2141.79,-215.916 2141.79,-215.916"/>
</g>
<!-- 7 -->
<g id="node8" class="node"><title>7</title>
<polygon fill="none" stroke="black" points="2562,-252 2380,-252 2380,-216 2562,-216 2562,-252"/>
<text text-anchor="middle" x="2471" y="-230.3" font-family="Times,serif" font-size="14.00">Environment.CollisionModels</text>
</g>
<!-- 8&#45;&gt;10 -->
<g id="edge13" class="edge"><title>8&#45;&gt;10</title>
<path fill="none" stroke="black" d="M2227.73,-180.303C2239.94,-189.204 2254.99,-200.177 2268.18,-209.801"/>
<polygon fill="black" stroke="black" points="2276.54,-215.896 2265.81,-213.64 2272.5,-212.95 2268.46,-210.004 2268.46,-210.004 2268.46,-210.004 2272.5,-212.95 2271.11,-206.368 2276.54,-215.896 2276.54,-215.896"/>
</g>
<!-- 8&#45;&gt;11 -->
<g id="edge14" class="edge"><title>8&#45;&gt;11</title>
<path fill="none" stroke="black" d="M2192.38,-180.303C2186.86,-188.526 2180.15,-198.517 2174.07,-207.579"/>
<polygon fill="black" stroke="black" points="2168.48,-215.896 2170.32,-205.085 2171.27,-211.745 2174.06,-207.593 2174.06,-207.593 2174.06,-207.593 2171.27,-211.745 2177.79,-210.102 2168.48,-215.896 2168.48,-215.896"/>
</g>
<!-- 9&#45;&gt;7 -->
<g id="edge15" class="edge"><title>9&#45;&gt;7</title>
<path fill="none" stroke="black" d="M2467.24,-180.303C2467.79,-188.017 2468.45,-197.288 2469.06,-205.888"/>
<polygon fill="black" stroke="black" points="2469.78,-215.896 2464.58,-206.242 2469.42,-210.908 2469.07,-205.921 2469.07,-205.921 2469.07,-205.921 2469.42,-210.908 2473.55,-205.6 2469.78,-215.896 2469.78,-215.896"/>
</g>
<!-- 9&#45;&gt;10 -->
<g id="edge16" class="edge"><title>9&#45;&gt;10</title>
<path fill="none" stroke="black" d="M2425.39,-180.124C2402.6,-189.736 2373.97,-201.807 2349.83,-211.987"/>
<polygon fill="black" stroke="black" points="2340.48,-215.932 2347.94,-207.9 2345.08,-213.989 2349.69,-212.046 2349.69,-212.046 2349.69,-212.046 2345.08,-213.989 2351.44,-216.193 2340.48,-215.932 2340.48,-215.932"/>
</g>
<!-- 12 -->
<g id="node13" class="node"><title>12</title>
<polygon fill="none" stroke="black" points="2777.5,-252 2580.5,-252 2580.5,-216 2777.5,-216 2777.5,-252"/>
<text text-anchor="middle" x="2679" y="-230.3" font-family="Times,serif" font-size="14.00">Environment.ResultMultiPlayers</text>
</g>
<!-- 9&#45;&gt;12 -->
<g id="edge17" class="edge"><title>9&#45;&gt;12</title>
<path fill="none" stroke="black" d="M2517.83,-180.034C2547.85,-189.9 2585.82,-202.378 2617.37,-212.745"/>
<polygon fill="black" stroke="black" points="2626.93,-215.889 2616.03,-217.042 2622.18,-214.328 2617.43,-212.767 2617.43,-212.767 2617.43,-212.767 2622.18,-214.328 2618.84,-208.492 2626.93,-215.889 2626.93,-215.889"/>
</g>
<!-- 13 -->
<g id="node14" class="node"><title>13</title>
<polygon fill="none" stroke="black" points="1153.5,-180 1094.5,-180 1094.5,-144 1153.5,-144 1153.5,-180"/>
<text text-anchor="middle" x="1124" y="-158.3" font-family="Times,serif" font-size="14.00">Policies</text>
</g>
<!-- 14 -->
<g id="node15" class="node"><title>14</title>
<polygon fill="none" stroke="black" points="837.5,-252 716.5,-252 716.5,-216 837.5,-216 837.5,-252"/>
<text text-anchor="middle" x="777" y="-230.3" font-family="Times,serif" font-size="14.00">Policies.AdBandits</text>
</g>
<!-- 13&#45;&gt;14 -->
<g id="edge18" class="edge"><title>13&#45;&gt;14</title>
<path fill="none" stroke="black" d="M1094.39,-168.172C1045.29,-176.854 943.754,-195.259 847.554,-215.936"/>
<polygon fill="black" stroke="black" points="837.664,-218.074 846.488,-211.563 842.551,-217.017 847.438,-215.961 847.438,-215.961 847.438,-215.961 842.551,-217.017 848.389,-220.359 837.664,-218.074 837.664,-218.074"/>
</g>
<!-- 15 -->
<g id="node16" class="node"><title>15</title>
<polygon fill="none" stroke="black" points="1618.5,-252 1527.5,-252 1527.5,-216 1618.5,-216 1618.5,-252"/>
<text text-anchor="middle" x="1573" y="-230.3" font-family="Times,serif" font-size="14.00">Policies.Aggr</text>
</g>
<!-- 13&#45;&gt;15 -->
<g id="edge19" class="edge"><title>13&#45;&gt;15</title>
<path fill="none" stroke="black" d="M1153.95,-165.32C1218.64,-170.692 1376.25,-185.735 1517.12,-216.024"/>
<polygon fill="black" stroke="black" points="1527.24,-218.232 1516.51,-220.496 1522.35,-217.165 1517.47,-216.099 1517.47,-216.099 1517.47,-216.099 1522.35,-217.165 1518.43,-211.703 1527.24,-218.232 1527.24,-218.232"/>
</g>
<!-- 16 -->
<g id="node17" class="node"><title>16</title>
<polygon fill="none" stroke="black" points="980,-252 856,-252 856,-216 980,-216 980,-252"/>
<text text-anchor="middle" x="918" y="-230.3" font-family="Times,serif" font-size="14.00">Policies.BayesUCB</text>
</g>
<!-- 13&#45;&gt;16 -->
<g id="edge20" class="edge"><title>13&#45;&gt;16</title>
<path fill="none" stroke="black" d="M1094.49,-173.029C1064.13,-183.345 1016,-199.699 977.664,-212.726"/>
<polygon fill="black" stroke="black" points="968.146,-215.96 976.167,-208.482 972.88,-214.351 977.615,-212.743 977.615,-212.743 977.615,-212.743 972.88,-214.351 979.062,-217.003 968.146,-215.96 968.146,-215.96"/>
</g>
<!-- 18 -->
<g id="node19" class="node"><title>18</title>
<polygon fill="none" stroke="black" points="1745.5,-252 1636.5,-252 1636.5,-216 1745.5,-216 1745.5,-252"/>
<text text-anchor="middle" x="1691" y="-230.3" font-family="Times,serif" font-size="14.00">Policies.Dummy</text>
</g>
<!-- 13&#45;&gt;18 -->
<g id="edge21" class="edge"><title>13&#45;&gt;18</title>
<path fill="none" stroke="black" d="M1153.71,-164.523C1230.44,-168.795 1441.51,-182.705 1626.41,-216.069"/>
<polygon fill="black" stroke="black" points="1636.31,-217.878 1625.67,-220.507 1631.4,-216.979 1626.48,-216.08 1626.48,-216.08 1626.48,-216.08 1631.4,-216.979 1627.29,-211.653 1636.31,-217.878 1636.31,-217.878"/>
</g>
<!-- 19 -->
<g id="node20" class="node"><title>19</title>
<polygon fill="none" stroke="black" points="1928.5,-252 1763.5,-252 1763.5,-216 1928.5,-216 1928.5,-252"/>
<text text-anchor="middle" x="1846" y="-230.3" font-family="Times,serif" font-size="14.00">Policies.EpsilonDecreasing</text>
</g>
<!-- 13&#45;&gt;19 -->
<g id="edge22" class="edge"><title>13&#45;&gt;19</title>
<path fill="none" stroke="black" d="M1153.63,-164.45C1242.72,-169.03 1516.03,-184.689 1753.12,-215.964"/>
<polygon fill="black" stroke="black" points="1763.31,-217.322 1752.8,-220.462 1758.35,-216.662 1753.4,-216.002 1753.4,-216.002 1753.4,-216.002 1758.35,-216.662 1753.99,-211.541 1763.31,-217.322 1763.31,-217.322"/>
</g>
<!-- 20 -->
<g id="node21" class="node"><title>20</title>
<polygon fill="none" stroke="black" points="2075.5,-252 1946.5,-252 1946.5,-216 2075.5,-216 2075.5,-252"/>
<text text-anchor="middle" x="2011" y="-230.3" font-family="Times,serif" font-size="14.00">Policies.EpsilonFirst</text>
</g>
<!-- 13&#45;&gt;20 -->
<g id="edge23" class="edge"><title>13&#45;&gt;20</title>
<path fill="none" stroke="black" d="M1153.71,-163.218C1259.17,-164.351 1625.32,-171.359 1936.04,-216.011"/>
<polygon fill="black" stroke="black" points="1946.14,-217.479 1935.6,-220.494 1941.19,-216.76 1936.24,-216.041 1936.24,-216.041 1936.24,-216.041 1941.19,-216.76 1936.89,-211.588 1946.14,-217.479 1946.14,-217.479"/>
</g>
<!-- 21 -->
<g id="node22" class="node"><title>21</title>
<polygon fill="none" stroke="black" points="322,-252 178,-252 178,-216 322,-216 322,-252"/>
<text text-anchor="middle" x="250" y="-230.3" font-family="Times,serif" font-size="14.00">Policies.EpsilonGreedy</text>
</g>
<!-- 13&#45;&gt;21 -->
<g id="edge24" class="edge"><title>13&#45;&gt;21</title>
<path fill="none" stroke="black" d="M1094.21,-164.43C971.254,-170.417 502.207,-194.113 332.364,-215.958"/>
<polygon fill="black" stroke="black" points="322.336,-217.294 331.654,-211.513 327.292,-216.634 332.248,-215.973 332.248,-215.973 332.248,-215.973 327.292,-216.634 332.842,-220.434 322.336,-217.294 322.336,-217.294"/>
</g>
<!-- 23 -->
<g id="node24" class="node"><title>23</title>
<polygon fill="none" stroke="black" points="1509.5,-252 1376.5,-252 1376.5,-216 1509.5,-216 1509.5,-252"/>
<text text-anchor="middle" x="1443" y="-230.3" font-family="Times,serif" font-size="14.00">Policies.KLempUCB</text>
</g>
<!-- 13&#45;&gt;23 -->
<g id="edge25" class="edge"><title>13&#45;&gt;23</title>
<path fill="none" stroke="black" d="M1153.56,-169.395C1197.58,-178.927 1283.21,-197.517 1366.41,-215.875"/>
<polygon fill="black" stroke="black" points="1376.28,-218.054 1365.54,-220.292 1371.39,-216.976 1366.51,-215.898 1366.51,-215.898 1366.51,-215.898 1371.39,-216.976 1367.48,-211.504 1376.28,-218.054 1376.28,-218.054"/>
</g>
<!-- 24 -->
<g id="node25" class="node"><title>24</title>
<polygon fill="none" stroke="black" points="450,-252 340,-252 340,-216 450,-216 450,-252"/>
<text text-anchor="middle" x="395" y="-230.3" font-family="Times,serif" font-size="14.00">Policies.Softmax</text>
</g>
<!-- 13&#45;&gt;24 -->
<g id="edge26" class="edge"><title>13&#45;&gt;24</title>
<path fill="none" stroke="black" d="M1094.17,-164.66C984.541,-170.871 603.255,-193.456 460.296,-216.018"/>
<polygon fill="black" stroke="black" points="450.019,-217.712 459.154,-211.646 454.953,-216.899 459.886,-216.086 459.886,-216.086 459.886,-216.086 454.953,-216.899 460.618,-220.526 450.019,-217.712 450.019,-217.712"/>
</g>
<!-- 25 -->
<g id="node26" class="node"><title>25</title>
<polygon fill="none" stroke="black" points="1120,-252 998,-252 998,-216 1120,-216 1120,-252"/>
<text text-anchor="middle" x="1059" y="-230.3" font-family="Times,serif" font-size="14.00">Policies.Thompson</text>
</g>
<!-- 13&#45;&gt;25 -->
<g id="edge27" class="edge"><title>13&#45;&gt;25</title>
<path fill="none" stroke="black" d="M1107.93,-180.303C1100.06,-188.78 1090.44,-199.136 1081.83,-208.417"/>
<polygon fill="black" stroke="black" points="1074.88,-215.896 1078.39,-205.506 1078.28,-212.232 1081.69,-208.568 1081.69,-208.568 1081.69,-208.568 1078.28,-212.232 1084.98,-211.63 1074.88,-215.896 1074.88,-215.896"/>
</g>
<!-- 26 -->
<g id="node27" class="node"><title>26</title>
<polygon fill="none" stroke="black" points="559.5,-252 468.5,-252 468.5,-216 559.5,-216 559.5,-252"/>
<text text-anchor="middle" x="514" y="-230.3" font-family="Times,serif" font-size="14.00">Policies.UCB</text>
</g>
<!-- 13&#45;&gt;26 -->
<g id="edge28" class="edge"><title>13&#45;&gt;26</title>
<path fill="none" stroke="black" d="M1094.21,-163.707C1011.93,-166.11 774.701,-176.074 569.777,-216.105"/>
<polygon fill="black" stroke="black" points="559.735,-218.096 568.669,-211.737 564.64,-217.124 569.544,-216.151 569.544,-216.151 569.544,-216.151 564.64,-217.124 570.42,-220.565 559.735,-218.096 559.735,-218.096"/>
</g>
<!-- 27 -->
<g id="node28" class="node"><title>27</title>
<polygon fill="none" stroke="black" points="1239.5,-252 1138.5,-252 1138.5,-216 1239.5,-216 1239.5,-252"/>
<text text-anchor="middle" x="1189" y="-230.3" font-family="Times,serif" font-size="14.00">Policies.UCBV</text>
</g>
<!-- 13&#45;&gt;27 -->
<g id="edge29" class="edge"><title>13&#45;&gt;27</title>
<path fill="none" stroke="black" d="M1140.07,-180.303C1147.94,-188.78 1157.56,-199.136 1166.17,-208.417"/>
<polygon fill="black" stroke="black" points="1173.12,-215.896 1163.02,-211.63 1169.72,-212.232 1166.31,-208.568 1166.31,-208.568 1166.31,-208.568 1169.72,-212.232 1169.61,-205.506 1173.12,-215.896 1173.12,-215.896"/>
</g>
<!-- 28 -->
<g id="node29" class="node"><title>28</title>
<polygon fill="none" stroke="black" points="698,-252 578,-252 578,-216 698,-216 698,-252"/>
<text text-anchor="middle" x="638" y="-230.3" font-family="Times,serif" font-size="14.00">Policies.UCBalpha</text>
</g>
<!-- 13&#45;&gt;28 -->
<g id="edge30" class="edge"><title>13&#45;&gt;28</title>
<path fill="none" stroke="black" d="M1094.5,-165.572C1027.5,-171.662 858.673,-188.422 708.018,-215.928"/>
<polygon fill="black" stroke="black" points="698.122,-217.755 707.139,-211.514 703.039,-216.847 707.956,-215.939 707.956,-215.939 707.956,-215.939 703.039,-216.847 708.773,-220.364 698.122,-217.755 698.122,-217.755"/>
</g>
<!-- 29 -->
<g id="node30" class="node"><title>29</title>
<polygon fill="none" stroke="black" points="1358.5,-252 1257.5,-252 1257.5,-216 1358.5,-216 1358.5,-252"/>
<text text-anchor="middle" x="1308" y="-230.3" font-family="Times,serif" font-size="14.00">Policies.klUCB</text>
</g>
<!-- 13&#45;&gt;29 -->
<g id="edge31" class="edge"><title>13&#45;&gt;29</title>
<path fill="none" stroke="black" d="M1153.56,-174.247C1180.47,-184.483 1220.86,-199.851 1253.59,-212.302"/>
<polygon fill="black" stroke="black" points="1263.04,-215.896 1252.1,-216.546 1258.37,-214.118 1253.7,-212.341 1253.7,-212.341 1253.7,-212.341 1258.37,-214.118 1255.3,-208.135 1263.04,-215.896 1263.04,-215.896"/>
</g>
<!-- 17 -->
<g id="node18" class="node"><title>17</title>
<polygon fill="none" stroke="black" points="962,-324 874,-324 874,-288 962,-288 962,-324"/>
<text text-anchor="middle" x="918" y="-302.3" font-family="Times,serif" font-size="14.00">Policies.Beta</text>
</g>
<!-- 14&#45;&gt;17 -->
<g id="edge32" class="edge"><title>14&#45;&gt;17</title>
<path fill="none" stroke="black" d="M811.492,-252.124C830.44,-261.531 854.132,-273.292 874.356,-283.333"/>
<polygon fill="black" stroke="black" points="883.375,-287.81 872.417,-287.394 878.896,-285.587 874.418,-283.363 874.418,-283.363 874.418,-283.363 878.896,-285.587 876.419,-279.333 883.375,-287.81 883.375,-287.81"/>
</g>
<!-- 16&#45;&gt;17 -->
<g id="edge33" class="edge"><title>16&#45;&gt;17</title>
<path fill="none" stroke="black" d="M918,-252.303C918,-260.017 918,-269.288 918,-277.888"/>
<polygon fill="black" stroke="black" points="918,-287.896 913.5,-277.896 918,-282.896 918,-277.896 918,-277.896 918,-277.896 918,-282.896 922.5,-277.896 918,-287.896 918,-287.896"/>
</g>
<!-- 22 -->
<g id="node23" class="node"><title>22</title>
<polygon fill="none" stroke="black" points="1253,-324 1125,-324 1125,-288 1253,-288 1253,-324"/>
<text text-anchor="middle" x="1189" y="-302.3" font-family="Times,serif" font-size="14.00">Policies.IndexPolicy</text>
</g>
<!-- 16&#45;&gt;22 -->
<g id="edge34" class="edge"><title>16&#45;&gt;22</title>
<path fill="none" stroke="black" d="M980.173,-251.059C1020.33,-261.432 1072.78,-274.981 1115.08,-285.905"/>
<polygon fill="black" stroke="black" points="1124.76,-288.407 1113.95,-290.263 1119.92,-287.157 1115.08,-285.906 1115.08,-285.906 1115.08,-285.906 1119.92,-287.157 1116.21,-281.549 1124.76,-288.407 1124.76,-288.407"/>
</g>
<!-- 23&#45;&gt;22 -->
<g id="edge35" class="edge"><title>23&#45;&gt;22</title>
<path fill="none" stroke="black" d="M1381.19,-252.034C1344.93,-262.028 1298.94,-274.702 1261.04,-285.146"/>
<polygon fill="black" stroke="black" points="1251.09,-287.889 1259.53,-280.894 1255.91,-286.561 1260.73,-285.232 1260.73,-285.232 1260.73,-285.232 1255.91,-286.561 1261.92,-289.571 1251.09,-287.889 1251.09,-287.889"/>
</g>
<!-- 30 -->
<g id="node31" class="node"><title>30</title>
<polygon fill="none" stroke="black" points="1439,-324 1329,-324 1329,-288 1439,-288 1439,-324"/>
<text text-anchor="middle" x="1384" y="-302.3" font-family="Times,serif" font-size="14.00">Policies.kullback</text>
</g>
<!-- 23&#45;&gt;30 -->
<g id="edge36" class="edge"><title>23&#45;&gt;30</title>
<path fill="none" stroke="black" d="M1428.42,-252.303C1421.34,-260.695 1412.72,-270.93 1404.95,-280.139"/>
<polygon fill="black" stroke="black" points="1398.42,-287.896 1401.42,-277.349 1401.64,-284.073 1404.86,-280.249 1404.86,-280.249 1404.86,-280.249 1401.64,-284.073 1408.3,-283.15 1398.42,-287.896 1398.42,-287.896"/>
</g>
<!-- 25&#45;&gt;17 -->
<g id="edge37" class="edge"><title>25&#45;&gt;17</title>
<path fill="none" stroke="black" d="M1024.51,-252.124C1005.56,-261.531 981.868,-273.292 961.644,-283.333"/>
<polygon fill="black" stroke="black" points="952.625,-287.81 959.581,-279.333 957.104,-285.587 961.582,-283.363 961.582,-283.363 961.582,-283.363 957.104,-285.587 963.583,-287.394 952.625,-287.81 952.625,-287.81"/>
</g>
<!-- 25&#45;&gt;22 -->
<g id="edge38" class="edge"><title>25&#45;&gt;22</title>
<path fill="none" stroke="black" d="M1090.8,-252.124C1108.11,-261.446 1129.72,-273.081 1148.26,-283.061"/>
<polygon fill="black" stroke="black" points="1157.08,-287.81 1146.14,-287.031 1152.67,-285.44 1148.27,-283.069 1148.27,-283.069 1148.27,-283.069 1152.67,-285.44 1150.4,-279.107 1157.08,-287.81 1157.08,-287.81"/>
</g>
<!-- 27&#45;&gt;22 -->
<g id="edge39" class="edge"><title>27&#45;&gt;22</title>
<path fill="none" stroke="black" d="M1189,-252.303C1189,-260.017 1189,-269.288 1189,-277.888"/>
<polygon fill="black" stroke="black" points="1189,-287.896 1184.5,-277.896 1189,-282.896 1189,-277.896 1189,-277.896 1189,-277.896 1189,-282.896 1193.5,-277.896 1189,-287.896 1189,-287.896"/>
</g>
<!-- 29&#45;&gt;22 -->
<g id="edge40" class="edge"><title>29&#45;&gt;22</title>
<path fill="none" stroke="black" d="M1278.89,-252.124C1263.33,-261.276 1243.98,-272.658 1227.22,-282.515"/>
<polygon fill="black" stroke="black" points="1218.22,-287.81 1224.56,-278.861 1222.53,-285.275 1226.84,-282.74 1226.84,-282.74 1226.84,-282.74 1222.53,-285.275 1229.12,-286.619 1218.22,-287.81 1218.22,-287.81"/>
</g>
<!-- 29&#45;&gt;30 -->
<g id="edge41" class="edge"><title>29&#45;&gt;30</title>
<path fill="none" stroke="black" d="M1326.79,-252.303C1336.17,-260.95 1347.68,-271.551 1357.91,-280.973"/>
<polygon fill="black" stroke="black" points="1365.43,-287.896 1355.03,-284.431 1361.75,-284.508 1358.07,-281.121 1358.07,-281.121 1358.07,-281.121 1361.75,-284.508 1361.12,-277.811 1365.43,-287.896 1365.43,-287.896"/>
</g>
<!-- 31 -->
<g id="node32" class="node"><title>31</title>
<polygon fill="none" stroke="black" points="3058,-180 2928,-180 2928,-144 3058,-144 3058,-180"/>
<text text-anchor="middle" x="2993" y="-158.3" font-family="Times,serif" font-size="14.00">PoliciesMultiPlayers</text>
</g>
<!-- 34 -->
<g id="node35" class="node"><title>34</title>
<polygon fill="none" stroke="black" points="2974.5,-252 2795.5,-252 2795.5,-216 2974.5,-216 2974.5,-252"/>
<text text-anchor="middle" x="2885" y="-230.3" font-family="Times,serif" font-size="14.00">PoliciesMultiPlayers.Dummy</text>
</g>
<!-- 31&#45;&gt;34 -->
<g id="edge42" class="edge"><title>31&#45;&gt;34</title>
<path fill="none" stroke="black" d="M2966.58,-180.124C2952.59,-189.192 2935.22,-200.448 2920.11,-210.241"/>
<polygon fill="black" stroke="black" points="2911.52,-215.81 2917.47,-206.595 2915.72,-213.091 2919.91,-210.371 2919.91,-210.371 2919.91,-210.371 2915.72,-213.091 2922.36,-214.147 2911.52,-215.81 2911.52,-215.81"/>
</g>
<!-- 39 -->
<g id="node40" class="node"><title>39</title>
<polygon fill="none" stroke="black" points="3209.5,-252 2992.5,-252 2992.5,-216 3209.5,-216 3209.5,-252"/>
<text text-anchor="middle" x="3101" y="-230.3" font-family="Times,serif" font-size="14.00">PoliciesMultiPlayers.TakeFixedArm</text>
</g>
<!-- 31&#45;&gt;39 -->
<g id="edge43" class="edge"><title>31&#45;&gt;39</title>
<path fill="none" stroke="black" d="M3019.42,-180.124C3033.41,-189.192 3050.78,-200.448 3065.89,-210.241"/>
<polygon fill="black" stroke="black" points="3074.48,-215.81 3063.64,-214.147 3070.28,-213.091 3066.09,-210.371 3066.09,-210.371 3066.09,-210.371 3070.28,-213.091 3068.53,-206.595 3074.48,-215.81 3074.48,-215.81"/>
</g>
<!-- 40 -->
<g id="node41" class="node"><title>40</title>
<polygon fill="none" stroke="black" points="3456.5,-252 3227.5,-252 3227.5,-216 3456.5,-216 3456.5,-252"/>
<text text-anchor="middle" x="3342" y="-230.3" font-family="Times,serif" font-size="14.00">PoliciesMultiPlayers.UniformOnSome</text>
</g>
<!-- 31&#45;&gt;40 -->
<g id="edge44" class="edge"><title>31&#45;&gt;40</title>
<path fill="none" stroke="black" d="M3058.23,-176.084C3111.4,-186.749 3187.22,-201.955 3247.11,-213.968"/>
<polygon fill="black" stroke="black" points="3256.96,-215.943 3246.27,-218.388 3252.06,-214.96 3247.15,-213.976 3247.15,-213.976 3247.15,-213.976 3252.06,-214.96 3248.04,-209.564 3256.96,-215.943 3256.96,-215.943"/>
</g>
<!-- 32 -->
<g id="node33" class="node"><title>32</title>
<polygon fill="none" stroke="black" points="2630,-36 2434,-36 2434,-0 2630,-0 2630,-36"/>
<text text-anchor="middle" x="2532" y="-14.3" font-family="Times,serif" font-size="14.00">PoliciesMultiPlayers.Centralized</text>
</g>
<!-- 33 -->
<g id="node34" class="node"><title>33</title>
<polygon fill="none" stroke="black" points="2857.5,-36 2648.5,-36 2648.5,-0 2857.5,-0 2857.5,-36"/>
<text text-anchor="middle" x="2753" y="-14.3" font-family="Times,serif" font-size="14.00">PoliciesMultiPlayers.Decentralized</text>
</g>
<!-- 35 -->
<g id="node36" class="node"><title>35</title>
<polygon fill="none" stroke="black" points="3050,-36 2876,-36 2876,-0 3050,-0 3050,-36"/>
<text text-anchor="middle" x="2963" y="-14.3" font-family="Times,serif" font-size="14.00">PoliciesMultiPlayers.MEGA</text>
</g>
<!-- 36 -->
<g id="node37" class="node"><title>36</title>
<polygon fill="none" stroke="black" points="3253.5,-36 3068.5,-36 3068.5,-0 3253.5,-0 3253.5,-36"/>
<text text-anchor="middle" x="3161" y="-14.3" font-family="Times,serif" font-size="14.00">PoliciesMultiPlayers.RhoRand</text>
</g>
<!-- 37 -->
<g id="node38" class="node"><title>37</title>
<polygon fill="none" stroke="black" points="3442.5,-36 3271.5,-36 3271.5,-0 3442.5,-0 3442.5,-36"/>
<text text-anchor="middle" x="3357" y="-14.3" font-family="Times,serif" font-size="14.00">PoliciesMultiPlayers.Selfish</text>
</g>
<!-- 38 -->
<g id="node39" class="node"><title>38</title>
<polygon fill="none" stroke="black" points="3627.5,-36 3460.5,-36 3460.5,-0 3627.5,-0 3627.5,-36"/>
<text text-anchor="middle" x="3544" y="-14.3" font-family="Times,serif" font-size="14.00">PoliciesMultiPlayers.TDFS</text>
</g>
<!-- 41 -->
<g id="node42" class="node"><title>41</title>
<polygon fill="none" stroke="black" points="1168.5,-108 1079.5,-108 1079.5,-72 1168.5,-72 1168.5,-108"/>
<text text-anchor="middle" x="1124" y="-86.3" font-family="Times,serif" font-size="14.00">configuration</text>
</g>
<!-- 41&#45;&gt;2 -->
<g id="edge45" class="edge"><title>41&#45;&gt;2</title>
<path fill="none" stroke="black" d="M1079.5,-98.6915C1006.81,-111.255 862.478,-136.201 780.199,-150.422"/>
<polygon fill="black" stroke="black" points="770.237,-152.144 779.324,-146.007 775.164,-151.293 780.091,-150.441 780.091,-150.441 780.091,-150.441 775.164,-151.293 780.857,-154.875 770.237,-152.144 770.237,-152.144"/>
</g>
<!-- 41&#45;&gt;13 -->
<g id="edge46" class="edge"><title>41&#45;&gt;13</title>
<path fill="none" stroke="black" d="M1124,-108.303C1124,-116.017 1124,-125.288 1124,-133.888"/>
<polygon fill="black" stroke="black" points="1124,-143.896 1119.5,-133.896 1124,-138.896 1124,-133.896 1124,-133.896 1124,-133.896 1124,-138.896 1128.5,-133.896 1124,-143.896 1124,-143.896"/>
</g>
<!-- 42 -->
<g id="node43" class="node"><title>42</title>
<polygon fill="none" stroke="black" points="2438,-108 2274,-108 2274,-72 2438,-72 2438,-108"/>
<text text-anchor="middle" x="2356" y="-86.3" font-family="Times,serif" font-size="14.00">configuration_multiplayers</text>
</g>
<!-- 42&#45;&gt;2 -->
<g id="edge47" class="edge"><title>42&#45;&gt;2</title>
<path fill="none" stroke="black" d="M2273.74,-106.954C2270.8,-107.338 2267.88,-107.689 2265,-108 1743.35,-164.343 1609.3,-123.827 1085,-144 977.918,-148.12 853.274,-154.179 780.553,-157.842"/>
<polygon fill="black" stroke="black" points="770.209,-158.364 779.969,-153.365 775.203,-158.112 780.196,-157.859 780.196,-157.859 780.196,-157.859 775.203,-158.112 780.423,-162.354 770.209,-158.364 770.209,-158.364"/>
</g>
<!-- 42&#45;&gt;31 -->
<g id="edge48" class="edge"><title>42&#45;&gt;31</title>
<path fill="none" stroke="black" d="M2438.3,-100.044C2562.81,-113.726 2797.27,-139.492 2917.59,-152.713"/>
<polygon fill="black" stroke="black" points="2927.81,-153.836 2917.38,-157.217 2922.84,-153.29 2917.87,-152.744 2917.87,-152.744 2917.87,-152.744 2922.84,-153.29 2918.36,-148.271 2927.81,-153.836 2927.81,-153.836"/>
</g>
<!-- 43 -->
<g id="node44" class="node"><title>43</title>
<polygon fill="none" stroke="black" points="2167,-36 2113,-36 2113,-0 2167,-0 2167,-36"/>
<text text-anchor="middle" x="2140" y="-14.3" font-family="Times,serif" font-size="14.00">main</text>
</g>
<!-- 43&#45;&gt;6 -->
<g id="edge49" class="edge"><title>43&#45;&gt;6</title>
<path fill="none" stroke="black" d="M2157.8,-36.3034C2166.6,-44.865 2177.38,-55.3438 2187,-64.6955"/>
<polygon fill="black" stroke="black" points="2194.41,-71.8957 2184.1,-68.1513 2190.82,-68.4103 2187.24,-64.9249 2187.24,-64.9249 2187.24,-64.9249 2190.82,-68.4103 2190.37,-61.6984 2194.41,-71.8957 2194.41,-71.8957"/>
</g>
<!-- 43&#45;&gt;8 -->
<g id="edge50" class="edge"><title>43&#45;&gt;8</title>
<path fill="none" stroke="black" d="M2141.17,-36.213C2142.98,-54.7629 2147.56,-84.7493 2159,-108 2164.01,-118.178 2171.4,-128.025 2178.76,-136.413"/>
<polygon fill="black" stroke="black" points="2185.71,-143.971 2175.63,-139.663 2182.33,-140.293 2178.94,-136.615 2178.94,-136.615 2178.94,-136.615 2182.33,-140.293 2182.25,-133.566 2185.71,-143.971 2185.71,-143.971"/>
</g>
<!-- 43&#45;&gt;41 -->
<g id="edge51" class="edge"><title>43&#45;&gt;41</title>
<path fill="none" stroke="black" d="M2112.82,-20.8723C1976.47,-30.2667 1366.03,-72.3244 1178.79,-85.2252"/>
<polygon fill="black" stroke="black" points="1168.63,-85.9252 1178.3,-80.7484 1173.62,-85.5815 1178.61,-85.2377 1178.61,-85.2377 1178.61,-85.2377 1173.62,-85.5815 1178.91,-89.7271 1168.63,-85.9252 1168.63,-85.9252"/>
</g>
<!-- 44 -->
<g id="node45" class="node"><title>44</title>
<polygon fill="none" stroke="black" points="2415.5,-36 2296.5,-36 2296.5,-0 2415.5,-0 2415.5,-36"/>
<text text-anchor="middle" x="2356" y="-14.3" font-family="Times,serif" font-size="14.00">main_multiplayers</text>
</g>
<!-- 44&#45;&gt;6 -->
<g id="edge52" class="edge"><title>44&#45;&gt;6</title>
<path fill="none" stroke="black" d="M2320.77,-36.1239C2301.42,-45.5307 2277.23,-57.2923 2256.57,-67.3328"/>
<polygon fill="black" stroke="black" points="2247.36,-71.8102 2254.39,-63.3911 2251.86,-69.6243 2256.36,-67.4383 2256.36,-67.4383 2256.36,-67.4383 2251.86,-69.6243 2258.32,-71.4854 2247.36,-71.8102 2247.36,-71.8102"/>
</g>
<!-- 44&#45;&gt;9 -->
<g id="edge53" class="edge"><title>44&#45;&gt;9</title>
<path fill="none" stroke="black" d="M2401.41,-36.0993C2418.08,-44.5206 2435.63,-56.3049 2447,-72 2460,-89.9463 2464.46,-114.942 2465.83,-133.877"/>
<polygon fill="black" stroke="black" points="2466.32,-143.957 2461.34,-134.186 2466.08,-138.963 2465.84,-133.968 2465.84,-133.968 2465.84,-133.968 2466.08,-138.963 2470.33,-133.751 2466.32,-143.957 2466.32,-143.957"/>
</g>
<!-- 44&#45;&gt;42 -->
<g id="edge54" class="edge"><title>44&#45;&gt;42</title>
<path fill="none" stroke="black" d="M2356,-36.3034C2356,-44.0173 2356,-53.2875 2356,-61.8876"/>
<polygon fill="black" stroke="black" points="2356,-71.8957 2351.5,-61.8956 2356,-66.8957 2356,-61.8957 2356,-61.8957 2356,-61.8957 2356,-66.8957 2360.5,-61.8957 2356,-71.8957 2356,-71.8957"/>
</g>
</g>
</svg>
