<?xml version="1.0" encoding="UTF-8" standalone="no"?>
<!DOCTYPE svg PUBLIC "-//W3C//DTD SVG 1.1//EN"
 "http://www.w3.org/Graphics/SVG/1.1/DTD/svg11.dtd">
<!-- Generated by graphviz version 2.40.1 (20161225.0304)
 -->
<!-- Title: packages_SMPyBandits.Arms Pages: 1 -->
<svg width="2042pt" height="188pt"
 viewBox="0.00 0.00 2042.00 188.00" xmlns="http://www.w3.org/2000/svg" xmlns:xlink="http://www.w3.org/1999/xlink">
<g id="graph0" class="graph" transform="scale(1 1) rotate(0) translate(4 184)">
<title>packages_SMPyBandits.Arms</title>
<polygon fill="#ffffff" stroke="transparent" points="-4,4 -4,-184 2038,-184 2038,4 -4,4"/>
<!-- 0 -->
<g id="node1" class="node">
<title>0</title>
<polygon fill="none" stroke="#000000" points="978.5,-36 851.5,-36 851.5,0 978.5,0 978.5,-36"/>
<text text-anchor="middle" x="915" y="-14.3" font-family="Times,serif" font-size="14.00" fill="#000000">SMPyBandits.Arms</text>
</g>
<!-- 2 -->
<g id="node3" class="node">
<title>2</title>
<polygon fill="none" stroke="#000000" points="182,-108 0,-108 0,-72 182,-72 182,-108"/>
<text text-anchor="middle" x="91" y="-86.3" font-family="Times,serif" font-size="14.00" fill="#000000">SMPyBandits.Arms.Bernoulli</text>
</g>
<!-- 0&#45;&gt;2 -->
<g id="edge1" class="edge">
<title>0&#45;&gt;2</title>
<path fill="none" stroke="#000000" d="M851.3449,-20.5279C726.6918,-25.9614 441.5382,-40.7688 192.1992,-71.9199"/>
<polygon fill="#000000" stroke="#000000" points="182.2256,-73.1772 191.5842,-67.4617 187.1863,-72.5518 192.1471,-71.9264 192.1471,-71.9264 192.1471,-71.9264 187.1863,-72.5518 192.7099,-76.391 182.2256,-73.1772 182.2256,-73.1772"/>
</g>
<!-- 3 -->
<g id="node4" class="node">
<title>3</title>
<polygon fill="none" stroke="#000000" points="382,-108 200,-108 200,-72 382,-72 382,-108"/>
<text text-anchor="middle" x="291" y="-86.3" font-family="Times,serif" font-size="14.00" fill="#000000">SMPyBandits.Arms.Binomial</text>
</g>
<!-- 0&#45;&gt;3 -->
<g id="edge2" class="edge">
<title>0&#45;&gt;3</title>
<path fill="none" stroke="#000000" d="M851.4944,-22.989C754.6174,-30.9433 563.9268,-47.9493 392.2176,-71.8825"/>
<polygon fill="#000000" stroke="#000000" points="382.2399,-73.2841 391.5167,-67.4367 387.1913,-72.5885 392.1427,-71.8929 392.1427,-71.8929 392.1427,-71.8929 387.1913,-72.5885 392.7687,-76.3492 382.2399,-73.2841 382.2399,-73.2841"/>
</g>
<!-- 4 -->
<g id="node5" class="node">
<title>4</title>
<polygon fill="none" stroke="#000000" points="579.5,-108 400.5,-108 400.5,-72 579.5,-72 579.5,-108"/>
<text text-anchor="middle" x="490" y="-86.3" font-family="Times,serif" font-size="14.00" fill="#000000">SMPyBandits.Arms.Constant</text>
</g>
<!-- 0&#45;&gt;4 -->
<g id="edge3" class="edge">
<title>0&#45;&gt;4</title>
<path fill="none" stroke="#000000" d="M851.3377,-28.1655C787.5873,-38.4238 686.3978,-54.9197 589.6596,-71.7237"/>
<polygon fill="#000000" stroke="#000000" points="579.7101,-73.4559 588.7901,-67.3073 584.636,-72.5983 589.5619,-71.7407 589.5619,-71.7407 589.5619,-71.7407 584.636,-72.5983 590.3338,-76.174 579.7101,-73.4559 579.7101,-73.4559"/>
</g>
<!-- 5 -->
<g id="node6" class="node">
<title>5</title>
<polygon fill="none" stroke="#000000" points="798.5,-108 597.5,-108 597.5,-72 798.5,-72 798.5,-108"/>
<text text-anchor="middle" x="698" y="-86.3" font-family="Times,serif" font-size="14.00" fill="#000000">SMPyBandits.Arms.DiscreteArm</text>
</g>
<!-- 0&#45;&gt;5 -->
<g id="edge4" class="edge">
<title>0&#45;&gt;5</title>
<path fill="none" stroke="#000000" d="M860.5218,-36.0757C830.5987,-46.0041 793.3157,-58.3745 762.0096,-68.7618"/>
<polygon fill="#000000" stroke="#000000" points="752.5006,-71.9169 760.5746,-64.4966 757.2462,-70.3422 761.9918,-68.7676 761.9918,-68.7676 761.9918,-68.7676 757.2462,-70.3422 763.4089,-73.0387 752.5006,-71.9169 752.5006,-71.9169"/>
</g>
<!-- 6 -->
<g id="node7" class="node">
<title>6</title>
<polygon fill="none" stroke="#000000" points="1013,-108 817,-108 817,-72 1013,-72 1013,-108"/>
<text text-anchor="middle" x="915" y="-86.3" font-family="Times,serif" font-size="14.00" fill="#000000">SMPyBandits.Arms.Exponential</text>
</g>
<!-- 0&#45;&gt;6 -->
<g id="edge5" class="edge">
<title>0&#45;&gt;6</title>
<path fill="none" stroke="#000000" d="M915,-36.1686C915,-43.869 915,-53.0257 915,-61.5834"/>
<polygon fill="#000000" stroke="#000000" points="915,-71.5867 910.5001,-61.5867 915,-66.5867 915.0001,-61.5867 915.0001,-61.5867 915.0001,-61.5867 915,-66.5867 919.5001,-61.5868 915,-71.5867 915,-71.5867"/>
</g>
<!-- 7 -->
<g id="node8" class="node">
<title>7</title>
<polygon fill="none" stroke="#000000" points="1206.5,-108 1031.5,-108 1031.5,-72 1206.5,-72 1206.5,-108"/>
<text text-anchor="middle" x="1119" y="-86.3" font-family="Times,serif" font-size="14.00" fill="#000000">SMPyBandits.Arms.Gamma</text>
</g>
<!-- 0&#45;&gt;7 -->
<g id="edge6" class="edge">
<title>0&#45;&gt;7</title>
<path fill="none" stroke="#000000" d="M966.2145,-36.0757C994.1025,-45.9185 1028.7906,-58.1614 1058.0627,-68.4927"/>
<polygon fill="#000000" stroke="#000000" points="1067.7644,-71.9169 1056.8368,-72.8321 1063.0495,-70.2527 1058.3345,-68.5886 1058.3345,-68.5886 1058.3345,-68.5886 1063.0495,-70.2527 1059.8322,-64.3451 1067.7644,-71.9169 1067.7644,-71.9169"/>
</g>
<!-- 8 -->
<g id="node9" class="node">
<title>8</title>
<polygon fill="none" stroke="#000000" points="1405,-108 1225,-108 1225,-72 1405,-72 1405,-108"/>
<text text-anchor="middle" x="1315" y="-86.3" font-family="Times,serif" font-size="14.00" fill="#000000">SMPyBandits.Arms.Gaussian</text>
</g>
<!-- 0&#45;&gt;8 -->
<g id="edge7" class="edge">
<title>0&#45;&gt;8</title>
<path fill="none" stroke="#000000" d="M978.8235,-29.4882C1042.3374,-40.9207 1140.745,-58.6341 1214.7067,-71.9472"/>
<polygon fill="#000000" stroke="#000000" points="1224.9746,-73.7954 1214.3356,-76.4527 1220.0537,-72.9096 1215.1328,-72.0238 1215.1328,-72.0238 1215.1328,-72.0238 1220.0537,-72.9096 1215.93,-67.595 1224.9746,-73.7954 1224.9746,-73.7954"/>
</g>
<!-- 9 -->
<g id="node10" class="node">
<title>9</title>
<polygon fill="none" stroke="#000000" points="1596.5,-108 1423.5,-108 1423.5,-72 1596.5,-72 1596.5,-108"/>
<text text-anchor="middle" x="1510" y="-86.3" font-family="Times,serif" font-size="14.00" fill="#000000">SMPyBandits.Arms.Poisson</text>
</g>
<!-- 0&#45;&gt;9 -->
<g id="edge8" class="edge">
<title>0&#45;&gt;9</title>
<path fill="none" stroke="#000000" d="M978.6109,-23.2918C1071.6923,-31.3877 1250.6557,-48.2857 1413.2542,-71.9558"/>
<polygon fill="#000000" stroke="#000000" points="1423.4448,-73.4514 1412.8974,-76.4515 1418.4978,-72.7253 1413.5508,-71.9992 1413.5508,-71.9992 1413.5508,-71.9992 1418.4978,-72.7253 1414.2043,-67.5469 1423.4448,-73.4514 1423.4448,-73.4514"/>
</g>
<!-- 10 -->
<g id="node11" class="node">
<title>10</title>
<polygon fill="none" stroke="#000000" points="1817.5,-108 1614.5,-108 1614.5,-72 1817.5,-72 1817.5,-108"/>
<text text-anchor="middle" x="1716" y="-86.3" font-family="Times,serif" font-size="14.00" fill="#000000">SMPyBandits.Arms.UniformArm</text>
</g>
<!-- 0&#45;&gt;10 -->
<g id="edge9" class="edge">
<title>0&#45;&gt;10</title>
<path fill="none" stroke="#000000" d="M978.91,-21.2322C1099.1921,-27.7016 1367.6024,-43.9711 1604.247,-71.9697"/>
<polygon fill="#000000" stroke="#000000" points="1614.424,-73.1835 1603.9614,-76.4675 1609.4592,-72.5913 1604.4944,-71.9991 1604.4944,-71.9991 1604.4944,-71.9991 1609.4592,-72.5913 1605.0273,-67.5308 1614.424,-73.1835 1614.424,-73.1835"/>
</g>
<!-- 1 -->
<g id="node2" class="node">
<title>1</title>
<polygon fill="none" stroke="#000000" points="993,-180 837,-180 837,-144 993,-144 993,-180"/>
<text text-anchor="middle" x="915" y="-158.3" font-family="Times,serif" font-size="14.00" fill="#000000">SMPyBandits.Arms.Arm</text>
</g>
<!-- 2&#45;&gt;1 -->
<g id="edge10" class="edge">
<title>2&#45;&gt;1</title>
<path fill="none" stroke="#000000" d="M182.2256,-106.8228C185.1819,-107.2394 188.1126,-107.6335 191,-108 419.2688,-136.9778 690.1496,-152.0873 826.7872,-158.3718"/>
<polygon fill="#000000" stroke="#000000" points="836.7903,-158.8271 826.5959,-162.8676 831.7954,-158.5997 826.8006,-158.3723 826.8006,-158.3723 826.8006,-158.3723 831.7954,-158.5997 827.0053,-153.8769 836.7903,-158.8271 836.7903,-158.8271"/>
</g>
<!-- 3&#45;&gt;1 -->
<g id="edge11" class="edge">
<title>3&#45;&gt;1</title>
<path fill="none" stroke="#000000" d="M382.2399,-106.7159C385.1921,-107.1632 388.118,-107.5927 391,-108 543.4866,-129.5497 722.0907,-146.114 826.4752,-154.9274"/>
<polygon fill="#000000" stroke="#000000" points="836.6526,-155.782 826.3111,-159.4294 831.6701,-155.3636 826.6876,-154.9451 826.6876,-154.9451 826.6876,-154.9451 831.6701,-155.3636 827.0642,-150.4609 836.6526,-155.782 836.6526,-155.782"/>
</g>
<!-- 4&#45;&gt;1 -->
<g id="edge12" class="edge">
<title>4&#45;&gt;1</title>
<path fill="none" stroke="#000000" d="M579.7101,-106.5441C582.5048,-107.0381 585.2734,-107.5245 588,-108 668.8747,-122.1038 761.1727,-137.2599 827.0402,-147.9145"/>
<polygon fill="#000000" stroke="#000000" points="836.97,-149.519 826.3802,-152.3661 832.034,-148.7214 827.098,-147.9237 827.098,-147.9237 827.098,-147.9237 832.034,-148.7214 827.8159,-143.4814 836.97,-149.519 836.97,-149.519"/>
</g>
<!-- 5&#45;&gt;1 -->
<g id="edge13" class="edge">
<title>5&#45;&gt;1</title>
<path fill="none" stroke="#000000" d="M752.4782,-108.0757C782.4013,-118.0041 819.6843,-130.3745 850.9904,-140.7618"/>
<polygon fill="#000000" stroke="#000000" points="860.4994,-143.9169 849.5911,-145.0387 855.7538,-142.3422 851.0082,-140.7676 851.0082,-140.7676 851.0082,-140.7676 855.7538,-142.3422 852.4254,-136.4966 860.4994,-143.9169 860.4994,-143.9169"/>
</g>
<!-- 6&#45;&gt;1 -->
<g id="edge14" class="edge">
<title>6&#45;&gt;1</title>
<path fill="none" stroke="#000000" d="M915,-108.1686C915,-115.869 915,-125.0257 915,-133.5834"/>
<polygon fill="#000000" stroke="#000000" points="915,-143.5867 910.5001,-133.5867 915,-138.5867 915.0001,-133.5867 915.0001,-133.5867 915.0001,-133.5867 915,-138.5867 919.5001,-133.5868 915,-143.5867 915,-143.5867"/>
</g>
<!-- 7&#45;&gt;1 -->
<g id="edge15" class="edge">
<title>7&#45;&gt;1</title>
<path fill="none" stroke="#000000" d="M1067.7855,-108.0757C1039.8975,-117.9185 1005.2094,-130.1614 975.9373,-140.4927"/>
<polygon fill="#000000" stroke="#000000" points="966.2356,-143.9169 974.1678,-136.3451 970.9505,-142.2527 975.6655,-140.5886 975.6655,-140.5886 975.6655,-140.5886 970.9505,-142.2527 977.1632,-144.8321 966.2356,-143.9169 966.2356,-143.9169"/>
</g>
<!-- 8&#45;&gt;1 -->
<g id="edge16" class="edge">
<title>8&#45;&gt;1</title>
<path fill="none" stroke="#000000" d="M1224.7334,-106.248C1158.4344,-118.1818 1068.8341,-134.3099 1003.0599,-146.1492"/>
<polygon fill="#000000" stroke="#000000" points="993.1252,-147.9375 1002.1698,-141.737 998.0461,-147.0517 1002.967,-146.1659 1002.967,-146.1659 1002.967,-146.1659 998.0461,-147.0517 1003.7642,-150.5947 993.1252,-147.9375 993.1252,-147.9375"/>
</g>
<!-- 9&#45;&gt;1 -->
<g id="edge17" class="edge">
<title>9&#45;&gt;1</title>
<path fill="none" stroke="#000000" d="M1423.4448,-106.5486C1420.2597,-107.0559 1417.1034,-107.5418 1414,-108 1270.6532,-129.1625 1102.9865,-145.6167 1003.078,-154.55"/>
<polygon fill="#000000" stroke="#000000" points="993.0279,-155.4437 1002.59,-150.0756 998.0082,-155.0008 1002.9886,-154.5579 1002.9886,-154.5579 1002.9886,-154.5579 998.0082,-155.0008 1003.3872,-159.0402 993.0279,-155.4437 993.0279,-155.4437"/>
</g>
<!-- 10&#45;&gt;1 -->
<g id="edge18" class="edge">
<title>10&#45;&gt;1</title>
<path fill="none" stroke="#000000" d="M1614.424,-106.8165C1611.2486,-107.2319 1608.1014,-107.6278 1605,-108 1389.4592,-133.8656 1134.485,-150.118 1003.0891,-157.4433"/>
<polygon fill="#000000" stroke="#000000" points="993.0742,-157.9977 1002.8102,-152.9518 998.0666,-157.7213 1003.0589,-157.4449 1003.0589,-157.4449 1003.0589,-157.4449 998.0666,-157.7213 1003.3077,-161.938 993.0742,-157.9977 993.0742,-157.9977"/>
</g>
<!-- 11 -->
<g id="node12" class="node">
<title>11</title>
<polygon fill="none" stroke="#000000" points="2029.5,-36 1840.5,-36 1840.5,0 2029.5,0 2029.5,-36"/>
<text text-anchor="middle" x="1935" y="-14.3" font-family="Times,serif" font-size="14.00" fill="#000000">SMPyBandits.Policies.kullback</text>
</g>
<!-- 12 -->
<g id="node13" class="node">
<title>12</title>
<polygon fill="none" stroke="#000000" points="2034,-108 1836,-108 1836,-72 2034,-72 2034,-108"/>
<text text-anchor="middle" x="1935" y="-86.3" font-family="Times,serif" font-size="14.00" fill="#000000">SMPyBandits.Policies.usenumba</text>
</g>
<!-- 11&#45;&gt;12 -->
<g id="edge19" class="edge">
<title>11&#45;&gt;12</title>
<path fill="none" stroke="#000000" d="M1935,-36.1686C1935,-43.869 1935,-53.0257 1935,-61.5834"/>
<polygon fill="#000000" stroke="#000000" points="1935,-71.5867 1930.5001,-61.5867 1935,-66.5867 1935.0001,-61.5867 1935.0001,-61.5867 1935.0001,-61.5867 1935,-66.5867 1939.5001,-61.5868 1935,-71.5867 1935,-71.5867"/>
</g>
</g>
</svg>
