<?xml version="1.0" encoding="UTF-8" standalone="no"?>
<!DOCTYPE svg PUBLIC "-//W3C//DTD SVG 1.1//EN"
 "http://www.w3.org/Graphics/SVG/1.1/DTD/svg11.dtd">
<!-- Generated by graphviz version 2.40.1 (20161225.0304)
 -->
<!-- Title: packages_SMPyBandits.Policies.Posterior Pages: 1 -->
<svg width="732pt" height="188pt"
 viewBox="0.00 0.00 732.00 188.00" xmlns="http://www.w3.org/2000/svg" xmlns:xlink="http://www.w3.org/1999/xlink">
<g id="graph0" class="graph" transform="scale(1 1) rotate(0) translate(4 184)">
<title>packages_SMPyBandits.Policies.Posterior</title>
<polygon fill="#ffffff" stroke="transparent" points="-4,4 -4,-184 728,-184 728,4 -4,4"/>
<!-- 0 -->
<g id="node1" class="node">
<title>0</title>
<polygon fill="none" stroke="#000000" points="453.5,-36 262.5,-36 262.5,0 453.5,0 453.5,-36"/>
<text text-anchor="middle" x="358" y="-14.3" font-family="Times,serif" font-size="14.00" fill="#000000">SMPyBandits.Policies.Posterior</text>
</g>
<!-- 1 -->
<g id="node2" class="node">
<title>1</title>
<polygon fill="none" stroke="#000000" points="220,-108 0,-108 0,-72 220,-72 220,-108"/>
<text text-anchor="middle" x="110" y="-86.3" font-family="Times,serif" font-size="14.00" fill="#000000">SMPyBandits.Policies.Posterior.Beta</text>
</g>
<!-- 0&#45;&gt;1 -->
<g id="edge1" class="edge">
<title>0&#45;&gt;1</title>
<path fill="none" stroke="#000000" d="M295.7392,-36.0757C261.2466,-46.0897 218.197,-58.588 182.2301,-69.03"/>
<polygon fill="#000000" stroke="#000000" points="172.2864,-71.9169 180.6352,-64.8071 177.0881,-70.5228 181.8898,-69.1287 181.8898,-69.1287 181.8898,-69.1287 177.0881,-70.5228 183.1445,-73.4502 172.2864,-71.9169 172.2864,-71.9169"/>
</g>
<!-- 2 -->
<g id="node3" class="node">
<title>2</title>
<polygon fill="none" stroke="#000000" points="477.5,-108 238.5,-108 238.5,-72 477.5,-72 477.5,-108"/>
<text text-anchor="middle" x="358" y="-86.3" font-family="Times,serif" font-size="14.00" fill="#000000">SMPyBandits.Policies.Posterior.Gamma</text>
</g>
<!-- 0&#45;&gt;2 -->
<g id="edge2" class="edge">
<title>0&#45;&gt;2</title>
<path fill="none" stroke="#000000" d="M358,-36.1686C358,-43.869 358,-53.0257 358,-61.5834"/>
<polygon fill="#000000" stroke="#000000" points="358,-71.5867 353.5001,-61.5867 358,-66.5867 358.0001,-61.5867 358.0001,-61.5867 358.0001,-61.5867 358,-66.5867 362.5001,-61.5868 358,-71.5867 358,-71.5867"/>
</g>
<!-- 3 -->
<g id="node4" class="node">
<title>3</title>
<polygon fill="none" stroke="#000000" points="724,-108 496,-108 496,-72 724,-72 724,-108"/>
<text text-anchor="middle" x="610" y="-86.3" font-family="Times,serif" font-size="14.00" fill="#000000">SMPyBandits.Policies.Posterior.Gauss</text>
</g>
<!-- 0&#45;&gt;3 -->
<g id="edge3" class="edge">
<title>0&#45;&gt;3</title>
<path fill="none" stroke="#000000" d="M421.265,-36.0757C456.4637,-46.1325 500.4319,-58.6948 537.0731,-69.1637"/>
<polygon fill="#000000" stroke="#000000" points="546.709,-71.9169 535.8575,-73.4964 541.9014,-70.5432 537.0938,-69.1696 537.0938,-69.1696 537.0938,-69.1696 541.9014,-70.5432 538.33,-64.8427 546.709,-71.9169 546.709,-71.9169"/>
</g>
<!-- 4 -->
<g id="node5" class="node">
<title>4</title>
<polygon fill="none" stroke="#000000" points="480,-180 236,-180 236,-144 480,-144 480,-180"/>
<text text-anchor="middle" x="358" y="-158.3" font-family="Times,serif" font-size="14.00" fill="#000000">SMPyBandits.Policies.Posterior.Posterior</text>
</g>
<!-- 1&#45;&gt;4 -->
<g id="edge4" class="edge">
<title>1&#45;&gt;4</title>
<path fill="none" stroke="#000000" d="M172.2608,-108.0757C206.7534,-118.0897 249.803,-130.588 285.7699,-141.03"/>
<polygon fill="#000000" stroke="#000000" points="295.7136,-143.9169 284.8555,-145.4502 290.9119,-142.5228 286.1102,-141.1287 286.1102,-141.1287 286.1102,-141.1287 290.9119,-142.5228 287.3648,-136.8071 295.7136,-143.9169 295.7136,-143.9169"/>
</g>
<!-- 2&#45;&gt;4 -->
<g id="edge5" class="edge">
<title>2&#45;&gt;4</title>
<path fill="none" stroke="#000000" d="M358,-108.1686C358,-115.869 358,-125.0257 358,-133.5834"/>
<polygon fill="#000000" stroke="#000000" points="358,-143.5867 353.5001,-133.5867 358,-138.5867 358.0001,-133.5867 358.0001,-133.5867 358.0001,-133.5867 358,-138.5867 362.5001,-133.5868 358,-143.5867 358,-143.5867"/>
</g>
<!-- 3&#45;&gt;4 -->
<g id="edge6" class="edge">
<title>3&#45;&gt;4</title>
<path fill="none" stroke="#000000" d="M546.735,-108.0757C511.5363,-118.1325 467.5681,-130.6948 430.9269,-141.1637"/>
<polygon fill="#000000" stroke="#000000" points="421.291,-143.9169 429.67,-136.8427 426.0986,-142.5432 430.9062,-141.1696 430.9062,-141.1696 430.9062,-141.1696 426.0986,-142.5432 432.1425,-145.4964 421.291,-143.9169 421.291,-143.9169"/>
</g>
<!-- 5 -->
<g id="node6" class="node">
<title>5</title>
<polygon fill="none" stroke="#000000" points="676,-36 472,-36 472,0 676,0 676,-36"/>
<text text-anchor="middle" x="574" y="-14.3" font-family="Times,serif" font-size="14.00" fill="#000000">SMPyBandits.Policies.with_proba</text>
</g>
</g>
</svg>
