<?xml version="1.0" encoding="UTF-8" standalone="no"?>
<!DOCTYPE svg PUBLIC "-//W3C//DTD SVG 1.1//EN"
 "http://www.w3.org/Graphics/SVG/1.1/DTD/svg11.dtd">
<!-- Generated by graphviz version 2.38.0 (20140413.2041)
 -->
<!-- Title: packages_AlgoBandits Pages: 1 -->
<svg width="5743pt" height="548pt"
 viewBox="0.00 0.00 5743.00 548.00" xmlns="http://www.w3.org/2000/svg" xmlns:xlink="http://www.w3.org/1999/xlink">
<g id="graph0" class="graph" transform="scale(1 1) rotate(0) translate(4 544)">
<title>packages_AlgoBandits</title>
<polygon fill="white" stroke="none" points="-4,4 -4,-544 5739,-544 5739,4 -4,4"/>
<!-- 0 -->
<g id="node1" class="node"><title>0</title>
<polygon fill="none" stroke="black" points="421.5,-180 367.5,-180 367.5,-144 421.5,-144 421.5,-180"/>
<text text-anchor="middle" x="394.5" y="-158.3" font-family="Times,serif" font-size="14.00">Arms</text>
</g>
<!-- 2 -->
<g id="node3" class="node"><title>2</title>
<polygon fill="none" stroke="black" points="449.5,-252 347.5,-252 347.5,-216 449.5,-216 449.5,-252"/>
<text text-anchor="middle" x="398.5" y="-230.3" font-family="Times,serif" font-size="14.00">Arms.Bernoulli</text>
</g>
<!-- 0&#45;&gt;2 -->
<g id="edge1" class="edge"><title>0&#45;&gt;2</title>
<path fill="none" stroke="black" d="M395.489,-180.303C395.93,-188.017 396.459,-197.288 396.951,-205.888"/>
<polygon fill="black" stroke="black" points="397.523,-215.896 392.459,-206.169 397.237,-210.904 396.952,-205.912 396.952,-205.912 396.952,-205.912 397.237,-210.904 401.445,-205.655 397.523,-215.896 397.523,-215.896"/>
</g>
<!-- 3 -->
<g id="node4" class="node"><title>3</title>
<polygon fill="none" stroke="black" points="583.5,-252 467.5,-252 467.5,-216 583.5,-216 583.5,-252"/>
<text text-anchor="middle" x="525.5" y="-230.3" font-family="Times,serif" font-size="14.00">Arms.Exponential</text>
</g>
<!-- 0&#45;&gt;3 -->
<g id="edge2" class="edge"><title>0&#45;&gt;3</title>
<path fill="none" stroke="black" d="M421.643,-177.504C439.71,-187.158 463.789,-200.025 484.213,-210.938"/>
<polygon fill="black" stroke="black" points="493.304,-215.796 482.364,-215.052 488.894,-213.44 484.485,-211.083 484.485,-211.083 484.485,-211.083 488.894,-213.44 486.605,-207.114 493.304,-215.796 493.304,-215.796"/>
</g>
<!-- 4 -->
<g id="node5" class="node"><title>4</title>
<polygon fill="none" stroke="black" points="101,-252 0,-252 0,-216 101,-216 101,-252"/>
<text text-anchor="middle" x="50.5" y="-230.3" font-family="Times,serif" font-size="14.00">Arms.Gaussian</text>
</g>
<!-- 0&#45;&gt;4 -->
<g id="edge3" class="edge"><title>0&#45;&gt;4</title>
<path fill="none" stroke="black" d="M367.06,-174.177C361.019,-176.345 354.601,-178.429 348.5,-180 247.935,-205.899 216.873,-194.119 110.927,-216.088"/>
<polygon fill="black" stroke="black" points="101.126,-218.171 109.972,-211.691 106.017,-217.132 110.908,-216.092 110.908,-216.092 110.908,-216.092 106.017,-217.132 111.843,-220.494 101.126,-218.171 101.126,-218.171"/>
</g>
<!-- 5 -->
<g id="node6" class="node"><title>5</title>
<polygon fill="none" stroke="black" points="329,-252 236,-252 236,-216 329,-216 329,-252"/>
<text text-anchor="middle" x="282.5" y="-230.3" font-family="Times,serif" font-size="14.00">Arms.Poisson</text>
</g>
<!-- 0&#45;&gt;5 -->
<g id="edge4" class="edge"><title>0&#45;&gt;5</title>
<path fill="none" stroke="black" d="M367.388,-179.945C352.639,-189.163 334.21,-200.681 318.294,-210.629"/>
<polygon fill="black" stroke="black" points="309.751,-215.968 315.846,-206.852 313.991,-213.318 318.231,-210.668 318.231,-210.668 318.231,-210.668 313.991,-213.318 320.616,-214.484 309.751,-215.968 309.751,-215.968"/>
</g>
<!-- 6 -->
<g id="node7" class="node"><title>6</title>
<polygon fill="none" stroke="black" points="217.5,-252 119.5,-252 119.5,-216 217.5,-216 217.5,-252"/>
<text text-anchor="middle" x="168.5" y="-230.3" font-family="Times,serif" font-size="14.00">Arms.Uniform</text>
</g>
<!-- 0&#45;&gt;6 -->
<g id="edge5" class="edge"><title>0&#45;&gt;6</title>
<path fill="none" stroke="black" d="M367.365,-173.374C361.191,-175.638 354.642,-177.963 348.5,-180 345.477,-181.002 278.948,-200.567 227.647,-215.635"/>
<polygon fill="black" stroke="black" points="217.939,-218.487 226.266,-211.351 222.737,-217.078 227.534,-215.669 227.534,-215.669 227.534,-215.669 222.737,-217.078 228.802,-219.986 217.939,-218.487 217.939,-218.487"/>
</g>
<!-- 1 -->
<g id="node2" class="node"><title>1</title>
<polygon fill="none" stroke="black" points="277,-324 200,-324 200,-288 277,-288 277,-324"/>
<text text-anchor="middle" x="238.5" y="-302.3" font-family="Times,serif" font-size="14.00">Arms.Arm</text>
</g>
<!-- 2&#45;&gt;1 -->
<g id="edge6" class="edge"><title>2&#45;&gt;1</title>
<path fill="none" stroke="black" d="M359.36,-252.124C337.405,-261.729 309.839,-273.789 286.579,-283.965"/>
<polygon fill="black" stroke="black" points="277.236,-288.053 284.594,-279.922 281.817,-286.049 286.398,-284.045 286.398,-284.045 286.398,-284.045 281.817,-286.049 288.202,-288.167 277.236,-288.053 277.236,-288.053"/>
</g>
<!-- 7 -->
<g id="node8" class="node"><title>7</title>
<polygon fill="none" stroke="black" points="393.5,-324 295.5,-324 295.5,-288 393.5,-288 393.5,-324"/>
<text text-anchor="middle" x="344.5" y="-302.3" font-family="Times,serif" font-size="14.00">Arms.kullback</text>
</g>
<!-- 2&#45;&gt;7 -->
<g id="edge7" class="edge"><title>2&#45;&gt;7</title>
<path fill="none" stroke="black" d="M385.152,-252.303C378.743,-260.611 370.942,-270.723 363.894,-279.859"/>
<polygon fill="black" stroke="black" points="357.695,-287.896 360.24,-277.229 360.749,-283.937 363.803,-279.978 363.803,-279.978 363.803,-279.978 360.749,-283.937 367.366,-282.726 357.695,-287.896 357.695,-287.896"/>
</g>
<!-- 3&#45;&gt;1 -->
<g id="edge8" class="edge"><title>3&#45;&gt;1</title>
<path fill="none" stroke="black" d="M467.432,-249.893C464.414,-250.617 461.423,-251.324 458.5,-252 385.531,-268.886 363.493,-267.102 287.222,-288.008"/>
<polygon fill="black" stroke="black" points="277.13,-290.818 285.556,-283.8 281.947,-289.476 286.763,-288.135 286.763,-288.135 286.763,-288.135 281.947,-289.476 287.97,-292.47 277.13,-290.818 277.13,-290.818"/>
</g>
<!-- 3&#45;&gt;7 -->
<g id="edge9" class="edge"><title>3&#45;&gt;7</title>
<path fill="none" stroke="black" d="M481.222,-252.124C456.149,-261.821 424.604,-274.02 398.135,-284.257"/>
<polygon fill="black" stroke="black" points="388.634,-287.932 396.337,-280.128 393.297,-286.128 397.961,-284.325 397.961,-284.325 397.961,-284.325 393.297,-286.128 399.584,-288.522 388.634,-287.932 388.634,-287.932"/>
</g>
<!-- 4&#45;&gt;1 -->
<g id="edge10" class="edge"><title>4&#45;&gt;1</title>
<path fill="none" stroke="black" d="M96.49,-252.124C125.008,-262.742 161.585,-276.362 190.475,-287.119"/>
<polygon fill="black" stroke="black" points="199.956,-290.648 189.014,-291.376 195.27,-288.904 190.584,-287.159 190.584,-287.159 190.584,-287.159 195.27,-288.904 192.154,-282.942 199.956,-290.648 199.956,-290.648"/>
</g>
<!-- 4&#45;&gt;7 -->
<g id="edge11" class="edge"><title>4&#45;&gt;7</title>
<path fill="none" stroke="black" d="M101.17,-249.638C104.321,-250.461 107.45,-251.255 110.5,-252 187.64,-270.836 208.402,-268.993 285.5,-288 285.6,-288.025 285.701,-288.049 285.801,-288.074"/>
<polygon fill="black" stroke="black" points="295.321,-290.521 284.516,-292.39 290.479,-289.276 285.636,-288.032 285.636,-288.032 285.636,-288.032 290.479,-289.276 286.756,-283.673 295.321,-290.521 295.321,-290.521"/>
</g>
<!-- 5&#45;&gt;1 -->
<g id="edge12" class="edge"><title>5&#45;&gt;1</title>
<path fill="none" stroke="black" d="M271.624,-252.303C266.508,-260.441 260.305,-270.311 254.655,-279.299"/>
<polygon fill="black" stroke="black" points="249.251,-287.896 250.763,-277.034 251.912,-283.662 254.573,-279.429 254.573,-279.429 254.573,-279.429 251.912,-283.662 258.383,-281.824 249.251,-287.896 249.251,-287.896"/>
</g>
<!-- 5&#45;&gt;7 -->
<g id="edge13" class="edge"><title>5&#45;&gt;7</title>
<path fill="none" stroke="black" d="M297.826,-252.303C305.259,-260.695 314.323,-270.93 322.48,-280.139"/>
<polygon fill="black" stroke="black" points="329.35,-287.896 319.351,-283.393 326.035,-284.153 322.72,-280.41 322.72,-280.41 322.72,-280.41 326.035,-284.153 326.089,-277.426 329.35,-287.896 329.35,-287.896"/>
</g>
<!-- 6&#45;&gt;1 -->
<g id="edge14" class="edge"><title>6&#45;&gt;1</title>
<path fill="none" stroke="black" d="M185.803,-252.303C194.365,-260.865 204.844,-271.344 214.196,-280.696"/>
<polygon fill="black" stroke="black" points="221.396,-287.896 211.143,-284.007 217.86,-284.36 214.325,-280.825 214.325,-280.825 214.325,-280.825 217.86,-284.36 217.507,-277.643 221.396,-287.896 221.396,-287.896"/>
</g>
<!-- 8 -->
<g id="node9" class="node"><title>8</title>
<polygon fill="none" stroke="black" points="3372.5,-108 3284.5,-108 3284.5,-72 3372.5,-72 3372.5,-108"/>
<text text-anchor="middle" x="3328.5" y="-86.3" font-family="Times,serif" font-size="14.00">Environment</text>
</g>
<!-- 10 -->
<g id="node11" class="node"><title>10</title>
<polygon fill="none" stroke="black" points="3299.5,-180 3155.5,-180 3155.5,-144 3299.5,-144 3299.5,-180"/>
<text text-anchor="middle" x="3227.5" y="-158.3" font-family="Times,serif" font-size="14.00">Environment.Evaluator</text>
</g>
<!-- 8&#45;&gt;10 -->
<g id="edge15" class="edge"><title>8&#45;&gt;10</title>
<path fill="none" stroke="black" d="M3303.79,-108.124C3290.83,-117.107 3274.77,-128.237 3260.73,-137.966"/>
<polygon fill="black" stroke="black" points="3252.3,-143.81 3257.96,-134.415 3256.41,-140.962 3260.52,-138.114 3260.52,-138.114 3260.52,-138.114 3256.41,-140.962 3263.08,-141.812 3252.3,-143.81 3252.3,-143.81"/>
</g>
<!-- 11 -->
<g id="node12" class="node"><title>11</title>
<polygon fill="none" stroke="black" points="3685,-180 3470,-180 3470,-144 3685,-144 3685,-180"/>
<text text-anchor="middle" x="3577.5" y="-158.3" font-family="Times,serif" font-size="14.00">Environment.EvaluatorMultiPlayers</text>
</g>
<!-- 8&#45;&gt;11 -->
<g id="edge16" class="edge"><title>8&#45;&gt;11</title>
<path fill="none" stroke="black" d="M3372.73,-103.434C3409.94,-113.895 3463.83,-129.044 3506.98,-141.176"/>
<polygon fill="black" stroke="black" points="3516.86,-143.952 3506.01,-145.578 3512.04,-142.599 3507.23,-141.246 3507.23,-141.246 3507.23,-141.246 3512.04,-142.599 3508.45,-136.914 3516.86,-143.952 3516.86,-143.952"/>
</g>
<!-- 12 -->
<g id="node13" class="node"><title>12</title>
<polygon fill="none" stroke="black" points="3468,-252 3345,-252 3345,-216 3468,-216 3468,-252"/>
<text text-anchor="middle" x="3406.5" y="-230.3" font-family="Times,serif" font-size="14.00">Environment.MAB</text>
</g>
<!-- 8&#45;&gt;12 -->
<g id="edge17" class="edge"><title>8&#45;&gt;12</title>
<path fill="none" stroke="black" d="M3349.06,-108.081C3359.47,-117.687 3371.55,-130.451 3379.5,-144 3390.77,-163.212 3397.73,-187.557 3401.76,-205.928"/>
<polygon fill="black" stroke="black" points="3403.8,-215.969 3397.4,-207.067 3402.8,-211.07 3401.81,-206.17 3401.81,-206.17 3401.81,-206.17 3402.8,-211.07 3406.22,-205.273 3403.8,-215.969 3403.8,-215.969"/>
</g>
<!-- 13 -->
<g id="node14" class="node"><title>13</title>
<polygon fill="none" stroke="black" points="3326.5,-252 3200.5,-252 3200.5,-216 3326.5,-216 3326.5,-252"/>
<text text-anchor="middle" x="3263.5" y="-230.3" font-family="Times,serif" font-size="14.00">Environment.Result</text>
</g>
<!-- 8&#45;&gt;13 -->
<g id="edge18" class="edge"><title>8&#45;&gt;13</title>
<path fill="none" stroke="black" d="M3327.1,-108.216C3325.04,-126.768 3320.09,-156.756 3308.5,-180 3303.44,-190.151 3296.03,-199.991 3288.68,-208.38"/>
<polygon fill="black" stroke="black" points="3281.73,-215.942 3285.18,-205.535 3285.11,-212.261 3288.5,-208.58 3288.5,-208.58 3288.5,-208.58 3285.11,-212.261 3291.81,-211.626 3281.73,-215.942 3281.73,-215.942"/>
</g>
<!-- 9 -->
<g id="node10" class="node"><title>9</title>
<polygon fill="none" stroke="black" points="3668.5,-252 3486.5,-252 3486.5,-216 3668.5,-216 3668.5,-252"/>
<text text-anchor="middle" x="3577.5" y="-230.3" font-family="Times,serif" font-size="14.00">Environment.CollisionModels</text>
</g>
<!-- 10&#45;&gt;12 -->
<g id="edge19" class="edge"><title>10&#45;&gt;12</title>
<path fill="none" stroke="black" d="M3271.29,-180.124C3296.08,-189.821 3327.28,-202.02 3353.46,-212.257"/>
<polygon fill="black" stroke="black" points="3362.85,-215.932 3351.9,-216.481 3358.2,-214.111 3353.54,-212.29 3353.54,-212.29 3353.54,-212.29 3358.2,-214.111 3355.18,-208.099 3362.85,-215.932 3362.85,-215.932"/>
</g>
<!-- 10&#45;&gt;13 -->
<g id="edge20" class="edge"><title>10&#45;&gt;13</title>
<path fill="none" stroke="black" d="M3236.4,-180.303C3240.5,-188.272 3245.45,-197.9 3249.99,-206.736"/>
<polygon fill="black" stroke="black" points="3254.7,-215.896 3246.13,-209.061 3252.42,-211.449 3250.13,-207.003 3250.13,-207.003 3250.13,-207.003 3252.42,-211.449 3254.13,-204.945 3254.7,-215.896 3254.7,-215.896"/>
</g>
<!-- 15 -->
<g id="node16" class="node"><title>15</title>
<polygon fill="none" stroke="black" points="3483.5,-324 3329.5,-324 3329.5,-288 3483.5,-288 3483.5,-324"/>
<text text-anchor="middle" x="3406.5" y="-302.3" font-family="Times,serif" font-size="14.00">Environment.plotsettings</text>
</g>
<!-- 10&#45;&gt;15 -->
<g id="edge21" class="edge"><title>10&#45;&gt;15</title>
<path fill="none" stroke="black" d="M3210.95,-180.19C3194.64,-199.264 3174.44,-230.22 3191.5,-252 3207.59,-272.541 3267.07,-286.2 3319.4,-294.501"/>
<polygon fill="black" stroke="black" points="3329.42,-296.039 3318.85,-298.968 3324.48,-295.28 3319.54,-294.521 3319.54,-294.521 3319.54,-294.521 3324.48,-295.28 3320.22,-290.073 3329.42,-296.039 3329.42,-296.039"/>
</g>
<!-- 11&#45;&gt;9 -->
<g id="edge22" class="edge"><title>11&#45;&gt;9</title>
<path fill="none" stroke="black" d="M3577.5,-180.303C3577.5,-188.017 3577.5,-197.288 3577.5,-205.888"/>
<polygon fill="black" stroke="black" points="3577.5,-215.896 3573,-205.896 3577.5,-210.896 3577.5,-205.896 3577.5,-205.896 3577.5,-205.896 3577.5,-210.896 3582,-205.896 3577.5,-215.896 3577.5,-215.896"/>
</g>
<!-- 11&#45;&gt;12 -->
<g id="edge23" class="edge"><title>11&#45;&gt;12</title>
<path fill="none" stroke="black" d="M3535.67,-180.124C3512.08,-189.778 3482.44,-201.913 3457.5,-212.122"/>
<polygon fill="black" stroke="black" points="3448.2,-215.932 3455.75,-207.979 3452.82,-214.037 3457.45,-212.143 3457.45,-212.143 3457.45,-212.143 3452.82,-214.037 3459.15,-216.308 3448.2,-215.932 3448.2,-215.932"/>
</g>
<!-- 14 -->
<g id="node15" class="node"><title>14</title>
<polygon fill="none" stroke="black" points="3922,-252 3725,-252 3725,-216 3922,-216 3922,-252"/>
<text text-anchor="middle" x="3823.5" y="-230.3" font-family="Times,serif" font-size="14.00">Environment.ResultMultiPlayers</text>
</g>
<!-- 11&#45;&gt;14 -->
<g id="edge24" class="edge"><title>11&#45;&gt;14</title>
<path fill="none" stroke="black" d="M3637.36,-180.034C3672.48,-190.028 3717.02,-202.702 3753.73,-213.146"/>
<polygon fill="black" stroke="black" points="3763.37,-215.889 3752.52,-217.48 3758.56,-214.521 3753.75,-213.152 3753.75,-213.152 3753.75,-213.152 3758.56,-214.521 3754.98,-208.824 3763.37,-215.889 3763.37,-215.889"/>
</g>
<!-- 11&#45;&gt;15 -->
<g id="edge25" class="edge"><title>11&#45;&gt;15</title>
<path fill="none" stroke="black" d="M3633.94,-180.04C3650.94,-188.105 3667.67,-199.67 3677.5,-216 3685.75,-229.709 3687.67,-239.648 3677.5,-252 3654.45,-279.999 3563.97,-293.415 3493.83,-299.706"/>
<polygon fill="black" stroke="black" points="3483.64,-300.583 3493.22,-295.242 3488.62,-300.155 3493.6,-299.726 3493.6,-299.726 3493.6,-299.726 3488.62,-300.155 3493.99,-304.209 3483.64,-300.583 3483.64,-300.583"/>
</g>
<!-- 12&#45;&gt;15 -->
<g id="edge26" class="edge"><title>12&#45;&gt;15</title>
<path fill="none" stroke="black" d="M3406.5,-252.303C3406.5,-260.017 3406.5,-269.288 3406.5,-277.888"/>
<polygon fill="black" stroke="black" points="3406.5,-287.896 3402,-277.896 3406.5,-282.896 3406.5,-277.896 3406.5,-277.896 3406.5,-277.896 3406.5,-282.896 3411,-277.896 3406.5,-287.896 3406.5,-287.896"/>
</g>
<!-- 16 -->
<g id="node17" class="node"><title>16</title>
<polygon fill="none" stroke="black" points="1664,-180 1605,-180 1605,-144 1664,-144 1664,-180"/>
<text text-anchor="middle" x="1634.5" y="-158.3" font-family="Times,serif" font-size="14.00">Policies</text>
</g>
<!-- 17 -->
<g id="node18" class="node"><title>17</title>
<polygon fill="none" stroke="black" points="571,-324 450,-324 450,-288 571,-288 571,-324"/>
<text text-anchor="middle" x="510.5" y="-302.3" font-family="Times,serif" font-size="14.00">Policies.AdBandits</text>
</g>
<!-- 16&#45;&gt;17 -->
<g id="edge27" class="edge"><title>16&#45;&gt;17</title>
<path fill="none" stroke="black" d="M1604.75,-163.588C1455.45,-166.689 791.647,-182.284 706.5,-216 683.326,-225.176 685.189,-239.718 663.5,-252 637.901,-266.496 607.665,-277.997 580.859,-286.529"/>
<polygon fill="black" stroke="black" points="571.154,-289.538 579.372,-282.278 575.929,-288.057 580.705,-286.577 580.705,-286.577 580.705,-286.577 575.929,-288.057 582.038,-290.875 571.154,-289.538 571.154,-289.538"/>
</g>
<!-- 18 -->
<g id="node19" class="node"><title>18</title>
<polygon fill="none" stroke="black" points="489,-468 398,-468 398,-432 489,-432 489,-468"/>
<text text-anchor="middle" x="443.5" y="-446.3" font-family="Times,serif" font-size="14.00">Policies.Aggr</text>
</g>
<!-- 16&#45;&gt;18 -->
<g id="edge28" class="edge"><title>16&#45;&gt;18</title>
<path fill="none" stroke="black" d="M1604.78,-163.892C1451.75,-168.584 756.297,-191.125 663.5,-216 629.326,-225.16 625.724,-239.838 592.5,-252 527.306,-275.865 483.564,-233.546 440.5,-288 410.196,-326.319 422.662,-387.344 433.628,-422.221"/>
<polygon fill="black" stroke="black" points="436.788,-431.738 429.366,-423.666 435.212,-426.993 433.636,-422.248 433.636,-422.248 433.636,-422.248 435.212,-426.993 437.907,-420.829 436.788,-431.738 436.788,-431.738"/>
</g>
<!-- 20 -->
<g id="node21" class="node"><title>20</title>
<polygon fill="none" stroke="black" points="839.5,-252 715.5,-252 715.5,-216 839.5,-216 839.5,-252"/>
<text text-anchor="middle" x="777.5" y="-230.3" font-family="Times,serif" font-size="14.00">Policies.BayesUCB</text>
</g>
<!-- 16&#45;&gt;20 -->
<g id="edge29" class="edge"><title>16&#45;&gt;20</title>
<path fill="none" stroke="black" d="M1604.68,-163.215C1501.33,-164.337 1148.93,-171.301 849.89,-215.942"/>
<polygon fill="black" stroke="black" points="839.722,-217.478 848.937,-211.535 844.665,-216.731 849.609,-215.985 849.609,-215.985 849.609,-215.985 844.665,-216.731 850.281,-220.434 839.722,-217.478 839.722,-217.478"/>
</g>
<!-- 23 -->
<g id="node24" class="node"><title>23</title>
<polygon fill="none" stroke="black" points="1913,-252 1748,-252 1748,-216 1913,-216 1913,-252"/>
<text text-anchor="middle" x="1830.5" y="-230.3" font-family="Times,serif" font-size="14.00">Policies.EpsilonDecreasing</text>
</g>
<!-- 16&#45;&gt;23 -->
<g id="edge30" class="edge"><title>16&#45;&gt;23</title>
<path fill="none" stroke="black" d="M1664.27,-173.631C1693.05,-183.91 1737.41,-199.754 1773.07,-212.49"/>
<polygon fill="black" stroke="black" points="1782.88,-215.992 1771.95,-216.867 1778.17,-214.31 1773.46,-212.629 1773.46,-212.629 1773.46,-212.629 1778.17,-214.31 1774.97,-208.391 1782.88,-215.992 1782.88,-215.992"/>
</g>
<!-- 24 -->
<g id="node25" class="node"><title>24</title>
<polygon fill="none" stroke="black" points="2137.5,-252 1931.5,-252 1931.5,-216 2137.5,-216 2137.5,-252"/>
<text text-anchor="middle" x="2034.5" y="-230.3" font-family="Times,serif" font-size="14.00">Policies.EpsilonDecreasingMEGA</text>
</g>
<!-- 16&#45;&gt;24 -->
<g id="edge31" class="edge"><title>16&#45;&gt;24</title>
<path fill="none" stroke="black" d="M1664.24,-168.204C1719.07,-177.799 1838.57,-198.712 1927.05,-214.197"/>
<polygon fill="black" stroke="black" points="1937.14,-215.962 1926.51,-218.671 1932.22,-215.1 1927.29,-214.238 1927.29,-214.238 1927.29,-214.238 1932.22,-215.1 1928.07,-209.806 1937.14,-215.962 1937.14,-215.962"/>
</g>
<!-- 25 -->
<g id="node26" class="node"><title>25</title>
<polygon fill="none" stroke="black" points="2343,-252 2156,-252 2156,-216 2343,-216 2343,-252"/>
<text text-anchor="middle" x="2249.5" y="-230.3" font-family="Times,serif" font-size="14.00">Policies.EpsilonExpDecreasing</text>
</g>
<!-- 16&#45;&gt;25 -->
<g id="edge32" class="edge"><title>16&#45;&gt;25</title>
<path fill="none" stroke="black" d="M1664.01,-165.426C1741.25,-171.91 1955.88,-190.784 2145.63,-215.93"/>
<polygon fill="black" stroke="black" points="2155.79,-217.286 2145.28,-220.424 2150.83,-216.625 2145.87,-215.963 2145.87,-215.963 2145.87,-215.963 2150.83,-216.625 2146.47,-211.503 2155.79,-217.286 2155.79,-217.286"/>
</g>
<!-- 26 -->
<g id="node27" class="node"><title>26</title>
<polygon fill="none" stroke="black" points="2490,-252 2361,-252 2361,-216 2490,-216 2490,-252"/>
<text text-anchor="middle" x="2425.5" y="-230.3" font-family="Times,serif" font-size="14.00">Policies.EpsilonFirst</text>
</g>
<!-- 16&#45;&gt;26 -->
<g id="edge33" class="edge"><title>16&#45;&gt;26</title>
<path fill="none" stroke="black" d="M1664.05,-163.577C1761.09,-165.809 2078.87,-175.795 2350.58,-216.007"/>
<polygon fill="black" stroke="black" points="2360.63,-217.511 2350.08,-220.481 2355.69,-216.771 2350.75,-216.031 2350.75,-216.031 2350.75,-216.031 2355.69,-216.771 2351.41,-211.581 2360.63,-217.511 2360.63,-217.511"/>
</g>
<!-- 27 -->
<g id="node28" class="node"><title>27</title>
<polygon fill="none" stroke="black" points="2356.5,-324 2212.5,-324 2212.5,-288 2356.5,-288 2356.5,-324"/>
<text text-anchor="middle" x="2284.5" y="-302.3" font-family="Times,serif" font-size="14.00">Policies.EpsilonGreedy</text>
</g>
<!-- 16&#45;&gt;27 -->
<g id="edge34" class="edge"><title>16&#45;&gt;27</title>
<path fill="none" stroke="black" d="M1664.13,-163.69C1812.54,-167.29 2469.28,-184.938 2498.5,-216 2543.35,-263.687 2444.76,-286.708 2366.93,-297.154"/>
<polygon fill="black" stroke="black" points="2356.59,-298.486 2365.94,-292.745 2361.55,-297.847 2366.51,-297.209 2366.51,-297.209 2366.51,-297.209 2361.55,-297.847 2367.09,-301.672 2356.59,-298.486 2356.59,-298.486"/>
</g>
<!-- 28 -->
<g id="node29" class="node"><title>28</title>
<polygon fill="none" stroke="black" points="2506.5,-396 2414.5,-396 2414.5,-360 2506.5,-360 2506.5,-396"/>
<text text-anchor="middle" x="2460.5" y="-374.3" font-family="Times,serif" font-size="14.00">Policies.Exp3</text>
</g>
<!-- 16&#45;&gt;28 -->
<g id="edge35" class="edge"><title>16&#45;&gt;28</title>
<path fill="none" stroke="black" d="M1664.31,-163.652C1815.18,-167.095 2488.56,-184.207 2518.5,-216 2554.71,-254.443 2512.67,-317.12 2483.59,-351.844"/>
<polygon fill="black" stroke="black" points="2476.9,-359.63 2480.01,-349.114 2480.16,-355.839 2483.42,-352.049 2483.42,-352.049 2483.42,-352.049 2480.16,-355.839 2486.83,-354.983 2476.9,-359.63 2476.9,-359.63"/>
</g>
<!-- 31 -->
<g id="node32" class="node"><title>31</title>
<polygon fill="none" stroke="black" points="2538.5,-468 2434.5,-468 2434.5,-432 2538.5,-432 2538.5,-468"/>
<text text-anchor="middle" x="2486.5" y="-446.3" font-family="Times,serif" font-size="14.00">Policies.MEGA</text>
</g>
<!-- 16&#45;&gt;31 -->
<g id="edge36" class="edge"><title>16&#45;&gt;31</title>
<path fill="none" stroke="black" d="M1664.04,-163.602C1816.63,-166.85 2509.72,-183.369 2540.5,-216 2595.1,-273.891 2537.69,-375.687 2505.37,-423.207"/>
<polygon fill="black" stroke="black" points="2499.47,-431.692 2501.49,-420.913 2502.33,-427.587 2505.18,-423.482 2505.18,-423.482 2505.18,-423.482 2502.33,-427.587 2508.88,-426.05 2499.47,-431.692 2499.47,-431.692"/>
</g>
<!-- 32 -->
<g id="node33" class="node"><title>32</title>
<polygon fill="none" stroke="black" points="1074,-396 973,-396 973,-360 1074,-360 1074,-396"/>
<text text-anchor="middle" x="1023.5" y="-374.3" font-family="Times,serif" font-size="14.00">Policies.MOSS</text>
</g>
<!-- 16&#45;&gt;32 -->
<g id="edge37" class="edge"><title>16&#45;&gt;32</title>
<path fill="none" stroke="black" d="M1604.97,-163.312C1488.62,-164.841 1066.37,-173.313 1026.5,-216 992.895,-251.983 1004.11,-314.654 1014.38,-350.264"/>
<polygon fill="black" stroke="black" points="1017.35,-359.966 1010.12,-351.721 1015.88,-355.185 1014.42,-350.404 1014.42,-350.404 1014.42,-350.404 1015.88,-355.185 1018.72,-349.087 1017.35,-359.966 1017.35,-359.966"/>
</g>
<!-- 33 -->
<g id="node34" class="node"><title>33</title>
<polygon fill="none" stroke="black" points="2694,-468 2557,-468 2557,-432 2694,-432 2694,-468"/>
<text text-anchor="middle" x="2625.5" y="-446.3" font-family="Times,serif" font-size="14.00">Policies.MusicalChair</text>
</g>
<!-- 16&#45;&gt;33 -->
<g id="edge38" class="edge"><title>16&#45;&gt;33</title>
<path fill="none" stroke="black" d="M1664.36,-162.654C1815.69,-161.166 2493.4,-157.812 2564.5,-216 2626.45,-266.7 2629.86,-371.883 2627.64,-421.701"/>
<polygon fill="black" stroke="black" points="2627.08,-431.73 2623.14,-421.495 2627.36,-426.737 2627.64,-421.745 2627.64,-421.745 2627.64,-421.745 2627.36,-426.737 2632.13,-421.996 2627.08,-431.73 2627.08,-431.73"/>
</g>
<!-- 35 -->
<g id="node36" class="node"><title>35</title>
<polygon fill="none" stroke="black" points="2770.5,-396 2660.5,-396 2660.5,-360 2770.5,-360 2770.5,-396"/>
<text text-anchor="middle" x="2715.5" y="-374.3" font-family="Times,serif" font-size="14.00">Policies.Softmax</text>
</g>
<!-- 16&#45;&gt;35 -->
<g id="edge39" class="edge"><title>16&#45;&gt;35</title>
<path fill="none" stroke="black" d="M1664.17,-162.713C1822.53,-161.421 2564.07,-158.498 2646.5,-216 2690.88,-246.959 2706.9,-312.662 2712.54,-349.854"/>
<polygon fill="black" stroke="black" points="2713.93,-359.973 2708.12,-350.676 2713.25,-355.02 2712.57,-350.066 2712.57,-350.066 2712.57,-350.066 2713.25,-355.02 2717.03,-349.455 2713.93,-359.973 2713.93,-359.973"/>
</g>
<!-- 36 -->
<g id="node37" class="node"><title>36</title>
<polygon fill="none" stroke="black" points="2871.5,-324 2725.5,-324 2725.5,-288 2871.5,-288 2871.5,-324"/>
<text text-anchor="middle" x="2798.5" y="-302.3" font-family="Times,serif" font-size="14.00">Policies.TakeFixedArm</text>
</g>
<!-- 16&#45;&gt;36 -->
<g id="edge40" class="edge"><title>16&#45;&gt;36</title>
<path fill="none" stroke="black" d="M1664.03,-163.094C1850.3,-163.825 2856.3,-169.906 2900.5,-216 2911.57,-227.548 2908.81,-238.325 2900.5,-252 2892.34,-265.432 2879.55,-275.616 2865.75,-283.278"/>
<polygon fill="black" stroke="black" points="2856.57,-287.959 2863.44,-279.407 2861.03,-285.687 2865.48,-283.415 2865.48,-283.415 2865.48,-283.415 2861.03,-285.687 2867.53,-287.424 2856.57,-287.959 2856.57,-287.959"/>
</g>
<!-- 37 -->
<g id="node38" class="node"><title>37</title>
<polygon fill="none" stroke="black" points="2892,-252 2699,-252 2699,-216 2892,-216 2892,-252"/>
<text text-anchor="middle" x="2795.5" y="-230.3" font-family="Times,serif" font-size="14.00">Policies.TakeRandomFixedArm</text>
</g>
<!-- 16&#45;&gt;37 -->
<g id="edge41" class="edge"><title>16&#45;&gt;37</title>
<path fill="none" stroke="black" d="M1664.23,-163.396C1788.92,-165.291 2281.82,-175.108 2684.5,-216 2685.81,-216.133 2687.13,-216.271 2688.45,-216.413"/>
<polygon fill="black" stroke="black" points="2698.71,-217.585 2688.27,-220.921 2693.75,-217.018 2688.78,-216.45 2688.78,-216.45 2688.78,-216.45 2693.75,-217.018 2689.29,-211.979 2698.71,-217.585 2698.71,-217.585"/>
</g>
<!-- 38 -->
<g id="node39" class="node"><title>38</title>
<polygon fill="none" stroke="black" points="979.5,-252 857.5,-252 857.5,-216 979.5,-216 979.5,-252"/>
<text text-anchor="middle" x="918.5" y="-230.3" font-family="Times,serif" font-size="14.00">Policies.Thompson</text>
</g>
<!-- 16&#45;&gt;38 -->
<g id="edge42" class="edge"><title>16&#45;&gt;38</title>
<path fill="none" stroke="black" d="M1604.94,-163.968C1513.52,-167.275 1227.47,-179.992 993.5,-216 992.238,-216.194 990.966,-216.398 989.686,-216.609"/>
<polygon fill="black" stroke="black" points="979.761,-218.378 988.816,-212.193 984.683,-217.501 989.606,-216.623 989.606,-216.623 989.606,-216.623 984.683,-217.501 990.395,-221.054 979.761,-218.378 979.761,-218.378"/>
</g>
<!-- 39 -->
<g id="node40" class="node"><title>39</title>
<polygon fill="none" stroke="black" points="1551,-396 1460,-396 1460,-360 1551,-360 1551,-396"/>
<text text-anchor="middle" x="1505.5" y="-374.3" font-family="Times,serif" font-size="14.00">Policies.UCB</text>
</g>
<!-- 16&#45;&gt;39 -->
<g id="edge43" class="edge"><title>16&#45;&gt;39</title>
<path fill="none" stroke="black" d="M1604.99,-166.635C1575.89,-171.963 1532.89,-184.911 1512.5,-216 1503.73,-229.379 1503.88,-238.523 1512.5,-252 1533.08,-284.161 1569.92,-255.839 1590.5,-288 1599.12,-301.477 1598.26,-310.01 1590.5,-324 1583.37,-336.849 1571.69,-346.99 1559.23,-354.811"/>
<polygon fill="black" stroke="black" points="1550.53,-359.86 1556.92,-350.948 1554.86,-357.35 1559.18,-354.84 1559.18,-354.84 1559.18,-354.84 1554.86,-357.35 1561.44,-358.732 1550.53,-359.86 1550.53,-359.86"/>
</g>
<!-- 40 -->
<g id="node41" class="node"><title>40</title>
<polygon fill="none" stroke="black" points="1739,-324 1638,-324 1638,-288 1739,-288 1739,-324"/>
<text text-anchor="middle" x="1688.5" y="-302.3" font-family="Times,serif" font-size="14.00">Policies.UCBV</text>
</g>
<!-- 16&#45;&gt;40 -->
<g id="edge44" class="edge"><title>16&#45;&gt;40</title>
<path fill="none" stroke="black" d="M1644.3,-180.304C1649.81,-190.489 1656.56,-203.739 1661.5,-216 1669.72,-236.408 1676.84,-260.305 1681.7,-278.195"/>
<polygon fill="black" stroke="black" points="1684.29,-287.963 1677.38,-279.452 1683.01,-283.13 1681.73,-278.298 1681.73,-278.298 1681.73,-278.298 1683.01,-283.13 1686.08,-277.143 1684.29,-287.963 1684.29,-287.963"/>
</g>
<!-- 41 -->
<g id="node42" class="node"><title>41</title>
<polygon fill="none" stroke="black" points="1653,-252 1522,-252 1522,-216 1653,-216 1653,-252"/>
<text text-anchor="middle" x="1587.5" y="-230.3" font-family="Times,serif" font-size="14.00">Policies.UCBVtuned</text>
</g>
<!-- 16&#45;&gt;41 -->
<g id="edge45" class="edge"><title>16&#45;&gt;41</title>
<path fill="none" stroke="black" d="M1622.88,-180.303C1617.36,-188.526 1610.65,-198.517 1604.57,-207.579"/>
<polygon fill="black" stroke="black" points="1598.98,-215.896 1600.82,-205.085 1601.77,-211.745 1604.56,-207.593 1604.56,-207.593 1604.56,-207.593 1601.77,-211.745 1608.29,-210.102 1598.98,-215.896 1598.98,-215.896"/>
</g>
<!-- 42 -->
<g id="node43" class="node"><title>42</title>
<polygon fill="none" stroke="black" points="1877.5,-324 1757.5,-324 1757.5,-288 1877.5,-288 1877.5,-324"/>
<text text-anchor="middle" x="1817.5" y="-302.3" font-family="Times,serif" font-size="14.00">Policies.UCBalpha</text>
</g>
<!-- 16&#45;&gt;42 -->
<g id="edge46" class="edge"><title>16&#45;&gt;42</title>
<path fill="none" stroke="black" d="M1653.11,-180.091C1673.51,-198.536 1707.46,-228.433 1738.5,-252 1752.2,-262.404 1767.84,-273.118 1781.56,-282.166"/>
<polygon fill="black" stroke="black" points="1790.26,-287.851 1779.43,-286.149 1786.08,-285.117 1781.89,-282.382 1781.89,-282.382 1781.89,-282.382 1786.08,-285.117 1784.35,-278.615 1790.26,-287.851 1790.26,-287.851"/>
</g>
<!-- 43 -->
<g id="node44" class="node"><title>43</title>
<polygon fill="none" stroke="black" points="1279.5,-324 1171.5,-324 1171.5,-288 1279.5,-288 1279.5,-324"/>
<text text-anchor="middle" x="1225.5" y="-302.3" font-family="Times,serif" font-size="14.00">Policies.UCBopt</text>
</g>
<!-- 16&#45;&gt;43 -->
<g id="edge47" class="edge"><title>16&#45;&gt;43</title>
<path fill="none" stroke="black" d="M1604.67,-166.628C1561,-172.703 1477.76,-187.21 1412.5,-216 1386.45,-227.494 1384.67,-238.683 1359.5,-252 1336.18,-264.34 1309.33,-275.508 1285.82,-284.375"/>
<polygon fill="black" stroke="black" points="1276.31,-287.906 1284.11,-280.207 1280.99,-286.166 1285.68,-284.425 1285.68,-284.425 1285.68,-284.425 1280.99,-286.166 1287.25,-288.644 1276.31,-287.906 1276.31,-287.906"/>
</g>
<!-- 44 -->
<g id="node45" class="node"><title>44</title>
<polygon fill="none" stroke="black" points="1411,-324 1298,-324 1298,-288 1411,-288 1411,-324"/>
<text text-anchor="middle" x="1354.5" y="-302.3" font-family="Times,serif" font-size="14.00">Policies.UCBplus</text>
</g>
<!-- 16&#45;&gt;44 -->
<g id="edge48" class="edge"><title>16&#45;&gt;44</title>
<path fill="none" stroke="black" d="M1604.96,-169.204C1570.97,-177.074 1514.09,-192.517 1469.5,-216 1436.08,-233.601 1402.44,-261.031 1380.25,-280.787"/>
<polygon fill="black" stroke="black" points="1372.62,-287.686 1377.02,-277.642 1376.33,-284.333 1380.04,-280.981 1380.04,-280.981 1380.04,-280.981 1376.33,-284.333 1383.06,-284.319 1372.62,-287.686 1372.62,-287.686"/>
</g>
<!-- 45 -->
<g id="node46" class="node"><title>45</title>
<polygon fill="none" stroke="black" points="1581.5,-324 1429.5,-324 1429.5,-288 1581.5,-288 1581.5,-324"/>
<text text-anchor="middle" x="1505.5" y="-302.3" font-family="Times,serif" font-size="14.00">Policies.UCBrandomInit</text>
</g>
<!-- 16&#45;&gt;45 -->
<g id="edge49" class="edge"><title>16&#45;&gt;45</title>
<path fill="none" stroke="black" d="M1604.89,-163.5C1568.49,-165.902 1508.03,-176.092 1479.5,-216 1466.14,-234.681 1475.75,-260.179 1486.87,-279.095"/>
<polygon fill="black" stroke="black" points="1492.36,-287.794 1483.22,-281.738 1489.69,-283.565 1487.02,-279.337 1487.02,-279.337 1487.02,-279.337 1489.69,-283.565 1490.83,-276.936 1492.36,-287.794 1492.36,-287.794"/>
</g>
<!-- 46 -->
<g id="node47" class="node"><title>46</title>
<polygon fill="none" stroke="black" points="3013.5,-324 2903.5,-324 2903.5,-288 3013.5,-288 3013.5,-324"/>
<text text-anchor="middle" x="2958.5" y="-302.3" font-family="Times,serif" font-size="14.00">Policies.Uniform</text>
</g>
<!-- 16&#45;&gt;46 -->
<g id="edge50" class="edge"><title>16&#45;&gt;46</title>
<path fill="none" stroke="black" d="M1664.22,-163.347C1851.74,-165.643 2864.85,-179.705 2918.5,-216 2939.14,-229.968 2949.27,-257.281 2954.15,-277.984"/>
<polygon fill="black" stroke="black" points="2956.2,-287.815 2949.76,-278.944 2955.18,-282.921 2954.16,-278.026 2954.16,-278.026 2954.16,-278.026 2955.18,-282.921 2958.57,-277.107 2956.2,-287.815 2956.2,-287.815"/>
</g>
<!-- 47 -->
<g id="node48" class="node"><title>47</title>
<polygon fill="none" stroke="black" points="3144.5,-252 2986.5,-252 2986.5,-216 3144.5,-216 3144.5,-252"/>
<text text-anchor="middle" x="3065.5" y="-230.3" font-family="Times,serif" font-size="14.00">Policies.UniformOnSome</text>
</g>
<!-- 16&#45;&gt;47 -->
<g id="edge51" class="edge"><title>16&#45;&gt;47</title>
<path fill="none" stroke="black" d="M1664.28,-162.628C1808.75,-161.146 2450.87,-158.286 2972.5,-216 2973.78,-216.142 2975.08,-216.292 2976.38,-216.448"/>
<polygon fill="black" stroke="black" points="2986.46,-217.768 2975.96,-220.932 2981.51,-217.119 2976.55,-216.47 2976.55,-216.47 2976.55,-216.47 2981.51,-217.119 2977.13,-212.008 2986.46,-217.768 2986.46,-217.768"/>
</g>
<!-- 48 -->
<g id="node49" class="node"><title>48</title>
<polygon fill="none" stroke="black" points="1153,-324 1052,-324 1052,-288 1153,-288 1153,-324"/>
<text text-anchor="middle" x="1102.5" y="-302.3" font-family="Times,serif" font-size="14.00">Policies.klUCB</text>
</g>
<!-- 16&#45;&gt;48 -->
<g id="edge52" class="edge"><title>16&#45;&gt;48</title>
<path fill="none" stroke="black" d="M1604.99,-164.365C1521.6,-168.592 1285.75,-183.206 1216.5,-216 1195.47,-225.957 1196.54,-237.305 1178.5,-252 1165.61,-262.502 1150.74,-273.163 1137.59,-282.143"/>
<polygon fill="black" stroke="black" points="1129.23,-287.783 1135.01,-278.458 1133.38,-284.986 1137.52,-282.188 1137.52,-282.188 1137.52,-282.188 1133.38,-284.986 1140.04,-285.918 1129.23,-287.783 1129.23,-287.783"/>
</g>
<!-- 49 -->
<g id="node50" class="node"><title>49</title>
<polygon fill="none" stroke="black" points="1169.5,-252 1035.5,-252 1035.5,-216 1169.5,-216 1169.5,-252"/>
<text text-anchor="middle" x="1102.5" y="-230.3" font-family="Times,serif" font-size="14.00">Policies.klUCBHPlus</text>
</g>
<!-- 16&#45;&gt;49 -->
<g id="edge53" class="edge"><title>16&#45;&gt;49</title>
<path fill="none" stroke="black" d="M1604.82,-165.557C1532.49,-171.99 1341.45,-190.198 1183.5,-216 1182.22,-216.208 1180.94,-216.423 1179.64,-216.644"/>
<polygon fill="black" stroke="black" points="1169.6,-218.433 1178.65,-212.249 1174.52,-217.556 1179.44,-216.679 1179.44,-216.679 1179.44,-216.679 1174.52,-217.556 1180.23,-221.11 1169.6,-218.433 1169.6,-218.433"/>
</g>
<!-- 50 -->
<g id="node51" class="node"><title>50</title>
<polygon fill="none" stroke="black" points="1351,-252 1226,-252 1226,-216 1351,-216 1351,-252"/>
<text text-anchor="middle" x="1288.5" y="-230.3" font-family="Times,serif" font-size="14.00">Policies.klUCBPlus</text>
</g>
<!-- 16&#45;&gt;50 -->
<g id="edge54" class="edge"><title>16&#45;&gt;50</title>
<path fill="none" stroke="black" d="M1604.6,-168.661C1554.9,-178.122 1452.16,-197.898 1365.5,-216 1364.03,-216.306 1362.55,-216.617 1361.06,-216.932"/>
<polygon fill="black" stroke="black" points="1351.09,-219.057 1359.93,-212.572 1355.98,-218.015 1360.87,-216.973 1360.87,-216.973 1360.87,-216.973 1355.98,-218.015 1361.81,-221.374 1351.09,-219.057 1351.09,-219.057"/>
</g>
<!-- 19 -->
<g id="node20" class="node"><title>19</title>
<polygon fill="none" stroke="black" points="2508.5,-540 2384.5,-540 2384.5,-504 2508.5,-504 2508.5,-540"/>
<text text-anchor="middle" x="2446.5" y="-518.3" font-family="Times,serif" font-size="14.00">Policies.BasePolicy</text>
</g>
<!-- 17&#45;&gt;19 -->
<g id="edge55" class="edge"><title>17&#45;&gt;19</title>
<path fill="none" stroke="black" d="M511.242,-324.059C513.748,-358.12 524.697,-434.18 572.5,-468 647.243,-520.881 2038.76,-521.746 2374.2,-521.182"/>
<polygon fill="black" stroke="black" points="2384.28,-521.164 2374.29,-525.682 2379.28,-521.173 2374.28,-521.182 2374.28,-521.182 2374.28,-521.182 2379.28,-521.173 2374.27,-516.682 2384.28,-521.164 2384.28,-521.164"/>
</g>
<!-- 22 -->
<g id="node23" class="node"><title>22</title>
<polygon fill="none" stroke="black" points="681.5,-396 593.5,-396 593.5,-360 681.5,-360 681.5,-396"/>
<text text-anchor="middle" x="637.5" y="-374.3" font-family="Times,serif" font-size="14.00">Policies.Beta</text>
</g>
<!-- 17&#45;&gt;22 -->
<g id="edge56" class="edge"><title>17&#45;&gt;22</title>
<path fill="none" stroke="black" d="M541.568,-324.124C558.327,-333.361 579.206,-344.869 597.202,-354.788"/>
<polygon fill="black" stroke="black" points="606.313,-359.81 595.383,-358.924 601.934,-357.397 597.555,-354.983 597.555,-354.983 597.555,-354.983 601.934,-357.397 599.727,-351.042 606.313,-359.81 606.313,-359.81"/>
</g>
<!-- 18&#45;&gt;19 -->
<g id="edge57" class="edge"><title>18&#45;&gt;19</title>
<path fill="none" stroke="black" d="M489.238,-461.972C500.989,-464.38 513.658,-466.62 525.5,-468 893.719,-510.907 2070.22,-519.259 2374.24,-520.716"/>
<polygon fill="black" stroke="black" points="2384.26,-520.763 2374.24,-525.216 2379.26,-520.74 2374.26,-520.716 2374.26,-520.716 2374.26,-520.716 2379.26,-520.74 2374.28,-516.216 2384.26,-520.763 2384.26,-520.763"/>
</g>
<!-- 21 -->
<g id="node22" class="node"><title>21</title>
<polygon fill="none" stroke="black" points="767.5,-324 589.5,-324 589.5,-288 767.5,-288 767.5,-324"/>
<text text-anchor="middle" x="678.5" y="-302.3" font-family="Times,serif" font-size="14.00">Policies.BayesianIndexPolicy</text>
</g>
<!-- 20&#45;&gt;21 -->
<g id="edge58" class="edge"><title>20&#45;&gt;21</title>
<path fill="none" stroke="black" d="M753.282,-252.124C740.577,-261.107 724.836,-272.237 711.077,-281.966"/>
<polygon fill="black" stroke="black" points="702.811,-287.81 708.378,-278.363 706.894,-284.924 710.976,-282.037 710.976,-282.037 710.976,-282.037 706.894,-284.924 713.574,-285.711 702.811,-287.81 702.811,-287.81"/>
</g>
<!-- 21&#45;&gt;22 -->
<g id="edge59" class="edge"><title>21&#45;&gt;22</title>
<path fill="none" stroke="black" d="M668.365,-324.303C663.648,-332.356 657.938,-342.106 652.718,-351.018"/>
<polygon fill="black" stroke="black" points="647.518,-359.896 648.689,-348.992 650.045,-355.581 652.572,-351.267 652.572,-351.267 652.572,-351.267 650.045,-355.581 656.455,-353.541 647.518,-359.896 647.518,-359.896"/>
</g>
<!-- 29 -->
<g id="node30" class="node"><title>29</title>
<polygon fill="none" stroke="black" points="1127.5,-468 999.5,-468 999.5,-432 1127.5,-432 1127.5,-468"/>
<text text-anchor="middle" x="1063.5" y="-446.3" font-family="Times,serif" font-size="14.00">Policies.IndexPolicy</text>
</g>
<!-- 21&#45;&gt;29 -->
<g id="edge60" class="edge"><title>21&#45;&gt;29</title>
<path fill="none" stroke="black" d="M692.628,-324.13C710.578,-344.665 743.573,-378.494 779.5,-396 845.885,-428.348 929.85,-441.018 989.214,-445.945"/>
<polygon fill="black" stroke="black" points="999.262,-446.725 988.944,-450.438 994.277,-446.338 989.292,-445.951 989.292,-445.951 989.292,-445.951 994.277,-446.338 989.64,-441.465 999.262,-446.725 999.262,-446.725"/>
</g>
<!-- 34 -->
<g id="node35" class="node"><title>34</title>
<polygon fill="none" stroke="black" points="693.5,-468 581.5,-468 581.5,-432 693.5,-432 693.5,-468"/>
<text text-anchor="middle" x="637.5" y="-446.3" font-family="Times,serif" font-size="14.00">Policies.Posterior</text>
</g>
<!-- 22&#45;&gt;34 -->
<g id="edge61" class="edge"><title>22&#45;&gt;34</title>
<path fill="none" stroke="black" d="M637.5,-396.303C637.5,-404.017 637.5,-413.288 637.5,-421.888"/>
<polygon fill="black" stroke="black" points="637.5,-431.896 633,-421.896 637.5,-426.896 637.5,-421.896 637.5,-421.896 637.5,-421.896 637.5,-426.896 642,-421.896 637.5,-431.896 637.5,-431.896"/>
</g>
<!-- 23&#45;&gt;27 -->
<g id="edge62" class="edge"><title>23&#45;&gt;27</title>
<path fill="none" stroke="black" d="M1913.23,-250.437C1916.36,-250.973 1919.46,-251.496 1922.5,-252 2018.26,-267.852 2128.68,-283.664 2202.14,-293.835"/>
<polygon fill="black" stroke="black" points="2212.26,-295.232 2201.74,-298.322 2207.31,-294.548 2202.35,-293.864 2202.35,-293.864 2202.35,-293.864 2207.31,-294.548 2202.97,-289.406 2212.26,-295.232 2212.26,-295.232"/>
</g>
<!-- 24&#45;&gt;27 -->
<g id="edge63" class="edge"><title>24&#45;&gt;27</title>
<path fill="none" stroke="black" d="M2095.34,-252.034C2131.03,-262.028 2176.29,-274.702 2213.59,-285.146"/>
<polygon fill="black" stroke="black" points="2223.39,-287.889 2212.55,-289.526 2218.58,-286.541 2213.76,-285.193 2213.76,-285.193 2213.76,-285.193 2218.58,-286.541 2214.97,-280.859 2223.39,-287.889 2223.39,-287.889"/>
</g>
<!-- 25&#45;&gt;27 -->
<g id="edge64" class="edge"><title>25&#45;&gt;27</title>
<path fill="none" stroke="black" d="M2258.15,-252.303C2262.14,-260.272 2266.95,-269.9 2271.37,-278.736"/>
<polygon fill="black" stroke="black" points="2275.95,-287.896 2267.45,-280.964 2273.71,-283.424 2271.48,-278.951 2271.48,-278.951 2271.48,-278.951 2273.71,-283.424 2275.5,-276.939 2275.95,-287.896 2275.95,-287.896"/>
</g>
<!-- 26&#45;&gt;27 -->
<g id="edge65" class="edge"><title>26&#45;&gt;27</title>
<path fill="none" stroke="black" d="M2391.01,-252.124C2372.06,-261.531 2348.37,-273.292 2328.14,-283.333"/>
<polygon fill="black" stroke="black" points="2319.13,-287.81 2326.08,-279.333 2323.6,-285.587 2328.08,-283.363 2328.08,-283.363 2328.08,-283.363 2323.6,-285.587 2330.08,-287.394 2319.13,-287.81 2319.13,-287.81"/>
</g>
<!-- 27&#45;&gt;19 -->
<g id="edge66" class="edge"><title>27&#45;&gt;19</title>
<path fill="none" stroke="black" d="M2297.48,-324.151C2325.92,-361.716 2393.83,-451.425 2427.25,-495.574"/>
<polygon fill="black" stroke="black" points="2433.45,-503.768 2423.83,-498.511 2430.44,-499.781 2427.42,-495.794 2427.42,-495.794 2427.42,-495.794 2430.44,-499.781 2431.01,-493.078 2433.45,-503.768 2433.45,-503.768"/>
</g>
<!-- 28&#45;&gt;19 -->
<g id="edge67" class="edge"><title>28&#45;&gt;19</title>
<path fill="none" stroke="black" d="M2445.32,-396.297C2437.77,-406.061 2429.43,-418.905 2425.5,-432 2419.26,-452.783 2425.67,-476.745 2433,-494.566"/>
<polygon fill="black" stroke="black" points="2437.09,-503.776 2428.92,-496.466 2435.06,-499.207 2433.03,-494.638 2433.03,-494.638 2433.03,-494.638 2435.06,-499.207 2437.14,-492.811 2437.09,-503.776 2437.09,-503.776"/>
</g>
<!-- 29&#45;&gt;19 -->
<g id="edge68" class="edge"><title>29&#45;&gt;19</title>
<path fill="none" stroke="black" d="M1127.89,-454.259C1357.23,-465.867 2133.36,-505.15 2374.44,-517.353"/>
<polygon fill="black" stroke="black" points="2384.5,-517.862 2374.28,-521.85 2379.5,-517.609 2374.51,-517.356 2374.51,-517.356 2374.51,-517.356 2379.5,-517.609 2374.74,-512.862 2384.5,-517.862 2384.5,-517.862"/>
</g>
<!-- 30 -->
<g id="node31" class="node"><title>30</title>
<polygon fill="none" stroke="black" points="995,-324 862,-324 862,-288 995,-288 995,-324"/>
<text text-anchor="middle" x="928.5" y="-302.3" font-family="Times,serif" font-size="14.00">Policies.KLempUCB</text>
</g>
<!-- 30&#45;&gt;29 -->
<g id="edge69" class="edge"><title>30&#45;&gt;29</title>
<path fill="none" stroke="black" d="M931.552,-324.293C935.762,-343.747 945.029,-375.321 963.5,-396 975.208,-409.107 990.942,-419.526 1006.46,-427.534"/>
<polygon fill="black" stroke="black" points="1015.54,-431.972 1004.58,-431.623 1011.05,-429.776 1006.56,-427.58 1006.56,-427.58 1006.56,-427.58 1011.05,-429.776 1008.53,-423.537 1015.54,-431.972 1015.54,-431.972"/>
</g>
<!-- 51 -->
<g id="node52" class="node"><title>51</title>
<polygon fill="none" stroke="black" points="898.5,-396 788.5,-396 788.5,-360 898.5,-360 898.5,-396"/>
<text text-anchor="middle" x="843.5" y="-374.3" font-family="Times,serif" font-size="14.00">Policies.kullback</text>
</g>
<!-- 30&#45;&gt;51 -->
<g id="edge70" class="edge"><title>30&#45;&gt;51</title>
<path fill="none" stroke="black" d="M907.489,-324.303C896.784,-333.119 883.61,-343.968 872.004,-353.526"/>
<polygon fill="black" stroke="black" points="864.27,-359.896 869.128,-350.065 868.129,-356.717 871.989,-353.539 871.989,-353.539 871.989,-353.539 868.129,-356.717 874.85,-357.012 864.27,-359.896 864.27,-359.896"/>
</g>
<!-- 31&#45;&gt;19 -->
<g id="edge71" class="edge"><title>31&#45;&gt;19</title>
<path fill="none" stroke="black" d="M2476.61,-468.303C2472.01,-476.356 2466.44,-486.106 2461.35,-495.018"/>
<polygon fill="black" stroke="black" points="2456.27,-503.896 2457.33,-492.981 2458.75,-499.554 2461.24,-495.213 2461.24,-495.213 2461.24,-495.213 2458.75,-499.554 2465.14,-497.446 2456.27,-503.896 2456.27,-503.896"/>
</g>
<!-- 32&#45;&gt;29 -->
<g id="edge72" class="edge"><title>32&#45;&gt;29</title>
<path fill="none" stroke="black" d="M1033.39,-396.303C1037.99,-404.356 1043.56,-414.106 1048.65,-423.018"/>
<polygon fill="black" stroke="black" points="1053.73,-431.896 1044.86,-425.446 1051.25,-427.554 1048.76,-423.213 1048.76,-423.213 1048.76,-423.213 1051.25,-427.554 1052.67,-420.981 1053.73,-431.896 1053.73,-431.896"/>
</g>
<!-- 33&#45;&gt;19 -->
<g id="edge73" class="edge"><title>33&#45;&gt;19</title>
<path fill="none" stroke="black" d="M2581.71,-468.124C2556.92,-477.821 2525.72,-490.02 2499.54,-500.257"/>
<polygon fill="black" stroke="black" points="2490.15,-503.932 2497.82,-496.099 2494.8,-502.111 2499.46,-500.29 2499.46,-500.29 2499.46,-500.29 2494.8,-502.111 2501.1,-504.481 2490.15,-503.932 2490.15,-503.932"/>
</g>
<!-- 35&#45;&gt;19 -->
<g id="edge74" class="edge"><title>35&#45;&gt;19</title>
<path fill="none" stroke="black" d="M2718.29,-396.197C2720.47,-416.161 2720.6,-448.796 2702.5,-468 2677.81,-494.192 2585.45,-508.274 2518.74,-515.197"/>
<polygon fill="black" stroke="black" points="2508.69,-516.207 2518.19,-510.73 2513.66,-515.707 2518.64,-515.207 2518.64,-515.207 2518.64,-515.207 2513.66,-515.707 2519.09,-519.685 2508.69,-516.207 2508.69,-516.207"/>
</g>
<!-- 36&#45;&gt;19 -->
<g id="edge75" class="edge"><title>36&#45;&gt;19</title>
<path fill="none" stroke="black" d="M2797.1,-324.102C2795.08,-342.556 2790.33,-372.462 2779.5,-396 2762.66,-432.58 2758.76,-446.835 2724.5,-468 2690.84,-488.799 2589.47,-504.407 2518.93,-513.122"/>
<polygon fill="black" stroke="black" points="2508.76,-514.358 2518.15,-508.685 2513.72,-513.755 2518.69,-513.152 2518.69,-513.152 2518.69,-513.152 2513.72,-513.755 2519.23,-517.619 2508.76,-514.358 2508.76,-514.358"/>
</g>
<!-- 37&#45;&gt;36 -->
<g id="edge76" class="edge"><title>37&#45;&gt;36</title>
<path fill="none" stroke="black" d="M2796.24,-252.303C2796.57,-260.017 2796.97,-269.288 2797.34,-277.888"/>
<polygon fill="black" stroke="black" points="2797.77,-287.896 2792.84,-278.098 2797.55,-282.9 2797.34,-277.905 2797.34,-277.905 2797.34,-277.905 2797.55,-282.9 2801.83,-277.712 2797.77,-287.896 2797.77,-287.896"/>
</g>
<!-- 38&#45;&gt;21 -->
<g id="edge77" class="edge"><title>38&#45;&gt;21</title>
<path fill="none" stroke="black" d="M860.096,-252.034C825.98,-261.985 782.75,-274.594 747.028,-285.013"/>
<polygon fill="black" stroke="black" points="737.166,-287.889 745.506,-280.769 741.966,-286.489 746.766,-285.089 746.766,-285.089 746.766,-285.089 741.966,-286.489 748.026,-289.409 737.166,-287.889 737.166,-287.889"/>
</g>
<!-- 39&#45;&gt;29 -->
<g id="edge78" class="edge"><title>39&#45;&gt;29</title>
<path fill="none" stroke="black" d="M1459.86,-386.228C1383.65,-398.298 1229.77,-422.668 1137.77,-437.237"/>
<polygon fill="black" stroke="black" points="1127.69,-438.833 1136.87,-432.824 1132.63,-438.051 1137.57,-437.269 1137.57,-437.269 1137.57,-437.269 1132.63,-438.051 1138.28,-441.714 1127.69,-438.833 1127.69,-438.833"/>
</g>
<!-- 40&#45;&gt;39 -->
<g id="edge79" class="edge"><title>40&#45;&gt;39</title>
<path fill="none" stroke="black" d="M1643.73,-324.124C1618.38,-333.821 1586.49,-346.02 1559.73,-356.257"/>
<polygon fill="black" stroke="black" points="1550.12,-359.932 1557.85,-352.156 1554.79,-358.145 1559.46,-356.359 1559.46,-356.359 1559.46,-356.359 1554.79,-358.145 1561.07,-360.562 1550.12,-359.932 1550.12,-359.932"/>
</g>
<!-- 41&#45;&gt;40 -->
<g id="edge80" class="edge"><title>41&#45;&gt;40</title>
<path fill="none" stroke="black" d="M1612.21,-252.124C1625.17,-261.107 1641.23,-272.237 1655.27,-281.966"/>
<polygon fill="black" stroke="black" points="1663.7,-287.81 1652.92,-285.812 1659.59,-284.962 1655.48,-282.114 1655.48,-282.114 1655.48,-282.114 1659.59,-284.962 1658.04,-278.415 1663.7,-287.81 1663.7,-287.81"/>
</g>
<!-- 42&#45;&gt;39 -->
<g id="edge81" class="edge"><title>42&#45;&gt;39</title>
<path fill="none" stroke="black" d="M1757.19,-321.738C1753.91,-322.51 1750.67,-323.268 1747.5,-324 1683.59,-338.756 1609.95,-354.738 1560.85,-365.25"/>
<polygon fill="black" stroke="black" points="1551.06,-367.343 1559.9,-360.852 1555.95,-366.298 1560.84,-365.252 1560.84,-365.252 1560.84,-365.252 1555.95,-366.298 1561.78,-369.653 1551.06,-367.343 1551.06,-367.343"/>
</g>
<!-- 43&#45;&gt;39 -->
<g id="edge82" class="edge"><title>43&#45;&gt;39</title>
<path fill="none" stroke="black" d="M1279.77,-321.734C1282.72,-322.507 1285.65,-323.267 1288.5,-324 1343.21,-338.06 1405.91,-353.278 1449.8,-363.785"/>
<polygon fill="black" stroke="black" points="1459.7,-366.151 1448.93,-368.203 1454.84,-364.989 1449.97,-363.826 1449.97,-363.826 1449.97,-363.826 1454.84,-364.989 1451.02,-359.45 1459.7,-366.151 1459.7,-366.151"/>
</g>
<!-- 44&#45;&gt;39 -->
<g id="edge83" class="edge"><title>44&#45;&gt;39</title>
<path fill="none" stroke="black" d="M1391.44,-324.124C1411.99,-333.651 1437.75,-345.593 1459.59,-355.717"/>
<polygon fill="black" stroke="black" points="1468.68,-359.932 1457.72,-359.808 1464.14,-357.829 1459.61,-355.726 1459.61,-355.726 1459.61,-355.726 1464.14,-357.829 1461.5,-351.643 1468.68,-359.932 1468.68,-359.932"/>
</g>
<!-- 45&#45;&gt;39 -->
<g id="edge84" class="edge"><title>45&#45;&gt;39</title>
<path fill="none" stroke="black" d="M1505.5,-324.303C1505.5,-332.017 1505.5,-341.288 1505.5,-349.888"/>
<polygon fill="black" stroke="black" points="1505.5,-359.896 1501,-349.896 1505.5,-354.896 1505.5,-349.896 1505.5,-349.896 1505.5,-349.896 1505.5,-354.896 1510,-349.896 1505.5,-359.896 1505.5,-359.896"/>
</g>
<!-- 46&#45;&gt;19 -->
<g id="edge85" class="edge"><title>46&#45;&gt;19</title>
<path fill="none" stroke="black" d="M2943.01,-324.243C2911.64,-357.948 2836.83,-432.376 2757.5,-468 2680.67,-502.502 2583.92,-514.678 2518.91,-518.901"/>
<polygon fill="black" stroke="black" points="2508.76,-519.512 2518.47,-514.419 2513.75,-519.212 2518.74,-518.911 2518.74,-518.911 2518.74,-518.911 2513.75,-519.212 2519.01,-523.403 2508.76,-519.512 2508.76,-519.512"/>
</g>
<!-- 47&#45;&gt;46 -->
<g id="edge86" class="edge"><title>47&#45;&gt;46</title>
<path fill="none" stroke="black" d="M3039.32,-252.124C3025.46,-261.192 3008.26,-272.448 2993.29,-282.241"/>
<polygon fill="black" stroke="black" points="2984.78,-287.81 2990.68,-278.57 2988.96,-285.073 2993.14,-282.336 2993.14,-282.336 2993.14,-282.336 2988.96,-285.073 2995.61,-286.101 2984.78,-287.81 2984.78,-287.81"/>
</g>
<!-- 48&#45;&gt;29 -->
<g id="edge87" class="edge"><title>48&#45;&gt;29</title>
<path fill="none" stroke="black" d="M1099.28,-324.221C1095.76,-342.267 1089.65,-371.362 1082.5,-396 1079.98,-404.676 1076.8,-413.995 1073.77,-422.362"/>
<polygon fill="black" stroke="black" points="1070.2,-431.99 1069.46,-421.049 1071.94,-427.302 1073.68,-422.614 1073.68,-422.614 1073.68,-422.614 1071.94,-427.302 1077.9,-424.179 1070.2,-431.99 1070.2,-431.99"/>
</g>
<!-- 48&#45;&gt;51 -->
<g id="edge88" class="edge"><title>48&#45;&gt;51</title>
<path fill="none" stroke="black" d="M1051.95,-320.663C1011.03,-331.723 953.095,-347.38 908.688,-359.382"/>
<polygon fill="black" stroke="black" points="898.857,-362.039 907.337,-355.085 903.684,-360.734 908.511,-359.429 908.511,-359.429 908.511,-359.429 903.684,-360.734 909.685,-363.774 898.857,-362.039 898.857,-362.039"/>
</g>
<!-- 49&#45;&gt;48 -->
<g id="edge89" class="edge"><title>49&#45;&gt;48</title>
<path fill="none" stroke="black" d="M1102.5,-252.303C1102.5,-260.017 1102.5,-269.288 1102.5,-277.888"/>
<polygon fill="black" stroke="black" points="1102.5,-287.896 1098,-277.896 1102.5,-282.896 1102.5,-277.896 1102.5,-277.896 1102.5,-277.896 1102.5,-282.896 1107,-277.896 1102.5,-287.896 1102.5,-287.896"/>
</g>
<!-- 49&#45;&gt;51 -->
<g id="edge90" class="edge"><title>49&#45;&gt;51</title>
<path fill="none" stroke="black" d="M1035.46,-245.065C965.654,-256.189 864.76,-274.337 852.5,-288 837.71,-304.482 836.604,-330.216 838.527,-349.781"/>
<polygon fill="black" stroke="black" points="839.838,-359.918 834.092,-350.578 839.197,-354.959 838.555,-350.001 838.555,-350.001 838.555,-350.001 839.197,-354.959 843.018,-349.423 839.838,-359.918 839.838,-359.918"/>
</g>
<!-- 50&#45;&gt;48 -->
<g id="edge91" class="edge"><title>50&#45;&gt;48</title>
<path fill="none" stroke="black" d="M1243,-252.124C1217.12,-261.863 1184.53,-274.128 1157.26,-284.392"/>
<polygon fill="black" stroke="black" points="1147.85,-287.932 1155.63,-280.198 1152.53,-286.171 1157.21,-284.409 1157.21,-284.409 1157.21,-284.409 1152.53,-286.171 1158.8,-288.621 1147.85,-287.932 1147.85,-287.932"/>
</g>
<!-- 52 -->
<g id="node53" class="node"><title>52</title>
<polygon fill="none" stroke="black" points="4768.5,-180 4638.5,-180 4638.5,-144 4768.5,-144 4768.5,-180"/>
<text text-anchor="middle" x="4703.5" y="-158.3" font-family="Times,serif" font-size="14.00">PoliciesMultiPlayers</text>
</g>
<!-- 53 -->
<g id="node54" class="node"><title>53</title>
<polygon fill="none" stroke="black" points="4121,-252 3940,-252 3940,-216 4121,-216 4121,-252"/>
<text text-anchor="middle" x="4030.5" y="-230.3" font-family="Times,serif" font-size="14.00">PoliciesMultiPlayers.ALOHA</text>
</g>
<!-- 52&#45;&gt;53 -->
<g id="edge92" class="edge"><title>52&#45;&gt;53</title>
<path fill="none" stroke="black" d="M4638.44,-167.396C4533.85,-174.821 4321.63,-191.357 4131.4,-215.943"/>
<polygon fill="black" stroke="black" points="4121.21,-217.27 4130.54,-211.516 4126.16,-216.624 4131.12,-215.978 4131.12,-215.978 4131.12,-215.978 4126.16,-216.624 4131.7,-220.441 4121.21,-217.27 4121.21,-217.27"/>
</g>
<!-- 56 -->
<g id="node57" class="node"><title>56</title>
<polygon fill="none" stroke="black" points="5490,-252 5251,-252 5251,-216 5490,-216 5490,-252"/>
<text text-anchor="middle" x="5370.5" y="-230.3" font-family="Times,serif" font-size="14.00">PoliciesMultiPlayers.CentralizedCycling</text>
</g>
<!-- 52&#45;&gt;56 -->
<g id="edge93" class="edge"><title>52&#45;&gt;56</title>
<path fill="none" stroke="black" d="M4768.71,-168.69C4868.25,-177.537 5064.35,-195.592 5240.95,-215.84"/>
<polygon fill="black" stroke="black" points="5250.94,-216.991 5240.49,-220.317 5245.97,-216.419 5241.01,-215.847 5241.01,-215.847 5241.01,-215.847 5245.97,-216.419 5241.52,-211.376 5250.94,-216.991 5250.94,-216.991"/>
</g>
<!-- 57 -->
<g id="node58" class="node"><title>57</title>
<polygon fill="none" stroke="black" points="5735,-252 5508,-252 5508,-216 5735,-216 5735,-252"/>
<text text-anchor="middle" x="5621.5" y="-230.3" font-family="Times,serif" font-size="14.00">PoliciesMultiPlayers.CentralizedFixed</text>
</g>
<!-- 52&#45;&gt;57 -->
<g id="edge94" class="edge"><title>52&#45;&gt;57</title>
<path fill="none" stroke="black" d="M4768.64,-165.747C4903.01,-171.759 5220.89,-187.764 5497.65,-215.849"/>
<polygon fill="black" stroke="black" points="5507.89,-216.896 5497.48,-220.356 5502.91,-216.387 5497.94,-215.879 5497.94,-215.879 5497.94,-215.879 5502.91,-216.387 5498.4,-211.402 5507.89,-216.896 5507.89,-216.896"/>
</g>
<!-- 58 -->
<g id="node59" class="node"><title>58</title>
<polygon fill="none" stroke="black" points="4406,-252 4139,-252 4139,-216 4406,-216 4406,-252"/>
<text text-anchor="middle" x="4272.5" y="-230.3" font-family="Times,serif" font-size="14.00">PoliciesMultiPlayers.CentralizedMultiplePlay</text>
</g>
<!-- 52&#45;&gt;58 -->
<g id="edge95" class="edge"><title>52&#45;&gt;58</title>
<path fill="none" stroke="black" d="M4638.04,-173.631C4571.65,-184.415 4467.53,-201.325 4387.37,-214.344"/>
<polygon fill="black" stroke="black" points="4377.22,-215.992 4386.37,-209.947 4382.16,-215.191 4387.09,-214.389 4387.09,-214.389 4387.09,-214.389 4382.16,-215.191 4387.81,-218.831 4377.22,-215.992 4377.22,-215.992"/>
</g>
<!-- 61 -->
<g id="node62" class="node"><title>61</title>
<polygon fill="none" stroke="black" points="5003,-252 4812,-252 4812,-216 5003,-216 5003,-252"/>
<text text-anchor="middle" x="4907.5" y="-230.3" font-family="Times,serif" font-size="14.00">PoliciesMultiPlayers.OracleFair</text>
</g>
<!-- 52&#45;&gt;61 -->
<g id="edge96" class="edge"><title>52&#45;&gt;61</title>
<path fill="none" stroke="black" d="M4753.14,-180.034C4781.77,-189.858 4817.95,-202.271 4848.08,-212.611"/>
<polygon fill="black" stroke="black" points="4857.63,-215.889 4846.72,-216.9 4852.9,-214.266 4848.18,-212.644 4848.18,-212.644 4848.18,-212.644 4852.9,-214.266 4849.64,-208.387 4857.63,-215.889 4857.63,-215.889"/>
</g>
<!-- 62 -->
<g id="node63" class="node"><title>62</title>
<polygon fill="none" stroke="black" points="5233.5,-252 5021.5,-252 5021.5,-216 5233.5,-216 5233.5,-252"/>
<text text-anchor="middle" x="5127.5" y="-230.3" font-family="Times,serif" font-size="14.00">PoliciesMultiPlayers.OracleNotFair</text>
</g>
<!-- 52&#45;&gt;62 -->
<g id="edge97" class="edge"><title>52&#45;&gt;62</title>
<path fill="none" stroke="black" d="M4768.82,-173.784C4834.09,-184.56 4935.75,-201.343 5014.19,-214.294"/>
<polygon fill="black" stroke="black" points="5024.13,-215.934 5013.53,-218.745 5019.19,-215.119 5014.26,-214.305 5014.26,-214.305 5014.26,-214.305 5019.19,-215.119 5014.99,-209.865 5024.13,-215.934 5024.13,-215.934"/>
</g>
<!-- 63 -->
<g id="node64" class="node"><title>63</title>
<polygon fill="none" stroke="black" points="4595,-252 4424,-252 4424,-216 4595,-216 4595,-252"/>
<text text-anchor="middle" x="4509.5" y="-230.3" font-family="Times,serif" font-size="14.00">PoliciesMultiPlayers.Selfish</text>
</g>
<!-- 52&#45;&gt;63 -->
<g id="edge98" class="edge"><title>52&#45;&gt;63</title>
<path fill="none" stroke="black" d="M4656.04,-180.124C4628.93,-189.906 4594.76,-202.235 4566.24,-212.526"/>
<polygon fill="black" stroke="black" points="4556.8,-215.932 4564.68,-208.305 4561.51,-214.235 4566.21,-212.538 4566.21,-212.538 4566.21,-212.538 4561.51,-214.235 4567.74,-216.77 4556.8,-215.932 4556.8,-215.932"/>
</g>
<!-- 65 -->
<g id="node66" class="node"><title>65</title>
<polygon fill="none" stroke="black" points="4793.5,-252 4613.5,-252 4613.5,-216 4793.5,-216 4793.5,-252"/>
<text text-anchor="middle" x="4703.5" y="-230.3" font-family="Times,serif" font-size="14.00">PoliciesMultiPlayers.rhoRand</text>
</g>
<!-- 52&#45;&gt;65 -->
<g id="edge99" class="edge"><title>52&#45;&gt;65</title>
<path fill="none" stroke="black" d="M4703.5,-180.303C4703.5,-188.017 4703.5,-197.288 4703.5,-205.888"/>
<polygon fill="black" stroke="black" points="4703.5,-215.896 4699,-205.896 4703.5,-210.896 4703.5,-205.896 4703.5,-205.896 4703.5,-205.896 4703.5,-210.896 4708,-205.896 4703.5,-215.896 4703.5,-215.896"/>
</g>
<!-- 55 -->
<g id="node56" class="node"><title>55</title>
<polygon fill="none" stroke="black" points="4799,-324 4584,-324 4584,-288 4799,-288 4799,-324"/>
<text text-anchor="middle" x="4691.5" y="-302.3" font-family="Times,serif" font-size="14.00">PoliciesMultiPlayers.BaseMPPolicy</text>
</g>
<!-- 53&#45;&gt;55 -->
<g id="edge100" class="edge"><title>53&#45;&gt;55</title>
<path fill="none" stroke="black" d="M4121.21,-250.722C4124.34,-251.169 4127.44,-251.597 4130.5,-252 4283.13,-272.156 4460.12,-287.56 4573.83,-296.437"/>
<polygon fill="black" stroke="black" points="4583.95,-297.223 4573.63,-300.935 4578.96,-296.835 4573.98,-296.448 4573.98,-296.448 4573.98,-296.448 4578.96,-296.835 4574.33,-291.962 4583.95,-297.223 4583.95,-297.223"/>
</g>
<!-- 59 -->
<g id="node60" class="node"><title>59</title>
<polygon fill="none" stroke="black" points="5020,-324 4817,-324 4817,-288 5020,-288 5020,-324"/>
<text text-anchor="middle" x="4918.5" y="-302.3" font-family="Times,serif" font-size="14.00">PoliciesMultiPlayers.ChildPointer</text>
</g>
<!-- 53&#45;&gt;59 -->
<g id="edge101" class="edge"><title>53&#45;&gt;59</title>
<path fill="none" stroke="black" d="M4121.19,-250.886C4124.33,-251.286 4127.44,-251.659 4130.5,-252 4427.04,-284.968 4506.57,-257.548 4806.65,-287.872"/>
<polygon fill="black" stroke="black" points="4816.96,-288.928 4806.55,-292.386 4811.99,-288.419 4807.01,-287.909 4807.01,-287.909 4807.01,-287.909 4811.99,-288.419 4807.47,-283.433 4816.96,-288.928 4816.96,-288.928"/>
</g>
<!-- 54 -->
<g id="node55" class="node"><title>54</title>
<polygon fill="none" stroke="black" points="5402,-324 5145,-324 5145,-288 5402,-288 5402,-324"/>
<text text-anchor="middle" x="5273.5" y="-302.3" font-family="Times,serif" font-size="14.00">PoliciesMultiPlayers.BaseCentralizedPolicy</text>
</g>
<!-- 56&#45;&gt;54 -->
<g id="edge102" class="edge"><title>56&#45;&gt;54</title>
<path fill="none" stroke="black" d="M5346.52,-252.303C5334.19,-261.204 5318.98,-272.177 5305.65,-281.801"/>
<polygon fill="black" stroke="black" points="5297.2,-287.896 5302.68,-278.395 5301.26,-284.97 5305.31,-282.044 5305.31,-282.044 5305.31,-282.044 5301.26,-284.97 5307.94,-285.693 5297.2,-287.896 5297.2,-287.896"/>
</g>
<!-- 56&#45;&gt;55 -->
<g id="edge103" class="edge"><title>56&#45;&gt;55</title>
<path fill="none" stroke="black" d="M5250.95,-251.067C5248.11,-251.388 5245.29,-251.7 5242.5,-252 5053.35,-272.393 5002.53,-266.294 4809.41,-287.941"/>
<polygon fill="black" stroke="black" points="4799.21,-289.096 4808.64,-283.5 4804.18,-288.533 4809.15,-287.971 4809.15,-287.971 4809.15,-287.971 4804.18,-288.533 4809.65,-292.443 4799.21,-289.096 4799.21,-289.096"/>
</g>
<!-- 56&#45;&gt;59 -->
<g id="edge104" class="edge"><title>56&#45;&gt;59</title>
<path fill="none" stroke="black" d="M5260.51,-252.034C5190.64,-262.854 5100.49,-276.816 5030.28,-287.688"/>
<polygon fill="black" stroke="black" points="5020.07,-289.269 5029.27,-283.292 5025.02,-288.504 5029.96,-287.739 5029.96,-287.739 5029.96,-287.739 5025.02,-288.504 5030.65,-292.186 5020.07,-289.269 5020.07,-289.269"/>
</g>
<!-- 57&#45;&gt;54 -->
<g id="edge105" class="edge"><title>57&#45;&gt;54</title>
<path fill="none" stroke="black" d="M5536.81,-252.034C5485.88,-262.28 5420.93,-275.345 5368.28,-285.935"/>
<polygon fill="black" stroke="black" points="5358.26,-287.95 5367.18,-281.566 5363.16,-286.964 5368.07,-285.978 5368.07,-285.978 5368.07,-285.978 5363.16,-286.964 5368.95,-290.39 5358.26,-287.95 5358.26,-287.95"/>
</g>
<!-- 57&#45;&gt;55 -->
<g id="edge106" class="edge"><title>57&#45;&gt;55</title>
<path fill="none" stroke="black" d="M5507.89,-251.158C5505.07,-251.454 5502.27,-251.736 5499.5,-252 5196.65,-280.934 5116.27,-258.355 4809.28,-287.987"/>
<polygon fill="black" stroke="black" points="4799.2,-288.971 4808.71,-283.52 4804.17,-288.485 4809.15,-287.999 4809.15,-287.999 4809.15,-287.999 4804.17,-288.485 4809.59,-292.478 4799.2,-288.971 4799.2,-288.971"/>
</g>
<!-- 57&#45;&gt;59 -->
<g id="edge107" class="edge"><title>57&#45;&gt;59</title>
<path fill="none" stroke="black" d="M5507.88,-251.013C5505.06,-251.352 5502.26,-251.682 5499.5,-252 5336.59,-270.77 5147.35,-286.998 5030.25,-296.391"/>
<polygon fill="black" stroke="black" points="5020.19,-297.194 5029.8,-291.912 5025.18,-296.796 5030.16,-296.397 5030.16,-296.397 5030.16,-296.397 5025.18,-296.796 5030.52,-300.883 5020.19,-297.194 5020.19,-297.194"/>
</g>
<!-- 58&#45;&gt;55 -->
<g id="edge108" class="edge"><title>58&#45;&gt;55</title>
<path fill="none" stroke="black" d="M4374.46,-252.034C4436.43,-262.387 4515.62,-275.617 4579.35,-286.264"/>
<polygon fill="black" stroke="black" points="4589.44,-287.95 4578.84,-290.741 4584.51,-287.126 4579.58,-286.302 4579.58,-286.302 4579.58,-286.302 4584.51,-287.126 4580.32,-281.864 4589.44,-287.95 4589.44,-287.95"/>
</g>
<!-- 58&#45;&gt;59 -->
<g id="edge109" class="edge"><title>58&#45;&gt;59</title>
<path fill="none" stroke="black" d="M4406.07,-250.995C4409.25,-251.337 4412.39,-251.673 4415.5,-252 4586.7,-270.014 4632.72,-266.727 4806.92,-287.846"/>
<polygon fill="black" stroke="black" points="4816.94,-289.07 4806.47,-292.324 4811.98,-288.464 4807.02,-287.857 4807.02,-287.857 4807.02,-287.857 4811.98,-288.464 4807.56,-283.391 4816.94,-289.07 4816.94,-289.07"/>
</g>
<!-- 60 -->
<g id="node61" class="node"><title>60</title>
<polygon fill="none" stroke="black" points="3572,-36 3407,-36 3407,-0 3572,-0 3572,-36"/>
<text text-anchor="middle" x="3489.5" y="-14.3" font-family="Times,serif" font-size="14.00">PoliciesMultiPlayers.DMC</text>
</g>
<!-- 61&#45;&gt;54 -->
<g id="edge110" class="edge"><title>61&#45;&gt;54</title>
<path fill="none" stroke="black" d="M4996.57,-252.034C5050.36,-262.323 5119.01,-275.453 5174.51,-286.067"/>
<polygon fill="black" stroke="black" points="5184.35,-287.95 5173.69,-290.491 5179.44,-287.011 5174.53,-286.071 5174.53,-286.071 5174.53,-286.071 5179.44,-287.011 5175.38,-281.651 5184.35,-287.95 5184.35,-287.95"/>
</g>
<!-- 61&#45;&gt;55 -->
<g id="edge111" class="edge"><title>61&#45;&gt;55</title>
<path fill="none" stroke="black" d="M4854.94,-252.034C4824.49,-261.9 4785.99,-274.378 4754,-284.745"/>
<polygon fill="black" stroke="black" points="4744.3,-287.889 4752.42,-280.525 4749.06,-286.348 4753.81,-284.806 4753.81,-284.806 4753.81,-284.806 4749.06,-286.348 4755.2,-289.087 4744.3,-287.889 4744.3,-287.889"/>
</g>
<!-- 61&#45;&gt;59 -->
<g id="edge112" class="edge"><title>61&#45;&gt;59</title>
<path fill="none" stroke="black" d="M4910.22,-252.303C4911.43,-260.017 4912.89,-269.288 4914.24,-277.888"/>
<polygon fill="black" stroke="black" points="4915.81,-287.896 4909.81,-278.716 4915.04,-282.956 4914.26,-278.017 4914.26,-278.017 4914.26,-278.017 4915.04,-282.956 4918.71,-277.318 4915.81,-287.896 4915.81,-287.896"/>
</g>
<!-- 62&#45;&gt;54 -->
<g id="edge113" class="edge"><title>62&#45;&gt;54</title>
<path fill="none" stroke="black" d="M5163.22,-252.124C5183,-261.608 5207.77,-273.487 5228.83,-283.581"/>
<polygon fill="black" stroke="black" points="5237.9,-287.932 5226.94,-287.666 5233.39,-285.77 5228.88,-283.608 5228.88,-283.608 5228.88,-283.608 5233.39,-285.77 5230.83,-279.551 5237.9,-287.932 5237.9,-287.932"/>
</g>
<!-- 62&#45;&gt;55 -->
<g id="edge114" class="edge"><title>62&#45;&gt;55</title>
<path fill="none" stroke="black" d="M5021.4,-252.034C4956.79,-262.408 4874.18,-275.671 4807.79,-286.33"/>
<polygon fill="black" stroke="black" points="4797.7,-287.95 4806.86,-281.922 4802.63,-287.157 4807.57,-286.365 4807.57,-286.365 4807.57,-286.365 4802.63,-287.157 4808.28,-290.808 4797.7,-287.95 4797.7,-287.95"/>
</g>
<!-- 62&#45;&gt;59 -->
<g id="edge115" class="edge"><title>62&#45;&gt;59</title>
<path fill="none" stroke="black" d="M5076.64,-252.034C5047.31,-261.858 5010.25,-274.271 4979.38,-284.611"/>
<polygon fill="black" stroke="black" points="4969.59,-287.889 4977.64,-280.446 4974.33,-286.301 4979.07,-284.713 4979.07,-284.713 4979.07,-284.713 4974.33,-286.301 4980.5,-288.98 4969.59,-287.889 4969.59,-287.889"/>
</g>
<!-- 63&#45;&gt;55 -->
<g id="edge116" class="edge"><title>63&#45;&gt;55</title>
<path fill="none" stroke="black" d="M4554.02,-252.124C4579.23,-261.821 4610.95,-274.02 4637.57,-284.257"/>
<polygon fill="black" stroke="black" points="4647.12,-287.932 4636.17,-288.542 4642.46,-286.137 4637.79,-284.342 4637.79,-284.342 4637.79,-284.342 4642.46,-286.137 4639.4,-280.142 4647.12,-287.932 4647.12,-287.932"/>
</g>
<!-- 63&#45;&gt;59 -->
<g id="edge117" class="edge"><title>63&#45;&gt;59</title>
<path fill="none" stroke="black" d="M4595.2,-250.376C4598.34,-250.926 4601.45,-251.469 4604.5,-252 4671.7,-263.684 4747.07,-276.417 4807.11,-286.473"/>
<polygon fill="black" stroke="black" points="4816.99,-288.127 4806.39,-290.915 4812.06,-287.302 4807.13,-286.476 4807.13,-286.476 4807.13,-286.476 4812.06,-287.302 4807.87,-282.038 4816.99,-288.127 4816.99,-288.127"/>
</g>
<!-- 64 -->
<g id="node65" class="node"><title>64</title>
<polygon fill="none" stroke="black" points="3757,-36 3590,-36 3590,-0 3757,-0 3757,-36"/>
<text text-anchor="middle" x="3673.5" y="-14.3" font-family="Times,serif" font-size="14.00">PoliciesMultiPlayers.TDFS</text>
</g>
<!-- 65&#45;&gt;55 -->
<g id="edge118" class="edge"><title>65&#45;&gt;55</title>
<path fill="none" stroke="black" d="M4700.53,-252.303C4699.21,-260.017 4697.62,-269.288 4696.15,-277.888"/>
<polygon fill="black" stroke="black" points="4694.43,-287.896 4691.69,-277.279 4695.28,-282.968 4696.12,-278.039 4696.12,-278.039 4696.12,-278.039 4695.28,-282.968 4700.56,-278.8 4694.43,-287.896 4694.43,-287.896"/>
</g>
<!-- 65&#45;&gt;59 -->
<g id="edge119" class="edge"><title>65&#45;&gt;59</title>
<path fill="none" stroke="black" d="M4755.82,-252.034C4786.12,-261.9 4824.45,-274.378 4856.29,-284.745"/>
<polygon fill="black" stroke="black" points="4865.95,-287.889 4855.04,-289.072 4861.19,-286.341 4856.44,-284.793 4856.44,-284.793 4856.44,-284.793 4861.19,-286.341 4857.83,-280.514 4865.95,-287.889 4865.95,-287.889"/>
</g>
<!-- 66 -->
<g id="node67" class="node"><title>66</title>
<polygon fill="none" stroke="black" points="3829.5,-36 3775.5,-36 3775.5,-0 3829.5,-0 3829.5,-36"/>
<text text-anchor="middle" x="3802.5" y="-14.3" font-family="Times,serif" font-size="14.00">conf</text>
</g>
<!-- 67 -->
<g id="node68" class="node"><title>67</title>
<polygon fill="none" stroke="black" points="532,-108 443,-108 443,-72 532,-72 532,-108"/>
<text text-anchor="middle" x="487.5" y="-86.3" font-family="Times,serif" font-size="14.00">configuration</text>
</g>
<!-- 67&#45;&gt;0 -->
<g id="edge120" class="edge"><title>67&#45;&gt;0</title>
<path fill="none" stroke="black" d="M464.511,-108.303C452.686,-117.204 438.108,-128.177 425.321,-137.801"/>
<polygon fill="black" stroke="black" points="417.224,-143.896 422.508,-134.287 421.219,-140.889 425.214,-137.882 425.214,-137.882 425.214,-137.882 421.219,-140.889 427.92,-141.477 417.224,-143.896 417.224,-143.896"/>
</g>
<!-- 67&#45;&gt;2 -->
<g id="edge121" class="edge"><title>67&#45;&gt;2</title>
<path fill="none" stroke="black" d="M476.765,-108.129C461.329,-132.756 432.745,-178.362 414.723,-207.115"/>
<polygon fill="black" stroke="black" points="409.274,-215.811 410.771,-204.948 411.929,-211.574 414.584,-207.337 414.584,-207.337 414.584,-207.337 411.929,-211.574 418.397,-209.727 409.274,-215.811 409.274,-215.811"/>
</g>
<!-- 67&#45;&gt;3 -->
<g id="edge122" class="edge"><title>67&#45;&gt;3</title>
<path fill="none" stroke="black" d="M492.084,-108.129C498.589,-132.436 510.563,-177.181 518.271,-205.987"/>
<polygon fill="black" stroke="black" points="520.9,-215.811 513.968,-207.314 519.607,-210.981 518.315,-206.151 518.315,-206.151 518.315,-206.151 519.607,-210.981 522.662,-204.987 520.9,-215.811 520.9,-215.811"/>
</g>
<!-- 67&#45;&gt;4 -->
<g id="edge123" class="edge"><title>67&#45;&gt;4</title>
<path fill="none" stroke="black" d="M442.683,-104.711C408.362,-115.274 359.869,-130.336 317.5,-144 246.142,-167.014 164.398,-194.416 110.358,-212.676"/>
<polygon fill="black" stroke="black" points="100.598,-215.976 108.63,-208.51 105.335,-214.374 110.071,-212.773 110.071,-212.773 110.071,-212.773 105.335,-214.374 111.513,-217.035 100.598,-215.976 100.598,-215.976"/>
</g>
<!-- 67&#45;&gt;5 -->
<g id="edge124" class="edge"><title>67&#45;&gt;5</title>
<path fill="none" stroke="black" d="M442.734,-103.56C416.605,-112.259 383.892,-125.605 358.5,-144 334.528,-161.366 313.227,-187.79 299.32,-207.339"/>
<polygon fill="black" stroke="black" points="293.468,-215.779 295.468,-204.997 296.317,-211.67 299.166,-207.561 299.166,-207.561 299.166,-207.561 296.317,-211.67 302.864,-210.125 293.468,-215.779 293.468,-215.779"/>
</g>
<!-- 67&#45;&gt;16 -->
<g id="edge125" class="edge"><title>67&#45;&gt;16</title>
<path fill="none" stroke="black" d="M532.112,-93.7226C716.747,-104.991 1419.6,-147.885 1594.77,-158.575"/>
<polygon fill="black" stroke="black" points="1604.84,-159.19 1594.58,-163.072 1599.85,-158.885 1594.86,-158.58 1594.86,-158.58 1594.86,-158.58 1599.85,-158.885 1595.13,-154.089 1604.84,-159.19 1604.84,-159.19"/>
</g>
<!-- 67&#45;&gt;51 -->
<g id="edge126" class="edge"><title>67&#45;&gt;51</title>
<path fill="none" stroke="black" d="M508.464,-108.173C546.561,-138.974 630.273,-204.794 706.5,-252 736.243,-270.419 749.748,-265.456 776.5,-288 797.821,-305.968 816.377,-331.924 828.52,-351.173"/>
<polygon fill="black" stroke="black" points="833.792,-359.755 824.723,-353.59 831.175,-355.495 828.558,-351.235 828.558,-351.235 828.558,-351.235 831.175,-355.495 832.392,-348.879 833.792,-359.755 833.792,-359.755"/>
</g>
<!-- 68 -->
<g id="node69" class="node"><title>68</title>
<polygon fill="none" stroke="black" points="1456.5,-108 1292.5,-108 1292.5,-72 1456.5,-72 1456.5,-108"/>
<text text-anchor="middle" x="1374.5" y="-86.3" font-family="Times,serif" font-size="14.00">configuration_multiplayers</text>
</g>
<!-- 68&#45;&gt;0 -->
<g id="edge127" class="edge"><title>68&#45;&gt;0</title>
<path fill="none" stroke="black" d="M1292.41,-91.6308C1133.56,-93.778 773.347,-103.164 473.5,-144 459.789,-145.867 444.916,-148.819 431.812,-151.743"/>
<polygon fill="black" stroke="black" points="421.738,-154.06 430.475,-147.433 426.611,-152.939 431.484,-151.818 431.484,-151.818 431.484,-151.818 426.611,-152.939 432.493,-156.204 421.738,-154.06 421.738,-154.06"/>
</g>
<!-- 68&#45;&gt;2 -->
<g id="edge128" class="edge"><title>68&#45;&gt;2</title>
<path fill="none" stroke="black" d="M1292.23,-97.0864C1187.97,-105.294 1002.89,-121.515 845.5,-144 675.521,-168.283 630.501,-175.832 459.634,-215.824"/>
<polygon fill="black" stroke="black" points="449.806,-218.127 458.515,-211.464 454.674,-216.986 459.542,-215.845 459.542,-215.845 459.542,-215.845 454.674,-216.986 460.569,-220.227 449.806,-218.127 449.806,-218.127"/>
</g>
<!-- 68&#45;&gt;3 -->
<g id="edge129" class="edge"><title>68&#45;&gt;3</title>
<path fill="none" stroke="black" d="M1292.32,-104.745C1125.23,-132.692 748.61,-195.684 593.86,-221.566"/>
<polygon fill="black" stroke="black" points="583.549,-223.291 592.67,-217.203 588.481,-222.466 593.412,-221.641 593.412,-221.641 593.412,-221.641 588.481,-222.466 594.155,-226.08 583.549,-223.291 583.549,-223.291"/>
</g>
<!-- 68&#45;&gt;4 -->
<g id="edge130" class="edge"><title>68&#45;&gt;4</title>
<path fill="none" stroke="black" d="M1292.44,-91.2883C1083.37,-92.661 534.793,-100.435 358.5,-144 321.434,-153.16 316.736,-167.97 280.5,-180 210.209,-203.336 187.343,-197.974 111.24,-215.945"/>
<polygon fill="black" stroke="black" points="101.175,-218.383 109.835,-211.655 106.034,-217.206 110.894,-216.028 110.894,-216.028 110.894,-216.028 106.034,-217.206 111.953,-220.402 101.175,-218.383 101.175,-218.383"/>
</g>
<!-- 68&#45;&gt;5 -->
<g id="edge131" class="edge"><title>68&#45;&gt;5</title>
<path fill="none" stroke="black" d="M1292.33,-91.9874C1153.33,-94.7258 863.288,-105.055 621.5,-144 520.36,-160.291 405.632,-193.647 338.931,-214.577"/>
<polygon fill="black" stroke="black" points="329.046,-217.698 337.227,-210.395 333.814,-216.192 338.582,-214.686 338.582,-214.686 338.582,-214.686 333.814,-216.192 339.937,-218.978 329.046,-217.698 329.046,-217.698"/>
</g>
<!-- 68&#45;&gt;9 -->
<g id="edge132" class="edge"><title>68&#45;&gt;9</title>
<path fill="none" stroke="black" d="M1456.53,-91.5522C1805.9,-94.1283 3160.46,-106.469 3347.5,-144 3383.12,-151.147 3472.57,-187.921 3528.84,-211.906"/>
<polygon fill="black" stroke="black" points="3538.25,-215.933 3527.29,-216.139 3533.66,-213.967 3529.06,-212.001 3529.06,-212.001 3529.06,-212.001 3533.66,-213.967 3530.83,-207.863 3538.25,-215.933 3538.25,-215.933"/>
</g>
<!-- 68&#45;&gt;12 -->
<g id="edge133" class="edge"><title>68&#45;&gt;12</title>
<path fill="none" stroke="black" d="M1456.79,-91.6606C1814.64,-94.7371 3221.51,-109.018 3308.5,-144 3341.07,-157.096 3369.66,-186.243 3387.42,-207.628"/>
<polygon fill="black" stroke="black" points="3393.91,-215.678 3384.13,-210.715 3390.77,-211.785 3387.63,-207.892 3387.63,-207.892 3387.63,-207.892 3390.77,-211.785 3391.14,-205.068 3393.91,-215.678 3393.91,-215.678"/>
</g>
<!-- 68&#45;&gt;16 -->
<g id="edge134" class="edge"><title>68&#45;&gt;16</title>
<path fill="none" stroke="black" d="M1437.77,-108.034C1486.79,-121.232 1553.18,-139.105 1594.92,-150.343"/>
<polygon fill="black" stroke="black" points="1604.72,-152.982 1593.89,-154.727 1599.89,-151.682 1595.06,-150.382 1595.06,-150.382 1595.06,-150.382 1599.89,-151.682 1596.23,-146.037 1604.72,-152.982 1604.72,-152.982"/>
</g>
<!-- 68&#45;&gt;52 -->
<g id="edge135" class="edge"><title>68&#45;&gt;52</title>
<path fill="none" stroke="black" d="M1456.79,-92.7303C1918.73,-102.444 4184.47,-150.086 4628.08,-159.414"/>
<polygon fill="black" stroke="black" points="4638.22,-159.627 4628.12,-163.916 4633.22,-159.522 4628.22,-159.417 4628.22,-159.417 4628.22,-159.417 4633.22,-159.522 4628.31,-154.918 4638.22,-159.627 4638.22,-159.627"/>
</g>
<!-- 69 -->
<g id="node70" class="node"><title>69</title>
<polygon fill="none" stroke="black" points="3251.5,-36 3197.5,-36 3197.5,-0 3251.5,-0 3251.5,-36"/>
<text text-anchor="middle" x="3224.5" y="-14.3" font-family="Times,serif" font-size="14.00">main</text>
</g>
<!-- 69&#45;&gt;8 -->
<g id="edge136" class="edge"><title>69&#45;&gt;8</title>
<path fill="none" stroke="black" d="M3249.94,-36.1239C3263.29,-45.1069 3279.82,-56.2375 3294.28,-65.9659"/>
<polygon fill="black" stroke="black" points="3302.96,-71.8102 3292.15,-69.9596 3298.81,-69.0183 3294.67,-66.2264 3294.67,-66.2264 3294.67,-66.2264 3298.81,-69.0183 3297.18,-62.4933 3302.96,-71.8102 3302.96,-71.8102"/>
</g>
<!-- 69&#45;&gt;10 -->
<g id="edge137" class="edge"><title>69&#45;&gt;10</title>
<path fill="none" stroke="black" d="M3224.86,-36.1285C3225.37,-60.3298 3226.31,-104.789 3226.92,-133.607"/>
<polygon fill="black" stroke="black" points="3227.14,-143.811 3222.43,-133.908 3227.03,-138.812 3226.93,-133.813 3226.93,-133.813 3226.93,-133.813 3227.03,-138.812 3231.42,-133.718 3227.14,-143.811 3227.14,-143.811"/>
</g>
<!-- 69&#45;&gt;67 -->
<g id="edge138" class="edge"><title>69&#45;&gt;67</title>
<path fill="none" stroke="black" d="M3197.41,-19.6928C2938.54,-26.3136 903.661,-78.3565 542.282,-87.5989"/>
<polygon fill="black" stroke="black" points="532.082,-87.8598 541.963,-83.1055 537.08,-87.7319 542.079,-87.604 542.079,-87.604 542.079,-87.604 537.08,-87.7319 542.194,-92.1026 532.082,-87.8598 532.082,-87.8598"/>
</g>
<!-- 70 -->
<g id="node71" class="node"><title>70</title>
<polygon fill="none" stroke="black" points="3389,-36 3270,-36 3270,-0 3389,-0 3389,-36"/>
<text text-anchor="middle" x="3329.5" y="-14.3" font-family="Times,serif" font-size="14.00">main_multiplayers</text>
</g>
<!-- 70&#45;&gt;8 -->
<g id="edge139" class="edge"><title>70&#45;&gt;8</title>
<path fill="none" stroke="black" d="M3329.25,-36.3034C3329.14,-44.0173 3329.01,-53.2875 3328.89,-61.8876"/>
<polygon fill="black" stroke="black" points="3328.74,-71.8957 3324.39,-61.8324 3328.82,-66.8962 3328.89,-61.8967 3328.89,-61.8967 3328.89,-61.8967 3328.82,-66.8962 3333.39,-61.961 3328.74,-71.8957 3328.74,-71.8957"/>
</g>
<!-- 70&#45;&gt;11 -->
<g id="edge140" class="edge"><title>70&#45;&gt;11</title>
<path fill="none" stroke="black" d="M3359.41,-36.1285C3404.29,-61.8224 3489.04,-110.35 3538.64,-138.752"/>
<polygon fill="black" stroke="black" points="3547.48,-143.811 3536.57,-142.747 3543.14,-141.326 3538.8,-138.842 3538.8,-138.842 3538.8,-138.842 3543.14,-141.326 3541.04,-134.937 3547.48,-143.811 3547.48,-143.811"/>
</g>
<!-- 70&#45;&gt;68 -->
<g id="edge141" class="edge"><title>70&#45;&gt;68</title>
<path fill="none" stroke="black" d="M3269.81,-34.5325C3266.67,-35.0896 3263.56,-35.5854 3260.5,-36 2907.99,-83.8188 1795.98,-88.6468 1467.03,-89.0119"/>
<polygon fill="black" stroke="black" points="1456.59,-89.0223 1466.59,-84.5123 1461.59,-89.0173 1466.59,-89.0123 1466.59,-89.0123 1466.59,-89.0123 1461.59,-89.0173 1466.6,-93.5123 1456.59,-89.0223 1456.59,-89.0223"/>
</g>
</g>
</svg>
