<?xml version="1.0" encoding="UTF-8" standalone="no"?>
<!DOCTYPE svg PUBLIC "-//W3C//DTD SVG 1.1//EN"
 "http://www.w3.org/Graphics/SVG/1.1/DTD/svg11.dtd">
<!-- Generated by graphviz version 2.38.0 (20140413.2041)
 -->
<!-- Title: packages_AlgoBandits Pages: 1 -->
<svg width="5971pt" height="548pt"
 viewBox="0.00 0.00 5971.31 548.00" xmlns="http://www.w3.org/2000/svg" xmlns:xlink="http://www.w3.org/1999/xlink">
<g id="graph0" class="graph" transform="scale(1 1) rotate(0) translate(4 544)">
<title>packages_AlgoBandits</title>
<polygon fill="white" stroke="none" points="-4,4 -4,-544 5967.31,-544 5967.31,4 -4,4"/>
<!-- 0 -->
<g id="node1" class="node"><title>0</title>
<polygon fill="none" stroke="black" points="471.806,-180 417.806,-180 417.806,-144 471.806,-144 471.806,-180"/>
<text text-anchor="middle" x="444.806" y="-158.3" font-family="Times,serif" font-size="14.00">Arms</text>
</g>
<!-- 2 -->
<g id="node3" class="node"><title>2</title>
<polygon fill="none" stroke="black" points="377.806,-252 275.806,-252 275.806,-216 377.806,-216 377.806,-252"/>
<text text-anchor="middle" x="326.806" y="-230.3" font-family="Times,serif" font-size="14.00">Arms.Bernoulli</text>
</g>
<!-- 0&#45;&gt;2 -->
<g id="edge1" class="edge"><title>0&#45;&gt;2</title>
<path fill="none" stroke="black" d="M417.735,-179.059C401.974,-188.409 381.864,-200.338 364.566,-210.6"/>
<polygon fill="black" stroke="black" points="355.814,-215.792 362.119,-206.82 360.114,-213.241 364.414,-210.69 364.414,-210.69 364.414,-210.69 360.114,-213.241 366.71,-214.56 355.814,-215.792 355.814,-215.792"/>
</g>
<!-- 3 -->
<g id="node4" class="node"><title>3</title>
<polygon fill="none" stroke="black" points="137.806,-252 21.8062,-252 21.8062,-216 137.806,-216 137.806,-252"/>
<text text-anchor="middle" x="79.8062" y="-230.3" font-family="Times,serif" font-size="14.00">Arms.Exponential</text>
</g>
<!-- 0&#45;&gt;3 -->
<g id="edge2" class="edge"><title>0&#45;&gt;3</title>
<path fill="none" stroke="black" d="M417.453,-169.232C402.274,-172.602 383.036,-176.732 365.806,-180 272.017,-197.789 245.086,-195.993 147.798,-215.89"/>
<polygon fill="black" stroke="black" points="137.84,-217.952 146.72,-211.518 142.736,-216.938 147.633,-215.924 147.633,-215.924 147.633,-215.924 142.736,-216.938 148.545,-220.331 137.84,-217.952 137.84,-217.952"/>
</g>
<!-- 4 -->
<g id="node5" class="node"><title>4</title>
<polygon fill="none" stroke="black" points="257.306,-252 156.306,-252 156.306,-216 257.306,-216 257.306,-252"/>
<text text-anchor="middle" x="206.806" y="-230.3" font-family="Times,serif" font-size="14.00">Arms.Gaussian</text>
</g>
<!-- 0&#45;&gt;4 -->
<g id="edge3" class="edge"><title>0&#45;&gt;4</title>
<path fill="none" stroke="black" d="M417.656,-174.863C413.073,-176.691 408.334,-178.474 403.806,-180 347.059,-199.121 329.264,-199.436 267.411,-215.889"/>
<polygon fill="black" stroke="black" points="257.526,-218.556 266.009,-211.607 262.354,-217.254 267.181,-215.951 267.181,-215.951 267.181,-215.951 262.354,-217.254 268.353,-220.296 257.526,-218.556 257.526,-218.556"/>
</g>
<!-- 5 -->
<g id="node6" class="node"><title>5</title>
<polygon fill="none" stroke="black" points="605.306,-252 512.306,-252 512.306,-216 605.306,-216 605.306,-252"/>
<text text-anchor="middle" x="558.806" y="-230.3" font-family="Times,serif" font-size="14.00">Arms.Poisson</text>
</g>
<!-- 0&#45;&gt;5 -->
<g id="edge4" class="edge"><title>0&#45;&gt;5</title>
<path fill="none" stroke="black" d="M471.823,-179.589C486.822,-188.799 505.695,-200.388 522.024,-210.414"/>
<polygon fill="black" stroke="black" points="530.793,-215.799 519.917,-214.401 526.532,-213.183 522.271,-210.566 522.271,-210.566 522.271,-210.566 526.532,-213.183 524.626,-206.732 530.793,-215.799 530.793,-215.799"/>
</g>
<!-- 6 -->
<g id="node7" class="node"><title>6</title>
<polygon fill="none" stroke="black" points="493.806,-252 395.806,-252 395.806,-216 493.806,-216 493.806,-252"/>
<text text-anchor="middle" x="444.806" y="-230.3" font-family="Times,serif" font-size="14.00">Arms.Uniform</text>
</g>
<!-- 0&#45;&gt;6 -->
<g id="edge5" class="edge"><title>0&#45;&gt;6</title>
<path fill="none" stroke="black" d="M444.806,-180.303C444.806,-188.017 444.806,-197.288 444.806,-205.888"/>
<polygon fill="black" stroke="black" points="444.806,-215.896 440.306,-205.896 444.806,-210.896 444.806,-205.896 444.806,-205.896 444.806,-205.896 444.806,-210.896 449.306,-205.896 444.806,-215.896 444.806,-215.896"/>
</g>
<!-- 1 -->
<g id="node2" class="node"><title>1</title>
<polygon fill="none" stroke="black" points="365.306,-324 288.306,-324 288.306,-288 365.306,-288 365.306,-324"/>
<text text-anchor="middle" x="326.806" y="-302.3" font-family="Times,serif" font-size="14.00">Arms.Arm</text>
</g>
<!-- 2&#45;&gt;1 -->
<g id="edge6" class="edge"><title>2&#45;&gt;1</title>
<path fill="none" stroke="black" d="M326.806,-252.303C326.806,-260.017 326.806,-269.288 326.806,-277.888"/>
<polygon fill="black" stroke="black" points="326.806,-287.896 322.306,-277.896 326.806,-282.896 326.806,-277.896 326.806,-277.896 326.806,-277.896 326.806,-282.896 331.306,-277.896 326.806,-287.896 326.806,-287.896"/>
</g>
<!-- 7 -->
<g id="node8" class="node"><title>7</title>
<polygon fill="none" stroke="black" points="262.806,-324 164.806,-324 164.806,-288 262.806,-288 262.806,-324"/>
<text text-anchor="middle" x="213.806" y="-302.3" font-family="Times,serif" font-size="14.00">Arms.kullback</text>
</g>
<!-- 2&#45;&gt;7 -->
<g id="edge7" class="edge"><title>2&#45;&gt;7</title>
<path fill="none" stroke="black" d="M299.163,-252.124C284.389,-261.276 266.015,-272.658 250.103,-282.515"/>
<polygon fill="black" stroke="black" points="241.555,-287.81 247.687,-278.719 245.806,-285.177 250.056,-282.544 250.056,-282.544 250.056,-282.544 245.806,-285.177 252.426,-286.37 241.555,-287.81 241.555,-287.81"/>
</g>
<!-- 3&#45;&gt;1 -->
<g id="edge8" class="edge"><title>3&#45;&gt;1</title>
<path fill="none" stroke="black" d="M137.91,-250.545C176.057,-260.873 227,-274.895 271.806,-288 273.949,-288.627 276.138,-289.274 278.346,-289.933"/>
<polygon fill="black" stroke="black" points="288.089,-292.871 277.215,-294.292 283.302,-291.427 278.515,-289.983 278.515,-289.983 278.515,-289.983 283.302,-291.427 279.814,-285.675 288.089,-292.871 288.089,-292.871"/>
</g>
<!-- 3&#45;&gt;7 -->
<g id="edge9" class="edge"><title>3&#45;&gt;7</title>
<path fill="none" stroke="black" d="M112.586,-252.124C130.431,-261.446 152.703,-273.081 171.809,-283.061"/>
<polygon fill="black" stroke="black" points="180.9,-287.81 169.953,-287.169 176.468,-285.495 172.037,-283.18 172.037,-283.18 172.037,-283.18 176.468,-285.495 174.12,-279.191 180.9,-287.81 180.9,-287.81"/>
</g>
<!-- 4&#45;&gt;1 -->
<g id="edge10" class="edge"><title>4&#45;&gt;1</title>
<path fill="none" stroke="black" d="M236.161,-252.124C251.851,-261.276 271.363,-272.658 288.26,-282.515"/>
<polygon fill="black" stroke="black" points="297.338,-287.81 286.433,-286.659 293.019,-285.291 288.7,-282.771 288.7,-282.771 288.7,-282.771 293.019,-285.291 290.968,-278.884 297.338,-287.81 297.338,-287.81"/>
</g>
<!-- 4&#45;&gt;7 -->
<g id="edge11" class="edge"><title>4&#45;&gt;7</title>
<path fill="none" stroke="black" d="M208.537,-252.303C209.308,-260.017 210.235,-269.288 211.095,-277.888"/>
<polygon fill="black" stroke="black" points="212.096,-287.896 206.623,-278.393 211.598,-282.92 211.101,-277.945 211.101,-277.945 211.101,-277.945 211.598,-282.92 215.578,-277.497 212.096,-287.896 212.096,-287.896"/>
</g>
<!-- 5&#45;&gt;1 -->
<g id="edge12" class="edge"><title>5&#45;&gt;1</title>
<path fill="none" stroke="black" d="M512.058,-249.2C508.927,-250.148 505.821,-251.088 502.806,-252 459.669,-265.043 410.565,-279.824 375.205,-290.457"/>
<polygon fill="black" stroke="black" points="365.613,-293.341 373.893,-286.152 370.401,-291.901 375.189,-290.462 375.189,-290.462 375.189,-290.462 370.401,-291.901 376.485,-294.771 365.613,-293.341 365.613,-293.341"/>
</g>
<!-- 5&#45;&gt;7 -->
<g id="edge13" class="edge"><title>5&#45;&gt;7</title>
<path fill="none" stroke="black" d="M512.183,-249.67C509.022,-250.504 505.875,-251.291 502.806,-252 404.561,-274.697 377.475,-267.219 278.806,-288 276.88,-288.406 274.925,-288.832 272.954,-289.274"/>
<polygon fill="black" stroke="black" points="263.019,-291.596 271.733,-284.938 267.888,-290.458 272.757,-289.32 272.757,-289.32 272.757,-289.32 267.888,-290.458 273.781,-293.702 263.019,-291.596 263.019,-291.596"/>
</g>
<!-- 6&#45;&gt;1 -->
<g id="edge14" class="edge"><title>6&#45;&gt;1</title>
<path fill="none" stroke="black" d="M415.94,-252.124C400.512,-261.276 381.325,-272.658 364.709,-282.515"/>
<polygon fill="black" stroke="black" points="355.783,-287.81 362.088,-278.838 360.083,-285.259 364.384,-282.708 364.384,-282.708 364.384,-282.708 360.083,-285.259 366.68,-286.578 355.783,-287.81 355.783,-287.81"/>
</g>
<!-- 8 -->
<g id="node9" class="node"><title>8</title>
<polygon fill="none" stroke="black" points="3430.81,-108 3342.81,-108 3342.81,-72 3430.81,-72 3430.81,-108"/>
<text text-anchor="middle" x="3386.81" y="-86.3" font-family="Times,serif" font-size="14.00">Environment</text>
</g>
<!-- 10 -->
<g id="node11" class="node"><title>10</title>
<polygon fill="none" stroke="black" points="3356.81,-180 3212.81,-180 3212.81,-144 3356.81,-144 3356.81,-180"/>
<text text-anchor="middle" x="3284.81" y="-158.3" font-family="Times,serif" font-size="14.00">Environment.Evaluator</text>
</g>
<!-- 8&#45;&gt;10 -->
<g id="edge15" class="edge"><title>8&#45;&gt;10</title>
<path fill="none" stroke="black" d="M3361.85,-108.124C3348.76,-117.107 3332.55,-128.237 3318.37,-137.966"/>
<polygon fill="black" stroke="black" points="3309.85,-143.81 3315.55,-134.441 3313.98,-140.981 3318.1,-138.152 3318.1,-138.152 3318.1,-138.152 3313.98,-140.981 3320.65,-141.862 3309.85,-143.81 3309.85,-143.81"/>
</g>
<!-- 11 -->
<g id="node12" class="node"><title>11</title>
<polygon fill="none" stroke="black" points="3706.31,-180 3491.31,-180 3491.31,-144 3706.31,-144 3706.31,-180"/>
<text text-anchor="middle" x="3598.81" y="-158.3" font-family="Times,serif" font-size="14.00">Environment.EvaluatorMultiPlayers</text>
</g>
<!-- 8&#45;&gt;11 -->
<g id="edge16" class="edge"><title>8&#45;&gt;11</title>
<path fill="none" stroke="black" d="M3430.99,-105.589C3461.81,-115.764 3503.33,-129.476 3537.37,-140.714"/>
<polygon fill="black" stroke="black" points="3547.21,-143.964 3536.3,-145.101 3542.46,-142.396 3537.71,-140.828 3537.71,-140.828 3537.71,-140.828 3542.46,-142.396 3539.13,-136.555 3547.21,-143.964 3547.21,-143.964"/>
</g>
<!-- 12 -->
<g id="node13" class="node"><title>12</title>
<polygon fill="none" stroke="black" points="3489.31,-252 3366.31,-252 3366.31,-216 3489.31,-216 3489.31,-252"/>
<text text-anchor="middle" x="3427.81" y="-230.3" font-family="Times,serif" font-size="14.00">Environment.MAB</text>
</g>
<!-- 8&#45;&gt;12 -->
<g id="edge17" class="edge"><title>8&#45;&gt;12</title>
<path fill="none" stroke="black" d="M3391.75,-108.129C3398.77,-132.436 3411.69,-177.181 3420.01,-205.987"/>
<polygon fill="black" stroke="black" points="3422.84,-215.811 3415.75,-207.452 3421.46,-211.007 3420.07,-206.203 3420.07,-206.203 3420.07,-206.203 3421.46,-211.007 3424.39,-204.955 3422.84,-215.811 3422.84,-215.811"/>
</g>
<!-- 13 -->
<g id="node14" class="node"><title>13</title>
<polygon fill="none" stroke="black" points="3347.81,-252 3221.81,-252 3221.81,-216 3347.81,-216 3347.81,-252"/>
<text text-anchor="middle" x="3284.81" y="-230.3" font-family="Times,serif" font-size="14.00">Environment.Result</text>
</g>
<!-- 8&#45;&gt;13 -->
<g id="edge18" class="edge"><title>8&#45;&gt;13</title>
<path fill="none" stroke="black" d="M3386.45,-108.265C3385.27,-127.407 3380.94,-158.423 3365.81,-180 3357.1,-192.409 3344.48,-202.653 3331.78,-210.717"/>
<polygon fill="black" stroke="black" points="3323.02,-215.951 3329.3,-206.959 3327.31,-213.386 3331.6,-210.822 3331.6,-210.822 3331.6,-210.822 3327.31,-213.386 3333.91,-214.684 3323.02,-215.951 3323.02,-215.951"/>
</g>
<!-- 9 -->
<g id="node10" class="node"><title>9</title>
<polygon fill="none" stroke="black" points="3689.81,-252 3507.81,-252 3507.81,-216 3689.81,-216 3689.81,-252"/>
<text text-anchor="middle" x="3598.81" y="-230.3" font-family="Times,serif" font-size="14.00">Environment.CollisionModels</text>
</g>
<!-- 10&#45;&gt;12 -->
<g id="edge19" class="edge"><title>10&#45;&gt;12</title>
<path fill="none" stroke="black" d="M3319.79,-180.124C3339,-189.531 3363.03,-201.292 3383.54,-211.333"/>
<polygon fill="black" stroke="black" points="3392.69,-215.81 3381.73,-215.455 3388.2,-213.612 3383.71,-211.414 3383.71,-211.414 3383.71,-211.414 3388.2,-213.612 3385.69,-207.372 3392.69,-215.81 3392.69,-215.81"/>
</g>
<!-- 10&#45;&gt;13 -->
<g id="edge20" class="edge"><title>10&#45;&gt;13</title>
<path fill="none" stroke="black" d="M3284.81,-180.303C3284.81,-188.017 3284.81,-197.288 3284.81,-205.888"/>
<polygon fill="black" stroke="black" points="3284.81,-215.896 3280.31,-205.896 3284.81,-210.896 3284.81,-205.896 3284.81,-205.896 3284.81,-205.896 3284.81,-210.896 3289.31,-205.896 3284.81,-215.896 3284.81,-215.896"/>
</g>
<!-- 15 -->
<g id="node16" class="node"><title>15</title>
<polygon fill="none" stroke="black" points="3504.81,-324 3350.81,-324 3350.81,-288 3504.81,-288 3504.81,-324"/>
<text text-anchor="middle" x="3427.81" y="-302.3" font-family="Times,serif" font-size="14.00">Environment.plotsettings</text>
</g>
<!-- 10&#45;&gt;15 -->
<g id="edge21" class="edge"><title>10&#45;&gt;15</title>
<path fill="none" stroke="black" d="M3248.78,-180.185C3234.89,-188.835 3220.51,-200.763 3212.81,-216 3205.59,-230.279 3202.94,-239.405 3212.81,-252 3228.9,-272.541 3288.38,-286.2 3340.71,-294.501"/>
<polygon fill="black" stroke="black" points="3350.73,-296.039 3340.16,-298.968 3345.78,-295.28 3340.84,-294.521 3340.84,-294.521 3340.84,-294.521 3345.78,-295.28 3341.52,-290.073 3350.73,-296.039 3350.73,-296.039"/>
</g>
<!-- 11&#45;&gt;9 -->
<g id="edge22" class="edge"><title>11&#45;&gt;9</title>
<path fill="none" stroke="black" d="M3598.81,-180.303C3598.81,-188.017 3598.81,-197.288 3598.81,-205.888"/>
<polygon fill="black" stroke="black" points="3598.81,-215.896 3594.31,-205.896 3598.81,-210.896 3598.81,-205.896 3598.81,-205.896 3598.81,-205.896 3598.81,-210.896 3603.31,-205.896 3598.81,-215.896 3598.81,-215.896"/>
</g>
<!-- 11&#45;&gt;12 -->
<g id="edge23" class="edge"><title>11&#45;&gt;12</title>
<path fill="none" stroke="black" d="M3556.97,-180.124C3533.39,-189.778 3503.75,-201.913 3478.81,-212.122"/>
<polygon fill="black" stroke="black" points="3469.5,-215.932 3477.05,-207.979 3474.13,-214.037 3478.76,-212.143 3478.76,-212.143 3478.76,-212.143 3474.13,-214.037 3480.46,-216.308 3469.5,-215.932 3469.5,-215.932"/>
</g>
<!-- 14 -->
<g id="node15" class="node"><title>14</title>
<polygon fill="none" stroke="black" points="3943.31,-252 3746.31,-252 3746.31,-216 3943.31,-216 3943.31,-252"/>
<text text-anchor="middle" x="3844.81" y="-230.3" font-family="Times,serif" font-size="14.00">Environment.ResultMultiPlayers</text>
</g>
<!-- 11&#45;&gt;14 -->
<g id="edge24" class="edge"><title>11&#45;&gt;14</title>
<path fill="none" stroke="black" d="M3658.67,-180.034C3693.79,-190.028 3738.33,-202.702 3775.03,-213.146"/>
<polygon fill="black" stroke="black" points="3784.67,-215.889 3773.82,-217.48 3779.86,-214.521 3775.06,-213.152 3775.06,-213.152 3775.06,-213.152 3779.86,-214.521 3776.29,-208.824 3784.67,-215.889 3784.67,-215.889"/>
</g>
<!-- 11&#45;&gt;15 -->
<g id="edge25" class="edge"><title>11&#45;&gt;15</title>
<path fill="none" stroke="black" d="M3655.24,-180.04C3672.24,-188.105 3688.98,-199.67 3698.81,-216 3707.06,-229.709 3708.98,-239.648 3698.81,-252 3675.75,-279.999 3585.28,-293.415 3515.14,-299.706"/>
<polygon fill="black" stroke="black" points="3504.95,-300.583 3514.52,-295.242 3509.93,-300.155 3514.91,-299.726 3514.91,-299.726 3514.91,-299.726 3509.93,-300.155 3515.3,-304.209 3504.95,-300.583 3504.95,-300.583"/>
</g>
<!-- 12&#45;&gt;15 -->
<g id="edge26" class="edge"><title>12&#45;&gt;15</title>
<path fill="none" stroke="black" d="M3427.81,-252.303C3427.81,-260.017 3427.81,-269.288 3427.81,-277.888"/>
<polygon fill="black" stroke="black" points="3427.81,-287.896 3423.31,-277.896 3427.81,-282.896 3427.81,-277.896 3427.81,-277.896 3427.81,-277.896 3427.81,-282.896 3432.31,-277.896 3427.81,-287.896 3427.81,-287.896"/>
</g>
<!-- 16 -->
<g id="node17" class="node"><title>16</title>
<polygon fill="none" stroke="black" points="1643.31,-180 1584.31,-180 1584.31,-144 1643.31,-144 1643.31,-180"/>
<text text-anchor="middle" x="1613.81" y="-158.3" font-family="Times,serif" font-size="14.00">Policies</text>
</g>
<!-- 17 -->
<g id="node18" class="node"><title>17</title>
<polygon fill="none" stroke="black" points="2072.31,-324 1951.31,-324 1951.31,-288 2072.31,-288 2072.31,-324"/>
<text text-anchor="middle" x="2011.81" y="-302.3" font-family="Times,serif" font-size="14.00">Policies.AdBandits</text>
</g>
<!-- 16&#45;&gt;17 -->
<g id="edge27" class="edge"><title>16&#45;&gt;17</title>
<path fill="none" stroke="black" d="M1643.54,-175.853C1664.92,-185.64 1694.06,-200.104 1717.81,-216 1738.24,-229.678 1737.75,-241.13 1759.81,-252 1768.04,-256.059 1869.47,-276.732 1941.1,-291.026"/>
<polygon fill="black" stroke="black" points="1951,-292.998 1940.31,-295.457 1946.1,-292.021 1941.19,-291.044 1941.19,-291.044 1941.19,-291.044 1946.1,-292.021 1942.07,-286.631 1951,-292.998 1951,-292.998"/>
</g>
<!-- 18 -->
<g id="node19" class="node"><title>18</title>
<polygon fill="none" stroke="black" points="1952.31,-468 1861.31,-468 1861.31,-432 1952.31,-432 1952.31,-468"/>
<text text-anchor="middle" x="1906.81" y="-446.3" font-family="Times,serif" font-size="14.00">Policies.Aggr</text>
</g>
<!-- 16&#45;&gt;18 -->
<g id="edge28" class="edge"><title>16&#45;&gt;18</title>
<path fill="none" stroke="black" d="M1639.02,-180.066C1653,-189.96 1670.43,-203.002 1684.81,-216 1700.91,-230.556 1698.96,-241.238 1717.81,-252 1784.88,-290.292 1835.74,-230.956 1887.81,-288 1920.99,-324.36 1917.7,-386.191 1912.28,-421.714"/>
<polygon fill="black" stroke="black" points="1910.57,-431.837 1907.8,-421.227 1911.41,-426.907 1912.24,-421.977 1912.24,-421.977 1912.24,-421.977 1911.41,-426.907 1916.68,-422.727 1910.57,-431.837 1910.57,-431.837"/>
</g>
<!-- 20 -->
<g id="node21" class="node"><title>20</title>
<polygon fill="none" stroke="black" points="1675.81,-252 1551.81,-252 1551.81,-216 1675.81,-216 1675.81,-252"/>
<text text-anchor="middle" x="1613.81" y="-230.3" font-family="Times,serif" font-size="14.00">Policies.BayesUCB</text>
</g>
<!-- 16&#45;&gt;20 -->
<g id="edge29" class="edge"><title>16&#45;&gt;20</title>
<path fill="none" stroke="black" d="M1613.81,-180.303C1613.81,-188.017 1613.81,-197.288 1613.81,-205.888"/>
<polygon fill="black" stroke="black" points="1613.81,-215.896 1609.31,-205.896 1613.81,-210.896 1613.81,-205.896 1613.81,-205.896 1613.81,-205.896 1613.81,-210.896 1618.31,-205.896 1613.81,-215.896 1613.81,-215.896"/>
</g>
<!-- 23 -->
<g id="node24" class="node"><title>23</title>
<polygon fill="none" stroke="black" points="2325.31,-252 2160.31,-252 2160.31,-216 2325.31,-216 2325.31,-252"/>
<text text-anchor="middle" x="2242.81" y="-230.3" font-family="Times,serif" font-size="14.00">Policies.EpsilonDecreasing</text>
</g>
<!-- 16&#45;&gt;23 -->
<g id="edge30" class="edge"><title>16&#45;&gt;23</title>
<path fill="none" stroke="black" d="M1643.31,-165.166C1723.99,-171.257 1955,-189.812 2145.81,-216 2147.12,-216.18 2148.44,-216.364 2149.76,-216.553"/>
<polygon fill="black" stroke="black" points="2160.06,-218.074 2149.51,-221.064 2155.11,-217.343 2150.16,-216.612 2150.16,-216.612 2150.16,-216.612 2155.11,-217.343 2150.82,-212.161 2160.06,-218.074 2160.06,-218.074"/>
</g>
<!-- 24 -->
<g id="node25" class="node"><title>24</title>
<polygon fill="none" stroke="black" points="2549.81,-252 2343.81,-252 2343.81,-216 2549.81,-216 2549.81,-252"/>
<text text-anchor="middle" x="2446.81" y="-230.3" font-family="Times,serif" font-size="14.00">Policies.EpsilonDecreasingMEGA</text>
</g>
<!-- 16&#45;&gt;24 -->
<g id="edge31" class="edge"><title>16&#45;&gt;24</title>
<path fill="none" stroke="black" d="M1643.37,-164.371C1740.5,-169.043 2058.72,-185.698 2333.53,-216.028"/>
<polygon fill="black" stroke="black" points="2343.7,-217.158 2333.26,-220.525 2338.73,-216.606 2333.76,-216.053 2333.76,-216.053 2333.76,-216.053 2338.73,-216.606 2334.25,-211.581 2343.7,-217.158 2343.7,-217.158"/>
</g>
<!-- 25 -->
<g id="node26" class="node"><title>25</title>
<polygon fill="none" stroke="black" points="1956.31,-252 1769.31,-252 1769.31,-216 1956.31,-216 1956.31,-252"/>
<text text-anchor="middle" x="1862.81" y="-230.3" font-family="Times,serif" font-size="14.00">Policies.EpsilonExpDecreasing</text>
</g>
<!-- 16&#45;&gt;25 -->
<g id="edge32" class="edge"><title>16&#45;&gt;25</title>
<path fill="none" stroke="black" d="M1643.35,-171.305C1679.82,-181.558 1743.06,-199.337 1792.32,-213.184"/>
<polygon fill="black" stroke="black" points="1801.97,-215.897 1791.12,-217.523 1797.16,-214.544 1792.34,-213.191 1792.34,-213.191 1792.34,-213.191 1797.16,-214.544 1793.56,-208.859 1801.97,-215.897 1801.97,-215.897"/>
</g>
<!-- 26 -->
<g id="node27" class="node"><title>26</title>
<polygon fill="none" stroke="black" points="2103.31,-252 1974.31,-252 1974.31,-216 2103.31,-216 2103.31,-252"/>
<text text-anchor="middle" x="2038.81" y="-230.3" font-family="Times,serif" font-size="14.00">Policies.EpsilonFirst</text>
</g>
<!-- 16&#45;&gt;26 -->
<g id="edge33" class="edge"><title>16&#45;&gt;26</title>
<path fill="none" stroke="black" d="M1643.52,-166.712C1702.56,-174.252 1839,-192.505 1964.15,-215.959"/>
<polygon fill="black" stroke="black" points="1974.29,-217.876 1963.63,-220.44 1969.38,-216.947 1964.47,-216.019 1964.47,-216.019 1964.47,-216.019 1969.38,-216.947 1965.3,-211.597 1974.29,-217.876 1974.29,-217.876"/>
</g>
<!-- 27 -->
<g id="node28" class="node"><title>27</title>
<polygon fill="none" stroke="black" points="2266.81,-324 2122.81,-324 2122.81,-288 2266.81,-288 2266.81,-324"/>
<text text-anchor="middle" x="2194.81" y="-302.3" font-family="Times,serif" font-size="14.00">Policies.EpsilonGreedy</text>
</g>
<!-- 16&#45;&gt;27 -->
<g id="edge34" class="edge"><title>16&#45;&gt;27</title>
<path fill="none" stroke="black" d="M1643.56,-163.469C1737.86,-165.369 2028.77,-174.533 2111.81,-216 2119.52,-219.854 2151.18,-255.016 2173.08,-279.969"/>
<polygon fill="black" stroke="black" points="2179.81,-287.659 2169.84,-283.095 2176.52,-283.896 2173.23,-280.132 2173.23,-280.132 2173.23,-280.132 2176.52,-283.896 2176.61,-277.169 2179.81,-287.659 2179.81,-287.659"/>
</g>
<!-- 28 -->
<g id="node29" class="node"><title>28</title>
<polygon fill="none" stroke="black" points="2491.81,-396 2399.81,-396 2399.81,-360 2491.81,-360 2491.81,-396"/>
<text text-anchor="middle" x="2445.81" y="-374.3" font-family="Times,serif" font-size="14.00">Policies.Exp3</text>
</g>
<!-- 16&#45;&gt;28 -->
<g id="edge35" class="edge"><title>16&#45;&gt;28</title>
<path fill="none" stroke="black" d="M1643.32,-163.528C1799.8,-166.465 2526.58,-181.915 2558.81,-216 2600.77,-260.384 2528.93,-321.343 2481.83,-354.048"/>
<polygon fill="black" stroke="black" points="2473.35,-359.815 2479.09,-350.468 2477.49,-357.002 2481.62,-354.188 2481.62,-354.188 2481.62,-354.188 2477.49,-357.002 2484.15,-357.909 2473.35,-359.815 2473.35,-359.815"/>
</g>
<!-- 31 -->
<g id="node32" class="node"><title>31</title>
<polygon fill="none" stroke="black" points="2472.81,-468 2368.81,-468 2368.81,-432 2472.81,-432 2472.81,-468"/>
<text text-anchor="middle" x="2420.81" y="-446.3" font-family="Times,serif" font-size="14.00">Policies.MEGA</text>
</g>
<!-- 16&#45;&gt;31 -->
<g id="edge36" class="edge"><title>16&#45;&gt;31</title>
<path fill="none" stroke="black" d="M1643.45,-163.493C1802.3,-166.274 2546.81,-181.142 2579.81,-216 2639.87,-279.447 2563.82,-335.483 2500.81,-396 2488.88,-407.455 2474.17,-417.995 2460.64,-426.607"/>
<polygon fill="black" stroke="black" points="2451.95,-431.978 2458.09,-422.891 2456.21,-429.348 2460.46,-426.718 2460.46,-426.718 2460.46,-426.718 2456.21,-429.348 2462.83,-430.545 2451.95,-431.978 2451.95,-431.978"/>
</g>
<!-- 32 -->
<g id="node33" class="node"><title>32</title>
<polygon fill="none" stroke="black" points="692.306,-396 591.306,-396 591.306,-360 692.306,-360 692.306,-396"/>
<text text-anchor="middle" x="641.806" y="-374.3" font-family="Times,serif" font-size="14.00">Policies.MOSS</text>
</g>
<!-- 16&#45;&gt;32 -->
<g id="edge37" class="edge"><title>16&#45;&gt;32</title>
<path fill="none" stroke="black" d="M1584.18,-163.657C1427.05,-167.266 697.07,-185.626 660.806,-216 622.512,-248.075 628.183,-313.059 635.264,-349.905"/>
<polygon fill="black" stroke="black" points="637.362,-359.935 630.91,-351.068 636.338,-355.041 635.315,-350.147 635.315,-350.147 635.315,-350.147 636.338,-355.041 639.72,-349.226 637.362,-359.935 637.362,-359.935"/>
</g>
<!-- 33 -->
<g id="node34" class="node"><title>33</title>
<polygon fill="none" stroke="black" points="2628.31,-468 2491.31,-468 2491.31,-432 2628.31,-432 2628.31,-468"/>
<text text-anchor="middle" x="2559.81" y="-446.3" font-family="Times,serif" font-size="14.00">Policies.MusicalChair</text>
</g>
<!-- 16&#45;&gt;33 -->
<g id="edge38" class="edge"><title>16&#45;&gt;33</title>
<path fill="none" stroke="black" d="M1643.42,-163.45C1804.66,-166.04 2570.88,-180.207 2604.81,-216 2659.26,-273.443 2606.64,-375.892 2576.99,-423.445"/>
<polygon fill="black" stroke="black" points="2571.57,-431.929 2573.16,-421.078 2574.26,-427.714 2576.95,-423.498 2576.95,-423.498 2576.95,-423.498 2574.26,-427.714 2580.75,-425.919 2571.57,-431.929 2571.57,-431.929"/>
</g>
<!-- 35 -->
<g id="node36" class="node"><title>35</title>
<polygon fill="none" stroke="black" points="2756.81,-468 2646.81,-468 2646.81,-432 2756.81,-432 2756.81,-468"/>
<text text-anchor="middle" x="2701.81" y="-446.3" font-family="Times,serif" font-size="14.00">Policies.Softmax</text>
</g>
<!-- 16&#45;&gt;35 -->
<g id="edge39" class="edge"><title>16&#45;&gt;35</title>
<path fill="none" stroke="black" d="M1643.43,-163.6C1806.49,-167.021 2588.85,-185.01 2628.81,-216 2693.09,-265.859 2702.02,-371.912 2702.46,-421.882"/>
<polygon fill="black" stroke="black" points="2702.44,-431.932 2697.96,-421.922 2702.45,-426.932 2702.46,-421.932 2702.46,-421.932 2702.46,-421.932 2702.45,-426.932 2706.96,-421.942 2702.44,-431.932 2702.44,-431.932"/>
</g>
<!-- 36 -->
<g id="node37" class="node"><title>36</title>
<polygon fill="none" stroke="black" points="2889.81,-324 2743.81,-324 2743.81,-288 2889.81,-288 2889.81,-324"/>
<text text-anchor="middle" x="2816.81" y="-302.3" font-family="Times,serif" font-size="14.00">Policies.TakeFixedArm</text>
</g>
<!-- 16&#45;&gt;36 -->
<g id="edge40" class="edge"><title>16&#45;&gt;36</title>
<path fill="none" stroke="black" d="M1643.34,-163.635C1835.3,-167.832 2898.89,-192.141 2921.81,-216 2932.89,-227.54 2930.19,-238.374 2921.81,-252 2913.51,-265.481 2900.61,-275.657 2886.66,-283.294"/>
<polygon fill="black" stroke="black" points="2877.37,-287.956 2884.29,-279.447 2881.84,-285.712 2886.31,-283.469 2886.31,-283.469 2886.31,-283.469 2881.84,-285.712 2888.33,-287.491 2877.37,-287.956 2877.37,-287.956"/>
</g>
<!-- 37 -->
<g id="node38" class="node"><title>37</title>
<polygon fill="none" stroke="black" points="2913.31,-252 2720.31,-252 2720.31,-216 2913.31,-216 2913.31,-252"/>
<text text-anchor="middle" x="2816.81" y="-230.3" font-family="Times,serif" font-size="14.00">Policies.TakeRandomFixedArm</text>
</g>
<!-- 16&#45;&gt;37 -->
<g id="edge41" class="edge"><title>16&#45;&gt;37</title>
<path fill="none" stroke="black" d="M1643.42,-163.314C1770.93,-164.903 2285.61,-173.74 2705.81,-216 2707.12,-216.132 2708.43,-216.268 2709.76,-216.409"/>
<polygon fill="black" stroke="black" points="2720.02,-217.574 2709.58,-220.918 2715.05,-217.01 2710.08,-216.446 2710.08,-216.446 2710.08,-216.446 2715.05,-217.01 2710.59,-211.975 2720.02,-217.574 2720.02,-217.574"/>
</g>
<!-- 38 -->
<g id="node39" class="node"><title>38</title>
<polygon fill="none" stroke="black" points="1533.81,-252 1411.81,-252 1411.81,-216 1533.81,-216 1533.81,-252"/>
<text text-anchor="middle" x="1472.81" y="-230.3" font-family="Times,serif" font-size="14.00">Policies.Thompson</text>
</g>
<!-- 16&#45;&gt;38 -->
<g id="edge42" class="edge"><title>16&#45;&gt;38</title>
<path fill="none" stroke="black" d="M1584.25,-177.674C1564.6,-187.426 1538.47,-200.4 1516.45,-211.333"/>
<polygon fill="black" stroke="black" points="1507.29,-215.878 1514.25,-207.401 1511.77,-213.655 1516.25,-211.431 1516.25,-211.431 1516.25,-211.431 1511.77,-213.655 1518.25,-215.462 1507.29,-215.878 1507.29,-215.878"/>
</g>
<!-- 39 -->
<g id="node40" class="node"><title>39</title>
<polygon fill="none" stroke="black" points="1063.31,-396 972.306,-396 972.306,-360 1063.31,-360 1063.31,-396"/>
<text text-anchor="middle" x="1017.81" y="-374.3" font-family="Times,serif" font-size="14.00">Policies.UCB</text>
</g>
<!-- 16&#45;&gt;39 -->
<g id="edge43" class="edge"><title>16&#45;&gt;39</title>
<path fill="none" stroke="black" d="M1584.08,-162.856C1478.34,-162.771 1121.46,-166.256 1020.81,-216 970.375,-240.923 931.065,-273.002 954.806,-324 960.232,-335.656 969.624,-345.664 979.524,-353.744"/>
<polygon fill="black" stroke="black" points="987.506,-359.805 976.821,-357.342 983.524,-356.781 979.542,-353.758 979.542,-353.758 979.542,-353.758 983.524,-356.781 982.263,-350.174 987.506,-359.805 987.506,-359.805"/>
</g>
<!-- 40 -->
<g id="node41" class="node"><title>40</title>
<polygon fill="none" stroke="black" points="769.306,-324 668.306,-324 668.306,-288 769.306,-288 769.306,-324"/>
<text text-anchor="middle" x="718.806" y="-302.3" font-family="Times,serif" font-size="14.00">Policies.UCBV</text>
</g>
<!-- 16&#45;&gt;40 -->
<g id="edge44" class="edge"><title>16&#45;&gt;40</title>
<path fill="none" stroke="black" d="M1584.03,-163.716C1433.31,-167.475 760.518,-185.898 728.806,-216 712.556,-231.425 711.431,-257.685 713.553,-277.694"/>
<polygon fill="black" stroke="black" points="714.943,-287.777 709.12,-278.485 714.26,-282.824 713.578,-277.871 713.578,-277.871 713.578,-277.871 714.26,-282.824 718.036,-277.257 714.943,-287.777 714.943,-287.777"/>
</g>
<!-- 41 -->
<g id="node42" class="node"><title>41</title>
<polygon fill="none" stroke="black" points="869.306,-252 738.306,-252 738.306,-216 869.306,-216 869.306,-252"/>
<text text-anchor="middle" x="803.806" y="-230.3" font-family="Times,serif" font-size="14.00">Policies.UCBVtuned</text>
</g>
<!-- 16&#45;&gt;41 -->
<g id="edge45" class="edge"><title>16&#45;&gt;41</title>
<path fill="none" stroke="black" d="M1584.1,-163.699C1484.57,-166.351 1153.98,-177.67 883.806,-216 882.501,-216.185 881.186,-216.379 879.863,-216.581"/>
<polygon fill="black" stroke="black" points="869.6,-218.273 878.735,-212.206 874.534,-217.46 879.467,-216.646 879.467,-216.646 879.467,-216.646 874.534,-217.46 880.199,-221.086 869.6,-218.273 869.6,-218.273"/>
</g>
<!-- 42 -->
<g id="node43" class="node"><title>42</title>
<polygon fill="none" stroke="black" points="907.806,-324 787.806,-324 787.806,-288 907.806,-288 907.806,-324"/>
<text text-anchor="middle" x="847.806" y="-302.3" font-family="Times,serif" font-size="14.00">Policies.UCBalpha</text>
</g>
<!-- 16&#45;&gt;42 -->
<g id="edge46" class="edge"><title>16&#45;&gt;42</title>
<path fill="none" stroke="black" d="M1584,-163.919C1459.06,-167.952 981.287,-185.275 921.806,-216 895.057,-229.818 874.271,-257.947 861.63,-278.903"/>
<polygon fill="black" stroke="black" points="856.561,-287.665 857.674,-276.756 859.065,-283.337 861.569,-279.009 861.569,-279.009 861.569,-279.009 859.065,-283.337 865.464,-281.263 856.561,-287.665 856.561,-287.665"/>
</g>
<!-- 43 -->
<g id="node44" class="node"><title>43</title>
<polygon fill="none" stroke="black" points="1071.81,-324 963.806,-324 963.806,-288 1071.81,-288 1071.81,-324"/>
<text text-anchor="middle" x="1017.81" y="-302.3" font-family="Times,serif" font-size="14.00">Policies.UCBopt</text>
</g>
<!-- 16&#45;&gt;43 -->
<g id="edge47" class="edge"><title>16&#45;&gt;43</title>
<path fill="none" stroke="black" d="M1583.97,-163.895C1473.09,-167.475 1089.03,-182.234 1046.81,-216 1028.41,-230.711 1021.55,-257.295 1019.06,-277.592"/>
<polygon fill="black" stroke="black" points="1018.1,-287.82 1014.55,-277.443 1018.56,-282.842 1019.03,-277.864 1019.03,-277.864 1019.03,-277.864 1018.56,-282.842 1023.51,-278.285 1018.1,-287.82 1018.1,-287.82"/>
</g>
<!-- 44 -->
<g id="node45" class="node"><title>44</title>
<polygon fill="none" stroke="black" points="1203.31,-324 1090.31,-324 1090.31,-288 1203.31,-288 1203.31,-324"/>
<text text-anchor="middle" x="1146.81" y="-302.3" font-family="Times,serif" font-size="14.00">Policies.UCBplus</text>
</g>
<!-- 16&#45;&gt;44 -->
<g id="edge48" class="edge"><title>16&#45;&gt;44</title>
<path fill="none" stroke="black" d="M1584.18,-163.548C1474.15,-165.884 1093.48,-176.765 1057.81,-216 1047.04,-227.838 1049.9,-238.09 1057.81,-252 1065.17,-264.957 1077.09,-275.08 1089.85,-282.845"/>
<polygon fill="black" stroke="black" points="1098.77,-287.85 1087.85,-286.881 1094.41,-285.403 1090.05,-282.957 1090.05,-282.957 1090.05,-282.957 1094.41,-285.403 1092.26,-279.032 1098.77,-287.85 1098.77,-287.85"/>
</g>
<!-- 45 -->
<g id="node46" class="node"><title>45</title>
<polygon fill="none" stroke="black" points="1373.81,-324 1221.81,-324 1221.81,-288 1373.81,-288 1373.81,-324"/>
<text text-anchor="middle" x="1297.81" y="-302.3" font-family="Times,serif" font-size="14.00">Policies.UCBrandomInit</text>
</g>
<!-- 16&#45;&gt;45 -->
<g id="edge49" class="edge"><title>16&#45;&gt;45</title>
<path fill="none" stroke="black" d="M1584.02,-163.612C1475.2,-166.15 1103.66,-177.589 1068.81,-216 1058.05,-227.849 1058.85,-239.476 1068.81,-252 1073.48,-257.884 1148.66,-274.557 1211.62,-287.647"/>
<polygon fill="black" stroke="black" points="1221.61,-289.715 1210.9,-292.094 1216.71,-288.701 1211.82,-287.687 1211.82,-287.687 1211.82,-287.687 1216.71,-288.701 1212.73,-283.281 1221.61,-289.715 1221.61,-289.715"/>
</g>
<!-- 46 -->
<g id="node47" class="node"><title>46</title>
<polygon fill="none" stroke="black" points="875.306,-396 750.306,-396 750.306,-360 875.306,-360 875.306,-396"/>
<text text-anchor="middle" x="812.806" y="-374.3" font-family="Times,serif" font-size="14.00">Policies.UCBwrong</text>
</g>
<!-- 16&#45;&gt;46 -->
<g id="edge50" class="edge"><title>16&#45;&gt;46</title>
<path fill="none" stroke="black" d="M1584.15,-163.224C1436.84,-164.539 787.736,-172.763 709.806,-216 663.389,-241.753 627.978,-280.787 658.806,-324 677.396,-350.057 709.658,-363.433 739.866,-370.248"/>
<polygon fill="black" stroke="black" points="750.008,-372.316 739.311,-374.727 745.109,-371.317 740.21,-370.318 740.21,-370.318 740.21,-370.318 745.109,-371.317 741.109,-365.909 750.008,-372.316 750.008,-372.316"/>
</g>
<!-- 47 -->
<g id="node48" class="node"><title>47</title>
<polygon fill="none" stroke="black" points="3034.81,-324 2924.81,-324 2924.81,-288 3034.81,-288 3034.81,-324"/>
<text text-anchor="middle" x="2979.81" y="-302.3" font-family="Times,serif" font-size="14.00">Policies.Uniform</text>
</g>
<!-- 16&#45;&gt;47 -->
<g id="edge51" class="edge"><title>16&#45;&gt;47</title>
<path fill="none" stroke="black" d="M1643.32,-163.752C1836.37,-168.721 2912.01,-197.217 2939.81,-216 2960.46,-229.954 2970.59,-257.269 2975.46,-277.977"/>
<polygon fill="black" stroke="black" points="2977.51,-287.81 2971.07,-278.938 2976.49,-282.915 2975.47,-278.02 2975.47,-278.02 2975.47,-278.02 2976.49,-282.915 2979.88,-277.103 2977.51,-287.81 2977.51,-287.81"/>
</g>
<!-- 48 -->
<g id="node49" class="node"><title>48</title>
<polygon fill="none" stroke="black" points="3165.81,-252 3007.81,-252 3007.81,-216 3165.81,-216 3165.81,-252"/>
<text text-anchor="middle" x="3086.81" y="-230.3" font-family="Times,serif" font-size="14.00">Policies.UniformOnSome</text>
</g>
<!-- 16&#45;&gt;48 -->
<g id="edge52" class="edge"><title>16&#45;&gt;48</title>
<path fill="none" stroke="black" d="M1643.41,-163.562C1818.37,-166.971 2718.84,-185.745 2993.81,-216 2995.09,-216.141 2996.38,-216.29 2997.69,-216.446"/>
<polygon fill="black" stroke="black" points="3007.77,-217.762 2997.27,-220.93 3002.81,-217.115 2997.86,-216.468 2997.86,-216.468 2997.86,-216.468 3002.81,-217.115 2998.44,-212.006 3007.77,-217.762 3007.77,-217.762"/>
</g>
<!-- 49 -->
<g id="node50" class="node"><title>49</title>
<polygon fill="none" stroke="black" points="1682.31,-324 1581.31,-324 1581.31,-288 1682.31,-288 1682.31,-324"/>
<text text-anchor="middle" x="1631.81" y="-302.3" font-family="Times,serif" font-size="14.00">Policies.klUCB</text>
</g>
<!-- 16&#45;&gt;49 -->
<g id="edge53" class="edge"><title>16&#45;&gt;49</title>
<path fill="none" stroke="black" d="M1584.15,-164.779C1514.86,-170.014 1351.97,-189.19 1402.81,-252 1449.14,-309.244 1493.48,-272.81 1571,-288.126"/>
<polygon fill="black" stroke="black" points="1581.13,-290.387 1570.39,-292.601 1576.25,-289.298 1571.37,-288.209 1571.37,-288.209 1571.37,-288.209 1576.25,-289.298 1572.35,-283.817 1581.13,-290.387 1581.13,-290.387"/>
</g>
<!-- 50 -->
<g id="node51" class="node"><title>50</title>
<polygon fill="none" stroke="black" points="1211.81,-252 1077.81,-252 1077.81,-216 1211.81,-216 1211.81,-252"/>
<text text-anchor="middle" x="1144.81" y="-230.3" font-family="Times,serif" font-size="14.00">Policies.klUCBHPlus</text>
</g>
<!-- 16&#45;&gt;50 -->
<g id="edge54" class="edge"><title>16&#45;&gt;50</title>
<path fill="none" stroke="black" d="M1584.09,-166.124C1519.88,-173.062 1363.24,-191.001 1222.02,-215.866"/>
<polygon fill="black" stroke="black" points="1211.88,-217.668 1220.94,-211.488 1216.8,-216.793 1221.73,-215.918 1221.73,-215.918 1221.73,-215.918 1216.8,-216.793 1222.51,-220.349 1211.88,-217.668 1211.88,-217.668"/>
</g>
<!-- 51 -->
<g id="node52" class="node"><title>51</title>
<polygon fill="none" stroke="black" points="1355.31,-252 1230.31,-252 1230.31,-216 1355.31,-216 1355.31,-252"/>
<text text-anchor="middle" x="1292.81" y="-230.3" font-family="Times,serif" font-size="14.00">Policies.klUCBPlus</text>
</g>
<!-- 16&#45;&gt;51 -->
<g id="edge55" class="edge"><title>16&#45;&gt;51</title>
<path fill="none" stroke="black" d="M1584.13,-169.413C1538.19,-179.347 1447.09,-199.076 1369.81,-216 1368.34,-216.32 1366.87,-216.644 1365.38,-216.971"/>
<polygon fill="black" stroke="black" points="1355.42,-219.158 1364.22,-212.618 1360.3,-218.086 1365.18,-217.013 1365.18,-217.013 1365.18,-217.013 1360.3,-218.086 1366.15,-221.408 1355.42,-219.158 1355.42,-219.158"/>
</g>
<!-- 19 -->
<g id="node20" class="node"><title>19</title>
<polygon fill="none" stroke="black" points="2442.81,-540 2318.81,-540 2318.81,-504 2442.81,-504 2442.81,-540"/>
<text text-anchor="middle" x="2380.81" y="-518.3" font-family="Times,serif" font-size="14.00">Policies.BasePolicy</text>
</g>
<!-- 17&#45;&gt;19 -->
<g id="edge56" class="edge"><title>17&#45;&gt;19</title>
<path fill="none" stroke="black" d="M2041.38,-324.151C2107.72,-362.625 2268.37,-455.794 2342.35,-498.696"/>
<polygon fill="black" stroke="black" points="2351.35,-503.916 2340.44,-502.792 2347.02,-501.408 2342.7,-498.899 2342.7,-498.899 2342.7,-498.899 2347.02,-501.408 2344.96,-495.007 2351.35,-503.916 2351.35,-503.916"/>
</g>
<!-- 22 -->
<g id="node23" class="node"><title>22</title>
<polygon fill="none" stroke="black" points="2055.81,-396 1967.81,-396 1967.81,-360 2055.81,-360 2055.81,-396"/>
<text text-anchor="middle" x="2011.81" y="-374.3" font-family="Times,serif" font-size="14.00">Policies.Beta</text>
</g>
<!-- 17&#45;&gt;22 -->
<g id="edge57" class="edge"><title>17&#45;&gt;22</title>
<path fill="none" stroke="black" d="M2011.81,-324.303C2011.81,-332.017 2011.81,-341.288 2011.81,-349.888"/>
<polygon fill="black" stroke="black" points="2011.81,-359.896 2007.31,-349.896 2011.81,-354.896 2011.81,-349.896 2011.81,-349.896 2011.81,-349.896 2011.81,-354.896 2016.31,-349.896 2011.81,-359.896 2011.81,-359.896"/>
</g>
<!-- 18&#45;&gt;19 -->
<g id="edge58" class="edge"><title>18&#45;&gt;19</title>
<path fill="none" stroke="black" d="M1952.56,-465.796C1955.68,-466.601 1958.78,-467.346 1961.81,-468 2081.86,-493.94 2224.2,-508.626 2308.26,-515.679"/>
<polygon fill="black" stroke="black" points="2318.47,-516.522 2308.13,-520.183 2313.49,-516.11 2308.51,-515.698 2308.51,-515.698 2308.51,-515.698 2313.49,-516.11 2308.88,-511.214 2318.47,-516.522 2318.47,-516.522"/>
</g>
<!-- 21 -->
<g id="node22" class="node"><title>21</title>
<polygon fill="none" stroke="black" points="1878.81,-324 1700.81,-324 1700.81,-288 1878.81,-288 1878.81,-324"/>
<text text-anchor="middle" x="1789.81" y="-302.3" font-family="Times,serif" font-size="14.00">Policies.BayesianIndexPolicy</text>
</g>
<!-- 20&#45;&gt;21 -->
<g id="edge59" class="edge"><title>20&#45;&gt;21</title>
<path fill="none" stroke="black" d="M1656.86,-252.124C1681.13,-261.778 1711.65,-273.913 1737.31,-284.122"/>
<polygon fill="black" stroke="black" points="1746.89,-287.932 1735.94,-288.417 1742.25,-286.084 1737.6,-284.236 1737.6,-284.236 1737.6,-284.236 1742.25,-286.084 1739.26,-280.055 1746.89,-287.932 1746.89,-287.932"/>
</g>
<!-- 21&#45;&gt;22 -->
<g id="edge60" class="edge"><title>21&#45;&gt;22</title>
<path fill="none" stroke="black" d="M1843.83,-324.034C1878.41,-334.937 1923.1,-349.031 1957.7,-359.939"/>
<polygon fill="black" stroke="black" points="1967.63,-363.07 1956.74,-364.354 1962.86,-361.566 1958.09,-360.062 1958.09,-360.062 1958.09,-360.062 1962.86,-361.566 1959.44,-355.771 1967.63,-363.07 1967.63,-363.07"/>
</g>
<!-- 29 -->
<g id="node30" class="node"><title>29</title>
<polygon fill="none" stroke="black" points="1560.81,-468 1432.81,-468 1432.81,-432 1560.81,-432 1560.81,-468"/>
<text text-anchor="middle" x="1496.81" y="-446.3" font-family="Times,serif" font-size="14.00">Policies.IndexPolicy</text>
</g>
<!-- 21&#45;&gt;29 -->
<g id="edge61" class="edge"><title>21&#45;&gt;29</title>
<path fill="none" stroke="black" d="M1754.46,-324.129C1701.12,-349.982 1600.07,-398.955 1541.62,-427.28"/>
<polygon fill="black" stroke="black" points="1532.27,-431.811 1539.31,-423.4 1536.77,-429.63 1541.27,-427.449 1541.27,-427.449 1541.27,-427.449 1536.77,-429.63 1543.24,-431.499 1532.27,-431.811 1532.27,-431.811"/>
</g>
<!-- 34 -->
<g id="node35" class="node"><title>34</title>
<polygon fill="none" stroke="black" points="2082.81,-468 1970.81,-468 1970.81,-432 2082.81,-432 2082.81,-468"/>
<text text-anchor="middle" x="2026.81" y="-446.3" font-family="Times,serif" font-size="14.00">Policies.Posterior</text>
</g>
<!-- 22&#45;&gt;34 -->
<g id="edge62" class="edge"><title>22&#45;&gt;34</title>
<path fill="none" stroke="black" d="M2015.51,-396.303C2017.17,-404.017 2019.15,-413.288 2021,-421.888"/>
<polygon fill="black" stroke="black" points="2023.14,-431.896 2016.65,-423.061 2022.09,-427.007 2021.05,-422.118 2021.05,-422.118 2021.05,-422.118 2022.09,-427.007 2025.45,-421.175 2023.14,-431.896 2023.14,-431.896"/>
</g>
<!-- 23&#45;&gt;27 -->
<g id="edge63" class="edge"><title>23&#45;&gt;27</title>
<path fill="none" stroke="black" d="M2230.94,-252.303C2225.3,-260.526 2218.45,-270.517 2212.24,-279.579"/>
<polygon fill="black" stroke="black" points="2206.53,-287.896 2208.48,-277.103 2209.36,-283.772 2212.19,-279.648 2212.19,-279.648 2212.19,-279.648 2209.36,-283.772 2215.9,-282.193 2206.53,-287.896 2206.53,-287.896"/>
</g>
<!-- 24&#45;&gt;27 -->
<g id="edge64" class="edge"><title>24&#45;&gt;27</title>
<path fill="none" stroke="black" d="M2385.48,-252.034C2349.51,-262.028 2303.88,-274.702 2266.28,-285.146"/>
<polygon fill="black" stroke="black" points="2256.41,-287.889 2264.84,-280.877 2261.22,-286.551 2266.04,-285.213 2266.04,-285.213 2266.04,-285.213 2261.22,-286.551 2267.24,-289.549 2256.41,-287.889 2256.41,-287.889"/>
</g>
<!-- 25&#45;&gt;27 -->
<g id="edge65" class="edge"><title>25&#45;&gt;27</title>
<path fill="none" stroke="black" d="M1943.6,-252.034C1994.99,-262.87 2061.33,-276.857 2112.93,-287.736"/>
<polygon fill="black" stroke="black" points="2122.71,-289.799 2112,-292.139 2117.82,-288.768 2112.93,-287.736 2112.93,-287.736 2112.93,-287.736 2117.82,-288.768 2113.86,-283.333 2122.71,-289.799 2122.71,-289.799"/>
</g>
<!-- 26&#45;&gt;27 -->
<g id="edge66" class="edge"><title>26&#45;&gt;27</title>
<path fill="none" stroke="black" d="M2076.97,-252.124C2098.2,-261.651 2124.81,-273.593 2147.37,-283.717"/>
<polygon fill="black" stroke="black" points="2156.77,-287.932 2145.8,-287.943 2152.21,-285.885 2147.64,-283.838 2147.64,-283.838 2147.64,-283.838 2152.21,-285.885 2149.49,-279.732 2156.77,-287.932 2156.77,-287.932"/>
</g>
<!-- 27&#45;&gt;19 -->
<g id="edge67" class="edge"><title>27&#45;&gt;19</title>
<path fill="none" stroke="black" d="M2209.71,-324.151C2242.5,-361.873 2320.98,-452.173 2359.18,-496.124"/>
<polygon fill="black" stroke="black" points="2365.83,-503.768 2355.87,-499.172 2362.55,-499.994 2359.27,-496.22 2359.27,-496.22 2359.27,-496.22 2362.55,-499.994 2362.66,-493.268 2365.83,-503.768 2365.83,-503.768"/>
</g>
<!-- 28&#45;&gt;19 -->
<g id="edge68" class="edge"><title>28&#45;&gt;19</title>
<path fill="none" stroke="black" d="M2400.26,-396.023C2384.56,-404.342 2368.7,-416.075 2359.81,-432 2348.93,-451.476 2356.32,-476.384 2365.2,-494.894"/>
<polygon fill="black" stroke="black" points="2369.89,-503.927 2361.29,-497.126 2367.59,-499.49 2365.28,-495.053 2365.28,-495.053 2365.28,-495.053 2367.59,-499.49 2369.28,-492.979 2369.89,-503.927 2369.89,-503.927"/>
</g>
<!-- 29&#45;&gt;19 -->
<g id="edge69" class="edge"><title>29&#45;&gt;19</title>
<path fill="none" stroke="black" d="M1561.09,-456.091C1721.7,-468.809 2139.68,-501.906 2308.5,-515.275"/>
<polygon fill="black" stroke="black" points="2318.53,-516.069 2308.21,-519.765 2313.55,-515.674 2308.57,-515.279 2308.57,-515.279 2308.57,-515.279 2313.55,-515.674 2308.92,-510.794 2318.53,-516.069 2318.53,-516.069"/>
</g>
<!-- 30 -->
<g id="node31" class="node"><title>30</title>
<polygon fill="none" stroke="black" points="1563.31,-324 1430.31,-324 1430.31,-288 1563.31,-288 1563.31,-324"/>
<text text-anchor="middle" x="1496.81" y="-302.3" font-family="Times,serif" font-size="14.00">Policies.KLempUCB</text>
</g>
<!-- 30&#45;&gt;29 -->
<g id="edge70" class="edge"><title>30&#45;&gt;29</title>
<path fill="none" stroke="black" d="M1496.81,-324.129C1496.81,-348.33 1496.81,-392.789 1496.81,-421.607"/>
<polygon fill="black" stroke="black" points="1496.81,-431.811 1492.31,-421.811 1496.81,-426.811 1496.81,-421.811 1496.81,-421.811 1496.81,-421.811 1496.81,-426.811 1501.31,-421.811 1496.81,-431.811 1496.81,-431.811"/>
</g>
<!-- 52 -->
<g id="node53" class="node"><title>52</title>
<polygon fill="none" stroke="black" points="1462.81,-396 1352.81,-396 1352.81,-360 1462.81,-360 1462.81,-396"/>
<text text-anchor="middle" x="1407.81" y="-374.3" font-family="Times,serif" font-size="14.00">Policies.kullback</text>
</g>
<!-- 30&#45;&gt;52 -->
<g id="edge71" class="edge"><title>30&#45;&gt;52</title>
<path fill="none" stroke="black" d="M1474.81,-324.303C1463.6,-333.119 1449.8,-343.968 1437.65,-353.526"/>
<polygon fill="black" stroke="black" points="1429.55,-359.896 1434.63,-350.176 1433.48,-356.805 1437.41,-353.714 1437.41,-353.714 1437.41,-353.714 1433.48,-356.805 1440.2,-357.251 1429.55,-359.896 1429.55,-359.896"/>
</g>
<!-- 31&#45;&gt;19 -->
<g id="edge72" class="edge"><title>31&#45;&gt;19</title>
<path fill="none" stroke="black" d="M2410.92,-468.303C2406.32,-476.356 2400.75,-486.106 2395.65,-495.018"/>
<polygon fill="black" stroke="black" points="2390.58,-503.896 2391.63,-492.981 2393.06,-499.554 2395.54,-495.213 2395.54,-495.213 2395.54,-495.213 2393.06,-499.554 2399.45,-497.446 2390.58,-503.896 2390.58,-503.896"/>
</g>
<!-- 32&#45;&gt;29 -->
<g id="edge73" class="edge"><title>32&#45;&gt;29</title>
<path fill="none" stroke="black" d="M692.536,-388.715C707.987,-391.402 725.051,-394.1 740.806,-396 989.536,-425.998 1286.51,-440.693 1422.35,-446.253"/>
<polygon fill="black" stroke="black" points="1432.63,-446.669 1422.46,-450.761 1427.64,-446.467 1422.64,-446.265 1422.64,-446.265 1422.64,-446.265 1427.64,-446.467 1422.82,-441.769 1432.63,-446.669 1432.63,-446.669"/>
</g>
<!-- 33&#45;&gt;19 -->
<g id="edge74" class="edge"><title>33&#45;&gt;19</title>
<path fill="none" stroke="black" d="M2516.02,-468.124C2491.22,-477.821 2460.03,-490.02 2433.85,-500.257"/>
<polygon fill="black" stroke="black" points="2424.45,-503.932 2432.13,-496.099 2429.11,-502.111 2433.77,-500.29 2433.77,-500.29 2433.77,-500.29 2429.11,-502.111 2435.4,-504.481 2424.45,-503.932 2424.45,-503.932"/>
</g>
<!-- 35&#45;&gt;19 -->
<g id="edge75" class="edge"><title>35&#45;&gt;19</title>
<path fill="none" stroke="black" d="M2646.54,-465.663C2643.25,-466.47 2639.99,-467.255 2636.81,-468 2574.97,-482.477 2504.25,-496.961 2452.84,-507.121"/>
<polygon fill="black" stroke="black" points="2442.82,-509.094 2451.76,-502.746 2447.72,-508.127 2452.63,-507.161 2452.63,-507.161 2452.63,-507.161 2447.72,-508.127 2453.5,-511.576 2442.82,-509.094 2442.82,-509.094"/>
</g>
<!-- 36&#45;&gt;19 -->
<g id="edge76" class="edge"><title>36&#45;&gt;19</title>
<path fill="none" stroke="black" d="M2816.94,-324.047C2816.2,-357.403 2809.41,-431.244 2765.81,-468 2719.84,-506.746 2551.33,-517.231 2453.14,-520.026"/>
<polygon fill="black" stroke="black" points="2442.99,-520.295 2452.87,-515.531 2447.99,-520.162 2452.99,-520.03 2452.99,-520.03 2452.99,-520.03 2447.99,-520.162 2453.11,-524.528 2442.99,-520.295 2442.99,-520.295"/>
</g>
<!-- 37&#45;&gt;36 -->
<g id="edge77" class="edge"><title>37&#45;&gt;36</title>
<path fill="none" stroke="black" d="M2816.81,-252.303C2816.81,-260.017 2816.81,-269.288 2816.81,-277.888"/>
<polygon fill="black" stroke="black" points="2816.81,-287.896 2812.31,-277.896 2816.81,-282.896 2816.81,-277.896 2816.81,-277.896 2816.81,-277.896 2816.81,-282.896 2821.31,-277.896 2816.81,-287.896 2816.81,-287.896"/>
</g>
<!-- 38&#45;&gt;21 -->
<g id="edge78" class="edge"><title>38&#45;&gt;21</title>
<path fill="none" stroke="black" d="M1533.87,-249.931C1536.89,-250.638 1539.88,-251.331 1542.81,-252 1593.89,-263.682 1651.1,-276.004 1697.58,-285.825"/>
<polygon fill="black" stroke="black" points="1707.63,-287.945 1696.92,-290.284 1702.74,-286.913 1697.85,-285.881 1697.85,-285.881 1697.85,-285.881 1702.74,-286.913 1698.78,-281.478 1707.63,-287.945 1707.63,-287.945"/>
</g>
<!-- 39&#45;&gt;29 -->
<g id="edge79" class="edge"><title>39&#45;&gt;29</title>
<path fill="none" stroke="black" d="M1063.73,-385.712C1146.7,-397.837 1322.25,-423.491 1422.5,-438.141"/>
<polygon fill="black" stroke="black" points="1432.55,-439.61 1422.01,-442.617 1427.61,-438.887 1422.66,-438.164 1422.66,-438.164 1422.66,-438.164 1427.61,-438.887 1423.31,-433.711 1432.55,-439.61 1432.55,-439.61"/>
</g>
<!-- 40&#45;&gt;39 -->
<g id="edge80" class="edge"><title>40&#45;&gt;39</title>
<path fill="none" stroke="black" d="M769.49,-321.583C772.637,-322.42 775.762,-323.232 778.806,-324 841.325,-339.775 913.679,-355.466 962.256,-365.633"/>
<polygon fill="black" stroke="black" points="972.248,-367.716 961.54,-370.08 967.354,-366.696 962.459,-365.675 962.459,-365.675 962.459,-365.675 967.354,-366.696 963.378,-361.27 972.248,-367.716 972.248,-367.716"/>
</g>
<!-- 41&#45;&gt;40 -->
<g id="edge81" class="edge"><title>41&#45;&gt;40</title>
<path fill="none" stroke="black" d="M782.795,-252.303C772.09,-261.119 758.917,-271.968 747.311,-281.526"/>
<polygon fill="black" stroke="black" points="739.576,-287.896 744.434,-278.065 743.435,-284.717 747.295,-281.539 747.295,-281.539 747.295,-281.539 743.435,-284.717 750.156,-285.012 739.576,-287.896 739.576,-287.896"/>
</g>
<!-- 42&#45;&gt;39 -->
<g id="edge82" class="edge"><title>42&#45;&gt;39</title>
<path fill="none" stroke="black" d="M889.393,-324.124C912.839,-333.778 942.31,-345.913 967.104,-356.122"/>
<polygon fill="black" stroke="black" points="976.355,-359.932 965.394,-360.285 971.731,-358.028 967.108,-356.124 967.108,-356.124 967.108,-356.124 971.731,-358.028 968.821,-351.963 976.355,-359.932 976.355,-359.932"/>
</g>
<!-- 43&#45;&gt;39 -->
<g id="edge83" class="edge"><title>43&#45;&gt;39</title>
<path fill="none" stroke="black" d="M1017.81,-324.303C1017.81,-332.017 1017.81,-341.288 1017.81,-349.888"/>
<polygon fill="black" stroke="black" points="1017.81,-359.896 1013.31,-349.896 1017.81,-354.896 1017.81,-349.896 1017.81,-349.896 1017.81,-349.896 1017.81,-354.896 1022.31,-349.896 1017.81,-359.896 1017.81,-359.896"/>
</g>
<!-- 44&#45;&gt;39 -->
<g id="edge84" class="edge"><title>44&#45;&gt;39</title>
<path fill="none" stroke="black" d="M1115.25,-324.124C1098.15,-333.404 1076.82,-344.975 1058.49,-354.925"/>
<polygon fill="black" stroke="black" points="1049.48,-359.81 1056.13,-351.086 1053.88,-357.426 1058.27,-355.041 1058.27,-355.041 1058.27,-355.041 1053.88,-357.426 1060.42,-358.996 1049.48,-359.81 1049.48,-359.81"/>
</g>
<!-- 45&#45;&gt;39 -->
<g id="edge85" class="edge"><title>45&#45;&gt;39</title>
<path fill="none" stroke="black" d="M1229.67,-324.034C1181.66,-336.036 1118.19,-351.905 1073.27,-363.134"/>
<polygon fill="black" stroke="black" points="1063.41,-365.599 1072.02,-358.808 1068.26,-364.386 1073.11,-363.173 1073.11,-363.173 1073.11,-363.173 1068.26,-364.386 1074.2,-367.539 1063.41,-365.599 1063.41,-365.599"/>
</g>
<!-- 46&#45;&gt;29 -->
<g id="edge86" class="edge"><title>46&#45;&gt;29</title>
<path fill="none" stroke="black" d="M875.549,-386.308C902.412,-389.386 934.138,-392.953 962.806,-396 1126.88,-413.439 1319.51,-432.115 1422.66,-441.97"/>
<polygon fill="black" stroke="black" points="1432.66,-442.925 1422.28,-446.454 1427.68,-442.449 1422.71,-441.974 1422.71,-441.974 1422.71,-441.974 1427.68,-442.449 1423.13,-437.495 1432.66,-442.925 1432.66,-442.925"/>
</g>
<!-- 47&#45;&gt;19 -->
<g id="edge87" class="edge"><title>47&#45;&gt;19</title>
<path fill="none" stroke="black" d="M2966.32,-324.014C2938.31,-357.994 2870.03,-433.912 2793.81,-468 2734.55,-494.5 2555.2,-509.902 2453.4,-516.736"/>
<polygon fill="black" stroke="black" points="2443.19,-517.41 2452.87,-512.26 2448.18,-517.08 2453.17,-516.751 2453.17,-516.751 2453.17,-516.751 2448.18,-517.08 2453.47,-521.241 2443.19,-517.41 2443.19,-517.41"/>
</g>
<!-- 48&#45;&gt;47 -->
<g id="edge88" class="edge"><title>48&#45;&gt;47</title>
<path fill="none" stroke="black" d="M3060.63,-252.124C3046.77,-261.192 3029.56,-272.448 3014.6,-282.241"/>
<polygon fill="black" stroke="black" points="3006.08,-287.81 3011.99,-278.57 3010.27,-285.073 3014.45,-282.336 3014.45,-282.336 3014.45,-282.336 3010.27,-285.073 3016.91,-286.101 3006.08,-287.81 3006.08,-287.81"/>
</g>
<!-- 49&#45;&gt;29 -->
<g id="edge89" class="edge"><title>49&#45;&gt;29</title>
<path fill="none" stroke="black" d="M1615.52,-324.129C1591.8,-349.076 1547.62,-395.55 1520.36,-424.227"/>
<polygon fill="black" stroke="black" points="1513.15,-431.811 1516.78,-421.463 1516.59,-428.187 1520.04,-424.563 1520.04,-424.563 1520.04,-424.563 1516.59,-428.187 1523.3,-427.664 1513.15,-431.811 1513.15,-431.811"/>
</g>
<!-- 49&#45;&gt;52 -->
<g id="edge90" class="edge"><title>49&#45;&gt;52</title>
<path fill="none" stroke="black" d="M1581.26,-322.797C1548.94,-332.896 1506.74,-346.085 1472.05,-356.924"/>
<polygon fill="black" stroke="black" points="1462.48,-359.914 1470.68,-352.636 1467.25,-358.423 1472.03,-356.931 1472.03,-356.931 1472.03,-356.931 1467.25,-358.423 1473.37,-361.227 1462.48,-359.914 1462.48,-359.914"/>
</g>
<!-- 50&#45;&gt;49 -->
<g id="edge91" class="edge"><title>50&#45;&gt;49</title>
<path fill="none" stroke="black" d="M1211.86,-250.449C1214.88,-251.002 1217.87,-251.523 1220.81,-252 1372.42,-276.644 1416.01,-259.26 1571.31,-288.123"/>
<polygon fill="black" stroke="black" points="1581.22,-289.998 1570.55,-292.559 1576.3,-289.068 1571.39,-288.138 1571.39,-288.138 1571.39,-288.138 1576.3,-289.068 1572.23,-283.716 1581.22,-289.998 1581.22,-289.998"/>
</g>
<!-- 50&#45;&gt;52 -->
<g id="edge92" class="edge"><title>50&#45;&gt;52</title>
<path fill="none" stroke="black" d="M1211.94,-250.022C1214.94,-250.691 1217.9,-251.353 1220.81,-252 1292.8,-268.05 1329.23,-237.305 1382.81,-288 1399.6,-303.896 1405.41,-330.097 1407.28,-349.964"/>
<polygon fill="black" stroke="black" points="1407.95,-359.965 1402.79,-350.287 1407.61,-354.976 1407.28,-349.988 1407.28,-349.988 1407.28,-349.988 1407.61,-354.976 1411.77,-349.688 1407.95,-359.965 1407.95,-359.965"/>
</g>
<!-- 51&#45;&gt;49 -->
<g id="edge93" class="edge"><title>51&#45;&gt;49</title>
<path fill="none" stroke="black" d="M1355.38,-249.039C1360.25,-250.064 1365.11,-251.063 1369.81,-252 1456.18,-269.224 1481.24,-267.678 1571.34,-288.022"/>
<polygon fill="black" stroke="black" points="1581.16,-290.266 1570.41,-292.424 1576.28,-289.152 1571.41,-288.038 1571.41,-288.038 1571.41,-288.038 1576.28,-289.152 1572.41,-283.651 1581.16,-290.266 1581.16,-290.266"/>
</g>
<!-- 53 -->
<g id="node54" class="node"><title>53</title>
<polygon fill="none" stroke="black" points="4964.81,-180 4834.81,-180 4834.81,-144 4964.81,-144 4964.81,-180"/>
<text text-anchor="middle" x="4899.81" y="-158.3" font-family="Times,serif" font-size="14.00">PoliciesMultiPlayers</text>
</g>
<!-- 54 -->
<g id="node55" class="node"><title>54</title>
<polygon fill="none" stroke="black" points="5963.31,-252 5782.31,-252 5782.31,-216 5963.31,-216 5963.31,-252"/>
<text text-anchor="middle" x="5872.81" y="-230.3" font-family="Times,serif" font-size="14.00">PoliciesMultiPlayers.ALOHA</text>
</g>
<!-- 53&#45;&gt;54 -->
<g id="edge94" class="edge"><title>53&#45;&gt;54</title>
<path fill="none" stroke="black" d="M4964.9,-164.555C5108.69,-168.508 5464.31,-181.134 5772.11,-216.001"/>
<polygon fill="black" stroke="black" points="5782.12,-217.144 5771.67,-220.48 5777.15,-216.577 5772.18,-216.009 5772.18,-216.009 5772.18,-216.009 5777.15,-216.577 5772.69,-211.538 5782.12,-217.144 5782.12,-217.144"/>
</g>
<!-- 57 -->
<g id="node58" class="node"><title>57</title>
<polygon fill="none" stroke="black" points="4884.31,-252 4645.31,-252 4645.31,-216 4884.31,-216 4884.31,-252"/>
<text text-anchor="middle" x="4764.81" y="-230.3" font-family="Times,serif" font-size="14.00">PoliciesMultiPlayers.CentralizedCycling</text>
</g>
<!-- 53&#45;&gt;57 -->
<g id="edge95" class="edge"><title>53&#45;&gt;57</title>
<path fill="none" stroke="black" d="M4866.78,-180.124C4848.72,-189.488 4826.16,-201.186 4806.85,-211.197"/>
<polygon fill="black" stroke="black" points="4797.96,-215.81 4804.76,-207.212 4802.4,-213.509 4806.84,-211.207 4806.84,-211.207 4806.84,-211.207 4802.4,-213.509 4808.91,-215.202 4797.96,-215.81 4797.96,-215.81"/>
</g>
<!-- 58 -->
<g id="node59" class="node"><title>58</title>
<polygon fill="none" stroke="black" points="4188.31,-252 3961.31,-252 3961.31,-216 4188.31,-216 4188.31,-252"/>
<text text-anchor="middle" x="4074.81" y="-230.3" font-family="Times,serif" font-size="14.00">PoliciesMultiPlayers.CentralizedFixed</text>
</g>
<!-- 53&#45;&gt;58 -->
<g id="edge96" class="edge"><title>53&#45;&gt;58</title>
<path fill="none" stroke="black" d="M4834.36,-166.583C4711.77,-173.591 4439.04,-190.585 4198.36,-215.982"/>
<polygon fill="black" stroke="black" points="4188.37,-217.043 4197.84,-211.512 4193.34,-216.515 4198.31,-215.987 4198.31,-215.987 4198.31,-215.987 4193.34,-216.515 4198.79,-220.462 4188.37,-217.043 4188.37,-217.043"/>
</g>
<!-- 59 -->
<g id="node60" class="node"><title>59</title>
<polygon fill="none" stroke="black" points="5169.31,-252 4902.31,-252 4902.31,-216 5169.31,-216 5169.31,-252"/>
<text text-anchor="middle" x="5035.81" y="-230.3" font-family="Times,serif" font-size="14.00">PoliciesMultiPlayers.CentralizedMultiplePlay</text>
</g>
<!-- 53&#45;&gt;59 -->
<g id="edge97" class="edge"><title>53&#45;&gt;59</title>
<path fill="none" stroke="black" d="M4933.08,-180.124C4951.27,-189.488 4974,-201.186 4993.45,-211.197"/>
<polygon fill="black" stroke="black" points="5002.41,-215.81 4991.46,-215.235 4997.96,-213.522 4993.52,-211.234 4993.52,-211.234 4993.52,-211.234 4997.96,-213.522 4995.58,-207.233 5002.41,-215.81 5002.41,-215.81"/>
</g>
<!-- 62 -->
<g id="node63" class="node"><title>62</title>
<polygon fill="none" stroke="black" points="4397.31,-252 4206.31,-252 4206.31,-216 4397.31,-216 4397.31,-252"/>
<text text-anchor="middle" x="4301.81" y="-230.3" font-family="Times,serif" font-size="14.00">PoliciesMultiPlayers.OracleFair</text>
</g>
<!-- 53&#45;&gt;62 -->
<g id="edge98" class="edge"><title>53&#45;&gt;62</title>
<path fill="none" stroke="black" d="M4834.68,-168.884C4742.14,-177.492 4567.1,-194.691 4407.36,-215.968"/>
<polygon fill="black" stroke="black" points="4397.34,-217.31 4406.66,-211.522 4402.3,-216.646 4407.25,-215.982 4407.25,-215.982 4407.25,-215.982 4402.3,-216.646 4407.85,-220.442 4397.34,-217.31 4397.34,-217.31"/>
</g>
<!-- 63 -->
<g id="node64" class="node"><title>63</title>
<polygon fill="none" stroke="black" points="4627.81,-252 4415.81,-252 4415.81,-216 4627.81,-216 4627.81,-252"/>
<text text-anchor="middle" x="4521.81" y="-230.3" font-family="Times,serif" font-size="14.00">PoliciesMultiPlayers.OracleNotFair</text>
</g>
<!-- 53&#45;&gt;63 -->
<g id="edge99" class="edge"><title>53&#45;&gt;63</title>
<path fill="none" stroke="black" d="M4834.4,-175.113C4776.41,-185.851 4690.79,-201.707 4623.81,-214.111"/>
<polygon fill="black" stroke="black" points="4613.65,-215.992 4622.66,-209.746 4618.56,-215.082 4623.48,-214.171 4623.48,-214.171 4623.48,-214.171 4618.56,-215.082 4624.3,-218.596 4613.65,-215.992 4613.65,-215.992"/>
</g>
<!-- 64 -->
<g id="node65" class="node"><title>64</title>
<polygon fill="none" stroke="black" points="5375.81,-252 5187.81,-252 5187.81,-216 5375.81,-216 5375.81,-252"/>
<text text-anchor="middle" x="5281.81" y="-230.3" font-family="Times,serif" font-size="14.00">PoliciesMultiPlayers.Scenario1</text>
</g>
<!-- 53&#45;&gt;64 -->
<g id="edge100" class="edge"><title>53&#45;&gt;64</title>
<path fill="none" stroke="black" d="M4965.04,-174.954C5023.74,-185.71 5110.96,-201.693 5179.03,-214.166"/>
<polygon fill="black" stroke="black" points="5188.93,-215.98 5178.28,-218.604 5184.01,-215.079 5179.09,-214.178 5179.09,-214.178 5179.09,-214.178 5184.01,-215.079 5179.9,-209.751 5188.93,-215.98 5188.93,-215.98"/>
</g>
<!-- 65 -->
<g id="node66" class="node"><title>65</title>
<polygon fill="none" stroke="black" points="5565.31,-252 5394.31,-252 5394.31,-216 5565.31,-216 5565.31,-252"/>
<text text-anchor="middle" x="5479.81" y="-230.3" font-family="Times,serif" font-size="14.00">PoliciesMultiPlayers.Selfish</text>
</g>
<!-- 53&#45;&gt;65 -->
<g id="edge101" class="edge"><title>53&#45;&gt;65</title>
<path fill="none" stroke="black" d="M4965.1,-168.708C5056.4,-177.008 5227.6,-193.721 5383.87,-215.923"/>
<polygon fill="black" stroke="black" points="5394.14,-217.394 5383.61,-220.431 5389.2,-216.685 5384.25,-215.977 5384.25,-215.977 5384.25,-215.977 5389.2,-216.685 5384.88,-211.522 5394.14,-217.394 5394.14,-217.394"/>
</g>
<!-- 67 -->
<g id="node68" class="node"><title>67</title>
<polygon fill="none" stroke="black" points="5763.81,-252 5583.81,-252 5583.81,-216 5763.81,-216 5763.81,-252"/>
<text text-anchor="middle" x="5673.81" y="-230.3" font-family="Times,serif" font-size="14.00">PoliciesMultiPlayers.rhoRand</text>
</g>
<!-- 53&#45;&gt;67 -->
<g id="edge102" class="edge"><title>53&#45;&gt;67</title>
<path fill="none" stroke="black" d="M4965.17,-166.136C5084.16,-172.281 5344.25,-187.724 5573.55,-215.91"/>
<polygon fill="black" stroke="black" points="5583.75,-217.175 5573.27,-220.41 5578.79,-216.56 5573.83,-215.945 5573.83,-215.945 5573.83,-215.945 5578.79,-216.56 5574.38,-211.479 5583.75,-217.175 5583.75,-217.175"/>
</g>
<!-- 56 -->
<g id="node57" class="node"><title>56</title>
<polygon fill="none" stroke="black" points="5256.31,-324 5041.31,-324 5041.31,-288 5256.31,-288 5256.31,-324"/>
<text text-anchor="middle" x="5148.81" y="-302.3" font-family="Times,serif" font-size="14.00">PoliciesMultiPlayers.BaseMPPolicy</text>
</g>
<!-- 54&#45;&gt;56 -->
<g id="edge103" class="edge"><title>54&#45;&gt;56</title>
<path fill="none" stroke="black" d="M5782.1,-250.76C5778.97,-251.196 5775.86,-251.611 5772.81,-252 5597.05,-274.364 5392.19,-289.732 5266.51,-297.949"/>
<polygon fill="black" stroke="black" points="5256.48,-298.601 5266.16,-293.462 5261.47,-298.277 5266.46,-297.952 5266.46,-297.952 5266.46,-297.952 5261.47,-298.277 5266.75,-302.443 5256.48,-298.601 5256.48,-298.601"/>
</g>
<!-- 60 -->
<g id="node61" class="node"><title>60</title>
<polygon fill="none" stroke="black" points="5023.31,-324 4820.31,-324 4820.31,-288 5023.31,-288 5023.31,-324"/>
<text text-anchor="middle" x="4921.81" y="-302.3" font-family="Times,serif" font-size="14.00">PoliciesMultiPlayers.ChildPointer</text>
</g>
<!-- 54&#45;&gt;60 -->
<g id="edge104" class="edge"><title>54&#45;&gt;60</title>
<path fill="none" stroke="black" d="M5782.12,-250.904C5778.98,-251.299 5775.87,-251.666 5772.81,-252 5448.82,-287.291 5362.2,-255.694 5033.67,-287.99"/>
<polygon fill="black" stroke="black" points="5023.38,-289.014 5032.88,-283.546 5028.35,-288.519 5033.33,-288.024 5033.33,-288.024 5033.33,-288.024 5028.35,-288.519 5033.77,-292.501 5023.38,-289.014 5023.38,-289.014"/>
</g>
<!-- 55 -->
<g id="node56" class="node"><title>55</title>
<polygon fill="none" stroke="black" points="4540.31,-324 4283.31,-324 4283.31,-288 4540.31,-288 4540.31,-324"/>
<text text-anchor="middle" x="4411.81" y="-302.3" font-family="Times,serif" font-size="14.00">PoliciesMultiPlayers.BaseCentralizedPolicy</text>
</g>
<!-- 57&#45;&gt;55 -->
<g id="edge105" class="edge"><title>57&#45;&gt;55</title>
<path fill="none" stroke="black" d="M4678.9,-252.034C4627.13,-262.302 4561.08,-275.399 4507.62,-286.001"/>
<polygon fill="black" stroke="black" points="4497.79,-287.95 4506.72,-281.591 4502.69,-286.977 4507.6,-286.005 4507.6,-286.005 4507.6,-286.005 4502.69,-286.977 4508.47,-290.419 4497.79,-287.95 4497.79,-287.95"/>
</g>
<!-- 57&#45;&gt;56 -->
<g id="edge106" class="edge"><title>57&#45;&gt;56</title>
<path fill="none" stroke="black" d="M4858.25,-252.034C4914.81,-262.344 4987.02,-275.508 5045.3,-286.133"/>
<polygon fill="black" stroke="black" points="5055.27,-287.95 5044.63,-290.584 5050.36,-287.053 5045.44,-286.157 5045.44,-286.157 5045.44,-286.157 5050.36,-287.053 5046.24,-281.729 5055.27,-287.95 5055.27,-287.95"/>
</g>
<!-- 57&#45;&gt;60 -->
<g id="edge107" class="edge"><title>57&#45;&gt;60</title>
<path fill="none" stroke="black" d="M4803.21,-252.124C4824.68,-261.693 4851.6,-273.7 4874.37,-283.852"/>
<polygon fill="black" stroke="black" points="4883.52,-287.932 4872.56,-287.969 4878.96,-285.896 4874.39,-283.859 4874.39,-283.859 4874.39,-283.859 4878.96,-285.896 4876.22,-279.749 4883.52,-287.932 4883.52,-287.932"/>
</g>
<!-- 58&#45;&gt;55 -->
<g id="edge108" class="edge"><title>58&#45;&gt;55</title>
<path fill="none" stroke="black" d="M4156.81,-252.034C4206.04,-262.259 4268.78,-275.29 4319.7,-285.869"/>
<polygon fill="black" stroke="black" points="4329.72,-287.95 4319.02,-290.322 4324.83,-286.933 4319.93,-285.916 4319.93,-285.916 4319.93,-285.916 4324.83,-286.933 4320.85,-281.51 4329.72,-287.95 4329.72,-287.95"/>
</g>
<!-- 58&#45;&gt;56 -->
<g id="edge109" class="edge"><title>58&#45;&gt;56</title>
<path fill="none" stroke="black" d="M4188.36,-251.091C4191.54,-251.414 4194.69,-251.718 4197.81,-252 4564.41,-285.163 4661.26,-253.604 5030.93,-287.88"/>
<polygon fill="black" stroke="black" points="5041.1,-288.833 5030.73,-292.381 5036.13,-288.367 5031.15,-287.9 5031.15,-287.9 5031.15,-287.9 5036.13,-288.367 5031.57,-283.42 5041.1,-288.833 5041.1,-288.833"/>
</g>
<!-- 58&#45;&gt;60 -->
<g id="edge110" class="edge"><title>58&#45;&gt;60</title>
<path fill="none" stroke="black" d="M4188.37,-250.966C4191.55,-251.326 4194.7,-251.672 4197.81,-252 4414.14,-274.845 4667.89,-290.978 4810.25,-299.064"/>
<polygon fill="black" stroke="black" points="4820.3,-299.633 4810.06,-303.561 4815.31,-299.35 4810.32,-299.068 4810.32,-299.068 4810.32,-299.068 4815.31,-299.35 4810.57,-294.575 4820.3,-299.633 4820.3,-299.633"/>
</g>
<!-- 59&#45;&gt;56 -->
<g id="edge111" class="edge"><title>59&#45;&gt;56</title>
<path fill="none" stroke="black" d="M5063.45,-252.124C5078.22,-261.276 5096.6,-272.658 5112.51,-282.515"/>
<polygon fill="black" stroke="black" points="5121.06,-287.81 5110.19,-286.37 5116.81,-285.177 5112.56,-282.544 5112.56,-282.544 5112.56,-282.544 5116.81,-285.177 5114.93,-278.719 5121.06,-287.81 5121.06,-287.81"/>
</g>
<!-- 59&#45;&gt;60 -->
<g id="edge112" class="edge"><title>59&#45;&gt;60</title>
<path fill="none" stroke="black" d="M5007.92,-252.124C4993.01,-261.276 4974.48,-272.658 4958.42,-282.515"/>
<polygon fill="black" stroke="black" points="4949.8,-287.81 4955.97,-278.743 4954.06,-285.194 4958.32,-282.578 4958.32,-282.578 4958.32,-282.578 4954.06,-285.194 4960.68,-286.412 4949.8,-287.81 4949.8,-287.81"/>
</g>
<!-- 61 -->
<g id="node62" class="node"><title>61</title>
<polygon fill="none" stroke="black" points="3629.31,-36 3464.31,-36 3464.31,-0 3629.31,-0 3629.31,-36"/>
<text text-anchor="middle" x="3546.81" y="-14.3" font-family="Times,serif" font-size="14.00">PoliciesMultiPlayers.DMC</text>
</g>
<!-- 62&#45;&gt;55 -->
<g id="edge113" class="edge"><title>62&#45;&gt;55</title>
<path fill="none" stroke="black" d="M4328.72,-252.124C4342.96,-261.192 4360.65,-272.448 4376.04,-282.241"/>
<polygon fill="black" stroke="black" points="4384.79,-287.81 4373.94,-286.238 4380.58,-285.126 4376.36,-282.441 4376.36,-282.441 4376.36,-282.441 4380.58,-285.126 4378.77,-278.645 4384.79,-287.81 4384.79,-287.81"/>
</g>
<!-- 62&#45;&gt;56 -->
<g id="edge114" class="edge"><title>62&#45;&gt;56</title>
<path fill="none" stroke="black" d="M4397.32,-250.892C4400.52,-251.288 4403.69,-251.659 4406.81,-252 4680.59,-281.955 4753.85,-260.289 5031.15,-287.884"/>
<polygon fill="black" stroke="black" points="5041.1,-288.886 5030.7,-292.361 5036.12,-288.385 5031.15,-287.884 5031.15,-287.884 5031.15,-287.884 5036.12,-288.385 5031.6,-283.406 5041.1,-288.886 5041.1,-288.886"/>
</g>
<!-- 62&#45;&gt;60 -->
<g id="edge115" class="edge"><title>62&#45;&gt;60</title>
<path fill="none" stroke="black" d="M4397.34,-250.708C4400.53,-251.156 4403.69,-251.588 4406.81,-252 4545.21,-270.31 4705.26,-285.913 4809.73,-295.353"/>
<polygon fill="black" stroke="black" points="4819.98,-296.275 4809.61,-299.86 4815,-295.827 4810.02,-295.378 4810.02,-295.378 4810.02,-295.378 4815,-295.827 4810.42,-290.897 4819.98,-296.275 4819.98,-296.275"/>
</g>
<!-- 63&#45;&gt;55 -->
<g id="edge116" class="edge"><title>63&#45;&gt;55</title>
<path fill="none" stroke="black" d="M4494.9,-252.124C4480.65,-261.192 4462.96,-272.448 4447.57,-282.241"/>
<polygon fill="black" stroke="black" points="4438.82,-287.81 4444.84,-278.645 4443.04,-285.126 4447.26,-282.441 4447.26,-282.441 4447.26,-282.441 4443.04,-285.126 4449.67,-286.238 4438.82,-287.81 4438.82,-287.81"/>
</g>
<!-- 63&#45;&gt;56 -->
<g id="edge117" class="edge"><title>63&#45;&gt;56</title>
<path fill="none" stroke="black" d="M4627.98,-250.917C4630.95,-251.292 4633.9,-251.653 4636.81,-252 4809.03,-272.542 4855.6,-267.384 5031,-287.821"/>
<polygon fill="black" stroke="black" points="5041.09,-289.008 5030.63,-292.309 5036.12,-288.424 5031.15,-287.84 5031.15,-287.84 5031.15,-287.84 5036.12,-288.424 5031.68,-283.371 5041.09,-289.008 5041.09,-289.008"/>
</g>
<!-- 63&#45;&gt;60 -->
<g id="edge118" class="edge"><title>63&#45;&gt;60</title>
<path fill="none" stroke="black" d="M4619.15,-252.034C4678.18,-262.366 4753.59,-275.562 4814.37,-286.198"/>
<polygon fill="black" stroke="black" points="4824.38,-287.95 4813.75,-290.659 4819.45,-287.088 4814.53,-286.226 4814.53,-286.226 4814.53,-286.226 4819.45,-287.088 4815.3,-281.793 4824.38,-287.95 4824.38,-287.95"/>
</g>
<!-- 64&#45;&gt;56 -->
<g id="edge119" class="edge"><title>64&#45;&gt;56</title>
<path fill="none" stroke="black" d="M5249.27,-252.124C5231.56,-261.446 5209.45,-273.081 5190.49,-283.061"/>
<polygon fill="black" stroke="black" points="5181.47,-287.81 5188.22,-279.171 5185.89,-285.481 5190.32,-283.153 5190.32,-283.153 5190.32,-283.153 5185.89,-285.481 5192.41,-287.135 5181.47,-287.81 5181.47,-287.81"/>
</g>
<!-- 64&#45;&gt;60 -->
<g id="edge120" class="edge"><title>64&#45;&gt;60</title>
<path fill="none" stroke="black" d="M5194.2,-252.034C5141.4,-262.302 5074.04,-275.399 5019.52,-286.001"/>
<polygon fill="black" stroke="black" points="5009.49,-287.95 5018.45,-281.624 5014.4,-286.996 5019.31,-286.041 5019.31,-286.041 5019.31,-286.041 5014.4,-286.996 5020.17,-290.458 5009.49,-287.95 5009.49,-287.95"/>
</g>
<!-- 65&#45;&gt;56 -->
<g id="edge121" class="edge"><title>65&#45;&gt;56</title>
<path fill="none" stroke="black" d="M5399.26,-252.034C5350.91,-262.259 5289.29,-275.29 5239.27,-285.869"/>
<polygon fill="black" stroke="black" points="5229.43,-287.95 5238.28,-281.478 5234.32,-286.915 5239.21,-285.881 5239.21,-285.881 5239.21,-285.881 5234.32,-286.915 5240.14,-290.283 5229.43,-287.95 5229.43,-287.95"/>
</g>
<!-- 65&#45;&gt;60 -->
<g id="edge122" class="edge"><title>65&#45;&gt;60</title>
<path fill="none" stroke="black" d="M5394.15,-250.634C5391,-251.112 5387.88,-251.569 5384.81,-252 5232.27,-273.418 5190.5,-268.315 5033.42,-287.965"/>
<polygon fill="black" stroke="black" points="5023.4,-289.232 5032.76,-283.513 5028.36,-288.605 5033.32,-287.977 5033.32,-287.977 5033.32,-287.977 5028.36,-288.605 5033.89,-292.442 5023.4,-289.232 5023.4,-289.232"/>
</g>
<!-- 66 -->
<g id="node67" class="node"><title>66</title>
<polygon fill="none" stroke="black" points="3814.31,-36 3647.31,-36 3647.31,-0 3814.31,-0 3814.31,-36"/>
<text text-anchor="middle" x="3730.81" y="-14.3" font-family="Times,serif" font-size="14.00">PoliciesMultiPlayers.TDFS</text>
</g>
<!-- 67&#45;&gt;56 -->
<g id="edge123" class="edge"><title>67&#45;&gt;56</title>
<path fill="none" stroke="black" d="M5583.73,-250.65C5580.72,-251.115 5577.74,-251.566 5574.81,-252 5470.91,-267.375 5352.31,-281.883 5266.68,-291.819"/>
<polygon fill="black" stroke="black" points="5256.67,-292.978 5266.08,-287.358 5261.63,-292.403 5266.6,-291.829 5266.6,-291.829 5266.6,-291.829 5261.63,-292.403 5267.12,-296.299 5256.67,-292.978 5256.67,-292.978"/>
</g>
<!-- 67&#45;&gt;60 -->
<g id="edge124" class="edge"><title>67&#45;&gt;60</title>
<path fill="none" stroke="black" d="M5583.76,-250.871C5580.74,-251.272 5577.75,-251.65 5574.81,-252 5338.35,-280.078 5274.53,-262.206 5033.51,-287.989"/>
<polygon fill="black" stroke="black" points="5023.38,-289.087 5032.84,-283.535 5028.35,-288.548 5033.33,-288.009 5033.33,-288.009 5033.33,-288.009 5028.35,-288.548 5033.81,-292.483 5023.38,-289.087 5023.38,-289.087"/>
</g>
<!-- 68 -->
<g id="node69" class="node"><title>68</title>
<polygon fill="none" stroke="black" points="3886.81,-36 3832.81,-36 3832.81,-0 3886.81,-0 3886.81,-36"/>
<text text-anchor="middle" x="3859.81" y="-14.3" font-family="Times,serif" font-size="14.00">conf</text>
</g>
<!-- 69 -->
<g id="node70" class="node"><title>69</title>
<polygon fill="none" stroke="black" points="424.306,-108 335.306,-108 335.306,-72 424.306,-72 424.306,-108"/>
<text text-anchor="middle" x="379.806" y="-86.3" font-family="Times,serif" font-size="14.00">configuration</text>
</g>
<!-- 69&#45;&gt;0 -->
<g id="edge125" class="edge"><title>69&#45;&gt;0</title>
<path fill="none" stroke="black" d="M395.874,-108.303C403.745,-116.78 413.361,-127.136 421.979,-136.417"/>
<polygon fill="black" stroke="black" points="428.924,-143.896 418.821,-139.63 425.521,-140.232 422.119,-136.568 422.119,-136.568 422.119,-136.568 425.521,-140.232 425.417,-133.506 428.924,-143.896 428.924,-143.896"/>
</g>
<!-- 69&#45;&gt;2 -->
<g id="edge126" class="edge"><title>69&#45;&gt;2</title>
<path fill="none" stroke="black" d="M373.413,-108.129C364.301,-132.543 347.493,-177.574 336.747,-206.365"/>
<polygon fill="black" stroke="black" points="333.222,-215.811 332.503,-204.868 334.97,-211.126 336.719,-206.442 336.719,-206.442 336.719,-206.442 334.97,-211.126 340.935,-208.016 333.222,-215.811 333.222,-215.811"/>
</g>
<!-- 69&#45;&gt;3 -->
<g id="edge127" class="edge"><title>69&#45;&gt;3</title>
<path fill="none" stroke="black" d="M343.619,-108.129C288.886,-134.036 185.108,-183.157 125.324,-211.455"/>
<polygon fill="black" stroke="black" points="116.122,-215.811 123.235,-207.465 120.641,-213.672 125.16,-211.532 125.16,-211.532 125.16,-211.532 120.641,-213.672 127.085,-215.6 116.122,-215.811 116.122,-215.811"/>
</g>
<!-- 69&#45;&gt;4 -->
<g id="edge128" class="edge"><title>69&#45;&gt;4</title>
<path fill="none" stroke="black" d="M358.938,-108.129C328.155,-133.396 270.468,-180.746 235.654,-209.321"/>
<polygon fill="black" stroke="black" points="227.748,-215.811 232.623,-205.988 231.613,-212.638 235.478,-209.466 235.478,-209.466 235.478,-209.466 231.613,-212.638 238.333,-212.944 227.748,-215.811 227.748,-215.811"/>
</g>
<!-- 69&#45;&gt;5 -->
<g id="edge129" class="edge"><title>69&#45;&gt;5</title>
<path fill="none" stroke="black" d="M420.703,-108.228C439.945,-117.361 462.606,-129.663 480.806,-144 504.18,-162.412 526.07,-188.474 540.675,-207.639"/>
<polygon fill="black" stroke="black" points="546.852,-215.907 537.262,-210.589 543.859,-211.901 540.867,-207.896 540.867,-207.896 540.867,-207.896 543.859,-211.901 544.472,-205.203 546.852,-215.907 546.852,-215.907"/>
</g>
<!-- 69&#45;&gt;16 -->
<g id="edge130" class="edge"><title>69&#45;&gt;16</title>
<path fill="none" stroke="black" d="M424.454,-93.5327C618.795,-104.557 1389.5,-148.276 1573.98,-158.741"/>
<polygon fill="black" stroke="black" points="1584.05,-159.312 1573.81,-163.238 1579.06,-159.029 1574.07,-158.746 1574.07,-158.746 1574.07,-158.746 1579.06,-159.029 1574.32,-154.253 1584.05,-159.312 1584.05,-159.312"/>
</g>
<!-- 69&#45;&gt;52 -->
<g id="edge131" class="edge"><title>69&#45;&gt;52</title>
<path fill="none" stroke="black" d="M335.084,-93.0355C221.767,-100.01 -62.4667,-129.825 12.8062,-252 50.131,-312.582 86.912,-306.198 155.806,-324 353.041,-374.964 868.299,-350.853 1071.81,-360 1165.88,-364.228 1274.73,-369.873 1342.43,-373.474"/>
<polygon fill="black" stroke="black" points="1352.52,-374.012 1342.3,-377.973 1347.53,-373.745 1342.54,-373.479 1342.54,-373.479 1342.54,-373.479 1347.53,-373.745 1342.77,-368.986 1352.52,-374.012 1352.52,-374.012"/>
</g>
<!-- 70 -->
<g id="node71" class="node"><title>70</title>
<polygon fill="none" stroke="black" points="1427.81,-108 1263.81,-108 1263.81,-72 1427.81,-72 1427.81,-108"/>
<text text-anchor="middle" x="1345.81" y="-86.3" font-family="Times,serif" font-size="14.00">configuration_multiplayers</text>
</g>
<!-- 70&#45;&gt;0 -->
<g id="edge132" class="edge"><title>70&#45;&gt;0</title>
<path fill="none" stroke="black" d="M1263.7,-93.1185C1079.43,-98.356 637.714,-113.736 491.806,-144 488.578,-144.67 485.272,-145.515 481.983,-146.469"/>
<polygon fill="black" stroke="black" points="472.262,-149.592 480.407,-142.249 477.022,-148.063 481.783,-146.534 481.783,-146.534 481.783,-146.534 477.022,-148.063 483.159,-150.818 472.262,-149.592 472.262,-149.592"/>
</g>
<!-- 70&#45;&gt;2 -->
<g id="edge133" class="edge"><title>70&#45;&gt;2</title>
<path fill="none" stroke="black" d="M1263.42,-96.8881C1155.5,-105.068 960.495,-121.447 794.806,-144 615.561,-168.398 567.946,-174.632 387.898,-215.849"/>
<polygon fill="black" stroke="black" points="378.105,-218.096 386.846,-211.474 382.978,-216.978 387.852,-215.86 387.852,-215.86 387.852,-215.86 382.978,-216.978 388.858,-220.246 378.105,-218.096 378.105,-218.096"/>
</g>
<!-- 70&#45;&gt;3 -->
<g id="edge134" class="edge"><title>70&#45;&gt;3</title>
<path fill="none" stroke="black" d="M1263.6,-92.8294C1060.16,-97.7775 537.279,-113.176 365.806,-144 343.505,-148.009 218.997,-187.814 141.793,-212.815"/>
<polygon fill="black" stroke="black" points="132.158,-215.937 140.284,-208.573 136.915,-214.396 141.671,-212.854 141.671,-212.854 141.671,-212.854 136.915,-214.396 143.059,-217.135 132.158,-215.937 132.158,-215.937"/>
</g>
<!-- 70&#45;&gt;4 -->
<g id="edge135" class="edge"><title>70&#45;&gt;4</title>
<path fill="none" stroke="black" d="M1263.42,-92.6985C1049.41,-97.5281 487.068,-113.035 408.806,-144 385.63,-153.17 387.566,-167.846 365.806,-180 348.492,-189.671 304.532,-204.071 267.214,-215.421"/>
<polygon fill="black" stroke="black" points="257.393,-218.385 265.666,-211.188 262.18,-216.94 266.966,-215.496 266.966,-215.496 266.966,-215.496 262.18,-216.94 268.267,-219.804 257.393,-218.385 257.393,-218.385"/>
</g>
<!-- 70&#45;&gt;5 -->
<g id="edge136" class="edge"><title>70&#45;&gt;5</title>
<path fill="none" stroke="black" d="M1263.62,-102.378C1128.49,-121.705 851.276,-163.96 619.806,-216 618.331,-216.332 616.839,-216.677 615.335,-217.033"/>
<polygon fill="black" stroke="black" points="605.31,-219.517 613.934,-212.744 610.163,-218.314 615.016,-217.112 615.016,-217.112 615.016,-217.112 610.163,-218.314 616.099,-221.479 605.31,-219.517 605.31,-219.517"/>
</g>
<!-- 70&#45;&gt;9 -->
<g id="edge137" class="edge"><title>70&#45;&gt;9</title>
<path fill="none" stroke="black" d="M1427.99,-91.5185C1782.78,-93.9791 3173.9,-105.987 3365.81,-144 3401.84,-151.138 3492.47,-187.915 3549.49,-211.904"/>
<polygon fill="black" stroke="black" points="3559.03,-215.93 3548.07,-216.188 3554.43,-213.986 3549.82,-212.042 3549.82,-212.042 3549.82,-212.042 3554.43,-213.986 3551.57,-207.896 3559.03,-215.93 3559.03,-215.93"/>
</g>
<!-- 70&#45;&gt;12 -->
<g id="edge138" class="edge"><title>70&#45;&gt;12</title>
<path fill="none" stroke="black" d="M1428.23,-91.0327C1702.1,-92.2182 2606.31,-104.775 3356.05,-216.05"/>
<polygon fill="black" stroke="black" points="3365.97,-217.529 3355.42,-220.505 3361.03,-216.792 3356.08,-216.054 3356.08,-216.054 3356.08,-216.054 3361.03,-216.792 3356.75,-211.604 3365.97,-217.529 3365.97,-217.529"/>
</g>
<!-- 70&#45;&gt;16 -->
<g id="edge139" class="edge"><title>70&#45;&gt;16</title>
<path fill="none" stroke="black" d="M1411.02,-108.034C1462.09,-121.372 1531.44,-139.485 1574.37,-150.7"/>
<polygon fill="black" stroke="black" points="1584.16,-153.258 1573.35,-155.084 1579.33,-151.994 1574.49,-150.73 1574.49,-150.73 1574.49,-150.73 1579.33,-151.994 1575.63,-146.376 1584.16,-153.258 1584.16,-153.258"/>
</g>
<!-- 70&#45;&gt;53 -->
<g id="edge140" class="edge"><title>70&#45;&gt;53</title>
<path fill="none" stroke="black" d="M1428,-92.6188C1909.73,-102.107 4361.54,-150.398 4824.38,-159.514"/>
<polygon fill="black" stroke="black" points="4834.62,-159.716 4824.53,-164.018 4829.62,-159.618 4824.62,-159.519 4824.62,-159.519 4824.62,-159.519 4829.62,-159.618 4824.71,-155.02 4834.62,-159.716 4834.62,-159.716"/>
</g>
<!-- 71 -->
<g id="node72" class="node"><title>71</title>
<polygon fill="none" stroke="black" points="3308.81,-36 3254.81,-36 3254.81,-0 3308.81,-0 3308.81,-36"/>
<text text-anchor="middle" x="3281.81" y="-14.3" font-family="Times,serif" font-size="14.00">main</text>
</g>
<!-- 71&#45;&gt;8 -->
<g id="edge141" class="edge"><title>71&#45;&gt;8</title>
<path fill="none" stroke="black" d="M3307.49,-36.1239C3321.09,-45.1917 3337.98,-56.4477 3352.67,-66.2408"/>
<polygon fill="black" stroke="black" points="3361.02,-71.8102 3350.2,-70.0074 3356.86,-69.0367 3352.7,-66.2632 3352.7,-66.2632 3352.7,-66.2632 3356.86,-69.0367 3355.2,-62.519 3361.02,-71.8102 3361.02,-71.8102"/>
</g>
<!-- 71&#45;&gt;10 -->
<g id="edge142" class="edge"><title>71&#45;&gt;10</title>
<path fill="none" stroke="black" d="M3282.17,-36.1285C3282.68,-60.3298 3283.62,-104.789 3284.23,-133.607"/>
<polygon fill="black" stroke="black" points="3284.44,-143.811 3279.73,-133.908 3284.34,-138.812 3284.23,-133.813 3284.23,-133.813 3284.23,-133.813 3284.34,-138.812 3288.73,-133.718 3284.44,-143.811 3284.44,-143.811"/>
</g>
<!-- 71&#45;&gt;69 -->
<g id="edge143" class="edge"><title>71&#45;&gt;69</title>
<path fill="none" stroke="black" d="M3254.47,-19.6593C2985.18,-26.155 808.724,-78.654 434.489,-87.681"/>
<polygon fill="black" stroke="black" points="424.453,-87.9231 434.341,-83.1831 429.451,-87.8025 434.45,-87.6818 434.45,-87.6818 434.45,-87.6818 429.451,-87.8025 434.558,-92.1805 424.453,-87.9231 424.453,-87.9231"/>
</g>
<!-- 72 -->
<g id="node73" class="node"><title>72</title>
<polygon fill="none" stroke="black" points="3446.31,-36 3327.31,-36 3327.31,-0 3446.31,-0 3446.31,-36"/>
<text text-anchor="middle" x="3386.81" y="-14.3" font-family="Times,serif" font-size="14.00">main_multiplayers</text>
</g>
<!-- 72&#45;&gt;8 -->
<g id="edge144" class="edge"><title>72&#45;&gt;8</title>
<path fill="none" stroke="black" d="M3386.81,-36.3034C3386.81,-44.0173 3386.81,-53.2875 3386.81,-61.8876"/>
<polygon fill="black" stroke="black" points="3386.81,-71.8957 3382.31,-61.8956 3386.81,-66.8957 3386.81,-61.8957 3386.81,-61.8957 3386.81,-61.8957 3386.81,-66.8957 3391.31,-61.8957 3386.81,-71.8957 3386.81,-71.8957"/>
</g>
<!-- 72&#45;&gt;11 -->
<g id="edge145" class="edge"><title>72&#45;&gt;11</title>
<path fill="none" stroke="black" d="M3412.38,-36.1285C3450.5,-61.6624 3522.29,-109.747 3564.8,-138.219"/>
<polygon fill="black" stroke="black" points="3573.14,-143.811 3562.33,-141.984 3568.99,-141.028 3564.83,-138.246 3564.83,-138.246 3564.83,-138.246 3568.99,-141.028 3567.34,-134.507 3573.14,-143.811 3573.14,-143.811"/>
</g>
<!-- 72&#45;&gt;70 -->
<g id="edge146" class="edge"><title>72&#45;&gt;70</title>
<path fill="none" stroke="black" d="M3327.12,-34.5371C3323.98,-35.093 3320.86,-35.5873 3317.81,-36 2947.66,-85.9807 1776.73,-89.2671 1438.27,-89.1452"/>
<polygon fill="black" stroke="black" points="1428.02,-89.1403 1438.02,-84.6452 1433.02,-89.1427 1438.02,-89.1452 1438.02,-89.1452 1438.02,-89.1452 1433.02,-89.1427 1438.01,-93.6452 1428.02,-89.1403 1428.02,-89.1403"/>
</g>
</g>
</svg>
