<?xml version="1.0" encoding="UTF-8" standalone="no"?>
<!DOCTYPE svg PUBLIC "-//W3C//DTD SVG 1.1//EN"
 "http://www.w3.org/Graphics/SVG/1.1/DTD/svg11.dtd">
<!-- Generated by graphviz version 2.38.0 (20140413.2041)
 -->
<!-- Title: packages_AlgoBandits Pages: 1 -->
<svg width="6932pt" height="548pt"
 viewBox="0.00 0.00 6931.50 548.00" xmlns="http://www.w3.org/2000/svg" xmlns:xlink="http://www.w3.org/1999/xlink">
<g id="graph0" class="graph" transform="scale(1 1) rotate(0) translate(4 544)">
<title>packages_AlgoBandits</title>
<polygon fill="white" stroke="none" points="-4,4 -4,-544 6927.5,-544 6927.5,4 -4,4"/>
<!-- 0 -->
<g id="node1" class="node"><title>0</title>
<polygon fill="none" stroke="black" points="429,-180 375,-180 375,-144 429,-144 429,-180"/>
<text text-anchor="middle" x="402" y="-158.3" font-family="Times,serif" font-size="14.00">Arms</text>
</g>
<!-- 2 -->
<g id="node3" class="node"><title>2</title>
<polygon fill="none" stroke="black" points="584,-252 482,-252 482,-216 584,-216 584,-252"/>
<text text-anchor="middle" x="533" y="-230.3" font-family="Times,serif" font-size="14.00">Arms.Bernoulli</text>
</g>
<!-- 0&#45;&gt;2 -->
<g id="edge1" class="edge"><title>0&#45;&gt;2</title>
<path fill="none" stroke="black" d="M429.143,-177.504C447.21,-187.158 471.289,-200.025 491.713,-210.938"/>
<polygon fill="black" stroke="black" points="500.804,-215.796 489.864,-215.052 496.394,-213.44 491.985,-211.083 491.985,-211.083 491.985,-211.083 496.394,-213.44 494.105,-207.114 500.804,-215.796 500.804,-215.796"/>
</g>
<!-- 3 -->
<g id="node4" class="node"><title>3</title>
<polygon fill="none" stroke="black" points="116,-252 7.10543e-15,-252 7.10543e-15,-216 116,-216 116,-252"/>
<text text-anchor="middle" x="58" y="-230.3" font-family="Times,serif" font-size="14.00">Arms.Exponential</text>
</g>
<!-- 0&#45;&gt;3 -->
<g id="edge2" class="edge"><title>0&#45;&gt;3</title>
<path fill="none" stroke="black" d="M374.76,-167.658C326.633,-176.006 223.219,-194.476 126.042,-215.835"/>
<polygon fill="black" stroke="black" points="116.054,-218.045 124.846,-211.49 120.936,-216.965 125.818,-215.884 125.818,-215.884 125.818,-215.884 120.936,-216.965 126.79,-220.278 116.054,-218.045 116.054,-218.045"/>
</g>
<!-- 4 -->
<g id="node5" class="node"><title>4</title>
<polygon fill="none" stroke="black" points="463.5,-252 362.5,-252 362.5,-216 463.5,-216 463.5,-252"/>
<text text-anchor="middle" x="413" y="-230.3" font-family="Times,serif" font-size="14.00">Arms.Gaussian</text>
</g>
<!-- 0&#45;&gt;4 -->
<g id="edge3" class="edge"><title>0&#45;&gt;4</title>
<path fill="none" stroke="black" d="M404.719,-180.303C405.931,-188.017 407.388,-197.288 408.739,-205.888"/>
<polygon fill="black" stroke="black" points="410.312,-215.896 404.314,-206.716 409.536,-210.956 408.76,-206.017 408.76,-206.017 408.76,-206.017 409.536,-210.956 413.205,-205.318 410.312,-215.896 410.312,-215.896"/>
</g>
<!-- 5 -->
<g id="node6" class="node"><title>5</title>
<polygon fill="none" stroke="black" points="227.5,-252 134.5,-252 134.5,-216 227.5,-216 227.5,-252"/>
<text text-anchor="middle" x="181" y="-230.3" font-family="Times,serif" font-size="14.00">Arms.Poisson</text>
</g>
<!-- 0&#45;&gt;5 -->
<g id="edge4" class="edge"><title>0&#45;&gt;5</title>
<path fill="none" stroke="black" d="M374.815,-174.764C370.237,-176.603 365.508,-178.417 361,-180 309.712,-198.016 293.688,-199.546 237.507,-215.892"/>
<polygon fill="black" stroke="black" points="227.738,-218.765 236.062,-211.626 232.535,-217.354 237.332,-215.944 237.332,-215.944 237.332,-215.944 232.535,-217.354 238.602,-220.261 227.738,-218.765 227.738,-218.765"/>
</g>
<!-- 6 -->
<g id="node7" class="node"><title>6</title>
<polygon fill="none" stroke="black" points="344,-252 246,-252 246,-216 344,-216 344,-252"/>
<text text-anchor="middle" x="295" y="-230.3" font-family="Times,serif" font-size="14.00">Arms.Uniform</text>
</g>
<!-- 0&#45;&gt;6 -->
<g id="edge5" class="edge"><title>0&#45;&gt;6</title>
<path fill="none" stroke="black" d="M375.825,-180.124C361.964,-189.192 344.759,-200.448 329.789,-210.241"/>
<polygon fill="black" stroke="black" points="321.276,-215.81 327.181,-206.57 325.46,-213.073 329.644,-210.336 329.644,-210.336 329.644,-210.336 325.46,-213.073 332.108,-214.101 321.276,-215.81 321.276,-215.81"/>
</g>
<!-- 1 -->
<g id="node2" class="node"><title>1</title>
<polygon fill="none" stroke="black" points="333.5,-324 256.5,-324 256.5,-288 333.5,-288 333.5,-324"/>
<text text-anchor="middle" x="295" y="-302.3" font-family="Times,serif" font-size="14.00">Arms.Arm</text>
</g>
<!-- 2&#45;&gt;1 -->
<g id="edge6" class="edge"><title>2&#45;&gt;1</title>
<path fill="none" stroke="black" d="M481.743,-249.4C444.776,-259.874 393.72,-274.522 349,-288 347.13,-288.564 345.224,-289.142 343.3,-289.73"/>
<polygon fill="black" stroke="black" points="333.606,-292.72 341.836,-285.473 338.384,-291.246 343.162,-289.773 343.162,-289.773 343.162,-289.773 338.384,-291.246 344.488,-294.073 333.606,-292.72 333.606,-292.72"/>
</g>
<!-- 7 -->
<g id="node8" class="node"><title>7</title>
<polygon fill="none" stroke="black" points="456,-324 358,-324 358,-288 456,-288 456,-324"/>
<text text-anchor="middle" x="407" y="-302.3" font-family="Times,serif" font-size="14.00">Arms.kullback</text>
</g>
<!-- 2&#45;&gt;7 -->
<g id="edge7" class="edge"><title>2&#45;&gt;7</title>
<path fill="none" stroke="black" d="M502.177,-252.124C485.55,-261.361 464.835,-272.869 446.981,-282.788"/>
<polygon fill="black" stroke="black" points="437.942,-287.81 444.498,-279.02 442.312,-285.382 446.683,-282.954 446.683,-282.954 446.683,-282.954 442.312,-285.382 448.869,-286.887 437.942,-287.81 437.942,-287.81"/>
</g>
<!-- 3&#45;&gt;1 -->
<g id="edge8" class="edge"><title>3&#45;&gt;1</title>
<path fill="none" stroke="black" d="M115.674,-252.034C155.797,-263.885 208.684,-279.506 246.61,-290.708"/>
<polygon fill="black" stroke="black" points="256.399,-293.599 245.534,-295.082 251.604,-292.183 246.809,-290.766 246.809,-290.766 246.809,-290.766 251.604,-292.183 248.083,-286.45 256.399,-293.599 256.399,-293.599"/>
</g>
<!-- 3&#45;&gt;7 -->
<g id="edge9" class="edge"><title>3&#45;&gt;7</title>
<path fill="none" stroke="black" d="M116.035,-250.043C119.062,-250.728 122.064,-251.385 125,-252 220.687,-272.039 246.387,-267.61 342,-288 343.925,-288.411 345.879,-288.841 347.849,-289.286"/>
<polygon fill="black" stroke="black" points="357.781,-291.622 347.017,-293.713 352.914,-290.478 348.047,-289.333 348.047,-289.333 348.047,-289.333 352.914,-290.478 349.077,-284.952 357.781,-291.622 357.781,-291.622"/>
</g>
<!-- 4&#45;&gt;1 -->
<g id="edge10" class="edge"><title>4&#45;&gt;1</title>
<path fill="none" stroke="black" d="M384.134,-252.124C368.705,-261.276 349.519,-272.658 332.903,-282.515"/>
<polygon fill="black" stroke="black" points="323.977,-287.81 330.282,-278.838 328.277,-285.259 332.578,-282.708 332.578,-282.708 332.578,-282.708 328.277,-285.259 334.874,-286.578 323.977,-287.81 323.977,-287.81"/>
</g>
<!-- 4&#45;&gt;7 -->
<g id="edge11" class="edge"><title>4&#45;&gt;7</title>
<path fill="none" stroke="black" d="M411.517,-252.303C410.856,-260.017 410.061,-269.288 409.324,-277.888"/>
<polygon fill="black" stroke="black" points="408.466,-287.896 404.837,-277.548 408.893,-282.914 409.32,-277.932 409.32,-277.932 409.32,-277.932 408.893,-282.914 413.804,-278.317 408.466,-287.896 408.466,-287.896"/>
</g>
<!-- 5&#45;&gt;1 -->
<g id="edge12" class="edge"><title>5&#45;&gt;1</title>
<path fill="none" stroke="black" d="M208.888,-252.124C223.793,-261.276 242.329,-272.658 258.382,-282.515"/>
<polygon fill="black" stroke="black" points="267.005,-287.81 256.129,-286.412 262.744,-285.194 258.484,-282.578 258.484,-282.578 258.484,-282.578 262.744,-285.194 260.838,-278.743 267.005,-287.81 267.005,-287.81"/>
</g>
<!-- 5&#45;&gt;7 -->
<g id="edge13" class="edge"><title>5&#45;&gt;7</title>
<path fill="none" stroke="black" d="M227.553,-249.419C262.426,-260.221 310.395,-275.078 347.963,-286.714"/>
<polygon fill="black" stroke="black" points="357.769,-289.751 346.885,-291.091 352.993,-288.272 348.216,-286.793 348.216,-286.793 348.216,-286.793 352.993,-288.272 349.548,-282.494 357.769,-289.751 357.769,-289.751"/>
</g>
<!-- 6&#45;&gt;1 -->
<g id="edge14" class="edge"><title>6&#45;&gt;1</title>
<path fill="none" stroke="black" d="M295,-252.303C295,-260.017 295,-269.288 295,-277.888"/>
<polygon fill="black" stroke="black" points="295,-287.896 290.5,-277.896 295,-282.896 295,-277.896 295,-277.896 295,-277.896 295,-282.896 299.5,-277.896 295,-287.896 295,-287.896"/>
</g>
<!-- 8 -->
<g id="node9" class="node"><title>8</title>
<polygon fill="none" stroke="black" points="4072,-108 3984,-108 3984,-72 4072,-72 4072,-108"/>
<text text-anchor="middle" x="4028" y="-86.3" font-family="Times,serif" font-size="14.00">Environment</text>
</g>
<!-- 10 -->
<g id="node11" class="node"><title>10</title>
<polygon fill="none" stroke="black" points="4100,-180 3956,-180 3956,-144 4100,-144 4100,-180"/>
<text text-anchor="middle" x="4028" y="-158.3" font-family="Times,serif" font-size="14.00">Environment.Evaluator</text>
</g>
<!-- 8&#45;&gt;10 -->
<g id="edge15" class="edge"><title>8&#45;&gt;10</title>
<path fill="none" stroke="black" d="M4028,-108.303C4028,-116.017 4028,-125.288 4028,-133.888"/>
<polygon fill="black" stroke="black" points="4028,-143.896 4023.5,-133.896 4028,-138.896 4028,-133.896 4028,-133.896 4028,-133.896 4028,-138.896 4032.5,-133.896 4028,-143.896 4028,-143.896"/>
</g>
<!-- 11 -->
<g id="node12" class="node"><title>11</title>
<polygon fill="none" stroke="black" points="4447.5,-180 4232.5,-180 4232.5,-144 4447.5,-144 4447.5,-180"/>
<text text-anchor="middle" x="4340" y="-158.3" font-family="Times,serif" font-size="14.00">Environment.EvaluatorMultiPlayers</text>
</g>
<!-- 8&#45;&gt;11 -->
<g id="edge16" class="edge"><title>8&#45;&gt;11</title>
<path fill="none" stroke="black" d="M4072.04,-100.881C4119.12,-111.444 4194.96,-128.458 4253.96,-141.695"/>
<polygon fill="black" stroke="black" points="4264.02,-143.953 4253.28,-146.154 4259.14,-142.858 4254.26,-141.764 4254.26,-141.764 4254.26,-141.764 4259.14,-142.858 4255.25,-137.373 4264.02,-143.953 4264.02,-143.953"/>
</g>
<!-- 12 -->
<g id="node13" class="node"><title>12</title>
<polygon fill="none" stroke="black" points="4223.5,-252 4100.5,-252 4100.5,-216 4223.5,-216 4223.5,-252"/>
<text text-anchor="middle" x="4162" y="-230.3" font-family="Times,serif" font-size="14.00">Environment.MAB</text>
</g>
<!-- 8&#45;&gt;12 -->
<g id="edge17" class="edge"><title>8&#45;&gt;12</title>
<path fill="none" stroke="black" d="M4072.4,-107.504C4090.63,-116.093 4110.76,-128.161 4125,-144 4140.77,-161.533 4150.38,-186.728 4155.85,-205.839"/>
<polygon fill="black" stroke="black" points="4158.47,-215.743 4151.56,-207.227 4157.19,-210.909 4155.91,-206.076 4155.91,-206.076 4155.91,-206.076 4157.19,-210.909 4160.26,-204.925 4158.47,-215.743 4158.47,-215.743"/>
</g>
<!-- 13 -->
<g id="node14" class="node"><title>13</title>
<polygon fill="none" stroke="black" points="4082,-252 3956,-252 3956,-216 4082,-216 4082,-252"/>
<text text-anchor="middle" x="4019" y="-230.3" font-family="Times,serif" font-size="14.00">Environment.Result</text>
</g>
<!-- 8&#45;&gt;13 -->
<g id="edge18" class="edge"><title>8&#45;&gt;13</title>
<path fill="none" stroke="black" d="M4070.11,-108.126C4085.18,-116.55 4100.53,-128.33 4109,-144 4116.61,-158.074 4116.94,-166.109 4109,-180 4101.54,-193.047 4089.48,-203.201 4076.58,-210.967"/>
<polygon fill="black" stroke="black" points="4067.56,-215.969 4074.12,-207.184 4071.93,-213.545 4076.3,-211.12 4076.3,-211.12 4076.3,-211.12 4071.93,-213.545 4078.49,-215.055 4067.56,-215.969 4067.56,-215.969"/>
</g>
<!-- 14 -->
<g id="node15" class="node"><title>14</title>
<polygon fill="none" stroke="black" points="4438.5,-252 4241.5,-252 4241.5,-216 4438.5,-216 4438.5,-252"/>
<text text-anchor="middle" x="4340" y="-230.3" font-family="Times,serif" font-size="14.00">Environment.ResultMultiPlayers</text>
</g>
<!-- 8&#45;&gt;14 -->
<g id="edge19" class="edge"><title>8&#45;&gt;14</title>
<path fill="none" stroke="black" d="M4067.94,-108.08C4091.6,-118.301 4122.11,-131.662 4149,-144 4182.61,-159.42 4190.52,-164.316 4224,-180 4246.71,-190.635 4272.02,-202.232 4293.2,-211.859"/>
<polygon fill="black" stroke="black" points="4302.3,-215.994 4291.34,-215.957 4297.75,-213.927 4293.2,-211.86 4293.2,-211.86 4293.2,-211.86 4297.75,-213.927 4295.06,-207.762 4302.3,-215.994 4302.3,-215.994"/>
</g>
<!-- 15 -->
<g id="node16" class="node"><title>15</title>
<polygon fill="none" stroke="black" points="3862,-180 3738,-180 3738,-144 3862,-144 3862,-180"/>
<text text-anchor="middle" x="3800" y="-158.3" font-family="Times,serif" font-size="14.00">Environment.notify</text>
</g>
<!-- 8&#45;&gt;15 -->
<g id="edge20" class="edge"><title>8&#45;&gt;15</title>
<path fill="none" stroke="black" d="M3983.77,-104.58C3950.13,-114.908 3903.31,-129.281 3865.36,-140.935"/>
<polygon fill="black" stroke="black" points="3855.41,-143.989 3863.65,-136.752 3860.19,-142.521 3864.97,-141.054 3864.97,-141.054 3864.97,-141.054 3860.19,-142.521 3866.29,-145.356 3855.41,-143.989 3855.41,-143.989"/>
</g>
<!-- 16 -->
<g id="node17" class="node"><title>16</title>
<polygon fill="none" stroke="black" points="4144,-324 3990,-324 3990,-288 4144,-288 4144,-324"/>
<text text-anchor="middle" x="4067" y="-302.3" font-family="Times,serif" font-size="14.00">Environment.plotsettings</text>
</g>
<!-- 8&#45;&gt;16 -->
<g id="edge21" class="edge"><title>8&#45;&gt;16</title>
<path fill="none" stroke="black" d="M3988.35,-108.117C3973.06,-116.698 3956.91,-128.593 3947,-144 3920.9,-184.581 3909.03,-211.994 3936,-252 3946.59,-267.705 3962.7,-278.758 3980.05,-286.536"/>
<polygon fill="black" stroke="black" points="3989.79,-290.529 3978.83,-290.898 3985.16,-288.632 3980.53,-286.735 3980.53,-286.735 3980.53,-286.735 3985.16,-288.632 3982.24,-282.571 3989.79,-290.529 3989.79,-290.529"/>
</g>
<!-- 9 -->
<g id="node10" class="node"><title>9</title>
<polygon fill="none" stroke="black" points="4677,-252 4495,-252 4495,-216 4677,-216 4677,-252"/>
<text text-anchor="middle" x="4586" y="-230.3" font-family="Times,serif" font-size="14.00">Environment.CollisionModels</text>
</g>
<!-- 10&#45;&gt;12 -->
<g id="edge22" class="edge"><title>10&#45;&gt;12</title>
<path fill="none" stroke="black" d="M4060.78,-180.124C4078.63,-189.446 4100.9,-201.081 4120,-211.061"/>
<polygon fill="black" stroke="black" points="4129.09,-215.81 4118.15,-215.169 4124.66,-213.495 4120.23,-211.18 4120.23,-211.18 4120.23,-211.18 4124.66,-213.495 4122.31,-207.191 4129.09,-215.81 4129.09,-215.81"/>
</g>
<!-- 10&#45;&gt;13 -->
<g id="edge23" class="edge"><title>10&#45;&gt;13</title>
<path fill="none" stroke="black" d="M4025.78,-180.303C4024.78,-188.017 4023.59,-197.288 4022.49,-205.888"/>
<polygon fill="black" stroke="black" points="4021.2,-215.896 4018.01,-205.403 4021.84,-210.936 4022.47,-205.977 4022.47,-205.977 4022.47,-205.977 4021.84,-210.936 4026.94,-206.551 4021.2,-215.896 4021.2,-215.896"/>
</g>
<!-- 10&#45;&gt;16 -->
<g id="edge24" class="edge"><title>10&#45;&gt;16</title>
<path fill="none" stroke="black" d="M3985.89,-180.126C3970.82,-188.55 3955.47,-200.33 3947,-216 3939.39,-230.074 3938.27,-238.594 3947,-252 3955.96,-265.748 3969.38,-275.956 3984.04,-283.527"/>
<polygon fill="black" stroke="black" points="3993.3,-287.908 3982.34,-287.699 3988.78,-285.77 3984.26,-283.631 3984.26,-283.631 3984.26,-283.631 3988.78,-285.77 3986.18,-279.564 3993.3,-287.908 3993.3,-287.908"/>
</g>
<!-- 11&#45;&gt;9 -->
<g id="edge25" class="edge"><title>11&#45;&gt;9</title>
<path fill="none" stroke="black" d="M4399.86,-180.034C4434.98,-190.028 4479.52,-202.702 4516.23,-213.146"/>
<polygon fill="black" stroke="black" points="4525.87,-215.889 4515.02,-217.48 4521.06,-214.521 4516.25,-213.152 4516.25,-213.152 4516.25,-213.152 4521.06,-214.521 4517.48,-208.824 4525.87,-215.889 4525.87,-215.889"/>
</g>
<!-- 11&#45;&gt;12 -->
<g id="edge26" class="edge"><title>11&#45;&gt;12</title>
<path fill="none" stroke="black" d="M4296.46,-180.124C4271.8,-189.821 4240.78,-202.02 4214.75,-212.257"/>
<polygon fill="black" stroke="black" points="4205.4,-215.932 4213.06,-208.084 4210.06,-214.102 4214.71,-212.272 4214.71,-212.272 4214.71,-212.272 4210.06,-214.102 4216.36,-216.46 4205.4,-215.932 4205.4,-215.932"/>
</g>
<!-- 11&#45;&gt;14 -->
<g id="edge27" class="edge"><title>11&#45;&gt;14</title>
<path fill="none" stroke="black" d="M4340,-180.303C4340,-188.017 4340,-197.288 4340,-205.888"/>
<polygon fill="black" stroke="black" points="4340,-215.896 4335.5,-205.896 4340,-210.896 4340,-205.896 4340,-205.896 4340,-205.896 4340,-210.896 4344.5,-205.896 4340,-215.896 4340,-215.896"/>
</g>
<!-- 11&#45;&gt;16 -->
<g id="edge28" class="edge"><title>11&#45;&gt;16</title>
<path fill="none" stroke="black" d="M4403.1,-180.049C4420.66,-188.013 4437.73,-199.515 4448,-216 4456.46,-229.579 4458.51,-239.932 4448,-252 4410.69,-294.855 4254.66,-304.155 4154.21,-305.574"/>
<polygon fill="black" stroke="black" points="4144.06,-305.694 4154.01,-301.076 4149.06,-305.635 4154.06,-305.576 4154.06,-305.576 4154.06,-305.576 4149.06,-305.635 4154.11,-310.076 4144.06,-305.694 4144.06,-305.694"/>
</g>
<!-- 12&#45;&gt;16 -->
<g id="edge29" class="edge"><title>12&#45;&gt;16</title>
<path fill="none" stroke="black" d="M4138.52,-252.303C4126.44,-261.204 4111.55,-272.177 4098.48,-281.801"/>
<polygon fill="black" stroke="black" points="4090.21,-287.896 4095.59,-278.341 4094.24,-284.93 4098.26,-281.964 4098.26,-281.964 4098.26,-281.964 4094.24,-284.93 4100.93,-285.586 4090.21,-287.896 4090.21,-287.896"/>
</g>
<!-- 17 -->
<g id="node18" class="node"><title>17</title>
<polygon fill="none" stroke="black" points="2413.5,-180 2354.5,-180 2354.5,-144 2413.5,-144 2413.5,-180"/>
<text text-anchor="middle" x="2384" y="-158.3" font-family="Times,serif" font-size="14.00">Policies</text>
</g>
<!-- 18 -->
<g id="node19" class="node"><title>18</title>
<polygon fill="none" stroke="black" points="3838.5,-324 3717.5,-324 3717.5,-288 3838.5,-288 3838.5,-324"/>
<text text-anchor="middle" x="3778" y="-302.3" font-family="Times,serif" font-size="14.00">Policies.AdBandits</text>
</g>
<!-- 17&#45;&gt;18 -->
<g id="edge30" class="edge"><title>17&#45;&gt;18</title>
<path fill="none" stroke="black" d="M2413.63,-162.962C2612.4,-162.848 3745.37,-164.466 3795,-216 3810.85,-232.455 3803.24,-258.885 3793.69,-278.675"/>
<polygon fill="black" stroke="black" points="3788.95,-287.784 3789.58,-276.836 3791.26,-283.35 3793.57,-278.917 3793.57,-278.917 3793.57,-278.917 3791.26,-283.35 3797.56,-280.997 3788.95,-287.784 3788.95,-287.784"/>
</g>
<!-- 19 -->
<g id="node20" class="node"><title>19</title>
<polygon fill="none" stroke="black" points="1371.5,-468 1280.5,-468 1280.5,-432 1371.5,-432 1371.5,-468"/>
<text text-anchor="middle" x="1326" y="-446.3" font-family="Times,serif" font-size="14.00">Policies.Aggr</text>
</g>
<!-- 17&#45;&gt;19 -->
<g id="edge31" class="edge"><title>17&#45;&gt;19</title>
<path fill="none" stroke="black" d="M2354.25,-163.151C2172.04,-164.217 1213.2,-171.913 1171,-216 1106.18,-283.71 1227.09,-381.695 1290.6,-425.868"/>
<polygon fill="black" stroke="black" points="1299.16,-431.735 1288.37,-429.791 1295.04,-428.907 1290.91,-426.08 1290.91,-426.08 1290.91,-426.08 1295.04,-428.907 1293.46,-422.368 1299.16,-431.735 1299.16,-431.735"/>
</g>
<!-- 21 -->
<g id="node22" class="node"><title>21</title>
<polygon fill="none" stroke="black" points="3646,-252 3522,-252 3522,-216 3646,-216 3646,-252"/>
<text text-anchor="middle" x="3584" y="-230.3" font-family="Times,serif" font-size="14.00">Policies.BayesUCB</text>
</g>
<!-- 17&#45;&gt;21 -->
<g id="edge32" class="edge"><title>17&#45;&gt;21</title>
<path fill="none" stroke="black" d="M2413.73,-163.705C2568.93,-167.492 3287.4,-186.353 3508,-216 3509.28,-216.172 3510.57,-216.355 3511.87,-216.548"/>
<polygon fill="black" stroke="black" points="3521.94,-218.201 3511.35,-221.022 3517.01,-217.391 3512.08,-216.581 3512.08,-216.581 3512.08,-216.581 3517.01,-217.391 3512.81,-212.141 3521.94,-218.201 3521.94,-218.201"/>
</g>
<!-- 24 -->
<g id="node25" class="node"><title>24</title>
<polygon fill="none" stroke="black" points="1345.5,-252 1180.5,-252 1180.5,-216 1345.5,-216 1345.5,-252"/>
<text text-anchor="middle" x="1263" y="-230.3" font-family="Times,serif" font-size="14.00">Policies.EpsilonDecreasing</text>
</g>
<!-- 17&#45;&gt;24 -->
<g id="edge33" class="edge"><title>17&#45;&gt;24</title>
<path fill="none" stroke="black" d="M2354.17,-164.006C2209.18,-168.978 1576.41,-191.61 1355.86,-216.03"/>
<polygon fill="black" stroke="black" points="1345.67,-217.194 1355.1,-211.588 1350.64,-216.626 1355.61,-216.059 1355.61,-216.059 1355.61,-216.059 1350.64,-216.626 1356.12,-220.529 1345.67,-217.194 1345.67,-217.194"/>
</g>
<!-- 25 -->
<g id="node26" class="node"><title>25</title>
<polygon fill="none" stroke="black" points="1570,-252 1364,-252 1364,-216 1570,-216 1570,-252"/>
<text text-anchor="middle" x="1467" y="-230.3" font-family="Times,serif" font-size="14.00">Policies.EpsilonDecreasingMEGA</text>
</g>
<!-- 17&#45;&gt;25 -->
<g id="edge34" class="edge"><title>17&#45;&gt;25</title>
<path fill="none" stroke="black" d="M2354.32,-164.044C2249.76,-167.912 1888.68,-182.893 1580.13,-215.932"/>
<polygon fill="black" stroke="black" points="1570.09,-217.015 1579.55,-211.468 1575.07,-216.479 1580.04,-215.942 1580.04,-215.942 1580.04,-215.942 1575.07,-216.479 1580.52,-220.416 1570.09,-217.015 1570.09,-217.015"/>
</g>
<!-- 26 -->
<g id="node27" class="node"><title>26</title>
<polygon fill="none" stroke="black" points="1775.5,-252 1588.5,-252 1588.5,-216 1775.5,-216 1775.5,-252"/>
<text text-anchor="middle" x="1682" y="-230.3" font-family="Times,serif" font-size="14.00">Policies.EpsilonExpDecreasing</text>
</g>
<!-- 17&#45;&gt;26 -->
<g id="edge35" class="edge"><title>17&#45;&gt;26</title>
<path fill="none" stroke="black" d="M2354.26,-164.813C2267.95,-170.246 2009.82,-187.712 1785.59,-215.848"/>
<polygon fill="black" stroke="black" points="1775.61,-217.11 1784.97,-211.391 1780.58,-216.482 1785.54,-215.855 1785.54,-215.855 1785.54,-215.855 1780.58,-216.482 1786.1,-220.319 1775.61,-217.11 1775.61,-217.11"/>
</g>
<!-- 27 -->
<g id="node28" class="node"><title>27</title>
<polygon fill="none" stroke="black" points="1922.5,-252 1793.5,-252 1793.5,-216 1922.5,-216 1922.5,-252"/>
<text text-anchor="middle" x="1858" y="-230.3" font-family="Times,serif" font-size="14.00">Policies.EpsilonFirst</text>
</g>
<!-- 17&#45;&gt;27 -->
<g id="edge36" class="edge"><title>17&#45;&gt;27</title>
<path fill="none" stroke="black" d="M2354.31,-165.548C2282.4,-171.93 2093.29,-189.977 1937,-216 1935.53,-216.245 1934.05,-216.499 1932.55,-216.76"/>
<polygon fill="black" stroke="black" points="1922.57,-218.587 1931.6,-212.359 1927.49,-217.687 1932.41,-216.786 1932.41,-216.786 1932.41,-216.786 1927.49,-217.687 1933.22,-221.212 1922.57,-218.587 1922.57,-218.587"/>
</g>
<!-- 28 -->
<g id="node29" class="node"><title>28</title>
<polygon fill="none" stroke="black" points="1646,-324 1502,-324 1502,-288 1646,-288 1646,-324"/>
<text text-anchor="middle" x="1574" y="-302.3" font-family="Times,serif" font-size="14.00">Policies.EpsilonGreedy</text>
</g>
<!-- 17&#45;&gt;28 -->
<g id="edge37" class="edge"><title>17&#45;&gt;28</title>
<path fill="none" stroke="black" d="M2354.36,-164.725C2272.28,-169.831 2043.62,-186.396 1975,-216 1951.8,-226.009 1954.11,-241.777 1931,-252 1842.62,-291.105 1731.14,-302.327 1656.48,-305.071"/>
<polygon fill="black" stroke="black" points="1646.19,-305.404 1656.04,-300.582 1651.19,-305.242 1656.19,-305.08 1656.19,-305.08 1656.19,-305.08 1651.19,-305.242 1656.34,-309.578 1646.19,-305.404 1646.19,-305.404"/>
</g>
<!-- 29 -->
<g id="node30" class="node"><title>29</title>
<polygon fill="none" stroke="black" points="1865,-396 1773,-396 1773,-360 1865,-360 1865,-396"/>
<text text-anchor="middle" x="1819" y="-374.3" font-family="Times,serif" font-size="14.00">Policies.Exp3</text>
</g>
<!-- 17&#45;&gt;29 -->
<g id="edge38" class="edge"><title>17&#45;&gt;29</title>
<path fill="none" stroke="black" d="M2354.22,-162.548C2291.6,-162.63 2142.75,-168.304 2030,-216 1989.88,-232.97 1893.94,-312.687 1846.51,-353.215"/>
<polygon fill="black" stroke="black" points="1838.78,-359.835 1843.45,-349.911 1842.58,-356.582 1846.37,-353.328 1846.37,-353.328 1846.37,-353.328 1842.58,-356.582 1849.3,-356.745 1838.78,-359.835 1838.78,-359.835"/>
</g>
<!-- 32 -->
<g id="node33" class="node"><title>32</title>
<polygon fill="none" stroke="black" points="3904,-468 3800,-468 3800,-432 3904,-432 3904,-468"/>
<text text-anchor="middle" x="3852" y="-446.3" font-family="Times,serif" font-size="14.00">Policies.MEGA</text>
</g>
<!-- 17&#45;&gt;32 -->
<g id="edge39" class="edge"><title>17&#45;&gt;32</title>
<path fill="none" stroke="black" d="M2413.77,-163.239C2613.48,-164.951 3752.3,-176.429 3813,-216 3879.4,-259.284 3867.77,-369.998 3858.09,-421.67"/>
<polygon fill="black" stroke="black" points="3856.08,-431.755 3853.62,-421.068 3857.05,-426.851 3858.03,-421.947 3858.03,-421.947 3858.03,-421.947 3857.05,-426.851 3862.44,-422.827 3856.08,-431.755 3856.08,-431.755"/>
</g>
<!-- 33 -->
<g id="node34" class="node"><title>33</title>
<polygon fill="none" stroke="black" points="2789.5,-396 2688.5,-396 2688.5,-360 2789.5,-360 2789.5,-396"/>
<text text-anchor="middle" x="2739" y="-374.3" font-family="Times,serif" font-size="14.00">Policies.MOSS</text>
</g>
<!-- 17&#45;&gt;33 -->
<g id="edge40" class="edge"><title>17&#45;&gt;33</title>
<path fill="none" stroke="black" d="M2413.51,-164.112C2511.53,-168.103 2821.75,-183.248 2851,-216 2861.66,-227.935 2861.44,-239.876 2851,-252 2780.62,-333.73 2681.38,-206.27 2611,-288 2600.56,-300.124 2602.11,-310.697 2611,-324 2626.22,-346.774 2653.23,-359.774 2678.53,-367.189"/>
<polygon fill="black" stroke="black" points="2688.48,-369.857 2677.65,-371.615 2683.65,-368.562 2678.82,-367.268 2678.82,-367.268 2678.82,-367.268 2683.65,-368.562 2679.98,-362.921 2688.48,-369.857 2688.48,-369.857"/>
</g>
<!-- 34 -->
<g id="node35" class="node"><title>34</title>
<polygon fill="none" stroke="black" points="706.5,-468 569.5,-468 569.5,-432 706.5,-432 706.5,-468"/>
<text text-anchor="middle" x="638" y="-446.3" font-family="Times,serif" font-size="14.00">Policies.MusicalChair</text>
</g>
<!-- 17&#45;&gt;34 -->
<g id="edge41" class="edge"><title>17&#45;&gt;34</title>
<path fill="none" stroke="black" d="M2354.23,-163.4C2129.52,-166.479 707.82,-187.089 675,-216 616.159,-267.833 624.634,-372.454 632.648,-421.917"/>
<polygon fill="black" stroke="black" points="634.378,-431.872 628.232,-422.79 633.522,-426.945 632.666,-422.019 632.666,-422.019 632.666,-422.019 633.522,-426.945 637.099,-421.249 634.378,-431.872 634.378,-431.872"/>
</g>
<!-- 36 -->
<g id="node37" class="node"><title>36</title>
<polygon fill="none" stroke="black" points="886,-468 776,-468 776,-432 886,-432 886,-468"/>
<text text-anchor="middle" x="831" y="-446.3" font-family="Times,serif" font-size="14.00">Policies.Softmax</text>
</g>
<!-- 17&#45;&gt;36 -->
<g id="edge42" class="edge"><title>17&#45;&gt;36</title>
<path fill="none" stroke="black" d="M2354.19,-163.365C2130.78,-166.165 726.049,-184.993 696,-216 633.05,-280.957 742.371,-380.822 799.518,-425.723"/>
<polygon fill="black" stroke="black" points="807.544,-431.938 796.882,-429.373 803.591,-428.877 799.638,-425.815 799.638,-425.815 799.638,-425.815 803.591,-428.877 802.393,-422.258 807.544,-431.938 807.544,-431.938"/>
</g>
<!-- 37 -->
<g id="node38" class="node"><title>37</title>
<polygon fill="none" stroke="black" points="886,-324 740,-324 740,-288 886,-288 886,-324"/>
<text text-anchor="middle" x="813" y="-302.3" font-family="Times,serif" font-size="14.00">Policies.TakeFixedArm</text>
</g>
<!-- 17&#45;&gt;37 -->
<g id="edge43" class="edge"><title>17&#45;&gt;37</title>
<path fill="none" stroke="black" d="M2354.39,-164.126C2279.91,-166.946 2078.74,-174.478 1911,-180 1877.56,-181.101 730.303,-191.99 707,-216 695.857,-227.482 698.588,-238.39 707,-252 715.341,-265.496 728.274,-275.67 742.276,-283.299"/>
<polygon fill="black" stroke="black" points="751.595,-287.954 740.638,-287.511 747.122,-285.72 742.649,-283.485 742.649,-283.485 742.649,-283.485 747.122,-285.72 744.66,-279.46 751.595,-287.954 751.595,-287.954"/>
</g>
<!-- 38 -->
<g id="node39" class="node"><title>38</title>
<polygon fill="none" stroke="black" points="909.5,-252 716.5,-252 716.5,-216 909.5,-216 909.5,-252"/>
<text text-anchor="middle" x="813" y="-230.3" font-family="Times,serif" font-size="14.00">Policies.TakeRandomFixedArm</text>
</g>
<!-- 17&#45;&gt;38 -->
<g id="edge44" class="edge"><title>17&#45;&gt;38</title>
<path fill="none" stroke="black" d="M2354.37,-164.064C2148.02,-171.475 933.242,-215.127 924,-216 922.69,-216.124 921.372,-216.253 920.047,-216.387"/>
<polygon fill="black" stroke="black" points="909.779,-217.504 919.233,-211.948 914.75,-216.963 919.72,-216.422 919.72,-216.422 919.72,-216.422 914.75,-216.963 920.207,-220.896 909.779,-217.504 909.779,-217.504"/>
</g>
<!-- 39 -->
<g id="node40" class="node"><title>39</title>
<polygon fill="none" stroke="black" points="3786,-252 3664,-252 3664,-216 3786,-216 3786,-252"/>
<text text-anchor="middle" x="3725" y="-230.3" font-family="Times,serif" font-size="14.00">Policies.Thompson</text>
</g>
<!-- 17&#45;&gt;39 -->
<g id="edge45" class="edge"><title>17&#45;&gt;39</title>
<path fill="none" stroke="black" d="M2413.7,-163.445C2578.55,-166.036 3383.12,-180.259 3653.51,-215.995"/>
<polygon fill="black" stroke="black" points="3663.67,-217.384 3653.15,-220.488 3658.72,-216.707 3653.76,-216.03 3653.76,-216.03 3653.76,-216.03 3658.72,-216.707 3654.37,-211.571 3663.67,-217.384 3663.67,-217.384"/>
</g>
<!-- 40 -->
<g id="node41" class="node"><title>40</title>
<polygon fill="none" stroke="black" points="2933.5,-396 2842.5,-396 2842.5,-360 2933.5,-360 2933.5,-396"/>
<text text-anchor="middle" x="2888" y="-374.3" font-family="Times,serif" font-size="14.00">Policies.UCB</text>
</g>
<!-- 17&#45;&gt;40 -->
<g id="edge46" class="edge"><title>17&#45;&gt;40</title>
<path fill="none" stroke="black" d="M2413.84,-163.607C2522.85,-166.13 2895.08,-177.522 2930,-216 2940.75,-227.848 2934.49,-236.642 2930,-252 2924.68,-270.225 2914.21,-270.435 2907,-288 2898.86,-307.823 2894.02,-331.621 2891.26,-349.619"/>
<polygon fill="black" stroke="black" points="2889.83,-359.73 2886.77,-349.199 2890.53,-354.779 2891.23,-349.828 2891.23,-349.828 2891.23,-349.828 2890.53,-354.779 2895.68,-350.457 2889.83,-359.73 2889.83,-359.73"/>
</g>
<!-- 41 -->
<g id="node42" class="node"><title>41</title>
<polygon fill="none" stroke="black" points="3187.5,-324 3086.5,-324 3086.5,-288 3187.5,-288 3187.5,-324"/>
<text text-anchor="middle" x="3137" y="-302.3" font-family="Times,serif" font-size="14.00">Policies.UCBV</text>
</g>
<!-- 17&#45;&gt;41 -->
<g id="edge47" class="edge"><title>17&#45;&gt;41</title>
<path fill="none" stroke="black" d="M2413.76,-162.615C2553.03,-161.12 3136.02,-158.358 3190,-216 3208.17,-235.407 3187.68,-262.082 3167.12,-281.158"/>
<polygon fill="black" stroke="black" points="3159.61,-287.814 3164.11,-277.812 3163.35,-284.497 3167.09,-281.179 3167.09,-281.179 3167.09,-281.179 3163.35,-284.497 3170.08,-284.546 3159.61,-287.814 3159.61,-287.814"/>
</g>
<!-- 42 -->
<g id="node43" class="node"><title>42</title>
<polygon fill="none" stroke="black" points="3181.5,-252 3050.5,-252 3050.5,-216 3181.5,-216 3181.5,-252"/>
<text text-anchor="middle" x="3116" y="-230.3" font-family="Times,serif" font-size="14.00">Policies.UCBVtuned</text>
</g>
<!-- 17&#45;&gt;42 -->
<g id="edge48" class="edge"><title>17&#45;&gt;42</title>
<path fill="none" stroke="black" d="M2413.72,-164.058C2506.29,-167.642 2797.49,-181.111 3036,-216 3037.3,-216.191 3038.62,-216.39 3039.94,-216.597"/>
<polygon fill="black" stroke="black" points="3050.2,-218.318 3039.59,-221.101 3045.27,-217.491 3040.34,-216.663 3040.34,-216.663 3040.34,-216.663 3045.27,-217.491 3041.08,-212.225 3050.2,-218.318 3050.2,-218.318"/>
</g>
<!-- 43 -->
<g id="node44" class="node"><title>43</title>
<polygon fill="none" stroke="black" points="3326,-324 3206,-324 3206,-288 3326,-288 3326,-324"/>
<text text-anchor="middle" x="3266" y="-302.3" font-family="Times,serif" font-size="14.00">Policies.UCBalpha</text>
</g>
<!-- 17&#45;&gt;43 -->
<g id="edge49" class="edge"><title>17&#45;&gt;43</title>
<path fill="none" stroke="black" d="M2413.79,-163.348C2553.32,-165.185 3138.3,-175.279 3208,-216 3231.65,-229.814 3247.37,-257.545 3256.41,-278.401"/>
<polygon fill="black" stroke="black" points="3260.21,-287.71 3252.27,-280.15 3258.32,-283.08 3256.43,-278.451 3256.43,-278.451 3256.43,-278.451 3258.32,-283.08 3260.6,-276.751 3260.21,-287.71 3260.21,-287.71"/>
</g>
<!-- 44 -->
<g id="node45" class="node"><title>44</title>
<polygon fill="none" stroke="black" points="3466,-324 3344,-324 3344,-288 3466,-288 3466,-324"/>
<text text-anchor="middle" x="3405" y="-302.3" font-family="Times,serif" font-size="14.00">Policies.UCBlog10</text>
</g>
<!-- 17&#45;&gt;44 -->
<g id="edge50" class="edge"><title>17&#45;&gt;44</title>
<path fill="none" stroke="black" d="M2413.68,-163.117C2545.57,-163.902 3079.13,-169.919 3239,-216 3271.11,-225.254 3275.57,-236.176 3305,-252 3324.16,-262.301 3345.45,-273.604 3363.44,-283.116"/>
<polygon fill="black" stroke="black" points="3372.52,-287.912 3361.58,-287.221 3368.1,-285.577 3363.68,-283.242 3363.68,-283.242 3363.68,-283.242 3368.1,-285.577 3365.78,-279.263 3372.52,-287.912 3372.52,-287.912"/>
</g>
<!-- 45 -->
<g id="node46" class="node"><title>45</title>
<polygon fill="none" stroke="black" points="3465.5,-252 3314.5,-252 3314.5,-216 3465.5,-216 3465.5,-252"/>
<text text-anchor="middle" x="3390" y="-230.3" font-family="Times,serif" font-size="14.00">Policies.UCBlog10alpha</text>
</g>
<!-- 17&#45;&gt;45 -->
<g id="edge51" class="edge"><title>17&#45;&gt;45</title>
<path fill="none" stroke="black" d="M2413.78,-163.33C2528.59,-164.897 2953.35,-173.413 3300,-216 3301.48,-216.182 3302.97,-216.373 3304.47,-216.573"/>
<polygon fill="black" stroke="black" points="3314.49,-218.006 3303.95,-221.044 3309.54,-217.298 3304.59,-216.589 3304.59,-216.589 3304.59,-216.589 3309.54,-217.298 3305.23,-212.135 3314.49,-218.006 3314.49,-218.006"/>
</g>
<!-- 46 -->
<g id="node47" class="node"><title>46</title>
<polygon fill="none" stroke="black" points="2728,-324 2620,-324 2620,-288 2728,-288 2728,-324"/>
<text text-anchor="middle" x="2674" y="-302.3" font-family="Times,serif" font-size="14.00">Policies.UCBopt</text>
</g>
<!-- 17&#45;&gt;46 -->
<g id="edge52" class="edge"><title>17&#45;&gt;46</title>
<path fill="none" stroke="black" d="M2413.78,-163.887C2516.64,-167.254 2852.4,-180.875 2884,-216 2966.84,-308.083 2885.03,-253.328 2738.05,-287.862"/>
<polygon fill="black" stroke="black" points="2728.27,-290.268 2736.91,-283.508 2733.13,-289.073 2737.98,-287.877 2737.98,-287.877 2737.98,-287.877 2733.13,-289.073 2739.06,-292.247 2728.27,-290.268 2728.27,-290.268"/>
</g>
<!-- 47 -->
<g id="node48" class="node"><title>47</title>
<polygon fill="none" stroke="black" points="2859.5,-324 2746.5,-324 2746.5,-288 2859.5,-288 2859.5,-324"/>
<text text-anchor="middle" x="2803" y="-302.3" font-family="Times,serif" font-size="14.00">Policies.UCBplus</text>
</g>
<!-- 17&#45;&gt;47 -->
<g id="edge53" class="edge"><title>17&#45;&gt;47</title>
<path fill="none" stroke="black" d="M2413.59,-163.705C2519.94,-166.541 2878.35,-178.809 2912,-216 2922.73,-227.865 2920.49,-238.436 2912,-252 2902.06,-267.879 2885.86,-279.123 2868.95,-287.036"/>
<polygon fill="black" stroke="black" points="2859.51,-291.097 2866.92,-283.009 2864.11,-289.12 2868.7,-287.143 2868.7,-287.143 2868.7,-287.143 2864.11,-289.12 2870.48,-291.276 2859.51,-291.097 2859.51,-291.097"/>
</g>
<!-- 48 -->
<g id="node49" class="node"><title>48</title>
<polygon fill="none" stroke="black" points="3068,-324 2916,-324 2916,-288 3068,-288 3068,-324"/>
<text text-anchor="middle" x="2992" y="-302.3" font-family="Times,serif" font-size="14.00">Policies.UCBrandomInit</text>
</g>
<!-- 17&#45;&gt;48 -->
<g id="edge54" class="edge"><title>17&#45;&gt;48</title>
<path fill="none" stroke="black" d="M2413.85,-163.268C2531.42,-164.626 2958.13,-172.538 2998,-216 3013.07,-232.423 3009.3,-258.508 3003.11,-278.201"/>
<polygon fill="black" stroke="black" points="2999.74,-287.832 2998.79,-276.907 3001.39,-283.112 3003.04,-278.393 3003.04,-278.393 3003.04,-278.393 3001.39,-283.112 3007.29,-279.879 2999.74,-287.832 2999.74,-287.832"/>
</g>
<!-- 49 -->
<g id="node50" class="node"><title>49</title>
<polygon fill="none" stroke="black" points="3403.5,-396 3278.5,-396 3278.5,-360 3403.5,-360 3403.5,-396"/>
<text text-anchor="middle" x="3341" y="-374.3" font-family="Times,serif" font-size="14.00">Policies.UCBwrong</text>
</g>
<!-- 17&#45;&gt;49 -->
<g id="edge55" class="edge"><title>17&#45;&gt;49</title>
<path fill="none" stroke="black" d="M2413.72,-163.31C2584.63,-165.236 3436.12,-176.779 3474,-216 3507.35,-250.526 3501.99,-284.303 3475,-324 3467.07,-335.659 3440.15,-347.326 3412.5,-356.733"/>
<polygon fill="black" stroke="black" points="3402.71,-359.962 3410.8,-352.554 3407.46,-358.395 3412.21,-356.827 3412.21,-356.827 3412.21,-356.827 3407.46,-358.395 3413.62,-361.101 3402.71,-359.962 3402.71,-359.962"/>
</g>
<!-- 50 -->
<g id="node51" class="node"><title>50</title>
<polygon fill="none" stroke="black" points="1100,-324 990,-324 990,-288 1100,-288 1100,-324"/>
<text text-anchor="middle" x="1045" y="-302.3" font-family="Times,serif" font-size="14.00">Policies.Uniform</text>
</g>
<!-- 17&#45;&gt;50 -->
<g id="edge56" class="edge"><title>17&#45;&gt;50</title>
<path fill="none" stroke="black" d="M2354.23,-164.071C2149.54,-171.437 958.572,-214.368 957,-216 945.898,-227.522 949.128,-238.07 957,-252 964.343,-264.994 976.289,-275.157 989.044,-282.95"/>
<polygon fill="black" stroke="black" points="997.958,-287.973 987.036,-286.984 993.602,-285.518 989.246,-283.063 989.246,-283.063 989.246,-283.063 993.602,-285.518 991.455,-279.143 997.958,-287.973 997.958,-287.973"/>
</g>
<!-- 51 -->
<g id="node52" class="node"><title>51</title>
<polygon fill="none" stroke="black" points="1124,-252 966,-252 966,-216 1124,-216 1124,-252"/>
<text text-anchor="middle" x="1045" y="-230.3" font-family="Times,serif" font-size="14.00">Policies.UniformOnSome</text>
</g>
<!-- 17&#45;&gt;51 -->
<g id="edge57" class="edge"><title>17&#45;&gt;51</title>
<path fill="none" stroke="black" d="M2354.25,-164.148C2170.93,-171.241 1200.33,-209.011 1138,-216 1136.72,-216.144 1135.42,-216.295 1134.12,-216.453"/>
<polygon fill="black" stroke="black" points="1124.04,-217.784 1133.36,-212.014 1128.99,-217.13 1133.95,-216.475 1133.95,-216.475 1133.95,-216.475 1128.99,-217.13 1134.54,-220.937 1124.04,-217.784 1124.04,-217.784"/>
</g>
<!-- 52 -->
<g id="node53" class="node"><title>52</title>
<polygon fill="none" stroke="black" points="2510.5,-324 2409.5,-324 2409.5,-288 2510.5,-288 2510.5,-324"/>
<text text-anchor="middle" x="2460" y="-302.3" font-family="Times,serif" font-size="14.00">Policies.klUCB</text>
</g>
<!-- 17&#45;&gt;52 -->
<g id="edge58" class="edge"><title>17&#45;&gt;52</title>
<path fill="none" stroke="black" d="M2384.62,-180.147C2385.96,-198.907 2390.14,-229.325 2403,-252 2409.25,-263.019 2418.57,-273.075 2427.87,-281.396"/>
<polygon fill="black" stroke="black" points="2435.61,-287.96 2425.07,-284.923 2431.79,-284.726 2427.98,-281.492 2427.98,-281.492 2427.98,-281.492 2431.79,-284.726 2430.89,-278.06 2435.61,-287.96 2435.61,-287.96"/>
</g>
<!-- 53 -->
<g id="node54" class="node"><title>53</title>
<polygon fill="none" stroke="black" points="2189,-252 2055,-252 2055,-216 2189,-216 2189,-252"/>
<text text-anchor="middle" x="2122" y="-230.3" font-family="Times,serif" font-size="14.00">Policies.klUCBHPlus</text>
</g>
<!-- 17&#45;&gt;53 -->
<g id="edge59" class="edge"><title>17&#45;&gt;53</title>
<path fill="none" stroke="black" d="M2354.45,-170.894C2316.23,-181.105 2248.33,-199.249 2195.74,-213.298"/>
<polygon fill="black" stroke="black" points="2185.78,-215.96 2194.28,-209.031 2190.61,-214.669 2195.44,-213.379 2195.44,-213.379 2195.44,-213.379 2190.61,-214.669 2196.6,-217.726 2185.78,-215.96 2185.78,-215.96"/>
</g>
<!-- 54 -->
<g id="node55" class="node"><title>54</title>
<polygon fill="none" stroke="black" points="2537.5,-252 2412.5,-252 2412.5,-216 2537.5,-216 2537.5,-252"/>
<text text-anchor="middle" x="2475" y="-230.3" font-family="Times,serif" font-size="14.00">Policies.klUCBPlus</text>
</g>
<!-- 17&#45;&gt;54 -->
<g id="edge60" class="edge"><title>17&#45;&gt;54</title>
<path fill="none" stroke="black" d="M2406.49,-180.303C2417.96,-189.119 2432.06,-199.968 2444.48,-209.526"/>
<polygon fill="black" stroke="black" points="2452.76,-215.896 2442.09,-213.365 2448.8,-212.847 2444.84,-209.799 2444.84,-209.799 2444.84,-209.799 2448.8,-212.847 2447.58,-206.232 2452.76,-215.896 2452.76,-215.896"/>
</g>
<!-- 55 -->
<g id="node56" class="node"><title>55</title>
<polygon fill="none" stroke="black" points="2688,-252 2556,-252 2556,-216 2688,-216 2688,-252"/>
<text text-anchor="middle" x="2622" y="-230.3" font-family="Times,serif" font-size="14.00">Policies.klUCBlog10</text>
</g>
<!-- 17&#45;&gt;55 -->
<g id="edge61" class="edge"><title>17&#45;&gt;55</title>
<path fill="none" stroke="black" d="M2413.66,-171.724C2448.68,-182.023 2508.02,-199.475 2554.43,-213.126"/>
<polygon fill="black" stroke="black" points="2564.12,-215.978 2553.26,-217.473 2559.33,-214.567 2554.53,-213.156 2554.53,-213.156 2554.53,-213.156 2559.33,-214.567 2555.8,-208.839 2564.12,-215.978 2564.12,-215.978"/>
</g>
<!-- 56 -->
<g id="node57" class="node"><title>56</title>
<polygon fill="none" stroke="black" points="2842,-252 2706,-252 2706,-216 2842,-216 2842,-252"/>
<text text-anchor="middle" x="2774" y="-230.3" font-family="Times,serif" font-size="14.00">Policies.klUCBloglog</text>
</g>
<!-- 17&#45;&gt;56 -->
<g id="edge62" class="edge"><title>17&#45;&gt;56</title>
<path fill="none" stroke="black" d="M2413.87,-167.552C2468.02,-175.915 2586.21,-194.665 2695.71,-215.795"/>
<polygon fill="black" stroke="black" points="2705.6,-217.715 2694.93,-220.227 2700.69,-216.762 2695.79,-215.809 2695.79,-215.809 2695.79,-215.809 2700.69,-216.762 2696.64,-211.392 2705.6,-217.715 2705.6,-217.715"/>
</g>
<!-- 57 -->
<g id="node58" class="node"><title>57</title>
<polygon fill="none" stroke="black" points="2356.5,-252 2207.5,-252 2207.5,-216 2356.5,-216 2356.5,-252"/>
<text text-anchor="middle" x="2282" y="-230.3" font-family="Times,serif" font-size="14.00">Policies.klUCBloglog10</text>
</g>
<!-- 17&#45;&gt;57 -->
<g id="edge63" class="edge"><title>17&#45;&gt;57</title>
<path fill="none" stroke="black" d="M2359.05,-180.124C2345.96,-189.107 2329.74,-200.237 2315.56,-209.966"/>
<polygon fill="black" stroke="black" points="2307.05,-215.81 2312.75,-206.441 2311.17,-212.981 2315.29,-210.152 2315.29,-210.152 2315.29,-210.152 2311.17,-212.981 2317.84,-213.862 2307.05,-215.81 2307.05,-215.81"/>
</g>
<!-- 58 -->
<g id="node59" class="node"><title>58</title>
<polygon fill="none" stroke="black" points="2271,-396 2161,-396 2161,-360 2271,-360 2271,-396"/>
<text text-anchor="middle" x="2216" y="-374.3" font-family="Times,serif" font-size="14.00">Policies.kullback</text>
</g>
<!-- 17&#45;&gt;58 -->
<g id="edge64" class="edge"><title>17&#45;&gt;58</title>
<path fill="none" stroke="black" d="M2354.36,-162.959C2279.45,-163.55 2085.67,-169.622 2046,-216 1999.41,-270.467 2097.65,-326.284 2163.31,-355.751"/>
<polygon fill="black" stroke="black" points="2172.74,-359.904 2161.78,-359.992 2168.17,-357.889 2163.59,-355.873 2163.59,-355.873 2163.59,-355.873 2168.17,-357.889 2165.41,-351.755 2172.74,-359.904 2172.74,-359.904"/>
</g>
<!-- 20 -->
<g id="node21" class="node"><title>20</title>
<polygon fill="none" stroke="black" points="1468,-540 1344,-540 1344,-504 1468,-504 1468,-540"/>
<text text-anchor="middle" x="1406" y="-518.3" font-family="Times,serif" font-size="14.00">Policies.BasePolicy</text>
</g>
<!-- 18&#45;&gt;20 -->
<g id="edge65" class="edge"><title>18&#45;&gt;20</title>
<path fill="none" stroke="black" d="M3777.38,-324.071C3775.12,-358.153 3764.7,-434.248 3717,-468 3670.2,-501.11 1865.13,-517.343 1478.44,-520.444"/>
<polygon fill="black" stroke="black" points="1468.22,-520.526 1478.19,-515.946 1473.22,-520.486 1478.22,-520.446 1478.22,-520.446 1478.22,-520.446 1473.22,-520.486 1478.26,-524.946 1468.22,-520.526 1468.22,-520.526"/>
</g>
<!-- 23 -->
<g id="node24" class="node"><title>23</title>
<polygon fill="none" stroke="black" points="3696,-396 3608,-396 3608,-360 3696,-360 3696,-396"/>
<text text-anchor="middle" x="3652" y="-374.3" font-family="Times,serif" font-size="14.00">Policies.Beta</text>
</g>
<!-- 18&#45;&gt;23 -->
<g id="edge66" class="edge"><title>18&#45;&gt;23</title>
<path fill="none" stroke="black" d="M3747.18,-324.124C3730.55,-333.361 3709.84,-344.869 3691.98,-354.788"/>
<polygon fill="black" stroke="black" points="3682.94,-359.81 3689.5,-351.02 3687.31,-357.382 3691.68,-354.954 3691.68,-354.954 3691.68,-354.954 3687.31,-357.382 3693.87,-358.887 3682.94,-359.81 3682.94,-359.81"/>
</g>
<!-- 19&#45;&gt;20 -->
<g id="edge67" class="edge"><title>19&#45;&gt;20</title>
<path fill="none" stroke="black" d="M1345.78,-468.303C1355.75,-477.035 1368.01,-487.76 1378.86,-497.25"/>
<polygon fill="black" stroke="black" points="1386.45,-503.896 1375.96,-500.697 1382.69,-500.603 1378.93,-497.311 1378.93,-497.311 1378.93,-497.311 1382.69,-500.603 1381.89,-493.924 1386.45,-503.896 1386.45,-503.896"/>
</g>
<!-- 22 -->
<g id="node23" class="node"><title>22</title>
<polygon fill="none" stroke="black" points="3700,-324 3522,-324 3522,-288 3700,-288 3700,-324"/>
<text text-anchor="middle" x="3611" y="-302.3" font-family="Times,serif" font-size="14.00">Policies.BayesianIndexPolicy</text>
</g>
<!-- 21&#45;&gt;22 -->
<g id="edge68" class="edge"><title>21&#45;&gt;22</title>
<path fill="none" stroke="black" d="M3590.67,-252.303C3593.71,-260.187 3597.38,-269.696 3600.76,-278.454"/>
<polygon fill="black" stroke="black" points="3604.4,-287.896 3596.61,-280.185 3602.6,-283.231 3600.8,-278.566 3600.8,-278.566 3600.8,-278.566 3602.6,-283.231 3605,-276.946 3604.4,-287.896 3604.4,-287.896"/>
</g>
<!-- 22&#45;&gt;23 -->
<g id="edge69" class="edge"><title>22&#45;&gt;23</title>
<path fill="none" stroke="black" d="M3621.13,-324.303C3625.85,-332.356 3631.56,-342.106 3636.78,-351.018"/>
<polygon fill="black" stroke="black" points="3641.98,-359.896 3633.04,-353.541 3639.45,-355.581 3636.93,-351.267 3636.93,-351.267 3636.93,-351.267 3639.45,-355.581 3640.81,-348.992 3641.98,-359.896 3641.98,-359.896"/>
</g>
<!-- 30 -->
<g id="node31" class="node"><title>30</title>
<polygon fill="none" stroke="black" points="2877,-468 2749,-468 2749,-432 2877,-432 2877,-468"/>
<text text-anchor="middle" x="2813" y="-446.3" font-family="Times,serif" font-size="14.00">Policies.IndexPolicy</text>
</g>
<!-- 22&#45;&gt;30 -->
<g id="edge70" class="edge"><title>22&#45;&gt;30</title>
<path fill="none" stroke="black" d="M3581.13,-324.167C3543.18,-345.073 3475,-379.618 3412,-396 3314.72,-421.296 3024.89,-438.524 2887.21,-445.509"/>
<polygon fill="black" stroke="black" points="2877.16,-446.014 2886.93,-441.017 2882.16,-445.763 2887.15,-445.512 2887.15,-445.512 2887.15,-445.512 2882.16,-445.763 2887.38,-450.006 2877.16,-446.014 2877.16,-446.014"/>
</g>
<!-- 35 -->
<g id="node36" class="node"><title>35</title>
<polygon fill="none" stroke="black" points="3708,-468 3596,-468 3596,-432 3708,-432 3708,-468"/>
<text text-anchor="middle" x="3652" y="-446.3" font-family="Times,serif" font-size="14.00">Policies.Posterior</text>
</g>
<!-- 23&#45;&gt;35 -->
<g id="edge71" class="edge"><title>23&#45;&gt;35</title>
<path fill="none" stroke="black" d="M3652,-396.303C3652,-404.017 3652,-413.288 3652,-421.888"/>
<polygon fill="black" stroke="black" points="3652,-431.896 3647.5,-421.896 3652,-426.896 3652,-421.896 3652,-421.896 3652,-421.896 3652,-426.896 3656.5,-421.896 3652,-431.896 3652,-431.896"/>
</g>
<!-- 24&#45;&gt;28 -->
<g id="edge72" class="edge"><title>24&#45;&gt;28</title>
<path fill="none" stroke="black" d="M1338.68,-252.034C1385.09,-262.481 1444.52,-275.857 1492.05,-286.554"/>
<polygon fill="black" stroke="black" points="1502,-288.793 1491.25,-290.988 1497.12,-287.695 1492.24,-286.598 1492.24,-286.598 1492.24,-286.598 1497.12,-287.695 1493.23,-282.207 1502,-288.793 1502,-288.793"/>
</g>
<!-- 25&#45;&gt;28 -->
<g id="edge73" class="edge"><title>25&#45;&gt;28</title>
<path fill="none" stroke="black" d="M1493.18,-252.124C1507.04,-261.192 1524.24,-272.448 1539.21,-282.241"/>
<polygon fill="black" stroke="black" points="1547.72,-287.81 1536.89,-286.101 1543.54,-285.073 1539.36,-282.336 1539.36,-282.336 1539.36,-282.336 1543.54,-285.073 1541.82,-278.57 1547.72,-287.81 1547.72,-287.81"/>
</g>
<!-- 26&#45;&gt;28 -->
<g id="edge74" class="edge"><title>26&#45;&gt;28</title>
<path fill="none" stroke="black" d="M1655.58,-252.124C1641.59,-261.192 1624.22,-272.448 1609.11,-282.241"/>
<polygon fill="black" stroke="black" points="1600.52,-287.81 1606.47,-278.595 1604.72,-285.091 1608.91,-282.371 1608.91,-282.371 1608.91,-282.371 1604.72,-285.091 1611.36,-286.147 1600.52,-287.81 1600.52,-287.81"/>
</g>
<!-- 27&#45;&gt;28 -->
<g id="edge75" class="edge"><title>27&#45;&gt;28</title>
<path fill="none" stroke="black" d="M1793.2,-250.972C1751.5,-261.251 1697.03,-274.675 1652.83,-285.571"/>
<polygon fill="black" stroke="black" points="1642.98,-287.997 1651.61,-281.235 1647.84,-286.801 1652.69,-285.604 1652.69,-285.604 1652.69,-285.604 1647.84,-286.801 1653.77,-289.973 1642.98,-287.997 1642.98,-287.997"/>
</g>
<!-- 28&#45;&gt;20 -->
<g id="edge76" class="edge"><title>28&#45;&gt;20</title>
<path fill="none" stroke="black" d="M1560.54,-324.151C1530.98,-361.794 1460.33,-451.799 1425.74,-495.849"/>
<polygon fill="black" stroke="black" points="1419.53,-503.768 1422.16,-493.123 1422.62,-499.835 1425.7,-495.902 1425.7,-495.902 1425.7,-495.902 1422.62,-499.835 1429.24,-498.681 1419.53,-503.768 1419.53,-503.768"/>
</g>
<!-- 29&#45;&gt;20 -->
<g id="edge77" class="edge"><title>29&#45;&gt;20</title>
<path fill="none" stroke="black" d="M1772.83,-394.876C1697.51,-420.773 1548.29,-472.077 1465.26,-500.625"/>
<polygon fill="black" stroke="black" points="1455.72,-503.906 1463.71,-496.399 1460.45,-502.28 1465.17,-500.654 1465.17,-500.654 1465.17,-500.654 1460.45,-502.28 1466.64,-504.91 1455.72,-503.906 1455.72,-503.906"/>
</g>
<!-- 30&#45;&gt;20 -->
<g id="edge78" class="edge"><title>30&#45;&gt;20</title>
<path fill="none" stroke="black" d="M2748.89,-454.19C2517.02,-465.725 1722.85,-505.236 1478.28,-517.404"/>
<polygon fill="black" stroke="black" points="1468.08,-517.911 1477.85,-512.92 1473.08,-517.663 1478.07,-517.414 1478.07,-517.414 1478.07,-517.414 1473.08,-517.663 1478.29,-521.909 1468.08,-517.911 1468.08,-517.911"/>
</g>
<!-- 31 -->
<g id="node32" class="node"><title>31</title>
<polygon fill="none" stroke="black" points="2360.5,-324 2227.5,-324 2227.5,-288 2360.5,-288 2360.5,-324"/>
<text text-anchor="middle" x="2294" y="-302.3" font-family="Times,serif" font-size="14.00">Policies.KLempUCB</text>
</g>
<!-- 31&#45;&gt;30 -->
<g id="edge79" class="edge"><title>31&#45;&gt;30</title>
<path fill="none" stroke="black" d="M2347.66,-324.082C2406.94,-342.719 2505.36,-372.966 2591,-396 2639.99,-409.177 2695.5,-422.429 2738.76,-432.387"/>
<polygon fill="black" stroke="black" points="2748.64,-434.652 2737.89,-436.803 2743.77,-433.534 2738.89,-432.417 2738.89,-432.417 2738.89,-432.417 2743.77,-433.534 2739.9,-428.03 2748.64,-434.652 2748.64,-434.652"/>
</g>
<!-- 31&#45;&gt;58 -->
<g id="edge80" class="edge"><title>31&#45;&gt;58</title>
<path fill="none" stroke="black" d="M2274.72,-324.303C2265.08,-332.95 2253.27,-343.551 2242.77,-352.973"/>
<polygon fill="black" stroke="black" points="2235.06,-359.896 2239.5,-349.867 2238.78,-356.556 2242.5,-353.217 2242.5,-353.217 2242.5,-353.217 2238.78,-356.556 2245.51,-356.566 2235.06,-359.896 2235.06,-359.896"/>
</g>
<!-- 32&#45;&gt;20 -->
<g id="edge81" class="edge"><title>32&#45;&gt;20</title>
<path fill="none" stroke="black" d="M3799.94,-463.4C3790.37,-465.26 3780.42,-466.915 3771,-468 3310.66,-521.005 1824.3,-521.746 1478.4,-521.177"/>
<polygon fill="black" stroke="black" points="1468.26,-521.159 1478.27,-516.677 1473.26,-521.168 1478.26,-521.177 1478.26,-521.177 1478.26,-521.177 1473.26,-521.168 1478.26,-525.677 1468.26,-521.159 1468.26,-521.159"/>
</g>
<!-- 33&#45;&gt;30 -->
<g id="edge82" class="edge"><title>33&#45;&gt;30</title>
<path fill="none" stroke="black" d="M2757.29,-396.303C2766.43,-404.95 2777.64,-415.551 2787.6,-424.973"/>
<polygon fill="black" stroke="black" points="2794.92,-431.896 2784.56,-428.293 2791.29,-428.46 2787.65,-425.024 2787.65,-425.024 2787.65,-425.024 2791.29,-428.46 2790.75,-421.755 2794.92,-431.896 2794.92,-431.896"/>
</g>
<!-- 34&#45;&gt;20 -->
<g id="edge83" class="edge"><title>34&#45;&gt;20</title>
<path fill="none" stroke="black" d="M706.548,-460.659C726.058,-463.238 747.347,-465.891 767,-468 972.149,-490.012 1215.2,-507.933 1333.73,-516.147"/>
<polygon fill="black" stroke="black" points="1343.77,-516.841 1333.49,-520.641 1338.78,-516.496 1333.8,-516.152 1333.8,-516.152 1333.8,-516.152 1338.78,-516.496 1334.11,-511.663 1343.77,-516.841 1343.77,-516.841"/>
</g>
<!-- 36&#45;&gt;20 -->
<g id="edge84" class="edge"><title>36&#45;&gt;20</title>
<path fill="none" stroke="black" d="M886.068,-461.617C898.824,-463.894 912.363,-466.163 925,-468 1069.59,-489.015 1239.71,-505.937 1333.95,-514.629"/>
<polygon fill="black" stroke="black" points="1343.94,-515.546 1333.57,-519.113 1338.96,-515.089 1333.98,-514.632 1333.98,-514.632 1333.98,-514.632 1338.96,-515.089 1334.4,-510.151 1343.94,-515.546 1343.94,-515.546"/>
</g>
<!-- 37&#45;&gt;20 -->
<g id="edge85" class="edge"><title>37&#45;&gt;20</title>
<path fill="none" stroke="black" d="M848.168,-324.11C914.395,-355.829 1062.69,-424.481 1193,-468 1239.18,-483.421 1292.31,-496.65 1333.96,-506.035"/>
<polygon fill="black" stroke="black" points="1343.75,-508.217 1333.01,-510.432 1338.87,-507.128 1333.99,-506.04 1333.99,-506.04 1333.99,-506.04 1338.87,-507.128 1334.97,-501.648 1343.75,-508.217 1343.75,-508.217"/>
</g>
<!-- 38&#45;&gt;37 -->
<g id="edge86" class="edge"><title>38&#45;&gt;37</title>
<path fill="none" stroke="black" d="M813,-252.303C813,-260.017 813,-269.288 813,-277.888"/>
<polygon fill="black" stroke="black" points="813,-287.896 808.5,-277.896 813,-282.896 813,-277.896 813,-277.896 813,-277.896 813,-282.896 817.5,-277.896 813,-287.896 813,-287.896"/>
</g>
<!-- 39&#45;&gt;22 -->
<g id="edge87" class="edge"><title>39&#45;&gt;22</title>
<path fill="none" stroke="black" d="M3697.11,-252.124C3682.21,-261.276 3663.67,-272.658 3647.62,-282.515"/>
<polygon fill="black" stroke="black" points="3638.99,-287.81 3645.16,-278.743 3643.26,-285.194 3647.52,-282.578 3647.52,-282.578 3647.52,-282.578 3643.26,-285.194 3649.87,-286.412 3638.99,-287.81 3638.99,-287.81"/>
</g>
<!-- 40&#45;&gt;30 -->
<g id="edge88" class="edge"><title>40&#45;&gt;30</title>
<path fill="none" stroke="black" d="M2869.46,-396.303C2860.2,-404.95 2848.84,-415.551 2838.74,-424.973"/>
<polygon fill="black" stroke="black" points="2831.33,-431.896 2835.57,-421.783 2834.98,-428.484 2838.64,-425.072 2838.64,-425.072 2838.64,-425.072 2834.98,-428.484 2841.71,-428.362 2831.33,-431.896 2831.33,-431.896"/>
</g>
<!-- 41&#45;&gt;40 -->
<g id="edge89" class="edge"><title>41&#45;&gt;40</title>
<path fill="none" stroke="black" d="M3086.26,-321.386C3083.13,-322.271 3080.02,-323.148 3077,-324 3032.14,-336.646 2981.26,-350.908 2943.6,-361.45"/>
<polygon fill="black" stroke="black" points="2933.84,-364.183 2942.26,-357.154 2938.65,-362.835 2943.47,-361.487 2943.47,-361.487 2943.47,-361.487 2938.65,-362.835 2944.68,-365.821 2933.84,-364.183 2933.84,-364.183"/>
</g>
<!-- 42&#45;&gt;41 -->
<g id="edge90" class="edge"><title>42&#45;&gt;41</title>
<path fill="none" stroke="black" d="M3121.19,-252.303C3123.53,-260.102 3126.35,-269.491 3128.95,-278.171"/>
<polygon fill="black" stroke="black" points="3131.87,-287.896 3124.68,-279.61 3130.43,-283.107 3129,-278.317 3129,-278.317 3129,-278.317 3130.43,-283.107 3133.31,-277.024 3131.87,-287.896 3131.87,-287.896"/>
</g>
<!-- 43&#45;&gt;40 -->
<g id="edge91" class="edge"><title>43&#45;&gt;40</title>
<path fill="none" stroke="black" d="M3205.73,-321.912C3202.44,-322.639 3199.18,-323.34 3196,-324 3108.18,-342.198 3005.36,-358.992 2943.52,-368.608"/>
<polygon fill="black" stroke="black" points="2933.58,-370.147 2942.78,-364.17 2938.53,-369.382 2943.47,-368.617 2943.47,-368.617 2943.47,-368.617 2938.53,-369.382 2944.15,-373.064 2933.58,-370.147 2933.58,-370.147"/>
</g>
<!-- 44&#45;&gt;30 -->
<g id="edge92" class="edge"><title>44&#45;&gt;30</title>
<path fill="none" stroke="black" d="M3343.92,-321.846C3340.9,-322.575 3337.92,-323.296 3335,-324 3175.44,-362.48 2988.34,-407.182 2887.13,-431.328"/>
<polygon fill="black" stroke="black" points="2877.31,-433.671 2885.99,-426.974 2882.17,-432.511 2887.03,-431.351 2887.03,-431.351 2887.03,-431.351 2882.17,-432.511 2888.08,-435.728 2877.31,-433.671 2877.31,-433.671"/>
</g>
<!-- 45&#45;&gt;44 -->
<g id="edge93" class="edge"><title>45&#45;&gt;44</title>
<path fill="none" stroke="black" d="M3393.71,-252.303C3395.36,-260.017 3397.35,-269.288 3399.19,-277.888"/>
<polygon fill="black" stroke="black" points="3401.33,-287.896 3394.84,-279.061 3400.29,-283.007 3399.24,-278.118 3399.24,-278.118 3399.24,-278.118 3400.29,-283.007 3403.64,-277.175 3401.33,-287.896 3401.33,-287.896"/>
</g>
<!-- 46&#45;&gt;40 -->
<g id="edge94" class="edge"><title>46&#45;&gt;40</title>
<path fill="none" stroke="black" d="M2726.08,-324.034C2758.26,-334.56 2799.53,-348.06 2832.35,-358.796"/>
<polygon fill="black" stroke="black" points="2842.24,-362.033 2831.34,-363.201 2837.49,-360.479 2832.74,-358.924 2832.74,-358.924 2832.74,-358.924 2837.49,-360.479 2834.14,-354.647 2842.24,-362.033 2842.24,-362.033"/>
</g>
<!-- 47&#45;&gt;40 -->
<g id="edge95" class="edge"><title>47&#45;&gt;40</title>
<path fill="none" stroke="black" d="M2824.01,-324.303C2834.72,-333.119 2847.89,-343.968 2859.5,-353.526"/>
<polygon fill="black" stroke="black" points="2867.23,-359.896 2856.65,-357.012 2863.37,-356.717 2859.51,-353.539 2859.51,-353.539 2859.51,-353.539 2863.37,-356.717 2862.37,-350.065 2867.23,-359.896 2867.23,-359.896"/>
</g>
<!-- 48&#45;&gt;40 -->
<g id="edge96" class="edge"><title>48&#45;&gt;40</title>
<path fill="none" stroke="black" d="M2966.56,-324.124C2953.21,-333.107 2936.68,-344.237 2922.22,-353.966"/>
<polygon fill="black" stroke="black" points="2913.54,-359.81 2919.32,-350.493 2917.69,-357.018 2921.83,-354.226 2921.83,-354.226 2921.83,-354.226 2917.69,-357.018 2924.35,-357.96 2913.54,-359.81 2913.54,-359.81"/>
</g>
<!-- 49&#45;&gt;30 -->
<g id="edge97" class="edge"><title>49&#45;&gt;30</title>
<path fill="none" stroke="black" d="M3278.36,-387.305C3180.54,-400.273 2991.93,-425.278 2887.37,-439.141"/>
<polygon fill="black" stroke="black" points="2877.21,-440.488 2886.53,-434.712 2882.16,-439.831 2887.12,-439.173 2887.12,-439.173 2887.12,-439.173 2882.16,-439.831 2887.71,-443.634 2877.21,-440.488 2877.21,-440.488"/>
</g>
<!-- 50&#45;&gt;20 -->
<g id="edge98" class="edge"><title>50&#45;&gt;20</title>
<path fill="none" stroke="black" d="M1060.28,-324.164C1077.82,-343.215 1108.02,-374.15 1138,-396 1202.91,-443.308 1288.58,-479.478 1345.39,-500.455"/>
<polygon fill="black" stroke="black" points="1354.95,-503.943 1344.01,-504.743 1350.25,-502.229 1345.55,-500.516 1345.55,-500.516 1345.55,-500.516 1350.25,-502.229 1347.09,-496.288 1354.95,-503.943 1354.95,-503.943"/>
</g>
<!-- 51&#45;&gt;50 -->
<g id="edge99" class="edge"><title>51&#45;&gt;50</title>
<path fill="none" stroke="black" d="M1045,-252.303C1045,-260.017 1045,-269.288 1045,-277.888"/>
<polygon fill="black" stroke="black" points="1045,-287.896 1040.5,-277.896 1045,-282.896 1045,-277.896 1045,-277.896 1045,-277.896 1045,-282.896 1049.5,-277.896 1045,-287.896 1045,-287.896"/>
</g>
<!-- 52&#45;&gt;30 -->
<g id="edge100" class="edge"><title>52&#45;&gt;30</title>
<path fill="none" stroke="black" d="M2501.53,-324.012C2545.54,-342.01 2617.1,-371.181 2679,-396 2705.65,-406.685 2735.34,-418.441 2759.98,-428.161"/>
<polygon fill="black" stroke="black" points="2769.51,-431.917 2758.55,-432.437 2764.86,-430.084 2760.2,-428.25 2760.2,-428.25 2760.2,-428.25 2764.86,-430.084 2761.86,-424.063 2769.51,-431.917 2769.51,-431.917"/>
</g>
<!-- 52&#45;&gt;58 -->
<g id="edge101" class="edge"><title>52&#45;&gt;58</title>
<path fill="none" stroke="black" d="M2409.44,-321.504C2372.17,-332.196 2321.17,-346.827 2280.9,-358.382"/>
<polygon fill="black" stroke="black" points="2271.16,-361.174 2279.54,-354.091 2275.97,-359.795 2280.78,-358.416 2280.78,-358.416 2280.78,-358.416 2275.97,-359.795 2282.02,-362.742 2271.16,-361.174 2271.16,-361.174"/>
</g>
<!-- 53&#45;&gt;52 -->
<g id="edge102" class="edge"><title>53&#45;&gt;52</title>
<path fill="none" stroke="black" d="M2189.12,-250.092C2192.12,-250.742 2195.09,-251.38 2198,-252 2266.87,-266.666 2346.13,-282.564 2399.28,-293.083"/>
<polygon fill="black" stroke="black" points="2409.22,-295.048 2398.54,-297.523 2404.31,-294.078 2399.41,-293.108 2399.41,-293.108 2399.41,-293.108 2404.31,-294.078 2400.28,-288.694 2409.22,-295.048 2409.22,-295.048"/>
</g>
<!-- 53&#45;&gt;58 -->
<g id="edge103" class="edge"><title>53&#45;&gt;58</title>
<path fill="none" stroke="black" d="M2133.34,-252.129C2149.64,-276.756 2179.83,-322.362 2198.87,-351.115"/>
<polygon fill="black" stroke="black" points="2204.62,-359.811 2195.35,-353.956 2201.86,-355.641 2199.1,-351.472 2199.1,-351.472 2199.1,-351.472 2201.86,-355.641 2202.85,-348.988 2204.62,-359.811 2204.62,-359.811"/>
</g>
<!-- 54&#45;&gt;52 -->
<g id="edge104" class="edge"><title>54&#45;&gt;52</title>
<path fill="none" stroke="black" d="M2471.29,-252.303C2469.64,-260.017 2467.65,-269.288 2465.81,-277.888"/>
<polygon fill="black" stroke="black" points="2463.67,-287.896 2461.36,-277.175 2464.71,-283.007 2465.76,-278.118 2465.76,-278.118 2465.76,-278.118 2464.71,-283.007 2470.16,-279.061 2463.67,-287.896 2463.67,-287.896"/>
</g>
<!-- 55&#45;&gt;52 -->
<g id="edge105" class="edge"><title>55&#45;&gt;52</title>
<path fill="none" stroke="black" d="M2582.37,-252.124C2560.22,-261.693 2532.44,-273.7 2508.94,-283.852"/>
<polygon fill="black" stroke="black" points="2499.5,-287.932 2506.9,-279.834 2504.09,-285.948 2508.68,-283.965 2508.68,-283.965 2508.68,-283.965 2504.09,-285.948 2510.47,-288.096 2499.5,-287.932 2499.5,-287.932"/>
</g>
<!-- 56&#45;&gt;52 -->
<g id="edge106" class="edge"><title>56&#45;&gt;52</title>
<path fill="none" stroke="black" d="M2705.87,-250.189C2650.8,-262.466 2573.97,-279.592 2520.92,-291.418"/>
<polygon fill="black" stroke="black" points="2510.98,-293.636 2519.76,-287.068 2515.86,-292.548 2520.74,-291.46 2520.74,-291.46 2520.74,-291.46 2515.86,-292.548 2521.72,-295.852 2510.98,-293.636 2510.98,-293.636"/>
</g>
<!-- 57&#45;&gt;52 -->
<g id="edge107" class="edge"><title>57&#45;&gt;52</title>
<path fill="none" stroke="black" d="M2325.54,-252.124C2350.2,-261.821 2381.22,-274.02 2407.25,-284.257"/>
<polygon fill="black" stroke="black" points="2416.6,-287.932 2405.64,-288.46 2411.94,-286.102 2407.29,-284.272 2407.29,-284.272 2407.29,-284.272 2411.94,-286.102 2408.94,-280.084 2416.6,-287.932 2416.6,-287.932"/>
</g>
<!-- 59 -->
<g id="node60" class="node"><title>59</title>
<polygon fill="none" stroke="black" points="5708,-180 5578,-180 5578,-144 5708,-144 5708,-180"/>
<text text-anchor="middle" x="5643" y="-158.3" font-family="Times,serif" font-size="14.00">PoliciesMultiPlayers</text>
</g>
<!-- 60 -->
<g id="node61" class="node"><title>60</title>
<polygon fill="none" stroke="black" points="5491.5,-252 5310.5,-252 5310.5,-216 5491.5,-216 5491.5,-252"/>
<text text-anchor="middle" x="5401" y="-230.3" font-family="Times,serif" font-size="14.00">PoliciesMultiPlayers.ALOHA</text>
</g>
<!-- 59&#45;&gt;60 -->
<g id="edge108" class="edge"><title>59&#45;&gt;60</title>
<path fill="none" stroke="black" d="M5584.11,-180.034C5549.71,-189.985 5506.12,-202.594 5470.1,-213.013"/>
<polygon fill="black" stroke="black" points="5460.15,-215.889 5468.51,-208.788 5464.96,-214.5 5469.76,-213.11 5469.76,-213.11 5469.76,-213.11 5464.96,-214.5 5471.01,-217.433 5460.15,-215.889 5460.15,-215.889"/>
</g>
<!-- 63 -->
<g id="node64" class="node"><title>63</title>
<polygon fill="none" stroke="black" points="6469.5,-252 6230.5,-252 6230.5,-216 6469.5,-216 6469.5,-252"/>
<text text-anchor="middle" x="6350" y="-230.3" font-family="Times,serif" font-size="14.00">PoliciesMultiPlayers.CentralizedCycling</text>
</g>
<!-- 59&#45;&gt;63 -->
<g id="edge109" class="edge"><title>59&#45;&gt;63</title>
<path fill="none" stroke="black" d="M5708.21,-168.098C5813.67,-176.533 6028.42,-194.507 6220.45,-215.849"/>
<polygon fill="black" stroke="black" points="6230.44,-216.965 6220.01,-220.327 6225.47,-216.41 6220.51,-215.855 6220.51,-215.855 6220.51,-215.855 6225.47,-216.41 6221.01,-211.383 6230.44,-216.965 6230.44,-216.965"/>
</g>
<!-- 64 -->
<g id="node65" class="node"><title>64</title>
<polygon fill="none" stroke="black" points="6714.5,-252 6487.5,-252 6487.5,-216 6714.5,-216 6714.5,-252"/>
<text text-anchor="middle" x="6601" y="-230.3" font-family="Times,serif" font-size="14.00">PoliciesMultiPlayers.CentralizedFixed</text>
</g>
<!-- 59&#45;&gt;64 -->
<g id="edge110" class="edge"><title>59&#45;&gt;64</title>
<path fill="none" stroke="black" d="M5708.18,-165.463C5847.5,-171.091 6184.82,-186.645 6477.44,-215.882"/>
<polygon fill="black" stroke="black" points="6487.39,-216.884 6476.99,-220.36 6482.41,-216.383 6477.44,-215.883 6477.44,-215.883 6477.44,-215.883 6482.41,-216.383 6477.89,-211.405 6487.39,-216.884 6487.39,-216.884"/>
</g>
<!-- 65 -->
<g id="node66" class="node"><title>65</title>
<polygon fill="none" stroke="black" points="5776.5,-252 5509.5,-252 5509.5,-216 5776.5,-216 5776.5,-252"/>
<text text-anchor="middle" x="5643" y="-230.3" font-family="Times,serif" font-size="14.00">PoliciesMultiPlayers.CentralizedMultiplePlay</text>
</g>
<!-- 59&#45;&gt;65 -->
<g id="edge111" class="edge"><title>59&#45;&gt;65</title>
<path fill="none" stroke="black" d="M5643,-180.303C5643,-188.017 5643,-197.288 5643,-205.888"/>
<polygon fill="black" stroke="black" points="5643,-215.896 5638.5,-205.896 5643,-210.896 5643,-205.896 5643,-205.896 5643,-205.896 5643,-210.896 5647.5,-205.896 5643,-215.896 5643,-215.896"/>
</g>
<!-- 68 -->
<g id="node69" class="node"><title>68</title>
<polygon fill="none" stroke="black" points="6923.5,-252 6732.5,-252 6732.5,-216 6923.5,-216 6923.5,-252"/>
<text text-anchor="middle" x="6828" y="-230.3" font-family="Times,serif" font-size="14.00">PoliciesMultiPlayers.OracleFair</text>
</g>
<!-- 59&#45;&gt;68 -->
<g id="edge112" class="edge"><title>59&#45;&gt;68</title>
<path fill="none" stroke="black" d="M5708.08,-163.63C5875.05,-165.797 6332.34,-175.197 6722.22,-215.878"/>
<polygon fill="black" stroke="black" points="6732.29,-216.937 6721.87,-220.366 6727.31,-216.414 6722.34,-215.89 6722.34,-215.89 6722.34,-215.89 6727.31,-216.414 6722.81,-211.415 6732.29,-216.937 6732.29,-216.937"/>
</g>
<!-- 69 -->
<g id="node70" class="node"><title>69</title>
<polygon fill="none" stroke="black" points="6213,-252 6001,-252 6001,-216 6213,-216 6213,-252"/>
<text text-anchor="middle" x="6107" y="-230.3" font-family="Times,serif" font-size="14.00">PoliciesMultiPlayers.OracleNotFair</text>
</g>
<!-- 59&#45;&gt;69 -->
<g id="edge113" class="edge"><title>59&#45;&gt;69</title>
<path fill="none" stroke="black" d="M5708.01,-172.807C5781.21,-183.85 5901.6,-202.012 5991.02,-215.503"/>
<polygon fill="black" stroke="black" points="6000.94,-216.999 5990.38,-219.957 5996,-216.254 5991.05,-215.508 5991.05,-215.508 5991.05,-215.508 5996,-216.254 5991.72,-211.058 6000.94,-216.999 6000.94,-216.999"/>
</g>
<!-- 70 -->
<g id="node71" class="node"><title>70</title>
<polygon fill="none" stroke="black" points="5983,-252 5795,-252 5795,-216 5983,-216 5983,-252"/>
<text text-anchor="middle" x="5889" y="-230.3" font-family="Times,serif" font-size="14.00">PoliciesMultiPlayers.Scenario1</text>
</g>
<!-- 59&#45;&gt;70 -->
<g id="edge114" class="edge"><title>59&#45;&gt;70</title>
<path fill="none" stroke="black" d="M5702.86,-180.034C5737.98,-190.028 5782.52,-202.702 5819.23,-213.146"/>
<polygon fill="black" stroke="black" points="5828.87,-215.889 5818.02,-217.48 5824.06,-214.521 5819.25,-213.152 5819.25,-213.152 5819.25,-213.152 5824.06,-214.521 5820.48,-208.824 5828.87,-215.889 5828.87,-215.889"/>
</g>
<!-- 71 -->
<g id="node72" class="node"><title>71</title>
<polygon fill="none" stroke="black" points="4866.5,-252 4695.5,-252 4695.5,-216 4866.5,-216 4866.5,-252"/>
<text text-anchor="middle" x="4781" y="-230.3" font-family="Times,serif" font-size="14.00">PoliciesMultiPlayers.Selfish</text>
</g>
<!-- 59&#45;&gt;71 -->
<g id="edge115" class="edge"><title>59&#45;&gt;71</title>
<path fill="none" stroke="black" d="M5577.87,-165.125C5447,-169.911 5142.67,-183.642 4876.87,-215.979"/>
<polygon fill="black" stroke="black" points="4866.64,-217.236 4876.02,-211.55 4871.6,-216.626 4876.57,-216.017 4876.57,-216.017 4876.57,-216.017 4871.6,-216.626 4877.11,-220.483 4866.64,-217.236 4866.64,-217.236"/>
</g>
<!-- 73 -->
<g id="node74" class="node"><title>73</title>
<polygon fill="none" stroke="black" points="5065,-252 4885,-252 4885,-216 5065,-216 5065,-252"/>
<text text-anchor="middle" x="4975" y="-230.3" font-family="Times,serif" font-size="14.00">PoliciesMultiPlayers.rhoRand</text>
</g>
<!-- 59&#45;&gt;73 -->
<g id="edge116" class="edge"><title>59&#45;&gt;73</title>
<path fill="none" stroke="black" d="M5577.65,-167.489C5473.67,-174.987 5263.95,-191.555 5075.28,-216.029"/>
<polygon fill="black" stroke="black" points="5065.17,-217.35 5074.5,-211.592 5070.13,-216.702 5075.08,-216.054 5075.08,-216.054 5075.08,-216.054 5070.13,-216.702 5075.67,-220.516 5065.17,-217.35 5065.17,-217.35"/>
</g>
<!-- 74 -->
<g id="node75" class="node"><title>74</title>
<polygon fill="none" stroke="black" points="5292.5,-252 5083.5,-252 5083.5,-216 5292.5,-216 5292.5,-252"/>
<text text-anchor="middle" x="5188" y="-230.3" font-family="Times,serif" font-size="14.00">PoliciesMultiPlayers.rhoRandRand</text>
</g>
<!-- 59&#45;&gt;74 -->
<g id="edge117" class="edge"><title>59&#45;&gt;74</title>
<path fill="none" stroke="black" d="M5577.81,-173.029C5506.12,-184.059 5389.55,-201.992 5302.54,-215.379"/>
<polygon fill="black" stroke="black" points="5292.61,-216.906 5301.81,-210.937 5297.56,-216.145 5302.5,-215.385 5302.5,-215.385 5302.5,-215.385 5297.56,-216.145 5303.18,-219.833 5292.61,-216.906 5292.61,-216.906"/>
</g>
<!-- 62 -->
<g id="node63" class="node"><title>62</title>
<polygon fill="none" stroke="black" points="5755.5,-324 5540.5,-324 5540.5,-288 5755.5,-288 5755.5,-324"/>
<text text-anchor="middle" x="5648" y="-302.3" font-family="Times,serif" font-size="14.00">PoliciesMultiPlayers.BaseMPPolicy</text>
</g>
<!-- 60&#45;&gt;62 -->
<g id="edge118" class="edge"><title>60&#45;&gt;62</title>
<path fill="none" stroke="black" d="M5461.11,-252.034C5496.37,-262.028 5541.09,-274.702 5577.94,-285.146"/>
<polygon fill="black" stroke="black" points="5587.62,-287.889 5576.78,-289.492 5582.81,-286.526 5578,-285.162 5578,-285.162 5578,-285.162 5582.81,-286.526 5579.23,-280.833 5587.62,-287.889 5587.62,-287.889"/>
</g>
<!-- 66 -->
<g id="node67" class="node"><title>66</title>
<polygon fill="none" stroke="black" points="5981.5,-324 5778.5,-324 5778.5,-288 5981.5,-288 5981.5,-324"/>
<text text-anchor="middle" x="5880" y="-302.3" font-family="Times,serif" font-size="14.00">PoliciesMultiPlayers.ChildPointer</text>
</g>
<!-- 60&#45;&gt;66 -->
<g id="edge119" class="edge"><title>60&#45;&gt;66</title>
<path fill="none" stroke="black" d="M5491.73,-250.558C5494.86,-251.051 5497.95,-251.533 5501,-252 5618.05,-269.926 5647.76,-271.341 5765,-288 5766.1,-288.156 5767.2,-288.313 5768.31,-288.472"/>
<polygon fill="black" stroke="black" points="5778.42,-289.921 5767.88,-292.956 5773.47,-289.211 5768.52,-288.501 5768.52,-288.501 5768.52,-288.501 5773.47,-289.211 5769.16,-284.047 5778.42,-289.921 5778.42,-289.921"/>
</g>
<!-- 61 -->
<g id="node62" class="node"><title>61</title>
<polygon fill="none" stroke="black" points="6603.5,-324 6346.5,-324 6346.5,-288 6603.5,-288 6603.5,-324"/>
<text text-anchor="middle" x="6475" y="-302.3" font-family="Times,serif" font-size="14.00">PoliciesMultiPlayers.BaseCentralizedPolicy</text>
</g>
<!-- 63&#45;&gt;61 -->
<g id="edge120" class="edge"><title>63&#45;&gt;61</title>
<path fill="none" stroke="black" d="M6380.58,-252.124C6397.07,-261.361 6417.62,-272.869 6435.34,-282.788"/>
<polygon fill="black" stroke="black" points="6444.3,-287.81 6433.38,-286.85 6439.94,-285.367 6435.58,-282.924 6435.58,-282.924 6435.58,-282.924 6439.94,-285.367 6437.78,-278.998 6444.3,-287.81 6444.3,-287.81"/>
</g>
<!-- 63&#45;&gt;62 -->
<g id="edge121" class="edge"><title>63&#45;&gt;62</title>
<path fill="none" stroke="black" d="M6230.45,-251.08C6227.61,-251.397 6224.79,-251.704 6222,-252 6021.6,-273.273 5970.33,-266.084 5770,-288 5768.68,-288.144 5767.36,-288.291 5766.03,-288.44"/>
<polygon fill="black" stroke="black" points="5755.73,-289.638 5765.14,-284.013 5760.7,-289.06 5765.66,-288.483 5765.66,-288.483 5765.66,-288.483 5760.7,-289.06 5766.18,-292.953 5755.73,-289.638 5755.73,-289.638"/>
</g>
<!-- 63&#45;&gt;66 -->
<g id="edge122" class="edge"><title>63&#45;&gt;66</title>
<path fill="none" stroke="black" d="M6235.63,-252.034C6161.53,-263.069 6065.49,-277.373 5991.9,-288.334"/>
<polygon fill="black" stroke="black" points="5981.67,-289.858 5990.9,-283.934 5986.61,-289.121 5991.56,-288.385 5991.56,-288.385 5991.56,-288.385 5986.61,-289.121 5992.22,-292.836 5981.67,-289.858 5981.67,-289.858"/>
</g>
<!-- 64&#45;&gt;61 -->
<g id="edge123" class="edge"><title>64&#45;&gt;61</title>
<path fill="none" stroke="black" d="M6570.18,-252.124C6553.55,-261.361 6532.84,-272.869 6514.98,-282.788"/>
<polygon fill="black" stroke="black" points="6505.94,-287.81 6512.5,-279.02 6510.31,-285.382 6514.68,-282.954 6514.68,-282.954 6514.68,-282.954 6510.31,-285.382 6516.87,-286.887 6505.94,-287.81 6505.94,-287.81"/>
</g>
<!-- 64&#45;&gt;62 -->
<g id="edge124" class="edge"><title>64&#45;&gt;62</title>
<path fill="none" stroke="black" d="M6487.39,-251.163C6484.57,-251.458 6481.77,-251.737 6479,-252 6164.89,-281.801 6084.11,-258.199 5770,-288 5768.68,-288.125 5767.36,-288.254 5766.03,-288.386"/>
<polygon fill="black" stroke="black" points="5755.71,-289.469 5765.19,-283.95 5760.68,-288.947 5765.66,-288.425 5765.66,-288.425 5765.66,-288.425 5760.68,-288.947 5766.13,-292.9 5755.71,-289.469 5755.71,-289.469"/>
</g>
<!-- 64&#45;&gt;66 -->
<g id="edge125" class="edge"><title>64&#45;&gt;66</title>
<path fill="none" stroke="black" d="M6487.38,-251.023C6484.56,-251.359 6481.76,-251.686 6479,-252 6309.37,-271.31 6112.04,-287.577 5991.61,-296.808"/>
<polygon fill="black" stroke="black" points="5981.64,-297.57 5991.27,-292.322 5986.62,-297.189 5991.61,-296.808 5991.61,-296.808 5991.61,-296.808 5986.62,-297.189 5991.95,-301.295 5981.64,-297.57 5981.64,-297.57"/>
</g>
<!-- 65&#45;&gt;62 -->
<g id="edge126" class="edge"><title>65&#45;&gt;62</title>
<path fill="none" stroke="black" d="M5644.24,-252.303C5644.79,-260.017 5645.45,-269.288 5646.06,-277.888"/>
<polygon fill="black" stroke="black" points="5646.78,-287.896 5641.58,-278.242 5646.42,-282.908 5646.07,-277.921 5646.07,-277.921 5646.07,-277.921 5646.42,-282.908 5650.55,-277.6 5646.78,-287.896 5646.78,-287.896"/>
</g>
<!-- 65&#45;&gt;66 -->
<g id="edge127" class="edge"><title>65&#45;&gt;66</title>
<path fill="none" stroke="black" d="M5700.67,-252.034C5734.36,-261.985 5777.05,-274.594 5812.33,-285.013"/>
<polygon fill="black" stroke="black" points="5822.07,-287.889 5811.2,-289.372 5817.27,-286.473 5812.48,-285.057 5812.48,-285.057 5812.48,-285.057 5817.27,-286.473 5813.75,-280.741 5822.07,-287.889 5822.07,-287.889"/>
</g>
<!-- 67 -->
<g id="node68" class="node"><title>67</title>
<polygon fill="none" stroke="black" points="4198.5,-36 4033.5,-36 4033.5,-0 4198.5,-0 4198.5,-36"/>
<text text-anchor="middle" x="4116" y="-14.3" font-family="Times,serif" font-size="14.00">PoliciesMultiPlayers.DMC</text>
</g>
<!-- 68&#45;&gt;61 -->
<g id="edge128" class="edge"><title>68&#45;&gt;61</title>
<path fill="none" stroke="black" d="M6742.1,-252.034C6690.32,-262.302 6624.27,-275.399 6570.81,-286.001"/>
<polygon fill="black" stroke="black" points="6560.98,-287.95 6569.91,-281.591 6565.89,-286.977 6570.79,-286.005 6570.79,-286.005 6570.79,-286.005 6565.89,-286.977 6571.67,-290.419 6560.98,-287.95 6560.98,-287.95"/>
</g>
<!-- 68&#45;&gt;62 -->
<g id="edge129" class="edge"><title>68&#45;&gt;62</title>
<path fill="none" stroke="black" d="M6732.29,-251.104C6729.5,-251.426 6726.73,-251.726 6724,-252 6301.81,-294.306 6192.66,-250.674 5770,-288 5768.68,-288.116 5767.36,-288.237 5766.02,-288.362"/>
<polygon fill="black" stroke="black" points="5755.7,-289.392 5765.21,-283.921 5760.68,-288.896 5765.66,-288.399 5765.66,-288.399 5765.66,-288.399 5760.68,-288.896 5766.1,-292.876 5755.7,-289.392 5755.7,-289.392"/>
</g>
<!-- 68&#45;&gt;66 -->
<g id="edge130" class="edge"><title>68&#45;&gt;66</title>
<path fill="none" stroke="black" d="M6732.28,-251.014C6729.49,-251.362 6726.73,-251.692 6724,-252 6462.76,-281.48 6154.03,-295.65 5992.07,-301.505"/>
<polygon fill="black" stroke="black" points="5981.62,-301.878 5991.45,-297.024 5986.62,-301.7 5991.61,-301.521 5991.61,-301.521 5991.61,-301.521 5986.62,-301.7 5991.77,-306.018 5981.62,-301.878 5981.62,-301.878"/>
</g>
<!-- 69&#45;&gt;61 -->
<g id="edge131" class="edge"><title>69&#45;&gt;61</title>
<path fill="none" stroke="black" d="M6196.55,-252.034C6250.64,-262.323 6319.67,-275.453 6375.46,-286.067"/>
<polygon fill="black" stroke="black" points="6385.37,-287.95 6374.7,-290.502 6380.45,-287.016 6375.54,-286.081 6375.54,-286.081 6375.54,-286.081 6380.45,-287.016 6376.38,-281.66 6385.37,-287.95 6385.37,-287.95"/>
</g>
<!-- 69&#45;&gt;62 -->
<g id="edge132" class="edge"><title>69&#45;&gt;62</title>
<path fill="none" stroke="black" d="M6000.83,-251.191C5930.53,-261.913 5838.25,-275.985 5765.7,-287.049"/>
<polygon fill="black" stroke="black" points="5755.6,-288.59 5764.81,-282.634 5760.55,-287.836 5765.49,-287.082 5765.49,-287.082 5765.49,-287.082 5760.55,-287.836 5766.17,-291.531 5755.6,-288.59 5755.6,-288.59"/>
</g>
<!-- 69&#45;&gt;66 -->
<g id="edge133" class="edge"><title>69&#45;&gt;66</title>
<path fill="none" stroke="black" d="M6051.76,-252.034C6019.63,-261.943 5978.95,-274.486 5945.25,-284.879"/>
<polygon fill="black" stroke="black" points="5935.49,-287.889 5943.72,-280.642 5940.27,-286.416 5945.04,-284.942 5945.04,-284.942 5945.04,-284.942 5940.27,-286.416 5946.37,-289.243 5935.49,-287.889 5935.49,-287.889"/>
</g>
<!-- 70&#45;&gt;62 -->
<g id="edge134" class="edge"><title>70&#45;&gt;62</title>
<path fill="none" stroke="black" d="M5830.35,-252.034C5796.09,-261.985 5752.68,-274.594 5716.81,-285.013"/>
<polygon fill="black" stroke="black" points="5706.91,-287.889 5715.26,-280.778 5711.71,-286.495 5716.51,-285.1 5716.51,-285.1 5716.51,-285.1 5711.71,-286.495 5717.77,-289.421 5706.91,-287.889 5706.91,-287.889"/>
</g>
<!-- 70&#45;&gt;66 -->
<g id="edge135" class="edge"><title>70&#45;&gt;66</title>
<path fill="none" stroke="black" d="M5886.78,-252.303C5885.78,-260.017 5884.59,-269.288 5883.49,-277.888"/>
<polygon fill="black" stroke="black" points="5882.2,-287.896 5879.01,-277.403 5882.84,-282.936 5883.47,-277.977 5883.47,-277.977 5883.47,-277.977 5882.84,-282.936 5887.94,-278.551 5882.2,-287.896 5882.2,-287.896"/>
</g>
<!-- 71&#45;&gt;62 -->
<g id="edge136" class="edge"><title>71&#45;&gt;62</title>
<path fill="none" stroke="black" d="M4866.64,-250.766C4869.8,-251.207 4872.92,-251.62 4876,-252 5106.7,-280.475 5378.2,-294.67 5529.97,-300.88"/>
<polygon fill="black" stroke="black" points="5540.24,-301.295 5530.07,-305.387 5535.25,-301.093 5530.25,-300.891 5530.25,-300.891 5530.25,-300.891 5535.25,-301.093 5530.43,-296.395 5540.24,-301.295 5540.24,-301.295"/>
</g>
<!-- 71&#45;&gt;66 -->
<g id="edge137" class="edge"><title>71&#45;&gt;66</title>
<path fill="none" stroke="black" d="M4866.63,-250.878C4869.79,-251.287 4872.92,-251.664 4876,-252 5269.1,-294.928 5371.3,-251.034 5765,-288 5766.11,-288.104 5767.22,-288.211 5768.33,-288.321"/>
<polygon fill="black" stroke="black" points="5778.48,-289.395 5768.06,-292.818 5773.51,-288.869 5768.54,-288.343 5768.54,-288.343 5768.54,-288.343 5773.51,-288.869 5769.01,-283.868 5778.48,-289.395 5778.48,-289.395"/>
</g>
<!-- 72 -->
<g id="node73" class="node"><title>72</title>
<polygon fill="none" stroke="black" points="4383.5,-36 4216.5,-36 4216.5,-0 4383.5,-0 4383.5,-36"/>
<text text-anchor="middle" x="4300" y="-14.3" font-family="Times,serif" font-size="14.00">PoliciesMultiPlayers.TDFS</text>
</g>
<!-- 73&#45;&gt;62 -->
<g id="edge138" class="edge"><title>73&#45;&gt;62</title>
<path fill="none" stroke="black" d="M5065.17,-250.653C5068.48,-251.126 5071.77,-251.577 5075,-252 5232.01,-272.577 5414.26,-287.991 5530.3,-296.747"/>
<polygon fill="black" stroke="black" points="5540.27,-297.496 5529.96,-301.235 5535.29,-297.122 5530.3,-296.747 5530.3,-296.747 5530.3,-296.747 5535.29,-297.122 5530.64,-292.26 5540.27,-297.496 5540.27,-297.496"/>
</g>
<!-- 73&#45;&gt;66 -->
<g id="edge139" class="edge"><title>73&#45;&gt;66</title>
<path fill="none" stroke="black" d="M5065.15,-250.821C5068.47,-251.246 5071.76,-251.642 5075,-252 5380.22,-285.79 5459.43,-257.512 5765,-288 5766.1,-288.11 5767.21,-288.224 5768.33,-288.34"/>
<polygon fill="black" stroke="black" points="5778.48,-289.46 5768.04,-292.835 5773.51,-288.911 5768.54,-288.363 5768.54,-288.363 5768.54,-288.363 5773.51,-288.911 5769.03,-283.89 5778.48,-289.46 5778.48,-289.46"/>
</g>
<!-- 74&#45;&gt;62 -->
<g id="edge140" class="edge"><title>74&#45;&gt;62</title>
<path fill="none" stroke="black" d="M5292.67,-250.928C5363.31,-261.678 5456.67,-275.885 5529.96,-287.038"/>
<polygon fill="black" stroke="black" points="5540.17,-288.591 5529.61,-291.535 5535.23,-287.839 5530.28,-287.086 5530.28,-287.086 5530.28,-287.086 5535.23,-287.839 5530.96,-282.638 5540.17,-288.591 5540.17,-288.591"/>
</g>
<!-- 74&#45;&gt;66 -->
<g id="edge141" class="edge"><title>74&#45;&gt;66</title>
<path fill="none" stroke="black" d="M5292.64,-250.896C5295.79,-251.282 5298.92,-251.651 5302,-252 5507.09,-275.235 5559.9,-264.895 5765,-288 5766.1,-288.124 5767.21,-288.251 5768.33,-288.38"/>
<polygon fill="black" stroke="black" points="5778.46,-289.601 5767.99,-292.873 5773.5,-289.003 5768.53,-288.405 5768.53,-288.405 5768.53,-288.405 5773.5,-289.003 5769.07,-283.937 5778.46,-289.601 5778.46,-289.601"/>
</g>
<!-- 75 -->
<g id="node76" class="node"><title>75</title>
<polygon fill="none" stroke="black" points="4456,-36 4402,-36 4402,-0 4456,-0 4456,-36"/>
<text text-anchor="middle" x="4429" y="-14.3" font-family="Times,serif" font-size="14.00">conf</text>
</g>
<!-- 76 -->
<g id="node77" class="node"><title>76</title>
<polygon fill="none" stroke="black" points="326.5,-108 237.5,-108 237.5,-72 326.5,-72 326.5,-108"/>
<text text-anchor="middle" x="282" y="-86.3" font-family="Times,serif" font-size="14.00">configuration</text>
</g>
<!-- 76&#45;&gt;0 -->
<g id="edge142" class="edge"><title>76&#45;&gt;0</title>
<path fill="none" stroke="black" d="M311.355,-108.124C327.9,-117.775 348.693,-129.904 366.19,-140.111"/>
<polygon fill="black" stroke="black" points="375,-145.25 364.094,-144.098 370.681,-142.73 366.362,-140.211 366.362,-140.211 366.362,-140.211 370.681,-142.73 368.629,-136.324 375,-145.25 375,-145.25"/>
</g>
<!-- 76&#45;&gt;2 -->
<g id="edge143" class="edge"><title>76&#45;&gt;2</title>
<path fill="none" stroke="black" d="M326.809,-103.916C365.81,-115.575 418.988,-132.6 438,-144 466.79,-161.264 494.153,-188.456 512.053,-208.243"/>
<polygon fill="black" stroke="black" points="518.891,-215.955 508.89,-211.459 515.574,-212.214 512.256,-208.473 512.256,-208.473 512.256,-208.473 515.574,-212.214 515.623,-205.488 518.891,-215.955 518.891,-215.955"/>
</g>
<!-- 76&#45;&gt;3 -->
<g id="edge144" class="edge"><title>76&#45;&gt;3</title>
<path fill="none" stroke="black" d="M237.392,-96.4435C201.066,-102.769 150.073,-116.155 114,-144 93.0121,-160.201 77.8142,-186.665 68.5917,-206.532"/>
<polygon fill="black" stroke="black" points="64.5451,-215.682 64.4746,-204.716 66.5676,-211.109 68.59,-206.536 68.59,-206.536 68.59,-206.536 66.5676,-211.109 72.7055,-208.356 64.5451,-215.682 64.5451,-215.682"/>
</g>
<!-- 76&#45;&gt;4 -->
<g id="edge145" class="edge"><title>76&#45;&gt;4</title>
<path fill="none" stroke="black" d="M297.802,-108.129C320.817,-133.076 363.691,-179.55 390.146,-208.227"/>
<polygon fill="black" stroke="black" points="397.142,-215.811 387.054,-211.512 393.752,-212.136 390.362,-208.461 390.362,-208.461 390.362,-208.461 393.752,-212.136 393.669,-205.409 397.142,-215.811 397.142,-215.811"/>
</g>
<!-- 76&#45;&gt;5 -->
<g id="edge146" class="edge"><title>76&#45;&gt;5</title>
<path fill="none" stroke="black" d="M269.817,-108.129C252.224,-132.863 219.581,-178.758 199.146,-207.488"/>
<polygon fill="black" stroke="black" points="193.226,-215.811 195.355,-205.054 196.124,-211.736 199.022,-207.662 199.022,-207.662 199.022,-207.662 196.124,-211.736 202.689,-210.27 193.226,-215.811 193.226,-215.811"/>
</g>
<!-- 76&#45;&gt;17 -->
<g id="edge147" class="edge"><title>76&#45;&gt;17</title>
<path fill="none" stroke="black" d="M326.835,-104.154C333.543,-105.705 340.417,-107.066 347,-108 753.173,-165.616 2095.3,-162.337 2344.13,-161.211"/>
<polygon fill="black" stroke="black" points="2354.49,-161.162 2344.51,-165.709 2349.49,-161.185 2344.49,-161.209 2344.49,-161.209 2344.49,-161.209 2349.49,-161.185 2344.47,-156.709 2354.49,-161.162 2354.49,-161.162"/>
</g>
<!-- 77 -->
<g id="node78" class="node"><title>77</title>
<polygon fill="none" stroke="black" points="634,-108 356,-108 356,-72 634,-72 634,-108"/>
<text text-anchor="middle" x="495" y="-86.3" font-family="Times,serif" font-size="14.00">configuration_comparing_KLUCB_aggregation</text>
</g>
<!-- 77&#45;&gt;0 -->
<g id="edge148" class="edge"><title>77&#45;&gt;0</title>
<path fill="none" stroke="black" d="M472.011,-108.303C460.186,-117.204 445.608,-128.177 432.821,-137.801"/>
<polygon fill="black" stroke="black" points="424.724,-143.896 430.008,-134.287 428.719,-140.889 432.714,-137.882 432.714,-137.882 432.714,-137.882 428.719,-140.889 435.42,-141.477 424.724,-143.896 424.724,-143.896"/>
</g>
<!-- 77&#45;&gt;2 -->
<g id="edge149" class="edge"><title>77&#45;&gt;2</title>
<path fill="none" stroke="black" d="M499.584,-108.129C506.089,-132.436 518.063,-177.181 525.771,-205.987"/>
<polygon fill="black" stroke="black" points="528.4,-215.811 521.468,-207.314 527.107,-210.981 525.815,-206.151 525.815,-206.151 525.815,-206.151 527.107,-210.981 530.162,-204.987 528.4,-215.811 528.4,-215.811"/>
</g>
<!-- 77&#45;&gt;3 -->
<g id="edge150" class="edge"><title>77&#45;&gt;3</title>
<path fill="none" stroke="black" d="M360.963,-108.031C273.805,-119.761 172.941,-134.83 154,-144 151.861,-145.035 111.531,-182.716 83.8312,-208.711"/>
<polygon fill="black" stroke="black" points="76.3958,-215.693 80.6054,-205.567 80.0408,-212.27 83.6857,-208.848 83.6857,-208.848 83.6857,-208.848 80.0408,-212.27 86.7661,-212.128 76.3958,-215.693 76.3958,-215.693"/>
</g>
<!-- 77&#45;&gt;4 -->
<g id="edge151" class="edge"><title>77&#45;&gt;4</title>
<path fill="none" stroke="black" d="M485.109,-108.129C470.887,-132.756 444.551,-178.362 427.947,-207.115"/>
<polygon fill="black" stroke="black" points="422.926,-215.811 424.03,-204.901 425.427,-211.481 427.927,-207.151 427.927,-207.151 427.927,-207.151 425.427,-211.481 431.824,-209.401 422.926,-215.811 422.926,-215.811"/>
</g>
<!-- 77&#45;&gt;5 -->
<g id="edge152" class="edge"><title>77&#45;&gt;5</title>
<path fill="none" stroke="black" d="M432.285,-108.105C401.748,-117.287 364.842,-129.668 333,-144 290.489,-163.135 244.705,-191.042 214.622,-210.488"/>
<polygon fill="black" stroke="black" points="206.191,-215.982 212.112,-206.752 210.38,-213.252 214.569,-210.523 214.569,-210.523 214.569,-210.523 210.38,-213.252 217.026,-214.293 206.191,-215.982 206.191,-215.982"/>
</g>
<!-- 77&#45;&gt;17 -->
<g id="edge153" class="edge"><title>77&#45;&gt;17</title>
<path fill="none" stroke="black" d="M634.286,-96.1615C1025.7,-110.666 2121.46,-151.271 2344.19,-159.525"/>
<polygon fill="black" stroke="black" points="2354.43,-159.904 2344.27,-164.031 2349.43,-159.719 2344.43,-159.534 2344.43,-159.534 2344.43,-159.534 2349.43,-159.719 2344.6,-155.037 2354.43,-159.904 2354.43,-159.904"/>
</g>
<!-- 78 -->
<g id="node79" class="node"><title>78</title>
<polygon fill="none" stroke="black" points="2222,-108 2058,-108 2058,-72 2222,-72 2222,-108"/>
<text text-anchor="middle" x="2140" y="-86.3" font-family="Times,serif" font-size="14.00">configuration_multiplayers</text>
</g>
<!-- 78&#45;&gt;0 -->
<g id="edge154" class="edge"><title>78&#45;&gt;0</title>
<path fill="none" stroke="black" d="M2057.92,-94.3057C1747.92,-106.791 654.984,-150.811 439.174,-159.503"/>
<polygon fill="black" stroke="black" points="429.002,-159.912 438.812,-155.014 433.998,-159.711 438.994,-159.51 438.994,-159.51 438.994,-159.51 433.998,-159.711 439.175,-164.006 429.002,-159.912 429.002,-159.912"/>
</g>
<!-- 78&#45;&gt;2 -->
<g id="edge155" class="edge"><title>78&#45;&gt;2</title>
<path fill="none" stroke="black" d="M2057.92,-97.4586C1743.89,-122.193 634.357,-209.821 598,-216 596.739,-216.214 595.466,-216.442 594.186,-216.68"/>
<polygon fill="black" stroke="black" points="584.267,-218.706 593.164,-212.296 589.166,-217.706 594.064,-216.705 594.064,-216.705 594.064,-216.705 589.166,-217.706 594.965,-221.114 584.267,-218.706 584.267,-218.706"/>
</g>
<!-- 78&#45;&gt;3 -->
<g id="edge156" class="edge"><title>78&#45;&gt;3</title>
<path fill="none" stroke="black" d="M2057.79,-91.8743C1724.29,-95.626 481.954,-111.661 309,-144 234.923,-157.851 153.424,-190.143 103.983,-211.779"/>
<polygon fill="black" stroke="black" points="94.8344,-215.822 102.162,-207.664 99.4078,-213.801 103.981,-211.78 103.981,-211.78 103.981,-211.78 99.4078,-213.801 105.8,-215.896 94.8344,-215.822 94.8344,-215.822"/>
</g>
<!-- 78&#45;&gt;4 -->
<g id="edge157" class="edge"><title>78&#45;&gt;4</title>
<path fill="none" stroke="black" d="M2057.81,-92.618C1873.19,-96.7551 1411.66,-109.903 1027,-144 782.937,-165.634 717.916,-166.016 473.503,-216.063"/>
<polygon fill="black" stroke="black" points="463.61,-218.096 472.5,-211.675 468.508,-217.089 473.405,-216.083 473.405,-216.083 473.405,-216.083 468.508,-217.089 474.311,-220.491 463.61,-218.096 463.61,-218.096"/>
</g>
<!-- 78&#45;&gt;5 -->
<g id="edge158" class="edge"><title>78&#45;&gt;5</title>
<path fill="none" stroke="black" d="M2057.84,-90.7578C1730.32,-90.159 527.816,-91.583 366,-144 338.91,-152.775 338.135,-166.618 313,-180 288.956,-192.801 261.126,-204.41 237.237,-213.478"/>
<polygon fill="black" stroke="black" points="227.607,-217.078 235.398,-209.361 232.29,-215.327 236.974,-213.577 236.974,-213.577 236.974,-213.577 232.29,-215.327 238.549,-217.792 227.607,-217.078 227.607,-217.078"/>
</g>
<!-- 78&#45;&gt;9 -->
<g id="edge159" class="edge"><title>78&#45;&gt;9</title>
<path fill="none" stroke="black" d="M2222.06,-93.6099C2334.91,-97.1494 2544.33,-103.541 2723,-108 2819.32,-110.404 4365.31,-114.391 4457,-144 4497.48,-157.071 4536.62,-187.366 4560.97,-208.976"/>
<polygon fill="black" stroke="black" points="4568.64,-215.934 4558.21,-212.547 4564.94,-212.574 4561.23,-209.215 4561.23,-209.215 4561.23,-209.215 4564.94,-212.574 4564.26,-205.882 4568.64,-215.934 4568.64,-215.934"/>
</g>
<!-- 78&#45;&gt;12 -->
<g id="edge160" class="edge"><title>78&#45;&gt;12</title>
<path fill="none" stroke="black" d="M2222.08,-93.4015C2564.38,-103.43 3860.85,-141.554 3871,-144 3907.34,-152.757 3911.79,-167.464 3947,-180 3953.99,-182.489 4030.76,-201.256 4090.59,-215.759"/>
<polygon fill="black" stroke="black" points="4100.41,-218.138 4089.64,-220.157 4095.56,-216.961 4090.7,-215.784 4090.7,-215.784 4090.7,-215.784 4095.56,-216.961 4091.76,-211.41 4100.41,-218.138 4100.41,-218.138"/>
</g>
<!-- 78&#45;&gt;17 -->
<g id="edge161" class="edge"><title>78&#45;&gt;17</title>
<path fill="none" stroke="black" d="M2199.38,-108.034C2244.54,-120.99 2305.4,-138.451 2344.68,-149.719"/>
<polygon fill="black" stroke="black" points="2354.42,-152.513 2343.56,-154.081 2349.61,-151.134 2344.81,-149.756 2344.81,-149.756 2344.81,-149.756 2349.61,-151.134 2346.05,-145.43 2354.42,-152.513 2354.42,-152.513"/>
</g>
<!-- 78&#45;&gt;59 -->
<g id="edge162" class="edge"><title>78&#45;&gt;59</title>
<path fill="none" stroke="black" d="M2222.06,-93.6774C2334.9,-97.2942 2544.33,-103.774 2723,-108 3855.25,-134.783 5234.74,-155.178 5567.97,-159.942"/>
<polygon fill="black" stroke="black" points="5577.99,-160.085 5567.93,-164.442 5572.99,-160.013 5567.99,-159.942 5567.99,-159.942 5567.99,-159.942 5572.99,-160.013 5568.06,-155.443 5577.99,-160.085 5577.99,-160.085"/>
</g>
<!-- 79 -->
<g id="node80" class="node"><title>79</title>
<polygon fill="none" stroke="black" points="3865,-36 3811,-36 3811,-0 3865,-0 3865,-36"/>
<text text-anchor="middle" x="3838" y="-14.3" font-family="Times,serif" font-size="14.00">main</text>
</g>
<!-- 79&#45;&gt;8 -->
<g id="edge163" class="edge"><title>79&#45;&gt;8</title>
<path fill="none" stroke="black" d="M3865.22,-29.0293C3893.55,-39.465 3938.65,-56.0805 3974.2,-69.1785"/>
<polygon fill="black" stroke="black" points="3983.95,-72.7715 3973.01,-73.537 3979.26,-71.043 3974.57,-69.3144 3974.57,-69.3144 3974.57,-69.3144 3979.26,-71.043 3976.12,-65.0919 3983.95,-72.7715 3983.95,-72.7715"/>
</g>
<!-- 79&#45;&gt;10 -->
<g id="edge164" class="edge"><title>79&#45;&gt;10</title>
<path fill="none" stroke="black" d="M3860.92,-36.1285C3894.87,-61.5025 3958.62,-109.146 3996.8,-137.682"/>
<polygon fill="black" stroke="black" points="4005,-143.811 3994.3,-141.429 4001,-140.817 3996.99,-137.824 3996.99,-137.824 3996.99,-137.824 4001,-140.817 3999.68,-134.22 4005,-143.811 4005,-143.811"/>
</g>
<!-- 79&#45;&gt;15 -->
<g id="edge165" class="edge"><title>79&#45;&gt;15</title>
<path fill="none" stroke="black" d="M3833.42,-36.1285C3826.91,-60.4364 3814.94,-105.181 3807.23,-133.987"/>
<polygon fill="black" stroke="black" points="3804.6,-143.811 3802.84,-132.987 3805.89,-138.981 3807.19,-134.151 3807.19,-134.151 3807.19,-134.151 3805.89,-138.981 3811.53,-135.314 3804.6,-143.811 3804.6,-143.811"/>
</g>
<!-- 79&#45;&gt;77 -->
<g id="edge166" class="edge"><title>79&#45;&gt;77</title>
<path fill="none" stroke="black" d="M3810.6,-19.5738C3534.61,-25.3527 1254.07,-73.1056 644.39,-85.8719"/>
<polygon fill="black" stroke="black" points="634.222,-86.0848 644.126,-81.3763 639.221,-85.9801 644.22,-85.8753 644.22,-85.8753 644.22,-85.8753 639.221,-85.9801 644.314,-90.3744 634.222,-86.0848 634.222,-86.0848"/>
</g>
<!-- 80 -->
<g id="node81" class="node"><title>80</title>
<polygon fill="none" stroke="black" points="4015.5,-36 3896.5,-36 3896.5,-0 4015.5,-0 4015.5,-36"/>
<text text-anchor="middle" x="3956" y="-14.3" font-family="Times,serif" font-size="14.00">main_multiplayers</text>
</g>
<!-- 80&#45;&gt;8 -->
<g id="edge167" class="edge"><title>80&#45;&gt;8</title>
<path fill="none" stroke="black" d="M3973.8,-36.3034C3982.6,-44.865 3993.38,-55.3438 4003,-64.6955"/>
<polygon fill="black" stroke="black" points="4010.41,-71.8957 4000.1,-68.1513 4006.82,-68.4103 4003.24,-64.9249 4003.24,-64.9249 4003.24,-64.9249 4006.82,-68.4103 4006.37,-61.6984 4010.41,-71.8957 4010.41,-71.8957"/>
</g>
<!-- 80&#45;&gt;11 -->
<g id="edge168" class="edge"><title>80&#45;&gt;11</title>
<path fill="none" stroke="black" d="M4002.32,-36.1285C4073.19,-62.3375 4208.32,-112.305 4284.39,-140.435"/>
<polygon fill="black" stroke="black" points="4293.82,-143.921 4282.88,-144.674 4289.13,-142.187 4284.44,-140.453 4284.44,-140.453 4284.44,-140.453 4289.13,-142.187 4286,-136.232 4293.82,-143.921 4293.82,-143.921"/>
</g>
<!-- 80&#45;&gt;15 -->
<g id="edge169" class="edge"><title>80&#45;&gt;15</title>
<path fill="none" stroke="black" d="M3937.18,-36.1285C3909.54,-61.2893 3857.84,-108.346 3826.41,-136.958"/>
<polygon fill="black" stroke="black" points="3818.88,-143.811 3823.25,-133.751 3822.58,-140.445 3826.28,-137.079 3826.28,-137.079 3826.28,-137.079 3822.58,-140.445 3829.31,-140.407 3818.88,-143.811 3818.88,-143.811"/>
</g>
<!-- 80&#45;&gt;78 -->
<g id="edge170" class="edge"><title>80&#45;&gt;78</title>
<path fill="none" stroke="black" d="M3896.19,-32.6525C3888.75,-33.9801 3881.22,-35.1479 3874,-36 3853.44,-38.4266 2588.21,-75.8069 2232.26,-86.2871"/>
<polygon fill="black" stroke="black" points="2222.25,-86.5818 2232.11,-81.7894 2227.25,-86.4346 2232.24,-86.2874 2232.24,-86.2874 2232.24,-86.2874 2227.25,-86.4346 2232.38,-90.7855 2222.25,-86.5818 2222.25,-86.5818"/>
</g>
<!-- 81 -->
<g id="node82" class="node"><title>81</title>
<polygon fill="none" stroke="black" points="2855.5,-108 2732.5,-108 2732.5,-72 2855.5,-72 2855.5,-108"/>
<text text-anchor="middle" x="2794" y="-86.3" font-family="Times,serif" font-size="14.00">my&#45;small&#45;slack&#45;bot</text>
</g>
<!-- 81&#45;&gt;17 -->
<g id="edge171" class="edge"><title>81&#45;&gt;17</title>
<path fill="none" stroke="black" d="M2732.17,-101.555C2646.89,-116.117 2495.56,-141.953 2423.84,-154.199"/>
<polygon fill="black" stroke="black" points="2413.85,-155.904 2422.95,-149.785 2418.78,-155.063 2423.7,-154.221 2423.7,-154.221 2423.7,-154.221 2418.78,-155.063 2424.46,-158.657 2413.85,-155.904 2413.85,-155.904"/>
</g>
<!-- 81&#45;&gt;39 -->
<g id="edge172" class="edge"><title>81&#45;&gt;39</title>
<path fill="none" stroke="black" d="M2855.67,-97.9319C2995.96,-114.138 3349.78,-157.465 3654.09,-215.916"/>
<polygon fill="black" stroke="black" points="3663.99,-217.826 3653.32,-220.349 3659.08,-216.878 3654.17,-215.931 3654.17,-215.931 3654.17,-215.931 3659.08,-216.878 3655.02,-211.512 3663.99,-217.826 3663.99,-217.826"/>
</g>
</g>
</svg>
