<?xml version="1.0" encoding="UTF-8" standalone="no"?>
<!DOCTYPE svg PUBLIC "-//W3C//DTD SVG 1.1//EN"
 "http://www.w3.org/Graphics/SVG/1.1/DTD/svg11.dtd">
<!-- Generated by graphviz version 2.38.0 (20140413.2041)
 -->
<!-- Title: packages_AlgoBandits Pages: 1 -->
<svg width="6932pt" height="548pt"
 viewBox="0.00 0.00 6931.50 548.00" xmlns="http://www.w3.org/2000/svg" xmlns:xlink="http://www.w3.org/1999/xlink">
<g id="graph0" class="graph" transform="scale(1 1) rotate(0) translate(4 544)">
<title>packages_AlgoBandits</title>
<polygon fill="white" stroke="none" points="-4,4 -4,-544 6927.5,-544 6927.5,4 -4,4"/>
<!-- 0 -->
<g id="node1" class="node"><title>0</title>
<polygon fill="none" stroke="black" points="421.5,-180 367.5,-180 367.5,-144 421.5,-144 421.5,-180"/>
<text text-anchor="middle" x="394.5" y="-158.3" font-family="Times,serif" font-size="14.00">Arms</text>
</g>
<!-- 2 -->
<g id="node3" class="node"><title>2</title>
<polygon fill="none" stroke="black" points="221.5,-252 119.5,-252 119.5,-216 221.5,-216 221.5,-252"/>
<text text-anchor="middle" x="170.5" y="-230.3" font-family="Times,serif" font-size="14.00">Arms.Bernoulli</text>
</g>
<!-- 0&#45;&gt;2 -->
<g id="edge1" class="edge"><title>0&#45;&gt;2</title>
<path fill="none" stroke="black" d="M367.316,-174.766C362.737,-176.605 358.008,-178.418 353.5,-180 341.711,-184.137 280.092,-201.852 231.57,-215.677"/>
<polygon fill="black" stroke="black" points="221.748,-218.473 230.134,-211.407 226.557,-217.104 231.366,-215.735 231.366,-215.735 231.366,-215.735 226.557,-217.104 232.598,-220.063 221.748,-218.473 221.748,-218.473"/>
</g>
<!-- 3 -->
<g id="node4" class="node"><title>3</title>
<polygon fill="none" stroke="black" points="583.5,-252 467.5,-252 467.5,-216 583.5,-216 583.5,-252"/>
<text text-anchor="middle" x="525.5" y="-230.3" font-family="Times,serif" font-size="14.00">Arms.Exponential</text>
</g>
<!-- 0&#45;&gt;3 -->
<g id="edge2" class="edge"><title>0&#45;&gt;3</title>
<path fill="none" stroke="black" d="M421.643,-177.504C439.71,-187.158 463.789,-200.025 484.213,-210.938"/>
<polygon fill="black" stroke="black" points="493.304,-215.796 482.364,-215.052 488.894,-213.44 484.485,-211.083 484.485,-211.083 484.485,-211.083 488.894,-213.44 486.605,-207.114 493.304,-215.796 493.304,-215.796"/>
</g>
<!-- 4 -->
<g id="node5" class="node"><title>4</title>
<polygon fill="none" stroke="black" points="101,-252 0,-252 0,-216 101,-216 101,-252"/>
<text text-anchor="middle" x="50.5" y="-230.3" font-family="Times,serif" font-size="14.00">Arms.Gaussian</text>
</g>
<!-- 0&#45;&gt;4 -->
<g id="edge3" class="edge"><title>0&#45;&gt;4</title>
<path fill="none" stroke="black" d="M367.308,-167.223C318.178,-175.034 211.203,-192.876 111.126,-215.971"/>
<polygon fill="black" stroke="black" points="101.154,-218.296 109.871,-211.643 106.023,-217.16 110.893,-216.025 110.893,-216.025 110.893,-216.025 106.023,-217.16 111.915,-220.408 101.154,-218.296 101.154,-218.296"/>
</g>
<!-- 5 -->
<g id="node6" class="node"><title>5</title>
<polygon fill="none" stroke="black" points="449,-252 356,-252 356,-216 449,-216 449,-252"/>
<text text-anchor="middle" x="402.5" y="-230.3" font-family="Times,serif" font-size="14.00">Arms.Poisson</text>
</g>
<!-- 0&#45;&gt;5 -->
<g id="edge4" class="edge"><title>0&#45;&gt;5</title>
<path fill="none" stroke="black" d="M396.478,-180.303C397.359,-188.017 398.419,-197.288 399.401,-205.888"/>
<polygon fill="black" stroke="black" points="400.545,-215.896 394.939,-206.471 399.977,-210.928 399.41,-205.96 399.41,-205.96 399.41,-205.96 399.977,-210.928 403.881,-205.449 400.545,-215.896 400.545,-215.896"/>
</g>
<!-- 6 -->
<g id="node7" class="node"><title>6</title>
<polygon fill="none" stroke="black" points="337.5,-252 239.5,-252 239.5,-216 337.5,-216 337.5,-252"/>
<text text-anchor="middle" x="288.5" y="-230.3" font-family="Times,serif" font-size="14.00">Arms.Uniform</text>
</g>
<!-- 0&#45;&gt;6 -->
<g id="edge5" class="edge"><title>0&#45;&gt;6</title>
<path fill="none" stroke="black" d="M368.569,-180.124C354.838,-189.192 337.794,-200.448 322.964,-210.241"/>
<polygon fill="black" stroke="black" points="314.53,-215.81 320.395,-206.544 318.703,-213.055 322.875,-210.3 322.875,-210.3 322.875,-210.3 318.703,-213.055 325.355,-214.055 314.53,-215.81 314.53,-215.81"/>
</g>
<!-- 1 -->
<g id="node2" class="node"><title>1</title>
<polygon fill="none" stroke="black" points="327,-324 250,-324 250,-288 327,-288 327,-324"/>
<text text-anchor="middle" x="288.5" y="-302.3" font-family="Times,serif" font-size="14.00">Arms.Arm</text>
</g>
<!-- 2&#45;&gt;1 -->
<g id="edge6" class="edge"><title>2&#45;&gt;1</title>
<path fill="none" stroke="black" d="M199.366,-252.124C214.795,-261.276 233.981,-272.658 250.597,-282.515"/>
<polygon fill="black" stroke="black" points="259.523,-287.81 248.626,-286.578 255.223,-285.259 250.922,-282.708 250.922,-282.708 250.922,-282.708 255.223,-285.259 253.218,-278.838 259.523,-287.81 259.523,-287.81"/>
</g>
<!-- 7 -->
<g id="node8" class="node"><title>7</title>
<polygon fill="none" stroke="black" points="447.5,-324 349.5,-324 349.5,-288 447.5,-288 447.5,-324"/>
<text text-anchor="middle" x="398.5" y="-302.3" font-family="Times,serif" font-size="14.00">Arms.kullback</text>
</g>
<!-- 2&#45;&gt;7 -->
<g id="edge7" class="edge"><title>2&#45;&gt;7</title>
<path fill="none" stroke="black" d="M221.668,-250.709C256.591,-261.431 302.954,-275.666 339.445,-286.869"/>
<polygon fill="black" stroke="black" points="349.458,-289.943 338.578,-291.31 344.678,-288.476 339.898,-287.008 339.898,-287.008 339.898,-287.008 344.678,-288.476 341.219,-282.706 349.458,-289.943 349.458,-289.943"/>
</g>
<!-- 3&#45;&gt;1 -->
<g id="edge8" class="edge"><title>3&#45;&gt;1</title>
<path fill="none" stroke="black" d="M467.426,-251.043C430.895,-261.282 382.824,-275.024 340.5,-288 339.274,-288.376 338.033,-288.759 336.781,-289.149"/>
<polygon fill="black" stroke="black" points="327.069,-292.215 335.25,-284.913 331.837,-290.71 336.605,-289.204 336.605,-289.204 336.605,-289.204 331.837,-290.71 337.96,-293.495 327.069,-292.215 327.069,-292.215"/>
</g>
<!-- 3&#45;&gt;7 -->
<g id="edge9" class="edge"><title>3&#45;&gt;7</title>
<path fill="none" stroke="black" d="M494.432,-252.124C477.673,-261.361 456.794,-272.869 438.798,-282.788"/>
<polygon fill="black" stroke="black" points="429.687,-287.81 436.273,-279.042 434.066,-285.397 438.445,-282.983 438.445,-282.983 438.445,-282.983 434.066,-285.397 440.617,-286.924 429.687,-287.81 429.687,-287.81"/>
</g>
<!-- 4&#45;&gt;1 -->
<g id="edge10" class="edge"><title>4&#45;&gt;1</title>
<path fill="none" stroke="black" d="M101.265,-249.931C142.38,-262.024 199.91,-278.944 240.317,-290.828"/>
<polygon fill="black" stroke="black" points="249.944,-293.66 239.08,-295.155 245.147,-292.249 240.35,-290.838 240.35,-290.838 240.35,-290.838 245.147,-292.249 241.62,-286.521 249.944,-293.66 249.944,-293.66"/>
</g>
<!-- 4&#45;&gt;7 -->
<g id="edge11" class="edge"><title>4&#45;&gt;7</title>
<path fill="none" stroke="black" d="M101.133,-249.798C104.293,-250.581 107.434,-251.323 110.5,-252 209.389,-273.841 236.476,-266.779 335.5,-288 336.777,-288.274 338.067,-288.557 339.367,-288.849"/>
<polygon fill="black" stroke="black" points="349.44,-291.228 338.674,-293.309 344.574,-290.079 339.708,-288.93 339.708,-288.93 339.708,-288.93 344.574,-290.079 340.742,-284.55 349.44,-291.228 349.44,-291.228"/>
</g>
<!-- 5&#45;&gt;1 -->
<g id="edge12" class="edge"><title>5&#45;&gt;1</title>
<path fill="none" stroke="black" d="M374.612,-252.124C359.707,-261.276 341.171,-272.658 325.118,-282.515"/>
<polygon fill="black" stroke="black" points="316.495,-287.81 322.662,-278.743 320.756,-285.194 325.016,-282.578 325.016,-282.578 325.016,-282.578 320.756,-285.194 327.371,-286.412 316.495,-287.81 316.495,-287.81"/>
</g>
<!-- 5&#45;&gt;7 -->
<g id="edge13" class="edge"><title>5&#45;&gt;7</title>
<path fill="none" stroke="black" d="M401.511,-252.303C401.07,-260.017 400.541,-269.288 400.049,-277.888"/>
<polygon fill="black" stroke="black" points="399.477,-287.896 395.555,-277.655 399.763,-282.904 400.048,-277.912 400.048,-277.912 400.048,-277.912 399.763,-282.904 404.541,-278.169 399.477,-287.896 399.477,-287.896"/>
</g>
<!-- 6&#45;&gt;1 -->
<g id="edge14" class="edge"><title>6&#45;&gt;1</title>
<path fill="none" stroke="black" d="M288.5,-252.303C288.5,-260.017 288.5,-269.288 288.5,-277.888"/>
<polygon fill="black" stroke="black" points="288.5,-287.896 284,-277.896 288.5,-282.896 288.5,-277.896 288.5,-277.896 288.5,-277.896 288.5,-282.896 293,-277.896 288.5,-287.896 288.5,-287.896"/>
</g>
<!-- 8 -->
<g id="node9" class="node"><title>8</title>
<polygon fill="none" stroke="black" points="4070.5,-108 3982.5,-108 3982.5,-72 4070.5,-72 4070.5,-108"/>
<text text-anchor="middle" x="4026.5" y="-86.3" font-family="Times,serif" font-size="14.00">Environment</text>
</g>
<!-- 10 -->
<g id="node11" class="node"><title>10</title>
<polygon fill="none" stroke="black" points="4098.5,-180 3954.5,-180 3954.5,-144 4098.5,-144 4098.5,-180"/>
<text text-anchor="middle" x="4026.5" y="-158.3" font-family="Times,serif" font-size="14.00">Environment.Evaluator</text>
</g>
<!-- 8&#45;&gt;10 -->
<g id="edge15" class="edge"><title>8&#45;&gt;10</title>
<path fill="none" stroke="black" d="M4026.5,-108.303C4026.5,-116.017 4026.5,-125.288 4026.5,-133.888"/>
<polygon fill="black" stroke="black" points="4026.5,-143.896 4022,-133.896 4026.5,-138.896 4026.5,-133.896 4026.5,-133.896 4026.5,-133.896 4026.5,-138.896 4031,-133.896 4026.5,-143.896 4026.5,-143.896"/>
</g>
<!-- 11 -->
<g id="node12" class="node"><title>11</title>
<polygon fill="none" stroke="black" points="4446,-180 4231,-180 4231,-144 4446,-144 4446,-180"/>
<text text-anchor="middle" x="4338.5" y="-158.3" font-family="Times,serif" font-size="14.00">Environment.EvaluatorMultiPlayers</text>
</g>
<!-- 8&#45;&gt;11 -->
<g id="edge16" class="edge"><title>8&#45;&gt;11</title>
<path fill="none" stroke="black" d="M4070.54,-100.881C4117.62,-111.444 4193.46,-128.458 4252.46,-141.695"/>
<polygon fill="black" stroke="black" points="4262.52,-143.953 4251.78,-146.154 4257.64,-142.858 4252.76,-141.764 4252.76,-141.764 4252.76,-141.764 4257.64,-142.858 4253.75,-137.373 4262.52,-143.953 4262.52,-143.953"/>
</g>
<!-- 12 -->
<g id="node13" class="node"><title>12</title>
<polygon fill="none" stroke="black" points="4222,-252 4099,-252 4099,-216 4222,-216 4222,-252"/>
<text text-anchor="middle" x="4160.5" y="-230.3" font-family="Times,serif" font-size="14.00">Environment.MAB</text>
</g>
<!-- 8&#45;&gt;12 -->
<g id="edge17" class="edge"><title>8&#45;&gt;12</title>
<path fill="none" stroke="black" d="M4070.9,-107.504C4089.13,-116.093 4109.26,-128.161 4123.5,-144 4139.27,-161.533 4148.88,-186.728 4154.35,-205.839"/>
<polygon fill="black" stroke="black" points="4156.97,-215.743 4150.06,-207.227 4155.69,-210.909 4154.41,-206.076 4154.41,-206.076 4154.41,-206.076 4155.69,-210.909 4158.76,-204.925 4156.97,-215.743 4156.97,-215.743"/>
</g>
<!-- 13 -->
<g id="node14" class="node"><title>13</title>
<polygon fill="none" stroke="black" points="4080.5,-252 3954.5,-252 3954.5,-216 4080.5,-216 4080.5,-252"/>
<text text-anchor="middle" x="4017.5" y="-230.3" font-family="Times,serif" font-size="14.00">Environment.Result</text>
</g>
<!-- 8&#45;&gt;13 -->
<g id="edge18" class="edge"><title>8&#45;&gt;13</title>
<path fill="none" stroke="black" d="M4068.61,-108.126C4083.68,-116.55 4099.03,-128.33 4107.5,-144 4115.11,-158.074 4115.44,-166.109 4107.5,-180 4100.04,-193.047 4087.98,-203.201 4075.08,-210.967"/>
<polygon fill="black" stroke="black" points="4066.06,-215.969 4072.62,-207.184 4070.43,-213.545 4074.8,-211.12 4074.8,-211.12 4074.8,-211.12 4070.43,-213.545 4076.99,-215.055 4066.06,-215.969 4066.06,-215.969"/>
</g>
<!-- 14 -->
<g id="node15" class="node"><title>14</title>
<polygon fill="none" stroke="black" points="4437,-252 4240,-252 4240,-216 4437,-216 4437,-252"/>
<text text-anchor="middle" x="4338.5" y="-230.3" font-family="Times,serif" font-size="14.00">Environment.ResultMultiPlayers</text>
</g>
<!-- 8&#45;&gt;14 -->
<g id="edge19" class="edge"><title>8&#45;&gt;14</title>
<path fill="none" stroke="black" d="M4066.44,-108.08C4090.1,-118.301 4120.61,-131.662 4147.5,-144 4181.11,-159.42 4189.02,-164.316 4222.5,-180 4245.21,-190.635 4270.52,-202.232 4291.7,-211.859"/>
<polygon fill="black" stroke="black" points="4300.8,-215.994 4289.84,-215.957 4296.25,-213.927 4291.7,-211.86 4291.7,-211.86 4291.7,-211.86 4296.25,-213.927 4293.56,-207.762 4300.8,-215.994 4300.8,-215.994"/>
</g>
<!-- 15 -->
<g id="node16" class="node"><title>15</title>
<polygon fill="none" stroke="black" points="3860.5,-180 3736.5,-180 3736.5,-144 3860.5,-144 3860.5,-180"/>
<text text-anchor="middle" x="3798.5" y="-158.3" font-family="Times,serif" font-size="14.00">Environment.notify</text>
</g>
<!-- 8&#45;&gt;15 -->
<g id="edge20" class="edge"><title>8&#45;&gt;15</title>
<path fill="none" stroke="black" d="M3982.27,-104.58C3948.63,-114.908 3901.81,-129.281 3863.86,-140.935"/>
<polygon fill="black" stroke="black" points="3853.91,-143.989 3862.15,-136.752 3858.69,-142.521 3863.47,-141.054 3863.47,-141.054 3863.47,-141.054 3858.69,-142.521 3864.79,-145.356 3853.91,-143.989 3853.91,-143.989"/>
</g>
<!-- 16 -->
<g id="node17" class="node"><title>16</title>
<polygon fill="none" stroke="black" points="4120.5,-324 3966.5,-324 3966.5,-288 4120.5,-288 4120.5,-324"/>
<text text-anchor="middle" x="4043.5" y="-302.3" font-family="Times,serif" font-size="14.00">Environment.plotsettings</text>
</g>
<!-- 8&#45;&gt;16 -->
<g id="edge21" class="edge"><title>8&#45;&gt;16</title>
<path fill="none" stroke="black" d="M3986.75,-108.05C3971.44,-116.621 3955.3,-128.526 3945.5,-144 3919.7,-184.721 3910,-211.089 3935.5,-252 3944.01,-265.652 3957.17,-275.886 3971.42,-283.524"/>
<polygon fill="black" stroke="black" points="3980.4,-287.951 3969.44,-287.565 3975.91,-285.74 3971.43,-283.529 3971.43,-283.529 3971.43,-283.529 3975.91,-285.74 3973.42,-279.493 3980.4,-287.951 3980.4,-287.951"/>
</g>
<!-- 9 -->
<g id="node10" class="node"><title>9</title>
<polygon fill="none" stroke="black" points="4675.5,-252 4493.5,-252 4493.5,-216 4675.5,-216 4675.5,-252"/>
<text text-anchor="middle" x="4584.5" y="-230.3" font-family="Times,serif" font-size="14.00">Environment.CollisionModels</text>
</g>
<!-- 10&#45;&gt;12 -->
<g id="edge22" class="edge"><title>10&#45;&gt;12</title>
<path fill="none" stroke="black" d="M4059.28,-180.124C4077.13,-189.446 4099.4,-201.081 4118.5,-211.061"/>
<polygon fill="black" stroke="black" points="4127.59,-215.81 4116.65,-215.169 4123.16,-213.495 4118.73,-211.18 4118.73,-211.18 4118.73,-211.18 4123.16,-213.495 4120.81,-207.191 4127.59,-215.81 4127.59,-215.81"/>
</g>
<!-- 10&#45;&gt;13 -->
<g id="edge23" class="edge"><title>10&#45;&gt;13</title>
<path fill="none" stroke="black" d="M4024.28,-180.303C4023.28,-188.017 4022.09,-197.288 4020.99,-205.888"/>
<polygon fill="black" stroke="black" points="4019.7,-215.896 4016.51,-205.403 4020.34,-210.936 4020.97,-205.977 4020.97,-205.977 4020.97,-205.977 4020.34,-210.936 4025.44,-206.551 4019.7,-215.896 4019.7,-215.896"/>
</g>
<!-- 10&#45;&gt;16 -->
<g id="edge24" class="edge"><title>10&#45;&gt;16</title>
<path fill="none" stroke="black" d="M3984.39,-180.126C3969.32,-188.55 3953.97,-200.33 3945.5,-216 3937.89,-230.074 3937.31,-238.256 3945.5,-252 3953.46,-265.357 3966.09,-275.551 3979.66,-283.253"/>
<polygon fill="black" stroke="black" points="3988.68,-287.961 3977.73,-287.322 3984.25,-285.647 3979.82,-283.333 3979.82,-283.333 3979.82,-283.333 3984.25,-285.647 3981.9,-279.344 3988.68,-287.961 3988.68,-287.961"/>
</g>
<!-- 11&#45;&gt;9 -->
<g id="edge25" class="edge"><title>11&#45;&gt;9</title>
<path fill="none" stroke="black" d="M4398.36,-180.034C4433.48,-190.028 4478.02,-202.702 4514.73,-213.146"/>
<polygon fill="black" stroke="black" points="4524.37,-215.889 4513.52,-217.48 4519.56,-214.521 4514.75,-213.152 4514.75,-213.152 4514.75,-213.152 4519.56,-214.521 4515.98,-208.824 4524.37,-215.889 4524.37,-215.889"/>
</g>
<!-- 11&#45;&gt;12 -->
<g id="edge26" class="edge"><title>11&#45;&gt;12</title>
<path fill="none" stroke="black" d="M4294.96,-180.124C4270.3,-189.821 4239.28,-202.02 4213.25,-212.257"/>
<polygon fill="black" stroke="black" points="4203.9,-215.932 4211.56,-208.084 4208.56,-214.102 4213.21,-212.272 4213.21,-212.272 4213.21,-212.272 4208.56,-214.102 4214.86,-216.46 4203.9,-215.932 4203.9,-215.932"/>
</g>
<!-- 11&#45;&gt;14 -->
<g id="edge27" class="edge"><title>11&#45;&gt;14</title>
<path fill="none" stroke="black" d="M4338.5,-180.303C4338.5,-188.017 4338.5,-197.288 4338.5,-205.888"/>
<polygon fill="black" stroke="black" points="4338.5,-215.896 4334,-205.896 4338.5,-210.896 4338.5,-205.896 4338.5,-205.896 4338.5,-205.896 4338.5,-210.896 4343,-205.896 4338.5,-215.896 4338.5,-215.896"/>
</g>
<!-- 11&#45;&gt;16 -->
<g id="edge28" class="edge"><title>11&#45;&gt;16</title>
<path fill="none" stroke="black" d="M4401.6,-180.049C4419.16,-188.013 4436.23,-199.515 4446.5,-216 4454.96,-229.579 4457.05,-239.971 4446.5,-252 4426.03,-275.344 4243.21,-291.641 4130.96,-299.547"/>
<polygon fill="black" stroke="black" points="4120.66,-300.263 4130.32,-295.08 4125.65,-299.916 4130.64,-299.569 4130.64,-299.569 4130.64,-299.569 4125.65,-299.916 4130.95,-304.059 4120.66,-300.263 4120.66,-300.263"/>
</g>
<!-- 12&#45;&gt;16 -->
<g id="edge29" class="edge"><title>12&#45;&gt;16</title>
<path fill="none" stroke="black" d="M4131.88,-252.124C4116.58,-261.276 4097.56,-272.658 4081.08,-282.515"/>
<polygon fill="black" stroke="black" points="4072.23,-287.81 4078.5,-278.814 4076.52,-285.243 4080.81,-282.676 4080.81,-282.676 4080.81,-282.676 4076.52,-285.243 4083.12,-286.538 4072.23,-287.81 4072.23,-287.81"/>
</g>
<!-- 17 -->
<g id="node18" class="node"><title>17</title>
<polygon fill="none" stroke="black" points="1786,-180 1727,-180 1727,-144 1786,-144 1786,-180"/>
<text text-anchor="middle" x="1756.5" y="-158.3" font-family="Times,serif" font-size="14.00">Policies</text>
</g>
<!-- 18 -->
<g id="node19" class="node"><title>18</title>
<polygon fill="none" stroke="black" points="3040,-324 2919,-324 2919,-288 3040,-288 3040,-324"/>
<text text-anchor="middle" x="2979.5" y="-302.3" font-family="Times,serif" font-size="14.00">Policies.AdBandits</text>
</g>
<!-- 17&#45;&gt;18 -->
<g id="edge30" class="edge"><title>17&#45;&gt;18</title>
<path fill="none" stroke="black" d="M1786.17,-163.128C1970.02,-164.06 2947.5,-171.119 2990.5,-216 3006.07,-232.254 3000.55,-258.534 2992.79,-278.333"/>
<polygon fill="black" stroke="black" points="2988.75,-287.733 2988.56,-276.769 2990.73,-283.138 2992.7,-278.543 2992.7,-278.543 2992.7,-278.543 2990.73,-283.138 2996.83,-280.317 2988.75,-287.733 2988.75,-287.733"/>
</g>
<!-- 19 -->
<g id="node20" class="node"><title>19</title>
<polygon fill="none" stroke="black" points="3087,-468 2996,-468 2996,-432 3087,-432 3087,-468"/>
<text text-anchor="middle" x="3041.5" y="-446.3" font-family="Times,serif" font-size="14.00">Policies.Aggr</text>
</g>
<!-- 17&#45;&gt;19 -->
<g id="edge31" class="edge"><title>17&#45;&gt;19</title>
<path fill="none" stroke="black" d="M1786.06,-163.428C1970.38,-166.2 2955.95,-182.55 3009.5,-216 3076.73,-257.991 3060.4,-370.279 3048.58,-422.105"/>
<polygon fill="black" stroke="black" points="3046.23,-431.913 3044.18,-421.14 3047.39,-427.051 3048.56,-422.188 3048.56,-422.188 3048.56,-422.188 3047.39,-427.051 3052.93,-423.237 3046.23,-431.913 3046.23,-431.913"/>
</g>
<!-- 21 -->
<g id="node22" class="node"><title>21</title>
<polygon fill="none" stroke="black" points="2948.5,-252 2824.5,-252 2824.5,-216 2948.5,-216 2948.5,-252"/>
<text text-anchor="middle" x="2886.5" y="-230.3" font-family="Times,serif" font-size="14.00">Policies.BayesUCB</text>
</g>
<!-- 17&#45;&gt;21 -->
<g id="edge32" class="edge"><title>17&#45;&gt;21</title>
<path fill="none" stroke="black" d="M1786.23,-163.744C1933.72,-167.546 2588.44,-185.762 2814.19,-216.013"/>
<polygon fill="black" stroke="black" points="2824.29,-217.416 2813.76,-220.497 2819.34,-216.728 2814.38,-216.04 2814.38,-216.04 2814.38,-216.04 2819.34,-216.728 2815,-211.583 2824.29,-217.416 2824.29,-217.416"/>
</g>
<!-- 24 -->
<g id="node25" class="node"><title>24</title>
<polygon fill="none" stroke="black" points="3636,-252 3471,-252 3471,-216 3636,-216 3636,-252"/>
<text text-anchor="middle" x="3553.5" y="-230.3" font-family="Times,serif" font-size="14.00">Policies.EpsilonDecreasing</text>
</g>
<!-- 17&#45;&gt;24 -->
<g id="edge33" class="edge"><title>17&#45;&gt;24</title>
<path fill="none" stroke="black" d="M1786.27,-163.348C1984.34,-165.749 3113.93,-180.821 3456.5,-216 3457.82,-216.135 3459.14,-216.278 3460.47,-216.427"/>
<polygon fill="black" stroke="black" points="3470.8,-217.694 3460.32,-220.942 3465.83,-217.085 3460.87,-216.476 3460.87,-216.476 3460.87,-216.476 3465.83,-217.085 3461.42,-212.009 3470.8,-217.694 3470.8,-217.694"/>
</g>
<!-- 25 -->
<g id="node26" class="node"><title>25</title>
<polygon fill="none" stroke="black" points="3860.5,-252 3654.5,-252 3654.5,-216 3860.5,-216 3860.5,-252"/>
<text text-anchor="middle" x="3757.5" y="-230.3" font-family="Times,serif" font-size="14.00">Policies.EpsilonDecreasingMEGA</text>
</g>
<!-- 17&#45;&gt;25 -->
<g id="edge34" class="edge"><title>17&#45;&gt;25</title>
<path fill="none" stroke="black" d="M1786.13,-163.332C1994.32,-165.743 3240.8,-181.407 3644.18,-215.97"/>
<polygon fill="black" stroke="black" points="3654.42,-216.868 3644.07,-220.477 3649.44,-216.431 3644.46,-215.995 3644.46,-215.995 3644.46,-215.995 3649.44,-216.431 3644.85,-211.512 3654.42,-216.868 3654.42,-216.868"/>
</g>
<!-- 26 -->
<g id="node27" class="node"><title>26</title>
<polygon fill="none" stroke="black" points="3267,-252 3080,-252 3080,-216 3267,-216 3267,-252"/>
<text text-anchor="middle" x="3173.5" y="-230.3" font-family="Times,serif" font-size="14.00">Policies.EpsilonExpDecreasing</text>
</g>
<!-- 17&#45;&gt;26 -->
<g id="edge35" class="edge"><title>17&#45;&gt;26</title>
<path fill="none" stroke="black" d="M1786.1,-162.917C1928.35,-162.788 2555.74,-165.269 3066.5,-216 3067.6,-216.109 3068.71,-216.222 3069.82,-216.339"/>
<polygon fill="black" stroke="black" points="3079.92,-217.485 3069.48,-220.83 3074.96,-216.922 3069.99,-216.359 3069.99,-216.359 3069.99,-216.359 3074.96,-216.922 3070.49,-211.887 3079.92,-217.485 3079.92,-217.485"/>
</g>
<!-- 27 -->
<g id="node28" class="node"><title>27</title>
<polygon fill="none" stroke="black" points="3414,-252 3285,-252 3285,-216 3414,-216 3414,-252"/>
<text text-anchor="middle" x="3349.5" y="-230.3" font-family="Times,serif" font-size="14.00">Policies.EpsilonFirst</text>
</g>
<!-- 17&#45;&gt;27 -->
<g id="edge36" class="edge"><title>17&#45;&gt;27</title>
<path fill="none" stroke="black" d="M1786.05,-163.261C1969.07,-164.993 2950.59,-175.975 3274.34,-216.05"/>
<polygon fill="black" stroke="black" points="3284.66,-217.366 3274.17,-220.564 3279.7,-216.733 3274.74,-216.101 3274.74,-216.101 3274.74,-216.101 3279.7,-216.733 3275.31,-211.637 3284.66,-217.366 3284.66,-217.366"/>
</g>
<!-- 28 -->
<g id="node29" class="node"><title>28</title>
<polygon fill="none" stroke="black" points="3467.5,-324 3323.5,-324 3323.5,-288 3467.5,-288 3467.5,-324"/>
<text text-anchor="middle" x="3395.5" y="-302.3" font-family="Times,serif" font-size="14.00">Policies.EpsilonGreedy</text>
</g>
<!-- 17&#45;&gt;28 -->
<g id="edge37" class="edge"><title>17&#45;&gt;28</title>
<path fill="none" stroke="black" d="M1786.27,-163.377C2007.89,-166.249 3392.86,-185.407 3422.5,-216 3438.96,-232.997 3427.73,-259.701 3415.11,-279.428"/>
<polygon fill="black" stroke="black" points="3409.31,-287.941 3411.23,-277.143 3412.13,-283.808 3414.94,-279.676 3414.94,-279.676 3414.94,-279.676 3412.13,-283.808 3418.66,-282.21 3409.31,-287.941 3409.31,-287.941"/>
</g>
<!-- 29 -->
<g id="node30" class="node"><title>29</title>
<polygon fill="none" stroke="black" points="621.5,-396 529.5,-396 529.5,-360 621.5,-360 621.5,-396"/>
<text text-anchor="middle" x="575.5" y="-374.3" font-family="Times,serif" font-size="14.00">Policies.Exp3</text>
</g>
<!-- 17&#45;&gt;29 -->
<g id="edge38" class="edge"><title>17&#45;&gt;29</title>
<path fill="none" stroke="black" d="M1726.98,-163.483C1554.28,-166.42 680.863,-182.879 635.5,-216 592.743,-247.218 580.433,-312.534 576.904,-349.663"/>
<polygon fill="black" stroke="black" points="576.095,-359.775 572.407,-349.448 576.493,-354.791 576.892,-349.807 576.892,-349.807 576.892,-349.807 576.493,-354.791 581.378,-350.166 576.095,-359.775 576.095,-359.775"/>
</g>
<!-- 32 -->
<g id="node33" class="node"><title>32</title>
<polygon fill="none" stroke="black" points="730.5,-468 626.5,-468 626.5,-432 730.5,-432 730.5,-468"/>
<text text-anchor="middle" x="678.5" y="-446.3" font-family="Times,serif" font-size="14.00">Policies.MEGA</text>
</g>
<!-- 17&#45;&gt;32 -->
<g id="edge39" class="edge"><title>17&#45;&gt;32</title>
<path fill="none" stroke="black" d="M1726.97,-163.407C1559.95,-165.846 739.649,-179.647 701.5,-216 645.299,-269.555 660.153,-372.884 671.323,-421.913"/>
<polygon fill="black" stroke="black" points="673.692,-431.787 666.983,-423.113 672.525,-426.925 671.359,-422.063 671.359,-422.063 671.359,-422.063 672.525,-426.925 675.734,-421.013 673.692,-431.787 673.692,-431.787"/>
</g>
<!-- 33 -->
<g id="node34" class="node"><title>33</title>
<polygon fill="none" stroke="black" points="2815,-396 2714,-396 2714,-360 2815,-360 2815,-396"/>
<text text-anchor="middle" x="2764.5" y="-374.3" font-family="Times,serif" font-size="14.00">Policies.MOSS</text>
</g>
<!-- 17&#45;&gt;33 -->
<g id="edge40" class="edge"><title>17&#45;&gt;33</title>
<path fill="none" stroke="black" d="M1786.25,-163.164C1967.39,-164.307 2915.75,-172.363 2957.5,-216 2968.56,-227.56 2964.66,-237.689 2957.5,-252 2945.57,-275.851 2929.88,-270.802 2909.5,-288 2891.72,-303.004 2890.58,-310.689 2871.5,-324 2854.12,-336.125 2833.56,-347.018 2815.13,-355.73"/>
<polygon fill="black" stroke="black" points="2805.99,-359.954 2813.18,-351.672 2810.53,-357.855 2815.07,-355.756 2815.07,-355.756 2815.07,-355.756 2810.53,-357.855 2816.96,-359.84 2805.99,-359.954 2805.99,-359.954"/>
</g>
<!-- 34 -->
<g id="node35" class="node"><title>34</title>
<polygon fill="none" stroke="black" points="897,-468 760,-468 760,-432 897,-432 897,-468"/>
<text text-anchor="middle" x="828.5" y="-446.3" font-family="Times,serif" font-size="14.00">Policies.MusicalChair</text>
</g>
<!-- 17&#45;&gt;34 -->
<g id="edge41" class="edge"><title>17&#45;&gt;34</title>
<path fill="none" stroke="black" d="M1726.97,-163.381C1561.74,-165.651 758.036,-178.596 722.5,-216 663.373,-278.235 753.826,-379.21 801.791,-425.028"/>
<polygon fill="black" stroke="black" points="809.095,-431.894 798.727,-428.323 805.452,-428.469 801.809,-425.045 801.809,-425.045 801.809,-425.045 805.452,-428.469 804.891,-421.766 809.095,-431.894 809.095,-431.894"/>
</g>
<!-- 36 -->
<g id="node37" class="node"><title>36</title>
<polygon fill="none" stroke="black" points="1031.5,-468 921.5,-468 921.5,-432 1031.5,-432 1031.5,-468"/>
<text text-anchor="middle" x="976.5" y="-446.3" font-family="Times,serif" font-size="14.00">Policies.Softmax</text>
</g>
<!-- 17&#45;&gt;36 -->
<g id="edge42" class="edge"><title>17&#45;&gt;36</title>
<path fill="none" stroke="black" d="M1726.8,-163.417C1563.31,-165.855 779.205,-179.43 744.5,-216 668.957,-295.602 837.707,-387.046 926.444,-427.656"/>
<polygon fill="black" stroke="black" points="935.809,-431.889 924.843,-431.871 931.253,-429.83 926.697,-427.77 926.697,-427.77 926.697,-427.77 931.253,-429.83 928.551,-423.67 935.809,-431.889 935.809,-431.889"/>
</g>
<!-- 37 -->
<g id="node38" class="node"><title>37</title>
<polygon fill="none" stroke="black" points="1029.5,-324 883.5,-324 883.5,-288 1029.5,-288 1029.5,-324"/>
<text text-anchor="middle" x="956.5" y="-302.3" font-family="Times,serif" font-size="14.00">Policies.TakeFixedArm</text>
</g>
<!-- 17&#45;&gt;37 -->
<g id="edge43" class="edge"><title>17&#45;&gt;37</title>
<path fill="none" stroke="black" d="M1726.82,-164.642C1588.09,-172.368 1009.71,-205.178 994.5,-216 974.449,-230.265 964.902,-257.341 960.404,-277.898"/>
<polygon fill="black" stroke="black" points="958.483,-287.952 955.94,-277.285 959.422,-283.041 960.36,-278.13 960.36,-278.13 960.36,-278.13 959.422,-283.041 964.78,-278.975 958.483,-287.952 958.483,-287.952"/>
</g>
<!-- 38 -->
<g id="node39" class="node"><title>38</title>
<polygon fill="none" stroke="black" points="947,-252 754,-252 754,-216 947,-216 947,-252"/>
<text text-anchor="middle" x="850.5" y="-230.3" font-family="Times,serif" font-size="14.00">Policies.TakeRandomFixedArm</text>
</g>
<!-- 17&#45;&gt;38 -->
<g id="edge44" class="edge"><title>17&#45;&gt;38</title>
<path fill="none" stroke="black" d="M1726.66,-164.647C1600.99,-171.633 1114.3,-199.237 961.5,-216 960.192,-216.144 958.876,-216.291 957.552,-216.443"/>
<polygon fill="black" stroke="black" points="947.297,-217.677 956.687,-212.015 952.261,-217.08 957.225,-216.482 957.225,-216.482 957.225,-216.482 952.261,-217.08 957.763,-220.95 947.297,-217.677 947.297,-217.677"/>
</g>
<!-- 39 -->
<g id="node40" class="node"><title>39</title>
<polygon fill="none" stroke="black" points="2806.5,-252 2684.5,-252 2684.5,-216 2806.5,-216 2806.5,-252"/>
<text text-anchor="middle" x="2745.5" y="-230.3" font-family="Times,serif" font-size="14.00">Policies.Thompson</text>
</g>
<!-- 17&#45;&gt;39 -->
<g id="edge45" class="edge"><title>17&#45;&gt;39</title>
<path fill="none" stroke="black" d="M1786.27,-162.948C1901.01,-163.122 2325.44,-167.229 2670.5,-216 2671.76,-216.179 2673.04,-216.368 2674.32,-216.566"/>
<polygon fill="black" stroke="black" points="2684.26,-218.253 2673.65,-221.016 2679.33,-217.416 2674.4,-216.579 2674.4,-216.579 2674.4,-216.579 2679.33,-217.416 2675.15,-212.143 2684.26,-218.253 2684.26,-218.253"/>
</g>
<!-- 40 -->
<g id="node41" class="node"><title>40</title>
<polygon fill="none" stroke="black" points="1790,-396 1699,-396 1699,-360 1790,-360 1790,-396"/>
<text text-anchor="middle" x="1744.5" y="-374.3" font-family="Times,serif" font-size="14.00">Policies.UCB</text>
</g>
<!-- 17&#45;&gt;40 -->
<g id="edge46" class="edge"><title>17&#45;&gt;40</title>
<path fill="none" stroke="black" d="M1726.74,-165.965C1629.77,-176.719 1334.18,-218.723 1423.5,-324 1432.03,-334.057 1599.03,-357.657 1688.69,-369.68"/>
<polygon fill="black" stroke="black" points="1698.69,-371.018 1688.19,-374.154 1693.74,-370.355 1688.78,-369.693 1688.78,-369.693 1688.78,-369.693 1693.74,-370.355 1689.38,-365.233 1698.69,-371.018 1698.69,-371.018"/>
</g>
<!-- 41 -->
<g id="node42" class="node"><title>41</title>
<polygon fill="none" stroke="black" points="1672,-324 1571,-324 1571,-288 1672,-288 1672,-324"/>
<text text-anchor="middle" x="1621.5" y="-302.3" font-family="Times,serif" font-size="14.00">Policies.UCBV</text>
</g>
<!-- 17&#45;&gt;41 -->
<g id="edge47" class="edge"><title>17&#45;&gt;41</title>
<path fill="none" stroke="black" d="M1727,-165.471C1671.45,-170.8 1554.72,-185.444 1530.5,-216 1520.56,-228.539 1522.53,-238.128 1530.5,-252 1537.98,-265.007 1550.01,-275.122 1562.91,-282.861"/>
<polygon fill="black" stroke="black" points="1571.94,-287.846 1561.01,-286.95 1567.56,-285.429 1563.18,-283.011 1563.18,-283.011 1563.18,-283.011 1567.56,-285.429 1565.36,-279.072 1571.94,-287.846 1571.94,-287.846"/>
</g>
<!-- 42 -->
<g id="node43" class="node"><title>42</title>
<polygon fill="none" stroke="black" points="1671,-252 1540,-252 1540,-216 1671,-216 1671,-252"/>
<text text-anchor="middle" x="1605.5" y="-230.3" font-family="Times,serif" font-size="14.00">Policies.UCBVtuned</text>
</g>
<!-- 17&#45;&gt;42 -->
<g id="edge48" class="edge"><title>17&#45;&gt;42</title>
<path fill="none" stroke="black" d="M1726.67,-176.83C1705.18,-186.793 1675.77,-200.422 1651.32,-211.76"/>
<polygon fill="black" stroke="black" points="1642.21,-215.981 1649.39,-207.692 1646.75,-213.878 1651.29,-211.775 1651.29,-211.775 1651.29,-211.775 1646.75,-213.878 1653.18,-215.858 1642.21,-215.981 1642.21,-215.981"/>
</g>
<!-- 43 -->
<g id="node44" class="node"><title>43</title>
<polygon fill="none" stroke="black" points="1552.5,-324 1432.5,-324 1432.5,-288 1552.5,-288 1552.5,-324"/>
<text text-anchor="middle" x="1492.5" y="-302.3" font-family="Times,serif" font-size="14.00">Policies.UCBalpha</text>
</g>
<!-- 17&#45;&gt;43 -->
<g id="edge49" class="edge"><title>17&#45;&gt;43</title>
<path fill="none" stroke="black" d="M1726.95,-165.969C1670.55,-172.209 1550.48,-188.431 1520.5,-216 1503.32,-231.798 1496.61,-258.011 1494.02,-277.908"/>
<polygon fill="black" stroke="black" points="1492.99,-287.926 1489.54,-277.519 1493.51,-282.953 1494.02,-277.979 1494.02,-277.979 1494.02,-277.979 1493.51,-282.953 1498.49,-278.439 1492.99,-287.926 1492.99,-287.926"/>
</g>
<!-- 44 -->
<g id="node45" class="node"><title>44</title>
<polygon fill="none" stroke="black" points="1376.5,-324 1254.5,-324 1254.5,-288 1376.5,-288 1376.5,-324"/>
<text text-anchor="middle" x="1315.5" y="-302.3" font-family="Times,serif" font-size="14.00">Policies.UCBlog10</text>
</g>
<!-- 17&#45;&gt;44 -->
<g id="edge50" class="edge"><title>17&#45;&gt;44</title>
<path fill="none" stroke="black" d="M1726.83,-164.991C1620.33,-172.277 1262.72,-198.003 1246.5,-216 1235.79,-227.884 1239.43,-237.648 1246.5,-252 1252.46,-264.093 1262.65,-274.195 1273.4,-282.226"/>
<polygon fill="black" stroke="black" points="1281.66,-287.961 1270.88,-285.958 1277.56,-285.111 1273.45,-282.261 1273.45,-282.261 1273.45,-282.261 1277.56,-285.111 1276.01,-278.563 1281.66,-287.961 1281.66,-287.961"/>
</g>
<!-- 45 -->
<g id="node46" class="node"><title>45</title>
<polygon fill="none" stroke="black" points="1407,-252 1256,-252 1256,-216 1407,-216 1407,-252"/>
<text text-anchor="middle" x="1331.5" y="-230.3" font-family="Times,serif" font-size="14.00">Policies.UCBlog10alpha</text>
</g>
<!-- 17&#45;&gt;45 -->
<g id="edge51" class="edge"><title>17&#45;&gt;45</title>
<path fill="none" stroke="black" d="M1726.87,-167.384C1668.4,-176.104 1534.05,-196.471 1421.5,-216 1420.03,-216.255 1418.55,-216.514 1417.06,-216.776"/>
<polygon fill="black" stroke="black" points="1407.09,-218.552 1416.15,-212.367 1412.01,-217.675 1416.94,-216.798 1416.94,-216.798 1416.94,-216.798 1412.01,-217.675 1417.73,-221.228 1407.09,-218.552 1407.09,-218.552"/>
</g>
<!-- 46 -->
<g id="node47" class="node"><title>46</title>
<polygon fill="none" stroke="black" points="1798.5,-324 1690.5,-324 1690.5,-288 1798.5,-288 1798.5,-324"/>
<text text-anchor="middle" x="1744.5" y="-302.3" font-family="Times,serif" font-size="14.00">Policies.UCBopt</text>
</g>
<!-- 17&#45;&gt;46 -->
<g id="edge52" class="edge"><title>17&#45;&gt;46</title>
<path fill="none" stroke="black" d="M1742.17,-180.434C1735.05,-190.238 1727.19,-203.077 1723.5,-216 1717.54,-236.864 1723.93,-260.821 1731.18,-278.62"/>
<polygon fill="black" stroke="black" points="1735.23,-287.815 1727.08,-280.474 1733.21,-283.239 1731.2,-278.662 1731.2,-278.662 1731.2,-278.662 1733.21,-283.239 1735.32,-276.85 1735.23,-287.815 1735.23,-287.815"/>
</g>
<!-- 47 -->
<g id="node48" class="node"><title>47</title>
<polygon fill="none" stroke="black" points="1930,-324 1817,-324 1817,-288 1930,-288 1930,-324"/>
<text text-anchor="middle" x="1873.5" y="-302.3" font-family="Times,serif" font-size="14.00">Policies.UCBplus</text>
</g>
<!-- 17&#45;&gt;47 -->
<g id="edge53" class="edge"><title>17&#45;&gt;47</title>
<path fill="none" stroke="black" d="M1752.66,-180.018C1749.34,-199.219 1747.07,-230.56 1761.5,-252 1772.45,-268.26 1789.79,-279.66 1807.59,-287.599"/>
<polygon fill="black" stroke="black" points="1816.9,-291.442 1805.94,-291.789 1812.28,-289.536 1807.66,-287.629 1807.66,-287.629 1807.66,-287.629 1812.28,-289.536 1809.38,-283.469 1816.9,-291.442 1816.9,-291.442"/>
</g>
<!-- 48 -->
<g id="node49" class="node"><title>48</title>
<polygon fill="none" stroke="black" points="2100.5,-324 1948.5,-324 1948.5,-288 2100.5,-288 2100.5,-324"/>
<text text-anchor="middle" x="2024.5" y="-302.3" font-family="Times,serif" font-size="14.00">Policies.UCBrandomInit</text>
</g>
<!-- 17&#45;&gt;48 -->
<g id="edge54" class="edge"><title>17&#45;&gt;48</title>
<path fill="none" stroke="black" d="M1759.07,-180.177C1763.03,-200.436 1772.6,-233.669 1794.5,-252 1800.28,-256.837 1875.39,-273.62 1938.22,-287.021"/>
<polygon fill="black" stroke="black" points="1948.19,-289.14 1937.47,-291.462 1943.3,-288.1 1938.41,-287.06 1938.41,-287.06 1938.41,-287.06 1943.3,-288.1 1939.34,-282.658 1948.19,-289.14 1948.19,-289.14"/>
</g>
<!-- 49 -->
<g id="node50" class="node"><title>49</title>
<polygon fill="none" stroke="black" points="2647,-396 2522,-396 2522,-360 2647,-360 2647,-396"/>
<text text-anchor="middle" x="2584.5" y="-374.3" font-family="Times,serif" font-size="14.00">Policies.UCBwrong</text>
</g>
<!-- 17&#45;&gt;49 -->
<g id="edge55" class="edge"><title>17&#45;&gt;49</title>
<path fill="none" stroke="black" d="M1786.13,-163.69C1934.54,-167.29 2591.28,-184.938 2620.5,-216 2655.27,-252.963 2624.67,-315.876 2602.53,-351.117"/>
<polygon fill="black" stroke="black" points="2596.85,-359.863 2598.52,-349.026 2599.57,-355.67 2602.3,-351.477 2602.3,-351.477 2602.3,-351.477 2599.57,-355.67 2606.07,-353.928 2596.85,-359.863 2596.85,-359.863"/>
</g>
<!-- 50 -->
<g id="node51" class="node"><title>50</title>
<polygon fill="none" stroke="black" points="1157.5,-324 1047.5,-324 1047.5,-288 1157.5,-288 1157.5,-324"/>
<text text-anchor="middle" x="1102.5" y="-302.3" font-family="Times,serif" font-size="14.00">Policies.Uniform</text>
</g>
<!-- 17&#45;&gt;50 -->
<g id="edge56" class="edge"><title>17&#45;&gt;50</title>
<path fill="none" stroke="black" d="M1726.82,-164.154C1630.57,-168.186 1328.02,-183.222 1236.5,-216 1214.9,-223.737 1165.82,-258.208 1133.44,-281.907"/>
<polygon fill="black" stroke="black" points="1125.19,-287.976 1130.58,-278.425 1129.22,-285.013 1133.24,-282.05 1133.24,-282.05 1133.24,-282.05 1129.22,-285.013 1135.91,-285.675 1125.19,-287.976 1125.19,-287.976"/>
</g>
<!-- 51 -->
<g id="node52" class="node"><title>51</title>
<polygon fill="none" stroke="black" points="1161.5,-252 1003.5,-252 1003.5,-216 1161.5,-216 1161.5,-252"/>
<text text-anchor="middle" x="1082.5" y="-230.3" font-family="Times,serif" font-size="14.00">Policies.UniformOnSome</text>
</g>
<!-- 17&#45;&gt;51 -->
<g id="edge57" class="edge"><title>17&#45;&gt;51</title>
<path fill="none" stroke="black" d="M1726.77,-164.765C1640.98,-170.063 1385.74,-187.254 1175.5,-216 1174.22,-216.175 1172.93,-216.356 1171.63,-216.541"/>
<polygon fill="black" stroke="black" points="1161.57,-218.047 1170.79,-212.116 1166.52,-217.307 1171.46,-216.566 1171.46,-216.566 1171.46,-216.566 1166.52,-217.307 1172.13,-221.017 1161.57,-218.047 1161.57,-218.047"/>
</g>
<!-- 52 -->
<g id="node53" class="node"><title>52</title>
<polygon fill="none" stroke="black" points="2345,-324 2244,-324 2244,-288 2345,-288 2345,-324"/>
<text text-anchor="middle" x="2294.5" y="-302.3" font-family="Times,serif" font-size="14.00">Policies.klUCB</text>
</g>
<!-- 17&#45;&gt;52 -->
<g id="edge58" class="edge"><title>17&#45;&gt;52</title>
<path fill="none" stroke="black" d="M1786.14,-163.103C1908.1,-163.829 2366.75,-169.645 2409.5,-216 2420.35,-227.762 2418.13,-238.525 2409.5,-252 2402.64,-262.712 2378.49,-274.569 2354.07,-284.347"/>
<polygon fill="black" stroke="black" points="2344.74,-287.986 2352.42,-280.161 2349.4,-286.17 2354.06,-284.354 2354.06,-284.354 2354.06,-284.354 2349.4,-286.17 2355.69,-288.546 2344.74,-287.986 2344.74,-287.986"/>
</g>
<!-- 53 -->
<g id="node54" class="node"><title>53</title>
<polygon fill="none" stroke="black" points="2590.5,-252 2456.5,-252 2456.5,-216 2590.5,-216 2590.5,-252"/>
<text text-anchor="middle" x="2523.5" y="-230.3" font-family="Times,serif" font-size="14.00">Policies.klUCBHPlus</text>
</g>
<!-- 17&#45;&gt;53 -->
<g id="edge59" class="edge"><title>17&#45;&gt;53</title>
<path fill="none" stroke="black" d="M1786.07,-163.913C1881.54,-167.154 2190.04,-179.91 2442.5,-216 2443.78,-216.183 2445.07,-216.374 2446.37,-216.573"/>
<polygon fill="black" stroke="black" points="2456.44,-218.225 2445.84,-221.046 2451.5,-217.415 2446.57,-216.605 2446.57,-216.605 2446.57,-216.605 2451.5,-217.415 2447.3,-212.165 2456.44,-218.225 2456.44,-218.225"/>
</g>
<!-- 54 -->
<g id="node55" class="node"><title>54</title>
<polygon fill="none" stroke="black" points="1929,-252 1804,-252 1804,-216 1929,-216 1929,-252"/>
<text text-anchor="middle" x="1866.5" y="-230.3" font-family="Times,serif" font-size="14.00">Policies.klUCBPlus</text>
</g>
<!-- 17&#45;&gt;54 -->
<g id="edge60" class="edge"><title>17&#45;&gt;54</title>
<path fill="none" stroke="black" d="M1783.41,-180.124C1797.66,-189.192 1815.35,-200.448 1830.74,-210.241"/>
<polygon fill="black" stroke="black" points="1839.49,-215.81 1828.63,-214.238 1835.27,-213.126 1831.05,-210.441 1831.05,-210.441 1831.05,-210.441 1835.27,-213.126 1833.47,-206.645 1839.49,-215.81 1839.49,-215.81"/>
</g>
<!-- 55 -->
<g id="node56" class="node"><title>55</title>
<polygon fill="none" stroke="black" points="2079.5,-252 1947.5,-252 1947.5,-216 2079.5,-216 2079.5,-252"/>
<text text-anchor="middle" x="2013.5" y="-230.3" font-family="Times,serif" font-size="14.00">Policies.klUCBlog10</text>
</g>
<!-- 17&#45;&gt;55 -->
<g id="edge61" class="edge"><title>17&#45;&gt;55</title>
<path fill="none" stroke="black" d="M1786.23,-171.098C1823.91,-181.359 1890.1,-199.389 1941.37,-213.353"/>
<polygon fill="black" stroke="black" points="1951.08,-215.999 1940.25,-217.712 1946.26,-214.684 1941.43,-213.37 1941.43,-213.37 1941.43,-213.37 1946.26,-214.684 1942.61,-209.029 1951.08,-215.999 1951.08,-215.999"/>
</g>
<!-- 56 -->
<g id="node57" class="node"><title>56</title>
<polygon fill="none" stroke="black" points="2233.5,-252 2097.5,-252 2097.5,-216 2233.5,-216 2233.5,-252"/>
<text text-anchor="middle" x="2165.5" y="-230.3" font-family="Times,serif" font-size="14.00">Policies.klUCBloglog</text>
</g>
<!-- 17&#45;&gt;56 -->
<g id="edge62" class="edge"><title>17&#45;&gt;56</title>
<path fill="none" stroke="black" d="M1786.36,-167.164C1843.05,-175.198 1970.33,-193.856 2087.27,-215.821"/>
<polygon fill="black" stroke="black" points="2097.11,-217.681 2086.45,-220.245 2092.2,-216.752 2087.28,-215.823 2087.28,-215.823 2087.28,-215.823 2092.2,-216.752 2088.12,-211.401 2097.11,-217.681 2097.11,-217.681"/>
</g>
<!-- 57 -->
<g id="node58" class="node"><title>57</title>
<polygon fill="none" stroke="black" points="2401,-252 2252,-252 2252,-216 2401,-216 2401,-252"/>
<text text-anchor="middle" x="2326.5" y="-230.3" font-family="Times,serif" font-size="14.00">Policies.klUCBloglog10</text>
</g>
<!-- 17&#45;&gt;57 -->
<g id="edge63" class="edge"><title>17&#45;&gt;57</title>
<path fill="none" stroke="black" d="M1786.21,-165.291C1860.94,-171.256 2062.89,-188.623 2241.79,-215.975"/>
<polygon fill="black" stroke="black" points="2251.91,-217.537 2241.34,-220.459 2246.97,-216.775 2242.03,-216.012 2242.03,-216.012 2242.03,-216.012 2246.97,-216.775 2242.71,-211.565 2251.91,-217.537 2251.91,-217.537"/>
</g>
<!-- 58 -->
<g id="node59" class="node"><title>58</title>
<polygon fill="none" stroke="black" points="2490.5,-396 2380.5,-396 2380.5,-360 2490.5,-360 2490.5,-396"/>
<text text-anchor="middle" x="2435.5" y="-374.3" font-family="Times,serif" font-size="14.00">Policies.kullback</text>
</g>
<!-- 17&#45;&gt;58 -->
<g id="edge64" class="edge"><title>17&#45;&gt;58</title>
<path fill="none" stroke="black" d="M1786.37,-163.743C1933.04,-167.536 2571.08,-185.735 2599.5,-216 2648.12,-267.77 2549.84,-325.382 2485.44,-355.685"/>
<polygon fill="black" stroke="black" points="2476.21,-359.954 2483.4,-351.673 2480.75,-357.856 2485.28,-355.758 2485.28,-355.758 2485.28,-355.758 2480.75,-357.856 2487.17,-359.843 2476.21,-359.954 2476.21,-359.954"/>
</g>
<!-- 20 -->
<g id="node21" class="node"><title>20</title>
<polygon fill="none" stroke="black" points="1143.5,-540 1019.5,-540 1019.5,-504 1143.5,-504 1143.5,-540"/>
<text text-anchor="middle" x="1081.5" y="-518.3" font-family="Times,serif" font-size="14.00">Policies.BasePolicy</text>
</g>
<!-- 18&#45;&gt;20 -->
<g id="edge65" class="edge"><title>18&#45;&gt;20</title>
<path fill="none" stroke="black" d="M2981.8,-324.001C2985.26,-357.612 2987.43,-432.384 2944.5,-468 2909.43,-497.1 1492.46,-516.037 1153.7,-520.154"/>
<polygon fill="black" stroke="black" points="1143.52,-520.277 1153.47,-515.657 1148.52,-520.217 1153.52,-520.156 1153.52,-520.156 1153.52,-520.156 1148.52,-520.217 1153.57,-524.656 1143.52,-520.277 1143.52,-520.277"/>
</g>
<!-- 23 -->
<g id="node24" class="node"><title>23</title>
<polygon fill="none" stroke="black" points="2923.5,-396 2835.5,-396 2835.5,-360 2923.5,-360 2923.5,-396"/>
<text text-anchor="middle" x="2879.5" y="-374.3" font-family="Times,serif" font-size="14.00">Policies.Beta</text>
</g>
<!-- 18&#45;&gt;23 -->
<g id="edge66" class="edge"><title>18&#45;&gt;23</title>
<path fill="none" stroke="black" d="M2955.04,-324.124C2942.2,-333.107 2926.3,-344.237 2912.41,-353.966"/>
<polygon fill="black" stroke="black" points="2904.06,-359.81 2909.67,-350.389 2908.15,-356.943 2912.25,-354.076 2912.25,-354.076 2912.25,-354.076 2908.15,-356.943 2914.83,-357.762 2904.06,-359.81 2904.06,-359.81"/>
</g>
<!-- 19&#45;&gt;20 -->
<g id="edge67" class="edge"><title>19&#45;&gt;20</title>
<path fill="none" stroke="black" d="M2995.8,-465.027C2990.67,-466.212 2985.5,-467.245 2980.5,-468 2618.52,-522.652 1456.35,-522.374 1153.97,-521.336"/>
<polygon fill="black" stroke="black" points="1143.58,-521.299 1153.59,-516.835 1148.58,-521.317 1153.58,-521.335 1153.58,-521.335 1153.58,-521.335 1148.58,-521.317 1153.56,-525.835 1143.58,-521.299 1143.58,-521.299"/>
</g>
<!-- 22 -->
<g id="node23" class="node"><title>22</title>
<polygon fill="none" stroke="black" points="2862.5,-324 2684.5,-324 2684.5,-288 2862.5,-288 2862.5,-324"/>
<text text-anchor="middle" x="2773.5" y="-302.3" font-family="Times,serif" font-size="14.00">Policies.BayesianIndexPolicy</text>
</g>
<!-- 21&#45;&gt;22 -->
<g id="edge68" class="edge"><title>21&#45;&gt;22</title>
<path fill="none" stroke="black" d="M2858.86,-252.124C2844.08,-261.276 2825.71,-272.658 2809.8,-282.515"/>
<polygon fill="black" stroke="black" points="2801.25,-287.81 2807.38,-278.719 2805.5,-285.177 2809.75,-282.544 2809.75,-282.544 2809.75,-282.544 2805.5,-285.177 2812.12,-286.37 2801.25,-287.81 2801.25,-287.81"/>
</g>
<!-- 22&#45;&gt;23 -->
<g id="edge69" class="edge"><title>22&#45;&gt;23</title>
<path fill="none" stroke="black" d="M2799.43,-324.124C2813.16,-333.192 2830.21,-344.448 2845.04,-354.241"/>
<polygon fill="black" stroke="black" points="2853.47,-359.81 2842.65,-358.055 2849.3,-357.055 2845.13,-354.3 2845.13,-354.3 2845.13,-354.3 2849.3,-357.055 2847.6,-350.544 2853.47,-359.81 2853.47,-359.81"/>
</g>
<!-- 30 -->
<g id="node31" class="node"><title>30</title>
<polygon fill="none" stroke="black" points="2384.5,-468 2256.5,-468 2256.5,-432 2384.5,-432 2384.5,-468"/>
<text text-anchor="middle" x="2320.5" y="-446.3" font-family="Times,serif" font-size="14.00">Policies.IndexPolicy</text>
</g>
<!-- 22&#45;&gt;30 -->
<g id="edge70" class="edge"><title>22&#45;&gt;30</title>
<path fill="none" stroke="black" d="M2751.12,-324.095C2717.66,-349.621 2658.21,-394.85 2655.5,-396 2570.78,-431.975 2464.62,-443.777 2394.79,-447.514"/>
<polygon fill="black" stroke="black" points="2384.76,-448.009 2394.53,-443.022 2389.75,-447.763 2394.75,-447.516 2394.75,-447.516 2394.75,-447.516 2389.75,-447.763 2394.97,-452.011 2384.76,-448.009 2384.76,-448.009"/>
</g>
<!-- 35 -->
<g id="node36" class="node"><title>35</title>
<polygon fill="none" stroke="black" points="2935.5,-468 2823.5,-468 2823.5,-432 2935.5,-432 2935.5,-468"/>
<text text-anchor="middle" x="2879.5" y="-446.3" font-family="Times,serif" font-size="14.00">Policies.Posterior</text>
</g>
<!-- 23&#45;&gt;35 -->
<g id="edge71" class="edge"><title>23&#45;&gt;35</title>
<path fill="none" stroke="black" d="M2879.5,-396.303C2879.5,-404.017 2879.5,-413.288 2879.5,-421.888"/>
<polygon fill="black" stroke="black" points="2879.5,-431.896 2875,-421.896 2879.5,-426.896 2879.5,-421.896 2879.5,-421.896 2879.5,-421.896 2879.5,-426.896 2884,-421.896 2879.5,-431.896 2879.5,-431.896"/>
</g>
<!-- 24&#45;&gt;28 -->
<g id="edge72" class="edge"><title>24&#45;&gt;28</title>
<path fill="none" stroke="black" d="M3514.85,-252.124C3493.25,-261.693 3466.15,-273.7 3443.23,-283.852"/>
<polygon fill="black" stroke="black" points="3434.03,-287.932 3441.35,-279.767 3438.6,-285.906 3443.17,-283.881 3443.17,-283.881 3443.17,-283.881 3438.6,-285.906 3444.99,-287.995 3434.03,-287.932 3434.03,-287.932"/>
</g>
<!-- 25&#45;&gt;28 -->
<g id="edge73" class="edge"><title>25&#45;&gt;28</title>
<path fill="none" stroke="black" d="M3669.41,-252.034C3610.97,-263.335 3534.8,-278.063 3477.63,-289.119"/>
<polygon fill="black" stroke="black" points="3467.54,-291.07 3476.5,-284.753 3472.45,-290.12 3477.36,-289.171 3477.36,-289.171 3477.36,-289.171 3472.45,-290.12 3478.21,-293.589 3467.54,-291.07 3467.54,-291.07"/>
</g>
<!-- 26&#45;&gt;28 -->
<g id="edge74" class="edge"><title>26&#45;&gt;28</title>
<path fill="none" stroke="black" d="M3227.52,-252.034C3258.95,-261.943 3298.73,-274.486 3331.69,-284.879"/>
<polygon fill="black" stroke="black" points="3341.23,-287.889 3330.34,-289.174 3336.47,-286.386 3331.7,-284.882 3331.7,-284.882 3331.7,-284.882 3336.47,-286.386 3333.05,-280.59 3341.23,-287.889 3341.23,-287.889"/>
</g>
<!-- 27&#45;&gt;28 -->
<g id="edge75" class="edge"><title>27&#45;&gt;28</title>
<path fill="none" stroke="black" d="M3360.87,-252.303C3366.22,-260.441 3372.7,-270.311 3378.61,-279.299"/>
<polygon fill="black" stroke="black" points="3384.26,-287.896 3375.01,-282.01 3381.51,-283.717 3378.77,-279.539 3378.77,-279.539 3378.77,-279.539 3381.51,-283.717 3382.53,-277.067 3384.26,-287.896 3384.26,-287.896"/>
</g>
<!-- 28&#45;&gt;20 -->
<g id="edge76" class="edge"><title>28&#45;&gt;20</title>
<path fill="none" stroke="black" d="M3372.61,-324.22C3324.44,-359.292 3207.76,-438.204 3095.5,-468 2905.19,-518.509 1491.58,-521.169 1153.83,-521.077"/>
<polygon fill="black" stroke="black" points="1143.68,-521.073 1153.68,-516.577 1148.68,-521.075 1153.68,-521.077 1153.68,-521.077 1153.68,-521.077 1148.68,-521.075 1153.68,-525.577 1143.68,-521.073 1143.68,-521.073"/>
</g>
<!-- 29&#45;&gt;20 -->
<g id="edge77" class="edge"><title>29&#45;&gt;20</title>
<path fill="none" stroke="black" d="M578.462,-396.291C582.99,-416.988 593.752,-450.982 617.5,-468 678.594,-511.782 894.571,-519.946 1009.04,-521.12"/>
<polygon fill="black" stroke="black" points="1019.12,-521.208 1009.08,-525.62 1014.12,-521.164 1009.12,-521.121 1009.12,-521.121 1009.12,-521.121 1014.12,-521.164 1009.16,-516.621 1019.12,-521.208 1019.12,-521.208"/>
</g>
<!-- 30&#45;&gt;20 -->
<g id="edge78" class="edge"><title>30&#45;&gt;20</title>
<path fill="none" stroke="black" d="M2256.5,-454.616C2046.01,-466.508 1376.08,-504.357 1153.89,-516.91"/>
<polygon fill="black" stroke="black" points="1143.65,-517.489 1153.38,-512.432 1148.64,-517.207 1153.63,-516.925 1153.63,-516.925 1153.63,-516.925 1148.64,-517.207 1153.89,-521.418 1143.65,-517.489 1143.65,-517.489"/>
</g>
<!-- 31 -->
<g id="node32" class="node"><title>31</title>
<polygon fill="none" stroke="black" points="2496,-324 2363,-324 2363,-288 2496,-288 2496,-324"/>
<text text-anchor="middle" x="2429.5" y="-302.3" font-family="Times,serif" font-size="14.00">Policies.KLempUCB</text>
</g>
<!-- 31&#45;&gt;30 -->
<g id="edge79" class="edge"><title>31&#45;&gt;30</title>
<path fill="none" stroke="black" d="M2407.58,-324.213C2396.01,-333.952 2382.07,-346.799 2371.5,-360 2355.86,-379.529 2342.02,-404.432 2332.72,-422.926"/>
<polygon fill="black" stroke="black" points="2328.29,-431.951 2328.66,-420.991 2330.49,-427.463 2332.7,-422.976 2332.7,-422.976 2332.7,-422.976 2330.49,-427.463 2336.74,-424.961 2328.29,-431.951 2328.29,-431.951"/>
</g>
<!-- 31&#45;&gt;58 -->
<g id="edge80" class="edge"><title>31&#45;&gt;58</title>
<path fill="none" stroke="black" d="M2430.98,-324.303C2431.64,-332.017 2432.44,-341.288 2433.18,-349.888"/>
<polygon fill="black" stroke="black" points="2434.03,-359.896 2428.7,-350.317 2433.61,-354.914 2433.18,-349.932 2433.18,-349.932 2433.18,-349.932 2433.61,-354.914 2437.66,-349.548 2434.03,-359.896 2434.03,-359.896"/>
</g>
<!-- 32&#45;&gt;20 -->
<g id="edge81" class="edge"><title>32&#45;&gt;20</title>
<path fill="none" stroke="black" d="M730.704,-463.799C737.351,-465.289 744.074,-466.729 750.5,-468 839.15,-485.539 942.036,-501.3 1009.27,-510.988"/>
<polygon fill="black" stroke="black" points="1019.34,-512.431 1008.8,-515.466 1014.39,-511.721 1009.44,-511.012 1009.44,-511.012 1009.44,-511.012 1014.39,-511.721 1010.08,-506.557 1019.34,-512.431 1019.34,-512.431"/>
</g>
<!-- 33&#45;&gt;30 -->
<g id="edge82" class="edge"><title>33&#45;&gt;30</title>
<path fill="none" stroke="black" d="M2713.76,-392.303C2707.96,-393.64 2702.11,-394.906 2696.5,-396 2592.47,-416.278 2470.8,-431.991 2394.68,-440.874"/>
<polygon fill="black" stroke="black" points="2384.71,-442.029 2394.12,-436.408 2389.68,-441.453 2394.64,-440.878 2394.64,-440.878 2394.64,-440.878 2389.68,-441.453 2395.16,-445.348 2384.71,-442.029 2384.71,-442.029"/>
</g>
<!-- 34&#45;&gt;20 -->
<g id="edge83" class="edge"><title>34&#45;&gt;20</title>
<path fill="none" stroke="black" d="M890.067,-468.034C926.185,-478.028 971.993,-490.702 1009.74,-501.146"/>
<polygon fill="black" stroke="black" points="1019.66,-503.889 1008.82,-505.56 1014.84,-502.556 1010.02,-501.223 1010.02,-501.223 1010.02,-501.223 1014.84,-502.556 1011.22,-496.885 1019.66,-503.889 1019.66,-503.889"/>
</g>
<!-- 36&#45;&gt;20 -->
<g id="edge84" class="edge"><title>36&#45;&gt;20</title>
<path fill="none" stroke="black" d="M1002.19,-468.124C1015.79,-477.192 1032.67,-488.448 1047.36,-498.241"/>
<polygon fill="black" stroke="black" points="1055.72,-503.81 1044.9,-502.007 1051.56,-501.037 1047.39,-498.263 1047.39,-498.263 1047.39,-498.263 1051.56,-501.037 1049.89,-494.519 1055.72,-503.81 1055.72,-503.81"/>
</g>
<!-- 37&#45;&gt;20 -->
<g id="edge85" class="edge"><title>37&#45;&gt;20</title>
<path fill="none" stroke="black" d="M969.381,-324.237C986.714,-347.841 1017.97,-391.877 1040.5,-432 1051.96,-452.4 1062.94,-476.568 1070.65,-494.568"/>
<polygon fill="black" stroke="black" points="1074.57,-503.87 1066.54,-496.408 1072.63,-499.264 1070.68,-494.658 1070.68,-494.658 1070.68,-494.658 1072.63,-499.264 1074.83,-492.907 1074.57,-503.87 1074.57,-503.87"/>
</g>
<!-- 38&#45;&gt;37 -->
<g id="edge86" class="edge"><title>38&#45;&gt;37</title>
<path fill="none" stroke="black" d="M876.431,-252.124C890.162,-261.192 907.206,-272.448 922.036,-282.241"/>
<polygon fill="black" stroke="black" points="930.47,-287.81 919.645,-286.055 926.297,-285.055 922.125,-282.3 922.125,-282.3 922.125,-282.3 926.297,-285.055 924.605,-278.544 930.47,-287.81 930.47,-287.81"/>
</g>
<!-- 39&#45;&gt;22 -->
<g id="edge87" class="edge"><title>39&#45;&gt;22</title>
<path fill="none" stroke="black" d="M2752.42,-252.303C2755.57,-260.187 2759.38,-269.696 2762.88,-278.454"/>
<polygon fill="black" stroke="black" points="2766.66,-287.896 2758.77,-280.282 2764.8,-283.253 2762.94,-278.611 2762.94,-278.611 2762.94,-278.611 2764.8,-283.253 2767.12,-276.94 2766.66,-287.896 2766.66,-287.896"/>
</g>
<!-- 40&#45;&gt;30 -->
<g id="edge88" class="edge"><title>40&#45;&gt;30</title>
<path fill="none" stroke="black" d="M1790.18,-384.551C1889.33,-396.601 2125.07,-425.25 2246.06,-439.953"/>
<polygon fill="black" stroke="black" points="2256.34,-441.202 2245.87,-444.463 2251.37,-440.599 2246.41,-439.996 2246.41,-439.996 2246.41,-439.996 2251.37,-440.599 2246.95,-435.529 2256.34,-441.202 2256.34,-441.202"/>
</g>
<!-- 41&#45;&gt;40 -->
<g id="edge89" class="edge"><title>41&#45;&gt;40</title>
<path fill="none" stroke="black" d="M1651.59,-324.124C1667.82,-333.361 1688.04,-344.869 1705.47,-354.788"/>
<polygon fill="black" stroke="black" points="1714.3,-359.81 1703.38,-358.775 1709.95,-357.337 1705.6,-354.864 1705.6,-354.864 1705.6,-354.864 1709.95,-357.337 1707.83,-350.953 1714.3,-359.81 1714.3,-359.81"/>
</g>
<!-- 42&#45;&gt;41 -->
<g id="edge90" class="edge"><title>42&#45;&gt;41</title>
<path fill="none" stroke="black" d="M1609.46,-252.303C1611.22,-260.017 1613.34,-269.288 1615.3,-277.888"/>
<polygon fill="black" stroke="black" points="1617.59,-287.896 1610.98,-279.15 1616.48,-283.021 1615.36,-278.147 1615.36,-278.147 1615.36,-278.147 1616.48,-283.021 1619.75,-277.144 1617.59,-287.896 1617.59,-287.896"/>
</g>
<!-- 43&#45;&gt;40 -->
<g id="edge91" class="edge"><title>43&#45;&gt;40</title>
<path fill="none" stroke="black" d="M1552.54,-323.678C1593.96,-335.184 1648.63,-350.37 1689.03,-361.592"/>
<polygon fill="black" stroke="black" points="1698.72,-364.282 1687.88,-365.942 1693.9,-362.944 1689.08,-361.606 1689.08,-361.606 1689.08,-361.606 1693.9,-362.944 1690.29,-357.27 1698.72,-364.282 1698.72,-364.282"/>
</g>
<!-- 44&#45;&gt;30 -->
<g id="edge92" class="edge"><title>44&#45;&gt;30</title>
<path fill="none" stroke="black" d="M1374.86,-324.043C1448.17,-344.41 1576.97,-377.988 1689.5,-396 1889.12,-427.95 2127.54,-441.347 2246.02,-446.359"/>
<polygon fill="black" stroke="black" points="2256.07,-446.776 2245.9,-450.857 2251.08,-446.568 2246.08,-446.361 2246.08,-446.361 2246.08,-446.361 2251.08,-446.568 2246.27,-441.865 2256.07,-446.776 2256.07,-446.776"/>
</g>
<!-- 45&#45;&gt;44 -->
<g id="edge93" class="edge"><title>45&#45;&gt;44</title>
<path fill="none" stroke="black" d="M1327.54,-252.303C1325.78,-260.017 1323.66,-269.288 1321.7,-277.888"/>
<polygon fill="black" stroke="black" points="1319.41,-287.896 1317.25,-277.144 1320.52,-283.021 1321.64,-278.147 1321.64,-278.147 1321.64,-278.147 1320.52,-283.021 1326.02,-279.15 1319.41,-287.896 1319.41,-287.896"/>
</g>
<!-- 46&#45;&gt;40 -->
<g id="edge94" class="edge"><title>46&#45;&gt;40</title>
<path fill="none" stroke="black" d="M1744.5,-324.303C1744.5,-332.017 1744.5,-341.288 1744.5,-349.888"/>
<polygon fill="black" stroke="black" points="1744.5,-359.896 1740,-349.896 1744.5,-354.896 1744.5,-349.896 1744.5,-349.896 1744.5,-349.896 1744.5,-354.896 1749,-349.896 1744.5,-359.896 1744.5,-359.896"/>
</g>
<!-- 47&#45;&gt;40 -->
<g id="edge95" class="edge"><title>47&#45;&gt;40</title>
<path fill="none" stroke="black" d="M1841.94,-324.124C1824.84,-333.404 1803.52,-344.975 1785.18,-354.925"/>
<polygon fill="black" stroke="black" points="1776.18,-359.81 1782.82,-351.086 1780.57,-357.426 1784.97,-355.041 1784.97,-355.041 1784.97,-355.041 1780.57,-357.426 1787.11,-358.996 1776.18,-359.81 1776.18,-359.81"/>
</g>
<!-- 48&#45;&gt;40 -->
<g id="edge96" class="edge"><title>48&#45;&gt;40</title>
<path fill="none" stroke="black" d="M1956.36,-324.034C1908.35,-336.036 1844.88,-351.905 1799.96,-363.134"/>
<polygon fill="black" stroke="black" points="1790.1,-365.599 1798.71,-358.808 1794.96,-364.386 1799.81,-363.173 1799.81,-363.173 1799.81,-363.173 1794.96,-364.386 1800.9,-367.539 1790.1,-365.599 1790.1,-365.599"/>
</g>
<!-- 49&#45;&gt;30 -->
<g id="edge97" class="edge"><title>49&#45;&gt;30</title>
<path fill="none" stroke="black" d="M2521.94,-395.589C2483.76,-405.711 2434.76,-418.705 2394.64,-429.341"/>
<polygon fill="black" stroke="black" points="2384.91,-431.922 2393.42,-425.009 2389.74,-430.64 2394.58,-429.359 2394.58,-429.359 2394.58,-429.359 2389.74,-430.64 2395.73,-433.708 2384.91,-431.922 2384.91,-431.922"/>
</g>
<!-- 50&#45;&gt;20 -->
<g id="edge98" class="edge"><title>50&#45;&gt;20</title>
<path fill="none" stroke="black" d="M1100.82,-324.151C1097.18,-361.168 1088.58,-448.819 1084.19,-493.614"/>
<polygon fill="black" stroke="black" points="1083.19,-503.768 1079.69,-493.376 1083.68,-498.791 1084.17,-493.815 1084.17,-493.815 1084.17,-493.815 1083.68,-498.791 1088.65,-494.255 1083.19,-503.768 1083.19,-503.768"/>
</g>
<!-- 51&#45;&gt;50 -->
<g id="edge99" class="edge"><title>51&#45;&gt;50</title>
<path fill="none" stroke="black" d="M1087.44,-252.303C1089.67,-260.102 1092.35,-269.491 1094.83,-278.171"/>
<polygon fill="black" stroke="black" points="1097.61,-287.896 1090.54,-279.517 1096.24,-283.088 1094.87,-278.28 1094.87,-278.28 1094.87,-278.28 1096.24,-283.088 1099.19,-277.044 1097.61,-287.896 1097.61,-287.896"/>
</g>
<!-- 52&#45;&gt;30 -->
<g id="edge100" class="edge"><title>52&#45;&gt;30</title>
<path fill="none" stroke="black" d="M2297.64,-324.129C2302.07,-348.33 2310.21,-392.789 2315.48,-421.607"/>
<polygon fill="black" stroke="black" points="2317.35,-431.811 2311.13,-422.785 2316.45,-426.892 2315.55,-421.974 2315.55,-421.974 2315.55,-421.974 2316.45,-426.892 2319.98,-421.164 2317.35,-431.811 2317.35,-431.811"/>
</g>
<!-- 52&#45;&gt;58 -->
<g id="edge101" class="edge"><title>52&#45;&gt;58</title>
<path fill="none" stroke="black" d="M2328.99,-324.124C2347.94,-333.531 2371.63,-345.292 2391.86,-355.333"/>
<polygon fill="black" stroke="black" points="2400.87,-359.81 2389.92,-359.394 2396.4,-357.587 2391.92,-355.363 2391.92,-355.363 2391.92,-355.363 2396.4,-357.587 2393.92,-351.333 2400.87,-359.81 2400.87,-359.81"/>
</g>
<!-- 53&#45;&gt;52 -->
<g id="edge102" class="edge"><title>53&#45;&gt;52</title>
<path fill="none" stroke="black" d="M2467.77,-252.034C2433.65,-262.466 2389.96,-275.819 2355,-286.507"/>
<polygon fill="black" stroke="black" points="2345.38,-289.447 2353.63,-282.22 2350.16,-287.985 2354.94,-286.523 2354.94,-286.523 2354.94,-286.523 2350.16,-287.985 2356.26,-290.827 2345.38,-289.447 2345.38,-289.447"/>
</g>
<!-- 53&#45;&gt;58 -->
<g id="edge103" class="edge"><title>53&#45;&gt;58</title>
<path fill="none" stroke="black" d="M2523.3,-252.042C2522.33,-270.984 2518.5,-301.822 2504.5,-324 2497.11,-335.706 2486.17,-345.822 2475.17,-353.987"/>
<polygon fill="black" stroke="black" points="2466.8,-359.845 2472.41,-350.424 2470.9,-356.978 2474.99,-354.111 2474.99,-354.111 2474.99,-354.111 2470.9,-356.978 2477.57,-357.797 2466.8,-359.845 2466.8,-359.845"/>
</g>
<!-- 54&#45;&gt;52 -->
<g id="edge104" class="edge"><title>54&#45;&gt;52</title>
<path fill="none" stroke="black" d="M1929.26,-250.147C1932.38,-250.796 1935.47,-251.418 1938.5,-252 2041.58,-271.807 2162.68,-288.441 2233.75,-297.537"/>
<polygon fill="black" stroke="black" points="2243.87,-298.824 2233.38,-302.026 2238.91,-298.193 2233.95,-297.562 2233.95,-297.562 2233.95,-297.562 2238.91,-298.193 2234.52,-293.098 2243.87,-298.824 2243.87,-298.824"/>
</g>
<!-- 55&#45;&gt;52 -->
<g id="edge105" class="edge"><title>55&#45;&gt;52</title>
<path fill="none" stroke="black" d="M2079.74,-251.5C2126.45,-263.136 2188.53,-278.601 2233.92,-289.91"/>
<polygon fill="black" stroke="black" points="2243.63,-292.329 2232.84,-294.278 2238.78,-291.12 2233.93,-289.911 2233.93,-289.911 2233.93,-289.911 2238.78,-291.12 2235.02,-285.545 2243.63,-292.329 2243.63,-292.329"/>
</g>
<!-- 56&#45;&gt;52 -->
<g id="edge106" class="edge"><title>56&#45;&gt;52</title>
<path fill="none" stroke="black" d="M2197.06,-252.124C2214.16,-261.404 2235.48,-272.975 2253.82,-282.925"/>
<polygon fill="black" stroke="black" points="2262.82,-287.81 2251.89,-286.996 2258.43,-285.426 2254.03,-283.041 2254.03,-283.041 2254.03,-283.041 2258.43,-285.426 2256.18,-279.086 2262.82,-287.81 2262.82,-287.81"/>
</g>
<!-- 57&#45;&gt;52 -->
<g id="edge107" class="edge"><title>57&#45;&gt;52</title>
<path fill="none" stroke="black" d="M2318.59,-252.303C2314.95,-260.272 2310.55,-269.9 2306.51,-278.736"/>
<polygon fill="black" stroke="black" points="2302.32,-287.896 2302.38,-276.93 2304.4,-283.348 2306.48,-278.801 2306.48,-278.801 2306.48,-278.801 2304.4,-283.348 2310.57,-280.672 2302.32,-287.896 2302.32,-287.896"/>
</g>
<!-- 59 -->
<g id="node60" class="node"><title>59</title>
<polygon fill="none" stroke="black" points="5786.5,-180 5656.5,-180 5656.5,-144 5786.5,-144 5786.5,-180"/>
<text text-anchor="middle" x="5721.5" y="-158.3" font-family="Times,serif" font-size="14.00">PoliciesMultiPlayers</text>
</g>
<!-- 60 -->
<g id="node61" class="node"><title>60</title>
<polygon fill="none" stroke="black" points="6432,-252 6251,-252 6251,-216 6432,-216 6432,-252"/>
<text text-anchor="middle" x="6341.5" y="-230.3" font-family="Times,serif" font-size="14.00">PoliciesMultiPlayers.ALOHA</text>
</g>
<!-- 59&#45;&gt;60 -->
<g id="edge108" class="edge"><title>59&#45;&gt;60</title>
<path fill="none" stroke="black" d="M5786.65,-168.181C5883.52,-176.204 6071.48,-193 6240.81,-215.816"/>
<polygon fill="black" stroke="black" points="6250.9,-217.186 6240.39,-220.3 6245.95,-216.514 6240.99,-215.841 6240.99,-215.841 6240.99,-215.841 6245.95,-216.514 6241.6,-211.382 6250.9,-217.186 6250.9,-217.186"/>
</g>
<!-- 63 -->
<g id="node64" class="node"><title>63</title>
<polygon fill="none" stroke="black" points="4933,-252 4694,-252 4694,-216 4933,-216 4933,-252"/>
<text text-anchor="middle" x="4813.5" y="-230.3" font-family="Times,serif" font-size="14.00">PoliciesMultiPlayers.CentralizedCycling</text>
</g>
<!-- 59&#45;&gt;63 -->
<g id="edge109" class="edge"><title>59&#45;&gt;63</title>
<path fill="none" stroke="black" d="M5656.5,-166.033C5524.29,-172.505 5214.39,-189.215 4943.32,-215.956"/>
<polygon fill="black" stroke="black" points="4933.29,-216.952 4942.8,-211.486 4938.27,-216.458 4943.24,-215.964 4943.24,-215.964 4943.24,-215.964 4938.27,-216.458 4943.69,-220.442 4933.29,-216.952 4933.29,-216.952"/>
</g>
<!-- 64 -->
<g id="node65" class="node"><title>64</title>
<polygon fill="none" stroke="black" points="5178,-252 4951,-252 4951,-216 5178,-216 5178,-252"/>
<text text-anchor="middle" x="5064.5" y="-230.3" font-family="Times,serif" font-size="14.00">PoliciesMultiPlayers.CentralizedFixed</text>
</g>
<!-- 59&#45;&gt;64 -->
<g id="edge110" class="edge"><title>59&#45;&gt;64</title>
<path fill="none" stroke="black" d="M5656.47,-168.642C5557.7,-177.393 5363.71,-195.281 5188.02,-215.965"/>
<polygon fill="black" stroke="black" points="5178.07,-217.141 5187.48,-211.498 5183.04,-216.554 5188,-215.966 5188,-215.966 5188,-215.966 5183.04,-216.554 5188.53,-220.435 5178.07,-217.141 5178.07,-217.141"/>
</g>
<!-- 65 -->
<g id="node66" class="node"><title>65</title>
<polygon fill="none" stroke="black" points="6717,-252 6450,-252 6450,-216 6717,-216 6717,-252"/>
<text text-anchor="middle" x="6583.5" y="-230.3" font-family="Times,serif" font-size="14.00">PoliciesMultiPlayers.CentralizedMultiplePlay</text>
</g>
<!-- 59&#45;&gt;65 -->
<g id="edge111" class="edge"><title>59&#45;&gt;65</title>
<path fill="none" stroke="black" d="M5786.61,-166.794C5911.29,-174.275 6192.58,-192.208 6439.49,-215.828"/>
<polygon fill="black" stroke="black" points="6449.73,-216.813 6439.35,-220.335 6444.76,-216.334 6439.78,-215.856 6439.78,-215.856 6439.78,-215.856 6444.76,-216.334 6440.21,-211.376 6449.73,-216.813 6449.73,-216.813"/>
</g>
<!-- 68 -->
<g id="node69" class="node"><title>68</title>
<polygon fill="none" stroke="black" points="5387,-252 5196,-252 5196,-216 5387,-216 5387,-252"/>
<text text-anchor="middle" x="5291.5" y="-230.3" font-family="Times,serif" font-size="14.00">PoliciesMultiPlayers.OracleFair</text>
</g>
<!-- 59&#45;&gt;68 -->
<g id="edge112" class="edge"><title>59&#45;&gt;68</title>
<path fill="none" stroke="black" d="M5656.19,-173.631C5587.59,-184.8 5478.61,-202.54 5397.63,-215.723"/>
<polygon fill="black" stroke="black" points="5387.4,-217.389 5396.54,-211.341 5392.33,-216.586 5397.27,-215.782 5397.27,-215.782 5397.27,-215.782 5392.33,-216.586 5397.99,-220.224 5387.4,-217.389 5387.4,-217.389"/>
</g>
<!-- 69 -->
<g id="node70" class="node"><title>69</title>
<polygon fill="none" stroke="black" points="5617.5,-252 5405.5,-252 5405.5,-216 5617.5,-216 5617.5,-252"/>
<text text-anchor="middle" x="5511.5" y="-230.3" font-family="Times,serif" font-size="14.00">PoliciesMultiPlayers.OracleNotFair</text>
</g>
<!-- 59&#45;&gt;69 -->
<g id="edge113" class="edge"><title>59&#45;&gt;69</title>
<path fill="none" stroke="black" d="M5670.4,-180.034C5640.93,-189.858 5603.69,-202.271 5572.67,-212.611"/>
<polygon fill="black" stroke="black" points="5562.83,-215.889 5570.9,-208.458 5567.58,-214.308 5572.32,-212.727 5572.32,-212.727 5572.32,-212.727 5567.58,-214.308 5573.74,-216.996 5562.83,-215.889 5562.83,-215.889"/>
</g>
<!-- 70 -->
<g id="node71" class="node"><title>70</title>
<polygon fill="none" stroke="black" points="6923.5,-252 6735.5,-252 6735.5,-216 6923.5,-216 6923.5,-252"/>
<text text-anchor="middle" x="6829.5" y="-230.3" font-family="Times,serif" font-size="14.00">PoliciesMultiPlayers.Scenario1</text>
</g>
<!-- 59&#45;&gt;70 -->
<g id="edge114" class="edge"><title>59&#45;&gt;70</title>
<path fill="none" stroke="black" d="M5786.66,-163.937C5945.49,-166.758 6365.35,-177.451 6725.17,-215.928"/>
<polygon fill="black" stroke="black" points="6735.26,-217.016 6724.83,-220.418 6730.29,-216.48 6725.32,-215.944 6725.32,-215.944 6725.32,-215.944 6730.29,-216.48 6725.8,-211.47 6735.26,-217.016 6735.26,-217.016"/>
</g>
<!-- 71 -->
<g id="node72" class="node"><title>71</title>
<polygon fill="none" stroke="black" points="5807,-252 5636,-252 5636,-216 5807,-216 5807,-252"/>
<text text-anchor="middle" x="5721.5" y="-230.3" font-family="Times,serif" font-size="14.00">PoliciesMultiPlayers.Selfish</text>
</g>
<!-- 59&#45;&gt;71 -->
<g id="edge115" class="edge"><title>59&#45;&gt;71</title>
<path fill="none" stroke="black" d="M5721.5,-180.303C5721.5,-188.017 5721.5,-197.288 5721.5,-205.888"/>
<polygon fill="black" stroke="black" points="5721.5,-215.896 5717,-205.896 5721.5,-210.896 5721.5,-205.896 5721.5,-205.896 5721.5,-205.896 5721.5,-210.896 5726,-205.896 5721.5,-215.896 5721.5,-215.896"/>
</g>
<!-- 73 -->
<g id="node74" class="node"><title>73</title>
<polygon fill="none" stroke="black" points="6005.5,-252 5825.5,-252 5825.5,-216 6005.5,-216 6005.5,-252"/>
<text text-anchor="middle" x="5915.5" y="-230.3" font-family="Times,serif" font-size="14.00">PoliciesMultiPlayers.rhoRand</text>
</g>
<!-- 59&#45;&gt;73 -->
<g id="edge116" class="edge"><title>59&#45;&gt;73</title>
<path fill="none" stroke="black" d="M5768.96,-180.124C5796.07,-189.906 5830.24,-202.235 5858.76,-212.526"/>
<polygon fill="black" stroke="black" points="5868.2,-215.932 5857.26,-216.77 5863.49,-214.235 5858.79,-212.538 5858.79,-212.538 5858.79,-212.538 5863.49,-214.235 5860.32,-208.305 5868.2,-215.932 5868.2,-215.932"/>
</g>
<!-- 74 -->
<g id="node75" class="node"><title>74</title>
<polygon fill="none" stroke="black" points="6233,-252 6024,-252 6024,-216 6233,-216 6233,-252"/>
<text text-anchor="middle" x="6128.5" y="-230.3" font-family="Times,serif" font-size="14.00">PoliciesMultiPlayers.rhoRandRand</text>
</g>
<!-- 59&#45;&gt;74 -->
<g id="edge117" class="edge"><title>59&#45;&gt;74</title>
<path fill="none" stroke="black" d="M5786.89,-174.247C5849.58,-185.028 5945.37,-201.504 6019.58,-214.267"/>
<polygon fill="black" stroke="black" points="6029.44,-215.963 6018.82,-218.703 6024.52,-215.116 6019.59,-214.268 6019.59,-214.268 6019.59,-214.268 6024.52,-215.116 6020.35,-209.833 6029.44,-215.963 6029.44,-215.963"/>
</g>
<!-- 62 -->
<g id="node63" class="node"><title>62</title>
<polygon fill="none" stroke="black" points="5812,-324 5597,-324 5597,-288 5812,-288 5812,-324"/>
<text text-anchor="middle" x="5704.5" y="-302.3" font-family="Times,serif" font-size="14.00">PoliciesMultiPlayers.BaseMPPolicy</text>
</g>
<!-- 60&#45;&gt;62 -->
<g id="edge118" class="edge"><title>60&#45;&gt;62</title>
<path fill="none" stroke="black" d="M6250.91,-250.872C6248.08,-251.267 6245.27,-251.645 6242.5,-252 6059.51,-275.492 6009.79,-266.81 5822.4,-287.943"/>
<polygon fill="black" stroke="black" points="5812.21,-289.106 5821.64,-283.501 5817.18,-288.539 5822.15,-287.972 5822.15,-287.972 5822.15,-287.972 5817.18,-288.539 5822.66,-292.443 5812.21,-289.106 5812.21,-289.106"/>
</g>
<!-- 66 -->
<g id="node67" class="node"><title>66</title>
<polygon fill="none" stroke="black" points="6033,-324 5830,-324 5830,-288 6033,-288 6033,-324"/>
<text text-anchor="middle" x="5931.5" y="-302.3" font-family="Times,serif" font-size="14.00">PoliciesMultiPlayers.ChildPointer</text>
</g>
<!-- 60&#45;&gt;66 -->
<g id="edge119" class="edge"><title>60&#45;&gt;66</title>
<path fill="none" stroke="black" d="M6250.86,-250.569C6248.04,-251.051 6245.25,-251.53 6242.5,-252 6175.9,-263.393 6101.27,-276.113 6041.81,-286.236"/>
<polygon fill="black" stroke="black" points="6031.65,-287.966 6040.75,-281.851 6036.58,-287.127 6041.51,-286.288 6041.51,-286.288 6041.51,-286.288 6036.58,-287.127 6042.26,-290.724 6031.65,-287.966 6031.65,-287.966"/>
</g>
<!-- 61 -->
<g id="node62" class="node"><title>61</title>
<polygon fill="none" stroke="black" points="5306,-324 5049,-324 5049,-288 5306,-288 5306,-324"/>
<text text-anchor="middle" x="5177.5" y="-302.3" font-family="Times,serif" font-size="14.00">PoliciesMultiPlayers.BaseCentralizedPolicy</text>
</g>
<!-- 63&#45;&gt;61 -->
<g id="edge120" class="edge"><title>63&#45;&gt;61</title>
<path fill="none" stroke="black" d="M4902.08,-252.034C4955.47,-262.302 5023.58,-275.399 5078.7,-286.001"/>
<polygon fill="black" stroke="black" points="5088.84,-287.95 5078.17,-290.48 5083.93,-287.006 5079.02,-286.061 5079.02,-286.061 5079.02,-286.061 5083.93,-287.006 5079.87,-281.642 5088.84,-287.95 5088.84,-287.95"/>
</g>
<!-- 63&#45;&gt;62 -->
<g id="edge121" class="edge"><title>63&#45;&gt;62</title>
<path fill="none" stroke="black" d="M4933.29,-251.042C4936.39,-251.375 4939.47,-251.695 4942.5,-252 5169.99,-274.879 5436.69,-290.981 5586.6,-299.056"/>
<polygon fill="black" stroke="black" points="5596.75,-299.6 5586.52,-303.558 5591.75,-299.333 5586.76,-299.065 5586.76,-299.065 5586.76,-299.065 5591.75,-299.333 5587,-294.571 5596.75,-299.6 5596.75,-299.6"/>
</g>
<!-- 63&#45;&gt;66 -->
<g id="edge122" class="edge"><title>63&#45;&gt;66</title>
<path fill="none" stroke="black" d="M4933.28,-251.158C4936.39,-251.457 4939.46,-251.738 4942.5,-252 5328.72,-285.289 5430.61,-250.683 5819.84,-287.904"/>
<polygon fill="black" stroke="black" points="5829.96,-288.883 5819.58,-292.4 5824.99,-288.402 5820.01,-287.921 5820.01,-287.921 5820.01,-287.921 5824.99,-288.402 5820.44,-283.442 5829.96,-288.883 5829.96,-288.883"/>
</g>
<!-- 64&#45;&gt;61 -->
<g id="edge123" class="edge"><title>64&#45;&gt;61</title>
<path fill="none" stroke="black" d="M5092.14,-252.124C5106.92,-261.276 5125.29,-272.658 5141.2,-282.515"/>
<polygon fill="black" stroke="black" points="5149.75,-287.81 5138.88,-286.37 5145.5,-285.177 5141.25,-282.544 5141.25,-282.544 5141.25,-282.544 5145.5,-285.177 5143.62,-278.719 5149.75,-287.81 5149.75,-287.81"/>
</g>
<!-- 64&#45;&gt;62 -->
<g id="edge124" class="edge"><title>64&#45;&gt;62</title>
<path fill="none" stroke="black" d="M5178.08,-250.846C5181.25,-251.241 5184.4,-251.627 5187.5,-252 5324.4,-268.472 5482.09,-284.165 5586.96,-294.139"/>
<polygon fill="black" stroke="black" points="5596.94,-295.086 5586.56,-298.621 5591.97,-294.614 5586.99,-294.141 5586.99,-294.141 5586.99,-294.141 5591.97,-294.614 5587.41,-289.661 5596.94,-295.086 5596.94,-295.086"/>
</g>
<!-- 64&#45;&gt;66 -->
<g id="edge125" class="edge"><title>64&#45;&gt;66</title>
<path fill="none" stroke="black" d="M5178.05,-251.034C5181.24,-251.374 5184.39,-251.697 5187.5,-252 5465.11,-279.022 5539.1,-258.896 5819.88,-287.889"/>
<polygon fill="black" stroke="black" points="5829.96,-288.942 5819.54,-292.379 5824.99,-288.422 5820.01,-287.903 5820.01,-287.903 5820.01,-287.903 5824.99,-288.422 5820.48,-283.427 5829.96,-288.942 5829.96,-288.942"/>
</g>
<!-- 65&#45;&gt;62 -->
<g id="edge126" class="edge"><title>65&#45;&gt;62</title>
<path fill="none" stroke="black" d="M6449.74,-251.245C6446.97,-251.506 6444.22,-251.758 6441.5,-252 6169.92,-276.119 6097.86,-260.521 5822.5,-287.958"/>
<polygon fill="black" stroke="black" points="5812.2,-288.995 5821.7,-283.516 5817.17,-288.494 5822.15,-287.993 5822.15,-287.993 5822.15,-287.993 5817.17,-288.494 5822.6,-292.471 5812.2,-288.995 5812.2,-288.995"/>
</g>
<!-- 65&#45;&gt;66 -->
<g id="edge127" class="edge"><title>65&#45;&gt;66</title>
<path fill="none" stroke="black" d="M6449.72,-251.075C6446.96,-251.388 6444.21,-251.697 6441.5,-252 6304.51,-267.317 6146.66,-283.495 6043.29,-293.889"/>
<polygon fill="black" stroke="black" points="6033.15,-294.907 6042.65,-289.43 6038.13,-294.408 6043.1,-293.908 6043.1,-293.908 6043.1,-293.908 6038.13,-294.408 6043.55,-298.385 6033.15,-294.907 6033.15,-294.907"/>
</g>
<!-- 67 -->
<g id="node68" class="node"><title>67</title>
<polygon fill="none" stroke="black" points="4197,-36 4032,-36 4032,-0 4197,-0 4197,-36"/>
<text text-anchor="middle" x="4114.5" y="-14.3" font-family="Times,serif" font-size="14.00">PoliciesMultiPlayers.DMC</text>
</g>
<!-- 68&#45;&gt;61 -->
<g id="edge128" class="edge"><title>68&#45;&gt;61</title>
<path fill="none" stroke="black" d="M5263.61,-252.124C5248.71,-261.276 5230.17,-272.658 5214.12,-282.515"/>
<polygon fill="black" stroke="black" points="5205.49,-287.81 5211.66,-278.743 5209.76,-285.194 5214.02,-282.578 5214.02,-282.578 5214.02,-282.578 5209.76,-285.194 5216.37,-286.412 5205.49,-287.81 5205.49,-287.81"/>
</g>
<!-- 68&#45;&gt;62 -->
<g id="edge129" class="edge"><title>68&#45;&gt;62</title>
<path fill="none" stroke="black" d="M5387.03,-251.191C5448.77,-261.656 5529.34,-275.311 5593.86,-286.247"/>
<polygon fill="black" stroke="black" points="5604.07,-287.978 5593.46,-290.744 5599.14,-287.143 5594.21,-286.307 5594.21,-286.307 5594.21,-286.307 5599.14,-287.143 5594.96,-281.87 5604.07,-287.978 5604.07,-287.978"/>
</g>
<!-- 68&#45;&gt;66 -->
<g id="edge130" class="edge"><title>68&#45;&gt;66</title>
<path fill="none" stroke="black" d="M5387.03,-250.782C5390.22,-251.209 5393.38,-251.616 5396.5,-252 5581.43,-274.769 5631.57,-265.831 5819.99,-287.867"/>
<polygon fill="black" stroke="black" points="5829.95,-289.045 5819.49,-292.339 5824.98,-288.457 5820.02,-287.87 5820.02,-287.87 5820.02,-287.87 5824.98,-288.457 5820.54,-283.401 5829.95,-289.045 5829.95,-289.045"/>
</g>
<!-- 69&#45;&gt;61 -->
<g id="edge131" class="edge"><title>69&#45;&gt;61</title>
<path fill="none" stroke="black" d="M5430.22,-252.034C5381.43,-262.259 5319.26,-275.29 5268.78,-285.869"/>
<polygon fill="black" stroke="black" points="5258.85,-287.95 5267.72,-281.494 5263.75,-286.924 5268.64,-285.899 5268.64,-285.899 5268.64,-285.899 5263.75,-286.924 5269.56,-290.303 5258.85,-287.95 5258.85,-287.95"/>
</g>
<!-- 69&#45;&gt;62 -->
<g id="edge132" class="edge"><title>69&#45;&gt;62</title>
<path fill="none" stroke="black" d="M5558.71,-252.124C5585.57,-261.863 5619.38,-274.128 5647.68,-284.392"/>
<polygon fill="black" stroke="black" points="5657.44,-287.932 5646.51,-288.752 5652.74,-286.227 5648.04,-284.522 5648.04,-284.522 5648.04,-284.522 5652.74,-286.227 5649.57,-280.292 5657.44,-287.932 5657.44,-287.932"/>
</g>
<!-- 69&#45;&gt;66 -->
<g id="edge133" class="edge"><title>69&#45;&gt;66</title>
<path fill="none" stroke="black" d="M5613.71,-252.034C5676.05,-262.425 5755.79,-275.715 5819.8,-286.383"/>
<polygon fill="black" stroke="black" points="5829.93,-288.071 5819.32,-290.866 5825,-287.249 5820.06,-286.427 5820.06,-286.427 5820.06,-286.427 5825,-287.249 5820.8,-281.988 5829.93,-288.071 5829.93,-288.071"/>
</g>
<!-- 70&#45;&gt;62 -->
<g id="edge134" class="edge"><title>70&#45;&gt;62</title>
<path fill="none" stroke="black" d="M6735.26,-251.033C6732.31,-251.382 6729.38,-251.706 6726.5,-252 6329.36,-292.515 6224.08,-251.698 5822.34,-287.993"/>
<polygon fill="black" stroke="black" points="5812.19,-288.92 5821.74,-283.529 5817.17,-288.465 5822.15,-288.01 5822.15,-288.01 5822.15,-288.01 5817.17,-288.465 5822.56,-292.492 5812.19,-288.92 5812.19,-288.92"/>
</g>
<!-- 70&#45;&gt;66 -->
<g id="edge135" class="edge"><title>70&#45;&gt;66</title>
<path fill="none" stroke="black" d="M6735.25,-250.931C6732.3,-251.309 6729.38,-251.667 6726.5,-252 6483.87,-280.043 6197.74,-294.615 6043.54,-300.958"/>
<polygon fill="black" stroke="black" points="6033.12,-301.383 6042.93,-296.479 6038.12,-301.179 6043.12,-300.976 6043.12,-300.976 6043.12,-300.976 6038.12,-301.179 6043.3,-305.472 6033.12,-301.383 6033.12,-301.383"/>
</g>
<!-- 71&#45;&gt;62 -->
<g id="edge136" class="edge"><title>71&#45;&gt;62</title>
<path fill="none" stroke="black" d="M5717.3,-252.303C5715.4,-260.102 5713.12,-269.491 5711.02,-278.171"/>
<polygon fill="black" stroke="black" points="5708.65,-287.896 5706.64,-277.116 5709.83,-283.037 5711.01,-278.178 5711.01,-278.178 5711.01,-278.178 5709.83,-283.037 5715.39,-279.24 5708.65,-287.896 5708.65,-287.896"/>
</g>
<!-- 71&#45;&gt;66 -->
<g id="edge137" class="edge"><title>71&#45;&gt;66</title>
<path fill="none" stroke="black" d="M5772.6,-252.034C5802.07,-261.858 5839.31,-274.271 5870.33,-284.611"/>
<polygon fill="black" stroke="black" points="5880.17,-287.889 5869.26,-288.996 5875.42,-286.308 5870.68,-284.727 5870.68,-284.727 5870.68,-284.727 5875.42,-286.308 5872.1,-280.458 5880.17,-287.889 5880.17,-287.889"/>
</g>
<!-- 72 -->
<g id="node73" class="node"><title>72</title>
<polygon fill="none" stroke="black" points="4382,-36 4215,-36 4215,-0 4382,-0 4382,-36"/>
<text text-anchor="middle" x="4298.5" y="-14.3" font-family="Times,serif" font-size="14.00">PoliciesMultiPlayers.TDFS</text>
</g>
<!-- 73&#45;&gt;62 -->
<g id="edge138" class="edge"><title>73&#45;&gt;62</title>
<path fill="none" stroke="black" d="M5864.15,-252.034C5834.54,-261.858 5797.13,-274.271 5765.96,-284.611"/>
<polygon fill="black" stroke="black" points="5756.08,-287.889 5764.15,-280.469 5760.82,-286.315 5765.57,-284.74 5765.57,-284.74 5765.57,-284.74 5760.82,-286.315 5766.99,-289.011 5756.08,-287.889 5756.08,-287.889"/>
</g>
<!-- 73&#45;&gt;66 -->
<g id="edge139" class="edge"><title>73&#45;&gt;66</title>
<path fill="none" stroke="black" d="M5919.46,-252.303C5921.22,-260.017 5923.34,-269.288 5925.3,-277.888"/>
<polygon fill="black" stroke="black" points="5927.59,-287.896 5920.98,-279.15 5926.48,-283.021 5925.36,-278.147 5925.36,-278.147 5925.36,-278.147 5926.48,-283.021 5929.75,-277.144 5927.59,-287.896 5927.59,-287.896"/>
</g>
<!-- 74&#45;&gt;62 -->
<g id="edge140" class="edge"><title>74&#45;&gt;62</title>
<path fill="none" stroke="black" d="M6025.32,-252.034C5962.61,-262.387 5882.48,-275.617 5817.99,-286.264"/>
<polygon fill="black" stroke="black" points="5807.77,-287.95 5816.91,-281.881 5812.71,-287.135 5817.64,-286.321 5817.64,-286.321 5817.64,-286.321 5812.71,-287.135 5818.37,-290.761 5807.77,-287.95 5807.77,-287.95"/>
</g>
<!-- 74&#45;&gt;66 -->
<g id="edge141" class="edge"><title>74&#45;&gt;66</title>
<path fill="none" stroke="black" d="M6080.56,-252.034C6053.03,-261.815 6018.28,-274.164 5989.26,-284.476"/>
<polygon fill="black" stroke="black" points="5979.65,-287.889 5987.57,-280.301 5984.37,-286.215 5989.08,-284.541 5989.08,-284.541 5989.08,-284.541 5984.37,-286.215 5990.58,-288.781 5979.65,-287.889 5979.65,-287.889"/>
</g>
<!-- 75 -->
<g id="node76" class="node"><title>75</title>
<polygon fill="none" stroke="black" points="4454.5,-36 4400.5,-36 4400.5,-0 4454.5,-0 4454.5,-36"/>
<text text-anchor="middle" x="4427.5" y="-14.3" font-family="Times,serif" font-size="14.00">conf</text>
</g>
<!-- 76 -->
<g id="node77" class="node"><title>76</title>
<polygon fill="none" stroke="black" points="532,-108 443,-108 443,-72 532,-72 532,-108"/>
<text text-anchor="middle" x="487.5" y="-86.3" font-family="Times,serif" font-size="14.00">configuration</text>
</g>
<!-- 76&#45;&gt;0 -->
<g id="edge142" class="edge"><title>76&#45;&gt;0</title>
<path fill="none" stroke="black" d="M464.511,-108.303C452.686,-117.204 438.108,-128.177 425.321,-137.801"/>
<polygon fill="black" stroke="black" points="417.224,-143.896 422.508,-134.287 421.219,-140.889 425.214,-137.882 425.214,-137.882 425.214,-137.882 421.219,-140.889 427.92,-141.477 417.224,-143.896 417.224,-143.896"/>
</g>
<!-- 76&#45;&gt;2 -->
<g id="edge143" class="edge"><title>76&#45;&gt;2</title>
<path fill="none" stroke="black" d="M442.85,-105.09C398.797,-119.074 336.483,-139.112 325.5,-144 282.409,-163.176 235.847,-190.956 205.126,-210.362"/>
<polygon fill="black" stroke="black" points="196.509,-215.848 202.528,-206.681 200.727,-213.163 204.945,-210.477 204.945,-210.477 204.945,-210.477 200.727,-213.163 207.362,-214.273 196.509,-215.848 196.509,-215.848"/>
</g>
<!-- 76&#45;&gt;3 -->
<g id="edge144" class="edge"><title>76&#45;&gt;3</title>
<path fill="none" stroke="black" d="M492.084,-108.129C498.589,-132.436 510.563,-177.181 518.271,-205.987"/>
<polygon fill="black" stroke="black" points="520.9,-215.811 513.968,-207.314 519.607,-210.981 518.315,-206.151 518.315,-206.151 518.315,-206.151 519.607,-210.981 522.662,-204.987 520.9,-215.811 520.9,-215.811"/>
</g>
<!-- 76&#45;&gt;4 -->
<g id="edge145" class="edge"><title>76&#45;&gt;4</title>
<path fill="none" stroke="black" d="M442.873,-105.705C439.717,-106.542 436.571,-107.319 433.5,-108 314.451,-134.408 273.64,-96.0964 161.5,-144 143.179,-151.826 103.874,-185.128 77.3038,-208.692"/>
<polygon fill="black" stroke="black" points="69.5042,-215.653 73.9684,-205.637 73.2346,-212.324 76.9649,-208.994 76.9649,-208.994 76.9649,-208.994 73.2346,-212.324 79.9613,-212.352 69.5042,-215.653 69.5042,-215.653"/>
</g>
<!-- 76&#45;&gt;5 -->
<g id="edge146" class="edge"><title>76&#45;&gt;5</title>
<path fill="none" stroke="black" d="M477.247,-108.129C462.505,-132.756 435.206,-178.362 417.994,-207.115"/>
<polygon fill="black" stroke="black" points="412.789,-215.811 414.064,-204.919 415.357,-211.521 417.925,-207.23 417.925,-207.23 417.925,-207.23 415.357,-211.521 421.787,-209.542 412.789,-215.811 412.789,-215.811"/>
</g>
<!-- 76&#45;&gt;17 -->
<g id="edge147" class="edge"><title>76&#45;&gt;17</title>
<path fill="none" stroke="black" d="M532.292,-93.4708C730.668,-104.414 1528.58,-148.428 1716.65,-158.802"/>
<polygon fill="black" stroke="black" points="1726.9,-159.367 1716.67,-163.31 1721.91,-159.092 1716.92,-158.817 1716.92,-158.817 1716.92,-158.817 1721.91,-159.092 1717.17,-154.323 1726.9,-159.367 1726.9,-159.367"/>
</g>
<!-- 77 -->
<g id="node78" class="node"><title>77</title>
<polygon fill="none" stroke="black" points="424.5,-108 146.5,-108 146.5,-72 424.5,-72 424.5,-108"/>
<text text-anchor="middle" x="285.5" y="-86.3" font-family="Times,serif" font-size="14.00">configuration_comparing_KLUCB_aggregation</text>
</g>
<!-- 77&#45;&gt;0 -->
<g id="edge148" class="edge"><title>77&#45;&gt;0</title>
<path fill="none" stroke="black" d="M312.164,-108.124C326.284,-117.192 343.811,-128.448 359.061,-138.241"/>
<polygon fill="black" stroke="black" points="367.733,-143.81 356.887,-142.193 363.526,-141.108 359.319,-138.407 359.319,-138.407 359.319,-138.407 363.526,-141.108 361.75,-134.62 367.733,-143.81 367.733,-143.81"/>
</g>
<!-- 77&#45;&gt;2 -->
<g id="edge149" class="edge"><title>77&#45;&gt;2</title>
<path fill="none" stroke="black" d="M271.628,-108.129C251.511,-132.969 214.108,-179.154 190.861,-207.858"/>
<polygon fill="black" stroke="black" points="184.421,-215.811 187.217,-205.207 187.568,-211.925 190.714,-208.04 190.714,-208.04 190.714,-208.04 187.568,-211.925 194.212,-210.872 184.421,-215.811 184.421,-215.811"/>
</g>
<!-- 77&#45;&gt;3 -->
<g id="edge150" class="edge"><title>77&#45;&gt;3</title>
<path fill="none" stroke="black" d="M349.051,-108.094C375.363,-116.7 405.504,-128.619 430.5,-144 458.921,-161.488 486.161,-188.411 504.127,-208.067"/>
<polygon fill="black" stroke="black" points="511.004,-215.734 500.977,-211.294 507.665,-212.012 504.327,-208.29 504.327,-208.29 504.327,-208.29 507.665,-212.012 507.677,-205.285 511.004,-215.734 511.004,-215.734"/>
</g>
<!-- 77&#45;&gt;4 -->
<g id="edge151" class="edge"><title>77&#45;&gt;4</title>
<path fill="none" stroke="black" d="M184.692,-108.082C158.133,-115.945 130.721,-127.383 108.5,-144 86.9221,-160.136 71.0832,-186.84 61.4604,-206.795"/>
<polygon fill="black" stroke="black" points="57.2379,-215.973 57.3293,-205.008 59.3277,-211.431 61.4175,-206.889 61.4175,-206.889 61.4175,-206.889 59.3277,-211.431 65.5056,-208.769 57.2379,-215.973 57.2379,-215.973"/>
</g>
<!-- 77&#45;&gt;5 -->
<g id="edge152" class="edge"><title>77&#45;&gt;5</title>
<path fill="none" stroke="black" d="M299.465,-108.087C314.135,-126.022 337.895,-155.03 358.5,-180 366.076,-189.181 374.412,-199.234 381.772,-208.094"/>
<polygon fill="black" stroke="black" points="388.207,-215.836 378.354,-211.022 385.011,-211.99 381.815,-208.145 381.815,-208.145 381.815,-208.145 385.011,-211.99 385.275,-205.269 388.207,-215.836 388.207,-215.836"/>
</g>
<!-- 77&#45;&gt;17 -->
<g id="edge153" class="edge"><title>77&#45;&gt;17</title>
<path fill="none" stroke="black" d="M424.516,-107.272C427.537,-107.528 430.535,-107.771 433.5,-108 938.709,-147.08 1554.81,-158.155 1716.24,-160.478"/>
<polygon fill="black" stroke="black" points="1726.64,-160.625 1716.58,-164.983 1721.65,-160.554 1716.65,-160.484 1716.65,-160.484 1716.65,-160.484 1721.65,-160.554 1716.71,-155.984 1726.64,-160.625 1726.64,-160.625"/>
</g>
<!-- 78 -->
<g id="node79" class="node"><title>78</title>
<polygon fill="none" stroke="black" points="1670.5,-108 1506.5,-108 1506.5,-72 1670.5,-72 1670.5,-108"/>
<text text-anchor="middle" x="1588.5" y="-86.3" font-family="Times,serif" font-size="14.00">configuration_multiplayers</text>
</g>
<!-- 78&#45;&gt;0 -->
<g id="edge154" class="edge"><title>78&#45;&gt;0</title>
<path fill="none" stroke="black" d="M1506.43,-95.8114C1270.82,-109.624 598.561,-149.037 432.123,-158.794"/>
<polygon fill="black" stroke="black" points="421.901,-159.394 431.621,-154.316 426.893,-159.101 431.884,-158.808 431.884,-158.808 431.884,-158.808 426.893,-159.101 432.147,-163.301 421.901,-159.394 421.901,-159.394"/>
</g>
<!-- 78&#45;&gt;2 -->
<g id="edge155" class="edge"><title>78&#45;&gt;2</title>
<path fill="none" stroke="black" d="M1506.1,-91.9428C1248.13,-95.2566 466.67,-108.17 358.5,-144 331.469,-152.954 330.687,-166.715 305.5,-180 282.011,-192.39 254.963,-203.566 231.274,-212.427"/>
<polygon fill="black" stroke="black" points="221.692,-215.954 229.522,-208.276 226.385,-214.227 231.077,-212.499 231.077,-212.499 231.077,-212.499 226.385,-214.227 232.631,-216.722 221.692,-215.954 221.692,-215.954"/>
</g>
<!-- 78&#45;&gt;3 -->
<g id="edge156" class="edge"><title>78&#45;&gt;3</title>
<path fill="none" stroke="black" d="M1506.26,-100.23C1301.38,-123.406 772.204,-184.449 597.5,-216 596.22,-216.231 594.929,-216.471 593.63,-216.717"/>
<polygon fill="black" stroke="black" points="583.548,-218.735 592.47,-212.36 588.451,-217.754 593.353,-216.772 593.353,-216.772 593.353,-216.772 588.451,-217.754 594.236,-221.185 583.548,-218.735 583.548,-218.735"/>
</g>
<!-- 78&#45;&gt;4 -->
<g id="edge157" class="edge"><title>78&#45;&gt;4</title>
<path fill="none" stroke="black" d="M1506.4,-91.179C1260.68,-92.2201 533.687,-99.116 301.5,-144 227.663,-158.273 146.325,-190.338 96.8265,-211.824"/>
<polygon fill="black" stroke="black" points="87.3629,-215.972 94.7155,-207.836 91.9424,-213.965 96.5219,-211.957 96.5219,-211.957 96.5219,-211.957 91.9424,-213.965 98.3283,-216.079 87.3629,-215.972 87.3629,-215.972"/>
</g>
<!-- 78&#45;&gt;5 -->
<g id="edge158" class="edge"><title>78&#45;&gt;5</title>
<path fill="none" stroke="black" d="M1506.37,-94.0174C1370.22,-99.6692 1089.41,-114.083 853.5,-144 679.668,-166.045 633.591,-173.735 458.915,-216.035"/>
<polygon fill="black" stroke="black" points="449.141,-218.405 457.799,-211.675 454,-217.226 458.859,-216.048 458.859,-216.048 458.859,-216.048 454,-217.226 459.92,-220.421 449.141,-218.405 449.141,-218.405"/>
</g>
<!-- 78&#45;&gt;9 -->
<g id="edge159" class="edge"><title>78&#45;&gt;9</title>
<path fill="none" stroke="black" d="M1670.68,-91.1823C2125.58,-92.3597 4319.62,-100.293 4455.5,-144 4495.99,-157.025 4535.13,-187.33 4559.48,-208.955"/>
<polygon fill="black" stroke="black" points="4567.14,-215.918 4556.72,-212.527 4563.44,-212.556 4559.74,-209.195 4559.74,-209.195 4559.74,-209.195 4563.44,-212.556 4562.77,-205.864 4567.14,-215.918 4567.14,-215.918"/>
</g>
<!-- 78&#45;&gt;12 -->
<g id="edge160" class="edge"><title>78&#45;&gt;12</title>
<path fill="none" stroke="black" d="M1670.57,-90.8824C2053.2,-90.6071 3652.58,-92.567 3869.5,-144 3905.87,-152.623 3910.29,-167.464 3945.5,-180 3952.49,-182.489 4029.26,-201.256 4089.09,-215.759"/>
<polygon fill="black" stroke="black" points="4098.91,-218.138 4088.14,-220.157 4094.06,-216.961 4089.2,-215.784 4089.2,-215.784 4089.2,-215.784 4094.06,-216.961 4090.26,-211.41 4098.91,-218.138 4098.91,-218.138"/>
</g>
<!-- 78&#45;&gt;17 -->
<g id="edge161" class="edge"><title>78&#45;&gt;17</title>
<path fill="none" stroke="black" d="M1629.6,-108.124C1656.42,-119.299 1691.21,-133.797 1717.59,-144.785"/>
<polygon fill="black" stroke="black" points="1726.89,-148.662 1715.93,-148.97 1722.27,-146.739 1717.66,-144.816 1717.66,-144.816 1717.66,-144.816 1722.27,-146.739 1719.39,-140.662 1726.89,-148.662 1726.89,-148.662"/>
</g>
<!-- 78&#45;&gt;59 -->
<g id="edge162" class="edge"><title>78&#45;&gt;59</title>
<path fill="none" stroke="black" d="M1670.59,-92.3904C2200.96,-101.373 5137.46,-151.108 5646.34,-159.727"/>
<polygon fill="black" stroke="black" points="5656.5,-159.899 5646.42,-164.229 5651.5,-159.814 5646.5,-159.73 5646.5,-159.73 5646.5,-159.73 5651.5,-159.814 5646.58,-155.23 5656.5,-159.899 5656.5,-159.899"/>
</g>
<!-- 79 -->
<g id="node80" class="node"><title>79</title>
<polygon fill="none" stroke="black" points="3863.5,-36 3809.5,-36 3809.5,-0 3863.5,-0 3863.5,-36"/>
<text text-anchor="middle" x="3836.5" y="-14.3" font-family="Times,serif" font-size="14.00">main</text>
</g>
<!-- 79&#45;&gt;8 -->
<g id="edge163" class="edge"><title>79&#45;&gt;8</title>
<path fill="none" stroke="black" d="M3863.72,-29.0293C3892.05,-39.465 3937.15,-56.0805 3972.7,-69.1785"/>
<polygon fill="black" stroke="black" points="3982.45,-72.7715 3971.51,-73.537 3977.76,-71.043 3973.07,-69.3144 3973.07,-69.3144 3973.07,-69.3144 3977.76,-71.043 3974.62,-65.0919 3982.45,-72.7715 3982.45,-72.7715"/>
</g>
<!-- 79&#45;&gt;10 -->
<g id="edge164" class="edge"><title>79&#45;&gt;10</title>
<path fill="none" stroke="black" d="M3859.42,-36.1285C3893.37,-61.5025 3957.12,-109.146 3995.3,-137.682"/>
<polygon fill="black" stroke="black" points="4003.5,-143.811 3992.8,-141.429 3999.5,-140.817 3995.49,-137.824 3995.49,-137.824 3995.49,-137.824 3999.5,-140.817 3998.18,-134.22 4003.5,-143.811 4003.5,-143.811"/>
</g>
<!-- 79&#45;&gt;15 -->
<g id="edge165" class="edge"><title>79&#45;&gt;15</title>
<path fill="none" stroke="black" d="M3831.92,-36.1285C3825.41,-60.4364 3813.44,-105.181 3805.73,-133.987"/>
<polygon fill="black" stroke="black" points="3803.1,-143.811 3801.34,-132.987 3804.39,-138.981 3805.69,-134.151 3805.69,-134.151 3805.69,-134.151 3804.39,-138.981 3810.03,-135.314 3803.1,-143.811 3803.1,-143.811"/>
</g>
<!-- 79&#45;&gt;77 -->
<g id="edge166" class="edge"><title>79&#45;&gt;77</title>
<path fill="none" stroke="black" d="M3809.27,-19.0502C3529.01,-19.6222 1165.34,-25.7657 434.618,-71.9795"/>
<polygon fill="black" stroke="black" points="424.509,-72.6283 434.2,-67.497 429.499,-72.308 434.488,-71.9878 434.488,-71.9878 434.488,-71.9878 429.499,-72.308 434.777,-76.4785 424.509,-72.6283 424.509,-72.6283"/>
</g>
<!-- 80 -->
<g id="node81" class="node"><title>80</title>
<polygon fill="none" stroke="black" points="4014,-36 3895,-36 3895,-0 4014,-0 4014,-36"/>
<text text-anchor="middle" x="3954.5" y="-14.3" font-family="Times,serif" font-size="14.00">main_multiplayers</text>
</g>
<!-- 80&#45;&gt;8 -->
<g id="edge167" class="edge"><title>80&#45;&gt;8</title>
<path fill="none" stroke="black" d="M3972.3,-36.3034C3981.1,-44.865 3991.88,-55.3438 4001.5,-64.6955"/>
<polygon fill="black" stroke="black" points="4008.91,-71.8957 3998.6,-68.1513 4005.32,-68.4103 4001.74,-64.9249 4001.74,-64.9249 4001.74,-64.9249 4005.32,-68.4103 4004.87,-61.6984 4008.91,-71.8957 4008.91,-71.8957"/>
</g>
<!-- 80&#45;&gt;11 -->
<g id="edge168" class="edge"><title>80&#45;&gt;11</title>
<path fill="none" stroke="black" d="M4000.82,-36.1285C4071.69,-62.3375 4206.82,-112.305 4282.89,-140.435"/>
<polygon fill="black" stroke="black" points="4292.32,-143.921 4281.38,-144.674 4287.63,-142.187 4282.94,-140.453 4282.94,-140.453 4282.94,-140.453 4287.63,-142.187 4284.5,-136.232 4292.32,-143.921 4292.32,-143.921"/>
</g>
<!-- 80&#45;&gt;15 -->
<g id="edge169" class="edge"><title>80&#45;&gt;15</title>
<path fill="none" stroke="black" d="M3935.68,-36.1285C3908.04,-61.2893 3856.34,-108.346 3824.91,-136.958"/>
<polygon fill="black" stroke="black" points="3817.38,-143.811 3821.75,-133.751 3821.08,-140.445 3824.78,-137.079 3824.78,-137.079 3824.78,-137.079 3821.08,-140.445 3827.81,-140.407 3817.38,-143.811 3817.38,-143.811"/>
</g>
<!-- 80&#45;&gt;78 -->
<g id="edge170" class="edge"><title>80&#45;&gt;78</title>
<path fill="none" stroke="black" d="M3894.69,-32.7041C3887.25,-34.0229 3879.72,-35.1744 3872.5,-36 3437.19,-85.7581 2052.13,-89.1064 1680.83,-89.09"/>
<polygon fill="black" stroke="black" points="1670.67,-89.0887 1680.67,-84.5901 1675.67,-89.0894 1680.67,-89.0901 1680.67,-89.0901 1680.67,-89.0901 1675.67,-89.0894 1680.67,-93.5901 1670.67,-89.0887 1670.67,-89.0887"/>
</g>
</g>
</svg>
