<?xml version="1.0" encoding="UTF-8" standalone="no"?>
<!DOCTYPE svg PUBLIC "-//W3C//DTD SVG 1.1//EN"
 "http://www.w3.org/Graphics/SVG/1.1/DTD/svg11.dtd">
<!-- Generated by graphviz version 2.38.0 (20140413.2041)
 -->
<!-- Title: packages_AlgoBandits Pages: 1 -->
<svg width="4440pt" height="332pt"
 viewBox="0.00 0.00 4440.00 332.00" xmlns="http://www.w3.org/2000/svg" xmlns:xlink="http://www.w3.org/1999/xlink">
<g id="graph0" class="graph" transform="scale(1 1) rotate(0) translate(4 328)">
<title>packages_AlgoBandits</title>
<polygon fill="white" stroke="none" points="-4,4 -4,-328 4436,-328 4436,4 -4,4"/>
<!-- 0 -->
<g id="node1" class="node"><title>0</title>
<polygon fill="none" stroke="black" points="258.5,-108 204.5,-108 204.5,-72 258.5,-72 258.5,-108"/>
<text text-anchor="middle" x="231.5" y="-86.3" font-family="Times,serif" font-size="14.00">Arms</text>
</g>
<!-- 2 -->
<g id="node3" class="node"><title>2</title>
<polygon fill="none" stroke="black" points="516.5,-180 414.5,-180 414.5,-144 516.5,-144 516.5,-180"/>
<text text-anchor="middle" x="465.5" y="-158.3" font-family="Times,serif" font-size="14.00">Arms.Bernoulli</text>
</g>
<!-- 0&#45;&gt;2 -->
<g id="edge1" class="edge"><title>0&#45;&gt;2</title>
<path fill="none" stroke="black" d="M258.801,-99.1669C294.255,-109.773 357.173,-128.595 404.309,-142.695"/>
<polygon fill="black" stroke="black" points="414.113,-145.628 403.242,-147.073 409.322,-144.195 404.532,-142.762 404.532,-142.762 404.532,-142.762 409.322,-144.195 405.822,-138.45 414.113,-145.628 414.113,-145.628"/>
</g>
<!-- 3 -->
<g id="node4" class="node"><title>3</title>
<polygon fill="none" stroke="black" points="226.5,-180 110.5,-180 110.5,-144 226.5,-144 226.5,-180"/>
<text text-anchor="middle" x="168.5" y="-158.3" font-family="Times,serif" font-size="14.00">Arms.Exponential</text>
</g>
<!-- 0&#45;&gt;3 -->
<g id="edge2" class="edge"><title>0&#45;&gt;3</title>
<path fill="none" stroke="black" d="M215.927,-108.303C208.298,-116.78 198.977,-127.136 190.624,-136.417"/>
<polygon fill="black" stroke="black" points="183.894,-143.896 187.239,-133.452 187.239,-140.179 190.584,-136.463 190.584,-136.463 190.584,-136.463 187.239,-140.179 193.928,-139.473 183.894,-143.896 183.894,-143.896"/>
</g>
<!-- 4 -->
<g id="node5" class="node"><title>4</title>
<polygon fill="none" stroke="black" points="346,-180 245,-180 245,-144 346,-144 346,-180"/>
<text text-anchor="middle" x="295.5" y="-158.3" font-family="Times,serif" font-size="14.00">Arms.Gaussian</text>
</g>
<!-- 0&#45;&gt;4 -->
<g id="edge3" class="edge"><title>0&#45;&gt;4</title>
<path fill="none" stroke="black" d="M247.32,-108.303C255.07,-116.78 264.539,-127.136 273.024,-136.417"/>
<polygon fill="black" stroke="black" points="279.862,-143.896 269.793,-139.552 276.488,-140.206 273.114,-136.515 273.114,-136.515 273.114,-136.515 276.488,-140.206 276.435,-133.479 279.862,-143.896 279.862,-143.896"/>
</g>
<!-- 5 -->
<g id="node6" class="node"><title>5</title>
<polygon fill="none" stroke="black" points="93,-180 7.10543e-15,-180 7.10543e-15,-144 93,-144 93,-180"/>
<text text-anchor="middle" x="46.5" y="-158.3" font-family="Times,serif" font-size="14.00">Arms.Poisson</text>
</g>
<!-- 0&#45;&gt;5 -->
<g id="edge4" class="edge"><title>0&#45;&gt;5</title>
<path fill="none" stroke="black" d="M204.203,-101.329C177.216,-111.54 135.165,-127.451 101.27,-140.276"/>
<polygon fill="black" stroke="black" points="91.4937,-143.975 99.254,-136.228 96.1701,-142.206 100.847,-140.436 100.847,-140.436 100.847,-140.436 96.1701,-142.206 102.439,-144.645 91.4937,-143.975 91.4937,-143.975"/>
</g>
<!-- 1 -->
<g id="node2" class="node"><title>1</title>
<polygon fill="none" stroke="black" points="146,-252 69,-252 69,-216 146,-216 146,-252"/>
<text text-anchor="middle" x="107.5" y="-230.3" font-family="Times,serif" font-size="14.00">Arms.Arm</text>
</g>
<!-- 2&#45;&gt;1 -->
<g id="edge5" class="edge"><title>2&#45;&gt;1</title>
<path fill="none" stroke="black" d="M414.311,-171.211C338.941,-183.371 202.69,-205.647 155.925,-216.059"/>
<polygon fill="black" stroke="black" points="146.056,-218.437 154.723,-211.72 150.917,-217.266 155.777,-216.095 155.777,-216.095 155.777,-216.095 150.917,-217.266 156.832,-220.469 146.056,-218.437 146.056,-218.437"/>
</g>
<!-- 3&#45;&gt;1 -->
<g id="edge6" class="edge"><title>3&#45;&gt;1</title>
<path fill="none" stroke="black" d="M153.421,-180.303C146.108,-188.695 137.19,-198.93 129.165,-208.139"/>
<polygon fill="black" stroke="black" points="122.405,-215.896 125.582,-205.4 125.69,-212.126 128.975,-208.357 128.975,-208.357 128.975,-208.357 125.69,-212.126 132.368,-211.313 122.405,-215.896 122.405,-215.896"/>
</g>
<!-- 4&#45;&gt;1 -->
<g id="edge7" class="edge"><title>4&#45;&gt;1</title>
<path fill="none" stroke="black" d="M249.51,-180.124C220.992,-190.742 184.415,-204.362 155.525,-215.119"/>
<polygon fill="black" stroke="black" points="146.044,-218.648 153.846,-210.942 150.73,-216.904 155.416,-215.159 155.416,-215.159 155.416,-215.159 150.73,-216.904 156.986,-219.376 146.044,-218.648 146.044,-218.648"/>
</g>
<!-- 5&#45;&gt;1 -->
<g id="edge8" class="edge"><title>5&#45;&gt;1</title>
<path fill="none" stroke="black" d="M61.5787,-180.303C68.8917,-188.695 77.81,-198.93 85.8351,-208.139"/>
<polygon fill="black" stroke="black" points="92.5948,-215.896 82.6324,-211.313 89.3099,-212.126 86.025,-208.357 86.025,-208.357 86.025,-208.357 89.3099,-212.126 89.4176,-205.4 92.5948,-215.896 92.5948,-215.896"/>
</g>
<!-- 6 -->
<g id="node7" class="node"><title>6</title>
<polygon fill="none" stroke="black" points="3237.5,-108 3149.5,-108 3149.5,-72 3237.5,-72 3237.5,-108"/>
<text text-anchor="middle" x="3193.5" y="-86.3" font-family="Times,serif" font-size="14.00">Environment</text>
</g>
<!-- 8 -->
<g id="node9" class="node"><title>8</title>
<polygon fill="none" stroke="black" points="3403.5,-180 3259.5,-180 3259.5,-144 3403.5,-144 3403.5,-180"/>
<text text-anchor="middle" x="3331.5" y="-158.3" font-family="Times,serif" font-size="14.00">Environment.Evaluator</text>
</g>
<!-- 6&#45;&gt;8 -->
<g id="edge9" class="edge"><title>6&#45;&gt;8</title>
<path fill="none" stroke="black" d="M3227.26,-108.124C3245.72,-117.488 3268.78,-129.186 3288.52,-139.197"/>
<polygon fill="black" stroke="black" points="3297.61,-143.81 3286.66,-143.3 3293.15,-141.548 3288.69,-139.286 3288.69,-139.286 3288.69,-139.286 3293.15,-141.548 3290.73,-135.273 3297.61,-143.81 3297.61,-143.81"/>
</g>
<!-- 9 -->
<g id="node10" class="node"><title>9</title>
<polygon fill="none" stroke="black" points="3165,-180 2950,-180 2950,-144 3165,-144 3165,-180"/>
<text text-anchor="middle" x="3057.5" y="-158.3" font-family="Times,serif" font-size="14.00">Environment.EvaluatorMultiPlayers</text>
</g>
<!-- 6&#45;&gt;9 -->
<g id="edge10" class="edge"><title>6&#45;&gt;9</title>
<path fill="none" stroke="black" d="M3160.23,-108.124C3142.04,-117.488 3119.31,-129.186 3099.86,-139.197"/>
<polygon fill="black" stroke="black" points="3090.9,-143.81 3097.73,-135.233 3095.34,-141.522 3099.79,-139.234 3099.79,-139.234 3099.79,-139.234 3095.34,-141.522 3101.85,-143.235 3090.9,-143.81 3090.9,-143.81"/>
</g>
<!-- 10 -->
<g id="node11" class="node"><title>10</title>
<polygon fill="none" stroke="black" points="3297,-252 3174,-252 3174,-216 3297,-216 3297,-252"/>
<text text-anchor="middle" x="3235.5" y="-230.3" font-family="Times,serif" font-size="14.00">Environment.MAB</text>
</g>
<!-- 6&#45;&gt;10 -->
<g id="edge11" class="edge"><title>6&#45;&gt;10</title>
<path fill="none" stroke="black" d="M3197.78,-108.154C3202.35,-126.145 3209.95,-155.198 3217.5,-180 3220.11,-188.592 3223.19,-197.888 3226.05,-206.26"/>
<polygon fill="black" stroke="black" points="3229.38,-215.904 3221.86,-207.925 3227.75,-211.179 3226.11,-206.454 3226.11,-206.454 3226.11,-206.454 3227.75,-211.179 3230.37,-204.982 3229.38,-215.904 3229.38,-215.904"/>
</g>
<!-- 11 -->
<g id="node12" class="node"><title>11</title>
<polygon fill="none" stroke="black" points="3441.5,-252 3315.5,-252 3315.5,-216 3441.5,-216 3441.5,-252"/>
<text text-anchor="middle" x="3378.5" y="-230.3" font-family="Times,serif" font-size="14.00">Environment.Result</text>
</g>
<!-- 6&#45;&gt;11 -->
<g id="edge12" class="edge"><title>6&#45;&gt;11</title>
<path fill="none" stroke="black" d="M3200.7,-108.306C3209.7,-128.069 3226.86,-160.215 3250.5,-180 3266.91,-193.73 3287.36,-204.318 3307.08,-212.289"/>
<polygon fill="black" stroke="black" points="3316.67,-215.994 3305.72,-216.59 3312.01,-214.193 3307.34,-212.392 3307.34,-212.392 3307.34,-212.392 3312.01,-214.193 3308.96,-208.194 3316.67,-215.994 3316.67,-215.994"/>
</g>
<!-- 7 -->
<g id="node8" class="node"><title>7</title>
<polygon fill="none" stroke="black" points="2940.5,-252 2758.5,-252 2758.5,-216 2940.5,-216 2940.5,-252"/>
<text text-anchor="middle" x="2849.5" y="-230.3" font-family="Times,serif" font-size="14.00">Environment.CollisionModels</text>
</g>
<!-- 8&#45;&gt;10 -->
<g id="edge13" class="edge"><title>8&#45;&gt;10</title>
<path fill="none" stroke="black" d="M3307.77,-180.303C3295.56,-189.204 3280.51,-200.177 3267.32,-209.801"/>
<polygon fill="black" stroke="black" points="3258.96,-215.896 3264.39,-206.368 3263,-212.95 3267.04,-210.004 3267.04,-210.004 3267.04,-210.004 3263,-212.95 3269.69,-213.64 3258.96,-215.896 3258.96,-215.896"/>
</g>
<!-- 8&#45;&gt;11 -->
<g id="edge14" class="edge"><title>8&#45;&gt;11</title>
<path fill="none" stroke="black" d="M3343.12,-180.303C3348.64,-188.526 3355.35,-198.517 3361.43,-207.579"/>
<polygon fill="black" stroke="black" points="3367.02,-215.896 3357.71,-210.102 3364.23,-211.745 3361.44,-207.593 3361.44,-207.593 3361.44,-207.593 3364.23,-211.745 3365.18,-205.085 3367.02,-215.896 3367.02,-215.896"/>
</g>
<!-- 9&#45;&gt;7 -->
<g id="edge15" class="edge"><title>9&#45;&gt;7</title>
<path fill="none" stroke="black" d="M3006.88,-180.034C2977.69,-189.858 2940.81,-202.271 2910.08,-212.611"/>
<polygon fill="black" stroke="black" points="2900.34,-215.889 2908.39,-208.435 2905.08,-214.294 2909.82,-212.7 2909.82,-212.7 2909.82,-212.7 2905.08,-214.294 2911.26,-216.964 2900.34,-215.889 2900.34,-215.889"/>
</g>
<!-- 9&#45;&gt;10 -->
<g id="edge16" class="edge"><title>9&#45;&gt;10</title>
<path fill="none" stroke="black" d="M3101.04,-180.124C3125.7,-189.821 3156.72,-202.02 3182.75,-212.257"/>
<polygon fill="black" stroke="black" points="3192.1,-215.932 3181.14,-216.46 3187.44,-214.102 3182.79,-212.272 3182.79,-212.272 3182.79,-212.272 3187.44,-214.102 3184.44,-208.084 3192.1,-215.932 3192.1,-215.932"/>
</g>
<!-- 12 -->
<g id="node13" class="node"><title>12</title>
<polygon fill="none" stroke="black" points="3156,-252 2959,-252 2959,-216 3156,-216 3156,-252"/>
<text text-anchor="middle" x="3057.5" y="-230.3" font-family="Times,serif" font-size="14.00">Environment.ResultMultiPlayers</text>
</g>
<!-- 9&#45;&gt;12 -->
<g id="edge17" class="edge"><title>9&#45;&gt;12</title>
<path fill="none" stroke="black" d="M3057.5,-180.303C3057.5,-188.017 3057.5,-197.288 3057.5,-205.888"/>
<polygon fill="black" stroke="black" points="3057.5,-215.896 3053,-205.896 3057.5,-210.896 3057.5,-205.896 3057.5,-205.896 3057.5,-205.896 3057.5,-210.896 3062,-205.896 3057.5,-215.896 3057.5,-215.896"/>
</g>
<!-- 13 -->
<g id="node14" class="node"><title>13</title>
<polygon fill="none" stroke="black" points="1788,-180 1729,-180 1729,-144 1788,-144 1788,-180"/>
<text text-anchor="middle" x="1758.5" y="-158.3" font-family="Times,serif" font-size="14.00">Policies</text>
</g>
<!-- 14 -->
<g id="node15" class="node"><title>14</title>
<polygon fill="none" stroke="black" points="964,-252 843,-252 843,-216 964,-216 964,-252"/>
<text text-anchor="middle" x="903.5" y="-230.3" font-family="Times,serif" font-size="14.00">Policies.AdBandits</text>
</g>
<!-- 13&#45;&gt;14 -->
<g id="edge18" class="edge"><title>13&#45;&gt;14</title>
<path fill="none" stroke="black" d="M1728.71,-163.184C1625.48,-164.205 1273.47,-170.879 974.254,-216.063"/>
<polygon fill="black" stroke="black" points="964.08,-217.617 973.285,-211.659 969.022,-216.862 973.965,-216.107 973.965,-216.107 973.965,-216.107 969.022,-216.862 974.645,-220.555 964.08,-217.617 964.08,-217.617"/>
</g>
<!-- 15 -->
<g id="node16" class="node"><title>15</title>
<polygon fill="none" stroke="black" points="1745,-252 1654,-252 1654,-216 1745,-216 1745,-252"/>
<text text-anchor="middle" x="1699.5" y="-230.3" font-family="Times,serif" font-size="14.00">Policies.Aggr</text>
</g>
<!-- 13&#45;&gt;15 -->
<g id="edge19" class="edge"><title>13&#45;&gt;15</title>
<path fill="none" stroke="black" d="M1743.92,-180.303C1736.84,-188.695 1728.22,-198.93 1720.45,-208.139"/>
<polygon fill="black" stroke="black" points="1713.92,-215.896 1716.92,-205.349 1717.14,-212.073 1720.36,-208.249 1720.36,-208.249 1720.36,-208.249 1717.14,-212.073 1723.8,-211.15 1713.92,-215.896 1713.92,-215.896"/>
</g>
<!-- 16 -->
<g id="node17" class="node"><title>16</title>
<polygon fill="none" stroke="black" points="1246.5,-252 1122.5,-252 1122.5,-216 1246.5,-216 1246.5,-252"/>
<text text-anchor="middle" x="1184.5" y="-230.3" font-family="Times,serif" font-size="14.00">Policies.BayesUCB</text>
</g>
<!-- 13&#45;&gt;16 -->
<g id="edge20" class="edge"><title>13&#45;&gt;16</title>
<path fill="none" stroke="black" d="M1728.83,-164.773C1652.22,-169.64 1441.37,-184.85 1256.63,-215.929"/>
<polygon fill="black" stroke="black" points="1246.74,-217.613 1255.85,-211.498 1251.67,-216.774 1256.6,-215.934 1256.6,-215.934 1256.6,-215.934 1251.67,-216.774 1257.36,-220.371 1246.74,-217.613 1246.74,-217.613"/>
</g>
<!-- 18 -->
<g id="node19" class="node"><title>18</title>
<polygon fill="none" stroke="black" points="1872,-252 1763,-252 1763,-216 1872,-216 1872,-252"/>
<text text-anchor="middle" x="1817.5" y="-230.3" font-family="Times,serif" font-size="14.00">Policies.Dummy</text>
</g>
<!-- 13&#45;&gt;18 -->
<g id="edge21" class="edge"><title>13&#45;&gt;18</title>
<path fill="none" stroke="black" d="M1773.08,-180.303C1780.16,-188.695 1788.78,-198.93 1796.55,-208.139"/>
<polygon fill="black" stroke="black" points="1803.08,-215.896 1793.2,-211.15 1799.86,-212.073 1796.64,-208.249 1796.64,-208.249 1796.64,-208.249 1799.86,-212.073 1800.08,-205.349 1803.08,-215.896 1803.08,-215.896"/>
</g>
<!-- 19 -->
<g id="node20" class="node"><title>19</title>
<polygon fill="none" stroke="black" points="2055,-252 1890,-252 1890,-216 2055,-216 2055,-252"/>
<text text-anchor="middle" x="1972.5" y="-230.3" font-family="Times,serif" font-size="14.00">Policies.EpsilonDecreasing</text>
</g>
<!-- 13&#45;&gt;19 -->
<g id="edge22" class="edge"><title>13&#45;&gt;19</title>
<path fill="none" stroke="black" d="M1788.26,-172.733C1819.77,-183.041 1870.42,-199.608 1910.64,-212.766"/>
<polygon fill="black" stroke="black" points="1920.36,-215.946 1909.46,-217.114 1915.61,-214.392 1910.86,-212.837 1910.86,-212.837 1910.86,-212.837 1915.61,-214.392 1912.26,-208.56 1920.36,-215.946 1920.36,-215.946"/>
</g>
<!-- 20 -->
<g id="node21" class="node"><title>20</title>
<polygon fill="none" stroke="black" points="2202,-252 2073,-252 2073,-216 2202,-216 2202,-252"/>
<text text-anchor="middle" x="2137.5" y="-230.3" font-family="Times,serif" font-size="14.00">Policies.EpsilonFirst</text>
</g>
<!-- 13&#45;&gt;20 -->
<g id="edge23" class="edge"><title>13&#45;&gt;20</title>
<path fill="none" stroke="black" d="M1788.15,-167.556C1841.25,-175.842 1956.33,-194.36 2062.73,-215.692"/>
<polygon fill="black" stroke="black" points="2072.66,-217.698 2061.97,-220.13 2067.76,-216.708 2062.86,-215.719 2062.86,-215.719 2062.86,-215.719 2067.76,-216.708 2063.75,-211.308 2072.66,-217.698 2072.66,-217.698"/>
</g>
<!-- 21 -->
<g id="node22" class="node"><title>21</title>
<polygon fill="none" stroke="black" points="2364.5,-252 2220.5,-252 2220.5,-216 2364.5,-216 2364.5,-252"/>
<text text-anchor="middle" x="2292.5" y="-230.3" font-family="Times,serif" font-size="14.00">Policies.EpsilonGreedy</text>
</g>
<!-- 13&#45;&gt;21 -->
<g id="edge24" class="edge"><title>13&#45;&gt;21</title>
<path fill="none" stroke="black" d="M1788.04,-165.524C1859.01,-171.784 2044.83,-189.354 2209.8,-215.802"/>
<polygon fill="black" stroke="black" points="2220.14,-217.474 2209.55,-220.318 2215.2,-216.675 2210.27,-215.876 2210.27,-215.876 2210.27,-215.876 2215.2,-216.675 2210.98,-211.434 2220.14,-217.474 2220.14,-217.474"/>
</g>
<!-- 23 -->
<g id="node24" class="node"><title>23</title>
<polygon fill="none" stroke="black" points="1517,-252 1384,-252 1384,-216 1517,-216 1517,-252"/>
<text text-anchor="middle" x="1450.5" y="-230.3" font-family="Times,serif" font-size="14.00">Policies.KLempUCB</text>
</g>
<!-- 13&#45;&gt;23 -->
<g id="edge25" class="edge"><title>13&#45;&gt;23</title>
<path fill="none" stroke="black" d="M1728.97,-169.712C1682.85,-180.193 1592.26,-200.781 1526.91,-215.634"/>
<polygon fill="black" stroke="black" points="1517.05,-217.874 1525.81,-211.27 1521.93,-216.766 1526.8,-215.658 1526.8,-215.658 1526.8,-215.658 1521.93,-216.766 1527.8,-220.046 1517.05,-217.874 1517.05,-217.874"/>
</g>
<!-- 24 -->
<g id="node25" class="node"><title>24</title>
<polygon fill="none" stroke="black" points="2492.5,-252 2382.5,-252 2382.5,-216 2492.5,-216 2492.5,-252"/>
<text text-anchor="middle" x="2437.5" y="-230.3" font-family="Times,serif" font-size="14.00">Policies.Softmax</text>
</g>
<!-- 13&#45;&gt;24 -->
<g id="edge26" class="edge"><title>13&#45;&gt;24</title>
<path fill="none" stroke="black" d="M1788.18,-163.733C1876.13,-166.29 2143.04,-176.817 2372.61,-216.028"/>
<polygon fill="black" stroke="black" points="2382.48,-217.735 2371.86,-220.464 2377.55,-216.883 2372.62,-216.03 2372.62,-216.03 2372.62,-216.03 2377.55,-216.883 2373.39,-211.596 2382.48,-217.735 2382.48,-217.735"/>
</g>
<!-- 25 -->
<g id="node26" class="node"><title>25</title>
<polygon fill="none" stroke="black" points="1104.5,-252 982.5,-252 982.5,-216 1104.5,-216 1104.5,-252"/>
<text text-anchor="middle" x="1043.5" y="-230.3" font-family="Times,serif" font-size="14.00">Policies.Thompson</text>
</g>
<!-- 13&#45;&gt;25 -->
<g id="edge27" class="edge"><title>13&#45;&gt;25</title>
<path fill="none" stroke="black" d="M1728.73,-163.793C1637.93,-166.56 1356.49,-177.713 1114.87,-215.922"/>
<polygon fill="black" stroke="black" points="1104.85,-217.527 1114.01,-211.503 1109.79,-216.736 1114.72,-215.946 1114.72,-215.946 1114.72,-215.946 1109.79,-216.736 1115.44,-220.389 1104.85,-217.527 1104.85,-217.527"/>
</g>
<!-- 26 -->
<g id="node27" class="node"><title>26</title>
<polygon fill="none" stroke="black" points="2602,-252 2511,-252 2511,-216 2602,-216 2602,-252"/>
<text text-anchor="middle" x="2556.5" y="-230.3" font-family="Times,serif" font-size="14.00">Policies.UCB</text>
</g>
<!-- 13&#45;&gt;26 -->
<g id="edge28" class="edge"><title>13&#45;&gt;26</title>
<path fill="none" stroke="black" d="M1788.19,-162.699C1887.93,-162.192 2220,-164.603 2500.81,-216.157"/>
<polygon fill="black" stroke="black" points="2510.78,-218.012 2500.13,-220.606 2505.87,-217.097 2500.95,-216.182 2500.95,-216.182 2500.95,-216.182 2505.87,-217.097 2501.77,-211.758 2510.78,-218.012 2510.78,-218.012"/>
</g>
<!-- 27 -->
<g id="node28" class="node"><title>27</title>
<polygon fill="none" stroke="black" points="1366,-252 1265,-252 1265,-216 1366,-216 1366,-252"/>
<text text-anchor="middle" x="1315.5" y="-230.3" font-family="Times,serif" font-size="14.00">Policies.UCBV</text>
</g>
<!-- 13&#45;&gt;27 -->
<g id="edge29" class="edge"><title>13&#45;&gt;27</title>
<path fill="none" stroke="black" d="M1728.95,-165.679C1665.87,-171.7 1513.28,-187.859 1375.97,-216.073"/>
<polygon fill="black" stroke="black" points="1366.12,-218.126 1374.99,-211.682 1371.01,-217.107 1375.91,-216.088 1375.91,-216.088 1375.91,-216.088 1371.01,-217.107 1376.82,-220.493 1366.12,-218.126 1366.12,-218.126"/>
</g>
<!-- 28 -->
<g id="node29" class="node"><title>28</title>
<polygon fill="none" stroke="black" points="2740.5,-252 2620.5,-252 2620.5,-216 2740.5,-216 2740.5,-252"/>
<text text-anchor="middle" x="2680.5" y="-230.3" font-family="Times,serif" font-size="14.00">Policies.UCBalpha</text>
</g>
<!-- 13&#45;&gt;28 -->
<g id="edge30" class="edge"><title>13&#45;&gt;28</title>
<path fill="none" stroke="black" d="M1788.17,-162.923C1896.89,-163.043 2283.72,-167.002 2610.29,-215.986"/>
<polygon fill="black" stroke="black" points="2620.42,-217.523 2609.86,-220.472 2615.47,-216.773 2610.53,-216.023 2610.53,-216.023 2610.53,-216.023 2615.47,-216.773 2611.21,-211.574 2620.42,-217.523 2620.42,-217.523"/>
</g>
<!-- 29 -->
<g id="node30" class="node"><title>29</title>
<polygon fill="none" stroke="black" points="1636,-252 1535,-252 1535,-216 1636,-216 1636,-252"/>
<text text-anchor="middle" x="1585.5" y="-230.3" font-family="Times,serif" font-size="14.00">Policies.klUCB</text>
</g>
<!-- 13&#45;&gt;29 -->
<g id="edge31" class="edge"><title>13&#45;&gt;29</title>
<path fill="none" stroke="black" d="M1728.76,-175.033C1703.65,-185.192 1667.13,-199.972 1637.24,-212.065"/>
<polygon fill="black" stroke="black" points="1627.79,-215.887 1635.37,-207.965 1632.43,-214.012 1637.06,-212.136 1637.06,-212.136 1637.06,-212.136 1632.43,-214.012 1638.75,-216.308 1627.79,-215.887 1627.79,-215.887"/>
</g>
<!-- 17 -->
<g id="node18" class="node"><title>17</title>
<polygon fill="none" stroke="black" points="1087.5,-324 999.5,-324 999.5,-288 1087.5,-288 1087.5,-324"/>
<text text-anchor="middle" x="1043.5" y="-302.3" font-family="Times,serif" font-size="14.00">Policies.Beta</text>
</g>
<!-- 14&#45;&gt;17 -->
<g id="edge32" class="edge"><title>14&#45;&gt;17</title>
<path fill="none" stroke="black" d="M937.748,-252.124C956.561,-261.531 980.085,-273.292 1000.17,-283.333"/>
<polygon fill="black" stroke="black" points="1009.12,-287.81 998.164,-287.363 1004.65,-285.574 1000.18,-283.338 1000.18,-283.338 1000.18,-283.338 1004.65,-285.574 1002.19,-279.313 1009.12,-287.81 1009.12,-287.81"/>
</g>
<!-- 16&#45;&gt;17 -->
<g id="edge33" class="edge"><title>16&#45;&gt;17</title>
<path fill="none" stroke="black" d="M1150.01,-252.124C1131.06,-261.531 1107.37,-273.292 1087.14,-283.333"/>
<polygon fill="black" stroke="black" points="1078.13,-287.81 1085.08,-279.333 1082.6,-285.587 1087.08,-283.363 1087.08,-283.363 1087.08,-283.363 1082.6,-285.587 1089.08,-287.394 1078.13,-287.81 1078.13,-287.81"/>
</g>
<!-- 22 -->
<g id="node23" class="node"><title>22</title>
<polygon fill="none" stroke="black" points="1379.5,-324 1251.5,-324 1251.5,-288 1379.5,-288 1379.5,-324"/>
<text text-anchor="middle" x="1315.5" y="-302.3" font-family="Times,serif" font-size="14.00">Policies.IndexPolicy</text>
</g>
<!-- 16&#45;&gt;22 -->
<g id="edge34" class="edge"><title>16&#45;&gt;22</title>
<path fill="none" stroke="black" d="M1216.55,-252.124C1233.99,-261.446 1255.77,-273.081 1274.44,-283.061"/>
<polygon fill="black" stroke="black" points="1283.33,-287.81 1272.39,-287.066 1278.92,-285.454 1274.51,-283.097 1274.51,-283.097 1274.51,-283.097 1278.92,-285.454 1276.63,-279.128 1283.33,-287.81 1283.33,-287.81"/>
</g>
<!-- 23&#45;&gt;22 -->
<g id="edge35" class="edge"><title>23&#45;&gt;22</title>
<path fill="none" stroke="black" d="M1417.48,-252.124C1399.42,-261.488 1376.85,-273.186 1357.55,-283.197"/>
<polygon fill="black" stroke="black" points="1348.65,-287.81 1355.46,-279.212 1353.09,-285.509 1357.53,-283.207 1357.53,-283.207 1357.53,-283.207 1353.09,-285.509 1359.6,-287.202 1348.65,-287.81 1348.65,-287.81"/>
</g>
<!-- 30 -->
<g id="node31" class="node"><title>30</title>
<polygon fill="none" stroke="black" points="1573.5,-324 1463.5,-324 1463.5,-288 1573.5,-288 1573.5,-324"/>
<text text-anchor="middle" x="1518.5" y="-302.3" font-family="Times,serif" font-size="14.00">Policies.kullback</text>
</g>
<!-- 23&#45;&gt;30 -->
<g id="edge36" class="edge"><title>23&#45;&gt;30</title>
<path fill="none" stroke="black" d="M1467.31,-252.303C1475.63,-260.865 1485.81,-271.344 1494.89,-280.696"/>
<polygon fill="black" stroke="black" points="1501.88,-287.896 1491.69,-283.858 1498.4,-284.309 1494.92,-280.723 1494.92,-280.723 1494.92,-280.723 1498.4,-284.309 1498.14,-277.587 1501.88,-287.896 1501.88,-287.896"/>
</g>
<!-- 25&#45;&gt;17 -->
<g id="edge37" class="edge"><title>25&#45;&gt;17</title>
<path fill="none" stroke="black" d="M1043.5,-252.303C1043.5,-260.017 1043.5,-269.288 1043.5,-277.888"/>
<polygon fill="black" stroke="black" points="1043.5,-287.896 1039,-277.896 1043.5,-282.896 1043.5,-277.896 1043.5,-277.896 1043.5,-277.896 1043.5,-282.896 1048,-277.896 1043.5,-287.896 1043.5,-287.896"/>
</g>
<!-- 25&#45;&gt;22 -->
<g id="edge38" class="edge"><title>25&#45;&gt;22</title>
<path fill="none" stroke="black" d="M1104.54,-250.709C1145.08,-261.143 1198.55,-274.903 1241.51,-285.959"/>
<polygon fill="black" stroke="black" points="1251.35,-288.49 1240.54,-290.356 1246.51,-287.244 1241.66,-285.998 1241.66,-285.998 1241.66,-285.998 1246.51,-287.244 1242.79,-281.64 1251.35,-288.49 1251.35,-288.49"/>
</g>
<!-- 27&#45;&gt;22 -->
<g id="edge39" class="edge"><title>27&#45;&gt;22</title>
<path fill="none" stroke="black" d="M1315.5,-252.303C1315.5,-260.017 1315.5,-269.288 1315.5,-277.888"/>
<polygon fill="black" stroke="black" points="1315.5,-287.896 1311,-277.896 1315.5,-282.896 1315.5,-277.896 1315.5,-277.896 1315.5,-277.896 1315.5,-282.896 1320,-277.896 1315.5,-287.896 1315.5,-287.896"/>
</g>
<!-- 29&#45;&gt;22 -->
<g id="edge40" class="edge"><title>29&#45;&gt;22</title>
<path fill="none" stroke="black" d="M1534.68,-249.763C1531.92,-250.528 1529.18,-251.279 1526.5,-252 1481.19,-264.215 1430.15,-277.059 1389.63,-287.043"/>
<polygon fill="black" stroke="black" points="1379.82,-289.452 1388.46,-282.695 1384.68,-288.258 1389.54,-287.065 1389.54,-287.065 1389.54,-287.065 1384.68,-288.258 1390.61,-291.435 1379.82,-289.452 1379.82,-289.452"/>
</g>
<!-- 29&#45;&gt;30 -->
<g id="edge41" class="edge"><title>29&#45;&gt;30</title>
<path fill="none" stroke="black" d="M1568.94,-252.303C1560.82,-260.78 1550.91,-271.136 1542.03,-280.417"/>
<polygon fill="black" stroke="black" points="1534.87,-287.896 1538.53,-277.56 1538.33,-284.284 1541.79,-280.671 1541.79,-280.671 1541.79,-280.671 1538.33,-284.284 1545.04,-283.783 1534.87,-287.896 1534.87,-287.896"/>
</g>
<!-- 31 -->
<g id="node32" class="node"><title>31</title>
<polygon fill="none" stroke="black" points="750.5,-180 620.5,-180 620.5,-144 750.5,-144 750.5,-180"/>
<text text-anchor="middle" x="685.5" y="-158.3" font-family="Times,serif" font-size="14.00">PoliciesMultiPlayers</text>
</g>
<!-- 34 -->
<g id="node35" class="node"><title>34</title>
<polygon fill="none" stroke="black" points="343,-252 164,-252 164,-216 343,-216 343,-252"/>
<text text-anchor="middle" x="253.5" y="-230.3" font-family="Times,serif" font-size="14.00">PoliciesMultiPlayers.Dummy</text>
</g>
<!-- 31&#45;&gt;34 -->
<g id="edge42" class="edge"><title>31&#45;&gt;34</title>
<path fill="none" stroke="black" d="M620.489,-173.033C555.384,-183.144 452.037,-199.369 353.361,-215.701"/>
<polygon fill="black" stroke="black" points="343.213,-217.384 352.342,-211.309 348.146,-216.566 353.078,-215.748 353.078,-215.748 353.078,-215.748 348.146,-216.566 353.814,-220.188 343.213,-217.384 343.213,-217.384"/>
</g>
<!-- 39 -->
<g id="node40" class="node"><title>39</title>
<polygon fill="none" stroke="black" points="578,-252 361,-252 361,-216 578,-216 578,-252"/>
<text text-anchor="middle" x="469.5" y="-230.3" font-family="Times,serif" font-size="14.00">PoliciesMultiPlayers.TakeFixedArm</text>
</g>
<!-- 31&#45;&gt;39 -->
<g id="edge43" class="edge"><title>31&#45;&gt;39</title>
<path fill="none" stroke="black" d="M632.937,-180.034C602.494,-189.9 563.989,-202.378 532.001,-212.745"/>
<polygon fill="black" stroke="black" points="522.299,-215.889 530.425,-208.525 527.056,-214.348 531.812,-212.806 531.812,-212.806 531.812,-212.806 527.056,-214.348 533.199,-217.087 522.299,-215.889 522.299,-215.889"/>
</g>
<!-- 40 -->
<g id="node41" class="node"><title>40</title>
<polygon fill="none" stroke="black" points="825,-252 596,-252 596,-216 825,-216 825,-252"/>
<text text-anchor="middle" x="710.5" y="-230.3" font-family="Times,serif" font-size="14.00">PoliciesMultiPlayers.UniformOnSome</text>
</g>
<!-- 31&#45;&gt;40 -->
<g id="edge44" class="edge"><title>31&#45;&gt;40</title>
<path fill="none" stroke="black" d="M691.68,-180.303C694.495,-188.187 697.891,-197.696 701.019,-206.454"/>
<polygon fill="black" stroke="black" points="704.391,-215.896 696.79,-207.992 702.71,-211.187 701.028,-206.478 701.028,-206.478 701.028,-206.478 702.71,-211.187 705.266,-204.965 704.391,-215.896 704.391,-215.896"/>
</g>
<!-- 32 -->
<g id="node33" class="node"><title>32</title>
<polygon fill="none" stroke="black" points="3434.5,-36 3238.5,-36 3238.5,-0 3434.5,-0 3434.5,-36"/>
<text text-anchor="middle" x="3336.5" y="-14.3" font-family="Times,serif" font-size="14.00">PoliciesMultiPlayers.Centralized</text>
</g>
<!-- 33 -->
<g id="node34" class="node"><title>33</title>
<polygon fill="none" stroke="black" points="3662,-36 3453,-36 3453,-0 3662,-0 3662,-36"/>
<text text-anchor="middle" x="3557.5" y="-14.3" font-family="Times,serif" font-size="14.00">PoliciesMultiPlayers.Decentralized</text>
</g>
<!-- 35 -->
<g id="node36" class="node"><title>35</title>
<polygon fill="none" stroke="black" points="3854.5,-36 3680.5,-36 3680.5,-0 3854.5,-0 3854.5,-36"/>
<text text-anchor="middle" x="3767.5" y="-14.3" font-family="Times,serif" font-size="14.00">PoliciesMultiPlayers.MEGA</text>
</g>
<!-- 36 -->
<g id="node37" class="node"><title>36</title>
<polygon fill="none" stroke="black" points="4058,-36 3873,-36 3873,-0 4058,-0 4058,-36"/>
<text text-anchor="middle" x="3965.5" y="-14.3" font-family="Times,serif" font-size="14.00">PoliciesMultiPlayers.RhoRand</text>
</g>
<!-- 37 -->
<g id="node38" class="node"><title>37</title>
<polygon fill="none" stroke="black" points="4247,-36 4076,-36 4076,-0 4247,-0 4247,-36"/>
<text text-anchor="middle" x="4161.5" y="-14.3" font-family="Times,serif" font-size="14.00">PoliciesMultiPlayers.Selfish</text>
</g>
<!-- 38 -->
<g id="node39" class="node"><title>38</title>
<polygon fill="none" stroke="black" points="4432,-36 4265,-36 4265,-0 4432,-0 4432,-36"/>
<text text-anchor="middle" x="4348.5" y="-14.3" font-family="Times,serif" font-size="14.00">PoliciesMultiPlayers.TDFS</text>
</g>
<!-- 41 -->
<g id="node42" class="node"><title>41</title>
<polygon fill="none" stroke="black" points="1731,-108 1642,-108 1642,-72 1731,-72 1731,-108"/>
<text text-anchor="middle" x="1686.5" y="-86.3" font-family="Times,serif" font-size="14.00">configuration</text>
</g>
<!-- 41&#45;&gt;2 -->
<g id="edge45" class="edge"><title>41&#45;&gt;2</title>
<path fill="none" stroke="black" d="M1641.89,-92.1339C1494.59,-96.1051 1010.48,-110.973 611.5,-144 583.66,-146.304 552.934,-149.747 526.879,-152.932"/>
<polygon fill="black" stroke="black" points="516.768,-154.184 526.14,-148.489 521.73,-153.569 526.692,-152.955 526.692,-152.955 526.692,-152.955 521.73,-153.569 527.245,-157.421 516.768,-154.184 516.768,-154.184"/>
</g>
<!-- 41&#45;&gt;13 -->
<g id="edge46" class="edge"><title>41&#45;&gt;13</title>
<path fill="none" stroke="black" d="M1704.3,-108.303C1713.1,-116.865 1723.88,-127.344 1733.5,-136.696"/>
<polygon fill="black" stroke="black" points="1740.91,-143.896 1730.6,-140.151 1737.32,-140.41 1733.74,-136.925 1733.74,-136.925 1733.74,-136.925 1737.32,-140.41 1736.87,-133.698 1740.91,-143.896 1740.91,-143.896"/>
</g>
<!-- 42 -->
<g id="node43" class="node"><title>42</title>
<polygon fill="none" stroke="black" points="1913.5,-108 1749.5,-108 1749.5,-72 1913.5,-72 1913.5,-108"/>
<text text-anchor="middle" x="1831.5" y="-86.3" font-family="Times,serif" font-size="14.00">configuration_multiplayers</text>
</g>
<!-- 42&#45;&gt;2 -->
<g id="edge47" class="edge"><title>42&#45;&gt;2</title>
<path fill="none" stroke="black" d="M1749.24,-106.949C1746.3,-107.335 1743.38,-107.687 1740.5,-108 1241.41,-162.254 1112.16,-106.935 611.5,-144 583.641,-146.062 552.912,-149.469 526.86,-152.694"/>
<polygon fill="black" stroke="black" points="516.751,-153.965 526.112,-148.253 521.712,-153.341 526.673,-152.718 526.673,-152.718 526.673,-152.718 521.712,-153.341 527.234,-157.182 516.751,-153.965 516.751,-153.965"/>
</g>
<!-- 42&#45;&gt;7 -->
<g id="edge48" class="edge"><title>42&#45;&gt;7</title>
<path fill="none" stroke="black" d="M1913.61,-101.255C2072.6,-121.316 2433.78,-167.872 2748.01,-215.795"/>
<polygon fill="black" stroke="black" points="2758.23,-217.357 2747.67,-220.295 2753.29,-216.602 2748.35,-215.846 2748.35,-215.846 2748.35,-215.846 2753.29,-216.602 2749.03,-211.398 2758.23,-217.357 2758.23,-217.357"/>
</g>
<!-- 42&#45;&gt;13 -->
<g id="edge49" class="edge"><title>42&#45;&gt;13</title>
<path fill="none" stroke="black" d="M1813.46,-108.303C1804.44,-116.95 1793.38,-127.551 1783.56,-136.973"/>
<polygon fill="black" stroke="black" points="1776.34,-143.896 1780.44,-133.726 1779.95,-140.435 1783.56,-136.974 1783.56,-136.974 1783.56,-136.974 1779.95,-140.435 1786.67,-140.222 1776.34,-143.896 1776.34,-143.896"/>
</g>
<!-- 42&#45;&gt;31 -->
<g id="edge50" class="edge"><title>42&#45;&gt;31</title>
<path fill="none" stroke="black" d="M1749.24,-106.881C1746.29,-107.286 1743.37,-107.661 1740.5,-108 1374.88,-151.137 933.92,-159.211 760.617,-160.687"/>
<polygon fill="black" stroke="black" points="750.582,-160.768 760.545,-156.188 755.582,-160.728 760.581,-160.688 760.581,-160.688 760.581,-160.688 755.582,-160.728 760.618,-165.187 750.582,-160.768 750.582,-160.768"/>
</g>
<!-- 43 -->
<g id="node44" class="node"><title>43</title>
<polygon fill="none" stroke="black" points="3220.5,-36 3166.5,-36 3166.5,-0 3220.5,-0 3220.5,-36"/>
<text text-anchor="middle" x="3193.5" y="-14.3" font-family="Times,serif" font-size="14.00">main</text>
</g>
<!-- 43&#45;&gt;6 -->
<g id="edge51" class="edge"><title>43&#45;&gt;6</title>
<path fill="none" stroke="black" d="M3193.5,-36.3034C3193.5,-44.0173 3193.5,-53.2875 3193.5,-61.8876"/>
<polygon fill="black" stroke="black" points="3193.5,-71.8957 3189,-61.8956 3193.5,-66.8957 3193.5,-61.8957 3193.5,-61.8957 3193.5,-61.8957 3193.5,-66.8957 3198,-61.8957 3193.5,-71.8957 3193.5,-71.8957"/>
</g>
<!-- 43&#45;&gt;8 -->
<g id="edge52" class="edge"><title>43&#45;&gt;8</title>
<path fill="none" stroke="black" d="M3210.79,-36.0864C3221.19,-46.4233 3234.68,-59.9015 3246.5,-72 3267.48,-93.4671 3291.03,-118.175 3308.01,-136.103"/>
<polygon fill="black" stroke="black" points="3315.32,-143.826 3305.18,-139.655 3311.88,-140.194 3308.45,-136.562 3308.45,-136.562 3308.45,-136.562 3311.88,-140.194 3311.72,-133.47 3315.32,-143.826 3315.32,-143.826"/>
</g>
<!-- 43&#45;&gt;41 -->
<g id="edge53" class="edge"><title>43&#45;&gt;41</title>
<path fill="none" stroke="black" d="M3166.39,-27.3402C3154.3,-30.6776 3139.81,-34.1614 3126.5,-36 2824.57,-77.6951 2061.03,-22.4583 1741.31,-72.2607"/>
<polygon fill="black" stroke="black" points="1731.05,-73.9205 1740.21,-67.8808 1735.99,-73.1217 1740.93,-72.323 1740.93,-72.323 1740.93,-72.323 1735.99,-73.1217 1741.64,-76.7652 1731.05,-73.9205 1731.05,-73.9205"/>
</g>
<!-- 44 -->
<g id="node45" class="node"><title>44</title>
<polygon fill="none" stroke="black" points="3117,-36 2998,-36 2998,-0 3117,-0 3117,-36"/>
<text text-anchor="middle" x="3057.5" y="-14.3" font-family="Times,serif" font-size="14.00">main_multiplayers</text>
</g>
<!-- 44&#45;&gt;6 -->
<g id="edge54" class="edge"><title>44&#45;&gt;6</title>
<path fill="none" stroke="black" d="M3090.77,-36.1239C3108.96,-45.4883 3131.69,-57.1864 3151.14,-67.197"/>
<polygon fill="black" stroke="black" points="3160.1,-71.8102 3149.15,-71.2349 3155.66,-69.522 3151.21,-67.2338 3151.21,-67.2338 3151.21,-67.2338 3155.66,-69.522 3153.27,-63.2326 3160.1,-71.8102 3160.1,-71.8102"/>
</g>
<!-- 44&#45;&gt;9 -->
<g id="edge55" class="edge"><title>44&#45;&gt;9</title>
<path fill="none" stroke="black" d="M3057.5,-36.1285C3057.5,-60.3298 3057.5,-104.789 3057.5,-133.607"/>
<polygon fill="black" stroke="black" points="3057.5,-143.811 3053,-133.811 3057.5,-138.811 3057.5,-133.811 3057.5,-133.811 3057.5,-133.811 3057.5,-138.811 3062,-133.811 3057.5,-143.811 3057.5,-143.811"/>
</g>
<!-- 44&#45;&gt;42 -->
<g id="edge56" class="edge"><title>44&#45;&gt;42</title>
<path fill="none" stroke="black" d="M2997.95,-22.3999C2799.99,-33.7028 2162.94,-70.0758 1923.57,-83.7433"/>
<polygon fill="black" stroke="black" points="1913.5,-84.3181 1923.23,-79.2553 1918.49,-84.033 1923.48,-83.748 1923.48,-83.748 1923.48,-83.748 1918.49,-84.033 1923.74,-88.2406 1913.5,-84.3181 1913.5,-84.3181"/>
</g>
</g>
</svg>
