<?xml version="1.0" encoding="UTF-8" standalone="no"?>
<!DOCTYPE svg PUBLIC "-//W3C//DTD SVG 1.1//EN"
 "http://www.w3.org/Graphics/SVG/1.1/DTD/svg11.dtd">
<!-- Generated by graphviz version 2.38.0 (20140413.2041)
 -->
<!-- Title: packages_AlgoBandits Pages: 1 -->
<svg width="4229pt" height="332pt"
 viewBox="0.00 0.00 4228.50 332.00" xmlns="http://www.w3.org/2000/svg" xmlns:xlink="http://www.w3.org/1999/xlink">
<g id="graph0" class="graph" transform="scale(1 1) rotate(0) translate(4 328)">
<title>packages_AlgoBandits</title>
<polygon fill="white" stroke="none" points="-4,4 -4,-328 4224.5,-328 4224.5,4 -4,4"/>
<!-- 0 -->
<g id="node1" class="node"><title>0</title>
<polygon fill="none" stroke="black" points="269,-108 215,-108 215,-72 269,-72 269,-108"/>
<text text-anchor="middle" x="242" y="-86.3" font-family="Times,serif" font-size="14.00">Arms</text>
</g>
<!-- 2 -->
<g id="node3" class="node"><title>2</title>
<polygon fill="none" stroke="black" points="664,-180 562,-180 562,-144 664,-144 664,-180"/>
<text text-anchor="middle" x="613" y="-158.3" font-family="Times,serif" font-size="14.00">Arms.Bernoulli</text>
</g>
<!-- 0&#45;&gt;2 -->
<g id="edge1" class="edge"><title>0&#45;&gt;2</title>
<path fill="none" stroke="black" d="M269.281,-96.1473C328.556,-107.331 470.335,-134.082 552.085,-149.507"/>
<polygon fill="black" stroke="black" points="561.99,-151.376 551.329,-153.943 557.077,-150.448 552.164,-149.521 552.164,-149.521 552.164,-149.521 557.077,-150.448 552.998,-145.099 561.99,-151.376 561.99,-151.376"/>
</g>
<!-- 3 -->
<g id="node4" class="node"><title>3</title>
<polygon fill="none" stroke="black" points="116,-180 7.10543e-15,-180 7.10543e-15,-144 116,-144 116,-180"/>
<text text-anchor="middle" x="58" y="-158.3" font-family="Times,serif" font-size="14.00">Arms.Exponential</text>
</g>
<!-- 0&#45;&gt;3 -->
<g id="edge2" class="edge"><title>0&#45;&gt;3</title>
<path fill="none" stroke="black" d="M214.85,-101.329C188.01,-111.54 146.186,-127.451 112.474,-140.276"/>
<polygon fill="black" stroke="black" points="102.75,-143.975 110.497,-136.214 107.424,-142.197 112.097,-140.42 112.097,-140.42 112.097,-140.42 107.424,-142.197 113.697,-144.625 102.75,-143.975 102.75,-143.975"/>
</g>
<!-- 4 -->
<g id="node5" class="node"><title>4</title>
<polygon fill="none" stroke="black" points="235.5,-180 134.5,-180 134.5,-144 235.5,-144 235.5,-180"/>
<text text-anchor="middle" x="185" y="-158.3" font-family="Times,serif" font-size="14.00">Arms.Gaussian</text>
</g>
<!-- 0&#45;&gt;4 -->
<g id="edge3" class="edge"><title>0&#45;&gt;4</title>
<path fill="none" stroke="black" d="M227.91,-108.303C221.077,-116.695 212.743,-126.93 205.244,-136.139"/>
<polygon fill="black" stroke="black" points="198.928,-143.896 201.753,-133.3 202.085,-140.018 205.242,-136.141 205.242,-136.141 205.242,-136.141 202.085,-140.018 208.732,-138.983 198.928,-143.896 198.928,-143.896"/>
</g>
<!-- 5 -->
<g id="node6" class="node"><title>5</title>
<polygon fill="none" stroke="black" points="346.5,-180 253.5,-180 253.5,-144 346.5,-144 346.5,-180"/>
<text text-anchor="middle" x="300" y="-158.3" font-family="Times,serif" font-size="14.00">Arms.Poisson</text>
</g>
<!-- 0&#45;&gt;5 -->
<g id="edge4" class="edge"><title>0&#45;&gt;5</title>
<path fill="none" stroke="black" d="M256.337,-108.303C263.291,-116.695 271.77,-126.93 279.401,-136.139"/>
<polygon fill="black" stroke="black" points="285.828,-143.896 275.983,-139.067 282.638,-140.046 279.448,-136.195 279.448,-136.195 279.448,-136.195 282.638,-140.046 282.913,-133.324 285.828,-143.896 285.828,-143.896"/>
</g>
<!-- 1 -->
<g id="node2" class="node"><title>1</title>
<polygon fill="none" stroke="black" points="159.5,-252 82.5,-252 82.5,-216 159.5,-216 159.5,-252"/>
<text text-anchor="middle" x="121" y="-230.3" font-family="Times,serif" font-size="14.00">Arms.Arm</text>
</g>
<!-- 2&#45;&gt;1 -->
<g id="edge5" class="edge"><title>2&#45;&gt;1</title>
<path fill="none" stroke="black" d="M561.955,-165.288C480.412,-169.765 315.848,-182.174 169.569,-215.918"/>
<polygon fill="black" stroke="black" points="159.516,-218.278 168.223,-211.612 164.384,-217.136 169.251,-215.993 169.251,-215.993 169.251,-215.993 164.384,-217.136 170.28,-220.374 159.516,-218.278 159.516,-218.278"/>
</g>
<!-- 3&#45;&gt;1 -->
<g id="edge6" class="edge"><title>3&#45;&gt;1</title>
<path fill="none" stroke="black" d="M73.573,-180.303C81.2022,-188.78 90.5228,-199.136 98.8757,-208.417"/>
<polygon fill="black" stroke="black" points="105.606,-215.896 95.5716,-211.473 102.261,-212.179 98.9164,-208.463 98.9164,-208.463 98.9164,-208.463 102.261,-212.179 102.261,-205.452 105.606,-215.896 105.606,-215.896"/>
</g>
<!-- 4&#45;&gt;1 -->
<g id="edge7" class="edge"><title>4&#45;&gt;1</title>
<path fill="none" stroke="black" d="M169.18,-180.303C161.43,-188.78 151.961,-199.136 143.476,-208.417"/>
<polygon fill="black" stroke="black" points="136.638,-215.896 140.065,-205.479 140.012,-212.206 143.386,-208.515 143.386,-208.515 143.386,-208.515 140.012,-212.206 146.707,-211.552 136.638,-215.896 136.638,-215.896"/>
</g>
<!-- 5&#45;&gt;1 -->
<g id="edge8" class="edge"><title>5&#45;&gt;1</title>
<path fill="none" stroke="black" d="M256.212,-180.124C229.94,-190.398 196.485,-203.481 169.427,-214.062"/>
<polygon fill="black" stroke="black" points="159.772,-217.838 167.447,-210.005 164.429,-216.017 169.085,-214.196 169.085,-214.196 169.085,-214.196 164.429,-216.017 170.724,-218.387 159.772,-217.838 159.772,-217.838"/>
</g>
<!-- 6 -->
<g id="node7" class="node"><title>6</title>
<polygon fill="none" stroke="black" points="3215,-108 3127,-108 3127,-72 3215,-72 3215,-108"/>
<text text-anchor="middle" x="3171" y="-86.3" font-family="Times,serif" font-size="14.00">Environment</text>
</g>
<!-- 8 -->
<g id="node9" class="node"><title>8</title>
<polygon fill="none" stroke="black" points="3343,-180 3199,-180 3199,-144 3343,-144 3343,-180"/>
<text text-anchor="middle" x="3271" y="-158.3" font-family="Times,serif" font-size="14.00">Environment.Evaluator</text>
</g>
<!-- 6&#45;&gt;8 -->
<g id="edge9" class="edge"><title>6&#45;&gt;8</title>
<path fill="none" stroke="black" d="M3195.46,-108.124C3208.3,-117.107 3224.2,-128.237 3238.09,-137.966"/>
<polygon fill="black" stroke="black" points="3246.44,-143.81 3235.67,-141.762 3242.35,-140.943 3238.25,-138.076 3238.25,-138.076 3238.25,-138.076 3242.35,-140.943 3240.83,-134.389 3246.44,-143.81 3246.44,-143.81"/>
</g>
<!-- 9 -->
<g id="node10" class="node"><title>9</title>
<polygon fill="none" stroke="black" points="3095.5,-180 2880.5,-180 2880.5,-144 3095.5,-144 3095.5,-180"/>
<text text-anchor="middle" x="2988" y="-158.3" font-family="Times,serif" font-size="14.00">Environment.EvaluatorMultiPlayers</text>
</g>
<!-- 6&#45;&gt;9 -->
<g id="edge10" class="edge"><title>6&#45;&gt;9</title>
<path fill="none" stroke="black" d="M3126.7,-107.945C3101.26,-117.675 3069.13,-129.968 3042.19,-140.271"/>
<polygon fill="black" stroke="black" points="3032.53,-143.968 3040.26,-136.193 3037.2,-142.182 3041.87,-140.396 3041.87,-140.396 3041.87,-140.396 3037.2,-142.182 3043.47,-144.599 3032.53,-143.968 3032.53,-143.968"/>
</g>
<!-- 10 -->
<g id="node11" class="node"><title>10</title>
<polygon fill="none" stroke="black" points="3380.5,-252 3257.5,-252 3257.5,-216 3380.5,-216 3380.5,-252"/>
<text text-anchor="middle" x="3319" y="-230.3" font-family="Times,serif" font-size="14.00">Environment.MAB</text>
</g>
<!-- 6&#45;&gt;10 -->
<g id="edge11" class="edge"><title>6&#45;&gt;10</title>
<path fill="none" stroke="black" d="M3170.16,-108.097C3170.12,-127.663 3172.99,-159.624 3190,-180 3199.02,-190.807 3226.47,-202.732 3253.73,-212.53"/>
<polygon fill="black" stroke="black" points="3263.34,-215.901 3252.42,-216.836 3258.62,-214.245 3253.91,-212.59 3253.91,-212.59 3253.91,-212.59 3258.62,-214.245 3255.4,-208.343 3263.34,-215.901 3263.34,-215.901"/>
</g>
<!-- 11 -->
<g id="node12" class="node"><title>11</title>
<polygon fill="none" stroke="black" points="3525,-252 3399,-252 3399,-216 3525,-216 3525,-252"/>
<text text-anchor="middle" x="3462" y="-230.3" font-family="Times,serif" font-size="14.00">Environment.Result</text>
</g>
<!-- 6&#45;&gt;11 -->
<g id="edge12" class="edge"><title>6&#45;&gt;11</title>
<path fill="none" stroke="black" d="M3215.27,-98.8551C3253.1,-106.74 3308.2,-121.057 3352,-144 3384.75,-161.158 3417.02,-188.906 3438.04,-208.86"/>
<polygon fill="black" stroke="black" points="3445.26,-215.825 3434.94,-212.12 3441.67,-212.353 3438.07,-208.881 3438.07,-208.881 3438.07,-208.881 3441.67,-212.353 3441.19,-205.643 3445.26,-215.825 3445.26,-215.825"/>
</g>
<!-- 7 -->
<g id="node8" class="node"><title>7</title>
<polygon fill="none" stroke="black" points="2654,-252 2472,-252 2472,-216 2654,-216 2654,-252"/>
<text text-anchor="middle" x="2563" y="-230.3" font-family="Times,serif" font-size="14.00">Environment.CollisionModels</text>
</g>
<!-- 8&#45;&gt;10 -->
<g id="edge13" class="edge"><title>8&#45;&gt;10</title>
<path fill="none" stroke="black" d="M3282.87,-180.303C3288.5,-188.526 3295.35,-198.517 3301.57,-207.579"/>
<polygon fill="black" stroke="black" points="3307.27,-215.896 3297.9,-210.193 3304.44,-211.772 3301.62,-207.648 3301.62,-207.648 3301.62,-207.648 3304.44,-211.772 3305.33,-205.103 3307.27,-215.896 3307.27,-215.896"/>
</g>
<!-- 8&#45;&gt;11 -->
<g id="edge14" class="edge"><title>8&#45;&gt;11</title>
<path fill="none" stroke="black" d="M3317.72,-180.124C3344.3,-189.863 3377.76,-202.128 3405.77,-212.392"/>
<polygon fill="black" stroke="black" points="3415.43,-215.932 3404.49,-216.716 3410.73,-214.211 3406.04,-212.491 3406.04,-212.491 3406.04,-212.491 3410.73,-214.211 3407.59,-208.265 3415.43,-215.932 3415.43,-215.932"/>
</g>
<!-- 13 -->
<g id="node14" class="node"><title>13</title>
<polygon fill="none" stroke="black" points="3088,-252 2888,-252 2888,-216 3088,-216 3088,-252"/>
<text text-anchor="middle" x="2988" y="-230.3" font-family="Times,serif" font-size="14.00">Environment._maximizeWindow</text>
</g>
<!-- 8&#45;&gt;13 -->
<g id="edge15" class="edge"><title>8&#45;&gt;13</title>
<path fill="none" stroke="black" d="M3202.13,-180.034C3161.3,-190.134 3109.4,-202.972 3066.92,-213.479"/>
<polygon fill="black" stroke="black" points="3057.18,-215.889 3065.8,-209.12 3062.03,-214.689 3066.88,-213.488 3066.88,-213.488 3066.88,-213.488 3062.03,-214.689 3067.96,-217.856 3057.18,-215.889 3057.18,-215.889"/>
</g>
<!-- 9&#45;&gt;7 -->
<g id="edge16" class="edge"><title>9&#45;&gt;7</title>
<path fill="none" stroke="black" d="M2883.29,-180.004C2819.82,-190.34 2737.24,-203.846 2664,-216 2663.9,-216.017 2663.8,-216.034 2663.7,-216.051"/>
<polygon fill="black" stroke="black" points="2654.11,-217.644 2663.24,-211.564 2659.05,-216.824 2663.98,-216.003 2663.98,-216.003 2663.98,-216.003 2659.05,-216.824 2664.72,-220.442 2654.11,-217.644 2654.11,-217.644"/>
</g>
<!-- 9&#45;&gt;10 -->
<g id="edge17" class="edge"><title>9&#45;&gt;10</title>
<path fill="none" stroke="black" d="M3076.07,-180.021C3124.17,-189.522 3185.02,-201.871 3247.2,-215.634"/>
<polygon fill="black" stroke="black" points="3257.19,-217.855 3246.45,-220.078 3252.31,-216.77 3247.43,-215.685 3247.43,-215.685 3247.43,-215.685 3252.31,-216.77 3248.41,-211.292 3257.19,-217.855 3257.19,-217.855"/>
</g>
<!-- 12 -->
<g id="node13" class="node"><title>12</title>
<polygon fill="none" stroke="black" points="2869.5,-252 2672.5,-252 2672.5,-216 2869.5,-216 2869.5,-252"/>
<text text-anchor="middle" x="2771" y="-230.3" font-family="Times,serif" font-size="14.00">Environment.ResultMultiPlayers</text>
</g>
<!-- 9&#45;&gt;12 -->
<g id="edge18" class="edge"><title>9&#45;&gt;12</title>
<path fill="none" stroke="black" d="M2935.19,-180.034C2904.61,-189.9 2865.93,-202.378 2833.79,-212.745"/>
<polygon fill="black" stroke="black" points="2824.04,-215.889 2832.18,-208.536 2828.8,-214.354 2833.56,-212.819 2833.56,-212.819 2833.56,-212.819 2828.8,-214.354 2834.94,-217.102 2824.04,-215.889 2824.04,-215.889"/>
</g>
<!-- 9&#45;&gt;13 -->
<g id="edge19" class="edge"><title>9&#45;&gt;13</title>
<path fill="none" stroke="black" d="M2988,-180.303C2988,-188.017 2988,-197.288 2988,-205.888"/>
<polygon fill="black" stroke="black" points="2988,-215.896 2983.5,-205.896 2988,-210.896 2988,-205.896 2988,-205.896 2988,-205.896 2988,-210.896 2992.5,-205.896 2988,-215.896 2988,-215.896"/>
</g>
<!-- 14 -->
<g id="node15" class="node"><title>14</title>
<polygon fill="none" stroke="black" points="1483.5,-180 1424.5,-180 1424.5,-144 1483.5,-144 1483.5,-180"/>
<text text-anchor="middle" x="1454" y="-158.3" font-family="Times,serif" font-size="14.00">Policies</text>
</g>
<!-- 15 -->
<g id="node16" class="node"><title>15</title>
<polygon fill="none" stroke="black" points="1823.5,-252 1702.5,-252 1702.5,-216 1823.5,-216 1823.5,-252"/>
<text text-anchor="middle" x="1763" y="-230.3" font-family="Times,serif" font-size="14.00">Policies.AdBandits</text>
</g>
<!-- 14&#45;&gt;15 -->
<g id="edge20" class="edge"><title>14&#45;&gt;15</title>
<path fill="none" stroke="black" d="M1483.61,-169.298C1527.2,-178.621 1611.46,-196.84 1692.57,-215.69"/>
<polygon fill="black" stroke="black" points="1702.44,-217.991 1691.68,-220.103 1697.57,-216.856 1692.7,-215.721 1692.7,-215.721 1692.7,-215.721 1697.57,-216.856 1693.72,-211.338 1702.44,-217.991 1702.44,-217.991"/>
</g>
<!-- 16 -->
<g id="node17" class="node"><title>16</title>
<polygon fill="none" stroke="black" points="2453.5,-252 2362.5,-252 2362.5,-216 2453.5,-216 2453.5,-252"/>
<text text-anchor="middle" x="2408" y="-230.3" font-family="Times,serif" font-size="14.00">Policies.Aggr</text>
</g>
<!-- 14&#45;&gt;16 -->
<g id="edge21" class="edge"><title>14&#45;&gt;16</title>
<path fill="none" stroke="black" d="M1483.68,-163.766C1616.95,-167.354 2161.58,-183.63 2352.34,-215.997"/>
<polygon fill="black" stroke="black" points="2362.24,-217.75 2351.61,-220.437 2357.31,-216.878 2352.39,-216.006 2352.39,-216.006 2352.39,-216.006 2357.31,-216.878 2353.18,-211.575 2362.24,-217.75 2362.24,-217.75"/>
</g>
<!-- 17 -->
<g id="node18" class="node"><title>17</title>
<polygon fill="none" stroke="black" points="1966,-252 1842,-252 1842,-216 1966,-216 1966,-252"/>
<text text-anchor="middle" x="1904" y="-230.3" font-family="Times,serif" font-size="14.00">Policies.BayesUCB</text>
</g>
<!-- 14&#45;&gt;17 -->
<g id="edge22" class="edge"><title>14&#45;&gt;17</title>
<path fill="none" stroke="black" d="M1483.56,-166.201C1545.89,-173.151 1695.5,-190.894 1831.45,-216.003"/>
<polygon fill="black" stroke="black" points="1841.63,-217.902 1830.98,-220.492 1836.72,-216.985 1831.8,-216.068 1831.8,-216.068 1831.8,-216.068 1836.72,-216.985 1832.63,-211.644 1841.63,-217.902 1841.63,-217.902"/>
</g>
<!-- 19 -->
<g id="node20" class="node"><title>19</title>
<polygon fill="none" stroke="black" points="531.5,-252 366.5,-252 366.5,-216 531.5,-216 531.5,-252"/>
<text text-anchor="middle" x="449" y="-230.3" font-family="Times,serif" font-size="14.00">Policies.EpsilonDecreasing</text>
</g>
<!-- 14&#45;&gt;19 -->
<g id="edge23" class="edge"><title>14&#45;&gt;19</title>
<path fill="none" stroke="black" d="M1424.45,-165.296C1379.62,-168.739 1291.73,-175.334 1217,-180 919.649,-198.569 840.946,-180.668 542.027,-215.843"/>
<polygon fill="black" stroke="black" points="531.756,-217.062 541.155,-211.415 536.721,-216.473 541.686,-215.884 541.686,-215.884 541.686,-215.884 536.721,-216.473 542.216,-220.352 531.756,-217.062 531.756,-217.062"/>
</g>
<!-- 20 -->
<g id="node21" class="node"><title>20</title>
<polygon fill="none" stroke="black" points="678.5,-252 549.5,-252 549.5,-216 678.5,-216 678.5,-252"/>
<text text-anchor="middle" x="614" y="-230.3" font-family="Times,serif" font-size="14.00">Policies.EpsilonFirst</text>
</g>
<!-- 14&#45;&gt;20 -->
<g id="edge24" class="edge"><title>14&#45;&gt;20</title>
<path fill="none" stroke="black" d="M1424.44,-165.155C1379.6,-168.417 1291.69,-174.78 1217,-180 985.247,-196.197 922.874,-181.928 689.045,-215.992"/>
<polygon fill="black" stroke="black" points="678.862,-217.49 688.1,-211.582 683.809,-216.762 688.755,-216.034 688.755,-216.034 688.755,-216.034 683.809,-216.762 689.41,-220.486 678.862,-217.49 678.862,-217.49"/>
</g>
<!-- 21 -->
<g id="node22" class="node"><title>21</title>
<polygon fill="none" stroke="black" points="841,-252 697,-252 697,-216 841,-216 841,-252"/>
<text text-anchor="middle" x="769" y="-230.3" font-family="Times,serif" font-size="14.00">Policies.EpsilonGreedy</text>
</g>
<!-- 14&#45;&gt;21 -->
<g id="edge25" class="edge"><title>14&#45;&gt;21</title>
<path fill="none" stroke="black" d="M1424.45,-165.123C1322,-172.552 981.712,-197.846 851.458,-215.918"/>
<polygon fill="black" stroke="black" points="841.346,-217.37 850.605,-211.494 846.296,-216.659 851.245,-215.948 851.245,-215.948 851.245,-215.948 846.296,-216.659 851.885,-220.403 841.346,-217.37 841.346,-217.37"/>
</g>
<!-- 24 -->
<g id="node25" class="node"><title>24</title>
<polygon fill="none" stroke="black" points="969,-252 859,-252 859,-216 969,-216 969,-252"/>
<text text-anchor="middle" x="914" y="-230.3" font-family="Times,serif" font-size="14.00">Policies.Softmax</text>
</g>
<!-- 14&#45;&gt;24 -->
<g id="edge26" class="edge"><title>14&#45;&gt;24</title>
<path fill="none" stroke="black" d="M1424.25,-164.769C1350.43,-169.486 1152.85,-184.107 979.128,-215.95"/>
<polygon fill="black" stroke="black" points="969.039,-217.824 978.049,-211.573 973.955,-216.911 978.871,-215.997 978.871,-215.997 978.871,-215.997 973.955,-216.911 979.693,-220.422 969.039,-217.824 969.039,-217.824"/>
</g>
<!-- 25 -->
<g id="node26" class="node"><title>25</title>
<polygon fill="none" stroke="black" points="1133,-252 987,-252 987,-216 1133,-216 1133,-252"/>
<text text-anchor="middle" x="1060" y="-230.3" font-family="Times,serif" font-size="14.00">Policies.TakeFixedArm</text>
</g>
<!-- 14&#45;&gt;25 -->
<g id="edge27" class="edge"><title>14&#45;&gt;25</title>
<path fill="none" stroke="black" d="M1424.25,-167.686C1370.32,-176.261 1252.56,-195.346 1143.17,-215.812"/>
<polygon fill="black" stroke="black" points="1133.29,-217.669 1142.29,-211.399 1138.21,-216.745 1143.12,-215.822 1143.12,-215.822 1143.12,-215.822 1138.21,-216.745 1143.95,-220.244 1133.29,-217.669 1133.29,-217.669"/>
</g>
<!-- 26 -->
<g id="node27" class="node"><title>26</title>
<polygon fill="none" stroke="black" points="2106,-252 1984,-252 1984,-216 2106,-216 2106,-252"/>
<text text-anchor="middle" x="2045" y="-230.3" font-family="Times,serif" font-size="14.00">Policies.Thompson</text>
</g>
<!-- 14&#45;&gt;26 -->
<g id="edge28" class="edge"><title>14&#45;&gt;26</title>
<path fill="none" stroke="black" d="M1483.57,-164.586C1561.99,-169.093 1781.82,-183.684 1973.66,-215.899"/>
<polygon fill="black" stroke="black" points="1983.64,-217.595 1973.03,-220.356 1978.71,-216.757 1973.78,-215.919 1973.78,-215.919 1973.78,-215.919 1978.71,-216.757 1974.53,-211.483 1983.64,-217.595 1983.64,-217.595"/>
</g>
<!-- 27 -->
<g id="node28" class="node"><title>27</title>
<polygon fill="none" stroke="black" points="1242.5,-252 1151.5,-252 1151.5,-216 1242.5,-216 1242.5,-252"/>
<text text-anchor="middle" x="1197" y="-230.3" font-family="Times,serif" font-size="14.00">Policies.UCB</text>
</g>
<!-- 14&#45;&gt;27 -->
<g id="edge29" class="edge"><title>14&#45;&gt;27</title>
<path fill="none" stroke="black" d="M1424.45,-170.327C1386.85,-179.744 1319.69,-196.873 1252.49,-215.924"/>
<polygon fill="black" stroke="black" points="1242.57,-218.748 1250.96,-211.68 1247.38,-217.378 1252.19,-216.008 1252.19,-216.008 1252.19,-216.008 1247.38,-217.378 1253.42,-220.335 1242.57,-218.748 1242.57,-218.748"/>
</g>
<!-- 28 -->
<g id="node29" class="node"><title>28</title>
<polygon fill="none" stroke="black" points="2225.5,-252 2124.5,-252 2124.5,-216 2225.5,-216 2225.5,-252"/>
<text text-anchor="middle" x="2175" y="-230.3" font-family="Times,serif" font-size="14.00">Policies.UCBV</text>
</g>
<!-- 14&#45;&gt;28 -->
<g id="edge30" class="edge"><title>14&#45;&gt;28</title>
<path fill="none" stroke="black" d="M1483.58,-163.313C1575.8,-164.719 1866.15,-172.413 2114.49,-216.145"/>
<polygon fill="black" stroke="black" points="2124.42,-217.917 2113.79,-220.59 2119.5,-217.038 2114.58,-216.16 2114.58,-216.16 2114.58,-216.16 2119.5,-217.038 2115.37,-211.73 2124.42,-217.917 2124.42,-217.917"/>
</g>
<!-- 29 -->
<g id="node30" class="node"><title>29</title>
<polygon fill="none" stroke="black" points="1381,-252 1261,-252 1261,-216 1381,-216 1381,-252"/>
<text text-anchor="middle" x="1321" y="-230.3" font-family="Times,serif" font-size="14.00">Policies.UCBalpha</text>
</g>
<!-- 14&#45;&gt;29 -->
<g id="edge31" class="edge"><title>14&#45;&gt;29</title>
<path fill="none" stroke="black" d="M1424.48,-178.535C1406.3,-188.106 1382.71,-200.523 1362.64,-211.084"/>
<polygon fill="black" stroke="black" points="1353.7,-215.789 1360.45,-207.15 1358.13,-213.46 1362.55,-211.132 1362.55,-211.132 1362.55,-211.132 1358.13,-213.46 1364.65,-215.114 1353.7,-215.789 1353.7,-215.789"/>
</g>
<!-- 30 -->
<g id="node31" class="node"><title>30</title>
<polygon fill="none" stroke="black" points="1509,-252 1399,-252 1399,-216 1509,-216 1509,-252"/>
<text text-anchor="middle" x="1454" y="-230.3" font-family="Times,serif" font-size="14.00">Policies.Uniform</text>
</g>
<!-- 14&#45;&gt;30 -->
<g id="edge32" class="edge"><title>14&#45;&gt;30</title>
<path fill="none" stroke="black" d="M1454,-180.303C1454,-188.017 1454,-197.288 1454,-205.888"/>
<polygon fill="black" stroke="black" points="1454,-215.896 1449.5,-205.896 1454,-210.896 1454,-205.896 1454,-205.896 1454,-205.896 1454,-210.896 1458.5,-205.896 1454,-215.896 1454,-215.896"/>
</g>
<!-- 31 -->
<g id="node32" class="node"><title>31</title>
<polygon fill="none" stroke="black" points="1685,-252 1527,-252 1527,-216 1685,-216 1685,-252"/>
<text text-anchor="middle" x="1606" y="-230.3" font-family="Times,serif" font-size="14.00">Policies.UniformOnSome</text>
</g>
<!-- 14&#45;&gt;31 -->
<g id="edge33" class="edge"><title>14&#45;&gt;31</title>
<path fill="none" stroke="black" d="M1483.67,-176.663C1505.27,-186.612 1534.95,-200.281 1559.67,-211.663"/>
<polygon fill="black" stroke="black" points="1568.87,-215.901 1557.9,-215.805 1564.33,-213.809 1559.79,-211.718 1559.79,-211.718 1559.79,-211.718 1564.33,-213.809 1561.67,-207.63 1568.87,-215.901 1568.87,-215.901"/>
</g>
<!-- 32 -->
<g id="node33" class="node"><title>32</title>
<polygon fill="none" stroke="black" points="2344.5,-252 2243.5,-252 2243.5,-216 2344.5,-216 2344.5,-252"/>
<text text-anchor="middle" x="2294" y="-230.3" font-family="Times,serif" font-size="14.00">Policies.klUCB</text>
</g>
<!-- 14&#45;&gt;32 -->
<g id="edge34" class="edge"><title>14&#45;&gt;32</title>
<path fill="none" stroke="black" d="M1483.71,-162.754C1586.65,-162.372 1937.55,-165.018 2233.26,-215.901"/>
<polygon fill="black" stroke="black" points="2243.31,-217.653 2232.69,-220.369 2238.39,-216.795 2233.46,-215.936 2233.46,-215.936 2233.46,-215.936 2238.39,-216.795 2234.23,-211.503 2243.31,-217.653 2243.31,-217.653"/>
</g>
<!-- 18 -->
<g id="node19" class="node"><title>18</title>
<polygon fill="none" stroke="black" points="1948,-324 1860,-324 1860,-288 1948,-288 1948,-324"/>
<text text-anchor="middle" x="1904" y="-302.3" font-family="Times,serif" font-size="14.00">Policies.Beta</text>
</g>
<!-- 15&#45;&gt;18 -->
<g id="edge35" class="edge"><title>15&#45;&gt;18</title>
<path fill="none" stroke="black" d="M1797.49,-252.124C1816.44,-261.531 1840.13,-273.292 1860.36,-283.333"/>
<polygon fill="black" stroke="black" points="1869.37,-287.81 1858.42,-287.394 1864.9,-285.587 1860.42,-283.363 1860.42,-283.363 1860.42,-283.363 1864.9,-285.587 1862.42,-279.333 1869.37,-287.81 1869.37,-287.81"/>
</g>
<!-- 17&#45;&gt;18 -->
<g id="edge36" class="edge"><title>17&#45;&gt;18</title>
<path fill="none" stroke="black" d="M1904,-252.303C1904,-260.017 1904,-269.288 1904,-277.888"/>
<polygon fill="black" stroke="black" points="1904,-287.896 1899.5,-277.896 1904,-282.896 1904,-277.896 1904,-277.896 1904,-277.896 1904,-282.896 1908.5,-277.896 1904,-287.896 1904,-287.896"/>
</g>
<!-- 22 -->
<g id="node23" class="node"><title>22</title>
<polygon fill="none" stroke="black" points="2239,-324 2111,-324 2111,-288 2239,-288 2239,-324"/>
<text text-anchor="middle" x="2175" y="-302.3" font-family="Times,serif" font-size="14.00">Policies.IndexPolicy</text>
</g>
<!-- 17&#45;&gt;22 -->
<g id="edge37" class="edge"><title>17&#45;&gt;22</title>
<path fill="none" stroke="black" d="M1966.17,-251.059C2006.33,-261.432 2058.78,-274.981 2101.08,-285.905"/>
<polygon fill="black" stroke="black" points="2110.76,-288.407 2099.95,-290.263 2105.92,-287.157 2101.08,-285.906 2101.08,-285.906 2101.08,-285.906 2105.92,-287.157 2102.21,-281.549 2110.76,-288.407 2110.76,-288.407"/>
</g>
<!-- 23 -->
<g id="node24" class="node"><title>23</title>
<polygon fill="none" stroke="black" points="3239.5,-252 3106.5,-252 3106.5,-216 3239.5,-216 3239.5,-252"/>
<text text-anchor="middle" x="3173" y="-230.3" font-family="Times,serif" font-size="14.00">Policies.KLempUCB</text>
</g>
<!-- 23&#45;&gt;22 -->
<g id="edge38" class="edge"><title>23&#45;&gt;22</title>
<path fill="none" stroke="black" d="M3106.38,-250.544C3103.22,-251.08 3100.08,-251.57 3097,-252 2933.77,-274.794 2438.06,-295.159 2249.18,-302.296"/>
<polygon fill="black" stroke="black" points="2239.07,-302.676 2248.89,-297.803 2244.06,-302.488 2249.06,-302.3 2249.06,-302.3 2249.06,-302.3 2244.06,-302.488 2249.23,-306.797 2239.07,-302.676 2239.07,-302.676"/>
</g>
<!-- 33 -->
<g id="node34" class="node"><title>33</title>
<polygon fill="none" stroke="black" points="2797,-324 2687,-324 2687,-288 2797,-288 2797,-324"/>
<text text-anchor="middle" x="2742" y="-302.3" font-family="Times,serif" font-size="14.00">Policies.kullback</text>
</g>
<!-- 23&#45;&gt;33 -->
<g id="edge39" class="edge"><title>23&#45;&gt;33</title>
<path fill="none" stroke="black" d="M3106.33,-250.198C3103.18,-250.826 3100.06,-251.431 3097,-252 2996.42,-270.732 2878.84,-287.235 2807.44,-296.665"/>
<polygon fill="black" stroke="black" points="2797.24,-298.004 2806.57,-292.24 2802.2,-297.353 2807.16,-296.701 2807.16,-296.701 2807.16,-296.701 2802.2,-297.353 2807.74,-301.163 2797.24,-298.004 2797.24,-298.004"/>
</g>
<!-- 26&#45;&gt;18 -->
<g id="edge40" class="edge"><title>26&#45;&gt;18</title>
<path fill="none" stroke="black" d="M2010.51,-252.124C1991.56,-261.531 1967.87,-273.292 1947.64,-283.333"/>
<polygon fill="black" stroke="black" points="1938.63,-287.81 1945.58,-279.333 1943.1,-285.587 1947.58,-283.363 1947.58,-283.363 1947.58,-283.363 1943.1,-285.587 1949.58,-287.394 1938.63,-287.81 1938.63,-287.81"/>
</g>
<!-- 26&#45;&gt;22 -->
<g id="edge41" class="edge"><title>26&#45;&gt;22</title>
<path fill="none" stroke="black" d="M2076.8,-252.124C2094.11,-261.446 2115.72,-273.081 2134.26,-283.061"/>
<polygon fill="black" stroke="black" points="2143.08,-287.81 2132.14,-287.031 2138.67,-285.44 2134.27,-283.069 2134.27,-283.069 2134.27,-283.069 2138.67,-285.44 2136.4,-279.107 2143.08,-287.81 2143.08,-287.81"/>
</g>
<!-- 28&#45;&gt;22 -->
<g id="edge42" class="edge"><title>28&#45;&gt;22</title>
<path fill="none" stroke="black" d="M2175,-252.303C2175,-260.017 2175,-269.288 2175,-277.888"/>
<polygon fill="black" stroke="black" points="2175,-287.896 2170.5,-277.896 2175,-282.896 2175,-277.896 2175,-277.896 2175,-277.896 2175,-282.896 2179.5,-277.896 2175,-287.896 2175,-287.896"/>
</g>
<!-- 32&#45;&gt;22 -->
<g id="edge43" class="edge"><title>32&#45;&gt;22</title>
<path fill="none" stroke="black" d="M2264.89,-252.124C2249.33,-261.276 2229.98,-272.658 2213.22,-282.515"/>
<polygon fill="black" stroke="black" points="2204.22,-287.81 2210.56,-278.861 2208.53,-285.275 2212.84,-282.74 2212.84,-282.74 2212.84,-282.74 2208.53,-285.275 2215.12,-286.619 2204.22,-287.81 2204.22,-287.81"/>
</g>
<!-- 32&#45;&gt;33 -->
<g id="edge44" class="edge"><title>32&#45;&gt;33</title>
<path fill="none" stroke="black" d="M2344.61,-249.881C2347.78,-250.643 2350.93,-251.358 2354,-252 2466.41,-275.482 2599.4,-291.051 2676.88,-298.925"/>
<polygon fill="black" stroke="black" points="2686.97,-299.94 2676.57,-303.417 2681.99,-299.44 2677.02,-298.94 2677.02,-298.94 2677.02,-298.94 2681.99,-299.44 2677.47,-294.462 2686.97,-299.94 2686.97,-299.94"/>
</g>
<!-- 34 -->
<g id="node35" class="node"><title>34</title>
<polygon fill="none" stroke="black" points="1208,-180 1078,-180 1078,-144 1208,-144 1208,-180"/>
<text text-anchor="middle" x="1143" y="-158.3" font-family="Times,serif" font-size="14.00">PoliciesMultiPlayers</text>
</g>
<!-- 39 -->
<g id="node40" class="node"><title>39</title>
<polygon fill="none" stroke="black" points="348.5,-252 177.5,-252 177.5,-216 348.5,-216 348.5,-252"/>
<text text-anchor="middle" x="263" y="-230.3" font-family="Times,serif" font-size="14.00">PoliciesMultiPlayers.Selfish</text>
</g>
<!-- 34&#45;&gt;39 -->
<g id="edge45" class="edge"><title>34&#45;&gt;39</title>
<path fill="none" stroke="black" d="M1077.81,-164.935C944.498,-169.428 630.982,-182.727 358.819,-215.848"/>
<polygon fill="black" stroke="black" points="348.748,-217.085 358.125,-211.399 353.711,-216.476 358.674,-215.866 358.674,-215.866 358.674,-215.866 353.711,-216.476 359.222,-220.332 348.748,-217.085 348.748,-217.085"/>
</g>
<!-- 35 -->
<g id="node36" class="node"><title>35</title>
<polygon fill="none" stroke="black" points="3412,-36 3216,-36 3216,-0 3412,-0 3412,-36"/>
<text text-anchor="middle" x="3314" y="-14.3" font-family="Times,serif" font-size="14.00">PoliciesMultiPlayers.Centralized</text>
</g>
<!-- 36 -->
<g id="node37" class="node"><title>36</title>
<polygon fill="none" stroke="black" points="3639.5,-36 3430.5,-36 3430.5,-0 3639.5,-0 3639.5,-36"/>
<text text-anchor="middle" x="3535" y="-14.3" font-family="Times,serif" font-size="14.00">PoliciesMultiPlayers.Decentralized</text>
</g>
<!-- 37 -->
<g id="node38" class="node"><title>37</title>
<polygon fill="none" stroke="black" points="3832,-36 3658,-36 3658,-0 3832,-0 3832,-36"/>
<text text-anchor="middle" x="3745" y="-14.3" font-family="Times,serif" font-size="14.00">PoliciesMultiPlayers.MEGA</text>
</g>
<!-- 38 -->
<g id="node39" class="node"><title>38</title>
<polygon fill="none" stroke="black" points="4035.5,-36 3850.5,-36 3850.5,-0 4035.5,-0 4035.5,-36"/>
<text text-anchor="middle" x="3943" y="-14.3" font-family="Times,serif" font-size="14.00">PoliciesMultiPlayers.RhoRand</text>
</g>
<!-- 40 -->
<g id="node41" class="node"><title>40</title>
<polygon fill="none" stroke="black" points="4220.5,-36 4053.5,-36 4053.5,-0 4220.5,-0 4220.5,-36"/>
<text text-anchor="middle" x="4137" y="-14.3" font-family="Times,serif" font-size="14.00">PoliciesMultiPlayers.TDFS</text>
</g>
<!-- 41 -->
<g id="node42" class="node"><title>41</title>
<polygon fill="none" stroke="black" points="1426.5,-108 1337.5,-108 1337.5,-72 1426.5,-72 1426.5,-108"/>
<text text-anchor="middle" x="1382" y="-86.3" font-family="Times,serif" font-size="14.00">configuration</text>
</g>
<!-- 41&#45;&gt;2 -->
<g id="edge46" class="edge"><title>41&#45;&gt;2</title>
<path fill="none" stroke="black" d="M1337.33,-95.0661C1206.64,-106.963 824.776,-141.723 674.642,-155.389"/>
<polygon fill="black" stroke="black" points="664.24,-156.336 673.791,-150.948 669.219,-155.882 674.199,-155.429 674.199,-155.429 674.199,-155.429 669.219,-155.882 674.606,-159.911 664.24,-156.336 664.24,-156.336"/>
</g>
<!-- 41&#45;&gt;14 -->
<g id="edge47" class="edge"><title>41&#45;&gt;14</title>
<path fill="none" stroke="black" d="M1399.8,-108.303C1408.6,-116.865 1419.38,-127.344 1429,-136.696"/>
<polygon fill="black" stroke="black" points="1436.41,-143.896 1426.1,-140.151 1432.82,-140.41 1429.24,-136.925 1429.24,-136.925 1429.24,-136.925 1432.82,-140.41 1432.37,-133.698 1436.41,-143.896 1436.41,-143.896"/>
</g>
<!-- 42 -->
<g id="node43" class="node"><title>42</title>
<polygon fill="none" stroke="black" points="1609,-108 1445,-108 1445,-72 1609,-72 1609,-108"/>
<text text-anchor="middle" x="1527" y="-86.3" font-family="Times,serif" font-size="14.00">configuration_multiplayers</text>
</g>
<!-- 42&#45;&gt;2 -->
<g id="edge48" class="edge"><title>42&#45;&gt;2</title>
<path fill="none" stroke="black" d="M1444.82,-106.684C1441.51,-107.158 1438.22,-107.6 1435,-108 1152.15,-143.126 811.483,-155.683 674.469,-159.521"/>
<polygon fill="black" stroke="black" points="664.18,-159.804 674.052,-155.031 669.178,-159.667 674.176,-159.529 674.176,-159.529 674.176,-159.529 669.178,-159.667 674.299,-164.028 664.18,-159.804 664.18,-159.804"/>
</g>
<!-- 42&#45;&gt;7 -->
<g id="edge49" class="edge"><title>42&#45;&gt;7</title>
<path fill="none" stroke="black" d="M1609.15,-100.972C1770.52,-120.779 2140.46,-167.263 2461.77,-215.837"/>
<polygon fill="black" stroke="black" points="2471.74,-217.347 2461.17,-220.299 2466.79,-216.598 2461.85,-215.849 2461.85,-215.849 2461.85,-215.849 2466.79,-216.598 2462.52,-211.4 2471.74,-217.347 2471.74,-217.347"/>
</g>
<!-- 42&#45;&gt;14 -->
<g id="edge50" class="edge"><title>42&#45;&gt;14</title>
<path fill="none" stroke="black" d="M1508.96,-108.303C1499.94,-116.95 1488.88,-127.551 1479.06,-136.973"/>
<polygon fill="black" stroke="black" points="1471.84,-143.896 1475.94,-133.726 1475.45,-140.435 1479.06,-136.974 1479.06,-136.974 1479.06,-136.974 1475.45,-140.435 1482.17,-140.222 1471.84,-143.896 1471.84,-143.896"/>
</g>
<!-- 42&#45;&gt;34 -->
<g id="edge51" class="edge"><title>42&#45;&gt;34</title>
<path fill="none" stroke="black" d="M1444.74,-106.213C1441.45,-106.817 1438.2,-107.415 1435,-108 1361.34,-121.49 1277.2,-136.746 1218.22,-147.414"/>
<polygon fill="black" stroke="black" points="1208.25,-149.219 1217.28,-143.011 1213.17,-148.329 1218.09,-147.439 1218.09,-147.439 1218.09,-147.439 1213.17,-148.329 1218.89,-151.867 1208.25,-149.219 1208.25,-149.219"/>
</g>
<!-- 43 -->
<g id="node44" class="node"><title>43</title>
<polygon fill="none" stroke="black" points="3198,-36 3144,-36 3144,-0 3198,-0 3198,-36"/>
<text text-anchor="middle" x="3171" y="-14.3" font-family="Times,serif" font-size="14.00">main</text>
</g>
<!-- 43&#45;&gt;6 -->
<g id="edge52" class="edge"><title>43&#45;&gt;6</title>
<path fill="none" stroke="black" d="M3171,-36.3034C3171,-44.0173 3171,-53.2875 3171,-61.8876"/>
<polygon fill="black" stroke="black" points="3171,-71.8957 3166.5,-61.8956 3171,-66.8957 3171,-61.8957 3171,-61.8957 3171,-61.8957 3171,-66.8957 3175.5,-61.8957 3171,-71.8957 3171,-71.8957"/>
</g>
<!-- 43&#45;&gt;8 -->
<g id="edge53" class="edge"><title>43&#45;&gt;8</title>
<path fill="none" stroke="black" d="M3190.85,-36.1491C3201.48,-45.9679 3214.34,-58.9109 3224,-72 3238.42,-91.5469 3251.04,-116.109 3259.56,-134.476"/>
<polygon fill="black" stroke="black" points="3263.74,-143.713 3255.52,-136.46 3261.68,-139.158 3259.62,-134.604 3259.62,-134.604 3259.62,-134.604 3261.68,-139.158 3263.72,-132.747 3263.74,-143.713 3263.74,-143.713"/>
</g>
<!-- 43&#45;&gt;41 -->
<g id="edge54" class="edge"><title>43&#45;&gt;41</title>
<path fill="none" stroke="black" d="M3143.93,-24.0177C3120.91,-28.0503 3086.91,-33.4482 3057,-36 2701.24,-66.3554 1807.83,-14.2726 1436.57,-72.2928"/>
<polygon fill="black" stroke="black" points="1426.55,-73.907 1435.71,-67.874 1431.49,-73.1119 1436.42,-72.3167 1436.42,-72.3167 1436.42,-72.3167 1431.49,-73.1119 1437.14,-76.7594 1426.55,-73.907 1426.55,-73.907"/>
</g>
<!-- 44 -->
<g id="node45" class="node"><title>44</title>
<polygon fill="none" stroke="black" points="3047.5,-36 2928.5,-36 2928.5,-0 3047.5,-0 3047.5,-36"/>
<text text-anchor="middle" x="2988" y="-14.3" font-family="Times,serif" font-size="14.00">main_multiplayers</text>
</g>
<!-- 44&#45;&gt;6 -->
<g id="edge55" class="edge"><title>44&#45;&gt;6</title>
<path fill="none" stroke="black" d="M3032.77,-36.1239C3058.21,-45.857 3090.25,-58.1112 3117.07,-68.3714"/>
<polygon fill="black" stroke="black" points="3126.7,-72.0529 3115.75,-72.6831 3122.03,-70.2665 3117.36,-68.4801 3117.36,-68.4801 3117.36,-68.4801 3122.03,-70.2665 3118.96,-64.2771 3126.7,-72.0529 3126.7,-72.0529"/>
</g>
<!-- 44&#45;&gt;9 -->
<g id="edge56" class="edge"><title>44&#45;&gt;9</title>
<path fill="none" stroke="black" d="M2988,-36.1285C2988,-60.3298 2988,-104.789 2988,-133.607"/>
<polygon fill="black" stroke="black" points="2988,-143.811 2983.5,-133.811 2988,-138.811 2988,-133.811 2988,-133.811 2988,-133.811 2988,-138.811 2992.5,-133.811 2988,-143.811 2988,-143.811"/>
</g>
<!-- 44&#45;&gt;42 -->
<g id="edge57" class="edge"><title>44&#45;&gt;42</title>
<path fill="none" stroke="black" d="M2928.46,-21.8526C2702.22,-32.6925 1894.8,-71.3777 1619.63,-84.5617"/>
<polygon fill="black" stroke="black" points="1609.29,-85.0575 1619.06,-80.084 1614.28,-84.8182 1619.27,-84.5788 1619.27,-84.5788 1619.27,-84.5788 1614.28,-84.8182 1619.49,-89.0737 1609.29,-85.0575 1609.29,-85.0575"/>
</g>
</g>
</svg>
