<?xml version="1.0" encoding="UTF-8" standalone="no"?>
<!DOCTYPE svg PUBLIC "-//W3C//DTD SVG 1.1//EN"
 "http://www.w3.org/Graphics/SVG/1.1/DTD/svg11.dtd">
<!-- Generated by graphviz version 2.40.1 (20161225.0304)
 -->
<!-- Title: packages_SMPyBandits.Policies.Posterior Pages: 1 -->
<svg width="627pt" height="260pt"
 viewBox="0.00 0.00 627.00 260.00" xmlns="http://www.w3.org/2000/svg" xmlns:xlink="http://www.w3.org/1999/xlink">
<g id="graph0" class="graph" transform="scale(1 1) rotate(0) translate(4 256)">
<title>packages_SMPyBandits.Policies.Posterior</title>
<polygon fill="#ffffff" stroke="transparent" points="-4,4 -4,-256 623,-256 623,4 -4,4"/>
<!-- 0 -->
<g id="node1" class="node">
<title>0</title>
<polygon fill="none" stroke="#000000" points="370.5,-36 179.5,-36 179.5,0 370.5,0 370.5,-36"/>
<text text-anchor="middle" x="275" y="-14.3" font-family="Times,serif" font-size="14.00" fill="#000000">SMPyBandits.Policies.Posterior</text>
</g>
<!-- 1 -->
<g id="node2" class="node">
<title>1</title>
<polygon fill="none" stroke="#000000" points="220,-180 0,-180 0,-144 220,-144 220,-180"/>
<text text-anchor="middle" x="110" y="-158.3" font-family="Times,serif" font-size="14.00" fill="#000000">SMPyBandits.Policies.Posterior.Beta</text>
</g>
<!-- 0&#45;&gt;1 -->
<g id="edge1" class="edge">
<title>0&#45;&gt;1</title>
<path fill="none" stroke="#000000" d="M179.3303,-28.0268C122.6355,-36.1637 58.5202,-49.9762 41,-72 31.0392,-84.5213 33.992,-93.6164 41,-108 46.7304,-119.7614 56.3987,-129.7151 66.7121,-137.7482"/>
<polygon fill="#000000" stroke="#000000" points="75.0585,-143.7767 64.3171,-141.5694 71.0052,-140.8491 66.9519,-137.9214 66.9519,-137.9214 66.9519,-137.9214 71.0052,-140.8491 69.5868,-134.2735 75.0585,-143.7767 75.0585,-143.7767"/>
</g>
<!-- 2 -->
<g id="node3" class="node">
<title>2</title>
<polygon fill="none" stroke="#000000" points="331.5,-108 50.5,-108 50.5,-72 331.5,-72 331.5,-108"/>
<text text-anchor="middle" x="191" y="-86.3" font-family="Times,serif" font-size="14.00" fill="#000000">SMPyBandits.Policies.Posterior.DiscountedBeta</text>
</g>
<!-- 0&#45;&gt;2 -->
<g id="edge2" class="edge">
<title>0&#45;&gt;2</title>
<path fill="none" stroke="#000000" d="M253.8033,-36.1686C243.5566,-44.9515 231.0997,-55.6288 219.9903,-65.1511"/>
<polygon fill="#000000" stroke="#000000" points="212.19,-71.8372 216.854,-61.9126 215.9863,-68.5832 219.7826,-65.3292 219.7826,-65.3292 219.7826,-65.3292 215.9863,-68.5832 222.7111,-68.7459 212.19,-71.8372 212.19,-71.8372"/>
</g>
<!-- 3 -->
<g id="node4" class="node">
<title>3</title>
<polygon fill="none" stroke="#000000" points="477.5,-180 238.5,-180 238.5,-144 477.5,-144 477.5,-180"/>
<text text-anchor="middle" x="358" y="-158.3" font-family="Times,serif" font-size="14.00" fill="#000000">SMPyBandits.Policies.Posterior.Gamma</text>
</g>
<!-- 0&#45;&gt;3 -->
<g id="edge3" class="edge">
<title>0&#45;&gt;3</title>
<path fill="none" stroke="#000000" d="M304.9071,-36.1511C317.611,-45.3537 331.4373,-57.6334 340,-72 351.1679,-90.7377 355.539,-115.1712 357.1889,-133.851"/>
<polygon fill="#000000" stroke="#000000" points="357.8642,-143.8304 352.6992,-134.157 357.5266,-138.8418 357.189,-133.8532 357.189,-133.8532 357.189,-133.8532 357.5266,-138.8418 361.6787,-133.5493 357.8642,-143.8304 357.8642,-143.8304"/>
</g>
<!-- 4 -->
<g id="node5" class="node">
<title>4</title>
<polygon fill="none" stroke="#000000" points="619,-108 391,-108 391,-72 619,-72 619,-108"/>
<text text-anchor="middle" x="505" y="-86.3" font-family="Times,serif" font-size="14.00" fill="#000000">SMPyBandits.Policies.Posterior.Gauss</text>
</g>
<!-- 0&#45;&gt;4 -->
<g id="edge4" class="edge">
<title>0&#45;&gt;4</title>
<path fill="none" stroke="#000000" d="M332.7418,-36.0757C364.5943,-46.0469 404.3149,-58.4812 437.5844,-68.896"/>
<polygon fill="#000000" stroke="#000000" points="447.2344,-71.9169 436.3467,-73.2238 442.4627,-70.4231 437.6911,-68.9293 437.6911,-68.9293 437.6911,-68.9293 442.4627,-70.4231 439.0355,-64.6348 447.2344,-71.9169 447.2344,-71.9169"/>
</g>
<!-- 5 -->
<g id="node6" class="node">
<title>5</title>
<polygon fill="none" stroke="#000000" points="480,-252 236,-252 236,-216 480,-216 480,-252"/>
<text text-anchor="middle" x="358" y="-230.3" font-family="Times,serif" font-size="14.00" fill="#000000">SMPyBandits.Policies.Posterior.Posterior</text>
</g>
<!-- 1&#45;&gt;5 -->
<g id="edge5" class="edge">
<title>1&#45;&gt;5</title>
<path fill="none" stroke="#000000" d="M172.2608,-180.0757C206.7534,-190.0897 249.803,-202.588 285.7699,-213.03"/>
<polygon fill="#000000" stroke="#000000" points="295.7136,-215.9169 284.8555,-217.4502 290.9119,-214.5228 286.1102,-213.1287 286.1102,-213.1287 286.1102,-213.1287 290.9119,-214.5228 287.3648,-208.8071 295.7136,-215.9169 295.7136,-215.9169"/>
</g>
<!-- 2&#45;&gt;1 -->
<g id="edge6" class="edge">
<title>2&#45;&gt;1</title>
<path fill="none" stroke="#000000" d="M170.5603,-108.1686C160.6795,-116.9515 148.6676,-127.6288 137.955,-137.1511"/>
<polygon fill="#000000" stroke="#000000" points="130.4332,-143.8372 134.9176,-133.8301 134.1702,-140.5153 137.9073,-137.1935 137.9073,-137.1935 137.9073,-137.1935 134.1702,-140.5153 140.897,-140.5569 130.4332,-143.8372 130.4332,-143.8372"/>
</g>
<!-- 3&#45;&gt;5 -->
<g id="edge7" class="edge">
<title>3&#45;&gt;5</title>
<path fill="none" stroke="#000000" d="M358,-180.1686C358,-187.869 358,-197.0257 358,-205.5834"/>
<polygon fill="#000000" stroke="#000000" points="358,-215.5867 353.5001,-205.5867 358,-210.5867 358.0001,-205.5867 358.0001,-205.5867 358.0001,-205.5867 358,-210.5867 362.5001,-205.5868 358,-215.5867 358,-215.5867"/>
</g>
<!-- 4&#45;&gt;5 -->
<g id="edge8" class="edge">
<title>4&#45;&gt;5</title>
<path fill="none" stroke="#000000" d="M505.861,-108.327C505.8145,-128.1623 502.7687,-159.675 486,-180 474.7088,-193.6858 459.3375,-203.9652 443.1633,-211.6658"/>
<polygon fill="#000000" stroke="#000000" points="433.5722,-215.908 440.8973,-207.7475 438.1449,-213.8855 442.7176,-211.8629 442.7176,-211.8629 442.7176,-211.8629 438.1449,-213.8855 444.5379,-215.9783 433.5722,-215.908 433.5722,-215.908"/>
</g>
<!-- 6 -->
<g id="node7" class="node">
<title>6</title>
<polygon fill="none" stroke="#000000" points="593,-36 389,-36 389,0 593,0 593,-36"/>
<text text-anchor="middle" x="491" y="-14.3" font-family="Times,serif" font-size="14.00" fill="#000000">SMPyBandits.Policies.with_proba</text>
</g>
</g>
</svg>
