<?xml version="1.0" encoding="UTF-8" standalone="no"?>
<!DOCTYPE svg PUBLIC "-//W3C//DTD SVG 1.1//EN"
 "http://www.w3.org/Graphics/SVG/1.1/DTD/svg11.dtd">
<!-- Generated by graphviz version 2.38.0 (20140413.2041)
 -->
<!-- Title: packages_AlgoBandits Pages: 1 -->
<svg width="4723pt" height="332pt"
 viewBox="0.00 0.00 4722.50 332.00" xmlns="http://www.w3.org/2000/svg" xmlns:xlink="http://www.w3.org/1999/xlink">
<g id="graph0" class="graph" transform="scale(1 1) rotate(0) translate(4 328)">
<title>packages_AlgoBandits</title>
<polygon fill="white" stroke="none" points="-4,4 -4,-328 4718.5,-328 4718.5,4 -4,4"/>
<!-- 0 -->
<g id="node1" class="node"><title>0</title>
<polygon fill="none" stroke="black" points="253,-108 199,-108 199,-72 253,-72 253,-108"/>
<text text-anchor="middle" x="226" y="-86.3" font-family="Times,serif" font-size="14.00">Arms</text>
</g>
<!-- 2 -->
<g id="node3" class="node"><title>2</title>
<polygon fill="none" stroke="black" points="466,-180 364,-180 364,-144 466,-144 466,-180"/>
<text text-anchor="middle" x="415" y="-158.3" font-family="Times,serif" font-size="14.00">Arms.Bernoulli</text>
</g>
<!-- 0&#45;&gt;2 -->
<g id="edge1" class="edge"><title>0&#45;&gt;2</title>
<path fill="none" stroke="black" d="M253.079,-101.029C280.696,-111.258 324.341,-127.423 359.363,-140.394"/>
<polygon fill="black" stroke="black" points="368.992,-143.96 358.052,-144.707 364.303,-142.223 359.614,-140.487 359.614,-140.487 359.614,-140.487 364.303,-142.223 361.177,-136.267 368.992,-143.96 368.992,-143.96"/>
</g>
<!-- 3 -->
<g id="node4" class="node"><title>3</title>
<polygon fill="none" stroke="black" points="116,-180 7.10543e-15,-180 7.10543e-15,-144 116,-144 116,-180"/>
<text text-anchor="middle" x="58" y="-158.3" font-family="Times,serif" font-size="14.00">Arms.Exponential</text>
</g>
<!-- 0&#45;&gt;3 -->
<g id="edge2" class="edge"><title>0&#45;&gt;3</title>
<path fill="none" stroke="black" d="M198.634,-102.403C174.22,-112.575 137.858,-127.726 108.224,-140.073"/>
<polygon fill="black" stroke="black" points="98.8633,-143.974 106.363,-135.974 103.479,-142.051 108.094,-140.127 108.094,-140.127 108.094,-140.127 103.479,-142.051 109.825,-144.281 98.8633,-143.974 98.8633,-143.974"/>
</g>
<!-- 4 -->
<g id="node5" class="node"><title>4</title>
<polygon fill="none" stroke="black" points="235.5,-180 134.5,-180 134.5,-144 235.5,-144 235.5,-180"/>
<text text-anchor="middle" x="185" y="-158.3" font-family="Times,serif" font-size="14.00">Arms.Gaussian</text>
</g>
<!-- 0&#45;&gt;4 -->
<g id="edge3" class="edge"><title>0&#45;&gt;4</title>
<path fill="none" stroke="black" d="M215.865,-108.303C211.148,-116.356 205.438,-126.106 200.218,-135.018"/>
<polygon fill="black" stroke="black" points="195.018,-143.896 196.189,-132.992 197.545,-139.581 200.072,-135.267 200.072,-135.267 200.072,-135.267 197.545,-139.581 203.955,-137.541 195.018,-143.896 195.018,-143.896"/>
</g>
<!-- 5 -->
<g id="node6" class="node"><title>5</title>
<polygon fill="none" stroke="black" points="346.5,-180 253.5,-180 253.5,-144 346.5,-144 346.5,-180"/>
<text text-anchor="middle" x="300" y="-158.3" font-family="Times,serif" font-size="14.00">Arms.Poisson</text>
</g>
<!-- 0&#45;&gt;5 -->
<g id="edge4" class="edge"><title>0&#45;&gt;5</title>
<path fill="none" stroke="black" d="M244.292,-108.303C253.433,-116.95 264.64,-127.551 274.6,-136.973"/>
<polygon fill="black" stroke="black" points="281.918,-143.896 271.561,-140.293 278.286,-140.46 274.654,-137.024 274.654,-137.024 274.654,-137.024 278.286,-140.46 277.746,-133.755 281.918,-143.896 281.918,-143.896"/>
</g>
<!-- 1 -->
<g id="node2" class="node"><title>1</title>
<polygon fill="none" stroke="black" points="96.5,-252 19.5,-252 19.5,-216 96.5,-216 96.5,-252"/>
<text text-anchor="middle" x="58" y="-230.3" font-family="Times,serif" font-size="14.00">Arms.Arm</text>
</g>
<!-- 2&#45;&gt;1 -->
<g id="edge5" class="edge"><title>2&#45;&gt;1</title>
<path fill="none" stroke="black" d="M363.725,-178.013C360.783,-178.723 357.859,-179.392 355,-180 248.308,-202.691 215.739,-189.563 106.303,-215.946"/>
<polygon fill="black" stroke="black" points="96.5347,-218.356 105.166,-211.592 101.389,-217.158 106.244,-215.961 106.244,-215.961 106.244,-215.961 101.389,-217.158 107.321,-220.33 96.5347,-218.356 96.5347,-218.356"/>
</g>
<!-- 3&#45;&gt;1 -->
<g id="edge6" class="edge"><title>3&#45;&gt;1</title>
<path fill="none" stroke="black" d="M58,-180.303C58,-188.017 58,-197.288 58,-205.888"/>
<polygon fill="black" stroke="black" points="58,-215.896 53.5001,-205.896 58,-210.896 58.0001,-205.896 58.0001,-205.896 58.0001,-205.896 58,-210.896 62.5001,-205.896 58,-215.896 58,-215.896"/>
</g>
<!-- 4&#45;&gt;1 -->
<g id="edge7" class="edge"><title>4&#45;&gt;1</title>
<path fill="none" stroke="black" d="M153.932,-180.124C137.173,-189.361 116.294,-200.869 98.2982,-210.788"/>
<polygon fill="black" stroke="black" points="89.1871,-215.81 95.7727,-207.042 93.566,-213.397 97.9449,-210.983 97.9449,-210.983 97.9449,-210.983 93.566,-213.397 100.117,-214.924 89.1871,-215.81 89.1871,-215.81"/>
</g>
<!-- 5&#45;&gt;1 -->
<g id="edge8" class="edge"><title>5&#45;&gt;1</title>
<path fill="none" stroke="black" d="M253.291,-177.337C250.151,-178.252 247.032,-179.148 244,-180 185.566,-196.429 167.69,-197.099 106.422,-215.693"/>
<polygon fill="black" stroke="black" points="96.6316,-218.702 104.868,-211.462 101.411,-217.233 106.19,-215.764 106.19,-215.764 106.19,-215.764 101.411,-217.233 107.513,-220.065 96.6316,-218.702 96.6316,-218.702"/>
</g>
<!-- 6 -->
<g id="node7" class="node"><title>6</title>
<polygon fill="none" stroke="black" points="3259,-108 3171,-108 3171,-72 3259,-72 3259,-108"/>
<text text-anchor="middle" x="3215" y="-86.3" font-family="Times,serif" font-size="14.00">Environment</text>
</g>
<!-- 8 -->
<g id="node9" class="node"><title>8</title>
<polygon fill="none" stroke="black" points="3387,-180 3243,-180 3243,-144 3387,-144 3387,-180"/>
<text text-anchor="middle" x="3315" y="-158.3" font-family="Times,serif" font-size="14.00">Environment.Evaluator</text>
</g>
<!-- 6&#45;&gt;8 -->
<g id="edge9" class="edge"><title>6&#45;&gt;8</title>
<path fill="none" stroke="black" d="M3239.46,-108.124C3252.3,-117.107 3268.2,-128.237 3282.09,-137.966"/>
<polygon fill="black" stroke="black" points="3290.44,-143.81 3279.67,-141.762 3286.35,-140.943 3282.25,-138.076 3282.25,-138.076 3282.25,-138.076 3286.35,-140.943 3284.83,-134.389 3290.44,-143.81 3290.44,-143.81"/>
</g>
<!-- 9 -->
<g id="node10" class="node"><title>9</title>
<polygon fill="none" stroke="black" points="3186.5,-180 2971.5,-180 2971.5,-144 3186.5,-144 3186.5,-180"/>
<text text-anchor="middle" x="3079" y="-158.3" font-family="Times,serif" font-size="14.00">Environment.EvaluatorMultiPlayers</text>
</g>
<!-- 6&#45;&gt;9 -->
<g id="edge10" class="edge"><title>6&#45;&gt;9</title>
<path fill="none" stroke="black" d="M3181.73,-108.124C3163.54,-117.488 3140.81,-129.186 3121.36,-139.197"/>
<polygon fill="black" stroke="black" points="3112.4,-143.81 3119.23,-135.233 3116.84,-141.522 3121.29,-139.234 3121.29,-139.234 3121.29,-139.234 3116.84,-141.522 3123.35,-143.235 3112.4,-143.81 3112.4,-143.81"/>
</g>
<!-- 10 -->
<g id="node11" class="node"><title>10</title>
<polygon fill="none" stroke="black" points="3276.5,-252 3153.5,-252 3153.5,-216 3276.5,-216 3276.5,-252"/>
<text text-anchor="middle" x="3215" y="-230.3" font-family="Times,serif" font-size="14.00">Environment.MAB</text>
</g>
<!-- 6&#45;&gt;10 -->
<g id="edge11" class="edge"><title>6&#45;&gt;10</title>
<path fill="none" stroke="black" d="M3215,-108.129C3215,-132.33 3215,-176.789 3215,-205.607"/>
<polygon fill="black" stroke="black" points="3215,-215.811 3210.5,-205.811 3215,-210.811 3215,-205.811 3215,-205.811 3215,-205.811 3215,-210.811 3219.5,-205.811 3215,-215.811 3215,-215.811"/>
</g>
<!-- 11 -->
<g id="node12" class="node"><title>11</title>
<polygon fill="none" stroke="black" points="3593,-252 3467,-252 3467,-216 3593,-216 3593,-252"/>
<text text-anchor="middle" x="3530" y="-230.3" font-family="Times,serif" font-size="14.00">Environment.Result</text>
</g>
<!-- 6&#45;&gt;11 -->
<g id="edge12" class="edge"><title>6&#45;&gt;11</title>
<path fill="none" stroke="black" d="M3259.12,-99.9912C3296.62,-108.545 3351.32,-123.208 3396,-144 3434.38,-161.863 3474.3,-189.779 3500.47,-209.578"/>
<polygon fill="black" stroke="black" points="3508.46,-215.698 3497.79,-213.193 3504.49,-212.659 3500.52,-209.619 3500.52,-209.619 3500.52,-209.619 3504.49,-212.659 3503.26,-206.046 3508.46,-215.698 3508.46,-215.698"/>
</g>
<!-- 7 -->
<g id="node8" class="node"><title>7</title>
<polygon fill="none" stroke="black" points="2920,-252 2738,-252 2738,-216 2920,-216 2920,-252"/>
<text text-anchor="middle" x="2829" y="-230.3" font-family="Times,serif" font-size="14.00">Environment.CollisionModels</text>
</g>
<!-- 8&#45;&gt;10 -->
<g id="edge13" class="edge"><title>8&#45;&gt;10</title>
<path fill="none" stroke="black" d="M3290.54,-180.124C3277.7,-189.107 3261.8,-200.237 3247.91,-209.966"/>
<polygon fill="black" stroke="black" points="3239.56,-215.81 3245.17,-206.389 3243.65,-212.943 3247.75,-210.076 3247.75,-210.076 3247.75,-210.076 3243.65,-212.943 3250.33,-213.762 3239.56,-215.81 3239.56,-215.81"/>
</g>
<!-- 8&#45;&gt;11 -->
<g id="edge14" class="edge"><title>8&#45;&gt;11</title>
<path fill="none" stroke="black" d="M3367.32,-180.034C3397.62,-189.9 3435.95,-202.378 3467.79,-212.745"/>
<polygon fill="black" stroke="black" points="3477.45,-215.889 3466.54,-217.072 3472.69,-214.341 3467.94,-212.793 3467.94,-212.793 3467.94,-212.793 3472.69,-214.341 3469.33,-208.514 3477.45,-215.889 3477.45,-215.889"/>
</g>
<!-- 13 -->
<g id="node14" class="node"><title>13</title>
<polygon fill="none" stroke="black" points="3449,-252 3295,-252 3295,-216 3449,-216 3449,-252"/>
<text text-anchor="middle" x="3372" y="-230.3" font-family="Times,serif" font-size="14.00">Environment.plotsettings</text>
</g>
<!-- 8&#45;&gt;13 -->
<g id="edge15" class="edge"><title>8&#45;&gt;13</title>
<path fill="none" stroke="black" d="M3329.09,-180.303C3335.92,-188.695 3344.26,-198.93 3351.76,-208.139"/>
<polygon fill="black" stroke="black" points="3358.07,-215.896 3348.27,-210.983 3354.92,-212.018 3351.76,-208.141 3351.76,-208.141 3351.76,-208.141 3354.92,-212.018 3355.25,-205.3 3358.07,-215.896 3358.07,-215.896"/>
</g>
<!-- 9&#45;&gt;7 -->
<g id="edge16" class="edge"><title>9&#45;&gt;7</title>
<path fill="none" stroke="black" d="M3018.16,-180.034C2982.47,-190.028 2937.21,-202.702 2899.91,-213.146"/>
<polygon fill="black" stroke="black" points="2890.11,-215.889 2898.53,-208.859 2894.92,-214.541 2899.74,-213.193 2899.74,-213.193 2899.74,-213.193 2894.92,-214.541 2900.95,-217.526 2890.11,-215.889 2890.11,-215.889"/>
</g>
<!-- 9&#45;&gt;10 -->
<g id="edge17" class="edge"><title>9&#45;&gt;10</title>
<path fill="none" stroke="black" d="M3112.27,-180.124C3130.46,-189.488 3153.19,-201.186 3172.64,-211.197"/>
<polygon fill="black" stroke="black" points="3181.6,-215.81 3170.65,-215.235 3177.16,-213.522 3172.71,-211.234 3172.71,-211.234 3172.71,-211.234 3177.16,-213.522 3174.77,-207.233 3181.6,-215.81 3181.6,-215.81"/>
</g>
<!-- 12 -->
<g id="node13" class="node"><title>12</title>
<polygon fill="none" stroke="black" points="3135.5,-252 2938.5,-252 2938.5,-216 3135.5,-216 3135.5,-252"/>
<text text-anchor="middle" x="3037" y="-230.3" font-family="Times,serif" font-size="14.00">Environment.ResultMultiPlayers</text>
</g>
<!-- 9&#45;&gt;12 -->
<g id="edge18" class="edge"><title>9&#45;&gt;12</title>
<path fill="none" stroke="black" d="M3068.62,-180.303C3063.74,-188.441 3057.81,-198.311 3052.42,-207.299"/>
<polygon fill="black" stroke="black" points="3047.26,-215.896 3048.55,-205.005 3049.84,-211.608 3052.41,-207.321 3052.41,-207.321 3052.41,-207.321 3049.84,-211.608 3056.27,-209.636 3047.26,-215.896 3047.26,-215.896"/>
</g>
<!-- 9&#45;&gt;13 -->
<g id="edge19" class="edge"><title>9&#45;&gt;13</title>
<path fill="none" stroke="black" d="M3150.3,-180.034C3192.74,-190.174 3246.74,-203.073 3290.81,-213.604"/>
<polygon fill="black" stroke="black" points="3300.63,-215.95 3289.86,-218.003 3295.77,-214.788 3290.91,-213.626 3290.91,-213.626 3290.91,-213.626 3295.77,-214.788 3291.95,-209.249 3300.63,-215.95 3300.63,-215.95"/>
</g>
<!-- 14 -->
<g id="node15" class="node"><title>14</title>
<polygon fill="none" stroke="black" points="1466.5,-180 1407.5,-180 1407.5,-144 1466.5,-144 1466.5,-180"/>
<text text-anchor="middle" x="1437" y="-158.3" font-family="Times,serif" font-size="14.00">Policies</text>
</g>
<!-- 15 -->
<g id="node16" class="node"><title>15</title>
<polygon fill="none" stroke="black" points="235.5,-252 114.5,-252 114.5,-216 235.5,-216 235.5,-252"/>
<text text-anchor="middle" x="175" y="-230.3" font-family="Times,serif" font-size="14.00">Policies.AdBandits</text>
</g>
<!-- 14&#45;&gt;15 -->
<g id="edge20" class="edge"><title>14&#45;&gt;15</title>
<path fill="none" stroke="black" d="M1407.33,-163.539C1248.79,-166.537 499.685,-182.203 245.487,-216.16"/>
<polygon fill="black" stroke="black" points="235.567,-217.531 244.857,-211.704 240.52,-216.846 245.473,-216.162 245.473,-216.162 245.473,-216.162 240.52,-216.846 246.089,-220.619 235.567,-217.531 235.567,-217.531"/>
</g>
<!-- 16 -->
<g id="node17" class="node"><title>16</title>
<polygon fill="none" stroke="black" points="1016.5,-252 925.5,-252 925.5,-216 1016.5,-216 1016.5,-252"/>
<text text-anchor="middle" x="971" y="-230.3" font-family="Times,serif" font-size="14.00">Policies.Aggr</text>
</g>
<!-- 14&#45;&gt;16 -->
<g id="edge21" class="edge"><title>14&#45;&gt;16</title>
<path fill="none" stroke="black" d="M1407.47,-164.995C1340.92,-169.874 1174.11,-184.24 1026.64,-215.843"/>
<polygon fill="black" stroke="black" points="1016.51,-218.049 1025.33,-211.525 1021.4,-216.986 1026.28,-215.922 1026.28,-215.922 1026.28,-215.922 1021.4,-216.986 1027.24,-220.319 1016.51,-218.049 1016.51,-218.049"/>
</g>
<!-- 17 -->
<g id="node18" class="node"><title>17</title>
<polygon fill="none" stroke="black" points="378,-252 254,-252 254,-216 378,-216 378,-252"/>
<text text-anchor="middle" x="316" y="-230.3" font-family="Times,serif" font-size="14.00">Policies.BayesUCB</text>
</g>
<!-- 14&#45;&gt;17 -->
<g id="edge22" class="edge"><title>14&#45;&gt;17</title>
<path fill="none" stroke="black" d="M1407.03,-163.765C1259.84,-167.634 611.868,-185.998 388.221,-216.025"/>
<polygon fill="black" stroke="black" points="378.213,-217.417 387.497,-211.582 383.165,-216.728 388.117,-216.039 388.117,-216.039 388.117,-216.039 383.165,-216.728 388.737,-220.496 378.213,-217.417 378.213,-217.417"/>
</g>
<!-- 19 -->
<g id="node20" class="node"><title>19</title>
<polygon fill="none" stroke="black" points="1199.5,-252 1034.5,-252 1034.5,-216 1199.5,-216 1199.5,-252"/>
<text text-anchor="middle" x="1117" y="-230.3" font-family="Times,serif" font-size="14.00">Policies.EpsilonDecreasing</text>
</g>
<!-- 14&#45;&gt;19 -->
<g id="edge23" class="edge"><title>14&#45;&gt;19</title>
<path fill="none" stroke="black" d="M1407.47,-169.46C1361.83,-179.444 1272.36,-199.016 1204.71,-213.813"/>
<polygon fill="black" stroke="black" points="1194.9,-215.96 1203.7,-209.427 1199.78,-214.891 1204.67,-213.823 1204.67,-213.823 1204.67,-213.823 1199.78,-214.891 1205.63,-218.219 1194.9,-215.96 1194.9,-215.96"/>
</g>
<!-- 20 -->
<g id="node21" class="node"><title>20</title>
<polygon fill="none" stroke="black" points="1346.5,-252 1217.5,-252 1217.5,-216 1346.5,-216 1346.5,-252"/>
<text text-anchor="middle" x="1282" y="-230.3" font-family="Times,serif" font-size="14.00">Policies.EpsilonFirst</text>
</g>
<!-- 14&#45;&gt;20 -->
<g id="edge24" class="edge"><title>14&#45;&gt;20</title>
<path fill="none" stroke="black" d="M1407.48,-176.331C1385.26,-186.365 1354.37,-200.315 1328.8,-211.863"/>
<polygon fill="black" stroke="black" points="1319.65,-215.998 1326.91,-207.781 1324.2,-213.94 1328.76,-211.882 1328.76,-211.882 1328.76,-211.882 1324.2,-213.94 1330.61,-215.983 1319.65,-215.998 1319.65,-215.998"/>
</g>
<!-- 21 -->
<g id="node22" class="node"><title>21</title>
<polygon fill="none" stroke="black" points="1509,-252 1365,-252 1365,-216 1509,-216 1509,-252"/>
<text text-anchor="middle" x="1437" y="-230.3" font-family="Times,serif" font-size="14.00">Policies.EpsilonGreedy</text>
</g>
<!-- 14&#45;&gt;21 -->
<g id="edge25" class="edge"><title>14&#45;&gt;21</title>
<path fill="none" stroke="black" d="M1437,-180.303C1437,-188.017 1437,-197.288 1437,-205.888"/>
<polygon fill="black" stroke="black" points="1437,-215.896 1432.5,-205.896 1437,-210.896 1437,-205.896 1437,-205.896 1437,-205.896 1437,-210.896 1441.5,-205.896 1437,-215.896 1437,-215.896"/>
</g>
<!-- 24 -->
<g id="node25" class="node"><title>24</title>
<polygon fill="none" stroke="black" points="1664.5,-252 1527.5,-252 1527.5,-216 1664.5,-216 1664.5,-252"/>
<text text-anchor="middle" x="1596" y="-230.3" font-family="Times,serif" font-size="14.00">Policies.MusicalChair</text>
</g>
<!-- 14&#45;&gt;24 -->
<g id="edge26" class="edge"><title>14&#45;&gt;24</title>
<path fill="none" stroke="black" d="M1466.53,-176.002C1489.33,-186.038 1521.34,-200.132 1547.83,-211.794"/>
<polygon fill="black" stroke="black" points="1557.31,-215.968 1546.35,-216.057 1552.74,-213.953 1548.16,-211.939 1548.16,-211.939 1548.16,-211.939 1552.74,-213.953 1549.97,-207.82 1557.31,-215.968 1557.31,-215.968"/>
</g>
<!-- 25 -->
<g id="node26" class="node"><title>25</title>
<polygon fill="none" stroke="black" points="1793,-252 1683,-252 1683,-216 1793,-216 1793,-252"/>
<text text-anchor="middle" x="1738" y="-230.3" font-family="Times,serif" font-size="14.00">Policies.Softmax</text>
</g>
<!-- 14&#45;&gt;25 -->
<g id="edge27" class="edge"><title>14&#45;&gt;25</title>
<path fill="none" stroke="black" d="M1466.51,-169.281C1511.27,-178.885 1598.94,-198.005 1673,-216 1673.1,-216.024 1673.2,-216.048 1673.3,-216.072"/>
<polygon fill="black" stroke="black" points="1682.71,-218.401 1671.93,-220.369 1677.86,-217.201 1673.01,-216 1673.01,-216 1673.01,-216 1677.86,-217.201 1674.09,-211.632 1682.71,-218.401 1682.71,-218.401"/>
</g>
<!-- 26 -->
<g id="node27" class="node"><title>26</title>
<polygon fill="none" stroke="black" points="1957,-252 1811,-252 1811,-216 1957,-216 1957,-252"/>
<text text-anchor="middle" x="1884" y="-230.3" font-family="Times,serif" font-size="14.00">Policies.TakeFixedArm</text>
</g>
<!-- 14&#45;&gt;26 -->
<g id="edge28" class="edge"><title>14&#45;&gt;26</title>
<path fill="none" stroke="black" d="M1466.9,-166.722C1527.76,-174.429 1670.59,-193.193 1800.59,-215.806"/>
<polygon fill="black" stroke="black" points="1810.72,-217.581 1800.1,-220.288 1805.8,-216.718 1800.87,-215.855 1800.87,-215.855 1800.87,-215.855 1805.8,-216.718 1801.65,-211.423 1810.72,-217.581 1810.72,-217.581"/>
</g>
<!-- 27 -->
<g id="node28" class="node"><title>27</title>
<polygon fill="none" stroke="black" points="2168.5,-252 1975.5,-252 1975.5,-216 2168.5,-216 2168.5,-252"/>
<text text-anchor="middle" x="2072" y="-230.3" font-family="Times,serif" font-size="14.00">Policies.TakeRandomFixedArm</text>
</g>
<!-- 14&#45;&gt;27 -->
<g id="edge29" class="edge"><title>14&#45;&gt;27</title>
<path fill="none" stroke="black" d="M1466.61,-165.348C1545.71,-171.751 1768.74,-190.666 1965.34,-215.959"/>
<polygon fill="black" stroke="black" points="1975.27,-217.245 1964.78,-220.423 1970.31,-216.603 1965.35,-215.961 1965.35,-215.961 1965.35,-215.961 1970.31,-216.603 1965.93,-211.498 1975.27,-217.245 1975.27,-217.245"/>
</g>
<!-- 28 -->
<g id="node29" class="node"><title>28</title>
<polygon fill="none" stroke="black" points="518,-252 396,-252 396,-216 518,-216 518,-252"/>
<text text-anchor="middle" x="457" y="-230.3" font-family="Times,serif" font-size="14.00">Policies.Thompson</text>
</g>
<!-- 14&#45;&gt;28 -->
<g id="edge30" class="edge"><title>14&#45;&gt;28</title>
<path fill="none" stroke="black" d="M1407.34,-162.795C1294.1,-162.418 878.192,-164.719 528.405,-215.951"/>
<polygon fill="black" stroke="black" points="518.337,-217.443 527.569,-211.526 523.283,-216.71 528.229,-215.978 528.229,-215.978 528.229,-215.978 523.283,-216.71 528.888,-220.429 518.337,-217.443 518.337,-217.443"/>
</g>
<!-- 29 -->
<g id="node30" class="node"><title>29</title>
<polygon fill="none" stroke="black" points="2277.5,-252 2186.5,-252 2186.5,-216 2277.5,-216 2277.5,-252"/>
<text text-anchor="middle" x="2232" y="-230.3" font-family="Times,serif" font-size="14.00">Policies.UCB</text>
</g>
<!-- 14&#45;&gt;29 -->
<g id="edge31" class="edge"><title>14&#45;&gt;29</title>
<path fill="none" stroke="black" d="M1466.57,-162.711C1565.91,-162.245 1896.64,-164.768 2176.35,-216.164"/>
<polygon fill="black" stroke="black" points="2186.28,-218.013 2175.63,-220.606 2181.37,-217.097 2176.45,-216.182 2176.45,-216.182 2176.45,-216.182 2181.37,-217.097 2177.27,-211.758 2186.28,-218.013 2186.28,-218.013"/>
</g>
<!-- 30 -->
<g id="node31" class="node"><title>30</title>
<polygon fill="none" stroke="black" points="637.5,-252 536.5,-252 536.5,-216 637.5,-216 637.5,-252"/>
<text text-anchor="middle" x="587" y="-230.3" font-family="Times,serif" font-size="14.00">Policies.UCBV</text>
</g>
<!-- 14&#45;&gt;30 -->
<g id="edge32" class="edge"><title>14&#45;&gt;30</title>
<path fill="none" stroke="black" d="M1407.28,-162.717C1303.48,-162.205 947.61,-164.444 647.878,-215.879"/>
<polygon fill="black" stroke="black" points="637.687,-217.651 646.769,-211.504 642.614,-216.794 647.54,-215.938 647.54,-215.938 647.54,-215.938 642.614,-216.794 648.31,-220.371 637.687,-217.651 637.687,-217.651"/>
</g>
<!-- 31 -->
<g id="node32" class="node"><title>31</title>
<polygon fill="none" stroke="black" points="2416,-252 2296,-252 2296,-216 2416,-216 2416,-252"/>
<text text-anchor="middle" x="2356" y="-230.3" font-family="Times,serif" font-size="14.00">Policies.UCBalpha</text>
</g>
<!-- 14&#45;&gt;31 -->
<g id="edge33" class="edge"><title>14&#45;&gt;31</title>
<path fill="none" stroke="black" d="M1466.53,-162.97C1574.72,-163.253 1959.67,-167.702 2285.69,-216.149"/>
<polygon fill="black" stroke="black" points="2295.8,-217.669 2285.25,-220.633 2290.86,-216.926 2285.92,-216.183 2285.92,-216.183 2285.92,-216.183 2290.86,-216.926 2286.58,-211.733 2295.8,-217.669 2295.8,-217.669"/>
</g>
<!-- 32 -->
<g id="node33" class="node"><title>32</title>
<polygon fill="none" stroke="black" points="2544,-252 2434,-252 2434,-216 2544,-216 2544,-252"/>
<text text-anchor="middle" x="2489" y="-230.3" font-family="Times,serif" font-size="14.00">Policies.Uniform</text>
</g>
<!-- 14&#45;&gt;32 -->
<g id="edge34" class="edge"><title>14&#45;&gt;32</title>
<path fill="none" stroke="black" d="M1466.63,-163.766C1607.75,-167.537 2213.31,-185.145 2423.97,-216.088"/>
<polygon fill="black" stroke="black" points="2434,-217.619 2423.43,-220.559 2429.05,-216.865 2424.11,-216.11 2424.11,-216.11 2424.11,-216.11 2429.05,-216.865 2424.79,-211.662 2434,-217.619 2434,-217.619"/>
</g>
<!-- 33 -->
<g id="node34" class="node"><title>33</title>
<polygon fill="none" stroke="black" points="2720,-252 2562,-252 2562,-216 2720,-216 2720,-252"/>
<text text-anchor="middle" x="2641" y="-230.3" font-family="Times,serif" font-size="14.00">Policies.UniformOnSome</text>
</g>
<!-- 14&#45;&gt;33 -->
<g id="edge35" class="edge"><title>14&#45;&gt;33</title>
<path fill="none" stroke="black" d="M1466.88,-162.851C1595.65,-162.535 2116.04,-164.612 2551.97,-215.987"/>
<polygon fill="black" stroke="black" points="2561.93,-217.171 2551.47,-220.458 2556.97,-216.58 2552,-215.99 2552,-215.99 2552,-215.99 2556.97,-216.58 2552.53,-211.521 2561.93,-217.171 2561.93,-217.171"/>
</g>
<!-- 34 -->
<g id="node35" class="node"><title>34</title>
<polygon fill="none" stroke="black" points="907.5,-252 806.5,-252 806.5,-216 907.5,-216 907.5,-252"/>
<text text-anchor="middle" x="857" y="-230.3" font-family="Times,serif" font-size="14.00">Policies.klUCB</text>
</g>
<!-- 14&#45;&gt;34 -->
<g id="edge36" class="edge"><title>14&#45;&gt;34</title>
<path fill="none" stroke="black" d="M1407.35,-164.156C1328.74,-167.613 1108.48,-179.851 917.636,-215.864"/>
<polygon fill="black" stroke="black" points="907.708,-217.764 916.684,-211.465 912.619,-216.824 917.53,-215.884 917.53,-215.884 917.53,-215.884 912.619,-216.824 918.376,-220.304 907.708,-217.764 907.708,-217.764"/>
</g>
<!-- 18 -->
<g id="node19" class="node"><title>18</title>
<polygon fill="none" stroke="black" points="360,-324 272,-324 272,-288 360,-288 360,-324"/>
<text text-anchor="middle" x="316" y="-302.3" font-family="Times,serif" font-size="14.00">Policies.Beta</text>
</g>
<!-- 15&#45;&gt;18 -->
<g id="edge37" class="edge"><title>15&#45;&gt;18</title>
<path fill="none" stroke="black" d="M209.492,-252.124C228.44,-261.531 252.132,-273.292 272.356,-283.333"/>
<polygon fill="black" stroke="black" points="281.375,-287.81 270.417,-287.394 276.896,-285.587 272.418,-283.363 272.418,-283.363 272.418,-283.363 276.896,-285.587 274.419,-279.333 281.375,-287.81 281.375,-287.81"/>
</g>
<!-- 17&#45;&gt;18 -->
<g id="edge38" class="edge"><title>17&#45;&gt;18</title>
<path fill="none" stroke="black" d="M316,-252.303C316,-260.017 316,-269.288 316,-277.888"/>
<polygon fill="black" stroke="black" points="316,-287.896 311.5,-277.896 316,-282.896 316,-277.896 316,-277.896 316,-277.896 316,-282.896 320.5,-277.896 316,-287.896 316,-287.896"/>
</g>
<!-- 22 -->
<g id="node23" class="node"><title>22</title>
<polygon fill="none" stroke="black" points="651,-324 523,-324 523,-288 651,-288 651,-324"/>
<text text-anchor="middle" x="587" y="-302.3" font-family="Times,serif" font-size="14.00">Policies.IndexPolicy</text>
</g>
<!-- 17&#45;&gt;22 -->
<g id="edge39" class="edge"><title>17&#45;&gt;22</title>
<path fill="none" stroke="black" d="M378.173,-251.059C418.331,-261.432 470.785,-274.981 513.075,-285.905"/>
<polygon fill="black" stroke="black" points="522.762,-288.407 511.954,-290.263 517.921,-287.157 513.08,-285.906 513.08,-285.906 513.08,-285.906 517.921,-287.157 514.205,-281.549 522.762,-288.407 522.762,-288.407"/>
</g>
<!-- 23 -->
<g id="node24" class="node"><title>23</title>
<polygon fill="none" stroke="black" points="788.5,-252 655.5,-252 655.5,-216 788.5,-216 788.5,-252"/>
<text text-anchor="middle" x="722" y="-230.3" font-family="Times,serif" font-size="14.00">Policies.KLempUCB</text>
</g>
<!-- 23&#45;&gt;22 -->
<g id="edge40" class="edge"><title>23&#45;&gt;22</title>
<path fill="none" stroke="black" d="M688.975,-252.124C670.915,-261.488 648.355,-273.186 629.049,-283.197"/>
<polygon fill="black" stroke="black" points="620.152,-287.81 626.958,-279.212 624.59,-285.509 629.029,-283.207 629.029,-283.207 629.029,-283.207 624.59,-285.509 631.101,-287.202 620.152,-287.81 620.152,-287.81"/>
</g>
<!-- 35 -->
<g id="node36" class="node"><title>35</title>
<polygon fill="none" stroke="black" points="845,-324 735,-324 735,-288 845,-288 845,-324"/>
<text text-anchor="middle" x="790" y="-302.3" font-family="Times,serif" font-size="14.00">Policies.kullback</text>
</g>
<!-- 23&#45;&gt;35 -->
<g id="edge41" class="edge"><title>23&#45;&gt;35</title>
<path fill="none" stroke="black" d="M738.809,-252.303C747.126,-260.865 757.305,-271.344 766.39,-280.696"/>
<polygon fill="black" stroke="black" points="773.384,-287.896 763.189,-283.858 769.9,-284.309 766.416,-280.723 766.416,-280.723 766.416,-280.723 769.9,-284.309 769.644,-277.587 773.384,-287.896 773.384,-287.896"/>
</g>
<!-- 28&#45;&gt;18 -->
<g id="edge42" class="edge"><title>28&#45;&gt;18</title>
<path fill="none" stroke="black" d="M422.508,-252.124C403.56,-261.531 379.868,-273.292 359.644,-283.333"/>
<polygon fill="black" stroke="black" points="350.625,-287.81 357.581,-279.333 355.104,-285.587 359.582,-283.363 359.582,-283.363 359.582,-283.363 355.104,-285.587 361.583,-287.394 350.625,-287.81 350.625,-287.81"/>
</g>
<!-- 28&#45;&gt;22 -->
<g id="edge43" class="edge"><title>28&#45;&gt;22</title>
<path fill="none" stroke="black" d="M488.802,-252.124C506.114,-261.446 527.721,-273.081 546.256,-283.061"/>
<polygon fill="black" stroke="black" points="555.076,-287.81 544.138,-287.031 550.674,-285.44 546.271,-283.069 546.271,-283.069 546.271,-283.069 550.674,-285.44 548.405,-279.107 555.076,-287.81 555.076,-287.81"/>
</g>
<!-- 30&#45;&gt;22 -->
<g id="edge44" class="edge"><title>30&#45;&gt;22</title>
<path fill="none" stroke="black" d="M587,-252.303C587,-260.017 587,-269.288 587,-277.888"/>
<polygon fill="black" stroke="black" points="587,-287.896 582.5,-277.896 587,-282.896 587,-277.896 587,-277.896 587,-277.896 587,-282.896 591.5,-277.896 587,-287.896 587,-287.896"/>
</g>
<!-- 34&#45;&gt;22 -->
<g id="edge45" class="edge"><title>34&#45;&gt;22</title>
<path fill="none" stroke="black" d="M806.289,-249.479C803.149,-250.341 800.033,-251.188 797,-252 752.036,-264.041 701.453,-276.83 661.199,-286.828"/>
<polygon fill="black" stroke="black" points="651.461,-289.242 660.085,-282.468 656.314,-288.039 661.167,-286.836 661.167,-286.836 661.167,-286.836 656.314,-288.039 662.25,-291.204 651.461,-289.242 651.461,-289.242"/>
</g>
<!-- 34&#45;&gt;35 -->
<g id="edge46" class="edge"><title>34&#45;&gt;35</title>
<path fill="none" stroke="black" d="M840.438,-252.303C832.325,-260.78 822.412,-271.136 813.529,-280.417"/>
<polygon fill="black" stroke="black" points="806.371,-287.896 810.035,-277.56 809.829,-284.284 813.286,-280.671 813.286,-280.671 813.286,-280.671 809.829,-284.284 816.537,-283.783 806.371,-287.896 806.371,-287.896"/>
</g>
<!-- 36 -->
<g id="node37" class="node"><title>36</title>
<polygon fill="none" stroke="black" points="4147,-180 4017,-180 4017,-144 4147,-144 4147,-180"/>
<text text-anchor="middle" x="4082" y="-158.3" font-family="Times,serif" font-size="14.00">PoliciesMultiPlayers</text>
</g>
<!-- 37 -->
<g id="node38" class="node"><title>37</title>
<polygon fill="none" stroke="black" points="3829,-252 3611,-252 3611,-216 3829,-216 3829,-252"/>
<text text-anchor="middle" x="3720" y="-230.3" font-family="Times,serif" font-size="14.00">PoliciesMultiPlayers.CentralizedFair</text>
</g>
<!-- 36&#45;&gt;37 -->
<g id="edge47" class="edge"><title>36&#45;&gt;37</title>
<path fill="none" stroke="black" d="M4016.86,-175.595C3961.51,-186.3 3881.2,-201.828 3818.07,-214.036"/>
<polygon fill="black" stroke="black" points="3808.09,-215.965 3817.06,-209.649 3813,-215.016 3817.91,-214.067 3817.91,-214.067 3817.91,-214.067 3813,-215.016 3818.77,-218.485 3808.09,-215.965 3808.09,-215.965"/>
</g>
<!-- 38 -->
<g id="node39" class="node"><title>38</title>
<polygon fill="none" stroke="black" points="4085,-252 3847,-252 3847,-216 4085,-216 4085,-252"/>
<text text-anchor="middle" x="3966" y="-230.3" font-family="Times,serif" font-size="14.00">PoliciesMultiPlayers.CentralizedNotFair</text>
</g>
<!-- 36&#45;&gt;38 -->
<g id="edge48" class="edge"><title>36&#45;&gt;38</title>
<path fill="none" stroke="black" d="M4053.62,-180.124C4038.46,-189.276 4019.59,-200.658 4003.26,-210.515"/>
<polygon fill="black" stroke="black" points="3994.49,-215.81 4000.72,-206.791 3998.77,-213.227 4003.05,-210.644 4003.05,-210.644 4003.05,-210.644 3998.77,-213.227 4005.37,-214.496 3994.49,-215.81 3994.49,-215.81"/>
</g>
<!-- 42 -->
<g id="node43" class="node"><title>42</title>
<polygon fill="none" stroke="black" points="4294.5,-252 4103.5,-252 4103.5,-216 4294.5,-216 4294.5,-252"/>
<text text-anchor="middle" x="4199" y="-230.3" font-family="Times,serif" font-size="14.00">PoliciesMultiPlayers.OracleFair</text>
</g>
<!-- 36&#45;&gt;42 -->
<g id="edge49" class="edge"><title>36&#45;&gt;42</title>
<path fill="none" stroke="black" d="M4110.62,-180.124C4125.92,-189.276 4144.94,-200.658 4161.42,-210.515"/>
<polygon fill="black" stroke="black" points="4170.27,-215.81 4159.38,-214.538 4165.98,-213.243 4161.69,-210.676 4161.69,-210.676 4161.69,-210.676 4165.98,-213.243 4164,-206.814 4170.27,-215.81 4170.27,-215.81"/>
</g>
<!-- 43 -->
<g id="node44" class="node"><title>43</title>
<polygon fill="none" stroke="black" points="4525,-252 4313,-252 4313,-216 4525,-216 4525,-252"/>
<text text-anchor="middle" x="4419" y="-230.3" font-family="Times,serif" font-size="14.00">PoliciesMultiPlayers.OracleNotFair</text>
</g>
<!-- 36&#45;&gt;43 -->
<g id="edge50" class="edge"><title>36&#45;&gt;43</title>
<path fill="none" stroke="black" d="M4147.38,-176.58C4198.48,-187.194 4270.14,-202.079 4327.02,-213.895"/>
<polygon fill="black" stroke="black" points="4337.1,-215.989 4326.4,-218.361 4332.21,-214.972 4327.31,-213.955 4327.31,-213.955 4327.31,-213.955 4332.21,-214.972 4328.23,-209.549 4337.1,-215.989 4337.1,-215.989"/>
</g>
<!-- 45 -->
<g id="node46" class="node"><title>45</title>
<polygon fill="none" stroke="black" points="4714.5,-252 4543.5,-252 4543.5,-216 4714.5,-216 4714.5,-252"/>
<text text-anchor="middle" x="4629" y="-230.3" font-family="Times,serif" font-size="14.00">PoliciesMultiPlayers.Selfish</text>
</g>
<!-- 36&#45;&gt;45 -->
<g id="edge51" class="edge"><title>36&#45;&gt;45</title>
<path fill="none" stroke="black" d="M4147.28,-169.405C4233.33,-178.127 4389.61,-194.928 4533.44,-215.968"/>
<polygon fill="black" stroke="black" points="4543.33,-217.425 4532.79,-220.42 4538.39,-216.696 4533.44,-215.968 4533.44,-215.968 4533.44,-215.968 4538.39,-216.696 4534.1,-211.516 4543.33,-217.425 4543.33,-217.425"/>
</g>
<!-- 39 -->
<g id="node40" class="node"><title>39</title>
<polygon fill="none" stroke="black" points="4300.5,-324 4097.5,-324 4097.5,-288 4300.5,-288 4300.5,-324"/>
<text text-anchor="middle" x="4199" y="-302.3" font-family="Times,serif" font-size="14.00">PoliciesMultiPlayers.ChildPointer</text>
</g>
<!-- 37&#45;&gt;39 -->
<g id="edge52" class="edge"><title>37&#45;&gt;39</title>
<path fill="none" stroke="black" d="M3829.29,-250.972C3906.32,-262.229 4009.17,-277.259 4086.83,-288.608"/>
<polygon fill="black" stroke="black" points="4097.14,-290.114 4086.59,-293.12 4092.19,-289.391 4087.24,-288.668 4087.24,-288.668 4087.24,-288.668 4092.19,-289.391 4087.89,-284.215 4097.14,-290.114 4097.14,-290.114"/>
</g>
<!-- 38&#45;&gt;39 -->
<g id="edge53" class="edge"><title>38&#45;&gt;39</title>
<path fill="none" stroke="black" d="M4022.7,-252.034C4055.68,-261.943 4097.43,-274.486 4132.03,-284.879"/>
<polygon fill="black" stroke="black" points="4142.05,-287.889 4131.17,-289.322 4137.26,-286.451 4132.47,-285.012 4132.47,-285.012 4132.47,-285.012 4137.26,-286.451 4133.76,-280.702 4142.05,-287.889 4142.05,-287.889"/>
</g>
<!-- 40 -->
<g id="node41" class="node"><title>40</title>
<polygon fill="none" stroke="black" points="3425.5,-36 3260.5,-36 3260.5,-0 3425.5,-0 3425.5,-36"/>
<text text-anchor="middle" x="3343" y="-14.3" font-family="Times,serif" font-size="14.00">PoliciesMultiPlayers.DMC</text>
</g>
<!-- 41 -->
<g id="node42" class="node"><title>41</title>
<polygon fill="none" stroke="black" points="3618,-36 3444,-36 3444,-0 3618,-0 3618,-36"/>
<text text-anchor="middle" x="3531" y="-14.3" font-family="Times,serif" font-size="14.00">PoliciesMultiPlayers.MEGA</text>
</g>
<!-- 42&#45;&gt;39 -->
<g id="edge54" class="edge"><title>42&#45;&gt;39</title>
<path fill="none" stroke="black" d="M4199,-252.303C4199,-260.017 4199,-269.288 4199,-277.888"/>
<polygon fill="black" stroke="black" points="4199,-287.896 4194.5,-277.896 4199,-282.896 4199,-277.896 4199,-277.896 4199,-277.896 4199,-282.896 4203.5,-277.896 4199,-287.896 4199,-287.896"/>
</g>
<!-- 43&#45;&gt;39 -->
<g id="edge55" class="edge"><title>43&#45;&gt;39</title>
<path fill="none" stroke="black" d="M4365.46,-252.034C4334.46,-261.9 4295.24,-274.378 4262.66,-284.745"/>
<polygon fill="black" stroke="black" points="4252.78,-287.889 4260.94,-280.569 4257.54,-286.373 4262.31,-284.857 4262.31,-284.857 4262.31,-284.857 4257.54,-286.373 4263.67,-289.145 4252.78,-287.889 4252.78,-287.889"/>
</g>
<!-- 44 -->
<g id="node45" class="node"><title>44</title>
<polygon fill="none" stroke="black" points="3821.5,-36 3636.5,-36 3636.5,-0 3821.5,-0 3821.5,-36"/>
<text text-anchor="middle" x="3729" y="-14.3" font-family="Times,serif" font-size="14.00">PoliciesMultiPlayers.RhoRand</text>
</g>
<!-- 45&#45;&gt;39 -->
<g id="edge56" class="edge"><title>45&#45;&gt;39</title>
<path fill="none" stroke="black" d="M4543.31,-250.416C4540.17,-250.955 4537.06,-251.485 4534,-252 4459.58,-264.544 4375.71,-277.813 4310.5,-287.936"/>
<polygon fill="black" stroke="black" points="4300.61,-289.47 4309.8,-283.491 4305.55,-288.704 4310.49,-287.937 4310.49,-287.937 4310.49,-287.937 4305.55,-288.704 4311.18,-292.384 4300.61,-289.47 4300.61,-289.47"/>
</g>
<!-- 46 -->
<g id="node47" class="node"><title>46</title>
<polygon fill="none" stroke="black" points="4006.5,-36 3839.5,-36 3839.5,-0 4006.5,-0 4006.5,-36"/>
<text text-anchor="middle" x="3923" y="-14.3" font-family="Times,serif" font-size="14.00">PoliciesMultiPlayers.TDFS</text>
</g>
<!-- 47 -->
<g id="node48" class="node"><title>47</title>
<polygon fill="none" stroke="black" points="402.5,-108 313.5,-108 313.5,-72 402.5,-72 402.5,-108"/>
<text text-anchor="middle" x="358" y="-86.3" font-family="Times,serif" font-size="14.00">configuration</text>
</g>
<!-- 47&#45;&gt;2 -->
<g id="edge57" class="edge"><title>47&#45;&gt;2</title>
<path fill="none" stroke="black" d="M372.09,-108.303C378.923,-116.695 387.257,-126.93 394.756,-136.139"/>
<polygon fill="black" stroke="black" points="401.072,-143.896 391.268,-138.983 397.915,-140.018 394.758,-136.141 394.758,-136.141 394.758,-136.141 397.915,-140.018 398.247,-133.3 401.072,-143.896 401.072,-143.896"/>
</g>
<!-- 47&#45;&gt;3 -->
<g id="edge58" class="edge"><title>47&#45;&gt;3</title>
<path fill="none" stroke="black" d="M313.255,-100.832C268.4,-110.766 197.106,-126.763 126.098,-143.764"/>
<polygon fill="black" stroke="black" points="116.083,-146.169 124.756,-139.458 120.945,-145.001 125.806,-143.834 125.806,-143.834 125.806,-143.834 120.945,-145.001 126.857,-148.209 116.083,-146.169 116.083,-146.169"/>
</g>
<!-- 47&#45;&gt;4 -->
<g id="edge59" class="edge"><title>47&#45;&gt;4</title>
<path fill="none" stroke="black" d="M315.679,-108.124C291.819,-117.778 261.828,-129.913 236.597,-140.122"/>
<polygon fill="black" stroke="black" points="227.183,-143.932 234.765,-136.009 231.818,-142.056 236.453,-140.181 236.453,-140.181 236.453,-140.181 231.818,-142.056 238.141,-144.352 227.183,-143.932 227.183,-143.932"/>
</g>
<!-- 47&#45;&gt;5 -->
<g id="edge60" class="edge"><title>47&#45;&gt;5</title>
<path fill="none" stroke="black" d="M343.663,-108.303C336.709,-116.695 328.23,-126.93 320.599,-136.139"/>
<polygon fill="black" stroke="black" points="314.172,-143.896 317.087,-133.324 317.362,-140.046 320.552,-136.195 320.552,-136.195 320.552,-136.195 317.362,-140.046 324.017,-139.067 314.172,-143.896 314.172,-143.896"/>
</g>
<!-- 47&#45;&gt;14 -->
<g id="edge61" class="edge"><title>47&#45;&gt;14</title>
<path fill="none" stroke="black" d="M402.649,-93.8966C579.416,-105.364 1228.77,-147.491 1396.99,-158.404"/>
<polygon fill="black" stroke="black" points="1407.14,-159.063 1396.87,-162.906 1402.15,-158.739 1397.16,-158.415 1397.16,-158.415 1397.16,-158.415 1402.15,-158.739 1397.45,-153.925 1407.14,-159.063 1407.14,-159.063"/>
</g>
<!-- 48 -->
<g id="node49" class="node"><title>48</title>
<polygon fill="none" stroke="black" points="2959,-108 2795,-108 2795,-72 2959,-72 2959,-108"/>
<text text-anchor="middle" x="2877" y="-86.3" font-family="Times,serif" font-size="14.00">configuration_multiplayers</text>
</g>
<!-- 48&#45;&gt;2 -->
<g id="edge62" class="edge"><title>48&#45;&gt;2</title>
<path fill="none" stroke="black" d="M2794.73,-93.339C2412.14,-104.217 811.306,-149.732 476.54,-159.25"/>
<polygon fill="black" stroke="black" points="466.086,-159.548 475.954,-154.765 471.084,-159.405 476.082,-159.263 476.082,-159.263 476.082,-159.263 471.084,-159.405 476.21,-163.761 466.086,-159.548 466.086,-159.548"/>
</g>
<!-- 48&#45;&gt;7 -->
<g id="edge63" class="edge"><title>48&#45;&gt;7</title>
<path fill="none" stroke="black" d="M2871.21,-108.129C2862.99,-132.436 2847.87,-177.181 2838.13,-205.987"/>
<polygon fill="black" stroke="black" points="2834.81,-215.811 2833.75,-204.896 2836.41,-211.074 2838.01,-206.337 2838.01,-206.337 2838.01,-206.337 2836.41,-211.074 2842.28,-207.778 2834.81,-215.811 2834.81,-215.811"/>
</g>
<!-- 48&#45;&gt;10 -->
<g id="edge64" class="edge"><title>48&#45;&gt;10</title>
<path fill="none" stroke="black" d="M2888.3,-108.107C2902.8,-128.619 2929.97,-162.425 2962,-180 3031.54,-218.153 3061.16,-199.928 3143.43,-216.028"/>
<polygon fill="black" stroke="black" points="3153.46,-218.107 3142.76,-220.482 3148.56,-217.092 3143.67,-216.076 3143.67,-216.076 3143.67,-216.076 3148.56,-217.092 3144.58,-211.67 3153.46,-218.107 3153.46,-218.107"/>
</g>
<!-- 48&#45;&gt;14 -->
<g id="edge65" class="edge"><title>48&#45;&gt;14</title>
<path fill="none" stroke="black" d="M2794.93,-94.9895C2525.01,-108.111 1670.91,-149.629 1476.6,-159.075"/>
<polygon fill="black" stroke="black" points="1466.55,-159.563 1476.32,-154.583 1471.55,-159.321 1476.54,-159.078 1476.54,-159.078 1476.54,-159.078 1471.55,-159.321 1476.76,-163.572 1466.55,-159.563 1466.55,-159.563"/>
</g>
<!-- 48&#45;&gt;36 -->
<g id="edge66" class="edge"><title>48&#45;&gt;36</title>
<path fill="none" stroke="black" d="M2959,-95.9356C3015.95,-99.3525 3093.59,-103.989 3162,-108 3475.74,-126.394 3849.69,-147.766 4006.72,-156.715"/>
<polygon fill="black" stroke="black" points="4016.74,-157.286 4006.5,-161.21 4011.75,-157.002 4006.76,-156.717 4006.76,-156.717 4006.76,-156.717 4011.75,-157.002 4007.01,-152.225 4016.74,-157.286 4016.74,-157.286"/>
</g>
<!-- 49 -->
<g id="node50" class="node"><title>49</title>
<polygon fill="none" stroke="black" points="3242,-36 3188,-36 3188,-0 3242,-0 3242,-36"/>
<text text-anchor="middle" x="3215" y="-14.3" font-family="Times,serif" font-size="14.00">main</text>
</g>
<!-- 49&#45;&gt;6 -->
<g id="edge67" class="edge"><title>49&#45;&gt;6</title>
<path fill="none" stroke="black" d="M3215,-36.3034C3215,-44.0173 3215,-53.2875 3215,-61.8876"/>
<polygon fill="black" stroke="black" points="3215,-71.8957 3210.5,-61.8956 3215,-66.8957 3215,-61.8957 3215,-61.8957 3215,-61.8957 3215,-66.8957 3219.5,-61.8957 3215,-71.8957 3215,-71.8957"/>
</g>
<!-- 49&#45;&gt;8 -->
<g id="edge68" class="edge"><title>49&#45;&gt;8</title>
<path fill="none" stroke="black" d="M3234.85,-36.1491C3245.48,-45.9679 3258.34,-58.9109 3268,-72 3282.42,-91.5469 3295.04,-116.109 3303.56,-134.476"/>
<polygon fill="black" stroke="black" points="3307.74,-143.713 3299.52,-136.46 3305.68,-139.158 3303.62,-134.604 3303.62,-134.604 3303.62,-134.604 3305.68,-139.158 3307.72,-132.747 3307.74,-143.713 3307.74,-143.713"/>
</g>
<!-- 49&#45;&gt;47 -->
<g id="edge69" class="edge"><title>49&#45;&gt;47</title>
<path fill="none" stroke="black" d="M3187.81,-27.2933C3175.48,-30.6659 3160.63,-34.1903 3147,-36 2866.82,-73.1967 778.46,-86.6266 412.617,-88.7044"/>
<polygon fill="black" stroke="black" points="402.547,-88.7612 412.522,-84.2048 407.547,-88.733 412.547,-88.7047 412.547,-88.7047 412.547,-88.7047 407.547,-88.733 412.573,-93.2047 402.547,-88.7612 402.547,-88.7612"/>
</g>
<!-- 50 -->
<g id="node51" class="node"><title>50</title>
<polygon fill="none" stroke="black" points="3138.5,-36 3019.5,-36 3019.5,-0 3138.5,-0 3138.5,-36"/>
<text text-anchor="middle" x="3079" y="-14.3" font-family="Times,serif" font-size="14.00">main_multiplayers</text>
</g>
<!-- 50&#45;&gt;6 -->
<g id="edge70" class="edge"><title>50&#45;&gt;6</title>
<path fill="none" stroke="black" d="M3112.27,-36.1239C3130.46,-45.4883 3153.19,-57.1864 3172.64,-67.197"/>
<polygon fill="black" stroke="black" points="3181.6,-71.8102 3170.65,-71.2349 3177.16,-69.522 3172.71,-67.2338 3172.71,-67.2338 3172.71,-67.2338 3177.16,-69.522 3174.77,-63.2326 3181.6,-71.8102 3181.6,-71.8102"/>
</g>
<!-- 50&#45;&gt;9 -->
<g id="edge71" class="edge"><title>50&#45;&gt;9</title>
<path fill="none" stroke="black" d="M3079,-36.1285C3079,-60.3298 3079,-104.789 3079,-133.607"/>
<polygon fill="black" stroke="black" points="3079,-143.811 3074.5,-133.811 3079,-138.811 3079,-133.811 3079,-133.811 3079,-133.811 3079,-138.811 3083.5,-133.811 3079,-143.811 3079,-143.811"/>
</g>
<!-- 50&#45;&gt;48 -->
<g id="edge72" class="edge"><title>50&#45;&gt;48</title>
<path fill="none" stroke="black" d="M3029.84,-36.0344C3001.5,-45.8575 2965.68,-58.2709 2935.84,-68.6109"/>
<polygon fill="black" stroke="black" points="2926.38,-71.8892 2934.35,-64.3629 2931.1,-70.252 2935.83,-68.6148 2935.83,-68.6148 2935.83,-68.6148 2931.1,-70.252 2937.3,-72.8667 2926.38,-71.8892 2926.38,-71.8892"/>
</g>
</g>
</svg>
