<?xml version="1.0" encoding="UTF-8" standalone="no"?>
<!DOCTYPE svg PUBLIC "-//W3C//DTD SVG 1.1//EN"
 "http://www.w3.org/Graphics/SVG/1.1/DTD/svg11.dtd">
<!-- Generated by graphviz version 2.40.1 (20161225.0304)
 -->
<!-- Title: packages_SMPyBandits Pages: 1 -->
<svg width="7297pt" height="116pt"
 viewBox="0.00 0.00 7296.50 116.00" xmlns="http://www.w3.org/2000/svg" xmlns:xlink="http://www.w3.org/1999/xlink">
<g id="graph0" class="graph" transform="scale(1 1) rotate(0) translate(4 112)">
<title>packages_SMPyBandits</title>
<polygon fill="#ffffff" stroke="transparent" points="-4,4 -4,-112 7292.5,-112 7292.5,4 -4,4"/>
<!-- 0 -->
<g id="node1" class="node">
<title>0</title>
<polygon fill="none" stroke="#000000" points="941,-36 0,-36 0,0 941,0 941,-36"/>
<text text-anchor="middle" x="470.5" y="-14.3" font-family="Times,serif" font-size="14.00" fill="#000000">/home/lilian/ownCloud/owncloud.crans.org/Crans/These_2016&#45;17/src/SMPyBandits/notebooks/Exploring different doubling tricks for different kinds of regret bounds.py</text>
</g>
<!-- 1 -->
<g id="node2" class="node">
<title>1</title>
<polygon fill="none" stroke="#000000" points="1642,-36 959,-36 959,0 1642,0 1642,-36"/>
<text text-anchor="middle" x="1300.5" y="-14.3" font-family="Times,serif" font-size="14.00" fill="#000000">/home/lilian/ownCloud/owncloud.crans.org/Crans/These_2016&#45;17/src/SMPyBandits/other_scripts/my_small_slack_bot.py</text>
</g>
<!-- 2 -->
<g id="node3" class="node">
<title>2</title>
<polygon fill="none" stroke="#000000" points="2509,-36 1660,-36 1660,0 2509,0 2509,-36"/>
<text text-anchor="middle" x="2084.5" y="-14.3" font-family="Times,serif" font-size="14.00" fill="#000000">/home/lilian/ownCloud/owncloud.crans.org/Crans/These_2016&#45;17/src/SMPyBandits/other_scripts/simulate_musical_chair_orthogonalization_process.py</text>
</g>
<!-- 3 -->
<g id="node4" class="node">
<title>3</title>
<polygon fill="none" stroke="#000000" points="3308,-36 2527,-36 2527,0 3308,0 3308,-36"/>
<text text-anchor="middle" x="2917.5" y="-14.3" font-family="Times,serif" font-size="14.00" fill="#000000">/home/lilian/ownCloud/owncloud.crans.org/Crans/These_2016&#45;17/src/SMPyBandits/other_scripts/test_compute_and_plot_regret_bounds.py</text>
</g>
<!-- 4 -->
<g id="node5" class="node">
<title>4</title>
<polygon fill="none" stroke="#000000" points="4114.5,-36 3326.5,-36 3326.5,0 4114.5,0 4114.5,-36"/>
<text text-anchor="middle" x="3720.5" y="-14.3" font-family="Times,serif" font-size="14.00" fill="#000000">/home/lilian/ownCloud/owncloud.crans.org/Crans/These_2016&#45;17/src/SMPyBandits/other_scripts/test_compute_and_plot_regret_bounds2.py</text>
</g>
<!-- 5 -->
<g id="node6" class="node">
<title>5</title>
<polygon fill="none" stroke="#000000" points="4224.5,-36 4132.5,-36 4132.5,0 4224.5,0 4224.5,-36"/>
<text text-anchor="middle" x="4178.5" y="-14.3" font-family="Times,serif" font-size="14.00" fill="#000000">SMPyBandits</text>
</g>
<!-- 5&#45;&gt;5 -->
<g id="edge1" class="edge">
<title>5&#45;&gt;5</title>
<path fill="none" stroke="#000000" d="M4224.5242,-4.8296C4234.9063,-6.0161 4242.5,-10.4063 4242.5,-18 4242.5,-22.8647 4239.3835,-26.4147 4234.414,-28.6499"/>
<polygon fill="#000000" stroke="#000000" points="4224.5242,-31.1704 4233.1031,-24.3401 4229.3693,-29.9356 4234.2144,-28.7007 4234.2144,-28.7007 4234.2144,-28.7007 4229.3693,-29.9356 4235.3258,-33.0613 4224.5242,-31.1704 4224.5242,-31.1704"/>
</g>
<!-- 6 -->
<g id="node7" class="node">
<title>6</title>
<polygon fill="none" stroke="#000000" points="4598,-36 4261,-36 4261,0 4598,0 4598,-36"/>
<text text-anchor="middle" x="4429.5" y="-14.3" font-family="Times,serif" font-size="14.00" fill="#000000">SMPyBandits.complete_tree_exploration_for_MP_bandits</text>
</g>
<!-- 7 -->
<g id="node8" class="node">
<title>7</title>
<polygon fill="none" stroke="#000000" points="4785,-36 4616,-36 4616,0 4785,0 4785,-36"/>
<text text-anchor="middle" x="4700.5" y="-14.3" font-family="Times,serif" font-size="14.00" fill="#000000">SMPyBandits.configuration</text>
</g>
<!-- 8 -->
<g id="node9" class="node">
<title>8</title>
<polygon fill="none" stroke="#000000" points="5065.5,-36 4803.5,-36 4803.5,0 5065.5,0 5065.5,-36"/>
<text text-anchor="middle" x="4934.5" y="-14.3" font-family="Times,serif" font-size="14.00" fill="#000000">SMPyBandits.configuration_all_singleplayer</text>
</g>
<!-- 9 -->
<g id="node10" class="node">
<title>9</title>
<polygon fill="none" stroke="#000000" points="5330.5,-108 4960.5,-108 4960.5,-72 5330.5,-72 5330.5,-108"/>
<text text-anchor="middle" x="5145.5" y="-86.3" font-family="Times,serif" font-size="14.00" fill="#000000">SMPyBandits.configuration_comparing_aggregation_algorithms</text>
</g>
<!-- 10 -->
<g id="node11" class="node">
<title>10</title>
<polygon fill="none" stroke="#000000" points="5579.5,-36 5225.5,-36 5225.5,0 5579.5,0 5579.5,-36"/>
<text text-anchor="middle" x="5402.5" y="-14.3" font-family="Times,serif" font-size="14.00" fill="#000000">SMPyBandits.configuration_comparing_doubling_algorithms</text>
</g>
<!-- 11 -->
<g id="node12" class="node">
<title>11</title>
<polygon fill="none" stroke="#000000" points="5831.5,-36 5597.5,-36 5597.5,0 5831.5,0 5831.5,-36"/>
<text text-anchor="middle" x="5714.5" y="-14.3" font-family="Times,serif" font-size="14.00" fill="#000000">SMPyBandits.configuration_markovian</text>
</g>
<!-- 12 -->
<g id="node13" class="node">
<title>12</title>
<polygon fill="none" stroke="#000000" points="6188.5,-108 5944.5,-108 5944.5,-72 6188.5,-72 6188.5,-108"/>
<text text-anchor="middle" x="6066.5" y="-86.3" font-family="Times,serif" font-size="14.00" fill="#000000">SMPyBandits.configuration_multiplayers</text>
</g>
<!-- 13 -->
<g id="node14" class="node">
<title>13</title>
<polygon fill="none" stroke="#000000" points="6529,-36 6320,-36 6320,0 6529,0 6529,-36"/>
<text text-anchor="middle" x="6424.5" y="-14.3" font-family="Times,serif" font-size="14.00" fill="#000000">SMPyBandits.configuration_sparse</text>
</g>
<!-- 14 -->
<g id="node15" class="node">
<title>14</title>
<polygon fill="none" stroke="#000000" points="6808.5,-108 6524.5,-108 6524.5,-72 6808.5,-72 6808.5,-108"/>
<text text-anchor="middle" x="6666.5" y="-86.3" font-family="Times,serif" font-size="14.00" fill="#000000">SMPyBandits.configuration_sparse_multiplayers</text>
</g>
<!-- 15 -->
<g id="node16" class="node">
<title>15</title>
<polygon fill="none" stroke="#000000" points="6956.5,-36 6804.5,-36 6804.5,0 6956.5,0 6956.5,-36"/>
<text text-anchor="middle" x="6880.5" y="-14.3" font-family="Times,serif" font-size="14.00" fill="#000000">SMPyBandits.env_client</text>
</g>
<!-- 16 -->
<g id="node17" class="node">
<title>16</title>
<polygon fill="none" stroke="#000000" points="5207.5,-36 5083.5,-36 5083.5,0 5207.5,0 5207.5,-36"/>
<text text-anchor="middle" x="5145.5" y="-14.3" font-family="Times,serif" font-size="14.00" fill="#000000">SMPyBandits.main</text>
</g>
<!-- 16&#45;&gt;9 -->
<g id="edge2" class="edge">
<title>16&#45;&gt;9</title>
<path fill="none" stroke="#000000" d="M5145.5,-36.1686C5145.5,-43.869 5145.5,-53.0257 5145.5,-61.5834"/>
<polygon fill="#000000" stroke="#000000" points="5145.5,-71.5867 5141.0001,-61.5867 5145.5,-66.5867 5145.5001,-61.5867 5145.5001,-61.5867 5145.5001,-61.5867 5145.5,-66.5867 5150.0001,-61.5868 5145.5,-71.5867 5145.5,-71.5867"/>
</g>
<!-- 17 -->
<g id="node18" class="node">
<title>17</title>
<polygon fill="none" stroke="#000000" points="6049,-36 5850,-36 5850,0 6049,0 6049,-36"/>
<text text-anchor="middle" x="5949.5" y="-14.3" font-family="Times,serif" font-size="14.00" fill="#000000">SMPyBandits.main_multiplayers</text>
</g>
<!-- 17&#45;&gt;12 -->
<g id="edge3" class="edge">
<title>17&#45;&gt;12</title>
<path fill="none" stroke="#000000" d="M5979.024,-36.1686C5993.9891,-45.3779 6012.3386,-56.6699 6028.3603,-66.5294"/>
<polygon fill="#000000" stroke="#000000" points="6036.9854,-71.8372 6026.1103,-70.4286 6032.7271,-69.2167 6028.4688,-66.5962 6028.4688,-66.5962 6028.4688,-66.5962 6032.7271,-69.2167 6030.8273,-62.7637 6036.9854,-71.8372 6036.9854,-71.8372"/>
</g>
<!-- 18 -->
<g id="node19" class="node">
<title>18</title>
<polygon fill="none" stroke="#000000" points="6301.5,-36 6067.5,-36 6067.5,0 6301.5,0 6301.5,-36"/>
<text text-anchor="middle" x="6184.5" y="-14.3" font-family="Times,serif" font-size="14.00" fill="#000000">SMPyBandits.main_multiplayers_more</text>
</g>
<!-- 18&#45;&gt;12 -->
<g id="edge4" class="edge">
<title>18&#45;&gt;12</title>
<path fill="none" stroke="#000000" d="M6154.7236,-36.1686C6139.6307,-45.3779 6121.1243,-56.6699 6104.9657,-66.5294"/>
<polygon fill="#000000" stroke="#000000" points="6096.2669,-71.8372 6102.4594,-62.7871 6100.5351,-69.2328 6104.8033,-66.6285 6104.8033,-66.6285 6104.8033,-66.6285 6100.5351,-69.2328 6107.1472,-70.4699 6096.2669,-71.8372 6096.2669,-71.8372"/>
</g>
<!-- 19 -->
<g id="node20" class="node">
<title>19</title>
<polygon fill="none" stroke="#000000" points="6786,-36 6547,-36 6547,0 6786,0 6786,-36"/>
<text text-anchor="middle" x="6666.5" y="-14.3" font-family="Times,serif" font-size="14.00" fill="#000000">SMPyBandits.main_sparse_multiplayers</text>
</g>
<!-- 19&#45;&gt;14 -->
<g id="edge5" class="edge">
<title>19&#45;&gt;14</title>
<path fill="none" stroke="#000000" d="M6666.5,-36.1686C6666.5,-43.869 6666.5,-53.0257 6666.5,-61.5834"/>
<polygon fill="#000000" stroke="#000000" points="6666.5,-71.5867 6662.0001,-61.5867 6666.5,-66.5867 6666.5001,-61.5867 6666.5001,-61.5867 6666.5001,-61.5867 6666.5,-66.5867 6671.0001,-61.5868 6666.5,-71.5867 6666.5,-71.5867"/>
</g>
<!-- 20 -->
<g id="node21" class="node">
<title>20</title>
<polygon fill="none" stroke="#000000" points="7144.5,-36 6974.5,-36 6974.5,0 7144.5,0 7144.5,-36"/>
<text text-anchor="middle" x="7059.5" y="-14.3" font-family="Times,serif" font-size="14.00" fill="#000000">SMPyBandits.policy_server</text>
</g>
<!-- 21 -->
<g id="node22" class="node">
<title>21</title>
<polygon fill="none" stroke="#000000" points="7216.5,-36 7162.5,-36 7162.5,0 7216.5,0 7216.5,-36"/>
<text text-anchor="middle" x="7189.5" y="-14.3" font-family="Times,serif" font-size="14.00" fill="#000000">conf</text>
</g>
<!-- 22 -->
<g id="node23" class="node">
<title>22</title>
<polygon fill="none" stroke="#000000" points="7288.5,-36 7234.5,-36 7234.5,0 7288.5,0 7288.5,-36"/>
<text text-anchor="middle" x="7261.5" y="-14.3" font-family="Times,serif" font-size="14.00" fill="#000000">setup</text>
</g>
</g>
</svg>
