<?xml version="1.0" encoding="UTF-8" standalone="no"?>
<!DOCTYPE svg PUBLIC "-//W3C//DTD SVG 1.1//EN"
 "http://www.w3.org/Graphics/SVG/1.1/DTD/svg11.dtd">
<!-- Generated by graphviz version 2.40.1 (20161225.0304)
 -->
<!-- Title: packages_SMPyBandits Pages: 1 -->
<svg width="4545pt" height="116pt"
 viewBox="0.00 0.00 4545.00 116.00" xmlns="http://www.w3.org/2000/svg" xmlns:xlink="http://www.w3.org/1999/xlink">
<g id="graph0" class="graph" transform="scale(1 1) rotate(0) translate(4 112)">
<title>packages_SMPyBandits</title>
<polygon fill="#ffffff" stroke="transparent" points="-4,4 -4,-112 4541,-112 4541,4 -4,4"/>
<!-- 0 -->
<g id="node1" class="node">
<title>0</title>
<polygon fill="none" stroke="#000000" points="92,-36 0,-36 0,0 92,0 92,-36"/>
<text text-anchor="middle" x="46" y="-14.3" font-family="Times,serif" font-size="14.00" fill="#000000">SMPyBandits</text>
</g>
<!-- 0&#45;&gt;0 -->
<g id="edge1" class="edge">
<title>0&#45;&gt;0</title>
<path fill="none" stroke="#000000" d="M92.0242,-4.8296C102.4063,-6.0161 110,-10.4063 110,-18 110,-22.8647 106.8835,-26.4147 101.914,-28.6499"/>
<polygon fill="#000000" stroke="#000000" points="92.0242,-31.1704 100.6031,-24.3401 96.8693,-29.9356 101.7144,-28.7007 101.7144,-28.7007 101.7144,-28.7007 96.8693,-29.9356 102.8258,-33.0613 92.0242,-31.1704 92.0242,-31.1704"/>
</g>
<!-- 1 -->
<g id="node2" class="node">
<title>1</title>
<polygon fill="none" stroke="#000000" points="465.5,-36 128.5,-36 128.5,0 465.5,0 465.5,-36"/>
<text text-anchor="middle" x="297" y="-14.3" font-family="Times,serif" font-size="14.00" fill="#000000">SMPyBandits.complete_tree_exploration_for_MP_bandits</text>
</g>
<!-- 2 -->
<g id="node3" class="node">
<title>2</title>
<polygon fill="none" stroke="#000000" points="652.5,-36 483.5,-36 483.5,0 652.5,0 652.5,-36"/>
<text text-anchor="middle" x="568" y="-14.3" font-family="Times,serif" font-size="14.00" fill="#000000">SMPyBandits.configuration</text>
</g>
<!-- 3 -->
<g id="node4" class="node">
<title>3</title>
<polygon fill="none" stroke="#000000" points="933,-36 671,-36 671,0 933,0 933,-36"/>
<text text-anchor="middle" x="802" y="-14.3" font-family="Times,serif" font-size="14.00" fill="#000000">SMPyBandits.configuration_all_singleplayer</text>
</g>
<!-- 4 -->
<g id="node5" class="node">
<title>4</title>
<polygon fill="none" stroke="#000000" points="1321,-36 951,-36 951,0 1321,0 1321,-36"/>
<text text-anchor="middle" x="1136" y="-14.3" font-family="Times,serif" font-size="14.00" fill="#000000">SMPyBandits.configuration_comparing_aggregation_algorithms</text>
</g>
<!-- 5 -->
<g id="node6" class="node">
<title>5</title>
<polygon fill="none" stroke="#000000" points="1693,-36 1339,-36 1339,0 1693,0 1693,-36"/>
<text text-anchor="middle" x="1516" y="-14.3" font-family="Times,serif" font-size="14.00" fill="#000000">SMPyBandits.configuration_comparing_doubling_algorithms</text>
</g>
<!-- 6 -->
<g id="node7" class="node">
<title>6</title>
<polygon fill="none" stroke="#000000" points="1945,-36 1711,-36 1711,0 1945,0 1945,-36"/>
<text text-anchor="middle" x="1828" y="-14.3" font-family="Times,serif" font-size="14.00" fill="#000000">SMPyBandits.configuration_markovian</text>
</g>
<!-- 7 -->
<g id="node8" class="node">
<title>7</title>
<polygon fill="none" stroke="#000000" points="2185,-108 1941,-108 1941,-72 2185,-72 2185,-108"/>
<text text-anchor="middle" x="2063" y="-86.3" font-family="Times,serif" font-size="14.00" fill="#000000">SMPyBandits.configuration_multiplayers</text>
</g>
<!-- 8 -->
<g id="node9" class="node">
<title>8</title>
<polygon fill="none" stroke="#000000" points="2548.5,-108 2203.5,-108 2203.5,-72 2548.5,-72 2548.5,-108"/>
<text text-anchor="middle" x="2376" y="-86.3" font-family="Times,serif" font-size="14.00" fill="#000000">SMPyBandits.configuration_multiplayers_with_aggregation</text>
</g>
<!-- 9 -->
<g id="node10" class="node">
<title>9</title>
<polygon fill="none" stroke="#000000" points="2815.5,-108 2566.5,-108 2566.5,-72 2815.5,-72 2815.5,-108"/>
<text text-anchor="middle" x="2691" y="-86.3" font-family="Times,serif" font-size="14.00" fill="#000000">SMPyBandits.configuration_nonstationary</text>
</g>
<!-- 10 -->
<g id="node11" class="node">
<title>10</title>
<polygon fill="none" stroke="#000000" points="2980.5,-36 2771.5,-36 2771.5,0 2980.5,0 2980.5,-36"/>
<text text-anchor="middle" x="2876" y="-14.3" font-family="Times,serif" font-size="14.00" fill="#000000">SMPyBandits.configuration_sparse</text>
</g>
<!-- 11 -->
<g id="node12" class="node">
<title>11</title>
<polygon fill="none" stroke="#000000" points="3260,-108 2976,-108 2976,-72 3260,-72 3260,-108"/>
<text text-anchor="middle" x="3118" y="-86.3" font-family="Times,serif" font-size="14.00" fill="#000000">SMPyBandits.configuration_sparse_multiplayers</text>
</g>
<!-- 12 -->
<g id="node13" class="node">
<title>12</title>
<polygon fill="none" stroke="#000000" points="3408,-36 3256,-36 3256,0 3408,0 3408,-36"/>
<text text-anchor="middle" x="3332" y="-14.3" font-family="Times,serif" font-size="14.00" fill="#000000">SMPyBandits.env_client</text>
</g>
<!-- 13 -->
<g id="node14" class="node">
<title>13</title>
<polygon fill="none" stroke="#000000" points="3736.5,-108 3421.5,-108 3421.5,-72 3736.5,-72 3736.5,-108"/>
<text text-anchor="middle" x="3579" y="-86.3" font-family="Times,serif" font-size="14.00" fill="#000000">SMPyBandits.example_of_configuration_multiplayers</text>
</g>
<!-- 14 -->
<g id="node15" class="node">
<title>14</title>
<polygon fill="none" stroke="#000000" points="4062.5,-36 3749.5,-36 3749.5,0 4062.5,0 4062.5,-36"/>
<text text-anchor="middle" x="3906" y="-14.3" font-family="Times,serif" font-size="14.00" fill="#000000">SMPyBandits.example_of_configuration_singleplayer</text>
</g>
<!-- 15 -->
<g id="node16" class="node">
<title>15</title>
<polygon fill="none" stroke="#000000" points="3731.5,-36 3426.5,-36 3426.5,0 3731.5,0 3731.5,-36"/>
<text text-anchor="middle" x="3579" y="-14.3" font-family="Times,serif" font-size="14.00" fill="#000000">SMPyBandits.example_of_main_multiplayers_more</text>
</g>
<!-- 15&#45;&gt;13 -->
<g id="edge2" class="edge">
<title>15&#45;&gt;13</title>
<path fill="none" stroke="#000000" d="M3579,-36.1686C3579,-43.869 3579,-53.0257 3579,-61.5834"/>
<polygon fill="#000000" stroke="#000000" points="3579,-71.5867 3574.5001,-61.5867 3579,-66.5867 3579.0001,-61.5867 3579.0001,-61.5867 3579.0001,-61.5867 3579,-66.5867 3583.5001,-61.5868 3579,-71.5867 3579,-71.5867"/>
</g>
<!-- 16 -->
<g id="node17" class="node">
<title>16</title>
<polygon fill="none" stroke="#000000" points="4349,-36 4081,-36 4081,0 4349,0 4349,-36"/>
<text text-anchor="middle" x="4215" y="-14.3" font-family="Times,serif" font-size="14.00" fill="#000000">SMPyBandits.example_of_main_singleplayer</text>
</g>
<!-- 22 -->
<g id="node23" class="node">
<title>22</title>
<polygon fill="none" stroke="#000000" points="4336.5,-108 4093.5,-108 4093.5,-72 4336.5,-72 4336.5,-108"/>
<text text-anchor="middle" x="4215" y="-86.3" font-family="Times,serif" font-size="14.00" fill="#000000">SMPyBandits.very_simple_configuration</text>
</g>
<!-- 16&#45;&gt;22 -->
<g id="edge3" class="edge">
<title>16&#45;&gt;22</title>
<path fill="none" stroke="#000000" d="M4215,-36.1686C4215,-43.869 4215,-53.0257 4215,-61.5834"/>
<polygon fill="#000000" stroke="#000000" points="4215,-71.5867 4210.5001,-61.5867 4215,-66.5867 4215.0001,-61.5867 4215.0001,-61.5867 4215.0001,-61.5867 4215,-66.5867 4219.5001,-61.5868 4215,-71.5867 4215,-71.5867"/>
</g>
<!-- 17 -->
<g id="node18" class="node">
<title>17</title>
<polygon fill="none" stroke="#000000" points="2753,-36 2629,-36 2629,0 2753,0 2753,-36"/>
<text text-anchor="middle" x="2691" y="-14.3" font-family="Times,serif" font-size="14.00" fill="#000000">SMPyBandits.main</text>
</g>
<!-- 17&#45;&gt;9 -->
<g id="edge4" class="edge">
<title>17&#45;&gt;9</title>
<path fill="none" stroke="#000000" d="M2691,-36.1686C2691,-43.869 2691,-53.0257 2691,-61.5834"/>
<polygon fill="#000000" stroke="#000000" points="2691,-71.5867 2686.5001,-61.5867 2691,-66.5867 2691.0001,-61.5867 2691.0001,-61.5867 2691.0001,-61.5867 2691,-66.5867 2695.5001,-61.5868 2691,-71.5867 2691,-71.5867"/>
</g>
<!-- 18 -->
<g id="node19" class="node">
<title>18</title>
<polygon fill="none" stroke="#000000" points="2162.5,-36 1963.5,-36 1963.5,0 2162.5,0 2162.5,-36"/>
<text text-anchor="middle" x="2063" y="-14.3" font-family="Times,serif" font-size="14.00" fill="#000000">SMPyBandits.main_multiplayers</text>
</g>
<!-- 18&#45;&gt;7 -->
<g id="edge5" class="edge">
<title>18&#45;&gt;7</title>
<path fill="none" stroke="#000000" d="M2063,-36.1686C2063,-43.869 2063,-53.0257 2063,-61.5834"/>
<polygon fill="#000000" stroke="#000000" points="2063,-71.5867 2058.5001,-61.5867 2063,-66.5867 2063.0001,-61.5867 2063.0001,-61.5867 2063.0001,-61.5867 2063,-66.5867 2067.5001,-61.5868 2063,-71.5867 2063,-71.5867"/>
</g>
<!-- 19 -->
<g id="node20" class="node">
<title>19</title>
<polygon fill="none" stroke="#000000" points="2493,-36 2259,-36 2259,0 2493,0 2493,-36"/>
<text text-anchor="middle" x="2376" y="-14.3" font-family="Times,serif" font-size="14.00" fill="#000000">SMPyBandits.main_multiplayers_more</text>
</g>
<!-- 19&#45;&gt;8 -->
<g id="edge6" class="edge">
<title>19&#45;&gt;8</title>
<path fill="none" stroke="#000000" d="M2376,-36.1686C2376,-43.869 2376,-53.0257 2376,-61.5834"/>
<polygon fill="#000000" stroke="#000000" points="2376,-71.5867 2371.5001,-61.5867 2376,-66.5867 2376.0001,-61.5867 2376.0001,-61.5867 2376.0001,-61.5867 2376,-66.5867 2380.5001,-61.5868 2376,-71.5867 2376,-71.5867"/>
</g>
<!-- 20 -->
<g id="node21" class="node">
<title>20</title>
<polygon fill="none" stroke="#000000" points="3237.5,-36 2998.5,-36 2998.5,0 3237.5,0 3237.5,-36"/>
<text text-anchor="middle" x="3118" y="-14.3" font-family="Times,serif" font-size="14.00" fill="#000000">SMPyBandits.main_sparse_multiplayers</text>
</g>
<!-- 20&#45;&gt;11 -->
<g id="edge7" class="edge">
<title>20&#45;&gt;11</title>
<path fill="none" stroke="#000000" d="M3118,-36.1686C3118,-43.869 3118,-53.0257 3118,-61.5834"/>
<polygon fill="#000000" stroke="#000000" points="3118,-71.5867 3113.5001,-61.5867 3118,-66.5867 3118.0001,-61.5867 3118.0001,-61.5867 3118.0001,-61.5867 3118,-66.5867 3122.5001,-61.5868 3118,-71.5867 3118,-71.5867"/>
</g>
<!-- 21 -->
<g id="node22" class="node">
<title>21</title>
<polygon fill="none" stroke="#000000" points="4537,-36 4367,-36 4367,0 4537,0 4537,-36"/>
<text text-anchor="middle" x="4452" y="-14.3" font-family="Times,serif" font-size="14.00" fill="#000000">SMPyBandits.policy_server</text>
</g>
</g>
</svg>
