<?xml version="1.0" encoding="UTF-8" standalone="no"?>
<!DOCTYPE svg PUBLIC "-//W3C//DTD SVG 1.1//EN"
 "http://www.w3.org/Graphics/SVG/1.1/DTD/svg11.dtd">
<!-- Generated by graphviz version 2.38.0 (20140413.2041)
 -->
<!-- Title: packages_AlgoBandits Pages: 1 -->
<svg width="5091pt" height="404pt"
 viewBox="0.00 0.00 5090.50 404.00" xmlns="http://www.w3.org/2000/svg" xmlns:xlink="http://www.w3.org/1999/xlink">
<g id="graph0" class="graph" transform="scale(1 1) rotate(0) translate(4 400)">
<title>packages_AlgoBandits</title>
<polygon fill="white" stroke="none" points="-4,4 -4,-400 5086.5,-400 5086.5,4 -4,4"/>
<!-- 0 -->
<g id="node1" class="node"><title>0</title>
<polygon fill="none" stroke="black" points="253,-108 199,-108 199,-72 253,-72 253,-108"/>
<text text-anchor="middle" x="226" y="-86.3" font-family="Times,serif" font-size="14.00">Arms</text>
</g>
<!-- 2 -->
<g id="node3" class="node"><title>2</title>
<polygon fill="none" stroke="black" points="466,-180 364,-180 364,-144 466,-144 466,-180"/>
<text text-anchor="middle" x="415" y="-158.3" font-family="Times,serif" font-size="14.00">Arms.Bernoulli</text>
</g>
<!-- 0&#45;&gt;2 -->
<g id="edge1" class="edge"><title>0&#45;&gt;2</title>
<path fill="none" stroke="black" d="M253.079,-101.029C280.696,-111.258 324.341,-127.423 359.363,-140.394"/>
<polygon fill="black" stroke="black" points="368.992,-143.96 358.052,-144.707 364.303,-142.223 359.614,-140.487 359.614,-140.487 359.614,-140.487 364.303,-142.223 361.177,-136.267 368.992,-143.96 368.992,-143.96"/>
</g>
<!-- 3 -->
<g id="node4" class="node"><title>3</title>
<polygon fill="none" stroke="black" points="116,-180 7.10543e-15,-180 7.10543e-15,-144 116,-144 116,-180"/>
<text text-anchor="middle" x="58" y="-158.3" font-family="Times,serif" font-size="14.00">Arms.Exponential</text>
</g>
<!-- 0&#45;&gt;3 -->
<g id="edge2" class="edge"><title>0&#45;&gt;3</title>
<path fill="none" stroke="black" d="M198.634,-102.403C174.22,-112.575 137.858,-127.726 108.224,-140.073"/>
<polygon fill="black" stroke="black" points="98.8633,-143.974 106.363,-135.974 103.479,-142.051 108.094,-140.127 108.094,-140.127 108.094,-140.127 103.479,-142.051 109.825,-144.281 98.8633,-143.974 98.8633,-143.974"/>
</g>
<!-- 4 -->
<g id="node5" class="node"><title>4</title>
<polygon fill="none" stroke="black" points="235.5,-180 134.5,-180 134.5,-144 235.5,-144 235.5,-180"/>
<text text-anchor="middle" x="185" y="-158.3" font-family="Times,serif" font-size="14.00">Arms.Gaussian</text>
</g>
<!-- 0&#45;&gt;4 -->
<g id="edge3" class="edge"><title>0&#45;&gt;4</title>
<path fill="none" stroke="black" d="M215.865,-108.303C211.148,-116.356 205.438,-126.106 200.218,-135.018"/>
<polygon fill="black" stroke="black" points="195.018,-143.896 196.189,-132.992 197.545,-139.581 200.072,-135.267 200.072,-135.267 200.072,-135.267 197.545,-139.581 203.955,-137.541 195.018,-143.896 195.018,-143.896"/>
</g>
<!-- 5 -->
<g id="node6" class="node"><title>5</title>
<polygon fill="none" stroke="black" points="346.5,-180 253.5,-180 253.5,-144 346.5,-144 346.5,-180"/>
<text text-anchor="middle" x="300" y="-158.3" font-family="Times,serif" font-size="14.00">Arms.Poisson</text>
</g>
<!-- 0&#45;&gt;5 -->
<g id="edge4" class="edge"><title>0&#45;&gt;5</title>
<path fill="none" stroke="black" d="M244.292,-108.303C253.433,-116.95 264.64,-127.551 274.6,-136.973"/>
<polygon fill="black" stroke="black" points="281.918,-143.896 271.561,-140.293 278.286,-140.46 274.654,-137.024 274.654,-137.024 274.654,-137.024 278.286,-140.46 277.746,-133.755 281.918,-143.896 281.918,-143.896"/>
</g>
<!-- 1 -->
<g id="node2" class="node"><title>1</title>
<polygon fill="none" stroke="black" points="96.5,-252 19.5,-252 19.5,-216 96.5,-216 96.5,-252"/>
<text text-anchor="middle" x="58" y="-230.3" font-family="Times,serif" font-size="14.00">Arms.Arm</text>
</g>
<!-- 2&#45;&gt;1 -->
<g id="edge5" class="edge"><title>2&#45;&gt;1</title>
<path fill="none" stroke="black" d="M363.725,-178.013C360.783,-178.723 357.859,-179.392 355,-180 248.308,-202.691 215.739,-189.563 106.303,-215.946"/>
<polygon fill="black" stroke="black" points="96.5347,-218.356 105.166,-211.592 101.389,-217.158 106.244,-215.961 106.244,-215.961 106.244,-215.961 101.389,-217.158 107.321,-220.33 96.5347,-218.356 96.5347,-218.356"/>
</g>
<!-- 3&#45;&gt;1 -->
<g id="edge6" class="edge"><title>3&#45;&gt;1</title>
<path fill="none" stroke="black" d="M58,-180.303C58,-188.017 58,-197.288 58,-205.888"/>
<polygon fill="black" stroke="black" points="58,-215.896 53.5001,-205.896 58,-210.896 58.0001,-205.896 58.0001,-205.896 58.0001,-205.896 58,-210.896 62.5001,-205.896 58,-215.896 58,-215.896"/>
</g>
<!-- 4&#45;&gt;1 -->
<g id="edge7" class="edge"><title>4&#45;&gt;1</title>
<path fill="none" stroke="black" d="M153.932,-180.124C137.173,-189.361 116.294,-200.869 98.2982,-210.788"/>
<polygon fill="black" stroke="black" points="89.1871,-215.81 95.7727,-207.042 93.566,-213.397 97.9449,-210.983 97.9449,-210.983 97.9449,-210.983 93.566,-213.397 100.117,-214.924 89.1871,-215.81 89.1871,-215.81"/>
</g>
<!-- 5&#45;&gt;1 -->
<g id="edge8" class="edge"><title>5&#45;&gt;1</title>
<path fill="none" stroke="black" d="M253.291,-177.337C250.151,-178.252 247.032,-179.148 244,-180 185.566,-196.429 167.69,-197.099 106.422,-215.693"/>
<polygon fill="black" stroke="black" points="96.6316,-218.702 104.868,-211.462 101.411,-217.233 106.19,-215.764 106.19,-215.764 106.19,-215.764 101.411,-217.233 107.513,-220.065 96.6316,-218.702 96.6316,-218.702"/>
</g>
<!-- 6 -->
<g id="node7" class="node"><title>6</title>
<polygon fill="none" stroke="black" points="3627,-108 3539,-108 3539,-72 3627,-72 3627,-108"/>
<text text-anchor="middle" x="3583" y="-86.3" font-family="Times,serif" font-size="14.00">Environment</text>
</g>
<!-- 8 -->
<g id="node9" class="node"><title>8</title>
<polygon fill="none" stroke="black" points="3755,-180 3611,-180 3611,-144 3755,-144 3755,-180"/>
<text text-anchor="middle" x="3683" y="-158.3" font-family="Times,serif" font-size="14.00">Environment.Evaluator</text>
</g>
<!-- 6&#45;&gt;8 -->
<g id="edge9" class="edge"><title>6&#45;&gt;8</title>
<path fill="none" stroke="black" d="M3607.46,-108.124C3620.3,-117.107 3636.2,-128.237 3650.09,-137.966"/>
<polygon fill="black" stroke="black" points="3658.44,-143.81 3647.67,-141.762 3654.35,-140.943 3650.25,-138.076 3650.25,-138.076 3650.25,-138.076 3654.35,-140.943 3652.83,-134.389 3658.44,-143.81 3658.44,-143.81"/>
</g>
<!-- 9 -->
<g id="node10" class="node"><title>9</title>
<polygon fill="none" stroke="black" points="3554.5,-180 3339.5,-180 3339.5,-144 3554.5,-144 3554.5,-180"/>
<text text-anchor="middle" x="3447" y="-158.3" font-family="Times,serif" font-size="14.00">Environment.EvaluatorMultiPlayers</text>
</g>
<!-- 6&#45;&gt;9 -->
<g id="edge10" class="edge"><title>6&#45;&gt;9</title>
<path fill="none" stroke="black" d="M3549.73,-108.124C3531.54,-117.488 3508.81,-129.186 3489.36,-139.197"/>
<polygon fill="black" stroke="black" points="3480.4,-143.81 3487.23,-135.233 3484.84,-141.522 3489.29,-139.234 3489.29,-139.234 3489.29,-139.234 3484.84,-141.522 3491.35,-143.235 3480.4,-143.81 3480.4,-143.81"/>
</g>
<!-- 10 -->
<g id="node11" class="node"><title>10</title>
<polygon fill="none" stroke="black" points="3644.5,-252 3521.5,-252 3521.5,-216 3644.5,-216 3644.5,-252"/>
<text text-anchor="middle" x="3583" y="-230.3" font-family="Times,serif" font-size="14.00">Environment.MAB</text>
</g>
<!-- 6&#45;&gt;10 -->
<g id="edge11" class="edge"><title>6&#45;&gt;10</title>
<path fill="none" stroke="black" d="M3583,-108.129C3583,-132.33 3583,-176.789 3583,-205.607"/>
<polygon fill="black" stroke="black" points="3583,-215.811 3578.5,-205.811 3583,-210.811 3583,-205.811 3583,-205.811 3583,-205.811 3583,-210.811 3587.5,-205.811 3583,-215.811 3583,-215.811"/>
</g>
<!-- 11 -->
<g id="node12" class="node"><title>11</title>
<polygon fill="none" stroke="black" points="3961,-252 3835,-252 3835,-216 3961,-216 3961,-252"/>
<text text-anchor="middle" x="3898" y="-230.3" font-family="Times,serif" font-size="14.00">Environment.Result</text>
</g>
<!-- 6&#45;&gt;11 -->
<g id="edge12" class="edge"><title>6&#45;&gt;11</title>
<path fill="none" stroke="black" d="M3627.12,-99.9912C3664.62,-108.545 3719.32,-123.208 3764,-144 3802.38,-161.863 3842.3,-189.779 3868.47,-209.578"/>
<polygon fill="black" stroke="black" points="3876.46,-215.698 3865.79,-213.193 3872.49,-212.659 3868.52,-209.619 3868.52,-209.619 3868.52,-209.619 3872.49,-212.659 3871.26,-206.046 3876.46,-215.698 3876.46,-215.698"/>
</g>
<!-- 7 -->
<g id="node8" class="node"><title>7</title>
<polygon fill="none" stroke="black" points="3288,-252 3106,-252 3106,-216 3288,-216 3288,-252"/>
<text text-anchor="middle" x="3197" y="-230.3" font-family="Times,serif" font-size="14.00">Environment.CollisionModels</text>
</g>
<!-- 8&#45;&gt;10 -->
<g id="edge13" class="edge"><title>8&#45;&gt;10</title>
<path fill="none" stroke="black" d="M3658.54,-180.124C3645.7,-189.107 3629.8,-200.237 3615.91,-209.966"/>
<polygon fill="black" stroke="black" points="3607.56,-215.81 3613.17,-206.389 3611.65,-212.943 3615.75,-210.076 3615.75,-210.076 3615.75,-210.076 3611.65,-212.943 3618.33,-213.762 3607.56,-215.81 3607.56,-215.81"/>
</g>
<!-- 8&#45;&gt;11 -->
<g id="edge14" class="edge"><title>8&#45;&gt;11</title>
<path fill="none" stroke="black" d="M3735.32,-180.034C3765.62,-189.9 3803.95,-202.378 3835.79,-212.745"/>
<polygon fill="black" stroke="black" points="3845.45,-215.889 3834.54,-217.072 3840.69,-214.341 3835.94,-212.793 3835.94,-212.793 3835.94,-212.793 3840.69,-214.341 3837.33,-208.514 3845.45,-215.889 3845.45,-215.889"/>
</g>
<!-- 13 -->
<g id="node14" class="node"><title>13</title>
<polygon fill="none" stroke="black" points="3817,-252 3663,-252 3663,-216 3817,-216 3817,-252"/>
<text text-anchor="middle" x="3740" y="-230.3" font-family="Times,serif" font-size="14.00">Environment.plotsettings</text>
</g>
<!-- 8&#45;&gt;13 -->
<g id="edge15" class="edge"><title>8&#45;&gt;13</title>
<path fill="none" stroke="black" d="M3697.09,-180.303C3703.92,-188.695 3712.26,-198.93 3719.76,-208.139"/>
<polygon fill="black" stroke="black" points="3726.07,-215.896 3716.27,-210.983 3722.92,-212.018 3719.76,-208.141 3719.76,-208.141 3719.76,-208.141 3722.92,-212.018 3723.25,-205.3 3726.07,-215.896 3726.07,-215.896"/>
</g>
<!-- 9&#45;&gt;7 -->
<g id="edge16" class="edge"><title>9&#45;&gt;7</title>
<path fill="none" stroke="black" d="M3386.16,-180.034C3350.47,-190.028 3305.21,-202.702 3267.91,-213.146"/>
<polygon fill="black" stroke="black" points="3258.11,-215.889 3266.53,-208.859 3262.92,-214.541 3267.74,-213.193 3267.74,-213.193 3267.74,-213.193 3262.92,-214.541 3268.95,-217.526 3258.11,-215.889 3258.11,-215.889"/>
</g>
<!-- 9&#45;&gt;10 -->
<g id="edge17" class="edge"><title>9&#45;&gt;10</title>
<path fill="none" stroke="black" d="M3480.27,-180.124C3498.46,-189.488 3521.19,-201.186 3540.64,-211.197"/>
<polygon fill="black" stroke="black" points="3549.6,-215.81 3538.65,-215.235 3545.16,-213.522 3540.71,-211.234 3540.71,-211.234 3540.71,-211.234 3545.16,-213.522 3542.77,-207.233 3549.6,-215.81 3549.6,-215.81"/>
</g>
<!-- 12 -->
<g id="node13" class="node"><title>12</title>
<polygon fill="none" stroke="black" points="3503.5,-252 3306.5,-252 3306.5,-216 3503.5,-216 3503.5,-252"/>
<text text-anchor="middle" x="3405" y="-230.3" font-family="Times,serif" font-size="14.00">Environment.ResultMultiPlayers</text>
</g>
<!-- 9&#45;&gt;12 -->
<g id="edge18" class="edge"><title>9&#45;&gt;12</title>
<path fill="none" stroke="black" d="M3436.62,-180.303C3431.74,-188.441 3425.81,-198.311 3420.42,-207.299"/>
<polygon fill="black" stroke="black" points="3415.26,-215.896 3416.55,-205.005 3417.84,-211.608 3420.41,-207.321 3420.41,-207.321 3420.41,-207.321 3417.84,-211.608 3424.27,-209.636 3415.26,-215.896 3415.26,-215.896"/>
</g>
<!-- 9&#45;&gt;13 -->
<g id="edge19" class="edge"><title>9&#45;&gt;13</title>
<path fill="none" stroke="black" d="M3518.3,-180.034C3560.74,-190.174 3614.74,-203.073 3658.81,-213.604"/>
<polygon fill="black" stroke="black" points="3668.63,-215.95 3657.86,-218.003 3663.77,-214.788 3658.91,-213.626 3658.91,-213.626 3658.91,-213.626 3663.77,-214.788 3659.95,-209.249 3668.63,-215.95 3668.63,-215.95"/>
</g>
<!-- 14 -->
<g id="node15" class="node"><title>14</title>
<polygon fill="none" stroke="black" points="1475.5,-180 1416.5,-180 1416.5,-144 1475.5,-144 1475.5,-180"/>
<text text-anchor="middle" x="1446" y="-158.3" font-family="Times,serif" font-size="14.00">Policies</text>
</g>
<!-- 15 -->
<g id="node16" class="node"><title>15</title>
<polygon fill="none" stroke="black" points="235.5,-252 114.5,-252 114.5,-216 235.5,-216 235.5,-252"/>
<text text-anchor="middle" x="175" y="-230.3" font-family="Times,serif" font-size="14.00">Policies.AdBandits</text>
</g>
<!-- 14&#45;&gt;15 -->
<g id="edge20" class="edge"><title>14&#45;&gt;15</title>
<path fill="none" stroke="black" d="M1416.37,-163.527C1257.21,-166.475 501.758,-181.977 245.565,-216.15"/>
<polygon fill="black" stroke="black" points="235.567,-217.529 244.858,-211.705 240.52,-216.846 245.473,-216.162 245.473,-216.162 245.473,-216.162 240.52,-216.846 246.088,-220.62 235.567,-217.529 235.567,-217.529"/>
</g>
<!-- 16 -->
<g id="node17" class="node"><title>16</title>
<polygon fill="none" stroke="black" points="1262.5,-252 1171.5,-252 1171.5,-216 1262.5,-216 1262.5,-252"/>
<text text-anchor="middle" x="1217" y="-230.3" font-family="Times,serif" font-size="14.00">Policies.Aggr</text>
</g>
<!-- 14&#45;&gt;16 -->
<g id="edge21" class="edge"><title>14&#45;&gt;16</title>
<path fill="none" stroke="black" d="M1416.24,-171.904C1383.3,-181.784 1328.38,-198.327 1272.38,-215.587"/>
<polygon fill="black" stroke="black" points="1262.65,-218.589 1270.88,-211.34 1267.43,-217.114 1272.21,-215.64 1272.21,-215.64 1272.21,-215.64 1267.43,-217.114 1273.54,-219.94 1262.65,-218.589 1262.65,-218.589"/>
</g>
<!-- 17 -->
<g id="node18" class="node"><title>17</title>
<polygon fill="none" stroke="black" points="378,-252 254,-252 254,-216 378,-216 378,-252"/>
<text text-anchor="middle" x="316" y="-230.3" font-family="Times,serif" font-size="14.00">Policies.BayesUCB</text>
</g>
<!-- 14&#45;&gt;17 -->
<g id="edge22" class="edge"><title>14&#45;&gt;17</title>
<path fill="none" stroke="black" d="M1416.27,-163.744C1268.78,-167.546 614.063,-185.762 388.314,-216.013"/>
<polygon fill="black" stroke="black" points="378.212,-217.416 387.498,-211.583 383.165,-216.728 388.117,-216.04 388.117,-216.04 388.117,-216.04 383.165,-216.728 388.736,-220.497 378.212,-217.416 378.212,-217.416"/>
</g>
<!-- 19 -->
<g id="node20" class="node"><title>19</title>
<polygon fill="none" stroke="black" points="1445.5,-252 1280.5,-252 1280.5,-216 1445.5,-216 1445.5,-252"/>
<text text-anchor="middle" x="1363" y="-230.3" font-family="Times,serif" font-size="14.00">Policies.EpsilonDecreasing</text>
</g>
<!-- 14&#45;&gt;19 -->
<g id="edge23" class="edge"><title>14&#45;&gt;19</title>
<path fill="none" stroke="black" d="M1425.48,-180.303C1415.13,-189.035 1402.41,-199.76 1391.16,-209.25"/>
<polygon fill="black" stroke="black" points="1383.28,-215.896 1388.02,-206.009 1387.1,-212.672 1390.93,-209.449 1390.93,-209.449 1390.93,-209.449 1387.1,-212.672 1393.83,-212.889 1383.28,-215.896 1383.28,-215.896"/>
</g>
<!-- 20 -->
<g id="node21" class="node"><title>20</title>
<polygon fill="none" stroke="black" points="1592.5,-252 1463.5,-252 1463.5,-216 1592.5,-216 1592.5,-252"/>
<text text-anchor="middle" x="1528" y="-230.3" font-family="Times,serif" font-size="14.00">Policies.EpsilonFirst</text>
</g>
<!-- 14&#45;&gt;20 -->
<g id="edge24" class="edge"><title>14&#45;&gt;20</title>
<path fill="none" stroke="black" d="M1466.27,-180.303C1476.5,-189.035 1489.06,-199.76 1500.18,-209.25"/>
<polygon fill="black" stroke="black" points="1507.96,-215.896 1497.44,-212.826 1504.16,-212.649 1500.36,-209.403 1500.36,-209.403 1500.36,-209.403 1504.16,-212.649 1503.28,-205.98 1507.96,-215.896 1507.96,-215.896"/>
</g>
<!-- 21 -->
<g id="node22" class="node"><title>21</title>
<polygon fill="none" stroke="black" points="1755,-252 1611,-252 1611,-216 1755,-216 1755,-252"/>
<text text-anchor="middle" x="1683" y="-230.3" font-family="Times,serif" font-size="14.00">Policies.EpsilonGreedy</text>
</g>
<!-- 14&#45;&gt;21 -->
<g id="edge25" class="edge"><title>14&#45;&gt;21</title>
<path fill="none" stroke="black" d="M1475.54,-171.724C1510.41,-182.023 1569.5,-199.475 1615.71,-213.126"/>
<polygon fill="black" stroke="black" points="1625.37,-215.978 1614.5,-217.461 1620.57,-214.561 1615.78,-213.145 1615.78,-213.145 1615.78,-213.145 1620.57,-214.561 1617.05,-208.829 1625.37,-215.978 1625.37,-215.978"/>
</g>
<!-- 24 -->
<g id="node25" class="node"><title>24</title>
<polygon fill="none" stroke="black" points="1877,-252 1773,-252 1773,-216 1877,-216 1877,-252"/>
<text text-anchor="middle" x="1825" y="-230.3" font-family="Times,serif" font-size="14.00">Policies.MEGA</text>
</g>
<!-- 14&#45;&gt;24 -->
<g id="edge26" class="edge"><title>14&#45;&gt;24</title>
<path fill="none" stroke="black" d="M1475.58,-166.855C1530.36,-174.225 1651.45,-191.591 1762.8,-215.856"/>
<polygon fill="black" stroke="black" points="1772.85,-218.072 1762.11,-220.314 1767.97,-216.996 1763.08,-215.919 1763.08,-215.919 1763.08,-215.919 1767.97,-216.996 1764.05,-211.525 1772.85,-218.072 1772.85,-218.072"/>
</g>
<!-- 25 -->
<g id="node26" class="node"><title>25</title>
<polygon fill="none" stroke="black" points="675.5,-252 574.5,-252 574.5,-216 675.5,-216 675.5,-252"/>
<text text-anchor="middle" x="625" y="-230.3" font-family="Times,serif" font-size="14.00">Policies.MOSS</text>
</g>
<!-- 14&#45;&gt;25 -->
<g id="edge27" class="edge"><title>14&#45;&gt;25</title>
<path fill="none" stroke="black" d="M1416.31,-162.825C1315.02,-162.694 973.864,-166.108 685.909,-215.869"/>
<polygon fill="black" stroke="black" points="675.689,-217.659 684.763,-211.501 680.614,-216.796 685.539,-215.934 685.539,-215.934 685.539,-215.934 680.614,-216.796 686.315,-220.366 675.689,-217.659 675.689,-217.659"/>
</g>
<!-- 26 -->
<g id="node27" class="node"><title>26</title>
<polygon fill="none" stroke="black" points="2032.5,-252 1895.5,-252 1895.5,-216 2032.5,-216 2032.5,-252"/>
<text text-anchor="middle" x="1964" y="-230.3" font-family="Times,serif" font-size="14.00">Policies.MusicalChair</text>
</g>
<!-- 14&#45;&gt;26 -->
<g id="edge28" class="edge"><title>14&#45;&gt;26</title>
<path fill="none" stroke="black" d="M1475.75,-165.603C1545.48,-171.91 1724.99,-189.362 1885.13,-215.945"/>
<polygon fill="black" stroke="black" points="1895.17,-217.627 1884.56,-220.412 1890.23,-216.801 1885.3,-215.974 1885.3,-215.974 1885.3,-215.974 1890.23,-216.801 1886.05,-211.536 1895.17,-217.627 1895.17,-217.627"/>
</g>
<!-- 27 -->
<g id="node28" class="node"><title>27</title>
<polygon fill="none" stroke="black" points="2161,-252 2051,-252 2051,-216 2161,-216 2161,-252"/>
<text text-anchor="middle" x="2106" y="-230.3" font-family="Times,serif" font-size="14.00">Policies.Softmax</text>
</g>
<!-- 14&#45;&gt;27 -->
<g id="edge29" class="edge"><title>14&#45;&gt;27</title>
<path fill="none" stroke="black" d="M1475.63,-163.891C1562.88,-166.887 1826.18,-178.611 2041,-216 2041.1,-216.018 2041.2,-216.035 2041.3,-216.053"/>
<polygon fill="black" stroke="black" points="2050.82,-217.898 2040.15,-220.412 2045.91,-216.946 2041,-215.995 2041,-215.995 2041,-215.995 2045.91,-216.946 2041.86,-211.577 2050.82,-217.898 2050.82,-217.898"/>
</g>
<!-- 28 -->
<g id="node29" class="node"><title>28</title>
<polygon fill="none" stroke="black" points="2325,-252 2179,-252 2179,-216 2325,-216 2325,-252"/>
<text text-anchor="middle" x="2252" y="-230.3" font-family="Times,serif" font-size="14.00">Policies.TakeFixedArm</text>
</g>
<!-- 14&#45;&gt;28 -->
<g id="edge30" class="edge"><title>14&#45;&gt;28</title>
<path fill="none" stroke="black" d="M1475.8,-163.779C1573.69,-166.634 1894.3,-178.322 2168.62,-215.915"/>
<polygon fill="black" stroke="black" points="2178.77,-217.32 2168.24,-220.406 2173.81,-216.634 2168.86,-215.948 2168.86,-215.948 2168.86,-215.948 2173.81,-216.634 2169.48,-211.491 2178.77,-217.32 2178.77,-217.32"/>
</g>
<!-- 29 -->
<g id="node30" class="node"><title>29</title>
<polygon fill="none" stroke="black" points="2536.5,-252 2343.5,-252 2343.5,-216 2536.5,-216 2536.5,-252"/>
<text text-anchor="middle" x="2440" y="-230.3" font-family="Times,serif" font-size="14.00">Policies.TakeRandomFixedArm</text>
</g>
<!-- 14&#45;&gt;29 -->
<g id="edge31" class="edge"><title>14&#45;&gt;29</title>
<path fill="none" stroke="black" d="M1475.6,-163.699C1586.79,-166.547 1990.19,-178.897 2333.16,-215.979"/>
<polygon fill="black" stroke="black" points="2343.29,-217.084 2332.86,-220.473 2338.32,-216.542 2333.35,-216 2333.35,-216 2333.35,-216 2338.32,-216.542 2333.84,-211.526 2343.29,-217.084 2343.29,-217.084"/>
</g>
<!-- 30 -->
<g id="node31" class="node"><title>30</title>
<polygon fill="none" stroke="black" points="518,-252 396,-252 396,-216 518,-216 518,-252"/>
<text text-anchor="middle" x="457" y="-230.3" font-family="Times,serif" font-size="14.00">Policies.Thompson</text>
</g>
<!-- 14&#45;&gt;30 -->
<g id="edge32" class="edge"><title>14&#45;&gt;30</title>
<path fill="none" stroke="black" d="M1416.23,-162.948C1301.49,-163.122 877.062,-167.229 532,-216 530.736,-216.179 529.462,-216.368 528.179,-216.566"/>
<polygon fill="black" stroke="black" points="518.242,-218.253 527.348,-212.143 523.172,-217.416 528.101,-216.579 528.101,-216.579 528.101,-216.579 523.172,-217.416 528.855,-221.016 518.242,-218.253 518.242,-218.253"/>
</g>
<!-- 31 -->
<g id="node32" class="node"><title>31</title>
<polygon fill="none" stroke="black" points="2645.5,-252 2554.5,-252 2554.5,-216 2645.5,-216 2645.5,-252"/>
<text text-anchor="middle" x="2600" y="-230.3" font-family="Times,serif" font-size="14.00">Policies.UCB</text>
</g>
<!-- 14&#45;&gt;31 -->
<g id="edge33" class="edge"><title>14&#45;&gt;31</title>
<path fill="none" stroke="black" d="M1475.62,-163.422C1626.42,-165.721 2310.42,-177.999 2544.17,-216.209"/>
<polygon fill="black" stroke="black" points="2554.3,-217.93 2543.68,-220.69 2549.37,-217.092 2544.44,-216.254 2544.44,-216.254 2544.44,-216.254 2549.37,-217.092 2545.19,-211.818 2554.3,-217.93 2554.3,-217.93"/>
</g>
<!-- 32 -->
<g id="node33" class="node"><title>32</title>
<polygon fill="none" stroke="black" points="818.5,-252 693.5,-252 693.5,-216 818.5,-216 818.5,-252"/>
<text text-anchor="middle" x="756" y="-230.3" font-family="Times,serif" font-size="14.00">Policies.UCBTuned</text>
</g>
<!-- 14&#45;&gt;32 -->
<g id="edge34" class="edge"><title>14&#45;&gt;32</title>
<path fill="none" stroke="black" d="M1416.49,-164.178C1327.76,-168.015 1055.8,-181.924 833,-216 831.706,-216.198 830.401,-216.405 829.088,-216.62"/>
<polygon fill="black" stroke="black" points="818.906,-218.408 827.977,-212.246 823.831,-217.543 828.755,-216.678 828.755,-216.678 828.755,-216.678 823.831,-217.543 829.533,-221.11 818.906,-218.408 818.906,-218.408"/>
</g>
<!-- 33 -->
<g id="node34" class="node"><title>33</title>
<polygon fill="none" stroke="black" points="675.5,-324 574.5,-324 574.5,-288 675.5,-288 675.5,-324"/>
<text text-anchor="middle" x="625" y="-302.3" font-family="Times,serif" font-size="14.00">Policies.UCBV</text>
</g>
<!-- 14&#45;&gt;33 -->
<g id="edge35" class="edge"><title>14&#45;&gt;33</title>
<path fill="none" stroke="black" d="M1416.29,-163.656C1265.93,-167.118 594.839,-184.312 565,-216 546.144,-236.024 568.976,-262.543 591.693,-281.411"/>
<polygon fill="black" stroke="black" points="599.655,-287.743 589.027,-285.041 595.742,-284.631 591.828,-281.519 591.828,-281.519 591.828,-281.519 595.742,-284.631 594.629,-277.997 599.655,-287.743 599.655,-287.743"/>
</g>
<!-- 34 -->
<g id="node35" class="node"><title>34</title>
<polygon fill="none" stroke="black" points="2784,-252 2664,-252 2664,-216 2784,-216 2784,-252"/>
<text text-anchor="middle" x="2724" y="-230.3" font-family="Times,serif" font-size="14.00">Policies.UCBalpha</text>
</g>
<!-- 14&#45;&gt;34 -->
<g id="edge36" class="edge"><title>14&#45;&gt;34</title>
<path fill="none" stroke="black" d="M1475.54,-163.517C1635.05,-166.424 2395.6,-181.797 2653.74,-216.208"/>
<polygon fill="black" stroke="black" points="2663.82,-217.597 2653.29,-220.689 2658.86,-216.914 2653.91,-216.231 2653.91,-216.231 2653.91,-216.231 2658.86,-216.914 2654.52,-211.773 2663.82,-217.597 2663.82,-217.597"/>
</g>
<!-- 35 -->
<g id="node36" class="node"><title>35</title>
<polygon fill="none" stroke="black" points="2912,-252 2802,-252 2802,-216 2912,-216 2912,-252"/>
<text text-anchor="middle" x="2857" y="-230.3" font-family="Times,serif" font-size="14.00">Policies.Uniform</text>
</g>
<!-- 14&#45;&gt;35 -->
<g id="edge37" class="edge"><title>14&#45;&gt;35</title>
<path fill="none" stroke="black" d="M1475.77,-163.28C1646.77,-165.022 2505.95,-175.602 2791.73,-216.049"/>
<polygon fill="black" stroke="black" points="2801.65,-217.5 2791.11,-220.505 2796.71,-216.776 2791.76,-216.053 2791.76,-216.053 2791.76,-216.053 2796.71,-216.776 2792.41,-211.6 2801.65,-217.5 2801.65,-217.5"/>
</g>
<!-- 36 -->
<g id="node37" class="node"><title>36</title>
<polygon fill="none" stroke="black" points="3088,-252 2930,-252 2930,-216 3088,-216 3088,-252"/>
<text text-anchor="middle" x="3009" y="-230.3" font-family="Times,serif" font-size="14.00">Policies.UniformOnSome</text>
</g>
<!-- 14&#45;&gt;36 -->
<g id="edge38" class="edge"><title>14&#45;&gt;36</title>
<path fill="none" stroke="black" d="M1475.55,-163.437C1655.41,-166.189 2605.42,-182.081 2919.92,-216.015"/>
<polygon fill="black" stroke="black" points="2929.94,-217.127 2919.5,-220.496 2924.97,-216.575 2920,-216.024 2920,-216.024 2920,-216.024 2924.97,-216.575 2920.49,-211.551 2929.94,-217.127 2929.94,-217.127"/>
</g>
<!-- 37 -->
<g id="node38" class="node"><title>37</title>
<polygon fill="none" stroke="black" points="977.5,-324 876.5,-324 876.5,-288 977.5,-288 977.5,-324"/>
<text text-anchor="middle" x="927" y="-302.3" font-family="Times,serif" font-size="14.00">Policies.klUCB</text>
</g>
<!-- 14&#45;&gt;37 -->
<g id="edge39" class="edge"><title>14&#45;&gt;37</title>
<path fill="none" stroke="black" d="M1416.27,-163.426C1303.07,-165.35 903.407,-175.019 866,-216 847.36,-236.421 870.491,-262.879 893.423,-281.625"/>
<polygon fill="black" stroke="black" points="901.457,-287.911 890.809,-285.293 897.52,-284.83 893.582,-281.749 893.582,-281.749 893.582,-281.749 897.52,-284.83 896.355,-278.205 901.457,-287.911 901.457,-287.911"/>
</g>
<!-- 38 -->
<g id="node39" class="node"><title>38</title>
<polygon fill="none" stroke="black" points="1153,-252 1019,-252 1019,-216 1153,-216 1153,-252"/>
<text text-anchor="middle" x="1086" y="-230.3" font-family="Times,serif" font-size="14.00">Policies.klUCBHPlus</text>
</g>
<!-- 14&#45;&gt;38 -->
<g id="edge40" class="edge"><title>14&#45;&gt;38</title>
<path fill="none" stroke="black" d="M1416.5,-168.149C1366.49,-176.955 1261.66,-195.743 1162.95,-215.841"/>
<polygon fill="black" stroke="black" points="1153.11,-217.853 1162,-211.441 1158.01,-216.851 1162.91,-215.85 1162.91,-215.85 1162.91,-215.85 1158.01,-216.851 1163.81,-220.258 1153.11,-217.853 1153.11,-217.853"/>
</g>
<!-- 39 -->
<g id="node40" class="node"><title>39</title>
<polygon fill="none" stroke="black" points="1000.5,-252 875.5,-252 875.5,-216 1000.5,-216 1000.5,-252"/>
<text text-anchor="middle" x="938" y="-230.3" font-family="Times,serif" font-size="14.00">Policies.klUCBPlus</text>
</g>
<!-- 14&#45;&gt;39 -->
<g id="edge41" class="edge"><title>14&#45;&gt;39</title>
<path fill="none" stroke="black" d="M1416.49,-165.449C1347.34,-171.429 1169.33,-188.226 1010.68,-215.995"/>
<polygon fill="black" stroke="black" points="1000.74,-217.753 1009.81,-211.579 1005.67,-216.882 1010.59,-216.011 1010.59,-216.011 1010.59,-216.011 1005.67,-216.882 1011.37,-220.442 1000.74,-217.753 1000.74,-217.753"/>
</g>
<!-- 18 -->
<g id="node19" class="node"><title>18</title>
<polygon fill="none" stroke="black" points="360,-324 272,-324 272,-288 360,-288 360,-324"/>
<text text-anchor="middle" x="316" y="-302.3" font-family="Times,serif" font-size="14.00">Policies.Beta</text>
</g>
<!-- 15&#45;&gt;18 -->
<g id="edge42" class="edge"><title>15&#45;&gt;18</title>
<path fill="none" stroke="black" d="M209.492,-252.124C228.44,-261.531 252.132,-273.292 272.356,-283.333"/>
<polygon fill="black" stroke="black" points="281.375,-287.81 270.417,-287.394 276.896,-285.587 272.418,-283.363 272.418,-283.363 272.418,-283.363 276.896,-285.587 274.419,-279.333 281.375,-287.81 281.375,-287.81"/>
</g>
<!-- 17&#45;&gt;18 -->
<g id="edge43" class="edge"><title>17&#45;&gt;18</title>
<path fill="none" stroke="black" d="M316,-252.303C316,-260.017 316,-269.288 316,-277.888"/>
<polygon fill="black" stroke="black" points="316,-287.896 311.5,-277.896 316,-282.896 316,-277.896 316,-277.896 316,-277.896 316,-282.896 320.5,-277.896 316,-287.896 316,-287.896"/>
</g>
<!-- 22 -->
<g id="node23" class="node"><title>22</title>
<polygon fill="none" stroke="black" points="689,-396 561,-396 561,-360 689,-360 689,-396"/>
<text text-anchor="middle" x="625" y="-374.3" font-family="Times,serif" font-size="14.00">Policies.IndexPolicy</text>
</g>
<!-- 17&#45;&gt;22 -->
<g id="edge44" class="edge"><title>17&#45;&gt;22</title>
<path fill="none" stroke="black" d="M353.273,-252.129C409.764,-278.089 516.979,-327.36 578.496,-355.629"/>
<polygon fill="black" stroke="black" points="587.595,-359.811 576.63,-359.724 583.052,-357.723 578.509,-355.635 578.509,-355.635 578.509,-355.635 583.052,-357.723 580.388,-351.546 587.595,-359.811 587.595,-359.811"/>
</g>
<!-- 23 -->
<g id="node24" class="node"><title>23</title>
<polygon fill="none" stroke="black" points="837.5,-324 704.5,-324 704.5,-288 837.5,-288 837.5,-324"/>
<text text-anchor="middle" x="771" y="-302.3" font-family="Times,serif" font-size="14.00">Policies.KLempUCB</text>
</g>
<!-- 23&#45;&gt;22 -->
<g id="edge45" class="edge"><title>23&#45;&gt;22</title>
<path fill="none" stroke="black" d="M735.284,-324.124C715.503,-333.608 690.728,-345.487 669.674,-355.581"/>
<polygon fill="black" stroke="black" points="660.6,-359.932 667.671,-351.551 665.108,-357.77 669.617,-355.608 669.617,-355.608 669.617,-355.608 665.108,-357.77 671.562,-359.666 660.6,-359.932 660.6,-359.932"/>
</g>
<!-- 40 -->
<g id="node41" class="node"><title>40</title>
<polygon fill="none" stroke="black" points="982,-396 872,-396 872,-360 982,-360 982,-396"/>
<text text-anchor="middle" x="927" y="-374.3" font-family="Times,serif" font-size="14.00">Policies.kullback</text>
</g>
<!-- 23&#45;&gt;40 -->
<g id="edge46" class="edge"><title>23&#45;&gt;40</title>
<path fill="none" stroke="black" d="M809.162,-324.124C830.393,-333.651 857.008,-345.593 879.569,-355.717"/>
<polygon fill="black" stroke="black" points="888.962,-359.932 877.996,-359.943 884.4,-357.885 879.838,-355.838 879.838,-355.838 879.838,-355.838 884.4,-357.885 881.681,-351.732 888.962,-359.932 888.962,-359.932"/>
</g>
<!-- 25&#45;&gt;33 -->
<g id="edge47" class="edge"><title>25&#45;&gt;33</title>
<path fill="none" stroke="black" d="M625,-252.303C625,-260.017 625,-269.288 625,-277.888"/>
<polygon fill="black" stroke="black" points="625,-287.896 620.5,-277.896 625,-282.896 625,-277.896 625,-277.896 625,-277.896 625,-282.896 629.5,-277.896 625,-287.896 625,-287.896"/>
</g>
<!-- 30&#45;&gt;18 -->
<g id="edge48" class="edge"><title>30&#45;&gt;18</title>
<path fill="none" stroke="black" d="M422.508,-252.124C403.56,-261.531 379.868,-273.292 359.644,-283.333"/>
<polygon fill="black" stroke="black" points="350.625,-287.81 357.581,-279.333 355.104,-285.587 359.582,-283.363 359.582,-283.363 359.582,-283.363 355.104,-285.587 361.583,-287.394 350.625,-287.81 350.625,-287.81"/>
</g>
<!-- 30&#45;&gt;22 -->
<g id="edge49" class="edge"><title>30&#45;&gt;22</title>
<path fill="none" stroke="black" d="M477.265,-252.129C507.159,-277.396 563.178,-324.746 596.986,-353.321"/>
<polygon fill="black" stroke="black" points="604.663,-359.811 594.121,-356.792 600.845,-356.583 597.026,-353.355 597.026,-353.355 597.026,-353.355 600.845,-356.583 599.931,-349.919 604.663,-359.811 604.663,-359.811"/>
</g>
<!-- 32&#45;&gt;33 -->
<g id="edge50" class="edge"><title>32&#45;&gt;33</title>
<path fill="none" stroke="black" d="M723.954,-252.124C706.508,-261.446 684.735,-273.081 666.057,-283.061"/>
<polygon fill="black" stroke="black" points="657.169,-287.81 663.868,-279.128 661.579,-285.454 665.989,-283.097 665.989,-283.097 665.989,-283.097 661.579,-285.454 668.11,-287.066 657.169,-287.81 657.169,-287.81"/>
</g>
<!-- 33&#45;&gt;22 -->
<g id="edge51" class="edge"><title>33&#45;&gt;22</title>
<path fill="none" stroke="black" d="M625,-324.303C625,-332.017 625,-341.288 625,-349.888"/>
<polygon fill="black" stroke="black" points="625,-359.896 620.5,-349.896 625,-354.896 625,-349.896 625,-349.896 625,-349.896 625,-354.896 629.5,-349.896 625,-359.896 625,-359.896"/>
</g>
<!-- 37&#45;&gt;22 -->
<g id="edge52" class="edge"><title>37&#45;&gt;22</title>
<path fill="none" stroke="black" d="M876.452,-318.716C828.002,-329.947 754.3,-347.03 699.196,-359.802"/>
<polygon fill="black" stroke="black" points="689.134,-362.135 697.859,-355.493 694.005,-361.006 698.875,-359.876 698.875,-359.876 698.875,-359.876 694.005,-361.006 699.892,-364.26 689.134,-362.135 689.134,-362.135"/>
</g>
<!-- 37&#45;&gt;40 -->
<g id="edge53" class="edge"><title>37&#45;&gt;40</title>
<path fill="none" stroke="black" d="M927,-324.303C927,-332.017 927,-341.288 927,-349.888"/>
<polygon fill="black" stroke="black" points="927,-359.896 922.5,-349.896 927,-354.896 927,-349.896 927,-349.896 927,-349.896 927,-354.896 931.5,-349.896 927,-359.896 927,-359.896"/>
</g>
<!-- 38&#45;&gt;37 -->
<g id="edge54" class="edge"><title>38&#45;&gt;37</title>
<path fill="none" stroke="black" d="M1047.1,-252.124C1025.37,-261.693 998.096,-273.7 975.036,-283.852"/>
<polygon fill="black" stroke="black" points="965.769,-287.932 973.109,-279.784 970.346,-285.917 974.922,-283.902 974.922,-283.902 974.922,-283.902 970.346,-285.917 976.735,-288.021 965.769,-287.932 965.769,-287.932"/>
</g>
<!-- 38&#45;&gt;40 -->
<g id="edge55" class="edge"><title>38&#45;&gt;40</title>
<path fill="none" stroke="black" d="M1066.82,-252.129C1038.65,-277.289 985.957,-324.346 953.92,-352.958"/>
<polygon fill="black" stroke="black" points="946.247,-359.811 950.708,-349.793 949.976,-356.48 953.706,-353.15 953.706,-353.15 953.706,-353.15 949.976,-356.48 956.703,-356.506 946.247,-359.811 946.247,-359.811"/>
</g>
<!-- 39&#45;&gt;37 -->
<g id="edge56" class="edge"><title>39&#45;&gt;37</title>
<path fill="none" stroke="black" d="M935.281,-252.303C934.069,-260.017 932.612,-269.288 931.261,-277.888"/>
<polygon fill="black" stroke="black" points="929.688,-287.896 926.795,-277.318 930.464,-282.956 931.24,-278.017 931.24,-278.017 931.24,-278.017 930.464,-282.956 935.686,-278.716 929.688,-287.896 929.688,-287.896"/>
</g>
<!-- 41 -->
<g id="node42" class="node"><title>41</title>
<polygon fill="none" stroke="black" points="4515,-180 4385,-180 4385,-144 4515,-144 4515,-180"/>
<text text-anchor="middle" x="4450" y="-158.3" font-family="Times,serif" font-size="14.00">PoliciesMultiPlayers</text>
</g>
<!-- 42 -->
<g id="node43" class="node"><title>42</title>
<polygon fill="none" stroke="black" points="4197,-252 3979,-252 3979,-216 4197,-216 4197,-252"/>
<text text-anchor="middle" x="4088" y="-230.3" font-family="Times,serif" font-size="14.00">PoliciesMultiPlayers.CentralizedFair</text>
</g>
<!-- 41&#45;&gt;42 -->
<g id="edge57" class="edge"><title>41&#45;&gt;42</title>
<path fill="none" stroke="black" d="M4384.86,-175.595C4329.51,-186.3 4249.2,-201.828 4186.07,-214.036"/>
<polygon fill="black" stroke="black" points="4176.09,-215.965 4185.06,-209.649 4181,-215.016 4185.91,-214.067 4185.91,-214.067 4185.91,-214.067 4181,-215.016 4186.77,-218.485 4176.09,-215.965 4176.09,-215.965"/>
</g>
<!-- 43 -->
<g id="node44" class="node"><title>43</title>
<polygon fill="none" stroke="black" points="4453,-252 4215,-252 4215,-216 4453,-216 4453,-252"/>
<text text-anchor="middle" x="4334" y="-230.3" font-family="Times,serif" font-size="14.00">PoliciesMultiPlayers.CentralizedNotFair</text>
</g>
<!-- 41&#45;&gt;43 -->
<g id="edge58" class="edge"><title>41&#45;&gt;43</title>
<path fill="none" stroke="black" d="M4421.62,-180.124C4406.46,-189.276 4387.59,-200.658 4371.26,-210.515"/>
<polygon fill="black" stroke="black" points="4362.49,-215.81 4368.72,-206.791 4366.77,-213.227 4371.05,-210.644 4371.05,-210.644 4371.05,-210.644 4366.77,-213.227 4373.37,-214.496 4362.49,-215.81 4362.49,-215.81"/>
</g>
<!-- 46 -->
<g id="node47" class="node"><title>46</title>
<polygon fill="none" stroke="black" points="4662.5,-252 4471.5,-252 4471.5,-216 4662.5,-216 4662.5,-252"/>
<text text-anchor="middle" x="4567" y="-230.3" font-family="Times,serif" font-size="14.00">PoliciesMultiPlayers.OracleFair</text>
</g>
<!-- 41&#45;&gt;46 -->
<g id="edge59" class="edge"><title>41&#45;&gt;46</title>
<path fill="none" stroke="black" d="M4478.62,-180.124C4493.92,-189.276 4512.94,-200.658 4529.42,-210.515"/>
<polygon fill="black" stroke="black" points="4538.27,-215.81 4527.38,-214.538 4533.98,-213.243 4529.69,-210.676 4529.69,-210.676 4529.69,-210.676 4533.98,-213.243 4532,-206.814 4538.27,-215.81 4538.27,-215.81"/>
</g>
<!-- 47 -->
<g id="node48" class="node"><title>47</title>
<polygon fill="none" stroke="black" points="4893,-252 4681,-252 4681,-216 4893,-216 4893,-252"/>
<text text-anchor="middle" x="4787" y="-230.3" font-family="Times,serif" font-size="14.00">PoliciesMultiPlayers.OracleNotFair</text>
</g>
<!-- 41&#45;&gt;47 -->
<g id="edge60" class="edge"><title>41&#45;&gt;47</title>
<path fill="none" stroke="black" d="M4515.38,-176.58C4566.48,-187.194 4638.14,-202.079 4695.02,-213.895"/>
<polygon fill="black" stroke="black" points="4705.1,-215.989 4694.4,-218.361 4700.21,-214.972 4695.31,-213.955 4695.31,-213.955 4695.31,-213.955 4700.21,-214.972 4696.23,-209.549 4705.1,-215.989 4705.1,-215.989"/>
</g>
<!-- 49 -->
<g id="node50" class="node"><title>49</title>
<polygon fill="none" stroke="black" points="5082.5,-252 4911.5,-252 4911.5,-216 5082.5,-216 5082.5,-252"/>
<text text-anchor="middle" x="4997" y="-230.3" font-family="Times,serif" font-size="14.00">PoliciesMultiPlayers.Selfish</text>
</g>
<!-- 41&#45;&gt;49 -->
<g id="edge61" class="edge"><title>41&#45;&gt;49</title>
<path fill="none" stroke="black" d="M4515.28,-169.405C4601.33,-178.127 4757.61,-194.928 4901.44,-215.968"/>
<polygon fill="black" stroke="black" points="4911.33,-217.425 4900.79,-220.42 4906.39,-216.696 4901.44,-215.968 4901.44,-215.968 4901.44,-215.968 4906.39,-216.696 4902.1,-211.516 4911.33,-217.425 4911.33,-217.425"/>
</g>
<!-- 44 -->
<g id="node45" class="node"><title>44</title>
<polygon fill="none" stroke="black" points="4668.5,-324 4465.5,-324 4465.5,-288 4668.5,-288 4668.5,-324"/>
<text text-anchor="middle" x="4567" y="-302.3" font-family="Times,serif" font-size="14.00">PoliciesMultiPlayers.ChildPointer</text>
</g>
<!-- 42&#45;&gt;44 -->
<g id="edge62" class="edge"><title>42&#45;&gt;44</title>
<path fill="none" stroke="black" d="M4197.29,-250.972C4274.32,-262.229 4377.17,-277.259 4454.83,-288.608"/>
<polygon fill="black" stroke="black" points="4465.14,-290.114 4454.59,-293.12 4460.19,-289.391 4455.24,-288.668 4455.24,-288.668 4455.24,-288.668 4460.19,-289.391 4455.89,-284.215 4465.14,-290.114 4465.14,-290.114"/>
</g>
<!-- 43&#45;&gt;44 -->
<g id="edge63" class="edge"><title>43&#45;&gt;44</title>
<path fill="none" stroke="black" d="M4390.7,-252.034C4423.68,-261.943 4465.43,-274.486 4500.03,-284.879"/>
<polygon fill="black" stroke="black" points="4510.05,-287.889 4499.17,-289.322 4505.26,-286.451 4500.47,-285.012 4500.47,-285.012 4500.47,-285.012 4505.26,-286.451 4501.76,-280.702 4510.05,-287.889 4510.05,-287.889"/>
</g>
<!-- 45 -->
<g id="node46" class="node"><title>45</title>
<polygon fill="none" stroke="black" points="3793.5,-36 3628.5,-36 3628.5,-0 3793.5,-0 3793.5,-36"/>
<text text-anchor="middle" x="3711" y="-14.3" font-family="Times,serif" font-size="14.00">PoliciesMultiPlayers.DMC</text>
</g>
<!-- 46&#45;&gt;44 -->
<g id="edge64" class="edge"><title>46&#45;&gt;44</title>
<path fill="none" stroke="black" d="M4567,-252.303C4567,-260.017 4567,-269.288 4567,-277.888"/>
<polygon fill="black" stroke="black" points="4567,-287.896 4562.5,-277.896 4567,-282.896 4567,-277.896 4567,-277.896 4567,-277.896 4567,-282.896 4571.5,-277.896 4567,-287.896 4567,-287.896"/>
</g>
<!-- 47&#45;&gt;44 -->
<g id="edge65" class="edge"><title>47&#45;&gt;44</title>
<path fill="none" stroke="black" d="M4733.46,-252.034C4702.46,-261.9 4663.24,-274.378 4630.66,-284.745"/>
<polygon fill="black" stroke="black" points="4620.78,-287.889 4628.94,-280.569 4625.54,-286.373 4630.31,-284.857 4630.31,-284.857 4630.31,-284.857 4625.54,-286.373 4631.67,-289.145 4620.78,-287.889 4620.78,-287.889"/>
</g>
<!-- 48 -->
<g id="node49" class="node"><title>48</title>
<polygon fill="none" stroke="black" points="3996.5,-36 3811.5,-36 3811.5,-0 3996.5,-0 3996.5,-36"/>
<text text-anchor="middle" x="3904" y="-14.3" font-family="Times,serif" font-size="14.00">PoliciesMultiPlayers.RhoRand</text>
</g>
<!-- 49&#45;&gt;44 -->
<g id="edge66" class="edge"><title>49&#45;&gt;44</title>
<path fill="none" stroke="black" d="M4911.31,-250.416C4908.17,-250.955 4905.06,-251.485 4902,-252 4827.58,-264.544 4743.71,-277.813 4678.5,-287.936"/>
<polygon fill="black" stroke="black" points="4668.61,-289.47 4677.8,-283.491 4673.55,-288.704 4678.49,-287.937 4678.49,-287.937 4678.49,-287.937 4673.55,-288.704 4679.18,-292.384 4668.61,-289.47 4668.61,-289.47"/>
</g>
<!-- 50 -->
<g id="node51" class="node"><title>50</title>
<polygon fill="none" stroke="black" points="4181.5,-36 4014.5,-36 4014.5,-0 4181.5,-0 4181.5,-36"/>
<text text-anchor="middle" x="4098" y="-14.3" font-family="Times,serif" font-size="14.00">PoliciesMultiPlayers.TDFS</text>
</g>
<!-- 51 -->
<g id="node52" class="node"><title>51</title>
<polygon fill="none" stroke="black" points="402.5,-108 313.5,-108 313.5,-72 402.5,-72 402.5,-108"/>
<text text-anchor="middle" x="358" y="-86.3" font-family="Times,serif" font-size="14.00">configuration</text>
</g>
<!-- 51&#45;&gt;2 -->
<g id="edge67" class="edge"><title>51&#45;&gt;2</title>
<path fill="none" stroke="black" d="M372.09,-108.303C378.923,-116.695 387.257,-126.93 394.756,-136.139"/>
<polygon fill="black" stroke="black" points="401.072,-143.896 391.268,-138.983 397.915,-140.018 394.758,-136.141 394.758,-136.141 394.758,-136.141 397.915,-140.018 398.247,-133.3 401.072,-143.896 401.072,-143.896"/>
</g>
<!-- 51&#45;&gt;3 -->
<g id="edge68" class="edge"><title>51&#45;&gt;3</title>
<path fill="none" stroke="black" d="M313.255,-100.832C268.4,-110.766 197.106,-126.763 126.098,-143.764"/>
<polygon fill="black" stroke="black" points="116.083,-146.169 124.756,-139.458 120.945,-145.001 125.806,-143.834 125.806,-143.834 125.806,-143.834 120.945,-145.001 126.857,-148.209 116.083,-146.169 116.083,-146.169"/>
</g>
<!-- 51&#45;&gt;4 -->
<g id="edge69" class="edge"><title>51&#45;&gt;4</title>
<path fill="none" stroke="black" d="M315.679,-108.124C291.819,-117.778 261.828,-129.913 236.597,-140.122"/>
<polygon fill="black" stroke="black" points="227.183,-143.932 234.765,-136.009 231.818,-142.056 236.453,-140.181 236.453,-140.181 236.453,-140.181 231.818,-142.056 238.141,-144.352 227.183,-143.932 227.183,-143.932"/>
</g>
<!-- 51&#45;&gt;5 -->
<g id="edge70" class="edge"><title>51&#45;&gt;5</title>
<path fill="none" stroke="black" d="M343.663,-108.303C336.709,-116.695 328.23,-126.93 320.599,-136.139"/>
<polygon fill="black" stroke="black" points="314.172,-143.896 317.087,-133.324 317.362,-140.046 320.552,-136.195 320.552,-136.195 320.552,-136.195 317.362,-140.046 324.017,-139.067 314.172,-143.896 314.172,-143.896"/>
</g>
<!-- 51&#45;&gt;14 -->
<g id="edge71" class="edge"><title>51&#45;&gt;14</title>
<path fill="none" stroke="black" d="M402.679,-93.8746C580.604,-105.322 1237.25,-147.57 1406.17,-158.437"/>
<polygon fill="black" stroke="black" points="1416.36,-159.093 1406.09,-162.941 1411.37,-158.772 1406.38,-158.451 1406.38,-158.451 1406.38,-158.451 1411.37,-158.772 1406.67,-153.96 1416.36,-159.093 1416.36,-159.093"/>
</g>
<!-- 52 -->
<g id="node53" class="node"><title>52</title>
<polygon fill="none" stroke="black" points="3327,-108 3163,-108 3163,-72 3327,-72 3327,-108"/>
<text text-anchor="middle" x="3245" y="-86.3" font-family="Times,serif" font-size="14.00">configuration_multiplayers</text>
</g>
<!-- 52&#45;&gt;2 -->
<g id="edge72" class="edge"><title>52&#45;&gt;2</title>
<path fill="none" stroke="black" d="M3162.98,-93.0288C2743.45,-103.406 843.1,-150.411 476.362,-159.482"/>
<polygon fill="black" stroke="black" points="466.213,-159.733 476.099,-154.987 471.212,-159.61 476.21,-159.486 476.21,-159.486 476.21,-159.486 471.212,-159.61 476.322,-163.984 466.213,-159.733 466.213,-159.733"/>
</g>
<!-- 52&#45;&gt;7 -->
<g id="edge73" class="edge"><title>52&#45;&gt;7</title>
<path fill="none" stroke="black" d="M3239.21,-108.129C3230.99,-132.436 3215.87,-177.181 3206.13,-205.987"/>
<polygon fill="black" stroke="black" points="3202.81,-215.811 3201.75,-204.896 3204.41,-211.074 3206.01,-206.337 3206.01,-206.337 3206.01,-206.337 3204.41,-211.074 3210.28,-207.778 3202.81,-215.811 3202.81,-215.811"/>
</g>
<!-- 52&#45;&gt;10 -->
<g id="edge74" class="edge"><title>52&#45;&gt;10</title>
<path fill="none" stroke="black" d="M3256.3,-108.107C3270.8,-128.619 3297.97,-162.425 3330,-180 3399.54,-218.153 3429.16,-199.928 3511.43,-216.028"/>
<polygon fill="black" stroke="black" points="3521.46,-218.107 3510.76,-220.482 3516.56,-217.092 3511.67,-216.076 3511.67,-216.076 3511.67,-216.076 3516.56,-217.092 3512.58,-211.67 3521.46,-218.107 3521.46,-218.107"/>
</g>
<!-- 52&#45;&gt;14 -->
<g id="edge75" class="edge"><title>52&#45;&gt;14</title>
<path fill="none" stroke="black" d="M3162.73,-94.2012C2846.15,-106.519 1712.94,-150.613 1485.8,-159.451"/>
<polygon fill="black" stroke="black" points="1475.68,-159.845 1485.5,-154.96 1480.68,-159.651 1485.67,-159.456 1485.67,-159.456 1485.67,-159.456 1480.68,-159.651 1485.85,-163.953 1475.68,-159.845 1475.68,-159.845"/>
</g>
<!-- 52&#45;&gt;41 -->
<g id="edge76" class="edge"><title>52&#45;&gt;41</title>
<path fill="none" stroke="black" d="M3327,-95.9356C3383.95,-99.3525 3461.59,-103.989 3530,-108 3843.74,-126.394 4217.69,-147.766 4374.72,-156.715"/>
<polygon fill="black" stroke="black" points="4384.74,-157.286 4374.5,-161.21 4379.75,-157.002 4374.76,-156.717 4374.76,-156.717 4374.76,-156.717 4379.75,-157.002 4375.01,-152.225 4384.74,-157.286 4384.74,-157.286"/>
</g>
<!-- 53 -->
<g id="node54" class="node"><title>53</title>
<polygon fill="none" stroke="black" points="3610,-36 3556,-36 3556,-0 3610,-0 3610,-36"/>
<text text-anchor="middle" x="3583" y="-14.3" font-family="Times,serif" font-size="14.00">main</text>
</g>
<!-- 53&#45;&gt;6 -->
<g id="edge77" class="edge"><title>53&#45;&gt;6</title>
<path fill="none" stroke="black" d="M3583,-36.3034C3583,-44.0173 3583,-53.2875 3583,-61.8876"/>
<polygon fill="black" stroke="black" points="3583,-71.8957 3578.5,-61.8956 3583,-66.8957 3583,-61.8957 3583,-61.8957 3583,-61.8957 3583,-66.8957 3587.5,-61.8957 3583,-71.8957 3583,-71.8957"/>
</g>
<!-- 53&#45;&gt;8 -->
<g id="edge78" class="edge"><title>53&#45;&gt;8</title>
<path fill="none" stroke="black" d="M3602.85,-36.1491C3613.48,-45.9679 3626.34,-58.9109 3636,-72 3650.42,-91.5469 3663.04,-116.109 3671.56,-134.476"/>
<polygon fill="black" stroke="black" points="3675.74,-143.713 3667.52,-136.46 3673.68,-139.158 3671.62,-134.604 3671.62,-134.604 3671.62,-134.604 3673.68,-139.158 3675.72,-132.747 3675.74,-143.713 3675.74,-143.713"/>
</g>
<!-- 53&#45;&gt;51 -->
<g id="edge79" class="edge"><title>53&#45;&gt;51</title>
<path fill="none" stroke="black" d="M3555.81,-27.3074C3543.48,-30.6828 3528.63,-34.2054 3515,-36 3195.98,-77.994 806.447,-87.5405 412.816,-88.8337"/>
<polygon fill="black" stroke="black" points="402.552,-88.8671 412.537,-84.3345 407.552,-88.8508 412.552,-88.8345 412.552,-88.8345 412.552,-88.8345 407.552,-88.8508 412.567,-93.3345 402.552,-88.8671 402.552,-88.8671"/>
</g>
<!-- 54 -->
<g id="node55" class="node"><title>54</title>
<polygon fill="none" stroke="black" points="3506.5,-36 3387.5,-36 3387.5,-0 3506.5,-0 3506.5,-36"/>
<text text-anchor="middle" x="3447" y="-14.3" font-family="Times,serif" font-size="14.00">main_multiplayers</text>
</g>
<!-- 54&#45;&gt;6 -->
<g id="edge80" class="edge"><title>54&#45;&gt;6</title>
<path fill="none" stroke="black" d="M3480.27,-36.1239C3498.46,-45.4883 3521.19,-57.1864 3540.64,-67.197"/>
<polygon fill="black" stroke="black" points="3549.6,-71.8102 3538.65,-71.2349 3545.16,-69.522 3540.71,-67.2338 3540.71,-67.2338 3540.71,-67.2338 3545.16,-69.522 3542.77,-63.2326 3549.6,-71.8102 3549.6,-71.8102"/>
</g>
<!-- 54&#45;&gt;9 -->
<g id="edge81" class="edge"><title>54&#45;&gt;9</title>
<path fill="none" stroke="black" d="M3447,-36.1285C3447,-60.3298 3447,-104.789 3447,-133.607"/>
<polygon fill="black" stroke="black" points="3447,-143.811 3442.5,-133.811 3447,-138.811 3447,-133.811 3447,-133.811 3447,-133.811 3447,-138.811 3451.5,-133.811 3447,-143.811 3447,-143.811"/>
</g>
<!-- 54&#45;&gt;52 -->
<g id="edge82" class="edge"><title>54&#45;&gt;52</title>
<path fill="none" stroke="black" d="M3397.84,-36.0344C3369.5,-45.8575 3333.68,-58.2709 3303.84,-68.6109"/>
<polygon fill="black" stroke="black" points="3294.38,-71.8892 3302.35,-64.3629 3299.1,-70.252 3303.83,-68.6148 3303.83,-68.6148 3303.83,-68.6148 3299.1,-70.252 3305.3,-72.8667 3294.38,-71.8892 3294.38,-71.8892"/>
</g>
</g>
</svg>
