<?xml version="1.0" encoding="UTF-8" standalone="no"?>
<!DOCTYPE svg PUBLIC "-//W3C//DTD SVG 1.1//EN"
 "http://www.w3.org/Graphics/SVG/1.1/DTD/svg11.dtd">
<!-- Generated by graphviz version 2.38.0 (20140413.2041)
 -->
<!-- Title: packages_AlgoBandits Pages: 1 -->
<svg width="6934pt" height="548pt"
 viewBox="0.00 0.00 6934.00 548.00" xmlns="http://www.w3.org/2000/svg" xmlns:xlink="http://www.w3.org/1999/xlink">
<g id="graph0" class="graph" transform="scale(1 1) rotate(0) translate(4 544)">
<title>packages_AlgoBandits</title>
<polygon fill="white" stroke="none" points="-4,4 -4,-544 6930,-544 6930,4 -4,4"/>
<!-- 0 -->
<g id="node1" class="node"><title>0</title>
<polygon fill="none" stroke="black" points="442,-180 388,-180 388,-144 442,-144 442,-180"/>
<text text-anchor="middle" x="415" y="-158.3" font-family="Times,serif" font-size="14.00">Arms</text>
</g>
<!-- 2 -->
<g id="node3" class="node"><title>2</title>
<polygon fill="none" stroke="black" points="236,-252 134,-252 134,-216 236,-216 236,-252"/>
<text text-anchor="middle" x="185" y="-230.3" font-family="Times,serif" font-size="14.00">Arms.Bernoulli</text>
</g>
<!-- 0&#45;&gt;2 -->
<g id="edge1" class="edge"><title>0&#45;&gt;2</title>
<path fill="none" stroke="black" d="M387.83,-174.804C383.249,-176.639 378.516,-178.44 374,-180 320.595,-198.448 303.975,-199.792 245.77,-215.816"/>
<polygon fill="black" stroke="black" points="236.059,-218.518 244.486,-211.502 240.876,-217.178 245.693,-215.837 245.693,-215.837 245.693,-215.837 240.876,-217.178 246.9,-220.172 236.059,-218.518 236.059,-218.518"/>
</g>
<!-- 3 -->
<g id="node4" class="node"><title>3</title>
<polygon fill="none" stroke="black" points="116,-252 7.10543e-15,-252 7.10543e-15,-216 116,-216 116,-252"/>
<text text-anchor="middle" x="58" y="-230.3" font-family="Times,serif" font-size="14.00">Arms.Exponential</text>
</g>
<!-- 0&#45;&gt;3 -->
<g id="edge2" class="edge"><title>0&#45;&gt;3</title>
<path fill="none" stroke="black" d="M387.69,-167.357C337.743,-175.461 228.146,-193.872 125.916,-215.875"/>
<polygon fill="black" stroke="black" points="116.048,-218.016 124.867,-211.498 120.934,-216.956 125.82,-215.896 125.82,-215.896 125.82,-215.896 120.934,-216.956 126.774,-220.294 116.048,-218.016 116.048,-218.016"/>
</g>
<!-- 4 -->
<g id="node5" class="node"><title>4</title>
<polygon fill="none" stroke="black" points="583.5,-252 482.5,-252 482.5,-216 583.5,-216 583.5,-252"/>
<text text-anchor="middle" x="533" y="-230.3" font-family="Times,serif" font-size="14.00">Arms.Gaussian</text>
</g>
<!-- 0&#45;&gt;4 -->
<g id="edge3" class="edge"><title>0&#45;&gt;4</title>
<path fill="none" stroke="black" d="M442.072,-179.059C457.832,-188.409 477.942,-200.338 495.24,-210.6"/>
<polygon fill="black" stroke="black" points="503.992,-215.792 493.096,-214.56 499.692,-213.241 495.392,-210.69 495.392,-210.69 495.392,-210.69 499.692,-213.241 497.688,-206.82 503.992,-215.792 503.992,-215.792"/>
</g>
<!-- 5 -->
<g id="node6" class="node"><title>5</title>
<polygon fill="none" stroke="black" points="347.5,-252 254.5,-252 254.5,-216 347.5,-216 347.5,-252"/>
<text text-anchor="middle" x="301" y="-230.3" font-family="Times,serif" font-size="14.00">Arms.Poisson</text>
</g>
<!-- 0&#45;&gt;5 -->
<g id="edge4" class="edge"><title>0&#45;&gt;5</title>
<path fill="none" stroke="black" d="M387.984,-179.589C372.984,-188.799 354.112,-200.388 337.782,-210.414"/>
<polygon fill="black" stroke="black" points="329.013,-215.799 335.18,-206.732 333.274,-213.183 337.535,-210.566 337.535,-210.566 337.535,-210.566 333.274,-213.183 339.889,-214.401 329.013,-215.799 329.013,-215.799"/>
</g>
<!-- 6 -->
<g id="node7" class="node"><title>6</title>
<polygon fill="none" stroke="black" points="464,-252 366,-252 366,-216 464,-216 464,-252"/>
<text text-anchor="middle" x="415" y="-230.3" font-family="Times,serif" font-size="14.00">Arms.Uniform</text>
</g>
<!-- 0&#45;&gt;6 -->
<g id="edge5" class="edge"><title>0&#45;&gt;6</title>
<path fill="none" stroke="black" d="M415,-180.303C415,-188.017 415,-197.288 415,-205.888"/>
<polygon fill="black" stroke="black" points="415,-215.896 410.5,-205.896 415,-210.896 415,-205.896 415,-205.896 415,-205.896 415,-210.896 419.5,-205.896 415,-215.896 415,-215.896"/>
</g>
<!-- 1 -->
<g id="node2" class="node"><title>1</title>
<polygon fill="none" stroke="black" points="339.5,-324 262.5,-324 262.5,-288 339.5,-288 339.5,-324"/>
<text text-anchor="middle" x="301" y="-302.3" font-family="Times,serif" font-size="14.00">Arms.Arm</text>
</g>
<!-- 2&#45;&gt;1 -->
<g id="edge6" class="edge"><title>2&#45;&gt;1</title>
<path fill="none" stroke="black" d="M213.377,-252.124C228.544,-261.276 247.405,-272.658 263.739,-282.515"/>
<polygon fill="black" stroke="black" points="272.514,-287.81 261.627,-286.496 268.233,-285.227 263.952,-282.644 263.952,-282.644 263.952,-282.644 268.233,-285.227 266.277,-278.791 272.514,-287.81 272.514,-287.81"/>
</g>
<!-- 7 -->
<g id="node8" class="node"><title>7</title>
<polygon fill="none" stroke="black" points="239,-324 141,-324 141,-288 239,-288 239,-324"/>
<text text-anchor="middle" x="190" y="-302.3" font-family="Times,serif" font-size="14.00">Arms.kullback</text>
</g>
<!-- 2&#45;&gt;7 -->
<g id="edge7" class="edge"><title>2&#45;&gt;7</title>
<path fill="none" stroke="black" d="M186.236,-252.303C186.787,-260.017 187.449,-269.288 188.063,-277.888"/>
<polygon fill="black" stroke="black" points="188.778,-287.896 183.577,-278.242 188.422,-282.908 188.066,-277.921 188.066,-277.921 188.066,-277.921 188.422,-282.908 192.554,-277.6 188.778,-287.896 188.778,-287.896"/>
</g>
<!-- 3&#45;&gt;1 -->
<g id="edge8" class="edge"><title>3&#45;&gt;1</title>
<path fill="none" stroke="black" d="M116.376,-250.661C154.046,-260.921 204.043,-274.825 248,-288 249.446,-288.433 250.913,-288.877 252.394,-289.329"/>
<polygon fill="black" stroke="black" points="262.266,-292.387 251.382,-293.726 257.49,-290.907 252.714,-289.428 252.714,-289.428 252.714,-289.428 257.49,-290.907 254.045,-285.129 262.266,-292.387 262.266,-292.387"/>
</g>
<!-- 3&#45;&gt;7 -->
<g id="edge9" class="edge"><title>3&#45;&gt;7</title>
<path fill="none" stroke="black" d="M90.2908,-252.124C107.869,-261.446 129.809,-273.081 148.629,-283.061"/>
<polygon fill="black" stroke="black" points="157.585,-287.81 146.642,-287.101 153.168,-285.468 148.75,-283.125 148.75,-283.125 148.75,-283.125 153.168,-285.468 150.859,-279.15 157.585,-287.81 157.585,-287.81"/>
</g>
<!-- 4&#45;&gt;1 -->
<g id="edge10" class="edge"><title>4&#45;&gt;1</title>
<path fill="none" stroke="black" d="M482.373,-250.275C442.964,-262.166 388.607,-278.567 349.697,-290.307"/>
<polygon fill="black" stroke="black" points="339.657,-293.336 347.931,-286.139 344.444,-291.892 349.231,-290.448 349.231,-290.448 349.231,-290.448 344.444,-291.892 350.531,-294.756 339.657,-293.336 339.657,-293.336"/>
</g>
<!-- 4&#45;&gt;7 -->
<g id="edge11" class="edge"><title>4&#45;&gt;7</title>
<path fill="none" stroke="black" d="M482.364,-249.785C479.205,-250.571 476.065,-251.317 473,-252 376.291,-273.539 349.842,-267.067 253,-288 251.723,-288.276 250.433,-288.562 249.135,-288.855"/>
<polygon fill="black" stroke="black" points="239.063,-291.245 247.754,-284.558 243.928,-290.091 248.793,-288.936 248.793,-288.936 248.793,-288.936 243.928,-290.091 249.832,-293.315 239.063,-291.245 239.063,-291.245"/>
</g>
<!-- 5&#45;&gt;1 -->
<g id="edge12" class="edge"><title>5&#45;&gt;1</title>
<path fill="none" stroke="black" d="M301,-252.303C301,-260.017 301,-269.288 301,-277.888"/>
<polygon fill="black" stroke="black" points="301,-287.896 296.5,-277.896 301,-282.896 301,-277.896 301,-277.896 301,-277.896 301,-282.896 305.5,-277.896 301,-287.896 301,-287.896"/>
</g>
<!-- 5&#45;&gt;7 -->
<g id="edge13" class="edge"><title>5&#45;&gt;7</title>
<path fill="none" stroke="black" d="M273.846,-252.124C259.467,-261.192 241.619,-272.448 226.09,-282.241"/>
<polygon fill="black" stroke="black" points="217.258,-287.81 223.316,-278.67 221.487,-285.143 225.717,-282.476 225.717,-282.476 225.717,-282.476 221.487,-285.143 228.117,-286.282 217.258,-287.81 217.258,-287.81"/>
</g>
<!-- 6&#45;&gt;1 -->
<g id="edge14" class="edge"><title>6&#45;&gt;1</title>
<path fill="none" stroke="black" d="M387.112,-252.124C372.207,-261.276 353.671,-272.658 337.618,-282.515"/>
<polygon fill="black" stroke="black" points="328.995,-287.81 335.162,-278.743 333.256,-285.194 337.516,-282.578 337.516,-282.578 337.516,-282.578 333.256,-285.194 339.871,-286.412 328.995,-287.81 328.995,-287.81"/>
</g>
<!-- 8 -->
<g id="node9" class="node"><title>8</title>
<polygon fill="none" stroke="black" points="4168,-108 4080,-108 4080,-72 4168,-72 4168,-108"/>
<text text-anchor="middle" x="4124" y="-86.3" font-family="Times,serif" font-size="14.00">Environment</text>
</g>
<!-- 10 -->
<g id="node11" class="node"><title>10</title>
<polygon fill="none" stroke="black" points="4055,-180 3911,-180 3911,-144 4055,-144 4055,-180"/>
<text text-anchor="middle" x="3983" y="-158.3" font-family="Times,serif" font-size="14.00">Environment.Evaluator</text>
</g>
<!-- 8&#45;&gt;10 -->
<g id="edge15" class="edge"><title>8&#45;&gt;10</title>
<path fill="none" stroke="black" d="M4089.51,-108.124C4070.56,-117.531 4046.87,-129.292 4026.64,-139.333"/>
<polygon fill="black" stroke="black" points="4017.63,-143.81 4024.58,-135.333 4022.1,-141.587 4026.58,-139.363 4026.58,-139.363 4026.58,-139.363 4022.1,-141.587 4028.58,-143.394 4017.63,-143.81 4017.63,-143.81"/>
</g>
<!-- 11 -->
<g id="node12" class="node"><title>11</title>
<polygon fill="none" stroke="black" points="4495.5,-180 4280.5,-180 4280.5,-144 4495.5,-144 4495.5,-180"/>
<text text-anchor="middle" x="4388" y="-158.3" font-family="Times,serif" font-size="14.00">Environment.EvaluatorMultiPlayers</text>
</g>
<!-- 8&#45;&gt;11 -->
<g id="edge16" class="edge"><title>8&#45;&gt;11</title>
<path fill="none" stroke="black" d="M4168.19,-102.716C4207.93,-113.254 4267.1,-128.944 4314.05,-141.392"/>
<polygon fill="black" stroke="black" points="4323.87,-143.996 4313.05,-145.782 4319.04,-142.714 4314.2,-141.433 4314.2,-141.433 4314.2,-141.433 4319.04,-142.714 4315.36,-137.083 4323.87,-143.996 4323.87,-143.996"/>
</g>
<!-- 12 -->
<g id="node13" class="node"><title>12</title>
<polygon fill="none" stroke="black" points="4185.5,-252 4062.5,-252 4062.5,-216 4185.5,-216 4185.5,-252"/>
<text text-anchor="middle" x="4124" y="-230.3" font-family="Times,serif" font-size="14.00">Environment.MAB</text>
</g>
<!-- 8&#45;&gt;12 -->
<g id="edge17" class="edge"><title>8&#45;&gt;12</title>
<path fill="none" stroke="black" d="M4124,-108.129C4124,-132.33 4124,-176.789 4124,-205.607"/>
<polygon fill="black" stroke="black" points="4124,-215.811 4119.5,-205.811 4124,-210.811 4124,-205.811 4124,-205.811 4124,-205.811 4124,-210.811 4128.5,-205.811 4124,-215.811 4124,-215.811"/>
</g>
<!-- 13 -->
<g id="node14" class="node"><title>13</title>
<polygon fill="none" stroke="black" points="4044,-252 3918,-252 3918,-216 4044,-216 4044,-252"/>
<text text-anchor="middle" x="3981" y="-230.3" font-family="Times,serif" font-size="14.00">Environment.Result</text>
</g>
<!-- 8&#45;&gt;13 -->
<g id="edge18" class="edge"><title>8&#45;&gt;13</title>
<path fill="none" stroke="black" d="M4115.18,-108.257C4104.8,-127.391 4086.14,-158.4 4064,-180 4052.05,-191.654 4037.15,-202.126 4023.28,-210.624"/>
<polygon fill="black" stroke="black" points="4014.36,-215.915 4020.66,-206.944 4018.66,-213.365 4022.96,-210.814 4022.96,-210.814 4022.96,-210.814 4018.66,-213.365 4025.25,-214.685 4014.36,-215.915 4014.36,-215.915"/>
</g>
<!-- 14 -->
<g id="node15" class="node"><title>14</title>
<polygon fill="none" stroke="black" points="4439.5,-252 4242.5,-252 4242.5,-216 4439.5,-216 4439.5,-252"/>
<text text-anchor="middle" x="4341" y="-230.3" font-family="Times,serif" font-size="14.00">Environment.ResultMultiPlayers</text>
</g>
<!-- 8&#45;&gt;14 -->
<g id="edge19" class="edge"><title>8&#45;&gt;14</title>
<path fill="none" stroke="black" d="M4162.15,-108.016C4182.31,-117.603 4207.13,-130.371 4228,-144 4249.16,-157.816 4252.2,-164.302 4272,-180 4284.5,-189.912 4298.43,-200.668 4310.49,-209.883"/>
<polygon fill="black" stroke="black" points="4318.49,-215.987 4307.81,-213.501 4314.52,-212.955 4310.54,-209.923 4310.54,-209.923 4310.54,-209.923 4314.52,-212.955 4313.27,-206.345 4318.49,-215.987 4318.49,-215.987"/>
</g>
<!-- 15 -->
<g id="node16" class="node"><title>15</title>
<polygon fill="none" stroke="black" points="4246,-324 4092,-324 4092,-288 4246,-288 4246,-324"/>
<text text-anchor="middle" x="4169" y="-302.3" font-family="Times,serif" font-size="14.00">Environment.plotsettings</text>
</g>
<!-- 8&#45;&gt;15 -->
<g id="edge20" class="edge"><title>8&#45;&gt;15</title>
<path fill="none" stroke="black" d="M4137.77,-108.336C4155.09,-131.356 4183.91,-174.014 4195,-216 4199.09,-231.469 4198.62,-236.414 4195,-252 4192.9,-261.041 4189.03,-270.319 4184.91,-278.533"/>
<polygon fill="black" stroke="black" points="4180.05,-287.611 4180.8,-276.671 4182.41,-283.204 4184.77,-278.797 4184.77,-278.797 4184.77,-278.797 4182.41,-283.204 4188.74,-280.923 4180.05,-287.611 4180.05,-287.611"/>
</g>
<!-- 9 -->
<g id="node10" class="node"><title>9</title>
<polygon fill="none" stroke="black" points="4678,-252 4496,-252 4496,-216 4678,-216 4678,-252"/>
<text text-anchor="middle" x="4587" y="-230.3" font-family="Times,serif" font-size="14.00">Environment.CollisionModels</text>
</g>
<!-- 10&#45;&gt;12 -->
<g id="edge21" class="edge"><title>10&#45;&gt;12</title>
<path fill="none" stroke="black" d="M4017.49,-180.124C4036.44,-189.531 4060.13,-201.292 4080.36,-211.333"/>
<polygon fill="black" stroke="black" points="4089.37,-215.81 4078.42,-215.394 4084.9,-213.587 4080.42,-211.363 4080.42,-211.363 4080.42,-211.363 4084.9,-213.587 4082.42,-207.333 4089.37,-215.81 4089.37,-215.81"/>
</g>
<!-- 10&#45;&gt;13 -->
<g id="edge22" class="edge"><title>10&#45;&gt;13</title>
<path fill="none" stroke="black" d="M3982.51,-180.303C3982.29,-188.017 3982.02,-197.288 3981.77,-205.888"/>
<polygon fill="black" stroke="black" points="3981.49,-215.896 3977.28,-205.771 3981.63,-210.898 3981.77,-205.9 3981.77,-205.9 3981.77,-205.9 3981.63,-210.898 3986.27,-206.028 3981.49,-215.896 3981.49,-215.896"/>
</g>
<!-- 10&#45;&gt;15 -->
<g id="edge23" class="edge"><title>10&#45;&gt;15</title>
<path fill="none" stroke="black" d="M3945.61,-180.202C3931.46,-188.797 3916.87,-200.679 3909,-216 3901.69,-230.231 3898.88,-239.608 3909,-252 3930.65,-278.514 4014.8,-292.105 4081.57,-298.843"/>
<polygon fill="black" stroke="black" points="4091.71,-299.827 4081.32,-303.339 4086.73,-299.344 4081.75,-298.86 4081.75,-298.86 4081.75,-298.86 4086.73,-299.344 4082.19,-294.381 4091.71,-299.827 4091.71,-299.827"/>
</g>
<!-- 11&#45;&gt;9 -->
<g id="edge24" class="edge"><title>11&#45;&gt;9</title>
<path fill="none" stroke="black" d="M4436.43,-180.034C4464.23,-189.815 4499.34,-202.164 4528.65,-212.476"/>
<polygon fill="black" stroke="black" points="4538.36,-215.889 4527.43,-216.816 4533.64,-214.23 4528.92,-212.571 4528.92,-212.571 4528.92,-212.571 4533.64,-214.23 4530.42,-208.326 4538.36,-215.889 4538.36,-215.889"/>
</g>
<!-- 11&#45;&gt;12 -->
<g id="edge25" class="edge"><title>11&#45;&gt;12</title>
<path fill="none" stroke="black" d="M4323.76,-180.034C4284.98,-190.316 4235.5,-203.435 4195.49,-214.044"/>
<polygon fill="black" stroke="black" points="4185.8,-216.614 4194.31,-209.701 4190.63,-215.332 4195.47,-214.051 4195.47,-214.051 4195.47,-214.051 4190.63,-215.332 4196.62,-218.401 4185.8,-216.614 4185.8,-216.614"/>
</g>
<!-- 11&#45;&gt;14 -->
<g id="edge26" class="edge"><title>11&#45;&gt;14</title>
<path fill="none" stroke="black" d="M4376.38,-180.303C4370.86,-188.526 4364.15,-198.517 4358.07,-207.579"/>
<polygon fill="black" stroke="black" points="4352.48,-215.896 4354.32,-205.085 4355.27,-211.745 4358.06,-207.593 4358.06,-207.593 4358.06,-207.593 4355.27,-211.745 4361.79,-210.102 4352.48,-215.896 4352.48,-215.896"/>
</g>
<!-- 11&#45;&gt;15 -->
<g id="edge27" class="edge"><title>11&#45;&gt;15</title>
<path fill="none" stroke="black" d="M4413.57,-180.056C4438.05,-198.471 4468.6,-228.343 4449,-252 4424.81,-281.2 4329.19,-294.434 4256.37,-300.353"/>
<polygon fill="black" stroke="black" points="4246.25,-301.14 4255.87,-295.878 4251.24,-300.752 4256.22,-300.364 4256.22,-300.364 4256.22,-300.364 4251.24,-300.752 4256.57,-304.85 4246.25,-301.14 4246.25,-301.14"/>
</g>
<!-- 12&#45;&gt;15 -->
<g id="edge28" class="edge"><title>12&#45;&gt;15</title>
<path fill="none" stroke="black" d="M4135.12,-252.303C4140.36,-260.441 4146.7,-270.311 4152.48,-279.299"/>
<polygon fill="black" stroke="black" points="4158,-287.896 4148.81,-281.917 4155.3,-283.69 4152.6,-279.484 4152.6,-279.484 4152.6,-279.484 4155.3,-283.69 4156.38,-277.05 4158,-287.896 4158,-287.896"/>
</g>
<!-- 16 -->
<g id="node17" class="node"><title>16</title>
<polygon fill="none" stroke="black" points="2316.5,-180 2257.5,-180 2257.5,-144 2316.5,-144 2316.5,-180"/>
<text text-anchor="middle" x="2287" y="-158.3" font-family="Times,serif" font-size="14.00">Policies</text>
</g>
<!-- 17 -->
<g id="node18" class="node"><title>17</title>
<polygon fill="none" stroke="black" points="1067.5,-324 946.5,-324 946.5,-288 1067.5,-288 1067.5,-324"/>
<text text-anchor="middle" x="1007" y="-302.3" font-family="Times,serif" font-size="14.00">Policies.AdBandits</text>
</g>
<!-- 16&#45;&gt;17 -->
<g id="edge29" class="edge"><title>16&#45;&gt;17</title>
<path fill="none" stroke="black" d="M2257.22,-163.656C2065.96,-167.937 1017.6,-192.452 995,-216 979.391,-232.262 985.24,-258.542 993.288,-278.337"/>
<polygon fill="black" stroke="black" points="997.462,-287.736 989.29,-280.424 995.433,-283.167 993.403,-278.597 993.403,-278.597 993.403,-278.597 995.433,-283.167 997.516,-276.77 997.462,-287.736 997.462,-287.736"/>
</g>
<!-- 18 -->
<g id="node19" class="node"><title>18</title>
<polygon fill="none" stroke="black" points="1297.5,-468 1206.5,-468 1206.5,-432 1297.5,-432 1297.5,-468"/>
<text text-anchor="middle" x="1252" y="-446.3" font-family="Times,serif" font-size="14.00">Policies.Aggr</text>
</g>
<!-- 16&#45;&gt;18 -->
<g id="edge30" class="edge"><title>16&#45;&gt;18</title>
<path fill="none" stroke="black" d="M2257.3,-163.374C2091.11,-165.607 1282.75,-178.384 1247,-216 1193.79,-271.995 1222.72,-374.062 1240.88,-422.338"/>
<polygon fill="black" stroke="black" points="1244.55,-431.787 1236.73,-424.099 1242.74,-427.128 1240.93,-422.468 1240.93,-422.468 1240.93,-422.468 1242.74,-427.128 1245.12,-420.836 1244.55,-431.787 1244.55,-431.787"/>
</g>
<!-- 20 -->
<g id="node21" class="node"><title>20</title>
<polygon fill="none" stroke="black" points="1380,-252 1256,-252 1256,-216 1380,-216 1380,-252"/>
<text text-anchor="middle" x="1318" y="-230.3" font-family="Times,serif" font-size="14.00">Policies.BayesUCB</text>
</g>
<!-- 16&#45;&gt;20 -->
<g id="edge31" class="edge"><title>16&#45;&gt;20</title>
<path fill="none" stroke="black" d="M2257.35,-162.862C2145.06,-162.735 1735.24,-165.85 1390.15,-215.989"/>
<polygon fill="black" stroke="black" points="1380.22,-217.448 1389.46,-211.543 1385.16,-216.721 1390.11,-215.995 1390.11,-215.995 1390.11,-215.995 1385.16,-216.721 1390.76,-220.447 1380.22,-217.448 1380.22,-217.448"/>
</g>
<!-- 23 -->
<g id="node24" class="node"><title>23</title>
<polygon fill="none" stroke="black" points="1889.5,-252 1724.5,-252 1724.5,-216 1889.5,-216 1889.5,-252"/>
<text text-anchor="middle" x="1807" y="-230.3" font-family="Times,serif" font-size="14.00">Policies.EpsilonDecreasing</text>
</g>
<!-- 16&#45;&gt;23 -->
<g id="edge32" class="edge"><title>16&#45;&gt;23</title>
<path fill="none" stroke="black" d="M2257.24,-166.582C2193.66,-174.336 2039.69,-193.666 1899.77,-215.918"/>
<polygon fill="black" stroke="black" points="1889.72,-217.525 1898.88,-211.502 1894.66,-216.736 1899.59,-215.946 1899.59,-215.946 1899.59,-215.946 1894.66,-216.736 1900.31,-220.389 1889.72,-217.525 1889.72,-217.525"/>
</g>
<!-- 24 -->
<g id="node25" class="node"><title>24</title>
<polygon fill="none" stroke="black" points="2114,-252 1908,-252 1908,-216 2114,-216 2114,-252"/>
<text text-anchor="middle" x="2011" y="-230.3" font-family="Times,serif" font-size="14.00">Policies.EpsilonDecreasingMEGA</text>
</g>
<!-- 16&#45;&gt;24 -->
<g id="edge33" class="edge"><title>16&#45;&gt;24</title>
<path fill="none" stroke="black" d="M2257.46,-170.491C2217.39,-180.656 2144.34,-199.183 2088.13,-213.437"/>
<polygon fill="black" stroke="black" points="2078.2,-215.956 2086.79,-209.135 2083.05,-214.727 2087.9,-213.497 2087.9,-213.497 2087.9,-213.497 2083.05,-214.727 2089,-217.859 2078.2,-215.956 2078.2,-215.956"/>
</g>
<!-- 25 -->
<g id="node26" class="node"><title>25</title>
<polygon fill="none" stroke="black" points="2319.5,-252 2132.5,-252 2132.5,-216 2319.5,-216 2319.5,-252"/>
<text text-anchor="middle" x="2226" y="-230.3" font-family="Times,serif" font-size="14.00">Policies.EpsilonExpDecreasing</text>
</g>
<!-- 16&#45;&gt;25 -->
<g id="edge34" class="edge"><title>16&#45;&gt;25</title>
<path fill="none" stroke="black" d="M2271.92,-180.303C2264.61,-188.695 2255.69,-198.93 2247.66,-208.139"/>
<polygon fill="black" stroke="black" points="2240.91,-215.896 2244.08,-205.4 2244.19,-212.126 2247.48,-208.357 2247.48,-208.357 2247.48,-208.357 2244.19,-212.126 2250.87,-211.313 2240.91,-215.896 2240.91,-215.896"/>
</g>
<!-- 26 -->
<g id="node27" class="node"><title>26</title>
<polygon fill="none" stroke="black" points="1667.5,-252 1538.5,-252 1538.5,-216 1667.5,-216 1667.5,-252"/>
<text text-anchor="middle" x="1603" y="-230.3" font-family="Times,serif" font-size="14.00">Policies.EpsilonFirst</text>
</g>
<!-- 16&#45;&gt;26 -->
<g id="edge35" class="edge"><title>16&#45;&gt;26</title>
<path fill="none" stroke="black" d="M2257.26,-164.291C2169.07,-168.402 1901.46,-182.906 1682,-216 1680.53,-216.222 1679.04,-216.455 1677.54,-216.698"/>
<polygon fill="black" stroke="black" points="1667.55,-218.425 1676.64,-212.287 1672.48,-217.573 1677.4,-216.722 1677.4,-216.722 1677.4,-216.722 1672.48,-217.573 1678.17,-221.156 1667.55,-218.425 1667.55,-218.425"/>
</g>
<!-- 27 -->
<g id="node28" class="node"><title>27</title>
<polygon fill="none" stroke="black" points="1824,-324 1680,-324 1680,-288 1824,-288 1824,-324"/>
<text text-anchor="middle" x="1752" y="-302.3" font-family="Times,serif" font-size="14.00">Policies.EpsilonGreedy</text>
</g>
<!-- 16&#45;&gt;27 -->
<g id="edge36" class="edge"><title>16&#45;&gt;27</title>
<path fill="none" stroke="black" d="M2257.3,-163.466C2145.13,-165.526 1751.83,-175.602 1715,-216 1698.53,-234.07 1712.91,-260.509 1728.3,-279.875"/>
<polygon fill="black" stroke="black" points="1734.87,-287.697 1724.99,-282.932 1731.65,-283.867 1728.44,-280.038 1728.44,-280.038 1728.44,-280.038 1731.65,-283.867 1731.88,-277.145 1734.87,-287.697 1734.87,-287.697"/>
</g>
<!-- 28 -->
<g id="node29" class="node"><title>28</title>
<polygon fill="none" stroke="black" points="1927,-396 1835,-396 1835,-360 1927,-360 1927,-396"/>
<text text-anchor="middle" x="1881" y="-374.3" font-family="Times,serif" font-size="14.00">Policies.Exp3</text>
</g>
<!-- 16&#45;&gt;28 -->
<g id="edge37" class="edge"><title>16&#45;&gt;28</title>
<path fill="none" stroke="black" d="M2305.41,-180.279C2323.6,-199.432 2346.26,-230.459 2328,-252 2296.39,-289.286 2158.15,-275.112 2111,-288 2045.64,-305.863 1973.2,-335.649 1927.41,-355.793"/>
<polygon fill="black" stroke="black" points="1918.05,-359.937 1925.37,-351.772 1922.63,-357.912 1927.2,-355.887 1927.2,-355.887 1927.2,-355.887 1922.63,-357.912 1929.02,-360.001 1918.05,-359.937 1918.05,-359.937"/>
</g>
<!-- 31 -->
<g id="node32" class="node"><title>31</title>
<polygon fill="none" stroke="black" points="660,-468 556,-468 556,-432 660,-432 660,-468"/>
<text text-anchor="middle" x="608" y="-446.3" font-family="Times,serif" font-size="14.00">Policies.MEGA</text>
</g>
<!-- 16&#45;&gt;31 -->
<g id="edge38" class="edge"><title>16&#45;&gt;31</title>
<path fill="none" stroke="black" d="M2257.47,-163.033C2044.81,-163.386 753.574,-167.523 688,-216 621.996,-264.795 609.994,-371.379 608.121,-421.682"/>
<polygon fill="black" stroke="black" points="607.855,-431.801 603.62,-421.686 607.987,-426.803 608.118,-421.805 608.118,-421.805 608.118,-421.805 607.987,-426.803 612.617,-421.923 607.855,-431.801 607.855,-431.801"/>
</g>
<!-- 32 -->
<g id="node33" class="node"><title>32</title>
<polygon fill="none" stroke="black" points="3882.5,-396 3781.5,-396 3781.5,-360 3882.5,-360 3882.5,-396"/>
<text text-anchor="middle" x="3832" y="-374.3" font-family="Times,serif" font-size="14.00">Policies.MOSS</text>
</g>
<!-- 16&#45;&gt;32 -->
<g id="edge39" class="edge"><title>16&#45;&gt;32</title>
<path fill="none" stroke="black" d="M2316.76,-163.044C2522.88,-163.471 3731.46,-168.02 3791,-216 3830.86,-248.122 3835.16,-313.088 3834.04,-349.919"/>
<polygon fill="black" stroke="black" points="3833.59,-359.944 3829.55,-349.749 3833.81,-354.949 3834.04,-349.955 3834.04,-349.955 3834.04,-349.955 3833.81,-354.949 3838.54,-350.16 3833.59,-359.944 3833.59,-359.944"/>
</g>
<!-- 33 -->
<g id="node34" class="node"><title>33</title>
<polygon fill="none" stroke="black" points="815.5,-468 678.5,-468 678.5,-432 815.5,-432 815.5,-468"/>
<text text-anchor="middle" x="747" y="-446.3" font-family="Times,serif" font-size="14.00">Policies.MusicalChair</text>
</g>
<!-- 16&#45;&gt;33 -->
<g id="edge40" class="edge"><title>16&#45;&gt;33</title>
<path fill="none" stroke="black" d="M2257.4,-162.842C2045.64,-161.852 767.805,-158.285 712,-216 657.487,-272.378 704.254,-374.992 731.177,-422.969"/>
<polygon fill="black" stroke="black" points="736.261,-431.807 727.374,-425.383 733.767,-427.473 731.274,-423.139 731.274,-423.139 731.274,-423.139 733.767,-427.473 735.175,-420.895 736.261,-431.807 736.261,-431.807"/>
</g>
<!-- 35 -->
<g id="node36" class="node"><title>35</title>
<polygon fill="none" stroke="black" points="944,-468 834,-468 834,-432 944,-432 944,-468"/>
<text text-anchor="middle" x="889" y="-446.3" font-family="Times,serif" font-size="14.00">Policies.Softmax</text>
</g>
<!-- 16&#45;&gt;35 -->
<g id="edge41" class="edge"><title>16&#45;&gt;35</title>
<path fill="none" stroke="black" d="M2257.48,-162.857C2047.67,-161.981 788.984,-159.108 734,-216 668.7,-283.566 790.533,-382.028 854.017,-426.139"/>
<polygon fill="black" stroke="black" points="862.563,-431.994 851.77,-430.054 858.438,-429.168 854.313,-426.342 854.313,-426.342 854.313,-426.342 858.438,-429.168 856.857,-422.63 862.563,-431.994 862.563,-431.994"/>
</g>
<!-- 36 -->
<g id="node37" class="node"><title>36</title>
<polygon fill="none" stroke="black" points="924,-324 778,-324 778,-288 924,-288 924,-324"/>
<text text-anchor="middle" x="851" y="-302.3" font-family="Times,serif" font-size="14.00">Policies.TakeFixedArm</text>
</g>
<!-- 16&#45;&gt;36 -->
<g id="edge42" class="edge"><title>16&#45;&gt;36</title>
<path fill="none" stroke="black" d="M2257.35,-162.864C2048.03,-162.044 799.559,-159.534 745,-216 733.882,-227.506 736.588,-238.39 745,-252 753.341,-265.496 766.274,-275.67 780.276,-283.299"/>
<polygon fill="black" stroke="black" points="789.595,-287.954 778.638,-287.511 785.122,-285.72 780.649,-283.485 780.649,-283.485 780.649,-283.485 785.122,-285.72 782.66,-279.46 789.595,-287.954 789.595,-287.954"/>
</g>
<!-- 37 -->
<g id="node38" class="node"><title>37</title>
<polygon fill="none" stroke="black" points="947.5,-252 754.5,-252 754.5,-216 947.5,-216 947.5,-252"/>
<text text-anchor="middle" x="851" y="-230.3" font-family="Times,serif" font-size="14.00">Policies.TakeRandomFixedArm</text>
</g>
<!-- 16&#45;&gt;37 -->
<g id="edge43" class="edge"><title>16&#45;&gt;37</title>
<path fill="none" stroke="black" d="M2257.06,-162.959C2113.22,-163.022 1478.75,-166.251 962,-216 960.69,-216.126 959.372,-216.257 958.047,-216.393"/>
<polygon fill="black" stroke="black" points="947.781,-217.525 957.228,-211.956 952.751,-216.977 957.721,-216.429 957.721,-216.429 957.721,-216.429 952.751,-216.977 958.214,-220.902 947.781,-217.525 947.781,-217.525"/>
</g>
<!-- 38 -->
<g id="node39" class="node"><title>38</title>
<polygon fill="none" stroke="black" points="1520,-252 1398,-252 1398,-216 1520,-216 1520,-252"/>
<text text-anchor="middle" x="1459" y="-230.3" font-family="Times,serif" font-size="14.00">Policies.Thompson</text>
</g>
<!-- 16&#45;&gt;38 -->
<g id="edge44" class="edge"><title>16&#45;&gt;38</title>
<path fill="none" stroke="black" d="M2257.18,-163.285C2156.22,-164.627 1817.97,-172.205 1530.55,-215.914"/>
<polygon fill="black" stroke="black" points="1520.34,-217.484 1529.54,-211.515 1525.28,-216.723 1530.23,-215.963 1530.23,-215.963 1530.23,-215.963 1525.28,-216.723 1530.91,-220.41 1520.34,-217.484 1520.34,-217.484"/>
</g>
<!-- 39 -->
<g id="node40" class="node"><title>39</title>
<polygon fill="none" stroke="black" points="2603.5,-396 2512.5,-396 2512.5,-360 2603.5,-360 2603.5,-396"/>
<text text-anchor="middle" x="2558" y="-374.3" font-family="Times,serif" font-size="14.00">Policies.UCB</text>
</g>
<!-- 16&#45;&gt;39 -->
<g id="edge45" class="edge"><title>16&#45;&gt;39</title>
<path fill="none" stroke="black" d="M2316.91,-167.718C2372,-178.186 2488.49,-208.998 2539,-288 2550.81,-306.472 2555.4,-331.069 2557.13,-349.723"/>
<polygon fill="black" stroke="black" points="2557.84,-359.928 2552.65,-350.269 2557.49,-354.94 2557.14,-349.952 2557.14,-349.952 2557.14,-349.952 2557.49,-354.94 2561.63,-349.636 2557.84,-359.928 2557.84,-359.928"/>
</g>
<!-- 40 -->
<g id="node41" class="node"><title>40</title>
<polygon fill="none" stroke="black" points="2687.5,-324 2586.5,-324 2586.5,-288 2687.5,-288 2687.5,-324"/>
<text text-anchor="middle" x="2637" y="-302.3" font-family="Times,serif" font-size="14.00">Policies.UCBV</text>
</g>
<!-- 16&#45;&gt;40 -->
<g id="edge46" class="edge"><title>16&#45;&gt;40</title>
<path fill="none" stroke="black" d="M2316.66,-165.542C2361.32,-170.318 2447.58,-183.286 2513,-216 2535.29,-227.147 2535.98,-237.151 2556,-252 2570.2,-262.53 2586.4,-273.353 2600.56,-282.451"/>
<polygon fill="black" stroke="black" points="2609.08,-287.875 2598.23,-286.301 2604.87,-285.19 2600.65,-282.505 2600.65,-282.505 2600.65,-282.505 2604.87,-285.19 2603.06,-278.709 2609.08,-287.875 2609.08,-287.875"/>
</g>
<!-- 41 -->
<g id="node42" class="node"><title>41</title>
<polygon fill="none" stroke="black" points="2696.5,-252 2565.5,-252 2565.5,-216 2696.5,-216 2696.5,-252"/>
<text text-anchor="middle" x="2631" y="-230.3" font-family="Times,serif" font-size="14.00">Policies.UCBVtuned</text>
</g>
<!-- 16&#45;&gt;41 -->
<g id="edge47" class="edge"><title>16&#45;&gt;41</title>
<path fill="none" stroke="black" d="M2316.72,-168.852C2365.61,-178.507 2466.08,-198.453 2551,-216 2552.29,-216.267 2553.59,-216.536 2554.9,-216.808"/>
<polygon fill="black" stroke="black" points="2565.09,-218.933 2554.38,-221.297 2560.2,-217.912 2555.3,-216.891 2555.3,-216.891 2555.3,-216.891 2560.2,-217.912 2556.22,-212.486 2565.09,-218.933 2565.09,-218.933"/>
</g>
<!-- 42 -->
<g id="node43" class="node"><title>42</title>
<polygon fill="none" stroke="black" points="2826,-324 2706,-324 2706,-288 2826,-288 2826,-324"/>
<text text-anchor="middle" x="2766" y="-302.3" font-family="Times,serif" font-size="14.00">Policies.UCBalpha</text>
</g>
<!-- 16&#45;&gt;42 -->
<g id="edge48" class="edge"><title>16&#45;&gt;42</title>
<path fill="none" stroke="black" d="M2316.59,-163.651C2400.73,-165.978 2639.52,-176.03 2705,-216 2728.74,-230.492 2745.46,-258.114 2755.32,-278.759"/>
<polygon fill="black" stroke="black" points="2759.49,-287.964 2751.27,-280.71 2757.43,-283.409 2755.36,-278.854 2755.36,-278.854 2755.36,-278.854 2757.43,-283.409 2759.46,-276.998 2759.49,-287.964 2759.49,-287.964"/>
</g>
<!-- 43 -->
<g id="node44" class="node"><title>43</title>
<polygon fill="none" stroke="black" points="3733,-324 3611,-324 3611,-288 3733,-288 3733,-324"/>
<text text-anchor="middle" x="3672" y="-302.3" font-family="Times,serif" font-size="14.00">Policies.UCBlog10</text>
</g>
<!-- 16&#45;&gt;43 -->
<g id="edge49" class="edge"><title>16&#45;&gt;43</title>
<path fill="none" stroke="black" d="M2316.8,-163.506C2523.05,-167.074 3731.06,-189.105 3757,-216 3768.11,-227.516 3764.76,-238.01 3757,-252 3749.87,-264.849 3738.19,-274.99 3725.73,-282.811"/>
<polygon fill="black" stroke="black" points="3717.03,-287.86 3723.42,-278.948 3721.36,-285.35 3725.68,-282.84 3725.68,-282.84 3725.68,-282.84 3721.36,-285.35 3727.94,-286.732 3717.03,-287.86 3717.03,-287.86"/>
</g>
<!-- 44 -->
<g id="node45" class="node"><title>44</title>
<polygon fill="none" stroke="black" points="3747.5,-252 3596.5,-252 3596.5,-216 3747.5,-216 3747.5,-252"/>
<text text-anchor="middle" x="3672" y="-230.3" font-family="Times,serif" font-size="14.00">Policies.UCBlog10alpha</text>
</g>
<!-- 16&#45;&gt;44 -->
<g id="edge50" class="edge"><title>16&#45;&gt;44</title>
<path fill="none" stroke="black" d="M2316.68,-163.626C2485.38,-167.272 3325.05,-186.633 3582,-216 3583.48,-216.169 3584.97,-216.349 3586.48,-216.538"/>
<polygon fill="black" stroke="black" points="3596.5,-217.912 3585.98,-221.012 3591.55,-217.233 3586.59,-216.554 3586.59,-216.554 3586.59,-216.554 3591.55,-217.233 3587.2,-212.095 3596.5,-217.912 3596.5,-217.912"/>
</g>
<!-- 45 -->
<g id="node46" class="node"><title>45</title>
<polygon fill="none" stroke="black" points="2228,-324 2120,-324 2120,-288 2228,-288 2228,-324"/>
<text text-anchor="middle" x="2174" y="-302.3" font-family="Times,serif" font-size="14.00">Policies.UCBopt</text>
</g>
<!-- 16&#45;&gt;45 -->
<g id="edge51" class="edge"><title>16&#45;&gt;45</title>
<path fill="none" stroke="black" d="M2316.69,-175.802C2332.97,-184.552 2351.68,-197.868 2361,-216 2368.31,-230.231 2370.65,-239.237 2361,-252 2360.02,-253.303 2291.79,-272.424 2238.04,-287.329"/>
<polygon fill="black" stroke="black" points="2228.19,-290.058 2236.63,-283.051 2233.01,-288.723 2237.83,-287.388 2237.83,-287.388 2237.83,-287.388 2233.01,-288.723 2239.03,-291.725 2228.19,-290.058 2228.19,-290.058"/>
</g>
<!-- 46 -->
<g id="node47" class="node"><title>46</title>
<polygon fill="none" stroke="black" points="2359.5,-324 2246.5,-324 2246.5,-288 2359.5,-288 2359.5,-324"/>
<text text-anchor="middle" x="2303" y="-302.3" font-family="Times,serif" font-size="14.00">Policies.UCBplus</text>
</g>
<!-- 16&#45;&gt;46 -->
<g id="edge52" class="edge"><title>16&#45;&gt;46</title>
<path fill="none" stroke="black" d="M2316.7,-167.964C2343.39,-174.168 2381.05,-187.646 2399,-216 2407.56,-229.519 2407.13,-238.221 2399,-252 2391.14,-265.315 2378.61,-275.516 2365.16,-283.238"/>
<polygon fill="black" stroke="black" points="2356.22,-287.963 2362.96,-279.309 2360.64,-285.625 2365.06,-283.287 2365.06,-283.287 2365.06,-283.287 2360.64,-285.625 2367.17,-287.265 2356.22,-287.963 2356.22,-287.963"/>
</g>
<!-- 47 -->
<g id="node48" class="node"><title>47</title>
<polygon fill="none" stroke="black" points="2530,-324 2378,-324 2378,-288 2530,-288 2530,-324"/>
<text text-anchor="middle" x="2454" y="-302.3" font-family="Times,serif" font-size="14.00">Policies.UCBrandomInit</text>
</g>
<!-- 16&#45;&gt;47 -->
<g id="edge53" class="edge"><title>16&#45;&gt;47</title>
<path fill="none" stroke="black" d="M2316.73,-168.238C2345.74,-174.773 2389.42,-188.606 2417,-216 2433.91,-232.792 2443.45,-258.442 2448.6,-277.9"/>
<polygon fill="black" stroke="black" points="2450.96,-287.703 2444.24,-279.036 2449.79,-282.842 2448.62,-277.981 2448.62,-277.981 2448.62,-277.981 2449.79,-282.842 2452.99,-276.927 2450.96,-287.703 2450.96,-287.703"/>
</g>
<!-- 48 -->
<g id="node49" class="node"><title>48</title>
<polygon fill="none" stroke="black" points="3723.5,-396 3598.5,-396 3598.5,-360 3723.5,-360 3723.5,-396"/>
<text text-anchor="middle" x="3661" y="-374.3" font-family="Times,serif" font-size="14.00">Policies.UCBwrong</text>
</g>
<!-- 16&#45;&gt;48 -->
<g id="edge54" class="edge"><title>16&#45;&gt;48</title>
<path fill="none" stroke="black" d="M2316.81,-163.493C2524.48,-166.999 3747.74,-188.785 3774,-216 3800.62,-243.587 3751.1,-313.302 3742,-324 3731.83,-335.961 3718.29,-346.251 3705.2,-354.497"/>
<polygon fill="black" stroke="black" points="3696.25,-359.874 3702.51,-350.865 3700.54,-357.298 3704.82,-354.722 3704.82,-354.722 3704.82,-354.722 3700.54,-357.298 3707.14,-358.579 3696.25,-359.874 3696.25,-359.874"/>
</g>
<!-- 49 -->
<g id="node50" class="node"><title>49</title>
<polygon fill="none" stroke="black" points="1196,-324 1086,-324 1086,-288 1196,-288 1196,-324"/>
<text text-anchor="middle" x="1141" y="-302.3" font-family="Times,serif" font-size="14.00">Policies.Uniform</text>
</g>
<!-- 16&#45;&gt;49 -->
<g id="edge55" class="edge"><title>16&#45;&gt;49</title>
<path fill="none" stroke="black" d="M2257.43,-163.04C2094.43,-163.448 1309.47,-167.913 1214,-216 1187.1,-229.548 1166.58,-257.986 1154.24,-279.09"/>
<polygon fill="black" stroke="black" points="1149.31,-287.905 1150.26,-276.98 1151.75,-283.541 1154.19,-279.178 1154.19,-279.178 1154.19,-279.178 1151.75,-283.541 1158.12,-281.375 1149.31,-287.905 1149.31,-287.905"/>
</g>
<!-- 50 -->
<g id="node51" class="node"><title>50</title>
<polygon fill="none" stroke="black" points="1162,-252 1004,-252 1004,-216 1162,-216 1162,-252"/>
<text text-anchor="middle" x="1083" y="-230.3" font-family="Times,serif" font-size="14.00">Policies.UniformOnSome</text>
</g>
<!-- 16&#45;&gt;50 -->
<g id="edge56" class="edge"><title>16&#45;&gt;50</title>
<path fill="none" stroke="black" d="M2257.27,-162.969C2128.15,-163.137 1603.33,-166.971 1176,-216 1174.72,-216.147 1173.42,-216.302 1172.12,-216.462"/>
<polygon fill="black" stroke="black" points="1162.04,-217.812 1171.36,-212.025 1167,-217.149 1171.95,-216.485 1171.95,-216.485 1171.95,-216.485 1167,-217.149 1172.55,-220.945 1162.04,-217.812 1162.04,-217.812"/>
</g>
<!-- 51 -->
<g id="node52" class="node"><title>51</title>
<polygon fill="none" stroke="black" points="3280.5,-324 3179.5,-324 3179.5,-288 3280.5,-288 3280.5,-324"/>
<text text-anchor="middle" x="3230" y="-302.3" font-family="Times,serif" font-size="14.00">Policies.klUCB</text>
</g>
<!-- 16&#45;&gt;51 -->
<g id="edge57" class="edge"><title>16&#45;&gt;51</title>
<path fill="none" stroke="black" d="M2316.73,-163.837C2450.77,-167.772 2995.49,-185.524 3065,-216 3086.31,-225.342 3083.5,-239.312 3103,-252 3123.5,-265.337 3147.9,-276.482 3169.82,-285.055"/>
<polygon fill="black" stroke="black" points="3179.37,-288.691 3168.42,-289.336 3174.69,-286.911 3170.02,-285.131 3170.02,-285.131 3170.02,-285.131 3174.69,-286.911 3171.62,-280.926 3179.37,-288.691 3179.37,-288.691"/>
</g>
<!-- 52 -->
<g id="node53" class="node"><title>52</title>
<polygon fill="none" stroke="black" points="3540,-252 3406,-252 3406,-216 3540,-216 3540,-252"/>
<text text-anchor="middle" x="3473" y="-230.3" font-family="Times,serif" font-size="14.00">Policies.klUCBHPlus</text>
</g>
<!-- 16&#45;&gt;52 -->
<g id="edge58" class="edge"><title>16&#45;&gt;52</title>
<path fill="none" stroke="black" d="M2316.61,-163.722C2468.23,-167.525 3159.31,-186.136 3396.06,-216.054"/>
<polygon fill="black" stroke="black" points="3405.98,-217.35 3395.48,-220.516 3401.02,-216.702 3396.06,-216.054 3396.06,-216.054 3396.06,-216.054 3401.02,-216.702 3396.64,-211.592 3405.98,-217.35 3405.98,-217.35"/>
</g>
<!-- 53 -->
<g id="node54" class="node"><title>53</title>
<polygon fill="none" stroke="black" points="3237.5,-252 3112.5,-252 3112.5,-216 3237.5,-216 3237.5,-252"/>
<text text-anchor="middle" x="3175" y="-230.3" font-family="Times,serif" font-size="14.00">Policies.klUCBPlus</text>
</g>
<!-- 16&#45;&gt;53 -->
<g id="edge59" class="edge"><title>16&#45;&gt;53</title>
<path fill="none" stroke="black" d="M2316.63,-163.314C2422.92,-164.782 2794.87,-172.887 3098,-216 3099.3,-216.184 3100.6,-216.379 3101.92,-216.582"/>
<polygon fill="black" stroke="black" points="3112.11,-218.299 3101.5,-221.075 3107.18,-217.468 3102.25,-216.638 3102.25,-216.638 3102.25,-216.638 3107.18,-217.468 3103,-212.2 3112.11,-218.299 3112.11,-218.299"/>
</g>
<!-- 54 -->
<g id="node55" class="node"><title>54</title>
<polygon fill="none" stroke="black" points="3388,-252 3256,-252 3256,-216 3388,-216 3388,-252"/>
<text text-anchor="middle" x="3322" y="-230.3" font-family="Times,serif" font-size="14.00">Policies.klUCBlog10</text>
</g>
<!-- 16&#45;&gt;54 -->
<g id="edge60" class="edge"><title>16&#45;&gt;54</title>
<path fill="none" stroke="black" d="M2316.6,-162.864C2433.47,-162.697 2874.15,-165.559 3245.66,-216.122"/>
<polygon fill="black" stroke="black" points="3255.8,-217.517 3245.28,-220.613 3250.84,-216.836 3245.89,-216.155 3245.89,-216.155 3245.89,-216.155 3250.84,-216.836 3246.5,-211.697 3255.8,-217.517 3255.8,-217.517"/>
</g>
<!-- 55 -->
<g id="node56" class="node"><title>55</title>
<polygon fill="none" stroke="black" points="2889,-252 2753,-252 2753,-216 2889,-216 2889,-252"/>
<text text-anchor="middle" x="2821" y="-230.3" font-family="Times,serif" font-size="14.00">Policies.klUCBloglog</text>
</g>
<!-- 16&#45;&gt;55 -->
<g id="edge61" class="edge"><title>16&#45;&gt;55</title>
<path fill="none" stroke="black" d="M2316.74,-165.577C2389.23,-172.056 2580.67,-190.356 2739,-216 2740.11,-216.18 2741.23,-216.365 2742.36,-216.554"/>
<polygon fill="black" stroke="black" points="2752.63,-218.357 2742,-221.06 2747.7,-217.492 2742.78,-216.627 2742.78,-216.627 2742.78,-216.627 2747.7,-217.492 2743.56,-212.195 2752.63,-218.357 2752.63,-218.357"/>
</g>
<!-- 56 -->
<g id="node57" class="node"><title>56</title>
<polygon fill="none" stroke="black" points="3056.5,-252 2907.5,-252 2907.5,-216 3056.5,-216 3056.5,-252"/>
<text text-anchor="middle" x="2982" y="-230.3" font-family="Times,serif" font-size="14.00">Policies.klUCBloglog10</text>
</g>
<!-- 16&#45;&gt;56 -->
<g id="edge62" class="edge"><title>16&#45;&gt;56</title>
<path fill="none" stroke="black" d="M2316.7,-164.383C2404.09,-168.703 2668.01,-183.553 2897.22,-215.993"/>
<polygon fill="black" stroke="black" points="2907.42,-217.451 2896.88,-220.49 2902.47,-216.743 2897.52,-216.035 2897.52,-216.035 2897.52,-216.035 2902.47,-216.743 2898.16,-211.581 2907.42,-217.451 2907.42,-217.451"/>
</g>
<!-- 57 -->
<g id="node58" class="node"><title>57</title>
<polygon fill="none" stroke="black" points="3305,-396 3195,-396 3195,-360 3305,-360 3305,-396"/>
<text text-anchor="middle" x="3250" y="-374.3" font-family="Times,serif" font-size="14.00">Policies.kullback</text>
</g>
<!-- 16&#45;&gt;57 -->
<g id="edge63" class="edge"><title>16&#45;&gt;57</title>
<path fill="none" stroke="black" d="M2316.73,-163.099C2503.2,-163.858 3504.96,-170.074 3549,-216 3560.07,-227.549 3557.87,-238.682 3549,-252 3521.98,-292.589 3394.47,-335.52 3314.94,-359.013"/>
<polygon fill="black" stroke="black" points="3305.01,-361.919 3313.34,-354.791 3309.81,-360.515 3314.61,-359.11 3314.61,-359.11 3314.61,-359.11 3309.81,-360.515 3315.87,-363.429 3305.01,-361.919 3305.01,-361.919"/>
</g>
<!-- 19 -->
<g id="node20" class="node"><title>19</title>
<polygon fill="none" stroke="black" points="1091,-540 967,-540 967,-504 1091,-504 1091,-540"/>
<text text-anchor="middle" x="1029" y="-518.3" font-family="Times,serif" font-size="14.00">Policies.BasePolicy</text>
</g>
<!-- 17&#45;&gt;19 -->
<g id="edge64" class="edge"><title>17&#45;&gt;19</title>
<path fill="none" stroke="black" d="M1008.76,-324.151C1012.57,-361.168 1021.58,-448.819 1026.18,-493.614"/>
<polygon fill="black" stroke="black" points="1027.23,-503.768 1021.73,-494.28 1026.72,-498.794 1026.21,-493.82 1026.21,-493.82 1026.21,-493.82 1026.72,-498.794 1030.68,-493.36 1027.23,-503.768 1027.23,-503.768"/>
</g>
<!-- 22 -->
<g id="node23" class="node"><title>22</title>
<polygon fill="none" stroke="black" points="1176,-396 1088,-396 1088,-360 1176,-360 1176,-396"/>
<text text-anchor="middle" x="1132" y="-374.3" font-family="Times,serif" font-size="14.00">Policies.Beta</text>
</g>
<!-- 17&#45;&gt;22 -->
<g id="edge65" class="edge"><title>17&#45;&gt;22</title>
<path fill="none" stroke="black" d="M1037.58,-324.124C1054.07,-333.361 1074.62,-344.869 1092.34,-354.788"/>
<polygon fill="black" stroke="black" points="1101.3,-359.81 1090.38,-358.85 1096.94,-357.367 1092.58,-354.924 1092.58,-354.924 1092.58,-354.924 1096.94,-357.367 1094.78,-350.998 1101.3,-359.81 1101.3,-359.81"/>
</g>
<!-- 18&#45;&gt;19 -->
<g id="edge66" class="edge"><title>18&#45;&gt;19</title>
<path fill="none" stroke="black" d="M1206.33,-465.334C1173.72,-475.572 1129.4,-489.484 1093.23,-500.839"/>
<polygon fill="black" stroke="black" points="1083.26,-503.968 1091.45,-496.68 1088.03,-502.471 1092.8,-500.973 1092.8,-500.973 1092.8,-500.973 1088.03,-502.471 1094.15,-505.267 1083.26,-503.968 1083.26,-503.968"/>
</g>
<!-- 21 -->
<g id="node22" class="node"><title>21</title>
<polygon fill="none" stroke="black" points="1491,-324 1313,-324 1313,-288 1491,-288 1491,-324"/>
<text text-anchor="middle" x="1402" y="-302.3" font-family="Times,serif" font-size="14.00">Policies.BayesianIndexPolicy</text>
</g>
<!-- 20&#45;&gt;21 -->
<g id="edge67" class="edge"><title>20&#45;&gt;21</title>
<path fill="none" stroke="black" d="M1338.76,-252.303C1349.24,-261.035 1362.11,-271.76 1373.5,-281.25"/>
<polygon fill="black" stroke="black" points="1381.47,-287.896 1370.91,-284.951 1377.63,-284.695 1373.79,-281.494 1373.79,-281.494 1373.79,-281.494 1377.63,-284.695 1376.67,-278.037 1381.47,-287.896 1381.47,-287.896"/>
</g>
<!-- 21&#45;&gt;22 -->
<g id="edge68" class="edge"><title>21&#45;&gt;22</title>
<path fill="none" stroke="black" d="M1336.3,-324.034C1290.24,-335.974 1229.43,-351.739 1186.16,-362.958"/>
<polygon fill="black" stroke="black" points="1176.39,-365.493 1184.94,-358.627 1181.23,-364.238 1186.07,-362.983 1186.07,-362.983 1186.07,-362.983 1181.23,-364.238 1187.19,-367.339 1176.39,-365.493 1176.39,-365.493"/>
</g>
<!-- 29 -->
<g id="node30" class="node"><title>29</title>
<polygon fill="none" stroke="black" points="3192,-468 3064,-468 3064,-432 3192,-432 3192,-468"/>
<text text-anchor="middle" x="3128" y="-446.3" font-family="Times,serif" font-size="14.00">Policies.IndexPolicy</text>
</g>
<!-- 21&#45;&gt;29 -->
<g id="edge69" class="edge"><title>21&#45;&gt;29</title>
<path fill="none" stroke="black" d="M1466.45,-324.024C1549.07,-345.038 1697.06,-379.956 1826,-396 2066.15,-425.882 2814.26,-442.835 3053.57,-447.598"/>
<polygon fill="black" stroke="black" points="3063.91,-447.803 3053.82,-452.104 3058.91,-447.704 3053.91,-447.605 3053.91,-447.605 3053.91,-447.605 3058.91,-447.704 3054,-443.106 3063.91,-447.803 3063.91,-447.803"/>
</g>
<!-- 34 -->
<g id="node35" class="node"><title>34</title>
<polygon fill="none" stroke="black" points="1188,-468 1076,-468 1076,-432 1188,-432 1188,-468"/>
<text text-anchor="middle" x="1132" y="-446.3" font-family="Times,serif" font-size="14.00">Policies.Posterior</text>
</g>
<!-- 22&#45;&gt;34 -->
<g id="edge70" class="edge"><title>22&#45;&gt;34</title>
<path fill="none" stroke="black" d="M1132,-396.303C1132,-404.017 1132,-413.288 1132,-421.888"/>
<polygon fill="black" stroke="black" points="1132,-431.896 1127.5,-421.896 1132,-426.896 1132,-421.896 1132,-421.896 1132,-421.896 1132,-426.896 1136.5,-421.896 1132,-431.896 1132,-431.896"/>
</g>
<!-- 23&#45;&gt;27 -->
<g id="edge71" class="edge"><title>23&#45;&gt;27</title>
<path fill="none" stroke="black" d="M1793.4,-252.303C1786.88,-260.611 1778.93,-270.723 1771.75,-279.859"/>
<polygon fill="black" stroke="black" points="1765.44,-287.896 1768.08,-277.252 1768.53,-283.964 1771.62,-280.032 1771.62,-280.032 1771.62,-280.032 1768.53,-283.964 1775.16,-282.813 1765.44,-287.896 1765.44,-287.896"/>
</g>
<!-- 24&#45;&gt;27 -->
<g id="edge72" class="edge"><title>24&#45;&gt;27</title>
<path fill="none" stroke="black" d="M1947.97,-252.034C1910.84,-262.07 1863.7,-274.81 1824.97,-285.279"/>
<polygon fill="black" stroke="black" points="1815.31,-287.889 1823.79,-280.936 1820.14,-286.585 1824.96,-285.28 1824.96,-285.28 1824.96,-285.28 1820.14,-286.585 1826.14,-289.624 1815.31,-287.889 1815.31,-287.889"/>
</g>
<!-- 25&#45;&gt;27 -->
<g id="edge73" class="edge"><title>25&#45;&gt;27</title>
<path fill="none" stroke="black" d="M2132.26,-250.559C2129.14,-251.05 2126.05,-251.531 2123,-252 2023.96,-267.245 1909.82,-283.329 1834.58,-293.725"/>
<polygon fill="black" stroke="black" points="1824.23,-295.153 1833.52,-289.328 1829.19,-294.47 1834.14,-293.786 1834.14,-293.786 1834.14,-293.786 1829.19,-294.47 1834.75,-298.244 1824.23,-295.153 1824.23,-295.153"/>
</g>
<!-- 26&#45;&gt;27 -->
<g id="edge74" class="edge"><title>26&#45;&gt;27</title>
<path fill="none" stroke="black" d="M1639.45,-252.124C1659.64,-261.608 1684.92,-273.487 1706.41,-283.581"/>
<polygon fill="black" stroke="black" points="1715.67,-287.932 1704.7,-287.752 1711.14,-285.806 1706.62,-283.68 1706.62,-283.68 1706.62,-283.68 1711.14,-285.806 1708.53,-279.607 1715.67,-287.932 1715.67,-287.932"/>
</g>
<!-- 27&#45;&gt;19 -->
<g id="edge75" class="edge"><title>27&#45;&gt;19</title>
<path fill="none" stroke="black" d="M1711.5,-324.065C1634,-356.167 1458.82,-426.077 1306,-468 1237.4,-486.818 1157.46,-501.346 1101.13,-510.393"/>
<polygon fill="black" stroke="black" points="1091.25,-511.964 1100.42,-505.95 1096.19,-511.179 1101.13,-510.394 1101.13,-510.394 1101.13,-510.394 1096.19,-511.179 1101.83,-514.839 1091.25,-511.964 1091.25,-511.964"/>
</g>
<!-- 28&#45;&gt;19 -->
<g id="edge76" class="edge"><title>28&#45;&gt;19</title>
<path fill="none" stroke="black" d="M1839.1,-396.061C1786.53,-416.691 1693.16,-450.783 1610,-468 1429.42,-505.385 1211.83,-516.401 1101.2,-519.646"/>
<polygon fill="black" stroke="black" points="1091.16,-519.928 1101.03,-515.149 1096.16,-519.788 1101.16,-519.647 1101.16,-519.647 1101.16,-519.647 1096.16,-519.788 1101.28,-524.146 1091.16,-519.928 1091.16,-519.928"/>
</g>
<!-- 29&#45;&gt;19 -->
<g id="edge77" class="edge"><title>29&#45;&gt;19</title>
<path fill="none" stroke="black" d="M3063.75,-453.143C2755.22,-463.432 1427.28,-507.718 1101.41,-518.585"/>
<polygon fill="black" stroke="black" points="1091.16,-518.927 1101,-514.096 1096.15,-518.76 1101.15,-518.594 1101.15,-518.594 1101.15,-518.594 1096.15,-518.76 1101.3,-523.091 1091.16,-518.927 1091.16,-518.927"/>
</g>
<!-- 30 -->
<g id="node31" class="node"><title>30</title>
<polygon fill="none" stroke="black" points="3161.5,-324 3028.5,-324 3028.5,-288 3161.5,-288 3161.5,-324"/>
<text text-anchor="middle" x="3095" y="-302.3" font-family="Times,serif" font-size="14.00">Policies.KLempUCB</text>
</g>
<!-- 30&#45;&gt;29 -->
<g id="edge78" class="edge"><title>30&#45;&gt;29</title>
<path fill="none" stroke="black" d="M3098.98,-324.129C3104.63,-348.436 3115.03,-393.181 3121.72,-421.987"/>
<polygon fill="black" stroke="black" points="3124.01,-431.811 3117.36,-423.089 3122.87,-426.941 3121.74,-422.07 3121.74,-422.07 3121.74,-422.07 3122.87,-426.941 3126.12,-421.052 3124.01,-431.811 3124.01,-431.811"/>
</g>
<!-- 30&#45;&gt;57 -->
<g id="edge79" class="edge"><title>30&#45;&gt;57</title>
<path fill="none" stroke="black" d="M3132.92,-324.124C3154.01,-333.651 3180.46,-345.593 3202.87,-355.717"/>
<polygon fill="black" stroke="black" points="3212.21,-359.932 3201.24,-359.917 3207.65,-357.874 3203.09,-355.816 3203.09,-355.816 3203.09,-355.816 3207.65,-357.874 3204.94,-351.715 3212.21,-359.932 3212.21,-359.932"/>
</g>
<!-- 31&#45;&gt;19 -->
<g id="edge80" class="edge"><title>31&#45;&gt;19</title>
<path fill="none" stroke="black" d="M660.137,-465.994C663.126,-466.709 666.096,-467.384 669,-468 767.864,-488.967 883.749,-504.426 956.775,-513.073"/>
<polygon fill="black" stroke="black" points="966.788,-514.248 956.332,-517.552 961.822,-513.665 956.857,-513.083 956.857,-513.083 956.857,-513.083 961.822,-513.665 957.381,-508.613 966.788,-514.248 966.788,-514.248"/>
</g>
<!-- 32&#45;&gt;29 -->
<g id="edge81" class="edge"><title>32&#45;&gt;29</title>
<path fill="none" stroke="black" d="M3781.25,-388.544C3765.8,-391.226 3748.74,-393.963 3733,-396 3542.43,-420.666 3316.57,-437.074 3202.26,-444.48"/>
<polygon fill="black" stroke="black" points="3192.21,-445.126 3201.9,-439.993 3197.2,-444.805 3202.19,-444.484 3202.19,-444.484 3202.19,-444.484 3197.2,-444.805 3202.48,-448.974 3192.21,-445.126 3192.21,-445.126"/>
</g>
<!-- 33&#45;&gt;19 -->
<g id="edge82" class="edge"><title>33&#45;&gt;19</title>
<path fill="none" stroke="black" d="M815.624,-468.034C858.428,-478.66 913.441,-492.315 956.887,-503.1"/>
<polygon fill="black" stroke="black" points="966.817,-505.565 956.028,-507.523 961.965,-504.36 957.112,-503.155 957.112,-503.155 957.112,-503.155 961.965,-504.36 958.196,-498.788 966.817,-505.565 966.817,-505.565"/>
</g>
<!-- 35&#45;&gt;19 -->
<g id="edge83" class="edge"><title>35&#45;&gt;19</title>
<path fill="none" stroke="black" d="M923.248,-468.124C942.061,-477.531 965.585,-489.292 985.666,-499.333"/>
<polygon fill="black" stroke="black" points="994.62,-503.81 983.664,-503.363 990.148,-501.574 985.676,-499.338 985.676,-499.338 985.676,-499.338 990.148,-501.574 987.689,-495.313 994.62,-503.81 994.62,-503.81"/>
</g>
<!-- 36&#45;&gt;19 -->
<g id="edge84" class="edge"><title>36&#45;&gt;19</title>
<path fill="none" stroke="black" d="M865.266,-324.151C896.577,-361.794 971.44,-451.799 1008.08,-495.849"/>
<polygon fill="black" stroke="black" points="1014.67,-503.768 1004.81,-498.957 1011.47,-499.923 1008.27,-496.079 1008.27,-496.079 1008.27,-496.079 1011.47,-499.923 1011.73,-493.202 1014.67,-503.768 1014.67,-503.768"/>
</g>
<!-- 37&#45;&gt;36 -->
<g id="edge85" class="edge"><title>37&#45;&gt;36</title>
<path fill="none" stroke="black" d="M851,-252.303C851,-260.017 851,-269.288 851,-277.888"/>
<polygon fill="black" stroke="black" points="851,-287.896 846.5,-277.896 851,-282.896 851,-277.896 851,-277.896 851,-277.896 851,-282.896 855.5,-277.896 851,-287.896 851,-287.896"/>
</g>
<!-- 38&#45;&gt;21 -->
<g id="edge86" class="edge"><title>38&#45;&gt;21</title>
<path fill="none" stroke="black" d="M1444.91,-252.303C1438.08,-260.695 1429.74,-270.93 1422.24,-280.139"/>
<polygon fill="black" stroke="black" points="1415.93,-287.896 1418.75,-277.3 1419.08,-284.018 1422.24,-280.141 1422.24,-280.141 1422.24,-280.141 1419.08,-284.018 1425.73,-282.983 1415.93,-287.896 1415.93,-287.896"/>
</g>
<!-- 39&#45;&gt;29 -->
<g id="edge87" class="edge"><title>39&#45;&gt;29</title>
<path fill="none" stroke="black" d="M2603.68,-384.61C2701.87,-396.668 2933.79,-425.15 3053.55,-439.858"/>
<polygon fill="black" stroke="black" points="3063.73,-441.108 3053.26,-444.355 3058.77,-440.498 3053.81,-439.889 3053.81,-439.889 3053.81,-439.889 3058.77,-440.498 3054.36,-435.422 3063.73,-441.108 3063.73,-441.108"/>
</g>
<!-- 40&#45;&gt;39 -->
<g id="edge88" class="edge"><title>40&#45;&gt;39</title>
<path fill="none" stroke="black" d="M2617.47,-324.303C2607.62,-333.035 2595.51,-343.76 2584.8,-353.25"/>
<polygon fill="black" stroke="black" points="2577.3,-359.896 2581.8,-349.896 2581.05,-356.58 2584.79,-353.264 2584.79,-353.264 2584.79,-353.264 2581.05,-356.58 2587.77,-356.632 2577.3,-359.896 2577.3,-359.896"/>
</g>
<!-- 41&#45;&gt;40 -->
<g id="edge89" class="edge"><title>41&#45;&gt;40</title>
<path fill="none" stroke="black" d="M2632.48,-252.303C2633.14,-260.017 2633.94,-269.288 2634.68,-277.888"/>
<polygon fill="black" stroke="black" points="2635.53,-287.896 2630.2,-278.317 2635.11,-282.914 2634.68,-277.932 2634.68,-277.932 2634.68,-277.932 2635.11,-282.914 2639.16,-277.548 2635.53,-287.896 2635.53,-287.896"/>
</g>
<!-- 42&#45;&gt;39 -->
<g id="edge90" class="edge"><title>42&#45;&gt;39</title>
<path fill="none" stroke="black" d="M2715.38,-324.034C2684.43,-334.45 2644.83,-347.778 2613.09,-358.459"/>
<polygon fill="black" stroke="black" points="2603.52,-361.682 2611.56,-354.228 2608.25,-360.087 2612.99,-358.492 2612.99,-358.492 2612.99,-358.492 2608.25,-360.087 2614.43,-362.757 2603.52,-361.682 2603.52,-361.682"/>
</g>
<!-- 43&#45;&gt;29 -->
<g id="edge91" class="edge"><title>43&#45;&gt;29</title>
<path fill="none" stroke="black" d="M3610.92,-322.944C3510.39,-349.186 3310.42,-401.382 3202.02,-429.68"/>
<polygon fill="black" stroke="black" points="3192.14,-432.259 3200.67,-425.379 3196.97,-430.996 3201.81,-429.733 3201.81,-429.733 3201.81,-429.733 3196.97,-430.996 3202.95,-434.087 3192.14,-432.259 3192.14,-432.259"/>
</g>
<!-- 44&#45;&gt;43 -->
<g id="edge92" class="edge"><title>44&#45;&gt;43</title>
<path fill="none" stroke="black" d="M3672,-252.303C3672,-260.017 3672,-269.288 3672,-277.888"/>
<polygon fill="black" stroke="black" points="3672,-287.896 3667.5,-277.896 3672,-282.896 3672,-277.896 3672,-277.896 3672,-277.896 3672,-282.896 3676.5,-277.896 3672,-287.896 3672,-287.896"/>
</g>
<!-- 45&#45;&gt;39 -->
<g id="edge93" class="edge"><title>45&#45;&gt;39</title>
<path fill="none" stroke="black" d="M2228.21,-321.998C2231.18,-322.703 2234.12,-323.376 2237,-324 2329.35,-344.031 2438.09,-360.516 2502.35,-369.535"/>
<polygon fill="black" stroke="black" points="2512.28,-370.918 2501.75,-373.995 2507.33,-370.228 2502.37,-369.538 2502.37,-369.538 2502.37,-369.538 2507.33,-370.228 2502.99,-365.081 2512.28,-370.918 2512.28,-370.918"/>
</g>
<!-- 46&#45;&gt;39 -->
<g id="edge94" class="edge"><title>46&#45;&gt;39</title>
<path fill="none" stroke="black" d="M2359.59,-322.535C2402.11,-334.207 2460.05,-350.113 2502.34,-361.721"/>
<polygon fill="black" stroke="black" points="2512.19,-364.426 2501.36,-366.118 2507.37,-363.102 2502.55,-361.779 2502.55,-361.779 2502.55,-361.779 2507.37,-363.102 2503.74,-357.439 2512.19,-364.426 2512.19,-364.426"/>
</g>
<!-- 47&#45;&gt;39 -->
<g id="edge95" class="edge"><title>47&#45;&gt;39</title>
<path fill="none" stroke="black" d="M2479.44,-324.124C2492.79,-333.107 2509.32,-344.237 2523.78,-353.966"/>
<polygon fill="black" stroke="black" points="2532.46,-359.81 2521.65,-357.96 2528.31,-357.018 2524.17,-354.226 2524.17,-354.226 2524.17,-354.226 2528.31,-357.018 2526.68,-350.493 2532.46,-359.81 2532.46,-359.81"/>
</g>
<!-- 48&#45;&gt;29 -->
<g id="edge96" class="edge"><title>48&#45;&gt;29</title>
<path fill="none" stroke="black" d="M3598.29,-387.236C3499.39,-400.225 3307.6,-425.413 3202.07,-439.273"/>
<polygon fill="black" stroke="black" points="3192.13,-440.578 3201.46,-434.814 3197.09,-439.927 3202.04,-439.276 3202.04,-439.276 3202.04,-439.276 3197.09,-439.927 3202.63,-443.737 3192.13,-440.578 3192.13,-440.578"/>
</g>
<!-- 49&#45;&gt;19 -->
<g id="edge97" class="edge"><title>49&#45;&gt;19</title>
<path fill="none" stroke="black" d="M1114.7,-324.198C1102.32,-333.484 1088.27,-345.926 1079,-360 1051.4,-401.909 1038.34,-459.895 1032.73,-493.627"/>
<polygon fill="black" stroke="black" points="1031.16,-503.675 1028.26,-493.1 1031.93,-498.735 1032.7,-493.795 1032.7,-493.795 1032.7,-493.795 1031.93,-498.735 1037.15,-494.49 1031.16,-503.675 1031.16,-503.675"/>
</g>
<!-- 50&#45;&gt;49 -->
<g id="edge98" class="edge"><title>50&#45;&gt;49</title>
<path fill="none" stroke="black" d="M1097.34,-252.303C1104.29,-260.695 1112.77,-270.93 1120.4,-280.139"/>
<polygon fill="black" stroke="black" points="1126.83,-287.896 1116.98,-283.067 1123.64,-284.046 1120.45,-280.195 1120.45,-280.195 1120.45,-280.195 1123.64,-284.046 1123.91,-277.324 1126.83,-287.896 1126.83,-287.896"/>
</g>
<!-- 51&#45;&gt;29 -->
<g id="edge99" class="edge"><title>51&#45;&gt;29</title>
<path fill="none" stroke="black" d="M3214.81,-324.259C3206.08,-334.428 3195.08,-347.678 3186,-360 3170.81,-380.606 3155.04,-405.032 3143.79,-423.077"/>
<polygon fill="black" stroke="black" points="3138.34,-431.878 3139.78,-421.006 3140.97,-427.626 3143.6,-423.374 3143.6,-423.374 3143.6,-423.374 3140.97,-427.626 3147.43,-425.743 3138.34,-431.878 3138.34,-431.878"/>
</g>
<!-- 51&#45;&gt;57 -->
<g id="edge100" class="edge"><title>51&#45;&gt;57</title>
<path fill="none" stroke="black" d="M3234.94,-324.303C3237.17,-332.102 3239.85,-341.491 3242.33,-350.171"/>
<polygon fill="black" stroke="black" points="3245.11,-359.896 3238.04,-351.517 3243.74,-355.088 3242.37,-350.28 3242.37,-350.28 3242.37,-350.28 3243.74,-355.088 3246.69,-349.044 3245.11,-359.896 3245.11,-359.896"/>
</g>
<!-- 52&#45;&gt;51 -->
<g id="edge101" class="edge"><title>52&#45;&gt;51</title>
<path fill="none" stroke="black" d="M3413.87,-252.034C3376.47,-262.808 3328.25,-276.697 3290.58,-287.549"/>
<polygon fill="black" stroke="black" points="3280.75,-290.381 3289.11,-283.289 3285.55,-288.997 3290.36,-287.613 3290.36,-287.613 3290.36,-287.613 3285.55,-288.997 3291.6,-291.937 3280.75,-290.381 3280.75,-290.381"/>
</g>
<!-- 52&#45;&gt;57 -->
<g id="edge102" class="edge"><title>52&#45;&gt;57</title>
<path fill="none" stroke="black" d="M3446.1,-252.129C3405.92,-277.716 3330.17,-325.948 3285.5,-354.397"/>
<polygon fill="black" stroke="black" points="3276.99,-359.811 3283.01,-350.644 3281.21,-357.125 3285.43,-354.439 3285.43,-354.439 3285.43,-354.439 3281.21,-357.125 3287.85,-358.235 3276.99,-359.811 3276.99,-359.811"/>
</g>
<!-- 53&#45;&gt;51 -->
<g id="edge103" class="edge"><title>53&#45;&gt;51</title>
<path fill="none" stroke="black" d="M3188.6,-252.303C3195.12,-260.611 3203.07,-270.723 3210.25,-279.859"/>
<polygon fill="black" stroke="black" points="3216.56,-287.896 3206.84,-282.813 3213.47,-283.964 3210.38,-280.032 3210.38,-280.032 3210.38,-280.032 3213.47,-283.964 3213.92,-277.252 3216.56,-287.896 3216.56,-287.896"/>
</g>
<!-- 54&#45;&gt;51 -->
<g id="edge104" class="edge"><title>54&#45;&gt;51</title>
<path fill="none" stroke="black" d="M3299.26,-252.303C3287.56,-261.204 3273.14,-272.177 3260.49,-281.801"/>
<polygon fill="black" stroke="black" points="3252.48,-287.896 3257.71,-278.259 3256.46,-284.868 3260.44,-281.84 3260.44,-281.84 3260.44,-281.84 3256.46,-284.868 3263.16,-285.422 3252.48,-287.896 3252.48,-287.896"/>
</g>
<!-- 55&#45;&gt;51 -->
<g id="edge105" class="edge"><title>55&#45;&gt;51</title>
<path fill="none" stroke="black" d="M2889.37,-250.414C2892.28,-250.97 2895.17,-251.501 2898,-252 3014.93,-272.606 3048.81,-263.812 3169.4,-288.06"/>
<polygon fill="black" stroke="black" points="3179.39,-290.104 3168.69,-292.509 3174.49,-289.102 3169.59,-288.1 3169.59,-288.1 3169.59,-288.1 3174.49,-289.102 3170.49,-283.691 3179.39,-290.104 3179.39,-290.104"/>
</g>
<!-- 56&#45;&gt;51 -->
<g id="edge106" class="edge"><title>56&#45;&gt;51</title>
<path fill="none" stroke="black" d="M3042.54,-252.046C3077.09,-261.778 3121.46,-274.284 3169.59,-287.885"/>
<polygon fill="black" stroke="black" points="3179.26,-290.619 3168.42,-292.23 3174.45,-289.259 3169.64,-287.9 3169.64,-287.9 3169.64,-287.9 3174.45,-289.259 3170.86,-283.569 3179.26,-290.619 3179.26,-290.619"/>
</g>
<!-- 58 -->
<g id="node59" class="node"><title>58</title>
<polygon fill="none" stroke="black" points="5709,-180 5579,-180 5579,-144 5709,-144 5709,-180"/>
<text text-anchor="middle" x="5644" y="-158.3" font-family="Times,serif" font-size="14.00">PoliciesMultiPlayers</text>
</g>
<!-- 59 -->
<g id="node60" class="node"><title>59</title>
<polygon fill="none" stroke="black" points="5492.5,-252 5311.5,-252 5311.5,-216 5492.5,-216 5492.5,-252"/>
<text text-anchor="middle" x="5402" y="-230.3" font-family="Times,serif" font-size="14.00">PoliciesMultiPlayers.ALOHA</text>
</g>
<!-- 58&#45;&gt;59 -->
<g id="edge107" class="edge"><title>58&#45;&gt;59</title>
<path fill="none" stroke="black" d="M5585.11,-180.034C5550.71,-189.985 5507.12,-202.594 5471.1,-213.013"/>
<polygon fill="black" stroke="black" points="5461.15,-215.889 5469.51,-208.788 5465.96,-214.5 5470.76,-213.11 5470.76,-213.11 5470.76,-213.11 5465.96,-214.5 5472.01,-217.433 5461.15,-215.889 5461.15,-215.889"/>
</g>
<!-- 62 -->
<g id="node63" class="node"><title>62</title>
<polygon fill="none" stroke="black" points="6241.5,-252 6002.5,-252 6002.5,-216 6241.5,-216 6241.5,-252"/>
<text text-anchor="middle" x="6122" y="-230.3" font-family="Times,serif" font-size="14.00">PoliciesMultiPlayers.CentralizedCycling</text>
</g>
<!-- 58&#45;&gt;62 -->
<g id="edge108" class="edge"><title>58&#45;&gt;62</title>
<path fill="none" stroke="black" d="M5709.46,-172.586C5782.85,-183.334 5903.62,-201.019 5995.57,-214.485"/>
<polygon fill="black" stroke="black" points="6005.5,-215.94 5994.95,-218.943 6000.55,-215.215 5995.61,-214.49 5995.61,-214.49 5995.61,-214.49 6000.55,-215.215 5996.26,-210.038 6005.5,-215.94 6005.5,-215.94"/>
</g>
<!-- 63 -->
<g id="node64" class="node"><title>63</title>
<polygon fill="none" stroke="black" points="6486.5,-252 6259.5,-252 6259.5,-216 6486.5,-216 6486.5,-252"/>
<text text-anchor="middle" x="6373" y="-230.3" font-family="Times,serif" font-size="14.00">PoliciesMultiPlayers.CentralizedFixed</text>
</g>
<!-- 58&#45;&gt;63 -->
<g id="edge109" class="edge"><title>58&#45;&gt;63</title>
<path fill="none" stroke="black" d="M5709.24,-167.591C5818.74,-175.542 6046.68,-193.131 6249.44,-215.852"/>
<polygon fill="black" stroke="black" points="6259.38,-216.973 6248.94,-220.324 6254.41,-216.413 6249.44,-215.853 6249.44,-215.853 6249.44,-215.853 6254.41,-216.413 6249.95,-211.381 6259.38,-216.973 6259.38,-216.973"/>
</g>
<!-- 64 -->
<g id="node65" class="node"><title>64</title>
<polygon fill="none" stroke="black" points="5777.5,-252 5510.5,-252 5510.5,-216 5777.5,-216 5777.5,-252"/>
<text text-anchor="middle" x="5644" y="-230.3" font-family="Times,serif" font-size="14.00">PoliciesMultiPlayers.CentralizedMultiplePlay</text>
</g>
<!-- 58&#45;&gt;64 -->
<g id="edge110" class="edge"><title>58&#45;&gt;64</title>
<path fill="none" stroke="black" d="M5644,-180.303C5644,-188.017 5644,-197.288 5644,-205.888"/>
<polygon fill="black" stroke="black" points="5644,-215.896 5639.5,-205.896 5644,-210.896 5644,-205.896 5644,-205.896 5644,-205.896 5644,-210.896 5648.5,-205.896 5644,-215.896 5644,-215.896"/>
</g>
<!-- 67 -->
<g id="node68" class="node"><title>67</title>
<polygon fill="none" stroke="black" points="6695.5,-252 6504.5,-252 6504.5,-216 6695.5,-216 6695.5,-252"/>
<text text-anchor="middle" x="6600" y="-230.3" font-family="Times,serif" font-size="14.00">PoliciesMultiPlayers.OracleFair</text>
</g>
<!-- 58&#45;&gt;67 -->
<g id="edge111" class="edge"><title>58&#45;&gt;67</title>
<path fill="none" stroke="black" d="M5709.13,-164.832C5850.38,-169.287 6195.61,-182.77 6494.13,-215.85"/>
<polygon fill="black" stroke="black" points="6504.28,-216.984 6493.84,-220.346 6499.31,-216.429 6494.34,-215.873 6494.34,-215.873 6494.34,-215.873 6499.31,-216.429 6494.84,-211.401 6504.28,-216.984 6504.28,-216.984"/>
</g>
<!-- 68 -->
<g id="node69" class="node"><title>68</title>
<polygon fill="none" stroke="black" points="6926,-252 6714,-252 6714,-216 6926,-216 6926,-252"/>
<text text-anchor="middle" x="6820" y="-230.3" font-family="Times,serif" font-size="14.00">PoliciesMultiPlayers.OracleNotFair</text>
</g>
<!-- 58&#45;&gt;68 -->
<g id="edge112" class="edge"><title>58&#45;&gt;68</title>
<path fill="none" stroke="black" d="M5709.05,-164.058C5873.81,-167.21 6321.02,-178.698 6703.68,-215.928"/>
<polygon fill="black" stroke="black" points="6713.84,-216.925 6703.45,-220.427 6708.86,-216.437 6703.89,-215.949 6703.89,-215.949 6703.89,-215.949 6708.86,-216.437 6704.33,-211.47 6713.84,-216.925 6713.84,-216.925"/>
</g>
<!-- 69 -->
<g id="node70" class="node"><title>69</title>
<polygon fill="none" stroke="black" points="5984,-252 5796,-252 5796,-216 5984,-216 5984,-252"/>
<text text-anchor="middle" x="5890" y="-230.3" font-family="Times,serif" font-size="14.00">PoliciesMultiPlayers.Scenario1</text>
</g>
<!-- 58&#45;&gt;69 -->
<g id="edge113" class="edge"><title>58&#45;&gt;69</title>
<path fill="none" stroke="black" d="M5703.86,-180.034C5738.98,-190.028 5783.52,-202.702 5820.23,-213.146"/>
<polygon fill="black" stroke="black" points="5829.87,-215.889 5819.02,-217.48 5825.06,-214.521 5820.25,-213.152 5820.25,-213.152 5820.25,-213.152 5825.06,-214.521 5821.48,-208.824 5829.87,-215.889 5829.87,-215.889"/>
</g>
<!-- 70 -->
<g id="node71" class="node"><title>70</title>
<polygon fill="none" stroke="black" points="4867.5,-252 4696.5,-252 4696.5,-216 4867.5,-216 4867.5,-252"/>
<text text-anchor="middle" x="4782" y="-230.3" font-family="Times,serif" font-size="14.00">PoliciesMultiPlayers.Selfish</text>
</g>
<!-- 58&#45;&gt;70 -->
<g id="edge114" class="edge"><title>58&#45;&gt;70</title>
<path fill="none" stroke="black" d="M5578.87,-165.125C5448,-169.911 5143.67,-183.642 4877.87,-215.979"/>
<polygon fill="black" stroke="black" points="4867.64,-217.236 4877.02,-211.55 4872.6,-216.626 4877.57,-216.017 4877.57,-216.017 4877.57,-216.017 4872.6,-216.626 4878.11,-220.483 4867.64,-217.236 4867.64,-217.236"/>
</g>
<!-- 72 -->
<g id="node73" class="node"><title>72</title>
<polygon fill="none" stroke="black" points="5066,-252 4886,-252 4886,-216 5066,-216 5066,-252"/>
<text text-anchor="middle" x="4976" y="-230.3" font-family="Times,serif" font-size="14.00">PoliciesMultiPlayers.rhoRand</text>
</g>
<!-- 58&#45;&gt;72 -->
<g id="edge115" class="edge"><title>58&#45;&gt;72</title>
<path fill="none" stroke="black" d="M5578.65,-167.489C5474.67,-174.987 5264.95,-191.555 5076.28,-216.029"/>
<polygon fill="black" stroke="black" points="5066.17,-217.35 5075.5,-211.592 5071.13,-216.702 5076.08,-216.054 5076.08,-216.054 5076.08,-216.054 5071.13,-216.702 5076.67,-220.516 5066.17,-217.35 5066.17,-217.35"/>
</g>
<!-- 73 -->
<g id="node74" class="node"><title>73</title>
<polygon fill="none" stroke="black" points="5293.5,-252 5084.5,-252 5084.5,-216 5293.5,-216 5293.5,-252"/>
<text text-anchor="middle" x="5189" y="-230.3" font-family="Times,serif" font-size="14.00">PoliciesMultiPlayers.rhoRandRand</text>
</g>
<!-- 58&#45;&gt;73 -->
<g id="edge116" class="edge"><title>58&#45;&gt;73</title>
<path fill="none" stroke="black" d="M5578.81,-173.029C5507.12,-184.059 5390.55,-201.992 5303.54,-215.379"/>
<polygon fill="black" stroke="black" points="5293.61,-216.906 5302.81,-210.937 5298.56,-216.145 5303.5,-215.385 5303.5,-215.385 5303.5,-215.385 5298.56,-216.145 5304.18,-219.833 5293.61,-216.906 5293.61,-216.906"/>
</g>
<!-- 61 -->
<g id="node62" class="node"><title>61</title>
<polygon fill="none" stroke="black" points="5756.5,-324 5541.5,-324 5541.5,-288 5756.5,-288 5756.5,-324"/>
<text text-anchor="middle" x="5649" y="-302.3" font-family="Times,serif" font-size="14.00">PoliciesMultiPlayers.BaseMPPolicy</text>
</g>
<!-- 59&#45;&gt;61 -->
<g id="edge117" class="edge"><title>59&#45;&gt;61</title>
<path fill="none" stroke="black" d="M5462.11,-252.034C5497.37,-262.028 5542.09,-274.702 5578.94,-285.146"/>
<polygon fill="black" stroke="black" points="5588.62,-287.889 5577.78,-289.492 5583.81,-286.526 5579,-285.162 5579,-285.162 5579,-285.162 5583.81,-286.526 5580.23,-280.833 5588.62,-287.889 5588.62,-287.889"/>
</g>
<!-- 65 -->
<g id="node66" class="node"><title>65</title>
<polygon fill="none" stroke="black" points="5982.5,-324 5779.5,-324 5779.5,-288 5982.5,-288 5982.5,-324"/>
<text text-anchor="middle" x="5881" y="-302.3" font-family="Times,serif" font-size="14.00">PoliciesMultiPlayers.ChildPointer</text>
</g>
<!-- 59&#45;&gt;65 -->
<g id="edge118" class="edge"><title>59&#45;&gt;65</title>
<path fill="none" stroke="black" d="M5492.73,-250.558C5495.86,-251.051 5498.95,-251.533 5502,-252 5619.05,-269.926 5648.76,-271.341 5766,-288 5767.1,-288.156 5768.2,-288.313 5769.31,-288.472"/>
<polygon fill="black" stroke="black" points="5779.42,-289.921 5768.88,-292.956 5774.47,-289.211 5769.52,-288.501 5769.52,-288.501 5769.52,-288.501 5774.47,-289.211 5770.16,-284.047 5779.42,-289.921 5779.42,-289.921"/>
</g>
<!-- 60 -->
<g id="node61" class="node"><title>60</title>
<polygon fill="none" stroke="black" points="6614.5,-324 6357.5,-324 6357.5,-288 6614.5,-288 6614.5,-324"/>
<text text-anchor="middle" x="6486" y="-302.3" font-family="Times,serif" font-size="14.00">PoliciesMultiPlayers.BaseCentralizedPolicy</text>
</g>
<!-- 62&#45;&gt;60 -->
<g id="edge119" class="edge"><title>62&#45;&gt;60</title>
<path fill="none" stroke="black" d="M6210.58,-252.034C6263.97,-262.302 6332.08,-275.399 6387.2,-286.001"/>
<polygon fill="black" stroke="black" points="6397.34,-287.95 6386.67,-290.48 6392.43,-287.006 6387.52,-286.061 6387.52,-286.061 6387.52,-286.061 6392.43,-287.006 6388.37,-281.642 6397.34,-287.95 6397.34,-287.95"/>
</g>
<!-- 62&#45;&gt;61 -->
<g id="edge120" class="edge"><title>62&#45;&gt;61</title>
<path fill="none" stroke="black" d="M6006.9,-252.034C5934.16,-262.799 5840.41,-276.674 5767.1,-287.522"/>
<polygon fill="black" stroke="black" points="5756.9,-289.032 5766.13,-283.116 5761.84,-288.3 5766.79,-287.568 5766.79,-287.568 5766.79,-287.568 5761.84,-288.3 5767.45,-292.019 5756.9,-289.032 5756.9,-289.032"/>
</g>
<!-- 62&#45;&gt;65 -->
<g id="edge121" class="edge"><title>62&#45;&gt;65</title>
<path fill="none" stroke="black" d="M6063.35,-252.034C6029.09,-261.985 5985.68,-274.594 5949.81,-285.013"/>
<polygon fill="black" stroke="black" points="5939.91,-287.889 5948.26,-280.778 5944.71,-286.495 5949.51,-285.1 5949.51,-285.1 5949.51,-285.1 5944.71,-286.495 5950.77,-289.421 5939.91,-287.889 5939.91,-287.889"/>
</g>
<!-- 63&#45;&gt;60 -->
<g id="edge122" class="edge"><title>63&#45;&gt;60</title>
<path fill="none" stroke="black" d="M6400.64,-252.124C6415.42,-261.276 6433.79,-272.658 6449.7,-282.515"/>
<polygon fill="black" stroke="black" points="6458.25,-287.81 6447.38,-286.37 6454,-285.177 6449.75,-282.544 6449.75,-282.544 6449.75,-282.544 6454,-285.177 6452.12,-278.719 6458.25,-287.81 6458.25,-287.81"/>
</g>
<!-- 63&#45;&gt;61 -->
<g id="edge123" class="edge"><title>63&#45;&gt;61</title>
<path fill="none" stroke="black" d="M6259.38,-251.073C6256.56,-251.394 6253.76,-251.704 6251,-252 6038.28,-274.774 5983.72,-265.226 5771,-288 5769.68,-288.141 5768.36,-288.285 5767.03,-288.432"/>
<polygon fill="black" stroke="black" points="5756.73,-289.61 5766.15,-284.003 5761.69,-289.042 5766.66,-288.474 5766.66,-288.474 5766.66,-288.474 5761.69,-289.042 5767.17,-292.945 5756.73,-289.61 5756.73,-289.61"/>
</g>
<!-- 63&#45;&gt;65 -->
<g id="edge124" class="edge"><title>63&#45;&gt;65</title>
<path fill="none" stroke="black" d="M6259.2,-251.191C6179.04,-262.596 6072.24,-277.791 5992.58,-289.125"/>
<polygon fill="black" stroke="black" points="5982.51,-290.558 5991.78,-284.694 5987.46,-289.853 5992.41,-289.149 5992.41,-289.149 5992.41,-289.149 5987.46,-289.853 5993.04,-293.604 5982.51,-290.558 5982.51,-290.558"/>
</g>
<!-- 64&#45;&gt;61 -->
<g id="edge125" class="edge"><title>64&#45;&gt;61</title>
<path fill="none" stroke="black" d="M5645.24,-252.303C5645.79,-260.017 5646.45,-269.288 5647.06,-277.888"/>
<polygon fill="black" stroke="black" points="5647.78,-287.896 5642.58,-278.242 5647.42,-282.908 5647.07,-277.921 5647.07,-277.921 5647.07,-277.921 5647.42,-282.908 5651.55,-277.6 5647.78,-287.896 5647.78,-287.896"/>
</g>
<!-- 64&#45;&gt;65 -->
<g id="edge126" class="edge"><title>64&#45;&gt;65</title>
<path fill="none" stroke="black" d="M5701.67,-252.034C5735.36,-261.985 5778.05,-274.594 5813.33,-285.013"/>
<polygon fill="black" stroke="black" points="5823.07,-287.889 5812.2,-289.372 5818.27,-286.473 5813.48,-285.057 5813.48,-285.057 5813.48,-285.057 5818.27,-286.473 5814.75,-280.741 5823.07,-287.889 5823.07,-287.889"/>
</g>
<!-- 66 -->
<g id="node67" class="node"><title>66</title>
<polygon fill="none" stroke="black" points="4366.5,-36 4201.5,-36 4201.5,-0 4366.5,-0 4366.5,-36"/>
<text text-anchor="middle" x="4284" y="-14.3" font-family="Times,serif" font-size="14.00">PoliciesMultiPlayers.DMC</text>
</g>
<!-- 67&#45;&gt;60 -->
<g id="edge127" class="edge"><title>67&#45;&gt;60</title>
<path fill="none" stroke="black" d="M6572.11,-252.124C6557.21,-261.276 6538.67,-272.658 6522.62,-282.515"/>
<polygon fill="black" stroke="black" points="6513.99,-287.81 6520.16,-278.743 6518.26,-285.194 6522.52,-282.578 6522.52,-282.578 6522.52,-282.578 6518.26,-285.194 6524.87,-286.412 6513.99,-287.81 6513.99,-287.81"/>
</g>
<!-- 67&#45;&gt;61 -->
<g id="edge128" class="edge"><title>67&#45;&gt;61</title>
<path fill="none" stroke="black" d="M6504.28,-251.061C6501.5,-251.396 6498.73,-251.71 6496,-252 6175.19,-286.076 6092.19,-257.708 5771,-288 5769.68,-288.124 5768.36,-288.252 5767.03,-288.384"/>
<polygon fill="black" stroke="black" points="5756.71,-289.462 5766.19,-283.947 5761.68,-288.943 5766.66,-288.423 5766.66,-288.423 5766.66,-288.423 5761.68,-288.943 5767.13,-292.898 5756.71,-289.462 5756.71,-289.462"/>
</g>
<!-- 67&#45;&gt;65 -->
<g id="edge129" class="edge"><title>67&#45;&gt;65</title>
<path fill="none" stroke="black" d="M6504.27,-250.929C6501.48,-251.303 6498.72,-251.661 6496,-252 6320.81,-273.836 6116.41,-289.516 5992.94,-297.921"/>
<polygon fill="black" stroke="black" points="5982.73,-298.613 5992.4,-293.448 5987.71,-298.275 5992.7,-297.937 5992.7,-297.937 5992.7,-297.937 5987.71,-298.275 5993.01,-302.427 5982.73,-298.613 5982.73,-298.613"/>
</g>
<!-- 68&#45;&gt;60 -->
<g id="edge130" class="edge"><title>68&#45;&gt;60</title>
<path fill="none" stroke="black" d="M6738.72,-252.034C6689.93,-262.259 6627.76,-275.29 6577.28,-285.869"/>
<polygon fill="black" stroke="black" points="6567.35,-287.95 6576.22,-281.494 6572.25,-286.924 6577.14,-285.899 6577.14,-285.899 6577.14,-285.899 6572.25,-286.924 6578.06,-290.303 6567.35,-287.95 6567.35,-287.95"/>
</g>
<!-- 68&#45;&gt;61 -->
<g id="edge131" class="edge"><title>68&#45;&gt;61</title>
<path fill="none" stroke="black" d="M6713.84,-251.12C6710.87,-251.435 6707.91,-251.729 6705,-252 6291.36,-290.431 6184.79,-251.288 5771,-288 5769.68,-288.117 5768.36,-288.238 5767.02,-288.363"/>
<polygon fill="black" stroke="black" points="5756.71,-289.397 5766.21,-283.923 5761.68,-288.899 5766.66,-288.4 5766.66,-288.4 5766.66,-288.4 5761.68,-288.899 5767.1,-292.878 5756.71,-289.397 5756.71,-289.397"/>
</g>
<!-- 68&#45;&gt;65 -->
<g id="edge132" class="edge"><title>68&#45;&gt;65</title>
<path fill="none" stroke="black" d="M6713.83,-251.02C6710.86,-251.364 6707.91,-251.692 6705,-252 6451.13,-278.883 6151.7,-294.012 5992.96,-300.731"/>
<polygon fill="black" stroke="black" points="5982.71,-301.161 5992.51,-296.246 5987.71,-300.952 5992.7,-300.742 5992.7,-300.742 5992.7,-300.742 5987.71,-300.952 5992.89,-305.238 5982.71,-301.161 5982.71,-301.161"/>
</g>
<!-- 69&#45;&gt;61 -->
<g id="edge133" class="edge"><title>69&#45;&gt;61</title>
<path fill="none" stroke="black" d="M5831.35,-252.034C5797.09,-261.985 5753.68,-274.594 5717.81,-285.013"/>
<polygon fill="black" stroke="black" points="5707.91,-287.889 5716.26,-280.778 5712.71,-286.495 5717.51,-285.1 5717.51,-285.1 5717.51,-285.1 5712.71,-286.495 5718.77,-289.421 5707.91,-287.889 5707.91,-287.889"/>
</g>
<!-- 69&#45;&gt;65 -->
<g id="edge134" class="edge"><title>69&#45;&gt;65</title>
<path fill="none" stroke="black" d="M5887.78,-252.303C5886.78,-260.017 5885.59,-269.288 5884.49,-277.888"/>
<polygon fill="black" stroke="black" points="5883.2,-287.896 5880.01,-277.403 5883.84,-282.936 5884.47,-277.977 5884.47,-277.977 5884.47,-277.977 5883.84,-282.936 5888.94,-278.551 5883.2,-287.896 5883.2,-287.896"/>
</g>
<!-- 70&#45;&gt;61 -->
<g id="edge135" class="edge"><title>70&#45;&gt;61</title>
<path fill="none" stroke="black" d="M4867.64,-250.766C4870.8,-251.207 4873.92,-251.62 4877,-252 5107.7,-280.475 5379.2,-294.67 5530.97,-300.88"/>
<polygon fill="black" stroke="black" points="5541.24,-301.295 5531.07,-305.387 5536.25,-301.093 5531.25,-300.891 5531.25,-300.891 5531.25,-300.891 5536.25,-301.093 5531.43,-296.395 5541.24,-301.295 5541.24,-301.295"/>
</g>
<!-- 70&#45;&gt;65 -->
<g id="edge136" class="edge"><title>70&#45;&gt;65</title>
<path fill="none" stroke="black" d="M4867.63,-250.878C4870.79,-251.287 4873.92,-251.664 4877,-252 5270.1,-294.928 5372.3,-251.034 5766,-288 5767.11,-288.104 5768.22,-288.211 5769.33,-288.321"/>
<polygon fill="black" stroke="black" points="5779.48,-289.395 5769.06,-292.818 5774.51,-288.869 5769.54,-288.343 5769.54,-288.343 5769.54,-288.343 5774.51,-288.869 5770.01,-283.868 5779.48,-289.395 5779.48,-289.395"/>
</g>
<!-- 71 -->
<g id="node72" class="node"><title>71</title>
<polygon fill="none" stroke="black" points="4551.5,-36 4384.5,-36 4384.5,-0 4551.5,-0 4551.5,-36"/>
<text text-anchor="middle" x="4468" y="-14.3" font-family="Times,serif" font-size="14.00">PoliciesMultiPlayers.TDFS</text>
</g>
<!-- 72&#45;&gt;61 -->
<g id="edge137" class="edge"><title>72&#45;&gt;61</title>
<path fill="none" stroke="black" d="M5066.17,-250.653C5069.48,-251.126 5072.77,-251.577 5076,-252 5233.01,-272.577 5415.26,-287.991 5531.3,-296.747"/>
<polygon fill="black" stroke="black" points="5541.27,-297.496 5530.96,-301.235 5536.29,-297.122 5531.3,-296.747 5531.3,-296.747 5531.3,-296.747 5536.29,-297.122 5531.64,-292.26 5541.27,-297.496 5541.27,-297.496"/>
</g>
<!-- 72&#45;&gt;65 -->
<g id="edge138" class="edge"><title>72&#45;&gt;65</title>
<path fill="none" stroke="black" d="M5066.15,-250.821C5069.47,-251.246 5072.76,-251.642 5076,-252 5381.22,-285.79 5460.43,-257.512 5766,-288 5767.1,-288.11 5768.21,-288.224 5769.33,-288.34"/>
<polygon fill="black" stroke="black" points="5779.48,-289.46 5769.04,-292.835 5774.51,-288.911 5769.54,-288.363 5769.54,-288.363 5769.54,-288.363 5774.51,-288.911 5770.03,-283.89 5779.48,-289.46 5779.48,-289.46"/>
</g>
<!-- 73&#45;&gt;61 -->
<g id="edge139" class="edge"><title>73&#45;&gt;61</title>
<path fill="none" stroke="black" d="M5293.67,-250.928C5364.31,-261.678 5457.67,-275.885 5530.96,-287.038"/>
<polygon fill="black" stroke="black" points="5541.17,-288.591 5530.61,-291.535 5536.23,-287.839 5531.28,-287.086 5531.28,-287.086 5531.28,-287.086 5536.23,-287.839 5531.96,-282.638 5541.17,-288.591 5541.17,-288.591"/>
</g>
<!-- 73&#45;&gt;65 -->
<g id="edge140" class="edge"><title>73&#45;&gt;65</title>
<path fill="none" stroke="black" d="M5293.64,-250.896C5296.79,-251.282 5299.92,-251.651 5303,-252 5508.09,-275.235 5560.9,-264.895 5766,-288 5767.1,-288.124 5768.21,-288.251 5769.33,-288.38"/>
<polygon fill="black" stroke="black" points="5779.46,-289.601 5768.99,-292.873 5774.5,-289.003 5769.53,-288.405 5769.53,-288.405 5769.53,-288.405 5774.5,-289.003 5770.07,-283.937 5779.46,-289.601 5779.46,-289.601"/>
</g>
<!-- 74 -->
<g id="node75" class="node"><title>74</title>
<polygon fill="none" stroke="black" points="4624,-36 4570,-36 4570,-0 4624,-0 4624,-36"/>
<text text-anchor="middle" x="4597" y="-14.3" font-family="Times,serif" font-size="14.00">conf</text>
</g>
<!-- 75 -->
<g id="node76" class="node"><title>75</title>
<polygon fill="none" stroke="black" points="290.5,-108 201.5,-108 201.5,-72 290.5,-72 290.5,-108"/>
<text text-anchor="middle" x="246" y="-86.3" font-family="Times,serif" font-size="14.00">configuration</text>
</g>
<!-- 75&#45;&gt;0 -->
<g id="edge141" class="edge"><title>75&#45;&gt;0</title>
<path fill="none" stroke="black" d="M287.342,-108.124C315.192,-119.659 351.592,-134.736 378.394,-145.838"/>
<polygon fill="black" stroke="black" points="387.8,-149.734 376.839,-150.065 383.181,-147.82 378.561,-145.907 378.561,-145.907 378.561,-145.907 383.181,-147.82 380.284,-141.75 387.8,-149.734 387.8,-149.734"/>
</g>
<!-- 75&#45;&gt;2 -->
<g id="edge142" class="edge"><title>75&#45;&gt;2</title>
<path fill="none" stroke="black" d="M238.642,-108.129C228.154,-132.543 208.81,-177.574 196.442,-206.365"/>
<polygon fill="black" stroke="black" points="192.384,-215.811 192.197,-204.846 194.358,-211.217 196.331,-206.623 196.331,-206.623 196.331,-206.623 194.358,-211.217 200.466,-208.399 192.384,-215.811 192.384,-215.811"/>
</g>
<!-- 75&#45;&gt;3 -->
<g id="edge143" class="edge"><title>75&#45;&gt;3</title>
<path fill="none" stroke="black" d="M223.323,-108.129C189.729,-133.503 126.652,-181.146 88.8719,-209.682"/>
<polygon fill="black" stroke="black" points="80.7576,-215.811 86.025,-206.193 84.7474,-212.797 88.7372,-209.784 88.7372,-209.784 88.7372,-209.784 84.7474,-212.797 91.4494,-213.374 80.7576,-215.811 80.7576,-215.811"/>
</g>
<!-- 75&#45;&gt;4 -->
<g id="edge144" class="edge"><title>75&#45;&gt;4</title>
<path fill="none" stroke="black" d="M290.716,-105.346C293.851,-106.269 296.968,-107.163 300,-108 366.501,-126.37 391.524,-109.036 451,-144 469.711,-155 469.299,-164.031 484,-180 492.534,-189.27 501.923,-199.434 510.179,-208.36"/>
<polygon fill="black" stroke="black" points="517.093,-215.831 506.998,-211.548 513.697,-212.161 510.301,-208.492 510.301,-208.492 510.301,-208.492 513.697,-212.161 513.604,-205.435 517.093,-215.831 517.093,-215.831"/>
</g>
<!-- 75&#45;&gt;5 -->
<g id="edge145" class="edge"><title>75&#45;&gt;5</title>
<path fill="none" stroke="black" d="M252.634,-108.129C262.091,-132.543 279.532,-177.574 290.684,-206.365"/>
<polygon fill="black" stroke="black" points="294.342,-215.811 286.534,-208.111 292.536,-211.148 290.73,-206.486 290.73,-206.486 290.73,-206.486 292.536,-211.148 294.927,-204.86 294.342,-215.811 294.342,-215.811"/>
</g>
<!-- 75&#45;&gt;16 -->
<g id="edge146" class="edge"><title>75&#45;&gt;16</title>
<path fill="none" stroke="black" d="M290.555,-106.077C293.728,-106.826 296.898,-107.481 300,-108 498.378,-141.202 1983.45,-157.887 2247.05,-160.602"/>
<polygon fill="black" stroke="black" points="2257.3,-160.707 2247.26,-165.104 2252.31,-160.656 2247.31,-160.604 2247.31,-160.604 2247.31,-160.604 2252.31,-160.656 2247.35,-156.105 2257.3,-160.707 2257.3,-160.707"/>
</g>
<!-- 76 -->
<g id="node77" class="node"><title>76</title>
<polygon fill="none" stroke="black" points="587,-108 309,-108 309,-72 587,-72 587,-108"/>
<text text-anchor="middle" x="448" y="-86.3" font-family="Times,serif" font-size="14.00">configuration_comparing_KLUCB_aggregation</text>
</g>
<!-- 76&#45;&gt;0 -->
<g id="edge147" class="edge"><title>76&#45;&gt;0</title>
<path fill="none" stroke="black" d="M439.843,-108.303C436.086,-116.272 431.547,-125.9 427.382,-134.736"/>
<polygon fill="black" stroke="black" points="423.063,-143.896 423.257,-132.931 425.196,-139.373 427.328,-134.85 427.328,-134.85 427.328,-134.85 425.196,-139.373 431.398,-136.769 423.063,-143.896 423.063,-143.896"/>
</g>
<!-- 76&#45;&gt;2 -->
<g id="edge148" class="edge"><title>76&#45;&gt;2</title>
<path fill="none" stroke="black" d="M412.431,-108.21C391.741,-118.363 365.241,-131.613 342,-144 300.854,-165.93 254.493,-192.437 222.884,-210.791"/>
<polygon fill="black" stroke="black" points="213.973,-215.975 220.354,-207.057 218.295,-213.461 222.617,-210.946 222.617,-210.946 222.617,-210.946 218.295,-213.461 224.88,-214.836 213.973,-215.975 213.973,-215.975"/>
</g>
<!-- 76&#45;&gt;3 -->
<g id="edge149" class="edge"><title>76&#45;&gt;3</title>
<path fill="none" stroke="black" d="M337.141,-108.002C280.824,-117.85 219.096,-130.87 194,-144 173.387,-154.785 174.838,-166.349 156,-180 140.009,-191.587 121.187,-202.362 104.334,-211.129"/>
<polygon fill="black" stroke="black" points="95.2045,-215.786 102.068,-207.233 99.6586,-213.514 104.113,-211.242 104.113,-211.242 104.113,-211.242 99.6586,-213.514 106.157,-215.251 95.2045,-215.786 95.2045,-215.786"/>
</g>
<!-- 76&#45;&gt;4 -->
<g id="edge150" class="edge"><title>76&#45;&gt;4</title>
<path fill="none" stroke="black" d="M460.419,-108.396C467.558,-118.612 476.558,-131.862 484,-144 496.601,-164.554 509.715,-188.532 519.202,-206.418"/>
<polygon fill="black" stroke="black" points="524.073,-215.667 515.432,-208.916 521.743,-211.243 519.413,-206.819 519.413,-206.819 519.413,-206.819 521.743,-211.243 523.395,-204.722 524.073,-215.667 524.073,-215.667"/>
</g>
<!-- 76&#45;&gt;5 -->
<g id="edge151" class="edge"><title>76&#45;&gt;5</title>
<path fill="none" stroke="black" d="M423.434,-108.051C409.818,-117.941 392.886,-130.984 379,-144 357.682,-163.983 335.977,-189.231 320.895,-207.727"/>
<polygon fill="black" stroke="black" points="314.456,-215.707 317.233,-205.098 317.596,-211.815 320.735,-207.924 320.735,-207.924 320.735,-207.924 317.596,-211.815 324.238,-210.75 314.456,-215.707 314.456,-215.707"/>
</g>
<!-- 76&#45;&gt;16 -->
<g id="edge152" class="edge"><title>76&#45;&gt;16</title>
<path fill="none" stroke="black" d="M587.355,-96.3044C971.126,-110.912 2029.43,-151.196 2247.42,-159.493"/>
<polygon fill="black" stroke="black" points="2257.45,-159.875 2247.28,-163.991 2252.45,-159.685 2247.45,-159.495 2247.45,-159.495 2247.45,-159.495 2252.45,-159.685 2247.63,-154.998 2257.45,-159.875 2257.45,-159.875"/>
</g>
<!-- 77 -->
<g id="node78" class="node"><title>77</title>
<polygon fill="none" stroke="black" points="1929,-108 1765,-108 1765,-72 1929,-72 1929,-108"/>
<text text-anchor="middle" x="1847" y="-86.3" font-family="Times,serif" font-size="14.00">configuration_multiplayers</text>
</g>
<!-- 77&#45;&gt;0 -->
<g id="edge153" class="edge"><title>77&#45;&gt;0</title>
<path fill="none" stroke="black" d="M1764.99,-92.3537C1511.38,-96.8334 741.948,-112.704 494,-144 480.271,-145.733 465.395,-148.654 452.292,-151.59"/>
<polygon fill="black" stroke="black" points="442.221,-153.926 450.945,-147.283 447.091,-152.797 451.962,-151.667 451.962,-151.667 451.962,-151.667 447.091,-152.797 452.979,-156.051 442.221,-153.926 442.221,-153.926"/>
</g>
<!-- 77&#45;&gt;2 -->
<g id="edge154" class="edge"><title>77&#45;&gt;2</title>
<path fill="none" stroke="black" d="M1764.85,-91.3937C1475.07,-93.1359 510.925,-102.057 379,-144 351.158,-152.852 350.022,-166.719 324,-180 299.224,-192.645 270.692,-204.031 245.95,-212.98"/>
<polygon fill="black" stroke="black" points="236.315,-216.412 244.226,-208.817 241.025,-214.734 245.735,-213.056 245.735,-213.056 245.735,-213.056 241.025,-214.734 247.245,-217.295 236.315,-216.412 236.315,-216.412"/>
</g>
<!-- 77&#45;&gt;3 -->
<g id="edge155" class="edge"><title>77&#45;&gt;3</title>
<path fill="none" stroke="black" d="M1764.59,-90.693C1488.96,-90.1619 600.822,-92.5856 320,-144 242.819,-158.131 157.471,-190.46 105.796,-212.013"/>
<polygon fill="black" stroke="black" points="96.5488,-215.905 104.02,-207.878 101.157,-213.965 105.766,-212.025 105.766,-212.025 105.766,-212.025 101.157,-213.965 107.511,-216.173 96.5488,-215.905 96.5488,-215.905"/>
</g>
<!-- 77&#45;&gt;4 -->
<g id="edge156" class="edge"><title>77&#45;&gt;4</title>
<path fill="none" stroke="black" d="M1764.92,-94.7763C1564.31,-104.966 1033.68,-137.719 598,-216 596.529,-216.264 595.043,-216.545 593.546,-216.839"/>
<polygon fill="black" stroke="black" points="583.572,-218.958 592.419,-212.478 588.463,-217.919 593.354,-216.88 593.354,-216.88 593.354,-216.88 588.463,-217.919 594.289,-221.281 583.572,-218.958 583.572,-218.958"/>
</g>
<!-- 77&#45;&gt;5 -->
<g id="edge157" class="edge"><title>77&#45;&gt;5</title>
<path fill="none" stroke="black" d="M1764.89,-92.5535C1591.94,-96.4266 1177.62,-108.868 832,-144 622.788,-165.266 566.936,-168.762 357.388,-216.085"/>
<polygon fill="black" stroke="black" points="347.616,-218.299 356.375,-211.701 352.493,-217.194 357.369,-216.09 357.369,-216.09 357.369,-216.09 352.493,-217.194 358.363,-220.479 347.616,-218.299 347.616,-218.299"/>
</g>
<!-- 77&#45;&gt;9 -->
<g id="edge158" class="edge"><title>77&#45;&gt;9</title>
<path fill="none" stroke="black" d="M1929.33,-90.8278C2364.88,-90.145 4384.89,-89.9135 4505,-144 4534,-157.059 4557.37,-185.793 4571.64,-207.098"/>
<polygon fill="black" stroke="black" points="4577.18,-215.706 4567.98,-209.736 4574.47,-211.503 4571.77,-207.299 4571.77,-207.299 4571.77,-207.299 4574.47,-211.503 4575.55,-204.863 4577.18,-215.706 4577.18,-215.706"/>
</g>
<!-- 77&#45;&gt;12 -->
<g id="edge159" class="edge"><title>77&#45;&gt;12</title>
<path fill="none" stroke="black" d="M1929.16,-90.3931C2219.33,-89.3595 3222.71,-95.2189 4052.12,-216.038"/>
<polygon fill="black" stroke="black" points="4062.17,-217.509 4051.62,-220.514 4057.22,-216.785 4052.28,-216.061 4052.28,-216.061 4052.28,-216.061 4057.22,-216.785 4052.93,-211.608 4062.17,-217.509 4062.17,-217.509"/>
</g>
<!-- 77&#45;&gt;16 -->
<g id="edge160" class="edge"><title>77&#45;&gt;16</title>
<path fill="none" stroke="black" d="M1929.24,-104.084C2024.07,-119.171 2176.04,-143.348 2247.48,-154.712"/>
<polygon fill="black" stroke="black" points="2257.41,-156.293 2246.83,-159.166 2252.48,-155.508 2247.54,-154.722 2247.54,-154.722 2247.54,-154.722 2252.48,-155.508 2248.25,-150.278 2257.41,-156.293 2257.41,-156.293"/>
</g>
<!-- 77&#45;&gt;58 -->
<g id="edge161" class="edge"><title>77&#45;&gt;58</title>
<path fill="none" stroke="black" d="M1929.39,-92.5189C2432.5,-101.794 5085.07,-150.696 5568.39,-159.606"/>
<polygon fill="black" stroke="black" points="5578.73,-159.797 5568.65,-164.112 5573.73,-159.705 5568.73,-159.612 5568.73,-159.612 5568.73,-159.612 5573.73,-159.705 5568.82,-155.113 5578.73,-159.797 5578.73,-159.797"/>
</g>
<!-- 78 -->
<g id="node79" class="node"><title>78</title>
<polygon fill="none" stroke="black" points="4010,-36 3956,-36 3956,-0 4010,-0 4010,-36"/>
<text text-anchor="middle" x="3983" y="-14.3" font-family="Times,serif" font-size="14.00">main</text>
</g>
<!-- 78&#45;&gt;8 -->
<g id="edge162" class="edge"><title>78&#45;&gt;8</title>
<path fill="none" stroke="black" d="M4010.19,-32.4967C4030.09,-42.3785 4057.52,-55.9941 4080.46,-67.3835"/>
<polygon fill="black" stroke="black" points="4089.65,-71.9488 4078.7,-71.5327 4085.18,-69.7254 4080.7,-67.502 4080.7,-67.502 4080.7,-67.502 4085.18,-69.7254 4082.7,-63.4714 4089.65,-71.9488 4089.65,-71.9488"/>
</g>
<!-- 78&#45;&gt;10 -->
<g id="edge163" class="edge"><title>78&#45;&gt;10</title>
<path fill="none" stroke="black" d="M3983,-36.1285C3983,-60.3298 3983,-104.789 3983,-133.607"/>
<polygon fill="black" stroke="black" points="3983,-143.811 3978.5,-133.811 3983,-138.811 3983,-133.811 3983,-133.811 3983,-133.811 3983,-138.811 3987.5,-133.811 3983,-143.811 3983,-143.811"/>
</g>
<!-- 78&#45;&gt;76 -->
<g id="edge164" class="edge"><title>78&#45;&gt;76</title>
<path fill="none" stroke="black" d="M3955.82,-19.5381C3670.95,-25.1791 1229.73,-73.5203 597.179,-86.046"/>
<polygon fill="black" stroke="black" points="587.09,-86.2457 596.999,-81.5485 592.089,-86.1467 597.088,-86.0477 597.088,-86.0477 597.088,-86.0477 592.089,-86.1467 597.177,-90.5468 587.09,-86.2457 587.09,-86.2457"/>
</g>
<!-- 79 -->
<g id="node80" class="node"><title>79</title>
<polygon fill="none" stroke="black" points="4183.5,-36 4064.5,-36 4064.5,-0 4183.5,-0 4183.5,-36"/>
<text text-anchor="middle" x="4124" y="-14.3" font-family="Times,serif" font-size="14.00">main_multiplayers</text>
</g>
<!-- 79&#45;&gt;8 -->
<g id="edge165" class="edge"><title>79&#45;&gt;8</title>
<path fill="none" stroke="black" d="M4124,-36.3034C4124,-44.0173 4124,-53.2875 4124,-61.8876"/>
<polygon fill="black" stroke="black" points="4124,-71.8957 4119.5,-61.8956 4124,-66.8957 4124,-61.8957 4124,-61.8957 4124,-61.8957 4124,-66.8957 4128.5,-61.8957 4124,-71.8957 4124,-71.8957"/>
</g>
<!-- 79&#45;&gt;11 -->
<g id="edge166" class="edge"><title>79&#45;&gt;11</title>
<path fill="none" stroke="black" d="M4155.84,-36.1285C4203.71,-61.8757 4294.21,-110.552 4346.97,-138.928"/>
<polygon fill="black" stroke="black" points="4356.04,-143.811 4345.1,-143.037 4351.64,-141.442 4347.24,-139.074 4347.24,-139.074 4347.24,-139.074 4351.64,-141.442 4349.37,-135.111 4356.04,-143.811 4356.04,-143.811"/>
</g>
<!-- 79&#45;&gt;77 -->
<g id="edge167" class="edge"><title>79&#45;&gt;77</title>
<path fill="none" stroke="black" d="M4064.49,-30.0792C4049.68,-32.4373 4033.8,-34.6276 4019,-36 3605.84,-74.3078 2298.61,-85.9165 1939.22,-88.4234"/>
<polygon fill="black" stroke="black" points="1929.12,-88.4932 1939.09,-83.9241 1934.12,-88.4586 1939.12,-88.424 1939.12,-88.424 1939.12,-88.424 1934.12,-88.4586 1939.15,-92.9239 1929.12,-88.4932 1929.12,-88.4932"/>
</g>
</g>
</svg>
