<?xml version="1.0" encoding="UTF-8" standalone="no"?>
<!DOCTYPE svg PUBLIC "-//W3C//DTD SVG 1.1//EN"
 "http://www.w3.org/Graphics/SVG/1.1/DTD/svg11.dtd">
<!-- Generated by graphviz version 2.38.0 (20140413.2041)
 -->
<!-- Title: packages_AlgoBandits Pages: 1 -->
<svg width="4584pt" height="476pt"
 viewBox="0.00 0.00 4584.00 476.00" xmlns="http://www.w3.org/2000/svg" xmlns:xlink="http://www.w3.org/1999/xlink">
<g id="graph0" class="graph" transform="scale(1 1) rotate(0) translate(4 472)">
<title>packages_AlgoBandits</title>
<polygon fill="white" stroke="none" points="-4,4 -4,-472 4580,-472 4580,4 -4,4"/>
<!-- 0 -->
<g id="node1" class="node"><title>0</title>
<polygon fill="none" stroke="black" points="253,-108 199,-108 199,-72 253,-72 253,-108"/>
<text text-anchor="middle" x="226" y="-86.3" font-family="Times,serif" font-size="14.00">Arms</text>
</g>
<!-- 2 -->
<g id="node3" class="node"><title>2</title>
<polygon fill="none" stroke="black" points="467,-180 365,-180 365,-144 467,-144 467,-180"/>
<text text-anchor="middle" x="416" y="-158.3" font-family="Times,serif" font-size="14.00">Arms.Bernoulli</text>
</g>
<!-- 0&#45;&gt;2 -->
<g id="edge1" class="edge"><title>0&#45;&gt;2</title>
<path fill="none" stroke="black" d="M253.222,-101.029C280.985,-111.258 324.862,-127.423 360.069,-140.394"/>
<polygon fill="black" stroke="black" points="369.749,-143.96 358.809,-144.725 365.057,-142.231 360.365,-140.503 360.365,-140.503 360.365,-140.503 365.057,-142.231 361.921,-136.28 369.749,-143.96 369.749,-143.96"/>
</g>
<!-- 3 -->
<g id="node4" class="node"><title>3</title>
<polygon fill="none" stroke="black" points="116,-180 7.10543e-15,-180 7.10543e-15,-144 116,-144 116,-180"/>
<text text-anchor="middle" x="58" y="-158.3" font-family="Times,serif" font-size="14.00">Arms.Exponential</text>
</g>
<!-- 0&#45;&gt;3 -->
<g id="edge2" class="edge"><title>0&#45;&gt;3</title>
<path fill="none" stroke="black" d="M198.634,-102.403C174.22,-112.575 137.858,-127.726 108.224,-140.073"/>
<polygon fill="black" stroke="black" points="98.8633,-143.974 106.363,-135.974 103.479,-142.051 108.094,-140.127 108.094,-140.127 108.094,-140.127 103.479,-142.051 109.825,-144.281 98.8633,-143.974 98.8633,-143.974"/>
</g>
<!-- 4 -->
<g id="node5" class="node"><title>4</title>
<polygon fill="none" stroke="black" points="235.5,-180 134.5,-180 134.5,-144 235.5,-144 235.5,-180"/>
<text text-anchor="middle" x="185" y="-158.3" font-family="Times,serif" font-size="14.00">Arms.Gaussian</text>
</g>
<!-- 0&#45;&gt;4 -->
<g id="edge3" class="edge"><title>0&#45;&gt;4</title>
<path fill="none" stroke="black" d="M215.865,-108.303C211.148,-116.356 205.438,-126.106 200.218,-135.018"/>
<polygon fill="black" stroke="black" points="195.018,-143.896 196.189,-132.992 197.545,-139.581 200.072,-135.267 200.072,-135.267 200.072,-135.267 197.545,-139.581 203.955,-137.541 195.018,-143.896 195.018,-143.896"/>
</g>
<!-- 5 -->
<g id="node6" class="node"><title>5</title>
<polygon fill="none" stroke="black" points="346.5,-180 253.5,-180 253.5,-144 346.5,-144 346.5,-180"/>
<text text-anchor="middle" x="300" y="-158.3" font-family="Times,serif" font-size="14.00">Arms.Poisson</text>
</g>
<!-- 0&#45;&gt;5 -->
<g id="edge4" class="edge"><title>0&#45;&gt;5</title>
<path fill="none" stroke="black" d="M244.292,-108.303C253.433,-116.95 264.64,-127.551 274.6,-136.973"/>
<polygon fill="black" stroke="black" points="281.918,-143.896 271.561,-140.293 278.286,-140.46 274.654,-137.024 274.654,-137.024 274.654,-137.024 278.286,-140.46 277.746,-133.755 281.918,-143.896 281.918,-143.896"/>
</g>
<!-- 1 -->
<g id="node2" class="node"><title>1</title>
<polygon fill="none" stroke="black" points="96.5,-252 19.5,-252 19.5,-216 96.5,-216 96.5,-252"/>
<text text-anchor="middle" x="58" y="-230.3" font-family="Times,serif" font-size="14.00">Arms.Arm</text>
</g>
<!-- 2&#45;&gt;1 -->
<g id="edge5" class="edge"><title>2&#45;&gt;1</title>
<path fill="none" stroke="black" d="M364.86,-177.753C361.534,-178.558 358.226,-179.315 355,-180 247.77,-202.759 217.771,-191.176 111,-216 109.529,-216.342 108.041,-216.705 106.542,-217.087"/>
<polygon fill="black" stroke="black" points="96.5826,-219.818 105.037,-212.833 101.405,-218.495 106.227,-217.173 106.227,-217.173 106.227,-217.173 101.405,-218.495 107.417,-221.513 96.5826,-219.818 96.5826,-219.818"/>
</g>
<!-- 3&#45;&gt;1 -->
<g id="edge6" class="edge"><title>3&#45;&gt;1</title>
<path fill="none" stroke="black" d="M58,-180.303C58,-188.017 58,-197.288 58,-205.888"/>
<polygon fill="black" stroke="black" points="58,-215.896 53.5001,-205.896 58,-210.896 58.0001,-205.896 58.0001,-205.896 58.0001,-205.896 58,-210.896 62.5001,-205.896 58,-215.896 58,-215.896"/>
</g>
<!-- 4&#45;&gt;1 -->
<g id="edge7" class="edge"><title>4&#45;&gt;1</title>
<path fill="none" stroke="black" d="M153.932,-180.124C137.173,-189.361 116.294,-200.869 98.2982,-210.788"/>
<polygon fill="black" stroke="black" points="89.1871,-215.81 95.7727,-207.042 93.566,-213.397 97.9449,-210.983 97.9449,-210.983 97.9449,-210.983 93.566,-213.397 100.117,-214.924 89.1871,-215.81 89.1871,-215.81"/>
</g>
<!-- 5&#45;&gt;1 -->
<g id="edge8" class="edge"><title>5&#45;&gt;1</title>
<path fill="none" stroke="black" d="M253.281,-177.299C250.143,-178.223 247.027,-179.131 244,-180 185.139,-196.896 169.727,-198.643 111,-216 109.552,-216.428 108.083,-216.867 106.602,-217.314"/>
<polygon fill="black" stroke="black" points="96.7236,-220.352 104.959,-213.111 101.503,-218.882 106.282,-217.413 106.282,-217.413 106.282,-217.413 101.503,-218.882 107.605,-221.714 96.7236,-220.352 96.7236,-220.352"/>
</g>
<!-- 6 -->
<g id="node7" class="node"><title>6</title>
<polygon fill="none" stroke="black" points="2922,-108 2834,-108 2834,-72 2922,-72 2922,-108"/>
<text text-anchor="middle" x="2878" y="-86.3" font-family="Times,serif" font-size="14.00">Environment</text>
</g>
<!-- 8 -->
<g id="node9" class="node"><title>8</title>
<polygon fill="none" stroke="black" points="3050,-180 2906,-180 2906,-144 3050,-144 3050,-180"/>
<text text-anchor="middle" x="2978" y="-158.3" font-family="Times,serif" font-size="14.00">Environment.Evaluator</text>
</g>
<!-- 6&#45;&gt;8 -->
<g id="edge9" class="edge"><title>6&#45;&gt;8</title>
<path fill="none" stroke="black" d="M2902.46,-108.124C2915.3,-117.107 2931.2,-128.237 2945.09,-137.966"/>
<polygon fill="black" stroke="black" points="2953.44,-143.81 2942.67,-141.762 2949.35,-140.943 2945.25,-138.076 2945.25,-138.076 2945.25,-138.076 2949.35,-140.943 2947.83,-134.389 2953.44,-143.81 2953.44,-143.81"/>
</g>
<!-- 9 -->
<g id="node10" class="node"><title>9</title>
<polygon fill="none" stroke="black" points="2849.5,-180 2634.5,-180 2634.5,-144 2849.5,-144 2849.5,-180"/>
<text text-anchor="middle" x="2742" y="-158.3" font-family="Times,serif" font-size="14.00">Environment.EvaluatorMultiPlayers</text>
</g>
<!-- 6&#45;&gt;9 -->
<g id="edge10" class="edge"><title>6&#45;&gt;9</title>
<path fill="none" stroke="black" d="M2844.73,-108.124C2826.54,-117.488 2803.81,-129.186 2784.36,-139.197"/>
<polygon fill="black" stroke="black" points="2775.4,-143.81 2782.23,-135.233 2779.84,-141.522 2784.29,-139.234 2784.29,-139.234 2784.29,-139.234 2779.84,-141.522 2786.35,-143.235 2775.4,-143.81 2775.4,-143.81"/>
</g>
<!-- 10 -->
<g id="node11" class="node"><title>10</title>
<polygon fill="none" stroke="black" points="2939.5,-252 2816.5,-252 2816.5,-216 2939.5,-216 2939.5,-252"/>
<text text-anchor="middle" x="2878" y="-230.3" font-family="Times,serif" font-size="14.00">Environment.MAB</text>
</g>
<!-- 6&#45;&gt;10 -->
<g id="edge11" class="edge"><title>6&#45;&gt;10</title>
<path fill="none" stroke="black" d="M2878,-108.129C2878,-132.33 2878,-176.789 2878,-205.607"/>
<polygon fill="black" stroke="black" points="2878,-215.811 2873.5,-205.811 2878,-210.811 2878,-205.811 2878,-205.811 2878,-205.811 2878,-210.811 2882.5,-205.811 2878,-215.811 2878,-215.811"/>
</g>
<!-- 11 -->
<g id="node12" class="node"><title>11</title>
<polygon fill="none" stroke="black" points="3256,-252 3130,-252 3130,-216 3256,-216 3256,-252"/>
<text text-anchor="middle" x="3193" y="-230.3" font-family="Times,serif" font-size="14.00">Environment.Result</text>
</g>
<!-- 6&#45;&gt;11 -->
<g id="edge12" class="edge"><title>6&#45;&gt;11</title>
<path fill="none" stroke="black" d="M2922.12,-99.9912C2959.62,-108.545 3014.32,-123.208 3059,-144 3097.38,-161.863 3137.3,-189.779 3163.47,-209.578"/>
<polygon fill="black" stroke="black" points="3171.46,-215.698 3160.79,-213.193 3167.49,-212.659 3163.52,-209.619 3163.52,-209.619 3163.52,-209.619 3167.49,-212.659 3166.26,-206.046 3171.46,-215.698 3171.46,-215.698"/>
</g>
<!-- 7 -->
<g id="node8" class="node"><title>7</title>
<polygon fill="none" stroke="black" points="2583,-252 2401,-252 2401,-216 2583,-216 2583,-252"/>
<text text-anchor="middle" x="2492" y="-230.3" font-family="Times,serif" font-size="14.00">Environment.CollisionModels</text>
</g>
<!-- 8&#45;&gt;10 -->
<g id="edge13" class="edge"><title>8&#45;&gt;10</title>
<path fill="none" stroke="black" d="M2953.54,-180.124C2940.7,-189.107 2924.8,-200.237 2910.91,-209.966"/>
<polygon fill="black" stroke="black" points="2902.56,-215.81 2908.17,-206.389 2906.65,-212.943 2910.75,-210.076 2910.75,-210.076 2910.75,-210.076 2906.65,-212.943 2913.33,-213.762 2902.56,-215.81 2902.56,-215.81"/>
</g>
<!-- 8&#45;&gt;11 -->
<g id="edge14" class="edge"><title>8&#45;&gt;11</title>
<path fill="none" stroke="black" d="M3030.32,-180.034C3060.62,-189.9 3098.95,-202.378 3130.79,-212.745"/>
<polygon fill="black" stroke="black" points="3140.45,-215.889 3129.54,-217.072 3135.69,-214.341 3130.94,-212.793 3130.94,-212.793 3130.94,-212.793 3135.69,-214.341 3132.33,-208.514 3140.45,-215.889 3140.45,-215.889"/>
</g>
<!-- 13 -->
<g id="node14" class="node"><title>13</title>
<polygon fill="none" stroke="black" points="3112,-252 2958,-252 2958,-216 3112,-216 3112,-252"/>
<text text-anchor="middle" x="3035" y="-230.3" font-family="Times,serif" font-size="14.00">Environment.plotsettings</text>
</g>
<!-- 8&#45;&gt;13 -->
<g id="edge15" class="edge"><title>8&#45;&gt;13</title>
<path fill="none" stroke="black" d="M2992.09,-180.303C2998.92,-188.695 3007.26,-198.93 3014.76,-208.139"/>
<polygon fill="black" stroke="black" points="3021.07,-215.896 3011.27,-210.983 3017.92,-212.018 3014.76,-208.141 3014.76,-208.141 3014.76,-208.141 3017.92,-212.018 3018.25,-205.3 3021.07,-215.896 3021.07,-215.896"/>
</g>
<!-- 9&#45;&gt;7 -->
<g id="edge16" class="edge"><title>9&#45;&gt;7</title>
<path fill="none" stroke="black" d="M2681.16,-180.034C2645.47,-190.028 2600.21,-202.702 2562.91,-213.146"/>
<polygon fill="black" stroke="black" points="2553.11,-215.889 2561.53,-208.859 2557.92,-214.541 2562.74,-213.193 2562.74,-213.193 2562.74,-213.193 2557.92,-214.541 2563.95,-217.526 2553.11,-215.889 2553.11,-215.889"/>
</g>
<!-- 9&#45;&gt;10 -->
<g id="edge17" class="edge"><title>9&#45;&gt;10</title>
<path fill="none" stroke="black" d="M2775.27,-180.124C2793.46,-189.488 2816.19,-201.186 2835.64,-211.197"/>
<polygon fill="black" stroke="black" points="2844.6,-215.81 2833.65,-215.235 2840.16,-213.522 2835.71,-211.234 2835.71,-211.234 2835.71,-211.234 2840.16,-213.522 2837.77,-207.233 2844.6,-215.81 2844.6,-215.81"/>
</g>
<!-- 12 -->
<g id="node13" class="node"><title>12</title>
<polygon fill="none" stroke="black" points="2798.5,-252 2601.5,-252 2601.5,-216 2798.5,-216 2798.5,-252"/>
<text text-anchor="middle" x="2700" y="-230.3" font-family="Times,serif" font-size="14.00">Environment.ResultMultiPlayers</text>
</g>
<!-- 9&#45;&gt;12 -->
<g id="edge18" class="edge"><title>9&#45;&gt;12</title>
<path fill="none" stroke="black" d="M2731.62,-180.303C2726.74,-188.441 2720.81,-198.311 2715.42,-207.299"/>
<polygon fill="black" stroke="black" points="2710.26,-215.896 2711.55,-205.005 2712.84,-211.608 2715.41,-207.321 2715.41,-207.321 2715.41,-207.321 2712.84,-211.608 2719.27,-209.636 2710.26,-215.896 2710.26,-215.896"/>
</g>
<!-- 9&#45;&gt;13 -->
<g id="edge19" class="edge"><title>9&#45;&gt;13</title>
<path fill="none" stroke="black" d="M2813.3,-180.034C2855.74,-190.174 2909.74,-203.073 2953.81,-213.604"/>
<polygon fill="black" stroke="black" points="2963.63,-215.95 2952.86,-218.003 2958.77,-214.788 2953.91,-213.626 2953.91,-213.626 2953.91,-213.626 2958.77,-214.788 2954.95,-209.249 2963.63,-215.95 2963.63,-215.95"/>
</g>
<!-- 14 -->
<g id="node15" class="node"><title>14</title>
<polygon fill="none" stroke="black" points="1133.5,-180 1074.5,-180 1074.5,-144 1133.5,-144 1133.5,-180"/>
<text text-anchor="middle" x="1104" y="-158.3" font-family="Times,serif" font-size="14.00">Policies</text>
</g>
<!-- 15 -->
<g id="node16" class="node"><title>15</title>
<polygon fill="none" stroke="black" points="134.5,-324 13.5,-324 13.5,-288 134.5,-288 134.5,-324"/>
<text text-anchor="middle" x="74" y="-302.3" font-family="Times,serif" font-size="14.00">Policies.AdBandits</text>
</g>
<!-- 14&#45;&gt;15 -->
<g id="edge20" class="edge"><title>14&#45;&gt;15</title>
<path fill="none" stroke="black" d="M1074.26,-163.987C917.37,-169.28 191.389,-194.84 149,-216 121.755,-229.6 100.597,-258.03 87.8005,-279.116"/>
<polygon fill="black" stroke="black" points="82.6763,-287.924 83.8158,-277.017 85.1908,-283.602 87.7053,-279.28 87.7053,-279.28 87.7053,-279.28 85.1908,-283.602 91.5949,-281.543 82.6763,-287.924 82.6763,-287.924"/>
</g>
<!-- 16 -->
<g id="node17" class="node"><title>16</title>
<polygon fill="none" stroke="black" points="376.5,-396 285.5,-396 285.5,-360 376.5,-360 376.5,-396"/>
<text text-anchor="middle" x="331" y="-374.3" font-family="Times,serif" font-size="14.00">Policies.Aggr</text>
</g>
<!-- 14&#45;&gt;16 -->
<g id="edge21" class="edge"><title>14&#45;&gt;16</title>
<path fill="none" stroke="black" d="M1074.09,-163.742C927.25,-167.528 288.457,-185.7 260,-216 251.046,-225.534 247.195,-294.983 262,-324 268.127,-336.009 278.368,-346.086 289.111,-354.119"/>
<polygon fill="black" stroke="black" points="297.363,-359.862 286.585,-357.843 293.259,-357.006 289.155,-354.15 289.155,-354.15 289.155,-354.15 293.259,-357.006 291.725,-350.456 297.363,-359.862 297.363,-359.862"/>
</g>
<!-- 18 -->
<g id="node19" class="node"><title>18</title>
<polygon fill="none" stroke="black" points="429,-252 305,-252 305,-216 429,-216 429,-252"/>
<text text-anchor="middle" x="367" y="-230.3" font-family="Times,serif" font-size="14.00">Policies.BayesUCB</text>
</g>
<!-- 14&#45;&gt;18 -->
<g id="edge22" class="edge"><title>14&#45;&gt;18</title>
<path fill="none" stroke="black" d="M1074.26,-163.719C981.566,-166.306 689.564,-177.075 439.238,-215.948"/>
<polygon fill="black" stroke="black" points="429.228,-217.521 438.408,-211.523 434.168,-216.745 439.107,-215.969 439.107,-215.969 439.107,-215.969 434.168,-216.745 439.806,-220.414 429.228,-217.521 429.228,-217.521"/>
</g>
<!-- 21 -->
<g id="node22" class="node"><title>21</title>
<polygon fill="none" stroke="black" points="572.5,-396 407.5,-396 407.5,-360 572.5,-360 572.5,-396"/>
<text text-anchor="middle" x="490" y="-374.3" font-family="Times,serif" font-size="14.00">Policies.EpsilonDecreasing</text>
</g>
<!-- 14&#45;&gt;21 -->
<g id="edge23" class="edge"><title>14&#45;&gt;21</title>
<path fill="none" stroke="black" d="M1074.07,-163.773C928.582,-167.673 300.975,-186.184 273,-216 260.733,-229.075 258.648,-301.819 277,-324 285.176,-333.881 343.654,-348.026 397.27,-359.218"/>
<polygon fill="black" stroke="black" points="407.211,-361.272 396.508,-363.656 402.315,-360.261 397.418,-359.249 397.418,-359.249 397.418,-359.249 402.315,-360.261 398.328,-354.842 407.211,-361.272 407.211,-361.272"/>
</g>
<!-- 22 -->
<g id="node23" class="node"><title>22</title>
<polygon fill="none" stroke="black" points="725.5,-396 596.5,-396 596.5,-360 725.5,-360 725.5,-396"/>
<text text-anchor="middle" x="661" y="-374.3" font-family="Times,serif" font-size="14.00">Policies.EpsilonFirst</text>
</g>
<!-- 14&#45;&gt;22 -->
<g id="edge24" class="edge"><title>14&#45;&gt;22</title>
<path fill="none" stroke="black" d="M1074.03,-163.803C929.746,-167.811 312.528,-186.633 285,-216 269.173,-232.885 278.576,-307.785 295,-324 340.584,-369.005 517.837,-349.333 581,-360 582.733,-360.293 584.485,-360.597 586.25,-360.91"/>
<polygon fill="black" stroke="black" points="596.468,-362.8 585.817,-365.406 591.552,-361.891 586.635,-360.981 586.635,-360.981 586.635,-360.981 591.552,-361.891 587.453,-356.556 596.468,-362.8 596.468,-362.8"/>
</g>
<!-- 23 -->
<g id="node24" class="node"><title>23</title>
<polygon fill="none" stroke="black" points="891,-396 747,-396 747,-360 891,-360 891,-396"/>
<text text-anchor="middle" x="819" y="-374.3" font-family="Times,serif" font-size="14.00">Policies.EpsilonGreedy</text>
</g>
<!-- 14&#45;&gt;23 -->
<g id="edge25" class="edge"><title>14&#45;&gt;23</title>
<path fill="none" stroke="black" d="M1074.43,-163.819C932.084,-167.9 323.147,-187.014 296,-216 273.944,-239.551 305.883,-314.196 318,-324 390.134,-382.366 642.142,-346.881 734,-360 734.913,-360.13 735.83,-360.264 736.752,-360.401"/>
<polygon fill="black" stroke="black" points="746.755,-361.983 736.174,-364.866 741.816,-361.202 736.877,-360.421 736.877,-360.421 736.877,-360.421 741.816,-361.202 737.58,-355.976 746.755,-361.983 746.755,-361.983"/>
</g>
<!-- 26 -->
<g id="node27" class="node"><title>26</title>
<polygon fill="none" stroke="black" points="1678,-396 1574,-396 1574,-360 1678,-360 1678,-396"/>
<text text-anchor="middle" x="1626" y="-374.3" font-family="Times,serif" font-size="14.00">Policies.MEGA</text>
</g>
<!-- 14&#45;&gt;26 -->
<g id="edge26" class="edge"><title>14&#45;&gt;26</title>
<path fill="none" stroke="black" d="M1133.58,-162.898C1262.03,-162.756 1767.07,-165.435 1814,-216 1865.62,-271.614 1756.59,-327.103 1683.97,-356.183"/>
<polygon fill="black" stroke="black" points="1674.43,-359.937 1682.08,-352.089 1679.08,-358.107 1683.73,-356.276 1683.73,-356.276 1683.73,-356.276 1679.08,-358.107 1685.38,-360.464 1674.43,-359.937 1674.43,-359.937"/>
</g>
<!-- 27 -->
<g id="node28" class="node"><title>27</title>
<polygon fill="none" stroke="black" points="779.5,-324 678.5,-324 678.5,-288 779.5,-288 779.5,-324"/>
<text text-anchor="middle" x="729" y="-302.3" font-family="Times,serif" font-size="14.00">Policies.MOSS</text>
</g>
<!-- 14&#45;&gt;27 -->
<g id="edge27" class="edge"><title>14&#45;&gt;27</title>
<path fill="none" stroke="black" d="M1074.19,-164.17C976.681,-168.3 671.784,-183.717 643,-216 632.352,-227.942 635.2,-238.03 643,-252 650.225,-264.939 662.05,-275.111 674.651,-282.933"/>
<polygon fill="black" stroke="black" points="683.453,-287.977 672.539,-286.908 679.115,-285.491 674.777,-283.004 674.777,-283.004 674.777,-283.004 679.115,-285.491 677.014,-279.1 683.453,-287.977 683.453,-287.977"/>
</g>
<!-- 28 -->
<g id="node29" class="node"><title>28</title>
<polygon fill="none" stroke="black" points="1834.5,-396 1697.5,-396 1697.5,-360 1834.5,-360 1834.5,-396"/>
<text text-anchor="middle" x="1766" y="-374.3" font-family="Times,serif" font-size="14.00">Policies.MusicalChair</text>
</g>
<!-- 14&#45;&gt;28 -->
<g id="edge28" class="edge"><title>14&#45;&gt;28</title>
<path fill="none" stroke="black" d="M1133.57,-162.83C1264.36,-162.381 1786.52,-163.883 1835,-216 1871.97,-255.747 1823.84,-318.34 1791.31,-352.596"/>
<polygon fill="black" stroke="black" points="1784.24,-359.86 1787.99,-349.555 1787.72,-356.277 1791.21,-352.694 1791.21,-352.694 1791.21,-352.694 1787.72,-356.277 1794.44,-355.832 1784.24,-359.86 1784.24,-359.86"/>
</g>
<!-- 30 -->
<g id="node31" class="node"><title>30</title>
<polygon fill="none" stroke="black" points="1963,-396 1853,-396 1853,-360 1963,-360 1963,-396"/>
<text text-anchor="middle" x="1908" y="-374.3" font-family="Times,serif" font-size="14.00">Policies.Softmax</text>
</g>
<!-- 14&#45;&gt;30 -->
<g id="edge29" class="edge"><title>14&#45;&gt;30</title>
<path fill="none" stroke="black" d="M1133.61,-163.159C1265.82,-164.124 1798.3,-170.81 1856,-216 1897.04,-248.143 1906.17,-313.101 1907.91,-349.924"/>
<polygon fill="black" stroke="black" points="1908.23,-359.948 1903.41,-350.098 1908.07,-354.951 1907.91,-349.953 1907.91,-349.953 1907.91,-349.953 1908.07,-354.951 1912.41,-349.809 1908.23,-359.948 1908.23,-359.948"/>
</g>
<!-- 31 -->
<g id="node32" class="node"><title>31</title>
<polygon fill="none" stroke="black" points="2083,-324 1937,-324 1937,-288 2083,-288 2083,-324"/>
<text text-anchor="middle" x="2010" y="-302.3" font-family="Times,serif" font-size="14.00">Policies.TakeFixedArm</text>
</g>
<!-- 14&#45;&gt;31 -->
<g id="edge30" class="edge"><title>14&#45;&gt;31</title>
<path fill="none" stroke="black" d="M1133.92,-163.671C1272.7,-166.955 1850.17,-182.538 1923,-216 1938.79,-223.254 1969.07,-256.517 1989.41,-280.248"/>
<polygon fill="black" stroke="black" points="1995.89,-287.88 1985.99,-283.17 1992.66,-284.068 1989.42,-280.257 1989.42,-280.257 1989.42,-280.257 1992.66,-284.068 1992.85,-277.344 1995.89,-287.88 1995.89,-287.88"/>
</g>
<!-- 32 -->
<g id="node33" class="node"><title>32</title>
<polygon fill="none" stroke="black" points="2168.5,-252 1975.5,-252 1975.5,-216 2168.5,-216 2168.5,-252"/>
<text text-anchor="middle" x="2072" y="-230.3" font-family="Times,serif" font-size="14.00">Policies.TakeRandomFixedArm</text>
</g>
<!-- 14&#45;&gt;32 -->
<g id="edge31" class="edge"><title>14&#45;&gt;32</title>
<path fill="none" stroke="black" d="M1133.68,-163.865C1243.61,-167.276 1637.88,-181.337 1961,-216 1962.31,-216.14 1963.63,-216.285 1964.95,-216.434"/>
<polygon fill="black" stroke="black" points="1975.21,-217.65 1964.75,-220.941 1970.24,-217.061 1965.28,-216.473 1965.28,-216.473 1965.28,-216.473 1970.24,-217.061 1965.81,-212.004 1975.21,-217.65 1975.21,-217.65"/>
</g>
<!-- 33 -->
<g id="node34" class="node"><title>33</title>
<polygon fill="none" stroke="black" points="569,-252 447,-252 447,-216 569,-216 569,-252"/>
<text text-anchor="middle" x="508" y="-230.3" font-family="Times,serif" font-size="14.00">Policies.Thompson</text>
</g>
<!-- 14&#45;&gt;33 -->
<g id="edge32" class="edge"><title>14&#45;&gt;33</title>
<path fill="none" stroke="black" d="M1074.46,-164.743C994.743,-169.717 768.732,-185.619 583,-216 581.74,-216.206 580.47,-216.421 579.191,-216.642"/>
<polygon fill="black" stroke="black" points="569.276,-218.473 578.293,-212.232 574.193,-217.565 579.11,-216.657 579.11,-216.657 579.11,-216.657 574.193,-217.565 579.927,-221.083 569.276,-218.473 569.276,-218.473"/>
</g>
<!-- 34 -->
<g id="node35" class="node"><title>34</title>
<polygon fill="none" stroke="black" points="1020.5,-324 929.5,-324 929.5,-288 1020.5,-288 1020.5,-324"/>
<text text-anchor="middle" x="975" y="-302.3" font-family="Times,serif" font-size="14.00">Policies.UCB</text>
</g>
<!-- 14&#45;&gt;34 -->
<g id="edge33" class="edge"><title>14&#45;&gt;34</title>
<path fill="none" stroke="black" d="M1074.23,-164.257C978.323,-168.607 681.997,-184.512 654,-216 643.369,-227.957 643.649,-239.8 654,-252 670.96,-271.99 832.137,-290.86 919.441,-299.721"/>
<polygon fill="black" stroke="black" points="929.45,-300.726 919.051,-304.205 924.475,-300.227 919.5,-299.727 919.5,-299.727 919.5,-299.727 924.475,-300.227 919.95,-295.25 929.45,-300.726 929.45,-300.726"/>
</g>
<!-- 35 -->
<g id="node36" class="node"><title>35</title>
<polygon fill="none" stroke="black" points="764.5,-252 663.5,-252 663.5,-216 764.5,-216 764.5,-252"/>
<text text-anchor="middle" x="714" y="-230.3" font-family="Times,serif" font-size="14.00">Policies.UCBV</text>
</g>
<!-- 14&#45;&gt;35 -->
<g id="edge34" class="edge"><title>14&#45;&gt;35</title>
<path fill="none" stroke="black" d="M1074.2,-166.599C1017.66,-173.681 890.818,-190.783 774.423,-216.054"/>
<polygon fill="black" stroke="black" points="764.633,-218.204 773.435,-211.664 769.517,-217.132 774.4,-216.059 774.4,-216.059 774.4,-216.059 769.517,-217.132 775.366,-220.454 764.633,-218.204 764.633,-218.204"/>
</g>
<!-- 36 -->
<g id="node37" class="node"><title>36</title>
<polygon fill="none" stroke="black" points="903,-252 783,-252 783,-216 903,-216 903,-252"/>
<text text-anchor="middle" x="843" y="-230.3" font-family="Times,serif" font-size="14.00">Policies.UCBalpha</text>
</g>
<!-- 14&#45;&gt;36 -->
<g id="edge35" class="edge"><title>14&#45;&gt;36</title>
<path fill="none" stroke="black" d="M1074.31,-170.962C1035.34,-181.414 965.693,-200.094 912.974,-214.233"/>
<polygon fill="black" stroke="black" points="903.005,-216.907 911.498,-209.97 907.834,-215.611 912.664,-214.316 912.664,-214.316 912.664,-214.316 907.834,-215.611 913.829,-218.663 903.005,-216.907 903.005,-216.907"/>
</g>
<!-- 37 -->
<g id="node38" class="node"><title>37</title>
<polygon fill="none" stroke="black" points="1029,-252 921,-252 921,-216 1029,-216 1029,-252"/>
<text text-anchor="middle" x="975" y="-230.3" font-family="Times,serif" font-size="14.00">Policies.UCBopt</text>
</g>
<!-- 14&#45;&gt;37 -->
<g id="edge36" class="edge"><title>14&#45;&gt;37</title>
<path fill="none" stroke="black" d="M1074.4,-179.059C1057.02,-188.495 1034.79,-200.557 1015.76,-210.882"/>
<polygon fill="black" stroke="black" points="1006.71,-215.792 1013.35,-207.067 1011.11,-213.407 1015.5,-211.023 1015.5,-211.023 1015.5,-211.023 1011.11,-213.407 1017.65,-214.978 1006.71,-215.792 1006.71,-215.792"/>
</g>
<!-- 38 -->
<g id="node39" class="node"><title>38</title>
<polygon fill="none" stroke="black" points="1160.5,-252 1047.5,-252 1047.5,-216 1160.5,-216 1160.5,-252"/>
<text text-anchor="middle" x="1104" y="-230.3" font-family="Times,serif" font-size="14.00">Policies.UCBplus</text>
</g>
<!-- 14&#45;&gt;38 -->
<g id="edge37" class="edge"><title>14&#45;&gt;38</title>
<path fill="none" stroke="black" d="M1104,-180.303C1104,-188.017 1104,-197.288 1104,-205.888"/>
<polygon fill="black" stroke="black" points="1104,-215.896 1099.5,-205.896 1104,-210.896 1104,-205.896 1104,-205.896 1104,-205.896 1104,-210.896 1108.5,-205.896 1104,-215.896 1104,-215.896"/>
</g>
<!-- 39 -->
<g id="node40" class="node"><title>39</title>
<polygon fill="none" stroke="black" points="1331,-252 1179,-252 1179,-216 1331,-216 1331,-252"/>
<text text-anchor="middle" x="1255" y="-230.3" font-family="Times,serif" font-size="14.00">Policies.UCBrandomInit</text>
</g>
<!-- 14&#45;&gt;39 -->
<g id="edge38" class="edge"><title>14&#45;&gt;39</title>
<path fill="none" stroke="black" d="M1133.83,-176.83C1155.32,-186.793 1184.73,-200.422 1209.18,-211.76"/>
<polygon fill="black" stroke="black" points="1218.29,-215.981 1207.32,-215.858 1213.75,-213.878 1209.21,-211.775 1209.21,-211.775 1209.21,-211.775 1213.75,-213.878 1211.11,-207.692 1218.29,-215.981 1218.29,-215.981"/>
</g>
<!-- 40 -->
<g id="node41" class="node"><title>40</title>
<polygon fill="none" stroke="black" points="1470.5,-252 1349.5,-252 1349.5,-216 1470.5,-216 1470.5,-252"/>
<text text-anchor="middle" x="1410" y="-230.3" font-family="Times,serif" font-size="14.00">Policies.UCBtuned</text>
</g>
<!-- 14&#45;&gt;40 -->
<g id="edge39" class="edge"><title>14&#45;&gt;40</title>
<path fill="none" stroke="black" d="M1133.84,-169.528C1176.91,-178.986 1259.23,-197.208 1339.53,-215.91"/>
<polygon fill="black" stroke="black" points="1349.31,-218.193 1338.55,-220.302 1344.44,-217.056 1339.57,-215.92 1339.57,-215.92 1339.57,-215.92 1344.44,-217.056 1340.59,-211.537 1349.31,-218.193 1349.31,-218.193"/>
</g>
<!-- 41 -->
<g id="node42" class="node"><title>41</title>
<polygon fill="none" stroke="black" points="2252,-324 2142,-324 2142,-288 2252,-288 2252,-324"/>
<text text-anchor="middle" x="2197" y="-302.3" font-family="Times,serif" font-size="14.00">Policies.Uniform</text>
</g>
<!-- 14&#45;&gt;41 -->
<g id="edge40" class="edge"><title>14&#45;&gt;41</title>
<path fill="none" stroke="black" d="M1133.69,-163.461C1302.55,-166.206 2135.97,-181.474 2177,-216 2194.56,-230.78 2198.65,-257.356 2198.89,-277.631"/>
<polygon fill="black" stroke="black" points="2198.7,-287.847 2194.39,-277.766 2198.79,-282.848 2198.89,-277.849 2198.89,-277.849 2198.89,-277.849 2198.79,-282.848 2203.39,-277.931 2198.7,-287.847 2198.7,-287.847"/>
</g>
<!-- 42 -->
<g id="node43" class="node"><title>42</title>
<polygon fill="none" stroke="black" points="2383,-252 2225,-252 2225,-216 2383,-216 2383,-252"/>
<text text-anchor="middle" x="2304" y="-230.3" font-family="Times,serif" font-size="14.00">Policies.UniformOnSome</text>
</g>
<!-- 14&#45;&gt;42 -->
<g id="edge41" class="edge"><title>14&#45;&gt;42</title>
<path fill="none" stroke="black" d="M1133.62,-162.976C1262.28,-163.174 1785.21,-167.11 2211,-216 2212.28,-216.147 2213.58,-216.302 2214.88,-216.463"/>
<polygon fill="black" stroke="black" points="2224.96,-217.813 2214.45,-220.946 2220,-217.149 2215.05,-216.485 2215.05,-216.485 2215.05,-216.485 2220,-217.149 2215.65,-212.025 2224.96,-217.813 2224.96,-217.813"/>
</g>
<!-- 43 -->
<g id="node44" class="node"><title>43</title>
<polygon fill="none" stroke="black" points="1549.5,-324 1448.5,-324 1448.5,-288 1549.5,-288 1549.5,-324"/>
<text text-anchor="middle" x="1499" y="-302.3" font-family="Times,serif" font-size="14.00">Policies.klUCB</text>
</g>
<!-- 14&#45;&gt;43 -->
<g id="edge42" class="edge"><title>14&#45;&gt;43</title>
<path fill="none" stroke="black" d="M1133.59,-163.003C1213.11,-163.64 1428.8,-169.691 1479,-216 1495.77,-231.473 1500,-257.727 1500.49,-277.721"/>
<polygon fill="black" stroke="black" points="1500.45,-287.796 1495.99,-277.776 1500.47,-282.797 1500.49,-277.797 1500.49,-277.797 1500.49,-277.797 1500.47,-282.797 1504.99,-277.817 1500.45,-287.796 1500.45,-287.796"/>
</g>
<!-- 44 -->
<g id="node45" class="node"><title>44</title>
<polygon fill="none" stroke="black" points="1805,-252 1671,-252 1671,-216 1805,-216 1805,-252"/>
<text text-anchor="middle" x="1738" y="-230.3" font-family="Times,serif" font-size="14.00">Policies.klUCBHPlus</text>
</g>
<!-- 14&#45;&gt;44 -->
<g id="edge43" class="edge"><title>14&#45;&gt;44</title>
<path fill="none" stroke="black" d="M1133.75,-164.545C1217.28,-169.16 1460.93,-184.517 1661,-216 1661.1,-216.016 1661.2,-216.032 1661.3,-216.048"/>
<polygon fill="black" stroke="black" points="1670.9,-217.679 1660.29,-220.44 1665.97,-216.841 1661.04,-216.003 1661.04,-216.003 1661.04,-216.003 1665.97,-216.841 1661.8,-211.567 1670.9,-217.679 1670.9,-217.679"/>
</g>
<!-- 45 -->
<g id="node46" class="node"><title>45</title>
<polygon fill="none" stroke="black" points="1652.5,-252 1527.5,-252 1527.5,-216 1652.5,-216 1652.5,-252"/>
<text text-anchor="middle" x="1590" y="-230.3" font-family="Times,serif" font-size="14.00">Policies.klUCBPlus</text>
</g>
<!-- 14&#45;&gt;45 -->
<g id="edge44" class="edge"><title>14&#45;&gt;45</title>
<path fill="none" stroke="black" d="M1133.65,-165.933C1201.23,-172.816 1371.76,-191.307 1513,-216 1514.47,-216.258 1515.96,-216.525 1517.46,-216.799"/>
<polygon fill="black" stroke="black" points="1527.48,-218.711 1516.81,-221.256 1522.57,-217.773 1517.65,-216.836 1517.65,-216.836 1517.65,-216.836 1522.57,-217.773 1518.5,-212.415 1527.48,-218.711 1527.48,-218.711"/>
</g>
<!-- 17 -->
<g id="node18" class="node"><title>17</title>
<polygon fill="none" stroke="black" points="1037,-468 913,-468 913,-432 1037,-432 1037,-468"/>
<text text-anchor="middle" x="975" y="-446.3" font-family="Times,serif" font-size="14.00">Policies.BasePolicy</text>
</g>
<!-- 15&#45;&gt;17 -->
<g id="edge45" class="edge"><title>15&#45;&gt;17</title>
<path fill="none" stroke="black" d="M81.9887,-324.015C92.9143,-345.105 114.679,-380.191 145,-396 211.239,-430.535 712.759,-443.869 902.54,-447.712"/>
<polygon fill="black" stroke="black" points="912.694,-447.914 902.607,-452.214 907.695,-447.814 902.696,-447.715 902.696,-447.715 902.696,-447.715 907.695,-447.814 902.786,-443.216 912.694,-447.914 912.694,-447.914"/>
</g>
<!-- 20 -->
<g id="node21" class="node"><title>20</title>
<polygon fill="none" stroke="black" points="242,-396 154,-396 154,-360 242,-360 242,-396"/>
<text text-anchor="middle" x="198" y="-374.3" font-family="Times,serif" font-size="14.00">Policies.Beta</text>
</g>
<!-- 15&#45;&gt;20 -->
<g id="edge46" class="edge"><title>15&#45;&gt;20</title>
<path fill="none" stroke="black" d="M104.334,-324.124C120.697,-333.361 141.083,-344.869 158.654,-354.788"/>
<polygon fill="black" stroke="black" points="167.55,-359.81 156.629,-358.813 163.195,-357.352 158.841,-354.894 158.841,-354.894 158.841,-354.894 163.195,-357.352 161.054,-350.976 167.55,-359.81 167.55,-359.81"/>
</g>
<!-- 16&#45;&gt;17 -->
<g id="edge47" class="edge"><title>16&#45;&gt;17</title>
<path fill="none" stroke="black" d="M376.567,-391.579C383.701,-393.253 391.022,-394.802 398,-396 577.847,-426.88 792.529,-440.609 902.378,-445.988"/>
<polygon fill="black" stroke="black" points="912.677,-446.483 902.472,-450.497 907.682,-446.243 902.688,-446.003 902.688,-446.003 902.688,-446.003 907.682,-446.243 902.904,-441.508 912.677,-446.483 912.677,-446.483"/>
</g>
<!-- 19 -->
<g id="node20" class="node"><title>19</title>
<polygon fill="none" stroke="black" points="505,-324 327,-324 327,-288 505,-288 505,-324"/>
<text text-anchor="middle" x="416" y="-302.3" font-family="Times,serif" font-size="14.00">Policies.BayesianIndexPolicy</text>
</g>
<!-- 18&#45;&gt;19 -->
<g id="edge48" class="edge"><title>18&#45;&gt;19</title>
<path fill="none" stroke="black" d="M379.112,-252.303C384.868,-260.526 391.862,-270.517 398.206,-279.579"/>
<polygon fill="black" stroke="black" points="404.027,-287.896 394.606,-282.284 401.16,-283.799 398.292,-279.703 398.292,-279.703 398.292,-279.703 401.16,-283.799 401.979,-277.123 404.027,-287.896 404.027,-287.896"/>
</g>
<!-- 19&#45;&gt;20 -->
<g id="edge49" class="edge"><title>19&#45;&gt;20</title>
<path fill="none" stroke="black" d="M362.95,-324.034C329.225,-334.863 285.697,-348.84 251.824,-359.717"/>
<polygon fill="black" stroke="black" points="242.094,-362.841 250.239,-355.499 246.855,-361.313 251.615,-359.784 251.615,-359.784 251.615,-359.784 246.855,-361.313 252.991,-364.069 242.094,-362.841 242.094,-362.841"/>
</g>
<!-- 24 -->
<g id="node25" class="node"><title>24</title>
<polygon fill="none" stroke="black" points="1039,-396 911,-396 911,-360 1039,-360 1039,-396"/>
<text text-anchor="middle" x="975" y="-374.3" font-family="Times,serif" font-size="14.00">Policies.IndexPolicy</text>
</g>
<!-- 19&#45;&gt;24 -->
<g id="edge50" class="edge"><title>19&#45;&gt;24</title>
<path fill="none" stroke="black" d="M505.179,-313.704C602.607,-321.739 763.068,-337.06 900,-360 900.333,-360.056 900.667,-360.112 901.002,-360.169"/>
<polygon fill="black" stroke="black" points="910.861,-361.957 900.219,-364.6 905.942,-361.065 901.022,-360.173 901.022,-360.173 901.022,-360.173 905.942,-361.065 901.825,-355.745 910.861,-361.957 910.861,-361.957"/>
</g>
<!-- 29 -->
<g id="node30" class="node"><title>29</title>
<polygon fill="none" stroke="black" points="254,-468 142,-468 142,-432 254,-432 254,-468"/>
<text text-anchor="middle" x="198" y="-446.3" font-family="Times,serif" font-size="14.00">Policies.Posterior</text>
</g>
<!-- 20&#45;&gt;29 -->
<g id="edge51" class="edge"><title>20&#45;&gt;29</title>
<path fill="none" stroke="black" d="M198,-396.303C198,-404.017 198,-413.288 198,-421.888"/>
<polygon fill="black" stroke="black" points="198,-431.896 193.5,-421.896 198,-426.896 198,-421.896 198,-421.896 198,-421.896 198,-426.896 202.5,-421.896 198,-431.896 198,-431.896"/>
</g>
<!-- 21&#45;&gt;17 -->
<g id="edge52" class="edge"><title>21&#45;&gt;17</title>
<path fill="none" stroke="black" d="M572.517,-393.68C577.414,-394.483 582.27,-395.263 587,-396 696.774,-413.111 824.501,-429.972 902.532,-439.931"/>
<polygon fill="black" stroke="black" points="912.735,-441.23 902.247,-444.431 907.775,-440.599 902.815,-439.967 902.815,-439.967 902.815,-439.967 907.775,-440.599 903.384,-435.503 912.735,-441.23 912.735,-441.23"/>
</g>
<!-- 22&#45;&gt;17 -->
<g id="edge53" class="edge"><title>22&#45;&gt;17</title>
<path fill="none" stroke="black" d="M725.68,-393.419C777.206,-404.906 849.307,-420.979 902.726,-432.888"/>
<polygon fill="black" stroke="black" points="912.811,-435.136 902.071,-437.352 907.931,-434.048 903.051,-432.96 903.051,-432.96 903.051,-432.96 907.931,-434.048 904.03,-428.568 912.811,-435.136 912.811,-435.136"/>
</g>
<!-- 23&#45;&gt;17 -->
<g id="edge54" class="edge"><title>23&#45;&gt;17</title>
<path fill="none" stroke="black" d="M857.162,-396.124C878.393,-405.651 905.008,-417.593 927.569,-427.717"/>
<polygon fill="black" stroke="black" points="936.962,-431.932 925.996,-431.943 932.4,-429.885 927.838,-427.838 927.838,-427.838 927.838,-427.838 932.4,-429.885 929.681,-423.732 936.962,-431.932 936.962,-431.932"/>
</g>
<!-- 24&#45;&gt;17 -->
<g id="edge55" class="edge"><title>24&#45;&gt;17</title>
<path fill="none" stroke="black" d="M975,-396.303C975,-404.017 975,-413.288 975,-421.888"/>
<polygon fill="black" stroke="black" points="975,-431.896 970.5,-421.896 975,-426.896 975,-421.896 975,-421.896 975,-421.896 975,-426.896 979.5,-421.896 975,-431.896 975,-431.896"/>
</g>
<!-- 25 -->
<g id="node26" class="node"><title>25</title>
<polygon fill="none" stroke="black" points="1300.5,-324 1167.5,-324 1167.5,-288 1300.5,-288 1300.5,-324"/>
<text text-anchor="middle" x="1234" y="-302.3" font-family="Times,serif" font-size="14.00">Policies.KLempUCB</text>
</g>
<!-- 25&#45;&gt;24 -->
<g id="edge56" class="edge"><title>25&#45;&gt;24</title>
<path fill="none" stroke="black" d="M1170.97,-324.034C1133.84,-334.07 1086.7,-346.81 1047.97,-357.279"/>
<polygon fill="black" stroke="black" points="1038.31,-359.889 1046.79,-352.936 1043.14,-358.585 1047.96,-357.28 1047.96,-357.28 1047.96,-357.28 1043.14,-358.585 1049.14,-361.624 1038.31,-359.889 1038.31,-359.889"/>
</g>
<!-- 46 -->
<g id="node47" class="node"><title>46</title>
<polygon fill="none" stroke="black" points="1554,-396 1444,-396 1444,-360 1554,-360 1554,-396"/>
<text text-anchor="middle" x="1499" y="-374.3" font-family="Times,serif" font-size="14.00">Policies.kullback</text>
</g>
<!-- 25&#45;&gt;46 -->
<g id="edge57" class="edge"><title>25&#45;&gt;46</title>
<path fill="none" stroke="black" d="M1298.49,-324.034C1339.62,-334.899 1392.75,-348.933 1433.98,-359.826"/>
<polygon fill="black" stroke="black" points="1443.66,-362.381 1432.84,-364.178 1438.82,-361.104 1433.99,-359.827 1433.99,-359.827 1433.99,-359.827 1438.82,-361.104 1435.14,-355.477 1443.66,-362.381 1443.66,-362.381"/>
</g>
<!-- 26&#45;&gt;17 -->
<g id="edge58" class="edge"><title>26&#45;&gt;17</title>
<path fill="none" stroke="black" d="M1573.9,-393.806C1570.23,-394.619 1566.57,-395.363 1563,-396 1379.05,-428.852 1158.89,-441.792 1047.39,-446.52"/>
<polygon fill="black" stroke="black" points="1037.27,-446.939 1047.07,-442.029 1042.27,-446.732 1047.26,-446.525 1047.26,-446.525 1047.26,-446.525 1042.27,-446.732 1047.45,-451.021 1037.27,-446.939 1037.27,-446.939"/>
</g>
<!-- 27&#45;&gt;24 -->
<g id="edge59" class="edge"><title>27&#45;&gt;24</title>
<path fill="none" stroke="black" d="M779.673,-321.419C815.926,-331.735 865.179,-345.75 905.156,-357.126"/>
<polygon fill="black" stroke="black" points="914.843,-359.882 903.993,-361.473 910.034,-358.514 905.225,-357.145 905.225,-357.145 905.225,-357.145 910.034,-358.514 906.457,-352.817 914.843,-359.882 914.843,-359.882"/>
</g>
<!-- 28&#45;&gt;17 -->
<g id="edge60" class="edge"><title>28&#45;&gt;17</title>
<path fill="none" stroke="black" d="M1697.16,-394.396C1693.73,-394.98 1690.33,-395.52 1687,-396 1454.67,-429.482 1176.45,-442.431 1047.37,-446.903"/>
<polygon fill="black" stroke="black" points="1037.22,-447.247 1047.06,-442.41 1042.21,-447.078 1047.21,-446.908 1047.21,-446.908 1047.21,-446.908 1042.21,-447.078 1047.36,-451.405 1037.22,-447.247 1037.22,-447.247"/>
</g>
<!-- 30&#45;&gt;17 -->
<g id="edge61" class="edge"><title>30&#45;&gt;17</title>
<path fill="none" stroke="black" d="M1852.84,-394.208C1849.52,-394.879 1846.23,-395.485 1843,-396 1550.73,-442.686 1197.06,-448.95 1047.43,-449.323"/>
<polygon fill="black" stroke="black" points="1037.02,-449.34 1047.01,-444.823 1042.02,-449.332 1047.02,-449.323 1047.02,-449.323 1047.02,-449.323 1042.02,-449.332 1047.03,-453.823 1037.02,-449.34 1037.02,-449.34"/>
</g>
<!-- 31&#45;&gt;17 -->
<g id="edge62" class="edge"><title>31&#45;&gt;17</title>
<path fill="none" stroke="black" d="M2008.06,-324.11C2004.7,-344.957 1995.68,-379.441 1972,-396 1896.83,-448.557 1264.43,-450.437 1047.61,-449.511"/>
<polygon fill="black" stroke="black" points="1037.29,-449.463 1047.31,-445.01 1042.29,-449.487 1047.29,-449.51 1047.29,-449.51 1047.29,-449.51 1042.29,-449.487 1047.27,-454.01 1037.29,-449.463 1037.29,-449.463"/>
</g>
<!-- 32&#45;&gt;31 -->
<g id="edge63" class="edge"><title>32&#45;&gt;31</title>
<path fill="none" stroke="black" d="M2056.67,-252.303C2049.24,-260.695 2040.18,-270.93 2032.02,-280.139"/>
<polygon fill="black" stroke="black" points="2025.15,-287.896 2028.41,-277.426 2028.46,-284.153 2031.78,-280.41 2031.78,-280.41 2031.78,-280.41 2028.46,-284.153 2035.15,-283.393 2025.15,-287.896 2025.15,-287.896"/>
</g>
<!-- 33&#45;&gt;19 -->
<g id="edge64" class="edge"><title>33&#45;&gt;19</title>
<path fill="none" stroke="black" d="M485.258,-252.303C473.56,-261.204 459.139,-272.177 446.49,-281.801"/>
<polygon fill="black" stroke="black" points="438.48,-287.896 443.713,-278.259 442.459,-284.868 446.438,-281.84 446.438,-281.84 446.438,-281.84 442.459,-284.868 449.163,-285.422 438.48,-287.896 438.48,-287.896"/>
</g>
<!-- 34&#45;&gt;24 -->
<g id="edge65" class="edge"><title>34&#45;&gt;24</title>
<path fill="none" stroke="black" d="M975,-324.303C975,-332.017 975,-341.288 975,-349.888"/>
<polygon fill="black" stroke="black" points="975,-359.896 970.5,-349.896 975,-354.896 975,-349.896 975,-349.896 975,-349.896 975,-354.896 979.5,-349.896 975,-359.896 975,-359.896"/>
</g>
<!-- 35&#45;&gt;34 -->
<g id="edge66" class="edge"><title>35&#45;&gt;34</title>
<path fill="none" stroke="black" d="M764.721,-249.441C767.859,-250.313 770.971,-251.172 774,-252 823.099,-265.428 879.11,-280.148 919.512,-290.66"/>
<polygon fill="black" stroke="black" points="929.434,-293.239 918.624,-295.078 924.595,-291.981 919.756,-290.723 919.756,-290.723 919.756,-290.723 924.595,-291.981 920.888,-286.368 929.434,-293.239 929.434,-293.239"/>
</g>
<!-- 36&#45;&gt;34 -->
<g id="edge67" class="edge"><title>36&#45;&gt;34</title>
<path fill="none" stroke="black" d="M875.291,-252.124C892.869,-261.446 914.809,-273.081 933.629,-283.061"/>
<polygon fill="black" stroke="black" points="942.585,-287.81 931.642,-287.101 938.168,-285.468 933.75,-283.125 933.75,-283.125 933.75,-283.125 938.168,-285.468 935.859,-279.15 942.585,-287.81 942.585,-287.81"/>
</g>
<!-- 37&#45;&gt;34 -->
<g id="edge68" class="edge"><title>37&#45;&gt;34</title>
<path fill="none" stroke="black" d="M975,-252.303C975,-260.017 975,-269.288 975,-277.888"/>
<polygon fill="black" stroke="black" points="975,-287.896 970.5,-277.896 975,-282.896 975,-277.896 975,-277.896 975,-277.896 975,-282.896 979.5,-277.896 975,-287.896 975,-287.896"/>
</g>
<!-- 38&#45;&gt;34 -->
<g id="edge69" class="edge"><title>38&#45;&gt;34</title>
<path fill="none" stroke="black" d="M1072.44,-252.124C1055.34,-261.404 1034.02,-272.975 1015.68,-282.925"/>
<polygon fill="black" stroke="black" points="1006.68,-287.81 1013.32,-279.086 1011.07,-285.426 1015.47,-283.041 1015.47,-283.041 1015.47,-283.041 1011.07,-285.426 1017.61,-286.996 1006.68,-287.81 1006.68,-287.81"/>
</g>
<!-- 39&#45;&gt;34 -->
<g id="edge70" class="edge"><title>39&#45;&gt;34</title>
<path fill="none" stroke="black" d="M1186.86,-252.034C1138.85,-264.036 1075.38,-279.905 1030.46,-291.134"/>
<polygon fill="black" stroke="black" points="1020.6,-293.599 1029.21,-286.808 1025.46,-292.386 1030.31,-291.173 1030.31,-291.173 1030.31,-291.173 1025.46,-292.386 1031.4,-295.539 1020.6,-293.599 1020.6,-293.599"/>
</g>
<!-- 40&#45;&gt;34 -->
<g id="edge71" class="edge"><title>40&#45;&gt;34</title>
<path fill="none" stroke="black" d="M1349.37,-250.094C1346.21,-250.765 1343.07,-251.406 1340,-252 1231.25,-273.053 1102.8,-289.855 1030.94,-298.537"/>
<polygon fill="black" stroke="black" points="1020.75,-299.759 1030.15,-294.1 1025.72,-299.163 1030.68,-298.568 1030.68,-298.568 1030.68,-298.568 1025.72,-299.163 1031.22,-303.036 1020.75,-299.759 1020.75,-299.759"/>
</g>
<!-- 41&#45;&gt;17 -->
<g id="edge72" class="edge"><title>41&#45;&gt;17</title>
<path fill="none" stroke="black" d="M2168.04,-324.171C2130.52,-345.426 2062.38,-380.687 1999,-396 1818.08,-439.714 1249.47,-447.376 1047.26,-448.717"/>
<polygon fill="black" stroke="black" points="1037.05,-448.781 1047.02,-444.218 1042.05,-448.75 1047.05,-448.718 1047.05,-448.718 1047.05,-448.718 1042.05,-448.75 1047.07,-453.218 1037.05,-448.781 1037.05,-448.781"/>
</g>
<!-- 42&#45;&gt;41 -->
<g id="edge73" class="edge"><title>42&#45;&gt;41</title>
<path fill="none" stroke="black" d="M2277.82,-252.124C2263.96,-261.192 2246.76,-272.448 2231.79,-282.241"/>
<polygon fill="black" stroke="black" points="2223.28,-287.81 2229.18,-278.57 2227.46,-285.073 2231.64,-282.336 2231.64,-282.336 2231.64,-282.336 2227.46,-285.073 2234.11,-286.101 2223.28,-287.81 2223.28,-287.81"/>
</g>
<!-- 43&#45;&gt;24 -->
<g id="edge74" class="edge"><title>43&#45;&gt;24</title>
<path fill="none" stroke="black" d="M1448.28,-313.775C1355.35,-326.19 1157.4,-352.634 1049.28,-367.077"/>
<polygon fill="black" stroke="black" points="1039.1,-368.437 1048.42,-362.652 1044.06,-367.775 1049.01,-367.113 1049.01,-367.113 1049.01,-367.113 1044.06,-367.775 1049.61,-371.573 1039.1,-368.437 1039.1,-368.437"/>
</g>
<!-- 43&#45;&gt;46 -->
<g id="edge75" class="edge"><title>43&#45;&gt;46</title>
<path fill="none" stroke="black" d="M1499,-324.303C1499,-332.017 1499,-341.288 1499,-349.888"/>
<polygon fill="black" stroke="black" points="1499,-359.896 1494.5,-349.896 1499,-354.896 1499,-349.896 1499,-349.896 1499,-349.896 1499,-354.896 1503.5,-349.896 1499,-359.896 1499,-359.896"/>
</g>
<!-- 44&#45;&gt;43 -->
<g id="edge76" class="edge"><title>44&#45;&gt;43</title>
<path fill="none" stroke="black" d="M1679.84,-252.034C1643.31,-262.733 1596.29,-276.505 1559.35,-287.324"/>
<polygon fill="black" stroke="black" points="1549.7,-290.149 1558.04,-283.02 1554.5,-288.744 1559.3,-287.339 1559.3,-287.339 1559.3,-287.339 1554.5,-288.744 1560.57,-291.657 1549.7,-290.149 1549.7,-290.149"/>
</g>
<!-- 44&#45;&gt;46 -->
<g id="edge77" class="edge"><title>44&#45;&gt;46</title>
<path fill="none" stroke="black" d="M1709.17,-252.129C1666.02,-277.769 1584.59,-326.149 1536.74,-354.575"/>
<polygon fill="black" stroke="black" points="1527.93,-359.811 1534.23,-350.834 1532.23,-357.257 1536.53,-354.703 1536.53,-354.703 1536.53,-354.703 1532.23,-357.257 1538.83,-358.571 1527.93,-359.811 1527.93,-359.811"/>
</g>
<!-- 45&#45;&gt;43 -->
<g id="edge78" class="edge"><title>45&#45;&gt;43</title>
<path fill="none" stroke="black" d="M1567.51,-252.303C1556.04,-261.119 1541.94,-271.968 1529.52,-281.526"/>
<polygon fill="black" stroke="black" points="1521.24,-287.896 1526.42,-278.232 1525.2,-284.847 1529.16,-281.799 1529.16,-281.799 1529.16,-281.799 1525.2,-284.847 1531.91,-285.365 1521.24,-287.896 1521.24,-287.896"/>
</g>
<!-- 47 -->
<g id="node48" class="node"><title>47</title>
<polygon fill="none" stroke="black" points="3927,-180 3797,-180 3797,-144 3927,-144 3927,-180"/>
<text text-anchor="middle" x="3862" y="-158.3" font-family="Times,serif" font-size="14.00">PoliciesMultiPlayers</text>
</g>
<!-- 50 -->
<g id="node51" class="node"><title>50</title>
<polygon fill="none" stroke="black" points="3492,-252 3274,-252 3274,-216 3492,-216 3492,-252"/>
<text text-anchor="middle" x="3383" y="-230.3" font-family="Times,serif" font-size="14.00">PoliciesMultiPlayers.CentralizedFair</text>
</g>
<!-- 47&#45;&gt;50 -->
<g id="edge79" class="edge"><title>47&#45;&gt;50</title>
<path fill="none" stroke="black" d="M3796.9,-172.513C3721.38,-183.55 3595.33,-201.971 3502.13,-215.59"/>
<polygon fill="black" stroke="black" points="3492.08,-217.059 3501.32,-211.161 3497.03,-216.336 3501.97,-215.613 3501.97,-215.613 3501.97,-215.613 3497.03,-216.336 3502.62,-220.066 3492.08,-217.059 3492.08,-217.059"/>
</g>
<!-- 51 -->
<g id="node52" class="node"><title>51</title>
<polygon fill="none" stroke="black" points="3748,-252 3510,-252 3510,-216 3748,-216 3748,-252"/>
<text text-anchor="middle" x="3629" y="-230.3" font-family="Times,serif" font-size="14.00">PoliciesMultiPlayers.CentralizedNotFair</text>
</g>
<!-- 47&#45;&gt;51 -->
<g id="edge80" class="edge"><title>47&#45;&gt;51</title>
<path fill="none" stroke="black" d="M3805.3,-180.034C3772.32,-189.943 3730.57,-202.486 3695.97,-212.879"/>
<polygon fill="black" stroke="black" points="3685.95,-215.889 3694.24,-208.702 3690.74,-214.451 3695.53,-213.012 3695.53,-213.012 3695.53,-213.012 3690.74,-214.451 3696.83,-217.322 3685.95,-215.889 3685.95,-215.889"/>
</g>
<!-- 54 -->
<g id="node55" class="node"><title>54</title>
<polygon fill="none" stroke="black" points="3957.5,-252 3766.5,-252 3766.5,-216 3957.5,-216 3957.5,-252"/>
<text text-anchor="middle" x="3862" y="-230.3" font-family="Times,serif" font-size="14.00">PoliciesMultiPlayers.OracleFair</text>
</g>
<!-- 47&#45;&gt;54 -->
<g id="edge81" class="edge"><title>47&#45;&gt;54</title>
<path fill="none" stroke="black" d="M3862,-180.303C3862,-188.017 3862,-197.288 3862,-205.888"/>
<polygon fill="black" stroke="black" points="3862,-215.896 3857.5,-205.896 3862,-210.896 3862,-205.896 3862,-205.896 3862,-205.896 3862,-210.896 3866.5,-205.896 3862,-215.896 3862,-215.896"/>
</g>
<!-- 55 -->
<g id="node56" class="node"><title>55</title>
<polygon fill="none" stroke="black" points="4188,-252 3976,-252 3976,-216 4188,-216 4188,-252"/>
<text text-anchor="middle" x="4082" y="-230.3" font-family="Times,serif" font-size="14.00">PoliciesMultiPlayers.OracleNotFair</text>
</g>
<!-- 47&#45;&gt;55 -->
<g id="edge82" class="edge"><title>47&#45;&gt;55</title>
<path fill="none" stroke="black" d="M3915.54,-180.034C3946.54,-189.9 3985.76,-202.378 4018.34,-212.745"/>
<polygon fill="black" stroke="black" points="4028.22,-215.889 4017.33,-217.145 4023.46,-214.373 4018.69,-212.857 4018.69,-212.857 4018.69,-212.857 4023.46,-214.373 4020.06,-208.569 4028.22,-215.889 4028.22,-215.889"/>
</g>
<!-- 56 -->
<g id="node57" class="node"><title>56</title>
<polygon fill="none" stroke="black" points="4377.5,-252 4206.5,-252 4206.5,-216 4377.5,-216 4377.5,-252"/>
<text text-anchor="middle" x="4292" y="-230.3" font-family="Times,serif" font-size="14.00">PoliciesMultiPlayers.Selfish</text>
</g>
<!-- 47&#45;&gt;56 -->
<g id="edge83" class="edge"><title>47&#45;&gt;56</title>
<path fill="none" stroke="black" d="M3927.22,-172.921C3992.6,-182.956 4096.42,-199.134 4196.34,-215.906"/>
<polygon fill="black" stroke="black" points="4206.31,-217.584 4195.7,-220.362 4201.38,-216.754 4196.45,-215.924 4196.45,-215.924 4196.45,-215.924 4201.38,-216.754 4197.19,-211.487 4206.31,-217.584 4206.31,-217.584"/>
</g>
<!-- 58 -->
<g id="node59" class="node"><title>58</title>
<polygon fill="none" stroke="black" points="4576,-252 4396,-252 4396,-216 4576,-216 4576,-252"/>
<text text-anchor="middle" x="4486" y="-230.3" font-family="Times,serif" font-size="14.00">PoliciesMultiPlayers.rhoRand</text>
</g>
<!-- 47&#45;&gt;58 -->
<g id="edge84" class="edge"><title>47&#45;&gt;58</title>
<path fill="none" stroke="black" d="M3927.24,-168.12C4024.78,-176.1 4214.62,-192.881 4385.97,-215.912"/>
<polygon fill="black" stroke="black" points="4395.93,-217.261 4385.42,-220.378 4390.98,-216.59 4386.02,-215.919 4386.02,-215.919 4386.02,-215.919 4390.98,-216.59 4386.63,-211.46 4395.93,-217.261 4395.93,-217.261"/>
</g>
<!-- 48 -->
<g id="node49" class="node"><title>48</title>
<polygon fill="none" stroke="black" points="3746.5,-324 3489.5,-324 3489.5,-288 3746.5,-288 3746.5,-324"/>
<text text-anchor="middle" x="3618" y="-302.3" font-family="Times,serif" font-size="14.00">PoliciesMultiPlayers.BaseCentralizedPolicy</text>
</g>
<!-- 49 -->
<g id="node50" class="node"><title>49</title>
<polygon fill="none" stroke="black" points="3979.5,-324 3764.5,-324 3764.5,-288 3979.5,-288 3979.5,-324"/>
<text text-anchor="middle" x="3872" y="-302.3" font-family="Times,serif" font-size="14.00">PoliciesMultiPlayers.BaseMPPolicy</text>
</g>
<!-- 50&#45;&gt;48 -->
<g id="edge85" class="edge"><title>50&#45;&gt;48</title>
<path fill="none" stroke="black" d="M3440.19,-252.034C3473.59,-261.985 3515.92,-274.594 3550.9,-285.013"/>
<polygon fill="black" stroke="black" points="3560.56,-287.889 3549.69,-289.347 3555.76,-286.462 3550.97,-285.034 3550.97,-285.034 3550.97,-285.034 3555.76,-286.462 3552.26,-280.722 3560.56,-287.889 3560.56,-287.889"/>
</g>
<!-- 50&#45;&gt;49 -->
<g id="edge86" class="edge"><title>50&#45;&gt;49</title>
<path fill="none" stroke="black" d="M3492.29,-250.754C3495.22,-251.174 3498.13,-251.59 3501,-252 3610.67,-267.672 3640.47,-271.585 3754.11,-287.875"/>
<polygon fill="black" stroke="black" points="3764.26,-289.331 3753.72,-292.366 3759.31,-288.621 3754.36,-287.911 3754.36,-287.911 3754.36,-287.911 3759.31,-288.621 3755,-283.457 3764.26,-289.331 3764.26,-289.331"/>
</g>
<!-- 52 -->
<g id="node53" class="node"><title>52</title>
<polygon fill="none" stroke="black" points="4200.5,-324 3997.5,-324 3997.5,-288 4200.5,-288 4200.5,-324"/>
<text text-anchor="middle" x="4099" y="-302.3" font-family="Times,serif" font-size="14.00">PoliciesMultiPlayers.ChildPointer</text>
</g>
<!-- 50&#45;&gt;52 -->
<g id="edge87" class="edge"><title>50&#45;&gt;52</title>
<path fill="none" stroke="black" d="M3492.26,-251.012C3495.2,-251.356 3498.12,-251.686 3501,-252 3713.49,-275.133 3770.63,-263.906 3987.31,-287.982"/>
<polygon fill="black" stroke="black" points="3997.42,-289.117 3986.98,-292.473 3992.45,-288.559 3987.48,-288.001 3987.48,-288.001 3987.48,-288.001 3992.45,-288.559 3987.98,-283.529 3997.42,-289.117 3997.42,-289.117"/>
</g>
<!-- 51&#45;&gt;48 -->
<g id="edge88" class="edge"><title>51&#45;&gt;48</title>
<path fill="none" stroke="black" d="M3626.28,-252.303C3625.07,-260.017 3623.61,-269.288 3622.26,-277.888"/>
<polygon fill="black" stroke="black" points="3620.69,-287.896 3617.79,-277.318 3621.46,-282.956 3622.24,-278.017 3622.24,-278.017 3622.24,-278.017 3621.46,-282.956 3626.69,-278.716 3620.69,-287.896 3620.69,-287.896"/>
</g>
<!-- 51&#45;&gt;49 -->
<g id="edge89" class="edge"><title>51&#45;&gt;49</title>
<path fill="none" stroke="black" d="M3688.13,-252.034C3722.68,-261.985 3766.45,-274.594 3802.62,-285.013"/>
<polygon fill="black" stroke="black" points="3812.6,-287.889 3801.75,-289.445 3807.8,-286.505 3802.99,-285.121 3802.99,-285.121 3802.99,-285.121 3807.8,-286.505 3804.24,-280.797 3812.6,-287.889 3812.6,-287.889"/>
</g>
<!-- 51&#45;&gt;52 -->
<g id="edge90" class="edge"><title>51&#45;&gt;52</title>
<path fill="none" stroke="black" d="M3745.43,-252.027C3813.09,-261.96 3900.26,-274.824 3987.32,-287.901"/>
<polygon fill="black" stroke="black" points="3997.38,-289.414 3986.82,-292.377 3992.44,-288.671 3987.49,-287.927 3987.49,-287.927 3987.49,-287.927 3992.44,-288.671 3988.16,-283.477 3997.38,-289.414 3997.38,-289.414"/>
</g>
<!-- 53 -->
<g id="node54" class="node"><title>53</title>
<polygon fill="none" stroke="black" points="3088.5,-36 2923.5,-36 2923.5,-0 3088.5,-0 3088.5,-36"/>
<text text-anchor="middle" x="3006" y="-14.3" font-family="Times,serif" font-size="14.00">PoliciesMultiPlayers.DMC</text>
</g>
<!-- 54&#45;&gt;48 -->
<g id="edge91" class="edge"><title>54&#45;&gt;48</title>
<path fill="none" stroke="black" d="M3802.62,-252.034C3767.94,-261.985 3723.99,-274.594 3687.67,-285.013"/>
<polygon fill="black" stroke="black" points="3677.64,-287.889 3686.01,-280.806 3682.45,-286.51 3687.26,-285.132 3687.26,-285.132 3687.26,-285.132 3682.45,-286.51 3688.5,-289.457 3677.64,-287.889 3677.64,-287.889"/>
</g>
<!-- 54&#45;&gt;49 -->
<g id="edge92" class="edge"><title>54&#45;&gt;49</title>
<path fill="none" stroke="black" d="M3864.47,-252.303C3865.57,-260.017 3866.9,-269.288 3868.13,-277.888"/>
<polygon fill="black" stroke="black" points="3869.56,-287.896 3863.69,-278.633 3868.85,-282.946 3868.14,-277.996 3868.14,-277.996 3868.14,-277.996 3868.85,-282.946 3872.6,-277.36 3869.56,-287.896 3869.56,-287.896"/>
</g>
<!-- 54&#45;&gt;52 -->
<g id="edge93" class="edge"><title>54&#45;&gt;52</title>
<path fill="none" stroke="black" d="M3919.67,-252.034C3953.36,-261.985 3996.05,-274.594 4031.33,-285.013"/>
<polygon fill="black" stroke="black" points="4041.07,-287.889 4030.2,-289.372 4036.27,-286.473 4031.48,-285.057 4031.48,-285.057 4031.48,-285.057 4036.27,-286.473 4032.75,-280.741 4041.07,-287.889 4041.07,-287.889"/>
</g>
<!-- 55&#45;&gt;48 -->
<g id="edge94" class="edge"><title>55&#45;&gt;48</title>
<path fill="none" stroke="black" d="M3975.84,-251.016C3905.96,-261.558 3814.24,-275.394 3741.16,-286.42"/>
<polygon fill="black" stroke="black" points="3730.97,-287.956 3740.19,-282.015 3735.92,-287.211 3740.86,-286.465 3740.86,-286.465 3740.86,-286.465 3735.92,-287.211 3741.53,-290.914 3730.97,-287.956 3730.97,-287.956"/>
</g>
<!-- 55&#45;&gt;49 -->
<g id="edge95" class="edge"><title>55&#45;&gt;49</title>
<path fill="none" stroke="black" d="M4030.9,-252.034C4001.43,-261.858 3964.19,-274.271 3933.17,-284.611"/>
<polygon fill="black" stroke="black" points="3923.33,-287.889 3931.4,-280.458 3928.08,-286.308 3932.82,-284.727 3932.82,-284.727 3932.82,-284.727 3928.08,-286.308 3934.24,-288.996 3923.33,-287.889 3923.33,-287.889"/>
</g>
<!-- 55&#45;&gt;52 -->
<g id="edge96" class="edge"><title>55&#45;&gt;52</title>
<path fill="none" stroke="black" d="M4086.2,-252.303C4088.1,-260.102 4090.38,-269.491 4092.48,-278.171"/>
<polygon fill="black" stroke="black" points="4094.85,-287.896 4088.11,-279.24 4093.67,-283.037 4092.49,-278.178 4092.49,-278.178 4092.49,-278.178 4093.67,-283.037 4096.86,-277.116 4094.85,-287.896 4094.85,-287.896"/>
</g>
<!-- 56&#45;&gt;49 -->
<g id="edge97" class="edge"><title>56&#45;&gt;49</title>
<path fill="none" stroke="black" d="M4206.31,-250.397C4203.17,-250.942 4200.06,-251.478 4197,-252 4128.14,-263.775 4050.97,-276.385 3989.11,-286.349"/>
<polygon fill="black" stroke="black" points="3978.92,-287.988 3988.08,-281.957 3983.86,-287.194 3988.8,-286.399 3988.8,-286.399 3988.8,-286.399 3983.86,-287.194 3989.51,-290.842 3978.92,-287.988 3978.92,-287.988"/>
</g>
<!-- 56&#45;&gt;52 -->
<g id="edge98" class="edge"><title>56&#45;&gt;52</title>
<path fill="none" stroke="black" d="M4244.79,-252.124C4217.93,-261.863 4184.12,-274.128 4155.82,-284.392"/>
<polygon fill="black" stroke="black" points="4146.06,-287.932 4153.93,-280.292 4150.76,-286.227 4155.46,-284.522 4155.46,-284.522 4155.46,-284.522 4150.76,-286.227 4156.99,-288.752 4146.06,-287.932 4146.06,-287.932"/>
</g>
<!-- 57 -->
<g id="node58" class="node"><title>57</title>
<polygon fill="none" stroke="black" points="3273.5,-36 3106.5,-36 3106.5,-0 3273.5,-0 3273.5,-36"/>
<text text-anchor="middle" x="3190" y="-14.3" font-family="Times,serif" font-size="14.00">PoliciesMultiPlayers.TDFS</text>
</g>
<!-- 58&#45;&gt;49 -->
<g id="edge99" class="edge"><title>58&#45;&gt;49</title>
<path fill="none" stroke="black" d="M4395.94,-250.779C4392.93,-251.207 4389.94,-251.615 4387,-252 4214.16,-274.62 4167.13,-267.503 3989.9,-287.937"/>
<polygon fill="black" stroke="black" points="3979.71,-289.126 3989.12,-283.497 3984.68,-288.547 3989.64,-287.967 3989.64,-287.967 3989.64,-287.967 3984.68,-288.547 3990.17,-292.437 3979.71,-289.126 3979.71,-289.126"/>
</g>
<!-- 58&#45;&gt;52 -->
<g id="edge100" class="edge"><title>58&#45;&gt;52</title>
<path fill="none" stroke="black" d="M4395.75,-251.324C4338.1,-261.752 4263.15,-275.308 4203,-286.188"/>
<polygon fill="black" stroke="black" points="4193.1,-287.979 4202.14,-281.771 4198.02,-287.089 4202.94,-286.199 4202.94,-286.199 4202.94,-286.199 4198.02,-287.089 4203.74,-290.628 4193.1,-287.979 4193.1,-287.979"/>
</g>
<!-- 59 -->
<g id="node60" class="node"><title>59</title>
<polygon fill="none" stroke="black" points="402.5,-108 313.5,-108 313.5,-72 402.5,-72 402.5,-108"/>
<text text-anchor="middle" x="358" y="-86.3" font-family="Times,serif" font-size="14.00">configuration</text>
</g>
<!-- 59&#45;&gt;2 -->
<g id="edge101" class="edge"><title>59&#45;&gt;2</title>
<path fill="none" stroke="black" d="M372.337,-108.303C379.291,-116.695 387.77,-126.93 395.401,-136.139"/>
<polygon fill="black" stroke="black" points="401.828,-143.896 391.983,-139.067 398.638,-140.046 395.448,-136.195 395.448,-136.195 395.448,-136.195 398.638,-140.046 398.913,-133.324 401.828,-143.896 401.828,-143.896"/>
</g>
<!-- 59&#45;&gt;3 -->
<g id="edge102" class="edge"><title>59&#45;&gt;3</title>
<path fill="none" stroke="black" d="M313.255,-100.832C268.4,-110.766 197.106,-126.763 126.098,-143.764"/>
<polygon fill="black" stroke="black" points="116.083,-146.169 124.756,-139.458 120.945,-145.001 125.806,-143.834 125.806,-143.834 125.806,-143.834 120.945,-145.001 126.857,-148.209 116.083,-146.169 116.083,-146.169"/>
</g>
<!-- 59&#45;&gt;4 -->
<g id="edge103" class="edge"><title>59&#45;&gt;4</title>
<path fill="none" stroke="black" d="M315.679,-108.124C291.819,-117.778 261.828,-129.913 236.597,-140.122"/>
<polygon fill="black" stroke="black" points="227.183,-143.932 234.765,-136.009 231.818,-142.056 236.453,-140.181 236.453,-140.181 236.453,-140.181 231.818,-142.056 238.141,-144.352 227.183,-143.932 227.183,-143.932"/>
</g>
<!-- 59&#45;&gt;5 -->
<g id="edge104" class="edge"><title>59&#45;&gt;5</title>
<path fill="none" stroke="black" d="M343.663,-108.303C336.709,-116.695 328.23,-126.93 320.599,-136.139"/>
<polygon fill="black" stroke="black" points="314.172,-143.896 317.087,-133.324 317.362,-140.046 320.552,-136.195 320.552,-136.195 320.552,-136.195 317.362,-140.046 324.017,-139.067 314.172,-143.896 314.172,-143.896"/>
</g>
<!-- 59&#45;&gt;14 -->
<g id="edge105" class="edge"><title>59&#45;&gt;14</title>
<path fill="none" stroke="black" d="M402.708,-95.1951C537.084,-107.804 935.944,-145.231 1063.96,-157.243"/>
<polygon fill="black" stroke="black" points="1074.11,-158.195 1063.73,-161.741 1069.13,-157.728 1064.15,-157.261 1064.15,-157.261 1064.15,-157.261 1069.13,-157.728 1064.57,-152.78 1074.11,-158.195 1074.11,-158.195"/>
</g>
<!-- 60 -->
<g id="node61" class="node"><title>60</title>
<polygon fill="none" stroke="black" points="2622,-108 2458,-108 2458,-72 2622,-72 2622,-108"/>
<text text-anchor="middle" x="2540" y="-86.3" font-family="Times,serif" font-size="14.00">configuration_multiplayers</text>
</g>
<!-- 60&#45;&gt;2 -->
<g id="edge106" class="edge"><title>60&#45;&gt;2</title>
<path fill="none" stroke="black" d="M2457.71,-93.7119C2111.92,-105.108 780.43,-148.99 477.549,-158.972"/>
<polygon fill="black" stroke="black" points="467.212,-159.312 477.058,-154.485 472.209,-159.147 477.206,-158.983 477.206,-158.983 477.206,-158.983 472.209,-159.147 477.355,-163.48 467.212,-159.312 467.212,-159.312"/>
</g>
<!-- 60&#45;&gt;7 -->
<g id="edge107" class="edge"><title>60&#45;&gt;7</title>
<path fill="none" stroke="black" d="M2534.21,-108.129C2525.99,-132.436 2510.87,-177.181 2501.13,-205.987"/>
<polygon fill="black" stroke="black" points="2497.81,-215.811 2496.75,-204.896 2499.41,-211.074 2501.01,-206.337 2501.01,-206.337 2501.01,-206.337 2499.41,-211.074 2505.28,-207.778 2497.81,-215.811 2497.81,-215.811"/>
</g>
<!-- 60&#45;&gt;10 -->
<g id="edge108" class="edge"><title>60&#45;&gt;10</title>
<path fill="none" stroke="black" d="M2551.3,-108.107C2565.8,-128.619 2592.97,-162.425 2625,-180 2694.54,-218.153 2724.16,-199.928 2806.43,-216.028"/>
<polygon fill="black" stroke="black" points="2816.46,-218.107 2805.76,-220.482 2811.56,-217.092 2806.67,-216.076 2806.67,-216.076 2806.67,-216.076 2811.56,-217.092 2807.58,-211.67 2816.46,-218.107 2816.46,-218.107"/>
</g>
<!-- 60&#45;&gt;14 -->
<g id="edge109" class="edge"><title>60&#45;&gt;14</title>
<path fill="none" stroke="black" d="M2457.9,-95.0022C2188.57,-108.131 1338.06,-149.59 1143.79,-159.061"/>
<polygon fill="black" stroke="black" points="1133.74,-159.55 1143.5,-154.569 1138.73,-159.307 1143.72,-159.063 1143.72,-159.063 1143.72,-159.063 1138.73,-159.307 1143.94,-163.558 1133.74,-159.55 1133.74,-159.55"/>
</g>
<!-- 60&#45;&gt;47 -->
<g id="edge110" class="edge"><title>60&#45;&gt;47</title>
<path fill="none" stroke="black" d="M2622.3,-96.0952C2679.22,-99.5733 2756.7,-104.218 2825,-108 3185.06,-127.939 3615.6,-149.079 3786.62,-157.368"/>
<polygon fill="black" stroke="black" points="3796.77,-157.86 3786.57,-161.87 3791.78,-157.618 3786.79,-157.376 3786.79,-157.376 3786.79,-157.376 3791.78,-157.618 3787,-152.881 3796.77,-157.86 3796.77,-157.86"/>
</g>
<!-- 61 -->
<g id="node62" class="node"><title>61</title>
<polygon fill="none" stroke="black" points="2905,-36 2851,-36 2851,-0 2905,-0 2905,-36"/>
<text text-anchor="middle" x="2878" y="-14.3" font-family="Times,serif" font-size="14.00">main</text>
</g>
<!-- 61&#45;&gt;6 -->
<g id="edge111" class="edge"><title>61&#45;&gt;6</title>
<path fill="none" stroke="black" d="M2878,-36.3034C2878,-44.0173 2878,-53.2875 2878,-61.8876"/>
<polygon fill="black" stroke="black" points="2878,-71.8957 2873.5,-61.8956 2878,-66.8957 2878,-61.8957 2878,-61.8957 2878,-61.8957 2878,-66.8957 2882.5,-61.8957 2878,-71.8957 2878,-71.8957"/>
</g>
<!-- 61&#45;&gt;8 -->
<g id="edge112" class="edge"><title>61&#45;&gt;8</title>
<path fill="none" stroke="black" d="M2897.85,-36.1491C2908.48,-45.9679 2921.34,-58.9109 2931,-72 2945.42,-91.5469 2958.04,-116.109 2966.56,-134.476"/>
<polygon fill="black" stroke="black" points="2970.74,-143.713 2962.52,-136.46 2968.68,-139.158 2966.62,-134.604 2966.62,-134.604 2966.62,-134.604 2968.68,-139.158 2970.72,-132.747 2970.74,-143.713 2970.74,-143.713"/>
</g>
<!-- 61&#45;&gt;59 -->
<g id="edge113" class="edge"><title>61&#45;&gt;59</title>
<path fill="none" stroke="black" d="M2850.81,-27.2766C2838.48,-30.6461 2823.63,-34.1725 2810,-36 2565.39,-68.7997 752.682,-85.6602 412.824,-88.5496"/>
<polygon fill="black" stroke="black" points="402.739,-88.6349 412.7,-84.0504 407.739,-88.5926 412.738,-88.5502 412.738,-88.5502 412.738,-88.5502 407.739,-88.5926 412.777,-93.0501 402.739,-88.6349 402.739,-88.6349"/>
</g>
<!-- 62 -->
<g id="node63" class="node"><title>62</title>
<polygon fill="none" stroke="black" points="2801.5,-36 2682.5,-36 2682.5,-0 2801.5,-0 2801.5,-36"/>
<text text-anchor="middle" x="2742" y="-14.3" font-family="Times,serif" font-size="14.00">main_multiplayers</text>
</g>
<!-- 62&#45;&gt;6 -->
<g id="edge114" class="edge"><title>62&#45;&gt;6</title>
<path fill="none" stroke="black" d="M2775.27,-36.1239C2793.46,-45.4883 2816.19,-57.1864 2835.64,-67.197"/>
<polygon fill="black" stroke="black" points="2844.6,-71.8102 2833.65,-71.2349 2840.16,-69.522 2835.71,-67.2338 2835.71,-67.2338 2835.71,-67.2338 2840.16,-69.522 2837.77,-63.2326 2844.6,-71.8102 2844.6,-71.8102"/>
</g>
<!-- 62&#45;&gt;9 -->
<g id="edge115" class="edge"><title>62&#45;&gt;9</title>
<path fill="none" stroke="black" d="M2742,-36.1285C2742,-60.3298 2742,-104.789 2742,-133.607"/>
<polygon fill="black" stroke="black" points="2742,-143.811 2737.5,-133.811 2742,-138.811 2742,-133.811 2742,-133.811 2742,-133.811 2742,-138.811 2746.5,-133.811 2742,-143.811 2742,-143.811"/>
</g>
<!-- 62&#45;&gt;60 -->
<g id="edge116" class="edge"><title>62&#45;&gt;60</title>
<path fill="none" stroke="black" d="M2692.84,-36.0344C2664.5,-45.8575 2628.68,-58.2709 2598.84,-68.6109"/>
<polygon fill="black" stroke="black" points="2589.38,-71.8892 2597.35,-64.3629 2594.1,-70.252 2598.83,-68.6148 2598.83,-68.6148 2598.83,-68.6148 2594.1,-70.252 2600.3,-72.8667 2589.38,-71.8892 2589.38,-71.8892"/>
</g>
</g>
</svg>
