<?xml version="1.0" encoding="UTF-8" standalone="no"?>
<!DOCTYPE svg PUBLIC "-//W3C//DTD SVG 1.1//EN"
 "http://www.w3.org/Graphics/SVG/1.1/DTD/svg11.dtd">
<!-- Generated by graphviz version 2.40.1 (20161225.0304)
 -->
<!-- Title: packages_SMPyBandits.PoliciesMultiPlayers Pages: 1 -->
<svg width="3715pt" height="332pt"
 viewBox="0.00 0.00 3714.50 332.00" xmlns="http://www.w3.org/2000/svg" xmlns:xlink="http://www.w3.org/1999/xlink">
<g id="graph0" class="graph" transform="scale(1 1) rotate(0) translate(4 328)">
<title>packages_SMPyBandits.PoliciesMultiPlayers</title>
<polygon fill="#ffffff" stroke="transparent" points="-4,4 -4,-328 3710.5,-328 3710.5,4 -4,4"/>
<!-- 0 -->
<g id="node1" class="node">
<title>0</title>
<polygon fill="none" stroke="#000000" points="1916,-36 1712,-36 1712,0 1916,0 1916,-36"/>
<text text-anchor="middle" x="1814" y="-14.3" font-family="Times,serif" font-size="14.00" fill="#000000">SMPyBandits.Policies.with_proba</text>
</g>
<!-- 1 -->
<g id="node2" class="node">
<title>1</title>
<polygon fill="none" stroke="#000000" points="2143.5,-36 1934.5,-36 1934.5,0 2143.5,0 2143.5,-36"/>
<text text-anchor="middle" x="2039" y="-14.3" font-family="Times,serif" font-size="14.00" fill="#000000">SMPyBandits.PoliciesMultiPlayers</text>
</g>
<!-- 2 -->
<g id="node3" class="node">
<title>2</title>
<polygon fill="none" stroke="#000000" points="2395,-252 2135,-252 2135,-216 2395,-216 2395,-252"/>
<text text-anchor="middle" x="2265" y="-230.3" font-family="Times,serif" font-size="14.00" fill="#000000">SMPyBandits.PoliciesMultiPlayers.ALOHA</text>
</g>
<!-- 1&#45;&gt;2 -->
<g id="edge1" class="edge">
<title>1&#45;&gt;2</title>
<path fill="none" stroke="#000000" d="M2143.0019,-36.1122C2165.5995,-44.0684 2187.8431,-55.5193 2205,-72 2242.5374,-108.0579 2256.7546,-169.6779 2262.0188,-205.6308"/>
<polygon fill="#000000" stroke="#000000" points="2263.381,-215.9079 2257.606,-206.5859 2262.724,-210.9512 2262.0669,-205.9946 2262.0669,-205.9946 2262.0669,-205.9946 2262.724,-210.9512 2266.5279,-205.4033 2263.381,-215.9079 2263.381,-215.9079"/>
</g>
<!-- 5 -->
<g id="node6" class="node">
<title>5</title>
<polygon fill="none" stroke="#000000" points="642,-252 324,-252 324,-216 642,-216 642,-252"/>
<text text-anchor="middle" x="483" y="-230.3" font-family="Times,serif" font-size="14.00" fill="#000000">SMPyBandits.PoliciesMultiPlayers.CentralizedCycling</text>
</g>
<!-- 1&#45;&gt;5 -->
<g id="edge2" class="edge">
<title>1&#45;&gt;5</title>
<path fill="none" stroke="#000000" d="M1934.3906,-35.0462C1931.228,-35.392 1928.0923,-35.7115 1925,-36 1789.7507,-48.6182 831.4152,-27.7154 703,-72 621.3668,-100.1516 544.581,-170.1897 507.0314,-208.3036"/>
<polygon fill="#000000" stroke="#000000" points="499.6267,-215.9256 503.3672,-205.6174 503.1108,-212.3393 506.5948,-208.753 506.5948,-208.753 506.5948,-208.753 503.1108,-212.3393 509.8225,-211.8887 499.6267,-215.9256 499.6267,-215.9256"/>
</g>
<!-- 6 -->
<g id="node7" class="node">
<title>6</title>
<polygon fill="none" stroke="#000000" points="306,-252 0,-252 0,-216 306,-216 306,-252"/>
<text text-anchor="middle" x="153" y="-230.3" font-family="Times,serif" font-size="14.00" fill="#000000">SMPyBandits.PoliciesMultiPlayers.CentralizedFixed</text>
</g>
<!-- 1&#45;&gt;6 -->
<g id="edge3" class="edge">
<title>1&#45;&gt;6</title>
<path fill="none" stroke="#000000" d="M1934.3913,-35.0532C1931.2285,-35.397 1928.0925,-35.7142 1925,-36 1637.6693,-62.557 910.9692,-20.7583 627,-72 466.3063,-100.9969 286.3457,-174.6063 201.8264,-211.787"/>
<polygon fill="#000000" stroke="#000000" points="192.4862,-215.9189 199.8108,-207.7579 197.0588,-213.8961 201.6313,-211.8732 201.6313,-211.8732 201.6313,-211.8732 197.0588,-213.8961 203.4519,-215.9886 192.4862,-215.9189 192.4862,-215.9189"/>
</g>
<!-- 7 -->
<g id="node8" class="node">
<title>7</title>
<polygon fill="none" stroke="#000000" points="2877,-108 2577,-108 2577,-72 2877,-72 2877,-108"/>
<text text-anchor="middle" x="2727" y="-86.3" font-family="Times,serif" font-size="14.00" fill="#000000">SMPyBandits.PoliciesMultiPlayers.CentralizedIMP</text>
</g>
<!-- 1&#45;&gt;7 -->
<g id="edge4" class="edge">
<title>1&#45;&gt;7</title>
<path fill="none" stroke="#000000" d="M2143.6382,-34.7832C2146.7924,-35.2053 2149.9186,-35.6122 2153,-36 2230.2217,-45.7191 2425.4522,-63.5581 2566.8148,-76.0647"/>
<polygon fill="#000000" stroke="#000000" points="2576.8974,-76.9558 2566.54,-80.5579 2571.9168,-76.5155 2566.9362,-76.0753 2566.9362,-76.0753 2566.9362,-76.0753 2571.9168,-76.5155 2567.3324,-71.5928 2576.8974,-76.9558 2576.8974,-76.9558"/>
</g>
<!-- 8 -->
<g id="node9" class="node">
<title>8</title>
<polygon fill="none" stroke="#000000" points="2930.5,-180 2583.5,-180 2583.5,-144 2930.5,-144 2930.5,-180"/>
<text text-anchor="middle" x="2757" y="-158.3" font-family="Times,serif" font-size="14.00" fill="#000000">SMPyBandits.PoliciesMultiPlayers.CentralizedMultiplePlay</text>
</g>
<!-- 1&#45;&gt;8 -->
<g id="edge5" class="edge">
<title>1&#45;&gt;8</title>
<path fill="none" stroke="#000000" d="M2128.8455,-36.0192C2263.5209,-63.0293 2516.8634,-113.8389 2657.1554,-141.9755"/>
<polygon fill="#000000" stroke="#000000" points="2667.0578,-143.9615 2656.3682,-146.4071 2662.1555,-142.9782 2657.2531,-141.995 2657.2531,-141.995 2657.2531,-141.995 2662.1555,-142.9782 2658.138,-137.5828 2667.0578,-143.9615 2667.0578,-143.9615"/>
</g>
<!-- 11 -->
<g id="node12" class="node">
<title>11</title>
<polygon fill="none" stroke="#000000" points="2117,-252 1843,-252 1843,-216 2117,-216 2117,-252"/>
<text text-anchor="middle" x="1980" y="-230.3" font-family="Times,serif" font-size="14.00" fill="#000000">SMPyBandits.PoliciesMultiPlayers.EstimateM</text>
</g>
<!-- 1&#45;&gt;11 -->
<g id="edge6" class="edge">
<title>1&#45;&gt;11</title>
<path fill="none" stroke="#000000" d="M2108.3499,-36.0732C2140.1556,-45.9016 2172.8325,-58.7388 2182,-72 2209.2952,-111.4838 2211.2316,-141.9275 2182,-180 2171.2397,-194.0147 2139.4535,-205.1792 2104.1882,-213.6347"/>
<polygon fill="#000000" stroke="#000000" points="2094.1639,-215.9479 2102.896,-209.3146 2099.0359,-214.8236 2103.9078,-213.6994 2103.9078,-213.6994 2103.9078,-213.6994 2099.0359,-214.8236 2104.9197,-218.0841 2094.1639,-215.9479 2094.1639,-215.9479"/>
</g>
<!-- 12 -->
<g id="node13" class="node">
<title>12</title>
<polygon fill="none" stroke="#000000" points="931.5,-252 660.5,-252 660.5,-216 931.5,-216 931.5,-252"/>
<text text-anchor="middle" x="796" y="-230.3" font-family="Times,serif" font-size="14.00" fill="#000000">SMPyBandits.PoliciesMultiPlayers.OracleFair</text>
</g>
<!-- 1&#45;&gt;12 -->
<g id="edge7" class="edge">
<title>1&#45;&gt;12</title>
<path fill="none" stroke="#000000" d="M1934.3905,-35.0451C1931.228,-35.3912 1928.0922,-35.7111 1925,-36 1857.9844,-42.2613 760.8811,-23.7045 714,-72 696.1201,-90.4193 720.6003,-163.2159 731,-180 738.0119,-191.3164 748.2196,-201.3951 758.4767,-209.6917"/>
<polygon fill="#000000" stroke="#000000" points="766.6531,-215.9529 755.9776,-213.4458 762.6833,-212.913 758.7136,-209.873 758.7136,-209.873 758.7136,-209.873 762.6833,-212.913 761.4495,-206.3003 766.6531,-215.9529 766.6531,-215.9529"/>
</g>
<!-- 13 -->
<g id="node14" class="node">
<title>13</title>
<polygon fill="none" stroke="#000000" points="1240.5,-252 949.5,-252 949.5,-216 1240.5,-216 1240.5,-252"/>
<text text-anchor="middle" x="1095" y="-230.3" font-family="Times,serif" font-size="14.00" fill="#000000">SMPyBandits.PoliciesMultiPlayers.OracleNotFair</text>
</g>
<!-- 1&#45;&gt;13 -->
<g id="edge8" class="edge">
<title>1&#45;&gt;13</title>
<path fill="none" stroke="#000000" d="M1934.3903,-35.0426C1931.2278,-35.3894 1928.0922,-35.7102 1925,-36 1859.3132,-42.1571 783.9387,-24.647 738,-72 663.8094,-148.4748 813.8538,-191.9984 941.6323,-214.2734"/>
<polygon fill="#000000" stroke="#000000" points="951.5693,-215.9713 940.9542,-218.7227 946.6407,-215.1292 941.7121,-214.287 941.7121,-214.287 941.7121,-214.287 946.6407,-215.1292 942.4701,-209.8513 951.5693,-215.9713 951.5693,-215.9713"/>
</g>
<!-- 14 -->
<g id="node15" class="node">
<title>14</title>
<polygon fill="none" stroke="#000000" points="2803,-252 2527,-252 2527,-216 2803,-216 2803,-252"/>
<text text-anchor="middle" x="2665" y="-230.3" font-family="Times,serif" font-size="14.00" fill="#000000">SMPyBandits.PoliciesMultiPlayers.RandTopM</text>
</g>
<!-- 1&#45;&gt;14 -->
<g id="edge9" class="edge">
<title>1&#45;&gt;14</title>
<path fill="none" stroke="#000000" d="M2143.6173,-34.9659C2146.7776,-35.335 2149.9107,-35.6812 2153,-36 2234.1118,-44.3709 2813.9827,-33.7546 2886,-72 2933.3967,-97.1704 2974.096,-138.5577 2940,-180 2922.8312,-200.868 2868.7857,-213.7934 2813.0982,-221.7399"/>
<polygon fill="#000000" stroke="#000000" points="2803.0574,-223.118 2812.3526,-217.2999 2808.011,-222.4381 2812.9646,-221.7581 2812.9646,-221.7581 2812.9646,-221.7581 2808.011,-222.4381 2813.5765,-226.2163 2803.0574,-223.118 2803.0574,-223.118"/>
</g>
<!-- 15 -->
<g id="node16" class="node">
<title>15</title>
<polygon fill="none" stroke="#000000" points="2565.5,-180 2272.5,-180 2272.5,-144 2565.5,-144 2565.5,-180"/>
<text text-anchor="middle" x="2419" y="-158.3" font-family="Times,serif" font-size="14.00" fill="#000000">SMPyBandits.PoliciesMultiPlayers.RandTopMEst</text>
</g>
<!-- 1&#45;&gt;15 -->
<g id="edge10" class="edge">
<title>1&#45;&gt;15</title>
<path fill="none" stroke="#000000" d="M2135.8652,-36.0196C2174.5774,-44.7235 2219.1135,-56.6599 2258,-72 2303.3351,-89.884 2351.6688,-118.3124 2383.4131,-138.4274"/>
<polygon fill="#000000" stroke="#000000" points="2391.9104,-143.8647 2381.0618,-142.2652 2387.6988,-141.1698 2383.4873,-138.4748 2383.4873,-138.4748 2383.4873,-138.4748 2387.6988,-141.1698 2385.9127,-134.6844 2391.9104,-143.8647 2391.9104,-143.8647"/>
</g>
<!-- 16 -->
<g id="node17" class="node">
<title>16</title>
<polygon fill="none" stroke="#000000" points="3126.5,-252 2859.5,-252 2859.5,-216 3126.5,-216 3126.5,-252"/>
<text text-anchor="middle" x="2993" y="-230.3" font-family="Times,serif" font-size="14.00" fill="#000000">SMPyBandits.PoliciesMultiPlayers.Scenario1</text>
</g>
<!-- 1&#45;&gt;16 -->
<g id="edge11" class="edge">
<title>1&#45;&gt;16</title>
<path fill="none" stroke="#000000" d="M2143.6163,-34.9755C2146.7769,-35.3418 2149.9103,-35.6848 2153,-36 2238.2068,-44.6921 2850.9572,-25.6795 2923,-72 2968.6994,-101.3828 2984.6751,-167.7897 2990.1783,-205.83"/>
<polygon fill="#000000" stroke="#000000" points="2991.4688,-215.7528 2985.7166,-206.4167 2990.8239,-210.7945 2990.179,-205.8363 2990.179,-205.8363 2990.179,-205.8363 2990.8239,-210.7945 2994.6414,-205.2559 2991.4688,-215.7528 2991.4688,-215.7528"/>
</g>
<!-- 17 -->
<g id="node18" class="node">
<title>17</title>
<polygon fill="none" stroke="#000000" points="3395.5,-252 3144.5,-252 3144.5,-216 3395.5,-216 3395.5,-252"/>
<text text-anchor="middle" x="3270" y="-230.3" font-family="Times,serif" font-size="14.00" fill="#000000">SMPyBandits.PoliciesMultiPlayers.Selfish</text>
</g>
<!-- 1&#45;&gt;17 -->
<g id="edge12" class="edge">
<title>1&#45;&gt;17</title>
<path fill="none" stroke="#000000" d="M2143.6155,-34.9829C2146.7763,-35.3471 2149.91,-35.6876 2153,-36 2330.276,-53.9226 2781.7777,-26.3109 2954,-72 3064.015,-101.1861 3179.7015,-172.5323 3235.6596,-210.0484"/>
<polygon fill="#000000" stroke="#000000" points="3244.1176,-215.7674 3233.313,-213.8938 3239.9756,-212.9667 3235.8336,-210.166 3235.8336,-210.166 3235.8336,-210.166 3239.9756,-212.9667 3238.3542,-206.4382 3244.1176,-215.7674 3244.1176,-215.7674"/>
</g>
<!-- 18 -->
<g id="node19" class="node">
<title>18</title>
<polygon fill="none" stroke="#000000" points="3706.5,-252 3413.5,-252 3413.5,-216 3706.5,-216 3706.5,-252"/>
<text text-anchor="middle" x="3560" y="-230.3" font-family="Times,serif" font-size="14.00" fill="#000000">SMPyBandits.PoliciesMultiPlayers.rhoCentralized</text>
</g>
<!-- 1&#45;&gt;18 -->
<g id="edge13" class="edge">
<title>1&#45;&gt;18</title>
<path fill="none" stroke="#000000" d="M2143.6142,-34.9961C2146.7754,-35.3564 2149.9095,-35.6926 2153,-36 2535.0039,-73.9989 2637.3602,-8.7328 3016,-72 3198.7688,-102.539 3406.5499,-175.6205 3503.9857,-212.2691"/>
<polygon fill="#000000" stroke="#000000" points="3513.6287,-215.9128 3502.6836,-216.5875 3508.9515,-214.1454 3504.2742,-212.378 3504.2742,-212.378 3504.2742,-212.378 3508.9515,-214.1454 3505.8649,-208.1685 3513.6287,-215.9128 3513.6287,-215.9128"/>
</g>
<!-- 19 -->
<g id="node20" class="node">
<title>19</title>
<polygon fill="none" stroke="#000000" points="2104,-180 1856,-180 1856,-144 2104,-144 2104,-180"/>
<text text-anchor="middle" x="1980" y="-158.3" font-family="Times,serif" font-size="14.00" fill="#000000">SMPyBandits.PoliciesMultiPlayers.rhoEst</text>
</g>
<!-- 1&#45;&gt;19 -->
<g id="edge14" class="edge">
<title>1&#45;&gt;19</title>
<path fill="none" stroke="#000000" d="M2075.8018,-36.1426C2089.4596,-44.9373 2103.4533,-56.9065 2111,-72 2118.1554,-86.3108 2119.9005,-94.7041 2111,-108 2101.8775,-121.6275 2088.6229,-131.8195 2074.0067,-139.4411"/>
<polygon fill="#000000" stroke="#000000" points="2064.7549,-143.8621 2071.8374,-135.4902 2069.2662,-141.7063 2073.7776,-139.5505 2073.7776,-139.5505 2073.7776,-139.5505 2069.2662,-141.7063 2075.7179,-143.6107 2064.7549,-143.8621 2064.7549,-143.8621"/>
</g>
<!-- 20 -->
<g id="node21" class="node">
<title>20</title>
<polygon fill="none" stroke="#000000" points="1360.5,-180 1097.5,-180 1097.5,-144 1360.5,-144 1360.5,-180"/>
<text text-anchor="middle" x="1229" y="-158.3" font-family="Times,serif" font-size="14.00" fill="#000000">SMPyBandits.PoliciesMultiPlayers.rhoLearn</text>
</g>
<!-- 1&#45;&gt;20 -->
<g id="edge15" class="edge">
<title>1&#45;&gt;20</title>
<path fill="none" stroke="#000000" d="M1934.3844,-34.9824C1931.2236,-35.3467 1928.0899,-35.6874 1925,-36 1880.7917,-40.472 1156.7043,-39.8811 1126,-72 1114.9438,-83.5655 1117.7195,-94.3093 1126,-108 1134.0144,-121.2508 1146.4722,-131.4088 1159.9914,-139.1378"/>
<polygon fill="#000000" stroke="#000000" points="1168.9926,-143.8742 1158.0475,-143.1999 1164.5678,-141.5459 1160.143,-139.2175 1160.143,-139.2175 1160.143,-139.2175 1164.5678,-141.5459 1162.2385,-135.2352 1168.9926,-143.8742 1168.9926,-143.8742"/>
</g>
<!-- 21 -->
<g id="node22" class="node">
<title>21</title>
<polygon fill="none" stroke="#000000" points="1415,-108 1135,-108 1135,-72 1415,-72 1415,-108"/>
<text text-anchor="middle" x="1275" y="-86.3" font-family="Times,serif" font-size="14.00" fill="#000000">SMPyBandits.PoliciesMultiPlayers.rhoLearnEst</text>
</g>
<!-- 1&#45;&gt;21 -->
<g id="edge16" class="edge">
<title>1&#45;&gt;21</title>
<path fill="none" stroke="#000000" d="M1934.3723,-34.8703C1931.215,-35.2672 1928.0854,-35.6451 1925,-36 1705.4236,-61.2581 1649.0402,-51.1653 1429,-72 1427.7187,-72.1213 1426.4316,-72.2444 1425.1392,-72.3691"/>
<polygon fill="#000000" stroke="#000000" points="1415.1407,-73.3555 1424.6505,-67.8954 1420.1165,-72.8646 1425.0923,-72.3736 1425.0923,-72.3736 1425.0923,-72.3736 1420.1165,-72.8646 1425.5342,-76.8519 1415.1407,-73.3555 1415.1407,-73.3555"/>
</g>
<!-- 22 -->
<g id="node23" class="node">
<title>22</title>
<polygon fill="none" stroke="#000000" points="1669.5,-180 1378.5,-180 1378.5,-144 1669.5,-144 1669.5,-180"/>
<text text-anchor="middle" x="1524" y="-158.3" font-family="Times,serif" font-size="14.00" fill="#000000">SMPyBandits.PoliciesMultiPlayers.rhoLearnExp3</text>
</g>
<!-- 1&#45;&gt;22 -->
<g id="edge17" class="edge">
<title>1&#45;&gt;22</title>
<path fill="none" stroke="#000000" d="M1934.3699,-34.8493C1931.2133,-35.2523 1928.0844,-35.6372 1925,-36 1873.7537,-42.0285 1497.0438,-34.1257 1462,-72 1443.2112,-92.3064 1465.9383,-118.6776 1488.9845,-137.6174"/>
<polygon fill="#000000" stroke="#000000" points="1497.082,-143.9847 1486.4396,-141.3409 1493.1516,-140.8941 1489.2211,-137.8035 1489.2211,-137.8035 1489.2211,-137.8035 1493.1516,-140.8941 1492.0027,-134.2661 1497.082,-143.9847 1497.082,-143.9847"/>
</g>
<!-- 23 -->
<g id="node24" class="node">
<title>23</title>
<polygon fill="none" stroke="#000000" points="1519,-252 1259,-252 1259,-216 1519,-216 1519,-252"/>
<text text-anchor="middle" x="1389" y="-230.3" font-family="Times,serif" font-size="14.00" fill="#000000">SMPyBandits.PoliciesMultiPlayers.rhoRand</text>
</g>
<!-- 1&#45;&gt;23 -->
<g id="edge18" class="edge">
<title>1&#45;&gt;23</title>
<path fill="none" stroke="#000000" d="M1934.3847,-34.9852C1931.2238,-35.3487 1928.09,-35.6885 1925,-36 1835.2551,-45.0481 1186.3231,-18.0984 1114,-72 1074.4955,-101.4423 1057.3976,-142.2013 1089,-180 1094.8187,-186.9596 1180.4902,-201.9585 1258.7933,-214.3866"/>
<polygon fill="#000000" stroke="#000000" points="1268.7931,-215.9663 1258.2134,-218.8507 1263.8543,-215.1861 1258.9156,-214.4059 1258.9156,-214.4059 1258.9156,-214.4059 1263.8543,-215.1861 1259.6178,-209.961 1268.7931,-215.9663 1268.7931,-215.9663"/>
</g>
<!-- 24 -->
<g id="node25" class="node">
<title>24</title>
<polygon fill="none" stroke="#000000" points="1777.5,-108 1470.5,-108 1470.5,-72 1777.5,-72 1777.5,-108"/>
<text text-anchor="middle" x="1624" y="-86.3" font-family="Times,serif" font-size="14.00" fill="#000000">SMPyBandits.PoliciesMultiPlayers.rhoRandALOHA</text>
</g>
<!-- 1&#45;&gt;24 -->
<g id="edge19" class="edge">
<title>1&#45;&gt;24</title>
<path fill="none" stroke="#000000" d="M1935.0812,-36.0293C1875.1538,-46.4263 1799.7236,-59.513 1738.1488,-70.1959"/>
<polygon fill="#000000" stroke="#000000" points="1727.999,-71.9568 1737.0826,-65.8135 1732.9254,-71.1021 1737.8518,-70.2473 1737.8518,-70.2473 1737.8518,-70.2473 1732.9254,-71.1021 1738.6211,-74.6811 1727.999,-71.9568 1727.999,-71.9568"/>
</g>
<!-- 25 -->
<g id="node26" class="node">
<title>25</title>
<polygon fill="none" stroke="#000000" points="1825,-252 1537,-252 1537,-216 1825,-216 1825,-252"/>
<text text-anchor="middle" x="1681" y="-230.3" font-family="Times,serif" font-size="14.00" fill="#000000">SMPyBandits.PoliciesMultiPlayers.rhoRandRand</text>
</g>
<!-- 1&#45;&gt;25 -->
<g id="edge20" class="edge">
<title>1&#45;&gt;25</title>
<path fill="none" stroke="#000000" d="M2087.9922,-36.1733C2103.6146,-44.566 2119.1343,-56.2509 2128,-72 2141.5367,-96.0468 2117.3914,-175.9508 2113,-180 2110.3589,-182.4353 1958.3605,-201.0388 1835.4147,-215.7385"/>
<polygon fill="#000000" stroke="#000000" points="1825.1186,-216.9685 1834.5142,-211.314 1830.0833,-216.3754 1835.048,-215.7822 1835.048,-215.7822 1835.048,-215.7822 1830.0833,-216.3754 1835.5818,-220.2504 1825.1186,-216.9685 1825.1186,-216.9685"/>
</g>
<!-- 26 -->
<g id="node27" class="node">
<title>26</title>
<polygon fill="none" stroke="#000000" points="2102,-108 1796,-108 1796,-72 2102,-72 2102,-108"/>
<text text-anchor="middle" x="1949" y="-86.3" font-family="Times,serif" font-size="14.00" fill="#000000">SMPyBandits.PoliciesMultiPlayers.rhoRandRotating</text>
</g>
<!-- 1&#45;&gt;26 -->
<g id="edge21" class="edge">
<title>1&#45;&gt;26</title>
<path fill="none" stroke="#000000" d="M2016.2892,-36.1686C2005.204,-45.0368 1991.7046,-55.8363 1979.7148,-65.4282"/>
<polygon fill="#000000" stroke="#000000" points="1971.7035,-71.8372 1976.7011,-62.0763 1975.6079,-68.7137 1979.5122,-65.5902 1979.5122,-65.5902 1979.5122,-65.5902 1975.6079,-68.7137 1982.3234,-69.1041 1971.7035,-71.8372 1971.7035,-71.8372"/>
</g>
<!-- 27 -->
<g id="node28" class="node">
<title>27</title>
<polygon fill="none" stroke="#000000" points="1041,-108 747,-108 747,-72 1041,-72 1041,-108"/>
<text text-anchor="middle" x="894" y="-86.3" font-family="Times,serif" font-size="14.00" fill="#000000">SMPyBandits.PoliciesMultiPlayers.rhoRandSticky</text>
</g>
<!-- 1&#45;&gt;27 -->
<g id="edge22" class="edge">
<title>1&#45;&gt;27</title>
<path fill="none" stroke="#000000" d="M1934.3859,-34.9975C1931.2247,-35.3574 1928.0905,-35.6931 1925,-36 1539.8966,-74.242 1440.8702,-42.4825 1055,-72 1053.8783,-72.0858 1052.7523,-72.1733 1051.6224,-72.2625"/>
<polygon fill="#000000" stroke="#000000" points="1041.361,-73.1072 1050.9581,-67.8019 1046.3441,-72.6969 1051.3273,-72.2867 1051.3273,-72.2867 1051.3273,-72.2867 1046.3441,-72.6969 1051.6965,-76.7715 1041.361,-73.1072 1041.361,-73.1072"/>
</g>
<!-- 4 -->
<g id="node5" class="node">
<title>4</title>
<polygon fill="none" stroke="#000000" points="2116,-324 1822,-324 1822,-288 2116,-288 2116,-324"/>
<text text-anchor="middle" x="1969" y="-302.3" font-family="Times,serif" font-size="14.00" fill="#000000">SMPyBandits.PoliciesMultiPlayers.BaseMPPolicy</text>
</g>
<!-- 2&#45;&gt;4 -->
<g id="edge23" class="edge">
<title>2&#45;&gt;4</title>
<path fill="none" stroke="#000000" d="M2190.6888,-252.0757C2148.8249,-262.2588 2096.4001,-275.0108 2053.0427,-285.5572"/>
<polygon fill="#000000" stroke="#000000" points="2043.085,-287.9793 2051.7381,-281.2432 2047.9434,-286.7975 2052.8017,-285.6157 2052.8017,-285.6157 2052.8017,-285.6157 2047.9434,-286.7975 2053.8653,-289.9882 2043.085,-287.9793 2043.085,-287.9793"/>
</g>
<!-- 9 -->
<g id="node10" class="node">
<title>9</title>
<polygon fill="none" stroke="#000000" points="2416,-324 2134,-324 2134,-288 2416,-288 2416,-324"/>
<text text-anchor="middle" x="2275" y="-302.3" font-family="Times,serif" font-size="14.00" fill="#000000">SMPyBandits.PoliciesMultiPlayers.ChildPointer</text>
</g>
<!-- 2&#45;&gt;9 -->
<g id="edge24" class="edge">
<title>2&#45;&gt;9</title>
<path fill="none" stroke="#000000" d="M2267.5234,-252.1686C2268.5929,-259.869 2269.8647,-269.0257 2271.0532,-277.5834"/>
<polygon fill="#000000" stroke="#000000" points="2272.4426,-287.5867 2266.6096,-278.3009 2271.7547,-282.6343 2271.0668,-277.6818 2271.0668,-277.6818 2271.0668,-277.6818 2271.7547,-282.6343 2275.524,-277.0627 2272.4426,-287.5867 2272.4426,-287.5867"/>
</g>
<!-- 3 -->
<g id="node4" class="node">
<title>3</title>
<polygon fill="none" stroke="#000000" points="808,-324 472,-324 472,-288 808,-288 808,-324"/>
<text text-anchor="middle" x="640" y="-302.3" font-family="Times,serif" font-size="14.00" fill="#000000">SMPyBandits.PoliciesMultiPlayers.BaseCentralizedPolicy</text>
</g>
<!-- 5&#45;&gt;3 -->
<g id="edge25" class="edge">
<title>5&#45;&gt;3</title>
<path fill="none" stroke="#000000" d="M522.6177,-252.1686C543.5222,-261.7554 569.3483,-273.5992 591.4488,-283.7345"/>
<polygon fill="#000000" stroke="#000000" points="600.6672,-287.962 589.7015,-287.8838 596.1223,-285.8777 591.5774,-283.7934 591.5774,-283.7934 591.5774,-283.7934 596.1223,-285.8777 593.4533,-279.703 600.6672,-287.962 600.6672,-287.962"/>
</g>
<!-- 5&#45;&gt;4 -->
<g id="edge26" class="edge">
<title>5&#45;&gt;4</title>
<path fill="none" stroke="#000000" d="M642.1966,-251.2479C645.4923,-251.5103 648.7631,-251.7615 652,-252 1070.1217,-282.8059 1564.3104,-297.176 1811.5365,-302.8572"/>
<polygon fill="#000000" stroke="#000000" points="1821.674,-303.0885 1811.5739,-307.3591 1816.6753,-302.9744 1811.6766,-302.8603 1811.6766,-302.8603 1811.6766,-302.8603 1816.6753,-302.9744 1811.7793,-298.3615 1821.674,-303.0885 1821.674,-303.0885"/>
</g>
<!-- 5&#45;&gt;9 -->
<g id="edge27" class="edge">
<title>5&#45;&gt;9</title>
<path fill="none" stroke="#000000" d="M642.1915,-251.3215C645.4888,-251.5616 648.7612,-251.7883 652,-252 1302.1174,-294.4948 1470.1126,-241.484 2123.5727,-287.9404"/>
<polygon fill="#000000" stroke="#000000" points="2133.7141,-288.6666 2123.4182,-292.4408 2128.7269,-288.3094 2123.7396,-287.9523 2123.7396,-287.9523 2123.7396,-287.9523 2128.7269,-288.3094 2124.0611,-283.4638 2133.7141,-288.6666 2133.7141,-288.6666"/>
</g>
<!-- 6&#45;&gt;3 -->
<g id="edge28" class="edge">
<title>6&#45;&gt;3</title>
<path fill="none" stroke="#000000" d="M274.9481,-252.0293C345.8525,-262.5121 435.2507,-275.7291 507.8316,-286.4597"/>
<polygon fill="#000000" stroke="#000000" points="517.9578,-287.9568 507.4071,-290.9458 513.0115,-287.2255 508.0653,-286.4942 508.0653,-286.4942 508.0653,-286.4942 513.0115,-287.2255 508.7235,-282.0426 517.9578,-287.9568 517.9578,-287.9568"/>
</g>
<!-- 6&#45;&gt;4 -->
<g id="edge29" class="edge">
<title>6&#45;&gt;4</title>
<path fill="none" stroke="#000000" d="M306.0281,-251.3248C309.0432,-251.5618 312.0363,-251.7873 315,-252 863.8973,-291.3942 1517.3503,-302.0683 1811.6191,-304.9461"/>
<polygon fill="#000000" stroke="#000000" points="1821.9349,-305.0452 1811.8921,-309.4488 1816.9351,-304.9971 1811.9353,-304.949 1811.9353,-304.949 1811.9353,-304.949 1816.9351,-304.9971 1811.9786,-300.4492 1821.9349,-305.0452 1821.9349,-305.0452"/>
</g>
<!-- 6&#45;&gt;9 -->
<g id="edge30" class="edge">
<title>6&#45;&gt;9</title>
<path fill="none" stroke="#000000" d="M306.0246,-251.3769C309.0407,-251.598 312.035,-251.8062 315,-252 1114.5579,-304.263 1320.6403,-232.5978 2123.6442,-287.9499"/>
<polygon fill="#000000" stroke="#000000" points="2133.7154,-288.6486 2123.4279,-292.4456 2128.7274,-288.3025 2123.7394,-287.9564 2123.7394,-287.9564 2123.7394,-287.9564 2128.7274,-288.3025 2124.0508,-283.4672 2133.7154,-288.6486 2133.7154,-288.6486"/>
</g>
<!-- 7&#45;&gt;8 -->
<g id="edge31" class="edge">
<title>7&#45;&gt;8</title>
<path fill="none" stroke="#000000" d="M2734.5703,-108.1686C2737.8493,-116.0383 2741.762,-125.4288 2745.3945,-134.1467"/>
<polygon fill="#000000" stroke="#000000" points="2749.3278,-143.5867 2741.3277,-136.0868 2747.4047,-138.9713 2745.4816,-134.356 2745.4816,-134.356 2745.4816,-134.356 2747.4047,-138.9713 2749.6354,-132.6252 2749.3278,-143.5867 2749.3278,-143.5867"/>
</g>
<!-- 8&#45;&gt;4 -->
<g id="edge32" class="edge">
<title>8&#45;&gt;4</title>
<path fill="none" stroke="#000000" d="M2661.9215,-180.0445C2617.7491,-189.3015 2564.7695,-201.6555 2518,-216 2476.0222,-228.8749 2468.5934,-241.337 2426,-252 2422.2617,-252.9359 2256.8927,-272.3744 2126.1607,-287.6633"/>
<polygon fill="#000000" stroke="#000000" points="2116.0172,-288.8494 2125.4268,-283.2184 2120.9833,-288.2686 2125.9495,-287.6879 2125.9495,-287.6879 2125.9495,-287.6879 2120.9833,-288.2686 2126.4722,-292.1575 2116.0172,-288.8494 2116.0172,-288.8494"/>
</g>
<!-- 8&#45;&gt;9 -->
<g id="edge33" class="edge">
<title>8&#45;&gt;9</title>
<path fill="none" stroke="#000000" d="M2781.4289,-180.2387C2804.2497,-199.4295 2832.022,-229.8636 2812,-252 2786.4057,-280.2972 2575.9889,-294.4463 2426.3011,-300.9955"/>
<polygon fill="#000000" stroke="#000000" points="2416.0821,-301.435 2425.8795,-296.5094 2421.0775,-301.2202 2426.0729,-301.0053 2426.0729,-301.0053 2426.0729,-301.0053 2421.0775,-301.2202 2426.2663,-305.5011 2416.0821,-301.435 2416.0821,-301.435"/>
</g>
<!-- 10 -->
<g id="node11" class="node">
<title>10</title>
<polygon fill="none" stroke="#000000" points="2434,-36 2162,-36 2162,0 2434,0 2434,-36"/>
<text text-anchor="middle" x="2298" y="-14.3" font-family="Times,serif" font-size="14.00" fill="#000000">SMPyBandits.PoliciesMultiPlayers.DepRound</text>
</g>
<!-- 11&#45;&gt;4 -->
<g id="edge34" class="edge">
<title>11&#45;&gt;4</title>
<path fill="none" stroke="#000000" d="M1977.2242,-252.1686C1976.0478,-259.869 1974.6489,-269.0257 1973.3414,-277.5834"/>
<polygon fill="#000000" stroke="#000000" points="1971.8131,-287.5867 1968.8751,-277.0218 1972.5683,-282.6441 1973.3235,-277.7014 1973.3235,-277.7014 1973.3235,-277.7014 1972.5683,-282.6441 1977.7719,-278.3811 1971.8131,-287.5867 1971.8131,-287.5867"/>
</g>
<!-- 11&#45;&gt;9 -->
<g id="edge35" class="edge">
<title>11&#45;&gt;9</title>
<path fill="none" stroke="#000000" d="M2054.0602,-252.0757C2095.7826,-262.2588 2148.0303,-275.0108 2191.2413,-285.5572"/>
<polygon fill="#000000" stroke="#000000" points="2201.1653,-287.9793 2190.3834,-289.9798 2196.3078,-286.7937 2191.4504,-285.6082 2191.4504,-285.6082 2191.4504,-285.6082 2196.3078,-286.7937 2192.5174,-281.2365 2201.1653,-287.9793 2201.1653,-287.9793"/>
</g>
<!-- 12&#45;&gt;3 -->
<g id="edge36" class="edge">
<title>12&#45;&gt;3</title>
<path fill="none" stroke="#000000" d="M756.6346,-252.1686C735.8633,-261.7554 710.2017,-273.5992 688.2419,-283.7345"/>
<polygon fill="#000000" stroke="#000000" points="679.0823,-287.962 686.2761,-279.6855 683.6221,-285.8667 688.1619,-283.7714 688.1619,-283.7714 688.1619,-283.7714 683.6221,-285.8667 690.0477,-287.8572 679.0823,-287.962 679.0823,-287.962"/>
</g>
<!-- 12&#45;&gt;4 -->
<g id="edge37" class="edge">
<title>12&#45;&gt;4</title>
<path fill="none" stroke="#000000" d="M931.8102,-251.156C934.9012,-251.4505 937.9678,-251.7325 941,-252 1248.9067,-279.1639 1609.9902,-294.2716 1811.8553,-301.2147"/>
<polygon fill="#000000" stroke="#000000" points="1821.9417,-301.5594 1811.7938,-305.7152 1816.9446,-301.3886 1811.9475,-301.2178 1811.9475,-301.2178 1811.9475,-301.2178 1816.9446,-301.3886 1812.1013,-296.7204 1821.9417,-301.5594 1821.9417,-301.5594"/>
</g>
<!-- 12&#45;&gt;9 -->
<g id="edge38" class="edge">
<title>12&#45;&gt;9</title>
<path fill="none" stroke="#000000" d="M931.8026,-251.2473C934.8959,-251.5144 937.965,-251.766 941,-252 1462.5755,-292.2152 1598.2929,-249.1516 2123.5972,-287.9368"/>
<polygon fill="#000000" stroke="#000000" points="2133.7124,-288.6902 2123.4057,-292.4349 2128.7262,-288.3188 2123.74,-287.9473 2123.74,-287.9473 2123.74,-287.9473 2128.7262,-288.3188 2124.0743,-283.4598 2133.7124,-288.6902 2133.7124,-288.6902"/>
</g>
<!-- 13&#45;&gt;3 -->
<g id="edge39" class="edge">
<title>13&#45;&gt;3</title>
<path fill="none" stroke="#000000" d="M981.0649,-252.0293C915.0904,-262.4692 831.9785,-275.621 764.3167,-286.3279"/>
<polygon fill="#000000" stroke="#000000" points="754.023,-287.9568 763.1967,-281.9491 758.9616,-287.1753 763.9001,-286.3937 763.9001,-286.3937 763.9001,-286.3937 758.9616,-287.1753 764.6035,-290.8384 754.023,-287.9568 754.023,-287.9568"/>
</g>
<!-- 13&#45;&gt;4 -->
<g id="edge40" class="edge">
<title>13&#45;&gt;4</title>
<path fill="none" stroke="#000000" d="M1240.603,-251.0832C1243.7633,-251.3975 1246.8987,-251.7036 1250,-252 1443.03,-270.4492 1665.7172,-286.3432 1811.4914,-296.0192"/>
<polygon fill="#000000" stroke="#000000" points="1821.8527,-296.705 1811.5773,-300.5346 1816.8636,-296.3747 1811.8746,-296.0444 1811.8746,-296.0444 1811.8746,-296.0444 1816.8636,-296.3747 1812.1718,-291.5543 1821.8527,-296.705 1821.8527,-296.705"/>
</g>
<!-- 13&#45;&gt;9 -->
<g id="edge41" class="edge">
<title>13&#45;&gt;9</title>
<path fill="none" stroke="#000000" d="M1240.5905,-251.2269C1243.7545,-251.4978 1246.8941,-251.7561 1250,-252 1634.7078,-282.2097 1735.3223,-257.2241 2123.6053,-287.9262"/>
<polygon fill="#000000" stroke="#000000" points="2133.7091,-288.7325 2123.3828,-292.4227 2128.7249,-288.3347 2123.7408,-287.937 2123.7408,-287.937 2123.7408,-287.937 2128.7249,-288.3347 2124.0988,-283.4512 2133.7091,-288.7325 2133.7091,-288.7325"/>
</g>
<!-- 14&#45;&gt;4 -->
<g id="edge42" class="edge">
<title>14&#45;&gt;4</title>
<path fill="none" stroke="#000000" d="M2526.6688,-250.5321C2522.0586,-251.0349 2517.4925,-251.5257 2513,-252 2344.052,-269.8384 2298.9589,-270.0709 2126.5645,-287.8503"/>
<polygon fill="#000000" stroke="#000000" points="2116.3788,-288.9059 2125.8617,-283.399 2121.3522,-288.3904 2126.3256,-287.875 2126.3256,-287.875 2126.3256,-287.875 2121.3522,-288.3904 2126.7894,-292.351 2116.3788,-288.9059 2116.3788,-288.9059"/>
</g>
<!-- 14&#45;&gt;9 -->
<g id="edge43" class="edge">
<title>14&#45;&gt;9</title>
<path fill="none" stroke="#000000" d="M2567.3413,-252.0293C2511.1402,-262.4049 2440.4301,-275.4591 2382.6304,-286.1298"/>
<polygon fill="#000000" stroke="#000000" points="2372.734,-287.9568 2381.7508,-281.716 2377.6509,-287.049 2382.5678,-286.1412 2382.5678,-286.1412 2382.5678,-286.1412 2377.6509,-287.049 2383.3848,-290.5665 2372.734,-287.9568 2372.734,-287.9568"/>
</g>
<!-- 15&#45;&gt;4 -->
<g id="edge44" class="edge">
<title>15&#45;&gt;4</title>
<path fill="none" stroke="#000000" d="M2421.7093,-180.0625C2423.6636,-200.5753 2423.2053,-233.5783 2404,-252 2401.4016,-254.4924 2249.7306,-272.9238 2126.2207,-287.5697"/>
<polygon fill="#000000" stroke="#000000" points="2116.2518,-288.7509 2125.6528,-283.1054 2121.217,-288.1625 2126.1823,-287.5742 2126.1823,-287.5742 2126.1823,-287.5742 2121.217,-288.1625 2126.7118,-292.0429 2116.2518,-288.7509 2116.2518,-288.7509"/>
</g>
<!-- 15&#45;&gt;9 -->
<g id="edge45" class="edge">
<title>15&#45;&gt;9</title>
<path fill="none" stroke="#000000" d="M2430.2235,-180.3023C2440.5952,-199.8266 2452.2799,-230.8002 2437,-252 2427.81,-264.7505 2398.4418,-276.2025 2367.1869,-285.2443"/>
<polygon fill="#000000" stroke="#000000" points="2357.4468,-287.9718 2365.8629,-280.9419 2362.2616,-286.6235 2367.0764,-285.2752 2367.0764,-285.2752 2367.0764,-285.2752 2362.2616,-286.6235 2368.2899,-289.6085 2357.4468,-287.9718 2357.4468,-287.9718"/>
</g>
<!-- 15&#45;&gt;11 -->
<g id="edge46" class="edge">
<title>15&#45;&gt;11</title>
<path fill="none" stroke="#000000" d="M2309.0714,-180.0293C2245.4169,-190.4692 2165.2276,-203.621 2099.9451,-214.3279"/>
<polygon fill="#000000" stroke="#000000" points="2090.0134,-215.9568 2099.1532,-209.8976 2094.9475,-215.1475 2099.8816,-214.3382 2099.8816,-214.3382 2099.8816,-214.3382 2094.9475,-215.1475 2100.6099,-218.7789 2090.0134,-215.9568 2090.0134,-215.9568"/>
</g>
<!-- 15&#45;&gt;14 -->
<g id="edge47" class="edge">
<title>15&#45;&gt;14</title>
<path fill="none" stroke="#000000" d="M2480.7587,-180.0757C2514.9732,-190.0897 2557.6756,-202.588 2593.3524,-213.03"/>
<polygon fill="#000000" stroke="#000000" points="2603.2159,-215.9169 2592.3545,-217.4266 2598.4172,-214.5123 2593.6186,-213.1078 2593.6186,-213.1078 2593.6186,-213.1078 2598.4172,-214.5123 2594.8826,-208.789 2603.2159,-215.9169 2603.2159,-215.9169"/>
</g>
<!-- 16&#45;&gt;4 -->
<g id="edge48" class="edge">
<title>16&#45;&gt;4</title>
<path fill="none" stroke="#000000" d="M2859.128,-248.0225C2843.2534,-249.4753 2827.2717,-250.8411 2812,-252 2510.3993,-274.8863 2431.374,-262.7323 2126.3801,-287.9143"/>
<polygon fill="#000000" stroke="#000000" points="2116.364,-288.748 2125.9562,-283.434 2121.3468,-288.3332 2126.3295,-287.9184 2126.3295,-287.9184 2126.3295,-287.9184 2121.3468,-288.3332 2126.7028,-292.4029 2116.364,-288.748 2116.364,-288.748"/>
</g>
<!-- 16&#45;&gt;9 -->
<g id="edge49" class="edge">
<title>16&#45;&gt;9</title>
<path fill="none" stroke="#000000" d="M2859.4996,-250.402C2854.6063,-250.9506 2849.7607,-251.4851 2845,-252 2703.2637,-267.3302 2541.435,-282.4321 2426.5135,-292.7499"/>
<polygon fill="#000000" stroke="#000000" points="2416.2381,-293.6709 2425.7964,-288.296 2421.2182,-293.2245 2426.1982,-292.7781 2426.1982,-292.7781 2426.1982,-292.7781 2421.2182,-293.2245 2426.6,-297.2601 2416.2381,-293.6709 2416.2381,-293.6709"/>
</g>
<!-- 17&#45;&gt;4 -->
<g id="edge50" class="edge">
<title>17&#45;&gt;4</title>
<path fill="none" stroke="#000000" d="M3144.1474,-251.2704C3141.4082,-251.5282 3138.6897,-251.772 3136,-252 2691.2698,-289.6968 2575.0434,-254.7249 2126.3451,-287.9357"/>
<polygon fill="#000000" stroke="#000000" points="2116.3587,-288.682 2125.9955,-283.4492 2121.3448,-288.3093 2126.3309,-287.9367 2126.3309,-287.9367 2126.3309,-287.9367 2121.3448,-288.3093 2126.6663,-292.4241 2116.3587,-288.682 2116.3587,-288.682"/>
</g>
<!-- 17&#45;&gt;9 -->
<g id="edge51" class="edge">
<title>17&#45;&gt;9</title>
<path fill="none" stroke="#000000" d="M3144.4954,-251.1333C3141.638,-251.4346 3138.8032,-251.7242 3136,-252 2887.9242,-276.4102 2598.4903,-291.905 2426.3305,-299.7593"/>
<polygon fill="#000000" stroke="#000000" points="2416.183,-300.2196 2425.9688,-295.271 2421.1778,-299.993 2426.1727,-299.7663 2426.1727,-299.7663 2426.1727,-299.7663 2421.1778,-299.993 2426.3767,-304.2617 2416.183,-300.2196 2416.183,-300.2196"/>
</g>
<!-- 18&#45;&gt;4 -->
<g id="edge52" class="edge">
<title>18&#45;&gt;4</title>
<path fill="none" stroke="#000000" d="M3413.1763,-251.3809C3410.4295,-251.5987 3407.7021,-251.8055 3405,-252 2840.6812,-292.6244 2694.37,-247.8751 2126.4426,-287.9353"/>
<polygon fill="#000000" stroke="#000000" points="2116.3566,-288.6526 2126.0122,-283.4545 2121.344,-288.2979 2126.3314,-287.9432 2126.3314,-287.9432 2126.3314,-287.9432 2121.344,-288.2979 2126.6506,-292.4318 2116.3566,-288.6526 2116.3566,-288.6526"/>
</g>
<!-- 18&#45;&gt;9 -->
<g id="edge53" class="edge">
<title>18&#45;&gt;9</title>
<path fill="none" stroke="#000000" d="M3413.1707,-251.3074C3410.4256,-251.5477 3407.7,-251.779 3405,-252 3055.2658,-280.6304 2643.3021,-295.6001 2426.3159,-302.0318"/>
<polygon fill="#000000" stroke="#000000" points="2416.1316,-302.3316 2425.9948,-297.5392 2421.1295,-302.1844 2426.1273,-302.0372 2426.1273,-302.0372 2426.1273,-302.0372 2421.1295,-302.1844 2426.2598,-306.5353 2416.1316,-302.3316 2416.1316,-302.3316"/>
</g>
<!-- 19&#45;&gt;11 -->
<g id="edge54" class="edge">
<title>19&#45;&gt;11</title>
<path fill="none" stroke="#000000" d="M1980,-180.1686C1980,-187.869 1980,-197.0257 1980,-205.5834"/>
<polygon fill="#000000" stroke="#000000" points="1980,-215.5867 1975.5001,-205.5867 1980,-210.5867 1980.0001,-205.5867 1980.0001,-205.5867 1980.0001,-205.5867 1980,-210.5867 1984.5001,-205.5868 1980,-215.5867 1980,-215.5867"/>
</g>
<!-- 19&#45;&gt;23 -->
<g id="edge55" class="edge">
<title>19&#45;&gt;23</title>
<path fill="none" stroke="#000000" d="M1855.7377,-176.5109C1767.4859,-186.8959 1645.8915,-201.3639 1529.3881,-215.8329"/>
<polygon fill="#000000" stroke="#000000" points="1519.2153,-217.098 1528.5835,-211.3982 1524.1771,-216.4809 1529.1389,-215.8638 1529.1389,-215.8638 1529.1389,-215.8638 1524.1771,-216.4809 1529.6942,-220.3295 1519.2153,-217.098 1519.2153,-217.098"/>
</g>
<!-- 20&#45;&gt;23 -->
<g id="edge56" class="edge">
<title>20&#45;&gt;23</title>
<path fill="none" stroke="#000000" d="M1269.3748,-180.1686C1290.6787,-189.7554 1316.9983,-201.5992 1339.5211,-211.7345"/>
<polygon fill="#000000" stroke="#000000" points="1348.9156,-215.962 1337.9497,-215.962 1344.356,-213.9102 1339.7964,-211.8583 1339.7964,-211.8583 1339.7964,-211.8583 1344.356,-213.9102 1341.643,-207.7547 1348.9156,-215.962 1348.9156,-215.962"/>
</g>
<!-- 21&#45;&gt;20 -->
<g id="edge57" class="edge">
<title>21&#45;&gt;20</title>
<path fill="none" stroke="#000000" d="M1263.3923,-108.1686C1258.2022,-116.2921 1251.9768,-126.0363 1246.2575,-134.9882"/>
<polygon fill="#000000" stroke="#000000" points="1240.764,-143.5867 1242.3558,-132.737 1243.456,-139.3732 1246.148,-135.1598 1246.148,-135.1598 1246.148,-135.1598 1243.456,-139.3732 1249.9401,-137.5825 1240.764,-143.5867 1240.764,-143.5867"/>
</g>
<!-- 22&#45;&gt;23 -->
<g id="edge58" class="edge">
<title>22&#45;&gt;23</title>
<path fill="none" stroke="#000000" d="M1489.9338,-180.1686C1472.3467,-189.5484 1450.7084,-201.0888 1431.9832,-211.0756"/>
<polygon fill="#000000" stroke="#000000" points="1423.0553,-215.8372 1429.7612,-207.1606 1427.4671,-213.4842 1431.8788,-211.1312 1431.8788,-211.1312 1431.8788,-211.1312 1427.4671,-213.4842 1433.9965,-215.1018 1423.0553,-215.8372 1423.0553,-215.8372"/>
</g>
<!-- 23&#45;&gt;4 -->
<g id="edge59" class="edge">
<title>23&#45;&gt;4</title>
<path fill="none" stroke="#000000" d="M1519.2167,-250.8904C1522.172,-251.2648 1525.1029,-251.635 1528,-252 1622.1313,-263.8578 1727.6133,-276.7869 1811.8084,-287.0205"/>
<polygon fill="#000000" stroke="#000000" points="1821.9683,-288.2549 1811.4986,-291.5159 1817.0048,-287.6518 1812.0413,-287.0487 1812.0413,-287.0487 1812.0413,-287.0487 1817.0048,-287.6518 1812.5841,-282.5816 1821.9683,-288.2549 1821.9683,-288.2549"/>
</g>
<!-- 23&#45;&gt;9 -->
<g id="edge60" class="edge">
<title>23&#45;&gt;9</title>
<path fill="none" stroke="#000000" d="M1519.1899,-251.1341C1522.1531,-251.4352 1525.093,-251.7245 1528,-252 1789.2696,-276.7648 1858.5076,-264.4764 2123.3869,-287.8871"/>
<polygon fill="#000000" stroke="#000000" points="2133.7026,-288.808 2123.3421,-292.4009 2128.7224,-288.3634 2123.7423,-287.9187 2123.7423,-287.9187 2123.7423,-287.9187 2128.7224,-288.3634 2124.1424,-283.4365 2133.7026,-288.808 2133.7026,-288.808"/>
</g>
<!-- 24&#45;&gt;23 -->
<g id="edge61" class="edge">
<title>24&#45;&gt;23</title>
<path fill="none" stroke="#000000" d="M1648.4693,-108.2636C1670.8984,-127.2042 1697.9593,-157.1844 1679,-180 1673.3812,-186.7617 1590.3317,-201.8093 1514.5457,-214.3067"/>
<polygon fill="#000000" stroke="#000000" points="1504.3894,-215.9736 1513.5285,-209.9134 1509.3234,-215.1638 1514.2574,-214.3539 1514.2574,-214.3539 1514.2574,-214.3539 1509.3234,-215.1638 1514.9862,-218.7945 1504.3894,-215.9736 1504.3894,-215.9736"/>
</g>
<!-- 25&#45;&gt;4 -->
<g id="edge62" class="edge">
<title>25&#45;&gt;4</title>
<path fill="none" stroke="#000000" d="M1753.3028,-252.0757C1793.9495,-262.2374 1844.8284,-274.9571 1886.9622,-285.4906"/>
<polygon fill="#000000" stroke="#000000" points="1896.9173,-287.9793 1886.1244,-289.9195 1892.0666,-286.7666 1887.2158,-285.5539 1887.2158,-285.5539 1887.2158,-285.5539 1892.0666,-286.7666 1888.3073,-281.1882 1896.9173,-287.9793 1896.9173,-287.9793"/>
</g>
<!-- 25&#45;&gt;9 -->
<g id="edge63" class="edge">
<title>25&#45;&gt;9</title>
<path fill="none" stroke="#000000" d="M1825.1699,-251.4751C1915.7,-262.4485 2032.2702,-276.5782 2124.0587,-287.7041"/>
<polygon fill="#000000" stroke="#000000" points="2133.9911,-288.908 2123.5222,-292.1719 2129.0274,-288.3063 2124.0638,-287.7046 2124.0638,-287.7046 2124.0638,-287.7046 2129.0274,-288.3063 2124.6053,-283.2373 2133.9911,-288.908 2133.9911,-288.908"/>
</g>
<!-- 26&#45;&gt;23 -->
<g id="edge64" class="edge">
<title>26&#45;&gt;23</title>
<path fill="none" stroke="#000000" d="M1905.373,-108.0489C1855.5004,-128.0842 1771.0543,-160.1992 1696,-180 1642.1717,-194.201 1582.0317,-205.7086 1529.3443,-214.3942"/>
<polygon fill="#000000" stroke="#000000" points="1519.2539,-216.0384 1528.4,-209.9887 1524.1888,-215.2343 1529.1237,-214.4301 1529.1237,-214.4301 1529.1237,-214.4301 1524.1888,-215.2343 1529.8475,-218.8715 1519.2539,-216.0384 1519.2539,-216.0384"/>
</g>
<!-- 27&#45;&gt;23 -->
<g id="edge65" class="edge">
<title>27&#45;&gt;23</title>
<path fill="none" stroke="#000000" d="M919.7095,-108.1378C950.4154,-128.8822 1004.0423,-162.2599 1055,-180 1074.1765,-186.676 1170.0811,-201.8945 1254.2316,-214.4795"/>
<polygon fill="#000000" stroke="#000000" points="1264.1664,-215.9613 1253.6119,-218.9368 1259.2211,-215.2237 1254.2758,-214.486 1254.2758,-214.486 1254.2758,-214.486 1259.2211,-215.2237 1254.9397,-210.0353 1264.1664,-215.9613 1264.1664,-215.9613"/>
</g>
</g>
</svg>
