<?xml version="1.0" encoding="UTF-8" standalone="no"?>
<!DOCTYPE svg PUBLIC "-//W3C//DTD SVG 1.1//EN"
 "http://www.w3.org/Graphics/SVG/1.1/DTD/svg11.dtd">
<!-- Generated by graphviz version 2.40.1 (20161225.0304)
 -->
<!-- Title: packages_SMPyBandits.Policies.Experimentals Pages: 1 -->
<svg width="3270pt" height="188pt"
 viewBox="0.00 0.00 3270.00 188.00" xmlns="http://www.w3.org/2000/svg" xmlns:xlink="http://www.w3.org/1999/xlink">
<g id="graph0" class="graph" transform="scale(1 1) rotate(0) translate(4 184)">
<title>packages_SMPyBandits.Policies.Experimentals</title>
<polygon fill="#ffffff" stroke="transparent" points="-4,4 -4,-184 3266,-184 3266,4 -4,4"/>
<!-- 0 -->
<g id="node1" class="node">
<title>0</title>
<polygon fill="none" stroke="#000000" points="1572,-36 1351,-36 1351,0 1572,0 1572,-36"/>
<text text-anchor="middle" x="1461.5" y="-14.3" font-family="Times,serif" font-size="14.00" fill="#000000">SMPyBandits.Policies.Experimentals</text>
</g>
<!-- 1 -->
<g id="node2" class="node">
<title>1</title>
<polygon fill="none" stroke="#000000" points="299,-108 0,-108 0,-72 299,-72 299,-108"/>
<text text-anchor="middle" x="149.5" y="-86.3" font-family="Times,serif" font-size="14.00" fill="#000000">SMPyBandits.Policies.Experimentals.BlackBoxOpt</text>
</g>
<!-- 0&#45;&gt;1 -->
<g id="edge1" class="edge">
<title>0&#45;&gt;1</title>
<path fill="none" stroke="#000000" d="M1350.8487,-20.7555C1147.0173,-26.3659 698.2862,-41.2063 309.3181,-71.967"/>
<polygon fill="#000000" stroke="#000000" points="299.2746,-72.7659 308.8862,-67.487 304.2588,-72.3694 309.2431,-71.9729 309.2431,-71.9729 309.2431,-71.9729 304.2588,-72.3694 309.6,-76.4587 299.2746,-72.7659 299.2746,-72.7659"/>
</g>
<!-- 2 -->
<g id="node3" class="node">
<title>2</title>
<polygon fill="none" stroke="#000000" points="612,-108 317,-108 317,-72 612,-72 612,-108"/>
<text text-anchor="middle" x="464.5" y="-86.3" font-family="Times,serif" font-size="14.00" fill="#000000">SMPyBandits.Policies.Experimentals.KLempUCB</text>
</g>
<!-- 0&#45;&gt;2 -->
<g id="edge2" class="edge">
<title>0&#45;&gt;2</title>
<path fill="none" stroke="#000000" d="M1350.9556,-23.3433C1192.2404,-31.41 890.3738,-48.222 622.7041,-71.9178"/>
<polygon fill="#000000" stroke="#000000" points="612.3959,-72.8353 621.9575,-67.4664 617.3762,-72.392 622.3565,-71.9487 622.3565,-71.9487 622.3565,-71.9487 617.3762,-72.392 622.7555,-76.431 612.3959,-72.8353 612.3959,-72.8353"/>
</g>
<!-- 3 -->
<g id="node4" class="node">
<title>3</title>
<polygon fill="none" stroke="#000000" points="952.5,-108 630.5,-108 630.5,-72 952.5,-72 952.5,-108"/>
<text text-anchor="middle" x="791.5" y="-86.3" font-family="Times,serif" font-size="14.00" fill="#000000">SMPyBandits.Policies.Experimentals.ThompsonRobust</text>
</g>
<!-- 0&#45;&gt;3 -->
<g id="edge3" class="edge">
<title>0&#45;&gt;3</title>
<path fill="none" stroke="#000000" d="M1350.8631,-29.8893C1245.3913,-41.2236 1085.0054,-58.4591 962.9762,-71.5727"/>
<polygon fill="#000000" stroke="#000000" points="952.7776,-72.6687 962.2395,-67.1259 957.749,-72.1344 962.7204,-71.6001 962.7204,-71.6001 962.7204,-71.6001 957.749,-72.1344 963.2013,-76.0743 952.7776,-72.6687 952.7776,-72.6687"/>
</g>
<!-- 4 -->
<g id="node5" class="node">
<title>4</title>
<polygon fill="none" stroke="#000000" points="1248,-108 971,-108 971,-72 1248,-72 1248,-108"/>
<text text-anchor="middle" x="1109.5" y="-86.3" font-family="Times,serif" font-size="14.00" fill="#000000">SMPyBandits.Policies.Experimentals.UCBjulia</text>
</g>
<!-- 0&#45;&gt;4 -->
<g id="edge4" class="edge">
<title>0&#45;&gt;4</title>
<path fill="none" stroke="#000000" d="M1373.1299,-36.0757C1322.717,-46.3874 1259.4258,-59.3334 1207.494,-69.9558"/>
<polygon fill="#000000" stroke="#000000" points="1197.6011,-71.9793 1206.4964,-65.5666 1202.4997,-70.9773 1207.3983,-69.9753 1207.3983,-69.9753 1207.3983,-69.9753 1202.4997,-70.9773 1208.3001,-74.384 1197.6011,-71.9793 1197.6011,-71.9793"/>
</g>
<!-- 5 -->
<g id="node6" class="node">
<title>5</title>
<polygon fill="none" stroke="#000000" points="1510.5,-180 1226.5,-180 1226.5,-144 1510.5,-144 1510.5,-180"/>
<text text-anchor="middle" x="1368.5" y="-158.3" font-family="Times,serif" font-size="14.00" fill="#000000">SMPyBandits.Policies.Experimentals.UCBlog10</text>
</g>
<!-- 0&#45;&gt;5 -->
<g id="edge5" class="edge">
<title>0&#45;&gt;5</title>
<path fill="none" stroke="#000000" d="M1376.6383,-36.0866C1341.6005,-45.4317 1306.7605,-57.8461 1296.5,-72 1287.1092,-84.9543 1289.3446,-93.6892 1296.5,-108 1302.5138,-120.0276 1312.6214,-130.0713 1323.3907,-138.1056"/>
<polygon fill="#000000" stroke="#000000" points="1331.6982,-143.8574 1320.9148,-141.8647 1327.5873,-141.0111 1323.4764,-138.1649 1323.4764,-138.1649 1323.4764,-138.1649 1327.5873,-141.0111 1326.0381,-134.4651 1331.6982,-143.8574 1331.6982,-143.8574"/>
</g>
<!-- 6 -->
<g id="node7" class="node">
<title>6</title>
<polygon fill="none" stroke="#000000" points="1618,-108 1305,-108 1305,-72 1618,-72 1618,-108"/>
<text text-anchor="middle" x="1461.5" y="-86.3" font-family="Times,serif" font-size="14.00" fill="#000000">SMPyBandits.Policies.Experimentals.UCBlog10alpha</text>
</g>
<!-- 0&#45;&gt;6 -->
<g id="edge6" class="edge">
<title>0&#45;&gt;6</title>
<path fill="none" stroke="#000000" d="M1461.5,-36.1686C1461.5,-43.869 1461.5,-53.0257 1461.5,-61.5834"/>
<polygon fill="#000000" stroke="#000000" points="1461.5,-71.5867 1457.0001,-61.5867 1461.5,-66.5867 1461.5001,-61.5867 1461.5001,-61.5867 1461.5001,-61.5867 1461.5,-66.5867 1466.0001,-61.5868 1461.5,-71.5867 1461.5,-71.5867"/>
</g>
<!-- 7 -->
<g id="node8" class="node">
<title>7</title>
<polygon fill="none" stroke="#000000" points="1948.5,-108 1636.5,-108 1636.5,-72 1948.5,-72 1948.5,-108"/>
<text text-anchor="middle" x="1792.5" y="-86.3" font-family="Times,serif" font-size="14.00" fill="#000000">SMPyBandits.Policies.Experimentals.UCBoost_faster</text>
</g>
<!-- 0&#45;&gt;7 -->
<g id="edge7" class="edge">
<title>0&#45;&gt;7</title>
<path fill="none" stroke="#000000" d="M1544.598,-36.0757C1591.8062,-46.3446 1651.0239,-59.2257 1699.7426,-69.8232"/>
<polygon fill="#000000" stroke="#000000" points="1709.6549,-71.9793 1698.9269,-74.2509 1704.7692,-70.9165 1699.8834,-69.8537 1699.8834,-69.8537 1699.8834,-69.8537 1704.7692,-70.9165 1700.8399,-65.4565 1709.6549,-71.9793 1709.6549,-71.9793"/>
</g>
<!-- 8 -->
<g id="node9" class="node">
<title>8</title>
<polygon fill="none" stroke="#000000" points="2254,-108 1967,-108 1967,-72 2254,-72 2254,-108"/>
<text text-anchor="middle" x="2110.5" y="-86.3" font-family="Times,serif" font-size="14.00" fill="#000000">SMPyBandits.Policies.Experimentals.UCBwrong</text>
</g>
<!-- 0&#45;&gt;8 -->
<g id="edge8" class="edge">
<title>0&#45;&gt;8</title>
<path fill="none" stroke="#000000" d="M1572.2943,-34.8394C1575.3948,-35.2399 1578.4681,-35.6277 1581.5,-36 1744.8697,-56.0591 1788.8664,-54.2715 1956.595,-71.9204"/>
<polygon fill="#000000" stroke="#000000" points="1966.7679,-72.9986 1956.3493,-76.4195 1961.7957,-72.4716 1956.8236,-71.9445 1956.8236,-71.9445 1956.8236,-71.9445 1961.7957,-72.4716 1957.2979,-67.4696 1966.7679,-72.9986 1966.7679,-72.9986"/>
</g>
<!-- 9 -->
<g id="node10" class="node">
<title>9</title>
<polygon fill="none" stroke="#000000" points="2620.5,-108 2272.5,-108 2272.5,-72 2620.5,-72 2620.5,-108"/>
<text text-anchor="middle" x="2446.5" y="-86.3" font-family="Times,serif" font-size="14.00" fill="#000000">SMPyBandits.Policies.Experimentals.UnsupervisedLearning</text>
</g>
<!-- 0&#45;&gt;9 -->
<g id="edge9" class="edge">
<title>0&#45;&gt;9</title>
<path fill="none" stroke="#000000" d="M1572.2749,-35.0125C1575.3811,-35.3622 1578.4609,-35.6926 1581.5,-36 1880.1004,-66.2053 1959.0637,-49.523 2261.7625,-71.8921"/>
<polygon fill="#000000" stroke="#000000" points="2272.164,-72.6696 2261.8563,-76.4116 2267.1779,-72.2968 2262.1918,-71.9241 2262.1918,-71.9241 2262.1918,-71.9241 2267.1779,-72.2968 2262.5272,-67.4366 2272.164,-72.6696 2272.164,-72.6696"/>
</g>
<!-- 10 -->
<g id="node11" class="node">
<title>10</title>
<polygon fill="none" stroke="#000000" points="2932.5,-108 2638.5,-108 2638.5,-72 2932.5,-72 2932.5,-108"/>
<text text-anchor="middle" x="2785.5" y="-86.3" font-family="Times,serif" font-size="14.00" fill="#000000">SMPyBandits.Policies.Experimentals.klUCBlog10</text>
</g>
<!-- 0&#45;&gt;10 -->
<g id="edge10" class="edge">
<title>0&#45;&gt;10</title>
<path fill="none" stroke="#000000" d="M1572.2677,-35.0872C1575.376,-35.415 1578.4582,-35.7205 1581.5,-36 2042.3122,-78.3353 2163.0396,-37.8431 2628.1396,-71.9363"/>
<polygon fill="#000000" stroke="#000000" points="2638.1416,-72.677 2627.8366,-76.4261 2633.1553,-72.3077 2628.1689,-71.9384 2628.1689,-71.9384 2628.1689,-71.9384 2633.1553,-72.3077 2628.5013,-67.4507 2638.1416,-72.677 2638.1416,-72.677"/>
</g>
<!-- 11 -->
<g id="node12" class="node">
<title>11</title>
<polygon fill="none" stroke="#000000" points="3262,-108 2951,-108 2951,-72 3262,-72 3262,-108"/>
<text text-anchor="middle" x="3106.5" y="-86.3" font-family="Times,serif" font-size="14.00" fill="#000000">SMPyBandits.Policies.Experimentals.klUCBloglog10</text>
</g>
<!-- 0&#45;&gt;11 -->
<g id="edge11" class="edge">
<title>0&#45;&gt;11</title>
<path fill="none" stroke="#000000" d="M1572.2648,-35.1192C1575.3739,-35.4376 1578.4571,-35.7325 1581.5,-36 2180.4513,-88.6493 2336.4754,-31.8241 2940.3652,-71.9626"/>
<polygon fill="#000000" stroke="#000000" points="2950.6386,-72.6519 2940.3597,-76.4723 2945.6498,-72.3172 2940.661,-71.9824 2940.661,-71.9824 2940.661,-71.9824 2945.6498,-72.3172 2940.9623,-67.4925 2950.6386,-72.6519 2950.6386,-72.6519"/>
</g>
<!-- 6&#45;&gt;5 -->
<g id="edge12" class="edge">
<title>6&#45;&gt;5</title>
<path fill="none" stroke="#000000" d="M1438.0322,-108.1686C1426.4673,-117.1221 1412.3596,-128.0442 1399.8817,-137.7045"/>
<polygon fill="#000000" stroke="#000000" points="1391.9603,-143.8372 1397.1128,-134.1571 1395.9139,-140.7763 1399.8676,-137.7154 1399.8676,-137.7154 1399.8676,-137.7154 1395.9139,-140.7763 1402.6224,-141.2737 1391.9603,-143.8372 1391.9603,-143.8372"/>
</g>
<!-- 12 -->
<g id="node13" class="node">
<title>12</title>
<polygon fill="none" stroke="#000000" points="1844.5,-36 1590.5,-36 1590.5,0 1844.5,0 1844.5,-36"/>
<text text-anchor="middle" x="1717.5" y="-14.3" font-family="Times,serif" font-size="14.00" fill="#000000">SMPyBandits.Policies.Experimentals.setup</text>
</g>
</g>
</svg>
