<?xml version="1.0" encoding="UTF-8" standalone="no"?>
<!DOCTYPE svg PUBLIC "-//W3C//DTD SVG 1.1//EN"
 "http://www.w3.org/Graphics/SVG/1.1/DTD/svg11.dtd">
<!-- Generated by graphviz version 2.38.0 (20140413.2041)
 -->
<!-- Title: packages_AlgoBandits Pages: 1 -->
<svg width="4538pt" height="548pt"
 viewBox="0.00 0.00 4537.50 548.00" xmlns="http://www.w3.org/2000/svg" xmlns:xlink="http://www.w3.org/1999/xlink">
<g id="graph0" class="graph" transform="scale(1 1) rotate(0) translate(4 544)">
<title>packages_AlgoBandits</title>
<polygon fill="white" stroke="none" points="-4,4 -4,-544 4533.5,-544 4533.5,4 -4,4"/>
<!-- 0 -->
<g id="node1" class="node"><title>0</title>
<polygon fill="none" stroke="black" points="240.5,-108 186.5,-108 186.5,-72 240.5,-72 240.5,-108"/>
<text text-anchor="middle" x="213.5" y="-86.3" font-family="Times,serif" font-size="14.00">Arms</text>
</g>
<!-- 2 -->
<g id="node3" class="node"><title>2</title>
<polygon fill="none" stroke="black" points="466.5,-180 364.5,-180 364.5,-144 466.5,-144 466.5,-180"/>
<text text-anchor="middle" x="415.5" y="-158.3" font-family="Times,serif" font-size="14.00">Arms.Bernoulli</text>
</g>
<!-- 0&#45;&gt;2 -->
<g id="edge1" class="edge"><title>0&#45;&gt;2</title>
<path fill="none" stroke="black" d="M240.743,-100.441C270.327,-110.693 318.476,-127.378 356.75,-140.641"/>
<polygon fill="black" stroke="black" points="366.251,-143.933 355.329,-144.911 361.526,-142.296 356.802,-140.659 356.802,-140.659 356.802,-140.659 361.526,-142.296 358.275,-136.407 366.251,-143.933 366.251,-143.933"/>
</g>
<!-- 3 -->
<g id="node4" class="node"><title>3</title>
<polygon fill="none" stroke="black" points="346.5,-180 230.5,-180 230.5,-144 346.5,-144 346.5,-180"/>
<text text-anchor="middle" x="288.5" y="-158.3" font-family="Times,serif" font-size="14.00">Arms.Exponential</text>
</g>
<!-- 0&#45;&gt;3 -->
<g id="edge2" class="edge"><title>0&#45;&gt;3</title>
<path fill="none" stroke="black" d="M232.039,-108.303C241.303,-116.95 252.662,-127.551 262.757,-136.973"/>
<polygon fill="black" stroke="black" points="270.174,-143.896 259.793,-140.362 266.519,-140.484 262.863,-137.072 262.863,-137.072 262.863,-137.072 266.519,-140.484 265.934,-133.783 270.174,-143.896 270.174,-143.896"/>
</g>
<!-- 4 -->
<g id="node5" class="node"><title>4</title>
<polygon fill="none" stroke="black" points="101,-180 0,-180 0,-144 101,-144 101,-180"/>
<text text-anchor="middle" x="50.5" y="-158.3" font-family="Times,serif" font-size="14.00">Arms.Gaussian</text>
</g>
<!-- 0&#45;&gt;4 -->
<g id="edge3" class="edge"><title>0&#45;&gt;4</title>
<path fill="none" stroke="black" d="M186.217,-102.716C162.604,-112.857 127.878,-127.77 99.4647,-139.972"/>
<polygon fill="black" stroke="black" points="90.0959,-143.996 97.5087,-135.915 94.6902,-142.023 99.2844,-140.05 99.2844,-140.05 99.2844,-140.05 94.6902,-142.023 101.06,-144.184 90.0959,-143.996 90.0959,-143.996"/>
</g>
<!-- 5 -->
<g id="node6" class="node"><title>5</title>
<polygon fill="none" stroke="black" points="212,-180 119,-180 119,-144 212,-144 212,-180"/>
<text text-anchor="middle" x="165.5" y="-158.3" font-family="Times,serif" font-size="14.00">Arms.Poisson</text>
</g>
<!-- 0&#45;&gt;5 -->
<g id="edge4" class="edge"><title>0&#45;&gt;5</title>
<path fill="none" stroke="black" d="M201.635,-108.303C195.997,-116.526 189.146,-126.517 182.931,-135.579"/>
<polygon fill="black" stroke="black" points="177.229,-143.896 179.173,-133.103 180.056,-139.772 182.884,-135.648 182.884,-135.648 182.884,-135.648 180.056,-139.772 186.595,-138.193 177.229,-143.896 177.229,-143.896"/>
</g>
<!-- 1 -->
<g id="node2" class="node"><title>1</title>
<polygon fill="none" stroke="black" points="204,-252 127,-252 127,-216 204,-216 204,-252"/>
<text text-anchor="middle" x="165.5" y="-230.3" font-family="Times,serif" font-size="14.00">Arms.Arm</text>
</g>
<!-- 2&#45;&gt;1 -->
<g id="edge5" class="edge"><title>2&#45;&gt;1</title>
<path fill="none" stroke="black" d="M364.455,-177.534C361.427,-178.374 358.424,-179.202 355.5,-180 294.767,-196.582 278.94,-198.379 218.5,-216 217.05,-216.423 215.58,-216.857 214.098,-217.3"/>
<polygon fill="black" stroke="black" points="204.214,-220.319 212.463,-213.094 208.996,-218.858 213.778,-217.398 213.778,-217.398 213.778,-217.398 208.996,-218.858 215.092,-221.701 204.214,-220.319 204.214,-220.319"/>
</g>
<!-- 6 -->
<g id="node7" class="node"><title>6</title>
<polygon fill="none" stroke="black" points="108.5,-252 10.5,-252 10.5,-216 108.5,-216 108.5,-252"/>
<text text-anchor="middle" x="59.5" y="-230.3" font-family="Times,serif" font-size="14.00">Arms.kullback</text>
</g>
<!-- 2&#45;&gt;6 -->
<g id="edge6" class="edge"><title>2&#45;&gt;6</title>
<path fill="none" stroke="black" d="M364.22,-177.988C361.279,-178.705 358.357,-179.382 355.5,-180 254.105,-201.942 223.782,-193.461 118.799,-215.883"/>
<polygon fill="black" stroke="black" points="108.744,-218.075 117.556,-211.548 113.629,-217.01 118.514,-215.945 118.514,-215.945 118.514,-215.945 113.629,-217.01 119.473,-220.342 108.744,-218.075 108.744,-218.075"/>
</g>
<!-- 3&#45;&gt;1 -->
<g id="edge7" class="edge"><title>3&#45;&gt;1</title>
<path fill="none" stroke="black" d="M258.411,-180.124C242.18,-189.361 221.958,-200.869 204.529,-210.788"/>
<polygon fill="black" stroke="black" points="195.705,-215.81 202.17,-206.953 200.05,-213.337 204.396,-210.864 204.396,-210.864 204.396,-210.864 200.05,-213.337 206.622,-214.775 195.705,-215.81 195.705,-215.81"/>
</g>
<!-- 3&#45;&gt;6 -->
<g id="edge8" class="edge"><title>3&#45;&gt;6</title>
<path fill="none" stroke="black" d="M232.773,-180.034C198.163,-190.614 153.723,-204.198 118.515,-214.961"/>
<polygon fill="black" stroke="black" points="108.845,-217.916 117.093,-210.69 113.627,-216.455 118.408,-214.993 118.408,-214.993 118.408,-214.993 113.627,-216.455 119.724,-219.297 108.845,-217.916 108.845,-217.916"/>
</g>
<!-- 4&#45;&gt;1 -->
<g id="edge9" class="edge"><title>4&#45;&gt;1</title>
<path fill="none" stroke="black" d="M78.6322,-180.124C93.6684,-189.276 112.367,-200.658 128.56,-210.515"/>
<polygon fill="black" stroke="black" points="137.26,-215.81 126.378,-214.455 132.989,-213.21 128.718,-210.611 128.718,-210.611 128.718,-210.611 132.989,-213.21 131.057,-206.767 137.26,-215.81 137.26,-215.81"/>
</g>
<!-- 4&#45;&gt;6 -->
<g id="edge10" class="edge"><title>4&#45;&gt;6</title>
<path fill="none" stroke="black" d="M52.7247,-180.303C53.7165,-188.017 54.9084,-197.288 56.0141,-205.888"/>
<polygon fill="black" stroke="black" points="57.3009,-215.896 51.5623,-206.551 56.6632,-210.936 56.0256,-205.977 56.0256,-205.977 56.0256,-205.977 56.6632,-210.936 60.4888,-205.403 57.3009,-215.896 57.3009,-215.896"/>
</g>
<!-- 5&#45;&gt;1 -->
<g id="edge11" class="edge"><title>5&#45;&gt;1</title>
<path fill="none" stroke="black" d="M165.5,-180.303C165.5,-188.017 165.5,-197.288 165.5,-205.888"/>
<polygon fill="black" stroke="black" points="165.5,-215.896 161,-205.896 165.5,-210.896 165.5,-205.896 165.5,-205.896 165.5,-205.896 165.5,-210.896 170,-205.896 165.5,-215.896 165.5,-215.896"/>
</g>
<!-- 5&#45;&gt;6 -->
<g id="edge12" class="edge"><title>5&#45;&gt;6</title>
<path fill="none" stroke="black" d="M139.569,-180.124C125.838,-189.192 108.794,-200.448 93.9639,-210.241"/>
<polygon fill="black" stroke="black" points="85.5302,-215.81 91.3951,-206.544 89.7025,-213.055 93.8749,-210.3 93.8749,-210.3 93.8749,-210.3 89.7025,-213.055 96.3547,-214.055 85.5302,-215.81 85.5302,-215.81"/>
</g>
<!-- 7 -->
<g id="node8" class="node"><title>7</title>
<polygon fill="none" stroke="black" points="2432.5,-108 2344.5,-108 2344.5,-72 2432.5,-72 2432.5,-108"/>
<text text-anchor="middle" x="2388.5" y="-86.3" font-family="Times,serif" font-size="14.00">Environment</text>
</g>
<!-- 9 -->
<g id="node10" class="node"><title>9</title>
<polygon fill="none" stroke="black" points="2367.5,-180 2223.5,-180 2223.5,-144 2367.5,-144 2367.5,-180"/>
<text text-anchor="middle" x="2295.5" y="-158.3" font-family="Times,serif" font-size="14.00">Environment.Evaluator</text>
</g>
<!-- 7&#45;&gt;9 -->
<g id="edge13" class="edge"><title>7&#45;&gt;9</title>
<path fill="none" stroke="black" d="M2365.51,-108.303C2353.69,-117.204 2339.11,-128.177 2326.32,-137.801"/>
<polygon fill="black" stroke="black" points="2318.22,-143.896 2323.51,-134.287 2322.22,-140.889 2326.21,-137.882 2326.21,-137.882 2326.21,-137.882 2322.22,-140.889 2328.92,-141.477 2318.22,-143.896 2318.22,-143.896"/>
</g>
<!-- 10 -->
<g id="node11" class="node"><title>10</title>
<polygon fill="none" stroke="black" points="2776,-180 2561,-180 2561,-144 2776,-144 2776,-180"/>
<text text-anchor="middle" x="2668.5" y="-158.3" font-family="Times,serif" font-size="14.00">Environment.EvaluatorMultiPlayers</text>
</g>
<!-- 7&#45;&gt;10 -->
<g id="edge14" class="edge"><title>7&#45;&gt;10</title>
<path fill="none" stroke="black" d="M2432.67,-105.462C2435.65,-106.347 2438.61,-107.201 2441.5,-108 2486.37,-120.411 2536.74,-132.37 2578.62,-141.776"/>
<polygon fill="black" stroke="black" points="2588.52,-143.988 2577.78,-146.199 2583.64,-142.898 2578.76,-141.808 2578.76,-141.808 2578.76,-141.808 2583.64,-142.898 2579.74,-137.416 2588.52,-143.988 2588.52,-143.988"/>
</g>
<!-- 11 -->
<g id="node12" class="node"><title>11</title>
<polygon fill="none" stroke="black" points="2556,-252 2433,-252 2433,-216 2556,-216 2556,-252"/>
<text text-anchor="middle" x="2494.5" y="-230.3" font-family="Times,serif" font-size="14.00">Environment.MAB</text>
</g>
<!-- 7&#45;&gt;11 -->
<g id="edge15" class="edge"><title>7&#45;&gt;11</title>
<path fill="none" stroke="black" d="M2401.29,-108.129C2419.75,-132.863 2454.01,-178.758 2475.46,-207.488"/>
<polygon fill="black" stroke="black" points="2481.67,-215.811 2472.08,-210.489 2478.68,-211.804 2475.69,-207.797 2475.69,-207.797 2475.69,-207.797 2478.68,-211.804 2479.29,-205.105 2481.67,-215.811 2481.67,-215.811"/>
</g>
<!-- 12 -->
<g id="node13" class="node"><title>12</title>
<polygon fill="none" stroke="black" points="2414.5,-252 2288.5,-252 2288.5,-216 2414.5,-216 2414.5,-252"/>
<text text-anchor="middle" x="2351.5" y="-230.3" font-family="Times,serif" font-size="14.00">Environment.Result</text>
</g>
<!-- 7&#45;&gt;12 -->
<g id="edge16" class="edge"><title>7&#45;&gt;12</title>
<path fill="none" stroke="black" d="M2387.75,-108.054C2386.6,-126.211 2383.7,-155.629 2376.5,-180 2373.82,-189.073 2369.79,-198.549 2365.74,-206.937"/>
<polygon fill="black" stroke="black" points="2361.23,-215.866 2361.72,-204.911 2363.48,-211.402 2365.74,-206.938 2365.74,-206.938 2365.74,-206.938 2363.48,-211.402 2369.75,-208.966 2361.23,-215.866 2361.23,-215.866"/>
</g>
<!-- 8 -->
<g id="node9" class="node"><title>8</title>
<polygon fill="none" stroke="black" points="2756.5,-252 2574.5,-252 2574.5,-216 2756.5,-216 2756.5,-252"/>
<text text-anchor="middle" x="2665.5" y="-230.3" font-family="Times,serif" font-size="14.00">Environment.CollisionModels</text>
</g>
<!-- 9&#45;&gt;11 -->
<g id="edge17" class="edge"><title>9&#45;&gt;11</title>
<path fill="none" stroke="black" d="M2343.93,-180.034C2371.73,-189.815 2406.84,-202.164 2436.15,-212.476"/>
<polygon fill="black" stroke="black" points="2445.86,-215.889 2434.93,-216.816 2441.14,-214.23 2436.42,-212.571 2436.42,-212.571 2436.42,-212.571 2441.14,-214.23 2437.92,-208.326 2445.86,-215.889 2445.86,-215.889"/>
</g>
<!-- 9&#45;&gt;12 -->
<g id="edge18" class="edge"><title>9&#45;&gt;12</title>
<path fill="none" stroke="black" d="M2309.34,-180.303C2315.99,-188.611 2324.08,-198.723 2331.39,-207.859"/>
<polygon fill="black" stroke="black" points="2337.82,-215.896 2328.06,-210.898 2334.69,-211.991 2331.57,-208.087 2331.57,-208.087 2331.57,-208.087 2334.69,-211.991 2335.08,-205.276 2337.82,-215.896 2337.82,-215.896"/>
</g>
<!-- 14 -->
<g id="node15" class="node"><title>14</title>
<polygon fill="none" stroke="black" points="2571.5,-324 2417.5,-324 2417.5,-288 2571.5,-288 2571.5,-324"/>
<text text-anchor="middle" x="2494.5" y="-302.3" font-family="Times,serif" font-size="14.00">Environment.plotsettings</text>
</g>
<!-- 9&#45;&gt;14 -->
<g id="edge19" class="edge"><title>9&#45;&gt;14</title>
<path fill="none" stroke="black" d="M2285.18,-180.308C2275.07,-199.776 2263.33,-231.362 2279.5,-252 2295.59,-272.541 2355.07,-286.2 2407.4,-294.501"/>
<polygon fill="black" stroke="black" points="2417.42,-296.039 2406.85,-298.968 2412.48,-295.28 2407.54,-294.521 2407.54,-294.521 2407.54,-294.521 2412.48,-295.28 2408.22,-290.073 2417.42,-296.039 2417.42,-296.039"/>
</g>
<!-- 10&#45;&gt;8 -->
<g id="edge20" class="edge"><title>10&#45;&gt;8</title>
<path fill="none" stroke="black" d="M2667.76,-180.303C2667.43,-188.017 2667.03,-197.288 2666.66,-205.888"/>
<polygon fill="black" stroke="black" points="2666.23,-215.896 2662.17,-205.712 2666.45,-210.9 2666.66,-205.905 2666.66,-205.905 2666.66,-205.905 2666.45,-210.9 2671.16,-206.098 2666.23,-215.896 2666.23,-215.896"/>
</g>
<!-- 10&#45;&gt;11 -->
<g id="edge21" class="edge"><title>10&#45;&gt;11</title>
<path fill="none" stroke="black" d="M2625.93,-180.124C2601.94,-189.778 2571.77,-201.913 2546.4,-212.122"/>
<polygon fill="black" stroke="black" points="2536.93,-215.932 2544.52,-208.025 2541.57,-214.066 2546.2,-212.199 2546.2,-212.199 2546.2,-212.199 2541.57,-214.066 2547.88,-216.374 2536.93,-215.932 2536.93,-215.932"/>
</g>
<!-- 13 -->
<g id="node14" class="node"><title>13</title>
<polygon fill="none" stroke="black" points="3010,-252 2813,-252 2813,-216 3010,-216 3010,-252"/>
<text text-anchor="middle" x="2911.5" y="-230.3" font-family="Times,serif" font-size="14.00">Environment.ResultMultiPlayers</text>
</g>
<!-- 10&#45;&gt;13 -->
<g id="edge22" class="edge"><title>10&#45;&gt;13</title>
<path fill="none" stroke="black" d="M2727.63,-180.034C2762.18,-189.985 2805.95,-202.594 2842.12,-213.013"/>
<polygon fill="black" stroke="black" points="2852.1,-215.889 2841.25,-217.445 2847.3,-214.505 2842.49,-213.121 2842.49,-213.121 2842.49,-213.121 2847.3,-214.505 2843.74,-208.797 2852.1,-215.889 2852.1,-215.889"/>
</g>
<!-- 10&#45;&gt;14 -->
<g id="edge23" class="edge"><title>10&#45;&gt;14</title>
<path fill="none" stroke="black" d="M2722.52,-180.038C2739.27,-188.149 2755.86,-199.742 2765.5,-216 2773.66,-229.761 2775.67,-239.648 2765.5,-252 2742.45,-279.999 2651.97,-293.415 2581.83,-299.706"/>
<polygon fill="black" stroke="black" points="2571.64,-300.583 2581.22,-295.242 2576.62,-300.155 2581.6,-299.726 2581.6,-299.726 2581.6,-299.726 2576.62,-300.155 2581.99,-304.209 2571.64,-300.583 2571.64,-300.583"/>
</g>
<!-- 11&#45;&gt;14 -->
<g id="edge24" class="edge"><title>11&#45;&gt;14</title>
<path fill="none" stroke="black" d="M2494.5,-252.303C2494.5,-260.017 2494.5,-269.288 2494.5,-277.888"/>
<polygon fill="black" stroke="black" points="2494.5,-287.896 2490,-277.896 2494.5,-282.896 2494.5,-277.896 2494.5,-277.896 2494.5,-277.896 2494.5,-282.896 2499,-277.896 2494.5,-287.896 2494.5,-287.896"/>
</g>
<!-- 15 -->
<g id="node16" class="node"><title>15</title>
<polygon fill="none" stroke="black" points="1150,-180 1091,-180 1091,-144 1150,-144 1150,-180"/>
<text text-anchor="middle" x="1120.5" y="-158.3" font-family="Times,serif" font-size="14.00">Policies</text>
</g>
<!-- 16 -->
<g id="node17" class="node"><title>16</title>
<polygon fill="none" stroke="black" points="2018,-324 1897,-324 1897,-288 2018,-288 2018,-324"/>
<text text-anchor="middle" x="1957.5" y="-302.3" font-family="Times,serif" font-size="14.00">Policies.AdBandits</text>
</g>
<!-- 15&#45;&gt;16 -->
<g id="edge25" class="edge"><title>15&#45;&gt;16</title>
<path fill="none" stroke="black" d="M1150.3,-163.715C1298.12,-167.401 1946.63,-185.285 1975.5,-216 1991.18,-232.683 1983.28,-259.081 1973.5,-278.803"/>
<polygon fill="black" stroke="black" points="1968.65,-287.876 1969.4,-276.935 1971,-283.467 1973.36,-279.058 1973.36,-279.058 1973.36,-279.058 1971,-283.467 1977.33,-281.181 1968.65,-287.876 1968.65,-287.876"/>
</g>
<!-- 17 -->
<g id="node18" class="node"><title>17</title>
<polygon fill="none" stroke="black" points="1843,-468 1752,-468 1752,-432 1843,-432 1843,-468"/>
<text text-anchor="middle" x="1797.5" y="-446.3" font-family="Times,serif" font-size="14.00">Policies.Aggr</text>
</g>
<!-- 15&#45;&gt;17 -->
<g id="edge26" class="edge"><title>15&#45;&gt;17</title>
<path fill="none" stroke="black" d="M1150.11,-162.627C1288.7,-161.186 1868.8,-158.634 1922.5,-216 1933.43,-227.681 1928.52,-237.175 1922.5,-252 1914.11,-272.676 1900.84,-270.108 1887.5,-288 1854.72,-331.976 1825.52,-389.178 1809.78,-422.222"/>
<polygon fill="black" stroke="black" points="1805.33,-431.66 1805.52,-420.696 1807.46,-427.136 1809.59,-422.612 1809.59,-422.612 1809.59,-422.612 1807.46,-427.136 1813.66,-424.528 1805.33,-431.66 1805.33,-431.66"/>
</g>
<!-- 19 -->
<g id="node20" class="node"><title>19</title>
<polygon fill="none" stroke="black" points="1469.5,-252 1345.5,-252 1345.5,-216 1469.5,-216 1469.5,-252"/>
<text text-anchor="middle" x="1407.5" y="-230.3" font-family="Times,serif" font-size="14.00">Policies.BayesUCB</text>
</g>
<!-- 15&#45;&gt;19 -->
<g id="edge27" class="edge"><title>15&#45;&gt;19</title>
<path fill="none" stroke="black" d="M1150.13,-170.228C1193.55,-180.816 1275.77,-200.87 1335.62,-215.469"/>
<polygon fill="black" stroke="black" points="1345.4,-217.854 1334.62,-219.856 1340.54,-216.669 1335.69,-215.485 1335.69,-215.485 1335.69,-215.485 1340.54,-216.669 1336.75,-211.113 1345.4,-217.854 1345.4,-217.854"/>
</g>
<!-- 22 -->
<g id="node23" class="node"><title>22</title>
<polygon fill="none" stroke="black" points="2056,-396 1891,-396 1891,-360 2056,-360 2056,-396"/>
<text text-anchor="middle" x="1973.5" y="-374.3" font-family="Times,serif" font-size="14.00">Policies.EpsilonDecreasing</text>
</g>
<!-- 15&#45;&gt;22 -->
<g id="edge28" class="edge"><title>15&#45;&gt;22</title>
<path fill="none" stroke="black" d="M1150.3,-162.995C1295.41,-163.21 1923.86,-166.985 1994.5,-216 2035.63,-244.538 2045.66,-277.748 2026.5,-324 2021.96,-334.972 2013.91,-344.857 2005.45,-353.036"/>
<polygon fill="black" stroke="black" points="1997.98,-359.768 2002.39,-349.731 2001.69,-356.421 2005.41,-353.074 2005.41,-353.074 2005.41,-353.074 2001.69,-356.421 2008.42,-356.417 1997.98,-359.768 1997.98,-359.768"/>
</g>
<!-- 23 -->
<g id="node24" class="node"><title>23</title>
<polygon fill="none" stroke="black" points="2130,-468 2001,-468 2001,-432 2130,-432 2130,-468"/>
<text text-anchor="middle" x="2065.5" y="-446.3" font-family="Times,serif" font-size="14.00">Policies.EpsilonFirst</text>
</g>
<!-- 15&#45;&gt;23 -->
<g id="edge29" class="edge"><title>15&#45;&gt;23</title>
<path fill="none" stroke="black" d="M1150.03,-162.726C1298.18,-161.616 1956,-159.895 2025.5,-216 2086.79,-265.479 2078.66,-371.722 2070.76,-421.811"/>
<polygon fill="black" stroke="black" points="2069.05,-431.885 2066.28,-421.273 2069.88,-426.956 2070.72,-422.026 2070.72,-422.026 2070.72,-422.026 2069.88,-426.956 2075.16,-422.779 2069.05,-431.885 2069.05,-431.885"/>
</g>
<!-- 24 -->
<g id="node25" class="node"><title>24</title>
<polygon fill="none" stroke="black" points="2256.5,-396 2112.5,-396 2112.5,-360 2256.5,-360 2256.5,-396"/>
<text text-anchor="middle" x="2184.5" y="-374.3" font-family="Times,serif" font-size="14.00">Policies.EpsilonGreedy</text>
</g>
<!-- 15&#45;&gt;24 -->
<g id="edge30" class="edge"><title>15&#45;&gt;24</title>
<path fill="none" stroke="black" d="M1150.11,-162.895C1304.86,-162.569 2016.75,-163.928 2098.5,-216 2146.06,-246.293 2169.05,-312.256 2178.65,-349.668"/>
<polygon fill="black" stroke="black" points="2181.12,-359.851 2174.39,-351.189 2179.94,-354.991 2178.77,-350.131 2178.77,-350.131 2178.77,-350.131 2179.94,-354.991 2183.14,-349.073 2181.12,-359.851 2181.12,-359.851"/>
</g>
<!-- 27 -->
<g id="node28" class="node"><title>27</title>
<polygon fill="none" stroke="black" points="2326.5,-468 2222.5,-468 2222.5,-432 2326.5,-432 2326.5,-468"/>
<text text-anchor="middle" x="2274.5" y="-446.3" font-family="Times,serif" font-size="14.00">Policies.MEGA</text>
</g>
<!-- 15&#45;&gt;27 -->
<g id="edge31" class="edge"><title>15&#45;&gt;27</title>
<path fill="none" stroke="black" d="M1150.07,-163.242C1307.1,-164.703 2039.59,-173.75 2130.5,-216 2210.06,-252.972 2229.17,-280.149 2265.5,-360 2274.28,-379.289 2276.25,-403.301 2276.19,-421.521"/>
<polygon fill="black" stroke="black" points="2275.93,-431.761 2271.68,-421.653 2276.06,-426.762 2276.18,-421.764 2276.18,-421.764 2276.18,-421.764 2276.06,-426.762 2280.68,-421.874 2275.93,-431.761 2275.93,-431.761"/>
</g>
<!-- 28 -->
<g id="node29" class="node"><title>28</title>
<polygon fill="none" stroke="black" points="1083,-396 982,-396 982,-360 1083,-360 1083,-396"/>
<text text-anchor="middle" x="1032.5" y="-374.3" font-family="Times,serif" font-size="14.00">Policies.MOSS</text>
</g>
<!-- 15&#45;&gt;28 -->
<g id="edge32" class="edge"><title>15&#45;&gt;28</title>
<path fill="none" stroke="black" d="M1090.73,-164.88C1031.31,-169.318 901.398,-182.69 874.5,-216 808.192,-298.115 949.853,-221.549 1013.5,-288 1029.08,-304.27 1033.2,-330.028 1033.79,-349.656"/>
<polygon fill="black" stroke="black" points="1033.81,-359.831 1029.29,-349.838 1033.8,-354.831 1033.79,-349.831 1033.79,-349.831 1033.79,-349.831 1033.8,-354.831 1038.29,-349.824 1033.81,-359.831 1033.81,-359.831"/>
</g>
<!-- 29 -->
<g id="node30" class="node"><title>29</title>
<polygon fill="none" stroke="black" points="495,-468 358,-468 358,-432 495,-432 495,-468"/>
<text text-anchor="middle" x="426.5" y="-446.3" font-family="Times,serif" font-size="14.00">Policies.MusicalChair</text>
</g>
<!-- 15&#45;&gt;29 -->
<g id="edge33" class="edge"><title>15&#45;&gt;29</title>
<path fill="none" stroke="black" d="M1090.75,-162.754C951.47,-161.891 368.246,-161.565 310.5,-216 275.451,-249.039 285.673,-278.508 301.5,-324 316.94,-368.379 358.623,-404.386 389.635,-426.16"/>
<polygon fill="black" stroke="black" points="398.069,-431.92 387.273,-429.996 393.94,-429.1 389.811,-426.28 389.811,-426.28 389.811,-426.28 393.94,-429.1 392.348,-422.564 398.069,-431.92 398.069,-431.92"/>
</g>
<!-- 31 -->
<g id="node32" class="node"><title>31</title>
<polygon fill="none" stroke="black" points="477.5,-396 367.5,-396 367.5,-360 477.5,-360 477.5,-396"/>
<text text-anchor="middle" x="422.5" y="-374.3" font-family="Times,serif" font-size="14.00">Policies.Softmax</text>
</g>
<!-- 15&#45;&gt;31 -->
<g id="edge34" class="edge"><title>15&#45;&gt;31</title>
<path fill="none" stroke="black" d="M1090.66,-163.234C956.127,-164.531 409.956,-172.46 348.5,-216 307.752,-244.869 291.327,-281.47 317.5,-324 326.849,-339.192 342.044,-350.187 358.006,-358.08"/>
<polygon fill="black" stroke="black" points="367.455,-362.378 356.489,-362.334 362.904,-360.308 358.352,-358.238 358.352,-358.238 358.352,-358.238 362.904,-360.308 360.215,-354.142 367.455,-362.378 367.455,-362.378"/>
</g>
<!-- 32 -->
<g id="node33" class="node"><title>32</title>
<polygon fill="none" stroke="black" points="1712.5,-324 1566.5,-324 1566.5,-288 1712.5,-288 1712.5,-324"/>
<text text-anchor="middle" x="1639.5" y="-302.3" font-family="Times,serif" font-size="14.00">Policies.TakeFixedArm</text>
</g>
<!-- 15&#45;&gt;32 -->
<g id="edge35" class="edge"><title>15&#45;&gt;32</title>
<path fill="none" stroke="black" d="M1150.05,-163.478C1261.62,-165.584 1652.87,-175.803 1689.5,-216 1707.07,-235.283 1687.91,-261.815 1668.44,-280.885"/>
<polygon fill="black" stroke="black" points="1661.04,-287.798 1665.28,-277.682 1664.69,-284.384 1668.35,-280.971 1668.35,-280.971 1668.35,-280.971 1664.69,-284.384 1671.42,-284.259 1661.04,-287.798 1661.04,-287.798"/>
</g>
<!-- 33 -->
<g id="node34" class="node"><title>33</title>
<polygon fill="none" stroke="black" points="1681,-252 1488,-252 1488,-216 1681,-216 1681,-252"/>
<text text-anchor="middle" x="1584.5" y="-230.3" font-family="Times,serif" font-size="14.00">Policies.TakeRandomFixedArm</text>
</g>
<!-- 15&#45;&gt;33 -->
<g id="edge36" class="edge"><title>15&#45;&gt;33</title>
<path fill="none" stroke="black" d="M1150.22,-167.277C1210.04,-175.91 1349.47,-196.168 1477.74,-215.893"/>
<polygon fill="black" stroke="black" points="1487.74,-217.433 1477.18,-220.359 1482.8,-216.672 1477.86,-215.911 1477.86,-215.911 1477.86,-215.911 1482.8,-216.672 1478.55,-211.464 1487.74,-217.433 1487.74,-217.433"/>
</g>
<!-- 34 -->
<g id="node35" class="node"><title>34</title>
<polygon fill="none" stroke="black" points="1327.5,-252 1205.5,-252 1205.5,-216 1327.5,-216 1327.5,-252"/>
<text text-anchor="middle" x="1266.5" y="-230.3" font-family="Times,serif" font-size="14.00">Policies.Thompson</text>
</g>
<!-- 15&#45;&gt;34 -->
<g id="edge37" class="edge"><title>15&#45;&gt;34</title>
<path fill="none" stroke="black" d="M1150.05,-177.166C1170.55,-186.997 1198.25,-200.277 1221.49,-211.418"/>
<polygon fill="black" stroke="black" points="1230.81,-215.887 1219.85,-215.622 1226.3,-213.726 1221.79,-211.564 1221.79,-211.564 1221.79,-211.564 1226.3,-213.726 1223.74,-207.506 1230.81,-215.887 1230.81,-215.887"/>
</g>
<!-- 35 -->
<g id="node36" class="node"><title>35</title>
<polygon fill="none" stroke="black" points="694,-396 603,-396 603,-360 694,-360 694,-396"/>
<text text-anchor="middle" x="648.5" y="-374.3" font-family="Times,serif" font-size="14.00">Policies.UCB</text>
</g>
<!-- 15&#45;&gt;35 -->
<g id="edge38" class="edge"><title>15&#45;&gt;35</title>
<path fill="none" stroke="black" d="M1090.89,-162.9C973.624,-162.86 542.108,-166.17 416.5,-216 369.207,-234.762 349.415,-242.083 327.5,-288 320.608,-302.44 317.149,-311.8 327.5,-324 344.46,-343.99 505.637,-362.86 592.941,-371.721"/>
<polygon fill="black" stroke="black" points="602.95,-372.726 592.551,-376.205 597.975,-372.227 593,-371.727 593,-371.727 593,-371.727 597.975,-372.227 593.45,-367.25 602.95,-372.726 602.95,-372.726"/>
</g>
<!-- 36 -->
<g id="node37" class="node"><title>36</title>
<polygon fill="none" stroke="black" points="438,-324 337,-324 337,-288 438,-288 438,-324"/>
<text text-anchor="middle" x="387.5" y="-302.3" font-family="Times,serif" font-size="14.00">Policies.UCBV</text>
</g>
<!-- 15&#45;&gt;36 -->
<g id="edge39" class="edge"><title>15&#45;&gt;36</title>
<path fill="none" stroke="black" d="M1090.74,-163.995C969.288,-168.244 514.874,-186.028 458.5,-216 432.469,-229.84 412.669,-257.765 400.676,-278.664"/>
<polygon fill="black" stroke="black" points="395.72,-287.696 396.585,-276.765 398.125,-283.313 400.531,-278.929 400.531,-278.929 400.531,-278.929 398.125,-283.313 404.476,-281.094 395.72,-287.696 395.72,-287.696"/>
</g>
<!-- 37 -->
<g id="node38" class="node"><title>37</title>
<polygon fill="none" stroke="black" points="576.5,-324 456.5,-324 456.5,-288 576.5,-288 576.5,-324"/>
<text text-anchor="middle" x="516.5" y="-302.3" font-family="Times,serif" font-size="14.00">Policies.UCBalpha</text>
</g>
<!-- 15&#45;&gt;37 -->
<g id="edge40" class="edge"><title>15&#45;&gt;37</title>
<path fill="none" stroke="black" d="M1090.84,-164.01C1023.34,-166.928 853.548,-177.79 717.5,-216 659.334,-232.336 596.243,-262.502 556.561,-283.147"/>
<polygon fill="black" stroke="black" points="547.483,-287.916 554.242,-279.282 551.909,-285.591 556.335,-283.265 556.335,-283.265 556.335,-283.265 551.909,-285.591 558.428,-287.249 547.483,-287.916 547.483,-287.916"/>
</g>
<!-- 38 -->
<g id="node39" class="node"><title>38</title>
<polygon fill="none" stroke="black" points="702.5,-324 594.5,-324 594.5,-288 702.5,-288 702.5,-324"/>
<text text-anchor="middle" x="648.5" y="-302.3" font-family="Times,serif" font-size="14.00">Policies.UCBopt</text>
</g>
<!-- 15&#45;&gt;38 -->
<g id="edge41" class="edge"><title>15&#45;&gt;38</title>
<path fill="none" stroke="black" d="M1090.71,-163.786C1031.45,-166.201 895.401,-176.028 789.5,-216 747.53,-231.841 704.704,-261.117 677.438,-281.758"/>
<polygon fill="black" stroke="black" points="669.494,-287.862 674.682,-278.2 673.459,-284.815 677.424,-281.769 677.424,-281.769 677.424,-281.769 673.459,-284.815 680.166,-285.337 669.494,-287.862 669.494,-287.862"/>
</g>
<!-- 39 -->
<g id="node40" class="node"><title>39</title>
<polygon fill="none" stroke="black" points="834,-324 721,-324 721,-288 834,-288 834,-324"/>
<text text-anchor="middle" x="777.5" y="-302.3" font-family="Times,serif" font-size="14.00">Policies.UCBplus</text>
</g>
<!-- 15&#45;&gt;39 -->
<g id="edge42" class="edge"><title>15&#45;&gt;39</title>
<path fill="none" stroke="black" d="M1090.91,-164.79C1023.67,-169.387 861.938,-183.599 819.5,-216 799.725,-231.098 788.858,-257.816 783.162,-278.05"/>
<polygon fill="black" stroke="black" points="780.636,-287.944 778.75,-277.142 781.873,-283.1 783.11,-278.255 783.11,-278.255 783.11,-278.255 781.873,-283.1 787.47,-279.368 780.636,-287.944 780.636,-287.944"/>
</g>
<!-- 40 -->
<g id="node41" class="node"><title>40</title>
<polygon fill="none" stroke="black" points="1004.5,-324 852.5,-324 852.5,-288 1004.5,-288 1004.5,-324"/>
<text text-anchor="middle" x="928.5" y="-302.3" font-family="Times,serif" font-size="14.00">Policies.UCBrandomInit</text>
</g>
<!-- 15&#45;&gt;40 -->
<g id="edge43" class="edge"><title>15&#45;&gt;40</title>
<path fill="none" stroke="black" d="M1090.81,-163.791C1023.5,-166.275 862.603,-176.323 829.5,-216 819.25,-228.286 821.279,-238.274 829.5,-252 837.512,-265.377 850.181,-275.568 863.815,-283.259"/>
<polygon fill="black" stroke="black" points="872.874,-287.961 861.926,-287.349 868.436,-285.658 863.998,-283.355 863.998,-283.355 863.998,-283.355 868.436,-285.658 866.071,-279.36 872.874,-287.961 872.874,-287.961"/>
</g>
<!-- 41 -->
<g id="node42" class="node"><title>41</title>
<polygon fill="none" stroke="black" points="589,-252 468,-252 468,-216 589,-216 589,-252"/>
<text text-anchor="middle" x="528.5" y="-230.3" font-family="Times,serif" font-size="14.00">Policies.UCBtuned</text>
</g>
<!-- 15&#45;&gt;41 -->
<g id="edge44" class="edge"><title>15&#45;&gt;41</title>
<path fill="none" stroke="black" d="M1090.84,-165.479C1013.86,-172.064 801.371,-191.202 625.5,-216 616.951,-217.205 608.001,-218.597 599.14,-220.054"/>
<polygon fill="black" stroke="black" points="589.2,-221.72 598.318,-215.629 594.131,-220.893 599.063,-220.067 599.063,-220.067 599.063,-220.067 594.131,-220.893 599.807,-224.505 589.2,-221.72 589.2,-221.72"/>
</g>
<!-- 42 -->
<g id="node43" class="node"><title>42</title>
<polygon fill="none" stroke="black" points="1840.5,-324 1730.5,-324 1730.5,-288 1840.5,-288 1840.5,-324"/>
<text text-anchor="middle" x="1785.5" y="-302.3" font-family="Times,serif" font-size="14.00">Policies.Uniform</text>
</g>
<!-- 15&#45;&gt;42 -->
<g id="edge45" class="edge"><title>15&#45;&gt;42</title>
<path fill="none" stroke="black" d="M1150.36,-162.673C1287.45,-161.478 1852.16,-160.001 1904.5,-216 1915.43,-227.689 1913.21,-238.581 1904.5,-252 1897.43,-262.891 1872.76,-274.675 1847.7,-284.36"/>
<polygon fill="black" stroke="black" points="1838.11,-287.963 1845.89,-280.232 1842.79,-286.204 1847.47,-284.445 1847.47,-284.445 1847.47,-284.445 1842.79,-286.204 1849.06,-288.657 1838.11,-287.963 1838.11,-287.963"/>
</g>
<!-- 43 -->
<g id="node44" class="node"><title>43</title>
<polygon fill="none" stroke="black" points="1895.5,-252 1737.5,-252 1737.5,-216 1895.5,-216 1895.5,-252"/>
<text text-anchor="middle" x="1816.5" y="-230.3" font-family="Times,serif" font-size="14.00">Policies.UniformOnSome</text>
</g>
<!-- 15&#45;&gt;43 -->
<g id="edge46" class="edge"><title>15&#45;&gt;43</title>
<path fill="none" stroke="black" d="M1150.1,-164.622C1237.87,-169.642 1504.27,-186.394 1723.5,-216 1724.78,-216.173 1726.07,-216.351 1727.37,-216.535"/>
<polygon fill="black" stroke="black" points="1737.43,-218.029 1726.88,-221.011 1732.49,-217.295 1727.54,-216.56 1727.54,-216.56 1727.54,-216.56 1732.49,-217.295 1728.2,-212.109 1737.43,-218.029 1737.43,-218.029"/>
</g>
<!-- 44 -->
<g id="node45" class="node"><title>44</title>
<polygon fill="none" stroke="black" points="1162,-324 1061,-324 1061,-288 1162,-288 1162,-324"/>
<text text-anchor="middle" x="1111.5" y="-302.3" font-family="Times,serif" font-size="14.00">Policies.klUCB</text>
</g>
<!-- 15&#45;&gt;44 -->
<g id="edge47" class="edge"><title>15&#45;&gt;44</title>
<path fill="none" stroke="black" d="M1090.93,-165.682C1036.5,-171.296 923.899,-186.295 900.5,-216 824.882,-311.998 940.845,-261.159 1046.5,-288 1047.95,-288.368 1049.41,-288.742 1050.89,-289.12"/>
<polygon fill="black" stroke="black" points="1060.78,-291.66 1049.97,-293.529 1055.93,-290.415 1051.09,-289.17 1051.09,-289.17 1051.09,-289.17 1055.93,-290.415 1052.21,-284.812 1060.78,-291.66 1060.78,-291.66"/>
</g>
<!-- 45 -->
<g id="node46" class="node"><title>45</title>
<polygon fill="none" stroke="black" points="1187.5,-252 1053.5,-252 1053.5,-216 1187.5,-216 1187.5,-252"/>
<text text-anchor="middle" x="1120.5" y="-230.3" font-family="Times,serif" font-size="14.00">Policies.klUCBHPlus</text>
</g>
<!-- 15&#45;&gt;45 -->
<g id="edge48" class="edge"><title>15&#45;&gt;45</title>
<path fill="none" stroke="black" d="M1120.5,-180.303C1120.5,-188.017 1120.5,-197.288 1120.5,-205.888"/>
<polygon fill="black" stroke="black" points="1120.5,-215.896 1116,-205.896 1120.5,-210.896 1120.5,-205.896 1120.5,-205.896 1120.5,-205.896 1120.5,-210.896 1125,-205.896 1120.5,-215.896 1120.5,-215.896"/>
</g>
<!-- 46 -->
<g id="node47" class="node"><title>46</title>
<polygon fill="none" stroke="black" points="1035,-252 910,-252 910,-216 1035,-216 1035,-252"/>
<text text-anchor="middle" x="972.5" y="-230.3" font-family="Times,serif" font-size="14.00">Policies.klUCBPlus</text>
</g>
<!-- 15&#45;&gt;46 -->
<g id="edge49" class="edge"><title>15&#45;&gt;46</title>
<path fill="none" stroke="black" d="M1090.91,-176.997C1069.98,-186.895 1041.54,-200.348 1017.77,-211.588"/>
<polygon fill="black" stroke="black" points="1008.58,-215.934 1015.7,-207.59 1013.1,-213.796 1017.62,-211.658 1017.62,-211.658 1017.62,-211.658 1013.1,-213.796 1019.55,-215.726 1008.58,-215.934 1008.58,-215.934"/>
</g>
<!-- 18 -->
<g id="node19" class="node"><title>18</title>
<polygon fill="none" stroke="black" points="1859.5,-540 1735.5,-540 1735.5,-504 1859.5,-504 1859.5,-540"/>
<text text-anchor="middle" x="1797.5" y="-518.3" font-family="Times,serif" font-size="14.00">Policies.BasePolicy</text>
</g>
<!-- 16&#45;&gt;18 -->
<g id="edge50" class="edge"><title>16&#45;&gt;18</title>
<path fill="none" stroke="black" d="M1923.08,-324.019C1908.33,-332.89 1892.1,-345.037 1881.5,-360 1852.7,-400.649 1876.81,-425.089 1851.5,-468 1845.2,-478.677 1836.21,-488.683 1827.37,-497.063"/>
<polygon fill="black" stroke="black" points="1819.71,-503.985 1824.11,-493.942 1823.42,-500.633 1827.13,-497.282 1827.13,-497.282 1827.13,-497.282 1823.42,-500.633 1830.14,-500.621 1819.71,-503.985 1819.71,-503.985"/>
</g>
<!-- 21 -->
<g id="node22" class="node"><title>21</title>
<polygon fill="none" stroke="black" points="1721.5,-396 1633.5,-396 1633.5,-360 1721.5,-360 1721.5,-396"/>
<text text-anchor="middle" x="1677.5" y="-374.3" font-family="Times,serif" font-size="14.00">Policies.Beta</text>
</g>
<!-- 16&#45;&gt;21 -->
<g id="edge51" class="edge"><title>16&#45;&gt;21</title>
<path fill="none" stroke="black" d="M1896.74,-322.189C1847.49,-334.502 1778.73,-351.693 1731.41,-363.522"/>
<polygon fill="black" stroke="black" points="1721.65,-365.961 1730.26,-359.17 1726.51,-364.749 1731.36,-363.536 1731.36,-363.536 1731.36,-363.536 1726.51,-364.749 1732.45,-367.902 1721.65,-365.961 1721.65,-365.961"/>
</g>
<!-- 17&#45;&gt;18 -->
<g id="edge52" class="edge"><title>17&#45;&gt;18</title>
<path fill="none" stroke="black" d="M1797.5,-468.303C1797.5,-476.017 1797.5,-485.288 1797.5,-493.888"/>
<polygon fill="black" stroke="black" points="1797.5,-503.896 1793,-493.896 1797.5,-498.896 1797.5,-493.896 1797.5,-493.896 1797.5,-493.896 1797.5,-498.896 1802,-493.896 1797.5,-503.896 1797.5,-503.896"/>
</g>
<!-- 20 -->
<g id="node21" class="node"><title>20</title>
<polygon fill="none" stroke="black" points="1548.5,-324 1370.5,-324 1370.5,-288 1548.5,-288 1548.5,-324"/>
<text text-anchor="middle" x="1459.5" y="-302.3" font-family="Times,serif" font-size="14.00">Policies.BayesianIndexPolicy</text>
</g>
<!-- 19&#45;&gt;20 -->
<g id="edge53" class="edge"><title>19&#45;&gt;20</title>
<path fill="none" stroke="black" d="M1420.35,-252.303C1426.53,-260.611 1434.04,-270.723 1440.82,-279.859"/>
<polygon fill="black" stroke="black" points="1446.79,-287.896 1437.22,-282.552 1443.81,-283.882 1440.83,-279.868 1440.83,-279.868 1440.83,-279.868 1443.81,-283.882 1444.44,-277.185 1446.79,-287.896 1446.79,-287.896"/>
</g>
<!-- 20&#45;&gt;21 -->
<g id="edge54" class="edge"><title>20&#45;&gt;21</title>
<path fill="none" stroke="black" d="M1512.55,-324.034C1546.27,-334.863 1589.8,-348.84 1623.68,-359.717"/>
<polygon fill="black" stroke="black" points="1633.41,-362.841 1622.51,-364.069 1628.65,-361.313 1623.88,-359.784 1623.88,-359.784 1623.88,-359.784 1628.65,-361.313 1625.26,-355.499 1633.41,-362.841 1633.41,-362.841"/>
</g>
<!-- 25 -->
<g id="node26" class="node"><title>25</title>
<polygon fill="none" stroke="black" points="1260.5,-468 1132.5,-468 1132.5,-432 1260.5,-432 1260.5,-468"/>
<text text-anchor="middle" x="1196.5" y="-446.3" font-family="Times,serif" font-size="14.00">Policies.IndexPolicy</text>
</g>
<!-- 20&#45;&gt;25 -->
<g id="edge55" class="edge"><title>20&#45;&gt;25</title>
<path fill="none" stroke="black" d="M1427.78,-324.129C1380.09,-349.876 1289.94,-398.552 1237.38,-426.928"/>
<polygon fill="black" stroke="black" points="1228.34,-431.811 1235,-423.1 1232.74,-429.435 1237.14,-427.06 1237.14,-427.06 1237.14,-427.06 1232.74,-429.435 1239.27,-431.019 1228.34,-431.811 1228.34,-431.811"/>
</g>
<!-- 30 -->
<g id="node31" class="node"><title>30</title>
<polygon fill="none" stroke="black" points="1733.5,-468 1621.5,-468 1621.5,-432 1733.5,-432 1733.5,-468"/>
<text text-anchor="middle" x="1677.5" y="-446.3" font-family="Times,serif" font-size="14.00">Policies.Posterior</text>
</g>
<!-- 21&#45;&gt;30 -->
<g id="edge56" class="edge"><title>21&#45;&gt;30</title>
<path fill="none" stroke="black" d="M1677.5,-396.303C1677.5,-404.017 1677.5,-413.288 1677.5,-421.888"/>
<polygon fill="black" stroke="black" points="1677.5,-431.896 1673,-421.896 1677.5,-426.896 1677.5,-421.896 1677.5,-421.896 1677.5,-421.896 1677.5,-426.896 1682,-421.896 1677.5,-431.896 1677.5,-431.896"/>
</g>
<!-- 22&#45;&gt;18 -->
<g id="edge57" class="edge"><title>22&#45;&gt;18</title>
<path fill="none" stroke="black" d="M1958.73,-396.339C1942.09,-415.268 1913.68,-445.832 1885.5,-468 1871.09,-479.338 1854.06,-490.118 1838.84,-498.96"/>
<polygon fill="black" stroke="black" points="1830.12,-503.931 1836.57,-495.069 1834.46,-501.454 1838.8,-498.978 1838.8,-498.978 1838.8,-498.978 1834.46,-501.454 1841.03,-502.887 1830.12,-503.931 1830.12,-503.931"/>
</g>
<!-- 23&#45;&gt;18 -->
<g id="edge58" class="edge"><title>23&#45;&gt;18</title>
<path fill="none" stroke="black" d="M2000.97,-467.856C1961.33,-478.208 1910.49,-491.488 1869.54,-502.183"/>
<polygon fill="black" stroke="black" points="1859.63,-504.772 1868.17,-497.891 1864.47,-503.509 1869.3,-502.245 1869.3,-502.245 1869.3,-502.245 1864.47,-503.509 1870.44,-506.599 1859.63,-504.772 1859.63,-504.772"/>
</g>
<!-- 24&#45;&gt;18 -->
<g id="edge59" class="edge"><title>24&#45;&gt;18</title>
<path fill="none" stroke="black" d="M2180.64,-396.172C2175.05,-416.75 2162.64,-450.623 2138.5,-468 2096.64,-498.136 1956.83,-511.71 1869.77,-517.367"/>
<polygon fill="black" stroke="black" points="1859.68,-518.003 1869.38,-512.883 1864.67,-517.688 1869.66,-517.374 1869.66,-517.374 1869.66,-517.374 1864.67,-517.688 1869.94,-521.865 1859.68,-518.003 1859.68,-518.003"/>
</g>
<!-- 25&#45;&gt;18 -->
<g id="edge60" class="edge"><title>25&#45;&gt;18</title>
<path fill="none" stroke="black" d="M1260.53,-458.458C1373.39,-471.603 1606.93,-498.804 1725.32,-512.593"/>
<polygon fill="black" stroke="black" points="1735.38,-513.764 1724.92,-517.077 1730.41,-513.186 1725.44,-512.607 1725.44,-512.607 1725.44,-512.607 1730.41,-513.186 1725.96,-508.137 1735.38,-513.764 1735.38,-513.764"/>
</g>
<!-- 26 -->
<g id="node27" class="node"><title>26</title>
<polygon fill="none" stroke="black" points="1352,-324 1219,-324 1219,-288 1352,-288 1352,-324"/>
<text text-anchor="middle" x="1285.5" y="-302.3" font-family="Times,serif" font-size="14.00">Policies.KLempUCB</text>
</g>
<!-- 26&#45;&gt;25 -->
<g id="edge61" class="edge"><title>26&#45;&gt;25</title>
<path fill="none" stroke="black" d="M1283.22,-324.289C1280.08,-343.174 1273.08,-373.701 1258.5,-396 1251.22,-407.129 1240.94,-417.225 1230.84,-425.547"/>
<polygon fill="black" stroke="black" points="1222.84,-431.828 1227.93,-422.114 1226.77,-428.741 1230.71,-425.654 1230.71,-425.654 1230.71,-425.654 1226.77,-428.741 1233.49,-429.194 1222.84,-431.828 1222.84,-431.828"/>
</g>
<!-- 47 -->
<g id="node48" class="node"><title>47</title>
<polygon fill="none" stroke="black" points="1249.5,-396 1139.5,-396 1139.5,-360 1249.5,-360 1249.5,-396"/>
<text text-anchor="middle" x="1194.5" y="-374.3" font-family="Times,serif" font-size="14.00">Policies.kullback</text>
</g>
<!-- 26&#45;&gt;47 -->
<g id="edge62" class="edge"><title>26&#45;&gt;47</title>
<path fill="none" stroke="black" d="M1263.01,-324.303C1251.54,-333.119 1237.44,-343.968 1225.02,-353.526"/>
<polygon fill="black" stroke="black" points="1216.74,-359.896 1221.92,-350.232 1220.7,-356.847 1224.66,-353.799 1224.66,-353.799 1224.66,-353.799 1220.7,-356.847 1227.41,-357.365 1216.74,-359.896 1216.74,-359.896"/>
</g>
<!-- 27&#45;&gt;18 -->
<g id="edge63" class="edge"><title>27&#45;&gt;18</title>
<path fill="none" stroke="black" d="M2222.45,-461.949C2211.59,-464.083 2200.19,-466.211 2189.5,-468 2078.49,-486.586 1948.96,-503.097 1870.11,-512.572"/>
<polygon fill="black" stroke="black" points="1859.8,-513.805 1869.2,-508.149 1864.77,-513.211 1869.73,-512.617 1869.73,-512.617 1869.73,-512.617 1864.77,-513.211 1870.27,-517.085 1859.8,-513.805 1859.8,-513.805"/>
</g>
<!-- 28&#45;&gt;25 -->
<g id="edge64" class="edge"><title>28&#45;&gt;25</title>
<path fill="none" stroke="black" d="M1072.62,-396.124C1095.14,-405.736 1123.42,-417.807 1147.27,-427.987"/>
<polygon fill="black" stroke="black" points="1156.51,-431.932 1145.55,-432.145 1151.91,-429.969 1147.31,-428.006 1147.31,-428.006 1147.31,-428.006 1151.91,-429.969 1149.08,-423.867 1156.51,-431.932 1156.51,-431.932"/>
</g>
<!-- 29&#45;&gt;18 -->
<g id="edge65" class="edge"><title>29&#45;&gt;18</title>
<path fill="none" stroke="black" d="M495.428,-454.519C728.573,-466.423 1486.38,-505.115 1724.92,-517.294"/>
<polygon fill="black" stroke="black" points="1735.21,-517.82 1724.99,-521.804 1730.22,-517.565 1725.22,-517.31 1725.22,-517.31 1725.22,-517.31 1730.22,-517.565 1725.45,-512.815 1735.21,-517.82 1735.21,-517.82"/>
</g>
<!-- 31&#45;&gt;18 -->
<g id="edge66" class="edge"><title>31&#45;&gt;18</title>
<path fill="none" stroke="black" d="M477.829,-386.939C596.119,-403.711 882.479,-443.238 1123.5,-468 1342.12,-490.461 1601.49,-508.418 1725.06,-516.444"/>
<polygon fill="black" stroke="black" points="1735.15,-517.097 1724.88,-520.942 1730.16,-516.774 1725.17,-516.451 1725.17,-516.451 1725.17,-516.451 1730.16,-516.774 1725.46,-511.961 1735.15,-517.097 1735.15,-517.097"/>
</g>
<!-- 32&#45;&gt;18 -->
<g id="edge67" class="edge"><title>32&#45;&gt;18</title>
<path fill="none" stroke="black" d="M1621.28,-324.384C1612.46,-333.982 1602.68,-346.645 1597.5,-360 1580.14,-404.804 1563.08,-430.007 1592.5,-468 1608.91,-489.196 1673.16,-503.443 1725.42,-511.78"/>
<polygon fill="black" stroke="black" points="1735.36,-513.318 1724.78,-516.235 1730.41,-512.553 1725.47,-511.788 1725.47,-511.788 1725.47,-511.788 1730.41,-512.553 1726.16,-507.341 1735.36,-513.318 1735.36,-513.318"/>
</g>
<!-- 33&#45;&gt;32 -->
<g id="edge68" class="edge"><title>33&#45;&gt;32</title>
<path fill="none" stroke="black" d="M1598.1,-252.303C1604.62,-260.611 1612.57,-270.723 1619.75,-279.859"/>
<polygon fill="black" stroke="black" points="1626.06,-287.896 1616.34,-282.813 1622.97,-283.964 1619.88,-280.032 1619.88,-280.032 1619.88,-280.032 1622.97,-283.964 1623.42,-277.252 1626.06,-287.896 1626.06,-287.896"/>
</g>
<!-- 34&#45;&gt;20 -->
<g id="edge69" class="edge"><title>34&#45;&gt;20</title>
<path fill="none" stroke="black" d="M1313.71,-252.124C1340.57,-261.863 1374.38,-274.128 1402.68,-284.392"/>
<polygon fill="black" stroke="black" points="1412.44,-287.932 1401.51,-288.752 1407.74,-286.227 1403.04,-284.522 1403.04,-284.522 1403.04,-284.522 1407.74,-286.227 1404.57,-280.292 1412.44,-287.932 1412.44,-287.932"/>
</g>
<!-- 35&#45;&gt;25 -->
<g id="edge70" class="edge"><title>35&#45;&gt;25</title>
<path fill="none" stroke="black" d="M694.28,-384.848C788.917,-396.936 1006.85,-424.775 1122.03,-439.488"/>
<polygon fill="black" stroke="black" points="1132.18,-440.783 1121.69,-443.98 1127.22,-440.15 1122.26,-439.516 1122.26,-439.516 1122.26,-439.516 1127.22,-440.15 1122.83,-435.052 1132.18,-440.783 1132.18,-440.783"/>
</g>
<!-- 36&#45;&gt;35 -->
<g id="edge71" class="edge"><title>36&#45;&gt;35</title>
<path fill="none" stroke="black" d="M438.221,-321.441C441.359,-322.313 444.471,-323.172 447.5,-324 496.599,-337.428 552.61,-352.148 593.012,-362.66"/>
<polygon fill="black" stroke="black" points="602.934,-365.239 592.124,-367.078 598.095,-363.981 593.256,-362.723 593.256,-362.723 593.256,-362.723 598.095,-363.981 594.388,-358.368 602.934,-365.239 602.934,-365.239"/>
</g>
<!-- 37&#45;&gt;35 -->
<g id="edge72" class="edge"><title>37&#45;&gt;35</title>
<path fill="none" stroke="black" d="M548.791,-324.124C566.369,-333.446 588.309,-345.081 607.129,-355.061"/>
<polygon fill="black" stroke="black" points="616.085,-359.81 605.142,-359.101 611.668,-357.468 607.25,-355.125 607.25,-355.125 607.25,-355.125 611.668,-357.468 609.359,-351.15 616.085,-359.81 616.085,-359.81"/>
</g>
<!-- 38&#45;&gt;35 -->
<g id="edge73" class="edge"><title>38&#45;&gt;35</title>
<path fill="none" stroke="black" d="M648.5,-324.303C648.5,-332.017 648.5,-341.288 648.5,-349.888"/>
<polygon fill="black" stroke="black" points="648.5,-359.896 644,-349.896 648.5,-354.896 648.5,-349.896 648.5,-349.896 648.5,-349.896 648.5,-354.896 653,-349.896 648.5,-359.896 648.5,-359.896"/>
</g>
<!-- 39&#45;&gt;35 -->
<g id="edge74" class="edge"><title>39&#45;&gt;35</title>
<path fill="none" stroke="black" d="M745.943,-324.124C728.842,-333.404 707.518,-344.975 689.181,-354.925"/>
<polygon fill="black" stroke="black" points="680.178,-359.81 686.821,-351.086 684.573,-357.426 688.968,-355.041 688.968,-355.041 688.968,-355.041 684.573,-357.426 691.114,-358.996 680.178,-359.81 680.178,-359.81"/>
</g>
<!-- 40&#45;&gt;35 -->
<g id="edge75" class="edge"><title>40&#45;&gt;35</title>
<path fill="none" stroke="black" d="M860.362,-324.034C812.355,-336.036 748.879,-351.905 703.963,-363.134"/>
<polygon fill="black" stroke="black" points="694.105,-365.599 702.715,-358.808 698.955,-364.386 703.806,-363.173 703.806,-363.173 703.806,-363.173 698.955,-364.386 704.897,-367.539 694.105,-365.599 694.105,-365.599"/>
</g>
<!-- 41&#45;&gt;36 -->
<g id="edge76" class="edge"><title>41&#45;&gt;36</title>
<path fill="none" stroke="black" d="M494.008,-252.124C475.06,-261.531 451.368,-273.292 431.144,-283.333"/>
<polygon fill="black" stroke="black" points="422.125,-287.81 429.081,-279.333 426.604,-285.587 431.082,-283.363 431.082,-283.363 431.082,-283.363 426.604,-285.587 433.083,-287.394 422.125,-287.81 422.125,-287.81"/>
</g>
<!-- 42&#45;&gt;18 -->
<g id="edge77" class="edge"><title>42&#45;&gt;18</title>
<path fill="none" stroke="black" d="M1730.11,-322.179C1686.45,-334.644 1631.73,-351.568 1624.5,-360 1593.06,-396.658 1583.43,-429.433 1612.5,-468 1626.46,-486.518 1679.67,-500.537 1725.47,-509.491"/>
<polygon fill="black" stroke="black" points="1735.41,-511.38 1724.75,-513.934 1730.5,-510.447 1725.59,-509.514 1725.59,-509.514 1725.59,-509.514 1730.5,-510.447 1726.43,-505.093 1735.41,-511.38 1735.41,-511.38"/>
</g>
<!-- 43&#45;&gt;42 -->
<g id="edge78" class="edge"><title>43&#45;&gt;42</title>
<path fill="none" stroke="black" d="M1808.84,-252.303C1805.31,-260.272 1801.04,-269.9 1797.13,-278.736"/>
<polygon fill="black" stroke="black" points="1793.07,-287.896 1793.01,-276.93 1795.1,-283.324 1797.12,-278.752 1797.12,-278.752 1797.12,-278.752 1795.1,-283.324 1801.24,-280.574 1793.07,-287.896 1793.07,-287.896"/>
</g>
<!-- 44&#45;&gt;25 -->
<g id="edge79" class="edge"><title>44&#45;&gt;25</title>
<path fill="none" stroke="black" d="M1111.81,-324.329C1112.88,-343.249 1116.82,-373.806 1130.5,-396 1137.56,-407.451 1148,-417.489 1158.52,-425.661"/>
<polygon fill="black" stroke="black" points="1166.9,-431.805 1156.17,-429.521 1162.86,-428.849 1158.83,-425.892 1158.83,-425.892 1158.83,-425.892 1162.86,-428.849 1161.49,-422.263 1166.9,-431.805 1166.9,-431.805"/>
</g>
<!-- 44&#45;&gt;47 -->
<g id="edge80" class="edge"><title>44&#45;&gt;47</title>
<path fill="none" stroke="black" d="M1132.02,-324.303C1142.37,-333.035 1155.09,-343.76 1166.34,-353.25"/>
<polygon fill="black" stroke="black" points="1174.22,-359.896 1163.67,-356.889 1170.4,-356.672 1166.57,-353.449 1166.57,-353.449 1166.57,-353.449 1170.4,-356.672 1169.48,-350.009 1174.22,-359.896 1174.22,-359.896"/>
</g>
<!-- 45&#45;&gt;44 -->
<g id="edge81" class="edge"><title>45&#45;&gt;44</title>
<path fill="none" stroke="black" d="M1118.28,-252.303C1117.28,-260.017 1116.09,-269.288 1114.99,-277.888"/>
<polygon fill="black" stroke="black" points="1113.7,-287.896 1110.51,-277.403 1114.34,-282.936 1114.97,-277.977 1114.97,-277.977 1114.97,-277.977 1114.34,-282.936 1119.44,-278.551 1113.7,-287.896 1113.7,-287.896"/>
</g>
<!-- 45&#45;&gt;47 -->
<g id="edge82" class="edge"><title>45&#45;&gt;47</title>
<path fill="none" stroke="black" d="M1140.82,-252.055C1151.07,-261.654 1162.91,-274.42 1170.5,-288 1181.27,-307.266 1187.4,-331.608 1190.77,-349.962"/>
<polygon fill="black" stroke="black" points="1192.44,-359.994 1186.36,-350.872 1191.62,-355.062 1190.8,-350.131 1190.8,-350.131 1190.8,-350.131 1191.62,-355.062 1195.23,-349.39 1192.44,-359.994 1192.44,-359.994"/>
</g>
<!-- 46&#45;&gt;44 -->
<g id="edge83" class="edge"><title>46&#45;&gt;44</title>
<path fill="none" stroke="black" d="M1006.5,-252.124C1025.1,-261.488 1048.33,-273.186 1068.21,-283.197"/>
<polygon fill="black" stroke="black" points="1077.37,-287.81 1066.41,-287.332 1072.9,-285.561 1068.43,-283.312 1068.43,-283.312 1068.43,-283.312 1072.9,-285.561 1070.46,-279.293 1077.37,-287.81 1077.37,-287.81"/>
</g>
<!-- 48 -->
<g id="node49" class="node"><title>48</title>
<polygon fill="none" stroke="black" points="3781.5,-180 3651.5,-180 3651.5,-144 3781.5,-144 3781.5,-180"/>
<text text-anchor="middle" x="3716.5" y="-158.3" font-family="Times,serif" font-size="14.00">PoliciesMultiPlayers</text>
</g>
<!-- 49 -->
<g id="node50" class="node"><title>49</title>
<polygon fill="none" stroke="black" points="4142,-252 3961,-252 3961,-216 4142,-216 4142,-252"/>
<text text-anchor="middle" x="4051.5" y="-230.3" font-family="Times,serif" font-size="14.00">PoliciesMultiPlayers.ALOHA</text>
</g>
<!-- 48&#45;&gt;49 -->
<g id="edge84" class="edge"><title>48&#45;&gt;49</title>
<path fill="none" stroke="black" d="M3781.89,-176.663C3832.63,-187.266 3903.6,-202.095 3959.98,-213.877"/>
<polygon fill="black" stroke="black" points="3969.97,-215.965 3959.26,-218.324 3965.08,-214.942 3960.19,-213.919 3960.19,-213.919 3960.19,-213.919 3965.08,-214.942 3961.11,-209.514 3969.97,-215.965 3969.97,-215.965"/>
</g>
<!-- 52 -->
<g id="node53" class="node"><title>52</title>
<polygon fill="none" stroke="black" points="3942.5,-252 3724.5,-252 3724.5,-216 3942.5,-216 3942.5,-252"/>
<text text-anchor="middle" x="3833.5" y="-230.3" font-family="Times,serif" font-size="14.00">PoliciesMultiPlayers.CentralizedFair</text>
</g>
<!-- 48&#45;&gt;52 -->
<g id="edge85" class="edge"><title>48&#45;&gt;52</title>
<path fill="none" stroke="black" d="M3745.12,-180.124C3760.42,-189.276 3779.44,-200.658 3795.92,-210.515"/>
<polygon fill="black" stroke="black" points="3804.77,-215.81 3793.88,-214.538 3800.48,-213.243 3796.19,-210.676 3796.19,-210.676 3796.19,-210.676 3800.48,-213.243 3798.5,-206.814 3804.77,-215.81 3804.77,-215.81"/>
</g>
<!-- 53 -->
<g id="node54" class="node"><title>53</title>
<polygon fill="none" stroke="black" points="3266.5,-252 3028.5,-252 3028.5,-216 3266.5,-216 3266.5,-252"/>
<text text-anchor="middle" x="3147.5" y="-230.3" font-family="Times,serif" font-size="14.00">PoliciesMultiPlayers.CentralizedNotFair</text>
</g>
<!-- 48&#45;&gt;53 -->
<g id="edge86" class="edge"><title>48&#45;&gt;53</title>
<path fill="none" stroke="black" d="M3651.46,-170.56C3567.42,-180.387 3416.29,-198.251 3276.75,-215.849"/>
<polygon fill="black" stroke="black" points="3266.73,-217.116 3276.09,-211.398 3271.69,-216.489 3276.65,-215.862 3276.65,-215.862 3276.65,-215.862 3271.69,-216.489 3277.21,-220.327 3266.73,-217.116 3266.73,-217.116"/>
</g>
<!-- 56 -->
<g id="node57" class="node"><title>56</title>
<polygon fill="none" stroke="black" points="3476,-252 3285,-252 3285,-216 3476,-216 3476,-252"/>
<text text-anchor="middle" x="3380.5" y="-230.3" font-family="Times,serif" font-size="14.00">PoliciesMultiPlayers.OracleFair</text>
</g>
<!-- 48&#45;&gt;56 -->
<g id="edge87" class="edge"><title>48&#45;&gt;56</title>
<path fill="none" stroke="black" d="M3651.32,-176.58C3600.37,-187.194 3528.92,-202.079 3472.2,-213.895"/>
<polygon fill="black" stroke="black" points="3462.15,-215.989 3471.03,-209.544 3467.05,-214.969 3471.94,-213.949 3471.94,-213.949 3471.94,-213.949 3467.05,-214.969 3472.86,-218.355 3462.15,-215.989 3462.15,-215.989"/>
</g>
<!-- 57 -->
<g id="node58" class="node"><title>57</title>
<polygon fill="none" stroke="black" points="3706.5,-252 3494.5,-252 3494.5,-216 3706.5,-216 3706.5,-252"/>
<text text-anchor="middle" x="3600.5" y="-230.3" font-family="Times,serif" font-size="14.00">PoliciesMultiPlayers.OracleNotFair</text>
</g>
<!-- 48&#45;&gt;57 -->
<g id="edge88" class="edge"><title>48&#45;&gt;57</title>
<path fill="none" stroke="black" d="M3688.12,-180.124C3672.96,-189.276 3654.09,-200.658 3637.76,-210.515"/>
<polygon fill="black" stroke="black" points="3628.99,-215.81 3635.22,-206.791 3633.27,-213.227 3637.55,-210.644 3637.55,-210.644 3637.55,-210.644 3633.27,-213.227 3639.87,-214.496 3628.99,-215.81 3628.99,-215.81"/>
</g>
<!-- 58 -->
<g id="node59" class="node"><title>58</title>
<polygon fill="none" stroke="black" points="4331,-252 4160,-252 4160,-216 4331,-216 4331,-252"/>
<text text-anchor="middle" x="4245.5" y="-230.3" font-family="Times,serif" font-size="14.00">PoliciesMultiPlayers.Selfish</text>
</g>
<!-- 48&#45;&gt;58 -->
<g id="edge89" class="edge"><title>48&#45;&gt;58</title>
<path fill="none" stroke="black" d="M3781.51,-169.738C3864.61,-178.613 4013.14,-195.364 4149.75,-215.778"/>
<polygon fill="black" stroke="black" points="4159.98,-217.317 4149.42,-220.279 4155.03,-216.573 4150.09,-215.829 4150.09,-215.829 4150.09,-215.829 4155.03,-216.573 4150.76,-211.379 4159.98,-217.317 4159.98,-217.317"/>
</g>
<!-- 60 -->
<g id="node61" class="node"><title>60</title>
<polygon fill="none" stroke="black" points="4529.5,-252 4349.5,-252 4349.5,-216 4529.5,-216 4529.5,-252"/>
<text text-anchor="middle" x="4439.5" y="-230.3" font-family="Times,serif" font-size="14.00">PoliciesMultiPlayers.rhoRand</text>
</g>
<!-- 48&#45;&gt;60 -->
<g id="edge90" class="edge"><title>48&#45;&gt;60</title>
<path fill="none" stroke="black" d="M3781.82,-166.708C3893.84,-173.47 4129.96,-189.485 4339.48,-215.933"/>
<polygon fill="black" stroke="black" points="4349.44,-217.2 4338.95,-220.401 4344.48,-216.568 4339.52,-215.937 4339.52,-215.937 4339.52,-215.937 4344.48,-216.568 4340.09,-211.473 4349.44,-217.2 4349.44,-217.2"/>
</g>
<!-- 51 -->
<g id="node52" class="node"><title>51</title>
<polygon fill="none" stroke="black" points="3884,-324 3669,-324 3669,-288 3884,-288 3884,-324"/>
<text text-anchor="middle" x="3776.5" y="-302.3" font-family="Times,serif" font-size="14.00">PoliciesMultiPlayers.BaseMPPolicy</text>
</g>
<!-- 49&#45;&gt;51 -->
<g id="edge91" class="edge"><title>49&#45;&gt;51</title>
<path fill="none" stroke="black" d="M3984.58,-252.034C3944.99,-262.113 3894.68,-274.918 3853.45,-285.412"/>
<polygon fill="black" stroke="black" points="3843.72,-287.889 3852.3,-281.061 3848.57,-286.656 3853.41,-285.422 3853.41,-285.422 3853.41,-285.422 3848.57,-286.656 3854.52,-289.783 3843.72,-287.889 3843.72,-287.889"/>
</g>
<!-- 54 -->
<g id="node55" class="node"><title>54</title>
<polygon fill="none" stroke="black" points="4105,-324 3902,-324 3902,-288 4105,-288 4105,-324"/>
<text text-anchor="middle" x="4003.5" y="-302.3" font-family="Times,serif" font-size="14.00">PoliciesMultiPlayers.ChildPointer</text>
</g>
<!-- 49&#45;&gt;54 -->
<g id="edge92" class="edge"><title>49&#45;&gt;54</title>
<path fill="none" stroke="black" d="M4039.63,-252.303C4034,-260.526 4027.15,-270.517 4020.93,-279.579"/>
<polygon fill="black" stroke="black" points="4015.23,-287.896 4017.17,-277.103 4018.06,-283.772 4020.88,-279.648 4020.88,-279.648 4020.88,-279.648 4018.06,-283.772 4024.6,-282.193 4015.23,-287.896 4015.23,-287.896"/>
</g>
<!-- 50 -->
<g id="node51" class="node"><title>50</title>
<polygon fill="none" stroke="black" points="3556,-324 3299,-324 3299,-288 3556,-288 3556,-324"/>
<text text-anchor="middle" x="3427.5" y="-302.3" font-family="Times,serif" font-size="14.00">PoliciesMultiPlayers.BaseCentralizedPolicy</text>
</g>
<!-- 52&#45;&gt;50 -->
<g id="edge93" class="edge"><title>52&#45;&gt;50</title>
<path fill="none" stroke="black" d="M3734.7,-252.034C3674.78,-262.366 3598.24,-275.562 3536.55,-286.198"/>
<polygon fill="black" stroke="black" points="3526.39,-287.95 3535.48,-281.816 3531.32,-287.1 3536.24,-286.251 3536.24,-286.251 3536.24,-286.251 3531.32,-287.1 3537.01,-290.685 3526.39,-287.95 3526.39,-287.95"/>
</g>
<!-- 52&#45;&gt;51 -->
<g id="edge94" class="edge"><title>52&#45;&gt;51</title>
<path fill="none" stroke="black" d="M3819.41,-252.303C3812.58,-260.695 3804.24,-270.93 3796.74,-280.139"/>
<polygon fill="black" stroke="black" points="3790.43,-287.896 3793.25,-277.3 3793.58,-284.018 3796.74,-280.141 3796.74,-280.141 3796.74,-280.141 3793.58,-284.018 3800.23,-282.983 3790.43,-287.896 3790.43,-287.896"/>
</g>
<!-- 52&#45;&gt;54 -->
<g id="edge95" class="edge"><title>52&#45;&gt;54</title>
<path fill="none" stroke="black" d="M3875.09,-252.124C3898.53,-261.778 3928,-273.913 3952.8,-284.122"/>
<polygon fill="black" stroke="black" points="3962.05,-287.932 3951.09,-288.285 3957.42,-286.028 3952.8,-284.124 3952.8,-284.124 3952.8,-284.124 3957.42,-286.028 3954.51,-279.963 3962.05,-287.932 3962.05,-287.932"/>
</g>
<!-- 53&#45;&gt;50 -->
<g id="edge96" class="edge"><title>53&#45;&gt;50</title>
<path fill="none" stroke="black" d="M3215.64,-252.034C3255.95,-262.113 3307.17,-274.918 3349.15,-285.412"/>
<polygon fill="black" stroke="black" points="3359.06,-287.889 3348.26,-289.829 3354.21,-286.676 3349.36,-285.464 3349.36,-285.464 3349.36,-285.464 3354.21,-286.676 3350.45,-281.098 3359.06,-287.889 3359.06,-287.889"/>
</g>
<!-- 53&#45;&gt;51 -->
<g id="edge97" class="edge"><title>53&#45;&gt;51</title>
<path fill="none" stroke="black" d="M3266.72,-250.94C3269.68,-251.301 3272.61,-251.655 3275.5,-252 3406.62,-267.64 3557.33,-283.266 3658.92,-293.455"/>
<polygon fill="black" stroke="black" points="3668.9,-294.454 3658.51,-297.935 3663.93,-293.956 3658.95,-293.458 3658.95,-293.458 3658.95,-293.458 3663.93,-293.956 3659.4,-288.98 3668.9,-294.454 3668.9,-294.454"/>
</g>
<!-- 53&#45;&gt;54 -->
<g id="edge98" class="edge"><title>53&#45;&gt;54</title>
<path fill="none" stroke="black" d="M3266.7,-251.124C3269.66,-251.43 3272.6,-251.723 3275.5,-252 3545.61,-277.781 3617.58,-259.631 3891.67,-287.981"/>
<polygon fill="black" stroke="black" points="3901.93,-289.054 3891.51,-292.489 3896.95,-288.534 3891.98,-288.014 3891.98,-288.014 3891.98,-288.014 3896.95,-288.534 3892.45,-283.538 3901.93,-289.054 3901.93,-289.054"/>
</g>
<!-- 55 -->
<g id="node56" class="node"><title>55</title>
<polygon fill="none" stroke="black" points="2775,-36 2610,-36 2610,-0 2775,-0 2775,-36"/>
<text text-anchor="middle" x="2692.5" y="-14.3" font-family="Times,serif" font-size="14.00">PoliciesMultiPlayers.DMC</text>
</g>
<!-- 56&#45;&gt;50 -->
<g id="edge99" class="edge"><title>56&#45;&gt;50</title>
<path fill="none" stroke="black" d="M3392.12,-252.303C3397.64,-260.526 3404.35,-270.517 3410.43,-279.579"/>
<polygon fill="black" stroke="black" points="3416.02,-287.896 3406.71,-282.102 3413.23,-283.745 3410.44,-279.593 3410.44,-279.593 3410.44,-279.593 3413.23,-283.745 3414.18,-277.085 3416.02,-287.896 3416.02,-287.896"/>
</g>
<!-- 56&#45;&gt;51 -->
<g id="edge100" class="edge"><title>56&#45;&gt;51</title>
<path fill="none" stroke="black" d="M3476.11,-251.9C3534.65,-262.248 3609.66,-275.508 3670.08,-286.188"/>
<polygon fill="black" stroke="black" points="3680.03,-287.947 3669.4,-290.638 3675.11,-287.077 3670.18,-286.206 3670.18,-286.206 3670.18,-286.206 3675.11,-287.077 3670.97,-281.775 3680.03,-287.947 3680.03,-287.947"/>
</g>
<!-- 56&#45;&gt;54 -->
<g id="edge101" class="edge"><title>56&#45;&gt;54</title>
<path fill="none" stroke="black" d="M3476.03,-250.767C3479.22,-251.198 3482.38,-251.611 3485.5,-252 3662.44,-274.119 3710.49,-266.533 3891.77,-287.964"/>
<polygon fill="black" stroke="black" points="3901.91,-289.176 3891.45,-292.457 3896.95,-288.583 3891.98,-287.989 3891.98,-287.989 3891.98,-287.989 3896.95,-288.583 3892.52,-283.521 3901.91,-289.176 3901.91,-289.176"/>
</g>
<!-- 57&#45;&gt;50 -->
<g id="edge102" class="edge"><title>57&#45;&gt;50</title>
<path fill="none" stroke="black" d="M3558.18,-252.124C3534.32,-261.778 3504.33,-273.913 3479.1,-284.122"/>
<polygon fill="black" stroke="black" points="3469.68,-287.932 3477.27,-280.009 3474.32,-286.056 3478.95,-284.181 3478.95,-284.181 3478.95,-284.181 3474.32,-286.056 3480.64,-288.352 3469.68,-287.932 3469.68,-287.932"/>
</g>
<!-- 57&#45;&gt;51 -->
<g id="edge103" class="edge"><title>57&#45;&gt;51</title>
<path fill="none" stroke="black" d="M3643.55,-252.124C3667.83,-261.778 3698.34,-273.913 3724.01,-284.122"/>
<polygon fill="black" stroke="black" points="3733.59,-287.932 3722.63,-288.417 3728.94,-286.084 3724.29,-284.236 3724.29,-284.236 3724.29,-284.236 3728.94,-286.084 3725.96,-280.055 3733.59,-287.932 3733.59,-287.932"/>
</g>
<!-- 57&#45;&gt;54 -->
<g id="edge104" class="edge"><title>57&#45;&gt;54</title>
<path fill="none" stroke="black" d="M3698.57,-252.034C3758.05,-262.366 3834.02,-275.562 3895.26,-286.198"/>
<polygon fill="black" stroke="black" points="3905.34,-287.95 3894.72,-290.672 3900.41,-287.094 3895.49,-286.239 3895.49,-286.239 3895.49,-286.239 3900.41,-287.094 3896.26,-281.805 3905.34,-287.95 3905.34,-287.95"/>
</g>
<!-- 58&#45;&gt;51 -->
<g id="edge105" class="edge"><title>58&#45;&gt;51</title>
<path fill="none" stroke="black" d="M4159.97,-250.619C4157.11,-251.093 4154.28,-251.554 4151.5,-252 4040.3,-269.805 4009.77,-271.589 3894.19,-287.911"/>
<polygon fill="black" stroke="black" points="3884.24,-289.322 3893.51,-283.463 3889.19,-288.62 3894.14,-287.918 3894.14,-287.918 3894.14,-287.918 3889.19,-288.62 3894.77,-292.373 3884.24,-289.322 3884.24,-289.322"/>
</g>
<!-- 58&#45;&gt;54 -->
<g id="edge106" class="edge"><title>58&#45;&gt;54</title>
<path fill="none" stroke="black" d="M4186.61,-252.034C4152.21,-261.985 4108.62,-274.594 4072.6,-285.013"/>
<polygon fill="black" stroke="black" points="4062.65,-287.889 4071.01,-280.788 4067.46,-286.5 4072.26,-285.11 4072.26,-285.11 4072.26,-285.11 4067.46,-286.5 4073.51,-289.433 4062.65,-287.889 4062.65,-287.889"/>
</g>
<!-- 59 -->
<g id="node60" class="node"><title>59</title>
<polygon fill="none" stroke="black" points="2960,-36 2793,-36 2793,-0 2960,-0 2960,-36"/>
<text text-anchor="middle" x="2876.5" y="-14.3" font-family="Times,serif" font-size="14.00">PoliciesMultiPlayers.TDFS</text>
</g>
<!-- 60&#45;&gt;51 -->
<g id="edge107" class="edge"><title>60&#45;&gt;51</title>
<path fill="none" stroke="black" d="M4349.44,-250.817C4346.43,-251.234 4343.44,-251.63 4340.5,-252 4146.03,-276.477 4093.29,-266.022 3894.41,-287.947"/>
<polygon fill="black" stroke="black" points="3884.21,-289.086 3893.65,-283.504 3889.18,-288.531 3894.15,-287.976 3894.15,-287.976 3894.15,-287.976 3889.18,-288.531 3894.65,-292.449 3884.21,-289.086 3884.21,-289.086"/>
</g>
<!-- 60&#45;&gt;54 -->
<g id="edge108" class="edge"><title>60&#45;&gt;54</title>
<path fill="none" stroke="black" d="M4349.4,-250.527C4346.4,-251.027 4343.43,-251.519 4340.5,-252 4265.46,-264.343 4180.91,-277.639 4115.27,-287.825"/>
<polygon fill="black" stroke="black" points="4105.32,-289.369 4114.51,-283.39 4110.26,-288.603 4115.2,-287.837 4115.2,-287.837 4115.2,-287.837 4110.26,-288.603 4115.89,-292.284 4105.32,-289.369 4105.32,-289.369"/>
</g>
<!-- 61 -->
<g id="node62" class="node"><title>61</title>
<polygon fill="none" stroke="black" points="397,-108 308,-108 308,-72 397,-72 397,-108"/>
<text text-anchor="middle" x="352.5" y="-86.3" font-family="Times,serif" font-size="14.00">configuration</text>
</g>
<!-- 61&#45;&gt;2 -->
<g id="edge109" class="edge"><title>61&#45;&gt;2</title>
<path fill="none" stroke="black" d="M368.073,-108.303C375.702,-116.78 385.023,-127.136 393.376,-136.417"/>
<polygon fill="black" stroke="black" points="400.106,-143.896 390.072,-139.473 396.761,-140.179 393.416,-136.463 393.416,-136.463 393.416,-136.463 396.761,-140.179 396.761,-133.452 400.106,-143.896 400.106,-143.896"/>
</g>
<!-- 61&#45;&gt;3 -->
<g id="edge110" class="edge"><title>61&#45;&gt;3</title>
<path fill="none" stroke="black" d="M336.68,-108.303C328.93,-116.78 319.461,-127.136 310.976,-136.417"/>
<polygon fill="black" stroke="black" points="304.138,-143.896 307.565,-133.479 307.512,-140.206 310.886,-136.515 310.886,-136.515 310.886,-136.515 307.512,-140.206 314.207,-139.552 304.138,-143.896 304.138,-143.896"/>
</g>
<!-- 61&#45;&gt;4 -->
<g id="edge111" class="edge"><title>61&#45;&gt;4</title>
<path fill="none" stroke="black" d="M307.953,-99.7996C261.163,-109.246 185.239,-125.148 111.243,-143.631"/>
<polygon fill="black" stroke="black" points="101.291,-146.136 109.89,-139.331 106.14,-144.915 110.989,-143.695 110.989,-143.695 110.989,-143.695 106.14,-144.915 112.087,-148.059 101.291,-146.136 101.291,-146.136"/>
</g>
<!-- 61&#45;&gt;5 -->
<g id="edge112" class="edge"><title>61&#45;&gt;5</title>
<path fill="none" stroke="black" d="M307.709,-107.767C281.612,-117.536 248.491,-129.934 220.78,-140.307"/>
<polygon fill="black" stroke="black" points="211.225,-143.884 219.013,-136.164 215.907,-142.131 220.59,-140.378 220.59,-140.378 220.59,-140.378 215.907,-142.131 222.168,-144.592 211.225,-143.884 211.225,-143.884"/>
</g>
<!-- 61&#45;&gt;15 -->
<g id="edge113" class="edge"><title>61&#45;&gt;15</title>
<path fill="none" stroke="black" d="M397.111,-95.0661C534.568,-107.595 950.222,-145.48 1080.8,-157.382"/>
<polygon fill="black" stroke="black" points="1090.77,-158.29 1080.4,-161.864 1085.79,-157.836 1080.81,-157.383 1080.81,-157.383 1080.81,-157.383 1085.79,-157.836 1081.22,-152.901 1090.77,-158.29 1090.77,-158.29"/>
</g>
<!-- 62 -->
<g id="node63" class="node"><title>62</title>
<polygon fill="none" stroke="black" points="2614.5,-108 2450.5,-108 2450.5,-72 2614.5,-72 2614.5,-108"/>
<text text-anchor="middle" x="2532.5" y="-86.3" font-family="Times,serif" font-size="14.00">configuration_multiplayers</text>
</g>
<!-- 62&#45;&gt;2 -->
<g id="edge114" class="edge"><title>62&#45;&gt;2</title>
<path fill="none" stroke="black" d="M2450.25,-106.97C2447.3,-107.35 2444.38,-107.696 2441.5,-108 2428.96,-109.327 813.291,-150.802 476.557,-159.435"/>
<polygon fill="black" stroke="black" points="466.507,-159.693 476.388,-154.938 471.505,-159.565 476.503,-159.437 476.503,-159.437 476.503,-159.437 471.505,-159.565 476.619,-163.935 466.507,-159.693 466.507,-159.693"/>
</g>
<!-- 62&#45;&gt;8 -->
<g id="edge115" class="edge"><title>62&#45;&gt;8</title>
<path fill="none" stroke="black" d="M2531.83,-108.31C2531.98,-127.78 2535.05,-159.367 2551.5,-180 2562.42,-193.697 2577.69,-204.014 2593.52,-211.725"/>
<polygon fill="black" stroke="black" points="2602.88,-215.97 2591.91,-215.936 2598.32,-213.904 2593.77,-211.838 2593.77,-211.838 2593.77,-211.838 2598.32,-213.904 2595.63,-207.74 2602.88,-215.97 2602.88,-215.97"/>
</g>
<!-- 62&#45;&gt;11 -->
<g id="edge116" class="edge"><title>62&#45;&gt;11</title>
<path fill="none" stroke="black" d="M2527.92,-108.129C2521.41,-132.436 2509.44,-177.181 2501.73,-205.987"/>
<polygon fill="black" stroke="black" points="2499.1,-215.811 2497.34,-204.987 2500.39,-210.981 2501.69,-206.151 2501.69,-206.151 2501.69,-206.151 2500.39,-210.981 2506.03,-207.314 2499.1,-215.811 2499.1,-215.811"/>
</g>
<!-- 62&#45;&gt;15 -->
<g id="edge117" class="edge"><title>62&#45;&gt;15</title>
<path fill="none" stroke="black" d="M2450.24,-106.918C2447.3,-107.313 2444.37,-107.676 2441.5,-108 2183.94,-137.07 1352.63,-156.099 1160.42,-160.178"/>
<polygon fill="black" stroke="black" points="1150.21,-160.393 1160.12,-155.683 1155.21,-160.287 1160.21,-160.182 1160.21,-160.182 1160.21,-160.182 1155.21,-160.287 1160.31,-164.681 1150.21,-160.393 1150.21,-160.393"/>
</g>
<!-- 62&#45;&gt;48 -->
<g id="edge118" class="edge"><title>62&#45;&gt;48</title>
<path fill="none" stroke="black" d="M2614.82,-95.8667C2834.11,-108.831 3430.03,-144.064 3641.13,-156.544"/>
<polygon fill="black" stroke="black" points="3651.19,-157.139 3640.94,-161.041 3646.2,-156.844 3641.21,-156.548 3641.21,-156.548 3641.21,-156.548 3646.2,-156.844 3641.47,-152.056 3651.19,-157.139 3651.19,-157.139"/>
</g>
<!-- 63 -->
<g id="node64" class="node"><title>63</title>
<polygon fill="none" stroke="black" points="2322.5,-36 2268.5,-36 2268.5,-0 2322.5,-0 2322.5,-36"/>
<text text-anchor="middle" x="2295.5" y="-14.3" font-family="Times,serif" font-size="14.00">main</text>
</g>
<!-- 63&#45;&gt;7 -->
<g id="edge119" class="edge"><title>63&#45;&gt;7</title>
<path fill="none" stroke="black" d="M2318.49,-36.3034C2330.31,-45.204 2344.89,-56.1768 2357.68,-65.8011"/>
<polygon fill="black" stroke="black" points="2365.78,-71.8957 2355.08,-69.4773 2361.78,-68.8888 2357.79,-65.8819 2357.79,-65.8819 2357.79,-65.8819 2361.78,-68.8888 2360.49,-62.2865 2365.78,-71.8957 2365.78,-71.8957"/>
</g>
<!-- 63&#45;&gt;9 -->
<g id="edge120" class="edge"><title>63&#45;&gt;9</title>
<path fill="none" stroke="black" d="M2295.5,-36.1285C2295.5,-60.3298 2295.5,-104.789 2295.5,-133.607"/>
<polygon fill="black" stroke="black" points="2295.5,-143.811 2291,-133.811 2295.5,-138.811 2295.5,-133.811 2295.5,-133.811 2295.5,-133.811 2295.5,-138.811 2300,-133.811 2295.5,-143.811 2295.5,-143.811"/>
</g>
<!-- 63&#45;&gt;61 -->
<g id="edge121" class="edge"><title>63&#45;&gt;61</title>
<path fill="none" stroke="black" d="M2268.4,-19.9762C2059.04,-27.5191 699.331,-76.5048 407.572,-87.0159"/>
<polygon fill="black" stroke="black" points="397.249,-87.3879 407.08,-82.5306 402.245,-87.2078 407.242,-87.0277 407.242,-87.0277 407.242,-87.0277 402.245,-87.2078 407.404,-91.5248 397.249,-87.3879 397.249,-87.3879"/>
</g>
<!-- 64 -->
<g id="node65" class="node"><title>64</title>
<polygon fill="none" stroke="black" points="2592,-36 2473,-36 2473,-0 2592,-0 2592,-36"/>
<text text-anchor="middle" x="2532.5" y="-14.3" font-family="Times,serif" font-size="14.00">main_multiplayers</text>
</g>
<!-- 64&#45;&gt;7 -->
<g id="edge122" class="edge"><title>64&#45;&gt;7</title>
<path fill="none" stroke="black" d="M2497.27,-36.1239C2477.92,-45.5307 2453.73,-57.2923 2433.07,-67.3328"/>
<polygon fill="black" stroke="black" points="2423.86,-71.8102 2430.89,-63.3911 2428.36,-69.6243 2432.86,-67.4383 2432.86,-67.4383 2432.86,-67.4383 2428.36,-69.6243 2434.82,-71.4854 2423.86,-71.8102 2423.86,-71.8102"/>
</g>
<!-- 64&#45;&gt;10 -->
<g id="edge123" class="edge"><title>64&#45;&gt;10</title>
<path fill="none" stroke="black" d="M2572.7,-36.063C2589.94,-44.8767 2609.33,-56.9651 2623.5,-72 2640.31,-89.8368 2652.29,-115.161 2659.64,-134.238"/>
<polygon fill="black" stroke="black" points="2663.16,-143.838 2655.49,-135.996 2661.44,-139.143 2659.72,-134.448 2659.72,-134.448 2659.72,-134.448 2661.44,-139.143 2663.94,-132.901 2663.16,-143.838 2663.16,-143.838"/>
</g>
<!-- 64&#45;&gt;62 -->
<g id="edge124" class="edge"><title>64&#45;&gt;62</title>
<path fill="none" stroke="black" d="M2532.5,-36.3034C2532.5,-44.0173 2532.5,-53.2875 2532.5,-61.8876"/>
<polygon fill="black" stroke="black" points="2532.5,-71.8957 2528,-61.8956 2532.5,-66.8957 2532.5,-61.8957 2532.5,-61.8957 2532.5,-61.8957 2532.5,-66.8957 2537,-61.8957 2532.5,-71.8957 2532.5,-71.8957"/>
</g>
</g>
</svg>
