<?xml version="1.0" encoding="UTF-8" standalone="no"?>
<!DOCTYPE svg PUBLIC "-//W3C//DTD SVG 1.1//EN"
 "http://www.w3.org/Graphics/SVG/1.1/DTD/svg11.dtd">
<!-- Generated by graphviz version 2.40.1 (20161225.0304)
 -->
<!-- Title: packages_SMPyBandits Pages: 1 -->
<svg width="5036pt" height="116pt"
 viewBox="0.00 0.00 5036.00 116.00" xmlns="http://www.w3.org/2000/svg" xmlns:xlink="http://www.w3.org/1999/xlink">
<g id="graph0" class="graph" transform="scale(1 1) rotate(0) translate(4 112)">
<title>packages_SMPyBandits</title>
<polygon fill="#ffffff" stroke="transparent" points="-4,4 -4,-112 5032,-112 5032,4 -4,4"/>
<!-- 0 -->
<g id="node1" class="node">
<title>0</title>
<polygon fill="none" stroke="#000000" points="92,-36 0,-36 0,0 92,0 92,-36"/>
<text text-anchor="middle" x="46" y="-14.3" font-family="Times,serif" font-size="14.00" fill="#000000">SMPyBandits</text>
</g>
<!-- 0&#45;&gt;0 -->
<g id="edge1" class="edge">
<title>0&#45;&gt;0</title>
<path fill="none" stroke="#000000" d="M92.0242,-4.8296C102.4063,-6.0161 110,-10.4063 110,-18 110,-22.8647 106.8835,-26.4147 101.914,-28.6499"/>
<polygon fill="#000000" stroke="#000000" points="92.0242,-31.1704 100.6031,-24.3401 96.8693,-29.9356 101.7144,-28.7007 101.7144,-28.7007 101.7144,-28.7007 96.8693,-29.9356 102.8258,-33.0613 92.0242,-31.1704 92.0242,-31.1704"/>
</g>
<!-- 1 -->
<g id="node2" class="node">
<title>1</title>
<polygon fill="none" stroke="#000000" points="465.5,-36 128.5,-36 128.5,0 465.5,0 465.5,-36"/>
<text text-anchor="middle" x="297" y="-14.3" font-family="Times,serif" font-size="14.00" fill="#000000">SMPyBandits.complete_tree_exploration_for_MP_bandits</text>
</g>
<!-- 2 -->
<g id="node3" class="node">
<title>2</title>
<polygon fill="none" stroke="#000000" points="652.5,-36 483.5,-36 483.5,0 652.5,0 652.5,-36"/>
<text text-anchor="middle" x="568" y="-14.3" font-family="Times,serif" font-size="14.00" fill="#000000">SMPyBandits.configuration</text>
</g>
<!-- 3 -->
<g id="node4" class="node">
<title>3</title>
<polygon fill="none" stroke="#000000" points="933,-36 671,-36 671,0 933,0 933,-36"/>
<text text-anchor="middle" x="802" y="-14.3" font-family="Times,serif" font-size="14.00" fill="#000000">SMPyBandits.configuration_all_singleplayer</text>
</g>
<!-- 4 -->
<g id="node5" class="node">
<title>4</title>
<polygon fill="none" stroke="#000000" points="1321,-36 951,-36 951,0 1321,0 1321,-36"/>
<text text-anchor="middle" x="1136" y="-14.3" font-family="Times,serif" font-size="14.00" fill="#000000">SMPyBandits.configuration_comparing_aggregation_algorithms</text>
</g>
<!-- 5 -->
<g id="node6" class="node">
<title>5</title>
<polygon fill="none" stroke="#000000" points="1693,-36 1339,-36 1339,0 1693,0 1693,-36"/>
<text text-anchor="middle" x="1516" y="-14.3" font-family="Times,serif" font-size="14.00" fill="#000000">SMPyBandits.configuration_comparing_doubling_algorithms</text>
</g>
<!-- 6 -->
<g id="node7" class="node">
<title>6</title>
<polygon fill="none" stroke="#000000" points="1945,-36 1711,-36 1711,0 1945,0 1945,-36"/>
<text text-anchor="middle" x="1828" y="-14.3" font-family="Times,serif" font-size="14.00" fill="#000000">SMPyBandits.configuration_markovian</text>
</g>
<!-- 7 -->
<g id="node8" class="node">
<title>7</title>
<polygon fill="none" stroke="#000000" points="2156,-108 1912,-108 1912,-72 2156,-72 2156,-108"/>
<text text-anchor="middle" x="2034" y="-86.3" font-family="Times,serif" font-size="14.00" fill="#000000">SMPyBandits.configuration_multiplayers</text>
</g>
<!-- 8 -->
<g id="node9" class="node">
<title>8</title>
<polygon fill="none" stroke="#000000" points="2977.5,-36 2632.5,-36 2632.5,0 2977.5,0 2977.5,-36"/>
<text text-anchor="middle" x="2805" y="-14.3" font-family="Times,serif" font-size="14.00" fill="#000000">SMPyBandits.configuration_multiplayers_with_aggregation</text>
</g>
<!-- 9 -->
<g id="node10" class="node">
<title>9</title>
<polygon fill="none" stroke="#000000" points="3244.5,-36 2995.5,-36 2995.5,0 3244.5,0 3244.5,-36"/>
<text text-anchor="middle" x="3120" y="-14.3" font-family="Times,serif" font-size="14.00" fill="#000000">SMPyBandits.configuration_nonstationary</text>
</g>
<!-- 10 -->
<g id="node11" class="node">
<title>10</title>
<polygon fill="none" stroke="#000000" points="3471.5,-36 3262.5,-36 3262.5,0 3471.5,0 3471.5,-36"/>
<text text-anchor="middle" x="3367" y="-14.3" font-family="Times,serif" font-size="14.00" fill="#000000">SMPyBandits.configuration_sparse</text>
</g>
<!-- 11 -->
<g id="node12" class="node">
<title>11</title>
<polygon fill="none" stroke="#000000" points="3751,-108 3467,-108 3467,-72 3751,-72 3751,-108"/>
<text text-anchor="middle" x="3609" y="-86.3" font-family="Times,serif" font-size="14.00" fill="#000000">SMPyBandits.configuration_sparse_multiplayers</text>
</g>
<!-- 12 -->
<g id="node13" class="node">
<title>12</title>
<polygon fill="none" stroke="#000000" points="3899,-36 3747,-36 3747,0 3899,0 3899,-36"/>
<text text-anchor="middle" x="3823" y="-14.3" font-family="Times,serif" font-size="14.00" fill="#000000">SMPyBandits.env_client</text>
</g>
<!-- 13 -->
<g id="node14" class="node">
<title>13</title>
<polygon fill="none" stroke="#000000" points="4227.5,-108 3912.5,-108 3912.5,-72 4227.5,-72 4227.5,-108"/>
<text text-anchor="middle" x="4070" y="-86.3" font-family="Times,serif" font-size="14.00" fill="#000000">SMPyBandits.example_of_configuration_multiplayers</text>
</g>
<!-- 14 -->
<g id="node15" class="node">
<title>14</title>
<polygon fill="none" stroke="#000000" points="4553.5,-36 4240.5,-36 4240.5,0 4553.5,0 4553.5,-36"/>
<text text-anchor="middle" x="4397" y="-14.3" font-family="Times,serif" font-size="14.00" fill="#000000">SMPyBandits.example_of_configuration_singleplayer</text>
</g>
<!-- 15 -->
<g id="node16" class="node">
<title>15</title>
<polygon fill="none" stroke="#000000" points="4222.5,-36 3917.5,-36 3917.5,0 4222.5,0 4222.5,-36"/>
<text text-anchor="middle" x="4070" y="-14.3" font-family="Times,serif" font-size="14.00" fill="#000000">SMPyBandits.example_of_main_multiplayers_more</text>
</g>
<!-- 15&#45;&gt;13 -->
<g id="edge2" class="edge">
<title>15&#45;&gt;13</title>
<path fill="none" stroke="#000000" d="M4070,-36.1686C4070,-43.869 4070,-53.0257 4070,-61.5834"/>
<polygon fill="#000000" stroke="#000000" points="4070,-71.5867 4065.5001,-61.5867 4070,-66.5867 4070.0001,-61.5867 4070.0001,-61.5867 4070.0001,-61.5867 4070,-66.5867 4074.5001,-61.5868 4070,-71.5867 4070,-71.5867"/>
</g>
<!-- 16 -->
<g id="node17" class="node">
<title>16</title>
<polygon fill="none" stroke="#000000" points="4840,-36 4572,-36 4572,0 4840,0 4840,-36"/>
<text text-anchor="middle" x="4706" y="-14.3" font-family="Times,serif" font-size="14.00" fill="#000000">SMPyBandits.example_of_main_singleplayer</text>
</g>
<!-- 23 -->
<g id="node24" class="node">
<title>23</title>
<polygon fill="none" stroke="#000000" points="4827.5,-108 4584.5,-108 4584.5,-72 4827.5,-72 4827.5,-108"/>
<text text-anchor="middle" x="4706" y="-86.3" font-family="Times,serif" font-size="14.00" fill="#000000">SMPyBandits.very_simple_configuration</text>
</g>
<!-- 16&#45;&gt;23 -->
<g id="edge3" class="edge">
<title>16&#45;&gt;23</title>
<path fill="none" stroke="#000000" d="M4706,-36.1686C4706,-43.869 4706,-53.0257 4706,-61.5834"/>
<polygon fill="#000000" stroke="#000000" points="4706,-71.5867 4701.5001,-61.5867 4706,-66.5867 4706.0001,-61.5867 4706.0001,-61.5867 4706.0001,-61.5867 4706,-66.5867 4710.5001,-61.5868 4706,-71.5867 4706,-71.5867"/>
</g>
<!-- 17 -->
<g id="node18" class="node">
<title>17</title>
<polygon fill="none" stroke="#000000" points="2362,-36 2238,-36 2238,0 2362,0 2362,-36"/>
<text text-anchor="middle" x="2300" y="-14.3" font-family="Times,serif" font-size="14.00" fill="#000000">SMPyBandits.main</text>
</g>
<!-- 22 -->
<g id="node23" class="node">
<title>22</title>
<polygon fill="none" stroke="#000000" points="2483.5,-108 2174.5,-108 2174.5,-72 2483.5,-72 2483.5,-108"/>
<text text-anchor="middle" x="2329" y="-86.3" font-family="Times,serif" font-size="14.00" fill="#000000">SMPyBandits.save_configuration_for_reproducibility</text>
</g>
<!-- 17&#45;&gt;22 -->
<g id="edge4" class="edge">
<title>17&#45;&gt;22</title>
<path fill="none" stroke="#000000" d="M2307.3179,-36.1686C2310.4876,-44.0383 2314.27,-53.4288 2317.7813,-62.1467"/>
<polygon fill="#000000" stroke="#000000" points="2321.5835,-71.5867 2313.6732,-63.9921 2319.7155,-66.9488 2317.8474,-62.3109 2317.8474,-62.3109 2317.8474,-62.3109 2319.7155,-66.9488 2322.0215,-60.6296 2321.5835,-71.5867 2321.5835,-71.5867"/>
</g>
<!-- 18 -->
<g id="node19" class="node">
<title>18</title>
<polygon fill="none" stroke="#000000" points="2162.5,-36 1963.5,-36 1963.5,0 2162.5,0 2162.5,-36"/>
<text text-anchor="middle" x="2063" y="-14.3" font-family="Times,serif" font-size="14.00" fill="#000000">SMPyBandits.main_multiplayers</text>
</g>
<!-- 18&#45;&gt;7 -->
<g id="edge5" class="edge">
<title>18&#45;&gt;7</title>
<path fill="none" stroke="#000000" d="M2055.6821,-36.1686C2052.5124,-44.0383 2048.73,-53.4288 2045.2187,-62.1467"/>
<polygon fill="#000000" stroke="#000000" points="2041.4165,-71.5867 2040.9785,-60.6296 2043.2845,-66.9488 2045.1526,-62.3109 2045.1526,-62.3109 2045.1526,-62.3109 2043.2845,-66.9488 2049.3268,-63.9921 2041.4165,-71.5867 2041.4165,-71.5867"/>
</g>
<!-- 18&#45;&gt;22 -->
<g id="edge6" class="edge">
<title>18&#45;&gt;22</title>
<path fill="none" stroke="#000000" d="M2129.7797,-36.0757C2167.0921,-46.1753 2213.74,-58.8018 2252.5149,-69.2973"/>
<polygon fill="#000000" stroke="#000000" points="2262.1928,-71.9169 2251.3644,-73.6477 2257.3665,-70.6104 2252.5402,-69.304 2252.5402,-69.304 2252.5402,-69.304 2257.3665,-70.6104 2253.716,-64.9603 2262.1928,-71.9169 2262.1928,-71.9169"/>
</g>
<!-- 19 -->
<g id="node20" class="node">
<title>19</title>
<polygon fill="none" stroke="#000000" points="2614,-36 2380,-36 2380,0 2614,0 2614,-36"/>
<text text-anchor="middle" x="2497" y="-14.3" font-family="Times,serif" font-size="14.00" fill="#000000">SMPyBandits.main_multiplayers_more</text>
</g>
<!-- 19&#45;&gt;22 -->
<g id="edge7" class="edge">
<title>19&#45;&gt;22</title>
<path fill="none" stroke="#000000" d="M2454.6065,-36.1686C2432.0376,-45.841 2404.1079,-57.8109 2380.3204,-68.0056"/>
<polygon fill="#000000" stroke="#000000" points="2371.0886,-71.962 2378.5074,-63.8866 2375.6844,-69.9924 2380.2801,-68.0228 2380.2801,-68.0228 2380.2801,-68.0228 2375.6844,-69.9924 2382.0528,-72.1589 2371.0886,-71.962 2371.0886,-71.962"/>
</g>
<!-- 20 -->
<g id="node21" class="node">
<title>20</title>
<polygon fill="none" stroke="#000000" points="3728.5,-36 3489.5,-36 3489.5,0 3728.5,0 3728.5,-36"/>
<text text-anchor="middle" x="3609" y="-14.3" font-family="Times,serif" font-size="14.00" fill="#000000">SMPyBandits.main_sparse_multiplayers</text>
</g>
<!-- 20&#45;&gt;11 -->
<g id="edge8" class="edge">
<title>20&#45;&gt;11</title>
<path fill="none" stroke="#000000" d="M3609,-36.1686C3609,-43.869 3609,-53.0257 3609,-61.5834"/>
<polygon fill="#000000" stroke="#000000" points="3609,-71.5867 3604.5001,-61.5867 3609,-66.5867 3609.0001,-61.5867 3609.0001,-61.5867 3609.0001,-61.5867 3609,-66.5867 3613.5001,-61.5868 3609,-71.5867 3609,-71.5867"/>
</g>
<!-- 21 -->
<g id="node22" class="node">
<title>21</title>
<polygon fill="none" stroke="#000000" points="5028,-36 4858,-36 4858,0 5028,0 5028,-36"/>
<text text-anchor="middle" x="4943" y="-14.3" font-family="Times,serif" font-size="14.00" fill="#000000">SMPyBandits.policy_server</text>
</g>
</g>
</svg>
