<?xml version="1.0" encoding="UTF-8" standalone="no"?>
<!DOCTYPE svg PUBLIC "-//W3C//DTD SVG 1.1//EN"
 "http://www.w3.org/Graphics/SVG/1.1/DTD/svg11.dtd">
<!-- Generated by graphviz version 2.38.0 (20140413.2041)
 -->
<!-- Title: packages_AlgoBandits Pages: 1 -->
<svg width="4654pt" height="548pt"
 viewBox="0.00 0.00 4654.00 548.00" xmlns="http://www.w3.org/2000/svg" xmlns:xlink="http://www.w3.org/1999/xlink">
<g id="graph0" class="graph" transform="scale(1 1) rotate(0) translate(4 544)">
<title>packages_AlgoBandits</title>
<polygon fill="white" stroke="none" points="-4,4 -4,-544 4650,-544 4650,4 -4,4"/>
<!-- 0 -->
<g id="node1" class="node"><title>0</title>
<polygon fill="none" stroke="black" points="244.5,-108 190.5,-108 190.5,-72 244.5,-72 244.5,-108"/>
<text text-anchor="middle" x="217.5" y="-86.3" font-family="Times,serif" font-size="14.00">Arms</text>
</g>
<!-- 2 -->
<g id="node3" class="node"><title>2</title>
<polygon fill="none" stroke="black" points="467.5,-180 365.5,-180 365.5,-144 467.5,-144 467.5,-180"/>
<text text-anchor="middle" x="416.5" y="-158.3" font-family="Times,serif" font-size="14.00">Arms.Bernoulli</text>
</g>
<!-- 0&#45;&gt;2 -->
<g id="edge1" class="edge"><title>0&#45;&gt;2</title>
<path fill="none" stroke="black" d="M244.753,-100.586C273.774,-110.795 320.587,-127.262 358.015,-140.427"/>
<polygon fill="black" stroke="black" points="367.804,-143.871 356.878,-144.798 363.087,-142.212 358.371,-140.552 358.371,-140.552 358.371,-140.552 363.087,-142.212 359.864,-136.307 367.804,-143.871 367.804,-143.871"/>
</g>
<!-- 3 -->
<g id="node4" class="node"><title>3</title>
<polygon fill="none" stroke="black" points="227.5,-180 111.5,-180 111.5,-144 227.5,-144 227.5,-180"/>
<text text-anchor="middle" x="169.5" y="-158.3" font-family="Times,serif" font-size="14.00">Arms.Exponential</text>
</g>
<!-- 0&#45;&gt;3 -->
<g id="edge2" class="edge"><title>0&#45;&gt;3</title>
<path fill="none" stroke="black" d="M205.635,-108.303C199.997,-116.526 193.146,-126.517 186.931,-135.579"/>
<polygon fill="black" stroke="black" points="181.229,-143.896 183.173,-133.103 184.056,-139.772 186.884,-135.648 186.884,-135.648 186.884,-135.648 184.056,-139.772 190.595,-138.193 181.229,-143.896 181.229,-143.896"/>
</g>
<!-- 4 -->
<g id="node5" class="node"><title>4</title>
<polygon fill="none" stroke="black" points="347,-180 246,-180 246,-144 347,-144 347,-180"/>
<text text-anchor="middle" x="296.5" y="-158.3" font-family="Times,serif" font-size="14.00">Arms.Gaussian</text>
</g>
<!-- 0&#45;&gt;4 -->
<g id="edge3" class="edge"><title>0&#45;&gt;4</title>
<path fill="none" stroke="black" d="M237.028,-108.303C246.882,-117.035 258.986,-127.76 269.696,-137.25"/>
<polygon fill="black" stroke="black" points="277.197,-143.896 266.728,-140.632 273.454,-140.58 269.712,-137.264 269.712,-137.264 269.712,-137.264 273.454,-140.58 272.696,-133.896 277.197,-143.896 277.197,-143.896"/>
</g>
<!-- 5 -->
<g id="node6" class="node"><title>5</title>
<polygon fill="none" stroke="black" points="93,-180 7.10543e-15,-180 7.10543e-15,-144 93,-144 93,-180"/>
<text text-anchor="middle" x="46.5" y="-158.3" font-family="Times,serif" font-size="14.00">Arms.Poisson</text>
</g>
<!-- 0&#45;&gt;5 -->
<g id="edge4" class="edge"><title>0&#45;&gt;5</title>
<path fill="none" stroke="black" d="M190.405,-102.092C165.591,-112.249 128.206,-127.553 97.7599,-140.016"/>
<polygon fill="black" stroke="black" points="88.1434,-143.953 95.6932,-136 92.7707,-142.059 97.398,-140.165 97.398,-140.165 97.398,-140.165 92.7707,-142.059 99.1028,-144.329 88.1434,-143.953 88.1434,-143.953"/>
</g>
<!-- 1 -->
<g id="node2" class="node"><title>1</title>
<polygon fill="none" stroke="black" points="102,-252 25,-252 25,-216 102,-216 102,-252"/>
<text text-anchor="middle" x="63.5" y="-230.3" font-family="Times,serif" font-size="14.00">Arms.Arm</text>
</g>
<!-- 2&#45;&gt;1 -->
<g id="edge5" class="edge"><title>2&#45;&gt;1</title>
<path fill="none" stroke="black" d="M365.36,-177.753C362.034,-178.558 358.726,-179.315 355.5,-180 251.412,-202.092 219.733,-190.319 112.039,-216.168"/>
<polygon fill="black" stroke="black" points="102.076,-218.614 110.715,-211.86 106.932,-217.422 111.788,-216.23 111.788,-216.23 111.788,-216.23 106.932,-217.422 112.86,-220.6 102.076,-218.614 102.076,-218.614"/>
</g>
<!-- 6 -->
<g id="node7" class="node"><title>6</title>
<polygon fill="none" stroke="black" points="218.5,-252 120.5,-252 120.5,-216 218.5,-216 218.5,-252"/>
<text text-anchor="middle" x="169.5" y="-230.3" font-family="Times,serif" font-size="14.00">Arms.kullback</text>
</g>
<!-- 2&#45;&gt;6 -->
<g id="edge6" class="edge"><title>2&#45;&gt;6</title>
<path fill="none" stroke="black" d="M365.321,-177.504C325.422,-188.811 269.974,-204.526 228.261,-216.347"/>
<polygon fill="black" stroke="black" points="218.509,-219.111 226.903,-212.055 223.32,-217.747 228.13,-216.384 228.13,-216.384 228.13,-216.384 223.32,-217.747 229.357,-220.714 218.509,-219.111 218.509,-219.111"/>
</g>
<!-- 3&#45;&gt;1 -->
<g id="edge7" class="edge"><title>3&#45;&gt;1</title>
<path fill="none" stroke="black" d="M143.569,-180.124C129.838,-189.192 112.794,-200.448 97.9639,-210.241"/>
<polygon fill="black" stroke="black" points="89.5302,-215.81 95.3951,-206.544 93.7025,-213.055 97.8749,-210.3 97.8749,-210.3 97.8749,-210.3 93.7025,-213.055 100.355,-214.055 89.5302,-215.81 89.5302,-215.81"/>
</g>
<!-- 3&#45;&gt;6 -->
<g id="edge8" class="edge"><title>3&#45;&gt;6</title>
<path fill="none" stroke="black" d="M169.5,-180.303C169.5,-188.017 169.5,-197.288 169.5,-205.888"/>
<polygon fill="black" stroke="black" points="169.5,-215.896 165,-205.896 169.5,-210.896 169.5,-205.896 169.5,-205.896 169.5,-205.896 169.5,-210.896 174,-205.896 169.5,-215.896 169.5,-215.896"/>
</g>
<!-- 4&#45;&gt;1 -->
<g id="edge9" class="edge"><title>4&#45;&gt;1</title>
<path fill="none" stroke="black" d="M245.954,-177.398C200.649,-190.314 138.269,-208.128 111.843,-216.084"/>
<polygon fill="black" stroke="black" points="102.203,-219.063 110.429,-211.811 106.981,-217.587 111.758,-216.11 111.758,-216.11 111.758,-216.11 106.981,-217.587 113.086,-220.409 102.203,-219.063 102.203,-219.063"/>
</g>
<!-- 4&#45;&gt;6 -->
<g id="edge10" class="edge"><title>4&#45;&gt;6</title>
<path fill="none" stroke="black" d="M265.432,-180.124C248.673,-189.361 227.794,-200.869 209.798,-210.788"/>
<polygon fill="black" stroke="black" points="200.687,-215.81 207.273,-207.042 205.066,-213.397 209.445,-210.983 209.445,-210.983 209.445,-210.983 205.066,-213.397 211.617,-214.924 200.687,-215.81 200.687,-215.81"/>
</g>
<!-- 5&#45;&gt;1 -->
<g id="edge11" class="edge"><title>5&#45;&gt;1</title>
<path fill="none" stroke="black" d="M50.7022,-180.303C52.5962,-188.102 54.8765,-197.491 56.9843,-206.171"/>
<polygon fill="black" stroke="black" points="59.3461,-215.896 52.6131,-207.24 58.1661,-211.037 56.986,-206.178 56.986,-206.178 56.986,-206.178 58.1661,-211.037 61.3589,-205.116 59.3461,-215.896 59.3461,-215.896"/>
</g>
<!-- 5&#45;&gt;6 -->
<g id="edge12" class="edge"><title>5&#45;&gt;6</title>
<path fill="none" stroke="black" d="M76.5892,-180.124C92.8203,-189.361 113.042,-200.869 130.471,-210.788"/>
<polygon fill="black" stroke="black" points="139.295,-215.81 128.378,-214.775 134.95,-213.337 130.604,-210.864 130.604,-210.864 130.604,-210.864 134.95,-213.337 132.83,-206.953 139.295,-215.81 139.295,-215.81"/>
</g>
<!-- 7 -->
<g id="node8" class="node"><title>7</title>
<polygon fill="none" stroke="black" points="2426.5,-108 2338.5,-108 2338.5,-72 2426.5,-72 2426.5,-108"/>
<text text-anchor="middle" x="2382.5" y="-86.3" font-family="Times,serif" font-size="14.00">Environment</text>
</g>
<!-- 9 -->
<g id="node10" class="node"><title>9</title>
<polygon fill="none" stroke="black" points="2449.5,-180 2305.5,-180 2305.5,-144 2449.5,-144 2449.5,-180"/>
<text text-anchor="middle" x="2377.5" y="-158.3" font-family="Times,serif" font-size="14.00">Environment.Evaluator</text>
</g>
<!-- 7&#45;&gt;9 -->
<g id="edge13" class="edge"><title>7&#45;&gt;9</title>
<path fill="none" stroke="black" d="M2381.26,-108.303C2380.71,-116.017 2380.05,-125.288 2379.44,-133.888"/>
<polygon fill="black" stroke="black" points="2378.72,-143.896 2374.95,-133.6 2379.08,-138.908 2379.43,-133.921 2379.43,-133.921 2379.43,-133.921 2379.08,-138.908 2383.92,-134.242 2378.72,-143.896 2378.72,-143.896"/>
</g>
<!-- 10 -->
<g id="node11" class="node"><title>10</title>
<polygon fill="none" stroke="black" points="2759,-180 2544,-180 2544,-144 2759,-144 2759,-180"/>
<text text-anchor="middle" x="2651.5" y="-158.3" font-family="Times,serif" font-size="14.00">Environment.EvaluatorMultiPlayers</text>
</g>
<!-- 7&#45;&gt;10 -->
<g id="edge14" class="edge"><title>7&#45;&gt;10</title>
<path fill="none" stroke="black" d="M2426.68,-105.424C2429.66,-106.318 2432.62,-107.185 2435.5,-108 2478.32,-120.104 2526.35,-132.05 2566.23,-141.528"/>
<polygon fill="black" stroke="black" points="2576.19,-143.883 2565.42,-145.96 2571.32,-142.732 2566.46,-141.581 2566.46,-141.581 2566.46,-141.581 2571.32,-142.732 2567.49,-137.202 2576.19,-143.883 2576.19,-143.883"/>
</g>
<!-- 11 -->
<g id="node12" class="node"><title>11</title>
<polygon fill="none" stroke="black" points="2539,-252 2416,-252 2416,-216 2539,-216 2539,-252"/>
<text text-anchor="middle" x="2477.5" y="-230.3" font-family="Times,serif" font-size="14.00">Environment.MAB</text>
</g>
<!-- 7&#45;&gt;11 -->
<g id="edge15" class="edge"><title>7&#45;&gt;11</title>
<path fill="none" stroke="black" d="M2418.13,-108.195C2432.74,-116.97 2448.54,-128.99 2458.5,-144 2470.68,-162.351 2475.23,-187.11 2476.85,-205.854"/>
<polygon fill="black" stroke="black" points="2477.48,-215.836 2472.36,-206.143 2477.17,-210.846 2476.85,-205.856 2476.85,-205.856 2476.85,-205.856 2477.17,-210.846 2481.34,-205.57 2477.48,-215.836 2477.48,-215.836"/>
</g>
<!-- 12 -->
<g id="node13" class="node"><title>12</title>
<polygon fill="none" stroke="black" points="2397.5,-252 2271.5,-252 2271.5,-216 2397.5,-216 2397.5,-252"/>
<text text-anchor="middle" x="2334.5" y="-230.3" font-family="Times,serif" font-size="14.00">Environment.Result</text>
</g>
<!-- 7&#45;&gt;12 -->
<g id="edge16" class="edge"><title>7&#45;&gt;12</title>
<path fill="none" stroke="black" d="M2338.31,-107.312C2322.17,-115.668 2305.65,-127.615 2296.5,-144 2284.92,-164.735 2297.72,-189.706 2311.5,-207.914"/>
<polygon fill="black" stroke="black" points="2317.81,-215.764 2308.04,-210.794 2314.68,-211.868 2311.54,-207.973 2311.54,-207.973 2311.54,-207.973 2314.68,-211.868 2315.05,-205.152 2317.81,-215.764 2317.81,-215.764"/>
</g>
<!-- 8 -->
<g id="node9" class="node"><title>8</title>
<polygon fill="none" stroke="black" points="3127.5,-252 2945.5,-252 2945.5,-216 3127.5,-216 3127.5,-252"/>
<text text-anchor="middle" x="3036.5" y="-230.3" font-family="Times,serif" font-size="14.00">Environment.CollisionModels</text>
</g>
<!-- 9&#45;&gt;11 -->
<g id="edge17" class="edge"><title>9&#45;&gt;11</title>
<path fill="none" stroke="black" d="M2401.96,-180.124C2414.8,-189.107 2430.7,-200.237 2444.59,-209.966"/>
<polygon fill="black" stroke="black" points="2452.94,-215.81 2442.17,-213.762 2448.85,-212.943 2444.75,-210.076 2444.75,-210.076 2444.75,-210.076 2448.85,-212.943 2447.33,-206.389 2452.94,-215.81 2452.94,-215.81"/>
</g>
<!-- 9&#45;&gt;12 -->
<g id="edge18" class="edge"><title>9&#45;&gt;12</title>
<path fill="none" stroke="black" d="M2366.87,-180.303C2361.87,-188.441 2355.81,-198.311 2350.29,-207.299"/>
<polygon fill="black" stroke="black" points="2345.01,-215.896 2346.41,-205.019 2347.62,-211.635 2350.24,-207.375 2350.24,-207.375 2350.24,-207.375 2347.62,-211.635 2354.08,-209.73 2345.01,-215.896 2345.01,-215.896"/>
</g>
<!-- 14 -->
<g id="node15" class="node"><title>14</title>
<polygon fill="none" stroke="black" points="2711.5,-252 2557.5,-252 2557.5,-216 2711.5,-216 2711.5,-252"/>
<text text-anchor="middle" x="2634.5" y="-230.3" font-family="Times,serif" font-size="14.00">Environment.plotsettings</text>
</g>
<!-- 9&#45;&gt;14 -->
<g id="edge19" class="edge"><title>9&#45;&gt;14</title>
<path fill="none" stroke="black" d="M2440.04,-180.034C2476.73,-190.028 2523.26,-202.702 2561.61,-213.146"/>
<polygon fill="black" stroke="black" points="2571.68,-215.889 2560.85,-217.603 2566.85,-214.575 2562.03,-213.261 2562.03,-213.261 2562.03,-213.261 2566.85,-214.575 2563.21,-208.919 2571.68,-215.889 2571.68,-215.889"/>
</g>
<!-- 10&#45;&gt;8 -->
<g id="edge20" class="edge"><title>10&#45;&gt;8</title>
<path fill="none" stroke="black" d="M2745.19,-180.034C2802.74,-190.497 2876.45,-203.899 2935.32,-214.604"/>
<polygon fill="black" stroke="black" points="2945.38,-216.434 2934.74,-219.072 2940.47,-215.539 2935.55,-214.645 2935.55,-214.645 2935.55,-214.645 2940.47,-215.539 2936.35,-210.217 2945.38,-216.434 2945.38,-216.434"/>
</g>
<!-- 10&#45;&gt;11 -->
<g id="edge21" class="edge"><title>10&#45;&gt;11</title>
<path fill="none" stroke="black" d="M2608.93,-180.124C2584.94,-189.778 2554.77,-201.913 2529.4,-212.122"/>
<polygon fill="black" stroke="black" points="2519.93,-215.932 2527.52,-208.025 2524.57,-214.066 2529.2,-212.199 2529.2,-212.199 2529.2,-212.199 2524.57,-214.066 2530.88,-216.374 2519.93,-215.932 2519.93,-215.932"/>
</g>
<!-- 13 -->
<g id="node14" class="node"><title>13</title>
<polygon fill="none" stroke="black" points="2927,-252 2730,-252 2730,-216 2927,-216 2927,-252"/>
<text text-anchor="middle" x="2828.5" y="-230.3" font-family="Times,serif" font-size="14.00">Environment.ResultMultiPlayers</text>
</g>
<!-- 10&#45;&gt;13 -->
<g id="edge22" class="edge"><title>10&#45;&gt;13</title>
<path fill="none" stroke="black" d="M2694.8,-180.124C2719.21,-189.778 2749.9,-201.913 2775.71,-212.122"/>
<polygon fill="black" stroke="black" points="2785.34,-215.932 2774.39,-216.439 2780.69,-214.093 2776.04,-212.254 2776.04,-212.254 2776.04,-212.254 2780.69,-214.093 2777.7,-208.069 2785.34,-215.932 2785.34,-215.932"/>
</g>
<!-- 10&#45;&gt;14 -->
<g id="edge23" class="edge"><title>10&#45;&gt;14</title>
<path fill="none" stroke="black" d="M2647.3,-180.303C2645.4,-188.102 2643.12,-197.491 2641.02,-206.171"/>
<polygon fill="black" stroke="black" points="2638.65,-215.896 2636.64,-205.116 2639.83,-211.037 2641.01,-206.178 2641.01,-206.178 2641.01,-206.178 2639.83,-211.037 2645.39,-207.24 2638.65,-215.896 2638.65,-215.896"/>
</g>
<!-- 15 -->
<g id="node16" class="node"><title>15</title>
<polygon fill="none" stroke="black" points="1247,-180 1188,-180 1188,-144 1247,-144 1247,-180"/>
<text text-anchor="middle" x="1217.5" y="-158.3" font-family="Times,serif" font-size="14.00">Policies</text>
</g>
<!-- 16 -->
<g id="node17" class="node"><title>16</title>
<polygon fill="none" stroke="black" points="1815,-324 1694,-324 1694,-288 1815,-288 1815,-324"/>
<text text-anchor="middle" x="1754.5" y="-302.3" font-family="Times,serif" font-size="14.00">Policies.AdBandits</text>
</g>
<!-- 15&#45;&gt;16 -->
<g id="edge24" class="edge"><title>15&#45;&gt;16</title>
<path fill="none" stroke="black" d="M1247.07,-163.574C1336.74,-165.746 1604.09,-175.544 1679.5,-216 1706.18,-230.312 1727.32,-258.357 1740.27,-279.158"/>
<polygon fill="black" stroke="black" points="1745.47,-287.848 1736.47,-281.578 1742.9,-283.558 1740.33,-279.267 1740.33,-279.267 1740.33,-279.267 1742.9,-283.558 1744.19,-276.957 1745.47,-287.848 1745.47,-287.848"/>
</g>
<!-- 17 -->
<g id="node18" class="node"><title>17</title>
<polygon fill="none" stroke="black" points="322,-468 231,-468 231,-432 322,-432 322,-468"/>
<text text-anchor="middle" x="276.5" y="-446.3" font-family="Times,serif" font-size="14.00">Policies.Aggr</text>
</g>
<!-- 15&#45;&gt;17 -->
<g id="edge25" class="edge"><title>15&#45;&gt;17</title>
<path fill="none" stroke="black" d="M1187.75,-163.645C1032.42,-167.143 320.528,-184.84 286.5,-216 229.211,-268.46 252.174,-373.152 267.278,-422.325"/>
<polygon fill="black" stroke="black" points="270.35,-431.936 263.019,-423.781 268.828,-427.174 267.306,-422.411 267.306,-422.411 267.306,-422.411 268.828,-427.174 271.592,-421.041 270.35,-431.936 270.35,-431.936"/>
</g>
<!-- 19 -->
<g id="node20" class="node"><title>19</title>
<polygon fill="none" stroke="black" points="1497.5,-252 1373.5,-252 1373.5,-216 1497.5,-216 1497.5,-252"/>
<text text-anchor="middle" x="1435.5" y="-230.3" font-family="Times,serif" font-size="14.00">Policies.BayesUCB</text>
</g>
<!-- 15&#45;&gt;19 -->
<g id="edge26" class="edge"><title>15&#45;&gt;19</title>
<path fill="none" stroke="black" d="M1247.35,-172.586C1279.42,-182.882 1331.3,-199.543 1372.48,-212.763"/>
<polygon fill="black" stroke="black" points="1382.15,-215.871 1371.26,-217.098 1377.39,-214.342 1372.63,-212.813 1372.63,-212.813 1372.63,-212.813 1377.39,-214.342 1374.01,-208.529 1382.15,-215.871 1382.15,-215.871"/>
</g>
<!-- 22 -->
<g id="node23" class="node"><title>22</title>
<polygon fill="none" stroke="black" points="440,-396 275,-396 275,-360 440,-360 440,-396"/>
<text text-anchor="middle" x="357.5" y="-374.3" font-family="Times,serif" font-size="14.00">Policies.EpsilonDecreasing</text>
</g>
<!-- 15&#45;&gt;22 -->
<g id="edge27" class="edge"><title>15&#45;&gt;22</title>
<path fill="none" stroke="black" d="M1187.86,-163.598C1034.77,-166.827 339.382,-183.265 308.5,-216 275.561,-250.915 291.004,-279.302 308.5,-324 312.697,-334.721 320.192,-344.573 328.078,-352.799"/>
<polygon fill="black" stroke="black" points="335.347,-359.875 325.043,-356.124 331.764,-356.387 328.181,-352.9 328.181,-352.9 328.181,-352.9 331.764,-356.387 331.32,-349.675 335.347,-359.875 335.347,-359.875"/>
</g>
<!-- 23 -->
<g id="node24" class="node"><title>23</title>
<polygon fill="none" stroke="black" points="1111,-468 982,-468 982,-432 1111,-432 1111,-468"/>
<text text-anchor="middle" x="1046.5" y="-446.3" font-family="Times,serif" font-size="14.00">Policies.EpsilonFirst</text>
</g>
<!-- 15&#45;&gt;23 -->
<g id="edge28" class="edge"><title>15&#45;&gt;23</title>
<path fill="none" stroke="black" d="M1187.96,-163.663C1038.45,-167.157 371.165,-184.486 341.5,-216 317.016,-242.01 360.093,-314.044 369.5,-324 395.999,-352.046 416.363,-338.645 448.5,-360 468.147,-373.055 465.961,-386.382 487.5,-396 498.438,-400.884 822.285,-429.527 971.963,-442.554"/>
<polygon fill="black" stroke="black" points="981.999,-443.427 971.646,-447.044 977.017,-442.994 972.036,-442.56 972.036,-442.56 972.036,-442.56 977.017,-442.994 972.426,-438.077 981.999,-443.427 981.999,-443.427"/>
</g>
<!-- 24 -->
<g id="node25" class="node"><title>24</title>
<polygon fill="none" stroke="black" points="999.5,-396 855.5,-396 855.5,-360 999.5,-360 999.5,-396"/>
<text text-anchor="middle" x="927.5" y="-374.3" font-family="Times,serif" font-size="14.00">Policies.EpsilonGreedy</text>
</g>
<!-- 15&#45;&gt;24 -->
<g id="edge29" class="edge"><title>15&#45;&gt;24</title>
<path fill="none" stroke="black" d="M1187.96,-162.976C1119.99,-163.748 948.007,-170.451 813.5,-216 752.775,-236.564 720.584,-232.493 688.5,-288 680.493,-301.852 678.486,-311.522 688.5,-324 698.574,-336.552 780.401,-352.806 845.543,-363.986"/>
<polygon fill="black" stroke="black" points="855.431,-365.666 844.818,-368.427 850.501,-364.829 845.572,-363.991 845.572,-363.991 845.572,-363.991 850.501,-364.829 846.326,-359.554 855.431,-365.666 855.431,-365.666"/>
</g>
<!-- 27 -->
<g id="node28" class="node"><title>27</title>
<polygon fill="none" stroke="black" points="1592.5,-468 1488.5,-468 1488.5,-432 1592.5,-432 1592.5,-468"/>
<text text-anchor="middle" x="1540.5" y="-446.3" font-family="Times,serif" font-size="14.00">Policies.MEGA</text>
</g>
<!-- 15&#45;&gt;27 -->
<g id="edge30" class="edge"><title>15&#45;&gt;27</title>
<path fill="none" stroke="black" d="M1247.18,-164.433C1339.97,-169.212 1620,-186.025 1646.5,-216 1703.1,-280.025 1614.86,-379.33 1567.44,-424.79"/>
<polygon fill="black" stroke="black" points="1559.93,-431.866 1564.12,-421.732 1563.57,-428.436 1567.21,-425.007 1567.21,-425.007 1567.21,-425.007 1563.57,-428.436 1570.3,-428.282 1559.93,-431.866 1559.93,-431.866"/>
</g>
<!-- 28 -->
<g id="node29" class="node"><title>28</title>
<polygon fill="none" stroke="black" points="1468,-396 1367,-396 1367,-360 1468,-360 1468,-396"/>
<text text-anchor="middle" x="1417.5" y="-374.3" font-family="Times,serif" font-size="14.00">Policies.MOSS</text>
</g>
<!-- 15&#45;&gt;28 -->
<g id="edge31" class="edge"><title>15&#45;&gt;28</title>
<path fill="none" stroke="black" d="M1245.66,-180.221C1298.26,-212.509 1406.58,-279.653 1411.5,-288 1422.42,-306.51 1423.26,-331.104 1421.75,-349.747"/>
<polygon fill="black" stroke="black" points="1420.64,-359.945 1417.24,-349.517 1421.18,-354.974 1421.72,-350.003 1421.72,-350.003 1421.72,-350.003 1421.18,-354.974 1426.19,-350.489 1420.64,-359.945 1420.64,-359.945"/>
</g>
<!-- 29 -->
<g id="node30" class="node"><title>29</title>
<polygon fill="none" stroke="black" points="1916,-468 1779,-468 1779,-432 1916,-432 1916,-468"/>
<text text-anchor="middle" x="1847.5" y="-446.3" font-family="Times,serif" font-size="14.00">Policies.MusicalChair</text>
</g>
<!-- 15&#45;&gt;29 -->
<g id="edge32" class="edge"><title>15&#45;&gt;29</title>
<path fill="none" stroke="black" d="M1247.03,-163.82C1340.66,-166.781 1629.67,-178.788 1714.5,-216 1736.71,-225.742 1735.54,-238.233 1755.5,-252 1783.65,-271.414 1803.74,-260.088 1823.5,-288 1851.71,-327.859 1852.77,-387.264 1850.48,-421.667"/>
<polygon fill="black" stroke="black" points="1849.65,-431.901 1845.98,-421.57 1850.06,-426.918 1850.46,-421.934 1850.46,-421.934 1850.46,-421.934 1850.06,-426.918 1854.95,-422.299 1849.65,-431.901 1849.65,-431.901"/>
</g>
<!-- 31 -->
<g id="node32" class="node"><title>31</title>
<polygon fill="none" stroke="black" points="1981.5,-396 1871.5,-396 1871.5,-360 1981.5,-360 1981.5,-396"/>
<text text-anchor="middle" x="1926.5" y="-374.3" font-family="Times,serif" font-size="14.00">Policies.Softmax</text>
</g>
<!-- 15&#45;&gt;31 -->
<g id="edge33" class="edge"><title>15&#45;&gt;31</title>
<path fill="none" stroke="black" d="M1247.32,-163.637C1346.23,-166.103 1662.48,-176.932 1755.5,-216 1778.48,-225.651 1778.25,-237.468 1798.5,-252 1823.46,-269.909 1834.6,-267.524 1857.5,-288 1878.39,-306.676 1897.51,-332.331 1910.3,-351.301"/>
<polygon fill="black" stroke="black" points="1915.88,-359.756 1906.62,-353.89 1913.13,-355.583 1910.37,-351.41 1910.37,-351.41 1910.37,-351.41 1913.13,-355.583 1914.13,-348.931 1915.88,-359.756 1915.88,-359.756"/>
</g>
<!-- 32 -->
<g id="node33" class="node"><title>32</title>
<polygon fill="none" stroke="black" points="2197.5,-324 2051.5,-324 2051.5,-288 2197.5,-288 2197.5,-324"/>
<text text-anchor="middle" x="2124.5" y="-302.3" font-family="Times,serif" font-size="14.00">Policies.TakeFixedArm</text>
</g>
<!-- 15&#45;&gt;32 -->
<g id="edge34" class="edge"><title>15&#45;&gt;32</title>
<path fill="none" stroke="black" d="M1247.1,-162.934C1371.66,-162.975 1853.47,-166.4 1995.5,-216 2000.94,-217.9 2055.68,-256.264 2092.08,-281.997"/>
<polygon fill="black" stroke="black" points="2100.45,-287.917 2089.68,-285.814 2096.37,-285.029 2092.28,-282.141 2092.28,-282.141 2092.28,-282.141 2096.37,-285.029 2094.88,-278.468 2100.45,-287.917 2100.45,-287.917"/>
</g>
<!-- 33 -->
<g id="node34" class="node"><title>33</title>
<polygon fill="none" stroke="black" points="2253,-252 2060,-252 2060,-216 2253,-216 2253,-252"/>
<text text-anchor="middle" x="2156.5" y="-230.3" font-family="Times,serif" font-size="14.00">Policies.TakeRandomFixedArm</text>
</g>
<!-- 15&#45;&gt;33 -->
<g id="edge35" class="edge"><title>15&#45;&gt;33</title>
<path fill="none" stroke="black" d="M1247.29,-163.958C1355.01,-167.624 1734.39,-182.285 2045.5,-216 2046.81,-216.142 2048.12,-216.288 2049.45,-216.438"/>
<polygon fill="black" stroke="black" points="2059.7,-217.662 2049.24,-220.945 2054.74,-217.07 2049.78,-216.477 2049.78,-216.477 2049.78,-216.477 2054.74,-217.07 2050.31,-212.009 2059.7,-217.662 2059.7,-217.662"/>
</g>
<!-- 34 -->
<g id="node35" class="node"><title>34</title>
<polygon fill="none" stroke="black" points="1637.5,-252 1515.5,-252 1515.5,-216 1637.5,-216 1637.5,-252"/>
<text text-anchor="middle" x="1576.5" y="-230.3" font-family="Times,serif" font-size="14.00">Policies.Thompson</text>
</g>
<!-- 15&#45;&gt;34 -->
<g id="edge36" class="edge"><title>15&#45;&gt;34</title>
<path fill="none" stroke="black" d="M1247.15,-167.865C1297.93,-176.32 1405.01,-194.686 1505.45,-215.838"/>
<polygon fill="black" stroke="black" points="1515.46,-217.96 1504.75,-220.289 1510.57,-216.923 1505.68,-215.886 1505.68,-215.886 1505.68,-215.886 1510.57,-216.923 1506.61,-211.484 1515.46,-217.96 1515.46,-217.96"/>
</g>
<!-- 35 -->
<g id="node36" class="node"><title>35</title>
<polygon fill="none" stroke="black" points="1131,-396 1040,-396 1040,-360 1131,-360 1131,-396"/>
<text text-anchor="middle" x="1085.5" y="-374.3" font-family="Times,serif" font-size="14.00">Policies.UCB</text>
</g>
<!-- 15&#45;&gt;35 -->
<g id="edge37" class="edge"><title>15&#45;&gt;35</title>
<path fill="none" stroke="black" d="M1187.84,-162.305C1117,-162.52 940.566,-174.714 896.5,-288 890.7,-302.912 886.834,-311.25 896.5,-324 900.679,-329.512 975.609,-349.358 1029.85,-363.135"/>
<polygon fill="black" stroke="black" points="1039.71,-365.631 1028.91,-367.54 1034.86,-364.405 1030.02,-363.178 1030.02,-363.178 1030.02,-363.178 1034.86,-364.405 1031.12,-358.815 1039.71,-365.631 1039.71,-365.631"/>
</g>
<!-- 36 -->
<g id="node37" class="node"><title>36</title>
<polygon fill="none" stroke="black" points="1007,-324 906,-324 906,-288 1007,-288 1007,-324"/>
<text text-anchor="middle" x="956.5" y="-302.3" font-family="Times,serif" font-size="14.00">Policies.UCBV</text>
</g>
<!-- 15&#45;&gt;36 -->
<g id="edge38" class="edge"><title>15&#45;&gt;36</title>
<path fill="none" stroke="black" d="M1187.92,-166.253C1132.72,-172.882 1016.94,-189.599 987.5,-216 969.947,-231.742 962.333,-257.961 959.03,-277.875"/>
<polygon fill="black" stroke="black" points="957.634,-287.904 954.556,-277.379 958.323,-282.951 959.013,-277.999 959.013,-277.999 959.013,-277.999 958.323,-282.951 963.47,-278.62 957.634,-287.904 957.634,-287.904"/>
</g>
<!-- 37 -->
<g id="node38" class="node"><title>37</title>
<polygon fill="none" stroke="black" points="1145.5,-324 1025.5,-324 1025.5,-288 1145.5,-288 1145.5,-324"/>
<text text-anchor="middle" x="1085.5" y="-302.3" font-family="Times,serif" font-size="14.00">Policies.UCBalpha</text>
</g>
<!-- 15&#45;&gt;37 -->
<g id="edge39" class="edge"><title>15&#45;&gt;37</title>
<path fill="none" stroke="black" d="M1201.58,-180.129C1178.39,-205.076 1135.19,-251.55 1108.53,-280.227"/>
<polygon fill="black" stroke="black" points="1101.48,-287.811 1104.99,-277.423 1104.88,-284.149 1108.29,-280.486 1108.29,-280.486 1108.29,-280.486 1104.88,-284.149 1111.58,-283.55 1101.48,-287.811 1101.48,-287.811"/>
</g>
<!-- 38 -->
<g id="node39" class="node"><title>38</title>
<polygon fill="none" stroke="black" points="1271.5,-324 1163.5,-324 1163.5,-288 1271.5,-288 1271.5,-324"/>
<text text-anchor="middle" x="1217.5" y="-302.3" font-family="Times,serif" font-size="14.00">Policies.UCBopt</text>
</g>
<!-- 15&#45;&gt;38 -->
<g id="edge40" class="edge"><title>15&#45;&gt;38</title>
<path fill="none" stroke="black" d="M1217.5,-180.129C1217.5,-204.33 1217.5,-248.789 1217.5,-277.607"/>
<polygon fill="black" stroke="black" points="1217.5,-287.811 1213,-277.811 1217.5,-282.811 1217.5,-277.811 1217.5,-277.811 1217.5,-277.811 1217.5,-282.811 1222,-277.811 1217.5,-287.811 1217.5,-287.811"/>
</g>
<!-- 39 -->
<g id="node40" class="node"><title>39</title>
<polygon fill="none" stroke="black" points="1403,-324 1290,-324 1290,-288 1403,-288 1403,-324"/>
<text text-anchor="middle" x="1346.5" y="-302.3" font-family="Times,serif" font-size="14.00">Policies.UCBplus</text>
</g>
<!-- 15&#45;&gt;39 -->
<g id="edge41" class="edge"><title>15&#45;&gt;39</title>
<path fill="none" stroke="black" d="M1233.06,-180.129C1255.72,-205.076 1297.94,-251.55 1324,-280.227"/>
<polygon fill="black" stroke="black" points="1330.88,-287.811 1320.83,-283.435 1327.52,-284.11 1324.16,-280.409 1324.16,-280.409 1324.16,-280.409 1327.52,-284.11 1327.49,-277.383 1330.88,-287.811 1330.88,-287.811"/>
</g>
<!-- 40 -->
<g id="node41" class="node"><title>40</title>
<polygon fill="none" stroke="black" points="849.5,-324 697.5,-324 697.5,-288 849.5,-288 849.5,-324"/>
<text text-anchor="middle" x="773.5" y="-302.3" font-family="Times,serif" font-size="14.00">Policies.UCBrandomInit</text>
</g>
<!-- 15&#45;&gt;40 -->
<g id="edge42" class="edge"><title>15&#45;&gt;40</title>
<path fill="none" stroke="black" d="M1187.73,-165.077C1113.2,-170.651 920.456,-187.482 863.5,-216 833.969,-230.787 808.092,-258.886 791.757,-279.571"/>
<polygon fill="black" stroke="black" points="785.565,-287.644 788.08,-276.971 788.608,-283.677 791.651,-279.71 791.651,-279.71 791.651,-279.71 788.608,-283.677 795.222,-282.449 785.565,-287.644 785.565,-287.644"/>
</g>
<!-- 41 -->
<g id="node42" class="node"><title>41</title>
<polygon fill="none" stroke="black" points="1118,-252 997,-252 997,-216 1118,-216 1118,-252"/>
<text text-anchor="middle" x="1057.5" y="-230.3" font-family="Times,serif" font-size="14.00">Policies.UCBtuned</text>
</g>
<!-- 15&#45;&gt;41 -->
<g id="edge43" class="edge"><title>15&#45;&gt;41</title>
<path fill="none" stroke="black" d="M1187.78,-176.002C1164.74,-186.082 1132.34,-200.256 1105.62,-211.947"/>
<polygon fill="black" stroke="black" points="1096.43,-215.968 1103.79,-207.837 1101.01,-213.964 1105.59,-211.96 1105.59,-211.96 1105.59,-211.96 1101.01,-213.964 1107.4,-216.082 1096.43,-215.968 1096.43,-215.968"/>
</g>
<!-- 42 -->
<g id="node43" class="node"><title>42</title>
<polygon fill="none" stroke="black" points="2033.5,-324 1923.5,-324 1923.5,-288 2033.5,-288 2033.5,-324"/>
<text text-anchor="middle" x="1978.5" y="-302.3" font-family="Times,serif" font-size="14.00">Policies.Uniform</text>
</g>
<!-- 15&#45;&gt;42 -->
<g id="edge44" class="edge"><title>15&#45;&gt;42</title>
<path fill="none" stroke="black" d="M1247.16,-162.804C1380.84,-162.216 1922.93,-163.125 1974.5,-216 1990.06,-231.956 1989.37,-258.149 1985.8,-277.998"/>
<polygon fill="black" stroke="black" points="1983.66,-287.989 1981.35,-277.271 1984.71,-283.099 1985.75,-278.209 1985.75,-278.209 1985.75,-278.209 1984.71,-283.099 1990.15,-279.148 1983.66,-287.989 1983.66,-287.989"/>
</g>
<!-- 43 -->
<g id="node44" class="node"><title>43</title>
<polygon fill="none" stroke="black" points="1965.5,-252 1807.5,-252 1807.5,-216 1965.5,-216 1965.5,-252"/>
<text text-anchor="middle" x="1886.5" y="-230.3" font-family="Times,serif" font-size="14.00">Policies.UniformOnSome</text>
</g>
<!-- 15&#45;&gt;43 -->
<g id="edge45" class="edge"><title>15&#45;&gt;43</title>
<path fill="none" stroke="black" d="M1247.28,-164.801C1332.63,-170.163 1585.31,-187.452 1793.5,-216 1794.78,-216.176 1796.07,-216.356 1797.37,-216.542"/>
<polygon fill="black" stroke="black" points="1807.43,-218.051 1796.87,-221.018 1802.48,-217.31 1797.54,-216.568 1797.54,-216.568 1797.54,-216.568 1802.48,-217.31 1798.21,-212.118 1807.43,-218.051 1807.43,-218.051"/>
</g>
<!-- 44 -->
<g id="node45" class="node"><title>44</title>
<polygon fill="none" stroke="black" points="490,-324 389,-324 389,-288 490,-288 490,-324"/>
<text text-anchor="middle" x="439.5" y="-302.3" font-family="Times,serif" font-size="14.00">Policies.klUCB</text>
</g>
<!-- 15&#45;&gt;44 -->
<g id="edge46" class="edge"><title>15&#45;&gt;44</title>
<path fill="none" stroke="black" d="M1187.73,-162.65C1071.83,-161.689 651.318,-162.066 531.5,-216 529.39,-216.95 491.082,-254.338 464.571,-280.347"/>
<polygon fill="black" stroke="black" points="457.111,-287.671 461.094,-277.454 460.679,-284.168 464.247,-280.665 464.247,-280.665 464.247,-280.665 460.679,-284.168 467.399,-283.876 457.111,-287.671 457.111,-287.671"/>
</g>
<!-- 45 -->
<g id="node46" class="node"><title>45</title>
<polygon fill="none" stroke="black" points="484.5,-252 350.5,-252 350.5,-216 484.5,-216 484.5,-252"/>
<text text-anchor="middle" x="417.5" y="-230.3" font-family="Times,serif" font-size="14.00">Policies.klUCBHPlus</text>
</g>
<!-- 15&#45;&gt;45 -->
<g id="edge47" class="edge"><title>15&#45;&gt;45</title>
<path fill="none" stroke="black" d="M1187.9,-163.768C1089.47,-166.625 764.344,-178.475 498.5,-216 497.219,-216.181 495.929,-216.37 494.631,-216.566"/>
<polygon fill="black" stroke="black" points="484.562,-218.207 493.708,-212.157 489.497,-217.403 494.432,-216.599 494.432,-216.599 494.432,-216.599 489.497,-217.403 495.156,-221.04 484.562,-218.207 484.562,-218.207"/>
</g>
<!-- 46 -->
<g id="node47" class="node"><title>46</title>
<polygon fill="none" stroke="black" points="666,-252 541,-252 541,-216 666,-216 666,-252"/>
<text text-anchor="middle" x="603.5" y="-230.3" font-family="Times,serif" font-size="14.00">Policies.klUCBPlus</text>
</g>
<!-- 15&#45;&gt;46 -->
<g id="edge48" class="edge"><title>15&#45;&gt;46</title>
<path fill="none" stroke="black" d="M1187.95,-164.678C1106.6,-169.564 872.705,-185.409 680.5,-216 679.207,-216.206 677.903,-216.42 676.592,-216.641"/>
<polygon fill="black" stroke="black" points="666.416,-218.47 675.462,-212.272 671.337,-217.586 676.258,-216.701 676.258,-216.701 676.258,-216.701 671.337,-217.586 677.054,-221.13 666.416,-218.47 666.416,-218.47"/>
</g>
<!-- 18 -->
<g id="node19" class="node"><title>18</title>
<polygon fill="none" stroke="black" points="1602.5,-540 1478.5,-540 1478.5,-504 1602.5,-504 1602.5,-540"/>
<text text-anchor="middle" x="1540.5" y="-518.3" font-family="Times,serif" font-size="14.00">Policies.BasePolicy</text>
</g>
<!-- 16&#45;&gt;18 -->
<g id="edge49" class="edge"><title>16&#45;&gt;18</title>
<path fill="none" stroke="black" d="M1757.54,-324.016C1762.28,-356.345 1767.47,-427.067 1731.5,-468 1715.59,-486.099 1659.93,-500.257 1612.78,-509.369"/>
<polygon fill="black" stroke="black" points="1602.86,-511.236 1611.85,-504.963 1607.77,-510.311 1612.69,-509.385 1612.69,-509.385 1612.69,-509.385 1607.77,-510.311 1613.52,-513.808 1602.86,-511.236 1602.86,-511.236"/>
</g>
<!-- 21 -->
<g id="node22" class="node"><title>21</title>
<polygon fill="none" stroke="black" points="1722.5,-396 1634.5,-396 1634.5,-360 1722.5,-360 1722.5,-396"/>
<text text-anchor="middle" x="1678.5" y="-374.3" font-family="Times,serif" font-size="14.00">Policies.Beta</text>
</g>
<!-- 16&#45;&gt;21 -->
<g id="edge50" class="edge"><title>16&#45;&gt;21</title>
<path fill="none" stroke="black" d="M1735.71,-324.303C1726.33,-332.95 1714.82,-343.551 1704.59,-352.973"/>
<polygon fill="black" stroke="black" points="1697.07,-359.896 1701.38,-349.811 1700.75,-356.508 1704.43,-353.121 1704.43,-353.121 1704.43,-353.121 1700.75,-356.508 1707.47,-356.431 1697.07,-359.896 1697.07,-359.896"/>
</g>
<!-- 17&#45;&gt;18 -->
<g id="edge51" class="edge"><title>17&#45;&gt;18</title>
<path fill="none" stroke="black" d="M322.233,-453.533C511.724,-464.027 1236.16,-504.146 1468.4,-517.007"/>
<polygon fill="black" stroke="black" points="1478.43,-517.563 1468.2,-521.503 1473.44,-517.286 1468.45,-517.01 1468.45,-517.01 1468.45,-517.01 1473.44,-517.286 1468.69,-512.516 1478.43,-517.563 1478.43,-517.563"/>
</g>
<!-- 20 -->
<g id="node21" class="node"><title>20</title>
<polygon fill="none" stroke="black" points="1637.5,-324 1459.5,-324 1459.5,-288 1637.5,-288 1637.5,-324"/>
<text text-anchor="middle" x="1548.5" y="-302.3" font-family="Times,serif" font-size="14.00">Policies.BayesianIndexPolicy</text>
</g>
<!-- 19&#45;&gt;20 -->
<g id="edge52" class="edge"><title>19&#45;&gt;20</title>
<path fill="none" stroke="black" d="M1463.14,-252.124C1477.92,-261.276 1496.29,-272.658 1512.2,-282.515"/>
<polygon fill="black" stroke="black" points="1520.75,-287.81 1509.88,-286.37 1516.5,-285.177 1512.25,-282.544 1512.25,-282.544 1512.25,-282.544 1516.5,-285.177 1514.62,-278.719 1520.75,-287.81 1520.75,-287.81"/>
</g>
<!-- 20&#45;&gt;21 -->
<g id="edge53" class="edge"><title>20&#45;&gt;21</title>
<path fill="none" stroke="black" d="M1580.3,-324.124C1597.61,-333.446 1619.22,-345.081 1637.76,-355.061"/>
<polygon fill="black" stroke="black" points="1646.58,-359.81 1635.64,-359.031 1642.17,-357.44 1637.77,-355.069 1637.77,-355.069 1637.77,-355.069 1642.17,-357.44 1639.9,-351.107 1646.58,-359.81 1646.58,-359.81"/>
</g>
<!-- 25 -->
<g id="node26" class="node"><title>25</title>
<polygon fill="none" stroke="black" points="1445.5,-468 1317.5,-468 1317.5,-432 1445.5,-432 1445.5,-468"/>
<text text-anchor="middle" x="1381.5" y="-446.3" font-family="Times,serif" font-size="14.00">Policies.IndexPolicy</text>
</g>
<!-- 20&#45;&gt;25 -->
<g id="edge54" class="edge"><title>20&#45;&gt;25</title>
<path fill="none" stroke="black" d="M1537.65,-324.041C1524.79,-343.263 1501.89,-374.625 1476.5,-396 1462.25,-407.998 1444.88,-418.618 1428.9,-427.142"/>
<polygon fill="black" stroke="black" points="1419.69,-431.913 1426.5,-423.317 1424.13,-429.613 1428.57,-427.313 1428.57,-427.313 1428.57,-427.313 1424.13,-429.613 1430.64,-431.308 1419.69,-431.913 1419.69,-431.913"/>
</g>
<!-- 30 -->
<g id="node31" class="node"><title>30</title>
<polygon fill="none" stroke="black" points="1722.5,-468 1610.5,-468 1610.5,-432 1722.5,-432 1722.5,-468"/>
<text text-anchor="middle" x="1666.5" y="-446.3" font-family="Times,serif" font-size="14.00">Policies.Posterior</text>
</g>
<!-- 21&#45;&gt;30 -->
<g id="edge55" class="edge"><title>21&#45;&gt;30</title>
<path fill="none" stroke="black" d="M1675.53,-396.303C1674.21,-404.017 1672.62,-413.288 1671.15,-421.888"/>
<polygon fill="black" stroke="black" points="1669.43,-431.896 1666.69,-421.279 1670.28,-426.968 1671.12,-422.039 1671.12,-422.039 1671.12,-422.039 1670.28,-426.968 1675.56,-422.8 1669.43,-431.896 1669.43,-431.896"/>
</g>
<!-- 22&#45;&gt;18 -->
<g id="edge56" class="edge"><title>22&#45;&gt;18</title>
<path fill="none" stroke="black" d="M440.019,-393.667C444.916,-394.473 449.771,-395.257 454.5,-396 684.12,-432.068 741.615,-441.196 972.5,-468 1150.24,-488.635 1360.01,-506.542 1468.07,-515.294"/>
<polygon fill="black" stroke="black" points="1478.21,-516.112 1467.88,-519.793 1473.22,-515.71 1468.24,-515.307 1468.24,-515.307 1468.24,-515.307 1473.22,-515.71 1468.6,-510.822 1478.21,-516.112 1478.21,-516.112"/>
</g>
<!-- 23&#45;&gt;18 -->
<g id="edge57" class="edge"><title>23&#45;&gt;18</title>
<path fill="none" stroke="black" d="M1111.08,-460.151C1203.28,-473.216 1372.09,-497.136 1468.3,-510.77"/>
<polygon fill="black" stroke="black" points="1478.24,-512.178 1467.71,-515.23 1473.29,-511.476 1468.34,-510.775 1468.34,-510.775 1468.34,-510.775 1473.29,-511.476 1468.97,-506.319 1478.24,-512.178 1478.24,-512.178"/>
</g>
<!-- 24&#45;&gt;18 -->
<g id="edge58" class="edge"><title>24&#45;&gt;18</title>
<path fill="none" stroke="black" d="M999.807,-396.001C1076.42,-413.99 1200.95,-443.154 1308.5,-468 1362.13,-480.39 1422.77,-494.238 1468.6,-504.671"/>
<polygon fill="black" stroke="black" points="1478.45,-506.91 1467.7,-509.079 1473.57,-505.801 1468.69,-504.691 1468.69,-504.691 1468.69,-504.691 1473.57,-505.801 1469.69,-500.303 1478.45,-506.91 1478.45,-506.91"/>
</g>
<!-- 25&#45;&gt;18 -->
<g id="edge59" class="edge"><title>25&#45;&gt;18</title>
<path fill="none" stroke="black" d="M1420.4,-468.124C1442.13,-477.693 1469.4,-489.7 1492.46,-499.852"/>
<polygon fill="black" stroke="black" points="1501.73,-503.932 1490.77,-504.021 1497.15,-501.917 1492.58,-499.902 1492.58,-499.902 1492.58,-499.902 1497.15,-501.917 1494.39,-495.784 1501.73,-503.932 1501.73,-503.932"/>
</g>
<!-- 26 -->
<g id="node27" class="node"><title>26</title>
<polygon fill="none" stroke="black" points="641,-324 508,-324 508,-288 641,-288 641,-324"/>
<text text-anchor="middle" x="574.5" y="-302.3" font-family="Times,serif" font-size="14.00">Policies.KLempUCB</text>
</g>
<!-- 26&#45;&gt;25 -->
<g id="edge60" class="edge"><title>26&#45;&gt;25</title>
<path fill="none" stroke="black" d="M626.665,-324.065C658.417,-334.452 699.797,-347.99 736.5,-360 785.39,-375.998 796.163,-385.402 846.5,-396 932.45,-414.096 1181.19,-434.231 1306.9,-443.626"/>
<polygon fill="black" stroke="black" points="1317.21,-444.392 1306.9,-448.138 1312.22,-444.021 1307.23,-443.65 1307.23,-443.65 1307.23,-443.65 1312.22,-444.021 1307.57,-439.163 1317.21,-444.392 1317.21,-444.392"/>
</g>
<!-- 47 -->
<g id="node48" class="node"><title>47</title>
<polygon fill="none" stroke="black" points="606.5,-396 496.5,-396 496.5,-360 606.5,-360 606.5,-396"/>
<text text-anchor="middle" x="551.5" y="-374.3" font-family="Times,serif" font-size="14.00">Policies.kullback</text>
</g>
<!-- 26&#45;&gt;47 -->
<g id="edge61" class="edge"><title>26&#45;&gt;47</title>
<path fill="none" stroke="black" d="M568.815,-324.303C566.252,-332.102 563.167,-341.491 560.315,-350.171"/>
<polygon fill="black" stroke="black" points="557.12,-359.896 555.966,-348.991 558.681,-355.146 560.242,-350.395 560.242,-350.395 560.242,-350.395 558.681,-355.146 564.517,-351.8 557.12,-359.896 557.12,-359.896"/>
</g>
<!-- 27&#45;&gt;18 -->
<g id="edge62" class="edge"><title>27&#45;&gt;18</title>
<path fill="none" stroke="black" d="M1540.5,-468.303C1540.5,-476.017 1540.5,-485.288 1540.5,-493.888"/>
<polygon fill="black" stroke="black" points="1540.5,-503.896 1536,-493.896 1540.5,-498.896 1540.5,-493.896 1540.5,-493.896 1540.5,-493.896 1540.5,-498.896 1545,-493.896 1540.5,-503.896 1540.5,-503.896"/>
</g>
<!-- 28&#45;&gt;25 -->
<g id="edge63" class="edge"><title>28&#45;&gt;25</title>
<path fill="none" stroke="black" d="M1408.6,-396.303C1404.5,-404.272 1399.55,-413.9 1395.01,-422.736"/>
<polygon fill="black" stroke="black" points="1390.3,-431.896 1390.87,-420.945 1392.58,-427.449 1394.87,-423.003 1394.87,-423.003 1394.87,-423.003 1392.58,-427.449 1398.87,-425.061 1390.3,-431.896 1390.3,-431.896"/>
</g>
<!-- 29&#45;&gt;18 -->
<g id="edge64" class="edge"><title>29&#45;&gt;18</title>
<path fill="none" stroke="black" d="M1778.99,-466.622C1729.45,-477.917 1662.67,-493.144 1612.38,-504.611"/>
<polygon fill="black" stroke="black" points="1602.55,-506.852 1611.3,-500.242 1607.42,-505.741 1612.3,-504.629 1612.3,-504.629 1612.3,-504.629 1607.42,-505.741 1613.3,-509.017 1602.55,-506.852 1602.55,-506.852"/>
</g>
<!-- 31&#45;&gt;18 -->
<g id="edge65" class="edge"><title>31&#45;&gt;18</title>
<path fill="none" stroke="black" d="M1931.99,-396.095C1937.18,-415.961 1941.88,-448.503 1924.5,-468 1884.4,-512.987 1712.46,-520.968 1612.78,-521.704"/>
<polygon fill="black" stroke="black" points="1602.77,-521.755 1612.75,-517.204 1607.77,-521.73 1612.77,-521.704 1612.77,-521.704 1612.77,-521.704 1607.77,-521.73 1612.8,-526.204 1602.77,-521.755 1602.77,-521.755"/>
</g>
<!-- 32&#45;&gt;18 -->
<g id="edge66" class="edge"><title>32&#45;&gt;18</title>
<path fill="none" stroke="black" d="M2114.67,-324.047C2094.02,-358.086 2042.53,-434.106 1976.5,-468 1914.64,-499.749 1719.66,-513.16 1612.61,-518.248"/>
<polygon fill="black" stroke="black" points="1602.53,-518.715 1612.31,-513.757 1607.53,-518.483 1612.52,-518.252 1612.52,-518.252 1612.52,-518.252 1607.53,-518.483 1612.73,-522.747 1602.53,-518.715 1602.53,-518.715"/>
</g>
<!-- 33&#45;&gt;32 -->
<g id="edge67" class="edge"><title>33&#45;&gt;32</title>
<path fill="none" stroke="black" d="M2148.59,-252.303C2144.95,-260.272 2140.55,-269.9 2136.51,-278.736"/>
<polygon fill="black" stroke="black" points="2132.32,-287.896 2132.38,-276.93 2134.4,-283.348 2136.48,-278.801 2136.48,-278.801 2136.48,-278.801 2134.4,-283.348 2140.57,-280.672 2132.32,-287.896 2132.32,-287.896"/>
</g>
<!-- 34&#45;&gt;20 -->
<g id="edge68" class="edge"><title>34&#45;&gt;20</title>
<path fill="none" stroke="black" d="M1569.58,-252.303C1566.43,-260.187 1562.62,-269.696 1559.12,-278.454"/>
<polygon fill="black" stroke="black" points="1555.34,-287.896 1554.88,-276.94 1557.2,-283.253 1559.06,-278.611 1559.06,-278.611 1559.06,-278.611 1557.2,-283.253 1563.23,-280.282 1555.34,-287.896 1555.34,-287.896"/>
</g>
<!-- 35&#45;&gt;25 -->
<g id="edge69" class="edge"><title>35&#45;&gt;25</title>
<path fill="none" stroke="black" d="M1131.1,-389.784C1178.14,-400.909 1252.26,-418.436 1307.67,-431.54"/>
<polygon fill="black" stroke="black" points="1317.44,-433.85 1306.67,-435.928 1312.57,-432.699 1307.71,-431.548 1307.71,-431.548 1307.71,-431.548 1312.57,-432.699 1308.74,-427.169 1317.44,-433.85 1317.44,-433.85"/>
</g>
<!-- 36&#45;&gt;35 -->
<g id="edge70" class="edge"><title>36&#45;&gt;35</title>
<path fill="none" stroke="black" d="M988.057,-324.124C1005.16,-333.404 1026.48,-344.975 1044.82,-354.925"/>
<polygon fill="black" stroke="black" points="1053.82,-359.81 1042.89,-358.996 1049.43,-357.426 1045.03,-355.041 1045.03,-355.041 1045.03,-355.041 1049.43,-357.426 1047.18,-351.086 1053.82,-359.81 1053.82,-359.81"/>
</g>
<!-- 37&#45;&gt;35 -->
<g id="edge71" class="edge"><title>37&#45;&gt;35</title>
<path fill="none" stroke="black" d="M1085.5,-324.303C1085.5,-332.017 1085.5,-341.288 1085.5,-349.888"/>
<polygon fill="black" stroke="black" points="1085.5,-359.896 1081,-349.896 1085.5,-354.896 1085.5,-349.896 1085.5,-349.896 1085.5,-349.896 1085.5,-354.896 1090,-349.896 1085.5,-359.896 1085.5,-359.896"/>
</g>
<!-- 38&#45;&gt;35 -->
<g id="edge72" class="edge"><title>38&#45;&gt;35</title>
<path fill="none" stroke="black" d="M1185.21,-324.124C1167.63,-333.446 1145.69,-345.081 1126.87,-355.061"/>
<polygon fill="black" stroke="black" points="1117.91,-359.81 1124.64,-351.15 1122.33,-357.468 1126.75,-355.125 1126.75,-355.125 1126.75,-355.125 1122.33,-357.468 1128.86,-359.101 1117.91,-359.81 1117.91,-359.81"/>
</g>
<!-- 39&#45;&gt;35 -->
<g id="edge73" class="edge"><title>39&#45;&gt;35</title>
<path fill="none" stroke="black" d="M1289.87,-322.189C1245.77,-334.014 1184.91,-350.339 1141.08,-362.092"/>
<polygon fill="black" stroke="black" points="1131.17,-364.751 1139.66,-357.814 1136,-363.456 1140.83,-362.161 1140.83,-362.161 1140.83,-362.161 1136,-363.456 1141.99,-366.507 1131.17,-364.751 1131.17,-364.751"/>
</g>
<!-- 40&#45;&gt;35 -->
<g id="edge74" class="edge"><title>40&#45;&gt;35</title>
<path fill="none" stroke="black" d="M849.425,-324.034C905.113,-336.528 979.478,-353.213 1029.75,-364.492"/>
<polygon fill="black" stroke="black" points="1039.78,-366.743 1029.04,-368.944 1034.9,-365.648 1030.02,-364.553 1030.02,-364.553 1030.02,-364.553 1034.9,-365.648 1031.01,-360.163 1039.78,-366.743 1039.78,-366.743"/>
</g>
<!-- 41&#45;&gt;36 -->
<g id="edge75" class="edge"><title>41&#45;&gt;36</title>
<path fill="none" stroke="black" d="M1032.79,-252.124C1019.83,-261.107 1003.77,-272.237 989.735,-281.966"/>
<polygon fill="black" stroke="black" points="981.302,-287.81 986.958,-278.415 985.412,-284.962 989.521,-282.114 989.521,-282.114 989.521,-282.114 985.412,-284.962 992.085,-285.812 981.302,-287.81 981.302,-287.81"/>
</g>
<!-- 42&#45;&gt;18 -->
<g id="edge76" class="edge"><title>42&#45;&gt;18</title>
<path fill="none" stroke="black" d="M1984.87,-324.031C1990.73,-342.169 1997.51,-371.571 1990.5,-396 1980.1,-432.274 1977.25,-447.6 1945.5,-468 1891.93,-502.422 1714.22,-514.631 1612.9,-518.853"/>
<polygon fill="black" stroke="black" points="1602.74,-519.261 1612.55,-514.364 1607.73,-519.06 1612.73,-518.86 1612.73,-518.86 1612.73,-518.86 1607.73,-519.06 1612.91,-523.356 1602.74,-519.261 1602.74,-519.261"/>
</g>
<!-- 43&#45;&gt;42 -->
<g id="edge77" class="edge"><title>43&#45;&gt;42</title>
<path fill="none" stroke="black" d="M1909.24,-252.303C1920.94,-261.204 1935.36,-272.177 1948.01,-281.801"/>
<polygon fill="black" stroke="black" points="1956.02,-287.896 1945.34,-285.422 1952.04,-284.868 1948.06,-281.84 1948.06,-281.84 1948.06,-281.84 1952.04,-284.868 1950.79,-278.259 1956.02,-287.896 1956.02,-287.896"/>
</g>
<!-- 44&#45;&gt;25 -->
<g id="edge78" class="edge"><title>44&#45;&gt;25</title>
<path fill="none" stroke="black" d="M490.241,-322.278C574.253,-347.563 733.388,-395.413 736.5,-396 791.361,-406.356 1149.85,-432.58 1307.41,-443.789"/>
<polygon fill="black" stroke="black" points="1317.49,-444.505 1307.2,-448.285 1312.51,-444.151 1307.52,-443.797 1307.52,-443.797 1307.52,-443.797 1312.51,-444.151 1307.84,-439.308 1317.49,-444.505 1317.49,-444.505"/>
</g>
<!-- 44&#45;&gt;47 -->
<g id="edge79" class="edge"><title>44&#45;&gt;47</title>
<path fill="none" stroke="black" d="M466.898,-324.124C481.407,-333.192 499.416,-344.448 515.085,-354.241"/>
<polygon fill="black" stroke="black" points="523.996,-359.81 513.131,-358.326 519.756,-357.16 515.516,-354.51 515.516,-354.51 515.516,-354.51 519.756,-357.16 517.901,-350.694 523.996,-359.81 523.996,-359.81"/>
</g>
<!-- 45&#45;&gt;44 -->
<g id="edge80" class="edge"><title>45&#45;&gt;44</title>
<path fill="none" stroke="black" d="M422.938,-252.303C425.389,-260.102 428.34,-269.491 431.068,-278.171"/>
<polygon fill="black" stroke="black" points="434.124,-287.896 426.833,-279.705 432.625,-283.126 431.126,-278.356 431.126,-278.356 431.126,-278.356 432.625,-283.126 435.419,-277.006 434.124,-287.896 434.124,-287.896"/>
</g>
<!-- 45&#45;&gt;47 -->
<g id="edge81" class="edge"><title>45&#45;&gt;47</title>
<path fill="none" stroke="black" d="M400.267,-252.288C383.581,-271.172 363.035,-301.698 379.5,-324 386.221,-333.104 440.417,-348.877 486.203,-360.856"/>
<polygon fill="black" stroke="black" points="496.124,-363.427 485.315,-365.274 491.284,-362.172 486.444,-360.918 486.444,-360.918 486.444,-360.918 491.284,-362.172 487.573,-356.562 496.124,-363.427 496.124,-363.427"/>
</g>
<!-- 46&#45;&gt;44 -->
<g id="edge82" class="edge"><title>46&#45;&gt;44</title>
<path fill="none" stroke="black" d="M563.381,-252.124C540.862,-261.736 512.582,-273.807 488.729,-283.987"/>
<polygon fill="black" stroke="black" points="479.489,-287.932 486.919,-279.867 484.087,-285.969 488.686,-284.006 488.686,-284.006 488.686,-284.006 484.087,-285.969 490.452,-288.145 479.489,-287.932 479.489,-287.932"/>
</g>
<!-- 48 -->
<g id="node49" class="node"><title>48</title>
<polygon fill="none" stroke="black" points="3882.5,-180 3752.5,-180 3752.5,-144 3882.5,-144 3882.5,-180"/>
<text text-anchor="middle" x="3817.5" y="-158.3" font-family="Times,serif" font-size="14.00">PoliciesMultiPlayers</text>
</g>
<!-- 49 -->
<g id="node50" class="node"><title>49</title>
<polygon fill="none" stroke="black" points="4457,-252 4276,-252 4276,-216 4457,-216 4457,-252"/>
<text text-anchor="middle" x="4366.5" y="-230.3" font-family="Times,serif" font-size="14.00">PoliciesMultiPlayers.ALOHA</text>
</g>
<!-- 48&#45;&gt;49 -->
<g id="edge83" class="edge"><title>48&#45;&gt;49</title>
<path fill="none" stroke="black" d="M3882.7,-169.644C3968.14,-178.585 4122.88,-195.583 4265.53,-215.902"/>
<polygon fill="black" stroke="black" points="4275.78,-217.371 4265.24,-220.407 4270.83,-216.661 4265.88,-215.952 4265.88,-215.952 4265.88,-215.952 4270.83,-216.661 4266.52,-211.498 4275.78,-217.371 4275.78,-217.371"/>
</g>
<!-- 52 -->
<g id="node53" class="node"><title>52</title>
<polygon fill="none" stroke="black" points="3803.5,-252 3585.5,-252 3585.5,-216 3803.5,-216 3803.5,-252"/>
<text text-anchor="middle" x="3694.5" y="-230.3" font-family="Times,serif" font-size="14.00">PoliciesMultiPlayers.CentralizedFair</text>
</g>
<!-- 48&#45;&gt;52 -->
<g id="edge84" class="edge"><title>48&#45;&gt;52</title>
<path fill="none" stroke="black" d="M3787.41,-180.124C3771.18,-189.361 3750.96,-200.869 3733.53,-210.788"/>
<polygon fill="black" stroke="black" points="3724.7,-215.81 3731.17,-206.953 3729.05,-213.337 3733.4,-210.864 3733.4,-210.864 3733.4,-210.864 3729.05,-213.337 3735.62,-214.775 3724.7,-215.81 3724.7,-215.81"/>
</g>
<!-- 53 -->
<g id="node54" class="node"><title>53</title>
<polygon fill="none" stroke="black" points="4059.5,-252 3821.5,-252 3821.5,-216 4059.5,-216 4059.5,-252"/>
<text text-anchor="middle" x="3940.5" y="-230.3" font-family="Times,serif" font-size="14.00">PoliciesMultiPlayers.CentralizedNotFair</text>
</g>
<!-- 48&#45;&gt;53 -->
<g id="edge85" class="edge"><title>48&#45;&gt;53</title>
<path fill="none" stroke="black" d="M3847.59,-180.124C3863.82,-189.361 3884.04,-200.869 3901.47,-210.788"/>
<polygon fill="black" stroke="black" points="3910.3,-215.81 3899.38,-214.775 3905.95,-213.337 3901.6,-210.864 3901.6,-210.864 3901.6,-210.864 3905.95,-213.337 3903.83,-206.953 3910.3,-215.81 3910.3,-215.81"/>
</g>
<!-- 56 -->
<g id="node57" class="node"><title>56</title>
<polygon fill="none" stroke="black" points="3337,-252 3146,-252 3146,-216 3337,-216 3337,-252"/>
<text text-anchor="middle" x="3241.5" y="-230.3" font-family="Times,serif" font-size="14.00">PoliciesMultiPlayers.OracleFair</text>
</g>
<!-- 48&#45;&gt;56 -->
<g id="edge86" class="edge"><title>48&#45;&gt;56</title>
<path fill="none" stroke="black" d="M3752.23,-169.335C3663.15,-178.206 3498.28,-195.424 3346.98,-215.972"/>
<polygon fill="black" stroke="black" points="3337.04,-217.33 3346.34,-211.518 3341.99,-216.654 3346.95,-215.977 3346.95,-215.977 3346.95,-215.977 3341.99,-216.654 3347.56,-220.436 3337.04,-217.33 3337.04,-217.33"/>
</g>
<!-- 57 -->
<g id="node58" class="node"><title>57</title>
<polygon fill="none" stroke="black" points="3567.5,-252 3355.5,-252 3355.5,-216 3567.5,-216 3567.5,-252"/>
<text text-anchor="middle" x="3461.5" y="-230.3" font-family="Times,serif" font-size="14.00">PoliciesMultiPlayers.OracleNotFair</text>
</g>
<!-- 48&#45;&gt;57 -->
<g id="edge87" class="edge"><title>48&#45;&gt;57</title>
<path fill="none" stroke="black" d="M3752.2,-175.839C3697.92,-186.513 3619.87,-201.859 3558.31,-213.964"/>
<polygon fill="black" stroke="black" points="3548.19,-215.954 3557.14,-209.609 3553.1,-214.989 3558,-214.024 3558,-214.024 3558,-214.024 3553.1,-214.989 3558.87,-218.44 3548.19,-215.954 3548.19,-215.954"/>
</g>
<!-- 58 -->
<g id="node59" class="node"><title>58</title>
<polygon fill="none" stroke="black" points="4646,-252 4475,-252 4475,-216 4646,-216 4646,-252"/>
<text text-anchor="middle" x="4560.5" y="-230.3" font-family="Times,serif" font-size="14.00">PoliciesMultiPlayers.Selfish</text>
</g>
<!-- 48&#45;&gt;58 -->
<g id="edge88" class="edge"><title>48&#45;&gt;58</title>
<path fill="none" stroke="black" d="M3882.66,-166.216C3998.08,-172.373 4246.15,-187.677 4464.93,-215.863"/>
<polygon fill="black" stroke="black" points="4475,-217.172 4464.5,-220.345 4470.04,-216.527 4465.08,-215.883 4465.08,-215.883 4465.08,-215.883 4470.04,-216.527 4465.66,-211.42 4475,-217.172 4475,-217.172"/>
</g>
<!-- 60 -->
<g id="node61" class="node"><title>60</title>
<polygon fill="none" stroke="black" points="4257.5,-252 4077.5,-252 4077.5,-216 4257.5,-216 4257.5,-252"/>
<text text-anchor="middle" x="4167.5" y="-230.3" font-family="Times,serif" font-size="14.00">PoliciesMultiPlayers.rhoRand</text>
</g>
<!-- 48&#45;&gt;60 -->
<g id="edge89" class="edge"><title>48&#45;&gt;60</title>
<path fill="none" stroke="black" d="M3882.51,-176.002C3935.88,-186.677 4012.21,-201.941 4072.44,-213.987"/>
<polygon fill="black" stroke="black" points="4082.34,-215.968 4071.65,-218.419 4077.44,-214.987 4072.53,-214.007 4072.53,-214.007 4072.53,-214.007 4077.44,-214.987 4073.42,-209.594 4082.34,-215.968 4082.34,-215.968"/>
</g>
<!-- 51 -->
<g id="node52" class="node"><title>51</title>
<polygon fill="none" stroke="black" points="3991,-324 3776,-324 3776,-288 3991,-288 3991,-324"/>
<text text-anchor="middle" x="3883.5" y="-302.3" font-family="Times,serif" font-size="14.00">PoliciesMultiPlayers.BaseMPPolicy</text>
</g>
<!-- 49&#45;&gt;51 -->
<g id="edge90" class="edge"><title>49&#45;&gt;51</title>
<path fill="none" stroke="black" d="M4275.77,-250.562C4272.64,-251.054 4269.55,-251.535 4266.5,-252 4151.79,-269.507 4120.34,-271.333 4001.47,-287.875"/>
<polygon fill="black" stroke="black" points="3991.24,-289.306 4000.52,-283.465 3996.19,-288.614 4001.14,-287.921 4001.14,-287.921 4001.14,-287.921 3996.19,-288.614 4001.76,-292.378 3991.24,-289.306 3991.24,-289.306"/>
</g>
<!-- 54 -->
<g id="node55" class="node"><title>54</title>
<polygon fill="none" stroke="black" points="4212,-324 4009,-324 4009,-288 4212,-288 4212,-324"/>
<text text-anchor="middle" x="4110.5" y="-302.3" font-family="Times,serif" font-size="14.00">PoliciesMultiPlayers.ChildPointer</text>
</g>
<!-- 49&#45;&gt;54 -->
<g id="edge91" class="edge"><title>49&#45;&gt;54</title>
<path fill="none" stroke="black" d="M4304.2,-252.034C4267.66,-262.028 4221.31,-274.702 4183.11,-285.146"/>
<polygon fill="black" stroke="black" points="4173.08,-287.889 4181.54,-280.911 4177.9,-286.57 4182.72,-285.252 4182.72,-285.252 4182.72,-285.252 4177.9,-286.57 4183.91,-289.592 4173.08,-287.889 4173.08,-287.889"/>
</g>
<!-- 50 -->
<g id="node51" class="node"><title>50</title>
<polygon fill="none" stroke="black" points="3646,-324 3389,-324 3389,-288 3646,-288 3646,-324"/>
<text text-anchor="middle" x="3517.5" y="-302.3" font-family="Times,serif" font-size="14.00">PoliciesMultiPlayers.BaseCentralizedPolicy</text>
</g>
<!-- 52&#45;&gt;50 -->
<g id="edge92" class="edge"><title>52&#45;&gt;50</title>
<path fill="none" stroke="black" d="M3651.2,-252.124C3626.79,-261.778 3596.1,-273.913 3570.29,-284.122"/>
<polygon fill="black" stroke="black" points="3560.66,-287.932 3568.3,-280.069 3565.31,-286.093 3569.96,-284.254 3569.96,-284.254 3569.96,-284.254 3565.31,-286.093 3571.61,-288.439 3560.66,-287.932 3560.66,-287.932"/>
</g>
<!-- 52&#45;&gt;51 -->
<g id="edge93" class="edge"><title>52&#45;&gt;51</title>
<path fill="none" stroke="black" d="M3740.73,-252.124C3767.03,-261.863 3800.14,-274.128 3827.86,-284.392"/>
<polygon fill="black" stroke="black" points="3837.42,-287.932 3826.48,-288.678 3832.73,-286.195 3828.04,-284.458 3828.04,-284.458 3828.04,-284.458 3832.73,-286.195 3829.6,-280.239 3837.42,-287.932 3837.42,-287.932"/>
</g>
<!-- 52&#45;&gt;54 -->
<g id="edge94" class="edge"><title>52&#45;&gt;54</title>
<path fill="none" stroke="black" d="M3795.73,-252.034C3857.26,-262.387 3935.88,-275.617 3999.16,-286.264"/>
<polygon fill="black" stroke="black" points="4009.17,-287.95 3998.57,-290.728 4004.24,-287.12 3999.31,-286.291 3999.31,-286.291 3999.31,-286.291 4004.24,-287.12 4000.06,-281.853 4009.17,-287.95 4009.17,-287.95"/>
</g>
<!-- 53&#45;&gt;50 -->
<g id="edge95" class="edge"><title>53&#45;&gt;50</title>
<path fill="none" stroke="black" d="M3837.56,-252.034C3775,-262.387 3695.06,-275.617 3630.72,-286.264"/>
<polygon fill="black" stroke="black" points="3620.53,-287.95 3629.66,-281.878 3625.46,-287.134 3630.4,-286.317 3630.4,-286.317 3630.4,-286.317 3625.46,-287.134 3631.13,-290.757 3620.53,-287.95 3620.53,-287.95"/>
</g>
<!-- 53&#45;&gt;51 -->
<g id="edge96" class="edge"><title>53&#45;&gt;51</title>
<path fill="none" stroke="black" d="M3926.41,-252.303C3919.58,-260.695 3911.24,-270.93 3903.74,-280.139"/>
<polygon fill="black" stroke="black" points="3897.43,-287.896 3900.25,-277.3 3900.58,-284.018 3903.74,-280.141 3903.74,-280.141 3903.74,-280.141 3900.58,-284.018 3907.23,-282.983 3897.43,-287.896 3897.43,-287.896"/>
</g>
<!-- 53&#45;&gt;54 -->
<g id="edge97" class="edge"><title>53&#45;&gt;54</title>
<path fill="none" stroke="black" d="M3982.09,-252.124C4005.53,-261.778 4035,-273.913 4059.8,-284.122"/>
<polygon fill="black" stroke="black" points="4069.05,-287.932 4058.09,-288.285 4064.42,-286.028 4059.8,-284.124 4059.8,-284.124 4059.8,-284.124 4064.42,-286.028 4061.51,-279.963 4069.05,-287.932 4069.05,-287.932"/>
</g>
<!-- 55 -->
<g id="node56" class="node"><title>55</title>
<polygon fill="none" stroke="black" points="2769,-36 2604,-36 2604,-0 2769,-0 2769,-36"/>
<text text-anchor="middle" x="2686.5" y="-14.3" font-family="Times,serif" font-size="14.00">PoliciesMultiPlayers.DMC</text>
</g>
<!-- 56&#45;&gt;50 -->
<g id="edge98" class="edge"><title>56&#45;&gt;50</title>
<path fill="none" stroke="black" d="M3308.66,-252.034C3348.4,-262.113 3398.89,-274.918 3440.27,-285.412"/>
<polygon fill="black" stroke="black" points="3450.03,-287.889 3439.24,-289.793 3445.19,-286.66 3440.34,-285.431 3440.34,-285.431 3440.34,-285.431 3445.19,-286.66 3441.45,-281.069 3450.03,-287.889 3450.03,-287.889"/>
</g>
<!-- 56&#45;&gt;51 -->
<g id="edge99" class="edge"><title>56&#45;&gt;51</title>
<path fill="none" stroke="black" d="M3337.03,-250.725C3340.22,-251.168 3343.39,-251.595 3346.5,-252 3490.41,-270.733 3656.79,-286.202 3765.75,-295.498"/>
<polygon fill="black" stroke="black" points="3775.79,-296.35 3765.44,-299.987 3770.8,-295.927 3765.82,-295.504 3765.82,-295.504 3765.82,-295.504 3770.8,-295.927 3766.2,-291.02 3775.79,-296.35 3775.79,-296.35"/>
</g>
<!-- 56&#45;&gt;54 -->
<g id="edge100" class="edge"><title>56&#45;&gt;54</title>
<path fill="none" stroke="black" d="M3337.01,-250.902C3340.21,-251.294 3343.38,-251.662 3346.5,-252 3632.23,-282.92 3708.68,-258.525 3998.95,-288.015"/>
<polygon fill="black" stroke="black" points="4008.93,-289.041 3998.52,-292.494 4003.95,-288.529 3998.98,-288.018 3998.98,-288.018 3998.98,-288.018 4003.95,-288.529 3999.44,-283.541 4008.93,-289.041 4008.93,-289.041"/>
</g>
<!-- 57&#45;&gt;50 -->
<g id="edge101" class="edge"><title>57&#45;&gt;50</title>
<path fill="none" stroke="black" d="M3475.34,-252.303C3481.99,-260.611 3490.08,-270.723 3497.39,-279.859"/>
<polygon fill="black" stroke="black" points="3503.82,-287.896 3494.06,-282.898 3500.69,-283.991 3497.57,-280.087 3497.57,-280.087 3497.57,-280.087 3500.69,-283.991 3501.08,-277.276 3503.82,-287.896 3503.82,-287.896"/>
</g>
<!-- 57&#45;&gt;51 -->
<g id="edge102" class="edge"><title>57&#45;&gt;51</title>
<path fill="none" stroke="black" d="M3564.19,-252.034C3626.6,-262.387 3706.36,-275.617 3770.55,-286.264"/>
<polygon fill="black" stroke="black" points="3780.71,-287.95 3770.11,-290.753 3775.78,-287.132 3770.85,-286.313 3770.85,-286.313 3770.85,-286.313 3775.78,-287.132 3771.58,-281.874 3780.71,-287.95 3780.71,-287.95"/>
</g>
<!-- 57&#45;&gt;54 -->
<g id="edge103" class="edge"><title>57&#45;&gt;54</title>
<path fill="none" stroke="black" d="M3567.67,-250.94C3570.65,-251.307 3573.59,-251.662 3576.5,-252 3760.71,-273.434 3810.45,-265.974 3998.95,-287.987"/>
<polygon fill="black" stroke="black" points="4008.91,-289.163 3998.46,-292.46 4003.95,-288.577 3998.98,-287.991 3998.98,-287.991 3998.98,-287.991 4003.95,-288.577 3999.51,-283.522 4008.91,-289.163 4008.91,-289.163"/>
</g>
<!-- 58&#45;&gt;51 -->
<g id="edge104" class="edge"><title>58&#45;&gt;51</title>
<path fill="none" stroke="black" d="M4474.75,-250.88C4471.97,-251.276 4469.21,-251.651 4466.5,-252 4263.69,-278.104 4208.67,-265.464 4001.2,-287.974"/>
<polygon fill="black" stroke="black" points="3991.21,-289.073 4000.65,-283.507 3996.18,-288.526 4001.15,-287.98 4001.15,-287.98 4001.15,-287.98 3996.18,-288.526 4001.64,-292.453 3991.21,-289.073 3991.21,-289.073"/>
</g>
<!-- 58&#45;&gt;54 -->
<g id="edge105" class="edge"><title>58&#45;&gt;54</title>
<path fill="none" stroke="black" d="M4474.96,-250.586C4472.11,-251.069 4469.28,-251.541 4466.5,-252 4384.96,-265.439 4292.67,-279.137 4222.48,-289.24"/>
<polygon fill="black" stroke="black" points="4212.29,-290.704 4221.55,-284.827 4217.24,-289.993 4222.19,-289.282 4222.19,-289.282 4222.19,-289.282 4217.24,-289.993 4222.83,-293.736 4212.29,-290.704 4212.29,-290.704"/>
</g>
<!-- 59 -->
<g id="node60" class="node"><title>59</title>
<polygon fill="none" stroke="black" points="2954,-36 2787,-36 2787,-0 2954,-0 2954,-36"/>
<text text-anchor="middle" x="2870.5" y="-14.3" font-family="Times,serif" font-size="14.00">PoliciesMultiPlayers.TDFS</text>
</g>
<!-- 60&#45;&gt;51 -->
<g id="edge106" class="edge"><title>60&#45;&gt;51</title>
<path fill="none" stroke="black" d="M4098.39,-252.034C4057.41,-262.134 4005.33,-274.972 3962.7,-285.479"/>
<polygon fill="black" stroke="black" points="3952.92,-287.889 3961.55,-281.127 3957.78,-286.693 3962.63,-285.496 3962.63,-285.496 3962.63,-285.496 3957.78,-286.693 3963.71,-289.865 3952.92,-287.889 3952.92,-287.889"/>
</g>
<!-- 60&#45;&gt;54 -->
<g id="edge107" class="edge"><title>60&#45;&gt;54</title>
<path fill="none" stroke="black" d="M4153.41,-252.303C4146.58,-260.695 4138.24,-270.93 4130.74,-280.139"/>
<polygon fill="black" stroke="black" points="4124.43,-287.896 4127.25,-277.3 4127.58,-284.018 4130.74,-280.141 4130.74,-280.141 4130.74,-280.141 4127.58,-284.018 4134.23,-282.983 4124.43,-287.896 4124.43,-287.896"/>
</g>
<!-- 61 -->
<g id="node62" class="node"><title>61</title>
<polygon fill="none" stroke="black" points="401,-108 312,-108 312,-72 401,-72 401,-108"/>
<text text-anchor="middle" x="356.5" y="-86.3" font-family="Times,serif" font-size="14.00">configuration</text>
</g>
<!-- 61&#45;&gt;2 -->
<g id="edge108" class="edge"><title>61&#45;&gt;2</title>
<path fill="none" stroke="black" d="M371.331,-108.303C378.525,-116.695 387.297,-126.93 395.19,-136.139"/>
<polygon fill="black" stroke="black" points="401.839,-143.896 391.915,-139.232 398.585,-140.099 395.331,-136.303 395.331,-136.303 395.331,-136.303 398.585,-140.099 398.748,-133.375 401.839,-143.896 401.839,-143.896"/>
</g>
<!-- 61&#45;&gt;3 -->
<g id="edge109" class="edge"><title>61&#45;&gt;3</title>
<path fill="none" stroke="black" d="M311.709,-107.767C285.612,-117.536 252.491,-129.934 224.78,-140.307"/>
<polygon fill="black" stroke="black" points="215.225,-143.884 223.013,-136.164 219.907,-142.131 224.59,-140.378 224.59,-140.378 224.59,-140.378 219.907,-142.131 226.168,-144.592 215.225,-143.884 215.225,-143.884"/>
</g>
<!-- 61&#45;&gt;4 -->
<g id="edge110" class="edge"><title>61&#45;&gt;4</title>
<path fill="none" stroke="black" d="M341.669,-108.303C334.475,-116.695 325.703,-126.93 317.81,-136.139"/>
<polygon fill="black" stroke="black" points="311.161,-143.896 314.252,-133.375 314.415,-140.099 317.669,-136.303 317.669,-136.303 317.669,-136.303 314.415,-140.099 321.085,-139.232 311.161,-143.896 311.161,-143.896"/>
</g>
<!-- 61&#45;&gt;5 -->
<g id="edge111" class="edge"><title>61&#45;&gt;5</title>
<path fill="none" stroke="black" d="M311.717,-99.0945C262.845,-108.205 182.13,-124.059 103.269,-143.924"/>
<polygon fill="black" stroke="black" points="93.1635,-146.495 101.745,-139.668 98.0092,-145.262 102.855,-144.03 102.855,-144.03 102.855,-144.03 98.0092,-145.262 103.964,-148.391 93.1635,-146.495 93.1635,-146.495"/>
</g>
<!-- 61&#45;&gt;15 -->
<g id="edge112" class="edge"><title>61&#45;&gt;15</title>
<path fill="none" stroke="black" d="M401.278,-94.6405C551.471,-106.851 1035.87,-146.233 1177.97,-157.786"/>
<polygon fill="black" stroke="black" points="1187.98,-158.6 1177.65,-162.275 1183,-158.195 1178.02,-157.79 1178.02,-157.79 1178.02,-157.79 1183,-158.195 1178.38,-153.305 1187.98,-158.6 1187.98,-158.6"/>
</g>
<!-- 62 -->
<g id="node63" class="node"><title>62</title>
<polygon fill="none" stroke="black" points="2608.5,-108 2444.5,-108 2444.5,-72 2608.5,-72 2608.5,-108"/>
<text text-anchor="middle" x="2526.5" y="-86.3" font-family="Times,serif" font-size="14.00">configuration_multiplayers</text>
</g>
<!-- 62&#45;&gt;2 -->
<g id="edge113" class="edge"><title>62&#45;&gt;2</title>
<path fill="none" stroke="black" d="M2444.25,-106.97C2441.3,-107.35 2438.38,-107.695 2435.5,-108 2335.9,-118.544 805.325,-152.495 477.861,-159.663"/>
<polygon fill="black" stroke="black" points="467.623,-159.887 477.522,-155.17 472.622,-159.778 477.62,-159.669 477.62,-159.669 477.62,-159.669 472.622,-159.778 477.719,-164.167 467.623,-159.887 467.623,-159.887"/>
</g>
<!-- 62&#45;&gt;8 -->
<g id="edge114" class="edge"><title>62&#45;&gt;8</title>
<path fill="none" stroke="black" d="M2608.72,-106.893C2655.55,-116.489 2715.14,-129.621 2767.5,-144 2841.85,-164.417 2926,-193.197 2980.08,-212.445"/>
<polygon fill="black" stroke="black" points="2989.81,-215.924 2978.88,-216.797 2985.1,-214.242 2980.4,-212.56 2980.4,-212.56 2980.4,-212.56 2985.1,-214.242 2981.91,-208.322 2989.81,-215.924 2989.81,-215.924"/>
</g>
<!-- 62&#45;&gt;11 -->
<g id="edge115" class="edge"><title>62&#45;&gt;11</title>
<path fill="none" stroke="black" d="M2520.59,-108.129C2512.2,-132.436 2496.76,-177.181 2486.82,-205.987"/>
<polygon fill="black" stroke="black" points="2483.43,-215.811 2482.44,-204.89 2485.06,-211.084 2486.69,-206.358 2486.69,-206.358 2486.69,-206.358 2485.06,-211.084 2490.95,-207.826 2483.43,-215.811 2483.43,-215.811"/>
</g>
<!-- 62&#45;&gt;15 -->
<g id="edge116" class="edge"><title>62&#45;&gt;15</title>
<path fill="none" stroke="black" d="M2444.24,-106.906C2441.29,-107.304 2438.37,-107.671 2435.5,-108 1974.99,-160.766 1411.05,-162.04 1257.63,-161.306"/>
<polygon fill="black" stroke="black" points="1247.3,-161.25 1257.32,-156.804 1252.3,-161.277 1257.3,-161.304 1257.3,-161.304 1257.3,-161.304 1252.3,-161.277 1257.27,-165.804 1247.3,-161.25 1247.3,-161.25"/>
</g>
<!-- 62&#45;&gt;48 -->
<g id="edge117" class="edge"><title>62&#45;&gt;48</title>
<path fill="none" stroke="black" d="M2608.73,-95.4586C2843.8,-108.204 3516.24,-144.665 3742.31,-156.923"/>
<polygon fill="black" stroke="black" points="3752.42,-157.471 3742.19,-161.423 3747.43,-157.2 3742.43,-156.93 3742.43,-156.93 3742.43,-156.93 3747.43,-157.2 3742.68,-152.436 3752.42,-157.471 3752.42,-157.471"/>
</g>
<!-- 63 -->
<g id="node64" class="node"><title>63</title>
<polygon fill="none" stroke="black" points="2337.5,-36 2283.5,-36 2283.5,-0 2337.5,-0 2337.5,-36"/>
<text text-anchor="middle" x="2310.5" y="-14.3" font-family="Times,serif" font-size="14.00">main</text>
</g>
<!-- 63&#45;&gt;7 -->
<g id="edge118" class="edge"><title>63&#45;&gt;7</title>
<path fill="none" stroke="black" d="M2328.3,-36.3034C2337.1,-44.865 2347.88,-55.3438 2357.5,-64.6955"/>
<polygon fill="black" stroke="black" points="2364.91,-71.8957 2354.6,-68.1513 2361.32,-68.4103 2357.74,-64.9249 2357.74,-64.9249 2357.74,-64.9249 2361.32,-68.4103 2360.87,-61.6984 2364.91,-71.8957 2364.91,-71.8957"/>
</g>
<!-- 63&#45;&gt;9 -->
<g id="edge119" class="edge"><title>63&#45;&gt;9</title>
<path fill="none" stroke="black" d="M2311.52,-36.2851C2313.22,-54.8965 2317.69,-84.9352 2329.5,-108 2334.78,-118.322 2342.6,-128.167 2350.4,-136.51"/>
<polygon fill="black" stroke="black" points="2357.49,-143.719 2347.27,-139.741 2353.98,-140.153 2350.48,-136.587 2350.48,-136.587 2350.48,-136.587 2353.98,-140.153 2353.69,-133.433 2357.49,-143.719 2357.49,-143.719"/>
</g>
<!-- 63&#45;&gt;61 -->
<g id="edge120" class="edge"><title>63&#45;&gt;61</title>
<path fill="none" stroke="black" d="M2283.25,-19.9762C2072.58,-27.5231 703.815,-76.5578 411.408,-87.033"/>
<polygon fill="black" stroke="black" points="401.065,-87.4035 410.898,-82.5483 406.062,-87.2244 411.059,-87.0454 411.059,-87.0454 411.059,-87.0454 406.062,-87.2244 411.22,-91.5425 401.065,-87.4035 401.065,-87.4035"/>
</g>
<!-- 64 -->
<g id="node65" class="node"><title>64</title>
<polygon fill="none" stroke="black" points="2586,-36 2467,-36 2467,-0 2586,-0 2586,-36"/>
<text text-anchor="middle" x="2526.5" y="-14.3" font-family="Times,serif" font-size="14.00">main_multiplayers</text>
</g>
<!-- 64&#45;&gt;7 -->
<g id="edge121" class="edge"><title>64&#45;&gt;7</title>
<path fill="none" stroke="black" d="M2491.27,-36.1239C2471.92,-45.5307 2447.73,-57.2923 2427.07,-67.3328"/>
<polygon fill="black" stroke="black" points="2417.86,-71.8102 2424.89,-63.3911 2422.36,-69.6243 2426.86,-67.4383 2426.86,-67.4383 2426.86,-67.4383 2422.36,-69.6243 2428.82,-71.4854 2417.86,-71.8102 2417.86,-71.8102"/>
</g>
<!-- 64&#45;&gt;10 -->
<g id="edge122" class="edge"><title>64&#45;&gt;10</title>
<path fill="none" stroke="black" d="M2568.83,-36.0966C2585.85,-44.7313 2604.48,-56.6722 2617.5,-72 2632.59,-89.7633 2641.37,-114.935 2646.21,-133.979"/>
<polygon fill="black" stroke="black" points="2648.51,-143.842 2641.86,-135.126 2647.38,-138.973 2646.24,-134.104 2646.24,-134.104 2646.24,-134.104 2647.38,-138.973 2650.62,-133.081 2648.51,-143.842 2648.51,-143.842"/>
</g>
<!-- 64&#45;&gt;62 -->
<g id="edge123" class="edge"><title>64&#45;&gt;62</title>
<path fill="none" stroke="black" d="M2526.5,-36.3034C2526.5,-44.0173 2526.5,-53.2875 2526.5,-61.8876"/>
<polygon fill="black" stroke="black" points="2526.5,-71.8957 2522,-61.8956 2526.5,-66.8957 2526.5,-61.8957 2526.5,-61.8957 2526.5,-61.8957 2526.5,-66.8957 2531,-61.8957 2526.5,-71.8957 2526.5,-71.8957"/>
</g>
</g>
</svg>
