<?xml version="1.0" encoding="UTF-8" standalone="no"?>
<!DOCTYPE svg PUBLIC "-//W3C//DTD SVG 1.1//EN"
 "http://www.w3.org/Graphics/SVG/1.1/DTD/svg11.dtd">
<!-- Generated by graphviz version 2.40.1 (20161225.0304)
 -->
<!-- Title: packages_SMPyBandits Pages: 1 -->
<svg width="3098pt" height="116pt"
 viewBox="0.00 0.00 3098.00 116.00" xmlns="http://www.w3.org/2000/svg" xmlns:xlink="http://www.w3.org/1999/xlink">
<g id="graph0" class="graph" transform="scale(1 1) rotate(0) translate(4 112)">
<title>packages_SMPyBandits</title>
<polygon fill="#ffffff" stroke="transparent" points="-4,4 -4,-112 3094,-112 3094,4 -4,4"/>
<!-- 0 -->
<g id="node1" class="node">
<title>0</title>
<polygon fill="none" stroke="#000000" points="92,-36 0,-36 0,0 92,0 92,-36"/>
<text text-anchor="middle" x="46" y="-14.3" font-family="Times,serif" font-size="14.00" fill="#000000">SMPyBandits</text>
</g>
<!-- 0&#45;&gt;0 -->
<g id="edge1" class="edge">
<title>0&#45;&gt;0</title>
<path fill="none" stroke="#000000" d="M92.0242,-4.8296C102.4063,-6.0161 110,-10.4063 110,-18 110,-22.8647 106.8835,-26.4147 101.914,-28.6499"/>
<polygon fill="#000000" stroke="#000000" points="92.0242,-31.1704 100.6031,-24.3401 96.8693,-29.9356 101.7144,-28.7007 101.7144,-28.7007 101.7144,-28.7007 96.8693,-29.9356 102.8258,-33.0613 92.0242,-31.1704 92.0242,-31.1704"/>
</g>
<!-- 1 -->
<g id="node2" class="node">
<title>1</title>
<polygon fill="none" stroke="#000000" points="465.5,-36 128.5,-36 128.5,0 465.5,0 465.5,-36"/>
<text text-anchor="middle" x="297" y="-14.3" font-family="Times,serif" font-size="14.00" fill="#000000">SMPyBandits.complete_tree_exploration_for_MP_bandits</text>
</g>
<!-- 2 -->
<g id="node3" class="node">
<title>2</title>
<polygon fill="none" stroke="#000000" points="652.5,-36 483.5,-36 483.5,0 652.5,0 652.5,-36"/>
<text text-anchor="middle" x="568" y="-14.3" font-family="Times,serif" font-size="14.00" fill="#000000">SMPyBandits.configuration</text>
</g>
<!-- 3 -->
<g id="node4" class="node">
<title>3</title>
<polygon fill="none" stroke="#000000" points="933,-36 671,-36 671,0 933,0 933,-36"/>
<text text-anchor="middle" x="802" y="-14.3" font-family="Times,serif" font-size="14.00" fill="#000000">SMPyBandits.configuration_all_singleplayer</text>
</g>
<!-- 4 -->
<g id="node5" class="node">
<title>4</title>
<polygon fill="none" stroke="#000000" points="1198,-108 828,-108 828,-72 1198,-72 1198,-108"/>
<text text-anchor="middle" x="1013" y="-86.3" font-family="Times,serif" font-size="14.00" fill="#000000">SMPyBandits.configuration_comparing_aggregation_algorithms</text>
</g>
<!-- 5 -->
<g id="node6" class="node">
<title>5</title>
<polygon fill="none" stroke="#000000" points="1447,-36 1093,-36 1093,0 1447,0 1447,-36"/>
<text text-anchor="middle" x="1270" y="-14.3" font-family="Times,serif" font-size="14.00" fill="#000000">SMPyBandits.configuration_comparing_doubling_algorithms</text>
</g>
<!-- 6 -->
<g id="node7" class="node">
<title>6</title>
<polygon fill="none" stroke="#000000" points="1699,-36 1465,-36 1465,0 1699,0 1699,-36"/>
<text text-anchor="middle" x="1582" y="-14.3" font-family="Times,serif" font-size="14.00" fill="#000000">SMPyBandits.configuration_markovian</text>
</g>
<!-- 7 -->
<g id="node8" class="node">
<title>7</title>
<polygon fill="none" stroke="#000000" points="1939,-108 1695,-108 1695,-72 1939,-72 1939,-108"/>
<text text-anchor="middle" x="1817" y="-86.3" font-family="Times,serif" font-size="14.00" fill="#000000">SMPyBandits.configuration_multiplayers</text>
</g>
<!-- 8 -->
<g id="node9" class="node">
<title>8</title>
<polygon fill="none" stroke="#000000" points="2302.5,-108 1957.5,-108 1957.5,-72 2302.5,-72 2302.5,-108"/>
<text text-anchor="middle" x="2130" y="-86.3" font-family="Times,serif" font-size="14.00" fill="#000000">SMPyBandits.configuration_multiplayers_with_aggregation</text>
</g>
<!-- 9 -->
<g id="node10" class="node">
<title>9</title>
<polygon fill="none" stroke="#000000" points="2474.5,-36 2265.5,-36 2265.5,0 2474.5,0 2474.5,-36"/>
<text text-anchor="middle" x="2370" y="-14.3" font-family="Times,serif" font-size="14.00" fill="#000000">SMPyBandits.configuration_sparse</text>
</g>
<!-- 10 -->
<g id="node11" class="node">
<title>10</title>
<polygon fill="none" stroke="#000000" points="2754,-108 2470,-108 2470,-72 2754,-72 2754,-108"/>
<text text-anchor="middle" x="2612" y="-86.3" font-family="Times,serif" font-size="14.00" fill="#000000">SMPyBandits.configuration_sparse_multiplayers</text>
</g>
<!-- 11 -->
<g id="node12" class="node">
<title>11</title>
<polygon fill="none" stroke="#000000" points="2902,-36 2750,-36 2750,0 2902,0 2902,-36"/>
<text text-anchor="middle" x="2826" y="-14.3" font-family="Times,serif" font-size="14.00" fill="#000000">SMPyBandits.env_client</text>
</g>
<!-- 12 -->
<g id="node13" class="node">
<title>12</title>
<polygon fill="none" stroke="#000000" points="1075,-36 951,-36 951,0 1075,0 1075,-36"/>
<text text-anchor="middle" x="1013" y="-14.3" font-family="Times,serif" font-size="14.00" fill="#000000">SMPyBandits.main</text>
</g>
<!-- 12&#45;&gt;4 -->
<g id="edge2" class="edge">
<title>12&#45;&gt;4</title>
<path fill="none" stroke="#000000" d="M1013,-36.1686C1013,-43.869 1013,-53.0257 1013,-61.5834"/>
<polygon fill="#000000" stroke="#000000" points="1013,-71.5867 1008.5001,-61.5867 1013,-66.5867 1013.0001,-61.5867 1013.0001,-61.5867 1013.0001,-61.5867 1013,-66.5867 1017.5001,-61.5868 1013,-71.5867 1013,-71.5867"/>
</g>
<!-- 13 -->
<g id="node14" class="node">
<title>13</title>
<polygon fill="none" stroke="#000000" points="1916.5,-36 1717.5,-36 1717.5,0 1916.5,0 1916.5,-36"/>
<text text-anchor="middle" x="1817" y="-14.3" font-family="Times,serif" font-size="14.00" fill="#000000">SMPyBandits.main_multiplayers</text>
</g>
<!-- 13&#45;&gt;7 -->
<g id="edge3" class="edge">
<title>13&#45;&gt;7</title>
<path fill="none" stroke="#000000" d="M1817,-36.1686C1817,-43.869 1817,-53.0257 1817,-61.5834"/>
<polygon fill="#000000" stroke="#000000" points="1817,-71.5867 1812.5001,-61.5867 1817,-66.5867 1817.0001,-61.5867 1817.0001,-61.5867 1817.0001,-61.5867 1817,-66.5867 1821.5001,-61.5868 1817,-71.5867 1817,-71.5867"/>
</g>
<!-- 14 -->
<g id="node15" class="node">
<title>14</title>
<polygon fill="none" stroke="#000000" points="2247,-36 2013,-36 2013,0 2247,0 2247,-36"/>
<text text-anchor="middle" x="2130" y="-14.3" font-family="Times,serif" font-size="14.00" fill="#000000">SMPyBandits.main_multiplayers_more</text>
</g>
<!-- 14&#45;&gt;8 -->
<g id="edge4" class="edge">
<title>14&#45;&gt;8</title>
<path fill="none" stroke="#000000" d="M2130,-36.1686C2130,-43.869 2130,-53.0257 2130,-61.5834"/>
<polygon fill="#000000" stroke="#000000" points="2130,-71.5867 2125.5001,-61.5867 2130,-66.5867 2130.0001,-61.5867 2130.0001,-61.5867 2130.0001,-61.5867 2130,-66.5867 2134.5001,-61.5868 2130,-71.5867 2130,-71.5867"/>
</g>
<!-- 15 -->
<g id="node16" class="node">
<title>15</title>
<polygon fill="none" stroke="#000000" points="2731.5,-36 2492.5,-36 2492.5,0 2731.5,0 2731.5,-36"/>
<text text-anchor="middle" x="2612" y="-14.3" font-family="Times,serif" font-size="14.00" fill="#000000">SMPyBandits.main_sparse_multiplayers</text>
</g>
<!-- 15&#45;&gt;10 -->
<g id="edge5" class="edge">
<title>15&#45;&gt;10</title>
<path fill="none" stroke="#000000" d="M2612,-36.1686C2612,-43.869 2612,-53.0257 2612,-61.5834"/>
<polygon fill="#000000" stroke="#000000" points="2612,-71.5867 2607.5001,-61.5867 2612,-66.5867 2612.0001,-61.5867 2612.0001,-61.5867 2612.0001,-61.5867 2612,-66.5867 2616.5001,-61.5868 2612,-71.5867 2612,-71.5867"/>
</g>
<!-- 16 -->
<g id="node17" class="node">
<title>16</title>
<polygon fill="none" stroke="#000000" points="3090,-36 2920,-36 2920,0 3090,0 3090,-36"/>
<text text-anchor="middle" x="3005" y="-14.3" font-family="Times,serif" font-size="14.00" fill="#000000">SMPyBandits.policy_server</text>
</g>
</g>
</svg>
