<?xml version="1.0" encoding="UTF-8" standalone="no"?>
<!DOCTYPE svg PUBLIC "-//W3C//DTD SVG 1.1//EN"
 "http://www.w3.org/Graphics/SVG/1.1/DTD/svg11.dtd">
<!-- Generated by graphviz version 2.38.0 (20140413.2041)
 -->
<!-- Title: packages_AlgoBandits Pages: 1 -->
<svg width="5489pt" height="548pt"
 viewBox="0.00 0.00 5488.50 548.00" xmlns="http://www.w3.org/2000/svg" xmlns:xlink="http://www.w3.org/1999/xlink">
<g id="graph0" class="graph" transform="scale(1 1) rotate(0) translate(4 544)">
<title>packages_AlgoBandits</title>
<polygon fill="white" stroke="none" points="-4,4 -4,-544 5484.5,-544 5484.5,4 -4,4"/>
<!-- 0 -->
<g id="node1" class="node"><title>0</title>
<polygon fill="none" stroke="black" points="306,-108 252,-108 252,-72 306,-72 306,-108"/>
<text text-anchor="middle" x="279" y="-86.3" font-family="Times,serif" font-size="14.00">Arms</text>
</g>
<!-- 2 -->
<g id="node3" class="node"><title>2</title>
<polygon fill="none" stroke="black" points="330,-180 228,-180 228,-144 330,-144 330,-180"/>
<text text-anchor="middle" x="279" y="-158.3" font-family="Times,serif" font-size="14.00">Arms.Bernoulli</text>
</g>
<!-- 0&#45;&gt;2 -->
<g id="edge1" class="edge"><title>0&#45;&gt;2</title>
<path fill="none" stroke="black" d="M279,-108.303C279,-116.017 279,-125.288 279,-133.888"/>
<polygon fill="black" stroke="black" points="279,-143.896 274.5,-133.896 279,-138.896 279,-133.896 279,-133.896 279,-133.896 279,-138.896 283.5,-133.896 279,-143.896 279,-143.896"/>
</g>
<!-- 3 -->
<g id="node4" class="node"><title>3</title>
<polygon fill="none" stroke="black" points="464,-180 348,-180 348,-144 464,-144 464,-180"/>
<text text-anchor="middle" x="406" y="-158.3" font-family="Times,serif" font-size="14.00">Arms.Exponential</text>
</g>
<!-- 0&#45;&gt;3 -->
<g id="edge2" class="edge"><title>0&#45;&gt;3</title>
<path fill="none" stroke="black" d="M306.245,-106.017C323.611,-115.588 346.417,-128.159 365.839,-138.864"/>
<polygon fill="black" stroke="black" points="374.777,-143.791 363.847,-142.904 370.398,-141.377 366.019,-138.963 366.019,-138.963 366.019,-138.963 370.398,-141.377 368.192,-135.022 374.777,-143.791 374.777,-143.791"/>
</g>
<!-- 4 -->
<g id="node5" class="node"><title>4</title>
<polygon fill="none" stroke="black" points="583.5,-180 482.5,-180 482.5,-144 583.5,-144 583.5,-180"/>
<text text-anchor="middle" x="533" y="-158.3" font-family="Times,serif" font-size="14.00">Arms.Gaussian</text>
</g>
<!-- 0&#45;&gt;4 -->
<g id="edge3" class="edge"><title>0&#45;&gt;4</title>
<path fill="none" stroke="black" d="M306.012,-98.2936C341.756,-107.963 406.976,-125.672 472.59,-143.898"/>
<polygon fill="black" stroke="black" points="482.27,-146.59 471.43,-148.247 477.453,-145.251 472.636,-143.911 472.636,-143.911 472.636,-143.911 477.453,-145.251 473.842,-139.576 482.27,-146.59 482.27,-146.59"/>
</g>
<!-- 5 -->
<g id="node6" class="node"><title>5</title>
<polygon fill="none" stroke="black" points="209.5,-180 116.5,-180 116.5,-144 209.5,-144 209.5,-180"/>
<text text-anchor="middle" x="163" y="-158.3" font-family="Times,serif" font-size="14.00">Arms.Poisson</text>
</g>
<!-- 0&#45;&gt;5 -->
<g id="edge4" class="edge"><title>0&#45;&gt;5</title>
<path fill="none" stroke="black" d="M251.803,-107.412C236.435,-116.686 217.001,-128.413 200.235,-138.531"/>
<polygon fill="black" stroke="black" points="191.238,-143.96 197.475,-134.94 195.519,-141.377 199.8,-138.793 199.8,-138.793 199.8,-138.793 195.519,-141.377 202.125,-142.646 191.238,-143.96 191.238,-143.96"/>
</g>
<!-- 6 -->
<g id="node7" class="node"><title>6</title>
<polygon fill="none" stroke="black" points="98,-180 7.10543e-15,-180 7.10543e-15,-144 98,-144 98,-180"/>
<text text-anchor="middle" x="49" y="-158.3" font-family="Times,serif" font-size="14.00">Arms.Uniform</text>
</g>
<!-- 0&#45;&gt;6 -->
<g id="edge5" class="edge"><title>0&#45;&gt;6</title>
<path fill="none" stroke="black" d="M251.713,-99.3048C216.497,-110.023 154.263,-128.963 108.012,-143.04"/>
<polygon fill="black" stroke="black" points="98.4003,-145.965 106.657,-138.748 103.184,-144.509 107.967,-143.053 107.967,-143.053 107.967,-143.053 103.184,-144.509 109.277,-147.358 98.4003,-145.965 98.4003,-145.965"/>
</g>
<!-- 1 -->
<g id="node2" class="node"><title>1</title>
<polygon fill="none" stroke="black" points="211.5,-252 134.5,-252 134.5,-216 211.5,-216 211.5,-252"/>
<text text-anchor="middle" x="173" y="-230.3" font-family="Times,serif" font-size="14.00">Arms.Arm</text>
</g>
<!-- 2&#45;&gt;1 -->
<g id="edge6" class="edge"><title>2&#45;&gt;1</title>
<path fill="none" stroke="black" d="M253.069,-180.124C239.338,-189.192 222.294,-200.448 207.464,-210.241"/>
<polygon fill="black" stroke="black" points="199.03,-215.81 204.895,-206.544 203.203,-213.055 207.375,-210.3 207.375,-210.3 207.375,-210.3 203.203,-213.055 209.855,-214.055 199.03,-215.81 199.03,-215.81"/>
</g>
<!-- 7 -->
<g id="node8" class="node"><title>7</title>
<polygon fill="none" stroke="black" points="328,-252 230,-252 230,-216 328,-216 328,-252"/>
<text text-anchor="middle" x="279" y="-230.3" font-family="Times,serif" font-size="14.00">Arms.kullback</text>
</g>
<!-- 2&#45;&gt;7 -->
<g id="edge7" class="edge"><title>2&#45;&gt;7</title>
<path fill="none" stroke="black" d="M279,-180.303C279,-188.017 279,-197.288 279,-205.888"/>
<polygon fill="black" stroke="black" points="279,-215.896 274.5,-205.896 279,-210.896 279,-205.896 279,-205.896 279,-205.896 279,-210.896 283.5,-205.896 279,-215.896 279,-215.896"/>
</g>
<!-- 3&#45;&gt;1 -->
<g id="edge8" class="edge"><title>3&#45;&gt;1</title>
<path fill="none" stroke="black" d="M347.813,-178.683C313.525,-188.153 269.127,-200.807 221.31,-215.992"/>
<polygon fill="black" stroke="black" points="211.703,-219.063 219.859,-211.732 216.466,-217.541 221.229,-216.018 221.229,-216.018 221.229,-216.018 216.466,-217.541 222.599,-220.305 211.703,-219.063 211.703,-219.063"/>
</g>
<!-- 3&#45;&gt;7 -->
<g id="edge9" class="edge"><title>3&#45;&gt;7</title>
<path fill="none" stroke="black" d="M374.932,-180.124C358.173,-189.361 337.294,-200.869 319.298,-210.788"/>
<polygon fill="black" stroke="black" points="310.187,-215.81 316.773,-207.042 314.566,-213.397 318.945,-210.983 318.945,-210.983 318.945,-210.983 314.566,-213.397 321.117,-214.924 310.187,-215.81 310.187,-215.81"/>
</g>
<!-- 4&#45;&gt;1 -->
<g id="edge10" class="edge"><title>4&#45;&gt;1</title>
<path fill="none" stroke="black" d="M482.38,-177.858C479.217,-178.627 476.071,-179.349 473,-180 365.459,-202.809 332.709,-189.772 221.5,-216.186"/>
<polygon fill="black" stroke="black" points="211.572,-218.598 220.227,-211.864 216.431,-217.417 221.289,-216.237 221.289,-216.237 221.289,-216.237 216.431,-217.417 222.352,-220.61 211.572,-218.598 211.572,-218.598"/>
</g>
<!-- 4&#45;&gt;7 -->
<g id="edge11" class="edge"><title>4&#45;&gt;7</title>
<path fill="none" stroke="black" d="M482.27,-177.41C479.134,-178.289 476.025,-179.158 473,-180 427.764,-192.587 376.518,-206.576 338.06,-217.02"/>
<polygon fill="black" stroke="black" points="328.07,-219.731 336.542,-212.769 332.895,-218.422 337.721,-217.112 337.721,-217.112 337.721,-217.112 332.895,-218.422 338.899,-221.455 328.07,-219.731 328.07,-219.731"/>
</g>
<!-- 5&#45;&gt;1 -->
<g id="edge12" class="edge"><title>5&#45;&gt;1</title>
<path fill="none" stroke="black" d="M165.472,-180.303C166.574,-188.017 167.898,-197.288 169.127,-205.888"/>
<polygon fill="black" stroke="black" points="170.557,-215.896 164.687,-206.633 169.849,-210.946 169.142,-205.996 169.142,-205.996 169.142,-205.996 169.849,-210.946 173.597,-205.36 170.557,-215.896 170.557,-215.896"/>
</g>
<!-- 5&#45;&gt;7 -->
<g id="edge13" class="edge"><title>5&#45;&gt;7</title>
<path fill="none" stroke="black" d="M191.377,-180.124C206.544,-189.276 225.405,-200.658 241.739,-210.515"/>
<polygon fill="black" stroke="black" points="250.514,-215.81 239.627,-214.496 246.233,-213.227 241.952,-210.644 241.952,-210.644 241.952,-210.644 246.233,-213.227 244.277,-206.791 250.514,-215.81 250.514,-215.81"/>
</g>
<!-- 6&#45;&gt;1 -->
<g id="edge14" class="edge"><title>6&#45;&gt;1</title>
<path fill="none" stroke="black" d="M79.3338,-180.124C95.6969,-189.361 116.083,-200.869 133.654,-210.788"/>
<polygon fill="black" stroke="black" points="142.55,-215.81 131.629,-214.813 138.195,-213.352 133.841,-210.894 133.841,-210.894 133.841,-210.894 138.195,-213.352 136.054,-206.976 142.55,-215.81 142.55,-215.81"/>
</g>
<!-- 8 -->
<g id="node9" class="node"><title>8</title>
<polygon fill="none" stroke="black" points="3074,-108 2986,-108 2986,-72 3074,-72 3074,-108"/>
<text text-anchor="middle" x="3030" y="-86.3" font-family="Times,serif" font-size="14.00">Environment</text>
</g>
<!-- 10 -->
<g id="node11" class="node"><title>10</title>
<polygon fill="none" stroke="black" points="3001,-180 2857,-180 2857,-144 3001,-144 3001,-180"/>
<text text-anchor="middle" x="2929" y="-158.3" font-family="Times,serif" font-size="14.00">Environment.Evaluator</text>
</g>
<!-- 8&#45;&gt;10 -->
<g id="edge15" class="edge"><title>8&#45;&gt;10</title>
<path fill="none" stroke="black" d="M3005.29,-108.124C2992.33,-117.107 2976.27,-128.237 2962.23,-137.966"/>
<polygon fill="black" stroke="black" points="2953.8,-143.81 2959.46,-134.415 2957.91,-140.962 2962.02,-138.114 2962.02,-138.114 2962.02,-138.114 2957.91,-140.962 2964.58,-141.812 2953.8,-143.81 2953.8,-143.81"/>
</g>
<!-- 11 -->
<g id="node12" class="node"><title>11</title>
<polygon fill="none" stroke="black" points="3348.5,-180 3133.5,-180 3133.5,-144 3348.5,-144 3348.5,-180"/>
<text text-anchor="middle" x="3241" y="-158.3" font-family="Times,serif" font-size="14.00">Environment.EvaluatorMultiPlayers</text>
</g>
<!-- 8&#45;&gt;11 -->
<g id="edge16" class="edge"><title>8&#45;&gt;11</title>
<path fill="none" stroke="black" d="M3074.23,-105.674C3104.81,-115.818 3145.89,-129.448 3179.63,-140.64"/>
<polygon fill="black" stroke="black" points="3189.39,-143.878 3178.48,-145 3184.64,-142.304 3179.9,-140.729 3179.9,-140.729 3179.9,-140.729 3184.64,-142.304 3181.32,-136.458 3189.39,-143.878 3189.39,-143.878"/>
</g>
<!-- 12 -->
<g id="node13" class="node"><title>12</title>
<polygon fill="none" stroke="black" points="3212.5,-252 3089.5,-252 3089.5,-216 3212.5,-216 3212.5,-252"/>
<text text-anchor="middle" x="3151" y="-230.3" font-family="Times,serif" font-size="14.00">Environment.MAB</text>
</g>
<!-- 8&#45;&gt;12 -->
<g id="edge17" class="edge"><title>8&#45;&gt;12</title>
<path fill="none" stroke="black" d="M3047.45,-108.254C3057.52,-118.422 3070.27,-131.672 3081,-144 3099.08,-164.769 3118.33,-189.456 3132.06,-207.556"/>
<polygon fill="black" stroke="black" points="3138.33,-215.865 3128.71,-210.59 3135.32,-211.873 3132.31,-207.881 3132.31,-207.881 3132.31,-207.881 3135.32,-211.873 3135.9,-205.172 3138.33,-215.865 3138.33,-215.865"/>
</g>
<!-- 13 -->
<g id="node14" class="node"><title>13</title>
<polygon fill="none" stroke="black" points="3071,-252 2945,-252 2945,-216 3071,-216 3071,-252"/>
<text text-anchor="middle" x="3008" y="-230.3" font-family="Times,serif" font-size="14.00">Environment.Result</text>
</g>
<!-- 8&#45;&gt;13 -->
<g id="edge18" class="edge"><title>8&#45;&gt;13</title>
<path fill="none" stroke="black" d="M3027.35,-108.129C3023.6,-132.33 3016.71,-176.789 3012.24,-205.607"/>
<polygon fill="black" stroke="black" points="3010.66,-215.811 3007.75,-205.24 3011.43,-210.87 3012.19,-205.929 3012.19,-205.929 3012.19,-205.929 3011.43,-210.87 3016.64,-206.618 3010.66,-215.811 3010.66,-215.811"/>
</g>
<!-- 9 -->
<g id="node10" class="node"><title>9</title>
<polygon fill="none" stroke="black" points="3667,-252 3485,-252 3485,-216 3667,-216 3667,-252"/>
<text text-anchor="middle" x="3576" y="-230.3" font-family="Times,serif" font-size="14.00">Environment.CollisionModels</text>
</g>
<!-- 10&#45;&gt;12 -->
<g id="edge19" class="edge"><title>10&#45;&gt;12</title>
<path fill="none" stroke="black" d="M2983.02,-180.034C3014.45,-189.943 3054.23,-202.486 3087.19,-212.879"/>
<polygon fill="black" stroke="black" points="3096.73,-215.889 3085.84,-217.174 3091.97,-214.386 3087.2,-212.882 3087.2,-212.882 3087.2,-212.882 3091.97,-214.386 3088.55,-208.59 3096.73,-215.889 3096.73,-215.889"/>
</g>
<!-- 10&#45;&gt;13 -->
<g id="edge20" class="edge"><title>10&#45;&gt;13</title>
<path fill="none" stroke="black" d="M2948.53,-180.303C2958.38,-189.035 2970.49,-199.76 2981.2,-209.25"/>
<polygon fill="black" stroke="black" points="2988.7,-215.896 2978.23,-212.632 2984.95,-212.58 2981.21,-209.264 2981.21,-209.264 2981.21,-209.264 2984.95,-212.58 2984.2,-205.896 2988.7,-215.896 2988.7,-215.896"/>
</g>
<!-- 15 -->
<g id="node16" class="node"><title>15</title>
<polygon fill="none" stroke="black" points="3228,-324 3074,-324 3074,-288 3228,-288 3228,-324"/>
<text text-anchor="middle" x="3151" y="-302.3" font-family="Times,serif" font-size="14.00">Environment.plotsettings</text>
</g>
<!-- 10&#45;&gt;15 -->
<g id="edge21" class="edge"><title>10&#45;&gt;15</title>
<path fill="none" stroke="black" d="M2924.94,-180.282C2921.4,-200.023 2919.15,-232.148 2936,-252 2952.83,-271.825 3011.91,-285.498 3063.89,-293.984"/>
<polygon fill="black" stroke="black" points="3073.84,-295.56 3063.26,-298.44 3068.9,-294.778 3063.96,-293.995 3063.96,-293.995 3063.96,-293.995 3068.9,-294.778 3064.66,-289.551 3073.84,-295.56 3073.84,-295.56"/>
</g>
<!-- 11&#45;&gt;9 -->
<g id="edge22" class="edge"><title>11&#45;&gt;9</title>
<path fill="none" stroke="black" d="M3322.52,-180.034C3371.45,-190.259 3433.82,-203.29 3484.44,-213.869"/>
<polygon fill="black" stroke="black" points="3494.4,-215.95 3483.69,-218.309 3489.51,-214.927 3484.61,-213.904 3484.61,-213.904 3484.61,-213.904 3489.51,-214.927 3485.54,-209.5 3494.4,-215.95 3494.4,-215.95"/>
</g>
<!-- 11&#45;&gt;12 -->
<g id="edge23" class="edge"><title>11&#45;&gt;12</title>
<path fill="none" stroke="black" d="M3218.75,-180.303C3207.42,-189.119 3193.47,-199.968 3181.18,-209.526"/>
<polygon fill="black" stroke="black" points="3172.99,-215.896 3178.12,-206.204 3176.94,-212.826 3180.88,-209.756 3180.88,-209.756 3180.88,-209.756 3176.94,-212.826 3183.65,-213.308 3172.99,-215.896 3172.99,-215.896"/>
</g>
<!-- 14 -->
<g id="node15" class="node"><title>14</title>
<polygon fill="none" stroke="black" points="3466.5,-252 3269.5,-252 3269.5,-216 3466.5,-216 3466.5,-252"/>
<text text-anchor="middle" x="3368" y="-230.3" font-family="Times,serif" font-size="14.00">Environment.ResultMultiPlayers</text>
</g>
<!-- 11&#45;&gt;14 -->
<g id="edge24" class="edge"><title>11&#45;&gt;14</title>
<path fill="none" stroke="black" d="M3272.07,-180.124C3288.83,-189.361 3309.71,-200.869 3327.7,-210.788"/>
<polygon fill="black" stroke="black" points="3336.81,-215.81 3325.88,-214.924 3332.43,-213.397 3328.06,-210.983 3328.06,-210.983 3328.06,-210.983 3332.43,-213.397 3330.23,-207.042 3336.81,-215.81 3336.81,-215.81"/>
</g>
<!-- 11&#45;&gt;15 -->
<g id="edge25" class="edge"><title>11&#45;&gt;15</title>
<path fill="none" stroke="black" d="M3240.85,-180.078C3239.94,-199.052 3236.15,-229.918 3222,-252 3214.46,-263.765 3203.33,-273.854 3192.11,-281.975"/>
<polygon fill="black" stroke="black" points="3183.57,-287.797 3189.3,-278.446 3187.7,-284.981 3191.83,-282.165 3191.83,-282.165 3191.83,-282.165 3187.7,-284.981 3194.37,-285.883 3183.57,-287.797 3183.57,-287.797"/>
</g>
<!-- 12&#45;&gt;15 -->
<g id="edge26" class="edge"><title>12&#45;&gt;15</title>
<path fill="none" stroke="black" d="M3151,-252.303C3151,-260.017 3151,-269.288 3151,-277.888"/>
<polygon fill="black" stroke="black" points="3151,-287.896 3146.5,-277.896 3151,-282.896 3151,-277.896 3151,-277.896 3151,-277.896 3151,-282.896 3155.5,-277.896 3151,-287.896 3151,-287.896"/>
</g>
<!-- 16 -->
<g id="node17" class="node"><title>16</title>
<polygon fill="none" stroke="black" points="1711.5,-180 1652.5,-180 1652.5,-144 1711.5,-144 1711.5,-180"/>
<text text-anchor="middle" x="1682" y="-158.3" font-family="Times,serif" font-size="14.00">Policies</text>
</g>
<!-- 17 -->
<g id="node18" class="node"><title>17</title>
<polygon fill="none" stroke="black" points="978.5,-324 857.5,-324 857.5,-288 978.5,-288 978.5,-324"/>
<text text-anchor="middle" x="918" y="-302.3" font-family="Times,serif" font-size="14.00">Policies.AdBandits</text>
</g>
<!-- 16&#45;&gt;17 -->
<g id="edge27" class="edge"><title>16&#45;&gt;17</title>
<path fill="none" stroke="black" d="M1652.34,-162.722C1517.44,-161.763 966.114,-161.232 915,-216 899.819,-232.266 902.655,-258.37 908.048,-278.111"/>
<polygon fill="black" stroke="black" points="911.019,-287.768 903.777,-279.534 909.549,-282.989 908.078,-278.21 908.078,-278.21 908.078,-278.21 909.549,-282.989 912.379,-276.887 911.019,-287.768 911.019,-287.768"/>
</g>
<!-- 18 -->
<g id="node19" class="node"><title>18</title>
<polygon fill="none" stroke="black" points="909.5,-468 818.5,-468 818.5,-432 909.5,-432 909.5,-468"/>
<text text-anchor="middle" x="864" y="-446.3" font-family="Times,serif" font-size="14.00">Policies.Aggr</text>
</g>
<!-- 16&#45;&gt;18 -->
<g id="edge28" class="edge"><title>16&#45;&gt;18</title>
<path fill="none" stroke="black" d="M1652.43,-163.527C1517.83,-166.123 966.784,-178.951 900,-216 865.483,-235.149 860.145,-250.442 848,-288 833.339,-333.339 845.135,-389.287 854.761,-421.875"/>
<polygon fill="black" stroke="black" points="857.774,-431.591 850.514,-423.373 856.293,-426.816 854.812,-422.04 854.812,-422.04 854.812,-422.04 856.293,-426.816 859.11,-420.707 857.774,-431.591 857.774,-431.591"/>
</g>
<!-- 20 -->
<g id="node21" class="node"><title>20</title>
<polygon fill="none" stroke="black" points="1048,-252 924,-252 924,-216 1048,-216 1048,-252"/>
<text text-anchor="middle" x="986" y="-230.3" font-family="Times,serif" font-size="14.00">Policies.BayesUCB</text>
</g>
<!-- 16&#45;&gt;20 -->
<g id="edge29" class="edge"><title>16&#45;&gt;20</title>
<path fill="none" stroke="black" d="M1652.2,-163.937C1563.27,-167.067 1291.94,-179.048 1058.28,-215.935"/>
<polygon fill="black" stroke="black" points="1048.23,-217.54 1057.4,-211.518 1053.17,-216.751 1058.11,-215.962 1058.11,-215.962 1058.11,-215.962 1053.17,-216.751 1058.82,-220.406 1048.23,-217.54 1048.23,-217.54"/>
</g>
<!-- 23 -->
<g id="node24" class="node"><title>23</title>
<polygon fill="none" stroke="black" points="2307.5,-252 2142.5,-252 2142.5,-216 2307.5,-216 2307.5,-252"/>
<text text-anchor="middle" x="2225" y="-230.3" font-family="Times,serif" font-size="14.00">Policies.EpsilonDecreasing</text>
</g>
<!-- 16&#45;&gt;23 -->
<g id="edge30" class="edge"><title>16&#45;&gt;23</title>
<path fill="none" stroke="black" d="M1711.56,-165.942C1783.17,-173.195 1971.58,-193.018 2128,-216 2129.48,-216.217 2130.97,-216.44 2132.47,-216.667"/>
<polygon fill="black" stroke="black" points="2142.5,-218.222 2131.93,-221.136 2137.56,-217.455 2132.62,-216.689 2132.62,-216.689 2132.62,-216.689 2137.56,-217.455 2133.31,-212.242 2142.5,-218.222 2142.5,-218.222"/>
</g>
<!-- 24 -->
<g id="node25" class="node"><title>24</title>
<polygon fill="none" stroke="black" points="2532,-252 2326,-252 2326,-216 2532,-216 2532,-252"/>
<text text-anchor="middle" x="2429" y="-230.3" font-family="Times,serif" font-size="14.00">Policies.EpsilonDecreasingMEGA</text>
</g>
<!-- 16&#45;&gt;24 -->
<g id="edge31" class="edge"><title>16&#45;&gt;24</title>
<path fill="none" stroke="black" d="M1711.78,-164.789C1801.35,-170.319 2076.31,-188.375 2315.94,-216.045"/>
<polygon fill="black" stroke="black" points="2325.88,-217.201 2315.43,-220.516 2320.92,-216.623 2315.95,-216.046 2315.95,-216.046 2315.95,-216.046 2320.92,-216.623 2316.47,-211.576 2325.88,-217.201 2325.88,-217.201"/>
</g>
<!-- 25 -->
<g id="node26" class="node"><title>25</title>
<polygon fill="none" stroke="black" points="2737.5,-252 2550.5,-252 2550.5,-216 2737.5,-216 2737.5,-252"/>
<text text-anchor="middle" x="2644" y="-230.3" font-family="Times,serif" font-size="14.00">Policies.EpsilonExpDecreasing</text>
</g>
<!-- 16&#45;&gt;25 -->
<g id="edge32" class="edge"><title>16&#45;&gt;25</title>
<path fill="none" stroke="black" d="M1711.77,-163.737C1820.87,-166.671 2209.26,-179.142 2540.05,-215.968"/>
<polygon fill="black" stroke="black" points="2550.31,-217.12 2539.87,-220.476 2545.34,-216.562 2540.37,-216.004 2540.37,-216.004 2540.37,-216.004 2545.34,-216.562 2540.87,-211.532 2550.31,-217.12 2550.31,-217.12"/>
</g>
<!-- 26 -->
<g id="node27" class="node"><title>26</title>
<polygon fill="none" stroke="black" points="2085.5,-252 1956.5,-252 1956.5,-216 2085.5,-216 2085.5,-252"/>
<text text-anchor="middle" x="2021" y="-230.3" font-family="Times,serif" font-size="14.00">Policies.EpsilonFirst</text>
</g>
<!-- 16&#45;&gt;26 -->
<g id="edge33" class="edge"><title>16&#45;&gt;26</title>
<path fill="none" stroke="black" d="M1711.66,-168.936C1759.95,-178.628 1858.59,-198.524 1942,-216 1943.46,-216.306 1944.93,-216.615 1946.42,-216.928"/>
<polygon fill="black" stroke="black" points="1956.34,-219.027 1945.63,-221.36 1951.45,-217.992 1946.56,-216.958 1946.56,-216.958 1946.56,-216.958 1951.45,-217.992 1947.49,-212.555 1956.34,-219.027 1956.34,-219.027"/>
</g>
<!-- 27 -->
<g id="node28" class="node"><title>27</title>
<polygon fill="none" stroke="black" points="2446,-324 2302,-324 2302,-288 2446,-288 2446,-324"/>
<text text-anchor="middle" x="2374" y="-302.3" font-family="Times,serif" font-size="14.00">Policies.EpsilonGreedy</text>
</g>
<!-- 16&#45;&gt;27 -->
<g id="edge34" class="edge"><title>16&#45;&gt;27</title>
<path fill="none" stroke="black" d="M1711.66,-164.48C1794.32,-168.971 2025.71,-184.127 2094,-216 2115.38,-225.977 2112.09,-241.087 2133,-252 2136.67,-253.913 2223.58,-272.799 2291.99,-287.488"/>
<polygon fill="black" stroke="black" points="2301.94,-289.622 2291.22,-291.924 2297.05,-288.573 2292.16,-287.524 2292.16,-287.524 2292.16,-287.524 2297.05,-288.573 2293.1,-283.124 2301.94,-289.622 2301.94,-289.622"/>
</g>
<!-- 28 -->
<g id="node29" class="node"><title>28</title>
<polygon fill="none" stroke="black" points="2509,-396 2417,-396 2417,-360 2509,-360 2509,-396"/>
<text text-anchor="middle" x="2463" y="-374.3" font-family="Times,serif" font-size="14.00">Policies.Exp3</text>
</g>
<!-- 16&#45;&gt;28 -->
<g id="edge35" class="edge"><title>16&#45;&gt;28</title>
<path fill="none" stroke="black" d="M1711.56,-163.337C1879.7,-165.394 2709.35,-177.477 2746,-216 2821.32,-295.166 2621.52,-346.576 2519.15,-367.007"/>
<polygon fill="black" stroke="black" points="2509.26,-368.945 2518.21,-362.606 2514.16,-367.983 2519.07,-367.022 2519.07,-367.022 2519.07,-367.022 2514.16,-367.983 2519.94,-371.438 2509.26,-368.945 2509.26,-368.945"/>
</g>
<!-- 31 -->
<g id="node32" class="node"><title>31</title>
<polygon fill="none" stroke="black" points="2591,-468 2487,-468 2487,-432 2591,-432 2591,-468"/>
<text text-anchor="middle" x="2539" y="-446.3" font-family="Times,serif" font-size="14.00">Policies.MEGA</text>
</g>
<!-- 16&#45;&gt;31 -->
<g id="edge36" class="edge"><title>16&#45;&gt;31</title>
<path fill="none" stroke="black" d="M1711.64,-163.306C1882.13,-165.204 2731.5,-176.623 2769,-216 2844.46,-295.225 2676.41,-387.039 2588.38,-427.72"/>
<polygon fill="black" stroke="black" points="2579.09,-431.96 2586.32,-423.714 2583.64,-429.884 2588.19,-427.808 2588.19,-427.808 2588.19,-427.808 2583.64,-429.884 2590.06,-431.901 2579.09,-431.96 2579.09,-431.96"/>
</g>
<!-- 32 -->
<g id="node33" class="node"><title>32</title>
<polygon fill="none" stroke="black" points="1600.5,-396 1499.5,-396 1499.5,-360 1600.5,-360 1600.5,-396"/>
<text text-anchor="middle" x="1550" y="-374.3" font-family="Times,serif" font-size="14.00">Policies.MOSS</text>
</g>
<!-- 16&#45;&gt;32 -->
<g id="edge37" class="edge"><title>16&#45;&gt;32</title>
<path fill="none" stroke="black" d="M1652.19,-172.519C1631.16,-180.754 1603.99,-194.735 1588,-216 1558.18,-255.669 1551.3,-315.14 1549.98,-349.606"/>
<polygon fill="black" stroke="black" points="1549.73,-359.861 1545.48,-349.752 1549.85,-354.863 1549.98,-349.864 1549.98,-349.864 1549.98,-349.864 1549.85,-354.863 1554.48,-349.976 1549.73,-359.861 1549.73,-359.861"/>
</g>
<!-- 33 -->
<g id="node34" class="node"><title>33</title>
<polygon fill="none" stroke="black" points="2820.5,-468 2683.5,-468 2683.5,-432 2820.5,-432 2820.5,-468"/>
<text text-anchor="middle" x="2752" y="-446.3" font-family="Times,serif" font-size="14.00">Policies.MusicalChair</text>
</g>
<!-- 16&#45;&gt;33 -->
<g id="edge38" class="edge"><title>16&#45;&gt;33</title>
<path fill="none" stroke="black" d="M1711.73,-163.274C1884.66,-165.011 2754.61,-175.732 2793,-216 2847.34,-272.992 2797.29,-375.3 2768.74,-423.085"/>
<polygon fill="black" stroke="black" points="2763.35,-431.886 2764.73,-421.008 2765.96,-427.622 2768.57,-423.357 2768.57,-423.357 2768.57,-423.357 2765.96,-427.622 2772.41,-425.707 2763.35,-431.886 2763.35,-431.886"/>
</g>
<!-- 35 -->
<g id="node36" class="node"><title>35</title>
<polygon fill="none" stroke="black" points="2979,-396 2869,-396 2869,-360 2979,-360 2979,-396"/>
<text text-anchor="middle" x="2924" y="-374.3" font-family="Times,serif" font-size="14.00">Policies.Softmax</text>
</g>
<!-- 16&#45;&gt;35 -->
<g id="edge39" class="edge"><title>16&#45;&gt;35</title>
<path fill="none" stroke="black" d="M1711.7,-163.454C1889.47,-166.285 2806.58,-182.477 2855,-216 2899.49,-246.8 2915.47,-312.565 2921.08,-349.809"/>
<polygon fill="black" stroke="black" points="2922.45,-359.944 2916.65,-350.64 2921.78,-354.989 2921.11,-350.035 2921.11,-350.035 2921.11,-350.035 2921.78,-354.989 2925.57,-349.43 2922.45,-359.944 2922.45,-359.944"/>
</g>
<!-- 36 -->
<g id="node37" class="node"><title>36</title>
<polygon fill="none" stroke="black" points="554,-324 408,-324 408,-288 554,-288 554,-324"/>
<text text-anchor="middle" x="481" y="-302.3" font-family="Times,serif" font-size="14.00">Policies.TakeFixedArm</text>
</g>
<!-- 16&#45;&gt;36 -->
<g id="edge40" class="edge"><title>16&#45;&gt;36</title>
<path fill="none" stroke="black" d="M1652.44,-163.054C1462.57,-163.539 420.738,-168.369 375,-216 363.918,-227.541 366.588,-238.39 375,-252 383.341,-265.496 396.274,-275.67 410.276,-283.299"/>
<polygon fill="black" stroke="black" points="419.595,-287.954 408.638,-287.511 415.122,-285.72 410.649,-283.485 410.649,-283.485 410.649,-283.485 415.122,-285.72 412.66,-279.46 419.595,-287.954 419.595,-287.954"/>
</g>
<!-- 37 -->
<g id="node38" class="node"><title>37</title>
<polygon fill="none" stroke="black" points="577.5,-252 384.5,-252 384.5,-216 577.5,-216 577.5,-252"/>
<text text-anchor="middle" x="481" y="-230.3" font-family="Times,serif" font-size="14.00">Policies.TakeRandomFixedArm</text>
</g>
<!-- 16&#45;&gt;37 -->
<g id="edge41" class="edge"><title>16&#45;&gt;37</title>
<path fill="none" stroke="black" d="M1652.11,-163.761C1526.73,-167.107 1031.01,-181.894 625,-216 612.926,-217.014 600.301,-218.248 587.76,-219.583"/>
<polygon fill="black" stroke="black" points="577.733,-220.673 587.188,-215.119 582.704,-220.133 587.674,-219.592 587.674,-219.592 587.674,-219.592 582.704,-220.133 588.161,-224.066 577.733,-220.673 577.733,-220.673"/>
</g>
<!-- 38 -->
<g id="node39" class="node"><title>38</title>
<polygon fill="none" stroke="black" points="1188,-252 1066,-252 1066,-216 1188,-216 1188,-252"/>
<text text-anchor="middle" x="1127" y="-230.3" font-family="Times,serif" font-size="14.00">Policies.Thompson</text>
</g>
<!-- 16&#45;&gt;38 -->
<g id="edge42" class="edge"><title>16&#45;&gt;38</title>
<path fill="none" stroke="black" d="M1652.29,-164.902C1577.56,-169.971 1375.71,-185.428 1198.39,-215.878"/>
<polygon fill="black" stroke="black" points="1188.37,-217.621 1197.45,-211.475 1193.29,-216.765 1198.22,-215.909 1198.22,-215.909 1198.22,-215.909 1193.29,-216.765 1198.99,-220.342 1188.37,-217.621 1188.37,-217.621"/>
</g>
<!-- 39 -->
<g id="node40" class="node"><title>39</title>
<polygon fill="none" stroke="black" points="1841.5,-396 1750.5,-396 1750.5,-360 1841.5,-360 1841.5,-396"/>
<text text-anchor="middle" x="1796" y="-374.3" font-family="Times,serif" font-size="14.00">Policies.UCB</text>
</g>
<!-- 16&#45;&gt;39 -->
<g id="edge43" class="edge"><title>16&#45;&gt;39</title>
<path fill="none" stroke="black" d="M1652.31,-175.503C1635.72,-184.215 1616.53,-197.594 1607,-216 1584.93,-258.624 1578,-285.75 1607,-324 1623.18,-345.341 1690.73,-360.455 1740.48,-368.944"/>
<polygon fill="black" stroke="black" points="1750.49,-370.604 1739.88,-373.406 1745.55,-369.785 1740.62,-368.967 1740.62,-368.967 1740.62,-368.967 1745.55,-369.785 1741.36,-364.528 1750.49,-370.604 1750.49,-370.604"/>
</g>
<!-- 40 -->
<g id="node41" class="node"><title>40</title>
<polygon fill="none" stroke="black" points="1717.5,-324 1616.5,-324 1616.5,-288 1717.5,-288 1717.5,-324"/>
<text text-anchor="middle" x="1667" y="-302.3" font-family="Times,serif" font-size="14.00">Policies.UCBV</text>
</g>
<!-- 16&#45;&gt;40 -->
<g id="edge44" class="edge"><title>16&#45;&gt;40</title>
<path fill="none" stroke="black" d="M1711.69,-175.802C1727.97,-184.552 1746.68,-197.868 1756,-216 1763.31,-230.231 1763.91,-238.09 1756,-252 1748.64,-264.957 1736.71,-275.08 1723.95,-282.845"/>
<polygon fill="black" stroke="black" points="1715.03,-287.85 1721.55,-279.032 1719.39,-285.403 1723.75,-282.957 1723.75,-282.957 1723.75,-282.957 1719.39,-285.403 1725.95,-286.881 1715.03,-287.85 1715.03,-287.85"/>
</g>
<!-- 41 -->
<g id="node42" class="node"><title>41</title>
<polygon fill="none" stroke="black" points="1747.5,-252 1616.5,-252 1616.5,-216 1747.5,-216 1747.5,-252"/>
<text text-anchor="middle" x="1682" y="-230.3" font-family="Times,serif" font-size="14.00">Policies.UCBVtuned</text>
</g>
<!-- 16&#45;&gt;41 -->
<g id="edge45" class="edge"><title>16&#45;&gt;41</title>
<path fill="none" stroke="black" d="M1682,-180.303C1682,-188.017 1682,-197.288 1682,-205.888"/>
<polygon fill="black" stroke="black" points="1682,-215.896 1677.5,-205.896 1682,-210.896 1682,-205.896 1682,-205.896 1682,-205.896 1682,-210.896 1686.5,-205.896 1682,-215.896 1682,-215.896"/>
</g>
<!-- 42 -->
<g id="node43" class="node"><title>42</title>
<polygon fill="none" stroke="black" points="1856,-324 1736,-324 1736,-288 1856,-288 1856,-324"/>
<text text-anchor="middle" x="1796" y="-302.3" font-family="Times,serif" font-size="14.00">Policies.UCBalpha</text>
</g>
<!-- 16&#45;&gt;42 -->
<g id="edge46" class="edge"><title>16&#45;&gt;42</title>
<path fill="none" stroke="black" d="M1711.6,-173.215C1731.78,-181.657 1757.55,-195.595 1773,-216 1786.51,-233.844 1792.12,-258.85 1794.43,-277.814"/>
<polygon fill="black" stroke="black" points="1795.43,-287.912 1789.97,-278.401 1794.94,-282.937 1794.45,-277.961 1794.45,-277.961 1794.45,-277.961 1794.94,-282.937 1798.93,-277.52 1795.43,-287.912 1795.43,-287.912"/>
</g>
<!-- 43 -->
<g id="node44" class="node"><title>43</title>
<polygon fill="none" stroke="black" points="1982,-324 1874,-324 1874,-288 1982,-288 1982,-324"/>
<text text-anchor="middle" x="1928" y="-302.3" font-family="Times,serif" font-size="14.00">Policies.UCBopt</text>
</g>
<!-- 16&#45;&gt;43 -->
<g id="edge47" class="edge"><title>16&#45;&gt;43</title>
<path fill="none" stroke="black" d="M1711.69,-175.266C1735.08,-185.292 1768.25,-200.327 1796,-216 1831.67,-236.152 1870.3,-262.809 1896.49,-281.68"/>
<polygon fill="black" stroke="black" points="1904.87,-287.76 1894.13,-285.532 1900.82,-284.825 1896.78,-281.889 1896.78,-281.889 1896.78,-281.889 1900.82,-284.825 1899.42,-278.246 1904.87,-287.76 1904.87,-287.76"/>
</g>
<!-- 44 -->
<g id="node45" class="node"><title>44</title>
<polygon fill="none" stroke="black" points="2113.5,-324 2000.5,-324 2000.5,-288 2113.5,-288 2113.5,-324"/>
<text text-anchor="middle" x="2057" y="-302.3" font-family="Times,serif" font-size="14.00">Policies.UCBplus</text>
</g>
<!-- 16&#45;&gt;44 -->
<g id="edge48" class="edge"><title>16&#45;&gt;44</title>
<path fill="none" stroke="black" d="M1711.7,-171.97C1743.36,-181.793 1794.79,-198.492 1838,-216 1872.64,-230.035 1879.56,-237.492 1914,-252 1941.26,-263.483 1971.97,-275.038 1997.91,-284.415"/>
<polygon fill="black" stroke="black" points="2007.61,-287.897 1996.68,-288.752 2002.9,-286.207 1998.2,-284.517 1998.2,-284.517 1998.2,-284.517 2002.9,-286.207 1999.72,-280.282 2007.61,-287.897 2007.61,-287.897"/>
</g>
<!-- 45 -->
<g id="node46" class="node"><title>45</title>
<polygon fill="none" stroke="black" points="2284,-324 2132,-324 2132,-288 2284,-288 2284,-324"/>
<text text-anchor="middle" x="2208" y="-302.3" font-family="Times,serif" font-size="14.00">Policies.UCBrandomInit</text>
</g>
<!-- 16&#45;&gt;45 -->
<g id="edge49" class="edge"><title>16&#45;&gt;45</title>
<path fill="none" stroke="black" d="M1711.54,-167.518C1752.74,-174.484 1829.24,-189.852 1890,-216 1917.52,-227.845 1919.19,-240.835 1947,-252 1951.19,-253.682 2047.48,-273.052 2121.89,-287.893"/>
<polygon fill="black" stroke="black" points="2131.77,-289.862 2121.08,-292.32 2126.87,-288.885 2121.96,-287.907 2121.96,-287.907 2121.96,-287.907 2126.87,-288.885 2122.84,-283.494 2131.77,-289.862 2131.77,-289.862"/>
</g>
<!-- 46 -->
<g id="node47" class="node"><title>46</title>
<polygon fill="none" stroke="black" points="801,-324 691,-324 691,-288 801,-288 801,-324"/>
<text text-anchor="middle" x="746" y="-302.3" font-family="Times,serif" font-size="14.00">Policies.Uniform</text>
</g>
<!-- 16&#45;&gt;46 -->
<g id="edge50" class="edge"><title>16&#45;&gt;46</title>
<path fill="none" stroke="black" d="M1652.37,-163.714C1512.25,-167.247 919.687,-183.979 844,-216 835.283,-219.688 797.202,-255.485 771.16,-280.538"/>
<polygon fill="black" stroke="black" points="763.839,-287.603 767.911,-277.42 767.437,-284.131 771.035,-280.659 771.035,-280.659 771.035,-280.659 767.437,-284.131 774.16,-283.897 763.839,-287.603 763.839,-287.603"/>
</g>
<!-- 47 -->
<g id="node48" class="node"><title>47</title>
<polygon fill="none" stroke="black" points="792,-252 634,-252 634,-216 792,-216 792,-252"/>
<text text-anchor="middle" x="713" y="-230.3" font-family="Times,serif" font-size="14.00">Policies.UniformOnSome</text>
</g>
<!-- 16&#45;&gt;47 -->
<g id="edge51" class="edge"><title>16&#45;&gt;47</title>
<path fill="none" stroke="black" d="M1652.39,-163.5C1540.98,-165.655 1136.49,-175.944 806,-216 804.717,-216.156 803.425,-216.318 802.125,-216.486"/>
<polygon fill="black" stroke="black" points="792.049,-217.881 801.337,-212.052 797.002,-217.195 801.954,-216.509 801.954,-216.509 801.954,-216.509 797.002,-217.195 802.572,-220.967 792.049,-217.881 792.049,-217.881"/>
</g>
<!-- 48 -->
<g id="node49" class="node"><title>48</title>
<polygon fill="none" stroke="black" points="1521.5,-324 1420.5,-324 1420.5,-288 1521.5,-288 1521.5,-324"/>
<text text-anchor="middle" x="1471" y="-302.3" font-family="Times,serif" font-size="14.00">Policies.klUCB</text>
</g>
<!-- 16&#45;&gt;48 -->
<g id="edge52" class="edge"><title>16&#45;&gt;48</title>
<path fill="none" stroke="black" d="M1652.41,-163.707C1584.49,-166.018 1420.68,-175.735 1387,-216 1376.74,-228.273 1379.27,-237.989 1387,-252 1394.1,-264.882 1405.8,-275.064 1418.24,-282.915"/>
<polygon fill="black" stroke="black" points="1426.93,-287.983 1416.02,-286.829 1422.61,-285.463 1418.29,-282.943 1418.29,-282.943 1418.29,-282.943 1422.61,-285.463 1420.56,-279.056 1426.93,-287.983 1426.93,-287.983"/>
</g>
<!-- 49 -->
<g id="node50" class="node"><title>49</title>
<polygon fill="none" stroke="black" points="1340,-252 1206,-252 1206,-216 1340,-216 1340,-252"/>
<text text-anchor="middle" x="1273" y="-230.3" font-family="Times,serif" font-size="14.00">Policies.klUCBHPlus</text>
</g>
<!-- 16&#45;&gt;49 -->
<g id="edge53" class="edge"><title>16&#45;&gt;49</title>
<path fill="none" stroke="black" d="M1652.07,-167.358C1594.3,-175.876 1463.46,-195.682 1354,-216 1352.73,-216.236 1351.45,-216.476 1350.16,-216.721"/>
<polygon fill="black" stroke="black" points="1340.14,-218.658 1349.1,-212.341 1345.04,-217.709 1349.95,-216.76 1349.95,-216.76 1349.95,-216.76 1345.04,-217.709 1350.81,-221.178 1340.14,-218.658 1340.14,-218.658"/>
</g>
<!-- 50 -->
<g id="node51" class="node"><title>50</title>
<polygon fill="none" stroke="black" points="1521.5,-252 1396.5,-252 1396.5,-216 1521.5,-216 1521.5,-252"/>
<text text-anchor="middle" x="1459" y="-230.3" font-family="Times,serif" font-size="14.00">Policies.klUCBPlus</text>
</g>
<!-- 16&#45;&gt;50 -->
<g id="edge54" class="edge"><title>16&#45;&gt;50</title>
<path fill="none" stroke="black" d="M1652.39,-172.295C1619.52,-182.612 1565.5,-199.568 1522.9,-212.942"/>
<polygon fill="black" stroke="black" points="1513.17,-215.997 1521.36,-208.708 1517.94,-214.499 1522.71,-213.002 1522.71,-213.002 1522.71,-213.002 1517.94,-214.499 1524.06,-217.295 1513.17,-215.997 1513.17,-215.997"/>
</g>
<!-- 19 -->
<g id="node20" class="node"><title>19</title>
<polygon fill="none" stroke="black" points="1878,-540 1754,-540 1754,-504 1878,-504 1878,-540"/>
<text text-anchor="middle" x="1816" y="-518.3" font-family="Times,serif" font-size="14.00">Policies.BasePolicy</text>
</g>
<!-- 17&#45;&gt;19 -->
<g id="edge55" class="edge"><title>17&#45;&gt;19</title>
<path fill="none" stroke="black" d="M922.978,-324.183C933.922,-358.47 963.62,-434.919 1019,-468 1080.31,-504.62 1558.94,-516.623 1743.63,-519.915"/>
<polygon fill="black" stroke="black" points="1753.79,-520.092 1743.71,-524.417 1748.79,-520.005 1743.79,-519.917 1743.79,-519.917 1743.79,-519.917 1748.79,-520.005 1743.87,-515.418 1753.79,-520.092 1753.79,-520.092"/>
</g>
<!-- 22 -->
<g id="node23" class="node"><title>22</title>
<polygon fill="none" stroke="black" points="1128,-396 1040,-396 1040,-360 1128,-360 1128,-396"/>
<text text-anchor="middle" x="1084" y="-374.3" font-family="Times,serif" font-size="14.00">Policies.Beta</text>
</g>
<!-- 17&#45;&gt;22 -->
<g id="edge56" class="edge"><title>17&#45;&gt;22</title>
<path fill="none" stroke="black" d="M958.608,-324.124C981.402,-333.736 1010.03,-345.807 1034.17,-355.987"/>
<polygon fill="black" stroke="black" points="1043.52,-359.932 1032.56,-360.193 1038.92,-357.989 1034.31,-356.046 1034.31,-356.046 1034.31,-356.046 1038.92,-357.989 1036.06,-351.9 1043.52,-359.932 1043.52,-359.932"/>
</g>
<!-- 18&#45;&gt;19 -->
<g id="edge57" class="edge"><title>18&#45;&gt;19</title>
<path fill="none" stroke="black" d="M909.609,-459.717C926.901,-462.747 946.805,-465.908 965,-468 1252.23,-501.025 1596.53,-514.508 1743.63,-519.045"/>
<polygon fill="black" stroke="black" points="1753.87,-519.356 1743.74,-523.55 1748.88,-519.204 1743.88,-519.052 1743.88,-519.052 1743.88,-519.052 1748.88,-519.204 1744.01,-514.554 1753.87,-519.356 1753.87,-519.356"/>
</g>
<!-- 21 -->
<g id="node22" class="node"><title>21</title>
<polygon fill="none" stroke="black" points="1213,-324 1035,-324 1035,-288 1213,-288 1213,-324"/>
<text text-anchor="middle" x="1124" y="-302.3" font-family="Times,serif" font-size="14.00">Policies.BayesianIndexPolicy</text>
</g>
<!-- 20&#45;&gt;21 -->
<g id="edge58" class="edge"><title>20&#45;&gt;21</title>
<path fill="none" stroke="black" d="M1019.76,-252.124C1038.22,-261.488 1061.28,-273.186 1081.02,-283.197"/>
<polygon fill="black" stroke="black" points="1090.11,-287.81 1079.16,-287.3 1085.65,-285.548 1081.19,-283.286 1081.19,-283.286 1081.19,-283.286 1085.65,-285.548 1083.23,-279.273 1090.11,-287.81 1090.11,-287.81"/>
</g>
<!-- 21&#45;&gt;22 -->
<g id="edge59" class="edge"><title>21&#45;&gt;22</title>
<path fill="none" stroke="black" d="M1114.11,-324.303C1109.51,-332.356 1103.94,-342.106 1098.85,-351.018"/>
<polygon fill="black" stroke="black" points="1093.77,-359.896 1094.83,-348.981 1096.25,-355.554 1098.74,-351.213 1098.74,-351.213 1098.74,-351.213 1096.25,-355.554 1102.64,-353.446 1093.77,-359.896 1093.77,-359.896"/>
</g>
<!-- 29 -->
<g id="node30" class="node"><title>29</title>
<polygon fill="none" stroke="black" points="1574,-468 1446,-468 1446,-432 1574,-432 1574,-468"/>
<text text-anchor="middle" x="1510" y="-446.3" font-family="Times,serif" font-size="14.00">Policies.IndexPolicy</text>
</g>
<!-- 21&#45;&gt;29 -->
<g id="edge60" class="edge"><title>21&#45;&gt;29</title>
<path fill="none" stroke="black" d="M1136.69,-324.182C1152.89,-344.77 1182.95,-378.652 1217,-396 1285.83,-431.066 1374.14,-443.253 1435.73,-447.323"/>
<polygon fill="black" stroke="black" points="1445.76,-447.93 1435.51,-451.818 1440.77,-447.628 1435.78,-447.326 1435.78,-447.326 1435.78,-447.326 1440.77,-447.628 1436.05,-442.834 1445.76,-447.93 1445.76,-447.93"/>
</g>
<!-- 34 -->
<g id="node35" class="node"><title>34</title>
<polygon fill="none" stroke="black" points="1140,-468 1028,-468 1028,-432 1140,-432 1140,-468"/>
<text text-anchor="middle" x="1084" y="-446.3" font-family="Times,serif" font-size="14.00">Policies.Posterior</text>
</g>
<!-- 22&#45;&gt;34 -->
<g id="edge61" class="edge"><title>22&#45;&gt;34</title>
<path fill="none" stroke="black" d="M1084,-396.303C1084,-404.017 1084,-413.288 1084,-421.888"/>
<polygon fill="black" stroke="black" points="1084,-431.896 1079.5,-421.896 1084,-426.896 1084,-421.896 1084,-421.896 1084,-421.896 1084,-426.896 1088.5,-421.896 1084,-431.896 1084,-431.896"/>
</g>
<!-- 23&#45;&gt;27 -->
<g id="edge62" class="edge"><title>23&#45;&gt;27</title>
<path fill="none" stroke="black" d="M2261.45,-252.124C2281.64,-261.608 2306.92,-273.487 2328.41,-283.581"/>
<polygon fill="black" stroke="black" points="2337.67,-287.932 2326.7,-287.752 2333.14,-285.806 2328.62,-283.68 2328.62,-283.68 2328.62,-283.68 2333.14,-285.806 2330.53,-279.607 2337.67,-287.932 2337.67,-287.932"/>
</g>
<!-- 24&#45;&gt;27 -->
<g id="edge63" class="edge"><title>24&#45;&gt;27</title>
<path fill="none" stroke="black" d="M2415.4,-252.303C2408.88,-260.611 2400.93,-270.723 2393.75,-279.859"/>
<polygon fill="black" stroke="black" points="2387.44,-287.896 2390.08,-277.252 2390.53,-283.964 2393.62,-280.032 2393.62,-280.032 2393.62,-280.032 2390.53,-283.964 2397.16,-282.813 2387.44,-287.896 2387.44,-287.896"/>
</g>
<!-- 25&#45;&gt;27 -->
<g id="edge64" class="edge"><title>25&#45;&gt;27</title>
<path fill="none" stroke="black" d="M2578.3,-252.034C2539.5,-262.091 2490.24,-274.864 2449.81,-285.346"/>
<polygon fill="black" stroke="black" points="2440,-287.889 2448.55,-281.024 2444.84,-286.634 2449.68,-285.379 2449.68,-285.379 2449.68,-285.379 2444.84,-286.634 2450.81,-289.735 2440,-287.889 2440,-287.889"/>
</g>
<!-- 26&#45;&gt;27 -->
<g id="edge65" class="edge"><title>26&#45;&gt;27</title>
<path fill="none" stroke="black" d="M2085.64,-249.061C2090.5,-250.071 2095.32,-251.061 2100,-252 2182.46,-268.559 2205.74,-270.883 2291.66,-287.759"/>
<polygon fill="black" stroke="black" points="2301.59,-289.719 2290.91,-292.197 2296.69,-288.751 2291.78,-287.783 2291.78,-287.783 2291.78,-287.783 2296.69,-288.751 2292.65,-283.368 2301.59,-289.719 2301.59,-289.719"/>
</g>
<!-- 27&#45;&gt;19 -->
<g id="edge66" class="edge"><title>27&#45;&gt;19</title>
<path fill="none" stroke="black" d="M2329.28,-324.151C2227.73,-363.095 1980.07,-458.079 1870.12,-500.246"/>
<polygon fill="black" stroke="black" points="1860.55,-503.916 1868.27,-496.134 1865.21,-502.126 1869.88,-500.335 1869.88,-500.335 1869.88,-500.335 1865.21,-502.126 1871.49,-504.537 1860.55,-503.916 1860.55,-503.916"/>
</g>
<!-- 28&#45;&gt;19 -->
<g id="edge67" class="edge"><title>28&#45;&gt;19</title>
<path fill="none" stroke="black" d="M2416.8,-393.172C2353.79,-412.13 2237.17,-445.914 2136,-468 2051.66,-486.412 1953.58,-501.778 1888.46,-511.144"/>
<polygon fill="black" stroke="black" points="1878.3,-512.595 1887.56,-506.726 1883.25,-511.888 1888.2,-511.181 1888.2,-511.181 1888.2,-511.181 1883.25,-511.888 1888.84,-515.636 1878.3,-512.595 1878.3,-512.595"/>
</g>
<!-- 29&#45;&gt;19 -->
<g id="edge68" class="edge"><title>29&#45;&gt;19</title>
<path fill="none" stroke="black" d="M1574.15,-465.674C1623.68,-477.006 1692.24,-492.688 1743.71,-504.463"/>
<polygon fill="black" stroke="black" points="1753.77,-506.764 1743.02,-508.92 1748.89,-505.649 1744.02,-504.534 1744.02,-504.534 1744.02,-504.534 1748.89,-505.649 1745.02,-500.147 1753.77,-506.764 1753.77,-506.764"/>
</g>
<!-- 30 -->
<g id="node31" class="node"><title>30</title>
<polygon fill="none" stroke="black" points="1402.5,-324 1269.5,-324 1269.5,-288 1402.5,-288 1402.5,-324"/>
<text text-anchor="middle" x="1336" y="-302.3" font-family="Times,serif" font-size="14.00">Policies.KLempUCB</text>
</g>
<!-- 30&#45;&gt;29 -->
<g id="edge69" class="edge"><title>30&#45;&gt;29</title>
<path fill="none" stroke="black" d="M1356.99,-324.129C1387.95,-349.396 1445.97,-396.746 1480.99,-425.321"/>
<polygon fill="black" stroke="black" points="1488.94,-431.811 1478.34,-428.974 1485.06,-428.649 1481.19,-425.488 1481.19,-425.488 1481.19,-425.488 1485.06,-428.649 1484.03,-422.002 1488.94,-431.811 1488.94,-431.811"/>
</g>
<!-- 51 -->
<g id="node52" class="node"><title>51</title>
<polygon fill="none" stroke="black" points="1336,-396 1226,-396 1226,-360 1336,-360 1336,-396"/>
<text text-anchor="middle" x="1281" y="-374.3" font-family="Times,serif" font-size="14.00">Policies.kullback</text>
</g>
<!-- 30&#45;&gt;51 -->
<g id="edge70" class="edge"><title>30&#45;&gt;51</title>
<path fill="none" stroke="black" d="M1322.4,-324.303C1315.88,-332.611 1307.93,-342.723 1300.75,-351.859"/>
<polygon fill="black" stroke="black" points="1294.44,-359.896 1297.08,-349.252 1297.53,-355.964 1300.62,-352.032 1300.62,-352.032 1300.62,-352.032 1297.53,-355.964 1304.16,-354.813 1294.44,-359.896 1294.44,-359.896"/>
</g>
<!-- 31&#45;&gt;19 -->
<g id="edge71" class="edge"><title>31&#45;&gt;19</title>
<path fill="none" stroke="black" d="M2486.71,-456.062C2359.53,-468.376 2033.8,-499.913 1888.21,-514.009"/>
<polygon fill="black" stroke="black" points="1878.04,-514.993 1887.56,-509.551 1883.02,-514.512 1887.99,-514.03 1887.99,-514.03 1887.99,-514.03 1883.02,-514.512 1888.43,-518.509 1878.04,-514.993 1878.04,-514.993"/>
</g>
<!-- 32&#45;&gt;29 -->
<g id="edge72" class="edge"><title>32&#45;&gt;29</title>
<path fill="none" stroke="black" d="M1540.11,-396.303C1535.51,-404.356 1529.94,-414.106 1524.85,-423.018"/>
<polygon fill="black" stroke="black" points="1519.77,-431.896 1520.83,-420.981 1522.25,-427.554 1524.74,-423.213 1524.74,-423.213 1524.74,-423.213 1522.25,-427.554 1528.64,-425.446 1519.77,-431.896 1519.77,-431.896"/>
</g>
<!-- 33&#45;&gt;19 -->
<g id="edge73" class="edge"><title>33&#45;&gt;19</title>
<path fill="none" stroke="black" d="M2683.21,-459.341C2657.17,-462.328 2627.24,-465.557 2600,-468 2338.2,-491.478 2026.36,-509.638 1888.12,-517.186"/>
<polygon fill="black" stroke="black" points="1878.07,-517.732 1887.81,-512.696 1883.06,-517.461 1888.05,-517.189 1888.05,-517.189 1888.05,-517.189 1883.06,-517.461 1888.3,-521.682 1878.07,-517.732 1878.07,-517.732"/>
</g>
<!-- 35&#45;&gt;19 -->
<g id="edge74" class="edge"><title>35&#45;&gt;19</title>
<path fill="none" stroke="black" d="M2911.86,-396.17C2895.71,-417.423 2864.97,-452.683 2829,-468 2743.17,-504.546 2105.46,-516.903 1888.23,-520.077"/>
<polygon fill="black" stroke="black" points="1878.2,-520.221 1888.14,-515.577 1883.2,-520.149 1888.2,-520.077 1888.2,-520.077 1888.2,-520.077 1883.2,-520.149 1888.27,-524.576 1878.2,-520.221 1878.2,-520.221"/>
</g>
<!-- 36&#45;&gt;19 -->
<g id="edge75" class="edge"><title>36&#45;&gt;19</title>
<path fill="none" stroke="black" d="M503.794,-324.265C551.22,-359.058 665.255,-436.924 775,-468 957.463,-519.667 1538.91,-522.259 1743.75,-521.5"/>
<polygon fill="black" stroke="black" points="1753.79,-521.459 1743.81,-526 1748.79,-521.48 1743.79,-521.5 1743.79,-521.5 1743.79,-521.5 1748.79,-521.48 1743.78,-517 1753.79,-521.459 1753.79,-521.459"/>
</g>
<!-- 37&#45;&gt;36 -->
<g id="edge76" class="edge"><title>37&#45;&gt;36</title>
<path fill="none" stroke="black" d="M481,-252.303C481,-260.017 481,-269.288 481,-277.888"/>
<polygon fill="black" stroke="black" points="481,-287.896 476.5,-277.896 481,-282.896 481,-277.896 481,-277.896 481,-277.896 481,-282.896 485.5,-277.896 481,-287.896 481,-287.896"/>
</g>
<!-- 38&#45;&gt;21 -->
<g id="edge77" class="edge"><title>38&#45;&gt;21</title>
<path fill="none" stroke="black" d="M1126.26,-252.303C1125.93,-260.017 1125.53,-269.288 1125.16,-277.888"/>
<polygon fill="black" stroke="black" points="1124.73,-287.896 1120.67,-277.712 1124.95,-282.9 1125.16,-277.905 1125.16,-277.905 1125.16,-277.905 1124.95,-282.9 1129.66,-278.098 1124.73,-287.896 1124.73,-287.896"/>
</g>
<!-- 39&#45;&gt;29 -->
<g id="edge78" class="edge"><title>39&#45;&gt;29</title>
<path fill="none" stroke="black" d="M1750.37,-390.169C1705.62,-401.12 1636.66,-417.999 1584.06,-430.874"/>
<polygon fill="black" stroke="black" points="1574.1,-433.311 1582.75,-426.562 1578.96,-432.122 1583.82,-430.933 1583.82,-430.933 1583.82,-430.933 1578.96,-432.122 1584.89,-435.304 1574.1,-433.311 1574.1,-433.311"/>
</g>
<!-- 40&#45;&gt;39 -->
<g id="edge79" class="edge"><title>40&#45;&gt;39</title>
<path fill="none" stroke="black" d="M1698.56,-324.124C1715.66,-333.404 1736.98,-344.975 1755.32,-354.925"/>
<polygon fill="black" stroke="black" points="1764.32,-359.81 1753.39,-358.996 1759.93,-357.426 1755.53,-355.041 1755.53,-355.041 1755.53,-355.041 1759.93,-357.426 1757.68,-351.086 1764.32,-359.81 1764.32,-359.81"/>
</g>
<!-- 41&#45;&gt;40 -->
<g id="edge80" class="edge"><title>41&#45;&gt;40</title>
<path fill="none" stroke="black" d="M1678.29,-252.303C1676.64,-260.017 1674.65,-269.288 1672.81,-277.888"/>
<polygon fill="black" stroke="black" points="1670.67,-287.896 1668.36,-277.175 1671.71,-283.007 1672.76,-278.118 1672.76,-278.118 1672.76,-278.118 1671.71,-283.007 1677.16,-279.061 1670.67,-287.896 1670.67,-287.896"/>
</g>
<!-- 42&#45;&gt;39 -->
<g id="edge81" class="edge"><title>42&#45;&gt;39</title>
<path fill="none" stroke="black" d="M1796,-324.303C1796,-332.017 1796,-341.288 1796,-349.888"/>
<polygon fill="black" stroke="black" points="1796,-359.896 1791.5,-349.896 1796,-354.896 1796,-349.896 1796,-349.896 1796,-349.896 1796,-354.896 1800.5,-349.896 1796,-359.896 1796,-359.896"/>
</g>
<!-- 43&#45;&gt;39 -->
<g id="edge82" class="edge"><title>43&#45;&gt;39</title>
<path fill="none" stroke="black" d="M1895.71,-324.124C1878.13,-333.446 1856.19,-345.081 1837.37,-355.061"/>
<polygon fill="black" stroke="black" points="1828.41,-359.81 1835.14,-351.15 1832.83,-357.468 1837.25,-355.125 1837.25,-355.125 1837.25,-355.125 1832.83,-357.468 1839.36,-359.101 1828.41,-359.81 1828.41,-359.81"/>
</g>
<!-- 44&#45;&gt;39 -->
<g id="edge83" class="edge"><title>44&#45;&gt;39</title>
<path fill="none" stroke="black" d="M2000.37,-322.189C1956.27,-334.014 1895.41,-350.339 1851.58,-362.092"/>
<polygon fill="black" stroke="black" points="1841.67,-364.751 1850.16,-357.814 1846.5,-363.456 1851.33,-362.161 1851.33,-362.161 1851.33,-362.161 1846.5,-363.456 1852.49,-366.507 1841.67,-364.751 1841.67,-364.751"/>
</g>
<!-- 45&#45;&gt;39 -->
<g id="edge84" class="edge"><title>45&#45;&gt;39</title>
<path fill="none" stroke="black" d="M2131.59,-322.244C2128.35,-322.846 2125.15,-323.434 2122,-324 2027.32,-341.049 1916.72,-358.515 1851.73,-368.529"/>
<polygon fill="black" stroke="black" points="1841.71,-370.071 1850.91,-364.104 1846.65,-369.311 1851.59,-368.551 1851.59,-368.551 1851.59,-368.551 1846.65,-369.311 1852.27,-372.999 1841.71,-370.071 1841.71,-370.071"/>
</g>
<!-- 46&#45;&gt;19 -->
<g id="edge85" class="edge"><title>46&#45;&gt;19</title>
<path fill="none" stroke="black" d="M746.943,-324.233C749.829,-358.261 761.541,-433.745 809,-468 884.239,-522.306 1525.51,-523.014 1743.68,-521.654"/>
<polygon fill="black" stroke="black" points="1753.75,-521.587 1743.78,-526.153 1748.75,-521.62 1743.75,-521.653 1743.75,-521.653 1743.75,-521.653 1748.75,-521.62 1743.72,-517.153 1753.75,-521.587 1753.75,-521.587"/>
</g>
<!-- 47&#45;&gt;46 -->
<g id="edge86" class="edge"><title>47&#45;&gt;46</title>
<path fill="none" stroke="black" d="M721.157,-252.303C724.914,-260.272 729.453,-269.9 733.618,-278.736"/>
<polygon fill="black" stroke="black" points="737.937,-287.896 729.602,-280.769 735.804,-283.373 733.672,-278.85 733.672,-278.85 733.672,-278.85 735.804,-283.373 737.743,-276.931 737.937,-287.896 737.937,-287.896"/>
</g>
<!-- 48&#45;&gt;29 -->
<g id="edge87" class="edge"><title>48&#45;&gt;29</title>
<path fill="none" stroke="black" d="M1473.89,-324.253C1477.1,-342.325 1482.79,-371.441 1490,-396 1492.52,-404.587 1495.78,-413.766 1498.93,-422.032"/>
<polygon fill="black" stroke="black" points="1502.66,-431.559 1494.82,-423.89 1500.84,-426.904 1499.01,-422.248 1499.01,-422.248 1499.01,-422.248 1500.84,-426.904 1503.2,-420.606 1502.66,-431.559 1502.66,-431.559"/>
</g>
<!-- 48&#45;&gt;51 -->
<g id="edge88" class="edge"><title>48&#45;&gt;51</title>
<path fill="none" stroke="black" d="M1424.52,-324.124C1398.08,-333.863 1364.8,-346.128 1336.94,-356.392"/>
<polygon fill="black" stroke="black" points="1327.33,-359.932 1335.16,-352.252 1332.02,-358.203 1336.71,-356.475 1336.71,-356.475 1336.71,-356.475 1332.02,-358.203 1338.27,-360.697 1327.33,-359.932 1327.33,-359.932"/>
</g>
<!-- 49&#45;&gt;48 -->
<g id="edge89" class="edge"><title>49&#45;&gt;48</title>
<path fill="none" stroke="black" d="M1321.18,-252.034C1348.85,-261.815 1383.78,-274.164 1412.95,-284.476"/>
<polygon fill="black" stroke="black" points="1422.6,-287.889 1411.67,-288.799 1417.89,-286.223 1413.17,-284.556 1413.17,-284.556 1413.17,-284.556 1417.89,-286.223 1414.67,-280.313 1422.6,-287.889 1422.6,-287.889"/>
</g>
<!-- 49&#45;&gt;51 -->
<g id="edge90" class="edge"><title>49&#45;&gt;51</title>
<path fill="none" stroke="black" d="M1267.11,-252.136C1261.72,-270.112 1255.26,-299.152 1260,-324 1261.71,-332.944 1264.9,-342.305 1268.29,-350.627"/>
<polygon fill="black" stroke="black" points="1272.28,-359.833 1264.17,-352.449 1270.29,-355.246 1268.3,-350.659 1268.3,-350.659 1268.3,-350.659 1270.29,-355.246 1272.43,-348.868 1272.28,-359.833 1272.28,-359.833"/>
</g>
<!-- 50&#45;&gt;48 -->
<g id="edge91" class="edge"><title>50&#45;&gt;48</title>
<path fill="none" stroke="black" d="M1461.97,-252.303C1463.29,-260.017 1464.88,-269.288 1466.35,-277.888"/>
<polygon fill="black" stroke="black" points="1468.07,-287.896 1461.94,-278.8 1467.22,-282.968 1466.38,-278.039 1466.38,-278.039 1466.38,-278.039 1467.22,-282.968 1470.81,-277.279 1468.07,-287.896 1468.07,-287.896"/>
</g>
<!-- 52 -->
<g id="node53" class="node"><title>52</title>
<polygon fill="none" stroke="black" points="4554,-180 4424,-180 4424,-144 4554,-144 4554,-180"/>
<text text-anchor="middle" x="4489" y="-158.3" font-family="Times,serif" font-size="14.00">PoliciesMultiPlayers</text>
</g>
<!-- 53 -->
<g id="node54" class="node"><title>53</title>
<polygon fill="none" stroke="black" points="5480.5,-252 5299.5,-252 5299.5,-216 5480.5,-216 5480.5,-252"/>
<text text-anchor="middle" x="5390" y="-230.3" font-family="Times,serif" font-size="14.00">PoliciesMultiPlayers.ALOHA</text>
</g>
<!-- 52&#45;&gt;53 -->
<g id="edge92" class="edge"><title>52&#45;&gt;53</title>
<path fill="none" stroke="black" d="M4554.1,-165.049C4689.14,-169.79 5009.73,-183.586 5288.97,-215.957"/>
<polygon fill="black" stroke="black" points="5299.31,-217.166 5288.85,-220.474 5294.34,-216.585 5289.38,-216.004 5289.38,-216.004 5289.38,-216.004 5294.34,-216.585 5289.9,-211.535 5299.31,-217.166 5299.31,-217.166"/>
</g>
<!-- 56 -->
<g id="node57" class="node"><title>56</title>
<polygon fill="none" stroke="black" points="4608.5,-252 4369.5,-252 4369.5,-216 4608.5,-216 4608.5,-252"/>
<text text-anchor="middle" x="4489" y="-230.3" font-family="Times,serif" font-size="14.00">PoliciesMultiPlayers.CentralizedCycling</text>
</g>
<!-- 52&#45;&gt;56 -->
<g id="edge93" class="edge"><title>52&#45;&gt;56</title>
<path fill="none" stroke="black" d="M4489,-180.303C4489,-188.017 4489,-197.288 4489,-205.888"/>
<polygon fill="black" stroke="black" points="4489,-215.896 4484.5,-205.896 4489,-210.896 4489,-205.896 4489,-205.896 4489,-205.896 4489,-210.896 4493.5,-205.896 4489,-215.896 4489,-215.896"/>
</g>
<!-- 57 -->
<g id="node58" class="node"><title>57</title>
<polygon fill="none" stroke="black" points="3912.5,-252 3685.5,-252 3685.5,-216 3912.5,-216 3912.5,-252"/>
<text text-anchor="middle" x="3799" y="-230.3" font-family="Times,serif" font-size="14.00">PoliciesMultiPlayers.CentralizedFixed</text>
</g>
<!-- 52&#45;&gt;57 -->
<g id="edge94" class="edge"><title>52&#45;&gt;57</title>
<path fill="none" stroke="black" d="M4423.85,-168.149C4320.16,-176.552 4110.96,-194.351 3922.66,-215.954"/>
<polygon fill="black" stroke="black" points="3912.57,-217.117 3921.99,-211.501 3917.54,-216.544 3922.51,-215.972 3922.51,-215.972 3922.51,-215.972 3917.54,-216.544 3923.02,-220.442 3912.57,-217.117 3912.57,-217.117"/>
</g>
<!-- 58 -->
<g id="node59" class="node"><title>58</title>
<polygon fill="none" stroke="black" points="4893.5,-252 4626.5,-252 4626.5,-216 4893.5,-216 4893.5,-252"/>
<text text-anchor="middle" x="4760" y="-230.3" font-family="Times,serif" font-size="14.00">PoliciesMultiPlayers.CentralizedMultiplePlay</text>
</g>
<!-- 52&#45;&gt;58 -->
<g id="edge95" class="edge"><title>52&#45;&gt;58</title>
<path fill="none" stroke="black" d="M4554.26,-179.856C4593.32,-189.947 4643.16,-202.819 4683.99,-213.367"/>
<polygon fill="black" stroke="black" points="4693.9,-215.926 4683.09,-217.782 4689.06,-214.676 4684.22,-213.425 4684.22,-213.425 4684.22,-213.425 4689.06,-214.676 4685.34,-209.068 4693.9,-215.926 4693.9,-215.926"/>
</g>
<!-- 61 -->
<g id="node62" class="node"><title>61</title>
<polygon fill="none" stroke="black" points="4121.5,-252 3930.5,-252 3930.5,-216 4121.5,-216 4121.5,-252"/>
<text text-anchor="middle" x="4026" y="-230.3" font-family="Times,serif" font-size="14.00">PoliciesMultiPlayers.OracleFair</text>
</g>
<!-- 52&#45;&gt;61 -->
<g id="edge96" class="edge"><title>52&#45;&gt;61</title>
<path fill="none" stroke="black" d="M4423.96,-172.359C4354.37,-182.434 4240.45,-199.101 4131.73,-215.899"/>
<polygon fill="black" stroke="black" points="4121.56,-217.472 4130.75,-211.495 4126.5,-216.707 4131.44,-215.942 4131.44,-215.942 4131.44,-215.942 4126.5,-216.707 4132.13,-220.389 4121.56,-217.472 4121.56,-217.472"/>
</g>
<!-- 62 -->
<g id="node63" class="node"><title>62</title>
<polygon fill="none" stroke="black" points="4352,-252 4140,-252 4140,-216 4352,-216 4352,-252"/>
<text text-anchor="middle" x="4246" y="-230.3" font-family="Times,serif" font-size="14.00">PoliciesMultiPlayers.OracleNotFair</text>
</g>
<!-- 52&#45;&gt;62 -->
<g id="edge97" class="edge"><title>52&#45;&gt;62</title>
<path fill="none" stroke="black" d="M4429.87,-180.034C4395.32,-189.985 4351.55,-202.594 4315.38,-213.013"/>
<polygon fill="black" stroke="black" points="4305.4,-215.889 4313.76,-208.797 4310.2,-214.505 4315.01,-213.121 4315.01,-213.121 4315.01,-213.121 4310.2,-214.505 4316.25,-217.445 4305.4,-215.889 4305.4,-215.889"/>
</g>
<!-- 63 -->
<g id="node64" class="node"><title>63</title>
<polygon fill="none" stroke="black" points="5082.5,-252 4911.5,-252 4911.5,-216 5082.5,-216 5082.5,-252"/>
<text text-anchor="middle" x="4997" y="-230.3" font-family="Times,serif" font-size="14.00">PoliciesMultiPlayers.Selfish</text>
</g>
<!-- 52&#45;&gt;63 -->
<g id="edge98" class="edge"><title>52&#45;&gt;63</title>
<path fill="none" stroke="black" d="M4554.04,-170.275C4633.63,-179.412 4772.72,-196.141 4901.44,-215.797"/>
<polygon fill="black" stroke="black" points="4911.47,-217.339 4900.91,-220.269 4906.53,-216.58 4901.59,-215.821 4901.59,-215.821 4901.59,-215.821 4906.53,-216.58 4902.27,-211.373 4911.47,-217.339 4911.47,-217.339"/>
</g>
<!-- 65 -->
<g id="node66" class="node"><title>65</title>
<polygon fill="none" stroke="black" points="5281,-252 5101,-252 5101,-216 5281,-216 5281,-252"/>
<text text-anchor="middle" x="5191" y="-230.3" font-family="Times,serif" font-size="14.00">PoliciesMultiPlayers.rhoRand</text>
</g>
<!-- 52&#45;&gt;65 -->
<g id="edge99" class="edge"><title>52&#45;&gt;65</title>
<path fill="none" stroke="black" d="M4554.33,-166.971C4663.35,-173.988 4889.44,-190.196 5090.77,-215.901"/>
<polygon fill="black" stroke="black" points="5100.94,-217.211 5090.45,-220.397 5095.98,-216.573 5091.02,-215.934 5091.02,-215.934 5091.02,-215.934 5095.98,-216.573 5091.6,-211.471 5100.94,-217.211 5100.94,-217.211"/>
</g>
<!-- 55 -->
<g id="node56" class="node"><title>55</title>
<polygon fill="none" stroke="black" points="4607.5,-324 4392.5,-324 4392.5,-288 4607.5,-288 4607.5,-324"/>
<text text-anchor="middle" x="4500" y="-302.3" font-family="Times,serif" font-size="14.00">PoliciesMultiPlayers.BaseMPPolicy</text>
</g>
<!-- 53&#45;&gt;55 -->
<g id="edge100" class="edge"><title>53&#45;&gt;55</title>
<path fill="none" stroke="black" d="M5299.31,-250.877C5296.17,-251.28 5293.06,-251.656 5290,-252 5002.03,-284.334 4927.64,-262.397 4639,-288 4632.17,-288.606 4625.15,-289.285 4618.08,-290.014"/>
<polygon fill="black" stroke="black" points="4607.68,-291.114 4617.15,-285.586 4612.65,-290.588 4617.63,-290.061 4617.63,-290.061 4617.63,-290.061 4612.65,-290.588 4618.1,-294.536 4607.68,-291.114 4607.68,-291.114"/>
</g>
<!-- 59 -->
<g id="node60" class="node"><title>59</title>
<polygon fill="none" stroke="black" points="4850.5,-324 4647.5,-324 4647.5,-288 4850.5,-288 4850.5,-324"/>
<text text-anchor="middle" x="4749" y="-302.3" font-family="Times,serif" font-size="14.00">PoliciesMultiPlayers.ChildPointer</text>
</g>
<!-- 53&#45;&gt;59 -->
<g id="edge101" class="edge"><title>53&#45;&gt;59</title>
<path fill="none" stroke="black" d="M5299.29,-250.708C5296.16,-251.159 5293.05,-251.591 5290,-252 5142.15,-271.785 4970.63,-287.343 4861.03,-296.351"/>
<polygon fill="black" stroke="black" points="4850.95,-297.176 4860.55,-291.876 4855.94,-296.768 4860.92,-296.361 4860.92,-296.361 4860.92,-296.361 4855.94,-296.768 4861.29,-300.846 4850.95,-297.176 4850.95,-297.176"/>
</g>
<!-- 54 -->
<g id="node55" class="node"><title>54</title>
<polygon fill="none" stroke="black" points="4264.5,-324 4007.5,-324 4007.5,-288 4264.5,-288 4264.5,-324"/>
<text text-anchor="middle" x="4136" y="-302.3" font-family="Times,serif" font-size="14.00">PoliciesMultiPlayers.BaseCentralizedPolicy</text>
</g>
<!-- 56&#45;&gt;54 -->
<g id="edge102" class="edge"><title>56&#45;&gt;54</title>
<path fill="none" stroke="black" d="M4403.1,-252.034C4351.32,-262.302 4285.27,-275.399 4231.81,-286.001"/>
<polygon fill="black" stroke="black" points="4221.98,-287.95 4230.91,-281.591 4226.89,-286.977 4231.79,-286.005 4231.79,-286.005 4231.79,-286.005 4226.89,-286.977 4232.67,-290.419 4221.98,-287.95 4221.98,-287.95"/>
</g>
<!-- 56&#45;&gt;55 -->
<g id="edge103" class="edge"><title>56&#45;&gt;55</title>
<path fill="none" stroke="black" d="M4491.72,-252.303C4492.93,-260.017 4494.39,-269.288 4495.74,-277.888"/>
<polygon fill="black" stroke="black" points="4497.31,-287.896 4491.31,-278.716 4496.54,-282.956 4495.76,-278.017 4495.76,-278.017 4495.76,-278.017 4496.54,-282.956 4500.21,-277.318 4497.31,-287.896 4497.31,-287.896"/>
</g>
<!-- 56&#45;&gt;59 -->
<g id="edge104" class="edge"><title>56&#45;&gt;59</title>
<path fill="none" stroke="black" d="M4552.27,-252.034C4589.55,-262.07 4636.86,-274.81 4675.75,-285.279"/>
<polygon fill="black" stroke="black" points="4685.45,-287.889 4674.62,-289.635 4680.62,-286.589 4675.79,-285.289 4675.79,-285.289 4675.79,-285.289 4680.62,-286.589 4676.96,-280.944 4685.45,-287.889 4685.45,-287.889"/>
</g>
<!-- 57&#45;&gt;54 -->
<g id="edge105" class="edge"><title>57&#45;&gt;54</title>
<path fill="none" stroke="black" d="M3881.01,-252.034C3930.23,-262.259 3992.97,-275.29 4043.9,-285.869"/>
<polygon fill="black" stroke="black" points="4053.92,-287.95 4043.21,-290.322 4049.02,-286.933 4044.13,-285.916 4044.13,-285.916 4044.13,-285.916 4049.02,-286.933 4045.04,-281.51 4053.92,-287.95 4053.92,-287.95"/>
</g>
<!-- 57&#45;&gt;55 -->
<g id="edge106" class="edge"><title>57&#45;&gt;55</title>
<path fill="none" stroke="black" d="M3912.57,-250.89C3915.75,-251.272 3918.89,-251.643 3922,-252 4081.04,-270.273 4265.29,-286.278 4382.21,-295.792"/>
<polygon fill="black" stroke="black" points="4392.25,-296.607 4381.92,-300.284 4387.27,-296.203 4382.29,-295.799 4382.29,-295.799 4382.29,-295.799 4387.27,-296.203 4382.65,-291.313 4392.25,-296.607 4392.25,-296.607"/>
</g>
<!-- 57&#45;&gt;59 -->
<g id="edge107" class="edge"><title>57&#45;&gt;59</title>
<path fill="none" stroke="black" d="M3912.55,-251.055C3915.73,-251.389 3918.89,-251.705 3922,-252 4229.92,-281.2 4308.95,-260.226 4617,-288 4623.65,-288.599 4630.48,-289.28 4637.36,-290.016"/>
<polygon fill="black" stroke="black" points="4647.47,-291.131 4637.04,-294.508 4642.5,-290.583 4637.53,-290.035 4637.53,-290.035 4637.53,-290.035 4642.5,-290.583 4638.03,-285.562 4647.47,-291.131 4647.47,-291.131"/>
</g>
<!-- 58&#45;&gt;55 -->
<g id="edge108" class="edge"><title>58&#45;&gt;55</title>
<path fill="none" stroke="black" d="M4696.73,-252.034C4659.45,-262.07 4612.14,-274.81 4573.25,-285.279"/>
<polygon fill="black" stroke="black" points="4563.55,-287.889 4572.04,-280.944 4568.38,-286.589 4573.21,-285.289 4573.21,-285.289 4573.21,-285.289 4568.38,-286.589 4574.38,-289.635 4563.55,-287.889 4563.55,-287.889"/>
</g>
<!-- 58&#45;&gt;59 -->
<g id="edge109" class="edge"><title>58&#45;&gt;59</title>
<path fill="none" stroke="black" d="M4757.28,-252.303C4756.07,-260.017 4754.61,-269.288 4753.26,-277.888"/>
<polygon fill="black" stroke="black" points="4751.69,-287.896 4748.79,-277.318 4752.46,-282.956 4753.24,-278.017 4753.24,-278.017 4753.24,-278.017 4752.46,-282.956 4757.69,-278.716 4751.69,-287.896 4751.69,-287.896"/>
</g>
<!-- 60 -->
<g id="node61" class="node"><title>60</title>
<polygon fill="none" stroke="black" points="3273.5,-36 3108.5,-36 3108.5,-0 3273.5,-0 3273.5,-36"/>
<text text-anchor="middle" x="3191" y="-14.3" font-family="Times,serif" font-size="14.00">PoliciesMultiPlayers.DMC</text>
</g>
<!-- 61&#45;&gt;54 -->
<g id="edge110" class="edge"><title>61&#45;&gt;54</title>
<path fill="none" stroke="black" d="M4052.91,-252.124C4067.16,-261.192 4084.85,-272.448 4100.24,-282.241"/>
<polygon fill="black" stroke="black" points="4108.99,-287.81 4098.13,-286.238 4104.77,-285.126 4100.55,-282.441 4100.55,-282.441 4100.55,-282.441 4104.77,-285.126 4102.97,-278.645 4108.99,-287.81 4108.99,-287.81"/>
</g>
<!-- 61&#45;&gt;55 -->
<g id="edge111" class="edge"><title>61&#45;&gt;55</title>
<path fill="none" stroke="black" d="M4121.56,-250.546C4124.74,-251.04 4127.9,-251.526 4131,-252 4214.86,-264.811 4309.59,-278.398 4382.07,-288.608"/>
<polygon fill="black" stroke="black" points="4392.15,-290.026 4381.62,-293.089 4387.2,-289.329 4382.24,-288.633 4382.24,-288.633 4382.24,-288.633 4387.2,-289.329 4382.87,-284.177 4392.15,-290.026 4392.15,-290.026"/>
</g>
<!-- 61&#45;&gt;59 -->
<g id="edge112" class="edge"><title>61&#45;&gt;59</title>
<path fill="none" stroke="black" d="M4121.52,-250.825C4124.72,-251.239 4127.88,-251.633 4131,-252 4346.11,-277.332 4401.51,-266.159 4617,-288 4623.64,-288.673 4630.46,-289.411 4637.34,-290.19"/>
<polygon fill="black" stroke="black" points="4647.45,-291.359 4637,-294.68 4642.48,-290.784 4637.52,-290.21 4637.52,-290.21 4637.52,-290.21 4642.48,-290.784 4638.03,-285.74 4647.45,-291.359 4647.45,-291.359"/>
</g>
<!-- 62&#45;&gt;54 -->
<g id="edge113" class="edge"><title>62&#45;&gt;54</title>
<path fill="none" stroke="black" d="M4219.09,-252.124C4204.84,-261.192 4187.15,-272.448 4171.76,-282.241"/>
<polygon fill="black" stroke="black" points="4163.01,-287.81 4169.03,-278.645 4167.23,-285.126 4171.45,-282.441 4171.45,-282.441 4171.45,-282.441 4167.23,-285.126 4173.87,-286.238 4163.01,-287.81 4163.01,-287.81"/>
</g>
<!-- 62&#45;&gt;55 -->
<g id="edge114" class="edge"><title>62&#45;&gt;55</title>
<path fill="none" stroke="black" d="M4307.81,-252.034C4344.07,-262.028 4390.06,-274.702 4427.96,-285.146"/>
<polygon fill="black" stroke="black" points="4437.91,-287.889 4427.08,-289.571 4433.09,-286.561 4428.27,-285.232 4428.27,-285.232 4428.27,-285.232 4433.09,-286.561 4429.47,-280.894 4437.91,-287.889 4437.91,-287.889"/>
</g>
<!-- 62&#45;&gt;59 -->
<g id="edge115" class="edge"><title>62&#45;&gt;59</title>
<path fill="none" stroke="black" d="M4352.2,-250.743C4355.16,-251.168 4358.1,-251.588 4361,-252 4453.92,-265.214 4559.46,-279.589 4636.98,-290.03"/>
<polygon fill="black" stroke="black" points="4647.25,-291.412 4636.74,-294.538 4642.29,-290.745 4637.34,-290.078 4637.34,-290.078 4637.34,-290.078 4642.29,-290.745 4637.94,-285.619 4647.25,-291.412 4647.25,-291.412"/>
</g>
<!-- 63&#45;&gt;55 -->
<g id="edge116" class="edge"><title>63&#45;&gt;55</title>
<path fill="none" stroke="black" d="M4911.47,-250.648C4908.62,-251.113 4905.79,-251.565 4903,-252 4849.75,-260.312 4716.56,-277.575 4617.79,-290.147"/>
<polygon fill="black" stroke="black" points="4607.74,-291.426 4617.09,-285.7 4612.7,-290.795 4617.66,-290.164 4617.66,-290.164 4617.66,-290.164 4612.7,-290.795 4618.23,-294.628 4607.74,-291.426 4607.74,-291.426"/>
</g>
<!-- 63&#45;&gt;59 -->
<g id="edge117" class="edge"><title>63&#45;&gt;59</title>
<path fill="none" stroke="black" d="M4936.65,-252.034C4901.25,-262.028 4856.34,-274.702 4819.34,-285.146"/>
<polygon fill="black" stroke="black" points="4809.62,-287.889 4818.02,-280.842 4814.43,-286.531 4819.25,-285.173 4819.25,-285.173 4819.25,-285.173 4814.43,-286.531 4820.47,-289.503 4809.62,-287.889 4809.62,-287.889"/>
</g>
<!-- 64 -->
<g id="node65" class="node"><title>64</title>
<polygon fill="none" stroke="black" points="3458.5,-36 3291.5,-36 3291.5,-0 3458.5,-0 3458.5,-36"/>
<text text-anchor="middle" x="3375" y="-14.3" font-family="Times,serif" font-size="14.00">PoliciesMultiPlayers.TDFS</text>
</g>
<!-- 65&#45;&gt;55 -->
<g id="edge118" class="edge"><title>65&#45;&gt;55</title>
<path fill="none" stroke="black" d="M5100.94,-250.821C5097.93,-251.237 5094.94,-251.631 5092,-252 4891.6,-277.116 4839.95,-267.736 4639,-288 4632.17,-288.688 4625.16,-289.431 4618.09,-290.209"/>
<polygon fill="black" stroke="black" points="4607.71,-291.37 4617.14,-285.787 4612.67,-290.815 4617.64,-290.259 4617.64,-290.259 4617.64,-290.259 4612.67,-290.815 4618.14,-294.731 4607.71,-291.37 4607.71,-291.37"/>
</g>
<!-- 65&#45;&gt;59 -->
<g id="edge119" class="edge"><title>65&#45;&gt;59</title>
<path fill="none" stroke="black" d="M5100.9,-250.537C5097.9,-251.034 5094.93,-251.523 5092,-252 5014.93,-264.571 4927.99,-277.997 4860.92,-288.19"/>
<polygon fill="black" stroke="black" points="4850.75,-289.734 4859.96,-283.784 4855.7,-288.983 4860.64,-288.233 4860.64,-288.233 4860.64,-288.233 4855.7,-288.983 4861.32,-292.682 4850.75,-289.734 4850.75,-289.734"/>
</g>
<!-- 66 -->
<g id="node67" class="node"><title>66</title>
<polygon fill="none" stroke="black" points="3531,-36 3477,-36 3477,-0 3531,-0 3531,-36"/>
<text text-anchor="middle" x="3504" y="-14.3" font-family="Times,serif" font-size="14.00">conf</text>
</g>
<!-- 67 -->
<g id="node68" class="node"><title>67</title>
<polygon fill="none" stroke="black" points="577.5,-108 488.5,-108 488.5,-72 577.5,-72 577.5,-108"/>
<text text-anchor="middle" x="533" y="-86.3" font-family="Times,serif" font-size="14.00">configuration</text>
</g>
<!-- 67&#45;&gt;2 -->
<g id="edge120" class="edge"><title>67&#45;&gt;2</title>
<path fill="none" stroke="black" d="M488.276,-103.09C451.086,-113.173 396.502,-128.037 339.895,-143.762"/>
<polygon fill="black" stroke="black" points="330.054,-146.499 338.483,-139.485 334.871,-145.16 339.688,-143.82 339.688,-143.82 339.688,-143.82 334.871,-145.16 340.894,-148.155 330.054,-146.499 330.054,-146.499"/>
</g>
<!-- 67&#45;&gt;3 -->
<g id="edge121" class="edge"><title>67&#45;&gt;3</title>
<path fill="none" stroke="black" d="M501.932,-108.124C485.173,-117.361 464.294,-128.869 446.298,-138.788"/>
<polygon fill="black" stroke="black" points="437.187,-143.81 443.773,-135.042 441.566,-141.397 445.945,-138.983 445.945,-138.983 445.945,-138.983 441.566,-141.397 448.117,-142.924 437.187,-143.81 437.187,-143.81"/>
</g>
<!-- 67&#45;&gt;4 -->
<g id="edge122" class="edge"><title>67&#45;&gt;4</title>
<path fill="none" stroke="black" d="M533,-108.303C533,-116.017 533,-125.288 533,-133.888"/>
<polygon fill="black" stroke="black" points="533,-143.896 528.5,-133.896 533,-138.896 533,-133.896 533,-133.896 533,-133.896 533,-138.896 537.5,-133.896 533,-143.896 533,-143.896"/>
</g>
<!-- 67&#45;&gt;5 -->
<g id="edge123" class="edge"><title>67&#45;&gt;5</title>
<path fill="none" stroke="black" d="M488.443,-96.6965C429.166,-104.675 321.015,-120.625 219.438,-144.067"/>
<polygon fill="black" stroke="black" points="209.63,-146.358 218.344,-139.701 214.499,-145.221 219.368,-144.083 219.368,-144.083 219.368,-144.083 214.499,-145.221 220.392,-148.465 209.63,-146.358 209.63,-146.358"/>
</g>
<!-- 67&#45;&gt;16 -->
<g id="edge124" class="edge"><title>67&#45;&gt;16</title>
<path fill="none" stroke="black" d="M577.69,-93.7226C762.647,-104.991 1466.72,-147.885 1642.2,-158.575"/>
<polygon fill="black" stroke="black" points="1652.29,-159.19 1642.03,-163.073 1647.29,-158.886 1642.3,-158.582 1642.3,-158.582 1642.3,-158.582 1647.29,-158.886 1642.58,-154.09 1652.29,-159.19 1652.29,-159.19"/>
</g>
<!-- 67&#45;&gt;51 -->
<g id="edge125" class="edge"><title>67&#45;&gt;51</title>
<path fill="none" stroke="black" d="M557.74,-108.186C569.596,-117.553 583.115,-130.069 592,-144 618.989,-186.317 586.185,-220.18 625,-252 687.519,-303.252 913.26,-254.869 987,-288 1008.52,-297.668 1005.02,-313.208 1026,-324 1058.49,-340.715 1151.58,-357.447 1215.81,-367.514"/>
<polygon fill="black" stroke="black" points="1225.86,-369.071 1215.28,-371.986 1220.91,-368.305 1215.97,-367.539 1215.97,-367.539 1215.97,-367.539 1220.91,-368.305 1216.66,-363.093 1225.86,-369.071 1225.86,-369.071"/>
</g>
<!-- 68 -->
<g id="node69" class="node"><title>68</title>
<polygon fill="none" stroke="black" points="1764,-108 1600,-108 1600,-72 1764,-72 1764,-108"/>
<text text-anchor="middle" x="1682" y="-86.3" font-family="Times,serif" font-size="14.00">configuration_multiplayers</text>
</g>
<!-- 68&#45;&gt;2 -->
<g id="edge126" class="edge"><title>68&#45;&gt;2</title>
<path fill="none" stroke="black" d="M1599.61,-91.7012C1349.89,-94.2237 602.992,-104.797 340.107,-144.1"/>
<polygon fill="black" stroke="black" points="330.208,-145.63 339.403,-139.655 335.15,-144.866 340.091,-144.102 340.091,-144.102 340.091,-144.102 335.15,-144.866 340.779,-148.549 330.208,-145.63 330.208,-145.63"/>
</g>
<!-- 68&#45;&gt;3 -->
<g id="edge127" class="edge"><title>68&#45;&gt;3</title>
<path fill="none" stroke="black" d="M1599.64,-92.4148C1367.52,-96.7461 710.094,-111.468 474.224,-144.039"/>
<polygon fill="black" stroke="black" points="464.323,-145.454 473.586,-139.584 469.273,-144.746 474.223,-144.039 474.223,-144.039 474.223,-144.039 469.273,-144.746 474.859,-148.494 464.323,-145.454 464.323,-145.454"/>
</g>
<!-- 68&#45;&gt;4 -->
<g id="edge128" class="edge"><title>68&#45;&gt;4</title>
<path fill="none" stroke="black" d="M1599.83,-96.0061C1380.69,-109.357 785.972,-145.588 593.784,-157.297"/>
<polygon fill="black" stroke="black" points="583.59,-157.918 593.298,-152.818 588.581,-157.614 593.571,-157.31 593.571,-157.31 593.571,-157.31 588.581,-157.614 593.845,-161.801 583.59,-157.918 583.59,-157.918"/>
</g>
<!-- 68&#45;&gt;5 -->
<g id="edge129" class="edge"><title>68&#45;&gt;5</title>
<path fill="none" stroke="black" d="M1599.85,-91.1889C1335.44,-92.2292 507.422,-98.9661 219.547,-144.262"/>
<polygon fill="black" stroke="black" points="209.536,-145.89 218.684,-139.843 214.471,-145.087 219.406,-144.285 219.406,-144.285 219.406,-144.285 214.471,-145.087 220.128,-148.727 209.536,-145.89 209.536,-145.89"/>
</g>
<!-- 68&#45;&gt;9 -->
<g id="edge130" class="edge"><title>68&#45;&gt;9</title>
<path fill="none" stroke="black" d="M1764.16,-91.8885C2079.38,-95.5312 3201.61,-110.731 3358,-144 3422.63,-157.749 3492.56,-189.618 3535.32,-211.243"/>
<polygon fill="black" stroke="black" points="3544.29,-215.826 3533.33,-215.279 3539.83,-213.55 3535.38,-211.273 3535.38,-211.273 3535.38,-211.273 3539.83,-213.55 3537.43,-207.267 3544.29,-215.826 3544.29,-215.826"/>
</g>
<!-- 68&#45;&gt;12 -->
<g id="edge131" class="edge"><title>68&#45;&gt;12</title>
<path fill="none" stroke="black" d="M1764.17,-91.8092C2035.38,-94.8216 2891.57,-107.175 3010,-144 3032.87,-151.112 3085.09,-186.216 3119.16,-210.153"/>
<polygon fill="black" stroke="black" points="3127.4,-215.974 3116.63,-213.88 3123.31,-213.089 3119.23,-210.205 3119.23,-210.205 3119.23,-210.205 3123.31,-213.089 3121.83,-206.529 3127.4,-215.974 3127.4,-215.974"/>
</g>
<!-- 68&#45;&gt;16 -->
<g id="edge132" class="edge"><title>68&#45;&gt;16</title>
<path fill="none" stroke="black" d="M1682,-108.303C1682,-116.017 1682,-125.288 1682,-133.888"/>
<polygon fill="black" stroke="black" points="1682,-143.896 1677.5,-133.896 1682,-138.896 1682,-133.896 1682,-133.896 1682,-133.896 1682,-138.896 1686.5,-133.896 1682,-143.896 1682,-143.896"/>
</g>
<!-- 68&#45;&gt;52 -->
<g id="edge133" class="edge"><title>68&#45;&gt;52</title>
<path fill="none" stroke="black" d="M1764.11,-93.0476C2176.48,-103.331 4017.35,-149.238 4413.67,-159.121"/>
<polygon fill="black" stroke="black" points="4423.87,-159.376 4413.76,-163.625 4418.87,-159.251 4413.87,-159.126 4413.87,-159.126 4413.87,-159.126 4418.87,-159.251 4413.98,-154.628 4423.87,-159.376 4423.87,-159.376"/>
</g>
<!-- 69 -->
<g id="node70" class="node"><title>69</title>
<polygon fill="none" stroke="black" points="2953,-36 2899,-36 2899,-0 2953,-0 2953,-36"/>
<text text-anchor="middle" x="2926" y="-14.3" font-family="Times,serif" font-size="14.00">main</text>
</g>
<!-- 69&#45;&gt;8 -->
<g id="edge134" class="edge"><title>69&#45;&gt;8</title>
<path fill="none" stroke="black" d="M2951.44,-36.1239C2964.79,-45.1069 2981.32,-56.2375 2995.78,-65.9659"/>
<polygon fill="black" stroke="black" points="3004.46,-71.8102 2993.65,-69.9596 3000.31,-69.0183 2996.17,-66.2264 2996.17,-66.2264 2996.17,-66.2264 3000.31,-69.0183 2998.68,-62.4933 3004.46,-71.8102 3004.46,-71.8102"/>
</g>
<!-- 69&#45;&gt;10 -->
<g id="edge135" class="edge"><title>69&#45;&gt;10</title>
<path fill="none" stroke="black" d="M2926.36,-36.1285C2926.87,-60.3298 2927.81,-104.789 2928.42,-133.607"/>
<polygon fill="black" stroke="black" points="2928.64,-143.811 2923.93,-133.908 2928.53,-138.812 2928.43,-133.813 2928.43,-133.813 2928.43,-133.813 2928.53,-138.812 2932.92,-133.718 2928.64,-143.811 2928.64,-143.811"/>
</g>
<!-- 69&#45;&gt;67 -->
<g id="edge136" class="edge"><title>69&#45;&gt;67</title>
<path fill="none" stroke="black" d="M2898.71,-19.7982C2659.51,-26.7955 920.397,-77.6679 587.87,-87.3949"/>
<polygon fill="black" stroke="black" points="577.539,-87.6972 587.403,-82.9066 582.537,-87.5509 587.534,-87.4047 587.534,-87.4047 587.534,-87.4047 582.537,-87.5509 587.666,-91.9027 577.539,-87.6972 577.539,-87.6972"/>
</g>
<!-- 70 -->
<g id="node71" class="node"><title>70</title>
<polygon fill="none" stroke="black" points="3090.5,-36 2971.5,-36 2971.5,-0 3090.5,-0 3090.5,-36"/>
<text text-anchor="middle" x="3031" y="-14.3" font-family="Times,serif" font-size="14.00">main_multiplayers</text>
</g>
<!-- 70&#45;&gt;8 -->
<g id="edge137" class="edge"><title>70&#45;&gt;8</title>
<path fill="none" stroke="black" d="M3030.75,-36.3034C3030.64,-44.0173 3030.51,-53.2875 3030.39,-61.8876"/>
<polygon fill="black" stroke="black" points="3030.24,-71.8957 3025.89,-61.8324 3030.32,-66.8962 3030.39,-61.8967 3030.39,-61.8967 3030.39,-61.8967 3030.32,-66.8962 3034.89,-61.961 3030.24,-71.8957 3030.24,-71.8957"/>
</g>
<!-- 70&#45;&gt;11 -->
<g id="edge138" class="edge"><title>70&#45;&gt;11</title>
<path fill="none" stroke="black" d="M3056.33,-36.1285C3094.01,-61.6091 3164.91,-109.546 3207.05,-138.041"/>
<polygon fill="black" stroke="black" points="3215.58,-143.811 3204.77,-141.937 3211.44,-141.01 3207.3,-138.209 3207.3,-138.209 3207.3,-138.209 3211.44,-141.01 3209.82,-134.481 3215.58,-143.811 3215.58,-143.811"/>
</g>
<!-- 70&#45;&gt;68 -->
<g id="edge139" class="edge"><title>70&#45;&gt;68</title>
<path fill="none" stroke="black" d="M2971.3,-34.483C2968.17,-35.053 2965.05,-35.5651 2962,-36 2732.6,-68.6719 2028.68,-83.2697 1774.65,-87.5713"/>
<polygon fill="black" stroke="black" points="1764.34,-87.7442 1774.27,-83.0769 1769.34,-87.6603 1774.34,-87.5763 1774.34,-87.5763 1774.34,-87.5763 1769.34,-87.6603 1774.42,-92.0756 1764.34,-87.7442 1764.34,-87.7442"/>
</g>
</g>
</svg>
