<?xml version="1.0" encoding="UTF-8" standalone="no"?>
<!DOCTYPE svg PUBLIC "-//W3C//DTD SVG 1.1//EN"
 "http://www.w3.org/Graphics/SVG/1.1/DTD/svg11.dtd">
<!-- Generated by graphviz version 2.38.0 (20140413.2041)
 -->
<!-- Title: packages_AlgoBandits Pages: 1 -->
<svg width="5340pt" height="548pt"
 viewBox="0.00 0.00 5339.50 548.00" xmlns="http://www.w3.org/2000/svg" xmlns:xlink="http://www.w3.org/1999/xlink">
<g id="graph0" class="graph" transform="scale(1 1) rotate(0) translate(4 544)">
<title>packages_AlgoBandits</title>
<polygon fill="white" stroke="none" points="-4,4 -4,-544 5335.5,-544 5335.5,4 -4,4"/>
<!-- 0 -->
<g id="node1" class="node"><title>0</title>
<polygon fill="none" stroke="black" points="270,-108 216,-108 216,-72 270,-72 270,-108"/>
<text text-anchor="middle" x="243" y="-86.3" font-family="Times,serif" font-size="14.00">Arms</text>
</g>
<!-- 2 -->
<g id="node3" class="node"><title>2</title>
<polygon fill="none" stroke="black" points="467,-180 365,-180 365,-144 467,-144 467,-180"/>
<text text-anchor="middle" x="416" y="-158.3" font-family="Times,serif" font-size="14.00">Arms.Bernoulli</text>
</g>
<!-- 0&#45;&gt;2 -->
<g id="edge1" class="edge"><title>0&#45;&gt;2</title>
<path fill="none" stroke="black" d="M270.031,-101.938C295.179,-112.113 333.324,-127.547 364.314,-140.087"/>
<polygon fill="black" stroke="black" points="373.679,-143.876 362.722,-144.297 369.044,-142.001 364.41,-140.125 364.41,-140.125 364.41,-140.125 369.044,-142.001 366.097,-135.954 373.679,-143.876 373.679,-143.876"/>
</g>
<!-- 3 -->
<g id="node4" class="node"><title>3</title>
<polygon fill="none" stroke="black" points="116,-180 7.10543e-15,-180 7.10543e-15,-144 116,-144 116,-180"/>
<text text-anchor="middle" x="58" y="-158.3" font-family="Times,serif" font-size="14.00">Arms.Exponential</text>
</g>
<!-- 0&#45;&gt;3 -->
<g id="edge2" class="edge"><title>0&#45;&gt;3</title>
<path fill="none" stroke="black" d="M215.703,-101.329C188.716,-111.54 146.665,-127.451 112.77,-140.276"/>
<polygon fill="black" stroke="black" points="102.994,-143.975 110.754,-136.228 107.67,-142.206 112.347,-140.436 112.347,-140.436 112.347,-140.436 107.67,-142.206 113.939,-144.645 102.994,-143.975 102.994,-143.975"/>
</g>
<!-- 4 -->
<g id="node5" class="node"><title>4</title>
<polygon fill="none" stroke="black" points="235.5,-180 134.5,-180 134.5,-144 235.5,-144 235.5,-180"/>
<text text-anchor="middle" x="185" y="-158.3" font-family="Times,serif" font-size="14.00">Arms.Gaussian</text>
</g>
<!-- 0&#45;&gt;4 -->
<g id="edge3" class="edge"><title>0&#45;&gt;4</title>
<path fill="none" stroke="black" d="M228.663,-108.303C221.709,-116.695 213.23,-126.93 205.599,-136.139"/>
<polygon fill="black" stroke="black" points="199.172,-143.896 202.087,-133.324 202.362,-140.046 205.552,-136.195 205.552,-136.195 205.552,-136.195 202.362,-140.046 209.017,-139.067 199.172,-143.896 199.172,-143.896"/>
</g>
<!-- 5 -->
<g id="node6" class="node"><title>5</title>
<polygon fill="none" stroke="black" points="346.5,-180 253.5,-180 253.5,-144 346.5,-144 346.5,-180"/>
<text text-anchor="middle" x="300" y="-158.3" font-family="Times,serif" font-size="14.00">Arms.Poisson</text>
</g>
<!-- 0&#45;&gt;5 -->
<g id="edge4" class="edge"><title>0&#45;&gt;5</title>
<path fill="none" stroke="black" d="M257.09,-108.303C263.923,-116.695 272.257,-126.93 279.756,-136.139"/>
<polygon fill="black" stroke="black" points="286.072,-143.896 276.268,-138.983 282.915,-140.018 279.758,-136.141 279.758,-136.141 279.758,-136.141 282.915,-140.018 283.247,-133.3 286.072,-143.896 286.072,-143.896"/>
</g>
<!-- 1 -->
<g id="node2" class="node"><title>1</title>
<polygon fill="none" stroke="black" points="117.5,-252 40.5,-252 40.5,-216 117.5,-216 117.5,-252"/>
<text text-anchor="middle" x="79" y="-230.3" font-family="Times,serif" font-size="14.00">Arms.Arm</text>
</g>
<!-- 2&#45;&gt;1 -->
<g id="edge5" class="edge"><title>2&#45;&gt;1</title>
<path fill="none" stroke="black" d="M364.852,-177.715C361.528,-178.529 358.223,-179.299 355,-180 257.888,-201.125 228.278,-191.427 127.558,-216.146"/>
<polygon fill="black" stroke="black" points="117.585,-218.648 126.189,-211.85 122.434,-217.432 127.284,-216.215 127.284,-216.215 127.284,-216.215 122.434,-217.432 128.379,-220.58 117.585,-218.648 117.585,-218.648"/>
</g>
<!-- 6 -->
<g id="node7" class="node"><title>6</title>
<polygon fill="none" stroke="black" points="234,-252 136,-252 136,-216 234,-216 234,-252"/>
<text text-anchor="middle" x="185" y="-230.3" font-family="Times,serif" font-size="14.00">Arms.kullback</text>
</g>
<!-- 2&#45;&gt;6 -->
<g id="edge6" class="edge"><title>2&#45;&gt;6</title>
<path fill="none" stroke="black" d="M364.734,-178.535C328.983,-189.369 281.194,-203.85 243.88,-215.158"/>
<polygon fill="black" stroke="black" points="234.144,-218.108 242.409,-210.901 238.929,-216.658 243.714,-215.208 243.714,-215.208 243.714,-215.208 238.929,-216.658 245.019,-219.514 234.144,-218.108 234.144,-218.108"/>
</g>
<!-- 3&#45;&gt;1 -->
<g id="edge7" class="edge"><title>3&#45;&gt;1</title>
<path fill="none" stroke="black" d="M63.191,-180.303C65.5306,-188.102 68.3474,-197.491 70.9513,-206.171"/>
<polygon fill="black" stroke="black" points="73.8687,-215.896 66.6849,-207.61 72.4319,-211.107 70.9952,-206.317 70.9952,-206.317 70.9952,-206.317 72.4319,-211.107 75.3054,-205.024 73.8687,-215.896 73.8687,-215.896"/>
</g>
<!-- 3&#45;&gt;6 -->
<g id="edge8" class="edge"><title>3&#45;&gt;6</title>
<path fill="none" stroke="black" d="M89.0677,-180.124C105.827,-189.361 126.706,-200.869 144.702,-210.788"/>
<polygon fill="black" stroke="black" points="153.813,-215.81 142.883,-214.924 149.434,-213.397 145.055,-210.983 145.055,-210.983 145.055,-210.983 149.434,-213.397 147.227,-207.042 153.813,-215.81 153.813,-215.81"/>
</g>
<!-- 4&#45;&gt;1 -->
<g id="edge9" class="edge"><title>4&#45;&gt;1</title>
<path fill="none" stroke="black" d="M159.069,-180.124C145.338,-189.192 128.294,-200.448 113.464,-210.241"/>
<polygon fill="black" stroke="black" points="105.03,-215.81 110.895,-206.544 109.203,-213.055 113.375,-210.3 113.375,-210.3 113.375,-210.3 109.203,-213.055 115.855,-214.055 105.03,-215.81 105.03,-215.81"/>
</g>
<!-- 4&#45;&gt;6 -->
<g id="edge10" class="edge"><title>4&#45;&gt;6</title>
<path fill="none" stroke="black" d="M185,-180.303C185,-188.017 185,-197.288 185,-205.888"/>
<polygon fill="black" stroke="black" points="185,-215.896 180.5,-205.896 185,-210.896 185,-205.896 185,-205.896 185,-205.896 185,-210.896 189.5,-205.896 185,-215.896 185,-215.896"/>
</g>
<!-- 5&#45;&gt;1 -->
<g id="edge11" class="edge"><title>5&#45;&gt;1</title>
<path fill="none" stroke="black" d="M253.338,-177.182C212.065,-189.742 155.168,-207.101 127.417,-215.974"/>
<polygon fill="black" stroke="black" points="117.723,-219.124 125.843,-211.754 122.479,-217.579 127.234,-216.034 127.234,-216.034 127.234,-216.034 122.479,-217.579 128.625,-220.314 117.723,-219.124 117.723,-219.124"/>
</g>
<!-- 5&#45;&gt;6 -->
<g id="edge12" class="edge"><title>5&#45;&gt;6</title>
<path fill="none" stroke="black" d="M271.868,-180.124C256.832,-189.276 238.133,-200.658 221.94,-210.515"/>
<polygon fill="black" stroke="black" points="213.24,-215.81 219.443,-206.767 217.511,-213.21 221.782,-210.611 221.782,-210.611 221.782,-210.611 217.511,-213.21 224.122,-214.455 213.24,-215.81 213.24,-215.81"/>
</g>
<!-- 7 -->
<g id="node8" class="node"><title>7</title>
<polygon fill="none" stroke="black" points="2941,-108 2853,-108 2853,-72 2941,-72 2941,-108"/>
<text text-anchor="middle" x="2897" y="-86.3" font-family="Times,serif" font-size="14.00">Environment</text>
</g>
<!-- 9 -->
<g id="node10" class="node"><title>9</title>
<polygon fill="none" stroke="black" points="2876,-180 2732,-180 2732,-144 2876,-144 2876,-180"/>
<text text-anchor="middle" x="2804" y="-158.3" font-family="Times,serif" font-size="14.00">Environment.Evaluator</text>
</g>
<!-- 7&#45;&gt;9 -->
<g id="edge13" class="edge"><title>7&#45;&gt;9</title>
<path fill="none" stroke="black" d="M2874.01,-108.303C2862.19,-117.204 2847.61,-128.177 2834.82,-137.801"/>
<polygon fill="black" stroke="black" points="2826.72,-143.896 2832.01,-134.287 2830.72,-140.889 2834.71,-137.882 2834.71,-137.882 2834.71,-137.882 2830.72,-140.889 2837.42,-141.477 2826.72,-143.896 2826.72,-143.896"/>
</g>
<!-- 10 -->
<g id="node11" class="node"><title>10</title>
<polygon fill="none" stroke="black" points="3284.5,-180 3069.5,-180 3069.5,-144 3284.5,-144 3284.5,-180"/>
<text text-anchor="middle" x="3177" y="-158.3" font-family="Times,serif" font-size="14.00">Environment.EvaluatorMultiPlayers</text>
</g>
<!-- 7&#45;&gt;10 -->
<g id="edge14" class="edge"><title>7&#45;&gt;10</title>
<path fill="none" stroke="black" d="M2941.17,-105.462C2944.15,-106.347 2947.11,-107.201 2950,-108 2994.87,-120.411 3045.24,-132.37 3087.12,-141.776"/>
<polygon fill="black" stroke="black" points="3097.02,-143.988 3086.28,-146.199 3092.14,-142.898 3087.26,-141.808 3087.26,-141.808 3087.26,-141.808 3092.14,-142.898 3088.24,-137.416 3097.02,-143.988 3097.02,-143.988"/>
</g>
<!-- 11 -->
<g id="node12" class="node"><title>11</title>
<polygon fill="none" stroke="black" points="3064.5,-252 2941.5,-252 2941.5,-216 3064.5,-216 3064.5,-252"/>
<text text-anchor="middle" x="3003" y="-230.3" font-family="Times,serif" font-size="14.00">Environment.MAB</text>
</g>
<!-- 7&#45;&gt;11 -->
<g id="edge15" class="edge"><title>7&#45;&gt;11</title>
<path fill="none" stroke="black" d="M2909.79,-108.129C2928.25,-132.863 2962.51,-178.758 2983.96,-207.488"/>
<polygon fill="black" stroke="black" points="2990.17,-215.811 2980.58,-210.489 2987.18,-211.804 2984.19,-207.797 2984.19,-207.797 2984.19,-207.797 2987.18,-211.804 2987.79,-205.105 2990.17,-215.811 2990.17,-215.811"/>
</g>
<!-- 12 -->
<g id="node13" class="node"><title>12</title>
<polygon fill="none" stroke="black" points="2923,-252 2797,-252 2797,-216 2923,-216 2923,-252"/>
<text text-anchor="middle" x="2860" y="-230.3" font-family="Times,serif" font-size="14.00">Environment.Result</text>
</g>
<!-- 7&#45;&gt;12 -->
<g id="edge16" class="edge"><title>7&#45;&gt;12</title>
<path fill="none" stroke="black" d="M2896.25,-108.054C2895.1,-126.211 2892.2,-155.629 2885,-180 2882.32,-189.073 2878.29,-198.549 2874.24,-206.937"/>
<polygon fill="black" stroke="black" points="2869.73,-215.866 2870.22,-204.911 2871.98,-211.402 2874.24,-206.938 2874.24,-206.938 2874.24,-206.938 2871.98,-211.402 2878.25,-208.966 2869.73,-215.866 2869.73,-215.866"/>
</g>
<!-- 8 -->
<g id="node9" class="node"><title>8</title>
<polygon fill="none" stroke="black" points="3265,-252 3083,-252 3083,-216 3265,-216 3265,-252"/>
<text text-anchor="middle" x="3174" y="-230.3" font-family="Times,serif" font-size="14.00">Environment.CollisionModels</text>
</g>
<!-- 9&#45;&gt;11 -->
<g id="edge17" class="edge"><title>9&#45;&gt;11</title>
<path fill="none" stroke="black" d="M2852.43,-180.034C2880.23,-189.815 2915.34,-202.164 2944.65,-212.476"/>
<polygon fill="black" stroke="black" points="2954.36,-215.889 2943.43,-216.816 2949.64,-214.23 2944.92,-212.571 2944.92,-212.571 2944.92,-212.571 2949.64,-214.23 2946.42,-208.326 2954.36,-215.889 2954.36,-215.889"/>
</g>
<!-- 9&#45;&gt;12 -->
<g id="edge18" class="edge"><title>9&#45;&gt;12</title>
<path fill="none" stroke="black" d="M2817.84,-180.303C2824.49,-188.611 2832.58,-198.723 2839.89,-207.859"/>
<polygon fill="black" stroke="black" points="2846.32,-215.896 2836.56,-210.898 2843.19,-211.991 2840.07,-208.087 2840.07,-208.087 2840.07,-208.087 2843.19,-211.991 2843.58,-205.276 2846.32,-215.896 2846.32,-215.896"/>
</g>
<!-- 14 -->
<g id="node15" class="node"><title>14</title>
<polygon fill="none" stroke="black" points="3080,-324 2926,-324 2926,-288 3080,-288 3080,-324"/>
<text text-anchor="middle" x="3003" y="-302.3" font-family="Times,serif" font-size="14.00">Environment.plotsettings</text>
</g>
<!-- 9&#45;&gt;14 -->
<g id="edge19" class="edge"><title>9&#45;&gt;14</title>
<path fill="none" stroke="black" d="M2793.68,-180.308C2783.57,-199.776 2771.83,-231.362 2788,-252 2804.09,-272.541 2863.57,-286.2 2915.9,-294.501"/>
<polygon fill="black" stroke="black" points="2925.92,-296.039 2915.35,-298.968 2920.98,-295.28 2916.04,-294.521 2916.04,-294.521 2916.04,-294.521 2920.98,-295.28 2916.72,-290.073 2925.92,-296.039 2925.92,-296.039"/>
</g>
<!-- 10&#45;&gt;8 -->
<g id="edge20" class="edge"><title>10&#45;&gt;8</title>
<path fill="none" stroke="black" d="M3176.26,-180.303C3175.93,-188.017 3175.53,-197.288 3175.16,-205.888"/>
<polygon fill="black" stroke="black" points="3174.73,-215.896 3170.67,-205.712 3174.95,-210.9 3175.16,-205.905 3175.16,-205.905 3175.16,-205.905 3174.95,-210.9 3179.66,-206.098 3174.73,-215.896 3174.73,-215.896"/>
</g>
<!-- 10&#45;&gt;11 -->
<g id="edge21" class="edge"><title>10&#45;&gt;11</title>
<path fill="none" stroke="black" d="M3134.43,-180.124C3110.44,-189.778 3080.27,-201.913 3054.9,-212.122"/>
<polygon fill="black" stroke="black" points="3045.43,-215.932 3053.02,-208.025 3050.07,-214.066 3054.7,-212.199 3054.7,-212.199 3054.7,-212.199 3050.07,-214.066 3056.38,-216.374 3045.43,-215.932 3045.43,-215.932"/>
</g>
<!-- 13 -->
<g id="node14" class="node"><title>13</title>
<polygon fill="none" stroke="black" points="3518.5,-252 3321.5,-252 3321.5,-216 3518.5,-216 3518.5,-252"/>
<text text-anchor="middle" x="3420" y="-230.3" font-family="Times,serif" font-size="14.00">Environment.ResultMultiPlayers</text>
</g>
<!-- 10&#45;&gt;13 -->
<g id="edge22" class="edge"><title>10&#45;&gt;13</title>
<path fill="none" stroke="black" d="M3236.13,-180.034C3270.68,-189.985 3314.45,-202.594 3350.62,-213.013"/>
<polygon fill="black" stroke="black" points="3360.6,-215.889 3349.75,-217.445 3355.8,-214.505 3350.99,-213.121 3350.99,-213.121 3350.99,-213.121 3355.8,-214.505 3352.24,-208.797 3360.6,-215.889 3360.6,-215.889"/>
</g>
<!-- 10&#45;&gt;14 -->
<g id="edge23" class="edge"><title>10&#45;&gt;14</title>
<path fill="none" stroke="black" d="M3231.02,-180.038C3247.77,-188.149 3264.36,-199.742 3274,-216 3282.16,-229.761 3284.17,-239.648 3274,-252 3250.95,-279.999 3160.47,-293.415 3090.33,-299.706"/>
<polygon fill="black" stroke="black" points="3080.14,-300.583 3089.72,-295.242 3085.12,-300.155 3090.1,-299.726 3090.1,-299.726 3090.1,-299.726 3085.12,-300.155 3090.49,-304.209 3080.14,-300.583 3080.14,-300.583"/>
</g>
<!-- 11&#45;&gt;14 -->
<g id="edge24" class="edge"><title>11&#45;&gt;14</title>
<path fill="none" stroke="black" d="M3003,-252.303C3003,-260.017 3003,-269.288 3003,-277.888"/>
<polygon fill="black" stroke="black" points="3003,-287.896 2998.5,-277.896 3003,-282.896 3003,-277.896 3003,-277.896 3003,-277.896 3003,-282.896 3007.5,-277.896 3003,-287.896 3003,-287.896"/>
</g>
<!-- 15 -->
<g id="node16" class="node"><title>15</title>
<polygon fill="none" stroke="black" points="1719.5,-180 1660.5,-180 1660.5,-144 1719.5,-144 1719.5,-180"/>
<text text-anchor="middle" x="1690" y="-158.3" font-family="Times,serif" font-size="14.00">Policies</text>
</g>
<!-- 16 -->
<g id="node17" class="node"><title>16</title>
<polygon fill="none" stroke="black" points="690.5,-324 569.5,-324 569.5,-288 690.5,-288 690.5,-324"/>
<text text-anchor="middle" x="630" y="-302.3" font-family="Times,serif" font-size="14.00">Policies.AdBandits</text>
</g>
<!-- 15&#45;&gt;16 -->
<g id="edge25" class="edge"><title>15&#45;&gt;16</title>
<path fill="none" stroke="black" d="M1660.25,-163.468C1493.79,-166.216 683.95,-181.336 645,-216 628.034,-231.1 625.471,-257.633 626.441,-277.811"/>
<polygon fill="black" stroke="black" points="627.243,-287.972 621.97,-278.357 626.85,-282.987 626.456,-278.003 626.456,-278.003 626.456,-278.003 626.85,-282.987 630.942,-277.649 627.243,-287.972 627.243,-287.972"/>
</g>
<!-- 17 -->
<g id="node18" class="node"><title>17</title>
<polygon fill="none" stroke="black" points="1045.5,-468 954.5,-468 954.5,-432 1045.5,-432 1045.5,-468"/>
<text text-anchor="middle" x="1000" y="-446.3" font-family="Times,serif" font-size="14.00">Policies.Aggr</text>
</g>
<!-- 15&#45;&gt;17 -->
<g id="edge26" class="edge"><title>15&#45;&gt;17</title>
<path fill="none" stroke="black" d="M1660.32,-163.051C1564.12,-163.676 1262.41,-169.395 1179,-216 1156.55,-228.543 1058.41,-365.892 1017.74,-423.648"/>
<polygon fill="black" stroke="black" points="1011.95,-431.886 1014.02,-421.117 1014.83,-427.795 1017.7,-423.704 1017.7,-423.704 1017.7,-423.704 1014.83,-427.795 1021.39,-426.292 1011.95,-431.886 1011.95,-431.886"/>
</g>
<!-- 19 -->
<g id="node20" class="node"><title>19</title>
<polygon fill="none" stroke="black" points="992,-252 868,-252 868,-216 992,-216 992,-252"/>
<text text-anchor="middle" x="930" y="-230.3" font-family="Times,serif" font-size="14.00">Policies.BayesUCB</text>
</g>
<!-- 15&#45;&gt;19 -->
<g id="edge27" class="edge"><title>15&#45;&gt;19</title>
<path fill="none" stroke="black" d="M1660.26,-163.609C1565.45,-165.903 1261.87,-175.971 1002.22,-215.955"/>
<polygon fill="black" stroke="black" points="992.227,-217.512 1001.41,-211.526 997.167,-216.742 1002.11,-215.972 1002.11,-215.972 1002.11,-215.972 997.167,-216.742 1002.8,-220.418 992.227,-217.512 992.227,-217.512"/>
</g>
<!-- 22 -->
<g id="node23" class="node"><title>22</title>
<polygon fill="none" stroke="black" points="1353.5,-252 1188.5,-252 1188.5,-216 1353.5,-216 1353.5,-252"/>
<text text-anchor="middle" x="1271" y="-230.3" font-family="Times,serif" font-size="14.00">Policies.EpsilonDecreasing</text>
</g>
<!-- 15&#45;&gt;22 -->
<g id="edge28" class="edge"><title>15&#45;&gt;22</title>
<path fill="none" stroke="black" d="M1660.21,-167.604C1604.32,-176.289 1479.69,-195.884 1363.84,-215.874"/>
<polygon fill="black" stroke="black" points="1353.74,-217.623 1362.82,-211.483 1358.66,-216.77 1363.59,-215.918 1363.59,-215.918 1363.59,-215.918 1358.66,-216.77 1364.36,-220.352 1353.74,-217.623 1353.74,-217.623"/>
</g>
<!-- 23 -->
<g id="node24" class="node"><title>23</title>
<polygon fill="none" stroke="black" points="1578,-252 1372,-252 1372,-216 1578,-216 1578,-252"/>
<text text-anchor="middle" x="1475" y="-230.3" font-family="Times,serif" font-size="14.00">Policies.EpsilonDecreasingMEGA</text>
</g>
<!-- 15&#45;&gt;23 -->
<g id="edge29" class="edge"><title>15&#45;&gt;23</title>
<path fill="none" stroke="black" d="M1660.11,-172.733C1628.38,-183.062 1577.35,-199.678 1536.89,-212.85"/>
<polygon fill="black" stroke="black" points="1527.38,-215.946 1535.5,-208.571 1532.13,-214.398 1536.89,-212.85 1536.89,-212.85 1536.89,-212.85 1532.13,-214.398 1538.28,-217.129 1527.38,-215.946 1527.38,-215.946"/>
</g>
<!-- 24 -->
<g id="node25" class="node"><title>24</title>
<polygon fill="none" stroke="black" points="1783.5,-252 1596.5,-252 1596.5,-216 1783.5,-216 1783.5,-252"/>
<text text-anchor="middle" x="1690" y="-230.3" font-family="Times,serif" font-size="14.00">Policies.EpsilonExpDecreasing</text>
</g>
<!-- 15&#45;&gt;24 -->
<g id="edge30" class="edge"><title>15&#45;&gt;24</title>
<path fill="none" stroke="black" d="M1690,-180.303C1690,-188.017 1690,-197.288 1690,-205.888"/>
<polygon fill="black" stroke="black" points="1690,-215.896 1685.5,-205.896 1690,-210.896 1690,-205.896 1690,-205.896 1690,-205.896 1690,-210.896 1694.5,-205.896 1690,-215.896 1690,-215.896"/>
</g>
<!-- 25 -->
<g id="node26" class="node"><title>25</title>
<polygon fill="none" stroke="black" points="1930.5,-252 1801.5,-252 1801.5,-216 1930.5,-216 1930.5,-252"/>
<text text-anchor="middle" x="1866" y="-230.3" font-family="Times,serif" font-size="14.00">Policies.EpsilonFirst</text>
</g>
<!-- 15&#45;&gt;25 -->
<g id="edge31" class="edge"><title>15&#45;&gt;25</title>
<path fill="none" stroke="black" d="M1719.86,-174.875C1745.43,-185.047 1782.87,-199.936 1813.45,-212.098"/>
<polygon fill="black" stroke="black" points="1823.11,-215.941 1812.15,-216.427 1818.46,-214.093 1813.82,-212.245 1813.82,-212.245 1813.82,-212.245 1818.46,-214.093 1815.48,-208.064 1823.11,-215.941 1823.11,-215.941"/>
</g>
<!-- 26 -->
<g id="node27" class="node"><title>26</title>
<polygon fill="none" stroke="black" points="1602,-324 1458,-324 1458,-288 1602,-288 1602,-324"/>
<text text-anchor="middle" x="1530" y="-302.3" font-family="Times,serif" font-size="14.00">Policies.EpsilonGreedy</text>
</g>
<!-- 15&#45;&gt;26 -->
<g id="edge32" class="edge"><title>15&#45;&gt;26</title>
<path fill="none" stroke="black" d="M1719.63,-163.648C1798.26,-166.348 2002.03,-180.273 1939,-252 1937.66,-253.529 1731.62,-279.657 1612.53,-294.645"/>
<polygon fill="black" stroke="black" points="1602.35,-295.926 1611.71,-290.213 1607.31,-295.302 1612.27,-294.678 1612.27,-294.678 1612.27,-294.678 1607.31,-295.302 1612.83,-299.143 1602.35,-295.926 1602.35,-295.926"/>
</g>
<!-- 29 -->
<g id="node30" class="node"><title>29</title>
<polygon fill="none" stroke="black" points="328,-468 224,-468 224,-432 328,-432 328,-468"/>
<text text-anchor="middle" x="276" y="-446.3" font-family="Times,serif" font-size="14.00">Policies.MEGA</text>
</g>
<!-- 15&#45;&gt;29 -->
<g id="edge33" class="edge"><title>15&#45;&gt;29</title>
<path fill="none" stroke="black" d="M1660.38,-163.083C1464.13,-163.761 357.655,-169.636 305,-216 246.427,-267.574 259.244,-372.324 269.43,-421.868"/>
<polygon fill="black" stroke="black" points="271.601,-431.839 265.077,-423.025 270.537,-426.954 269.474,-422.068 269.474,-422.068 269.474,-422.068 270.537,-426.954 273.871,-421.111 271.601,-431.839 271.601,-431.839"/>
</g>
<!-- 30 -->
<g id="node31" class="node"><title>30</title>
<polygon fill="none" stroke="black" points="2373.5,-396 2272.5,-396 2272.5,-360 2373.5,-360 2373.5,-396"/>
<text text-anchor="middle" x="2323" y="-374.3" font-family="Times,serif" font-size="14.00">Policies.MOSS</text>
</g>
<!-- 15&#45;&gt;30 -->
<g id="edge34" class="edge"><title>15&#45;&gt;30</title>
<path fill="none" stroke="black" d="M1719.7,-162.923C1828.8,-163.035 2206.73,-167.025 2315,-216 2368.25,-240.085 2415.46,-271.398 2390,-324 2384.24,-335.903 2374.36,-345.944 2363.94,-353.976"/>
<polygon fill="black" stroke="black" points="2355.53,-359.984 2361.05,-350.51 2359.6,-357.078 2363.66,-354.172 2363.66,-354.172 2363.66,-354.172 2359.6,-357.078 2366.28,-357.833 2355.53,-359.984 2355.53,-359.984"/>
</g>
<!-- 31 -->
<g id="node32" class="node"><title>31</title>
<polygon fill="none" stroke="black" points="427.5,-396 290.5,-396 290.5,-360 427.5,-360 427.5,-396"/>
<text text-anchor="middle" x="359" y="-374.3" font-family="Times,serif" font-size="14.00">Policies.MusicalChair</text>
</g>
<!-- 15&#45;&gt;31 -->
<g id="edge35" class="edge"><title>15&#45;&gt;31</title>
<path fill="none" stroke="black" d="M1660.38,-163C1465.36,-163.141 371.946,-166.158 324,-216 288.867,-252.522 319.126,-315.604 341.093,-350.992"/>
<polygon fill="black" stroke="black" points="346.731,-359.776 337.542,-353.791 344.03,-355.568 341.329,-351.36 341.329,-351.36 341.329,-351.36 344.03,-355.568 345.117,-348.93 346.731,-359.776 346.731,-359.776"/>
</g>
<!-- 33 -->
<g id="node34" class="node"><title>33</title>
<polygon fill="none" stroke="black" points="516,-468 406,-468 406,-432 516,-432 516,-468"/>
<text text-anchor="middle" x="461" y="-446.3" font-family="Times,serif" font-size="14.00">Policies.Softmax</text>
</g>
<!-- 15&#45;&gt;33 -->
<g id="edge36" class="edge"><title>15&#45;&gt;33</title>
<path fill="none" stroke="black" d="M1660.47,-163.054C1470.74,-163.545 429.703,-168.405 384,-216 369.317,-231.291 384.86,-303.684 396,-324 407.5,-344.972 423.378,-339.684 436,-360 447.682,-378.804 454.033,-403.181 457.407,-421.667"/>
<polygon fill="black" stroke="black" points="459.066,-431.784 453.007,-422.645 458.257,-426.85 457.447,-421.916 457.447,-421.916 457.447,-421.916 458.257,-426.85 461.888,-421.188 459.066,-431.784 459.066,-431.784"/>
</g>
<!-- 34 -->
<g id="node35" class="node"><title>34</title>
<polygon fill="none" stroke="black" points="551,-324 405,-324 405,-288 551,-288 551,-324"/>
<text text-anchor="middle" x="478" y="-302.3" font-family="Times,serif" font-size="14.00">Policies.TakeFixedArm</text>
</g>
<!-- 15&#45;&gt;34 -->
<g id="edge37" class="edge"><title>15&#45;&gt;34</title>
<path fill="none" stroke="black" d="M1660.41,-163.065C1471.47,-163.622 440.286,-168.823 395,-216 383.92,-227.543 387.312,-237.968 395,-252 401.941,-264.668 413.342,-274.748 425.503,-282.567"/>
<polygon fill="black" stroke="black" points="434.439,-287.866 423.542,-286.636 430.138,-285.316 425.837,-282.766 425.837,-282.766 425.837,-282.766 430.138,-285.316 428.132,-278.895 434.439,-287.866 434.439,-287.866"/>
</g>
<!-- 35 -->
<g id="node36" class="node"><title>35</title>
<polygon fill="none" stroke="black" points="597.5,-252 404.5,-252 404.5,-216 597.5,-216 597.5,-252"/>
<text text-anchor="middle" x="501" y="-230.3" font-family="Times,serif" font-size="14.00">Policies.TakeRandomFixedArm</text>
</g>
<!-- 15&#45;&gt;35 -->
<g id="edge38" class="edge"><title>15&#45;&gt;35</title>
<path fill="none" stroke="black" d="M1660.34,-163.341C1533.75,-165.031 1026.35,-174.197 612,-216 610.691,-216.132 609.373,-216.269 608.049,-216.41"/>
<polygon fill="black" stroke="black" points="597.786,-217.577 607.214,-211.976 602.754,-217.013 607.722,-216.448 607.722,-216.448 607.722,-216.448 602.754,-217.013 608.231,-220.919 597.786,-217.577 597.786,-217.577"/>
</g>
<!-- 36 -->
<g id="node37" class="node"><title>36</title>
<polygon fill="none" stroke="black" points="1132,-252 1010,-252 1010,-216 1132,-216 1132,-252"/>
<text text-anchor="middle" x="1071" y="-230.3" font-family="Times,serif" font-size="14.00">Policies.Thompson</text>
</g>
<!-- 15&#45;&gt;36 -->
<g id="edge39" class="edge"><title>15&#45;&gt;36</title>
<path fill="none" stroke="black" d="M1660.35,-164.574C1578.19,-169.219 1340.85,-184.553 1146,-216 1144.74,-216.203 1143.47,-216.415 1142.19,-216.635"/>
<polygon fill="black" stroke="black" points="1132.27,-218.452 1141.3,-212.223 1137.19,-217.551 1142.11,-216.65 1142.11,-216.65 1142.11,-216.65 1137.19,-217.551 1142.92,-221.076 1132.27,-218.452 1132.27,-218.452"/>
</g>
<!-- 37 -->
<g id="node38" class="node"><title>37</title>
<polygon fill="none" stroke="black" points="2111.5,-396 2020.5,-396 2020.5,-360 2111.5,-360 2111.5,-396"/>
<text text-anchor="middle" x="2066" y="-374.3" font-family="Times,serif" font-size="14.00">Policies.UCB</text>
</g>
<!-- 15&#45;&gt;37 -->
<g id="edge40" class="edge"><title>15&#45;&gt;37</title>
<path fill="none" stroke="black" d="M1719.75,-163.086C1793.48,-163.994 1981.47,-170.787 2020,-216 2030.38,-228.178 2022.95,-236.274 2020,-252 2016.83,-268.873 2009.17,-271.127 2006,-288 2003.05,-303.726 1999.42,-309.414 2006,-324 2011.18,-335.482 2020.21,-345.477 2029.72,-353.598"/>
<polygon fill="black" stroke="black" points="2037.74,-359.971 2027.11,-357.275 2033.82,-356.861 2029.91,-353.752 2029.91,-353.752 2029.91,-353.752 2033.82,-356.861 2032.71,-350.228 2037.74,-359.971 2037.74,-359.971"/>
</g>
<!-- 38 -->
<g id="node39" class="node"><title>38</title>
<polygon fill="none" stroke="black" points="2116.5,-324 2015.5,-324 2015.5,-288 2116.5,-288 2116.5,-324"/>
<text text-anchor="middle" x="2066" y="-302.3" font-family="Times,serif" font-size="14.00">Policies.UCBV</text>
</g>
<!-- 15&#45;&gt;38 -->
<g id="edge41" class="edge"><title>15&#45;&gt;38</title>
<path fill="none" stroke="black" d="M1719.62,-164.74C1807.6,-170.207 2062.78,-188.335 2087,-216 2102.17,-233.325 2093.41,-259.584 2082.97,-279.095"/>
<polygon fill="black" stroke="black" points="2077.97,-287.794 2079.05,-276.882 2080.46,-283.459 2082.95,-279.124 2082.95,-279.124 2082.95,-279.124 2080.46,-283.459 2086.85,-281.367 2077.97,-287.794 2077.97,-287.794"/>
</g>
<!-- 39 -->
<g id="node40" class="node"><title>39</title>
<polygon fill="none" stroke="black" points="2255,-324 2135,-324 2135,-288 2255,-288 2255,-324"/>
<text text-anchor="middle" x="2195" y="-302.3" font-family="Times,serif" font-size="14.00">Policies.UCBalpha</text>
</g>
<!-- 15&#45;&gt;39 -->
<g id="edge42" class="edge"><title>15&#45;&gt;39</title>
<path fill="none" stroke="black" d="M1719.68,-163.43C1832.69,-165.369 2231.66,-175.086 2269,-216 2279.79,-227.818 2276.31,-237.769 2269,-252 2262.73,-264.209 2252.19,-274.234 2241.01,-282.152"/>
<polygon fill="black" stroke="black" points="2232.39,-287.798 2238.29,-278.554 2236.57,-285.058 2240.76,-282.318 2240.76,-282.318 2240.76,-282.318 2236.57,-285.058 2243.22,-286.082 2232.39,-287.798 2232.39,-287.798"/>
</g>
<!-- 40 -->
<g id="node41" class="node"><title>40</title>
<polygon fill="none" stroke="black" points="2381,-324 2273,-324 2273,-288 2381,-288 2381,-324"/>
<text text-anchor="middle" x="2327" y="-302.3" font-family="Times,serif" font-size="14.00">Policies.UCBopt</text>
</g>
<!-- 15&#45;&gt;40 -->
<g id="edge43" class="edge"><title>15&#45;&gt;40</title>
<path fill="none" stroke="black" d="M1719.72,-163.893C1833.91,-167.561 2240.42,-182.856 2287,-216 2307.22,-230.386 2317.39,-257.444 2322.4,-277.965"/>
<polygon fill="black" stroke="black" points="2324.57,-287.998 2318.06,-279.178 2323.52,-283.111 2322.46,-278.225 2322.46,-278.225 2322.46,-278.225 2323.52,-283.111 2326.86,-277.272 2324.57,-287.998 2324.57,-287.998"/>
</g>
<!-- 41 -->
<g id="node42" class="node"><title>41</title>
<polygon fill="none" stroke="black" points="1788.5,-324 1675.5,-324 1675.5,-288 1788.5,-288 1788.5,-324"/>
<text text-anchor="middle" x="1732" y="-302.3" font-family="Times,serif" font-size="14.00">Policies.UCBplus</text>
</g>
<!-- 15&#45;&gt;41 -->
<g id="edge44" class="edge"><title>15&#45;&gt;41</title>
<path fill="none" stroke="black" d="M1719.62,-163.956C1785.53,-166.771 1940.99,-177.442 1973,-216 2061.17,-322.215 1995.92,-245.257 1798.64,-287.974"/>
<polygon fill="black" stroke="black" points="1788.84,-290.171 1797.61,-283.592 1793.72,-289.077 1798.6,-287.983 1798.6,-287.983 1798.6,-287.983 1793.72,-289.077 1799.58,-292.374 1788.84,-290.171 1788.84,-290.171"/>
</g>
<!-- 42 -->
<g id="node43" class="node"><title>42</title>
<polygon fill="none" stroke="black" points="1959,-324 1807,-324 1807,-288 1959,-288 1959,-324"/>
<text text-anchor="middle" x="1883" y="-302.3" font-family="Times,serif" font-size="14.00">Policies.UCBrandomInit</text>
</g>
<!-- 15&#45;&gt;42 -->
<g id="edge45" class="edge"><title>15&#45;&gt;42</title>
<path fill="none" stroke="black" d="M1719.69,-163.39C1790.49,-165.011 1965.98,-173.34 2002,-216 2012.32,-228.224 2010.71,-238.581 2002,-252 1993.08,-265.745 1979.67,-275.955 1965.03,-283.53"/>
<polygon fill="black" stroke="black" points="1955.79,-287.914 1962.9,-279.562 1960.31,-285.771 1964.83,-283.628 1964.83,-283.628 1964.83,-283.628 1960.31,-285.771 1966.75,-287.694 1955.79,-287.914 1955.79,-287.914"/>
</g>
<!-- 43 -->
<g id="node44" class="node"><title>43</title>
<polygon fill="none" stroke="black" points="2260.5,-252 2139.5,-252 2139.5,-216 2260.5,-216 2260.5,-252"/>
<text text-anchor="middle" x="2200" y="-230.3" font-family="Times,serif" font-size="14.00">Policies.UCBtuned</text>
</g>
<!-- 15&#45;&gt;43 -->
<g id="edge46" class="edge"><title>15&#45;&gt;43</title>
<path fill="none" stroke="black" d="M1719.69,-165.567C1790.28,-171.9 1973.59,-189.686 2125,-216 2126.29,-216.225 2127.6,-216.458 2128.92,-216.698"/>
<polygon fill="black" stroke="black" points="2139.12,-218.655 2128.45,-221.19 2134.21,-217.713 2129.29,-216.77 2129.29,-216.77 2129.29,-216.77 2134.21,-217.713 2130.14,-212.351 2139.12,-218.655 2139.12,-218.655"/>
</g>
<!-- 44 -->
<g id="node45" class="node"><title>44</title>
<polygon fill="none" stroke="black" points="821,-324 711,-324 711,-288 821,-288 821,-324"/>
<text text-anchor="middle" x="766" y="-302.3" font-family="Times,serif" font-size="14.00">Policies.Uniform</text>
</g>
<!-- 15&#45;&gt;44 -->
<g id="edge47" class="edge"><title>15&#45;&gt;44</title>
<path fill="none" stroke="black" d="M1660.14,-163.694C1520.26,-167.108 933.545,-183.285 859,-216 857.924,-216.472 818.121,-254.739 790.941,-280.935"/>
<polygon fill="black" stroke="black" points="783.652,-287.962 787.728,-277.782 787.252,-284.492 790.851,-281.022 790.851,-281.022 790.851,-281.022 787.252,-284.492 793.975,-284.261 783.652,-287.962 783.652,-287.962"/>
</g>
<!-- 45 -->
<g id="node46" class="node"><title>45</title>
<polygon fill="none" stroke="black" points="812,-252 654,-252 654,-216 812,-216 812,-252"/>
<text text-anchor="middle" x="733" y="-230.3" font-family="Times,serif" font-size="14.00">Policies.UniformOnSome</text>
</g>
<!-- 15&#45;&gt;45 -->
<g id="edge48" class="edge"><title>15&#45;&gt;45</title>
<path fill="none" stroke="black" d="M1660.42,-163.534C1550,-165.799 1151.59,-176.399 826,-216 824.717,-216.156 823.425,-216.319 822.125,-216.487"/>
<polygon fill="black" stroke="black" points="812.05,-217.886 821.336,-212.053 817.002,-217.198 821.955,-216.511 821.955,-216.511 821.955,-216.511 817.002,-217.198 822.573,-220.968 812.05,-217.886 812.05,-217.886"/>
</g>
<!-- 46 -->
<g id="node47" class="node"><title>46</title>
<polygon fill="none" stroke="black" points="2728.5,-324 2627.5,-324 2627.5,-288 2728.5,-288 2728.5,-324"/>
<text text-anchor="middle" x="2678" y="-302.3" font-family="Times,serif" font-size="14.00">Policies.klUCB</text>
</g>
<!-- 15&#45;&gt;46 -->
<g id="edge49" class="edge"><title>15&#45;&gt;46</title>
<path fill="none" stroke="black" d="M1719.61,-163.588C1863.79,-166.613 2488.76,-181.623 2568,-216 2589.34,-225.259 2588.15,-237.076 2606,-252 2618.29,-262.275 2632.37,-272.877 2644.8,-281.874"/>
<polygon fill="black" stroke="black" points="2653.1,-287.822 2642.35,-285.655 2649.03,-284.91 2644.97,-281.997 2644.97,-281.997 2644.97,-281.997 2649.03,-284.91 2647.59,-278.34 2653.1,-287.822 2653.1,-287.822"/>
</g>
<!-- 47 -->
<g id="node48" class="node"><title>47</title>
<polygon fill="none" stroke="black" points="2559,-252 2425,-252 2425,-216 2559,-216 2559,-252"/>
<text text-anchor="middle" x="2492" y="-230.3" font-family="Times,serif" font-size="14.00">Policies.klUCBHPlus</text>
</g>
<!-- 15&#45;&gt;47 -->
<g id="edge50" class="edge"><title>15&#45;&gt;47</title>
<path fill="none" stroke="black" d="M1719.68,-163.762C1818.38,-166.6 2144.42,-178.398 2411,-216 2412.28,-216.181 2413.57,-216.37 2414.87,-216.566"/>
<polygon fill="black" stroke="black" points="2424.94,-218.206 2414.34,-221.04 2420,-217.402 2415.07,-216.598 2415.07,-216.598 2415.07,-216.598 2420,-217.402 2415.79,-212.157 2424.94,-218.206 2424.94,-218.206"/>
</g>
<!-- 48 -->
<g id="node49" class="node"><title>48</title>
<polygon fill="none" stroke="black" points="2740.5,-252 2615.5,-252 2615.5,-216 2740.5,-216 2740.5,-252"/>
<text text-anchor="middle" x="2678" y="-230.3" font-family="Times,serif" font-size="14.00">Policies.klUCBPlus</text>
</g>
<!-- 15&#45;&gt;48 -->
<g id="edge51" class="edge"><title>15&#45;&gt;48</title>
<path fill="none" stroke="black" d="M1719.66,-163.015C1834,-163.435 2256.94,-168.32 2601,-216 2602.3,-216.18 2603.6,-216.37 2604.92,-216.569"/>
<polygon fill="black" stroke="black" points="2615.12,-218.261 2604.51,-221.063 2610.18,-217.443 2605.25,-216.624 2605.25,-216.624 2605.25,-216.624 2610.18,-217.443 2605.99,-212.185 2615.12,-218.261 2615.12,-218.261"/>
</g>
<!-- 18 -->
<g id="node19" class="node"><title>18</title>
<polygon fill="none" stroke="black" points="660,-540 536,-540 536,-504 660,-504 660,-540"/>
<text text-anchor="middle" x="598" y="-518.3" font-family="Times,serif" font-size="14.00">Policies.BasePolicy</text>
</g>
<!-- 16&#45;&gt;18 -->
<g id="edge52" class="edge"><title>16&#45;&gt;18</title>
<path fill="none" stroke="black" d="M627.435,-324.151C621.9,-361.168 608.793,-448.819 602.095,-493.614"/>
<polygon fill="black" stroke="black" points="600.577,-503.768 597.605,-493.212 601.316,-498.823 602.056,-493.878 602.056,-493.878 602.056,-493.878 601.316,-498.823 606.506,-494.543 600.577,-503.768 600.577,-503.768"/>
</g>
<!-- 21 -->
<g id="node22" class="node"><title>21</title>
<polygon fill="none" stroke="black" points="726,-396 638,-396 638,-360 726,-360 726,-396"/>
<text text-anchor="middle" x="682" y="-374.3" font-family="Times,serif" font-size="14.00">Policies.Beta</text>
</g>
<!-- 16&#45;&gt;21 -->
<g id="edge53" class="edge"><title>16&#45;&gt;21</title>
<path fill="none" stroke="black" d="M642.854,-324.303C649.025,-332.611 656.537,-342.723 663.324,-351.859"/>
<polygon fill="black" stroke="black" points="669.294,-359.896 659.718,-354.552 666.312,-355.882 663.331,-351.868 663.331,-351.868 663.331,-351.868 666.312,-355.882 666.943,-349.185 669.294,-359.896 669.294,-359.896"/>
</g>
<!-- 17&#45;&gt;18 -->
<g id="edge54" class="edge"><title>17&#45;&gt;18</title>
<path fill="none" stroke="black" d="M954.277,-458.962C884.937,-471.036 752.561,-494.086 670.147,-508.437"/>
<polygon fill="black" stroke="black" points="660.104,-510.186 669.184,-504.037 665.03,-509.328 669.956,-508.47 669.956,-508.47 669.956,-508.47 665.03,-509.328 670.728,-512.904 660.104,-510.186 660.104,-510.186"/>
</g>
<!-- 20 -->
<g id="node21" class="node"><title>20</title>
<polygon fill="none" stroke="black" points="1075,-324 897,-324 897,-288 1075,-288 1075,-324"/>
<text text-anchor="middle" x="986" y="-302.3" font-family="Times,serif" font-size="14.00">Policies.BayesianIndexPolicy</text>
</g>
<!-- 19&#45;&gt;20 -->
<g id="edge55" class="edge"><title>19&#45;&gt;20</title>
<path fill="none" stroke="black" d="M943.843,-252.303C950.489,-260.611 958.578,-270.723 965.887,-279.859"/>
<polygon fill="black" stroke="black" points="972.317,-287.896 962.556,-282.898 969.193,-283.991 966.07,-280.087 966.07,-280.087 966.07,-280.087 969.193,-283.991 969.583,-277.276 972.317,-287.896 972.317,-287.896"/>
</g>
<!-- 20&#45;&gt;21 -->
<g id="edge56" class="edge"><title>20&#45;&gt;21</title>
<path fill="none" stroke="black" d="M912.022,-324.034C857.598,-336.566 784.864,-353.314 735.877,-364.594"/>
<polygon fill="black" stroke="black" points="726.105,-366.844 734.84,-360.215 730.977,-365.722 735.85,-364.6 735.85,-364.6 735.85,-364.6 730.977,-365.722 736.859,-368.986 726.105,-366.844 726.105,-366.844"/>
</g>
<!-- 27 -->
<g id="node28" class="node"><title>27</title>
<polygon fill="none" stroke="black" points="2301,-468 2173,-468 2173,-432 2301,-432 2301,-468"/>
<text text-anchor="middle" x="2237" y="-446.3" font-family="Times,serif" font-size="14.00">Policies.IndexPolicy</text>
</g>
<!-- 20&#45;&gt;27 -->
<g id="edge57" class="edge"><title>20&#45;&gt;27</title>
<path fill="none" stroke="black" d="M1075.22,-317.127C1310.61,-343.846 1945.28,-415.887 2162.72,-440.569"/>
<polygon fill="black" stroke="black" points="2172.76,-441.708 2162.31,-445.051 2167.79,-441.144 2162.82,-440.58 2162.82,-440.58 2162.82,-440.58 2167.79,-441.144 2163.33,-436.109 2172.76,-441.708 2172.76,-441.708"/>
</g>
<!-- 32 -->
<g id="node33" class="node"><title>32</title>
<polygon fill="none" stroke="black" points="738,-468 626,-468 626,-432 738,-432 738,-468"/>
<text text-anchor="middle" x="682" y="-446.3" font-family="Times,serif" font-size="14.00">Policies.Posterior</text>
</g>
<!-- 21&#45;&gt;32 -->
<g id="edge58" class="edge"><title>21&#45;&gt;32</title>
<path fill="none" stroke="black" d="M682,-396.303C682,-404.017 682,-413.288 682,-421.888"/>
<polygon fill="black" stroke="black" points="682,-431.896 677.5,-421.896 682,-426.896 682,-421.896 682,-421.896 682,-421.896 682,-426.896 686.5,-421.896 682,-431.896 682,-431.896"/>
</g>
<!-- 22&#45;&gt;26 -->
<g id="edge59" class="edge"><title>22&#45;&gt;26</title>
<path fill="none" stroke="black" d="M1334.03,-252.034C1371.16,-262.07 1418.3,-274.81 1457.03,-285.279"/>
<polygon fill="black" stroke="black" points="1466.69,-287.889 1455.86,-289.624 1461.86,-286.585 1457.04,-285.28 1457.04,-285.28 1457.04,-285.28 1461.86,-286.585 1458.21,-280.936 1466.69,-287.889 1466.69,-287.889"/>
</g>
<!-- 23&#45;&gt;26 -->
<g id="edge60" class="edge"><title>23&#45;&gt;26</title>
<path fill="none" stroke="black" d="M1488.6,-252.303C1495.12,-260.611 1503.07,-270.723 1510.25,-279.859"/>
<polygon fill="black" stroke="black" points="1516.56,-287.896 1506.84,-282.813 1513.47,-283.964 1510.38,-280.032 1510.38,-280.032 1510.38,-280.032 1513.47,-283.964 1513.92,-277.252 1516.56,-287.896 1516.56,-287.896"/>
</g>
<!-- 24&#45;&gt;26 -->
<g id="edge61" class="edge"><title>24&#45;&gt;26</title>
<path fill="none" stroke="black" d="M1650.86,-252.124C1628.99,-261.693 1601.54,-273.7 1578.34,-283.852"/>
<polygon fill="black" stroke="black" points="1569.01,-287.932 1576.37,-279.801 1573.59,-285.928 1578.17,-283.923 1578.17,-283.923 1578.17,-283.923 1573.59,-285.928 1579.98,-288.046 1569.01,-287.932 1569.01,-287.932"/>
</g>
<!-- 25&#45;&gt;26 -->
<g id="edge62" class="edge"><title>25&#45;&gt;26</title>
<path fill="none" stroke="black" d="M1801.45,-249.934C1798.26,-250.64 1795.09,-251.332 1792,-252 1731.93,-264.973 1663.9,-278.706 1612.22,-288.942"/>
<polygon fill="black" stroke="black" points="1602.11,-290.941 1611.05,-284.587 1607.02,-289.971 1611.92,-289.001 1611.92,-289.001 1611.92,-289.001 1607.02,-289.971 1612.79,-293.416 1602.11,-290.941 1602.11,-290.941"/>
</g>
<!-- 26&#45;&gt;18 -->
<g id="edge63" class="edge"><title>26&#45;&gt;18</title>
<path fill="none" stroke="black" d="M1489.14,-324.101C1407.83,-357.388 1219.34,-430.865 1054,-468 920.532,-497.977 761.058,-511.581 670.443,-517.293"/>
<polygon fill="black" stroke="black" points="660.279,-517.918 669.984,-512.812 665.269,-517.611 670.26,-517.304 670.26,-517.304 670.26,-517.304 665.269,-517.611 670.537,-521.795 660.279,-517.918 660.279,-517.918"/>
</g>
<!-- 27&#45;&gt;18 -->
<g id="edge64" class="edge"><title>27&#45;&gt;18</title>
<path fill="none" stroke="black" d="M2172.75,-453.744C1913.3,-464.825 943.765,-506.233 670.25,-517.914"/>
<polygon fill="black" stroke="black" points="660.048,-518.35 669.847,-513.427 665.043,-518.137 670.039,-517.923 670.039,-517.923 670.039,-517.923 665.043,-518.137 670.231,-522.419 660.048,-518.35 660.048,-518.35"/>
</g>
<!-- 28 -->
<g id="node29" class="node"><title>28</title>
<polygon fill="none" stroke="black" points="2570.5,-324 2437.5,-324 2437.5,-288 2570.5,-288 2570.5,-324"/>
<text text-anchor="middle" x="2504" y="-302.3" font-family="Times,serif" font-size="14.00">Policies.KLempUCB</text>
</g>
<!-- 28&#45;&gt;27 -->
<g id="edge65" class="edge"><title>28&#45;&gt;27</title>
<path fill="none" stroke="black" d="M2484.02,-324.315C2460.77,-343.789 2420.62,-375.381 2382,-396 2357.79,-408.926 2329.74,-419.991 2304.81,-428.617"/>
<polygon fill="black" stroke="black" points="2295.06,-431.921 2303.08,-424.449 2299.79,-430.316 2304.53,-428.711 2304.53,-428.711 2304.53,-428.711 2299.79,-430.316 2305.97,-432.973 2295.06,-431.921 2295.06,-431.921"/>
</g>
<!-- 49 -->
<g id="node50" class="node"><title>49</title>
<polygon fill="none" stroke="black" points="2650,-396 2540,-396 2540,-360 2650,-360 2650,-396"/>
<text text-anchor="middle" x="2595" y="-374.3" font-family="Times,serif" font-size="14.00">Policies.kullback</text>
</g>
<!-- 28&#45;&gt;49 -->
<g id="edge66" class="edge"><title>28&#45;&gt;49</title>
<path fill="none" stroke="black" d="M2526.49,-324.303C2537.96,-333.119 2552.06,-343.968 2564.48,-353.526"/>
<polygon fill="black" stroke="black" points="2572.76,-359.896 2562.09,-357.365 2568.8,-356.847 2564.84,-353.799 2564.84,-353.799 2564.84,-353.799 2568.8,-356.847 2567.58,-350.232 2572.76,-359.896 2572.76,-359.896"/>
</g>
<!-- 29&#45;&gt;18 -->
<g id="edge67" class="edge"><title>29&#45;&gt;18</title>
<path fill="none" stroke="black" d="M328.093,-462.325C381.794,-473.999 465.928,-492.289 525.981,-505.344"/>
<polygon fill="black" stroke="black" points="535.778,-507.473 525.05,-509.746 530.892,-506.411 526.006,-505.349 526.006,-505.349 526.006,-505.349 530.892,-506.411 526.962,-500.952 535.778,-507.473 535.778,-507.473"/>
</g>
<!-- 30&#45;&gt;27 -->
<g id="edge68" class="edge"><title>30&#45;&gt;27</title>
<path fill="none" stroke="black" d="M2301.74,-396.303C2290.91,-405.119 2277.58,-415.968 2265.84,-425.526"/>
<polygon fill="black" stroke="black" points="2258.01,-431.896 2262.93,-422.093 2261.89,-428.739 2265.77,-425.583 2265.77,-425.583 2265.77,-425.583 2261.89,-428.739 2268.61,-429.073 2258.01,-431.896 2258.01,-431.896"/>
</g>
<!-- 31&#45;&gt;18 -->
<g id="edge69" class="edge"><title>31&#45;&gt;18</title>
<path fill="none" stroke="black" d="M361.667,-396.062C365.722,-416.207 375.387,-449.328 397,-468 432.446,-498.623 483.619,-511.818 525.46,-517.385"/>
<polygon fill="black" stroke="black" points="535.605,-518.612 525.137,-521.879 530.641,-518.012 525.678,-517.411 525.678,-517.411 525.678,-517.411 530.641,-518.012 526.218,-512.944 535.605,-518.612 535.605,-518.612"/>
</g>
<!-- 33&#45;&gt;18 -->
<g id="edge70" class="edge"><title>33&#45;&gt;18</title>
<path fill="none" stroke="black" d="M494.514,-468.124C512.841,-477.488 535.736,-489.186 555.328,-499.197"/>
<polygon fill="black" stroke="black" points="564.357,-503.81 553.405,-503.267 559.905,-501.535 555.452,-499.26 555.452,-499.26 555.452,-499.26 559.905,-501.535 557.5,-495.253 564.357,-503.81 564.357,-503.81"/>
</g>
<!-- 34&#45;&gt;18 -->
<g id="edge71" class="edge"><title>34&#45;&gt;18</title>
<path fill="none" stroke="black" d="M487.617,-324.151C508.594,-361.56 558.567,-450.678 583.432,-495.02"/>
<polygon fill="black" stroke="black" points="588.337,-503.768 579.521,-497.246 585.891,-499.406 583.446,-495.045 583.446,-495.045 583.446,-495.045 585.891,-499.406 587.371,-492.844 588.337,-503.768 588.337,-503.768"/>
</g>
<!-- 35&#45;&gt;34 -->
<g id="edge72" class="edge"><title>35&#45;&gt;34</title>
<path fill="none" stroke="black" d="M495.315,-252.303C492.752,-260.102 489.667,-269.491 486.815,-278.171"/>
<polygon fill="black" stroke="black" points="483.62,-287.896 482.466,-276.991 485.181,-283.146 486.742,-278.395 486.742,-278.395 486.742,-278.395 485.181,-283.146 491.017,-279.8 483.62,-287.896 483.62,-287.896"/>
</g>
<!-- 36&#45;&gt;20 -->
<g id="edge73" class="edge"><title>36&#45;&gt;20</title>
<path fill="none" stroke="black" d="M1049.99,-252.303C1039.28,-261.119 1026.11,-271.968 1014.5,-281.526"/>
<polygon fill="black" stroke="black" points="1006.77,-287.896 1011.63,-278.065 1010.63,-284.717 1014.49,-281.539 1014.49,-281.539 1014.49,-281.539 1010.63,-284.717 1017.35,-285.012 1006.77,-287.896 1006.77,-287.896"/>
</g>
<!-- 37&#45;&gt;27 -->
<g id="edge74" class="edge"><title>37&#45;&gt;27</title>
<path fill="none" stroke="black" d="M2107.83,-396.124C2131.42,-405.778 2161.06,-417.913 2186,-428.122"/>
<polygon fill="black" stroke="black" points="2195.3,-431.932 2184.35,-432.308 2190.68,-430.037 2186.05,-428.143 2186.05,-428.143 2186.05,-428.143 2190.68,-430.037 2187.75,-423.979 2195.3,-431.932 2195.3,-431.932"/>
</g>
<!-- 38&#45;&gt;37 -->
<g id="edge75" class="edge"><title>38&#45;&gt;37</title>
<path fill="none" stroke="black" d="M2066,-324.303C2066,-332.017 2066,-341.288 2066,-349.888"/>
<polygon fill="black" stroke="black" points="2066,-359.896 2061.5,-349.896 2066,-354.896 2066,-349.896 2066,-349.896 2066,-349.896 2066,-354.896 2070.5,-349.896 2066,-359.896 2066,-359.896"/>
</g>
<!-- 39&#45;&gt;37 -->
<g id="edge76" class="edge"><title>39&#45;&gt;37</title>
<path fill="none" stroke="black" d="M2163.44,-324.124C2146.34,-333.404 2125.02,-344.975 2106.68,-354.925"/>
<polygon fill="black" stroke="black" points="2097.68,-359.81 2104.32,-351.086 2102.07,-357.426 2106.47,-355.041 2106.47,-355.041 2106.47,-355.041 2102.07,-357.426 2108.61,-358.996 2097.68,-359.81 2097.68,-359.81"/>
</g>
<!-- 40&#45;&gt;37 -->
<g id="edge77" class="edge"><title>40&#45;&gt;37</title>
<path fill="none" stroke="black" d="M2272.71,-321.658C2269.76,-322.451 2266.84,-323.236 2264,-324 2215.85,-336.942 2161.08,-351.595 2121.38,-362.209"/>
<polygon fill="black" stroke="black" points="2111.62,-364.817 2120.12,-357.887 2116.45,-363.526 2121.28,-362.235 2121.28,-362.235 2121.28,-362.235 2116.45,-363.526 2122.44,-366.582 2111.62,-364.817 2111.62,-364.817"/>
</g>
<!-- 41&#45;&gt;37 -->
<g id="edge78" class="edge"><title>41&#45;&gt;37</title>
<path fill="none" stroke="black" d="M1788.83,-321.857C1791.93,-322.599 1795,-323.318 1798,-324 1870.99,-340.604 1955.85,-356.879 2010.19,-366.921"/>
<polygon fill="black" stroke="black" points="2020.31,-368.783 2009.66,-371.398 2015.39,-367.878 2010.48,-366.972 2010.48,-366.972 2010.48,-366.972 2015.39,-367.878 2011.29,-362.547 2020.31,-368.783 2020.31,-368.783"/>
</g>
<!-- 42&#45;&gt;37 -->
<g id="edge79" class="edge"><title>42&#45;&gt;37</title>
<path fill="none" stroke="black" d="M1927.77,-324.124C1953.12,-333.821 1985.01,-346.02 2011.77,-356.257"/>
<polygon fill="black" stroke="black" points="2021.38,-359.932 2010.43,-360.562 2016.71,-358.145 2012.04,-356.359 2012.04,-356.359 2012.04,-356.359 2016.71,-358.145 2013.65,-352.156 2021.38,-359.932 2021.38,-359.932"/>
</g>
<!-- 43&#45;&gt;38 -->
<g id="edge80" class="edge"><title>43&#45;&gt;38</title>
<path fill="none" stroke="black" d="M2167.22,-252.124C2149.37,-261.446 2127.1,-273.081 2108,-283.061"/>
<polygon fill="black" stroke="black" points="2098.91,-287.81 2105.69,-279.191 2103.34,-285.495 2107.77,-283.18 2107.77,-283.18 2107.77,-283.18 2103.34,-285.495 2109.85,-287.169 2098.91,-287.81 2098.91,-287.81"/>
</g>
<!-- 44&#45;&gt;18 -->
<g id="edge81" class="edge"><title>44&#45;&gt;18</title>
<path fill="none" stroke="black" d="M769.349,-324.235C774.535,-356.314 780.695,-425.753 747,-468 728.24,-491.521 698.24,-504.617 670.06,-511.903"/>
<polygon fill="black" stroke="black" points="660.189,-514.245 668.88,-507.558 665.054,-513.09 669.919,-511.936 669.919,-511.936 669.919,-511.936 665.054,-513.09 670.958,-516.314 660.189,-514.245 660.189,-514.245"/>
</g>
<!-- 45&#45;&gt;44 -->
<g id="edge82" class="edge"><title>45&#45;&gt;44</title>
<path fill="none" stroke="black" d="M741.157,-252.303C744.914,-260.272 749.453,-269.9 753.618,-278.736"/>
<polygon fill="black" stroke="black" points="757.937,-287.896 749.602,-280.769 755.804,-283.373 753.672,-278.85 753.672,-278.85 753.672,-278.85 755.804,-283.373 757.743,-276.931 757.937,-287.896 757.937,-287.896"/>
</g>
<!-- 46&#45;&gt;27 -->
<g id="edge83" class="edge"><title>46&#45;&gt;27</title>
<path fill="none" stroke="black" d="M2679.71,-324.234C2680.67,-344.549 2678.79,-377.836 2659,-396 2609.73,-441.231 2418.87,-448.988 2311.49,-449.657"/>
<polygon fill="black" stroke="black" points="2301.36,-449.7 2311.34,-445.157 2306.36,-449.679 2311.36,-449.657 2311.36,-449.657 2311.36,-449.657 2306.36,-449.679 2311.38,-454.157 2301.36,-449.7 2301.36,-449.7"/>
</g>
<!-- 46&#45;&gt;49 -->
<g id="edge84" class="edge"><title>46&#45;&gt;49</title>
<path fill="none" stroke="black" d="M2657.48,-324.303C2647.13,-333.035 2634.41,-343.76 2623.16,-353.25"/>
<polygon fill="black" stroke="black" points="2615.28,-359.896 2620.02,-350.009 2619.1,-356.672 2622.93,-353.449 2622.93,-353.449 2622.93,-353.449 2619.1,-356.672 2625.83,-356.889 2615.28,-359.896 2615.28,-359.896"/>
</g>
<!-- 47&#45;&gt;46 -->
<g id="edge85" class="edge"><title>47&#45;&gt;46</title>
<path fill="none" stroke="black" d="M2537.5,-252.124C2563.38,-261.863 2595.97,-274.128 2623.24,-284.392"/>
<polygon fill="black" stroke="black" points="2632.65,-287.932 2621.7,-288.621 2627.97,-286.171 2623.29,-284.409 2623.29,-284.409 2623.29,-284.409 2627.97,-286.171 2624.87,-280.198 2632.65,-287.932 2632.65,-287.932"/>
</g>
<!-- 47&#45;&gt;49 -->
<g id="edge86" class="edge"><title>47&#45;&gt;49</title>
<path fill="none" stroke="black" d="M2535.24,-252.098C2551.35,-260.569 2568.3,-272.389 2579,-288 2591.37,-306.055 2595.01,-330.84 2595.77,-349.67"/>
<polygon fill="black" stroke="black" points="2595.92,-359.705 2591.27,-349.776 2595.84,-354.706 2595.77,-349.706 2595.77,-349.706 2595.77,-349.706 2595.84,-354.706 2600.27,-349.637 2595.92,-359.705 2595.92,-359.705"/>
</g>
<!-- 48&#45;&gt;46 -->
<g id="edge87" class="edge"><title>48&#45;&gt;46</title>
<path fill="none" stroke="black" d="M2678,-252.303C2678,-260.017 2678,-269.288 2678,-277.888"/>
<polygon fill="black" stroke="black" points="2678,-287.896 2673.5,-277.896 2678,-282.896 2678,-277.896 2678,-277.896 2678,-277.896 2678,-282.896 2682.5,-277.896 2678,-287.896 2678,-287.896"/>
</g>
<!-- 50 -->
<g id="node51" class="node"><title>50</title>
<polygon fill="none" stroke="black" points="4285,-180 4155,-180 4155,-144 4285,-144 4285,-180"/>
<text text-anchor="middle" x="4220" y="-158.3" font-family="Times,serif" font-size="14.00">PoliciesMultiPlayers</text>
</g>
<!-- 51 -->
<g id="node52" class="node"><title>51</title>
<polygon fill="none" stroke="black" points="4857.5,-252 4676.5,-252 4676.5,-216 4857.5,-216 4857.5,-252"/>
<text text-anchor="middle" x="4767" y="-230.3" font-family="Times,serif" font-size="14.00">PoliciesMultiPlayers.ALOHA</text>
</g>
<!-- 50&#45;&gt;51 -->
<g id="edge88" class="edge"><title>50&#45;&gt;51</title>
<path fill="none" stroke="black" d="M4285.28,-169.698C4370.42,-178.667 4524.22,-195.662 4666.09,-215.909"/>
<polygon fill="black" stroke="black" points="4676.28,-217.373 4665.74,-220.406 4671.33,-216.662 4666.38,-215.951 4666.38,-215.951 4666.38,-215.951 4671.33,-216.662 4667.02,-211.497 4676.28,-217.373 4676.28,-217.373"/>
</g>
<!-- 54 -->
<g id="node55" class="node"><title>54</title>
<polygon fill="none" stroke="black" points="4214.5,-252 3975.5,-252 3975.5,-216 4214.5,-216 4214.5,-252"/>
<text text-anchor="middle" x="4095" y="-230.3" font-family="Times,serif" font-size="14.00">PoliciesMultiPlayers.CentralizedCycling</text>
</g>
<!-- 50&#45;&gt;54 -->
<g id="edge89" class="edge"><title>50&#45;&gt;54</title>
<path fill="none" stroke="black" d="M4189.42,-180.124C4172.93,-189.361 4152.38,-200.869 4134.66,-210.788"/>
<polygon fill="black" stroke="black" points="4125.7,-215.81 4132.22,-206.998 4130.06,-213.367 4134.42,-210.924 4134.42,-210.924 4134.42,-210.924 4130.06,-213.367 4136.62,-214.85 4125.7,-215.81 4125.7,-215.81"/>
</g>
<!-- 55 -->
<g id="node56" class="node"><title>55</title>
<polygon fill="none" stroke="black" points="4459.5,-252 4232.5,-252 4232.5,-216 4459.5,-216 4459.5,-252"/>
<text text-anchor="middle" x="4346" y="-230.3" font-family="Times,serif" font-size="14.00">PoliciesMultiPlayers.CentralizedFixed</text>
</g>
<!-- 50&#45;&gt;55 -->
<g id="edge90" class="edge"><title>50&#45;&gt;55</title>
<path fill="none" stroke="black" d="M4250.82,-180.124C4267.45,-189.361 4288.16,-200.869 4306.02,-210.788"/>
<polygon fill="black" stroke="black" points="4315.06,-215.81 4304.13,-214.887 4310.69,-213.382 4306.32,-210.954 4306.32,-210.954 4306.32,-210.954 4310.69,-213.382 4308.5,-207.02 4315.06,-215.81 4315.06,-215.81"/>
</g>
<!-- 59 -->
<g id="node60" class="node"><title>59</title>
<polygon fill="none" stroke="black" points="3727.5,-252 3536.5,-252 3536.5,-216 3727.5,-216 3727.5,-252"/>
<text text-anchor="middle" x="3632" y="-230.3" font-family="Times,serif" font-size="14.00">PoliciesMultiPlayers.OracleFair</text>
</g>
<!-- 50&#45;&gt;59 -->
<g id="edge91" class="edge"><title>50&#45;&gt;59</title>
<path fill="none" stroke="black" d="M4154.64,-169.1C4063.67,-177.829 3893.51,-195.018 3737.77,-215.936"/>
<polygon fill="black" stroke="black" points="3727.54,-217.319 3736.85,-211.52 3732.49,-216.649 3737.45,-215.98 3737.45,-215.98 3737.45,-215.98 3732.49,-216.649 3738.05,-220.439 3727.54,-217.319 3727.54,-217.319"/>
</g>
<!-- 60 -->
<g id="node61" class="node"><title>60</title>
<polygon fill="none" stroke="black" points="3958,-252 3746,-252 3746,-216 3958,-216 3958,-252"/>
<text text-anchor="middle" x="3852" y="-230.3" font-family="Times,serif" font-size="14.00">PoliciesMultiPlayers.OracleNotFair</text>
</g>
<!-- 50&#45;&gt;60 -->
<g id="edge92" class="edge"><title>50&#45;&gt;60</title>
<path fill="none" stroke="black" d="M4154.63,-175.434C4098.37,-186.137 4016.3,-201.748 3951.81,-214.014"/>
<polygon fill="black" stroke="black" points="3941.62,-215.952 3950.61,-209.663 3946.54,-215.018 3951.45,-214.083 3951.45,-214.083 3951.45,-214.083 3946.54,-215.018 3952.29,-218.504 3941.62,-215.952 3941.62,-215.952"/>
</g>
<!-- 61 -->
<g id="node62" class="node"><title>61</title>
<polygon fill="none" stroke="black" points="5331.5,-252 5160.5,-252 5160.5,-216 5331.5,-216 5331.5,-252"/>
<text text-anchor="middle" x="5246" y="-230.3" font-family="Times,serif" font-size="14.00">PoliciesMultiPlayers.Selfish</text>
</g>
<!-- 50&#45;&gt;61 -->
<g id="edge93" class="edge"><title>50&#45;&gt;61</title>
<path fill="none" stroke="black" d="M4285.21,-163.973C4435.92,-166.812 4820.12,-177.426 5150.02,-215.845"/>
<polygon fill="black" stroke="black" points="5160.26,-217.048 5149.8,-220.35 5155.29,-216.464 5150.32,-215.88 5150.32,-215.88 5150.32,-215.88 5155.29,-216.464 5150.85,-211.411 5160.26,-217.048 5160.26,-217.048"/>
</g>
<!-- 63 -->
<g id="node64" class="node"><title>63</title>
<polygon fill="none" stroke="black" points="4658,-252 4478,-252 4478,-216 4658,-216 4658,-252"/>
<text text-anchor="middle" x="4568" y="-230.3" font-family="Times,serif" font-size="14.00">PoliciesMultiPlayers.rhoRand</text>
</g>
<!-- 50&#45;&gt;63 -->
<g id="edge94" class="edge"><title>50&#45;&gt;63</title>
<path fill="none" stroke="black" d="M4285.05,-176.084C4338.07,-186.749 4413.66,-201.955 4473.38,-213.968"/>
<polygon fill="black" stroke="black" points="4483.2,-215.943 4472.51,-218.383 4478.3,-214.957 4473.4,-213.971 4473.4,-213.971 4473.4,-213.971 4478.3,-214.957 4474.29,-209.559 4483.2,-215.943 4483.2,-215.943"/>
</g>
<!-- 53 -->
<g id="node54" class="node"><title>53</title>
<polygon fill="none" stroke="black" points="4450.5,-324 4235.5,-324 4235.5,-288 4450.5,-288 4450.5,-324"/>
<text text-anchor="middle" x="4343" y="-302.3" font-family="Times,serif" font-size="14.00">PoliciesMultiPlayers.BaseMPPolicy</text>
</g>
<!-- 51&#45;&gt;53 -->
<g id="edge95" class="edge"><title>51&#45;&gt;53</title>
<path fill="none" stroke="black" d="M4676.25,-250.452C4673.13,-250.976 4670.04,-251.493 4667,-252 4597.77,-263.547 4520.17,-276.249 4458.27,-286.323"/>
<polygon fill="black" stroke="black" points="4448.09,-287.98 4457.24,-281.933 4453.02,-287.177 4457.96,-286.374 4457.96,-286.374 4457.96,-286.374 4453.02,-287.177 4458.68,-290.816 4448.09,-287.98 4448.09,-287.98"/>
</g>
<!-- 57 -->
<g id="node58" class="node"><title>57</title>
<polygon fill="none" stroke="black" points="4671.5,-324 4468.5,-324 4468.5,-288 4671.5,-288 4671.5,-324"/>
<text text-anchor="middle" x="4570" y="-302.3" font-family="Times,serif" font-size="14.00">PoliciesMultiPlayers.ChildPointer</text>
</g>
<!-- 51&#45;&gt;57 -->
<g id="edge96" class="edge"><title>51&#45;&gt;57</title>
<path fill="none" stroke="black" d="M4719.06,-252.034C4691.53,-261.815 4656.78,-274.164 4627.76,-284.476"/>
<polygon fill="black" stroke="black" points="4618.15,-287.889 4626.07,-280.301 4622.87,-286.215 4627.58,-284.541 4627.58,-284.541 4627.58,-284.541 4622.87,-286.215 4629.08,-288.781 4618.15,-287.889 4618.15,-287.889"/>
</g>
<!-- 52 -->
<g id="node53" class="node"><title>52</title>
<polygon fill="none" stroke="black" points="4099.5,-324 3842.5,-324 3842.5,-288 4099.5,-288 4099.5,-324"/>
<text text-anchor="middle" x="3971" y="-302.3" font-family="Times,serif" font-size="14.00">PoliciesMultiPlayers.BaseCentralizedPolicy</text>
</g>
<!-- 54&#45;&gt;52 -->
<g id="edge97" class="edge"><title>54&#45;&gt;52</title>
<path fill="none" stroke="black" d="M4064.67,-252.124C4048.3,-261.361 4027.92,-272.869 4010.35,-282.788"/>
<polygon fill="black" stroke="black" points="4001.45,-287.81 4007.95,-278.976 4005.8,-285.352 4010.16,-282.894 4010.16,-282.894 4010.16,-282.894 4005.8,-285.352 4012.37,-286.813 4001.45,-287.81 4001.45,-287.81"/>
</g>
<!-- 54&#45;&gt;53 -->
<g id="edge98" class="edge"><title>54&#45;&gt;53</title>
<path fill="none" stroke="black" d="M4155.35,-252.034C4190.75,-262.028 4235.66,-274.702 4272.66,-285.146"/>
<polygon fill="black" stroke="black" points="4282.38,-287.889 4271.53,-289.503 4277.57,-286.531 4272.75,-285.173 4272.75,-285.173 4272.75,-285.173 4277.57,-286.531 4273.98,-280.842 4282.38,-287.889 4282.38,-287.889"/>
</g>
<!-- 54&#45;&gt;57 -->
<g id="edge99" class="edge"><title>54&#45;&gt;57</title>
<path fill="none" stroke="black" d="M4213.47,-252.025C4282.09,-261.939 4370.4,-274.791 4458.48,-287.928"/>
<polygon fill="black" stroke="black" points="4468.38,-289.406 4457.83,-292.38 4463.44,-288.668 4458.49,-287.929 4458.49,-287.929 4458.49,-287.929 4463.44,-288.668 4459.16,-283.479 4468.38,-289.406 4468.38,-289.406"/>
</g>
<!-- 55&#45;&gt;52 -->
<g id="edge100" class="edge"><title>55&#45;&gt;52</title>
<path fill="none" stroke="black" d="M4254.74,-252.034C4199.63,-262.323 4129.28,-275.453 4072.43,-286.067"/>
<polygon fill="black" stroke="black" points="4062.34,-287.95 4071.34,-281.691 4067.25,-287.032 4072.17,-286.115 4072.17,-286.115 4072.17,-286.115 4067.25,-287.032 4073,-290.538 4062.34,-287.95 4062.34,-287.95"/>
</g>
<!-- 55&#45;&gt;53 -->
<g id="edge101" class="edge"><title>55&#45;&gt;53</title>
<path fill="none" stroke="black" d="M4345.26,-252.303C4344.93,-260.017 4344.53,-269.288 4344.16,-277.888"/>
<polygon fill="black" stroke="black" points="4343.73,-287.896 4339.67,-277.712 4343.95,-282.9 4344.16,-277.905 4344.16,-277.905 4344.16,-277.905 4343.95,-282.9 4348.66,-278.098 4343.73,-287.896 4343.73,-287.896"/>
</g>
<!-- 55&#45;&gt;57 -->
<g id="edge102" class="edge"><title>55&#45;&gt;57</title>
<path fill="none" stroke="black" d="M4400.51,-252.034C4432.22,-261.943 4472.36,-274.486 4505.61,-284.879"/>
<polygon fill="black" stroke="black" points="4515.25,-287.889 4504.36,-289.202 4510.47,-286.398 4505.7,-284.906 4505.7,-284.906 4505.7,-284.906 4510.47,-286.398 4507.04,-280.611 4515.25,-287.889 4515.25,-287.889"/>
</g>
<!-- 56 -->
<g id="node57" class="node"><title>56</title>
<polygon fill="none" stroke="black" points="5142.5,-252 4875.5,-252 4875.5,-216 5142.5,-216 5142.5,-252"/>
<text text-anchor="middle" x="5009" y="-230.3" font-family="Times,serif" font-size="14.00">PoliciesMultiPlayers.CentralizedMultiplePlay</text>
</g>
<!-- 56&#45;&gt;53 -->
<g id="edge103" class="edge"><title>56&#45;&gt;53</title>
<path fill="none" stroke="black" d="M4875.23,-251.132C4872.46,-251.428 4869.72,-251.717 4867,-252 4689.64,-270.456 4642.08,-267.068 4460.85,-287.941"/>
<polygon fill="black" stroke="black" points="4450.71,-289.118 4460.13,-283.495 4455.68,-288.541 4460.64,-287.965 4460.64,-287.965 4460.64,-287.965 4455.68,-288.541 4461.16,-292.435 4450.71,-289.118 4450.71,-289.118"/>
</g>
<!-- 56&#45;&gt;57 -->
<g id="edge104" class="edge"><title>56&#45;&gt;57</title>
<path fill="none" stroke="black" d="M4902.17,-252.034C4835.42,-262.678 4749.6,-276.362 4681.91,-287.155"/>
<polygon fill="black" stroke="black" points="4671.64,-288.793 4680.8,-282.775 4676.58,-288.006 4681.51,-287.219 4681.51,-287.219 4681.51,-287.219 4676.58,-288.006 4682.22,-291.663 4671.64,-288.793 4671.64,-288.793"/>
</g>
<!-- 58 -->
<g id="node59" class="node"><title>58</title>
<polygon fill="none" stroke="black" points="3283.5,-36 3118.5,-36 3118.5,-0 3283.5,-0 3283.5,-36"/>
<text text-anchor="middle" x="3201" y="-14.3" font-family="Times,serif" font-size="14.00">PoliciesMultiPlayers.DMC</text>
</g>
<!-- 59&#45;&gt;52 -->
<g id="edge105" class="edge"><title>59&#45;&gt;52</title>
<path fill="none" stroke="black" d="M3714.5,-252.034C3764.01,-262.259 3827.12,-275.29 3878.35,-285.869"/>
<polygon fill="black" stroke="black" points="3888.43,-287.95 3877.73,-290.335 3883.53,-286.939 3878.64,-285.928 3878.64,-285.928 3878.64,-285.928 3883.53,-286.939 3879.55,-281.521 3888.43,-287.95 3888.43,-287.95"/>
</g>
<!-- 59&#45;&gt;53 -->
<g id="edge106" class="edge"><title>59&#45;&gt;53</title>
<path fill="none" stroke="black" d="M3727.53,-250.771C3730.72,-251.201 3733.88,-251.612 3737,-252 3828.37,-263.377 4076.41,-283.844 4225.31,-295.74"/>
<polygon fill="black" stroke="black" points="4235.42,-296.546 4225.09,-300.236 4230.43,-296.149 4225.45,-295.751 4225.45,-295.751 4225.45,-295.751 4230.43,-296.149 4225.81,-291.265 4235.42,-296.546 4235.42,-296.546"/>
</g>
<!-- 59&#45;&gt;57 -->
<g id="edge107" class="edge"><title>59&#45;&gt;57</title>
<path fill="none" stroke="black" d="M3727.51,-250.923C3730.71,-251.31 3733.88,-251.67 3737,-252 4053.24,-285.38 4137.62,-256.249 4458.38,-288.012"/>
<polygon fill="black" stroke="black" points="4468.43,-289.019 4458.03,-292.499 4463.45,-288.521 4458.48,-288.022 4458.48,-288.022 4458.48,-288.022 4463.45,-288.521 4458.93,-283.544 4468.43,-289.019 4468.43,-289.019"/>
</g>
<!-- 60&#45;&gt;52 -->
<g id="edge108" class="edge"><title>60&#45;&gt;52</title>
<path fill="none" stroke="black" d="M3881.11,-252.124C3896.67,-261.276 3916.02,-272.658 3932.78,-282.515"/>
<polygon fill="black" stroke="black" points="3941.78,-287.81 3930.88,-286.619 3937.47,-285.275 3933.16,-282.74 3933.16,-282.74 3933.16,-282.74 3937.47,-285.275 3935.44,-278.861 3941.78,-287.81 3941.78,-287.81"/>
</g>
<!-- 60&#45;&gt;53 -->
<g id="edge109" class="edge"><title>60&#45;&gt;53</title>
<path fill="none" stroke="black" d="M3958.19,-250.865C3960.82,-251.248 3963.43,-251.627 3966,-252 4052.68,-264.556 4150.64,-278.315 4224.98,-288.666"/>
<polygon fill="black" stroke="black" points="4235.31,-290.104 4224.78,-293.182 4230.35,-289.415 4225.4,-288.725 4225.4,-288.725 4225.4,-288.725 4230.35,-289.415 4226.02,-284.268 4235.31,-290.104 4235.31,-290.104"/>
</g>
<!-- 60&#45;&gt;57 -->
<g id="edge110" class="edge"><title>60&#45;&gt;57</title>
<path fill="none" stroke="black" d="M3958.16,-251.098C3960.8,-251.412 3963.41,-251.713 3966,-252 4181.05,-275.852 4238.95,-263.732 4458.19,-287.97"/>
<polygon fill="black" stroke="black" points="4468.42,-289.114 4457.98,-292.474 4463.45,-288.558 4458.48,-288.002 4458.48,-288.002 4458.48,-288.002 4463.45,-288.558 4458.98,-283.53 4468.42,-289.114 4468.42,-289.114"/>
</g>
<!-- 61&#45;&gt;53 -->
<g id="edge111" class="edge"><title>61&#45;&gt;53</title>
<path fill="none" stroke="black" d="M5160.26,-250.97C5157.48,-251.34 5154.72,-251.685 5152,-252 4849.36,-287.094 4768.23,-258.456 4460.79,-287.988"/>
<polygon fill="black" stroke="black" points="4450.7,-288.97 4460.21,-283.522 4455.67,-288.486 4460.65,-288.001 4460.65,-288.001 4460.65,-288.001 4455.67,-288.486 4461.08,-292.48 4450.7,-288.97 4450.7,-288.97"/>
</g>
<!-- 61&#45;&gt;57 -->
<g id="edge112" class="edge"><title>61&#45;&gt;57</title>
<path fill="none" stroke="black" d="M5160.49,-250.794C5157.63,-251.217 5154.79,-251.621 5152,-252 4988.98,-274.12 4798.98,-289.482 4681.58,-297.772"/>
<polygon fill="black" stroke="black" points="4671.5,-298.479 4681.16,-293.29 4676.49,-298.129 4681.48,-297.779 4681.48,-297.779 4681.48,-297.779 4676.49,-298.129 4681.79,-302.268 4671.5,-298.479 4671.5,-298.479"/>
</g>
<!-- 62 -->
<g id="node63" class="node"><title>62</title>
<polygon fill="none" stroke="black" points="3468.5,-36 3301.5,-36 3301.5,-0 3468.5,-0 3468.5,-36"/>
<text text-anchor="middle" x="3385" y="-14.3" font-family="Times,serif" font-size="14.00">PoliciesMultiPlayers.TDFS</text>
</g>
<!-- 63&#45;&gt;53 -->
<g id="edge113" class="edge"><title>63&#45;&gt;53</title>
<path fill="none" stroke="black" d="M4513.25,-252.034C4481.4,-261.943 4441.08,-274.486 4407.67,-284.879"/>
<polygon fill="black" stroke="black" points="4398,-287.889 4406.21,-280.622 4402.77,-286.404 4407.55,-284.918 4407.55,-284.918 4407.55,-284.918 4402.77,-286.404 4408.88,-289.215 4398,-287.889 4398,-287.889"/>
</g>
<!-- 63&#45;&gt;57 -->
<g id="edge114" class="edge"><title>63&#45;&gt;57</title>
<path fill="none" stroke="black" d="M4568.49,-252.303C4568.71,-260.017 4568.98,-269.288 4569.23,-277.888"/>
<polygon fill="black" stroke="black" points="4569.51,-287.896 4564.73,-278.028 4569.37,-282.898 4569.23,-277.9 4569.23,-277.9 4569.23,-277.9 4569.37,-282.898 4573.72,-277.771 4569.51,-287.896 4569.51,-287.896"/>
</g>
<!-- 64 -->
<g id="node65" class="node"><title>64</title>
<polygon fill="none" stroke="black" points="447.5,-108 358.5,-108 358.5,-72 447.5,-72 447.5,-108"/>
<text text-anchor="middle" x="403" y="-86.3" font-family="Times,serif" font-size="14.00">configuration</text>
</g>
<!-- 64&#45;&gt;2 -->
<g id="edge115" class="edge"><title>64&#45;&gt;2</title>
<path fill="none" stroke="black" d="M406.213,-108.303C407.646,-116.017 409.368,-125.288 410.965,-133.888"/>
<polygon fill="black" stroke="black" points="412.823,-143.896 406.573,-134.885 411.91,-138.98 410.997,-134.064 410.997,-134.064 410.997,-134.064 411.91,-138.98 415.422,-133.242 412.823,-143.896 412.823,-143.896"/>
</g>
<!-- 64&#45;&gt;3 -->
<g id="edge116" class="edge"><title>64&#45;&gt;3</title>
<path fill="none" stroke="black" d="M358.052,-98.7119C304.933,-108.016 213.677,-124.593 125.908,-143.864"/>
<polygon fill="black" stroke="black" points="116.054,-146.043 124.847,-139.49 120.936,-144.963 125.818,-143.884 125.818,-143.884 125.818,-143.884 120.936,-144.963 126.789,-148.278 116.054,-146.043 116.054,-146.043"/>
</g>
<!-- 64&#45;&gt;4 -->
<g id="edge117" class="edge"><title>64&#45;&gt;4</title>
<path fill="none" stroke="black" d="M358.358,-105.334C325.794,-115.791 281.288,-130.082 245.526,-141.565"/>
<polygon fill="black" stroke="black" points="235.688,-144.724 243.833,-137.382 240.449,-143.195 245.209,-141.667 245.209,-141.667 245.209,-141.667 240.449,-143.195 246.585,-145.951 235.688,-144.724 235.688,-144.724"/>
</g>
<!-- 64&#45;&gt;5 -->
<g id="edge118" class="edge"><title>64&#45;&gt;5</title>
<path fill="none" stroke="black" d="M377.803,-108.124C364.586,-117.107 348.208,-128.237 333.893,-137.966"/>
<polygon fill="black" stroke="black" points="325.293,-143.81 331.035,-134.467 329.429,-141 333.564,-138.189 333.564,-138.189 333.564,-138.189 329.429,-141 336.094,-141.911 325.293,-143.81 325.293,-143.81"/>
</g>
<!-- 64&#45;&gt;15 -->
<g id="edge119" class="edge"><title>64&#45;&gt;15</title>
<path fill="none" stroke="black" d="M447.675,-93.4299C647.88,-104.319 1460.94,-148.541 1650.4,-158.846"/>
<polygon fill="black" stroke="black" points="1660.47,-159.394 1650.24,-163.344 1655.48,-159.122 1650.49,-158.851 1650.49,-158.851 1650.49,-158.851 1655.48,-159.122 1650.73,-154.357 1660.47,-159.394 1660.47,-159.394"/>
</g>
<!-- 65 -->
<g id="node66" class="node"><title>65</title>
<polygon fill="none" stroke="black" points="3123,-108 2959,-108 2959,-72 3123,-72 3123,-108"/>
<text text-anchor="middle" x="3041" y="-86.3" font-family="Times,serif" font-size="14.00">configuration_multiplayers</text>
</g>
<!-- 65&#45;&gt;2 -->
<g id="edge120" class="edge"><title>65&#45;&gt;2</title>
<path fill="none" stroke="black" d="M2958.75,-106.99C2955.8,-107.364 2952.88,-107.703 2950,-108 2823.29,-121.071 852.185,-153.865 477.309,-160.002"/>
<polygon fill="black" stroke="black" points="467.2,-160.167 477.125,-155.504 472.2,-160.086 477.199,-160.004 477.199,-160.004 477.199,-160.004 472.2,-160.086 477.273,-164.503 467.2,-160.167 467.2,-160.167"/>
</g>
<!-- 65&#45;&gt;8 -->
<g id="edge121" class="edge"><title>65&#45;&gt;8</title>
<path fill="none" stroke="black" d="M3040.33,-108.31C3040.48,-127.78 3043.55,-159.367 3060,-180 3070.92,-193.697 3086.19,-204.014 3102.02,-211.725"/>
<polygon fill="black" stroke="black" points="3111.38,-215.97 3100.41,-215.936 3106.82,-213.904 3102.27,-211.838 3102.27,-211.838 3102.27,-211.838 3106.82,-213.904 3104.13,-207.74 3111.38,-215.97 3111.38,-215.97"/>
</g>
<!-- 65&#45;&gt;11 -->
<g id="edge122" class="edge"><title>65&#45;&gt;11</title>
<path fill="none" stroke="black" d="M3036.42,-108.129C3029.91,-132.436 3017.94,-177.181 3010.23,-205.987"/>
<polygon fill="black" stroke="black" points="3007.6,-215.811 3005.84,-204.987 3008.89,-210.981 3010.19,-206.151 3010.19,-206.151 3010.19,-206.151 3008.89,-210.981 3014.53,-207.314 3007.6,-215.811 3007.6,-215.811"/>
</g>
<!-- 65&#45;&gt;15 -->
<g id="edge123" class="edge"><title>65&#45;&gt;15</title>
<path fill="none" stroke="black" d="M2958.74,-106.911C2955.79,-107.307 2952.87,-107.673 2950,-108 2472.06,-162.413 1886.45,-162.466 1729.99,-161.387"/>
<polygon fill="black" stroke="black" points="1719.89,-161.312 1729.92,-156.887 1724.89,-161.349 1729.89,-161.387 1729.89,-161.387 1729.89,-161.387 1724.89,-161.349 1729.85,-165.887 1719.89,-161.312 1719.89,-161.312"/>
</g>
<!-- 65&#45;&gt;50 -->
<g id="edge124" class="edge"><title>65&#45;&gt;50</title>
<path fill="none" stroke="black" d="M3123.44,-95.8944C3342.08,-108.876 3934.35,-144.04 4144.66,-156.527"/>
<polygon fill="black" stroke="black" points="4154.68,-157.122 4144.43,-161.021 4149.69,-156.825 4144.7,-156.529 4144.7,-156.529 4144.7,-156.529 4149.69,-156.825 4144.97,-152.037 4154.68,-157.122 4154.68,-157.122"/>
</g>
<!-- 66 -->
<g id="node67" class="node"><title>66</title>
<polygon fill="none" stroke="black" points="2831,-36 2777,-36 2777,-0 2831,-0 2831,-36"/>
<text text-anchor="middle" x="2804" y="-14.3" font-family="Times,serif" font-size="14.00">main</text>
</g>
<!-- 66&#45;&gt;7 -->
<g id="edge125" class="edge"><title>66&#45;&gt;7</title>
<path fill="none" stroke="black" d="M2826.99,-36.3034C2838.81,-45.204 2853.39,-56.1768 2866.18,-65.8011"/>
<polygon fill="black" stroke="black" points="2874.28,-71.8957 2863.58,-69.4773 2870.28,-68.8888 2866.29,-65.8819 2866.29,-65.8819 2866.29,-65.8819 2870.28,-68.8888 2868.99,-62.2865 2874.28,-71.8957 2874.28,-71.8957"/>
</g>
<!-- 66&#45;&gt;9 -->
<g id="edge126" class="edge"><title>66&#45;&gt;9</title>
<path fill="none" stroke="black" d="M2804,-36.1285C2804,-60.3298 2804,-104.789 2804,-133.607"/>
<polygon fill="black" stroke="black" points="2804,-143.811 2799.5,-133.811 2804,-138.811 2804,-133.811 2804,-133.811 2804,-133.811 2804,-138.811 2808.5,-133.811 2804,-143.811 2804,-143.811"/>
</g>
<!-- 66&#45;&gt;64 -->
<g id="edge127" class="edge"><title>66&#45;&gt;64</title>
<path fill="none" stroke="black" d="M2776.62,-19.7982C2536.61,-26.7955 791.692,-77.6679 458.053,-87.3949"/>
<polygon fill="black" stroke="black" points="447.688,-87.6972 457.552,-82.9076 452.685,-87.5514 457.683,-87.4056 457.683,-87.4056 457.683,-87.4056 452.685,-87.5514 457.815,-91.9037 447.688,-87.6972 447.688,-87.6972"/>
</g>
<!-- 67 -->
<g id="node68" class="node"><title>67</title>
<polygon fill="none" stroke="black" points="3100.5,-36 2981.5,-36 2981.5,-0 3100.5,-0 3100.5,-36"/>
<text text-anchor="middle" x="3041" y="-14.3" font-family="Times,serif" font-size="14.00">main_multiplayers</text>
</g>
<!-- 67&#45;&gt;7 -->
<g id="edge128" class="edge"><title>67&#45;&gt;7</title>
<path fill="none" stroke="black" d="M3005.77,-36.1239C2986.42,-45.5307 2962.23,-57.2923 2941.57,-67.3328"/>
<polygon fill="black" stroke="black" points="2932.36,-71.8102 2939.39,-63.3911 2936.86,-69.6243 2941.36,-67.4383 2941.36,-67.4383 2941.36,-67.4383 2936.86,-69.6243 2943.32,-71.4854 2932.36,-71.8102 2932.36,-71.8102"/>
</g>
<!-- 67&#45;&gt;10 -->
<g id="edge129" class="edge"><title>67&#45;&gt;10</title>
<path fill="none" stroke="black" d="M3081.2,-36.063C3098.44,-44.8767 3117.83,-56.9651 3132,-72 3148.81,-89.8368 3160.79,-115.161 3168.14,-134.238"/>
<polygon fill="black" stroke="black" points="3171.66,-143.838 3163.99,-135.996 3169.94,-139.143 3168.22,-134.448 3168.22,-134.448 3168.22,-134.448 3169.94,-139.143 3172.44,-132.901 3171.66,-143.838 3171.66,-143.838"/>
</g>
<!-- 67&#45;&gt;65 -->
<g id="edge130" class="edge"><title>67&#45;&gt;65</title>
<path fill="none" stroke="black" d="M3041,-36.3034C3041,-44.0173 3041,-53.2875 3041,-61.8876"/>
<polygon fill="black" stroke="black" points="3041,-71.8957 3036.5,-61.8956 3041,-66.8957 3041,-61.8957 3041,-61.8957 3041,-61.8957 3041,-66.8957 3045.5,-61.8957 3041,-71.8957 3041,-71.8957"/>
</g>
</g>
</svg>
