<?xml version="1.0" encoding="UTF-8" standalone="no"?>
<!DOCTYPE svg PUBLIC "-//W3C//DTD SVG 1.1//EN"
 "http://www.w3.org/Graphics/SVG/1.1/DTD/svg11.dtd">
<!-- Generated by graphviz version 2.40.1 (20161225.0304)
 -->
<!-- Title: packages_SMPyBandits Pages: 1 -->
<svg width="6338pt" height="116pt"
 viewBox="0.00 0.00 6337.50 116.00" xmlns="http://www.w3.org/2000/svg" xmlns:xlink="http://www.w3.org/1999/xlink">
<g id="graph0" class="graph" transform="scale(1 1) rotate(0) translate(4 112)">
<title>packages_SMPyBandits</title>
<polygon fill="#ffffff" stroke="transparent" points="-4,4 -4,-112 6333.5,-112 6333.5,4 -4,4"/>
<!-- 0 -->
<g id="node1" class="node">
<title>0</title>
<polygon fill="none" stroke="#000000" points="683,-36 0,-36 0,0 683,0 683,-36"/>
<text text-anchor="middle" x="341.5" y="-14.3" font-family="Times,serif" font-size="14.00" fill="#000000">/home/lilian/ownCloud/owncloud.crans.org/Crans/These_2016&#45;17/src/SMPyBandits/other_scripts/my_small_slack_bot.py</text>
</g>
<!-- 1 -->
<g id="node2" class="node">
<title>1</title>
<polygon fill="none" stroke="#000000" points="1550,-36 701,-36 701,0 1550,0 1550,-36"/>
<text text-anchor="middle" x="1125.5" y="-14.3" font-family="Times,serif" font-size="14.00" fill="#000000">/home/lilian/ownCloud/owncloud.crans.org/Crans/These_2016&#45;17/src/SMPyBandits/other_scripts/simulate_musical_chair_orthogonalization_process.py</text>
</g>
<!-- 2 -->
<g id="node3" class="node">
<title>2</title>
<polygon fill="none" stroke="#000000" points="2349,-36 1568,-36 1568,0 2349,0 2349,-36"/>
<text text-anchor="middle" x="1958.5" y="-14.3" font-family="Times,serif" font-size="14.00" fill="#000000">/home/lilian/ownCloud/owncloud.crans.org/Crans/These_2016&#45;17/src/SMPyBandits/other_scripts/test_compute_and_plot_regret_bounds.py</text>
</g>
<!-- 3 -->
<g id="node4" class="node">
<title>3</title>
<polygon fill="none" stroke="#000000" points="3155.5,-36 2367.5,-36 2367.5,0 3155.5,0 3155.5,-36"/>
<text text-anchor="middle" x="2761.5" y="-14.3" font-family="Times,serif" font-size="14.00" fill="#000000">/home/lilian/ownCloud/owncloud.crans.org/Crans/These_2016&#45;17/src/SMPyBandits/other_scripts/test_compute_and_plot_regret_bounds2.py</text>
</g>
<!-- 4 -->
<g id="node5" class="node">
<title>4</title>
<polygon fill="none" stroke="#000000" points="3265.5,-36 3173.5,-36 3173.5,0 3265.5,0 3265.5,-36"/>
<text text-anchor="middle" x="3219.5" y="-14.3" font-family="Times,serif" font-size="14.00" fill="#000000">SMPyBandits</text>
</g>
<!-- 4&#45;&gt;4 -->
<g id="edge1" class="edge">
<title>4&#45;&gt;4</title>
<path fill="none" stroke="#000000" d="M3265.5242,-4.8296C3275.9063,-6.0161 3283.5,-10.4063 3283.5,-18 3283.5,-22.8647 3280.3835,-26.4147 3275.414,-28.6499"/>
<polygon fill="#000000" stroke="#000000" points="3265.5242,-31.1704 3274.1031,-24.3401 3270.3693,-29.9356 3275.2144,-28.7007 3275.2144,-28.7007 3275.2144,-28.7007 3270.3693,-29.9356 3276.3258,-33.0613 3265.5242,-31.1704 3265.5242,-31.1704"/>
</g>
<!-- 5 -->
<g id="node6" class="node">
<title>5</title>
<polygon fill="none" stroke="#000000" points="3639,-36 3302,-36 3302,0 3639,0 3639,-36"/>
<text text-anchor="middle" x="3470.5" y="-14.3" font-family="Times,serif" font-size="14.00" fill="#000000">SMPyBandits.complete_tree_exploration_for_MP_bandits</text>
</g>
<!-- 6 -->
<g id="node7" class="node">
<title>6</title>
<polygon fill="none" stroke="#000000" points="3826,-36 3657,-36 3657,0 3826,0 3826,-36"/>
<text text-anchor="middle" x="3741.5" y="-14.3" font-family="Times,serif" font-size="14.00" fill="#000000">SMPyBandits.configuration</text>
</g>
<!-- 7 -->
<g id="node8" class="node">
<title>7</title>
<polygon fill="none" stroke="#000000" points="4106.5,-36 3844.5,-36 3844.5,0 4106.5,0 4106.5,-36"/>
<text text-anchor="middle" x="3975.5" y="-14.3" font-family="Times,serif" font-size="14.00" fill="#000000">SMPyBandits.configuration_all_singleplayer</text>
</g>
<!-- 8 -->
<g id="node9" class="node">
<title>8</title>
<polygon fill="none" stroke="#000000" points="4371.5,-108 4001.5,-108 4001.5,-72 4371.5,-72 4371.5,-108"/>
<text text-anchor="middle" x="4186.5" y="-86.3" font-family="Times,serif" font-size="14.00" fill="#000000">SMPyBandits.configuration_comparing_aggregation_algorithms</text>
</g>
<!-- 9 -->
<g id="node10" class="node">
<title>9</title>
<polygon fill="none" stroke="#000000" points="4620.5,-36 4266.5,-36 4266.5,0 4620.5,0 4620.5,-36"/>
<text text-anchor="middle" x="4443.5" y="-14.3" font-family="Times,serif" font-size="14.00" fill="#000000">SMPyBandits.configuration_comparing_doubling_algorithms</text>
</g>
<!-- 10 -->
<g id="node11" class="node">
<title>10</title>
<polygon fill="none" stroke="#000000" points="4872.5,-36 4638.5,-36 4638.5,0 4872.5,0 4872.5,-36"/>
<text text-anchor="middle" x="4755.5" y="-14.3" font-family="Times,serif" font-size="14.00" fill="#000000">SMPyBandits.configuration_markovian</text>
</g>
<!-- 11 -->
<g id="node12" class="node">
<title>11</title>
<polygon fill="none" stroke="#000000" points="5229.5,-108 4985.5,-108 4985.5,-72 5229.5,-72 5229.5,-108"/>
<text text-anchor="middle" x="5107.5" y="-86.3" font-family="Times,serif" font-size="14.00" fill="#000000">SMPyBandits.configuration_multiplayers</text>
</g>
<!-- 12 -->
<g id="node13" class="node">
<title>12</title>
<polygon fill="none" stroke="#000000" points="5570,-36 5361,-36 5361,0 5570,0 5570,-36"/>
<text text-anchor="middle" x="5465.5" y="-14.3" font-family="Times,serif" font-size="14.00" fill="#000000">SMPyBandits.configuration_sparse</text>
</g>
<!-- 13 -->
<g id="node14" class="node">
<title>13</title>
<polygon fill="none" stroke="#000000" points="5849.5,-108 5565.5,-108 5565.5,-72 5849.5,-72 5849.5,-108"/>
<text text-anchor="middle" x="5707.5" y="-86.3" font-family="Times,serif" font-size="14.00" fill="#000000">SMPyBandits.configuration_sparse_multiplayers</text>
</g>
<!-- 14 -->
<g id="node15" class="node">
<title>14</title>
<polygon fill="none" stroke="#000000" points="5997.5,-36 5845.5,-36 5845.5,0 5997.5,0 5997.5,-36"/>
<text text-anchor="middle" x="5921.5" y="-14.3" font-family="Times,serif" font-size="14.00" fill="#000000">SMPyBandits.env_client</text>
</g>
<!-- 15 -->
<g id="node16" class="node">
<title>15</title>
<polygon fill="none" stroke="#000000" points="4248.5,-36 4124.5,-36 4124.5,0 4248.5,0 4248.5,-36"/>
<text text-anchor="middle" x="4186.5" y="-14.3" font-family="Times,serif" font-size="14.00" fill="#000000">SMPyBandits.main</text>
</g>
<!-- 15&#45;&gt;8 -->
<g id="edge2" class="edge">
<title>15&#45;&gt;8</title>
<path fill="none" stroke="#000000" d="M4186.5,-36.1686C4186.5,-43.869 4186.5,-53.0257 4186.5,-61.5834"/>
<polygon fill="#000000" stroke="#000000" points="4186.5,-71.5867 4182.0001,-61.5867 4186.5,-66.5867 4186.5001,-61.5867 4186.5001,-61.5867 4186.5001,-61.5867 4186.5,-66.5867 4191.0001,-61.5868 4186.5,-71.5867 4186.5,-71.5867"/>
</g>
<!-- 16 -->
<g id="node17" class="node">
<title>16</title>
<polygon fill="none" stroke="#000000" points="5090,-36 4891,-36 4891,0 5090,0 5090,-36"/>
<text text-anchor="middle" x="4990.5" y="-14.3" font-family="Times,serif" font-size="14.00" fill="#000000">SMPyBandits.main_multiplayers</text>
</g>
<!-- 16&#45;&gt;11 -->
<g id="edge3" class="edge">
<title>16&#45;&gt;11</title>
<path fill="none" stroke="#000000" d="M5020.024,-36.1686C5034.9891,-45.3779 5053.3386,-56.6699 5069.3603,-66.5294"/>
<polygon fill="#000000" stroke="#000000" points="5077.9854,-71.8372 5067.1103,-70.4286 5073.7271,-69.2167 5069.4688,-66.5962 5069.4688,-66.5962 5069.4688,-66.5962 5073.7271,-69.2167 5071.8273,-62.7637 5077.9854,-71.8372 5077.9854,-71.8372"/>
</g>
<!-- 17 -->
<g id="node18" class="node">
<title>17</title>
<polygon fill="none" stroke="#000000" points="5342.5,-36 5108.5,-36 5108.5,0 5342.5,0 5342.5,-36"/>
<text text-anchor="middle" x="5225.5" y="-14.3" font-family="Times,serif" font-size="14.00" fill="#000000">SMPyBandits.main_multiplayers_more</text>
</g>
<!-- 17&#45;&gt;11 -->
<g id="edge4" class="edge">
<title>17&#45;&gt;11</title>
<path fill="none" stroke="#000000" d="M5195.7236,-36.1686C5180.6307,-45.3779 5162.1243,-56.6699 5145.9657,-66.5294"/>
<polygon fill="#000000" stroke="#000000" points="5137.2669,-71.8372 5143.4594,-62.7871 5141.5351,-69.2328 5145.8033,-66.6285 5145.8033,-66.6285 5145.8033,-66.6285 5141.5351,-69.2328 5148.1472,-70.4699 5137.2669,-71.8372 5137.2669,-71.8372"/>
</g>
<!-- 18 -->
<g id="node19" class="node">
<title>18</title>
<polygon fill="none" stroke="#000000" points="5827,-36 5588,-36 5588,0 5827,0 5827,-36"/>
<text text-anchor="middle" x="5707.5" y="-14.3" font-family="Times,serif" font-size="14.00" fill="#000000">SMPyBandits.main_sparse_multiplayers</text>
</g>
<!-- 18&#45;&gt;13 -->
<g id="edge5" class="edge">
<title>18&#45;&gt;13</title>
<path fill="none" stroke="#000000" d="M5707.5,-36.1686C5707.5,-43.869 5707.5,-53.0257 5707.5,-61.5834"/>
<polygon fill="#000000" stroke="#000000" points="5707.5,-71.5867 5703.0001,-61.5867 5707.5,-66.5867 5707.5001,-61.5867 5707.5001,-61.5867 5707.5001,-61.5867 5707.5,-66.5867 5712.0001,-61.5868 5707.5,-71.5867 5707.5,-71.5867"/>
</g>
<!-- 19 -->
<g id="node20" class="node">
<title>19</title>
<polygon fill="none" stroke="#000000" points="6185.5,-36 6015.5,-36 6015.5,0 6185.5,0 6185.5,-36"/>
<text text-anchor="middle" x="6100.5" y="-14.3" font-family="Times,serif" font-size="14.00" fill="#000000">SMPyBandits.policy_server</text>
</g>
<!-- 20 -->
<g id="node21" class="node">
<title>20</title>
<polygon fill="none" stroke="#000000" points="6257.5,-36 6203.5,-36 6203.5,0 6257.5,0 6257.5,-36"/>
<text text-anchor="middle" x="6230.5" y="-14.3" font-family="Times,serif" font-size="14.00" fill="#000000">conf</text>
</g>
<!-- 21 -->
<g id="node22" class="node">
<title>21</title>
<polygon fill="none" stroke="#000000" points="6329.5,-36 6275.5,-36 6275.5,0 6329.5,0 6329.5,-36"/>
<text text-anchor="middle" x="6302.5" y="-14.3" font-family="Times,serif" font-size="14.00" fill="#000000">setup</text>
</g>
</g>
</svg>
