<?xml version="1.0" encoding="UTF-8" standalone="no"?>
<!DOCTYPE svg PUBLIC "-//W3C//DTD SVG 1.1//EN"
 "http://www.w3.org/Graphics/SVG/1.1/DTD/svg11.dtd">
<!-- Generated by graphviz version 2.38.0 (20140413.2041)
 -->
<!-- Title: packages_AlgoBandits Pages: 1 -->
<svg width="3853pt" height="332pt"
 viewBox="0.00 0.00 3853.00 332.00" xmlns="http://www.w3.org/2000/svg" xmlns:xlink="http://www.w3.org/1999/xlink">
<g id="graph0" class="graph" transform="scale(1 1) rotate(0) translate(4 328)">
<title>packages_AlgoBandits</title>
<polygon fill="white" stroke="none" points="-4,4 -4,-328 3849,-328 3849,4 -4,4"/>
<!-- 0 -->
<g id="node1" class="node"><title>0</title>
<polygon fill="none" stroke="black" points="253.5,-108 199.5,-108 199.5,-72 253.5,-72 253.5,-108"/>
<text text-anchor="middle" x="226.5" y="-86.3" font-family="Times,serif" font-size="14.00">Arms</text>
</g>
<!-- 2 -->
<g id="node3" class="node"><title>2</title>
<polygon fill="none" stroke="black" points="832.5,-180 730.5,-180 730.5,-144 832.5,-144 832.5,-180"/>
<text text-anchor="middle" x="781.5" y="-158.3" font-family="Times,serif" font-size="14.00">Arms.Bernoulli</text>
</g>
<!-- 0&#45;&gt;2 -->
<g id="edge1" class="edge"><title>0&#45;&gt;2</title>
<path fill="none" stroke="black" d="M253.645,-94.4236C338.443,-105.119 599.885,-138.094 719.999,-153.243"/>
<polygon fill="black" stroke="black" points="730.134,-154.521 719.649,-157.735 725.173,-153.896 720.212,-153.27 720.212,-153.27 720.212,-153.27 725.173,-153.896 720.775,-148.805 730.134,-154.521 730.134,-154.521"/>
</g>
<!-- 3 -->
<g id="node4" class="node"><title>3</title>
<polygon fill="none" stroke="black" points="345.5,-180 229.5,-180 229.5,-144 345.5,-144 345.5,-180"/>
<text text-anchor="middle" x="287.5" y="-158.3" font-family="Times,serif" font-size="14.00">Arms.Exponential</text>
</g>
<!-- 0&#45;&gt;3 -->
<g id="edge2" class="edge"><title>0&#45;&gt;3</title>
<path fill="none" stroke="black" d="M241.579,-108.303C248.892,-116.695 257.81,-126.93 265.835,-136.139"/>
<polygon fill="black" stroke="black" points="272.595,-143.896 262.632,-139.313 269.31,-140.126 266.025,-136.357 266.025,-136.357 266.025,-136.357 269.31,-140.126 269.418,-133.4 272.595,-143.896 272.595,-143.896"/>
</g>
<!-- 4 -->
<g id="node5" class="node"><title>4</title>
<polygon fill="none" stroke="black" points="101,-180 0,-180 0,-144 101,-144 101,-180"/>
<text text-anchor="middle" x="50.5" y="-158.3" font-family="Times,serif" font-size="14.00">Arms.Gaussian</text>
</g>
<!-- 0&#45;&gt;4 -->
<g id="edge3" class="edge"><title>0&#45;&gt;4</title>
<path fill="none" stroke="black" d="M199.386,-101.784C173.782,-111.967 134.691,-127.515 102.988,-140.124"/>
<polygon fill="black" stroke="black" points="93.4093,-143.934 101.038,-136.057 98.0554,-142.086 102.701,-140.238 102.701,-140.238 102.701,-140.238 98.0554,-142.086 104.364,-144.419 93.4093,-143.934 93.4093,-143.934"/>
</g>
<!-- 5 -->
<g id="node6" class="node"><title>5</title>
<polygon fill="none" stroke="black" points="212,-180 119,-180 119,-144 212,-144 212,-180"/>
<text text-anchor="middle" x="165.5" y="-158.3" font-family="Times,serif" font-size="14.00">Arms.Poisson</text>
</g>
<!-- 0&#45;&gt;5 -->
<g id="edge4" class="edge"><title>0&#45;&gt;5</title>
<path fill="none" stroke="black" d="M211.421,-108.303C204.108,-116.695 195.19,-126.93 187.165,-136.139"/>
<polygon fill="black" stroke="black" points="180.405,-143.896 183.582,-133.4 183.69,-140.126 186.975,-136.357 186.975,-136.357 186.975,-136.357 183.69,-140.126 190.368,-139.313 180.405,-143.896 180.405,-143.896"/>
</g>
<!-- 1 -->
<g id="node2" class="node"><title>1</title>
<polygon fill="none" stroke="black" points="146,-252 69,-252 69,-216 146,-216 146,-252"/>
<text text-anchor="middle" x="107.5" y="-230.3" font-family="Times,serif" font-size="14.00">Arms.Arm</text>
</g>
<!-- 2&#45;&gt;1 -->
<g id="edge5" class="edge"><title>2&#45;&gt;1</title>
<path fill="none" stroke="black" d="M730.438,-162.808C624.325,-163.375 372.496,-169.743 156.198,-215.937"/>
<polygon fill="black" stroke="black" points="146.251,-218.095 155.069,-211.577 151.137,-217.035 156.023,-215.975 156.023,-215.975 156.023,-215.975 151.137,-217.035 156.977,-220.373 146.251,-218.095 146.251,-218.095"/>
</g>
<!-- 3&#45;&gt;1 -->
<g id="edge6" class="edge"><title>3&#45;&gt;1</title>
<path fill="none" stroke="black" d="M243.467,-180.124C216.84,-190.479 182.874,-203.688 155.553,-214.313"/>
<polygon fill="black" stroke="black" points="146.189,-217.954 153.878,-210.136 150.849,-216.142 155.509,-214.33 155.509,-214.33 155.509,-214.33 150.849,-216.142 157.14,-218.524 146.189,-217.954 146.189,-217.954"/>
</g>
<!-- 4&#45;&gt;1 -->
<g id="edge7" class="edge"><title>4&#45;&gt;1</title>
<path fill="none" stroke="black" d="M64.5899,-180.303C71.4234,-188.695 79.7569,-198.93 87.2558,-208.139"/>
<polygon fill="black" stroke="black" points="93.5722,-215.896 83.7684,-210.983 90.415,-212.018 87.2579,-208.141 87.2579,-208.141 87.2579,-208.141 90.415,-212.018 90.7474,-205.3 93.5722,-215.896 93.5722,-215.896"/>
</g>
<!-- 5&#45;&gt;1 -->
<g id="edge8" class="edge"><title>5&#45;&gt;1</title>
<path fill="none" stroke="black" d="M151.163,-180.303C144.209,-188.695 135.73,-198.93 128.099,-208.139"/>
<polygon fill="black" stroke="black" points="121.672,-215.896 124.587,-205.324 124.862,-212.046 128.052,-208.195 128.052,-208.195 128.052,-208.195 124.862,-212.046 131.517,-211.067 121.672,-215.896 121.672,-215.896"/>
</g>
<!-- 6 -->
<g id="node7" class="node"><title>6</title>
<polygon fill="none" stroke="black" points="2273.5,-108 2185.5,-108 2185.5,-72 2273.5,-72 2273.5,-108"/>
<text text-anchor="middle" x="2229.5" y="-86.3" font-family="Times,serif" font-size="14.00">Environment</text>
</g>
<!-- 8 -->
<g id="node9" class="node"><title>8</title>
<polygon fill="none" stroke="black" points="2215.5,-180 2071.5,-180 2071.5,-144 2215.5,-144 2215.5,-180"/>
<text text-anchor="middle" x="2143.5" y="-158.3" font-family="Times,serif" font-size="14.00">Environment.Evaluator</text>
</g>
<!-- 6&#45;&gt;8 -->
<g id="edge9" class="edge"><title>6&#45;&gt;8</title>
<path fill="none" stroke="black" d="M2208.24,-108.303C2197.41,-117.119 2184.08,-127.968 2172.34,-137.526"/>
<polygon fill="black" stroke="black" points="2164.51,-143.896 2169.43,-134.093 2168.39,-140.739 2172.27,-137.583 2172.27,-137.583 2172.27,-137.583 2168.39,-140.739 2175.11,-141.073 2164.51,-143.896 2164.51,-143.896"/>
</g>
<!-- 9 -->
<g id="node10" class="node"><title>9</title>
<polygon fill="none" stroke="black" points="2549,-180 2334,-180 2334,-144 2549,-144 2549,-180"/>
<text text-anchor="middle" x="2441.5" y="-158.3" font-family="Times,serif" font-size="14.00">Environment.EvaluatorMultiPlayers</text>
</g>
<!-- 6&#45;&gt;9 -->
<g id="edge10" class="edge"><title>6&#45;&gt;9</title>
<path fill="none" stroke="black" d="M2273.68,-105.589C2304.5,-115.764 2346.03,-129.476 2380.06,-140.714"/>
<polygon fill="black" stroke="black" points="2389.9,-143.964 2379,-145.101 2385.16,-142.396 2380.41,-140.828 2380.41,-140.828 2380.41,-140.828 2385.16,-142.396 2381.82,-136.555 2389.9,-143.964 2389.9,-143.964"/>
</g>
<!-- 10 -->
<g id="node11" class="node"><title>10</title>
<polygon fill="none" stroke="black" points="2348,-252 2225,-252 2225,-216 2348,-216 2348,-252"/>
<text text-anchor="middle" x="2286.5" y="-230.3" font-family="Times,serif" font-size="14.00">Environment.MAB</text>
</g>
<!-- 6&#45;&gt;10 -->
<g id="edge11" class="edge"><title>6&#45;&gt;10</title>
<path fill="none" stroke="black" d="M2239.6,-108.3C2245.31,-118.484 2252.31,-131.734 2257.5,-144 2266.13,-164.391 2273.79,-188.289 2279.07,-206.184"/>
<polygon fill="black" stroke="black" points="2281.89,-215.955 2274.79,-207.595 2280.5,-211.151 2279.11,-206.347 2279.11,-206.347 2279.11,-206.347 2280.5,-211.151 2283.44,-205.099 2281.89,-215.955 2281.89,-215.955"/>
</g>
<!-- 11 -->
<g id="node12" class="node"><title>11</title>
<polygon fill="none" stroke="black" points="2206.5,-252 2080.5,-252 2080.5,-216 2206.5,-216 2206.5,-252"/>
<text text-anchor="middle" x="2143.5" y="-230.3" font-family="Times,serif" font-size="14.00">Environment.Result</text>
</g>
<!-- 6&#45;&gt;11 -->
<g id="edge12" class="edge"><title>6&#45;&gt;11</title>
<path fill="none" stroke="black" d="M2232.84,-108.017C2235.64,-126.936 2237.35,-157.754 2224.5,-180 2217.26,-192.53 2205.73,-202.627 2193.61,-210.51"/>
<polygon fill="black" stroke="black" points="2184.74,-215.862 2190.98,-206.844 2189.02,-213.28 2193.3,-210.698 2193.3,-210.698 2193.3,-210.698 2189.02,-213.28 2195.62,-214.551 2184.74,-215.862 2184.74,-215.862"/>
</g>
<!-- 7 -->
<g id="node8" class="node"><title>7</title>
<polygon fill="none" stroke="black" points="2633.5,-36 2451.5,-36 2451.5,-0 2633.5,-0 2633.5,-36"/>
<text text-anchor="middle" x="2542.5" y="-14.3" font-family="Times,serif" font-size="14.00">Environment.CollisionModels</text>
</g>
<!-- 8&#45;&gt;10 -->
<g id="edge13" class="edge"><title>8&#45;&gt;10</title>
<path fill="none" stroke="black" d="M2178.48,-180.124C2197.7,-189.531 2221.73,-201.292 2242.24,-211.333"/>
<polygon fill="black" stroke="black" points="2251.38,-215.81 2240.42,-215.455 2246.89,-213.612 2242.4,-211.414 2242.4,-211.414 2242.4,-211.414 2246.89,-213.612 2244.38,-207.372 2251.38,-215.81 2251.38,-215.81"/>
</g>
<!-- 8&#45;&gt;11 -->
<g id="edge14" class="edge"><title>8&#45;&gt;11</title>
<path fill="none" stroke="black" d="M2143.5,-180.303C2143.5,-188.017 2143.5,-197.288 2143.5,-205.888"/>
<polygon fill="black" stroke="black" points="2143.5,-215.896 2139,-205.896 2143.5,-210.896 2143.5,-205.896 2143.5,-205.896 2143.5,-205.896 2143.5,-210.896 2148,-205.896 2143.5,-215.896 2143.5,-215.896"/>
</g>
<!-- 9&#45;&gt;10 -->
<g id="edge15" class="edge"><title>9&#45;&gt;10</title>
<path fill="none" stroke="black" d="M2403.58,-180.124C2382.49,-189.651 2356.04,-201.593 2333.63,-211.717"/>
<polygon fill="black" stroke="black" points="2324.29,-215.932 2331.56,-207.715 2328.85,-213.874 2333.41,-211.816 2333.41,-211.816 2333.41,-211.816 2328.85,-213.874 2335.26,-215.917 2324.29,-215.932 2324.29,-215.932"/>
</g>
<!-- 12 -->
<g id="node13" class="node"><title>12</title>
<polygon fill="none" stroke="black" points="2563,-252 2366,-252 2366,-216 2563,-216 2563,-252"/>
<text text-anchor="middle" x="2464.5" y="-230.3" font-family="Times,serif" font-size="14.00">Environment.ResultMultiPlayers</text>
</g>
<!-- 9&#45;&gt;12 -->
<g id="edge16" class="edge"><title>9&#45;&gt;12</title>
<path fill="none" stroke="black" d="M2447.19,-180.303C2449.75,-188.102 2452.83,-197.491 2455.68,-206.171"/>
<polygon fill="black" stroke="black" points="2458.88,-215.896 2451.48,-207.8 2457.32,-211.146 2455.76,-206.395 2455.76,-206.395 2455.76,-206.395 2457.32,-211.146 2460.03,-204.991 2458.88,-215.896 2458.88,-215.896"/>
</g>
<!-- 13 -->
<g id="node14" class="node"><title>13</title>
<polygon fill="none" stroke="black" points="1158,-180 1099,-180 1099,-144 1158,-144 1158,-180"/>
<text text-anchor="middle" x="1128.5" y="-158.3" font-family="Times,serif" font-size="14.00">Policies</text>
</g>
<!-- 14 -->
<g id="node15" class="node"><title>14</title>
<polygon fill="none" stroke="black" points="1390,-252 1269,-252 1269,-216 1390,-216 1390,-252"/>
<text text-anchor="middle" x="1329.5" y="-230.3" font-family="Times,serif" font-size="14.00">Policies.AdBandits</text>
</g>
<!-- 13&#45;&gt;14 -->
<g id="edge17" class="edge"><title>13&#45;&gt;14</title>
<path fill="none" stroke="black" d="M1158.16,-173.329C1187.73,-183.627 1233.95,-199.725 1270.94,-212.606"/>
<polygon fill="black" stroke="black" points="1280.61,-215.975 1269.69,-216.936 1275.89,-214.331 1271.17,-212.686 1271.17,-212.686 1271.17,-212.686 1275.89,-214.331 1272.65,-208.437 1280.61,-215.975 1280.61,-215.975"/>
</g>
<!-- 15 -->
<g id="node16" class="node"><title>15</title>
<polygon fill="none" stroke="black" points="255,-252 164,-252 164,-216 255,-216 255,-252"/>
<text text-anchor="middle" x="209.5" y="-230.3" font-family="Times,serif" font-size="14.00">Policies.Aggr</text>
</g>
<!-- 13&#45;&gt;15 -->
<g id="edge18" class="edge"><title>13&#45;&gt;15</title>
<path fill="none" stroke="black" d="M1098.62,-164.782C956.486,-173.262 352.391,-209.369 265.335,-216.721"/>
<polygon fill="black" stroke="black" points="255.264,-217.758 264.751,-212.258 260.238,-217.246 265.211,-216.734 265.211,-216.734 265.211,-216.734 260.238,-217.246 265.672,-221.21 255.264,-217.758 255.264,-217.758"/>
</g>
<!-- 16 -->
<g id="node17" class="node"><title>16</title>
<polygon fill="none" stroke="black" points="1532.5,-252 1408.5,-252 1408.5,-216 1532.5,-216 1532.5,-252"/>
<text text-anchor="middle" x="1470.5" y="-230.3" font-family="Times,serif" font-size="14.00">Policies.BayesUCB</text>
</g>
<!-- 13&#45;&gt;16 -->
<g id="edge19" class="edge"><title>13&#45;&gt;16</title>
<path fill="none" stroke="black" d="M1158.14,-168.437C1207.92,-177.652 1311.42,-197.18 1398.5,-216 1398.6,-216.022 1398.7,-216.044 1398.81,-216.066"/>
<polygon fill="black" stroke="black" points="1408.48,-218.199 1397.75,-220.441 1403.6,-217.122 1398.72,-216.046 1398.72,-216.046 1398.72,-216.046 1403.6,-217.122 1399.68,-211.652 1408.48,-218.199 1408.48,-218.199"/>
</g>
<!-- 18 -->
<g id="node19" class="node"><title>18</title>
<polygon fill="none" stroke="black" points="382,-252 273,-252 273,-216 382,-216 382,-252"/>
<text text-anchor="middle" x="327.5" y="-230.3" font-family="Times,serif" font-size="14.00">Policies.Dummy</text>
</g>
<!-- 13&#45;&gt;18 -->
<g id="edge20" class="edge"><title>13&#45;&gt;18</title>
<path fill="none" stroke="black" d="M1098.83,-164.793C974.501,-172.349 497.451,-201.799 392.53,-216.006"/>
<polygon fill="black" stroke="black" points="382.338,-217.538 391.558,-211.602 387.282,-216.795 392.227,-216.052 392.227,-216.052 392.227,-216.052 387.282,-216.795 392.895,-220.502 382.338,-217.538 382.338,-217.538"/>
</g>
<!-- 19 -->
<g id="node20" class="node"><title>19</title>
<polygon fill="none" stroke="black" points="565,-252 400,-252 400,-216 565,-216 565,-252"/>
<text text-anchor="middle" x="482.5" y="-230.3" font-family="Times,serif" font-size="14.00">Policies.EpsilonDecreasing</text>
</g>
<!-- 13&#45;&gt;19 -->
<g id="edge21" class="edge"><title>13&#45;&gt;19</title>
<path fill="none" stroke="black" d="M1098.91,-164.889C1017.15,-170.308 781.112,-187.29 575.359,-215.801"/>
<polygon fill="black" stroke="black" points="565.275,-217.211 574.555,-211.37 570.227,-216.519 575.179,-215.827 575.179,-215.827 575.179,-215.827 570.227,-216.519 575.802,-220.283 565.275,-217.211 565.275,-217.211"/>
</g>
<!-- 20 -->
<g id="node21" class="node"><title>20</title>
<polygon fill="none" stroke="black" points="712,-252 583,-252 583,-216 712,-216 712,-252"/>
<text text-anchor="middle" x="647.5" y="-230.3" font-family="Times,serif" font-size="14.00">Policies.EpsilonFirst</text>
</g>
<!-- 13&#45;&gt;20 -->
<g id="edge22" class="edge"><title>13&#45;&gt;20</title>
<path fill="none" stroke="black" d="M1098.98,-165.858C1033.22,-172.436 869.519,-189.972 722.505,-215.917"/>
<polygon fill="black" stroke="black" points="712.399,-217.719 721.454,-211.533 717.322,-216.841 722.244,-215.963 722.244,-215.963 722.244,-215.963 717.322,-216.841 723.034,-220.393 712.399,-217.719 712.399,-217.719"/>
</g>
<!-- 21 -->
<g id="node22" class="node"><title>21</title>
<polygon fill="none" stroke="black" points="874.5,-252 730.5,-252 730.5,-216 874.5,-216 874.5,-252"/>
<text text-anchor="middle" x="802.5" y="-230.3" font-family="Times,serif" font-size="14.00">Policies.EpsilonGreedy</text>
</g>
<!-- 13&#45;&gt;21 -->
<g id="edge23" class="edge"><title>13&#45;&gt;21</title>
<path fill="none" stroke="black" d="M1098.99,-169.335C1051.12,-179.616 954.826,-200.292 884.935,-215.299"/>
<polygon fill="black" stroke="black" points="874.824,-217.47 883.656,-210.971 879.712,-216.421 884.601,-215.371 884.601,-215.371 884.601,-215.371 879.712,-216.421 885.546,-219.771 874.824,-217.47 874.824,-217.47"/>
</g>
<!-- 23 -->
<g id="node24" class="node"><title>23</title>
<polygon fill="none" stroke="black" points="1943,-252 1810,-252 1810,-216 1943,-216 1943,-252"/>
<text text-anchor="middle" x="1876.5" y="-230.3" font-family="Times,serif" font-size="14.00">Policies.KLempUCB</text>
</g>
<!-- 13&#45;&gt;23 -->
<g id="edge24" class="edge"><title>13&#45;&gt;23</title>
<path fill="none" stroke="black" d="M1158.15,-163.844C1251.24,-166.807 1546.09,-178.585 1799.73,-216.023"/>
<polygon fill="black" stroke="black" points="1809.87,-217.537 1799.32,-220.511 1804.93,-216.799 1799.98,-216.061 1799.98,-216.061 1799.98,-216.061 1804.93,-216.799 1800.65,-211.61 1809.87,-217.537 1809.87,-217.537"/>
</g>
<!-- 24 -->
<g id="node25" class="node"><title>24</title>
<polygon fill="none" stroke="black" points="1002.5,-252 892.5,-252 892.5,-216 1002.5,-216 1002.5,-252"/>
<text text-anchor="middle" x="947.5" y="-230.3" font-family="Times,serif" font-size="14.00">Policies.Softmax</text>
</g>
<!-- 13&#45;&gt;24 -->
<g id="edge25" class="edge"><title>13&#45;&gt;24</title>
<path fill="none" stroke="black" d="M1098.61,-174.559C1072.22,-184.765 1033.11,-199.891 1001.29,-212.198"/>
<polygon fill="black" stroke="black" points="991.669,-215.918 999.373,-208.114 996.332,-214.114 1001,-212.311 1001,-212.311 1001,-212.311 996.332,-214.114 1002.62,-216.508 991.669,-215.918 991.669,-215.918"/>
</g>
<!-- 25 -->
<g id="node26" class="node"><title>25</title>
<polygon fill="none" stroke="black" points="1672.5,-252 1550.5,-252 1550.5,-216 1672.5,-216 1672.5,-252"/>
<text text-anchor="middle" x="1611.5" y="-230.3" font-family="Times,serif" font-size="14.00">Policies.Thompson</text>
</g>
<!-- 13&#45;&gt;25 -->
<g id="edge26" class="edge"><title>13&#45;&gt;25</title>
<path fill="none" stroke="black" d="M1158.22,-165.675C1224.84,-171.913 1391.28,-188.849 1539.91,-215.813"/>
<polygon fill="black" stroke="black" points="1550.12,-217.687 1539.47,-220.309 1545.2,-216.785 1540.29,-215.882 1540.29,-215.882 1540.29,-215.882 1545.2,-216.785 1541.1,-211.456 1550.12,-217.687 1550.12,-217.687"/>
</g>
<!-- 26 -->
<g id="node27" class="node"><title>26</title>
<polygon fill="none" stroke="black" points="1112,-252 1021,-252 1021,-216 1112,-216 1112,-252"/>
<text text-anchor="middle" x="1066.5" y="-230.3" font-family="Times,serif" font-size="14.00">Policies.UCB</text>
</g>
<!-- 13&#45;&gt;26 -->
<g id="edge27" class="edge"><title>13&#45;&gt;26</title>
<path fill="none" stroke="black" d="M1113.17,-180.303C1105.74,-188.695 1096.68,-198.93 1088.52,-208.139"/>
<polygon fill="black" stroke="black" points="1081.65,-215.896 1084.91,-205.426 1084.96,-212.153 1088.28,-208.41 1088.28,-208.41 1088.28,-208.41 1084.96,-212.153 1091.65,-211.393 1081.65,-215.896 1081.65,-215.896"/>
</g>
<!-- 27 -->
<g id="node28" class="node"><title>27</title>
<polygon fill="none" stroke="black" points="1792,-252 1691,-252 1691,-216 1792,-216 1792,-252"/>
<text text-anchor="middle" x="1741.5" y="-230.3" font-family="Times,serif" font-size="14.00">Policies.UCBV</text>
</g>
<!-- 13&#45;&gt;27 -->
<g id="edge28" class="edge"><title>13&#45;&gt;27</title>
<path fill="none" stroke="black" d="M1158.14,-163.96C1240,-167.006 1476.1,-178.469 1680.88,-216.103"/>
<polygon fill="black" stroke="black" points="1690.91,-217.973 1680.26,-220.565 1686,-217.057 1681.08,-216.141 1681.08,-216.141 1681.08,-216.141 1686,-217.057 1681.91,-211.717 1690.91,-217.973 1690.91,-217.973"/>
</g>
<!-- 28 -->
<g id="node29" class="node"><title>28</title>
<polygon fill="none" stroke="black" points="1250.5,-252 1130.5,-252 1130.5,-216 1250.5,-216 1250.5,-252"/>
<text text-anchor="middle" x="1190.5" y="-230.3" font-family="Times,serif" font-size="14.00">Policies.UCBalpha</text>
</g>
<!-- 13&#45;&gt;28 -->
<g id="edge29" class="edge"><title>13&#45;&gt;28</title>
<path fill="none" stroke="black" d="M1143.83,-180.303C1151.26,-188.695 1160.32,-198.93 1168.48,-208.139"/>
<polygon fill="black" stroke="black" points="1175.35,-215.896 1165.35,-211.393 1172.04,-212.153 1168.72,-208.41 1168.72,-208.41 1168.72,-208.41 1172.04,-212.153 1172.09,-205.426 1175.35,-215.896 1175.35,-215.896"/>
</g>
<!-- 29 -->
<g id="node30" class="node"><title>29</title>
<polygon fill="none" stroke="black" points="2062,-252 1961,-252 1961,-216 2062,-216 2062,-252"/>
<text text-anchor="middle" x="2011.5" y="-230.3" font-family="Times,serif" font-size="14.00">Policies.klUCB</text>
</g>
<!-- 13&#45;&gt;29 -->
<g id="edge30" class="edge"><title>13&#45;&gt;29</title>
<path fill="none" stroke="black" d="M1158.29,-162.654C1264.83,-161.889 1636.83,-163.282 1950.73,-216.12"/>
<polygon fill="black" stroke="black" points="1960.93,-217.859 1950.32,-220.615 1956.01,-217.019 1951.08,-216.179 1951.08,-216.179 1951.08,-216.179 1956.01,-217.019 1951.83,-211.743 1960.93,-217.859 1960.93,-217.859"/>
</g>
<!-- 17 -->
<g id="node18" class="node"><title>17</title>
<polygon fill="none" stroke="black" points="1514.5,-324 1426.5,-324 1426.5,-288 1514.5,-288 1514.5,-324"/>
<text text-anchor="middle" x="1470.5" y="-302.3" font-family="Times,serif" font-size="14.00">Policies.Beta</text>
</g>
<!-- 14&#45;&gt;17 -->
<g id="edge31" class="edge"><title>14&#45;&gt;17</title>
<path fill="none" stroke="black" d="M1363.99,-252.124C1382.94,-261.531 1406.63,-273.292 1426.86,-283.333"/>
<polygon fill="black" stroke="black" points="1435.87,-287.81 1424.92,-287.394 1431.4,-285.587 1426.92,-283.363 1426.92,-283.363 1426.92,-283.363 1431.4,-285.587 1428.92,-279.333 1435.87,-287.81 1435.87,-287.81"/>
</g>
<!-- 16&#45;&gt;17 -->
<g id="edge32" class="edge"><title>16&#45;&gt;17</title>
<path fill="none" stroke="black" d="M1470.5,-252.303C1470.5,-260.017 1470.5,-269.288 1470.5,-277.888"/>
<polygon fill="black" stroke="black" points="1470.5,-287.896 1466,-277.896 1470.5,-282.896 1470.5,-277.896 1470.5,-277.896 1470.5,-277.896 1470.5,-282.896 1475,-277.896 1470.5,-287.896 1470.5,-287.896"/>
</g>
<!-- 22 -->
<g id="node23" class="node"><title>22</title>
<polygon fill="none" stroke="black" points="1805.5,-324 1677.5,-324 1677.5,-288 1805.5,-288 1805.5,-324"/>
<text text-anchor="middle" x="1741.5" y="-302.3" font-family="Times,serif" font-size="14.00">Policies.IndexPolicy</text>
</g>
<!-- 16&#45;&gt;22 -->
<g id="edge33" class="edge"><title>16&#45;&gt;22</title>
<path fill="none" stroke="black" d="M1532.67,-251.059C1572.83,-261.432 1625.28,-274.981 1667.58,-285.905"/>
<polygon fill="black" stroke="black" points="1677.26,-288.407 1666.45,-290.263 1672.42,-287.157 1667.58,-285.906 1667.58,-285.906 1667.58,-285.906 1672.42,-287.157 1668.71,-281.549 1677.26,-288.407 1677.26,-288.407"/>
</g>
<!-- 23&#45;&gt;22 -->
<g id="edge34" class="edge"><title>23&#45;&gt;22</title>
<path fill="none" stroke="black" d="M1843.48,-252.124C1825.42,-261.488 1802.85,-273.186 1783.55,-283.197"/>
<polygon fill="black" stroke="black" points="1774.65,-287.81 1781.46,-279.212 1779.09,-285.509 1783.53,-283.207 1783.53,-283.207 1783.53,-283.207 1779.09,-285.509 1785.6,-287.202 1774.65,-287.81 1774.65,-287.81"/>
</g>
<!-- 30 -->
<g id="node31" class="node"><title>30</title>
<polygon fill="none" stroke="black" points="1999.5,-324 1889.5,-324 1889.5,-288 1999.5,-288 1999.5,-324"/>
<text text-anchor="middle" x="1944.5" y="-302.3" font-family="Times,serif" font-size="14.00">Policies.kullback</text>
</g>
<!-- 23&#45;&gt;30 -->
<g id="edge35" class="edge"><title>23&#45;&gt;30</title>
<path fill="none" stroke="black" d="M1893.31,-252.303C1901.63,-260.865 1911.81,-271.344 1920.89,-280.696"/>
<polygon fill="black" stroke="black" points="1927.88,-287.896 1917.69,-283.858 1924.4,-284.309 1920.92,-280.723 1920.92,-280.723 1920.92,-280.723 1924.4,-284.309 1924.14,-277.587 1927.88,-287.896 1927.88,-287.896"/>
</g>
<!-- 25&#45;&gt;17 -->
<g id="edge36" class="edge"><title>25&#45;&gt;17</title>
<path fill="none" stroke="black" d="M1577.01,-252.124C1558.06,-261.531 1534.37,-273.292 1514.14,-283.333"/>
<polygon fill="black" stroke="black" points="1505.13,-287.81 1512.08,-279.333 1509.6,-285.587 1514.08,-283.363 1514.08,-283.363 1514.08,-283.363 1509.6,-285.587 1516.08,-287.394 1505.13,-287.81 1505.13,-287.81"/>
</g>
<!-- 25&#45;&gt;22 -->
<g id="edge37" class="edge"><title>25&#45;&gt;22</title>
<path fill="none" stroke="black" d="M1643.3,-252.124C1660.61,-261.446 1682.22,-273.081 1700.76,-283.061"/>
<polygon fill="black" stroke="black" points="1709.58,-287.81 1698.64,-287.031 1705.17,-285.44 1700.77,-283.069 1700.77,-283.069 1700.77,-283.069 1705.17,-285.44 1702.9,-279.107 1709.58,-287.81 1709.58,-287.81"/>
</g>
<!-- 27&#45;&gt;22 -->
<g id="edge38" class="edge"><title>27&#45;&gt;22</title>
<path fill="none" stroke="black" d="M1741.5,-252.303C1741.5,-260.017 1741.5,-269.288 1741.5,-277.888"/>
<polygon fill="black" stroke="black" points="1741.5,-287.896 1737,-277.896 1741.5,-282.896 1741.5,-277.896 1741.5,-277.896 1741.5,-277.896 1741.5,-282.896 1746,-277.896 1741.5,-287.896 1741.5,-287.896"/>
</g>
<!-- 29&#45;&gt;22 -->
<g id="edge39" class="edge"><title>29&#45;&gt;22</title>
<path fill="none" stroke="black" d="M1960.79,-249.479C1957.65,-250.341 1954.53,-251.188 1951.5,-252 1906.54,-264.041 1855.95,-276.83 1815.7,-286.828"/>
<polygon fill="black" stroke="black" points="1805.96,-289.242 1814.58,-282.468 1810.81,-288.039 1815.67,-286.836 1815.67,-286.836 1815.67,-286.836 1810.81,-288.039 1816.75,-291.204 1805.96,-289.242 1805.96,-289.242"/>
</g>
<!-- 29&#45;&gt;30 -->
<g id="edge40" class="edge"><title>29&#45;&gt;30</title>
<path fill="none" stroke="black" d="M1994.94,-252.303C1986.82,-260.78 1976.91,-271.136 1968.03,-280.417"/>
<polygon fill="black" stroke="black" points="1960.87,-287.896 1964.53,-277.56 1964.33,-284.284 1967.79,-280.671 1967.79,-280.671 1967.79,-280.671 1964.33,-284.284 1971.04,-283.783 1960.87,-287.896 1960.87,-287.896"/>
</g>
<!-- 31 -->
<g id="node32" class="node"><title>31</title>
<polygon fill="none" stroke="black" points="2716.5,-180 2586.5,-180 2586.5,-144 2716.5,-144 2716.5,-180"/>
<text text-anchor="middle" x="2651.5" y="-158.3" font-family="Times,serif" font-size="14.00">PoliciesMultiPlayers</text>
</g>
<!-- 34 -->
<g id="node35" class="node"><title>34</title>
<polygon fill="none" stroke="black" points="2760,-252 2581,-252 2581,-216 2760,-216 2760,-252"/>
<text text-anchor="middle" x="2670.5" y="-230.3" font-family="Times,serif" font-size="14.00">PoliciesMultiPlayers.Dummy</text>
</g>
<!-- 31&#45;&gt;34 -->
<g id="edge41" class="edge"><title>31&#45;&gt;34</title>
<path fill="none" stroke="black" d="M2656.2,-180.303C2658.31,-188.102 2660.86,-197.491 2663.22,-206.171"/>
<polygon fill="black" stroke="black" points="2665.86,-215.896 2658.89,-207.424 2664.55,-211.07 2663.24,-206.245 2663.24,-206.245 2663.24,-206.245 2664.55,-211.07 2667.58,-205.066 2665.86,-215.896 2665.86,-215.896"/>
</g>
<!-- 32 -->
<g id="node33" class="node"><title>32</title>
<polygon fill="none" stroke="black" points="2847.5,-36 2651.5,-36 2651.5,-0 2847.5,-0 2847.5,-36"/>
<text text-anchor="middle" x="2749.5" y="-14.3" font-family="Times,serif" font-size="14.00">PoliciesMultiPlayers.Centralized</text>
</g>
<!-- 33 -->
<g id="node34" class="node"><title>33</title>
<polygon fill="none" stroke="black" points="3075,-36 2866,-36 2866,-0 3075,-0 3075,-36"/>
<text text-anchor="middle" x="2970.5" y="-14.3" font-family="Times,serif" font-size="14.00">PoliciesMultiPlayers.Decentralized</text>
</g>
<!-- 35 -->
<g id="node36" class="node"><title>35</title>
<polygon fill="none" stroke="black" points="3267.5,-36 3093.5,-36 3093.5,-0 3267.5,-0 3267.5,-36"/>
<text text-anchor="middle" x="3180.5" y="-14.3" font-family="Times,serif" font-size="14.00">PoliciesMultiPlayers.MEGA</text>
</g>
<!-- 36 -->
<g id="node37" class="node"><title>36</title>
<polygon fill="none" stroke="black" points="3471,-36 3286,-36 3286,-0 3471,-0 3471,-36"/>
<text text-anchor="middle" x="3378.5" y="-14.3" font-family="Times,serif" font-size="14.00">PoliciesMultiPlayers.RhoRand</text>
</g>
<!-- 37 -->
<g id="node38" class="node"><title>37</title>
<polygon fill="none" stroke="black" points="3660,-36 3489,-36 3489,-0 3660,-0 3660,-36"/>
<text text-anchor="middle" x="3574.5" y="-14.3" font-family="Times,serif" font-size="14.00">PoliciesMultiPlayers.Selfish</text>
</g>
<!-- 38 -->
<g id="node39" class="node"><title>38</title>
<polygon fill="none" stroke="black" points="3845,-36 3678,-36 3678,-0 3845,-0 3845,-36"/>
<text text-anchor="middle" x="3761.5" y="-14.3" font-family="Times,serif" font-size="14.00">PoliciesMultiPlayers.TDFS</text>
</g>
<!-- 39 -->
<g id="node40" class="node"><title>39</title>
<polygon fill="none" stroke="black" points="1173,-108 1084,-108 1084,-72 1173,-72 1173,-108"/>
<text text-anchor="middle" x="1128.5" y="-86.3" font-family="Times,serif" font-size="14.00">configuration</text>
</g>
<!-- 39&#45;&gt;2 -->
<g id="edge42" class="edge"><title>39&#45;&gt;2</title>
<path fill="none" stroke="black" d="M1083.85,-100.008C1022.43,-112.396 911.683,-134.738 842.624,-148.67"/>
<polygon fill="black" stroke="black" points="832.748,-150.662 841.66,-144.273 837.649,-149.673 842.55,-148.684 842.55,-148.684 842.55,-148.684 837.649,-149.673 843.44,-153.095 832.748,-150.662 832.748,-150.662"/>
</g>
<!-- 39&#45;&gt;13 -->
<g id="edge43" class="edge"><title>39&#45;&gt;13</title>
<path fill="none" stroke="black" d="M1128.5,-108.303C1128.5,-116.017 1128.5,-125.288 1128.5,-133.888"/>
<polygon fill="black" stroke="black" points="1128.5,-143.896 1124,-133.896 1128.5,-138.896 1128.5,-133.896 1128.5,-133.896 1128.5,-133.896 1128.5,-138.896 1133,-133.896 1128.5,-143.896 1128.5,-143.896"/>
</g>
<!-- 40 -->
<g id="node41" class="node"><title>40</title>
<polygon fill="none" stroke="black" points="2455.5,-108 2291.5,-108 2291.5,-72 2455.5,-72 2455.5,-108"/>
<text text-anchor="middle" x="2373.5" y="-86.3" font-family="Times,serif" font-size="14.00">configuration_multiplayers</text>
</g>
<!-- 40&#45;&gt;2 -->
<g id="edge44" class="edge"><title>40&#45;&gt;2</title>
<path fill="none" stroke="black" d="M2291.24,-106.955C2288.3,-107.339 2285.38,-107.69 2282.5,-108 1755.09,-164.876 1619.48,-121.381 1089.5,-144 1003.85,-147.656 904.873,-153.387 842.735,-157.169"/>
<polygon fill="black" stroke="black" points="832.708,-157.781 842.415,-152.68 837.699,-157.476 842.69,-157.171 842.69,-157.171 842.69,-157.171 837.699,-157.476 842.964,-161.663 832.708,-157.781 832.708,-157.781"/>
</g>
<!-- 40&#45;&gt;31 -->
<g id="edge45" class="edge"><title>40&#45;&gt;31</title>
<path fill="none" stroke="black" d="M2441.15,-108.034C2482.07,-118.337 2534.3,-131.49 2576.48,-142.111"/>
<polygon fill="black" stroke="black" points="2586.42,-144.614 2575.63,-146.536 2581.57,-143.393 2576.73,-142.172 2576.73,-142.172 2576.73,-142.172 2581.57,-143.393 2577.83,-137.808 2586.42,-144.614 2586.42,-144.614"/>
</g>
<!-- 41 -->
<g id="node42" class="node"><title>41</title>
<polygon fill="none" stroke="black" points="2170.5,-36 2116.5,-36 2116.5,-0 2170.5,-0 2170.5,-36"/>
<text text-anchor="middle" x="2143.5" y="-14.3" font-family="Times,serif" font-size="14.00">main</text>
</g>
<!-- 41&#45;&gt;6 -->
<g id="edge46" class="edge"><title>41&#45;&gt;6</title>
<path fill="none" stroke="black" d="M2164.76,-36.3034C2175.59,-45.1193 2188.92,-55.9679 2200.66,-65.5258"/>
<polygon fill="black" stroke="black" points="2208.49,-71.8957 2197.89,-69.073 2204.61,-68.7393 2200.73,-65.5829 2200.73,-65.5829 2200.73,-65.5829 2204.61,-68.7393 2203.57,-62.0929 2208.49,-71.8957 2208.49,-71.8957"/>
</g>
<!-- 41&#45;&gt;8 -->
<g id="edge47" class="edge"><title>41&#45;&gt;8</title>
<path fill="none" stroke="black" d="M2143.5,-36.1285C2143.5,-60.3298 2143.5,-104.789 2143.5,-133.607"/>
<polygon fill="black" stroke="black" points="2143.5,-143.811 2139,-133.811 2143.5,-138.811 2143.5,-133.811 2143.5,-133.811 2143.5,-133.811 2143.5,-138.811 2148,-133.811 2143.5,-143.811 2143.5,-143.811"/>
</g>
<!-- 41&#45;&gt;39 -->
<g id="edge48" class="edge"><title>41&#45;&gt;39</title>
<path fill="none" stroke="black" d="M2116.35,-20.8723C1980.13,-30.2667 1370.3,-72.3244 1183.23,-85.2252"/>
<polygon fill="black" stroke="black" points="1173.08,-85.9252 1182.75,-80.7477 1178.07,-85.5811 1183.06,-85.2371 1183.06,-85.2371 1183.06,-85.2371 1178.07,-85.5811 1183.37,-89.7264 1173.08,-85.9252 1173.08,-85.9252"/>
</g>
<!-- 42 -->
<g id="node43" class="node"><title>42</title>
<polygon fill="none" stroke="black" points="2433,-36 2314,-36 2314,-0 2433,-0 2433,-36"/>
<text text-anchor="middle" x="2373.5" y="-14.3" font-family="Times,serif" font-size="14.00">main_multiplayers</text>
</g>
<!-- 42&#45;&gt;6 -->
<g id="edge49" class="edge"><title>42&#45;&gt;6</title>
<path fill="none" stroke="black" d="M2338.27,-36.1239C2318.92,-45.5307 2294.73,-57.2923 2274.07,-67.3328"/>
<polygon fill="black" stroke="black" points="2264.86,-71.8102 2271.89,-63.3911 2269.36,-69.6243 2273.86,-67.4383 2273.86,-67.4383 2273.86,-67.4383 2269.36,-69.6243 2275.82,-71.4854 2264.86,-71.8102 2264.86,-71.8102"/>
</g>
<!-- 42&#45;&gt;9 -->
<g id="edge50" class="edge"><title>42&#45;&gt;9</title>
<path fill="none" stroke="black" d="M2423.06,-36.1539C2439.19,-44.3641 2455.3,-55.9908 2464.5,-72 2475.73,-91.5299 2467.58,-116.581 2458.01,-135.127"/>
<polygon fill="black" stroke="black" points="2453.13,-143.912 2454.05,-132.985 2455.56,-139.542 2457.99,-135.172 2457.99,-135.172 2457.99,-135.172 2455.56,-139.542 2461.92,-137.359 2453.13,-143.912 2453.13,-143.912"/>
</g>
<!-- 42&#45;&gt;40 -->
<g id="edge51" class="edge"><title>42&#45;&gt;40</title>
<path fill="none" stroke="black" d="M2373.5,-36.3034C2373.5,-44.0173 2373.5,-53.2875 2373.5,-61.8876"/>
<polygon fill="black" stroke="black" points="2373.5,-71.8957 2369,-61.8956 2373.5,-66.8957 2373.5,-61.8957 2373.5,-61.8957 2373.5,-61.8957 2373.5,-66.8957 2378,-61.8957 2373.5,-71.8957 2373.5,-71.8957"/>
</g>
</g>
</svg>
