<?xml version="1.0" encoding="UTF-8" standalone="no"?>
<!DOCTYPE svg PUBLIC "-//W3C//DTD SVG 1.1//EN"
 "http://www.w3.org/Graphics/SVG/1.1/DTD/svg11.dtd">
<!-- Generated by graphviz version 2.38.0 (20140413.2041)
 -->
<!-- Title: packages_AlgoBandits Pages: 1 -->
<svg width="6220pt" height="548pt"
 viewBox="0.00 0.00 6219.86 548.00" xmlns="http://www.w3.org/2000/svg" xmlns:xlink="http://www.w3.org/1999/xlink">
<g id="graph0" class="graph" transform="scale(1 1) rotate(0) translate(4 544)">
<title>packages_AlgoBandits</title>
<polygon fill="white" stroke="none" points="-4,4 -4,-544 6215.86,-544 6215.86,4 -4,4"/>
<!-- 0 -->
<g id="node1" class="node"><title>0</title>
<polygon fill="none" stroke="black" points="388.859,-180 334.859,-180 334.859,-144 388.859,-144 388.859,-180"/>
<text text-anchor="middle" x="361.859" y="-158.3" font-family="Times,serif" font-size="14.00">Arms</text>
</g>
<!-- 2 -->
<g id="node3" class="node"><title>2</title>
<polygon fill="none" stroke="black" points="473.859,-252 371.859,-252 371.859,-216 473.859,-216 473.859,-252"/>
<text text-anchor="middle" x="422.859" y="-230.3" font-family="Times,serif" font-size="14.00">Arms.Bernoulli</text>
</g>
<!-- 0&#45;&gt;2 -->
<g id="edge1" class="edge"><title>0&#45;&gt;2</title>
<path fill="none" stroke="black" d="M376.937,-180.303C384.25,-188.695 393.169,-198.93 401.194,-208.139"/>
<polygon fill="black" stroke="black" points="407.953,-215.896 397.991,-211.313 404.669,-212.126 401.384,-208.357 401.384,-208.357 401.384,-208.357 404.669,-212.126 404.776,-205.4 407.953,-215.896 407.953,-215.896"/>
</g>
<!-- 3 -->
<g id="node4" class="node"><title>3</title>
<polygon fill="none" stroke="black" points="607.859,-252 491.859,-252 491.859,-216 607.859,-216 607.859,-252"/>
<text text-anchor="middle" x="549.859" y="-230.3" font-family="Times,serif" font-size="14.00">Arms.Exponential</text>
</g>
<!-- 0&#45;&gt;3 -->
<g id="edge2" class="edge"><title>0&#45;&gt;3</title>
<path fill="none" stroke="black" d="M389.195,-173.179C416.656,-183.403 459.755,-199.451 494.403,-212.352"/>
<polygon fill="black" stroke="black" points="503.932,-215.9 492.99,-216.627 499.246,-214.155 494.56,-212.41 494.56,-212.41 494.56,-212.41 499.246,-214.155 496.13,-208.193 503.932,-215.9 503.932,-215.9"/>
</g>
<!-- 4 -->
<g id="node5" class="node"><title>4</title>
<polygon fill="none" stroke="black" points="242.359,-252 141.359,-252 141.359,-216 242.359,-216 242.359,-252"/>
<text text-anchor="middle" x="191.859" y="-230.3" font-family="Times,serif" font-size="14.00">Arms.Gaussian</text>
</g>
<!-- 0&#45;&gt;4 -->
<g id="edge3" class="edge"><title>0&#45;&gt;4</title>
<path fill="none" stroke="black" d="M334.545,-174.247C309.9,-184.395 273.004,-199.587 242.905,-211.981"/>
<polygon fill="black" stroke="black" points="233.396,-215.896 240.929,-207.928 238.019,-213.993 242.643,-212.089 242.643,-212.089 242.643,-212.089 238.019,-213.993 244.356,-216.25 233.396,-215.896 233.396,-215.896"/>
</g>
<!-- 5 -->
<g id="node6" class="node"><title>5</title>
<polygon fill="none" stroke="black" points="353.359,-252 260.359,-252 260.359,-216 353.359,-216 353.359,-252"/>
<text text-anchor="middle" x="306.859" y="-230.3" font-family="Times,serif" font-size="14.00">Arms.Poisson</text>
</g>
<!-- 0&#45;&gt;5 -->
<g id="edge4" class="edge"><title>0&#45;&gt;5</title>
<path fill="none" stroke="black" d="M348.263,-180.303C341.736,-188.611 333.791,-198.723 326.612,-207.859"/>
<polygon fill="black" stroke="black" points="320.298,-215.896 322.938,-205.252 323.387,-211.964 326.476,-208.032 326.476,-208.032 326.476,-208.032 323.387,-211.964 330.014,-210.813 320.298,-215.896 320.298,-215.896"/>
</g>
<!-- 6 -->
<g id="node7" class="node"><title>6</title>
<polygon fill="none" stroke="black" points="122.859,-252 24.8586,-252 24.8586,-216 122.859,-216 122.859,-252"/>
<text text-anchor="middle" x="73.8586" y="-230.3" font-family="Times,serif" font-size="14.00">Arms.Uniform</text>
</g>
<!-- 0&#45;&gt;6 -->
<g id="edge5" class="edge"><title>0&#45;&gt;6</title>
<path fill="none" stroke="black" d="M334.822,-168.692C293.477,-177.512 211.858,-195.378 133.233,-215.712"/>
<polygon fill="black" stroke="black" points="123.165,-218.335 131.708,-211.46 128.003,-217.074 132.842,-215.814 132.842,-215.814 132.842,-215.814 128.003,-217.074 133.976,-220.169 123.165,-218.335 123.165,-218.335"/>
</g>
<!-- 1 -->
<g id="node2" class="node"><title>1</title>
<polygon fill="none" stroke="black" points="345.359,-324 268.359,-324 268.359,-288 345.359,-288 345.359,-324"/>
<text text-anchor="middle" x="306.859" y="-302.3" font-family="Times,serif" font-size="14.00">Arms.Arm</text>
</g>
<!-- 2&#45;&gt;1 -->
<g id="edge6" class="edge"><title>2&#45;&gt;1</title>
<path fill="none" stroke="black" d="M394.482,-252.124C379.315,-261.276 360.454,-272.658 344.119,-282.515"/>
<polygon fill="black" stroke="black" points="335.345,-287.81 341.581,-278.791 339.625,-285.227 343.906,-282.644 343.906,-282.644 343.906,-282.644 339.625,-285.227 346.231,-286.496 335.345,-287.81 335.345,-287.81"/>
</g>
<!-- 7 -->
<g id="node8" class="node"><title>7</title>
<polygon fill="none" stroke="black" points="466.859,-324 368.859,-324 368.859,-288 466.859,-288 466.859,-324"/>
<text text-anchor="middle" x="417.859" y="-302.3" font-family="Times,serif" font-size="14.00">Arms.kullback</text>
</g>
<!-- 2&#45;&gt;7 -->
<g id="edge7" class="edge"><title>2&#45;&gt;7</title>
<path fill="none" stroke="black" d="M421.623,-252.303C421.072,-260.017 420.41,-269.288 419.795,-277.888"/>
<polygon fill="black" stroke="black" points="419.08,-287.896 415.304,-277.6 419.437,-282.908 419.793,-277.921 419.793,-277.921 419.793,-277.921 419.437,-282.908 424.282,-278.242 419.08,-287.896 419.08,-287.896"/>
</g>
<!-- 3&#45;&gt;1 -->
<g id="edge8" class="edge"><title>3&#45;&gt;1</title>
<path fill="none" stroke="black" d="M491.483,-250.661C453.812,-260.921 403.815,-274.825 359.859,-288 358.412,-288.433 356.945,-288.877 355.465,-289.329"/>
<polygon fill="black" stroke="black" points="345.593,-292.387 353.813,-285.129 350.369,-290.907 355.145,-289.428 355.145,-289.428 355.145,-289.428 350.369,-290.907 356.476,-293.726 345.593,-292.387 345.593,-292.387"/>
</g>
<!-- 3&#45;&gt;7 -->
<g id="edge9" class="edge"><title>3&#45;&gt;7</title>
<path fill="none" stroke="black" d="M517.568,-252.124C499.989,-261.446 478.05,-273.081 459.229,-283.061"/>
<polygon fill="black" stroke="black" points="450.274,-287.81 457,-279.15 454.691,-285.468 459.108,-283.125 459.108,-283.125 459.108,-283.125 454.691,-285.468 461.217,-287.101 450.274,-287.81 450.274,-287.81"/>
</g>
<!-- 4&#45;&gt;1 -->
<g id="edge10" class="edge"><title>4&#45;&gt;1</title>
<path fill="none" stroke="black" d="M219.991,-252.124C235.027,-261.276 253.726,-272.658 269.919,-282.515"/>
<polygon fill="black" stroke="black" points="278.618,-287.81 267.737,-286.455 274.347,-285.21 270.076,-282.611 270.076,-282.611 270.076,-282.611 274.347,-285.21 272.416,-278.767 278.618,-287.81 278.618,-287.81"/>
</g>
<!-- 4&#45;&gt;7 -->
<g id="edge11" class="edge"><title>4&#45;&gt;7</title>
<path fill="none" stroke="black" d="M242.577,-250.709C276.956,-261.358 322.52,-275.47 358.575,-286.638"/>
<polygon fill="black" stroke="black" points="368.475,-289.704 357.591,-291.044 363.699,-288.225 358.922,-286.745 358.922,-286.745 358.922,-286.745 363.699,-288.225 360.254,-282.447 368.475,-289.704 368.475,-289.704"/>
</g>
<!-- 5&#45;&gt;1 -->
<g id="edge12" class="edge"><title>5&#45;&gt;1</title>
<path fill="none" stroke="black" d="M306.859,-252.303C306.859,-260.017 306.859,-269.288 306.859,-277.888"/>
<polygon fill="black" stroke="black" points="306.859,-287.896 302.359,-277.896 306.859,-282.896 306.859,-277.896 306.859,-277.896 306.859,-277.896 306.859,-282.896 311.359,-277.896 306.859,-287.896 306.859,-287.896"/>
</g>
<!-- 5&#45;&gt;7 -->
<g id="edge13" class="edge"><title>5&#45;&gt;7</title>
<path fill="none" stroke="black" d="M334.012,-252.124C348.391,-261.192 366.24,-272.448 381.769,-282.241"/>
<polygon fill="black" stroke="black" points="390.601,-287.81 379.742,-286.282 386.371,-285.143 382.142,-282.476 382.142,-282.476 382.142,-282.476 386.371,-285.143 384.542,-278.67 390.601,-287.81 390.601,-287.81"/>
</g>
<!-- 6&#45;&gt;1 -->
<g id="edge14" class="edge"><title>6&#45;&gt;1</title>
<path fill="none" stroke="black" d="M122.987,-249.76C162.866,-261.741 218.793,-278.542 258.471,-290.463"/>
<polygon fill="black" stroke="black" points="268.189,-293.383 257.317,-294.815 263.401,-291.944 258.612,-290.505 258.612,-290.505 258.612,-290.505 263.401,-291.944 259.907,-286.196 268.189,-293.383 268.189,-293.383"/>
</g>
<!-- 8 -->
<g id="node9" class="node"><title>8</title>
<polygon fill="none" stroke="black" points="3637.86,-108 3549.86,-108 3549.86,-72 3637.86,-72 3637.86,-108"/>
<text text-anchor="middle" x="3593.86" y="-86.3" font-family="Times,serif" font-size="14.00">Environment</text>
</g>
<!-- 10 -->
<g id="node11" class="node"><title>10</title>
<polygon fill="none" stroke="black" points="3564.86,-180 3420.86,-180 3420.86,-144 3564.86,-144 3564.86,-180"/>
<text text-anchor="middle" x="3492.86" y="-158.3" font-family="Times,serif" font-size="14.00">Environment.Evaluator</text>
</g>
<!-- 8&#45;&gt;10 -->
<g id="edge15" class="edge"><title>8&#45;&gt;10</title>
<path fill="none" stroke="black" d="M3569.15,-108.124C3556.19,-117.107 3540.13,-128.237 3526.09,-137.966"/>
<polygon fill="black" stroke="black" points="3517.66,-143.81 3523.32,-134.415 3521.77,-140.962 3525.88,-138.114 3525.88,-138.114 3525.88,-138.114 3521.77,-140.962 3528.44,-141.812 3517.66,-143.81 3517.66,-143.81"/>
</g>
<!-- 11 -->
<g id="node12" class="node"><title>11</title>
<polygon fill="none" stroke="black" points="3874.36,-180 3659.36,-180 3659.36,-144 3874.36,-144 3874.36,-180"/>
<text text-anchor="middle" x="3766.86" y="-158.3" font-family="Times,serif" font-size="14.00">Environment.EvaluatorMultiPlayers</text>
</g>
<!-- 8&#45;&gt;11 -->
<g id="edge16" class="edge"><title>8&#45;&gt;11</title>
<path fill="none" stroke="black" d="M3636.18,-108.124C3660.04,-117.778 3690.03,-129.913 3715.26,-140.122"/>
<polygon fill="black" stroke="black" points="3724.68,-143.932 3713.72,-144.352 3720.04,-142.056 3715.41,-140.181 3715.41,-140.181 3715.41,-140.181 3720.04,-142.056 3717.09,-136.009 3724.68,-143.932 3724.68,-143.932"/>
</g>
<!-- 12 -->
<g id="node13" class="node"><title>12</title>
<polygon fill="none" stroke="black" points="3738.36,-252 3615.36,-252 3615.36,-216 3738.36,-216 3738.36,-252"/>
<text text-anchor="middle" x="3676.86" y="-230.3" font-family="Times,serif" font-size="14.00">Environment.MAB</text>
</g>
<!-- 8&#45;&gt;12 -->
<g id="edge17" class="edge"><title>8&#45;&gt;12</title>
<path fill="none" stroke="black" d="M3603.87,-108.129C3618.27,-132.756 3644.92,-178.362 3661.73,-207.115"/>
<polygon fill="black" stroke="black" points="3666.81,-215.811 3657.88,-209.448 3664.29,-211.494 3661.77,-207.177 3661.77,-207.177 3661.77,-207.177 3664.29,-211.494 3665.65,-204.907 3666.81,-215.811 3666.81,-215.811"/>
</g>
<!-- 13 -->
<g id="node14" class="node"><title>13</title>
<polygon fill="none" stroke="black" points="3596.86,-252 3470.86,-252 3470.86,-216 3596.86,-216 3596.86,-252"/>
<text text-anchor="middle" x="3533.86" y="-230.3" font-family="Times,serif" font-size="14.00">Environment.Result</text>
</g>
<!-- 8&#45;&gt;13 -->
<g id="edge18" class="edge"><title>8&#45;&gt;13</title>
<path fill="none" stroke="black" d="M3592.2,-108.091C3589.91,-126.536 3584.77,-156.433 3573.86,-180 3569.35,-189.728 3562.84,-199.383 3556.38,-207.733"/>
<polygon fill="black" stroke="black" points="3550,-215.604 3552.8,-205 3553.15,-211.718 3556.3,-207.832 3556.3,-207.832 3556.3,-207.832 3553.15,-211.718 3559.79,-210.664 3550,-215.604 3550,-215.604"/>
</g>
<!-- 9 -->
<g id="node10" class="node"><title>9</title>
<polygon fill="none" stroke="black" points="4192.86,-252 4010.86,-252 4010.86,-216 4192.86,-216 4192.86,-252"/>
<text text-anchor="middle" x="4101.86" y="-230.3" font-family="Times,serif" font-size="14.00">Environment.CollisionModels</text>
</g>
<!-- 10&#45;&gt;12 -->
<g id="edge19" class="edge"><title>10&#45;&gt;12</title>
<path fill="none" stroke="black" d="M3537.87,-180.124C3563.36,-189.821 3595.43,-202.02 3622.33,-212.257"/>
<polygon fill="black" stroke="black" points="3631.99,-215.932 3621.05,-216.582 3627.32,-214.154 3622.65,-212.376 3622.65,-212.376 3622.65,-212.376 3627.32,-214.154 3624.25,-208.17 3631.99,-215.932 3631.99,-215.932"/>
</g>
<!-- 10&#45;&gt;13 -->
<g id="edge20" class="edge"><title>10&#45;&gt;13</title>
<path fill="none" stroke="black" d="M3502.99,-180.303C3507.71,-188.356 3513.42,-198.106 3518.64,-207.018"/>
<polygon fill="black" stroke="black" points="3523.84,-215.896 3514.9,-209.541 3521.31,-211.581 3518.79,-207.267 3518.79,-207.267 3518.79,-207.267 3521.31,-211.581 3522.67,-204.992 3523.84,-215.896 3523.84,-215.896"/>
</g>
<!-- 15 -->
<g id="node16" class="node"><title>15</title>
<polygon fill="none" stroke="black" points="3753.86,-324 3599.86,-324 3599.86,-288 3753.86,-288 3753.86,-324"/>
<text text-anchor="middle" x="3676.86" y="-302.3" font-family="Times,serif" font-size="14.00">Environment.plotsettings</text>
</g>
<!-- 10&#45;&gt;15 -->
<g id="edge21" class="edge"><title>10&#45;&gt;15</title>
<path fill="none" stroke="black" d="M3477.85,-180.338C3463.12,-199.545 3445.11,-230.619 3461.86,-252 3477.95,-272.541 3537.43,-286.2 3589.76,-294.501"/>
<polygon fill="black" stroke="black" points="3599.78,-296.039 3589.21,-298.968 3594.84,-295.28 3589.89,-294.521 3589.89,-294.521 3589.89,-294.521 3594.84,-295.28 3590.58,-290.073 3599.78,-296.039 3599.78,-296.039"/>
</g>
<!-- 11&#45;&gt;9 -->
<g id="edge22" class="edge"><title>11&#45;&gt;9</title>
<path fill="none" stroke="black" d="M3848.38,-180.034C3897.31,-190.259 3959.68,-203.29 4010.3,-213.869"/>
<polygon fill="black" stroke="black" points="4020.26,-215.95 4009.55,-218.309 4015.37,-214.927 4010.47,-213.904 4010.47,-213.904 4010.47,-213.904 4015.37,-214.927 4011.39,-209.5 4020.26,-215.95 4020.26,-215.95"/>
</g>
<!-- 11&#45;&gt;12 -->
<g id="edge23" class="edge"><title>11&#45;&gt;12</title>
<path fill="none" stroke="black" d="M3744.61,-180.303C3733.28,-189.119 3719.33,-199.968 3707.04,-209.526"/>
<polygon fill="black" stroke="black" points="3698.85,-215.896 3703.98,-206.204 3702.8,-212.826 3706.74,-209.756 3706.74,-209.756 3706.74,-209.756 3702.8,-212.826 3709.51,-213.308 3698.85,-215.896 3698.85,-215.896"/>
</g>
<!-- 14 -->
<g id="node15" class="node"><title>14</title>
<polygon fill="none" stroke="black" points="3992.36,-252 3795.36,-252 3795.36,-216 3992.36,-216 3992.36,-252"/>
<text text-anchor="middle" x="3893.86" y="-230.3" font-family="Times,serif" font-size="14.00">Environment.ResultMultiPlayers</text>
</g>
<!-- 11&#45;&gt;14 -->
<g id="edge24" class="edge"><title>11&#45;&gt;14</title>
<path fill="none" stroke="black" d="M3797.93,-180.124C3814.69,-189.361 3835.56,-200.869 3853.56,-210.788"/>
<polygon fill="black" stroke="black" points="3862.67,-215.81 3851.74,-214.924 3858.29,-213.397 3853.91,-210.983 3853.91,-210.983 3853.91,-210.983 3858.29,-213.397 3856.09,-207.042 3862.67,-215.81 3862.67,-215.81"/>
</g>
<!-- 11&#45;&gt;15 -->
<g id="edge25" class="edge"><title>11&#45;&gt;15</title>
<path fill="none" stroke="black" d="M3766.71,-180.078C3765.8,-199.052 3762.01,-229.918 3747.86,-252 3740.32,-263.765 3729.19,-273.854 3717.97,-281.975"/>
<polygon fill="black" stroke="black" points="3709.43,-287.797 3715.15,-278.446 3713.56,-284.981 3717.69,-282.165 3717.69,-282.165 3717.69,-282.165 3713.56,-284.981 3720.22,-285.883 3709.43,-287.797 3709.43,-287.797"/>
</g>
<!-- 12&#45;&gt;15 -->
<g id="edge26" class="edge"><title>12&#45;&gt;15</title>
<path fill="none" stroke="black" d="M3676.86,-252.303C3676.86,-260.017 3676.86,-269.288 3676.86,-277.888"/>
<polygon fill="black" stroke="black" points="3676.86,-287.896 3672.36,-277.896 3676.86,-282.896 3676.86,-277.896 3676.86,-277.896 3676.86,-277.896 3676.86,-282.896 3681.36,-277.896 3676.86,-287.896 3676.86,-287.896"/>
</g>
<!-- 16 -->
<g id="node17" class="node"><title>16</title>
<polygon fill="none" stroke="black" points="1801.36,-180 1742.36,-180 1742.36,-144 1801.36,-144 1801.36,-180"/>
<text text-anchor="middle" x="1771.86" y="-158.3" font-family="Times,serif" font-size="14.00">Policies</text>
</g>
<!-- 17 -->
<g id="node18" class="node"><title>17</title>
<polygon fill="none" stroke="black" points="2892.36,-324 2771.36,-324 2771.36,-288 2892.36,-288 2892.36,-324"/>
<text text-anchor="middle" x="2831.86" y="-302.3" font-family="Times,serif" font-size="14.00">Policies.AdBandits</text>
</g>
<!-- 16&#45;&gt;17 -->
<g id="edge27" class="edge"><title>16&#45;&gt;17</title>
<path fill="none" stroke="black" d="M1801.42,-162.697C1929.23,-161.724 2434.49,-161.468 2581.86,-216 2606.87,-225.255 2605.85,-240.4 2629.86,-252 2641.98,-257.856 2708.01,-274.753 2761.33,-287.911"/>
<polygon fill="black" stroke="black" points="2771.13,-290.321 2760.34,-292.301 2766.27,-289.126 2761.42,-287.931 2761.42,-287.931 2761.42,-287.931 2766.27,-289.126 2762.49,-283.561 2771.13,-290.321 2771.13,-290.321"/>
</g>
<!-- 18 -->
<g id="node19" class="node"><title>18</title>
<polygon fill="none" stroke="black" points="2163.36,-468 2072.36,-468 2072.36,-432 2163.36,-432 2163.36,-468"/>
<text text-anchor="middle" x="2117.86" y="-446.3" font-family="Times,serif" font-size="14.00">Policies.Aggr</text>
</g>
<!-- 16&#45;&gt;18 -->
<g id="edge28" class="edge"><title>16&#45;&gt;18</title>
<path fill="none" stroke="black" d="M1801.6,-163.727C1935.7,-167.179 2480.55,-183.133 2548.86,-216 2568.42,-225.411 2563.23,-240.867 2581.86,-252 2637.75,-285.394 2683.88,-236.615 2723.86,-288 2794.42,-378.688 2336.48,-429.293 2173.72,-444.251"/>
<polygon fill="black" stroke="black" points="2163.44,-445.185 2172.99,-439.799 2168.42,-444.733 2173.4,-444.281 2173.4,-444.281 2173.4,-444.281 2168.42,-444.733 2173.8,-448.762 2163.44,-445.185 2163.44,-445.185"/>
</g>
<!-- 20 -->
<g id="node21" class="node"><title>20</title>
<polygon fill="none" stroke="black" points="2539.86,-252 2415.86,-252 2415.86,-216 2539.86,-216 2539.86,-252"/>
<text text-anchor="middle" x="2477.86" y="-230.3" font-family="Times,serif" font-size="14.00">Policies.BayesUCB</text>
</g>
<!-- 16&#45;&gt;20 -->
<g id="edge29" class="edge"><title>16&#45;&gt;20</title>
<path fill="none" stroke="black" d="M1801.49,-163.876C1891.16,-166.863 2167.59,-178.541 2405.41,-215.909"/>
<polygon fill="black" stroke="black" points="2415.63,-217.535 2405.05,-220.408 2410.69,-216.75 2405.75,-215.964 2405.75,-215.964 2405.75,-215.964 2410.69,-216.75 2406.46,-211.52 2415.63,-217.535 2415.63,-217.535"/>
</g>
<!-- 23 -->
<g id="node24" class="node"><title>23</title>
<polygon fill="none" stroke="black" points="2837.36,-252 2672.36,-252 2672.36,-216 2837.36,-216 2837.36,-252"/>
<text text-anchor="middle" x="2754.86" y="-230.3" font-family="Times,serif" font-size="14.00">Policies.EpsilonDecreasing</text>
</g>
<!-- 16&#45;&gt;23 -->
<g id="edge30" class="edge"><title>16&#45;&gt;23</title>
<path fill="none" stroke="black" d="M1801.41,-163.549C1913.51,-165.887 2323.07,-176.778 2657.86,-216 2659.17,-216.154 2660.49,-216.314 2661.82,-216.48"/>
<polygon fill="black" stroke="black" points="2672.14,-217.854 2661.63,-220.994 2667.18,-217.193 2662.22,-216.533 2662.22,-216.533 2662.22,-216.533 2667.18,-217.193 2662.82,-212.072 2672.14,-217.854 2672.14,-217.854"/>
</g>
<!-- 24 -->
<g id="node25" class="node"><title>24</title>
<polygon fill="none" stroke="black" points="3061.86,-252 2855.86,-252 2855.86,-216 3061.86,-216 3061.86,-252"/>
<text text-anchor="middle" x="2958.86" y="-230.3" font-family="Times,serif" font-size="14.00">Policies.EpsilonDecreasingMEGA</text>
</g>
<!-- 16&#45;&gt;24 -->
<g id="edge31" class="edge"><title>16&#45;&gt;24</title>
<path fill="none" stroke="black" d="M1801.41,-163.376C1926.5,-165.191 2424.87,-174.706 2845.53,-216.041"/>
<polygon fill="black" stroke="black" points="2855.76,-217.055 2845.36,-220.547 2850.78,-216.562 2845.81,-216.069 2845.81,-216.069 2845.81,-216.069 2850.78,-216.562 2846.25,-211.591 2855.76,-217.055 2855.76,-217.055"/>
</g>
<!-- 25 -->
<g id="node26" class="node"><title>25</title>
<polygon fill="none" stroke="black" points="3267.36,-252 3080.36,-252 3080.36,-216 3267.36,-216 3267.36,-252"/>
<text text-anchor="middle" x="3173.86" y="-230.3" font-family="Times,serif" font-size="14.00">Policies.EpsilonExpDecreasing</text>
</g>
<!-- 16&#45;&gt;25 -->
<g id="edge32" class="edge"><title>16&#45;&gt;25</title>
<path fill="none" stroke="black" d="M1801.69,-162.866C1942.74,-162.512 2556.93,-164.122 3069.98,-215.997"/>
<polygon fill="black" stroke="black" points="3080.18,-217.037 3069.77,-220.5 3075.2,-216.53 3070.23,-216.023 3070.23,-216.023 3070.23,-216.023 3075.2,-216.53 3070.68,-211.546 3080.18,-217.037 3080.18,-217.037"/>
</g>
<!-- 26 -->
<g id="node27" class="node"><title>26</title>
<polygon fill="none" stroke="black" points="3414.36,-252 3285.36,-252 3285.36,-216 3414.36,-216 3414.36,-252"/>
<text text-anchor="middle" x="3349.86" y="-230.3" font-family="Times,serif" font-size="14.00">Policies.EpsilonFirst</text>
</g>
<!-- 16&#45;&gt;26 -->
<g id="edge33" class="edge"><title>16&#45;&gt;26</title>
<path fill="none" stroke="black" d="M1801.48,-163.704C1995.47,-168.357 3082.19,-195.114 3274.82,-216.149"/>
<polygon fill="black" stroke="black" points="3285.01,-217.368 3274.55,-220.649 3280.05,-216.774 3275.08,-216.181 3275.08,-216.181 3275.08,-216.181 3280.05,-216.774 3275.62,-211.713 3285.01,-217.368 3285.01,-217.368"/>
</g>
<!-- 27 -->
<g id="node28" class="node"><title>27</title>
<polygon fill="none" stroke="black" points="3054.86,-324 2910.86,-324 2910.86,-288 3054.86,-288 3054.86,-324"/>
<text text-anchor="middle" x="2982.86" y="-302.3" font-family="Times,serif" font-size="14.00">Policies.EpsilonGreedy</text>
</g>
<!-- 16&#45;&gt;27 -->
<g id="edge34" class="edge"><title>16&#45;&gt;27</title>
<path fill="none" stroke="black" d="M1801.81,-163.765C1943.48,-167.532 2542.62,-185.176 2619.86,-216 2643.01,-225.239 2640.14,-241.756 2662.86,-252 2757.53,-294.683 2793.44,-270.646 2900.57,-288.075"/>
<polygon fill="black" stroke="black" points="2910.46,-289.769 2899.85,-292.517 2905.53,-288.925 2900.61,-288.081 2900.61,-288.081 2900.61,-288.081 2905.53,-288.925 2901.37,-283.646 2910.46,-289.769 2910.46,-289.769"/>
</g>
<!-- 28 -->
<g id="node29" class="node"><title>28</title>
<polygon fill="none" stroke="black" points="642.859,-396 550.859,-396 550.859,-360 642.859,-360 642.859,-396"/>
<text text-anchor="middle" x="596.859" y="-374.3" font-family="Times,serif" font-size="14.00">Policies.Exp3</text>
</g>
<!-- 16&#45;&gt;28 -->
<g id="edge35" class="edge"><title>16&#45;&gt;28</title>
<path fill="none" stroke="black" d="M1742.3,-163.506C1570.37,-166.562 705.093,-183.521 659.859,-216 616.587,-247.07 603.034,-312.443 598.791,-349.622"/>
<polygon fill="black" stroke="black" points="597.787,-359.747 594.295,-349.352 598.28,-354.772 598.774,-349.796 598.774,-349.796 598.774,-349.796 598.28,-354.772 603.252,-350.24 597.787,-359.747 597.787,-359.747"/>
</g>
<!-- 31 -->
<g id="node32" class="node"><title>31</title>
<polygon fill="none" stroke="black" points="727.859,-468 623.859,-468 623.859,-432 727.859,-432 727.859,-468"/>
<text text-anchor="middle" x="675.859" y="-446.3" font-family="Times,serif" font-size="14.00">Policies.MEGA</text>
</g>
<!-- 16&#45;&gt;31 -->
<g id="edge36" class="edge"><title>16&#45;&gt;31</title>
<path fill="none" stroke="black" d="M1742.1,-163.603C1578.26,-167.04 792.197,-185.098 751.859,-216 687.035,-265.659 676.692,-371.812 675.575,-421.845"/>
<polygon fill="black" stroke="black" points="675.461,-431.907 671.075,-421.857 675.518,-426.908 675.575,-421.908 675.575,-421.908 675.575,-421.908 675.518,-426.908 680.074,-421.959 675.461,-431.907 675.461,-431.907"/>
</g>
<!-- 32 -->
<g id="node33" class="node"><title>32</title>
<polygon fill="none" stroke="black" points="1207.36,-396 1106.36,-396 1106.36,-360 1207.36,-360 1207.36,-396"/>
<text text-anchor="middle" x="1156.86" y="-374.3" font-family="Times,serif" font-size="14.00">Policies.MOSS</text>
</g>
<!-- 16&#45;&gt;32 -->
<g id="edge37" class="edge"><title>16&#45;&gt;32</title>
<path fill="none" stroke="black" d="M1742.33,-163.479C1647.35,-165.422 1350.88,-174.728 1265.86,-216 1265.78,-216.038 1195.91,-287.928 1195.86,-288 1182.83,-307.369 1172.49,-331.802 1165.74,-350.166"/>
<polygon fill="black" stroke="black" points="1162.37,-359.673 1161.47,-348.743 1164.04,-354.961 1165.71,-350.249 1165.71,-350.249 1165.71,-350.249 1164.04,-354.961 1169.95,-351.754 1162.37,-359.673 1162.37,-359.673"/>
</g>
<!-- 33 -->
<g id="node34" class="node"><title>33</title>
<polygon fill="none" stroke="black" points="883.359,-468 746.359,-468 746.359,-432 883.359,-432 883.359,-468"/>
<text text-anchor="middle" x="814.859" y="-446.3" font-family="Times,serif" font-size="14.00">Policies.MusicalChair</text>
</g>
<!-- 16&#45;&gt;33 -->
<g id="edge38" class="edge"><title>16&#45;&gt;33</title>
<path fill="none" stroke="black" d="M1742.33,-163.439C1580.69,-165.98 809.018,-179.977 774.859,-216 720.715,-273.098 770.102,-375.353 798.318,-423.106"/>
<polygon fill="black" stroke="black" points="803.642,-431.9 794.613,-425.676 801.052,-427.622 798.463,-423.345 798.463,-423.345 798.463,-423.345 801.052,-427.622 802.312,-421.015 803.642,-431.9 803.642,-431.9"/>
</g>
<!-- 35 -->
<g id="node36" class="node"><title>35</title>
<polygon fill="none" stroke="black" points="1011.86,-468 901.859,-468 901.859,-432 1011.86,-432 1011.86,-468"/>
<text text-anchor="middle" x="956.859" y="-446.3" font-family="Times,serif" font-size="14.00">Policies.Softmax</text>
</g>
<!-- 16&#45;&gt;35 -->
<g id="edge39" class="edge"><title>16&#45;&gt;35</title>
<path fill="none" stroke="black" d="M1742.17,-163.476C1582.24,-166.183 829.226,-180.772 795.859,-216 730.493,-285.011 855.662,-382.665 920.875,-426.348"/>
<polygon fill="black" stroke="black" points="929.273,-431.897 918.449,-430.138 925.101,-429.141 920.93,-426.384 920.93,-426.384 920.93,-426.384 925.101,-429.141 923.411,-422.63 929.273,-431.897 929.273,-431.897"/>
</g>
<!-- 36 -->
<g id="node37" class="node"><title>36</title>
<polygon fill="none" stroke="black" points="985.859,-324 839.859,-324 839.859,-288 985.859,-288 985.859,-324"/>
<text text-anchor="middle" x="912.859" y="-302.3" font-family="Times,serif" font-size="14.00">Policies.TakeFixedArm</text>
</g>
<!-- 16&#45;&gt;36 -->
<g id="edge40" class="edge"><title>16&#45;&gt;36</title>
<path fill="none" stroke="black" d="M1742.21,-164.072C1581.69,-169.943 823.358,-198.569 806.859,-216 795.86,-227.62 798.447,-238.39 806.859,-252 815.199,-265.496 828.133,-275.67 842.135,-283.299"/>
<polygon fill="black" stroke="black" points="851.453,-287.954 840.496,-287.511 846.98,-285.72 842.508,-283.485 842.508,-283.485 842.508,-283.485 846.98,-285.72 844.519,-279.46 851.453,-287.954 851.453,-287.954"/>
</g>
<!-- 37 -->
<g id="node38" class="node"><title>37</title>
<polygon fill="none" stroke="black" points="1009.36,-252 816.359,-252 816.359,-216 1009.36,-216 1009.36,-252"/>
<text text-anchor="middle" x="912.859" y="-230.3" font-family="Times,serif" font-size="14.00">Policies.TakeRandomFixedArm</text>
</g>
<!-- 16&#45;&gt;37 -->
<g id="edge41" class="edge"><title>16&#45;&gt;37</title>
<path fill="none" stroke="black" d="M1742.35,-164.134C1642.41,-168.173 1307.4,-183.332 1019.78,-215.958"/>
<polygon fill="black" stroke="black" points="1009.57,-217.126 1019,-211.519 1014.54,-216.558 1019.51,-215.99 1019.51,-215.99 1019.51,-215.99 1014.54,-216.558 1020.02,-220.461 1009.57,-217.126 1009.57,-217.126"/>
</g>
<!-- 38 -->
<g id="node39" class="node"><title>38</title>
<polygon fill="none" stroke="black" points="2397.86,-252 2275.86,-252 2275.86,-216 2397.86,-216 2397.86,-252"/>
<text text-anchor="middle" x="2336.86" y="-230.3" font-family="Times,serif" font-size="14.00">Policies.Thompson</text>
</g>
<!-- 16&#45;&gt;38 -->
<g id="edge42" class="edge"><title>16&#45;&gt;38</title>
<path fill="none" stroke="black" d="M1801.57,-165.015C1878.2,-170.471 2088.63,-187.098 2261.86,-216 2263.12,-216.21 2264.39,-216.428 2265.67,-216.653"/>
<polygon fill="black" stroke="black" points="2275.58,-218.505 2264.92,-221.092 2270.66,-217.587 2265.75,-216.669 2265.75,-216.669 2265.75,-216.669 2270.66,-217.587 2266.57,-212.245 2275.58,-218.505 2275.58,-218.505"/>
</g>
<!-- 39 -->
<g id="node40" class="node"><title>39</title>
<polygon fill="none" stroke="black" points="2170.36,-396 2079.36,-396 2079.36,-360 2170.36,-360 2170.36,-396"/>
<text text-anchor="middle" x="2124.86" y="-374.3" font-family="Times,serif" font-size="14.00">Policies.UCB</text>
</g>
<!-- 16&#45;&gt;39 -->
<g id="edge43" class="edge"><title>16&#45;&gt;39</title>
<path fill="none" stroke="black" d="M1801.64,-164.689C1888.24,-169.894 2138.63,-187.105 2214.86,-216 2241.14,-225.963 2240.78,-241.501 2266.86,-252 2359.99,-289.499 2424.77,-211.563 2489.86,-288 2500.23,-300.182 2500.51,-312.061 2489.86,-324 2444.97,-374.313 2260.45,-347.166 2180.62,-359.173"/>
<polygon fill="black" stroke="black" points="2170.52,-361.038 2179.54,-354.797 2175.44,-360.13 2180.36,-359.222 2180.36,-359.222 2180.36,-359.222 2175.44,-360.13 2181.17,-363.647 2170.52,-361.038 2170.52,-361.038"/>
</g>
<!-- 40 -->
<g id="node41" class="node"><title>40</title>
<polygon fill="none" stroke="black" points="2052.36,-324 1951.36,-324 1951.36,-288 2052.36,-288 2052.36,-324"/>
<text text-anchor="middle" x="2001.86" y="-302.3" font-family="Times,serif" font-size="14.00">Policies.UCBV</text>
</g>
<!-- 16&#45;&gt;40 -->
<g id="edge44" class="edge"><title>16&#45;&gt;40</title>
<path fill="none" stroke="black" d="M1801.57,-163.537C1871.05,-165.484 2040.95,-174.481 2075.86,-216 2086.16,-228.247 2083.17,-237.769 2075.86,-252 2069.59,-264.209 2059.05,-274.234 2047.87,-282.152"/>
<polygon fill="black" stroke="black" points="2039.25,-287.798 2045.15,-278.554 2043.43,-285.058 2047.61,-282.318 2047.61,-282.318 2047.61,-282.318 2043.43,-285.058 2050.08,-286.082 2039.25,-287.798 2039.25,-287.798"/>
</g>
<!-- 41 -->
<g id="node42" class="node"><title>41</title>
<polygon fill="none" stroke="black" points="2067.36,-252 1936.36,-252 1936.36,-216 2067.36,-216 2067.36,-252"/>
<text text-anchor="middle" x="2001.86" y="-230.3" font-family="Times,serif" font-size="14.00">Policies.UCBVtuned</text>
</g>
<!-- 16&#45;&gt;41 -->
<g id="edge45" class="edge"><title>16&#45;&gt;41</title>
<path fill="none" stroke="black" d="M1801.46,-172.008C1835.37,-182.328 1891.97,-199.556 1936.39,-213.075"/>
<polygon fill="black" stroke="black" points="1945.96,-215.987 1935.08,-217.38 1941.17,-214.531 1936.39,-213.075 1936.39,-213.075 1936.39,-213.075 1941.17,-214.531 1937.7,-208.77 1945.96,-215.987 1945.96,-215.987"/>
</g>
<!-- 42 -->
<g id="node43" class="node"><title>42</title>
<polygon fill="none" stroke="black" points="1932.86,-324 1812.86,-324 1812.86,-288 1932.86,-288 1932.86,-324"/>
<text text-anchor="middle" x="1872.86" y="-302.3" font-family="Times,serif" font-size="14.00">Policies.UCBalpha</text>
</g>
<!-- 16&#45;&gt;42 -->
<g id="edge46" class="edge"><title>16&#45;&gt;42</title>
<path fill="none" stroke="black" d="M1801.53,-167.415C1829.19,-173.278 1868.95,-186.568 1887.86,-216 1899.83,-234.635 1894.01,-259.827 1886.39,-278.652"/>
<polygon fill="black" stroke="black" points="1882.33,-287.848 1882.25,-276.883 1884.35,-283.275 1886.37,-278.701 1886.37,-278.701 1886.37,-278.701 1884.35,-283.275 1890.49,-280.519 1882.33,-287.848 1882.33,-287.848"/>
</g>
<!-- 43 -->
<g id="node44" class="node"><title>43</title>
<polygon fill="none" stroke="black" points="1485.86,-324 1363.86,-324 1363.86,-288 1485.86,-288 1485.86,-324"/>
<text text-anchor="middle" x="1424.86" y="-302.3" font-family="Times,serif" font-size="14.00">Policies.UCBlog10</text>
</g>
<!-- 16&#45;&gt;43 -->
<g id="edge47" class="edge"><title>16&#45;&gt;43</title>
<path fill="none" stroke="black" d="M1742.23,-162.303C1659.91,-161.066 1431.45,-162.598 1384.86,-216 1368.51,-234.737 1384.06,-261.245 1400.3,-280.454"/>
<polygon fill="black" stroke="black" points="1406.97,-287.938 1396.96,-283.468 1403.65,-284.206 1400.32,-280.473 1400.32,-280.473 1400.32,-280.473 1403.65,-284.206 1403.68,-277.479 1406.97,-287.938 1406.97,-287.938"/>
</g>
<!-- 44 -->
<g id="node45" class="node"><title>44</title>
<polygon fill="none" stroke="black" points="1545.36,-252 1394.36,-252 1394.36,-216 1545.36,-216 1545.36,-252"/>
<text text-anchor="middle" x="1469.86" y="-230.3" font-family="Times,serif" font-size="14.00">Policies.UCBlog10alpha</text>
</g>
<!-- 16&#45;&gt;44 -->
<g id="edge48" class="edge"><title>16&#45;&gt;44</title>
<path fill="none" stroke="black" d="M1742.35,-169.839C1698.96,-179.897 1616.27,-199.063 1553.32,-213.655"/>
<polygon fill="black" stroke="black" points="1543.39,-215.956 1552.12,-209.314 1548.26,-214.827 1553.13,-213.698 1553.13,-213.698 1553.13,-213.698 1548.26,-214.827 1554.15,-218.081 1543.39,-215.956 1543.39,-215.956"/>
</g>
<!-- 45 -->
<g id="node46" class="node"><title>45</title>
<polygon fill="none" stroke="black" points="2178.86,-324 2070.86,-324 2070.86,-288 2178.86,-288 2178.86,-324"/>
<text text-anchor="middle" x="2124.86" y="-302.3" font-family="Times,serif" font-size="14.00">Policies.UCBopt</text>
</g>
<!-- 16&#45;&gt;45 -->
<g id="edge49" class="edge"><title>16&#45;&gt;45</title>
<path fill="none" stroke="black" d="M1801.37,-164.091C1872.29,-167.289 2049.75,-178.891 2093.86,-216 2111.9,-231.178 2119.45,-257.469 2122.61,-277.552"/>
<polygon fill="black" stroke="black" points="2123.92,-287.679 2118.17,-278.339 2123.28,-282.72 2122.64,-277.761 2122.64,-277.761 2122.64,-277.761 2123.28,-282.72 2127.1,-277.184 2123.92,-287.679 2123.92,-287.679"/>
</g>
<!-- 46 -->
<g id="node47" class="node"><title>46</title>
<polygon fill="none" stroke="black" points="2310.36,-324 2197.36,-324 2197.36,-288 2310.36,-288 2310.36,-324"/>
<text text-anchor="middle" x="2253.86" y="-302.3" font-family="Times,serif" font-size="14.00">Policies.UCBplus</text>
</g>
<!-- 16&#45;&gt;46 -->
<g id="edge50" class="edge"><title>16&#45;&gt;46</title>
<path fill="none" stroke="black" d="M1801.36,-163.244C1862.75,-164.655 2007.84,-172.719 2119.86,-216 2160.06,-231.531 2200.48,-260.673 2226.25,-281.376"/>
<polygon fill="black" stroke="black" points="2234.08,-287.773 2223.49,-284.933 2230.21,-284.61 2226.34,-281.448 2226.34,-281.448 2226.34,-281.448 2230.21,-284.61 2229.18,-277.962 2234.08,-287.773 2234.08,-287.773"/>
</g>
<!-- 47 -->
<g id="node48" class="node"><title>47</title>
<polygon fill="none" stroke="black" points="2480.86,-324 2328.86,-324 2328.86,-288 2480.86,-288 2480.86,-324"/>
<text text-anchor="middle" x="2404.86" y="-302.3" font-family="Times,serif" font-size="14.00">Policies.UCBrandomInit</text>
</g>
<!-- 16&#45;&gt;47 -->
<g id="edge51" class="edge"><title>16&#45;&gt;47</title>
<path fill="none" stroke="black" d="M1801.39,-163.378C1868.17,-164.997 2035.21,-173.362 2166.86,-216 2199.02,-226.416 2202.68,-238.936 2233.86,-252 2264.64,-264.898 2299.68,-276.301 2330,-285.193"/>
<polygon fill="black" stroke="black" points="2339.66,-287.991 2328.81,-289.533 2334.86,-286.601 2330.06,-285.21 2330.06,-285.21 2330.06,-285.21 2334.86,-286.601 2331.31,-280.888 2339.66,-287.991 2339.66,-287.991"/>
</g>
<!-- 48 -->
<g id="node49" class="node"><title>48</title>
<polygon fill="none" stroke="black" points="1351.36,-396 1226.36,-396 1226.36,-360 1351.36,-360 1351.36,-396"/>
<text text-anchor="middle" x="1288.86" y="-374.3" font-family="Times,serif" font-size="14.00">Policies.UCBwrong</text>
</g>
<!-- 16&#45;&gt;48 -->
<g id="edge52" class="edge"><title>16&#45;&gt;48</title>
<path fill="none" stroke="black" d="M1742.35,-164.774C1655.32,-170.275 1400.92,-188.352 1322.86,-216 1294.61,-226.004 1291.43,-236.384 1265.86,-252 1238.99,-268.407 1220.47,-260.662 1204.86,-288 1196.92,-301.894 1197.13,-309.989 1204.86,-324 1211.96,-336.882 1223.66,-347.064 1236.1,-354.915"/>
<polygon fill="black" stroke="black" points="1244.79,-359.983 1233.88,-358.829 1240.47,-357.463 1236.15,-354.943 1236.15,-354.943 1236.15,-354.943 1240.47,-357.463 1238.42,-351.056 1244.79,-359.983 1244.79,-359.983"/>
</g>
<!-- 49 -->
<g id="node50" class="node"><title>49</title>
<polygon fill="none" stroke="black" points="1119.86,-324 1009.86,-324 1009.86,-288 1119.86,-288 1119.86,-324"/>
<text text-anchor="middle" x="1064.86" y="-302.3" font-family="Times,serif" font-size="14.00">Policies.Uniform</text>
</g>
<!-- 16&#45;&gt;49 -->
<g id="edge53" class="edge"><title>16&#45;&gt;49</title>
<path fill="none" stroke="black" d="M1742.26,-163.656C1644.08,-166.185 1330.18,-177.186 1237.86,-216 1214.88,-225.66 1216.21,-239.141 1194.86,-252 1173.58,-264.818 1148.63,-275.831 1126.31,-284.445"/>
<polygon fill="black" stroke="black" points="1116.93,-287.988 1124.69,-280.246 1121.6,-286.222 1126.28,-284.456 1126.28,-284.456 1126.28,-284.456 1121.6,-286.222 1127.87,-288.666 1116.93,-287.988 1116.93,-287.988"/>
</g>
<!-- 50 -->
<g id="node51" class="node"><title>50</title>
<polygon fill="none" stroke="black" points="1185.86,-252 1027.86,-252 1027.86,-216 1185.86,-216 1185.86,-252"/>
<text text-anchor="middle" x="1106.86" y="-230.3" font-family="Times,serif" font-size="14.00">Policies.UniformOnSome</text>
</g>
<!-- 16&#45;&gt;50 -->
<g id="edge54" class="edge"><title>16&#45;&gt;50</title>
<path fill="none" stroke="black" d="M1742.28,-164.814C1657.53,-170.211 1406.6,-187.583 1199.86,-216 1198.58,-216.176 1197.29,-216.357 1195.99,-216.543"/>
<polygon fill="black" stroke="black" points="1185.93,-218.055 1195.15,-212.119 1190.87,-217.312 1195.82,-216.569 1195.82,-216.569 1195.82,-216.569 1190.87,-217.312 1196.49,-221.019 1185.93,-218.055 1185.93,-218.055"/>
</g>
<!-- 51 -->
<g id="node52" class="node"><title>51</title>
<polygon fill="none" stroke="black" points="1643.36,-324 1542.36,-324 1542.36,-288 1643.36,-288 1643.36,-324"/>
<text text-anchor="middle" x="1592.86" y="-302.3" font-family="Times,serif" font-size="14.00">Policies.klUCB</text>
</g>
<!-- 16&#45;&gt;51 -->
<g id="edge55" class="edge"><title>16&#45;&gt;51</title>
<path fill="none" stroke="black" d="M1762.9,-180.088C1751.93,-199.645 1731.7,-231.599 1706.86,-252 1690.91,-265.095 1671.2,-275.745 1652.68,-283.971"/>
<polygon fill="black" stroke="black" points="1643.41,-287.933 1650.84,-279.863 1648.01,-285.967 1652.61,-284.001 1652.61,-284.001 1652.61,-284.001 1648.01,-285.967 1654.38,-288.138 1643.41,-287.933 1643.41,-287.933"/>
</g>
<!-- 52 -->
<g id="node53" class="node"><title>52</title>
<polygon fill="none" stroke="black" points="1697.86,-252 1563.86,-252 1563.86,-216 1697.86,-216 1697.86,-252"/>
<text text-anchor="middle" x="1630.86" y="-230.3" font-family="Times,serif" font-size="14.00">Policies.klUCBHPlus</text>
</g>
<!-- 16&#45;&gt;52 -->
<g id="edge56" class="edge"><title>16&#45;&gt;52</title>
<path fill="none" stroke="black" d="M1742.3,-177.674C1722.66,-187.426 1696.52,-200.4 1674.5,-211.333"/>
<polygon fill="black" stroke="black" points="1665.35,-215.878 1672.3,-207.401 1669.83,-213.655 1674.3,-211.431 1674.3,-211.431 1674.3,-211.431 1669.83,-213.655 1676.3,-215.462 1665.35,-215.878 1665.35,-215.878"/>
</g>
<!-- 53 -->
<g id="node54" class="node"><title>53</title>
<polygon fill="none" stroke="black" points="1879.36,-252 1754.36,-252 1754.36,-216 1879.36,-216 1879.36,-252"/>
<text text-anchor="middle" x="1816.86" y="-230.3" font-family="Times,serif" font-size="14.00">Policies.klUCBPlus</text>
</g>
<!-- 16&#45;&gt;53 -->
<g id="edge57" class="edge"><title>16&#45;&gt;53</title>
<path fill="none" stroke="black" d="M1782.98,-180.303C1788.21,-188.441 1794.56,-198.311 1800.34,-207.299"/>
<polygon fill="black" stroke="black" points="1805.86,-215.896 1796.67,-209.917 1803.16,-211.69 1800.46,-207.484 1800.46,-207.484 1800.46,-207.484 1803.16,-211.69 1804.24,-205.05 1805.86,-215.896 1805.86,-215.896"/>
</g>
<!-- 54 -->
<g id="node55" class="node"><title>54</title>
<polygon fill="none" stroke="black" points="1345.86,-324 1213.86,-324 1213.86,-288 1345.86,-288 1345.86,-324"/>
<text text-anchor="middle" x="1279.86" y="-302.3" font-family="Times,serif" font-size="14.00">Policies.klUCBlog10</text>
</g>
<!-- 16&#45;&gt;54 -->
<g id="edge58" class="edge"><title>16&#45;&gt;54</title>
<path fill="none" stroke="black" d="M1742.11,-164.623C1661.44,-169.393 1440.2,-185.017 1374.86,-216 1343.85,-230.703 1316.2,-259.275 1298.84,-280.092"/>
<polygon fill="black" stroke="black" points="1292.49,-287.921 1295.29,-277.321 1295.64,-284.039 1298.79,-280.157 1298.79,-280.157 1298.79,-280.157 1295.64,-284.039 1302.28,-282.993 1292.49,-287.921 1292.49,-287.921"/>
</g>
<!-- 19 -->
<g id="node20" class="node"><title>19</title>
<polygon fill="none" stroke="black" points="1120.86,-540 996.859,-540 996.859,-504 1120.86,-504 1120.86,-540"/>
<text text-anchor="middle" x="1058.86" y="-518.3" font-family="Times,serif" font-size="14.00">Policies.BasePolicy</text>
</g>
<!-- 17&#45;&gt;19 -->
<g id="edge59" class="edge"><title>17&#45;&gt;19</title>
<path fill="none" stroke="black" d="M2847.47,-324.226C2855.23,-333.97 2863.8,-346.816 2867.86,-360 2881.97,-405.88 2901.3,-433.565 2867.86,-468 2837.09,-499.686 1463.97,-516.606 1131.02,-520.247"/>
<polygon fill="black" stroke="black" points="1121,-520.356 1130.96,-515.747 1126,-520.302 1131,-520.247 1131,-520.247 1131,-520.247 1126,-520.302 1131.05,-524.747 1121,-520.356 1121,-520.356"/>
</g>
<!-- 22 -->
<g id="node23" class="node"><title>22</title>
<polygon fill="none" stroke="black" points="2858.86,-396 2770.86,-396 2770.86,-360 2858.86,-360 2858.86,-396"/>
<text text-anchor="middle" x="2814.86" y="-374.3" font-family="Times,serif" font-size="14.00">Policies.Beta</text>
</g>
<!-- 17&#45;&gt;22 -->
<g id="edge60" class="edge"><title>17&#45;&gt;22</title>
<path fill="none" stroke="black" d="M2827.66,-324.303C2825.76,-332.102 2823.48,-341.491 2821.37,-350.171"/>
<polygon fill="black" stroke="black" points="2819.01,-359.896 2817,-349.116 2820.19,-355.037 2821.37,-350.178 2821.37,-350.178 2821.37,-350.178 2820.19,-355.037 2825.75,-351.24 2819.01,-359.896 2819.01,-359.896"/>
</g>
<!-- 18&#45;&gt;19 -->
<g id="edge61" class="edge"><title>18&#45;&gt;19</title>
<path fill="none" stroke="black" d="M2072.35,-454.008C1906.68,-464.959 1334.78,-502.761 1131.37,-516.207"/>
<polygon fill="black" stroke="black" points="1121.1,-516.886 1130.78,-511.736 1126.09,-516.556 1131.08,-516.226 1131.08,-516.226 1131.08,-516.226 1126.09,-516.556 1131.38,-520.716 1121.1,-516.886 1121.1,-516.886"/>
</g>
<!-- 21 -->
<g id="node22" class="node"><title>21</title>
<polygon fill="none" stroke="black" points="2714.86,-324 2536.86,-324 2536.86,-288 2714.86,-288 2714.86,-324"/>
<text text-anchor="middle" x="2625.86" y="-302.3" font-family="Times,serif" font-size="14.00">Policies.BayesianIndexPolicy</text>
</g>
<!-- 20&#45;&gt;21 -->
<g id="edge62" class="edge"><title>20&#45;&gt;21</title>
<path fill="none" stroke="black" d="M2514.06,-252.124C2534.12,-261.608 2559.23,-273.487 2580.57,-283.581"/>
<polygon fill="black" stroke="black" points="2589.77,-287.932 2578.81,-287.724 2585.25,-285.794 2580.73,-283.656 2580.73,-283.656 2580.73,-283.656 2585.25,-285.794 2582.66,-279.588 2589.77,-287.932 2589.77,-287.932"/>
</g>
<!-- 21&#45;&gt;22 -->
<g id="edge63" class="edge"><title>21&#45;&gt;22</title>
<path fill="none" stroke="black" d="M2672.09,-324.124C2698.98,-334.081 2732.98,-346.676 2761.06,-357.076"/>
<polygon fill="black" stroke="black" points="2770.73,-360.655 2759.79,-361.401 2766.04,-358.918 2761.35,-357.182 2761.35,-357.182 2761.35,-357.182 2766.04,-358.918 2762.91,-352.962 2770.73,-360.655 2770.73,-360.655"/>
</g>
<!-- 29 -->
<g id="node30" class="node"><title>29</title>
<polygon fill="none" stroke="black" points="1488.86,-468 1360.86,-468 1360.86,-432 1488.86,-432 1488.86,-468"/>
<text text-anchor="middle" x="1424.86" y="-446.3" font-family="Times,serif" font-size="14.00">Policies.IndexPolicy</text>
</g>
<!-- 21&#45;&gt;29 -->
<g id="edge64" class="edge"><title>21&#45;&gt;29</title>
<path fill="none" stroke="black" d="M2554.71,-324.059C2466.91,-344.441 2312.77,-378.036 2178.86,-396 1931.2,-429.223 1634.82,-442.345 1499.2,-446.888"/>
<polygon fill="black" stroke="black" points="1488.94,-447.226 1498.78,-442.4 1493.93,-447.062 1498.93,-446.897 1498.93,-446.897 1498.93,-446.897 1493.93,-447.062 1499.08,-451.395 1488.94,-447.226 1488.94,-447.226"/>
</g>
<!-- 34 -->
<g id="node35" class="node"><title>34</title>
<polygon fill="none" stroke="black" points="2858.86,-468 2746.86,-468 2746.86,-432 2858.86,-432 2858.86,-468"/>
<text text-anchor="middle" x="2802.86" y="-446.3" font-family="Times,serif" font-size="14.00">Policies.Posterior</text>
</g>
<!-- 22&#45;&gt;34 -->
<g id="edge65" class="edge"><title>22&#45;&gt;34</title>
<path fill="none" stroke="black" d="M2811.89,-396.303C2810.57,-404.017 2808.98,-413.288 2807.51,-421.888"/>
<polygon fill="black" stroke="black" points="2805.79,-431.896 2803.05,-421.279 2806.64,-426.968 2807.48,-422.039 2807.48,-422.039 2807.48,-422.039 2806.64,-426.968 2811.92,-422.8 2805.79,-431.896 2805.79,-431.896"/>
</g>
<!-- 23&#45;&gt;27 -->
<g id="edge66" class="edge"><title>23&#45;&gt;27</title>
<path fill="none" stroke="black" d="M2810.34,-252.034C2842.61,-261.943 2883.47,-274.486 2917.32,-284.879"/>
<polygon fill="black" stroke="black" points="2927.13,-287.889 2916.25,-289.256 2922.35,-286.422 2917.57,-284.954 2917.57,-284.954 2917.57,-284.954 2922.35,-286.422 2918.89,-280.652 2927.13,-287.889 2927.13,-287.889"/>
</g>
<!-- 24&#45;&gt;27 -->
<g id="edge67" class="edge"><title>24&#45;&gt;27</title>
<path fill="none" stroke="black" d="M2964.79,-252.303C2967.47,-260.102 2970.68,-269.491 2973.66,-278.171"/>
<polygon fill="black" stroke="black" points="2976.99,-287.896 2969.49,-279.896 2975.37,-283.166 2973.75,-278.436 2973.75,-278.436 2973.75,-278.436 2975.37,-283.166 2978.01,-276.977 2976.99,-287.896 2976.99,-287.896"/>
</g>
<!-- 25&#45;&gt;27 -->
<g id="edge68" class="edge"><title>25&#45;&gt;27</title>
<path fill="none" stroke="black" d="M3127.13,-252.124C3100.56,-261.863 3067.1,-274.128 3039.09,-284.392"/>
<polygon fill="black" stroke="black" points="3029.43,-287.932 3037.27,-280.265 3034.13,-286.211 3038.82,-284.491 3038.82,-284.491 3038.82,-284.491 3034.13,-286.211 3040.37,-288.716 3029.43,-287.932 3029.43,-287.932"/>
</g>
<!-- 26&#45;&gt;27 -->
<g id="edge69" class="edge"><title>26&#45;&gt;27</title>
<path fill="none" stroke="black" d="M3285.32,-250.013C3282.13,-250.698 3278.96,-251.364 3275.86,-252 3204.89,-266.562 3123.82,-281.063 3064.97,-291.207"/>
<polygon fill="black" stroke="black" points="3054.99,-292.923 3064.08,-286.794 3059.91,-292.076 3064.84,-291.229 3064.84,-291.229 3064.84,-291.229 3059.91,-292.076 3065.6,-295.664 3054.99,-292.923 3054.99,-292.923"/>
</g>
<!-- 27&#45;&gt;19 -->
<g id="edge70" class="edge"><title>27&#45;&gt;19</title>
<path fill="none" stroke="black" d="M2979.09,-324.031C2970.46,-358.392 2945.75,-435.504 2891.86,-468 2815.31,-514.159 1461.88,-520.119 1131.27,-520.887"/>
<polygon fill="black" stroke="black" points="1120.86,-520.91 1130.85,-516.388 1125.86,-520.899 1130.86,-520.888 1130.86,-520.888 1130.86,-520.888 1125.86,-520.899 1130.87,-525.388 1120.86,-520.91 1120.86,-520.91"/>
</g>
<!-- 28&#45;&gt;19 -->
<g id="edge71" class="edge"><title>28&#45;&gt;19</title>
<path fill="none" stroke="black" d="M594.918,-396.232C593.686,-416.545 595.159,-449.83 614.859,-468 641.612,-492.676 867.436,-509.641 986.313,-516.95"/>
<polygon fill="black" stroke="black" points="996.427,-517.564 986.173,-521.45 991.436,-517.261 986.445,-516.958 986.445,-516.958 986.445,-516.958 991.436,-517.261 986.718,-512.466 996.427,-517.564 996.427,-517.564"/>
</g>
<!-- 29&#45;&gt;19 -->
<g id="edge72" class="edge"><title>29&#45;&gt;19</title>
<path fill="none" stroke="black" d="M1360.69,-463.273C1296.53,-475.543 1198.05,-494.379 1131.16,-507.171"/>
<polygon fill="black" stroke="black" points="1121.12,-509.092 1130.1,-502.793 1126.03,-508.153 1130.94,-507.213 1130.94,-507.213 1130.94,-507.213 1126.03,-508.153 1131.79,-511.633 1121.12,-509.092 1121.12,-509.092"/>
</g>
<!-- 30 -->
<g id="node31" class="node"><title>30</title>
<polygon fill="none" stroke="black" points="1794.36,-324 1661.36,-324 1661.36,-288 1794.36,-288 1794.36,-324"/>
<text text-anchor="middle" x="1727.86" y="-302.3" font-family="Times,serif" font-size="14.00">Policies.KLempUCB</text>
</g>
<!-- 30&#45;&gt;29 -->
<g id="edge73" class="edge"><title>30&#45;&gt;29</title>
<path fill="none" stroke="black" d="M1706.82,-324.229C1681.9,-343.92 1638.5,-375.998 1596.86,-396 1565.98,-410.834 1530,-422.683 1498.96,-431.383"/>
<polygon fill="black" stroke="black" points="1489.07,-434.097 1497.52,-427.111 1493.89,-432.774 1498.71,-431.451 1498.71,-431.451 1498.71,-431.451 1493.89,-432.774 1499.9,-435.791 1489.07,-434.097 1489.07,-434.097"/>
</g>
<!-- 55 -->
<g id="node56" class="node"><title>55</title>
<polygon fill="none" stroke="black" points="1564.86,-396 1454.86,-396 1454.86,-360 1564.86,-360 1564.86,-396"/>
<text text-anchor="middle" x="1509.86" y="-374.3" font-family="Times,serif" font-size="14.00">Policies.kullback</text>
</g>
<!-- 30&#45;&gt;55 -->
<g id="edge74" class="edge"><title>30&#45;&gt;55</title>
<path fill="none" stroke="black" d="M1674.81,-324.034C1644.08,-333.9 1605.22,-346.378 1572.94,-356.745"/>
<polygon fill="black" stroke="black" points="1563.15,-359.889 1571.29,-352.547 1567.91,-358.361 1572.67,-356.832 1572.67,-356.832 1572.67,-356.832 1567.91,-358.361 1574.04,-361.116 1563.15,-359.889 1563.15,-359.889"/>
</g>
<!-- 31&#45;&gt;19 -->
<g id="edge75" class="edge"><title>31&#45;&gt;19</title>
<path fill="none" stroke="black" d="M728.008,-465.935C730.995,-466.665 733.96,-467.36 736.859,-468 821.927,-486.796 920.98,-502.135 986.523,-511.387"/>
<polygon fill="black" stroke="black" points="996.748,-512.82 986.22,-515.889 991.796,-512.126 986.844,-511.432 986.844,-511.432 986.844,-511.432 991.796,-512.126 987.469,-506.976 996.748,-512.82 996.748,-512.82"/>
</g>
<!-- 32&#45;&gt;29 -->
<g id="edge76" class="edge"><title>32&#45;&gt;29</title>
<path fill="none" stroke="black" d="M1207.57,-393.471C1210.71,-394.335 1213.83,-395.184 1216.86,-396 1261.15,-407.914 1310.92,-420.622 1350.68,-430.607"/>
<polygon fill="black" stroke="black" points="1360.56,-433.085 1349.76,-435.017 1355.71,-431.869 1350.86,-430.653 1350.86,-430.653 1350.86,-430.653 1355.71,-431.869 1351.95,-426.288 1360.56,-433.085 1360.56,-433.085"/>
</g>
<!-- 33&#45;&gt;19 -->
<g id="edge77" class="edge"><title>33&#45;&gt;19</title>
<path fill="none" stroke="black" d="M874.236,-468.034C908.921,-477.985 952.871,-490.594 989.188,-501.013"/>
<polygon fill="black" stroke="black" points="999.215,-503.889 988.362,-505.457 994.409,-502.51 989.603,-501.132 989.603,-501.132 989.603,-501.132 994.409,-502.51 990.844,-496.806 999.215,-503.889 999.215,-503.889"/>
</g>
<!-- 35&#45;&gt;19 -->
<g id="edge78" class="edge"><title>35&#45;&gt;19</title>
<path fill="none" stroke="black" d="M981.811,-468.124C994.9,-477.107 1011.12,-488.237 1025.29,-497.966"/>
<polygon fill="black" stroke="black" points="1033.81,-503.81 1023.02,-501.862 1029.69,-500.981 1025.57,-498.152 1025.57,-498.152 1025.57,-498.152 1029.69,-500.981 1028.11,-494.441 1033.81,-503.81 1033.81,-503.81"/>
</g>
<!-- 36&#45;&gt;19 -->
<g id="edge79" class="edge"><title>36&#45;&gt;19</title>
<path fill="none" stroke="black" d="M930.869,-324.229C954.037,-347.134 994.434,-389.668 1020.86,-432 1033.17,-451.721 1043.27,-476.126 1049.96,-494.389"/>
<polygon fill="black" stroke="black" points="1053.32,-503.834 1045.73,-495.918 1051.64,-499.123 1049.97,-494.411 1049.97,-494.411 1049.97,-494.411 1051.64,-499.123 1054.21,-492.905 1053.32,-503.834 1053.32,-503.834"/>
</g>
<!-- 37&#45;&gt;36 -->
<g id="edge80" class="edge"><title>37&#45;&gt;36</title>
<path fill="none" stroke="black" d="M912.859,-252.303C912.859,-260.017 912.859,-269.288 912.859,-277.888"/>
<polygon fill="black" stroke="black" points="912.859,-287.896 908.359,-277.896 912.859,-282.896 912.859,-277.896 912.859,-277.896 912.859,-277.896 912.859,-282.896 917.359,-277.896 912.859,-287.896 912.859,-287.896"/>
</g>
<!-- 38&#45;&gt;21 -->
<g id="edge81" class="edge"><title>38&#45;&gt;21</title>
<path fill="none" stroke="black" d="M2397.94,-249.837C2400.96,-250.569 2403.94,-251.293 2406.86,-252 2452.79,-263.135 2504.14,-275.564 2545.57,-285.586"/>
<polygon fill="black" stroke="black" points="2555.34,-287.948 2544.56,-289.971 2550.48,-286.772 2545.62,-285.597 2545.62,-285.597 2545.62,-285.597 2550.48,-286.772 2546.67,-281.223 2555.34,-287.948 2555.34,-287.948"/>
</g>
<!-- 39&#45;&gt;29 -->
<g id="edge82" class="edge"><title>39&#45;&gt;29</title>
<path fill="none" stroke="black" d="M2079.2,-383.566C1960.99,-395.387 1644.09,-427.077 1499.11,-441.575"/>
<polygon fill="black" stroke="black" points="1488.97,-442.589 1498.47,-437.116 1493.95,-442.091 1498.92,-441.594 1498.92,-441.594 1498.92,-441.594 1493.95,-442.091 1499.37,-446.071 1488.97,-442.589 1488.97,-442.589"/>
</g>
<!-- 40&#45;&gt;39 -->
<g id="edge83" class="edge"><title>40&#45;&gt;39</title>
<path fill="none" stroke="black" d="M2031.95,-324.124C2048.18,-333.361 2068.4,-344.869 2085.83,-354.788"/>
<polygon fill="black" stroke="black" points="2094.65,-359.81 2083.74,-358.775 2090.31,-357.337 2085.96,-354.864 2085.96,-354.864 2085.96,-354.864 2090.31,-357.337 2088.19,-350.953 2094.65,-359.81 2094.65,-359.81"/>
</g>
<!-- 41&#45;&gt;40 -->
<g id="edge84" class="edge"><title>41&#45;&gt;40</title>
<path fill="none" stroke="black" d="M2001.86,-252.303C2001.86,-260.017 2001.86,-269.288 2001.86,-277.888"/>
<polygon fill="black" stroke="black" points="2001.86,-287.896 1997.36,-277.896 2001.86,-282.896 2001.86,-277.896 2001.86,-277.896 2001.86,-277.896 2001.86,-282.896 2006.36,-277.896 2001.86,-287.896 2001.86,-287.896"/>
</g>
<!-- 42&#45;&gt;39 -->
<g id="edge85" class="edge"><title>42&#45;&gt;39</title>
<path fill="none" stroke="black" d="M1932.9,-323.678C1974.32,-335.184 2028.99,-350.37 2069.39,-361.592"/>
<polygon fill="black" stroke="black" points="2079.07,-364.282 2068.24,-365.942 2074.26,-362.944 2069.44,-361.606 2069.44,-361.606 2069.44,-361.606 2074.26,-362.944 2070.64,-357.27 2079.07,-364.282 2079.07,-364.282"/>
</g>
<!-- 43&#45;&gt;29 -->
<g id="edge86" class="edge"><title>43&#45;&gt;29</title>
<path fill="none" stroke="black" d="M1424.86,-324.129C1424.86,-348.33 1424.86,-392.789 1424.86,-421.607"/>
<polygon fill="black" stroke="black" points="1424.86,-431.811 1420.36,-421.811 1424.86,-426.811 1424.86,-421.811 1424.86,-421.811 1424.86,-421.811 1424.86,-426.811 1429.36,-421.811 1424.86,-431.811 1424.86,-431.811"/>
</g>
<!-- 44&#45;&gt;43 -->
<g id="edge87" class="edge"><title>44&#45;&gt;43</title>
<path fill="none" stroke="black" d="M1458.74,-252.303C1453.5,-260.441 1447.16,-270.311 1441.38,-279.299"/>
<polygon fill="black" stroke="black" points="1435.85,-287.896 1437.48,-277.05 1438.56,-283.69 1441.26,-279.484 1441.26,-279.484 1441.26,-279.484 1438.56,-283.69 1445.05,-281.917 1435.85,-287.896 1435.85,-287.896"/>
</g>
<!-- 45&#45;&gt;39 -->
<g id="edge88" class="edge"><title>45&#45;&gt;39</title>
<path fill="none" stroke="black" d="M2124.86,-324.303C2124.86,-332.017 2124.86,-341.288 2124.86,-349.888"/>
<polygon fill="black" stroke="black" points="2124.86,-359.896 2120.36,-349.896 2124.86,-354.896 2124.86,-349.896 2124.86,-349.896 2124.86,-349.896 2124.86,-354.896 2129.36,-349.896 2124.86,-359.896 2124.86,-359.896"/>
</g>
<!-- 46&#45;&gt;39 -->
<g id="edge89" class="edge"><title>46&#45;&gt;39</title>
<path fill="none" stroke="black" d="M2222.3,-324.124C2205.2,-333.404 2183.88,-344.975 2165.54,-354.925"/>
<polygon fill="black" stroke="black" points="2156.54,-359.81 2163.18,-351.086 2160.93,-357.426 2165.33,-355.041 2165.33,-355.041 2165.33,-355.041 2160.93,-357.426 2167.47,-358.996 2156.54,-359.81 2156.54,-359.81"/>
</g>
<!-- 47&#45;&gt;39 -->
<g id="edge90" class="edge"><title>47&#45;&gt;39</title>
<path fill="none" stroke="black" d="M2336.72,-324.034C2288.71,-336.036 2225.24,-351.905 2180.32,-363.134"/>
<polygon fill="black" stroke="black" points="2170.46,-365.599 2179.07,-358.808 2175.31,-364.386 2180.16,-363.173 2180.16,-363.173 2180.16,-363.173 2175.31,-364.386 2181.26,-367.539 2170.46,-365.599 2170.46,-365.599"/>
</g>
<!-- 48&#45;&gt;29 -->
<g id="edge91" class="edge"><title>48&#45;&gt;29</title>
<path fill="none" stroke="black" d="M1322.13,-396.124C1340.32,-405.488 1363.05,-417.186 1382.5,-427.197"/>
<polygon fill="black" stroke="black" points="1391.46,-431.81 1380.51,-431.235 1387.02,-429.522 1382.57,-427.234 1382.57,-427.234 1382.57,-427.234 1387.02,-429.522 1384.63,-423.233 1391.46,-431.81 1391.46,-431.81"/>
</g>
<!-- 49&#45;&gt;19 -->
<g id="edge92" class="edge"><title>49&#45;&gt;19</title>
<path fill="none" stroke="black" d="M1064.38,-324.151C1063.34,-361.168 1060.88,-448.819 1059.63,-493.614"/>
<polygon fill="black" stroke="black" points="1059.34,-503.768 1055.12,-493.645 1059.48,-498.77 1059.62,-493.771 1059.62,-493.771 1059.62,-493.771 1059.48,-498.77 1064.12,-493.898 1059.34,-503.768 1059.34,-503.768"/>
</g>
<!-- 50&#45;&gt;49 -->
<g id="edge93" class="edge"><title>50&#45;&gt;49</title>
<path fill="none" stroke="black" d="M1096.48,-252.303C1091.59,-260.441 1085.67,-270.311 1080.28,-279.299"/>
<polygon fill="black" stroke="black" points="1075.12,-287.896 1076.41,-277.005 1077.69,-283.608 1080.27,-279.321 1080.27,-279.321 1080.27,-279.321 1077.69,-283.608 1084.12,-281.636 1075.12,-287.896 1075.12,-287.896"/>
</g>
<!-- 51&#45;&gt;29 -->
<g id="edge94" class="edge"><title>51&#45;&gt;29</title>
<path fill="none" stroke="black" d="M1593.87,-324.244C1594.07,-343.948 1591.35,-376.039 1573.86,-396 1554.76,-417.791 1526.08,-430.622 1498.97,-438.178"/>
<polygon fill="black" stroke="black" points="1489.08,-440.73 1497.64,-433.876 1493.92,-439.482 1498.76,-438.233 1498.76,-438.233 1498.76,-438.233 1493.92,-439.482 1499.88,-442.591 1489.08,-440.73 1489.08,-440.73"/>
</g>
<!-- 51&#45;&gt;55 -->
<g id="edge95" class="edge"><title>51&#45;&gt;55</title>
<path fill="none" stroke="black" d="M1572.34,-324.303C1561.99,-333.035 1549.27,-343.76 1538.02,-353.25"/>
<polygon fill="black" stroke="black" points="1530.14,-359.896 1534.88,-350.009 1533.96,-356.672 1537.78,-353.449 1537.78,-353.449 1537.78,-353.449 1533.96,-356.672 1540.69,-356.889 1530.14,-359.896 1530.14,-359.896"/>
</g>
<!-- 52&#45;&gt;51 -->
<g id="edge96" class="edge"><title>52&#45;&gt;51</title>
<path fill="none" stroke="black" d="M1621.47,-252.303C1617.09,-260.356 1611.8,-270.106 1606.96,-279.018"/>
<polygon fill="black" stroke="black" points="1602.14,-287.896 1602.96,-276.96 1604.53,-283.501 1606.91,-279.107 1606.91,-279.107 1606.91,-279.107 1604.53,-283.501 1610.87,-281.254 1602.14,-287.896 1602.14,-287.896"/>
</g>
<!-- 52&#45;&gt;55 -->
<g id="edge97" class="edge"><title>52&#45;&gt;55</title>
<path fill="none" stroke="black" d="M1581.35,-252.11C1563.75,-260.44 1545.26,-272.157 1532.86,-288 1519.07,-305.628 1513.48,-330.654 1511.25,-349.681"/>
<polygon fill="black" stroke="black" points="1510.31,-359.819 1506.76,-349.445 1510.77,-354.841 1511.24,-349.862 1511.24,-349.862 1511.24,-349.862 1510.77,-354.841 1515.72,-350.279 1510.31,-359.819 1510.31,-359.819"/>
</g>
<!-- 53&#45;&gt;51 -->
<g id="edge98" class="edge"><title>53&#45;&gt;51</title>
<path fill="none" stroke="black" d="M1762.35,-252.034C1729.35,-262.348 1687.21,-275.516 1653.2,-286.143"/>
<polygon fill="black" stroke="black" points="1643.39,-289.21 1651.59,-281.932 1648.16,-287.719 1652.93,-286.227 1652.93,-286.227 1652.93,-286.227 1648.16,-287.719 1654.27,-290.523 1643.39,-289.21 1643.39,-289.21"/>
</g>
<!-- 54&#45;&gt;29 -->
<g id="edge99" class="edge"><title>54&#45;&gt;29</title>
<path fill="none" stroke="black" d="M1310.98,-324.054C1326.61,-333.473 1345.28,-346.075 1359.86,-360 1379.6,-378.855 1397.52,-404.333 1409.52,-423.198"/>
<polygon fill="black" stroke="black" points="1414.92,-431.869 1405.82,-425.759 1412.28,-427.625 1409.64,-423.38 1409.64,-423.38 1409.64,-423.38 1412.28,-427.625 1413.46,-421.002 1414.92,-431.869 1414.92,-431.869"/>
</g>
<!-- 54&#45;&gt;55 -->
<g id="edge100" class="edge"><title>54&#45;&gt;55</title>
<path fill="none" stroke="black" d="M1335.83,-324.034C1368.75,-334.053 1410.52,-346.766 1444.89,-357.226"/>
<polygon fill="black" stroke="black" points="1454.83,-360.253 1443.95,-361.646 1450.05,-358.797 1445.27,-357.341 1445.27,-357.341 1445.27,-357.341 1450.05,-358.797 1446.58,-353.036 1454.83,-360.253 1454.83,-360.253"/>
</g>
<!-- 56 -->
<g id="node57" class="node"><title>56</title>
<polygon fill="none" stroke="black" points="5201.86,-180 5071.86,-180 5071.86,-144 5201.86,-144 5201.86,-180"/>
<text text-anchor="middle" x="5136.86" y="-158.3" font-family="Times,serif" font-size="14.00">PoliciesMultiPlayers</text>
</g>
<!-- 57 -->
<g id="node58" class="node"><title>57</title>
<polygon fill="none" stroke="black" points="5720.36,-252 5539.36,-252 5539.36,-216 5720.36,-216 5720.36,-252"/>
<text text-anchor="middle" x="5629.86" y="-230.3" font-family="Times,serif" font-size="14.00">PoliciesMultiPlayers.ALOHA</text>
</g>
<!-- 56&#45;&gt;57 -->
<g id="edge101" class="edge"><title>56&#45;&gt;57</title>
<path fill="none" stroke="black" d="M5201.98,-171.086C5277.88,-180.668 5407.34,-197.495 5528.9,-215.882"/>
<polygon fill="black" stroke="black" points="5539.13,-217.436 5528.57,-220.383 5534.19,-216.685 5529.24,-215.934 5529.24,-215.934 5529.24,-215.934 5534.19,-216.685 5529.92,-211.485 5539.13,-217.436 5539.13,-217.436"/>
</g>
<!-- 60 -->
<g id="node61" class="node"><title>60</title>
<polygon fill="none" stroke="black" points="4679.36,-252 4440.36,-252 4440.36,-216 4679.36,-216 4679.36,-252"/>
<text text-anchor="middle" x="4559.86" y="-230.3" font-family="Times,serif" font-size="14.00">PoliciesMultiPlayers.CentralizedCycling</text>
</g>
<!-- 56&#45;&gt;60 -->
<g id="edge102" class="edge"><title>56&#45;&gt;60</title>
<path fill="none" stroke="black" d="M5071.54,-170.453C4986.32,-180.237 4832.29,-198.131 4689.91,-215.878"/>
<polygon fill="black" stroke="black" points="4679.67,-217.155 4689.04,-211.451 4684.64,-216.536 4689.6,-215.916 4689.6,-215.916 4689.6,-215.916 4684.64,-216.536 4690.15,-220.382 4679.67,-217.155 4679.67,-217.155"/>
</g>
<!-- 61 -->
<g id="node62" class="node"><title>61</title>
<polygon fill="none" stroke="black" points="4924.36,-252 4697.36,-252 4697.36,-216 4924.36,-216 4924.36,-252"/>
<text text-anchor="middle" x="4810.86" y="-230.3" font-family="Times,serif" font-size="14.00">PoliciesMultiPlayers.CentralizedFixed</text>
</g>
<!-- 56&#45;&gt;61 -->
<g id="edge103" class="edge"><title>56&#45;&gt;61</title>
<path fill="none" stroke="black" d="M5071.67,-176.997C5022.43,-187.571 4954.29,-202.202 4900.01,-213.857"/>
<polygon fill="black" stroke="black" points="4890.04,-215.998 4898.87,-209.498 4894.93,-214.948 4899.82,-213.898 4899.82,-213.898 4899.82,-213.898 4894.93,-214.948 4900.76,-218.298 4890.04,-215.998 4890.04,-215.998"/>
</g>
<!-- 62 -->
<g id="node63" class="node"><title>62</title>
<polygon fill="none" stroke="black" points="6005.36,-252 5738.36,-252 5738.36,-216 6005.36,-216 6005.36,-252"/>
<text text-anchor="middle" x="5871.86" y="-230.3" font-family="Times,serif" font-size="14.00">PoliciesMultiPlayers.CentralizedMultiplePlay</text>
</g>
<!-- 56&#45;&gt;62 -->
<g id="edge104" class="edge"><title>56&#45;&gt;62</title>
<path fill="none" stroke="black" d="M5202.29,-168.202C5309.83,-176.894 5530.89,-195.361 5728.12,-215.833"/>
<polygon fill="black" stroke="black" points="5738.09,-216.872 5727.67,-220.311 5733.11,-216.353 5728.14,-215.835 5728.14,-215.835 5728.14,-215.835 5733.11,-216.353 5728.61,-211.359 5738.09,-216.872 5738.09,-216.872"/>
</g>
<!-- 65 -->
<g id="node66" class="node"><title>65</title>
<polygon fill="none" stroke="black" points="5133.36,-252 4942.36,-252 4942.36,-216 5133.36,-216 5133.36,-252"/>
<text text-anchor="middle" x="5037.86" y="-230.3" font-family="Times,serif" font-size="14.00">PoliciesMultiPlayers.OracleFair</text>
</g>
<!-- 56&#45;&gt;65 -->
<g id="edge105" class="edge"><title>56&#45;&gt;65</title>
<path fill="none" stroke="black" d="M5112.64,-180.124C5099.94,-189.107 5084.19,-200.237 5070.44,-209.966"/>
<polygon fill="black" stroke="black" points="5062.17,-215.81 5067.74,-206.363 5066.25,-212.924 5070.33,-210.037 5070.33,-210.037 5070.33,-210.037 5066.25,-212.924 5072.93,-213.711 5062.17,-215.81 5062.17,-215.81"/>
</g>
<!-- 66 -->
<g id="node67" class="node"><title>66</title>
<polygon fill="none" stroke="black" points="4422.86,-252 4210.86,-252 4210.86,-216 4422.86,-216 4422.86,-252"/>
<text text-anchor="middle" x="4316.86" y="-230.3" font-family="Times,serif" font-size="14.00">PoliciesMultiPlayers.OracleNotFair</text>
</g>
<!-- 56&#45;&gt;66 -->
<g id="edge106" class="edge"><title>56&#45;&gt;66</title>
<path fill="none" stroke="black" d="M5071.59,-166.338C4948.69,-172.968 4674.32,-189.393 4433.04,-215.913"/>
<polygon fill="black" stroke="black" points="4423.03,-217.022 4432.47,-211.449 4428,-216.472 4432.97,-215.922 4432.97,-215.922 4432.97,-215.922 4428,-216.472 4433.46,-220.394 4423.03,-217.022 4423.03,-217.022"/>
</g>
<!-- 67 -->
<g id="node68" class="node"><title>67</title>
<polygon fill="none" stroke="black" points="6211.86,-252 6023.86,-252 6023.86,-216 6211.86,-216 6211.86,-252"/>
<text text-anchor="middle" x="6117.86" y="-230.3" font-family="Times,serif" font-size="14.00">PoliciesMultiPlayers.Scenario1</text>
</g>
<!-- 56&#45;&gt;67 -->
<g id="edge107" class="edge"><title>56&#45;&gt;67</title>
<path fill="none" stroke="black" d="M5202.04,-164.633C5346.44,-168.747 5704.32,-181.689 6013.56,-215.922"/>
<polygon fill="black" stroke="black" points="6023.61,-217.045 6013.18,-220.408 6018.64,-216.49 6013.68,-215.935 6013.68,-215.935 6013.68,-215.935 6018.64,-216.49 6014.17,-211.463 6023.61,-217.045 6023.61,-217.045"/>
</g>
<!-- 68 -->
<g id="node69" class="node"><title>68</title>
<polygon fill="none" stroke="black" points="5322.36,-252 5151.36,-252 5151.36,-216 5322.36,-216 5322.36,-252"/>
<text text-anchor="middle" x="5236.86" y="-230.3" font-family="Times,serif" font-size="14.00">PoliciesMultiPlayers.Selfish</text>
</g>
<!-- 56&#45;&gt;68 -->
<g id="edge108" class="edge"><title>56&#45;&gt;68</title>
<path fill="none" stroke="black" d="M5161.32,-180.124C5174.15,-189.107 5190.06,-200.237 5203.95,-209.966"/>
<polygon fill="black" stroke="black" points="5212.3,-215.81 5201.53,-213.762 5208.21,-212.943 5204.11,-210.076 5204.11,-210.076 5204.11,-210.076 5208.21,-212.943 5206.69,-206.389 5212.3,-215.81 5212.3,-215.81"/>
</g>
<!-- 70 -->
<g id="node71" class="node"><title>70</title>
<polygon fill="none" stroke="black" points="5520.86,-252 5340.86,-252 5340.86,-216 5520.86,-216 5520.86,-252"/>
<text text-anchor="middle" x="5430.86" y="-230.3" font-family="Times,serif" font-size="14.00">PoliciesMultiPlayers.rhoRand</text>
</g>
<!-- 56&#45;&gt;70 -->
<g id="edge109" class="edge"><title>56&#45;&gt;70</title>
<path fill="none" stroke="black" d="M5202.11,-178.535C5245.62,-188.895 5303.14,-202.591 5349.62,-213.657"/>
<polygon fill="black" stroke="black" points="5359.36,-215.976 5348.59,-218.037 5354.49,-214.818 5349.63,-213.66 5349.63,-213.66 5349.63,-213.66 5354.49,-214.818 5350.67,-209.282 5359.36,-215.976 5359.36,-215.976"/>
</g>
<!-- 59 -->
<g id="node60" class="node"><title>59</title>
<polygon fill="none" stroke="black" points="5228.36,-324 5013.36,-324 5013.36,-288 5228.36,-288 5228.36,-324"/>
<text text-anchor="middle" x="5120.86" y="-302.3" font-family="Times,serif" font-size="14.00">PoliciesMultiPlayers.BaseMPPolicy</text>
</g>
<!-- 57&#45;&gt;59 -->
<g id="edge110" class="edge"><title>57&#45;&gt;59</title>
<path fill="none" stroke="black" d="M5539.14,-250.609C5536.01,-251.088 5532.91,-251.553 5529.86,-252 5403.64,-270.499 5369.13,-270.604 5238.57,-287.924"/>
<polygon fill="black" stroke="black" points="5228.59,-289.258 5237.9,-283.474 5233.54,-288.596 5238.5,-287.934 5238.5,-287.934 5238.5,-287.934 5233.54,-288.596 5239.1,-292.394 5228.59,-289.258 5228.59,-289.258"/>
</g>
<!-- 63 -->
<g id="node64" class="node"><title>63</title>
<polygon fill="none" stroke="black" points="5449.36,-324 5246.36,-324 5246.36,-288 5449.36,-288 5449.36,-324"/>
<text text-anchor="middle" x="5347.86" y="-302.3" font-family="Times,serif" font-size="14.00">PoliciesMultiPlayers.ChildPointer</text>
</g>
<!-- 57&#45;&gt;63 -->
<g id="edge111" class="edge"><title>57&#45;&gt;63</title>
<path fill="none" stroke="black" d="M5561.23,-252.034C5520.55,-262.134 5468.83,-274.972 5426.5,-285.479"/>
<polygon fill="black" stroke="black" points="5416.79,-287.889 5425.41,-281.113 5421.64,-286.685 5426.5,-285.48 5426.5,-285.48 5426.5,-285.48 5421.64,-286.685 5427.58,-289.847 5416.79,-287.889 5416.79,-287.889"/>
</g>
<!-- 58 -->
<g id="node59" class="node"><title>58</title>
<polygon fill="none" stroke="black" points="4813.36,-324 4556.36,-324 4556.36,-288 4813.36,-288 4813.36,-324"/>
<text text-anchor="middle" x="4684.86" y="-302.3" font-family="Times,serif" font-size="14.00">PoliciesMultiPlayers.BaseCentralizedPolicy</text>
</g>
<!-- 60&#45;&gt;58 -->
<g id="edge112" class="edge"><title>60&#45;&gt;58</title>
<path fill="none" stroke="black" d="M4590.44,-252.124C4606.93,-261.361 4627.48,-272.869 4645.2,-282.788"/>
<polygon fill="black" stroke="black" points="4654.16,-287.81 4643.24,-286.85 4649.8,-285.367 4645.44,-282.924 4645.44,-282.924 4645.44,-282.924 4649.8,-285.367 4647.64,-278.998 4654.16,-287.81 4654.16,-287.81"/>
</g>
<!-- 60&#45;&gt;59 -->
<g id="edge113" class="edge"><title>60&#45;&gt;59</title>
<path fill="none" stroke="black" d="M4679.68,-250.827C4682.77,-251.224 4685.83,-251.615 4688.86,-252 4795.03,-265.508 4915.96,-280.294 5002.82,-290.807"/>
<polygon fill="black" stroke="black" points="5012.97,-292.036 5002.5,-295.302 5008.01,-291.435 5003.05,-290.835 5003.05,-290.835 5003.05,-290.835 5008.01,-291.435 5003.59,-286.367 5012.97,-292.036 5012.97,-292.036"/>
</g>
<!-- 60&#45;&gt;63 -->
<g id="edge114" class="edge"><title>60&#45;&gt;63</title>
<path fill="none" stroke="black" d="M4679.65,-251.058C4682.75,-251.386 4685.82,-251.701 4688.86,-252 4928.88,-275.659 4993.05,-261.695 5236.1,-287.863"/>
<polygon fill="black" stroke="black" points="5246.31,-288.974 5235.89,-292.366 5241.34,-288.433 5236.37,-287.892 5236.37,-287.892 5236.37,-287.892 5241.34,-288.433 5236.86,-283.418 5246.31,-288.974 5246.31,-288.974"/>
</g>
<!-- 61&#45;&gt;58 -->
<g id="edge115" class="edge"><title>61&#45;&gt;58</title>
<path fill="none" stroke="black" d="M4780.04,-252.124C4763.41,-261.361 4742.69,-272.869 4724.84,-282.788"/>
<polygon fill="black" stroke="black" points="4715.8,-287.81 4722.36,-279.02 4720.17,-285.382 4724.54,-282.954 4724.54,-282.954 4724.54,-282.954 4720.17,-285.382 4726.73,-286.887 4715.8,-287.81 4715.8,-287.81"/>
</g>
<!-- 61&#45;&gt;59 -->
<g id="edge116" class="edge"><title>61&#45;&gt;59</title>
<path fill="none" stroke="black" d="M4886.3,-252.034C4931.39,-262.217 4988.81,-275.182 5035.55,-285.736"/>
<polygon fill="black" stroke="black" points="5045.35,-287.95 5034.61,-290.137 5040.47,-286.849 5035.6,-285.747 5035.6,-285.747 5035.6,-285.747 5040.47,-286.849 5036.59,-281.358 5045.35,-287.95 5045.35,-287.95"/>
</g>
<!-- 61&#45;&gt;63 -->
<g id="edge117" class="edge"><title>61&#45;&gt;63</title>
<path fill="none" stroke="black" d="M4924.44,-250.781C4927.61,-251.195 4930.76,-251.602 4933.86,-252 5065.51,-268.892 5101.32,-269.583 5235.99,-287.77"/>
<polygon fill="black" stroke="black" points="5246.29,-289.169 5235.77,-292.282 5241.33,-288.496 5236.38,-287.823 5236.38,-287.823 5236.38,-287.823 5241.33,-288.496 5236.99,-283.364 5246.29,-289.169 5246.29,-289.169"/>
</g>
<!-- 62&#45;&gt;59 -->
<g id="edge118" class="edge"><title>62&#45;&gt;59</title>
<path fill="none" stroke="black" d="M5738.09,-251.188C5735.32,-251.467 5732.58,-251.738 5729.86,-252 5514.92,-272.718 5457.54,-264.482 5238.77,-287.951"/>
<polygon fill="black" stroke="black" points="5228.56,-289.056 5238.02,-283.506 5233.53,-288.518 5238.5,-287.979 5238.5,-287.979 5238.5,-287.979 5233.53,-288.518 5238.99,-292.453 5228.56,-289.056 5228.56,-289.056"/>
</g>
<!-- 62&#45;&gt;63 -->
<g id="edge119" class="edge"><title>62&#45;&gt;63</title>
<path fill="none" stroke="black" d="M5744.34,-252.034C5657.3,-263.662 5543.09,-278.919 5459.62,-290.07"/>
<polygon fill="black" stroke="black" points="5449.59,-291.409 5458.91,-285.625 5454.55,-290.747 5459.51,-290.085 5459.51,-290.085 5459.51,-290.085 5454.55,-290.747 5460.1,-294.546 5449.59,-291.409 5449.59,-291.409"/>
</g>
<!-- 64 -->
<g id="node65" class="node"><title>64</title>
<polygon fill="none" stroke="black" points="3837.36,-36 3672.36,-36 3672.36,-0 3837.36,-0 3837.36,-36"/>
<text text-anchor="middle" x="3754.86" y="-14.3" font-family="Times,serif" font-size="14.00">PoliciesMultiPlayers.DMC</text>
</g>
<!-- 65&#45;&gt;58 -->
<g id="edge120" class="edge"><title>65&#45;&gt;58</title>
<path fill="none" stroke="black" d="M4951.96,-252.034C4900.18,-262.302 4834.13,-275.399 4780.67,-286.001"/>
<polygon fill="black" stroke="black" points="4770.84,-287.95 4779.77,-281.591 4775.74,-286.977 4780.65,-286.005 4780.65,-286.005 4780.65,-286.005 4775.74,-286.977 4781.52,-290.419 4770.84,-287.95 4770.84,-287.95"/>
</g>
<!-- 65&#45;&gt;59 -->
<g id="edge121" class="edge"><title>65&#45;&gt;59</title>
<path fill="none" stroke="black" d="M5058.38,-252.303C5068.73,-261.035 5081.44,-271.76 5092.7,-281.25"/>
<polygon fill="black" stroke="black" points="5100.58,-287.896 5090.03,-284.889 5096.76,-284.672 5092.93,-281.449 5092.93,-281.449 5092.93,-281.449 5096.76,-284.672 5095.83,-278.009 5100.58,-287.896 5100.58,-287.896"/>
</g>
<!-- 65&#45;&gt;63 -->
<g id="edge122" class="edge"><title>65&#45;&gt;63</title>
<path fill="none" stroke="black" d="M5113.3,-252.034C5158.39,-262.217 5215.81,-275.182 5262.55,-285.736"/>
<polygon fill="black" stroke="black" points="5272.35,-287.95 5261.61,-290.137 5267.47,-286.849 5262.6,-285.747 5262.6,-285.747 5262.6,-285.747 5267.47,-286.849 5263.59,-281.358 5272.35,-287.95 5272.35,-287.95"/>
</g>
<!-- 66&#45;&gt;58 -->
<g id="edge123" class="edge"><title>66&#45;&gt;58</title>
<path fill="none" stroke="black" d="M4406.41,-252.034C4460.5,-262.323 4529.53,-275.453 4585.32,-286.067"/>
<polygon fill="black" stroke="black" points="4595.22,-287.95 4584.56,-290.502 4590.31,-287.016 4585.4,-286.081 4585.4,-286.081 4585.4,-286.081 4590.31,-287.016 4586.24,-281.66 4595.22,-287.95 4595.22,-287.95"/>
</g>
<!-- 66&#45;&gt;59 -->
<g id="edge124" class="edge"><title>66&#45;&gt;59</title>
<path fill="none" stroke="black" d="M4423.03,-250.971C4426,-251.33 4428.95,-251.674 4431.86,-252 4631.92,-274.453 4865.73,-290.243 5003.1,-298.457"/>
<polygon fill="black" stroke="black" points="5013.23,-299.06 5002.98,-302.958 5008.24,-298.763 5003.25,-298.466 5003.25,-298.466 5003.25,-298.466 5008.24,-298.763 5003.51,-293.974 5013.23,-299.06 5013.23,-299.06"/>
</g>
<!-- 66&#45;&gt;63 -->
<g id="edge125" class="edge"><title>66&#45;&gt;63</title>
<path fill="none" stroke="black" d="M4423.02,-251.096C4425.99,-251.418 4428.95,-251.72 4431.86,-252 4785.49,-285.946 4879.3,-253.184 5236.22,-287.903"/>
<polygon fill="black" stroke="black" points="5246.32,-288.897 5235.93,-292.396 5241.35,-288.407 5236.37,-287.918 5236.37,-287.918 5236.37,-287.918 5241.35,-288.407 5236.81,-283.439 5246.32,-288.897 5246.32,-288.897"/>
</g>
<!-- 67&#45;&gt;59 -->
<g id="edge126" class="edge"><title>67&#45;&gt;59</title>
<path fill="none" stroke="black" d="M6023.62,-251.008C6020.67,-251.364 6017.74,-251.696 6014.86,-252 5674.33,-287.866 5583.71,-255.73 5238.58,-287.999"/>
<polygon fill="black" stroke="black" points="5228.55,-288.947 5238.08,-283.525 5233.53,-288.476 5238.51,-288.005 5238.51,-288.005 5238.51,-288.005 5233.53,-288.476 5238.93,-292.485 5228.55,-288.947 5228.55,-288.947"/>
</g>
<!-- 67&#45;&gt;63 -->
<g id="edge127" class="edge"><title>67&#45;&gt;63</title>
<path fill="none" stroke="black" d="M6023.61,-250.883C6020.66,-251.275 6017.74,-251.649 6014.86,-252 5820.3,-275.743 5592.46,-291.212 5459.72,-298.999"/>
<polygon fill="black" stroke="black" points="5449.54,-299.592 5459.26,-294.518 5454.53,-299.301 5459.53,-299.01 5459.53,-299.01 5459.53,-299.01 5454.53,-299.301 5459.79,-303.503 5449.54,-299.592 5449.54,-299.592"/>
</g>
<!-- 68&#45;&gt;59 -->
<g id="edge128" class="edge"><title>68&#45;&gt;59</title>
<path fill="none" stroke="black" d="M5208.48,-252.124C5193.31,-261.276 5174.45,-272.658 5158.12,-282.515"/>
<polygon fill="black" stroke="black" points="5149.34,-287.81 5155.58,-278.791 5153.63,-285.227 5157.91,-282.644 5157.91,-282.644 5157.91,-282.644 5153.63,-285.227 5160.23,-286.496 5149.34,-287.81 5149.34,-287.81"/>
</g>
<!-- 68&#45;&gt;63 -->
<g id="edge129" class="edge"><title>68&#45;&gt;63</title>
<path fill="none" stroke="black" d="M5264.01,-252.124C5278.39,-261.192 5296.24,-272.448 5311.77,-282.241"/>
<polygon fill="black" stroke="black" points="5320.6,-287.81 5309.74,-286.282 5316.37,-285.143 5312.14,-282.476 5312.14,-282.476 5312.14,-282.476 5316.37,-285.143 5314.54,-278.67 5320.6,-287.81 5320.6,-287.81"/>
</g>
<!-- 69 -->
<g id="node70" class="node"><title>69</title>
<polygon fill="none" stroke="black" points="4022.36,-36 3855.36,-36 3855.36,-0 4022.36,-0 4022.36,-36"/>
<text text-anchor="middle" x="3938.86" y="-14.3" font-family="Times,serif" font-size="14.00">PoliciesMultiPlayers.TDFS</text>
</g>
<!-- 70&#45;&gt;59 -->
<g id="edge130" class="edge"><title>70&#45;&gt;59</title>
<path fill="none" stroke="black" d="M5355.42,-252.034C5310.33,-262.217 5252.91,-275.182 5206.17,-285.736"/>
<polygon fill="black" stroke="black" points="5196.37,-287.95 5205.13,-281.358 5201.24,-286.849 5206.12,-285.747 5206.12,-285.747 5206.12,-285.747 5201.24,-286.849 5207.11,-290.137 5196.37,-287.95 5196.37,-287.95"/>
</g>
<!-- 70&#45;&gt;63 -->
<g id="edge131" class="edge"><title>70&#45;&gt;63</title>
<path fill="none" stroke="black" d="M5410.34,-252.303C5399.99,-261.035 5387.27,-271.76 5376.02,-281.25"/>
<polygon fill="black" stroke="black" points="5368.14,-287.896 5372.88,-278.009 5371.96,-284.672 5375.78,-281.449 5375.78,-281.449 5375.78,-281.449 5371.96,-284.672 5378.69,-284.889 5368.14,-287.896 5368.14,-287.896"/>
</g>
<!-- 71 -->
<g id="node72" class="node"><title>71</title>
<polygon fill="none" stroke="black" points="4094.86,-36 4040.86,-36 4040.86,-0 4094.86,-0 4094.86,-36"/>
<text text-anchor="middle" x="4067.86" y="-14.3" font-family="Times,serif" font-size="14.00">conf</text>
</g>
<!-- 72 -->
<g id="node73" class="node"><title>72</title>
<polygon fill="none" stroke="black" points="434.359,-108 345.359,-108 345.359,-72 434.359,-72 434.359,-108"/>
<text text-anchor="middle" x="389.859" y="-86.3" font-family="Times,serif" font-size="14.00">configuration</text>
</g>
<!-- 72&#45;&gt;0 -->
<g id="edge132" class="edge"><title>72&#45;&gt;0</title>
<path fill="none" stroke="black" d="M382.937,-108.303C379.784,-116.187 375.98,-125.696 372.477,-134.454"/>
<polygon fill="black" stroke="black" points="368.7,-143.896 368.236,-132.94 370.557,-139.253 372.414,-134.611 372.414,-134.611 372.414,-134.611 370.557,-139.253 376.592,-136.282 368.7,-143.896 368.7,-143.896"/>
</g>
<!-- 72&#45;&gt;2 -->
<g id="edge133" class="edge"><title>72&#45;&gt;2</title>
<path fill="none" stroke="black" d="M393.839,-108.129C399.488,-132.436 409.887,-177.181 416.581,-205.987"/>
<polygon fill="black" stroke="black" points="418.864,-215.811 412.217,-207.089 417.732,-210.941 416.6,-206.07 416.6,-206.07 416.6,-206.07 417.732,-210.941 420.983,-205.052 418.864,-215.811 418.864,-215.811"/>
</g>
<!-- 72&#45;&gt;3 -->
<g id="edge134" class="edge"><title>72&#45;&gt;3</title>
<path fill="none" stroke="black" d="M409.158,-108.129C437.509,-133.289 490.531,-180.346 522.77,-208.958"/>
<polygon fill="black" stroke="black" points="530.49,-215.811 520.024,-212.539 526.751,-212.492 523.011,-209.173 523.011,-209.173 523.011,-209.173 526.751,-212.492 525.998,-205.807 530.49,-215.811 530.49,-215.811"/>
</g>
<!-- 72&#45;&gt;4 -->
<g id="edge135" class="edge"><title>72&#45;&gt;4</title>
<path fill="none" stroke="black" d="M362.537,-108.194C346.68,-118.342 326.43,-131.592 308.859,-144 278.594,-165.372 245.03,-191.125 221.64,-209.418"/>
<polygon fill="black" stroke="black" points="213.509,-215.798 218.599,-206.085 217.442,-212.711 221.376,-209.625 221.376,-209.625 221.376,-209.625 217.442,-212.711 224.154,-213.165 213.509,-215.798 213.509,-215.798"/>
</g>
<!-- 72&#45;&gt;5 -->
<g id="edge136" class="edge"><title>72&#45;&gt;5</title>
<path fill="none" stroke="black" d="M361.48,-108.14C348.725,-117.253 334.605,-129.564 325.859,-144 314.566,-162.638 309.927,-187.028 308.049,-205.562"/>
<polygon fill="black" stroke="black" points="307.233,-215.709 303.549,-205.381 307.634,-210.725 308.035,-205.742 308.035,-205.742 308.035,-205.742 307.634,-210.725 312.52,-206.102 307.233,-215.709 307.233,-215.709"/>
</g>
<!-- 72&#45;&gt;16 -->
<g id="edge137" class="edge"><title>72&#45;&gt;16</title>
<path fill="none" stroke="black" d="M434.664,-93.2694C645.084,-103.927 1533.27,-148.915 1732.21,-158.992"/>
<polygon fill="black" stroke="black" points="1742.22,-159.499 1732,-163.487 1737.23,-159.246 1732.23,-158.993 1732.23,-158.993 1732.23,-158.993 1737.23,-159.246 1732.46,-154.499 1742.22,-159.499 1742.22,-159.499"/>
</g>
<!-- 72&#45;&gt;55 -->
<g id="edge138" class="edge"><title>72&#45;&gt;55</title>
<path fill="none" stroke="black" d="M345.224,-93.4906C228.319,-101.691 -71.9018,-134.465 15.8586,-252 167.369,-454.913 150.363,-271.831 1359.86,-360 1387.67,-362.027 1418.26,-365.305 1444.53,-368.444"/>
<polygon fill="black" stroke="black" points="1454.75,-369.684 1444.28,-372.946 1449.78,-369.081 1444.82,-368.479 1444.82,-368.479 1444.82,-368.479 1449.78,-369.081 1445.36,-364.012 1454.75,-369.684 1454.75,-369.684"/>
</g>
<!-- 73 -->
<g id="node74" class="node"><title>73</title>
<polygon fill="none" stroke="black" points="1548.86,-108 1384.86,-108 1384.86,-72 1548.86,-72 1548.86,-108"/>
<text text-anchor="middle" x="1466.86" y="-86.3" font-family="Times,serif" font-size="14.00">configuration_multiplayers</text>
</g>
<!-- 73&#45;&gt;0 -->
<g id="edge139" class="edge"><title>73&#45;&gt;0</title>
<path fill="none" stroke="black" d="M1384.66,-90.7884C1210.06,-91.3159 789.628,-97.7697 440.859,-144 427.141,-145.818 412.267,-148.759 399.163,-151.687"/>
<polygon fill="black" stroke="black" points="389.09,-154.011 397.823,-147.378 393.962,-152.887 398.834,-151.763 398.834,-151.763 398.834,-151.763 393.962,-152.887 399.846,-156.148 389.09,-154.011 389.09,-154.011"/>
</g>
<!-- 73&#45;&gt;2 -->
<g id="edge140" class="edge"><title>73&#45;&gt;2</title>
<path fill="none" stroke="black" d="M1384.78,-94.5143C1262.49,-100.489 1025.44,-114.916 825.859,-144 675.031,-165.979 635.775,-178.214 484.324,-215.7"/>
<polygon fill="black" stroke="black" points="474.183,-218.206 482.812,-211.438 479.037,-217.006 483.891,-215.807 483.891,-215.807 483.891,-215.807 479.037,-217.006 484.971,-220.175 474.183,-218.206 474.183,-218.206"/>
</g>
<!-- 73&#45;&gt;3 -->
<g id="edge141" class="edge"><title>73&#45;&gt;3</title>
<path fill="none" stroke="black" d="M1384.6,-100.808C1233.06,-119.4 899.862,-162.718 621.859,-216 620.581,-216.245 619.293,-216.497 617.995,-216.755"/>
<polygon fill="black" stroke="black" points="607.926,-218.842 616.805,-212.406 612.822,-217.827 617.718,-216.812 617.718,-216.812 617.718,-216.812 612.822,-217.827 618.632,-221.219 607.926,-218.842 607.926,-218.842"/>
</g>
<!-- 73&#45;&gt;4 -->
<g id="edge142" class="edge"><title>73&#45;&gt;4</title>
<path fill="none" stroke="black" d="M1384.66,-91.2464C1178.64,-92.5256 644.47,-100.108 472.859,-144 437.037,-153.162 432.669,-167.536 397.859,-180 337.5,-201.612 317.705,-199 252.614,-215.621"/>
<polygon fill="black" stroke="black" points="242.671,-218.218 251.209,-211.337 247.509,-216.954 252.347,-215.691 252.347,-215.691 252.347,-215.691 247.509,-216.954 253.484,-220.045 242.671,-218.218 242.671,-218.218"/>
</g>
<!-- 73&#45;&gt;5 -->
<g id="edge143" class="edge"><title>73&#45;&gt;5</title>
<path fill="none" stroke="black" d="M1384.85,-90.6701C1233.83,-91.2787 902,-98.2892 626.859,-144 532.771,-159.631 426.681,-192.216 363.375,-213.322"/>
<polygon fill="black" stroke="black" points="353.59,-216.607 361.638,-209.158 358.33,-215.016 363.07,-213.425 363.07,-213.425 363.07,-213.425 358.33,-215.016 364.502,-217.691 353.59,-216.607 353.59,-216.607"/>
</g>
<!-- 73&#45;&gt;9 -->
<g id="edge144" class="edge"><title>73&#45;&gt;9</title>
<path fill="none" stroke="black" d="M1549.09,-91.0264C1945.73,-91.3926 3651.67,-95.7806 3883.86,-144 3948.74,-157.475 4018.87,-189.571 4061.58,-211.303"/>
<polygon fill="black" stroke="black" points="4070.52,-215.907 4059.57,-215.332 4066.08,-213.619 4061.63,-211.331 4061.63,-211.331 4061.63,-211.331 4066.08,-213.619 4063.69,-207.33 4070.52,-215.907 4070.52,-215.907"/>
</g>
<!-- 73&#45;&gt;12 -->
<g id="edge145" class="edge"><title>73&#45;&gt;12</title>
<path fill="none" stroke="black" d="M1548.99,-90.5997C1833.49,-90.3107 2802.9,-98.4878 3605.01,-216.04"/>
<polygon fill="black" stroke="black" points="3615.03,-217.516 3604.48,-220.511 3610.08,-216.787 3605.13,-216.059 3605.13,-216.059 3605.13,-216.059 3610.08,-216.787 3605.79,-211.607 3615.03,-217.516 3615.03,-217.516"/>
</g>
<!-- 73&#45;&gt;16 -->
<g id="edge146" class="edge"><title>73&#45;&gt;16</title>
<path fill="none" stroke="black" d="M1541.08,-108.034C1601.33,-121.863 1683.95,-140.824 1732.24,-151.908"/>
<polygon fill="black" stroke="black" points="1742.01,-154.149 1731.25,-156.298 1737.13,-153.03 1732.26,-151.912 1732.26,-151.912 1732.26,-151.912 1737.13,-153.03 1733.27,-147.526 1742.01,-154.149 1742.01,-154.149"/>
</g>
<!-- 73&#45;&gt;56 -->
<g id="edge147" class="edge"><title>73&#45;&gt;56</title>
<path fill="none" stroke="black" d="M1549.09,-92.5685C2041.13,-101.953 4590.1,-150.571 5061.75,-159.567"/>
<polygon fill="black" stroke="black" points="5071.85,-159.76 5061.77,-164.068 5066.85,-159.665 5061.85,-159.569 5061.85,-159.569 5061.85,-159.569 5066.85,-159.665 5061.94,-155.07 5071.85,-159.76 5071.85,-159.76"/>
</g>
<!-- 74 -->
<g id="node75" class="node"><title>74</title>
<polygon fill="none" stroke="black" points="3516.86,-36 3462.86,-36 3462.86,-0 3516.86,-0 3516.86,-36"/>
<text text-anchor="middle" x="3489.86" y="-14.3" font-family="Times,serif" font-size="14.00">main</text>
</g>
<!-- 74&#45;&gt;8 -->
<g id="edge148" class="edge"><title>74&#45;&gt;8</title>
<path fill="none" stroke="black" d="M3515.3,-36.1239C3528.65,-45.1069 3545.18,-56.2375 3559.64,-65.9659"/>
<polygon fill="black" stroke="black" points="3568.32,-71.8102 3557.51,-69.9596 3564.17,-69.0183 3560.02,-66.2264 3560.02,-66.2264 3560.02,-66.2264 3564.17,-69.0183 3562.54,-62.4933 3568.32,-71.8102 3568.32,-71.8102"/>
</g>
<!-- 74&#45;&gt;10 -->
<g id="edge149" class="edge"><title>74&#45;&gt;10</title>
<path fill="none" stroke="black" d="M3490.22,-36.1285C3490.73,-60.3298 3491.67,-104.789 3492.28,-133.607"/>
<polygon fill="black" stroke="black" points="3492.5,-143.811 3487.79,-133.908 3492.39,-138.812 3492.28,-133.813 3492.28,-133.813 3492.28,-133.813 3492.39,-138.812 3496.78,-133.718 3492.5,-143.811 3492.5,-143.811"/>
</g>
<!-- 74&#45;&gt;72 -->
<g id="edge150" class="edge"><title>74&#45;&gt;72</title>
<path fill="none" stroke="black" d="M3462.59,-19.6158C3182.72,-25.9354 835.093,-78.9463 444.761,-87.7603"/>
<polygon fill="black" stroke="black" points="434.578,-87.9902 444.474,-83.2655 439.577,-87.8773 444.575,-87.7644 444.575,-87.7644 444.575,-87.7644 439.577,-87.8773 444.677,-92.2632 434.578,-87.9902 434.578,-87.9902"/>
</g>
<!-- 75 -->
<g id="node76" class="node"><title>75</title>
<polygon fill="none" stroke="black" points="3654.36,-36 3535.36,-36 3535.36,-0 3654.36,-0 3654.36,-36"/>
<text text-anchor="middle" x="3594.86" y="-14.3" font-family="Times,serif" font-size="14.00">main_multiplayers</text>
</g>
<!-- 75&#45;&gt;8 -->
<g id="edge151" class="edge"><title>75&#45;&gt;8</title>
<path fill="none" stroke="black" d="M3594.61,-36.3034C3594.5,-44.0173 3594.37,-53.2875 3594.25,-61.8876"/>
<polygon fill="black" stroke="black" points="3594.1,-71.8957 3589.75,-61.8324 3594.17,-66.8962 3594.25,-61.8967 3594.25,-61.8967 3594.25,-61.8967 3594.17,-66.8962 3598.75,-61.961 3594.1,-71.8957 3594.1,-71.8957"/>
</g>
<!-- 75&#45;&gt;11 -->
<g id="edge152" class="edge"><title>75&#45;&gt;11</title>
<path fill="none" stroke="black" d="M3615.61,-36.1285C3646.21,-61.3959 3703.56,-108.746 3738.18,-137.321"/>
<polygon fill="black" stroke="black" points="3746.04,-143.811 3735.46,-140.914 3742.18,-140.627 3738.33,-137.444 3738.33,-137.444 3738.33,-137.444 3742.18,-140.627 3741.19,-133.974 3746.04,-143.811 3746.04,-143.811"/>
</g>
<!-- 75&#45;&gt;73 -->
<g id="edge153" class="edge"><title>75&#45;&gt;73</title>
<path fill="none" stroke="black" d="M3535.17,-34.5414C3532.03,-35.0962 3528.92,-35.589 3525.86,-36 3137.75,-88.1822 1906.54,-89.8693 1559.01,-89.2681"/>
<polygon fill="black" stroke="black" points="1548.99,-89.2497 1558.99,-84.7682 1553.99,-89.259 1558.99,-89.2682 1558.99,-89.2682 1558.99,-89.2682 1553.99,-89.259 1558.98,-93.7682 1548.99,-89.2497 1548.99,-89.2497"/>
</g>
</g>
</svg>
