<?xml version="1.0" encoding="UTF-8" standalone="no"?>
<!DOCTYPE svg PUBLIC "-//W3C//DTD SVG 1.1//EN"
 "http://www.w3.org/Graphics/SVG/1.1/DTD/svg11.dtd">
<!-- Generated by graphviz version 2.38.0 (20140413.2041)
 -->
<!-- Title: packages_AlgoBandits Pages: 1 -->
<svg width="2196pt" height="332pt"
 viewBox="0.00 0.00 2195.50 332.00" xmlns="http://www.w3.org/2000/svg" xmlns:xlink="http://www.w3.org/1999/xlink">
<g id="graph0" class="graph" transform="scale(1 1) rotate(0) translate(4 328)">
<title>packages_AlgoBandits</title>
<polygon fill="white" stroke="none" points="-4,4 -4,-328 2191.5,-328 2191.5,4 -4,4"/>
<!-- 0 -->
<g id="node1" class="node"><title>0</title>
<polygon fill="none" stroke="black" points="1530,-108 1476,-108 1476,-72 1530,-72 1530,-108"/>
<text text-anchor="middle" x="1503" y="-86.3" font-family="Times,serif" font-size="14.00">Arms</text>
</g>
<!-- 1 -->
<g id="node2" class="node"><title>1</title>
<polygon fill="none" stroke="black" points="1364,-180 1262,-180 1262,-144 1364,-144 1364,-180"/>
<text text-anchor="middle" x="1313" y="-158.3" font-family="Times,serif" font-size="14.00">Arms.Bernoulli</text>
</g>
<!-- 0&#45;&gt;1 -->
<g id="edge1" class="edge"><title>0&#45;&gt;1</title>
<path fill="none" stroke="black" d="M1475.78,-101.029C1448.02,-111.258 1404.14,-127.423 1368.93,-140.394"/>
<polygon fill="black" stroke="black" points="1359.25,-143.96 1367.08,-136.28 1363.94,-142.231 1368.63,-140.503 1368.63,-140.503 1368.63,-140.503 1363.94,-142.231 1370.19,-144.725 1359.25,-143.96 1359.25,-143.96"/>
</g>
<!-- 2 -->
<g id="node3" class="node"><title>2</title>
<polygon fill="none" stroke="black" points="1498,-180 1382,-180 1382,-144 1498,-144 1498,-180"/>
<text text-anchor="middle" x="1440" y="-158.3" font-family="Times,serif" font-size="14.00">Arms.Exponential</text>
</g>
<!-- 0&#45;&gt;2 -->
<g id="edge2" class="edge"><title>0&#45;&gt;2</title>
<path fill="none" stroke="black" d="M1487.43,-108.303C1479.8,-116.78 1470.48,-127.136 1462.12,-136.417"/>
<polygon fill="black" stroke="black" points="1455.39,-143.896 1458.74,-133.452 1458.74,-140.179 1462.08,-136.463 1462.08,-136.463 1462.08,-136.463 1458.74,-140.179 1465.43,-139.473 1455.39,-143.896 1455.39,-143.896"/>
</g>
<!-- 3 -->
<g id="node4" class="node"><title>3</title>
<polygon fill="none" stroke="black" points="1617.5,-180 1516.5,-180 1516.5,-144 1617.5,-144 1617.5,-180"/>
<text text-anchor="middle" x="1567" y="-158.3" font-family="Times,serif" font-size="14.00">Arms.Gaussian</text>
</g>
<!-- 0&#45;&gt;3 -->
<g id="edge3" class="edge"><title>0&#45;&gt;3</title>
<path fill="none" stroke="black" d="M1518.82,-108.303C1526.57,-116.78 1536.04,-127.136 1544.52,-136.417"/>
<polygon fill="black" stroke="black" points="1551.36,-143.896 1541.29,-139.552 1547.99,-140.206 1544.61,-136.515 1544.61,-136.515 1544.61,-136.515 1547.99,-140.206 1547.94,-133.479 1551.36,-143.896 1551.36,-143.896"/>
</g>
<!-- 4 -->
<g id="node5" class="node"><title>4</title>
<polygon fill="none" stroke="black" points="1728.5,-180 1635.5,-180 1635.5,-144 1728.5,-144 1728.5,-180"/>
<text text-anchor="middle" x="1682" y="-158.3" font-family="Times,serif" font-size="14.00">Arms.Poisson</text>
</g>
<!-- 0&#45;&gt;4 -->
<g id="edge4" class="edge"><title>0&#45;&gt;4</title>
<path fill="none" stroke="black" d="M1530.19,-101.631C1556.36,-111.866 1596.64,-127.619 1629.13,-140.326"/>
<polygon fill="black" stroke="black" points="1638.51,-143.992 1627.56,-144.541 1633.85,-142.171 1629.2,-140.35 1629.2,-140.35 1629.2,-140.35 1633.85,-142.171 1630.83,-136.159 1638.51,-143.992 1638.51,-143.992"/>
</g>
<!-- 5 -->
<g id="node6" class="node"><title>5</title>
<polygon fill="none" stroke="black" points="216,-108 128,-108 128,-72 216,-72 216,-108"/>
<text text-anchor="middle" x="172" y="-86.3" font-family="Times,serif" font-size="14.00">Environment</text>
</g>
<!-- 6 -->
<g id="node7" class="node"><title>6</title>
<polygon fill="none" stroke="black" points="144,-180 0,-180 0,-144 144,-144 144,-180"/>
<text text-anchor="middle" x="72" y="-158.3" font-family="Times,serif" font-size="14.00">Environment.Evaluator</text>
</g>
<!-- 5&#45;&gt;6 -->
<g id="edge5" class="edge"><title>5&#45;&gt;6</title>
<path fill="none" stroke="black" d="M147.537,-108.124C134.704,-117.107 118.804,-128.237 104.906,-137.966"/>
<polygon fill="black" stroke="black" points="96.5568,-143.81 102.169,-134.389 100.653,-140.943 104.749,-138.076 104.749,-138.076 104.749,-138.076 100.653,-140.943 107.33,-141.762 96.5568,-143.81 96.5568,-143.81"/>
</g>
<!-- 7 -->
<g id="node8" class="node"><title>7</title>
<polygon fill="none" stroke="black" points="271.5,-252 148.5,-252 148.5,-216 271.5,-216 271.5,-252"/>
<text text-anchor="middle" x="210" y="-230.3" font-family="Times,serif" font-size="14.00">Environment.MAB</text>
</g>
<!-- 5&#45;&gt;7 -->
<g id="edge6" class="edge"><title>5&#45;&gt;7</title>
<path fill="none" stroke="black" d="M176.584,-108.129C183.089,-132.436 195.063,-177.181 202.771,-205.987"/>
<polygon fill="black" stroke="black" points="205.4,-215.811 198.468,-207.314 204.107,-210.981 202.815,-206.151 202.815,-206.151 202.815,-206.151 204.107,-210.981 207.162,-204.987 205.4,-215.811 205.4,-215.811"/>
</g>
<!-- 8 -->
<g id="node9" class="node"><title>8</title>
<polygon fill="none" stroke="black" points="130,-252 4,-252 4,-216 130,-216 130,-252"/>
<text text-anchor="middle" x="67" y="-230.3" font-family="Times,serif" font-size="14.00">Environment.Result</text>
</g>
<!-- 5&#45;&gt;8 -->
<g id="edge7" class="edge"><title>5&#45;&gt;8</title>
<path fill="none" stroke="black" d="M172.212,-108.32C171.62,-127.51 168.119,-158.569 153,-180 144.128,-192.575 131.234,-202.757 118.117,-210.708"/>
<polygon fill="black" stroke="black" points="109.048,-215.858 115.521,-207.007 113.395,-213.389 117.743,-210.92 117.743,-210.92 117.743,-210.92 113.395,-213.389 119.966,-214.833 109.048,-215.858 109.048,-215.858"/>
</g>
<!-- 6&#45;&gt;7 -->
<g id="edge8" class="edge"><title>6&#45;&gt;7</title>
<path fill="none" stroke="black" d="M105.759,-180.124C124.22,-189.488 147.282,-201.186 167.017,-211.197"/>
<polygon fill="black" stroke="black" points="176.112,-215.81 165.158,-215.3 171.652,-213.548 167.193,-211.286 167.193,-211.286 167.193,-211.286 171.652,-213.548 169.229,-207.273 176.112,-215.81 176.112,-215.81"/>
</g>
<!-- 6&#45;&gt;8 -->
<g id="edge9" class="edge"><title>6&#45;&gt;8</title>
<path fill="none" stroke="black" d="M70.764,-180.303C70.2131,-188.017 69.5509,-197.288 68.9366,-205.888"/>
<polygon fill="black" stroke="black" points="68.2217,-215.896 64.4457,-205.6 68.578,-210.908 68.9343,-205.921 68.9343,-205.921 68.9343,-205.921 68.578,-210.908 73.4229,-206.242 68.2217,-215.896 68.2217,-215.896"/>
</g>
<!-- 9 -->
<g id="node10" class="node"><title>9</title>
<polygon fill="none" stroke="black" points="1243.5,-180 1184.5,-180 1184.5,-144 1243.5,-144 1243.5,-180"/>
<text text-anchor="middle" x="1214" y="-158.3" font-family="Times,serif" font-size="14.00">Policies</text>
</g>
<!-- 10 -->
<g id="node11" class="node"><title>10</title>
<polygon fill="none" stroke="black" points="2187.5,-252 2066.5,-252 2066.5,-216 2187.5,-216 2187.5,-252"/>
<text text-anchor="middle" x="2127" y="-230.3" font-family="Times,serif" font-size="14.00">Policies.AdBandits</text>
</g>
<!-- 9&#45;&gt;10 -->
<g id="edge10" class="edge"><title>9&#45;&gt;10</title>
<path fill="none" stroke="black" d="M1243.86,-177.308C1246.9,-178.371 1249.98,-179.299 1253,-180 1598.21,-260.066 1700.98,-167.309 2056.38,-216.123"/>
<polygon fill="black" stroke="black" points="2066.43,-217.532 2055.91,-220.6 2061.48,-216.838 2056.53,-216.144 2056.53,-216.144 2056.53,-216.144 2061.48,-216.838 2057.15,-211.687 2066.43,-217.532 2066.43,-217.532"/>
</g>
<!-- 11 -->
<g id="node12" class="node"><title>11</title>
<polygon fill="none" stroke="black" points="1259.5,-252 1168.5,-252 1168.5,-216 1259.5,-216 1259.5,-252"/>
<text text-anchor="middle" x="1214" y="-230.3" font-family="Times,serif" font-size="14.00">Policies.Aggr</text>
</g>
<!-- 9&#45;&gt;11 -->
<g id="edge11" class="edge"><title>9&#45;&gt;11</title>
<path fill="none" stroke="black" d="M1214,-180.303C1214,-188.017 1214,-197.288 1214,-205.888"/>
<polygon fill="black" stroke="black" points="1214,-215.896 1209.5,-205.896 1214,-210.896 1214,-205.896 1214,-205.896 1214,-205.896 1214,-210.896 1218.5,-205.896 1214,-215.896 1214,-215.896"/>
</g>
<!-- 12 -->
<g id="node13" class="node"><title>12</title>
<polygon fill="none" stroke="black" points="2048,-252 1924,-252 1924,-216 2048,-216 2048,-252"/>
<text text-anchor="middle" x="1986" y="-230.3" font-family="Times,serif" font-size="14.00">Policies.BayesUCB</text>
</g>
<!-- 9&#45;&gt;12 -->
<g id="edge12" class="edge"><title>9&#45;&gt;12</title>
<path fill="none" stroke="black" d="M1243.87,-177.278C1246.9,-178.346 1249.98,-179.285 1253,-180 1536.5,-247.185 1621.52,-175.174 1913.75,-215.996"/>
<polygon fill="black" stroke="black" points="1923.79,-217.431 1913.25,-220.471 1918.84,-216.724 1913.89,-216.016 1913.89,-216.016 1913.89,-216.016 1918.84,-216.724 1914.52,-211.562 1923.79,-217.431 1923.79,-217.431"/>
</g>
<!-- 14 -->
<g id="node15" class="node"><title>14</title>
<polygon fill="none" stroke="black" points="1386.5,-252 1277.5,-252 1277.5,-216 1386.5,-216 1386.5,-252"/>
<text text-anchor="middle" x="1332" y="-230.3" font-family="Times,serif" font-size="14.00">Policies.Dummy</text>
</g>
<!-- 9&#45;&gt;14 -->
<g id="edge13" class="edge"><title>9&#45;&gt;14</title>
<path fill="none" stroke="black" d="M1242.87,-180.124C1258.29,-189.276 1277.48,-200.658 1294.1,-210.515"/>
<polygon fill="black" stroke="black" points="1303.02,-215.81 1292.13,-214.578 1298.72,-213.259 1294.42,-210.708 1294.42,-210.708 1294.42,-210.708 1298.72,-213.259 1296.72,-206.838 1303.02,-215.81 1303.02,-215.81"/>
</g>
<!-- 15 -->
<g id="node16" class="node"><title>15</title>
<polygon fill="none" stroke="black" points="1150.5,-252 985.5,-252 985.5,-216 1150.5,-216 1150.5,-252"/>
<text text-anchor="middle" x="1068" y="-230.3" font-family="Times,serif" font-size="14.00">Policies.EpsilonDecreasing</text>
</g>
<!-- 9&#45;&gt;15 -->
<g id="edge14" class="edge"><title>9&#45;&gt;15</title>
<path fill="none" stroke="black" d="M1184.45,-177.166C1163.95,-186.997 1136.25,-200.277 1113.01,-211.418"/>
<polygon fill="black" stroke="black" points="1103.69,-215.887 1110.76,-207.506 1108.2,-213.726 1112.71,-211.564 1112.71,-211.564 1112.71,-211.564 1108.2,-213.726 1114.65,-215.622 1103.69,-215.887 1103.69,-215.887"/>
</g>
<!-- 16 -->
<g id="node17" class="node"><title>16</title>
<polygon fill="none" stroke="black" points="838.5,-252 709.5,-252 709.5,-216 838.5,-216 838.5,-252"/>
<text text-anchor="middle" x="774" y="-230.3" font-family="Times,serif" font-size="14.00">Policies.EpsilonFirst</text>
</g>
<!-- 9&#45;&gt;16 -->
<g id="edge15" class="edge"><title>9&#45;&gt;16</title>
<path fill="none" stroke="black" d="M1184.45,-166.444C1123.63,-173.712 979.875,-191.807 848.731,-215.953"/>
<polygon fill="black" stroke="black" points="838.509,-217.853 847.518,-211.601 843.425,-216.939 848.34,-216.026 848.34,-216.026 848.34,-216.026 843.425,-216.939 849.163,-220.45 838.509,-217.853 838.509,-217.853"/>
</g>
<!-- 17 -->
<g id="node18" class="node"><title>17</title>
<polygon fill="none" stroke="black" points="691,-252 547,-252 547,-216 691,-216 691,-252"/>
<text text-anchor="middle" x="619" y="-230.3" font-family="Times,serif" font-size="14.00">Policies.EpsilonGreedy</text>
</g>
<!-- 9&#45;&gt;17 -->
<g id="edge16" class="edge"><title>9&#45;&gt;17</title>
<path fill="none" stroke="black" d="M1184.37,-165.004C1106.8,-170.474 891.251,-187.114 701.251,-216.061"/>
<polygon fill="black" stroke="black" points="691.365,-217.582 700.564,-211.614 696.306,-216.822 701.248,-216.062 701.248,-216.062 701.248,-216.062 696.306,-216.822 701.933,-220.509 691.365,-217.582 691.365,-217.582"/>
</g>
<!-- 19 -->
<g id="node20" class="node"><title>19</title>
<polygon fill="none" stroke="black" points="1646.5,-252 1513.5,-252 1513.5,-216 1646.5,-216 1646.5,-252"/>
<text text-anchor="middle" x="1580" y="-230.3" font-family="Times,serif" font-size="14.00">Policies.KLempUCB</text>
</g>
<!-- 9&#45;&gt;19 -->
<g id="edge17" class="edge"><title>9&#45;&gt;19</title>
<path fill="none" stroke="black" d="M1243.51,-176.841C1246.67,-178.028 1249.87,-179.113 1253,-180 1358.76,-210.009 1391.87,-196.314 1503.44,-215.818"/>
<polygon fill="black" stroke="black" points="1513.4,-217.61 1502.76,-220.268 1508.48,-216.725 1503.56,-215.839 1503.56,-215.839 1503.56,-215.839 1508.48,-216.725 1504.36,-211.41 1513.4,-217.61 1513.4,-217.61"/>
</g>
<!-- 20 -->
<g id="node21" class="node"><title>20</title>
<polygon fill="none" stroke="black" points="967,-252 857,-252 857,-216 967,-216 967,-252"/>
<text text-anchor="middle" x="912" y="-230.3" font-family="Times,serif" font-size="14.00">Policies.Softmax</text>
</g>
<!-- 9&#45;&gt;20 -->
<g id="edge18" class="edge"><title>9&#45;&gt;20</title>
<path fill="none" stroke="black" d="M1184.36,-169.271C1139.42,-178.862 1051.37,-197.965 977,-216 976.901,-216.024 976.802,-216.048 976.702,-216.072"/>
<polygon fill="black" stroke="black" points="967.284,-218.397 975.914,-211.632 972.139,-217.199 976.993,-216 976.993,-216 976.993,-216 972.139,-217.199 978.071,-220.369 967.284,-218.397 967.284,-218.397"/>
</g>
<!-- 21 -->
<g id="node22" class="node"><title>21</title>
<polygon fill="none" stroke="black" points="1906,-252 1784,-252 1784,-216 1906,-216 1906,-252"/>
<text text-anchor="middle" x="1845" y="-230.3" font-family="Times,serif" font-size="14.00">Policies.Thompson</text>
</g>
<!-- 9&#45;&gt;21 -->
<g id="edge19" class="edge"><title>9&#45;&gt;21</title>
<path fill="none" stroke="black" d="M1243.88,-177.232C1246.91,-178.31 1249.99,-179.263 1253,-180 1475.69,-234.486 1543.28,-181.963 1773.63,-215.961"/>
<polygon fill="black" stroke="black" points="1783.66,-217.48 1773.1,-220.432 1778.71,-216.731 1773.77,-215.982 1773.77,-215.982 1773.77,-215.982 1778.71,-216.731 1774.44,-211.533 1783.66,-217.48 1783.66,-217.48"/>
</g>
<!-- 22 -->
<g id="node23" class="node"><title>22</title>
<polygon fill="none" stroke="black" points="1495.5,-252 1404.5,-252 1404.5,-216 1495.5,-216 1495.5,-252"/>
<text text-anchor="middle" x="1450" y="-230.3" font-family="Times,serif" font-size="14.00">Policies.UCB</text>
</g>
<!-- 9&#45;&gt;22 -->
<g id="edge20" class="edge"><title>9&#45;&gt;22</title>
<path fill="none" stroke="black" d="M1243.61,-176.507C1246.75,-177.759 1249.92,-178.95 1253,-180 1312.12,-200.173 1331.16,-198.382 1394.69,-215.732"/>
<polygon fill="black" stroke="black" points="1404.39,-218.436 1393.55,-220.087 1399.57,-217.094 1394.76,-215.752 1394.76,-215.752 1394.76,-215.752 1399.57,-217.094 1395.97,-211.417 1404.39,-218.436 1404.39,-218.436"/>
</g>
<!-- 23 -->
<g id="node24" class="node"><title>23</title>
<polygon fill="none" stroke="black" points="390.5,-252 289.5,-252 289.5,-216 390.5,-216 390.5,-252"/>
<text text-anchor="middle" x="340" y="-230.3" font-family="Times,serif" font-size="14.00">Policies.UCBV</text>
</g>
<!-- 9&#45;&gt;23 -->
<g id="edge21" class="edge"><title>9&#45;&gt;23</title>
<path fill="none" stroke="black" d="M1184.17,-162.684C1078.3,-162.033 710.864,-163.8 400.651,-216.139"/>
<polygon fill="black" stroke="black" points="390.566,-217.862 399.665,-211.742 395.495,-217.02 400.423,-216.178 400.423,-216.178 400.423,-216.178 395.495,-217.02 401.181,-220.614 390.566,-217.862 390.566,-217.862"/>
</g>
<!-- 24 -->
<g id="node25" class="node"><title>24</title>
<polygon fill="none" stroke="black" points="529,-252 409,-252 409,-216 529,-216 529,-252"/>
<text text-anchor="middle" x="469" y="-230.3" font-family="Times,serif" font-size="14.00">Policies.UCBalpha</text>
</g>
<!-- 9&#45;&gt;24 -->
<g id="edge22" class="edge"><title>9&#45;&gt;24</title>
<path fill="none" stroke="black" d="M1184.48,-163.596C1091.1,-165.843 793.818,-175.762 539.271,-215.955"/>
<polygon fill="black" stroke="black" points="529.092,-217.582 538.256,-211.56 534.029,-216.793 538.967,-216.003 538.967,-216.003 538.967,-216.003 534.029,-216.793 539.677,-220.447 529.092,-217.582 529.092,-217.582"/>
</g>
<!-- 25 -->
<g id="node26" class="node"><title>25</title>
<polygon fill="none" stroke="black" points="1765.5,-252 1664.5,-252 1664.5,-216 1765.5,-216 1765.5,-252"/>
<text text-anchor="middle" x="1715" y="-230.3" font-family="Times,serif" font-size="14.00">Policies.klUCB</text>
</g>
<!-- 9&#45;&gt;25 -->
<g id="edge23" class="edge"><title>9&#45;&gt;25</title>
<path fill="none" stroke="black" d="M1243.89,-177.168C1246.93,-178.259 1249.99,-179.232 1253,-180 1424.08,-223.699 1477.32,-184.428 1654.4,-215.913"/>
<polygon fill="black" stroke="black" points="1664.3,-217.724 1653.65,-220.351 1659.38,-216.824 1654.46,-215.925 1654.46,-215.925 1654.46,-215.925 1659.38,-216.824 1655.27,-211.498 1664.3,-217.724 1664.3,-217.724"/>
</g>
<!-- 13 -->
<g id="node14" class="node"><title>13</title>
<polygon fill="none" stroke="black" points="2030,-324 1942,-324 1942,-288 2030,-288 2030,-324"/>
<text text-anchor="middle" x="1986" y="-302.3" font-family="Times,serif" font-size="14.00">Policies.Beta</text>
</g>
<!-- 10&#45;&gt;13 -->
<g id="edge24" class="edge"><title>10&#45;&gt;13</title>
<path fill="none" stroke="black" d="M2092.51,-252.124C2073.56,-261.531 2049.87,-273.292 2029.64,-283.333"/>
<polygon fill="black" stroke="black" points="2020.63,-287.81 2027.58,-279.333 2025.1,-285.587 2029.58,-283.363 2029.58,-283.363 2029.58,-283.363 2025.1,-285.587 2031.58,-287.394 2020.63,-287.81 2020.63,-287.81"/>
</g>
<!-- 12&#45;&gt;13 -->
<g id="edge25" class="edge"><title>12&#45;&gt;13</title>
<path fill="none" stroke="black" d="M1986,-252.303C1986,-260.017 1986,-269.288 1986,-277.888"/>
<polygon fill="black" stroke="black" points="1986,-287.896 1981.5,-277.896 1986,-282.896 1986,-277.896 1986,-277.896 1986,-277.896 1986,-282.896 1990.5,-277.896 1986,-287.896 1986,-287.896"/>
</g>
<!-- 18 -->
<g id="node19" class="node"><title>18</title>
<polygon fill="none" stroke="black" points="1132,-324 1004,-324 1004,-288 1132,-288 1132,-324"/>
<text text-anchor="middle" x="1068" y="-302.3" font-family="Times,serif" font-size="14.00">Policies.IndexPolicy</text>
</g>
<!-- 12&#45;&gt;18 -->
<g id="edge26" class="edge"><title>12&#45;&gt;18</title>
<path fill="none" stroke="black" d="M1923.78,-250.539C1920.82,-251.076 1917.88,-251.568 1915,-252 1631.83,-294.435 1290.48,-302.985 1142.47,-304.642"/>
<polygon fill="black" stroke="black" points="1132.15,-304.75 1142.1,-300.146 1137.15,-304.698 1142.15,-304.646 1142.15,-304.646 1142.15,-304.646 1137.15,-304.698 1142.19,-309.145 1132.15,-304.75 1132.15,-304.75"/>
</g>
<!-- 15&#45;&gt;18 -->
<g id="edge27" class="edge"><title>15&#45;&gt;18</title>
<path fill="none" stroke="black" d="M1068,-252.303C1068,-260.017 1068,-269.288 1068,-277.888"/>
<polygon fill="black" stroke="black" points="1068,-287.896 1063.5,-277.896 1068,-282.896 1068,-277.896 1068,-277.896 1068,-277.896 1068,-282.896 1072.5,-277.896 1068,-287.896 1068,-287.896"/>
</g>
<!-- 16&#45;&gt;18 -->
<g id="edge28" class="edge"><title>16&#45;&gt;18</title>
<path fill="none" stroke="black" d="M838.52,-250.362C884.362,-261.277 946.028,-275.959 993.891,-287.355"/>
<polygon fill="black" stroke="black" points="1003.88,-289.734 993.114,-291.796 999.02,-288.576 994.156,-287.418 994.156,-287.418 994.156,-287.418 999.02,-288.576 995.198,-283.04 1003.88,-289.734 1003.88,-289.734"/>
</g>
<!-- 17&#45;&gt;18 -->
<g id="edge29" class="edge"><title>17&#45;&gt;18</title>
<path fill="none" stroke="black" d="M691.391,-250.258C694.635,-250.863 697.85,-251.447 701,-252 801.978,-269.742 919.353,-285.921 993.644,-295.615"/>
<polygon fill="black" stroke="black" points="1003.83,-296.94 993.337,-300.113 998.876,-296.295 993.917,-295.651 993.917,-295.651 993.917,-295.651 998.876,-296.295 994.497,-291.188 1003.83,-296.94 1003.83,-296.94"/>
</g>
<!-- 19&#45;&gt;18 -->
<g id="edge30" class="edge"><title>19&#45;&gt;18</title>
<path fill="none" stroke="black" d="M1513.41,-250.464C1510.58,-251.006 1507.76,-251.521 1505,-252 1378.43,-273.961 1229.66,-289.933 1142.42,-298.312"/>
<polygon fill="black" stroke="black" points="1132.35,-299.272 1141.88,-293.843 1137.33,-298.797 1142.31,-298.323 1142.31,-298.323 1142.31,-298.323 1137.33,-298.797 1142.73,-302.803 1132.35,-299.272 1132.35,-299.272"/>
</g>
<!-- 26 -->
<g id="node27" class="node"><title>26</title>
<polygon fill="none" stroke="black" points="1702,-324 1592,-324 1592,-288 1702,-288 1702,-324"/>
<text text-anchor="middle" x="1647" y="-302.3" font-family="Times,serif" font-size="14.00">Policies.kullback</text>
</g>
<!-- 19&#45;&gt;26 -->
<g id="edge31" class="edge"><title>19&#45;&gt;26</title>
<path fill="none" stroke="black" d="M1596.56,-252.303C1604.68,-260.78 1614.59,-271.136 1623.47,-280.417"/>
<polygon fill="black" stroke="black" points="1630.63,-287.896 1620.46,-283.783 1627.17,-284.284 1623.71,-280.671 1623.71,-280.671 1623.71,-280.671 1627.17,-284.284 1626.97,-277.56 1630.63,-287.896 1630.63,-287.896"/>
</g>
<!-- 20&#45;&gt;18 -->
<g id="edge32" class="edge"><title>20&#45;&gt;18</title>
<path fill="none" stroke="black" d="M950.162,-252.124C971.393,-261.651 998.008,-273.593 1020.57,-283.717"/>
<polygon fill="black" stroke="black" points="1029.96,-287.932 1019,-287.943 1025.4,-285.885 1020.84,-283.838 1020.84,-283.838 1020.84,-283.838 1025.4,-285.885 1022.68,-279.732 1029.96,-287.932 1029.96,-287.932"/>
</g>
<!-- 21&#45;&gt;13 -->
<g id="edge33" class="edge"><title>21&#45;&gt;13</title>
<path fill="none" stroke="black" d="M1879.49,-252.124C1898.44,-261.531 1922.13,-273.292 1942.36,-283.333"/>
<polygon fill="black" stroke="black" points="1951.37,-287.81 1940.42,-287.394 1946.9,-285.587 1942.42,-283.363 1942.42,-283.363 1942.42,-283.363 1946.9,-285.587 1944.42,-279.333 1951.37,-287.81 1951.37,-287.81"/>
</g>
<!-- 21&#45;&gt;18 -->
<g id="edge34" class="edge"><title>21&#45;&gt;18</title>
<path fill="none" stroke="black" d="M1783.65,-250.499C1780.74,-251.047 1777.84,-251.552 1775,-252 1546.24,-288.105 1271.83,-299.767 1142.45,-303.413"/>
<polygon fill="black" stroke="black" points="1132.26,-303.692 1142.13,-298.92 1137.26,-303.555 1142.26,-303.418 1142.26,-303.418 1142.26,-303.418 1137.26,-303.555 1142.38,-307.917 1132.26,-303.692 1132.26,-303.692"/>
</g>
<!-- 22&#45;&gt;18 -->
<g id="edge35" class="edge"><title>22&#45;&gt;18</title>
<path fill="none" stroke="black" d="M1404.46,-249.845C1401.61,-250.617 1398.77,-251.343 1396,-252 1309.78,-272.425 1208.93,-287.421 1142.05,-296.149"/>
<polygon fill="black" stroke="black" points="1132.03,-297.444 1141.37,-291.7 1136.99,-296.804 1141.95,-296.163 1141.95,-296.163 1141.95,-296.163 1136.99,-296.804 1142.52,-300.626 1132.03,-297.444 1132.03,-297.444"/>
</g>
<!-- 23&#45;&gt;18 -->
<g id="edge36" class="edge"><title>23&#45;&gt;18</title>
<path fill="none" stroke="black" d="M390.575,-250.086C393.75,-250.798 396.91,-251.445 400,-252 613.283,-290.29 869.833,-300.919 993.778,-303.868"/>
<polygon fill="black" stroke="black" points="1003.91,-304.099 993.813,-308.37 998.914,-303.985 993.916,-303.871 993.916,-303.871 993.916,-303.871 998.914,-303.985 994.018,-299.372 1003.91,-304.099 1003.91,-304.099"/>
</g>
<!-- 24&#45;&gt;18 -->
<g id="edge37" class="edge"><title>24&#45;&gt;18</title>
<path fill="none" stroke="black" d="M529.105,-250.341C532.105,-250.939 535.082,-251.497 538,-252 699.231,-279.779 890.75,-294.476 993.684,-300.905"/>
<polygon fill="black" stroke="black" points="1003.97,-301.538 993.713,-305.415 998.98,-301.231 993.99,-300.923 993.99,-300.923 993.99,-300.923 998.98,-301.231 994.266,-296.432 1003.97,-301.538 1003.97,-301.538"/>
</g>
<!-- 25&#45;&gt;18 -->
<g id="edge38" class="edge"><title>25&#45;&gt;18</title>
<path fill="none" stroke="black" d="M1664.3,-250.274C1661.5,-250.908 1658.72,-251.49 1656,-252 1473.31,-286.229 1254.4,-298.559 1142.25,-302.84"/>
<polygon fill="black" stroke="black" points="1132.06,-303.217 1141.89,-298.35 1137.06,-303.032 1142.06,-302.847 1142.06,-302.847 1142.06,-302.847 1137.06,-303.032 1142.22,-307.344 1132.06,-303.217 1132.06,-303.217"/>
</g>
<!-- 25&#45;&gt;26 -->
<g id="edge39" class="edge"><title>25&#45;&gt;26</title>
<path fill="none" stroke="black" d="M1698.19,-252.303C1689.87,-260.865 1679.69,-271.344 1670.61,-280.696"/>
<polygon fill="black" stroke="black" points="1663.62,-287.896 1667.36,-277.587 1667.1,-284.309 1670.58,-280.723 1670.58,-280.723 1670.58,-280.723 1667.1,-284.309 1673.81,-283.858 1663.62,-287.896 1663.62,-287.896"/>
</g>
<!-- 27 -->
<g id="node28" class="node"><title>27</title>
<polygon fill="none" stroke="black" points="1258.5,-108 1169.5,-108 1169.5,-72 1258.5,-72 1258.5,-108"/>
<text text-anchor="middle" x="1214" y="-86.3" font-family="Times,serif" font-size="14.00">configuration</text>
</g>
<!-- 27&#45;&gt;1 -->
<g id="edge40" class="edge"><title>27&#45;&gt;1</title>
<path fill="none" stroke="black" d="M1238.22,-108.124C1250.92,-117.107 1266.66,-128.237 1280.42,-137.966"/>
<polygon fill="black" stroke="black" points="1288.69,-143.81 1277.93,-141.711 1284.61,-140.924 1280.52,-138.037 1280.52,-138.037 1280.52,-138.037 1284.61,-140.924 1283.12,-134.363 1288.69,-143.81 1288.69,-143.81"/>
</g>
<!-- 27&#45;&gt;9 -->
<g id="edge41" class="edge"><title>27&#45;&gt;9</title>
<path fill="none" stroke="black" d="M1214,-108.303C1214,-116.017 1214,-125.288 1214,-133.888"/>
<polygon fill="black" stroke="black" points="1214,-143.896 1209.5,-133.896 1214,-138.896 1214,-133.896 1214,-133.896 1214,-133.896 1214,-138.896 1218.5,-133.896 1214,-143.896 1214,-143.896"/>
</g>
<!-- 28 -->
<g id="node29" class="node"><title>28</title>
<polygon fill="none" stroke="black" points="199,-36 145,-36 145,-0 199,-0 199,-36"/>
<text text-anchor="middle" x="172" y="-14.3" font-family="Times,serif" font-size="14.00">main</text>
</g>
<!-- 28&#45;&gt;5 -->
<g id="edge42" class="edge"><title>28&#45;&gt;5</title>
<path fill="none" stroke="black" d="M172,-36.3034C172,-44.0173 172,-53.2875 172,-61.8876"/>
<polygon fill="black" stroke="black" points="172,-71.8957 167.5,-61.8956 172,-66.8957 172,-61.8957 172,-61.8957 172,-61.8957 172,-66.8957 176.5,-61.8957 172,-71.8957 172,-71.8957"/>
</g>
<!-- 28&#45;&gt;6 -->
<g id="edge43" class="edge"><title>28&#45;&gt;6</title>
<path fill="none" stroke="black" d="M152.155,-36.1491C141.519,-45.9679 128.657,-58.9109 119,-72 104.579,-91.5469 91.9604,-116.109 83.4395,-134.476"/>
<polygon fill="black" stroke="black" points="79.2556,-143.713 79.2824,-132.747 81.3186,-139.158 83.3815,-134.604 83.3815,-134.604 83.3815,-134.604 81.3186,-139.158 87.4807,-136.46 79.2556,-143.713 79.2556,-143.713"/>
</g>
<!-- 28&#45;&gt;27 -->
<g id="edge44" class="edge"><title>28&#45;&gt;27</title>
<path fill="none" stroke="black" d="M199.069,-20.8185C337.644,-30.1277 968.507,-72.5082 1159.23,-85.3204"/>
<polygon fill="black" stroke="black" points="1169.3,-85.9972 1159.02,-89.8167 1164.31,-85.662 1159.32,-85.3268 1159.32,-85.3268 1159.32,-85.3268 1164.31,-85.662 1159.62,-80.8369 1169.3,-85.9972 1169.3,-85.9972"/>
</g>
</g>
</svg>
