<?xml version="1.0" encoding="UTF-8" standalone="no"?>
<!DOCTYPE svg PUBLIC "-//W3C//DTD SVG 1.1//EN"
 "http://www.w3.org/Graphics/SVG/1.1/DTD/svg11.dtd">
<!-- Generated by graphviz version 2.38.0 (20140413.2041)
 -->
<!-- Title: packages_AlgoBandits Pages: 1 -->
<svg width="7071pt" height="548pt"
 viewBox="0.00 0.00 7071.00 548.00" xmlns="http://www.w3.org/2000/svg" xmlns:xlink="http://www.w3.org/1999/xlink">
<g id="graph0" class="graph" transform="scale(1 1) rotate(0) translate(4 544)">
<title>packages_AlgoBandits</title>
<polygon fill="white" stroke="none" points="-4,4 -4,-544 7067,-544 7067,4 -4,4"/>
<!-- 0 -->
<g id="node1" class="node"><title>0</title>
<polygon fill="none" stroke="black" points="3765.5,-180 3711.5,-180 3711.5,-144 3765.5,-144 3765.5,-180"/>
<text text-anchor="middle" x="3738.5" y="-158.3" font-family="Times,serif" font-size="14.00">Arms</text>
</g>
<!-- 2 -->
<g id="node3" class="node"><title>2</title>
<polygon fill="none" stroke="black" points="3754.5,-252 3652.5,-252 3652.5,-216 3754.5,-216 3754.5,-252"/>
<text text-anchor="middle" x="3703.5" y="-230.3" font-family="Times,serif" font-size="14.00">Arms.Bernoulli</text>
</g>
<!-- 0&#45;&gt;2 -->
<g id="edge1" class="edge"><title>0&#45;&gt;2</title>
<path fill="none" stroke="black" d="M3729.85,-180.303C3725.86,-188.272 3721.05,-197.9 3716.63,-206.736"/>
<polygon fill="black" stroke="black" points="3712.05,-215.896 3712.5,-204.939 3714.29,-211.424 3716.52,-206.951 3716.52,-206.951 3716.52,-206.951 3714.29,-211.424 3720.55,-208.964 3712.05,-215.896 3712.05,-215.896"/>
</g>
<!-- 3 -->
<g id="node4" class="node"><title>3</title>
<polygon fill="none" stroke="black" points="3888.5,-252 3772.5,-252 3772.5,-216 3888.5,-216 3888.5,-252"/>
<text text-anchor="middle" x="3830.5" y="-230.3" font-family="Times,serif" font-size="14.00">Arms.Exponential</text>
</g>
<!-- 0&#45;&gt;3 -->
<g id="edge2" class="edge"><title>0&#45;&gt;3</title>
<path fill="none" stroke="black" d="M3761.24,-180.303C3772.94,-189.204 3787.36,-200.177 3800.01,-209.801"/>
<polygon fill="black" stroke="black" points="3808.02,-215.896 3797.34,-213.422 3804.04,-212.868 3800.06,-209.84 3800.06,-209.84 3800.06,-209.84 3804.04,-212.868 3802.79,-206.259 3808.02,-215.896 3808.02,-215.896"/>
</g>
<!-- 4 -->
<g id="node5" class="node"><title>4</title>
<polygon fill="none" stroke="black" points="3518,-252 3417,-252 3417,-216 3518,-216 3518,-252"/>
<text text-anchor="middle" x="3467.5" y="-230.3" font-family="Times,serif" font-size="14.00">Arms.Gaussian</text>
</g>
<!-- 0&#45;&gt;4 -->
<g id="edge3" class="edge"><title>0&#45;&gt;4</title>
<path fill="none" stroke="black" d="M3711.45,-169.518C3672.97,-178.852 3599.99,-196.775 3527.91,-215.93"/>
<polygon fill="black" stroke="black" points="3518.21,-218.517 3526.71,-211.592 3523.04,-217.228 3527.87,-215.94 3527.87,-215.94 3527.87,-215.94 3523.04,-217.228 3529.03,-220.288 3518.21,-218.517 3518.21,-218.517"/>
</g>
<!-- 5 -->
<g id="node6" class="node"><title>5</title>
<polygon fill="none" stroke="black" points="4000,-252 3907,-252 3907,-216 4000,-216 4000,-252"/>
<text text-anchor="middle" x="3953.5" y="-230.3" font-family="Times,serif" font-size="14.00">Arms.Poisson</text>
</g>
<!-- 0&#45;&gt;5 -->
<g id="edge4" class="edge"><title>0&#45;&gt;5</title>
<path fill="none" stroke="black" d="M3765.73,-171.866C3798.65,-182.583 3854.89,-200.895 3897.26,-214.69"/>
<polygon fill="black" stroke="black" points="3906.89,-217.826 3895.99,-219.009 3902.14,-216.278 3897.39,-214.73 3897.39,-214.73 3897.39,-214.73 3902.14,-216.278 3898.78,-210.451 3906.89,-217.826 3906.89,-217.826"/>
</g>
<!-- 6 -->
<g id="node7" class="node"><title>6</title>
<polygon fill="none" stroke="black" points="3634.5,-252 3536.5,-252 3536.5,-216 3634.5,-216 3634.5,-252"/>
<text text-anchor="middle" x="3585.5" y="-230.3" font-family="Times,serif" font-size="14.00">Arms.Uniform</text>
</g>
<!-- 0&#45;&gt;6 -->
<g id="edge5" class="edge"><title>0&#45;&gt;6</title>
<path fill="none" stroke="black" d="M3711.5,-175.353C3689.57,-185.386 3658.13,-199.769 3632.15,-211.658"/>
<polygon fill="black" stroke="black" points="3622.85,-215.913 3630.07,-207.66 3627.39,-213.833 3631.94,-211.752 3631.94,-211.752 3631.94,-211.752 3627.39,-213.833 3633.81,-215.844 3622.85,-215.913 3622.85,-215.913"/>
</g>
<!-- 1 -->
<g id="node2" class="node"><title>1</title>
<polygon fill="none" stroke="black" points="3742,-324 3665,-324 3665,-288 3742,-288 3742,-324"/>
<text text-anchor="middle" x="3703.5" y="-302.3" font-family="Times,serif" font-size="14.00">Arms.Arm</text>
</g>
<!-- 2&#45;&gt;1 -->
<g id="edge6" class="edge"><title>2&#45;&gt;1</title>
<path fill="none" stroke="black" d="M3703.5,-252.303C3703.5,-260.017 3703.5,-269.288 3703.5,-277.888"/>
<polygon fill="black" stroke="black" points="3703.5,-287.896 3699,-277.896 3703.5,-282.896 3703.5,-277.896 3703.5,-277.896 3703.5,-277.896 3703.5,-282.896 3708,-277.896 3703.5,-287.896 3703.5,-287.896"/>
</g>
<!-- 7 -->
<g id="node8" class="node"><title>7</title>
<polygon fill="none" stroke="black" points="3869.5,-324 3771.5,-324 3771.5,-288 3869.5,-288 3869.5,-324"/>
<text text-anchor="middle" x="3820.5" y="-302.3" font-family="Times,serif" font-size="14.00">Arms.kullback</text>
</g>
<!-- 2&#45;&gt;7 -->
<g id="edge7" class="edge"><title>2&#45;&gt;7</title>
<path fill="none" stroke="black" d="M3732.12,-252.124C3747.42,-261.276 3766.44,-272.658 3782.92,-282.515"/>
<polygon fill="black" stroke="black" points="3791.77,-287.81 3780.88,-286.538 3787.48,-285.243 3783.19,-282.676 3783.19,-282.676 3783.19,-282.676 3787.48,-285.243 3785.5,-278.814 3791.77,-287.81 3791.77,-287.81"/>
</g>
<!-- 3&#45;&gt;1 -->
<g id="edge8" class="edge"><title>3&#45;&gt;1</title>
<path fill="none" stroke="black" d="M3799.43,-252.124C3782.67,-261.361 3761.79,-272.869 3743.8,-282.788"/>
<polygon fill="black" stroke="black" points="3734.69,-287.81 3741.27,-279.042 3739.07,-285.397 3743.44,-282.983 3743.44,-282.983 3743.44,-282.983 3739.07,-285.397 3745.62,-286.924 3734.69,-287.81 3734.69,-287.81"/>
</g>
<!-- 3&#45;&gt;7 -->
<g id="edge9" class="edge"><title>3&#45;&gt;7</title>
<path fill="none" stroke="black" d="M3828.03,-252.303C3826.93,-260.017 3825.6,-269.288 3824.37,-277.888"/>
<polygon fill="black" stroke="black" points="3822.94,-287.896 3819.9,-277.36 3823.65,-282.946 3824.36,-277.996 3824.36,-277.996 3824.36,-277.996 3823.65,-282.946 3828.81,-278.633 3822.94,-287.896 3822.94,-287.896"/>
</g>
<!-- 4&#45;&gt;1 -->
<g id="edge10" class="edge"><title>4&#45;&gt;1</title>
<path fill="none" stroke="black" d="M3518.13,-250.017C3558.71,-262.053 3615.27,-278.83 3655.22,-290.679"/>
<polygon fill="black" stroke="black" points="3664.99,-293.579 3654.13,-295.049 3660.2,-292.157 3655.41,-290.735 3655.41,-290.735 3655.41,-290.735 3660.2,-292.157 3656.69,-286.421 3664.99,-293.579 3664.99,-293.579"/>
</g>
<!-- 4&#45;&gt;7 -->
<g id="edge11" class="edge"><title>4&#45;&gt;7</title>
<path fill="none" stroke="black" d="M3518.13,-249.793C3521.29,-250.577 3524.43,-251.321 3527.5,-252 3625.52,-273.72 3652.09,-268.138 3750.5,-288 3754.08,-288.723 3757.76,-289.502 3761.46,-290.316"/>
<polygon fill="black" stroke="black" points="3771.27,-292.534 3760.53,-294.719 3766.4,-291.431 3761.52,-290.329 3761.52,-290.329 3761.52,-290.329 3766.4,-291.431 3762.51,-285.94 3771.27,-292.534 3771.27,-292.534"/>
</g>
<!-- 5&#45;&gt;1 -->
<g id="edge12" class="edge"><title>5&#45;&gt;1</title>
<path fill="none" stroke="black" d="M3906.78,-249.312C3903.65,-250.233 3900.53,-251.137 3897.5,-252 3837.78,-269.021 3822.34,-271.403 3762.5,-288 3759.11,-288.94 3755.61,-289.921 3752.1,-290.915"/>
<polygon fill="black" stroke="black" points="3742.19,-293.733 3750.57,-286.669 3747,-292.365 3751.81,-290.997 3751.81,-290.997 3751.81,-290.997 3747,-292.365 3753.04,-295.325 3742.19,-293.733 3742.19,-293.733"/>
</g>
<!-- 5&#45;&gt;7 -->
<g id="edge13" class="edge"><title>5&#45;&gt;7</title>
<path fill="none" stroke="black" d="M3920.96,-252.124C3903.25,-261.446 3881.15,-273.081 3862.18,-283.061"/>
<polygon fill="black" stroke="black" points="3853.16,-287.81 3859.91,-279.171 3857.59,-285.481 3862.01,-283.153 3862.01,-283.153 3862.01,-283.153 3857.59,-285.481 3864.11,-287.135 3853.16,-287.81 3853.16,-287.81"/>
</g>
<!-- 6&#45;&gt;1 -->
<g id="edge14" class="edge"><title>6&#45;&gt;1</title>
<path fill="none" stroke="black" d="M3614.37,-252.124C3629.79,-261.276 3648.98,-272.658 3665.6,-282.515"/>
<polygon fill="black" stroke="black" points="3674.52,-287.81 3663.63,-286.578 3670.22,-285.259 3665.92,-282.708 3665.92,-282.708 3665.92,-282.708 3670.22,-285.259 3668.22,-278.838 3674.52,-287.81 3674.52,-287.81"/>
</g>
<!-- 8 -->
<g id="node9" class="node"><title>8</title>
<polygon fill="none" stroke="black" points="4306.5,-108 4218.5,-108 4218.5,-72 4306.5,-72 4306.5,-108"/>
<text text-anchor="middle" x="4262.5" y="-86.3" font-family="Times,serif" font-size="14.00">Environment</text>
</g>
<!-- 10 -->
<g id="node11" class="node"><title>10</title>
<polygon fill="none" stroke="black" points="4193.5,-180 4049.5,-180 4049.5,-144 4193.5,-144 4193.5,-180"/>
<text text-anchor="middle" x="4121.5" y="-158.3" font-family="Times,serif" font-size="14.00">Environment.Evaluator</text>
</g>
<!-- 8&#45;&gt;10 -->
<g id="edge15" class="edge"><title>8&#45;&gt;10</title>
<path fill="none" stroke="black" d="M4228.01,-108.124C4209.06,-117.531 4185.37,-129.292 4165.14,-139.333"/>
<polygon fill="black" stroke="black" points="4156.13,-143.81 4163.08,-135.333 4160.6,-141.587 4165.08,-139.363 4165.08,-139.363 4165.08,-139.363 4160.6,-141.587 4167.08,-143.394 4156.13,-143.81 4156.13,-143.81"/>
</g>
<!-- 11 -->
<g id="node12" class="node"><title>11</title>
<polygon fill="none" stroke="black" points="4634,-180 4419,-180 4419,-144 4634,-144 4634,-180"/>
<text text-anchor="middle" x="4526.5" y="-158.3" font-family="Times,serif" font-size="14.00">Environment.EvaluatorMultiPlayers</text>
</g>
<!-- 8&#45;&gt;11 -->
<g id="edge16" class="edge"><title>8&#45;&gt;11</title>
<path fill="none" stroke="black" d="M4306.69,-102.716C4346.43,-113.254 4405.6,-128.944 4452.55,-141.392"/>
<polygon fill="black" stroke="black" points="4462.37,-143.996 4451.55,-145.782 4457.54,-142.714 4452.7,-141.433 4452.7,-141.433 4452.7,-141.433 4457.54,-142.714 4453.86,-137.083 4462.37,-143.996 4462.37,-143.996"/>
</g>
<!-- 12 -->
<g id="node13" class="node"><title>12</title>
<polygon fill="none" stroke="black" points="4324,-252 4201,-252 4201,-216 4324,-216 4324,-252"/>
<text text-anchor="middle" x="4262.5" y="-230.3" font-family="Times,serif" font-size="14.00">Environment.MAB</text>
</g>
<!-- 8&#45;&gt;12 -->
<g id="edge17" class="edge"><title>8&#45;&gt;12</title>
<path fill="none" stroke="black" d="M4262.5,-108.129C4262.5,-132.33 4262.5,-176.789 4262.5,-205.607"/>
<polygon fill="black" stroke="black" points="4262.5,-215.811 4258,-205.811 4262.5,-210.811 4262.5,-205.811 4262.5,-205.811 4262.5,-205.811 4262.5,-210.811 4267,-205.811 4262.5,-215.811 4262.5,-215.811"/>
</g>
<!-- 13 -->
<g id="node14" class="node"><title>13</title>
<polygon fill="none" stroke="black" points="4182.5,-252 4056.5,-252 4056.5,-216 4182.5,-216 4182.5,-252"/>
<text text-anchor="middle" x="4119.5" y="-230.3" font-family="Times,serif" font-size="14.00">Environment.Result</text>
</g>
<!-- 8&#45;&gt;13 -->
<g id="edge18" class="edge"><title>8&#45;&gt;13</title>
<path fill="none" stroke="black" d="M4253.68,-108.257C4243.3,-127.391 4224.64,-158.4 4202.5,-180 4190.55,-191.654 4175.65,-202.126 4161.78,-210.624"/>
<polygon fill="black" stroke="black" points="4152.86,-215.915 4159.16,-206.944 4157.16,-213.365 4161.46,-210.814 4161.46,-210.814 4161.46,-210.814 4157.16,-213.365 4163.75,-214.685 4152.86,-215.915 4152.86,-215.915"/>
</g>
<!-- 14 -->
<g id="node15" class="node"><title>14</title>
<polygon fill="none" stroke="black" points="4578,-252 4381,-252 4381,-216 4578,-216 4578,-252"/>
<text text-anchor="middle" x="4479.5" y="-230.3" font-family="Times,serif" font-size="14.00">Environment.ResultMultiPlayers</text>
</g>
<!-- 8&#45;&gt;14 -->
<g id="edge19" class="edge"><title>8&#45;&gt;14</title>
<path fill="none" stroke="black" d="M4301.2,-108.155C4321.29,-117.689 4345.88,-130.365 4366.5,-144 4387.29,-157.746 4390,-164.473 4409.5,-180 4422,-189.953 4436,-200.64 4448.17,-209.792"/>
<polygon fill="black" stroke="black" points="4456.27,-215.855 4445.57,-213.463 4452.26,-212.858 4448.26,-209.861 4448.26,-209.861 4448.26,-209.861 4452.26,-212.858 4450.96,-206.259 4456.27,-215.855 4456.27,-215.855"/>
</g>
<!-- 15 -->
<g id="node16" class="node"><title>15</title>
<polygon fill="none" stroke="black" points="4384.5,-324 4230.5,-324 4230.5,-288 4384.5,-288 4384.5,-324"/>
<text text-anchor="middle" x="4307.5" y="-302.3" font-family="Times,serif" font-size="14.00">Environment.plotsettings</text>
</g>
<!-- 8&#45;&gt;15 -->
<g id="edge20" class="edge"><title>8&#45;&gt;15</title>
<path fill="none" stroke="black" d="M4276.08,-108.37C4293.16,-131.426 4321.57,-174.124 4332.5,-216 4336.54,-231.482 4336,-236.387 4332.5,-252 4330.49,-260.991 4326.77,-270.253 4322.8,-278.47"/>
<polygon fill="black" stroke="black" points="4318.13,-287.556 4318.7,-276.605 4320.41,-283.111 4322.7,-278.666 4322.7,-278.666 4322.7,-278.666 4320.41,-283.111 4326.7,-280.726 4318.13,-287.556 4318.13,-287.556"/>
</g>
<!-- 9 -->
<g id="node10" class="node"><title>9</title>
<polygon fill="none" stroke="black" points="4816.5,-252 4634.5,-252 4634.5,-216 4816.5,-216 4816.5,-252"/>
<text text-anchor="middle" x="4725.5" y="-230.3" font-family="Times,serif" font-size="14.00">Environment.CollisionModels</text>
</g>
<!-- 10&#45;&gt;12 -->
<g id="edge21" class="edge"><title>10&#45;&gt;12</title>
<path fill="none" stroke="black" d="M4155.99,-180.124C4174.94,-189.531 4198.63,-201.292 4218.86,-211.333"/>
<polygon fill="black" stroke="black" points="4227.87,-215.81 4216.92,-215.394 4223.4,-213.587 4218.92,-211.363 4218.92,-211.363 4218.92,-211.363 4223.4,-213.587 4220.92,-207.333 4227.87,-215.81 4227.87,-215.81"/>
</g>
<!-- 10&#45;&gt;13 -->
<g id="edge22" class="edge"><title>10&#45;&gt;13</title>
<path fill="none" stroke="black" d="M4121.01,-180.303C4120.79,-188.017 4120.52,-197.288 4120.27,-205.888"/>
<polygon fill="black" stroke="black" points="4119.99,-215.896 4115.78,-205.771 4120.13,-210.898 4120.27,-205.9 4120.27,-205.9 4120.27,-205.9 4120.13,-210.898 4124.77,-206.028 4119.99,-215.896 4119.99,-215.896"/>
</g>
<!-- 10&#45;&gt;15 -->
<g id="edge23" class="edge"><title>10&#45;&gt;15</title>
<path fill="none" stroke="black" d="M4084.11,-180.202C4069.96,-188.797 4055.37,-200.679 4047.5,-216 4040.19,-230.231 4037.38,-239.608 4047.5,-252 4069.15,-278.514 4153.3,-292.105 4220.07,-298.843"/>
<polygon fill="black" stroke="black" points="4230.21,-299.827 4219.82,-303.339 4225.23,-299.344 4220.25,-298.86 4220.25,-298.86 4220.25,-298.86 4225.23,-299.344 4220.69,-294.381 4230.21,-299.827 4230.21,-299.827"/>
</g>
<!-- 11&#45;&gt;9 -->
<g id="edge24" class="edge"><title>11&#45;&gt;9</title>
<path fill="none" stroke="black" d="M4574.93,-180.034C4602.73,-189.815 4637.84,-202.164 4667.15,-212.476"/>
<polygon fill="black" stroke="black" points="4676.86,-215.889 4665.93,-216.816 4672.14,-214.23 4667.42,-212.571 4667.42,-212.571 4667.42,-212.571 4672.14,-214.23 4668.92,-208.326 4676.86,-215.889 4676.86,-215.889"/>
</g>
<!-- 11&#45;&gt;12 -->
<g id="edge25" class="edge"><title>11&#45;&gt;12</title>
<path fill="none" stroke="black" d="M4462.26,-180.034C4423.48,-190.316 4374,-203.435 4333.99,-214.044"/>
<polygon fill="black" stroke="black" points="4324.3,-216.614 4332.81,-209.701 4329.13,-215.332 4333.97,-214.051 4333.97,-214.051 4333.97,-214.051 4329.13,-215.332 4335.12,-218.401 4324.3,-216.614 4324.3,-216.614"/>
</g>
<!-- 11&#45;&gt;14 -->
<g id="edge26" class="edge"><title>11&#45;&gt;14</title>
<path fill="none" stroke="black" d="M4514.88,-180.303C4509.36,-188.526 4502.65,-198.517 4496.57,-207.579"/>
<polygon fill="black" stroke="black" points="4490.98,-215.896 4492.82,-205.085 4493.77,-211.745 4496.56,-207.593 4496.56,-207.593 4496.56,-207.593 4493.77,-211.745 4500.29,-210.102 4490.98,-215.896 4490.98,-215.896"/>
</g>
<!-- 11&#45;&gt;15 -->
<g id="edge27" class="edge"><title>11&#45;&gt;15</title>
<path fill="none" stroke="black" d="M4552.07,-180.056C4576.55,-198.471 4607.1,-228.343 4587.5,-252 4563.31,-281.2 4467.69,-294.434 4394.87,-300.353"/>
<polygon fill="black" stroke="black" points="4384.75,-301.14 4394.37,-295.878 4389.74,-300.752 4394.72,-300.364 4394.72,-300.364 4394.72,-300.364 4389.74,-300.752 4395.07,-304.85 4384.75,-301.14 4384.75,-301.14"/>
</g>
<!-- 12&#45;&gt;15 -->
<g id="edge28" class="edge"><title>12&#45;&gt;15</title>
<path fill="none" stroke="black" d="M4273.62,-252.303C4278.86,-260.441 4285.2,-270.311 4290.98,-279.299"/>
<polygon fill="black" stroke="black" points="4296.5,-287.896 4287.31,-281.917 4293.8,-283.69 4291.1,-279.484 4291.1,-279.484 4291.1,-279.484 4293.8,-283.69 4294.88,-277.05 4296.5,-287.896 4296.5,-287.896"/>
</g>
<!-- 16 -->
<g id="node17" class="node"><title>16</title>
<polygon fill="none" stroke="black" points="1578,-180 1519,-180 1519,-144 1578,-144 1578,-180"/>
<text text-anchor="middle" x="1548.5" y="-158.3" font-family="Times,serif" font-size="14.00">Policies</text>
</g>
<!-- 17 -->
<g id="node18" class="node"><title>17</title>
<polygon fill="none" stroke="black" points="2474,-324 2353,-324 2353,-288 2474,-288 2474,-324"/>
<text text-anchor="middle" x="2413.5" y="-302.3" font-family="Times,serif" font-size="14.00">Policies.AdBandits</text>
</g>
<!-- 16&#45;&gt;17 -->
<g id="edge29" class="edge"><title>16&#45;&gt;17</title>
<path fill="none" stroke="black" d="M1578.1,-163.599C1731.03,-166.835 2425.65,-183.3 2456.5,-216 2473.86,-234.403 2456.96,-261.127 2439.51,-280.485"/>
<polygon fill="black" stroke="black" points="2432.61,-287.767 2436.22,-277.413 2436.05,-284.138 2439.49,-280.509 2439.49,-280.509 2439.49,-280.509 2436.05,-284.138 2442.75,-283.604 2432.61,-287.767 2432.61,-287.767"/>
</g>
<!-- 18 -->
<g id="node19" class="node"><title>18</title>
<polygon fill="none" stroke="black" points="2517,-468 2426,-468 2426,-432 2517,-432 2517,-468"/>
<text text-anchor="middle" x="2471.5" y="-446.3" font-family="Times,serif" font-size="14.00">Policies.Aggr</text>
</g>
<!-- 16&#45;&gt;18 -->
<g id="edge30" class="edge"><title>16&#45;&gt;18</title>
<path fill="none" stroke="black" d="M1578.11,-163.63C1732.7,-167.053 2441.19,-184.428 2474.5,-216 2530.69,-269.264 2501.19,-373.114 2482.72,-422.143"/>
<polygon fill="black" stroke="black" points="2478.98,-431.735 2478.42,-420.784 2480.79,-427.077 2482.61,-422.418 2482.61,-422.418 2482.61,-422.418 2480.79,-427.077 2486.8,-424.053 2478.98,-431.735 2478.98,-431.735"/>
</g>
<!-- 20 -->
<g id="node21" class="node"><title>20</title>
<polygon fill="none" stroke="black" points="2307.5,-252 2183.5,-252 2183.5,-216 2307.5,-216 2307.5,-252"/>
<text text-anchor="middle" x="2245.5" y="-230.3" font-family="Times,serif" font-size="14.00">Policies.BayesUCB</text>
</g>
<!-- 16&#45;&gt;20 -->
<g id="edge31" class="edge"><title>16&#45;&gt;20</title>
<path fill="none" stroke="black" d="M1578.03,-163.922C1666.77,-167.024 1938.9,-178.963 2173.2,-215.931"/>
<polygon fill="black" stroke="black" points="2183.27,-217.539 2172.68,-220.406 2178.33,-216.751 2173.39,-215.962 2173.39,-215.962 2173.39,-215.962 2178.33,-216.751 2174.1,-211.519 2183.27,-217.539 2183.27,-217.539"/>
</g>
<!-- 23 -->
<g id="node24" class="node"><title>23</title>
<polygon fill="none" stroke="black" points="3322,-252 3157,-252 3157,-216 3322,-216 3322,-252"/>
<text text-anchor="middle" x="3239.5" y="-230.3" font-family="Times,serif" font-size="14.00">Policies.EpsilonDecreasing</text>
</g>
<!-- 16&#45;&gt;23 -->
<g id="edge32" class="edge"><title>16&#45;&gt;23</title>
<path fill="none" stroke="black" d="M1578.24,-163.418C1768.94,-166.186 2822.33,-182.787 3142.5,-216 3143.82,-216.136 3145.14,-216.28 3146.47,-216.431"/>
<polygon fill="black" stroke="black" points="3156.79,-217.706 3146.32,-220.946 3151.83,-217.093 3146.87,-216.48 3146.87,-216.48 3146.87,-216.48 3151.83,-217.093 3147.42,-212.014 3156.79,-217.706 3156.79,-217.706"/>
</g>
<!-- 24 -->
<g id="node25" class="node"><title>24</title>
<polygon fill="none" stroke="black" points="2747.5,-252 2541.5,-252 2541.5,-216 2747.5,-216 2747.5,-252"/>
<text text-anchor="middle" x="2644.5" y="-230.3" font-family="Times,serif" font-size="14.00">Policies.EpsilonDecreasingMEGA</text>
</g>
<!-- 16&#45;&gt;24 -->
<g id="edge33" class="edge"><title>16&#45;&gt;24</title>
<path fill="none" stroke="black" d="M1578.21,-163.631C1697.61,-166.372 2154.02,-178.834 2527.5,-216 2528.62,-216.112 2529.75,-216.227 2530.89,-216.344"/>
<polygon fill="black" stroke="black" points="2541.21,-217.476 2530.78,-220.859 2536.24,-216.931 2531.27,-216.386 2531.27,-216.386 2531.27,-216.386 2536.24,-216.931 2531.76,-211.913 2541.21,-217.476 2541.21,-217.476"/>
</g>
<!-- 25 -->
<g id="node26" class="node"><title>25</title>
<polygon fill="none" stroke="black" points="2953,-252 2766,-252 2766,-216 2953,-216 2953,-252"/>
<text text-anchor="middle" x="2859.5" y="-230.3" font-family="Times,serif" font-size="14.00">Policies.EpsilonExpDecreasing</text>
</g>
<!-- 16&#45;&gt;25 -->
<g id="edge34" class="edge"><title>16&#45;&gt;25</title>
<path fill="none" stroke="black" d="M1578.03,-162.995C1712.46,-163.241 2280.16,-167.209 2755.66,-215.998"/>
<polygon fill="black" stroke="black" points="2765.82,-217.049 2755.41,-220.496 2760.84,-216.535 2755.87,-216.02 2755.87,-216.02 2755.87,-216.02 2760.84,-216.535 2756.33,-211.544 2765.82,-217.049 2765.82,-217.049"/>
</g>
<!-- 26 -->
<g id="node27" class="node"><title>26</title>
<polygon fill="none" stroke="black" points="3100,-252 2971,-252 2971,-216 3100,-216 3100,-252"/>
<text text-anchor="middle" x="3035.5" y="-230.3" font-family="Times,serif" font-size="14.00">Policies.EpsilonFirst</text>
</g>
<!-- 16&#45;&gt;26 -->
<g id="edge35" class="edge"><title>16&#45;&gt;26</title>
<path fill="none" stroke="black" d="M1578.25,-163.353C1754.11,-165.552 2659.75,-178.485 2960.64,-216.085"/>
<polygon fill="black" stroke="black" points="2970.65,-217.376 2960.16,-220.561 2965.7,-216.737 2960.74,-216.098 2960.74,-216.098 2960.74,-216.098 2965.7,-216.737 2961.31,-211.635 2970.65,-217.376 2970.65,-217.376"/>
</g>
<!-- 27 -->
<g id="node28" class="node"><title>27</title>
<polygon fill="none" stroke="black" points="3019.5,-324 2875.5,-324 2875.5,-288 3019.5,-288 3019.5,-324"/>
<text text-anchor="middle" x="2947.5" y="-302.3" font-family="Times,serif" font-size="14.00">Policies.EpsilonGreedy</text>
</g>
<!-- 16&#45;&gt;27 -->
<g id="edge36" class="edge"><title>16&#45;&gt;27</title>
<path fill="none" stroke="black" d="M1578.16,-162.852C1788.91,-161.938 3053.26,-158.856 3108.5,-216 3140.85,-249.469 3084.18,-273.677 3029.36,-288.32"/>
<polygon fill="black" stroke="black" points="3019.53,-290.854 3028.09,-284.001 3024.37,-289.606 3029.21,-288.358 3029.21,-288.358 3029.21,-288.358 3024.37,-289.606 3030.34,-292.716 3019.53,-290.854 3019.53,-290.854"/>
</g>
<!-- 28 -->
<g id="node29" class="node"><title>28</title>
<polygon fill="none" stroke="black" points="3018.5,-396 2926.5,-396 2926.5,-360 3018.5,-360 3018.5,-396"/>
<text text-anchor="middle" x="2972.5" y="-374.3" font-family="Times,serif" font-size="14.00">Policies.Exp3</text>
</g>
<!-- 16&#45;&gt;28 -->
<g id="edge37" class="edge"><title>16&#45;&gt;28</title>
<path fill="none" stroke="black" d="M1578.11,-163.312C1807.94,-165.802 3298.67,-183.207 3330.5,-216 3425.72,-314.097 3151.86,-357.317 3028.9,-371.427"/>
<polygon fill="black" stroke="black" points="3018.9,-372.549 3028.33,-366.962 3023.87,-371.992 3028.84,-371.434 3028.84,-371.434 3028.84,-371.434 3023.87,-371.992 3029.34,-375.906 3018.9,-372.549 3018.9,-372.549"/>
</g>
<!-- 31 -->
<g id="node32" class="node"><title>31</title>
<polygon fill="none" stroke="black" points="3177.5,-468 3073.5,-468 3073.5,-432 3177.5,-432 3177.5,-468"/>
<text text-anchor="middle" x="3125.5" y="-446.3" font-family="Times,serif" font-size="14.00">Policies.MEGA</text>
</g>
<!-- 16&#45;&gt;31 -->
<g id="edge38" class="edge"><title>16&#45;&gt;31</title>
<path fill="none" stroke="black" d="M1578.14,-163.301C1809.83,-165.717 3322.22,-182.755 3354.5,-216 3430.65,-294.42 3262.35,-386.822 3174.51,-427.707"/>
<polygon fill="black" stroke="black" points="3165.24,-431.968 3172.45,-423.702 3169.78,-429.879 3174.33,-427.79 3174.33,-427.79 3174.33,-427.79 3169.78,-429.879 3176.21,-431.879 3165.24,-431.968 3165.24,-431.968"/>
</g>
<!-- 32 -->
<g id="node33" class="node"><title>32</title>
<polygon fill="none" stroke="black" points="649,-396 548,-396 548,-360 649,-360 649,-396"/>
<text text-anchor="middle" x="598.5" y="-374.3" font-family="Times,serif" font-size="14.00">Policies.MOSS</text>
</g>
<!-- 16&#45;&gt;32 -->
<g id="edge39" class="edge"><title>16&#45;&gt;32</title>
<path fill="none" stroke="black" d="M1518.92,-162.843C1366.08,-162.272 665.037,-162.654 455.5,-216 419.863,-225.073 326.044,-256.849 306.5,-288 297.997,-301.553 296.246,-311.718 306.5,-324 335.375,-358.587 461.087,-370.653 537.842,-374.826"/>
<polygon fill="black" stroke="black" points="547.872,-375.342 537.654,-379.323 542.878,-375.085 537.885,-374.829 537.885,-374.829 537.885,-374.829 542.878,-375.085 538.116,-370.334 547.872,-375.342 547.872,-375.342"/>
</g>
<!-- 33 -->
<g id="node34" class="node"><title>33</title>
<polygon fill="none" stroke="black" points="137,-468 0,-468 0,-432 137,-432 137,-468"/>
<text text-anchor="middle" x="68.5" y="-446.3" font-family="Times,serif" font-size="14.00">Policies.MusicalChair</text>
</g>
<!-- 16&#45;&gt;33 -->
<g id="edge40" class="edge"><title>16&#45;&gt;33</title>
<path fill="none" stroke="black" d="M1518.71,-162.95C1315.08,-162.749 134.697,-163.837 81.5,-216 26.2522,-270.174 46.2031,-373.198 59.8998,-422.032"/>
<polygon fill="black" stroke="black" points="62.7816,-431.866 55.6508,-423.535 61.3754,-427.068 59.9692,-422.27 59.9692,-422.27 59.9692,-422.27 61.3754,-427.068 64.2876,-421.004 62.7816,-431.866 62.7816,-431.866"/>
</g>
<!-- 35 -->
<g id="node36" class="node"><title>35</title>
<polygon fill="none" stroke="black" points="306.5,-468 196.5,-468 196.5,-432 306.5,-432 306.5,-468"/>
<text text-anchor="middle" x="251.5" y="-446.3" font-family="Times,serif" font-size="14.00">Policies.Softmax</text>
</g>
<!-- 16&#45;&gt;35 -->
<g id="edge41" class="edge"><title>16&#45;&gt;35</title>
<path fill="none" stroke="black" d="M1518.82,-162.936C1317.24,-162.639 155.371,-163.228 104.5,-216 71.1872,-250.558 84.3571,-280.431 104.5,-324 125.884,-370.253 173.754,-405.672 209.086,-426.802"/>
<polygon fill="black" stroke="black" points="217.774,-431.864 206.869,-430.718 213.454,-429.347 209.134,-426.83 209.134,-426.83 209.134,-426.83 213.454,-429.347 211.399,-422.942 217.774,-431.864 217.774,-431.864"/>
</g>
<!-- 36 -->
<g id="node37" class="node"><title>36</title>
<polygon fill="none" stroke="black" points="259.5,-324 113.5,-324 113.5,-288 259.5,-288 259.5,-324"/>
<text text-anchor="middle" x="186.5" y="-302.3" font-family="Times,serif" font-size="14.00">Policies.TakeFixedArm</text>
</g>
<!-- 16&#45;&gt;36 -->
<g id="edge42" class="edge"><title>16&#45;&gt;36</title>
<path fill="none" stroke="black" d="M1518.77,-163.207C1345.58,-164.563 470.72,-173.483 359.5,-216 335.899,-225.022 337.201,-239.058 315.5,-252 294.306,-264.64 269.542,-275.616 247.409,-284.25"/>
<polygon fill="black" stroke="black" points="237.776,-287.926 245.513,-280.156 242.447,-286.143 247.118,-284.36 247.118,-284.36 247.118,-284.36 242.447,-286.143 248.723,-288.565 237.776,-287.926 237.776,-287.926"/>
</g>
<!-- 37 -->
<g id="node38" class="node"><title>37</title>
<polygon fill="none" stroke="black" points="307,-252 114,-252 114,-216 307,-216 307,-252"/>
<text text-anchor="middle" x="210.5" y="-230.3" font-family="Times,serif" font-size="14.00">Policies.TakeRandomFixedArm</text>
</g>
<!-- 16&#45;&gt;37 -->
<g id="edge43" class="edge"><title>16&#45;&gt;37</title>
<path fill="none" stroke="black" d="M1518.98,-163.092C1382.36,-163.765 797.901,-169.369 321.5,-216 320.19,-216.128 318.873,-216.261 317.548,-216.399"/>
<polygon fill="black" stroke="black" points="307.283,-217.543 316.723,-211.963 312.252,-216.989 317.221,-216.436 317.221,-216.436 317.221,-216.436 312.252,-216.989 317.72,-220.908 307.283,-217.543 307.283,-217.543"/>
</g>
<!-- 38 -->
<g id="node39" class="node"><title>38</title>
<polygon fill="none" stroke="black" points="2447.5,-252 2325.5,-252 2325.5,-216 2447.5,-216 2447.5,-252"/>
<text text-anchor="middle" x="2386.5" y="-230.3" font-family="Times,serif" font-size="14.00">Policies.Thompson</text>
</g>
<!-- 16&#45;&gt;38 -->
<g id="edge44" class="edge"><title>16&#45;&gt;38</title>
<path fill="none" stroke="black" d="M1578.35,-163.247C1680.25,-164.472 2023.71,-171.725 2315.24,-215.959"/>
<polygon fill="black" stroke="black" points="2325.16,-217.48 2314.59,-220.411 2320.22,-216.722 2315.27,-215.963 2315.27,-215.963 2315.27,-215.963 2320.22,-216.722 2315.96,-211.515 2325.16,-217.48 2325.16,-217.48"/>
</g>
<!-- 39 -->
<g id="node40" class="node"><title>39</title>
<polygon fill="none" stroke="black" points="840,-396 749,-396 749,-360 840,-360 840,-396"/>
<text text-anchor="middle" x="794.5" y="-374.3" font-family="Times,serif" font-size="14.00">Policies.UCB</text>
</g>
<!-- 16&#45;&gt;39 -->
<g id="edge45" class="edge"><title>16&#45;&gt;39</title>
<path fill="none" stroke="black" d="M1518.99,-163.114C1397.59,-163.884 941.041,-169.849 898.5,-216 887.656,-227.764 889.432,-238.817 898.5,-252 923.853,-288.859 967.147,-251.141 992.5,-288 1001.57,-301.183 1002.24,-311.308 992.5,-324 975.235,-346.495 902.726,-361.523 850.45,-369.662"/>
<polygon fill="black" stroke="black" points="840.287,-371.199 849.502,-365.254 845.231,-370.451 850.175,-369.704 850.175,-369.704 850.175,-369.704 845.231,-370.451 850.847,-374.153 840.287,-371.199 840.287,-371.199"/>
</g>
<!-- 40 -->
<g id="node41" class="node"><title>40</title>
<polygon fill="none" stroke="black" points="845,-324 744,-324 744,-288 845,-288 845,-324"/>
<text text-anchor="middle" x="794.5" y="-302.3" font-family="Times,serif" font-size="14.00">Policies.UCBV</text>
</g>
<!-- 16&#45;&gt;40 -->
<g id="edge46" class="edge"><title>16&#45;&gt;40</title>
<path fill="none" stroke="black" d="M1518.87,-163.314C1390.15,-164.924 883.497,-173.911 827.5,-216 808.318,-230.418 800.281,-257.23 796.916,-277.671"/>
<polygon fill="black" stroke="black" points="795.548,-287.68 792.444,-277.163 796.225,-282.726 796.902,-277.772 796.902,-277.772 796.902,-277.772 796.225,-282.726 801.361,-278.382 795.548,-287.68 795.548,-287.68"/>
</g>
<!-- 41 -->
<g id="node42" class="node"><title>41</title>
<polygon fill="none" stroke="black" points="748,-252 617,-252 617,-216 748,-216 748,-252"/>
<text text-anchor="middle" x="682.5" y="-230.3" font-family="Times,serif" font-size="14.00">Policies.UCBVtuned</text>
</g>
<!-- 16&#45;&gt;41 -->
<g id="edge47" class="edge"><title>16&#45;&gt;41</title>
<path fill="none" stroke="black" d="M1518.72,-163.486C1414.33,-165.514 1055.43,-175.21 762.5,-216 761.195,-216.182 759.879,-216.373 758.555,-216.572"/>
<polygon fill="black" stroke="black" points="748.29,-218.246 757.435,-212.195 753.225,-217.441 758.16,-216.636 758.16,-216.636 758.16,-216.636 753.225,-217.441 758.884,-221.078 748.29,-218.246 748.29,-218.246"/>
</g>
<!-- 42 -->
<g id="node43" class="node"><title>42</title>
<polygon fill="none" stroke="black" points="983.5,-324 863.5,-324 863.5,-288 983.5,-288 983.5,-324"/>
<text text-anchor="middle" x="923.5" y="-302.3" font-family="Times,serif" font-size="14.00">Policies.UCBalpha</text>
</g>
<!-- 16&#45;&gt;42 -->
<g id="edge48" class="edge"><title>16&#45;&gt;42</title>
<path fill="none" stroke="black" d="M1518.92,-162.898C1390.47,-162.756 885.431,-165.435 838.5,-216 827.616,-227.727 830.736,-238.01 838.5,-252 845.631,-264.849 857.315,-274.99 869.769,-282.811"/>
<polygon fill="black" stroke="black" points="878.469,-287.86 867.561,-286.732 874.144,-285.35 869.82,-282.84 869.82,-282.84 869.82,-282.84 874.144,-285.35 872.078,-278.948 878.469,-287.86 878.469,-287.86"/>
</g>
<!-- 43 -->
<g id="node44" class="node"><title>43</title>
<polygon fill="none" stroke="black" points="1161.5,-324 1039.5,-324 1039.5,-288 1161.5,-288 1161.5,-324"/>
<text text-anchor="middle" x="1100.5" y="-302.3" font-family="Times,serif" font-size="14.00">Policies.UCBlog10</text>
</g>
<!-- 16&#45;&gt;43 -->
<g id="edge49" class="edge"><title>16&#45;&gt;43</title>
<path fill="none" stroke="black" d="M1518.68,-163.16C1398.12,-164.113 951.2,-170.698 909.5,-216 898.664,-227.772 899.816,-239.263 909.5,-252 913.36,-257.077 976.821,-274.052 1029.55,-287.44"/>
<polygon fill="black" stroke="black" points="1039.25,-289.894 1028.45,-291.805 1034.4,-288.668 1029.56,-287.442 1029.56,-287.442 1029.56,-287.442 1034.4,-288.668 1030.66,-283.079 1039.25,-289.894 1039.25,-289.894"/>
</g>
<!-- 44 -->
<g id="node45" class="node"><title>44</title>
<polygon fill="none" stroke="black" points="1070,-252 919,-252 919,-216 1070,-216 1070,-252"/>
<text text-anchor="middle" x="994.5" y="-230.3" font-family="Times,serif" font-size="14.00">Policies.UCBlog10alpha</text>
</g>
<!-- 16&#45;&gt;44 -->
<g id="edge50" class="edge"><title>16&#45;&gt;44</title>
<path fill="none" stroke="black" d="M1518.82,-165.633C1445.1,-172.336 1247.84,-191.279 1084.5,-216 1083.03,-216.223 1081.54,-216.453 1080.04,-216.688"/>
<polygon fill="black" stroke="black" points="1070.05,-218.315 1079.2,-212.266 1074.99,-217.511 1079.92,-216.707 1079.92,-216.707 1079.92,-216.707 1074.99,-217.511 1080.65,-221.149 1070.05,-218.315 1070.05,-218.315"/>
</g>
<!-- 45 -->
<g id="node46" class="node"><title>45</title>
<polygon fill="none" stroke="black" points="423.5,-324 315.5,-324 315.5,-288 423.5,-288 423.5,-324"/>
<text text-anchor="middle" x="369.5" y="-302.3" font-family="Times,serif" font-size="14.00">Policies.UCBopt</text>
</g>
<!-- 16&#45;&gt;45 -->
<g id="edge51" class="edge"><title>16&#45;&gt;45</title>
<path fill="none" stroke="black" d="M1518.64,-162.89C1372.66,-162.608 733.501,-164.394 542.5,-216 490.568,-230.032 436.293,-261.052 402.691,-282.491"/>
<polygon fill="black" stroke="black" points="394.194,-287.991 400.144,-278.779 398.392,-285.274 402.589,-282.557 402.589,-282.557 402.589,-282.557 398.392,-285.274 405.035,-286.335 394.194,-287.991 394.194,-287.991"/>
</g>
<!-- 46 -->
<g id="node47" class="node"><title>46</title>
<polygon fill="none" stroke="black" points="555,-324 442,-324 442,-288 555,-288 555,-324"/>
<text text-anchor="middle" x="498.5" y="-302.3" font-family="Times,serif" font-size="14.00">Policies.UCBplus</text>
</g>
<!-- 16&#45;&gt;46 -->
<g id="edge52" class="edge"><title>16&#45;&gt;46</title>
<path fill="none" stroke="black" d="M1518.96,-163.473C1367.67,-166.049 683.345,-179.644 596.5,-216 564.122,-229.555 535.496,-258.613 517.67,-279.852"/>
<polygon fill="black" stroke="black" points="511.159,-287.842 513.988,-277.247 514.317,-283.966 517.476,-280.09 517.476,-280.09 517.476,-280.09 514.317,-283.966 520.964,-282.933 511.159,-287.842 511.159,-287.842"/>
</g>
<!-- 47 -->
<g id="node48" class="node"><title>47</title>
<polygon fill="none" stroke="black" points="725.5,-324 573.5,-324 573.5,-288 725.5,-288 725.5,-324"/>
<text text-anchor="middle" x="649.5" y="-302.3" font-family="Times,serif" font-size="14.00">Policies.UCBrandomInit</text>
</g>
<!-- 16&#45;&gt;47 -->
<g id="edge53" class="edge"><title>16&#45;&gt;47</title>
<path fill="none" stroke="black" d="M1518.86,-163.537C1362.5,-166.512 639.57,-182.073 607.5,-216 590.273,-234.224 606.607,-260.808 623.68,-280.174"/>
<polygon fill="black" stroke="black" points="630.694,-287.727 620.592,-283.461 627.292,-284.063 623.889,-280.399 623.889,-280.399 623.889,-280.399 627.292,-284.063 627.187,-277.337 630.694,-287.727 630.694,-287.727"/>
</g>
<!-- 48 -->
<g id="node49" class="node"><title>48</title>
<polygon fill="none" stroke="black" points="1401,-396 1276,-396 1276,-360 1401,-360 1401,-396"/>
<text text-anchor="middle" x="1338.5" y="-374.3" font-family="Times,serif" font-size="14.00">Policies.UCBwrong</text>
</g>
<!-- 16&#45;&gt;48 -->
<g id="edge54" class="edge"><title>16&#45;&gt;48</title>
<path fill="none" stroke="black" d="M1518.68,-164.422C1425.47,-169.169 1144.13,-185.895 1117.5,-216 1106.9,-227.984 1109.44,-238.179 1117.5,-252 1122.62,-260.778 1235.07,-321.785 1297.54,-355.211"/>
<polygon fill="black" stroke="black" points="1306.37,-359.933 1295.43,-359.189 1301.96,-357.576 1297.56,-355.22 1297.56,-355.22 1297.56,-355.22 1301.96,-357.576 1299.68,-351.251 1306.37,-359.933 1306.37,-359.933"/>
</g>
<!-- 49 -->
<g id="node50" class="node"><title>49</title>
<polygon fill="none" stroke="black" points="2139.5,-324 2029.5,-324 2029.5,-288 2139.5,-288 2139.5,-324"/>
<text text-anchor="middle" x="2084.5" y="-302.3" font-family="Times,serif" font-size="14.00">Policies.Uniform</text>
</g>
<!-- 16&#45;&gt;49 -->
<g id="edge55" class="edge"><title>16&#45;&gt;49</title>
<path fill="none" stroke="black" d="M1578.02,-164.698C1659.73,-169.733 1887.39,-186.132 1955.5,-216 1978.33,-226.01 1978.28,-237.424 1998.5,-252 2013.48,-262.803 2030.7,-273.689 2045.77,-282.76"/>
<polygon fill="black" stroke="black" points="2054.36,-287.877 2043.47,-286.627 2050.06,-285.319 2045.77,-282.76 2045.77,-282.76 2045.77,-282.76 2050.06,-285.319 2048.07,-278.894 2054.36,-287.877 2054.36,-287.877"/>
</g>
<!-- 50 -->
<g id="node51" class="node"><title>50</title>
<polygon fill="none" stroke="black" points="2165.5,-252 2007.5,-252 2007.5,-216 2165.5,-216 2165.5,-252"/>
<text text-anchor="middle" x="2086.5" y="-230.3" font-family="Times,serif" font-size="14.00">Policies.UniformOnSome</text>
</g>
<!-- 16&#45;&gt;50 -->
<g id="edge56" class="edge"><title>16&#45;&gt;50</title>
<path fill="none" stroke="black" d="M1578.01,-165.872C1649.48,-172.97 1837.52,-192.478 1993.5,-216 1994.78,-216.193 1996.07,-216.39 1997.36,-216.59"/>
<polygon fill="black" stroke="black" points="2007.41,-218.196 1996.82,-221.062 2002.47,-217.407 1997.53,-216.618 1997.53,-216.618 1997.53,-216.618 2002.47,-217.407 1998.24,-212.174 2007.41,-218.196 2007.41,-218.196"/>
</g>
<!-- 51 -->
<g id="node52" class="node"><title>51</title>
<polygon fill="none" stroke="black" points="1560,-324 1459,-324 1459,-288 1560,-288 1560,-324"/>
<text text-anchor="middle" x="1509.5" y="-302.3" font-family="Times,serif" font-size="14.00">Policies.klUCB</text>
</g>
<!-- 16&#45;&gt;51 -->
<g id="edge57" class="edge"><title>16&#45;&gt;51</title>
<path fill="none" stroke="black" d="M1518.85,-176.41C1503.18,-185.227 1485.39,-198.408 1476.5,-216 1466.08,-236.601 1476.95,-261.304 1488.92,-279.452"/>
<polygon fill="black" stroke="black" points="1494.8,-287.788 1485.36,-282.209 1491.92,-283.702 1489.04,-279.616 1489.04,-279.616 1489.04,-279.616 1491.92,-283.702 1492.71,-277.022 1494.8,-287.788 1494.8,-287.788"/>
</g>
<!-- 52 -->
<g id="node53" class="node"><title>52</title>
<polygon fill="none" stroke="black" points="1913.5,-252 1779.5,-252 1779.5,-216 1913.5,-216 1913.5,-252"/>
<text text-anchor="middle" x="1846.5" y="-230.3" font-family="Times,serif" font-size="14.00">Policies.klUCBHPlus</text>
</g>
<!-- 16&#45;&gt;52 -->
<g id="edge58" class="edge"><title>16&#45;&gt;52</title>
<path fill="none" stroke="black" d="M1578.16,-169.968C1622.39,-180.357 1707.1,-200.256 1769.56,-214.928"/>
<polygon fill="black" stroke="black" points="1779.39,-217.235 1768.62,-219.329 1774.52,-216.092 1769.65,-214.949 1769.65,-214.949 1769.65,-214.949 1774.52,-216.092 1770.68,-210.568 1779.39,-217.235 1779.39,-217.235"/>
</g>
<!-- 53 -->
<g id="node54" class="node"><title>53</title>
<polygon fill="none" stroke="black" points="1611,-252 1486,-252 1486,-216 1611,-216 1611,-252"/>
<text text-anchor="middle" x="1548.5" y="-230.3" font-family="Times,serif" font-size="14.00">Policies.klUCBPlus</text>
</g>
<!-- 16&#45;&gt;53 -->
<g id="edge59" class="edge"><title>16&#45;&gt;53</title>
<path fill="none" stroke="black" d="M1548.5,-180.303C1548.5,-188.017 1548.5,-197.288 1548.5,-205.888"/>
<polygon fill="black" stroke="black" points="1548.5,-215.896 1544,-205.896 1548.5,-210.896 1548.5,-205.896 1548.5,-205.896 1548.5,-205.896 1548.5,-210.896 1553,-205.896 1548.5,-215.896 1548.5,-215.896"/>
</g>
<!-- 54 -->
<g id="node55" class="node"><title>54</title>
<polygon fill="none" stroke="black" points="1761.5,-252 1629.5,-252 1629.5,-216 1761.5,-216 1761.5,-252"/>
<text text-anchor="middle" x="1695.5" y="-230.3" font-family="Times,serif" font-size="14.00">Policies.klUCBlog10</text>
</g>
<!-- 16&#45;&gt;54 -->
<g id="edge60" class="edge"><title>16&#45;&gt;54</title>
<path fill="none" stroke="black" d="M1578.25,-177.166C1598.99,-187.041 1627.03,-200.395 1650.49,-211.567"/>
<polygon fill="black" stroke="black" points="1659.56,-215.887 1648.6,-215.651 1655.05,-213.738 1650.53,-211.588 1650.53,-211.588 1650.53,-211.588 1655.05,-213.738 1652.47,-207.525 1659.56,-215.887 1659.56,-215.887"/>
</g>
<!-- 55 -->
<g id="node56" class="node"><title>55</title>
<polygon fill="none" stroke="black" points="1262.5,-252 1126.5,-252 1126.5,-216 1262.5,-216 1262.5,-252"/>
<text text-anchor="middle" x="1194.5" y="-230.3" font-family="Times,serif" font-size="14.00">Policies.klUCBloglog</text>
</g>
<!-- 16&#45;&gt;55 -->
<g id="edge61" class="edge"><title>16&#45;&gt;55</title>
<path fill="none" stroke="black" d="M1518.93,-168.374C1469.9,-177.347 1368.45,-196.171 1272.75,-215.769"/>
<polygon fill="black" stroke="black" points="1262.91,-217.791 1271.8,-211.37 1267.81,-216.784 1272.71,-215.778 1272.71,-215.778 1272.71,-215.778 1267.81,-216.784 1273.61,-220.186 1262.91,-217.791 1262.91,-217.791"/>
</g>
<!-- 56 -->
<g id="node57" class="node"><title>56</title>
<polygon fill="none" stroke="black" points="1430,-252 1281,-252 1281,-216 1430,-216 1430,-252"/>
<text text-anchor="middle" x="1355.5" y="-230.3" font-family="Times,serif" font-size="14.00">Policies.klUCBloglog10</text>
</g>
<!-- 16&#45;&gt;56 -->
<g id="edge62" class="edge"><title>16&#45;&gt;56</title>
<path fill="none" stroke="black" d="M1518.77,-173.784C1490.45,-184.055 1447.08,-199.784 1412.16,-212.45"/>
<polygon fill="black" stroke="black" points="1402.55,-215.934 1410.42,-208.294 1407.25,-214.229 1411.95,-212.524 1411.95,-212.524 1411.95,-212.524 1407.25,-214.229 1413.49,-216.754 1402.55,-215.934 1402.55,-215.934"/>
</g>
<!-- 57 -->
<g id="node58" class="node"><title>57</title>
<polygon fill="none" stroke="black" points="1861.5,-396 1751.5,-396 1751.5,-360 1861.5,-360 1861.5,-396"/>
<text text-anchor="middle" x="1806.5" y="-374.3" font-family="Times,serif" font-size="14.00">Policies.kullback</text>
</g>
<!-- 16&#45;&gt;57 -->
<g id="edge63" class="edge"><title>16&#45;&gt;57</title>
<path fill="none" stroke="black" d="M1578.01,-162.462C1658.31,-161.693 1877.73,-164.439 1922.5,-216 1962.69,-262.284 1890.98,-322.003 1843.5,-354.124"/>
<polygon fill="black" stroke="black" points="1834.95,-359.791 1840.8,-350.516 1839.12,-357.029 1843.29,-354.267 1843.29,-354.267 1843.29,-354.267 1839.12,-357.029 1845.77,-358.018 1834.95,-359.791 1834.95,-359.791"/>
</g>
<!-- 19 -->
<g id="node20" class="node"><title>19</title>
<polygon fill="none" stroke="black" points="2332.5,-540 2208.5,-540 2208.5,-504 2332.5,-504 2332.5,-540"/>
<text text-anchor="middle" x="2270.5" y="-518.3" font-family="Times,serif" font-size="14.00">Policies.BasePolicy</text>
</g>
<!-- 17&#45;&gt;19 -->
<g id="edge64" class="edge"><title>17&#45;&gt;19</title>
<path fill="none" stroke="black" d="M2405.21,-324.256C2390.26,-354.632 2356.94,-419.067 2320.5,-468 2313.14,-477.888 2304.13,-487.928 2295.81,-496.571"/>
<polygon fill="black" stroke="black" points="2288.72,-503.769 2292.53,-493.486 2292.23,-500.206 2295.74,-496.643 2295.74,-496.643 2295.74,-496.643 2292.23,-500.206 2298.94,-499.8 2288.72,-503.769 2288.72,-503.769"/>
</g>
<!-- 22 -->
<g id="node23" class="node"><title>22</title>
<polygon fill="none" stroke="black" points="2299.5,-396 2211.5,-396 2211.5,-360 2299.5,-360 2299.5,-396"/>
<text text-anchor="middle" x="2255.5" y="-374.3" font-family="Times,serif" font-size="14.00">Policies.Beta</text>
</g>
<!-- 17&#45;&gt;22 -->
<g id="edge65" class="edge"><title>17&#45;&gt;22</title>
<path fill="none" stroke="black" d="M2374.85,-324.124C2353.25,-333.693 2326.15,-345.7 2303.23,-355.852"/>
<polygon fill="black" stroke="black" points="2294.03,-359.932 2301.35,-351.767 2298.6,-357.906 2303.17,-355.881 2303.17,-355.881 2303.17,-355.881 2298.6,-357.906 2304.99,-359.995 2294.03,-359.932 2294.03,-359.932"/>
</g>
<!-- 18&#45;&gt;19 -->
<g id="edge66" class="edge"><title>18&#45;&gt;19</title>
<path fill="none" stroke="black" d="M2425.89,-466.884C2397.25,-476.857 2360.04,-489.818 2329.21,-500.555"/>
<polygon fill="black" stroke="black" points="2319.44,-503.956 2327.4,-496.417 2324.16,-502.311 2328.88,-500.667 2328.88,-500.667 2328.88,-500.667 2324.16,-502.311 2330.36,-504.917 2319.44,-503.956 2319.44,-503.956"/>
</g>
<!-- 21 -->
<g id="node22" class="node"><title>21</title>
<polygon fill="none" stroke="black" points="2335.5,-324 2157.5,-324 2157.5,-288 2335.5,-288 2335.5,-324"/>
<text text-anchor="middle" x="2246.5" y="-302.3" font-family="Times,serif" font-size="14.00">Policies.BayesianIndexPolicy</text>
</g>
<!-- 20&#45;&gt;21 -->
<g id="edge67" class="edge"><title>20&#45;&gt;21</title>
<path fill="none" stroke="black" d="M2245.75,-252.303C2245.86,-260.017 2245.99,-269.288 2246.11,-277.888"/>
<polygon fill="black" stroke="black" points="2246.26,-287.896 2241.61,-277.961 2246.18,-282.896 2246.11,-277.897 2246.11,-277.897 2246.11,-277.897 2246.18,-282.896 2250.61,-277.832 2246.26,-287.896 2246.26,-287.896"/>
</g>
<!-- 21&#45;&gt;22 -->
<g id="edge68" class="edge"><title>21&#45;&gt;22</title>
<path fill="none" stroke="black" d="M2248.72,-324.303C2249.72,-332.017 2250.91,-341.288 2252.01,-349.888"/>
<polygon fill="black" stroke="black" points="2253.3,-359.896 2247.56,-350.551 2252.66,-354.936 2252.03,-349.977 2252.03,-349.977 2252.03,-349.977 2252.66,-354.936 2256.49,-349.403 2253.3,-359.896 2253.3,-359.896"/>
</g>
<!-- 29 -->
<g id="node30" class="node"><title>29</title>
<polygon fill="none" stroke="black" points="1461.5,-468 1333.5,-468 1333.5,-432 1461.5,-432 1461.5,-468"/>
<text text-anchor="middle" x="1397.5" y="-446.3" font-family="Times,serif" font-size="14.00">Policies.IndexPolicy</text>
</g>
<!-- 21&#45;&gt;29 -->
<g id="edge69" class="edge"><title>21&#45;&gt;29</title>
<path fill="none" stroke="black" d="M2184.77,-324.039C2110.66,-343.928 1982.36,-376.567 1870.5,-396 1730.63,-420.299 1565.45,-435.855 1471.94,-443.458"/>
<polygon fill="black" stroke="black" points="1461.73,-444.279 1471.34,-438.992 1466.71,-443.878 1471.7,-443.477 1471.7,-443.477 1471.7,-443.477 1466.71,-443.878 1472.06,-447.963 1461.73,-444.279 1461.73,-444.279"/>
</g>
<!-- 34 -->
<g id="node35" class="node"><title>34</title>
<polygon fill="none" stroke="black" points="2311.5,-468 2199.5,-468 2199.5,-432 2311.5,-432 2311.5,-468"/>
<text text-anchor="middle" x="2255.5" y="-446.3" font-family="Times,serif" font-size="14.00">Policies.Posterior</text>
</g>
<!-- 22&#45;&gt;34 -->
<g id="edge70" class="edge"><title>22&#45;&gt;34</title>
<path fill="none" stroke="black" d="M2255.5,-396.303C2255.5,-404.017 2255.5,-413.288 2255.5,-421.888"/>
<polygon fill="black" stroke="black" points="2255.5,-431.896 2251,-421.896 2255.5,-426.896 2255.5,-421.896 2255.5,-421.896 2255.5,-421.896 2255.5,-426.896 2260,-421.896 2255.5,-431.896 2255.5,-431.896"/>
</g>
<!-- 23&#45;&gt;27 -->
<g id="edge71" class="edge"><title>23&#45;&gt;27</title>
<path fill="none" stroke="black" d="M3168.44,-252.034C3126.15,-262.174 3072.34,-275.073 3028.41,-285.604"/>
<polygon fill="black" stroke="black" points="3018.62,-287.95 3027.3,-281.243 3023.49,-286.784 3028.35,-285.619 3028.35,-285.619 3028.35,-285.619 3023.49,-286.784 3029.4,-289.995 3018.62,-287.95 3018.62,-287.95"/>
</g>
<!-- 24&#45;&gt;27 -->
<g id="edge72" class="edge"><title>24&#45;&gt;27</title>
<path fill="none" stroke="black" d="M2718.23,-252.034C2762.71,-262.308 2819.44,-275.416 2865.35,-286.021"/>
<polygon fill="black" stroke="black" points="2875.27,-288.313 2864.51,-290.447 2870.4,-287.188 2865.53,-286.062 2865.53,-286.062 2865.53,-286.062 2870.4,-287.188 2866.54,-281.678 2875.27,-288.313 2875.27,-288.313"/>
</g>
<!-- 25&#45;&gt;27 -->
<g id="edge73" class="edge"><title>25&#45;&gt;27</title>
<path fill="none" stroke="black" d="M2881.25,-252.303C2892.34,-261.119 2905.97,-271.968 2917.99,-281.526"/>
<polygon fill="black" stroke="black" points="2926,-287.896 2915.37,-285.192 2922.08,-284.783 2918.17,-281.67 2918.17,-281.67 2918.17,-281.67 2922.08,-284.783 2920.97,-278.149 2926,-287.896 2926,-287.896"/>
</g>
<!-- 26&#45;&gt;27 -->
<g id="edge74" class="edge"><title>26&#45;&gt;27</title>
<path fill="none" stroke="black" d="M3013.75,-252.303C3002.66,-261.119 2989.03,-271.968 2977.01,-281.526"/>
<polygon fill="black" stroke="black" points="2969,-287.896 2974.03,-278.149 2972.92,-284.783 2976.83,-281.67 2976.83,-281.67 2976.83,-281.67 2972.92,-284.783 2979.63,-285.192 2969,-287.896 2969,-287.896"/>
</g>
<!-- 27&#45;&gt;19 -->
<g id="edge75" class="edge"><title>27&#45;&gt;19</title>
<path fill="none" stroke="black" d="M2875.34,-322.502C2796.81,-341.237 2669.14,-377.234 2569.5,-432 2547.36,-444.17 2548.3,-457.116 2525.5,-468 2467.52,-495.676 2395.34,-508.957 2342.59,-515.297"/>
<polygon fill="black" stroke="black" points="2332.64,-516.438 2342.06,-510.827 2337.61,-515.868 2342.58,-515.298 2342.58,-515.298 2342.58,-515.298 2337.61,-515.868 2343.09,-519.769 2332.64,-516.438 2332.64,-516.438"/>
</g>
<!-- 28&#45;&gt;19 -->
<g id="edge76" class="edge"><title>28&#45;&gt;19</title>
<path fill="none" stroke="black" d="M2926.4,-389.842C2851.66,-407.268 2699.33,-442.169 2569.5,-468 2492.4,-483.341 2403.66,-498.793 2343.01,-509.022"/>
<polygon fill="black" stroke="black" points="2332.78,-510.743 2341.89,-504.647 2337.71,-509.914 2342.64,-509.085 2342.64,-509.085 2342.64,-509.085 2337.71,-509.914 2343.38,-513.522 2332.78,-510.743 2332.78,-510.743"/>
</g>
<!-- 29&#45;&gt;19 -->
<g id="edge77" class="edge"><title>29&#45;&gt;19</title>
<path fill="none" stroke="black" d="M1461.69,-456.147C1620.5,-468.881 2030.97,-501.794 2198.09,-515.194"/>
<polygon fill="black" stroke="black" points="2208.27,-516.01 2197.94,-519.696 2203.28,-515.61 2198.3,-515.211 2198.3,-515.211 2198.3,-515.211 2203.28,-515.61 2198.66,-510.725 2208.27,-516.01 2208.27,-516.01"/>
</g>
<!-- 30 -->
<g id="node31" class="node"><title>30</title>
<polygon fill="none" stroke="black" points="1767,-324 1634,-324 1634,-288 1767,-288 1767,-324"/>
<text text-anchor="middle" x="1700.5" y="-302.3" font-family="Times,serif" font-size="14.00">Policies.KLempUCB</text>
</g>
<!-- 30&#45;&gt;29 -->
<g id="edge78" class="edge"><title>30&#45;&gt;29</title>
<path fill="none" stroke="black" d="M1663.95,-324.129C1608.67,-350.036 1503.85,-399.157 1443.47,-427.455"/>
<polygon fill="black" stroke="black" points="1434.18,-431.811 1441.32,-423.492 1438.71,-429.689 1443.23,-427.567 1443.23,-427.567 1443.23,-427.567 1438.71,-429.689 1445.14,-431.642 1434.18,-431.811 1434.18,-431.811"/>
</g>
<!-- 30&#45;&gt;57 -->
<g id="edge79" class="edge"><title>30&#45;&gt;57</title>
<path fill="none" stroke="black" d="M1726.43,-324.124C1740.16,-333.192 1757.21,-344.448 1772.04,-354.241"/>
<polygon fill="black" stroke="black" points="1780.47,-359.81 1769.65,-358.055 1776.3,-357.055 1772.13,-354.3 1772.13,-354.3 1772.13,-354.3 1776.3,-357.055 1774.6,-350.544 1780.47,-359.81 1780.47,-359.81"/>
</g>
<!-- 31&#45;&gt;19 -->
<g id="edge80" class="edge"><title>31&#45;&gt;19</title>
<path fill="none" stroke="black" d="M3073.3,-455.273C2926.74,-467.273 2511.17,-501.296 2342.74,-515.086"/>
<polygon fill="black" stroke="black" points="2332.73,-515.905 2342.33,-510.604 2337.71,-515.497 2342.69,-515.089 2342.69,-515.089 2342.69,-515.089 2337.71,-515.497 2343.06,-519.574 2332.73,-515.905 2332.73,-515.905"/>
</g>
<!-- 32&#45;&gt;29 -->
<g id="edge81" class="edge"><title>32&#45;&gt;29</title>
<path fill="none" stroke="black" d="M649.023,-385.583C675.87,-388.957 709.447,-392.979 739.5,-396 950.855,-417.245 1201.08,-435.509 1323.1,-443.972"/>
<polygon fill="black" stroke="black" points="1333.44,-444.687 1323.16,-448.486 1328.45,-444.342 1323.47,-443.997 1323.47,-443.997 1323.47,-443.997 1328.45,-444.342 1323.78,-439.508 1333.44,-444.687 1333.44,-444.687"/>
</g>
<!-- 33&#45;&gt;19 -->
<g id="edge82" class="edge"><title>33&#45;&gt;19</title>
<path fill="none" stroke="black" d="M137.249,-462.21C153.672,-464.503 171.175,-466.631 187.5,-468 590.471,-501.795 1878.3,-516.985 2198.1,-520.291"/>
<polygon fill="black" stroke="black" points="2208.17,-520.394 2198.12,-524.791 2203.17,-520.343 2198.17,-520.292 2198.17,-520.292 2198.17,-520.292 2203.17,-520.343 2198.22,-515.792 2208.17,-520.394 2208.17,-520.394"/>
</g>
<!-- 35&#45;&gt;19 -->
<g id="edge83" class="edge"><title>35&#45;&gt;19</title>
<path fill="none" stroke="black" d="M306.505,-462.826C318.017,-464.896 330.117,-466.776 341.5,-468 711.827,-507.806 1894.06,-518.447 2198.47,-520.557"/>
<polygon fill="black" stroke="black" points="2208.5,-520.625 2198.47,-525.057 2203.5,-520.591 2198.5,-520.557 2198.5,-520.557 2198.5,-520.557 2203.5,-520.591 2198.53,-516.057 2208.5,-520.625 2208.5,-520.625"/>
</g>
<!-- 36&#45;&gt;19 -->
<g id="edge84" class="edge"><title>36&#45;&gt;19</title>
<path fill="none" stroke="black" d="M242.616,-324.085C311.601,-344.412 432.567,-377.87 538.5,-396 1174.98,-504.928 1958.86,-519.085 2197.93,-520.803"/>
<polygon fill="black" stroke="black" points="2208.23,-520.872 2198.2,-525.305 2203.23,-520.838 2198.23,-520.805 2198.23,-520.805 2198.23,-520.805 2203.23,-520.838 2198.26,-516.305 2208.23,-520.872 2208.23,-520.872"/>
</g>
<!-- 37&#45;&gt;36 -->
<g id="edge85" class="edge"><title>37&#45;&gt;36</title>
<path fill="none" stroke="black" d="M204.567,-252.303C201.894,-260.102 198.674,-269.491 195.699,-278.171"/>
<polygon fill="black" stroke="black" points="192.364,-287.896 191.351,-276.977 193.986,-283.166 195.608,-278.436 195.608,-278.436 195.608,-278.436 193.986,-283.166 199.864,-279.896 192.364,-287.896 192.364,-287.896"/>
</g>
<!-- 38&#45;&gt;21 -->
<g id="edge86" class="edge"><title>38&#45;&gt;21</title>
<path fill="none" stroke="black" d="M2352.25,-252.124C2333.44,-261.531 2309.92,-273.292 2289.83,-283.333"/>
<polygon fill="black" stroke="black" points="2280.88,-287.81 2287.81,-279.313 2285.35,-285.574 2289.82,-283.338 2289.82,-283.338 2289.82,-283.338 2285.35,-285.574 2291.84,-287.363 2280.88,-287.81 2280.88,-287.81"/>
</g>
<!-- 39&#45;&gt;29 -->
<g id="edge87" class="edge"><title>39&#45;&gt;29</title>
<path fill="none" stroke="black" d="M840.318,-384.319C943.877,-396.341 1196.78,-425.699 1323.12,-440.366"/>
<polygon fill="black" stroke="black" points="1333.1,-441.524 1322.65,-444.841 1328.14,-440.948 1323.17,-440.371 1323.17,-440.371 1323.17,-440.371 1328.14,-440.948 1323.69,-435.901 1333.1,-441.524 1333.1,-441.524"/>
</g>
<!-- 40&#45;&gt;39 -->
<g id="edge88" class="edge"><title>40&#45;&gt;39</title>
<path fill="none" stroke="black" d="M794.5,-324.303C794.5,-332.017 794.5,-341.288 794.5,-349.888"/>
<polygon fill="black" stroke="black" points="794.5,-359.896 790,-349.896 794.5,-354.896 794.5,-349.896 794.5,-349.896 794.5,-349.896 794.5,-354.896 799,-349.896 794.5,-359.896 794.5,-359.896"/>
</g>
<!-- 41&#45;&gt;40 -->
<g id="edge89" class="edge"><title>41&#45;&gt;40</title>
<path fill="none" stroke="black" d="M709.898,-252.124C724.407,-261.192 742.416,-272.448 758.085,-282.241"/>
<polygon fill="black" stroke="black" points="766.996,-287.81 756.131,-286.326 762.756,-285.16 758.516,-282.51 758.516,-282.51 758.516,-282.51 762.756,-285.16 760.901,-278.694 766.996,-287.81 766.996,-287.81"/>
</g>
<!-- 42&#45;&gt;39 -->
<g id="edge90" class="edge"><title>42&#45;&gt;39</title>
<path fill="none" stroke="black" d="M891.943,-324.124C874.842,-333.404 853.518,-344.975 835.181,-354.925"/>
<polygon fill="black" stroke="black" points="826.178,-359.81 832.821,-351.086 830.573,-357.426 834.968,-355.041 834.968,-355.041 834.968,-355.041 830.573,-357.426 837.114,-358.996 826.178,-359.81 826.178,-359.81"/>
</g>
<!-- 43&#45;&gt;29 -->
<g id="edge91" class="edge"><title>43&#45;&gt;29</title>
<path fill="none" stroke="black" d="M1129.99,-324.062C1162.81,-342.748 1217.64,-373.101 1266.5,-396 1291,-407.485 1318.71,-418.912 1342.31,-428.199"/>
<polygon fill="black" stroke="black" points="1351.82,-431.911 1340.86,-432.464 1347.16,-430.092 1342.5,-428.273 1342.5,-428.273 1342.5,-428.273 1347.16,-430.092 1344.14,-424.081 1351.82,-431.911 1351.82,-431.911"/>
</g>
<!-- 44&#45;&gt;43 -->
<g id="edge92" class="edge"><title>44&#45;&gt;43</title>
<path fill="none" stroke="black" d="M1020.43,-252.124C1034.16,-261.192 1051.21,-272.448 1066.04,-282.241"/>
<polygon fill="black" stroke="black" points="1074.47,-287.81 1063.65,-286.055 1070.3,-285.055 1066.13,-282.3 1066.13,-282.3 1066.13,-282.3 1070.3,-285.055 1068.6,-278.544 1074.47,-287.81 1074.47,-287.81"/>
</g>
<!-- 45&#45;&gt;39 -->
<g id="edge93" class="edge"><title>45&#45;&gt;39</title>
<path fill="none" stroke="black" d="M423.698,-322.061C426.668,-322.75 429.616,-323.402 432.5,-324 489.799,-335.882 652.153,-358.117 738.647,-369.646"/>
<polygon fill="black" stroke="black" points="748.807,-370.997 738.301,-374.139 743.851,-370.338 738.894,-369.678 738.894,-369.678 738.894,-369.678 743.851,-370.338 739.488,-365.218 748.807,-370.997 748.807,-370.997"/>
</g>
<!-- 46&#45;&gt;39 -->
<g id="edge94" class="edge"><title>46&#45;&gt;39</title>
<path fill="none" stroke="black" d="M555.002,-321.655C558.213,-322.456 561.396,-323.243 564.5,-324 623.841,-338.477 692.057,-354.064 738.693,-364.56"/>
<polygon fill="black" stroke="black" points="748.598,-366.786 737.855,-368.984 743.72,-365.69 738.841,-364.594 738.841,-364.594 738.841,-364.594 743.72,-365.69 739.828,-360.203 748.598,-366.786 748.598,-366.786"/>
</g>
<!-- 47&#45;&gt;39 -->
<g id="edge95" class="edge"><title>47&#45;&gt;39</title>
<path fill="none" stroke="black" d="M684.971,-324.124C704.617,-333.608 729.222,-345.487 750.132,-355.581"/>
<polygon fill="black" stroke="black" points="759.144,-359.932 748.182,-359.637 754.641,-357.758 750.139,-355.584 750.139,-355.584 750.139,-355.584 754.641,-357.758 752.095,-351.532 759.144,-359.932 759.144,-359.932"/>
</g>
<!-- 48&#45;&gt;29 -->
<g id="edge96" class="edge"><title>48&#45;&gt;29</title>
<path fill="none" stroke="black" d="M1353.08,-396.303C1360.16,-404.695 1368.78,-414.93 1376.55,-424.139"/>
<polygon fill="black" stroke="black" points="1383.08,-431.896 1373.2,-427.15 1379.86,-428.073 1376.64,-424.249 1376.64,-424.249 1376.64,-424.249 1379.86,-428.073 1380.08,-421.349 1383.08,-431.896 1383.08,-431.896"/>
</g>
<!-- 49&#45;&gt;19 -->
<g id="edge97" class="edge"><title>49&#45;&gt;19</title>
<path fill="none" stroke="black" d="M2092.8,-324.113C2108.58,-355.394 2145.37,-422.738 2190.5,-468 2201.98,-479.516 2216.34,-489.956 2229.71,-498.466"/>
<polygon fill="black" stroke="black" points="2238.32,-503.772 2227.44,-502.353 2234.06,-501.147 2229.8,-498.523 2229.8,-498.523 2229.8,-498.523 2234.06,-501.147 2232.17,-494.693 2238.32,-503.772 2238.32,-503.772"/>
</g>
<!-- 50&#45;&gt;49 -->
<g id="edge98" class="edge"><title>50&#45;&gt;49</title>
<path fill="none" stroke="black" d="M2086.01,-252.303C2085.79,-260.017 2085.52,-269.288 2085.27,-277.888"/>
<polygon fill="black" stroke="black" points="2084.99,-287.896 2080.78,-277.771 2085.13,-282.898 2085.27,-277.9 2085.27,-277.9 2085.27,-277.9 2085.13,-282.898 2089.77,-278.028 2084.99,-287.896 2084.99,-287.896"/>
</g>
<!-- 51&#45;&gt;29 -->
<g id="edge99" class="edge"><title>51&#45;&gt;29</title>
<path fill="none" stroke="black" d="M1495.99,-324.129C1476.4,-348.969 1439.97,-395.154 1417.33,-423.858"/>
<polygon fill="black" stroke="black" points="1411.06,-431.811 1413.72,-421.172 1414.15,-427.885 1417.25,-423.959 1417.25,-423.959 1417.25,-423.959 1414.15,-427.885 1420.78,-426.746 1411.06,-431.811 1411.06,-431.811"/>
</g>
<!-- 51&#45;&gt;57 -->
<g id="edge100" class="edge"><title>51&#45;&gt;57</title>
<path fill="none" stroke="black" d="M1560.22,-318.954C1610.28,-330.754 1687.04,-348.846 1741.55,-361.691"/>
<polygon fill="black" stroke="black" points="1751.45,-364.026 1740.69,-366.112 1746.59,-362.879 1741.72,-361.732 1741.72,-361.732 1741.72,-361.732 1746.59,-362.879 1742.75,-357.352 1751.45,-364.026 1751.45,-364.026"/>
</g>
<!-- 52&#45;&gt;51 -->
<g id="edge101" class="edge"><title>52&#45;&gt;51</title>
<path fill="none" stroke="black" d="M1779.38,-250.089C1776.38,-250.74 1773.41,-251.379 1770.5,-252 1701.89,-266.638 1622.93,-282.541 1569.99,-293.069"/>
<polygon fill="black" stroke="black" points="1560.08,-295.035 1569.02,-288.673 1564.99,-294.061 1569.89,-293.087 1569.89,-293.087 1569.89,-293.087 1564.99,-294.061 1570.77,-297.501 1560.08,-295.035 1560.08,-295.035"/>
</g>
<!-- 52&#45;&gt;57 -->
<g id="edge102" class="edge"><title>52&#45;&gt;57</title>
<path fill="none" stroke="black" d="M1841.68,-252.129C1834.83,-276.436 1822.22,-321.181 1814.11,-349.987"/>
<polygon fill="black" stroke="black" points="1811.34,-359.811 1809.72,-348.965 1812.7,-354.998 1814.05,-350.185 1814.05,-350.185 1814.05,-350.185 1812.7,-354.998 1818.38,-351.405 1811.34,-359.811 1811.34,-359.811"/>
</g>
<!-- 53&#45;&gt;51 -->
<g id="edge103" class="edge"><title>53&#45;&gt;51</title>
<path fill="none" stroke="black" d="M1538.86,-252.303C1534.37,-260.356 1528.94,-270.106 1523.98,-279.018"/>
<polygon fill="black" stroke="black" points="1519.03,-287.896 1519.97,-276.97 1521.46,-283.528 1523.9,-279.16 1523.9,-279.16 1523.9,-279.16 1521.46,-283.528 1527.83,-281.35 1519.03,-287.896 1519.03,-287.896"/>
</g>
<!-- 54&#45;&gt;51 -->
<g id="edge104" class="edge"><title>54&#45;&gt;51</title>
<path fill="none" stroke="black" d="M1650,-252.124C1624.12,-261.863 1591.53,-274.128 1564.26,-284.392"/>
<polygon fill="black" stroke="black" points="1554.85,-287.932 1562.63,-280.198 1559.53,-286.171 1564.21,-284.409 1564.21,-284.409 1564.21,-284.409 1559.53,-286.171 1565.8,-288.621 1554.85,-287.932 1554.85,-287.932"/>
</g>
<!-- 55&#45;&gt;51 -->
<g id="edge105" class="edge"><title>55&#45;&gt;51</title>
<path fill="none" stroke="black" d="M1262.85,-250.189C1318.27,-262.504 1395.64,-279.698 1448.87,-291.527"/>
<polygon fill="black" stroke="black" points="1458.85,-293.745 1448.11,-295.968 1453.97,-292.66 1449.09,-291.575 1449.09,-291.575 1449.09,-291.575 1453.97,-292.66 1450.07,-287.183 1458.85,-293.745 1458.85,-293.745"/>
</g>
<!-- 56&#45;&gt;51 -->
<g id="edge106" class="edge"><title>56&#45;&gt;51</title>
<path fill="none" stroke="black" d="M1393.17,-252.124C1414.13,-261.651 1440.4,-273.593 1462.68,-283.717"/>
<polygon fill="black" stroke="black" points="1471.95,-287.932 1460.98,-287.89 1467.4,-285.863 1462.85,-283.794 1462.85,-283.794 1462.85,-283.794 1467.4,-285.863 1464.71,-279.697 1471.95,-287.932 1471.95,-287.932"/>
</g>
<!-- 58 -->
<g id="node59" class="node"><title>58</title>
<polygon fill="none" stroke="black" points="5903.5,-180 5773.5,-180 5773.5,-144 5903.5,-144 5903.5,-180"/>
<text text-anchor="middle" x="5838.5" y="-158.3" font-family="Times,serif" font-size="14.00">PoliciesMultiPlayers</text>
</g>
<!-- 59 -->
<g id="node60" class="node"><title>59</title>
<polygon fill="none" stroke="black" points="5441,-252 5260,-252 5260,-216 5441,-216 5441,-252"/>
<text text-anchor="middle" x="5350.5" y="-230.3" font-family="Times,serif" font-size="14.00">PoliciesMultiPlayers.ALOHA</text>
</g>
<!-- 58&#45;&gt;59 -->
<g id="edge107" class="edge"><title>58&#45;&gt;59</title>
<path fill="none" stroke="black" d="M5773.19,-171.26C5698.11,-180.904 5570.93,-197.696 5451.3,-215.904"/>
<polygon fill="black" stroke="black" points="5441.23,-217.443 5450.44,-211.484 5446.17,-216.688 5451.12,-215.932 5451.12,-215.932 5451.12,-215.932 5446.17,-216.688 5451.8,-220.381 5441.23,-217.443 5441.23,-217.443"/>
</g>
<!-- 62 -->
<g id="node63" class="node"><title>62</title>
<polygon fill="none" stroke="black" points="7063,-252 6824,-252 6824,-216 7063,-216 7063,-252"/>
<text text-anchor="middle" x="6943.5" y="-230.3" font-family="Times,serif" font-size="14.00">PoliciesMultiPlayers.CentralizedCycling</text>
</g>
<!-- 58&#45;&gt;62 -->
<g id="edge108" class="edge"><title>58&#45;&gt;62</title>
<path fill="none" stroke="black" d="M5903.51,-164.777C6059.03,-169.407 6464.97,-183.72 6813.91,-215.892"/>
<polygon fill="black" stroke="black" points="6823.96,-216.825 6813.59,-220.381 6818.98,-216.363 6814,-215.9 6814,-215.9 6814,-215.9 6818.98,-216.363 6814.42,-211.42 6823.96,-216.825 6823.96,-216.825"/>
</g>
<!-- 63 -->
<g id="node64" class="node"><title>63</title>
<polygon fill="none" stroke="black" points="6367,-252 6140,-252 6140,-216 6367,-216 6367,-252"/>
<text text-anchor="middle" x="6253.5" y="-230.3" font-family="Times,serif" font-size="14.00">PoliciesMultiPlayers.CentralizedFixed</text>
</g>
<!-- 58&#45;&gt;63 -->
<g id="edge109" class="edge"><title>58&#45;&gt;63</title>
<path fill="none" stroke="black" d="M5903.8,-174.015C5967.7,-184.792 6066.26,-201.417 6142.48,-214.274"/>
<polygon fill="black" stroke="black" points="6152.6,-215.982 6142,-218.756 6147.67,-215.15 6142.74,-214.318 6142.74,-214.318 6142.74,-214.318 6147.67,-215.15 6143.49,-209.881 6152.6,-215.982 6152.6,-215.982"/>
</g>
<!-- 64 -->
<g id="node65" class="node"><title>64</title>
<polygon fill="none" stroke="black" points="5726,-252 5459,-252 5459,-216 5726,-216 5726,-252"/>
<text text-anchor="middle" x="5592.5" y="-230.3" font-family="Times,serif" font-size="14.00">PoliciesMultiPlayers.CentralizedMultiplePlay</text>
</g>
<!-- 58&#45;&gt;64 -->
<g id="edge110" class="edge"><title>58&#45;&gt;64</title>
<path fill="none" stroke="black" d="M5778.64,-180.034C5743.52,-190.028 5698.98,-202.702 5662.27,-213.146"/>
<polygon fill="black" stroke="black" points="5652.63,-215.889 5661.02,-208.824 5657.44,-214.521 5662.25,-213.152 5662.25,-213.152 5662.25,-213.152 5657.44,-214.521 5663.48,-217.48 5652.63,-215.889 5652.63,-215.889"/>
</g>
<!-- 67 -->
<g id="node68" class="node"><title>67</title>
<polygon fill="none" stroke="black" points="6576,-252 6385,-252 6385,-216 6576,-216 6576,-252"/>
<text text-anchor="middle" x="6480.5" y="-230.3" font-family="Times,serif" font-size="14.00">PoliciesMultiPlayers.OracleFair</text>
</g>
<!-- 58&#45;&gt;67 -->
<g id="edge111" class="edge"><title>58&#45;&gt;67</title>
<path fill="none" stroke="black" d="M5903.66,-168.069C6003.13,-176.104 6198.99,-193.1 6374.81,-215.82"/>
<polygon fill="black" stroke="black" points="6384.76,-217.115 6374.27,-220.287 6379.81,-216.47 6374.85,-215.824 6374.85,-215.824 6374.85,-215.824 6379.81,-216.47 6375.43,-211.362 6384.76,-217.115 6384.76,-217.115"/>
</g>
<!-- 68 -->
<g id="node69" class="node"><title>68</title>
<polygon fill="none" stroke="black" points="6806.5,-252 6594.5,-252 6594.5,-216 6806.5,-216 6806.5,-252"/>
<text text-anchor="middle" x="6700.5" y="-230.3" font-family="Times,serif" font-size="14.00">PoliciesMultiPlayers.OracleNotFair</text>
</g>
<!-- 58&#45;&gt;68 -->
<g id="edge112" class="edge"><title>58&#45;&gt;68</title>
<path fill="none" stroke="black" d="M5903.6,-165.953C6031.81,-172.131 6326.22,-188.113 6584.02,-215.886"/>
<polygon fill="black" stroke="black" points="6594.33,-217.006 6583.9,-220.4 6589.36,-216.466 6584.39,-215.926 6584.39,-215.926 6584.39,-215.926 6589.36,-216.466 6584.88,-211.453 6594.33,-217.006 6594.33,-217.006"/>
</g>
<!-- 69 -->
<g id="node70" class="node"><title>69</title>
<polygon fill="none" stroke="black" points="5932.5,-252 5744.5,-252 5744.5,-216 5932.5,-216 5932.5,-252"/>
<text text-anchor="middle" x="5838.5" y="-230.3" font-family="Times,serif" font-size="14.00">PoliciesMultiPlayers.Scenario1</text>
</g>
<!-- 58&#45;&gt;69 -->
<g id="edge113" class="edge"><title>58&#45;&gt;69</title>
<path fill="none" stroke="black" d="M5838.5,-180.303C5838.5,-188.017 5838.5,-197.288 5838.5,-205.888"/>
<polygon fill="black" stroke="black" points="5838.5,-215.896 5834,-205.896 5838.5,-210.896 5838.5,-205.896 5838.5,-205.896 5838.5,-205.896 5838.5,-210.896 5843,-205.896 5838.5,-215.896 5838.5,-215.896"/>
</g>
<!-- 70 -->
<g id="node71" class="node"><title>70</title>
<polygon fill="none" stroke="black" points="6122,-252 5951,-252 5951,-216 6122,-216 6122,-252"/>
<text text-anchor="middle" x="6036.5" y="-230.3" font-family="Times,serif" font-size="14.00">PoliciesMultiPlayers.Selfish</text>
</g>
<!-- 58&#45;&gt;70 -->
<g id="edge114" class="edge"><title>58&#45;&gt;70</title>
<path fill="none" stroke="black" d="M5886.68,-180.034C5914.35,-189.815 5949.28,-202.164 5978.45,-212.476"/>
<polygon fill="black" stroke="black" points="5988.1,-215.889 5977.17,-216.799 5983.39,-214.223 5978.67,-212.556 5978.67,-212.556 5978.67,-212.556 5983.39,-214.223 5980.17,-208.313 5988.1,-215.889 5988.1,-215.889"/>
</g>
<!-- 72 -->
<g id="node73" class="node"><title>72</title>
<polygon fill="none" stroke="black" points="5014.5,-252 4834.5,-252 4834.5,-216 5014.5,-216 5014.5,-252"/>
<text text-anchor="middle" x="4924.5" y="-230.3" font-family="Times,serif" font-size="14.00">PoliciesMultiPlayers.rhoRand</text>
</g>
<!-- 58&#45;&gt;72 -->
<g id="edge115" class="edge"><title>58&#45;&gt;72</title>
<path fill="none" stroke="black" d="M5773.4,-164.954C5636.72,-169.551 5309.72,-183.15 5024.77,-216.054"/>
<polygon fill="black" stroke="black" points="5014.65,-217.233 5024.07,-211.606 5019.62,-216.654 5024.59,-216.076 5024.59,-216.076 5024.59,-216.076 5019.62,-216.654 5025.11,-220.546 5014.65,-217.233 5014.65,-217.233"/>
</g>
<!-- 73 -->
<g id="node74" class="node"><title>73</title>
<polygon fill="none" stroke="black" points="5242,-252 5033,-252 5033,-216 5242,-216 5242,-252"/>
<text text-anchor="middle" x="5137.5" y="-230.3" font-family="Times,serif" font-size="14.00">PoliciesMultiPlayers.rhoRandRand</text>
</g>
<!-- 58&#45;&gt;73 -->
<g id="edge116" class="edge"><title>58&#45;&gt;73</title>
<path fill="none" stroke="black" d="M5773.22,-167.651C5666.57,-175.524 5448.11,-192.794 5252.33,-215.942"/>
<polygon fill="black" stroke="black" points="5242.14,-217.155 5251.54,-211.504 5247.11,-216.564 5252.07,-215.973 5252.07,-215.973 5252.07,-215.973 5247.11,-216.564 5252.6,-220.441 5242.14,-217.155 5242.14,-217.155"/>
</g>
<!-- 61 -->
<g id="node62" class="node"><title>61</title>
<polygon fill="none" stroke="black" points="6158,-324 5943,-324 5943,-288 6158,-288 6158,-324"/>
<text text-anchor="middle" x="6050.5" y="-302.3" font-family="Times,serif" font-size="14.00">PoliciesMultiPlayers.BaseMPPolicy</text>
</g>
<!-- 59&#45;&gt;61 -->
<g id="edge117" class="edge"><title>59&#45;&gt;61</title>
<path fill="none" stroke="black" d="M5441.2,-250.801C5444.33,-251.226 5447.44,-251.627 5450.5,-252 5661.38,-277.709 5718.38,-264.753 5932.79,-287.857"/>
<polygon fill="black" stroke="black" points="5942.79,-288.948 5932.36,-292.337 5937.82,-288.406 5932.85,-287.863 5932.85,-287.863 5932.85,-287.863 5937.82,-288.406 5933.33,-283.39 5942.79,-288.948 5942.79,-288.948"/>
</g>
<!-- 65 -->
<g id="node66" class="node"><title>65</title>
<polygon fill="none" stroke="black" points="5925,-324 5722,-324 5722,-288 5925,-288 5925,-324"/>
<text text-anchor="middle" x="5823.5" y="-302.3" font-family="Times,serif" font-size="14.00">PoliciesMultiPlayers.ChildPointer</text>
</g>
<!-- 59&#45;&gt;65 -->
<g id="edge118" class="edge"><title>59&#45;&gt;65</title>
<path fill="none" stroke="black" d="M5441.23,-250.536C5444.36,-251.035 5447.46,-251.525 5450.5,-252 5537.99,-265.65 5637.26,-279.685 5711.38,-289.881"/>
<polygon fill="black" stroke="black" points="5721.67,-291.293 5711.15,-294.391 5716.72,-290.613 5711.77,-289.933 5711.77,-289.933 5711.77,-289.933 5716.72,-290.613 5712.38,-285.475 5721.67,-291.293 5721.67,-291.293"/>
</g>
<!-- 60 -->
<g id="node61" class="node"><title>60</title>
<polygon fill="none" stroke="black" points="6719,-324 6462,-324 6462,-288 6719,-288 6719,-324"/>
<text text-anchor="middle" x="6590.5" y="-302.3" font-family="Times,serif" font-size="14.00">PoliciesMultiPlayers.BaseCentralizedPolicy</text>
</g>
<!-- 62&#45;&gt;60 -->
<g id="edge119" class="edge"><title>62&#45;&gt;60</title>
<path fill="none" stroke="black" d="M6857.6,-252.034C6805.82,-262.302 6739.77,-275.399 6686.31,-286.001"/>
<polygon fill="black" stroke="black" points="6676.48,-287.95 6685.41,-281.591 6681.39,-286.977 6686.29,-286.005 6686.29,-286.005 6686.29,-286.005 6681.39,-286.977 6687.17,-290.419 6676.48,-287.95 6676.48,-287.95"/>
</g>
<!-- 62&#45;&gt;61 -->
<g id="edge120" class="edge"><title>62&#45;&gt;61</title>
<path fill="none" stroke="black" d="M6823.95,-251.118C6821.11,-251.424 6818.29,-251.719 6815.5,-252 6586.8,-275.086 6318.61,-291.14 6168.23,-299.146"/>
<polygon fill="black" stroke="black" points="6158.05,-299.685 6167.8,-294.662 6163.05,-299.421 6168.04,-299.156 6168.04,-299.156 6168.04,-299.156 6163.05,-299.421 6168.28,-303.65 6158.05,-299.685 6158.05,-299.685"/>
</g>
<!-- 62&#45;&gt;65 -->
<g id="edge121" class="edge"><title>62&#45;&gt;65</title>
<path fill="none" stroke="black" d="M6823.96,-251.226C6821.12,-251.499 6818.29,-251.758 6815.5,-252 6428.42,-285.543 6326.3,-250.881 5935.24,-288.007"/>
<polygon fill="black" stroke="black" points="5925.07,-288.983 5934.59,-283.548 5930.04,-288.505 5935.02,-288.028 5935.02,-288.028 5935.02,-288.028 5930.04,-288.505 5935.45,-292.507 5925.07,-288.983 5925.07,-288.983"/>
</g>
<!-- 63&#45;&gt;60 -->
<g id="edge122" class="edge"><title>63&#45;&gt;60</title>
<path fill="none" stroke="black" d="M6335.51,-252.034C6384.73,-262.259 6447.47,-275.29 6498.4,-285.869"/>
<polygon fill="black" stroke="black" points="6508.42,-287.95 6497.71,-290.322 6503.52,-286.933 6498.63,-285.916 6498.63,-285.916 6498.63,-285.916 6503.52,-286.933 6499.54,-281.51 6508.42,-287.95 6508.42,-287.95"/>
</g>
<!-- 63&#45;&gt;61 -->
<g id="edge123" class="edge"><title>63&#45;&gt;61</title>
<path fill="none" stroke="black" d="M6204.1,-252.034C6175.61,-261.858 6139.61,-274.271 6109.63,-284.611"/>
<polygon fill="black" stroke="black" points="6100.12,-287.889 6108.11,-280.375 6104.85,-286.259 6109.58,-284.629 6109.58,-284.629 6109.58,-284.629 6104.85,-286.259 6111.04,-288.883 6100.12,-287.889 6100.12,-287.889"/>
</g>
<!-- 63&#45;&gt;65 -->
<g id="edge124" class="edge"><title>63&#45;&gt;65</title>
<path fill="none" stroke="black" d="M6148.86,-252.034C6084.19,-262.562 6001.24,-276.066 5935.28,-286.803"/>
<polygon fill="black" stroke="black" points="5925.27,-288.434 5934.41,-282.385 5930.2,-287.63 5935.14,-286.827 5935.14,-286.827 5935.14,-286.827 5930.2,-287.63 5935.86,-291.268 5925.27,-288.434 5925.27,-288.434"/>
</g>
<!-- 64&#45;&gt;61 -->
<g id="edge125" class="edge"><title>64&#45;&gt;61</title>
<path fill="none" stroke="black" d="M5703.95,-252.034C5773.23,-262.622 5862.2,-276.22 5932.64,-286.987"/>
<polygon fill="black" stroke="black" points="5942.89,-288.554 5932.33,-291.491 5937.95,-287.798 5933.01,-287.043 5933.01,-287.043 5933.01,-287.043 5937.95,-287.798 5933.69,-282.595 5942.89,-288.554 5942.89,-288.554"/>
</g>
<!-- 64&#45;&gt;65 -->
<g id="edge126" class="edge"><title>64&#45;&gt;65</title>
<path fill="none" stroke="black" d="M5648.71,-252.034C5681.41,-261.943 5722.8,-274.486 5757.1,-284.879"/>
<polygon fill="black" stroke="black" points="5767.03,-287.889 5756.16,-289.296 5762.25,-286.439 5757.46,-284.989 5757.46,-284.989 5757.46,-284.989 5762.25,-286.439 5758.77,-280.682 5767.03,-287.889 5767.03,-287.889"/>
</g>
<!-- 66 -->
<g id="node67" class="node"><title>66</title>
<polygon fill="none" stroke="black" points="4505,-36 4340,-36 4340,-0 4505,-0 4505,-36"/>
<text text-anchor="middle" x="4422.5" y="-14.3" font-family="Times,serif" font-size="14.00">PoliciesMultiPlayers.DMC</text>
</g>
<!-- 67&#45;&gt;60 -->
<g id="edge127" class="edge"><title>67&#45;&gt;60</title>
<path fill="none" stroke="black" d="M6507.41,-252.124C6521.66,-261.192 6539.35,-272.448 6554.74,-282.241"/>
<polygon fill="black" stroke="black" points="6563.49,-287.81 6552.63,-286.238 6559.27,-285.126 6555.05,-282.441 6555.05,-282.441 6555.05,-282.441 6559.27,-285.126 6557.47,-278.645 6563.49,-287.81 6563.49,-287.81"/>
</g>
<!-- 67&#45;&gt;61 -->
<g id="edge128" class="edge"><title>67&#45;&gt;61</title>
<path fill="none" stroke="black" d="M6384.73,-250.658C6381.96,-251.11 6379.21,-251.558 6376.5,-252 6306.4,-263.428 6227.81,-276.206 6165.36,-286.352"/>
<polygon fill="black" stroke="black" points="6155.48,-287.957 6164.63,-281.911 6160.41,-287.155 6165.35,-286.353 6165.35,-286.353 6165.35,-286.353 6160.41,-287.155 6166.07,-290.795 6155.48,-287.957 6155.48,-287.957"/>
</g>
<!-- 67&#45;&gt;65 -->
<g id="edge129" class="edge"><title>67&#45;&gt;65</title>
<path fill="none" stroke="black" d="M6384.77,-250.946C6381.99,-251.315 6379.22,-251.667 6376.5,-252 6184.11,-275.52 6131.98,-265.417 5935.18,-287.977"/>
<polygon fill="black" stroke="black" points="5925.08,-289.148 5934.5,-283.525 5930.05,-288.572 5935.02,-287.995 5935.02,-287.995 5935.02,-287.995 5930.05,-288.572 5935.54,-292.465 5925.08,-289.148 5925.08,-289.148"/>
</g>
<!-- 68&#45;&gt;60 -->
<g id="edge130" class="edge"><title>68&#45;&gt;60</title>
<path fill="none" stroke="black" d="M6673.59,-252.124C6659.34,-261.192 6641.65,-272.448 6626.26,-282.241"/>
<polygon fill="black" stroke="black" points="6617.51,-287.81 6623.53,-278.645 6621.73,-285.126 6625.95,-282.441 6625.95,-282.441 6625.95,-282.441 6621.73,-285.126 6628.37,-286.238 6617.51,-287.81 6617.51,-287.81"/>
</g>
<!-- 68&#45;&gt;61 -->
<g id="edge131" class="edge"><title>68&#45;&gt;61</title>
<path fill="none" stroke="black" d="M6594.32,-250.886C6591.35,-251.269 6588.4,-251.642 6585.5,-252 6442.11,-269.691 6276.52,-285.365 6168,-294.994"/>
<polygon fill="black" stroke="black" points="6158.01,-295.878 6167.57,-290.514 6162.99,-295.437 6167.97,-294.997 6167.97,-294.997 6167.97,-294.997 6162.99,-295.437 6168.37,-299.479 6158.01,-295.878 6158.01,-295.878"/>
</g>
<!-- 68&#45;&gt;65 -->
<g id="edge132" class="edge"><title>68&#45;&gt;65</title>
<path fill="none" stroke="black" d="M6594.34,-251.055C6591.36,-251.389 6588.41,-251.705 6585.5,-252 6300.58,-280.876 6224.5,-258.567 5935.45,-287.973"/>
<polygon fill="black" stroke="black" points="5925.07,-289.042 5934.56,-283.541 5930.05,-288.529 5935.02,-288.017 5935.02,-288.017 5935.02,-288.017 5930.05,-288.529 5935.48,-292.494 5925.07,-289.042 5925.07,-289.042"/>
</g>
<!-- 69&#45;&gt;61 -->
<g id="edge133" class="edge"><title>69&#45;&gt;61</title>
<path fill="none" stroke="black" d="M5890.09,-252.034C5919.97,-261.9 5957.76,-274.378 5989.16,-284.745"/>
<polygon fill="black" stroke="black" points="5998.68,-287.889 5987.77,-289.027 5993.93,-286.321 5989.18,-284.754 5989.18,-284.754 5989.18,-284.754 5993.93,-286.321 5990.59,-280.481 5998.68,-287.889 5998.68,-287.889"/>
</g>
<!-- 69&#45;&gt;65 -->
<g id="edge134" class="edge"><title>69&#45;&gt;65</title>
<path fill="none" stroke="black" d="M5834.79,-252.303C5833.14,-260.017 5831.15,-269.288 5829.31,-277.888"/>
<polygon fill="black" stroke="black" points="5827.17,-287.896 5824.86,-277.175 5828.21,-283.007 5829.26,-278.118 5829.26,-278.118 5829.26,-278.118 5828.21,-283.007 5833.66,-279.061 5827.17,-287.896 5827.17,-287.896"/>
</g>
<!-- 70&#45;&gt;61 -->
<g id="edge135" class="edge"><title>70&#45;&gt;61</title>
<path fill="none" stroke="black" d="M6039.96,-252.303C6041.5,-260.017 6043.36,-269.288 6045.08,-277.888"/>
<polygon fill="black" stroke="black" points="6047.08,-287.896 6040.71,-278.972 6046.1,-282.993 6045.12,-278.09 6045.12,-278.09 6045.12,-278.09 6046.1,-282.993 6049.53,-277.207 6047.08,-287.896 6047.08,-287.896"/>
</g>
<!-- 70&#45;&gt;65 -->
<g id="edge136" class="edge"><title>70&#45;&gt;65</title>
<path fill="none" stroke="black" d="M5984.67,-252.034C5954.65,-261.9 5916.68,-274.378 5885.13,-284.745"/>
<polygon fill="black" stroke="black" points="5875.57,-287.889 5883.66,-280.492 5880.32,-286.328 5885.07,-284.767 5885.07,-284.767 5885.07,-284.767 5880.32,-286.328 5886.47,-289.042 5875.57,-287.889 5875.57,-287.889"/>
</g>
<!-- 71 -->
<g id="node72" class="node"><title>71</title>
<polygon fill="none" stroke="black" points="4690,-36 4523,-36 4523,-0 4690,-0 4690,-36"/>
<text text-anchor="middle" x="4606.5" y="-14.3" font-family="Times,serif" font-size="14.00">PoliciesMultiPlayers.TDFS</text>
</g>
<!-- 72&#45;&gt;61 -->
<g id="edge137" class="edge"><title>72&#45;&gt;61</title>
<path fill="none" stroke="black" d="M5014.64,-250.874C5017.97,-251.284 5021.26,-251.662 5024.5,-252 5423.73,-293.657 5529.72,-251.316 5932.62,-287.885"/>
<polygon fill="black" stroke="black" points="5942.8,-288.82 5932.43,-292.387 5937.82,-288.363 5932.84,-287.906 5932.84,-287.906 5932.84,-287.906 5937.82,-288.363 5933.25,-283.424 5942.8,-288.82 5942.8,-288.82"/>
</g>
<!-- 72&#45;&gt;65 -->
<g id="edge138" class="edge"><title>72&#45;&gt;65</title>
<path fill="none" stroke="black" d="M5014.65,-250.762C5017.97,-251.204 5021.26,-251.619 5024.5,-252 5268.86,-280.799 5557.25,-295.11 5711.98,-301.2"/>
<polygon fill="black" stroke="black" points="5721.98,-301.59 5711.81,-305.697 5716.98,-301.395 5711.99,-301.2 5711.99,-301.2 5711.99,-301.2 5716.98,-301.395 5712.16,-296.704 5721.98,-301.59 5721.98,-301.59"/>
</g>
<!-- 73&#45;&gt;61 -->
<g id="edge139" class="edge"><title>73&#45;&gt;61</title>
<path fill="none" stroke="black" d="M5242.13,-250.998C5245.28,-251.354 5248.41,-251.689 5251.5,-252 5550.55,-282.11 5630.23,-258.473 5932.41,-287.847"/>
<polygon fill="black" stroke="black" points="5942.79,-288.869 5932.4,-292.368 5937.82,-288.379 5932.84,-287.889 5932.84,-287.889 5932.84,-287.889 5937.82,-288.379 5933.28,-283.411 5942.79,-288.869 5942.79,-288.869"/>
</g>
<!-- 73&#45;&gt;65 -->
<g id="edge140" class="edge"><title>73&#45;&gt;65</title>
<path fill="none" stroke="black" d="M5242.14,-250.836C5245.3,-251.239 5248.42,-251.628 5251.5,-252 5410.92,-271.258 5596.09,-287.257 5711.54,-296.479"/>
<polygon fill="black" stroke="black" points="5721.8,-297.295 5711.48,-300.988 5716.82,-296.899 5711.83,-296.502 5711.83,-296.502 5711.83,-296.502 5716.82,-296.899 5712.19,-292.016 5721.8,-297.295 5721.8,-297.295"/>
</g>
<!-- 74 -->
<g id="node75" class="node"><title>74</title>
<polygon fill="none" stroke="black" points="4762.5,-36 4708.5,-36 4708.5,-0 4762.5,-0 4762.5,-36"/>
<text text-anchor="middle" x="4735.5" y="-14.3" font-family="Times,serif" font-size="14.00">conf</text>
</g>
<!-- 75 -->
<g id="node76" class="node"><title>75</title>
<polygon fill="none" stroke="black" points="3783,-108 3694,-108 3694,-72 3783,-72 3783,-108"/>
<text text-anchor="middle" x="3738.5" y="-86.3" font-family="Times,serif" font-size="14.00">configuration</text>
</g>
<!-- 75&#45;&gt;0 -->
<g id="edge141" class="edge"><title>75&#45;&gt;0</title>
<path fill="none" stroke="black" d="M3738.5,-108.303C3738.5,-116.017 3738.5,-125.288 3738.5,-133.888"/>
<polygon fill="black" stroke="black" points="3738.5,-143.896 3734,-133.896 3738.5,-138.896 3738.5,-133.896 3738.5,-133.896 3738.5,-133.896 3738.5,-138.896 3743,-133.896 3738.5,-143.896 3738.5,-143.896"/>
</g>
<!-- 75&#45;&gt;2 -->
<g id="edge142" class="edge"><title>75&#45;&gt;2</title>
<path fill="none" stroke="black" d="M3722.89,-108.226C3715.13,-117.97 3706.55,-130.816 3702.5,-144 3696.34,-164.031 3696.99,-187.817 3698.96,-205.757"/>
<polygon fill="black" stroke="black" points="3700.27,-215.829 3694.52,-206.493 3699.62,-210.871 3698.98,-205.912 3698.98,-205.912 3698.98,-205.912 3699.62,-210.871 3703.44,-205.332 3700.27,-215.829 3700.27,-215.829"/>
</g>
<!-- 75&#45;&gt;3 -->
<g id="edge143" class="edge"><title>75&#45;&gt;3</title>
<path fill="none" stroke="black" d="M3750.33,-108.084C3757.43,-118.42 3766.59,-131.898 3774.5,-144 3788.28,-165.077 3803.47,-189.283 3814.55,-207.125"/>
<polygon fill="black" stroke="black" points="3819.94,-215.825 3810.85,-209.694 3817.31,-211.574 3814.67,-207.324 3814.67,-207.324 3814.67,-207.324 3817.31,-211.574 3818.5,-204.954 3819.94,-215.825 3819.94,-215.825"/>
</g>
<!-- 75&#45;&gt;4 -->
<g id="edge144" class="edge"><title>75&#45;&gt;4</title>
<path fill="none" stroke="black" d="M3693.79,-104.532C3665.21,-113.942 3627.77,-127.699 3596.5,-144 3560.3,-162.873 3522.22,-190.195 3496.9,-209.579"/>
<polygon fill="black" stroke="black" points="3488.82,-215.825 3493.98,-206.148 3492.78,-212.766 3496.73,-209.708 3496.73,-209.708 3496.73,-209.708 3492.78,-212.766 3499.49,-213.268 3488.82,-215.825 3488.82,-215.825"/>
</g>
<!-- 75&#45;&gt;5 -->
<g id="edge145" class="edge"><title>75&#45;&gt;5</title>
<path fill="none" stroke="black" d="M3764.43,-108.129C3803.09,-133.662 3875.9,-181.747 3919.01,-210.219"/>
<polygon fill="black" stroke="black" points="3927.47,-215.811 3916.65,-214.055 3923.3,-213.055 3919.13,-210.3 3919.13,-210.3 3919.13,-210.3 3923.3,-213.055 3921.61,-206.545 3927.47,-215.811 3927.47,-215.811"/>
</g>
<!-- 75&#45;&gt;16 -->
<g id="edge146" class="edge"><title>75&#45;&gt;16</title>
<path fill="none" stroke="black" d="M3693.76,-92.43C3409.41,-101.519 1857.36,-151.128 1588.27,-159.729"/>
<polygon fill="black" stroke="black" points="1578.18,-160.051 1588.03,-155.234 1583.18,-159.892 1588.17,-159.732 1588.17,-159.732 1588.17,-159.732 1583.18,-159.892 1588.32,-164.23 1578.18,-160.051 1578.18,-160.051"/>
</g>
<!-- 76 -->
<g id="node77" class="node"><title>76</title>
<polygon fill="none" stroke="black" points="4000.5,-108 3836.5,-108 3836.5,-72 4000.5,-72 4000.5,-108"/>
<text text-anchor="middle" x="3918.5" y="-86.3" font-family="Times,serif" font-size="14.00">configuration_multiplayers</text>
</g>
<!-- 76&#45;&gt;0 -->
<g id="edge147" class="edge"><title>76&#45;&gt;0</title>
<path fill="none" stroke="black" d="M3872.67,-108.096C3845.51,-118.322 3810.46,-131.683 3779.5,-144 3778.11,-144.552 3776.7,-145.118 3775.28,-145.692"/>
<polygon fill="black" stroke="black" points="3765.8,-149.551 3773.37,-141.611 3770.43,-147.665 3775.06,-145.778 3775.06,-145.778 3775.06,-145.778 3770.43,-147.665 3776.76,-149.946 3765.8,-149.551 3765.8,-149.551"/>
</g>
<!-- 76&#45;&gt;2 -->
<g id="edge148" class="edge"><title>76&#45;&gt;2</title>
<path fill="none" stroke="black" d="M3892.57,-108.129C3853.91,-133.662 3781.1,-181.747 3737.99,-210.219"/>
<polygon fill="black" stroke="black" points="3729.53,-215.811 3735.39,-206.545 3733.7,-213.055 3737.87,-210.3 3737.87,-210.3 3737.87,-210.3 3733.7,-213.055 3740.35,-214.055 3729.53,-215.811 3729.53,-215.811"/>
</g>
<!-- 76&#45;&gt;3 -->
<g id="edge149" class="edge"><title>76&#45;&gt;3</title>
<path fill="none" stroke="black" d="M3907.89,-108.129C3892.62,-132.756 3864.36,-178.362 3846.54,-207.115"/>
<polygon fill="black" stroke="black" points="3841.15,-215.811 3842.6,-204.94 3843.79,-211.561 3846.42,-207.311 3846.42,-207.311 3846.42,-207.311 3843.79,-211.561 3850.25,-209.681 3841.15,-215.811 3841.15,-215.811"/>
</g>
<!-- 76&#45;&gt;4 -->
<g id="edge150" class="edge"><title>76&#45;&gt;4</title>
<path fill="none" stroke="black" d="M3839.13,-108.045C3798.02,-117.483 3747.21,-130.105 3702.5,-144 3637.61,-164.168 3564.68,-192.744 3517.52,-212.029"/>
<polygon fill="black" stroke="black" points="3508.15,-215.877 3515.69,-207.915 3512.78,-213.977 3517.4,-212.077 3517.4,-212.077 3517.4,-212.077 3512.78,-213.977 3519.11,-216.24 3508.15,-215.877 3508.15,-215.877"/>
</g>
<!-- 76&#45;&gt;5 -->
<g id="edge151" class="edge"><title>76&#45;&gt;5</title>
<path fill="none" stroke="black" d="M3922.72,-108.129C3928.71,-132.436 3939.74,-177.181 3946.84,-205.987"/>
<polygon fill="black" stroke="black" points="3949.26,-215.811 3942.5,-207.178 3948.07,-210.956 3946.87,-206.101 3946.87,-206.101 3946.87,-206.101 3948.07,-210.956 3951.24,-205.024 3949.26,-215.811 3949.26,-215.811"/>
</g>
<!-- 76&#45;&gt;9 -->
<g id="edge152" class="edge"><title>76&#45;&gt;9</title>
<path fill="none" stroke="black" d="M4000.79,-96.2219C4187.69,-108.187 4629.18,-137.088 4643.5,-144 4672.14,-157.823 4695.58,-186.417 4709.96,-207.481"/>
<polygon fill="black" stroke="black" points="4715.55,-215.982 4706.3,-210.102 4712.8,-211.805 4710.06,-207.629 4710.06,-207.629 4710.06,-207.629 4712.8,-211.805 4713.81,-205.155 4715.55,-215.982 4715.55,-215.982"/>
</g>
<!-- 76&#45;&gt;12 -->
<g id="edge153" class="edge"><title>76&#45;&gt;12</title>
<path fill="none" stroke="black" d="M3936.85,-108.064C3959.51,-128.211 4000.03,-161.333 4040.5,-180 4100.34,-207.597 4122.4,-200.693 4190.94,-215.948"/>
<polygon fill="black" stroke="black" points="4200.93,-218.253 4190.17,-220.389 4196.06,-217.129 4191.18,-216.004 4191.18,-216.004 4191.18,-216.004 4196.06,-217.129 4192.2,-211.619 4200.93,-218.253 4200.93,-218.253"/>
</g>
<!-- 76&#45;&gt;16 -->
<g id="edge154" class="edge"><title>76&#45;&gt;16</title>
<path fill="none" stroke="black" d="M3836.32,-103.336C3821.43,-105.19 3806.03,-106.86 3791.5,-108 3339.06,-143.519 1851.89,-158.289 1588.54,-160.654"/>
<polygon fill="black" stroke="black" points="1578.3,-160.745 1588.26,-156.156 1583.3,-160.701 1588.3,-160.656 1588.3,-160.656 1588.3,-160.656 1583.3,-160.701 1588.34,-165.156 1578.3,-160.745 1578.3,-160.745"/>
</g>
<!-- 76&#45;&gt;58 -->
<g id="edge155" class="edge"><title>76&#45;&gt;58</title>
<path fill="none" stroke="black" d="M4000.63,-96.3653C4058.9,-100.033 4138.98,-104.793 4209.5,-108 4808.34,-135.229 5531.63,-153.687 5763.29,-159.244"/>
<polygon fill="black" stroke="black" points="5773.3,-159.484 5763.19,-163.743 5768.3,-159.364 5763.3,-159.244 5763.3,-159.244 5763.3,-159.244 5768.3,-159.364 5763.41,-154.746 5773.3,-159.484 5773.3,-159.484"/>
</g>
<!-- 77 -->
<g id="node78" class="node"><title>77</title>
<polygon fill="none" stroke="black" points="4148.5,-36 4094.5,-36 4094.5,-0 4148.5,-0 4148.5,-36"/>
<text text-anchor="middle" x="4121.5" y="-14.3" font-family="Times,serif" font-size="14.00">main</text>
</g>
<!-- 77&#45;&gt;8 -->
<g id="edge156" class="edge"><title>77&#45;&gt;8</title>
<path fill="none" stroke="black" d="M4148.69,-32.4967C4168.59,-42.3785 4196.02,-55.9941 4218.96,-67.3835"/>
<polygon fill="black" stroke="black" points="4228.15,-71.9488 4217.2,-71.5327 4223.68,-69.7254 4219.2,-67.502 4219.2,-67.502 4219.2,-67.502 4223.68,-69.7254 4221.2,-63.4714 4228.15,-71.9488 4228.15,-71.9488"/>
</g>
<!-- 77&#45;&gt;10 -->
<g id="edge157" class="edge"><title>77&#45;&gt;10</title>
<path fill="none" stroke="black" d="M4121.5,-36.1285C4121.5,-60.3298 4121.5,-104.789 4121.5,-133.607"/>
<polygon fill="black" stroke="black" points="4121.5,-143.811 4117,-133.811 4121.5,-138.811 4121.5,-133.811 4121.5,-133.811 4121.5,-133.811 4121.5,-138.811 4126,-133.811 4121.5,-143.811 4121.5,-143.811"/>
</g>
<!-- 77&#45;&gt;75 -->
<g id="edge158" class="edge"><title>77&#45;&gt;75</title>
<path fill="none" stroke="black" d="M4094.33,-23.8016C4042.43,-32.992 3925.66,-53.7776 3827.5,-72 3816.49,-74.0443 3804.72,-76.2666 3793.46,-78.4096"/>
<polygon fill="black" stroke="black" points="3783.3,-80.3481 3792.28,-74.053 3788.21,-79.4107 3793.13,-78.4732 3793.13,-78.4732 3793.13,-78.4732 3788.21,-79.4107 3793.97,-82.8934 3783.3,-80.3481 3783.3,-80.3481"/>
</g>
<!-- 78 -->
<g id="node79" class="node"><title>78</title>
<polygon fill="none" stroke="black" points="4322,-36 4203,-36 4203,-0 4322,-0 4322,-36"/>
<text text-anchor="middle" x="4262.5" y="-14.3" font-family="Times,serif" font-size="14.00">main_multiplayers</text>
</g>
<!-- 78&#45;&gt;8 -->
<g id="edge159" class="edge"><title>78&#45;&gt;8</title>
<path fill="none" stroke="black" d="M4262.5,-36.3034C4262.5,-44.0173 4262.5,-53.2875 4262.5,-61.8876"/>
<polygon fill="black" stroke="black" points="4262.5,-71.8957 4258,-61.8956 4262.5,-66.8957 4262.5,-61.8957 4262.5,-61.8957 4262.5,-61.8957 4262.5,-66.8957 4267,-61.8957 4262.5,-71.8957 4262.5,-71.8957"/>
</g>
<!-- 78&#45;&gt;11 -->
<g id="edge160" class="edge"><title>78&#45;&gt;11</title>
<path fill="none" stroke="black" d="M4294.34,-36.1285C4342.21,-61.8757 4432.71,-110.552 4485.47,-138.928"/>
<polygon fill="black" stroke="black" points="4494.54,-143.811 4483.6,-143.037 4490.14,-141.442 4485.74,-139.074 4485.74,-139.074 4485.74,-139.074 4490.14,-141.442 4487.87,-135.111 4494.54,-143.811 4494.54,-143.811"/>
</g>
<!-- 78&#45;&gt;76 -->
<g id="edge161" class="edge"><title>78&#45;&gt;76</title>
<path fill="none" stroke="black" d="M4202.97,-31.1132C4150.06,-41.8812 4071.85,-57.7959 4010.82,-70.2145"/>
<polygon fill="black" stroke="black" points="4000.79,-72.2545 4009.69,-65.8508 4005.69,-71.2575 4010.59,-70.2605 4010.59,-70.2605 4010.59,-70.2605 4005.69,-71.2575 4011.49,-74.6701 4000.79,-72.2545 4000.79,-72.2545"/>
</g>
</g>
</svg>
