<?xml version="1.0" encoding="UTF-8" standalone="no"?>
<!DOCTYPE svg PUBLIC "-//W3C//DTD SVG 1.1//EN"
 "http://www.w3.org/Graphics/SVG/1.1/DTD/svg11.dtd">
<!-- Generated by graphviz version 2.38.0 (20140413.2041)
 -->
<!-- Title: packages_AlgoBandits Pages: 1 -->
<svg width="5694pt" height="548pt"
 viewBox="0.00 0.00 5693.50 548.00" xmlns="http://www.w3.org/2000/svg" xmlns:xlink="http://www.w3.org/1999/xlink">
<g id="graph0" class="graph" transform="scale(1 1) rotate(0) translate(4 544)">
<title>packages_AlgoBandits</title>
<polygon fill="white" stroke="none" points="-4,4 -4,-544 5689.5,-544 5689.5,4 -4,4"/>
<!-- 0 -->
<g id="node1" class="node"><title>0</title>
<polygon fill="none" stroke="black" points="328,-108 274,-108 274,-72 328,-72 328,-108"/>
<text text-anchor="middle" x="301" y="-86.3" font-family="Times,serif" font-size="14.00">Arms</text>
</g>
<!-- 2 -->
<g id="node3" class="node"><title>2</title>
<polygon fill="none" stroke="black" points="583,-180 481,-180 481,-144 583,-144 583,-180"/>
<text text-anchor="middle" x="532" y="-158.3" font-family="Times,serif" font-size="14.00">Arms.Bernoulli</text>
</g>
<!-- 0&#45;&gt;2 -->
<g id="edge1" class="edge"><title>0&#45;&gt;2</title>
<path fill="none" stroke="black" d="M328.406,-99.3048C363.329,-109.887 424.706,-128.487 470.966,-142.505"/>
<polygon fill="black" stroke="black" points="480.592,-145.422 469.717,-146.828 475.807,-143.972 471.022,-142.522 471.022,-142.522 471.022,-142.522 475.807,-143.972 472.327,-138.215 480.592,-145.422 480.592,-145.422"/>
</g>
<!-- 3 -->
<g id="node4" class="node"><title>3</title>
<polygon fill="none" stroke="black" points="232,-180 116,-180 116,-144 232,-144 232,-180"/>
<text text-anchor="middle" x="174" y="-158.3" font-family="Times,serif" font-size="14.00">Arms.Exponential</text>
</g>
<!-- 0&#45;&gt;3 -->
<g id="edge2" class="edge"><title>0&#45;&gt;3</title>
<path fill="none" stroke="black" d="M273.755,-106.017C256.389,-115.588 233.583,-128.159 214.161,-138.864"/>
<polygon fill="black" stroke="black" points="205.223,-143.791 211.808,-135.022 209.602,-141.377 213.981,-138.963 213.981,-138.963 213.981,-138.963 209.602,-141.377 216.153,-142.904 205.223,-143.791 205.223,-143.791"/>
</g>
<!-- 4 -->
<g id="node5" class="node"><title>4</title>
<polygon fill="none" stroke="black" points="351.5,-180 250.5,-180 250.5,-144 351.5,-144 351.5,-180"/>
<text text-anchor="middle" x="301" y="-158.3" font-family="Times,serif" font-size="14.00">Arms.Gaussian</text>
</g>
<!-- 0&#45;&gt;4 -->
<g id="edge3" class="edge"><title>0&#45;&gt;4</title>
<path fill="none" stroke="black" d="M301,-108.303C301,-116.017 301,-125.288 301,-133.888"/>
<polygon fill="black" stroke="black" points="301,-143.896 296.5,-133.896 301,-138.896 301,-133.896 301,-133.896 301,-133.896 301,-138.896 305.5,-133.896 301,-143.896 301,-143.896"/>
</g>
<!-- 5 -->
<g id="node6" class="node"><title>5</title>
<polygon fill="none" stroke="black" points="462.5,-180 369.5,-180 369.5,-144 462.5,-144 462.5,-180"/>
<text text-anchor="middle" x="416" y="-158.3" font-family="Times,serif" font-size="14.00">Arms.Poisson</text>
</g>
<!-- 0&#45;&gt;5 -->
<g id="edge4" class="edge"><title>0&#45;&gt;5</title>
<path fill="none" stroke="black" d="M328.253,-107.589C343.385,-116.799 362.423,-128.388 378.895,-138.414"/>
<polygon fill="black" stroke="black" points="387.741,-143.799 376.859,-142.443 383.47,-141.199 379.199,-138.6 379.199,-138.6 379.199,-138.6 383.47,-141.199 381.539,-134.756 387.741,-143.799 387.741,-143.799"/>
</g>
<!-- 6 -->
<g id="node7" class="node"><title>6</title>
<polygon fill="none" stroke="black" points="98,-180 7.10543e-15,-180 7.10543e-15,-144 98,-144 98,-180"/>
<text text-anchor="middle" x="49" y="-158.3" font-family="Times,serif" font-size="14.00">Arms.Uniform</text>
</g>
<!-- 0&#45;&gt;6 -->
<g id="edge5" class="edge"><title>0&#45;&gt;6</title>
<path fill="none" stroke="black" d="M273.966,-98.2169C238.199,-107.802 172.951,-125.413 107.659,-143.837"/>
<polygon fill="black" stroke="black" points="98.0294,-146.56 106.427,-139.509 102.841,-145.2 107.652,-143.839 107.652,-143.839 107.652,-143.839 102.841,-145.2 108.877,-148.169 98.0294,-146.56 98.0294,-146.56"/>
</g>
<!-- 1 -->
<g id="node2" class="node"><title>1</title>
<polygon fill="none" stroke="black" points="222.5,-252 145.5,-252 145.5,-216 222.5,-216 222.5,-252"/>
<text text-anchor="middle" x="184" y="-230.3" font-family="Times,serif" font-size="14.00">Arms.Arm</text>
</g>
<!-- 2&#45;&gt;1 -->
<g id="edge6" class="edge"><title>2&#45;&gt;1</title>
<path fill="none" stroke="black" d="M480.858,-177.742C477.532,-178.549 474.225,-179.31 471,-180 369.031,-201.803 338.021,-190.653 232.354,-216.208"/>
<polygon fill="black" stroke="black" points="222.579,-218.624 231.207,-211.856 227.432,-217.424 232.286,-216.225 232.286,-216.225 232.286,-216.225 227.432,-217.424 233.366,-220.593 222.579,-218.624 222.579,-218.624"/>
</g>
<!-- 7 -->
<g id="node8" class="node"><title>7</title>
<polygon fill="none" stroke="black" points="339,-252 241,-252 241,-216 339,-216 339,-252"/>
<text text-anchor="middle" x="290" y="-230.3" font-family="Times,serif" font-size="14.00">Arms.kullback</text>
</g>
<!-- 2&#45;&gt;7 -->
<g id="edge7" class="edge"><title>2&#45;&gt;7</title>
<path fill="none" stroke="black" d="M480.974,-177.76C442.413,-188.914 389.406,-204.246 349.02,-215.928"/>
<polygon fill="black" stroke="black" points="339.302,-218.739 347.658,-211.638 344.105,-217.35 348.908,-215.96 348.908,-215.96 348.908,-215.96 344.105,-217.35 350.159,-220.283 339.302,-218.739 339.302,-218.739"/>
</g>
<!-- 3&#45;&gt;1 -->
<g id="edge8" class="edge"><title>3&#45;&gt;1</title>
<path fill="none" stroke="black" d="M176.472,-180.303C177.574,-188.017 178.898,-197.288 180.127,-205.888"/>
<polygon fill="black" stroke="black" points="181.557,-215.896 175.687,-206.633 180.849,-210.946 180.142,-205.996 180.142,-205.996 180.142,-205.996 180.849,-210.946 184.597,-205.36 181.557,-215.896 181.557,-215.896"/>
</g>
<!-- 3&#45;&gt;7 -->
<g id="edge9" class="edge"><title>3&#45;&gt;7</title>
<path fill="none" stroke="black" d="M202.377,-180.124C217.544,-189.276 236.405,-200.658 252.739,-210.515"/>
<polygon fill="black" stroke="black" points="261.514,-215.81 250.627,-214.496 257.233,-213.227 252.952,-210.644 252.952,-210.644 252.952,-210.644 257.233,-213.227 255.277,-206.791 261.514,-215.81 261.514,-215.81"/>
</g>
<!-- 4&#45;&gt;1 -->
<g id="edge10" class="edge"><title>4&#45;&gt;1</title>
<path fill="none" stroke="black" d="M272.379,-180.124C257.081,-189.276 238.057,-200.658 221.582,-210.515"/>
<polygon fill="black" stroke="black" points="212.731,-215.81 219.002,-206.814 217.022,-213.243 221.313,-210.676 221.313,-210.676 221.313,-210.676 217.022,-213.243 223.623,-214.538 212.731,-215.81 212.731,-215.81"/>
</g>
<!-- 4&#45;&gt;7 -->
<g id="edge11" class="edge"><title>4&#45;&gt;7</title>
<path fill="none" stroke="black" d="M298.281,-180.303C297.069,-188.017 295.612,-197.288 294.261,-205.888"/>
<polygon fill="black" stroke="black" points="292.688,-215.896 289.795,-205.318 293.464,-210.956 294.24,-206.017 294.24,-206.017 294.24,-206.017 293.464,-210.956 298.686,-206.716 292.688,-215.896 292.688,-215.896"/>
</g>
<!-- 5&#45;&gt;1 -->
<g id="edge12" class="edge"><title>5&#45;&gt;1</title>
<path fill="none" stroke="black" d="M369.271,-177.264C366.135,-178.197 363.023,-179.116 360,-180 306.159,-195.742 289.954,-197.93 232.317,-216.005"/>
<polygon fill="black" stroke="black" points="222.698,-219.047 230.876,-211.741 227.466,-217.539 232.233,-216.031 232.233,-216.031 232.233,-216.031 227.466,-217.539 233.59,-220.322 222.698,-219.047 222.698,-219.047"/>
</g>
<!-- 5&#45;&gt;7 -->
<g id="edge13" class="edge"><title>5&#45;&gt;7</title>
<path fill="none" stroke="black" d="M385.177,-180.124C368.55,-189.361 347.835,-200.869 329.981,-210.788"/>
<polygon fill="black" stroke="black" points="320.942,-215.81 327.498,-207.02 325.312,-213.382 329.683,-210.954 329.683,-210.954 329.683,-210.954 325.312,-213.382 331.869,-214.887 320.942,-215.81 320.942,-215.81"/>
</g>
<!-- 6&#45;&gt;1 -->
<g id="edge14" class="edge"><title>6&#45;&gt;1</title>
<path fill="none" stroke="black" d="M82.0247,-180.124C100.085,-189.488 122.645,-201.186 141.951,-211.197"/>
<polygon fill="black" stroke="black" points="150.848,-215.81 139.899,-215.202 146.41,-213.509 141.971,-211.207 141.971,-211.207 141.971,-211.207 146.41,-213.509 144.042,-207.212 150.848,-215.81 150.848,-215.81"/>
</g>
<!-- 8 -->
<g id="node9" class="node"><title>8</title>
<polygon fill="none" stroke="black" points="3282,-108 3194,-108 3194,-72 3282,-72 3282,-108"/>
<text text-anchor="middle" x="3238" y="-86.3" font-family="Times,serif" font-size="14.00">Environment</text>
</g>
<!-- 10 -->
<g id="node11" class="node"><title>10</title>
<polygon fill="none" stroke="black" points="3224,-180 3080,-180 3080,-144 3224,-144 3224,-180"/>
<text text-anchor="middle" x="3152" y="-158.3" font-family="Times,serif" font-size="14.00">Environment.Evaluator</text>
</g>
<!-- 8&#45;&gt;10 -->
<g id="edge15" class="edge"><title>8&#45;&gt;10</title>
<path fill="none" stroke="black" d="M3216.74,-108.303C3205.91,-117.119 3192.58,-127.968 3180.84,-137.526"/>
<polygon fill="black" stroke="black" points="3173.01,-143.896 3177.93,-134.093 3176.89,-140.739 3180.77,-137.583 3180.77,-137.583 3180.77,-137.583 3176.89,-140.739 3183.61,-141.073 3173.01,-143.896 3173.01,-143.896"/>
</g>
<!-- 11 -->
<g id="node12" class="node"><title>11</title>
<polygon fill="none" stroke="black" points="3599.5,-180 3384.5,-180 3384.5,-144 3599.5,-144 3599.5,-180"/>
<text text-anchor="middle" x="3492" y="-158.3" font-family="Times,serif" font-size="14.00">Environment.EvaluatorMultiPlayers</text>
</g>
<!-- 8&#45;&gt;11 -->
<g id="edge16" class="edge"><title>8&#45;&gt;11</title>
<path fill="none" stroke="black" d="M3282.19,-105.367C3285.17,-106.275 3288.12,-107.16 3291,-108 3331.39,-119.793 3376.67,-131.836 3414.02,-141.456"/>
<polygon fill="black" stroke="black" points="3423.84,-143.976 3413.03,-145.848 3418.99,-142.732 3414.15,-141.489 3414.15,-141.489 3414.15,-141.489 3418.99,-142.732 3415.27,-137.13 3423.84,-143.976 3423.84,-143.976"/>
</g>
<!-- 12 -->
<g id="node13" class="node"><title>12</title>
<polygon fill="none" stroke="black" points="3417.5,-252 3294.5,-252 3294.5,-216 3417.5,-216 3417.5,-252"/>
<text text-anchor="middle" x="3356" y="-230.3" font-family="Times,serif" font-size="14.00">Environment.MAB</text>
</g>
<!-- 8&#45;&gt;12 -->
<g id="edge17" class="edge"><title>8&#45;&gt;12</title>
<path fill="none" stroke="black" d="M3252.23,-108.129C3272.88,-132.969 3311.25,-179.154 3335.11,-207.858"/>
<polygon fill="black" stroke="black" points="3341.72,-215.811 3331.86,-210.996 3338.52,-211.965 3335.32,-208.12 3335.32,-208.12 3335.32,-208.12 3338.52,-211.965 3338.79,-205.244 3341.72,-215.811 3341.72,-215.811"/>
</g>
<!-- 13 -->
<g id="node14" class="node"><title>13</title>
<polygon fill="none" stroke="black" points="3276,-252 3150,-252 3150,-216 3276,-216 3276,-252"/>
<text text-anchor="middle" x="3213" y="-230.3" font-family="Times,serif" font-size="14.00">Environment.Result</text>
</g>
<!-- 8&#45;&gt;13 -->
<g id="edge18" class="edge"><title>8&#45;&gt;13</title>
<path fill="none" stroke="black" d="M3238.57,-108.266C3238.81,-126.347 3238.19,-155.472 3233,-180 3231.15,-188.756 3228.09,-197.984 3224.91,-206.242"/>
<polygon fill="black" stroke="black" points="3221.05,-215.737 3220.64,-204.778 3222.93,-211.105 3224.81,-206.473 3224.81,-206.473 3224.81,-206.473 3222.93,-211.105 3228.98,-208.168 3221.05,-215.737 3221.05,-215.737"/>
</g>
<!-- 9 -->
<g id="node10" class="node"><title>9</title>
<polygon fill="none" stroke="black" points="3872,-252 3690,-252 3690,-216 3872,-216 3872,-252"/>
<text text-anchor="middle" x="3781" y="-230.3" font-family="Times,serif" font-size="14.00">Environment.CollisionModels</text>
</g>
<!-- 10&#45;&gt;12 -->
<g id="edge19" class="edge"><title>10&#45;&gt;12</title>
<path fill="none" stroke="black" d="M3201.64,-180.034C3230.27,-189.858 3266.45,-202.271 3296.58,-212.611"/>
<polygon fill="black" stroke="black" points="3306.13,-215.889 3295.22,-216.9 3301.4,-214.266 3296.68,-212.644 3296.68,-212.644 3296.68,-212.644 3301.4,-214.266 3298.14,-208.387 3306.13,-215.889 3306.13,-215.889"/>
</g>
<!-- 10&#45;&gt;13 -->
<g id="edge20" class="edge"><title>10&#45;&gt;13</title>
<path fill="none" stroke="black" d="M3167.08,-180.303C3174.39,-188.695 3183.31,-198.93 3191.34,-208.139"/>
<polygon fill="black" stroke="black" points="3198.09,-215.896 3188.13,-211.313 3194.81,-212.126 3191.52,-208.357 3191.52,-208.357 3191.52,-208.357 3194.81,-212.126 3194.92,-205.4 3198.09,-215.896 3198.09,-215.896"/>
</g>
<!-- 15 -->
<g id="node16" class="node"><title>15</title>
<polygon fill="none" stroke="black" points="3433,-324 3279,-324 3279,-288 3433,-288 3433,-324"/>
<text text-anchor="middle" x="3356" y="-302.3" font-family="Times,serif" font-size="14.00">Environment.plotsettings</text>
</g>
<!-- 10&#45;&gt;15 -->
<g id="edge21" class="edge"><title>10&#45;&gt;15</title>
<path fill="none" stroke="black" d="M3143.28,-180.021C3134.65,-199.515 3124.87,-231.41 3141,-252 3157.09,-272.541 3216.57,-286.2 3268.9,-294.501"/>
<polygon fill="black" stroke="black" points="3278.92,-296.039 3268.35,-298.968 3273.98,-295.28 3269.04,-294.521 3269.04,-294.521 3269.04,-294.521 3273.98,-295.28 3269.72,-290.073 3278.92,-296.039 3278.92,-296.039"/>
</g>
<!-- 11&#45;&gt;9 -->
<g id="edge22" class="edge"><title>11&#45;&gt;9</title>
<path fill="none" stroke="black" d="M3562.33,-180.034C3604.1,-190.153 3657.22,-203.019 3700.65,-213.537"/>
<polygon fill="black" stroke="black" points="3710.61,-215.95 3699.83,-217.969 3705.75,-214.773 3700.89,-213.596 3700.89,-213.596 3700.89,-213.596 3705.75,-214.773 3701.95,-209.222 3710.61,-215.95 3710.61,-215.95"/>
</g>
<!-- 11&#45;&gt;12 -->
<g id="edge23" class="edge"><title>11&#45;&gt;12</title>
<path fill="none" stroke="black" d="M3458.73,-180.124C3440.54,-189.488 3417.81,-201.186 3398.36,-211.197"/>
<polygon fill="black" stroke="black" points="3389.4,-215.81 3396.23,-207.233 3393.84,-213.522 3398.29,-211.234 3398.29,-211.234 3398.29,-211.234 3393.84,-213.522 3400.35,-215.235 3389.4,-215.81 3389.4,-215.81"/>
</g>
<!-- 14 -->
<g id="node15" class="node"><title>14</title>
<polygon fill="none" stroke="black" points="3671.5,-252 3474.5,-252 3474.5,-216 3671.5,-216 3671.5,-252"/>
<text text-anchor="middle" x="3573" y="-230.3" font-family="Times,serif" font-size="14.00">Environment.ResultMultiPlayers</text>
</g>
<!-- 11&#45;&gt;14 -->
<g id="edge24" class="edge"><title>11&#45;&gt;14</title>
<path fill="none" stroke="black" d="M3512.02,-180.303C3522.13,-189.035 3534.54,-199.76 3545.52,-209.25"/>
<polygon fill="black" stroke="black" points="3553.21,-215.896 3542.7,-212.762 3549.42,-212.626 3545.64,-209.357 3545.64,-209.357 3545.64,-209.357 3549.42,-212.626 3548.58,-205.952 3553.21,-215.896 3553.21,-215.896"/>
</g>
<!-- 11&#45;&gt;15 -->
<g id="edge25" class="edge"><title>11&#45;&gt;15</title>
<path fill="none" stroke="black" d="M3481.62,-180.236C3469.79,-199.074 3449.21,-229.56 3427,-252 3416.29,-262.821 3403.25,-273.198 3391.28,-281.855"/>
<polygon fill="black" stroke="black" points="3382.8,-287.837 3388.38,-278.395 3386.89,-284.955 3390.97,-282.072 3390.97,-282.072 3390.97,-282.072 3386.89,-284.955 3393.57,-285.749 3382.8,-287.837 3382.8,-287.837"/>
</g>
<!-- 12&#45;&gt;15 -->
<g id="edge26" class="edge"><title>12&#45;&gt;15</title>
<path fill="none" stroke="black" d="M3356,-252.303C3356,-260.017 3356,-269.288 3356,-277.888"/>
<polygon fill="black" stroke="black" points="3356,-287.896 3351.5,-277.896 3356,-282.896 3356,-277.896 3356,-277.896 3356,-277.896 3356,-282.896 3360.5,-277.896 3356,-287.896 3356,-287.896"/>
</g>
<!-- 16 -->
<g id="node17" class="node"><title>16</title>
<polygon fill="none" stroke="black" points="1679.5,-180 1620.5,-180 1620.5,-144 1679.5,-144 1679.5,-180"/>
<text text-anchor="middle" x="1650" y="-158.3" font-family="Times,serif" font-size="14.00">Policies</text>
</g>
<!-- 17 -->
<g id="node18" class="node"><title>17</title>
<polygon fill="none" stroke="black" points="1856.5,-324 1735.5,-324 1735.5,-288 1856.5,-288 1856.5,-324"/>
<text text-anchor="middle" x="1796" y="-302.3" font-family="Times,serif" font-size="14.00">Policies.AdBandits</text>
</g>
<!-- 16&#45;&gt;17 -->
<g id="edge27" class="edge"><title>16&#45;&gt;17</title>
<path fill="none" stroke="black" d="M1675.76,-180.071C1689.75,-189.866 1707.01,-202.811 1721,-216 1742.04,-235.832 1762.99,-261.299 1777.38,-279.905"/>
<polygon fill="black" stroke="black" points="1783.5,-287.927 1773.86,-282.711 1780.47,-283.953 1777.43,-279.979 1777.43,-279.979 1777.43,-279.979 1780.47,-283.953 1781.01,-277.248 1783.5,-287.927 1783.5,-287.927"/>
</g>
<!-- 18 -->
<g id="node19" class="node"><title>18</title>
<polygon fill="none" stroke="black" points="2225.5,-468 2134.5,-468 2134.5,-432 2225.5,-432 2225.5,-468"/>
<text text-anchor="middle" x="2180" y="-446.3" font-family="Times,serif" font-size="14.00">Policies.Aggr</text>
</g>
<!-- 16&#45;&gt;18 -->
<g id="edge28" class="edge"><title>16&#45;&gt;18</title>
<path fill="none" stroke="black" d="M1679.63,-163.434C1792.44,-165.388 2190.73,-175.153 2228,-216 2281.35,-274.469 2227.92,-375.978 2197.69,-423.317"/>
<polygon fill="black" stroke="black" points="2192.17,-431.769 2193.87,-420.936 2194.9,-427.583 2197.64,-423.397 2197.64,-423.397 2197.64,-423.397 2194.9,-427.583 2201.4,-425.858 2192.17,-431.769 2192.17,-431.769"/>
</g>
<!-- 20 -->
<g id="node21" class="node"><title>20</title>
<polygon fill="none" stroke="black" points="1463,-252 1339,-252 1339,-216 1463,-216 1463,-252"/>
<text text-anchor="middle" x="1401" y="-230.3" font-family="Times,serif" font-size="14.00">Policies.BayesUCB</text>
</g>
<!-- 16&#45;&gt;20 -->
<g id="edge29" class="edge"><title>16&#45;&gt;20</title>
<path fill="none" stroke="black" d="M1620.46,-171.305C1583.99,-181.558 1520.74,-199.337 1471.49,-213.184"/>
<polygon fill="black" stroke="black" points="1461.84,-215.897 1470.25,-208.859 1466.65,-214.544 1471.46,-213.191 1471.46,-213.191 1471.46,-213.191 1466.65,-214.544 1472.68,-217.523 1461.84,-215.897 1461.84,-215.897"/>
</g>
<!-- 23 -->
<g id="node24" class="node"><title>23</title>
<polygon fill="none" stroke="black" points="2626.5,-252 2461.5,-252 2461.5,-216 2626.5,-216 2626.5,-252"/>
<text text-anchor="middle" x="2544" y="-230.3" font-family="Times,serif" font-size="14.00">Policies.EpsilonDecreasing</text>
</g>
<!-- 16&#45;&gt;23 -->
<g id="edge30" class="edge"><title>16&#45;&gt;23</title>
<path fill="none" stroke="black" d="M1679.78,-163.83C1784.99,-167.007 2148.93,-180.074 2447,-216 2448.31,-216.158 2449.63,-216.322 2450.96,-216.492"/>
<polygon fill="black" stroke="black" points="2461.27,-217.891 2450.76,-221.005 2456.32,-217.219 2451.36,-216.546 2451.36,-216.546 2451.36,-216.546 2456.32,-217.219 2451.97,-212.087 2461.27,-217.891 2461.27,-217.891"/>
</g>
<!-- 24 -->
<g id="node25" class="node"><title>24</title>
<polygon fill="none" stroke="black" points="2851,-252 2645,-252 2645,-216 2851,-216 2851,-252"/>
<text text-anchor="middle" x="2748" y="-230.3" font-family="Times,serif" font-size="14.00">Policies.EpsilonDecreasingMEGA</text>
</g>
<!-- 16&#45;&gt;24 -->
<g id="edge31" class="edge"><title>16&#45;&gt;24</title>
<path fill="none" stroke="black" d="M1679.9,-163.567C1799,-166.042 2251.28,-177.519 2634.72,-216.043"/>
<polygon fill="black" stroke="black" points="2644.9,-217.074 2634.5,-220.544 2639.92,-216.57 2634.95,-216.066 2634.95,-216.066 2634.95,-216.066 2639.92,-216.57 2635.4,-211.589 2644.9,-217.074 2644.9,-217.074"/>
</g>
<!-- 25 -->
<g id="node26" class="node"><title>25</title>
<polygon fill="none" stroke="black" points="3056.5,-252 2869.5,-252 2869.5,-216 3056.5,-216 3056.5,-252"/>
<text text-anchor="middle" x="2963" y="-230.3" font-family="Times,serif" font-size="14.00">Policies.EpsilonExpDecreasing</text>
</g>
<!-- 16&#45;&gt;25 -->
<g id="edge32" class="edge"><title>16&#45;&gt;25</title>
<path fill="none" stroke="black" d="M1679.58,-162.992C1814.23,-163.225 2382.87,-167.146 2859.14,-215.997"/>
<polygon fill="black" stroke="black" points="2869.32,-217.049 2858.91,-220.496 2864.34,-216.534 2859.37,-216.02 2859.37,-216.02 2859.37,-216.02 2864.34,-216.534 2859.83,-211.544 2869.32,-217.049 2869.32,-217.049"/>
</g>
<!-- 26 -->
<g id="node27" class="node"><title>26</title>
<polygon fill="none" stroke="black" points="2404.5,-252 2275.5,-252 2275.5,-216 2404.5,-216 2404.5,-252"/>
<text text-anchor="middle" x="2340" y="-230.3" font-family="Times,serif" font-size="14.00">Policies.EpsilonFirst</text>
</g>
<!-- 16&#45;&gt;26 -->
<g id="edge33" class="edge"><title>16&#45;&gt;26</title>
<path fill="none" stroke="black" d="M1679.72,-164.255C1768.46,-168.285 2039.1,-182.635 2261,-216 2262.47,-216.222 2263.96,-216.454 2265.46,-216.696"/>
<polygon fill="black" stroke="black" points="2275.45,-218.42 2264.83,-221.154 2270.52,-217.57 2265.6,-216.72 2265.6,-216.72 2265.6,-216.72 2270.52,-217.57 2266.36,-212.285 2275.45,-218.42 2275.45,-218.42"/>
</g>
<!-- 27 -->
<g id="node28" class="node"><title>27</title>
<polygon fill="none" stroke="black" points="2561,-324 2417,-324 2417,-288 2561,-288 2561,-324"/>
<text text-anchor="middle" x="2489" y="-302.3" font-family="Times,serif" font-size="14.00">Policies.EpsilonGreedy</text>
</g>
<!-- 16&#45;&gt;27 -->
<g id="edge34" class="edge"><title>16&#45;&gt;27</title>
<path fill="none" stroke="black" d="M1679.67,-163.709C1812.23,-167.058 2346.59,-182.543 2413,-216 2427.46,-223.287 2453.39,-256.013 2470.89,-279.668"/>
<polygon fill="black" stroke="black" points="2476.92,-287.909 2467.38,-282.496 2473.96,-283.874 2471.01,-279.839 2471.01,-279.839 2471.01,-279.839 2473.96,-283.874 2474.64,-277.181 2476.92,-287.909 2476.92,-287.909"/>
</g>
<!-- 28 -->
<g id="node29" class="node"><title>28</title>
<polygon fill="none" stroke="black" points="2776,-396 2684,-396 2684,-360 2776,-360 2776,-396"/>
<text text-anchor="middle" x="2730" y="-374.3" font-family="Times,serif" font-size="14.00">Policies.Exp3</text>
</g>
<!-- 16&#45;&gt;28 -->
<g id="edge35" class="edge"><title>16&#45;&gt;28</title>
<path fill="none" stroke="black" d="M1679.72,-162.959C1879.05,-162.823 3015.22,-164.323 3065,-216 3153.86,-308.255 2903.48,-354.243 2786.54,-370.246"/>
<polygon fill="black" stroke="black" points="2776.33,-371.613 2785.65,-365.826 2781.29,-370.95 2786.24,-370.286 2786.24,-370.286 2786.24,-370.286 2781.29,-370.95 2786.84,-374.746 2776.33,-371.613 2776.33,-371.613"/>
</g>
<!-- 31 -->
<g id="node32" class="node"><title>31</title>
<polygon fill="none" stroke="black" points="1608,-468 1504,-468 1504,-432 1608,-432 1608,-468"/>
<text text-anchor="middle" x="1556" y="-446.3" font-family="Times,serif" font-size="14.00">Policies.MEGA</text>
</g>
<!-- 16&#45;&gt;31 -->
<g id="edge36" class="edge"><title>16&#45;&gt;31</title>
<path fill="none" stroke="black" d="M1647.05,-180.219C1641.69,-210.003 1629.32,-272.86 1612,-324 1600.15,-358.996 1582.06,-397.557 1569.66,-422.465"/>
<polygon fill="black" stroke="black" points="1565.06,-431.622 1565.53,-420.666 1567.3,-427.155 1569.55,-422.689 1569.55,-422.689 1569.55,-422.689 1567.3,-427.155 1573.57,-424.711 1565.06,-431.622 1565.06,-431.622"/>
</g>
<!-- 32 -->
<g id="node33" class="node"><title>32</title>
<polygon fill="none" stroke="black" points="1137.5,-396 1036.5,-396 1036.5,-360 1137.5,-360 1137.5,-396"/>
<text text-anchor="middle" x="1087" y="-374.3" font-family="Times,serif" font-size="14.00">Policies.MOSS</text>
</g>
<!-- 16&#45;&gt;32 -->
<g id="edge37" class="edge"><title>16&#45;&gt;32</title>
<path fill="none" stroke="black" d="M1620.31,-163.099C1498.17,-163.811 1038.81,-169.577 996,-216 944.633,-271.699 1062.35,-282.025 1067,-288 1080.64,-305.529 1085.34,-330.565 1086.8,-349.621"/>
<polygon fill="black" stroke="black" points="1087.32,-359.777 1082.31,-350.02 1087.06,-354.783 1086.81,-349.79 1086.81,-349.79 1086.81,-349.79 1087.06,-354.783 1091.3,-349.559 1087.32,-359.777 1087.32,-359.777"/>
</g>
<!-- 33 -->
<g id="node34" class="node"><title>33</title>
<polygon fill="none" stroke="black" points="1763.5,-468 1626.5,-468 1626.5,-432 1763.5,-432 1763.5,-468"/>
<text text-anchor="middle" x="1695" y="-446.3" font-family="Times,serif" font-size="14.00">Policies.MusicalChair</text>
</g>
<!-- 16&#45;&gt;33 -->
<g id="edge38" class="edge"><title>16&#45;&gt;33</title>
<path fill="none" stroke="black" d="M1652.68,-180.034C1660.2,-227.808 1681.53,-363.377 1690.71,-421.734"/>
<polygon fill="black" stroke="black" points="1692.28,-431.694 1686.28,-422.515 1691.5,-426.754 1690.72,-421.815 1690.72,-421.815 1690.72,-421.815 1691.5,-426.754 1695.17,-421.116 1692.28,-431.694 1692.28,-431.694"/>
</g>
<!-- 35 -->
<g id="node36" class="node"><title>35</title>
<polygon fill="none" stroke="black" points="1932,-396 1822,-396 1822,-360 1932,-360 1932,-396"/>
<text text-anchor="middle" x="1877" y="-374.3" font-family="Times,serif" font-size="14.00">Policies.Softmax</text>
</g>
<!-- 16&#45;&gt;35 -->
<g id="edge39" class="edge"><title>16&#45;&gt;35</title>
<path fill="none" stroke="black" d="M1661.81,-180.213C1668.49,-190.367 1676.74,-203.617 1683,-216 1706.3,-262.111 1688.72,-288.231 1726,-324 1732.74,-330.467 1774.07,-344.766 1811.79,-356.883"/>
<polygon fill="black" stroke="black" points="1821.78,-360.072 1810.89,-361.32 1817.02,-358.552 1812.26,-357.033 1812.26,-357.033 1812.26,-357.033 1817.02,-358.552 1813.62,-352.746 1821.78,-360.072 1821.78,-360.072"/>
</g>
<!-- 36 -->
<g id="node37" class="node"><title>36</title>
<polygon fill="none" stroke="black" points="2021,-324 1875,-324 1875,-288 2021,-288 2021,-324"/>
<text text-anchor="middle" x="1948" y="-302.3" font-family="Times,serif" font-size="14.00">Policies.TakeFixedArm</text>
</g>
<!-- 16&#45;&gt;36 -->
<g id="edge40" class="edge"><title>16&#45;&gt;36</title>
<path fill="none" stroke="black" d="M1679.64,-176.983C1700.33,-187.087 1728.38,-201.463 1752,-216 1775.32,-230.35 1777.79,-239.207 1802,-252 1826.52,-264.959 1854.91,-276.06 1880.1,-284.705"/>
<polygon fill="black" stroke="black" points="1889.58,-287.896 1878.67,-288.971 1884.84,-286.301 1880.1,-284.706 1880.1,-284.706 1880.1,-284.706 1884.84,-286.301 1881.54,-280.441 1889.58,-287.896 1889.58,-287.896"/>
</g>
<!-- 37 -->
<g id="node38" class="node"><title>37</title>
<polygon fill="none" stroke="black" points="2004.5,-252 1811.5,-252 1811.5,-216 2004.5,-216 2004.5,-252"/>
<text text-anchor="middle" x="1908" y="-230.3" font-family="Times,serif" font-size="14.00">Policies.TakeRandomFixedArm</text>
</g>
<!-- 16&#45;&gt;37 -->
<g id="edge41" class="edge"><title>16&#45;&gt;37</title>
<path fill="none" stroke="black" d="M1679.6,-171.03C1717.33,-181.269 1783.87,-199.322 1835.43,-213.311"/>
<polygon fill="black" stroke="black" points="1845.2,-215.962 1834.37,-217.686 1840.38,-214.653 1835.55,-213.344 1835.55,-213.344 1835.55,-213.344 1840.38,-214.653 1836.73,-209.001 1845.2,-215.962 1845.2,-215.962"/>
</g>
<!-- 38 -->
<g id="node39" class="node"><title>38</title>
<polygon fill="none" stroke="black" points="1603,-252 1481,-252 1481,-216 1603,-216 1603,-252"/>
<text text-anchor="middle" x="1542" y="-230.3" font-family="Times,serif" font-size="14.00">Policies.Thompson</text>
</g>
<!-- 16&#45;&gt;38 -->
<g id="edge42" class="edge"><title>16&#45;&gt;38</title>
<path fill="none" stroke="black" d="M1623.58,-180.124C1609.59,-189.192 1592.22,-200.448 1577.11,-210.241"/>
<polygon fill="black" stroke="black" points="1568.52,-215.81 1574.47,-206.595 1572.72,-213.091 1576.91,-210.371 1576.91,-210.371 1576.91,-210.371 1572.72,-213.091 1579.36,-214.147 1568.52,-215.81 1568.52,-215.81"/>
</g>
<!-- 39 -->
<g id="node40" class="node"><title>39</title>
<polygon fill="none" stroke="black" points="748.5,-396 657.5,-396 657.5,-360 748.5,-360 748.5,-396"/>
<text text-anchor="middle" x="703" y="-374.3" font-family="Times,serif" font-size="14.00">Policies.UCB</text>
</g>
<!-- 16&#45;&gt;39 -->
<g id="edge43" class="edge"><title>16&#45;&gt;39</title>
<path fill="none" stroke="black" d="M1620.42,-162.67C1464.41,-161.189 736.26,-157.571 520,-216 453.215,-234.044 417.861,-228.841 382,-288 373.706,-301.682 371.649,-311.8 382,-324 415.335,-363.29 564.197,-373.497 646.986,-376.119"/>
<polygon fill="black" stroke="black" points="657.232,-376.415 647.106,-380.624 652.234,-376.271 647.236,-376.126 647.236,-376.126 647.236,-376.126 652.234,-376.271 647.366,-371.628 657.232,-376.415 657.232,-376.415"/>
</g>
<!-- 40 -->
<g id="node41" class="node"><title>40</title>
<polygon fill="none" stroke="black" points="492.5,-324 391.5,-324 391.5,-288 492.5,-288 492.5,-324"/>
<text text-anchor="middle" x="442" y="-302.3" font-family="Times,serif" font-size="14.00">Policies.UCBV</text>
</g>
<!-- 16&#45;&gt;40 -->
<g id="edge44" class="edge"><title>16&#45;&gt;40</title>
<path fill="none" stroke="black" d="M1620.32,-162.681C1470.86,-161.352 799.885,-158.726 601,-216 552.996,-229.824 503.715,-260.458 472.998,-281.903"/>
<polygon fill="black" stroke="black" points="464.463,-287.96 470.014,-278.503 468.541,-285.067 472.618,-282.173 472.618,-282.173 472.618,-282.173 468.541,-285.067 475.223,-285.842 464.463,-287.96 464.463,-287.96"/>
</g>
<!-- 41 -->
<g id="node42" class="node"><title>41</title>
<polygon fill="none" stroke="black" points="741.5,-252 610.5,-252 610.5,-216 741.5,-216 741.5,-252"/>
<text text-anchor="middle" x="676" y="-230.3" font-family="Times,serif" font-size="14.00">Policies.UCBVtuned</text>
</g>
<!-- 16&#45;&gt;41 -->
<g id="edge45" class="edge"><title>16&#45;&gt;41</title>
<path fill="none" stroke="black" d="M1620.42,-163.81C1509.98,-167.044 1111.46,-180.619 785,-216 774.212,-217.169 762.861,-218.653 751.723,-220.256"/>
<polygon fill="black" stroke="black" points="741.577,-221.756 750.812,-215.842 746.523,-221.025 751.47,-220.294 751.47,-220.294 751.47,-220.294 746.523,-221.025 752.128,-224.745 741.577,-221.756 741.577,-221.756"/>
</g>
<!-- 42 -->
<g id="node43" class="node"><title>42</title>
<polygon fill="none" stroke="black" points="631,-324 511,-324 511,-288 631,-288 631,-324"/>
<text text-anchor="middle" x="571" y="-302.3" font-family="Times,serif" font-size="14.00">Policies.UCBalpha</text>
</g>
<!-- 16&#45;&gt;42 -->
<g id="edge46" class="edge"><title>16&#45;&gt;42</title>
<path fill="none" stroke="black" d="M1620.14,-163.145C1489.84,-164.045 970.621,-170.476 815,-216 783.305,-225.272 780.458,-239.236 750,-252 730.075,-260.35 682.361,-274.376 641.203,-285.902"/>
<polygon fill="black" stroke="black" points="631.448,-288.622 639.872,-281.601 636.264,-287.279 641.081,-285.936 641.081,-285.936 641.081,-285.936 636.264,-287.279 642.289,-290.271 631.448,-288.622 631.448,-288.622"/>
</g>
<!-- 43 -->
<g id="node44" class="node"><title>43</title>
<polygon fill="none" stroke="black" points="757,-324 649,-324 649,-288 757,-288 757,-324"/>
<text text-anchor="middle" x="703" y="-302.3" font-family="Times,serif" font-size="14.00">Policies.UCBopt</text>
</g>
<!-- 16&#45;&gt;43 -->
<g id="edge47" class="edge"><title>16&#45;&gt;43</title>
<path fill="none" stroke="black" d="M1620.32,-163.67C1498.62,-166.637 1037.62,-180.064 897,-216 881.632,-219.927 800.039,-258.414 747.682,-283.474"/>
<polygon fill="black" stroke="black" points="738.588,-287.832 745.661,-279.452 743.097,-285.671 747.606,-283.51 747.606,-283.51 747.606,-283.51 743.097,-285.671 749.551,-287.568 738.588,-287.832 738.588,-287.832"/>
</g>
<!-- 44 -->
<g id="node45" class="node"><title>44</title>
<polygon fill="none" stroke="black" points="1058.5,-324 945.5,-324 945.5,-288 1058.5,-288 1058.5,-324"/>
<text text-anchor="middle" x="1002" y="-302.3" font-family="Times,serif" font-size="14.00">Policies.UCBplus</text>
</g>
<!-- 16&#45;&gt;44 -->
<g id="edge48" class="edge"><title>16&#45;&gt;44</title>
<path fill="none" stroke="black" d="M1620.11,-162.977C1493.79,-163.184 1008.21,-167.172 963,-216 946.178,-234.17 961.466,-260.761 977.574,-280.144"/>
<polygon fill="black" stroke="black" points="984.196,-287.704 974.222,-283.147 980.902,-283.943 977.607,-280.182 977.607,-280.182 977.607,-280.182 980.902,-283.943 980.992,-277.217 984.196,-287.704 984.196,-287.704"/>
</g>
<!-- 45 -->
<g id="node46" class="node"><title>45</title>
<polygon fill="none" stroke="black" points="927,-324 775,-324 775,-288 927,-288 927,-324"/>
<text text-anchor="middle" x="851" y="-302.3" font-family="Times,serif" font-size="14.00">Policies.UCBrandomInit</text>
</g>
<!-- 16&#45;&gt;45 -->
<g id="edge49" class="edge"><title>16&#45;&gt;45</title>
<path fill="none" stroke="black" d="M1620.18,-162.77C1503.11,-162.245 1075.32,-163.999 952,-216 918.965,-229.93 889.255,-259.123 870.746,-280.285"/>
<polygon fill="black" stroke="black" points="864.218,-287.954 867.274,-277.423 867.459,-284.147 870.7,-280.34 870.7,-280.34 870.7,-280.34 867.459,-284.147 874.127,-283.257 864.218,-287.954 864.218,-287.954"/>
</g>
<!-- 46 -->
<g id="node47" class="node"><title>46</title>
<polygon fill="none" stroke="black" points="2149,-324 2039,-324 2039,-288 2149,-288 2149,-324"/>
<text text-anchor="middle" x="2094" y="-302.3" font-family="Times,serif" font-size="14.00">Policies.Uniform</text>
</g>
<!-- 16&#45;&gt;46 -->
<g id="edge50" class="edge"><title>16&#45;&gt;46</title>
<path fill="none" stroke="black" d="M1679.5,-164.751C1755.32,-169.651 1955.08,-185.202 2013,-216 2027.69,-223.809 2055.44,-256.334 2074.32,-279.809"/>
<polygon fill="black" stroke="black" points="2080.6,-287.679 2070.84,-282.664 2077.48,-283.769 2074.36,-279.859 2074.36,-279.859 2074.36,-279.859 2077.48,-283.769 2077.88,-277.055 2080.6,-287.679 2080.6,-287.679"/>
</g>
<!-- 47 -->
<g id="node48" class="node"><title>47</title>
<polygon fill="none" stroke="black" points="2219,-252 2061,-252 2061,-216 2219,-216 2219,-252"/>
<text text-anchor="middle" x="2140" y="-230.3" font-family="Times,serif" font-size="14.00">Policies.UniformOnSome</text>
</g>
<!-- 16&#45;&gt;47 -->
<g id="edge51" class="edge"><title>16&#45;&gt;47</title>
<path fill="none" stroke="black" d="M1679.95,-166.5C1746.24,-174.354 1910.32,-194.397 2047,-216 2048.28,-216.202 2049.56,-216.407 2050.86,-216.616"/>
<polygon fill="black" stroke="black" points="2060.9,-218.273 2050.3,-221.084 2055.96,-217.459 2051.03,-216.644 2051.03,-216.644 2051.03,-216.644 2055.96,-217.459 2051.76,-212.205 2060.9,-218.273 2060.9,-218.273"/>
</g>
<!-- 48 -->
<g id="node49" class="node"><title>48</title>
<polygon fill="none" stroke="black" points="1216.5,-324 1115.5,-324 1115.5,-288 1216.5,-288 1216.5,-324"/>
<text text-anchor="middle" x="1166" y="-302.3" font-family="Times,serif" font-size="14.00">Policies.klUCB</text>
</g>
<!-- 16&#45;&gt;48 -->
<g id="edge52" class="edge"><title>16&#45;&gt;48</title>
<path fill="none" stroke="black" d="M1620.34,-164.243C1521.79,-168.653 1209.72,-184.973 1178,-216 1161.94,-231.709 1160.16,-257.933 1161.67,-277.857"/>
<polygon fill="black" stroke="black" points="1162.74,-287.891 1157.2,-278.424 1162.21,-282.919 1161.68,-277.947 1161.68,-277.947 1161.68,-277.947 1162.21,-282.919 1166.15,-277.47 1162.74,-287.891 1162.74,-287.891"/>
</g>
<!-- 49 -->
<g id="node50" class="node"><title>49</title>
<polygon fill="none" stroke="black" points="1321,-252 1187,-252 1187,-216 1321,-216 1321,-252"/>
<text text-anchor="middle" x="1254" y="-230.3" font-family="Times,serif" font-size="14.00">Policies.klUCBHPlus</text>
</g>
<!-- 16&#45;&gt;49 -->
<g id="edge53" class="edge"><title>16&#45;&gt;49</title>
<path fill="none" stroke="black" d="M1620.34,-167.345C1565.33,-175.526 1443.56,-194.206 1330.92,-215.876"/>
<polygon fill="black" stroke="black" points="1321.09,-217.779 1330.06,-211.46 1326,-216.828 1330.91,-215.877 1330.91,-215.877 1330.91,-215.877 1326,-216.828 1331.77,-220.295 1321.09,-217.779 1321.09,-217.779"/>
</g>
<!-- 50 -->
<g id="node51" class="node"><title>50</title>
<polygon fill="none" stroke="black" points="1130.5,-252 1005.5,-252 1005.5,-216 1130.5,-216 1130.5,-252"/>
<text text-anchor="middle" x="1068" y="-230.3" font-family="Times,serif" font-size="14.00">Policies.klUCBPlus</text>
</g>
<!-- 16&#45;&gt;50 -->
<g id="edge54" class="edge"><title>16&#45;&gt;50</title>
<path fill="none" stroke="black" d="M1620.25,-164.945C1542.02,-170.315 1324.25,-186.901 1145,-216 1143.52,-216.24 1142.03,-216.49 1140.53,-216.75"/>
<polygon fill="black" stroke="black" points="1130.5,-218.583 1139.53,-212.358 1135.42,-217.684 1140.34,-216.784 1140.34,-216.784 1140.34,-216.784 1135.42,-217.684 1141.15,-221.211 1130.5,-218.583 1130.5,-218.583"/>
</g>
<!-- 19 -->
<g id="node20" class="node"><title>19</title>
<polygon fill="none" stroke="black" points="2041,-540 1917,-540 1917,-504 2041,-504 2041,-540"/>
<text text-anchor="middle" x="1979" y="-518.3" font-family="Times,serif" font-size="14.00">Policies.BasePolicy</text>
</g>
<!-- 17&#45;&gt;19 -->
<g id="edge55" class="edge"><title>17&#45;&gt;19</title>
<path fill="none" stroke="black" d="M1856.84,-322.948C1891.07,-333.094 1929.26,-346.772 1941,-360 1974.18,-397.368 1979.81,-458.317 1980.01,-493.528"/>
<polygon fill="black" stroke="black" points="1979.93,-503.575 1975.51,-493.537 1979.97,-498.575 1980.01,-493.575 1980.01,-493.575 1980.01,-493.575 1979.97,-498.575 1984.51,-493.614 1979.93,-503.575 1979.93,-503.575"/>
</g>
<!-- 22 -->
<g id="node23" class="node"><title>22</title>
<polygon fill="none" stroke="black" points="1804,-396 1716,-396 1716,-360 1804,-360 1804,-396"/>
<text text-anchor="middle" x="1760" y="-374.3" font-family="Times,serif" font-size="14.00">Policies.Beta</text>
</g>
<!-- 17&#45;&gt;22 -->
<g id="edge56" class="edge"><title>17&#45;&gt;22</title>
<path fill="none" stroke="black" d="M1787.1,-324.303C1783,-332.272 1778.05,-341.9 1773.51,-350.736"/>
<polygon fill="black" stroke="black" points="1768.8,-359.896 1769.37,-348.945 1771.08,-355.449 1773.37,-351.003 1773.37,-351.003 1773.37,-351.003 1771.08,-355.449 1777.37,-353.061 1768.8,-359.896 1768.8,-359.896"/>
</g>
<!-- 18&#45;&gt;19 -->
<g id="edge57" class="edge"><title>18&#45;&gt;19</title>
<path fill="none" stroke="black" d="M2134.39,-466.884C2105.75,-476.857 2068.54,-489.818 2037.71,-500.555"/>
<polygon fill="black" stroke="black" points="2027.94,-503.956 2035.9,-496.417 2032.66,-502.311 2037.38,-500.667 2037.38,-500.667 2037.38,-500.667 2032.66,-502.311 2038.86,-504.917 2027.94,-503.956 2027.94,-503.956"/>
</g>
<!-- 21 -->
<g id="node22" class="node"><title>21</title>
<polygon fill="none" stroke="black" points="1603,-324 1425,-324 1425,-288 1603,-288 1603,-324"/>
<text text-anchor="middle" x="1514" y="-302.3" font-family="Times,serif" font-size="14.00">Policies.BayesianIndexPolicy</text>
</g>
<!-- 20&#45;&gt;21 -->
<g id="edge58" class="edge"><title>20&#45;&gt;21</title>
<path fill="none" stroke="black" d="M1428.64,-252.124C1443.42,-261.276 1461.79,-272.658 1477.7,-282.515"/>
<polygon fill="black" stroke="black" points="1486.25,-287.81 1475.38,-286.37 1482,-285.177 1477.75,-282.544 1477.75,-282.544 1477.75,-282.544 1482,-285.177 1480.12,-278.719 1486.25,-287.81 1486.25,-287.81"/>
</g>
<!-- 21&#45;&gt;22 -->
<g id="edge59" class="edge"><title>21&#45;&gt;22</title>
<path fill="none" stroke="black" d="M1573.86,-324.034C1614.07,-335.476 1666.64,-350.433 1705.65,-361.533"/>
<polygon fill="black" stroke="black" points="1715.76,-364.412 1704.91,-366.003 1710.95,-363.043 1706.14,-361.675 1706.14,-361.675 1706.14,-361.675 1710.95,-363.043 1707.37,-357.346 1715.76,-364.412 1715.76,-364.412"/>
</g>
<!-- 29 -->
<g id="node30" class="node"><title>29</title>
<polygon fill="none" stroke="black" points="1315,-468 1187,-468 1187,-432 1315,-432 1315,-468"/>
<text text-anchor="middle" x="1251" y="-446.3" font-family="Times,serif" font-size="14.00">Policies.IndexPolicy</text>
</g>
<!-- 21&#45;&gt;29 -->
<g id="edge60" class="edge"><title>21&#45;&gt;29</title>
<path fill="none" stroke="black" d="M1482.28,-324.129C1434.59,-349.876 1344.44,-398.552 1291.88,-426.928"/>
<polygon fill="black" stroke="black" points="1282.84,-431.811 1289.5,-423.1 1287.24,-429.435 1291.64,-427.06 1291.64,-427.06 1291.64,-427.06 1287.24,-429.435 1293.77,-431.019 1282.84,-431.811 1282.84,-431.811"/>
</g>
<!-- 34 -->
<g id="node35" class="node"><title>34</title>
<polygon fill="none" stroke="black" points="1894,-468 1782,-468 1782,-432 1894,-432 1894,-468"/>
<text text-anchor="middle" x="1838" y="-446.3" font-family="Times,serif" font-size="14.00">Policies.Posterior</text>
</g>
<!-- 22&#45;&gt;34 -->
<g id="edge61" class="edge"><title>22&#45;&gt;34</title>
<path fill="none" stroke="black" d="M1779.28,-396.303C1788.92,-404.95 1800.73,-415.551 1811.23,-424.973"/>
<polygon fill="black" stroke="black" points="1818.94,-431.896 1808.49,-428.566 1815.22,-428.556 1811.5,-425.217 1811.5,-425.217 1811.5,-425.217 1815.22,-428.556 1814.5,-421.867 1818.94,-431.896 1818.94,-431.896"/>
</g>
<!-- 23&#45;&gt;27 -->
<g id="edge62" class="edge"><title>23&#45;&gt;27</title>
<path fill="none" stroke="black" d="M2530.4,-252.303C2523.88,-260.611 2515.93,-270.723 2508.75,-279.859"/>
<polygon fill="black" stroke="black" points="2502.44,-287.896 2505.08,-277.252 2505.53,-283.964 2508.62,-280.032 2508.62,-280.032 2508.62,-280.032 2505.53,-283.964 2512.16,-282.813 2502.44,-287.896 2502.44,-287.896"/>
</g>
<!-- 24&#45;&gt;27 -->
<g id="edge63" class="edge"><title>24&#45;&gt;27</title>
<path fill="none" stroke="black" d="M2684.97,-252.034C2647.84,-262.07 2600.7,-274.81 2561.97,-285.279"/>
<polygon fill="black" stroke="black" points="2552.31,-287.889 2560.79,-280.936 2557.14,-286.585 2561.96,-285.28 2561.96,-285.28 2561.96,-285.28 2557.14,-286.585 2563.14,-289.624 2552.31,-287.889 2552.31,-287.889"/>
</g>
<!-- 25&#45;&gt;27 -->
<g id="edge64" class="edge"><title>25&#45;&gt;27</title>
<path fill="none" stroke="black" d="M2869.26,-250.559C2866.14,-251.05 2863.05,-251.531 2860,-252 2760.96,-267.245 2646.82,-283.329 2571.58,-293.725"/>
<polygon fill="black" stroke="black" points="2561.23,-295.153 2570.52,-289.328 2566.19,-294.47 2571.14,-293.786 2571.14,-293.786 2571.14,-293.786 2566.19,-294.47 2571.75,-298.244 2561.23,-295.153 2561.23,-295.153"/>
</g>
<!-- 26&#45;&gt;27 -->
<g id="edge65" class="edge"><title>26&#45;&gt;27</title>
<path fill="none" stroke="black" d="M2376.45,-252.124C2396.64,-261.608 2421.92,-273.487 2443.41,-283.581"/>
<polygon fill="black" stroke="black" points="2452.67,-287.932 2441.7,-287.752 2448.14,-285.806 2443.62,-283.68 2443.62,-283.68 2443.62,-283.68 2448.14,-285.806 2445.53,-279.607 2452.67,-287.932 2452.67,-287.932"/>
</g>
<!-- 27&#45;&gt;19 -->
<g id="edge66" class="edge"><title>27&#45;&gt;19</title>
<path fill="none" stroke="black" d="M2467.94,-324.06C2426.06,-357.107 2328.17,-429.944 2234,-468 2174.85,-491.904 2103.44,-505.558 2051.25,-513"/>
<polygon fill="black" stroke="black" points="2041.08,-514.406 2050.37,-508.579 2046.03,-513.721 2050.99,-513.036 2050.99,-513.036 2050.99,-513.036 2046.03,-513.721 2051.6,-517.494 2041.08,-514.406 2041.08,-514.406"/>
</g>
<!-- 28&#45;&gt;19 -->
<g id="edge67" class="edge"><title>28&#45;&gt;19</title>
<path fill="none" stroke="black" d="M2683.72,-389.871C2607.52,-407.566 2450.77,-443.12 2317,-468 2225.77,-484.969 2120.01,-500.965 2051.43,-510.857"/>
<polygon fill="black" stroke="black" points="2041.17,-512.331 2050.42,-506.454 2046.12,-511.62 2051.06,-510.909 2051.06,-510.909 2051.06,-510.909 2046.12,-511.62 2051.7,-515.363 2041.17,-512.331 2041.17,-512.331"/>
</g>
<!-- 29&#45;&gt;19 -->
<g id="edge68" class="edge"><title>29&#45;&gt;19</title>
<path fill="none" stroke="black" d="M1315.29,-457.181C1450.63,-470.195 1764.16,-500.343 1906.44,-514.024"/>
<polygon fill="black" stroke="black" points="1916.8,-515.019 1906.41,-518.541 1911.82,-514.541 1906.85,-514.062 1906.85,-514.062 1906.85,-514.062 1911.82,-514.541 1907.28,-509.583 1916.8,-515.019 1916.8,-515.019"/>
</g>
<!-- 30 -->
<g id="node31" class="node"><title>30</title>
<polygon fill="none" stroke="black" points="1406.5,-324 1273.5,-324 1273.5,-288 1406.5,-288 1406.5,-324"/>
<text text-anchor="middle" x="1340" y="-302.3" font-family="Times,serif" font-size="14.00">Policies.KLempUCB</text>
</g>
<!-- 30&#45;&gt;29 -->
<g id="edge69" class="edge"><title>30&#45;&gt;29</title>
<path fill="none" stroke="black" d="M1337.72,-324.289C1334.58,-343.174 1327.58,-373.701 1313,-396 1305.72,-407.129 1295.44,-417.225 1285.34,-425.547"/>
<polygon fill="black" stroke="black" points="1277.34,-431.828 1282.43,-422.114 1281.27,-428.741 1285.21,-425.654 1285.21,-425.654 1285.21,-425.654 1281.27,-428.741 1287.99,-429.194 1277.34,-431.828 1277.34,-431.828"/>
</g>
<!-- 51 -->
<g id="node52" class="node"><title>51</title>
<polygon fill="none" stroke="black" points="1304,-396 1194,-396 1194,-360 1304,-360 1304,-396"/>
<text text-anchor="middle" x="1249" y="-374.3" font-family="Times,serif" font-size="14.00">Policies.kullback</text>
</g>
<!-- 30&#45;&gt;51 -->
<g id="edge70" class="edge"><title>30&#45;&gt;51</title>
<path fill="none" stroke="black" d="M1317.51,-324.303C1306.04,-333.119 1291.94,-343.968 1279.52,-353.526"/>
<polygon fill="black" stroke="black" points="1271.24,-359.896 1276.42,-350.232 1275.2,-356.847 1279.16,-353.799 1279.16,-353.799 1279.16,-353.799 1275.2,-356.847 1281.91,-357.365 1271.24,-359.896 1271.24,-359.896"/>
</g>
<!-- 31&#45;&gt;19 -->
<g id="edge71" class="edge"><title>31&#45;&gt;19</title>
<path fill="none" stroke="black" d="M1608.14,-465.997C1611.13,-466.711 1614.1,-467.385 1617,-468 1716.56,-489.073 1833.29,-504.528 1906.7,-513.143"/>
<polygon fill="black" stroke="black" points="1916.77,-514.313 1906.31,-517.628 1911.8,-513.736 1906.83,-513.159 1906.83,-513.159 1906.83,-513.159 1911.8,-513.736 1907.35,-508.689 1916.77,-514.313 1916.77,-514.313"/>
</g>
<!-- 32&#45;&gt;29 -->
<g id="edge72" class="edge"><title>32&#45;&gt;29</title>
<path fill="none" stroke="black" d="M1127.12,-396.124C1149.64,-405.736 1177.92,-417.807 1201.77,-427.987"/>
<polygon fill="black" stroke="black" points="1211.01,-431.932 1200.05,-432.145 1206.41,-429.969 1201.81,-428.006 1201.81,-428.006 1201.81,-428.006 1206.41,-429.969 1203.58,-423.867 1211.01,-431.932 1211.01,-431.932"/>
</g>
<!-- 33&#45;&gt;19 -->
<g id="edge73" class="edge"><title>33&#45;&gt;19</title>
<path fill="none" stroke="black" d="M1763.75,-467.945C1807.09,-478.628 1862.97,-492.402 1906.94,-503.238"/>
<polygon fill="black" stroke="black" points="1916.7,-505.644 1905.91,-507.62 1911.84,-504.447 1906.99,-503.25 1906.99,-503.25 1906.99,-503.25 1911.84,-504.447 1908.06,-498.881 1916.7,-505.644 1916.7,-505.644"/>
</g>
<!-- 35&#45;&gt;19 -->
<g id="edge74" class="edge"><title>35&#45;&gt;19</title>
<path fill="none" stroke="black" d="M1889.3,-396.129C1907.07,-420.863 1940.04,-466.758 1960.67,-495.488"/>
<polygon fill="black" stroke="black" points="1966.65,-503.811 1957.16,-498.314 1963.74,-499.75 1960.82,-495.689 1960.82,-495.689 1960.82,-495.689 1963.74,-499.75 1964.47,-493.064 1966.65,-503.811 1966.65,-503.811"/>
</g>
<!-- 36&#45;&gt;19 -->
<g id="edge75" class="edge"><title>36&#45;&gt;19</title>
<path fill="none" stroke="black" d="M1958.9,-324.426C1964.54,-334.432 1970.89,-347.467 1974,-360 1985.39,-405.84 1983.93,-461.278 1981.61,-493.693"/>
<polygon fill="black" stroke="black" points="1980.81,-503.756 1977.12,-493.431 1981.21,-498.772 1981.61,-493.787 1981.61,-493.787 1981.61,-493.787 1981.21,-498.772 1986.09,-494.144 1980.81,-503.756 1980.81,-503.756"/>
</g>
<!-- 37&#45;&gt;36 -->
<g id="edge76" class="edge"><title>37&#45;&gt;36</title>
<path fill="none" stroke="black" d="M1917.89,-252.303C1922.49,-260.356 1928.06,-270.106 1933.15,-279.018"/>
<polygon fill="black" stroke="black" points="1938.23,-287.896 1929.36,-281.446 1935.75,-283.554 1933.26,-279.213 1933.26,-279.213 1933.26,-279.213 1935.75,-283.554 1937.17,-276.981 1938.23,-287.896 1938.23,-287.896"/>
</g>
<!-- 38&#45;&gt;21 -->
<g id="edge77" class="edge"><title>38&#45;&gt;21</title>
<path fill="none" stroke="black" d="M1535.08,-252.303C1531.93,-260.187 1528.12,-269.696 1524.62,-278.454"/>
<polygon fill="black" stroke="black" points="1520.84,-287.896 1520.38,-276.94 1522.7,-283.253 1524.56,-278.611 1524.56,-278.611 1524.56,-278.611 1522.7,-283.253 1528.73,-280.282 1520.84,-287.896 1520.84,-287.896"/>
</g>
<!-- 39&#45;&gt;29 -->
<g id="edge78" class="edge"><title>39&#45;&gt;29</title>
<path fill="none" stroke="black" d="M748.78,-384.848C843.417,-396.936 1061.35,-424.775 1176.53,-439.488"/>
<polygon fill="black" stroke="black" points="1186.68,-440.783 1176.19,-443.98 1181.72,-440.15 1176.76,-439.516 1176.76,-439.516 1176.76,-439.516 1181.72,-440.15 1177.33,-435.052 1186.68,-440.783 1186.68,-440.783"/>
</g>
<!-- 40&#45;&gt;39 -->
<g id="edge79" class="edge"><title>40&#45;&gt;39</title>
<path fill="none" stroke="black" d="M492.721,-321.441C495.859,-322.313 498.971,-323.172 502,-324 551.099,-337.428 607.11,-352.148 647.512,-362.66"/>
<polygon fill="black" stroke="black" points="657.434,-365.239 646.624,-367.078 652.595,-363.981 647.756,-362.723 647.756,-362.723 647.756,-362.723 652.595,-363.981 648.888,-358.368 657.434,-365.239 657.434,-365.239"/>
</g>
<!-- 41&#45;&gt;40 -->
<g id="edge80" class="edge"><title>41&#45;&gt;40</title>
<path fill="none" stroke="black" d="M619.056,-252.034C583.814,-262.577 538.598,-276.103 502.681,-286.848"/>
<polygon fill="black" stroke="black" points="492.813,-289.799 501.104,-282.622 497.604,-288.366 502.394,-286.933 502.394,-286.933 502.394,-286.933 497.604,-288.366 503.684,-291.245 492.813,-289.799 492.813,-289.799"/>
</g>
<!-- 42&#45;&gt;39 -->
<g id="edge81" class="edge"><title>42&#45;&gt;39</title>
<path fill="none" stroke="black" d="M603.291,-324.124C620.869,-333.446 642.809,-345.081 661.629,-355.061"/>
<polygon fill="black" stroke="black" points="670.585,-359.81 659.642,-359.101 666.168,-357.468 661.75,-355.125 661.75,-355.125 661.75,-355.125 666.168,-357.468 663.859,-351.15 670.585,-359.81 670.585,-359.81"/>
</g>
<!-- 43&#45;&gt;39 -->
<g id="edge82" class="edge"><title>43&#45;&gt;39</title>
<path fill="none" stroke="black" d="M703,-324.303C703,-332.017 703,-341.288 703,-349.888"/>
<polygon fill="black" stroke="black" points="703,-359.896 698.5,-349.896 703,-354.896 703,-349.896 703,-349.896 703,-349.896 703,-354.896 707.5,-349.896 703,-359.896 703,-359.896"/>
</g>
<!-- 44&#45;&gt;39 -->
<g id="edge83" class="edge"><title>44&#45;&gt;39</title>
<path fill="none" stroke="black" d="M945.144,-321.754C942.053,-322.522 938.99,-323.275 936,-324 875.528,-338.663 805.931,-354.338 758.661,-364.806"/>
<polygon fill="black" stroke="black" points="748.629,-367.023 757.422,-360.471 753.511,-365.944 758.394,-364.865 758.394,-364.865 758.394,-364.865 753.511,-365.944 759.365,-369.259 748.629,-367.023 748.629,-367.023"/>
</g>
<!-- 45&#45;&gt;39 -->
<g id="edge84" class="edge"><title>45&#45;&gt;39</title>
<path fill="none" stroke="black" d="M814.795,-324.124C794.742,-333.608 769.628,-345.487 748.286,-355.581"/>
<polygon fill="black" stroke="black" points="739.087,-359.932 746.203,-351.588 743.607,-357.794 748.127,-355.656 748.127,-355.656 748.127,-355.656 743.607,-357.794 750.051,-359.724 739.087,-359.932 739.087,-359.932"/>
</g>
<!-- 46&#45;&gt;19 -->
<g id="edge85" class="edge"><title>46&#45;&gt;19</title>
<path fill="none" stroke="black" d="M2084.78,-324.151C2064.72,-361.481 2016.99,-450.305 1993.11,-494.741"/>
<polygon fill="black" stroke="black" points="1988.26,-503.768 1989.03,-492.829 1990.63,-499.363 1992.99,-494.959 1992.99,-494.959 1992.99,-494.959 1990.63,-499.363 1996.96,-497.089 1988.26,-503.768 1988.26,-503.768"/>
</g>
<!-- 47&#45;&gt;46 -->
<g id="edge86" class="edge"><title>47&#45;&gt;46</title>
<path fill="none" stroke="black" d="M2128.63,-252.303C2123.28,-260.441 2116.8,-270.311 2110.89,-279.299"/>
<polygon fill="black" stroke="black" points="2105.24,-287.896 2106.97,-277.067 2107.99,-283.717 2110.73,-279.539 2110.73,-279.539 2110.73,-279.539 2107.99,-283.717 2114.49,-282.01 2105.24,-287.896 2105.24,-287.896"/>
</g>
<!-- 48&#45;&gt;29 -->
<g id="edge87" class="edge"><title>48&#45;&gt;29</title>
<path fill="none" stroke="black" d="M1166.31,-324.329C1167.38,-343.249 1171.32,-373.806 1185,-396 1192.06,-407.451 1202.5,-417.489 1213.02,-425.661"/>
<polygon fill="black" stroke="black" points="1221.4,-431.805 1210.67,-429.521 1217.36,-428.849 1213.33,-425.892 1213.33,-425.892 1213.33,-425.892 1217.36,-428.849 1215.99,-422.263 1221.4,-431.805 1221.4,-431.805"/>
</g>
<!-- 48&#45;&gt;51 -->
<g id="edge88" class="edge"><title>48&#45;&gt;51</title>
<path fill="none" stroke="black" d="M1186.52,-324.303C1196.87,-333.035 1209.59,-343.76 1220.84,-353.25"/>
<polygon fill="black" stroke="black" points="1228.72,-359.896 1218.17,-356.889 1224.9,-356.672 1221.07,-353.449 1221.07,-353.449 1221.07,-353.449 1224.9,-356.672 1223.98,-350.009 1228.72,-359.896 1228.72,-359.896"/>
</g>
<!-- 49&#45;&gt;48 -->
<g id="edge89" class="edge"><title>49&#45;&gt;48</title>
<path fill="none" stroke="black" d="M1232.25,-252.303C1221.16,-261.119 1207.53,-271.968 1195.51,-281.526"/>
<polygon fill="black" stroke="black" points="1187.5,-287.896 1192.53,-278.149 1191.42,-284.783 1195.33,-281.67 1195.33,-281.67 1195.33,-281.67 1191.42,-284.783 1198.13,-285.192 1187.5,-287.896 1187.5,-287.896"/>
</g>
<!-- 49&#45;&gt;51 -->
<g id="edge90" class="edge"><title>49&#45;&gt;51</title>
<path fill="none" stroke="black" d="M1253.4,-252.129C1252.54,-276.33 1250.98,-320.789 1249.96,-349.607"/>
<polygon fill="black" stroke="black" points="1249.61,-359.811 1245.46,-349.659 1249.78,-354.814 1249.96,-349.817 1249.96,-349.817 1249.96,-349.817 1249.78,-354.814 1254.45,-349.975 1249.61,-359.811 1249.61,-359.811"/>
</g>
<!-- 50&#45;&gt;48 -->
<g id="edge91" class="edge"><title>50&#45;&gt;48</title>
<path fill="none" stroke="black" d="M1091.97,-252.124C1104.55,-261.107 1120.13,-272.237 1133.75,-281.966"/>
<polygon fill="black" stroke="black" points="1141.93,-287.81 1131.18,-285.66 1137.87,-284.904 1133.8,-281.998 1133.8,-281.998 1133.8,-281.998 1137.87,-284.904 1136.41,-278.336 1141.93,-287.81 1141.93,-287.81"/>
</g>
<!-- 52 -->
<g id="node53" class="node"><title>52</title>
<polygon fill="none" stroke="black" points="4765,-180 4635,-180 4635,-144 4765,-144 4765,-180"/>
<text text-anchor="middle" x="4700" y="-158.3" font-family="Times,serif" font-size="14.00">PoliciesMultiPlayers</text>
</g>
<!-- 53 -->
<g id="node54" class="node"><title>53</title>
<polygon fill="none" stroke="black" points="5400.5,-252 5219.5,-252 5219.5,-216 5400.5,-216 5400.5,-252"/>
<text text-anchor="middle" x="5310" y="-230.3" font-family="Times,serif" font-size="14.00">PoliciesMultiPlayers.ALOHA</text>
</g>
<!-- 52&#45;&gt;53 -->
<g id="edge92" class="edge"><title>52&#45;&gt;53</title>
<path fill="none" stroke="black" d="M4765.37,-168.427C4860.57,-176.633 5043.12,-193.509 5208.9,-215.901"/>
<polygon fill="black" stroke="black" points="5219.29,-217.315 5208.77,-220.426 5214.33,-216.641 5209.38,-215.967 5209.38,-215.967 5209.38,-215.967 5214.33,-216.641 5209.99,-211.508 5219.29,-217.315 5219.29,-217.315"/>
</g>
<!-- 56 -->
<g id="node57" class="node"><title>56</title>
<polygon fill="none" stroke="black" points="4568.5,-252 4329.5,-252 4329.5,-216 4568.5,-216 4568.5,-252"/>
<text text-anchor="middle" x="4449" y="-230.3" font-family="Times,serif" font-size="14.00">PoliciesMultiPlayers.CentralizedCycling</text>
</g>
<!-- 52&#45;&gt;56 -->
<g id="edge93" class="edge"><title>52&#45;&gt;56</title>
<path fill="none" stroke="black" d="M4638.92,-180.034C4603.09,-190.028 4557.64,-202.702 4520.19,-213.146"/>
<polygon fill="black" stroke="black" points="4510.35,-215.889 4518.78,-208.868 4515.17,-214.546 4519.99,-213.203 4519.99,-213.203 4519.99,-213.203 4515.17,-214.546 4521.2,-217.537 4510.35,-215.889 4510.35,-215.889"/>
</g>
<!-- 57 -->
<g id="node58" class="node"><title>57</title>
<polygon fill="none" stroke="black" points="4813.5,-252 4586.5,-252 4586.5,-216 4813.5,-216 4813.5,-252"/>
<text text-anchor="middle" x="4700" y="-230.3" font-family="Times,serif" font-size="14.00">PoliciesMultiPlayers.CentralizedFixed</text>
</g>
<!-- 52&#45;&gt;57 -->
<g id="edge94" class="edge"><title>52&#45;&gt;57</title>
<path fill="none" stroke="black" d="M4700,-180.303C4700,-188.017 4700,-197.288 4700,-205.888"/>
<polygon fill="black" stroke="black" points="4700,-215.896 4695.5,-205.896 4700,-210.896 4700,-205.896 4700,-205.896 4700,-205.896 4700,-210.896 4704.5,-205.896 4700,-215.896 4700,-215.896"/>
</g>
<!-- 58 -->
<g id="node59" class="node"><title>58</title>
<polygon fill="none" stroke="black" points="5685.5,-252 5418.5,-252 5418.5,-216 5685.5,-216 5685.5,-252"/>
<text text-anchor="middle" x="5552" y="-230.3" font-family="Times,serif" font-size="14.00">PoliciesMultiPlayers.CentralizedMultiplePlay</text>
</g>
<!-- 52&#45;&gt;58 -->
<g id="edge95" class="edge"><title>52&#45;&gt;58</title>
<path fill="none" stroke="black" d="M4765.18,-166.889C4888.61,-174.467 5165.17,-192.465 5408.15,-215.842"/>
<polygon fill="black" stroke="black" points="5418.23,-216.817 5407.85,-220.333 5413.26,-216.336 5408.28,-215.854 5408.28,-215.854 5408.28,-215.854 5413.26,-216.336 5408.71,-211.375 5418.23,-216.817 5418.23,-216.817"/>
</g>
<!-- 61 -->
<g id="node62" class="node"><title>61</title>
<polygon fill="none" stroke="black" points="4081.5,-252 3890.5,-252 3890.5,-216 4081.5,-216 4081.5,-252"/>
<text text-anchor="middle" x="3986" y="-230.3" font-family="Times,serif" font-size="14.00">PoliciesMultiPlayers.OracleFair</text>
</g>
<!-- 52&#45;&gt;61 -->
<g id="edge96" class="edge"><title>52&#45;&gt;61</title>
<path fill="none" stroke="black" d="M4634.94,-167.081C4525.17,-174.315 4296.01,-190.909 4091.55,-215.988"/>
<polygon fill="black" stroke="black" points="4081.53,-217.227 4090.9,-211.535 4086.49,-216.614 4091.45,-216.001 4091.45,-216.001 4091.45,-216.001 4086.49,-216.614 4092,-220.467 4081.53,-217.227 4081.53,-217.227"/>
</g>
<!-- 62 -->
<g id="node63" class="node"><title>62</title>
<polygon fill="none" stroke="black" points="4312,-252 4100,-252 4100,-216 4312,-216 4312,-252"/>
<text text-anchor="middle" x="4206" y="-230.3" font-family="Times,serif" font-size="14.00">PoliciesMultiPlayers.OracleNotFair</text>
</g>
<!-- 52&#45;&gt;62 -->
<g id="edge97" class="edge"><title>52&#45;&gt;62</title>
<path fill="none" stroke="black" d="M4634.93,-171.942C4561.55,-182.061 4438.37,-199.154 4322.33,-215.814"/>
<polygon fill="black" stroke="black" points="4312.2,-217.27 4321.46,-211.393 4317.15,-216.558 4322.1,-215.847 4322.1,-215.847 4322.1,-215.847 4317.15,-216.558 4322.74,-220.301 4312.2,-217.27 4312.2,-217.27"/>
</g>
<!-- 63 -->
<g id="node64" class="node"><title>63</title>
<polygon fill="none" stroke="black" points="5002.5,-252 4831.5,-252 4831.5,-216 5002.5,-216 5002.5,-252"/>
<text text-anchor="middle" x="4917" y="-230.3" font-family="Times,serif" font-size="14.00">PoliciesMultiPlayers.Selfish</text>
</g>
<!-- 52&#45;&gt;63 -->
<g id="edge98" class="edge"><title>52&#45;&gt;63</title>
<path fill="none" stroke="black" d="M4752.81,-180.034C4783.39,-189.9 4822.07,-202.378 4854.21,-212.745"/>
<polygon fill="black" stroke="black" points="4863.96,-215.889 4853.06,-217.102 4859.2,-214.354 4854.44,-212.819 4854.44,-212.819 4854.44,-212.819 4859.2,-214.354 4855.82,-208.536 4863.96,-215.889 4863.96,-215.889"/>
</g>
<!-- 65 -->
<g id="node66" class="node"><title>65</title>
<polygon fill="none" stroke="black" points="5201,-252 5021,-252 5021,-216 5201,-216 5201,-252"/>
<text text-anchor="middle" x="5111" y="-230.3" font-family="Times,serif" font-size="14.00">PoliciesMultiPlayers.rhoRand</text>
</g>
<!-- 52&#45;&gt;65 -->
<g id="edge99" class="edge"><title>52&#45;&gt;65</title>
<path fill="none" stroke="black" d="M4765.14,-174.031C4826.04,-184.352 4919.82,-200.264 5010.94,-215.821"/>
<polygon fill="black" stroke="black" points="5020.89,-217.52 5010.28,-220.272 5015.96,-216.678 5011.04,-215.837 5011.04,-215.837 5011.04,-215.837 5015.96,-216.678 5011.79,-211.401 5020.89,-217.52 5020.89,-217.52"/>
</g>
<!-- 55 -->
<g id="node56" class="node"><title>55</title>
<polygon fill="none" stroke="black" points="5029.5,-324 4814.5,-324 4814.5,-288 5029.5,-288 5029.5,-324"/>
<text text-anchor="middle" x="4922" y="-302.3" font-family="Times,serif" font-size="14.00">PoliciesMultiPlayers.BaseMPPolicy</text>
</g>
<!-- 53&#45;&gt;55 -->
<g id="edge100" class="edge"><title>53&#45;&gt;55</title>
<path fill="none" stroke="black" d="M5219.03,-251.412C5161.32,-261.824 5086.47,-275.327 5026.35,-286.174"/>
<polygon fill="black" stroke="black" points="5016.45,-287.96 5025.49,-281.756 5021.37,-287.072 5026.29,-286.184 5026.29,-286.184 5026.29,-286.184 5021.37,-287.072 5027.09,-290.613 5016.45,-287.96 5016.45,-287.96"/>
</g>
<!-- 59 -->
<g id="node60" class="node"><title>59</title>
<polygon fill="none" stroke="black" points="4796.5,-324 4593.5,-324 4593.5,-288 4796.5,-288 4796.5,-324"/>
<text text-anchor="middle" x="4695" y="-302.3" font-family="Times,serif" font-size="14.00">PoliciesMultiPlayers.ChildPointer</text>
</g>
<!-- 53&#45;&gt;59 -->
<g id="edge101" class="edge"><title>53&#45;&gt;59</title>
<path fill="none" stroke="black" d="M5219.3,-250.743C5216.16,-251.184 5213.06,-251.605 5210,-252 5034.45,-274.706 4986.68,-266.651 4806.66,-287.972"/>
<polygon fill="black" stroke="black" points="4796.59,-289.179 4805.98,-283.521 4801.55,-288.584 4806.52,-287.989 4806.52,-287.989 4806.52,-287.989 4801.55,-288.584 4807.05,-292.457 4796.59,-289.179 4796.59,-289.179"/>
</g>
<!-- 54 -->
<g id="node55" class="node"><title>54</title>
<polygon fill="none" stroke="black" points="4454.5,-324 4197.5,-324 4197.5,-288 4454.5,-288 4454.5,-324"/>
<text text-anchor="middle" x="4326" y="-302.3" font-family="Times,serif" font-size="14.00">PoliciesMultiPlayers.BaseCentralizedPolicy</text>
</g>
<!-- 56&#45;&gt;54 -->
<g id="edge102" class="edge"><title>56&#45;&gt;54</title>
<path fill="none" stroke="black" d="M4418.91,-252.124C4402.68,-261.361 4382.46,-272.869 4365.03,-282.788"/>
<polygon fill="black" stroke="black" points="4356.2,-287.81 4362.67,-278.953 4360.55,-285.337 4364.9,-282.864 4364.9,-282.864 4364.9,-282.864 4360.55,-285.337 4367.12,-286.775 4356.2,-287.81 4356.2,-287.81"/>
</g>
<!-- 56&#45;&gt;55 -->
<g id="edge103" class="edge"><title>56&#45;&gt;55</title>
<path fill="none" stroke="black" d="M4564.1,-252.034C4636.84,-262.799 4730.59,-276.674 4803.9,-287.522"/>
<polygon fill="black" stroke="black" points="4814.1,-289.032 4803.55,-292.019 4809.16,-288.3 4804.21,-287.568 4804.21,-287.568 4804.21,-287.568 4809.16,-288.3 4804.87,-283.116 4814.1,-289.032 4814.1,-289.032"/>
</g>
<!-- 56&#45;&gt;59 -->
<g id="edge104" class="edge"><title>56&#45;&gt;59</title>
<path fill="none" stroke="black" d="M4508.86,-252.034C4543.98,-262.028 4588.52,-274.702 4625.23,-285.146"/>
<polygon fill="black" stroke="black" points="4634.87,-287.889 4624.02,-289.48 4630.06,-286.521 4625.25,-285.152 4625.25,-285.152 4625.25,-285.152 4630.06,-286.521 4626.48,-280.824 4634.87,-287.889 4634.87,-287.889"/>
</g>
<!-- 57&#45;&gt;54 -->
<g id="edge105" class="edge"><title>57&#45;&gt;54</title>
<path fill="none" stroke="black" d="M4608.99,-252.034C4554.02,-262.323 4483.86,-275.453 4427.16,-286.067"/>
<polygon fill="black" stroke="black" points="4417.1,-287.95 4426.1,-281.687 4422.01,-287.03 4426.93,-286.11 4426.93,-286.11 4426.93,-286.11 4422.01,-287.03 4427.75,-290.533 4417.1,-287.95 4417.1,-287.95"/>
</g>
<!-- 57&#45;&gt;55 -->
<g id="edge106" class="edge"><title>57&#45;&gt;55</title>
<path fill="none" stroke="black" d="M4754.02,-252.034C4785.45,-261.943 4825.23,-274.486 4858.19,-284.879"/>
<polygon fill="black" stroke="black" points="4867.73,-287.889 4856.84,-289.174 4862.97,-286.386 4858.2,-284.882 4858.2,-284.882 4858.2,-284.882 4862.97,-286.386 4859.55,-280.59 4867.73,-287.889 4867.73,-287.889"/>
</g>
<!-- 57&#45;&gt;59 -->
<g id="edge107" class="edge"><title>57&#45;&gt;59</title>
<path fill="none" stroke="black" d="M4698.76,-252.303C4698.21,-260.017 4697.55,-269.288 4696.94,-277.888"/>
<polygon fill="black" stroke="black" points="4696.22,-287.896 4692.45,-277.6 4696.58,-282.908 4696.93,-277.921 4696.93,-277.921 4696.93,-277.921 4696.58,-282.908 4701.42,-278.242 4696.22,-287.896 4696.22,-287.896"/>
</g>
<!-- 58&#45;&gt;55 -->
<g id="edge108" class="edge"><title>58&#45;&gt;55</title>
<path fill="none" stroke="black" d="M5418.22,-251.057C5415.46,-251.376 5412.71,-251.69 5410,-252 5283.53,-266.438 5138.51,-282.071 5039.64,-292.589"/>
<polygon fill="black" stroke="black" points="5029.62,-293.655 5039.08,-288.123 5034.59,-293.126 5039.56,-292.597 5039.56,-292.597 5039.56,-292.597 5034.59,-293.126 5040.04,-297.072 5029.62,-293.655 5029.62,-293.655"/>
</g>
<!-- 58&#45;&gt;59 -->
<g id="edge109" class="edge"><title>58&#45;&gt;59</title>
<path fill="none" stroke="black" d="M5418.24,-251.239C5415.47,-251.502 5412.72,-251.756 5410,-252 5145.42,-275.701 5075.13,-260.008 4806.62,-288.001"/>
<polygon fill="black" stroke="black" points="4796.57,-289.059 4806.05,-283.536 4801.55,-288.535 4806.52,-288.012 4806.52,-288.012 4806.52,-288.012 4801.55,-288.535 4806.99,-292.487 4796.57,-289.059 4796.57,-289.059"/>
</g>
<!-- 60 -->
<g id="node61" class="node"><title>60</title>
<polygon fill="none" stroke="black" points="3624.5,-36 3459.5,-36 3459.5,-0 3624.5,-0 3624.5,-36"/>
<text text-anchor="middle" x="3542" y="-14.3" font-family="Times,serif" font-size="14.00">PoliciesMultiPlayers.DMC</text>
</g>
<!-- 61&#45;&gt;54 -->
<g id="edge110" class="edge"><title>61&#45;&gt;54</title>
<path fill="none" stroke="black" d="M4068.74,-252.034C4118.4,-262.259 4181.7,-275.29 4233.08,-285.869"/>
<polygon fill="black" stroke="black" points="4243.19,-287.95 4232.48,-290.341 4238.29,-286.942 4233.39,-285.933 4233.39,-285.933 4233.39,-285.933 4238.29,-286.942 4234.3,-281.526 4243.19,-287.95 4243.19,-287.95"/>
</g>
<!-- 61&#45;&gt;55 -->
<g id="edge111" class="edge"><title>61&#45;&gt;55</title>
<path fill="none" stroke="black" d="M4081.51,-250.921C4084.71,-251.308 4087.88,-251.67 4091,-252 4404.02,-285.118 4487.56,-257.503 4803.91,-287.851"/>
<polygon fill="black" stroke="black" points="4814.3,-288.86 4803.91,-292.372 4809.32,-288.376 4804.34,-287.893 4804.34,-287.893 4804.34,-287.893 4809.32,-288.376 4804.78,-283.414 4814.3,-288.86 4814.3,-288.86"/>
</g>
<!-- 61&#45;&gt;59 -->
<g id="edge112" class="edge"><title>61&#45;&gt;59</title>
<path fill="none" stroke="black" d="M4081.53,-250.77C4084.72,-251.2 4087.88,-251.612 4091,-252 4183.22,-263.496 4435.56,-284.346 4583.27,-296.179"/>
<polygon fill="black" stroke="black" points="4593.28,-296.98 4582.96,-300.668 4588.3,-296.581 4583.32,-296.183 4583.32,-296.183 4583.32,-296.183 4588.3,-296.581 4583.67,-291.697 4593.28,-296.98 4593.28,-296.98"/>
</g>
<!-- 62&#45;&gt;54 -->
<g id="edge113" class="edge"><title>62&#45;&gt;54</title>
<path fill="none" stroke="black" d="M4235.36,-252.124C4251.05,-261.276 4270.56,-272.658 4287.45,-282.515"/>
<polygon fill="black" stroke="black" points="4296.53,-287.81 4285.63,-286.659 4292.21,-285.291 4287.89,-282.771 4287.89,-282.771 4287.89,-282.771 4292.21,-285.291 4290.16,-278.884 4296.53,-287.81 4296.53,-287.81"/>
</g>
<!-- 62&#45;&gt;55 -->
<g id="edge114" class="edge"><title>62&#45;&gt;55</title>
<path fill="none" stroke="black" d="M4312.17,-250.982C4315.14,-251.337 4318.09,-251.677 4321,-252 4532.58,-275.46 4589.44,-264.654 4804.27,-287.853"/>
<polygon fill="black" stroke="black" points="4814.29,-288.947 4803.86,-292.335 4809.32,-288.405 4804.35,-287.862 4804.35,-287.862 4804.35,-287.862 4809.32,-288.405 4804.83,-283.388 4814.29,-288.947 4814.29,-288.947"/>
</g>
<!-- 62&#45;&gt;59 -->
<g id="edge115" class="edge"><title>62&#45;&gt;59</title>
<path fill="none" stroke="black" d="M4312.2,-250.723C4315.17,-251.154 4318.1,-251.581 4321,-252 4409.02,-264.743 4508.75,-278.859 4583.07,-289.317"/>
<polygon fill="black" stroke="black" points="4593.39,-290.768 4582.86,-293.831 4588.43,-290.071 4583.48,-289.375 4583.48,-289.375 4583.48,-289.375 4588.43,-290.071 4584.11,-284.919 4593.39,-290.768 4593.39,-290.768"/>
</g>
<!-- 63&#45;&gt;55 -->
<g id="edge116" class="edge"><title>63&#45;&gt;55</title>
<path fill="none" stroke="black" d="M4918.24,-252.303C4918.79,-260.017 4919.45,-269.288 4920.06,-277.888"/>
<polygon fill="black" stroke="black" points="4920.78,-287.896 4915.58,-278.242 4920.42,-282.908 4920.07,-277.921 4920.07,-277.921 4920.07,-277.921 4920.42,-282.908 4924.55,-277.6 4920.78,-287.896 4920.78,-287.896"/>
</g>
<!-- 63&#45;&gt;59 -->
<g id="edge117" class="edge"><title>63&#45;&gt;59</title>
<path fill="none" stroke="black" d="M4862.98,-252.034C4831.55,-261.943 4791.77,-274.486 4758.81,-284.879"/>
<polygon fill="black" stroke="black" points="4749.27,-287.889 4757.45,-280.59 4754.03,-286.386 4758.8,-284.882 4758.8,-284.882 4758.8,-284.882 4754.03,-286.386 4760.16,-289.174 4749.27,-287.889 4749.27,-287.889"/>
</g>
<!-- 64 -->
<g id="node65" class="node"><title>64</title>
<polygon fill="none" stroke="black" points="3809.5,-36 3642.5,-36 3642.5,-0 3809.5,-0 3809.5,-36"/>
<text text-anchor="middle" x="3726" y="-14.3" font-family="Times,serif" font-size="14.00">PoliciesMultiPlayers.TDFS</text>
</g>
<!-- 65&#45;&gt;55 -->
<g id="edge118" class="edge"><title>65&#45;&gt;55</title>
<path fill="none" stroke="black" d="M5064.77,-252.124C5038.47,-261.863 5005.36,-274.128 4977.64,-284.392"/>
<polygon fill="black" stroke="black" points="4968.08,-287.932 4975.9,-280.239 4972.77,-286.195 4977.46,-284.458 4977.46,-284.458 4977.46,-284.458 4972.77,-286.195 4979.02,-288.678 4968.08,-287.932 4968.08,-287.932"/>
</g>
<!-- 65&#45;&gt;59 -->
<g id="edge119" class="edge"><title>65&#45;&gt;59</title>
<path fill="none" stroke="black" d="M5020.89,-250.49C5017.89,-251 5014.92,-251.505 5012,-252 4943.86,-263.546 4867.46,-276.326 4806.73,-286.443"/>
<polygon fill="black" stroke="black" points="4796.74,-288.107 4805.86,-282.025 4801.67,-287.286 4806.6,-286.464 4806.6,-286.464 4806.6,-286.464 4801.67,-287.286 4807.34,-290.903 4796.74,-288.107 4796.74,-288.107"/>
</g>
<!-- 66 -->
<g id="node67" class="node"><title>66</title>
<polygon fill="none" stroke="black" points="518.5,-108 429.5,-108 429.5,-72 518.5,-72 518.5,-108"/>
<text text-anchor="middle" x="474" y="-86.3" font-family="Times,serif" font-size="14.00">configuration</text>
</g>
<!-- 66&#45;&gt;2 -->
<g id="edge120" class="edge"><title>66&#45;&gt;2</title>
<path fill="none" stroke="black" d="M488.337,-108.303C495.291,-116.695 503.77,-126.93 511.401,-136.139"/>
<polygon fill="black" stroke="black" points="517.828,-143.896 507.983,-139.067 514.638,-140.046 511.448,-136.195 511.448,-136.195 511.448,-136.195 514.638,-140.046 514.913,-133.324 517.828,-143.896 517.828,-143.896"/>
</g>
<!-- 66&#45;&gt;3 -->
<g id="edge121" class="edge"><title>66&#45;&gt;3</title>
<path fill="none" stroke="black" d="M429.255,-100.832C384.4,-110.766 313.106,-126.763 242.098,-143.764"/>
<polygon fill="black" stroke="black" points="232.083,-146.169 240.756,-139.458 236.945,-145.001 241.806,-143.834 241.806,-143.834 241.806,-143.834 236.945,-145.001 242.857,-148.209 232.083,-146.169 232.083,-146.169"/>
</g>
<!-- 66&#45;&gt;4 -->
<g id="edge122" class="edge"><title>66&#45;&gt;4</title>
<path fill="none" stroke="black" d="M431.679,-108.124C407.819,-117.778 377.828,-129.913 352.597,-140.122"/>
<polygon fill="black" stroke="black" points="343.183,-143.932 350.765,-136.009 347.818,-142.056 352.453,-140.181 352.453,-140.181 352.453,-140.181 347.818,-142.056 354.141,-144.352 343.183,-143.932 343.183,-143.932"/>
</g>
<!-- 66&#45;&gt;5 -->
<g id="edge123" class="edge"><title>66&#45;&gt;5</title>
<path fill="none" stroke="black" d="M459.663,-108.303C452.709,-116.695 444.23,-126.93 436.599,-136.139"/>
<polygon fill="black" stroke="black" points="430.172,-143.896 433.087,-133.324 433.362,-140.046 436.552,-136.195 436.552,-136.195 436.552,-136.195 433.362,-140.046 440.017,-139.067 430.172,-143.896 430.172,-143.896"/>
</g>
<!-- 66&#45;&gt;16 -->
<g id="edge124" class="edge"><title>66&#45;&gt;16</title>
<path fill="none" stroke="black" d="M518.665,-93.6586C706.655,-104.849 1432.07,-148.028 1610.29,-158.636"/>
<polygon fill="black" stroke="black" points="1620.28,-159.231 1610.03,-163.129 1615.29,-158.934 1610.3,-158.637 1610.3,-158.637 1610.3,-158.637 1615.29,-158.934 1610.56,-154.144 1620.28,-159.231 1620.28,-159.231"/>
</g>
<!-- 67 -->
<g id="node68" class="node"><title>67</title>
<polygon fill="none" stroke="black" points="3464,-108 3300,-108 3300,-72 3464,-72 3464,-108"/>
<text text-anchor="middle" x="3382" y="-86.3" font-family="Times,serif" font-size="14.00">configuration_multiplayers</text>
</g>
<!-- 67&#45;&gt;2 -->
<g id="edge125" class="edge"><title>67&#45;&gt;2</title>
<path fill="none" stroke="black" d="M3299.75,-106.996C3296.8,-107.369 3293.88,-107.706 3291,-108 3221.62,-115.098 994.268,-153.159 593.466,-159.96"/>
<polygon fill="black" stroke="black" points="583.238,-160.133 593.16,-155.464 588.237,-160.048 593.236,-159.963 593.236,-159.963 593.236,-159.963 588.237,-160.048 593.313,-164.463 583.238,-160.133 583.238,-160.133"/>
</g>
<!-- 67&#45;&gt;9 -->
<g id="edge126" class="edge"><title>67&#45;&gt;9</title>
<path fill="none" stroke="black" d="M3464.06,-105.047C3507.85,-113.81 3562.2,-126.736 3609,-144 3657.94,-162.054 3710.73,-190.911 3744.73,-210.847"/>
<polygon fill="black" stroke="black" points="3753.38,-215.964 3742.48,-214.745 3749.07,-213.418 3744.77,-210.872 3744.77,-210.872 3744.77,-210.872 3749.07,-213.418 3747.06,-206.999 3753.38,-215.964 3753.38,-215.964"/>
</g>
<!-- 67&#45;&gt;12 -->
<g id="edge127" class="edge"><title>67&#45;&gt;12</title>
<path fill="none" stroke="black" d="M3378.86,-108.129C3374.43,-132.33 3366.29,-176.789 3361.02,-205.607"/>
<polygon fill="black" stroke="black" points="3359.15,-215.811 3356.52,-205.164 3360.05,-210.892 3360.95,-205.974 3360.95,-205.974 3360.95,-205.974 3360.05,-210.892 3365.37,-206.785 3359.15,-215.811 3359.15,-215.811"/>
</g>
<!-- 67&#45;&gt;16 -->
<g id="edge128" class="edge"><title>67&#45;&gt;16</title>
<path fill="none" stroke="black" d="M3299.74,-106.947C3296.8,-107.334 3293.88,-107.687 3291,-108 2966.37,-143.356 1908.32,-157.879 1689.73,-160.539"/>
<polygon fill="black" stroke="black" points="1679.67,-160.66 1689.62,-156.04 1684.67,-160.6 1689.67,-160.54 1689.67,-160.54 1689.67,-160.54 1684.67,-160.6 1689.73,-165.04 1679.67,-160.66 1679.67,-160.66"/>
</g>
<!-- 67&#45;&gt;52 -->
<g id="edge129" class="edge"><title>67&#45;&gt;52</title>
<path fill="none" stroke="black" d="M3464.45,-95.3788C3703.53,-108.076 4394.67,-144.783 4624.6,-156.995"/>
<polygon fill="black" stroke="black" points="4634.87,-157.541 4624.65,-161.504 4629.88,-157.276 4624.88,-157.01 4624.88,-157.01 4624.88,-157.01 4629.88,-157.276 4625.12,-152.517 4634.87,-157.541 4634.87,-157.541"/>
</g>
<!-- 68 -->
<g id="node69" class="node"><title>68</title>
<polygon fill="none" stroke="black" points="3179,-36 3125,-36 3125,-0 3179,-0 3179,-36"/>
<text text-anchor="middle" x="3152" y="-14.3" font-family="Times,serif" font-size="14.00">main</text>
</g>
<!-- 68&#45;&gt;8 -->
<g id="edge130" class="edge"><title>68&#45;&gt;8</title>
<path fill="none" stroke="black" d="M3173.26,-36.3034C3184.09,-45.1193 3197.42,-55.9679 3209.16,-65.5258"/>
<polygon fill="black" stroke="black" points="3216.99,-71.8957 3206.39,-69.073 3213.11,-68.7393 3209.23,-65.5829 3209.23,-65.5829 3209.23,-65.5829 3213.11,-68.7393 3212.07,-62.0929 3216.99,-71.8957 3216.99,-71.8957"/>
</g>
<!-- 68&#45;&gt;10 -->
<g id="edge131" class="edge"><title>68&#45;&gt;10</title>
<path fill="none" stroke="black" d="M3152,-36.1285C3152,-60.3298 3152,-104.789 3152,-133.607"/>
<polygon fill="black" stroke="black" points="3152,-143.811 3147.5,-133.811 3152,-138.811 3152,-133.811 3152,-133.811 3152,-133.811 3152,-138.811 3156.5,-133.811 3152,-143.811 3152,-143.811"/>
</g>
<!-- 68&#45;&gt;66 -->
<g id="edge132" class="edge"><title>68&#45;&gt;66</title>
<path fill="none" stroke="black" d="M3124.62,-19.7156C2867.92,-26.4256 884.601,-78.2673 528.623,-87.5722"/>
<polygon fill="black" stroke="black" points="518.569,-87.835 528.448,-83.0752 523.567,-87.7043 528.566,-87.5736 528.566,-87.5736 528.566,-87.5736 523.567,-87.7043 528.683,-92.0721 518.569,-87.835 518.569,-87.835"/>
</g>
<!-- 69 -->
<g id="node70" class="node"><title>69</title>
<polygon fill="none" stroke="black" points="3441.5,-36 3322.5,-36 3322.5,-0 3441.5,-0 3441.5,-36"/>
<text text-anchor="middle" x="3382" y="-14.3" font-family="Times,serif" font-size="14.00">main_multiplayers</text>
</g>
<!-- 69&#45;&gt;8 -->
<g id="edge133" class="edge"><title>69&#45;&gt;8</title>
<path fill="none" stroke="black" d="M3346.77,-36.1239C3327.42,-45.5307 3303.23,-57.2923 3282.57,-67.3328"/>
<polygon fill="black" stroke="black" points="3273.36,-71.8102 3280.39,-63.3911 3277.86,-69.6243 3282.36,-67.4383 3282.36,-67.4383 3282.36,-67.4383 3277.86,-69.6243 3284.32,-71.4854 3273.36,-71.8102 3273.36,-71.8102"/>
</g>
<!-- 69&#45;&gt;11 -->
<g id="edge134" class="edge"><title>69&#45;&gt;11</title>
<path fill="none" stroke="black" d="M3427.41,-36.0993C3444.08,-44.5206 3461.63,-56.3049 3473,-72 3486,-89.9463 3490.46,-114.942 3491.83,-133.877"/>
<polygon fill="black" stroke="black" points="3492.32,-143.957 3487.34,-134.186 3492.08,-138.963 3491.84,-133.968 3491.84,-133.968 3491.84,-133.968 3492.08,-138.963 3496.33,-133.751 3492.32,-143.957 3492.32,-143.957"/>
</g>
<!-- 69&#45;&gt;67 -->
<g id="edge135" class="edge"><title>69&#45;&gt;67</title>
<path fill="none" stroke="black" d="M3382,-36.3034C3382,-44.0173 3382,-53.2875 3382,-61.8876"/>
<polygon fill="black" stroke="black" points="3382,-71.8957 3377.5,-61.8956 3382,-66.8957 3382,-61.8957 3382,-61.8957 3382,-61.8957 3382,-66.8957 3386.5,-61.8957 3382,-71.8957 3382,-71.8957"/>
</g>
</g>
</svg>
