<?xml version="1.0" encoding="UTF-8" standalone="no"?>
<!DOCTYPE svg PUBLIC "-//W3C//DTD SVG 1.1//EN"
 "http://www.w3.org/Graphics/SVG/1.1/DTD/svg11.dtd">
<!-- Generated by graphviz version 2.40.1 (20161225.0304)
 -->
<!-- Title: packages_SMPyBandits Pages: 1 -->
<svg width="5583pt" height="116pt"
 viewBox="0.00 0.00 5583.00 116.00" xmlns="http://www.w3.org/2000/svg" xmlns:xlink="http://www.w3.org/1999/xlink">
<g id="graph0" class="graph" transform="scale(1 1) rotate(0) translate(4 112)">
<title>packages_SMPyBandits</title>
<polygon fill="#ffffff" stroke="transparent" points="-4,4 -4,-112 5579,-112 5579,4 -4,4"/>
<!-- 0 -->
<g id="node1" class="node">
<title>0</title>
<polygon fill="none" stroke="#000000" points="92,-36 0,-36 0,0 92,0 92,-36"/>
<text text-anchor="middle" x="46" y="-14.3" font-family="Times,serif" font-size="14.00" fill="#000000">SMPyBandits</text>
</g>
<!-- 0&#45;&gt;0 -->
<g id="edge1" class="edge">
<title>0&#45;&gt;0</title>
<path fill="none" stroke="#000000" d="M92.0242,-4.8296C102.4063,-6.0161 110,-10.4063 110,-18 110,-22.8647 106.8835,-26.4147 101.914,-28.6499"/>
<polygon fill="#000000" stroke="#000000" points="92.0242,-31.1704 100.6031,-24.3401 96.8693,-29.9356 101.7144,-28.7007 101.7144,-28.7007 101.7144,-28.7007 96.8693,-29.9356 102.8258,-33.0613 92.0242,-31.1704 92.0242,-31.1704"/>
</g>
<!-- 1 -->
<g id="node2" class="node">
<title>1</title>
<polygon fill="none" stroke="#000000" points="465.5,-36 128.5,-36 128.5,0 465.5,0 465.5,-36"/>
<text text-anchor="middle" x="297" y="-14.3" font-family="Times,serif" font-size="14.00" fill="#000000">SMPyBandits.complete_tree_exploration_for_MP_bandits</text>
</g>
<!-- 2 -->
<g id="node3" class="node">
<title>2</title>
<polygon fill="none" stroke="#000000" points="652.5,-36 483.5,-36 483.5,0 652.5,0 652.5,-36"/>
<text text-anchor="middle" x="568" y="-14.3" font-family="Times,serif" font-size="14.00" fill="#000000">SMPyBandits.configuration</text>
</g>
<!-- 3 -->
<g id="node4" class="node">
<title>3</title>
<polygon fill="none" stroke="#000000" points="933,-36 671,-36 671,0 933,0 933,-36"/>
<text text-anchor="middle" x="802" y="-14.3" font-family="Times,serif" font-size="14.00" fill="#000000">SMPyBandits.configuration_all_singleplayer</text>
</g>
<!-- 4 -->
<g id="node5" class="node">
<title>4</title>
<polygon fill="none" stroke="#000000" points="1321,-36 951,-36 951,0 1321,0 1321,-36"/>
<text text-anchor="middle" x="1136" y="-14.3" font-family="Times,serif" font-size="14.00" fill="#000000">SMPyBandits.configuration_comparing_aggregation_algorithms</text>
</g>
<!-- 5 -->
<g id="node6" class="node">
<title>5</title>
<polygon fill="none" stroke="#000000" points="1693,-36 1339,-36 1339,0 1693,0 1693,-36"/>
<text text-anchor="middle" x="1516" y="-14.3" font-family="Times,serif" font-size="14.00" fill="#000000">SMPyBandits.configuration_comparing_doubling_algorithms</text>
</g>
<!-- 6 -->
<g id="node7" class="node">
<title>6</title>
<polygon fill="none" stroke="#000000" points="1945,-36 1711,-36 1711,0 1945,0 1945,-36"/>
<text text-anchor="middle" x="1828" y="-14.3" font-family="Times,serif" font-size="14.00" fill="#000000">SMPyBandits.configuration_markovian</text>
</g>
<!-- 7 -->
<g id="node8" class="node">
<title>7</title>
<polygon fill="none" stroke="#000000" points="2207,-36 1963,-36 1963,0 2207,0 2207,-36"/>
<text text-anchor="middle" x="2085" y="-14.3" font-family="Times,serif" font-size="14.00" fill="#000000">SMPyBandits.configuration_multiplayers</text>
</g>
<!-- 8 -->
<g id="node9" class="node">
<title>8</title>
<polygon fill="none" stroke="#000000" points="2549,-36 2225,-36 2225,0 2549,0 2549,-36"/>
<text text-anchor="middle" x="2387" y="-14.3" font-family="Times,serif" font-size="14.00" fill="#000000">SMPyBandits.configuration_multiplayers_nonstationary</text>
</g>
<!-- 9 -->
<g id="node10" class="node">
<title>9</title>
<polygon fill="none" stroke="#000000" points="2912.5,-36 2567.5,-36 2567.5,0 2912.5,0 2912.5,-36"/>
<text text-anchor="middle" x="2740" y="-14.3" font-family="Times,serif" font-size="14.00" fill="#000000">SMPyBandits.configuration_multiplayers_with_aggregation</text>
</g>
<!-- 10 -->
<g id="node11" class="node">
<title>10</title>
<polygon fill="none" stroke="#000000" points="3179.5,-36 2930.5,-36 2930.5,0 3179.5,0 3179.5,-36"/>
<text text-anchor="middle" x="3055" y="-14.3" font-family="Times,serif" font-size="14.00" fill="#000000">SMPyBandits.configuration_nonstationary</text>
</g>
<!-- 11 -->
<g id="node12" class="node">
<title>11</title>
<polygon fill="none" stroke="#000000" points="3406.5,-36 3197.5,-36 3197.5,0 3406.5,0 3406.5,-36"/>
<text text-anchor="middle" x="3302" y="-14.3" font-family="Times,serif" font-size="14.00" fill="#000000">SMPyBandits.configuration_sparse</text>
</g>
<!-- 12 -->
<g id="node13" class="node">
<title>12</title>
<polygon fill="none" stroke="#000000" points="3686,-108 3402,-108 3402,-72 3686,-72 3686,-108"/>
<text text-anchor="middle" x="3544" y="-86.3" font-family="Times,serif" font-size="14.00" fill="#000000">SMPyBandits.configuration_sparse_multiplayers</text>
</g>
<!-- 13 -->
<g id="node14" class="node">
<title>13</title>
<polygon fill="none" stroke="#000000" points="3834,-36 3682,-36 3682,0 3834,0 3834,-36"/>
<text text-anchor="middle" x="3758" y="-14.3" font-family="Times,serif" font-size="14.00" fill="#000000">SMPyBandits.env_client</text>
</g>
<!-- 14 -->
<g id="node15" class="node">
<title>14</title>
<polygon fill="none" stroke="#000000" points="4162.5,-108 3847.5,-108 3847.5,-72 4162.5,-72 4162.5,-108"/>
<text text-anchor="middle" x="4005" y="-86.3" font-family="Times,serif" font-size="14.00" fill="#000000">SMPyBandits.example_of_configuration_multiplayers</text>
</g>
<!-- 15 -->
<g id="node16" class="node">
<title>15</title>
<polygon fill="none" stroke="#000000" points="4488.5,-36 4175.5,-36 4175.5,0 4488.5,0 4488.5,-36"/>
<text text-anchor="middle" x="4332" y="-14.3" font-family="Times,serif" font-size="14.00" fill="#000000">SMPyBandits.example_of_configuration_singleplayer</text>
</g>
<!-- 16 -->
<g id="node17" class="node">
<title>16</title>
<polygon fill="none" stroke="#000000" points="4157.5,-36 3852.5,-36 3852.5,0 4157.5,0 4157.5,-36"/>
<text text-anchor="middle" x="4005" y="-14.3" font-family="Times,serif" font-size="14.00" fill="#000000">SMPyBandits.example_of_main_multiplayers_more</text>
</g>
<!-- 16&#45;&gt;14 -->
<g id="edge2" class="edge">
<title>16&#45;&gt;14</title>
<path fill="none" stroke="#000000" d="M4005,-36.1686C4005,-43.869 4005,-53.0257 4005,-61.5834"/>
<polygon fill="#000000" stroke="#000000" points="4005,-71.5867 4000.5001,-61.5867 4005,-66.5867 4005.0001,-61.5867 4005.0001,-61.5867 4005.0001,-61.5867 4005,-66.5867 4009.5001,-61.5868 4005,-71.5867 4005,-71.5867"/>
</g>
<!-- 17 -->
<g id="node18" class="node">
<title>17</title>
<polygon fill="none" stroke="#000000" points="4775,-36 4507,-36 4507,0 4775,0 4775,-36"/>
<text text-anchor="middle" x="4641" y="-14.3" font-family="Times,serif" font-size="14.00" fill="#000000">SMPyBandits.example_of_main_singleplayer</text>
</g>
<!-- 24 -->
<g id="node25" class="node">
<title>24</title>
<polygon fill="none" stroke="#000000" points="4762.5,-108 4519.5,-108 4519.5,-72 4762.5,-72 4762.5,-108"/>
<text text-anchor="middle" x="4641" y="-86.3" font-family="Times,serif" font-size="14.00" fill="#000000">SMPyBandits.very_simple_configuration</text>
</g>
<!-- 17&#45;&gt;24 -->
<g id="edge3" class="edge">
<title>17&#45;&gt;24</title>
<path fill="none" stroke="#000000" d="M4641,-36.1686C4641,-43.869 4641,-53.0257 4641,-61.5834"/>
<polygon fill="#000000" stroke="#000000" points="4641,-71.5867 4636.5001,-61.5867 4641,-66.5867 4641.0001,-61.5867 4641.0001,-61.5867 4641.0001,-61.5867 4641,-66.5867 4645.5001,-61.5868 4641,-71.5867 4641,-71.5867"/>
</g>
<!-- 18 -->
<g id="node19" class="node">
<title>18</title>
<polygon fill="none" stroke="#000000" points="4917,-36 4793,-36 4793,0 4917,0 4917,-36"/>
<text text-anchor="middle" x="4855" y="-14.3" font-family="Times,serif" font-size="14.00" fill="#000000">SMPyBandits.main</text>
</g>
<!-- 23 -->
<g id="node24" class="node">
<title>23</title>
<polygon fill="none" stroke="#000000" points="5189.5,-108 4880.5,-108 4880.5,-72 5189.5,-72 5189.5,-108"/>
<text text-anchor="middle" x="5035" y="-86.3" font-family="Times,serif" font-size="14.00" fill="#000000">SMPyBandits.save_configuration_for_reproducibility</text>
</g>
<!-- 18&#45;&gt;23 -->
<g id="edge4" class="edge">
<title>18&#45;&gt;23</title>
<path fill="none" stroke="#000000" d="M4900.4216,-36.1686C4924.7095,-45.8838 4954.7922,-57.9169 4980.352,-68.1408"/>
<polygon fill="#000000" stroke="#000000" points="4989.905,-71.962 4978.949,-72.4262 4985.2626,-70.105 4980.6202,-68.248 4980.6202,-68.248 4980.6202,-68.248 4985.2626,-70.105 4982.2915,-64.0699 4989.905,-71.962 4989.905,-71.962"/>
</g>
<!-- 19 -->
<g id="node20" class="node">
<title>19</title>
<polygon fill="none" stroke="#000000" points="5134.5,-36 4935.5,-36 4935.5,0 5134.5,0 5134.5,-36"/>
<text text-anchor="middle" x="5035" y="-14.3" font-family="Times,serif" font-size="14.00" fill="#000000">SMPyBandits.main_multiplayers</text>
</g>
<!-- 19&#45;&gt;23 -->
<g id="edge5" class="edge">
<title>19&#45;&gt;23</title>
<path fill="none" stroke="#000000" d="M5035,-36.1686C5035,-43.869 5035,-53.0257 5035,-61.5834"/>
<polygon fill="#000000" stroke="#000000" points="5035,-71.5867 5030.5001,-61.5867 5035,-66.5867 5035.0001,-61.5867 5035.0001,-61.5867 5035.0001,-61.5867 5035,-66.5867 5039.5001,-61.5868 5035,-71.5867 5035,-71.5867"/>
</g>
<!-- 20 -->
<g id="node21" class="node">
<title>20</title>
<polygon fill="none" stroke="#000000" points="5387,-36 5153,-36 5153,0 5387,0 5387,-36"/>
<text text-anchor="middle" x="5270" y="-14.3" font-family="Times,serif" font-size="14.00" fill="#000000">SMPyBandits.main_multiplayers_more</text>
</g>
<!-- 20&#45;&gt;23 -->
<g id="edge6" class="edge">
<title>20&#45;&gt;23</title>
<path fill="none" stroke="#000000" d="M5211.0029,-36.0757C5178.458,-46.0469 5137.8739,-58.4812 5103.8811,-68.896"/>
<polygon fill="#000000" stroke="#000000" points="5094.0214,-71.9169 5102.2644,-64.6848 5098.802,-70.4521 5103.5827,-68.9874 5103.5827,-68.9874 5103.5827,-68.9874 5098.802,-70.4521 5104.9009,-73.29 5094.0214,-71.9169 5094.0214,-71.9169"/>
</g>
<!-- 21 -->
<g id="node22" class="node">
<title>21</title>
<polygon fill="none" stroke="#000000" points="3663.5,-36 3424.5,-36 3424.5,0 3663.5,0 3663.5,-36"/>
<text text-anchor="middle" x="3544" y="-14.3" font-family="Times,serif" font-size="14.00" fill="#000000">SMPyBandits.main_sparse_multiplayers</text>
</g>
<!-- 21&#45;&gt;12 -->
<g id="edge7" class="edge">
<title>21&#45;&gt;12</title>
<path fill="none" stroke="#000000" d="M3544,-36.1686C3544,-43.869 3544,-53.0257 3544,-61.5834"/>
<polygon fill="#000000" stroke="#000000" points="3544,-71.5867 3539.5001,-61.5867 3544,-66.5867 3544.0001,-61.5867 3544.0001,-61.5867 3544.0001,-61.5867 3544,-66.5867 3548.5001,-61.5868 3544,-71.5867 3544,-71.5867"/>
</g>
<!-- 22 -->
<g id="node23" class="node">
<title>22</title>
<polygon fill="none" stroke="#000000" points="5575,-36 5405,-36 5405,0 5575,0 5575,-36"/>
<text text-anchor="middle" x="5490" y="-14.3" font-family="Times,serif" font-size="14.00" fill="#000000">SMPyBandits.policy_server</text>
</g>
</g>
</svg>
