<?xml version="1.0" encoding="UTF-8" standalone="no"?>
<!DOCTYPE svg PUBLIC "-//W3C//DTD SVG 1.1//EN"
 "http://www.w3.org/Graphics/SVG/1.1/DTD/svg11.dtd">
<!-- Generated by graphviz version 2.38.0 (20140413.2041)
 -->
<!-- Title: packages_AlgoBandits Pages: 1 -->
<svg width="5572pt" height="548pt"
 viewBox="0.00 0.00 5572.00 548.00" xmlns="http://www.w3.org/2000/svg" xmlns:xlink="http://www.w3.org/1999/xlink">
<g id="graph0" class="graph" transform="scale(1 1) rotate(0) translate(4 544)">
<title>packages_AlgoBandits</title>
<polygon fill="white" stroke="none" points="-4,4 -4,-544 5568,-544 5568,4 -4,4"/>
<!-- 0 -->
<g id="node1" class="node"><title>0</title>
<polygon fill="none" stroke="black" points="244.5,-108 190.5,-108 190.5,-72 244.5,-72 244.5,-108"/>
<text text-anchor="middle" x="217.5" y="-86.3" font-family="Times,serif" font-size="14.00">Arms</text>
</g>
<!-- 2 -->
<g id="node3" class="node"><title>2</title>
<polygon fill="none" stroke="black" points="467.5,-180 365.5,-180 365.5,-144 467.5,-144 467.5,-180"/>
<text text-anchor="middle" x="416.5" y="-158.3" font-family="Times,serif" font-size="14.00">Arms.Bernoulli</text>
</g>
<!-- 0&#45;&gt;2 -->
<g id="edge1" class="edge"><title>0&#45;&gt;2</title>
<path fill="none" stroke="black" d="M244.753,-100.586C273.774,-110.795 320.587,-127.262 358.015,-140.427"/>
<polygon fill="black" stroke="black" points="367.804,-143.871 356.878,-144.798 363.087,-142.212 358.371,-140.552 358.371,-140.552 358.371,-140.552 363.087,-142.212 359.864,-136.307 367.804,-143.871 367.804,-143.871"/>
</g>
<!-- 3 -->
<g id="node4" class="node"><title>3</title>
<polygon fill="none" stroke="black" points="227.5,-180 111.5,-180 111.5,-144 227.5,-144 227.5,-180"/>
<text text-anchor="middle" x="169.5" y="-158.3" font-family="Times,serif" font-size="14.00">Arms.Exponential</text>
</g>
<!-- 0&#45;&gt;3 -->
<g id="edge2" class="edge"><title>0&#45;&gt;3</title>
<path fill="none" stroke="black" d="M205.635,-108.303C199.997,-116.526 193.146,-126.517 186.931,-135.579"/>
<polygon fill="black" stroke="black" points="181.229,-143.896 183.173,-133.103 184.056,-139.772 186.884,-135.648 186.884,-135.648 186.884,-135.648 184.056,-139.772 190.595,-138.193 181.229,-143.896 181.229,-143.896"/>
</g>
<!-- 4 -->
<g id="node5" class="node"><title>4</title>
<polygon fill="none" stroke="black" points="347,-180 246,-180 246,-144 347,-144 347,-180"/>
<text text-anchor="middle" x="296.5" y="-158.3" font-family="Times,serif" font-size="14.00">Arms.Gaussian</text>
</g>
<!-- 0&#45;&gt;4 -->
<g id="edge3" class="edge"><title>0&#45;&gt;4</title>
<path fill="none" stroke="black" d="M237.028,-108.303C246.882,-117.035 258.986,-127.76 269.696,-137.25"/>
<polygon fill="black" stroke="black" points="277.197,-143.896 266.728,-140.632 273.454,-140.58 269.712,-137.264 269.712,-137.264 269.712,-137.264 273.454,-140.58 272.696,-133.896 277.197,-143.896 277.197,-143.896"/>
</g>
<!-- 5 -->
<g id="node6" class="node"><title>5</title>
<polygon fill="none" stroke="black" points="93,-180 7.10543e-15,-180 7.10543e-15,-144 93,-144 93,-180"/>
<text text-anchor="middle" x="46.5" y="-158.3" font-family="Times,serif" font-size="14.00">Arms.Poisson</text>
</g>
<!-- 0&#45;&gt;5 -->
<g id="edge4" class="edge"><title>0&#45;&gt;5</title>
<path fill="none" stroke="black" d="M190.405,-102.092C165.591,-112.249 128.206,-127.553 97.7599,-140.016"/>
<polygon fill="black" stroke="black" points="88.1434,-143.953 95.6932,-136 92.7707,-142.059 97.398,-140.165 97.398,-140.165 97.398,-140.165 92.7707,-142.059 99.1028,-144.329 88.1434,-143.953 88.1434,-143.953"/>
</g>
<!-- 1 -->
<g id="node2" class="node"><title>1</title>
<polygon fill="none" stroke="black" points="102,-252 25,-252 25,-216 102,-216 102,-252"/>
<text text-anchor="middle" x="63.5" y="-230.3" font-family="Times,serif" font-size="14.00">Arms.Arm</text>
</g>
<!-- 2&#45;&gt;1 -->
<g id="edge5" class="edge"><title>2&#45;&gt;1</title>
<path fill="none" stroke="black" d="M365.36,-177.753C362.034,-178.558 358.726,-179.315 355.5,-180 251.412,-202.092 219.733,-190.319 112.039,-216.168"/>
<polygon fill="black" stroke="black" points="102.076,-218.614 110.715,-211.86 106.932,-217.422 111.788,-216.23 111.788,-216.23 111.788,-216.23 106.932,-217.422 112.86,-220.6 102.076,-218.614 102.076,-218.614"/>
</g>
<!-- 6 -->
<g id="node7" class="node"><title>6</title>
<polygon fill="none" stroke="black" points="218.5,-252 120.5,-252 120.5,-216 218.5,-216 218.5,-252"/>
<text text-anchor="middle" x="169.5" y="-230.3" font-family="Times,serif" font-size="14.00">Arms.kullback</text>
</g>
<!-- 2&#45;&gt;6 -->
<g id="edge6" class="edge"><title>2&#45;&gt;6</title>
<path fill="none" stroke="black" d="M365.321,-177.504C325.422,-188.811 269.974,-204.526 228.261,-216.347"/>
<polygon fill="black" stroke="black" points="218.509,-219.111 226.903,-212.055 223.32,-217.747 228.13,-216.384 228.13,-216.384 228.13,-216.384 223.32,-217.747 229.357,-220.714 218.509,-219.111 218.509,-219.111"/>
</g>
<!-- 3&#45;&gt;1 -->
<g id="edge7" class="edge"><title>3&#45;&gt;1</title>
<path fill="none" stroke="black" d="M143.569,-180.124C129.838,-189.192 112.794,-200.448 97.9639,-210.241"/>
<polygon fill="black" stroke="black" points="89.5302,-215.81 95.3951,-206.544 93.7025,-213.055 97.8749,-210.3 97.8749,-210.3 97.8749,-210.3 93.7025,-213.055 100.355,-214.055 89.5302,-215.81 89.5302,-215.81"/>
</g>
<!-- 3&#45;&gt;6 -->
<g id="edge8" class="edge"><title>3&#45;&gt;6</title>
<path fill="none" stroke="black" d="M169.5,-180.303C169.5,-188.017 169.5,-197.288 169.5,-205.888"/>
<polygon fill="black" stroke="black" points="169.5,-215.896 165,-205.896 169.5,-210.896 169.5,-205.896 169.5,-205.896 169.5,-205.896 169.5,-210.896 174,-205.896 169.5,-215.896 169.5,-215.896"/>
</g>
<!-- 4&#45;&gt;1 -->
<g id="edge9" class="edge"><title>4&#45;&gt;1</title>
<path fill="none" stroke="black" d="M245.954,-177.398C200.649,-190.314 138.269,-208.128 111.843,-216.084"/>
<polygon fill="black" stroke="black" points="102.203,-219.063 110.429,-211.811 106.981,-217.587 111.758,-216.11 111.758,-216.11 111.758,-216.11 106.981,-217.587 113.086,-220.409 102.203,-219.063 102.203,-219.063"/>
</g>
<!-- 4&#45;&gt;6 -->
<g id="edge10" class="edge"><title>4&#45;&gt;6</title>
<path fill="none" stroke="black" d="M265.432,-180.124C248.673,-189.361 227.794,-200.869 209.798,-210.788"/>
<polygon fill="black" stroke="black" points="200.687,-215.81 207.273,-207.042 205.066,-213.397 209.445,-210.983 209.445,-210.983 209.445,-210.983 205.066,-213.397 211.617,-214.924 200.687,-215.81 200.687,-215.81"/>
</g>
<!-- 5&#45;&gt;1 -->
<g id="edge11" class="edge"><title>5&#45;&gt;1</title>
<path fill="none" stroke="black" d="M50.7022,-180.303C52.5962,-188.102 54.8765,-197.491 56.9843,-206.171"/>
<polygon fill="black" stroke="black" points="59.3461,-215.896 52.6131,-207.24 58.1661,-211.037 56.986,-206.178 56.986,-206.178 56.986,-206.178 58.1661,-211.037 61.3589,-205.116 59.3461,-215.896 59.3461,-215.896"/>
</g>
<!-- 5&#45;&gt;6 -->
<g id="edge12" class="edge"><title>5&#45;&gt;6</title>
<path fill="none" stroke="black" d="M76.5892,-180.124C92.8203,-189.361 113.042,-200.869 130.471,-210.788"/>
<polygon fill="black" stroke="black" points="139.295,-215.81 128.378,-214.775 134.95,-213.337 130.604,-210.864 130.604,-210.864 130.604,-210.864 134.95,-213.337 132.83,-206.953 139.295,-215.81 139.295,-215.81"/>
</g>
<!-- 7 -->
<g id="node8" class="node"><title>7</title>
<polygon fill="none" stroke="black" points="3173.5,-108 3085.5,-108 3085.5,-72 3173.5,-72 3173.5,-108"/>
<text text-anchor="middle" x="3129.5" y="-86.3" font-family="Times,serif" font-size="14.00">Environment</text>
</g>
<!-- 9 -->
<g id="node10" class="node"><title>9</title>
<polygon fill="none" stroke="black" points="3115.5,-180 2971.5,-180 2971.5,-144 3115.5,-144 3115.5,-180"/>
<text text-anchor="middle" x="3043.5" y="-158.3" font-family="Times,serif" font-size="14.00">Environment.Evaluator</text>
</g>
<!-- 7&#45;&gt;9 -->
<g id="edge13" class="edge"><title>7&#45;&gt;9</title>
<path fill="none" stroke="black" d="M3108.24,-108.303C3097.41,-117.119 3084.08,-127.968 3072.34,-137.526"/>
<polygon fill="black" stroke="black" points="3064.51,-143.896 3069.43,-134.093 3068.39,-140.739 3072.27,-137.583 3072.27,-137.583 3072.27,-137.583 3068.39,-140.739 3075.11,-141.073 3064.51,-143.896 3064.51,-143.896"/>
</g>
<!-- 10 -->
<g id="node11" class="node"><title>10</title>
<polygon fill="none" stroke="black" points="3517,-180 3302,-180 3302,-144 3517,-144 3517,-180"/>
<text text-anchor="middle" x="3409.5" y="-158.3" font-family="Times,serif" font-size="14.00">Environment.EvaluatorMultiPlayers</text>
</g>
<!-- 7&#45;&gt;10 -->
<g id="edge14" class="edge"><title>7&#45;&gt;10</title>
<path fill="none" stroke="black" d="M3173.67,-105.462C3176.65,-106.347 3179.61,-107.201 3182.5,-108 3227.37,-120.411 3277.74,-132.37 3319.62,-141.776"/>
<polygon fill="black" stroke="black" points="3329.52,-143.988 3318.78,-146.199 3324.64,-142.898 3319.76,-141.808 3319.76,-141.808 3319.76,-141.808 3324.64,-142.898 3320.74,-137.416 3329.52,-143.988 3329.52,-143.988"/>
</g>
<!-- 11 -->
<g id="node12" class="node"><title>11</title>
<polygon fill="none" stroke="black" points="3297,-252 3174,-252 3174,-216 3297,-216 3297,-252"/>
<text text-anchor="middle" x="3235.5" y="-230.3" font-family="Times,serif" font-size="14.00">Environment.MAB</text>
</g>
<!-- 7&#45;&gt;11 -->
<g id="edge15" class="edge"><title>7&#45;&gt;11</title>
<path fill="none" stroke="black" d="M3142.29,-108.129C3160.75,-132.863 3195.01,-178.758 3216.46,-207.488"/>
<polygon fill="black" stroke="black" points="3222.67,-215.811 3213.08,-210.489 3219.68,-211.804 3216.69,-207.797 3216.69,-207.797 3216.69,-207.797 3219.68,-211.804 3220.29,-205.105 3222.67,-215.811 3222.67,-215.811"/>
</g>
<!-- 12 -->
<g id="node13" class="node"><title>12</title>
<polygon fill="none" stroke="black" points="3155.5,-252 3029.5,-252 3029.5,-216 3155.5,-216 3155.5,-252"/>
<text text-anchor="middle" x="3092.5" y="-230.3" font-family="Times,serif" font-size="14.00">Environment.Result</text>
</g>
<!-- 7&#45;&gt;12 -->
<g id="edge16" class="edge"><title>7&#45;&gt;12</title>
<path fill="none" stroke="black" d="M3130.95,-108.161C3131.94,-126.407 3131.95,-155.899 3124.5,-180 3121.56,-189.503 3116.57,-199.06 3111.39,-207.391"/>
<polygon fill="black" stroke="black" points="3105.78,-215.889 3107.53,-205.064 3108.54,-211.716 3111.29,-207.542 3111.29,-207.542 3111.29,-207.542 3108.54,-211.716 3115.05,-210.02 3105.78,-215.889 3105.78,-215.889"/>
</g>
<!-- 8 -->
<g id="node9" class="node"><title>8</title>
<polygon fill="none" stroke="black" points="3497.5,-252 3315.5,-252 3315.5,-216 3497.5,-216 3497.5,-252"/>
<text text-anchor="middle" x="3406.5" y="-230.3" font-family="Times,serif" font-size="14.00">Environment.CollisionModels</text>
</g>
<!-- 9&#45;&gt;11 -->
<g id="edge17" class="edge"><title>9&#45;&gt;11</title>
<path fill="none" stroke="black" d="M3090.47,-180.124C3117.18,-189.863 3150.82,-202.128 3178.97,-212.392"/>
<polygon fill="black" stroke="black" points="3188.68,-215.932 3177.75,-216.734 3183.99,-214.219 3179.29,-212.506 3179.29,-212.506 3179.29,-212.506 3183.99,-214.219 3180.83,-208.279 3188.68,-215.932 3188.68,-215.932"/>
</g>
<!-- 9&#45;&gt;12 -->
<g id="edge18" class="edge"><title>9&#45;&gt;12</title>
<path fill="none" stroke="black" d="M3055.61,-180.303C3061.37,-188.526 3068.36,-198.517 3074.71,-207.579"/>
<polygon fill="black" stroke="black" points="3080.53,-215.896 3071.11,-210.284 3077.66,-211.799 3074.79,-207.703 3074.79,-207.703 3074.79,-207.703 3077.66,-211.799 3078.48,-205.123 3080.53,-215.896 3080.53,-215.896"/>
</g>
<!-- 14 -->
<g id="node15" class="node"><title>14</title>
<polygon fill="none" stroke="black" points="3312.5,-324 3158.5,-324 3158.5,-288 3312.5,-288 3312.5,-324"/>
<text text-anchor="middle" x="3235.5" y="-302.3" font-family="Times,serif" font-size="14.00">Environment.plotsettings</text>
</g>
<!-- 9&#45;&gt;14 -->
<g id="edge19" class="edge"><title>9&#45;&gt;14</title>
<path fill="none" stroke="black" d="M3031.13,-180.184C3018.86,-199.538 3004.06,-231.02 3020.5,-252 3036.59,-272.541 3096.07,-286.2 3148.4,-294.501"/>
<polygon fill="black" stroke="black" points="3158.42,-296.039 3147.85,-298.968 3153.48,-295.28 3148.54,-294.521 3148.54,-294.521 3148.54,-294.521 3153.48,-295.28 3149.22,-290.073 3158.42,-296.039 3158.42,-296.039"/>
</g>
<!-- 10&#45;&gt;8 -->
<g id="edge20" class="edge"><title>10&#45;&gt;8</title>
<path fill="none" stroke="black" d="M3408.76,-180.303C3408.43,-188.017 3408.03,-197.288 3407.66,-205.888"/>
<polygon fill="black" stroke="black" points="3407.23,-215.896 3403.17,-205.712 3407.45,-210.9 3407.66,-205.905 3407.66,-205.905 3407.66,-205.905 3407.45,-210.9 3412.16,-206.098 3407.23,-215.896 3407.23,-215.896"/>
</g>
<!-- 10&#45;&gt;11 -->
<g id="edge21" class="edge"><title>10&#45;&gt;11</title>
<path fill="none" stroke="black" d="M3366.93,-180.124C3342.94,-189.778 3312.77,-201.913 3287.4,-212.122"/>
<polygon fill="black" stroke="black" points="3277.93,-215.932 3285.52,-208.025 3282.57,-214.066 3287.2,-212.199 3287.2,-212.199 3287.2,-212.199 3282.57,-214.066 3288.88,-216.374 3277.93,-215.932 3277.93,-215.932"/>
</g>
<!-- 13 -->
<g id="node14" class="node"><title>13</title>
<polygon fill="none" stroke="black" points="3751,-252 3554,-252 3554,-216 3751,-216 3751,-252"/>
<text text-anchor="middle" x="3652.5" y="-230.3" font-family="Times,serif" font-size="14.00">Environment.ResultMultiPlayers</text>
</g>
<!-- 10&#45;&gt;13 -->
<g id="edge22" class="edge"><title>10&#45;&gt;13</title>
<path fill="none" stroke="black" d="M3468.63,-180.034C3503.18,-189.985 3546.95,-202.594 3583.12,-213.013"/>
<polygon fill="black" stroke="black" points="3593.1,-215.889 3582.25,-217.445 3588.3,-214.505 3583.49,-213.121 3583.49,-213.121 3583.49,-213.121 3588.3,-214.505 3584.74,-208.797 3593.1,-215.889 3593.1,-215.889"/>
</g>
<!-- 10&#45;&gt;14 -->
<g id="edge23" class="edge"><title>10&#45;&gt;14</title>
<path fill="none" stroke="black" d="M3463.52,-180.038C3480.27,-188.149 3496.86,-199.742 3506.5,-216 3514.66,-229.761 3516.67,-239.648 3506.5,-252 3483.45,-279.999 3392.97,-293.415 3322.83,-299.706"/>
<polygon fill="black" stroke="black" points="3312.64,-300.583 3322.22,-295.242 3317.62,-300.155 3322.6,-299.726 3322.6,-299.726 3322.6,-299.726 3317.62,-300.155 3322.99,-304.209 3312.64,-300.583 3312.64,-300.583"/>
</g>
<!-- 11&#45;&gt;14 -->
<g id="edge24" class="edge"><title>11&#45;&gt;14</title>
<path fill="none" stroke="black" d="M3235.5,-252.303C3235.5,-260.017 3235.5,-269.288 3235.5,-277.888"/>
<polygon fill="black" stroke="black" points="3235.5,-287.896 3231,-277.896 3235.5,-282.896 3235.5,-277.896 3235.5,-277.896 3235.5,-277.896 3235.5,-282.896 3240,-277.896 3235.5,-287.896 3235.5,-287.896"/>
</g>
<!-- 15 -->
<g id="node16" class="node"><title>15</title>
<polygon fill="none" stroke="black" points="1559,-180 1500,-180 1500,-144 1559,-144 1559,-180"/>
<text text-anchor="middle" x="1529.5" y="-158.3" font-family="Times,serif" font-size="14.00">Policies</text>
</g>
<!-- 16 -->
<g id="node17" class="node"><title>16</title>
<polygon fill="none" stroke="black" points="1736,-324 1615,-324 1615,-288 1736,-288 1736,-324"/>
<text text-anchor="middle" x="1675.5" y="-302.3" font-family="Times,serif" font-size="14.00">Policies.AdBandits</text>
</g>
<!-- 15&#45;&gt;16 -->
<g id="edge25" class="edge"><title>15&#45;&gt;16</title>
<path fill="none" stroke="black" d="M1555.26,-180.071C1569.25,-189.866 1586.51,-202.811 1600.5,-216 1621.54,-235.832 1642.49,-261.299 1656.88,-279.905"/>
<polygon fill="black" stroke="black" points="1663,-287.927 1653.36,-282.711 1659.97,-283.953 1656.93,-279.979 1656.93,-279.979 1656.93,-279.979 1659.97,-283.953 1660.51,-277.248 1663,-287.927 1663,-287.927"/>
</g>
<!-- 17 -->
<g id="node18" class="node"><title>17</title>
<polygon fill="none" stroke="black" points="2105,-468 2014,-468 2014,-432 2105,-432 2105,-468"/>
<text text-anchor="middle" x="2059.5" y="-446.3" font-family="Times,serif" font-size="14.00">Policies.Aggr</text>
</g>
<!-- 15&#45;&gt;17 -->
<g id="edge26" class="edge"><title>15&#45;&gt;17</title>
<path fill="none" stroke="black" d="M1559.13,-163.434C1671.94,-165.388 2070.23,-175.153 2107.5,-216 2160.85,-274.469 2107.42,-375.978 2077.19,-423.317"/>
<polygon fill="black" stroke="black" points="2071.67,-431.769 2073.37,-420.936 2074.4,-427.583 2077.14,-423.397 2077.14,-423.397 2077.14,-423.397 2074.4,-427.583 2080.9,-425.858 2071.67,-431.769 2071.67,-431.769"/>
</g>
<!-- 19 -->
<g id="node20" class="node"><title>19</title>
<polygon fill="none" stroke="black" points="1342.5,-252 1218.5,-252 1218.5,-216 1342.5,-216 1342.5,-252"/>
<text text-anchor="middle" x="1280.5" y="-230.3" font-family="Times,serif" font-size="14.00">Policies.BayesUCB</text>
</g>
<!-- 15&#45;&gt;19 -->
<g id="edge27" class="edge"><title>15&#45;&gt;19</title>
<path fill="none" stroke="black" d="M1499.96,-171.305C1463.49,-181.558 1400.24,-199.337 1350.99,-213.184"/>
<polygon fill="black" stroke="black" points="1341.34,-215.897 1349.75,-208.859 1346.15,-214.544 1350.96,-213.191 1350.96,-213.191 1350.96,-213.191 1346.15,-214.544 1352.18,-217.523 1341.34,-215.897 1341.34,-215.897"/>
</g>
<!-- 22 -->
<g id="node23" class="node"><title>22</title>
<polygon fill="none" stroke="black" points="2506,-252 2341,-252 2341,-216 2506,-216 2506,-252"/>
<text text-anchor="middle" x="2423.5" y="-230.3" font-family="Times,serif" font-size="14.00">Policies.EpsilonDecreasing</text>
</g>
<!-- 15&#45;&gt;22 -->
<g id="edge28" class="edge"><title>15&#45;&gt;22</title>
<path fill="none" stroke="black" d="M1559.28,-163.83C1664.49,-167.007 2028.43,-180.074 2326.5,-216 2327.81,-216.158 2329.13,-216.322 2330.46,-216.492"/>
<polygon fill="black" stroke="black" points="2340.77,-217.891 2330.26,-221.005 2335.82,-217.219 2330.86,-216.546 2330.86,-216.546 2330.86,-216.546 2335.82,-217.219 2331.47,-212.087 2340.77,-217.891 2340.77,-217.891"/>
</g>
<!-- 23 -->
<g id="node24" class="node"><title>23</title>
<polygon fill="none" stroke="black" points="2730.5,-252 2524.5,-252 2524.5,-216 2730.5,-216 2730.5,-252"/>
<text text-anchor="middle" x="2627.5" y="-230.3" font-family="Times,serif" font-size="14.00">Policies.EpsilonDecreasingMEGA</text>
</g>
<!-- 15&#45;&gt;23 -->
<g id="edge29" class="edge"><title>15&#45;&gt;23</title>
<path fill="none" stroke="black" d="M1559.4,-163.567C1678.5,-166.042 2130.78,-177.519 2514.22,-216.043"/>
<polygon fill="black" stroke="black" points="2524.4,-217.074 2514,-220.544 2519.42,-216.57 2514.45,-216.066 2514.45,-216.066 2514.45,-216.066 2519.42,-216.57 2514.9,-211.589 2524.4,-217.074 2524.4,-217.074"/>
</g>
<!-- 24 -->
<g id="node25" class="node"><title>24</title>
<polygon fill="none" stroke="black" points="2936,-252 2749,-252 2749,-216 2936,-216 2936,-252"/>
<text text-anchor="middle" x="2842.5" y="-230.3" font-family="Times,serif" font-size="14.00">Policies.EpsilonExpDecreasing</text>
</g>
<!-- 15&#45;&gt;24 -->
<g id="edge30" class="edge"><title>15&#45;&gt;24</title>
<path fill="none" stroke="black" d="M1559.08,-162.992C1693.73,-163.225 2262.37,-167.146 2738.64,-215.997"/>
<polygon fill="black" stroke="black" points="2748.82,-217.049 2738.41,-220.496 2743.84,-216.534 2738.87,-216.02 2738.87,-216.02 2738.87,-216.02 2743.84,-216.534 2739.33,-211.544 2748.82,-217.049 2748.82,-217.049"/>
</g>
<!-- 25 -->
<g id="node26" class="node"><title>25</title>
<polygon fill="none" stroke="black" points="2284,-252 2155,-252 2155,-216 2284,-216 2284,-252"/>
<text text-anchor="middle" x="2219.5" y="-230.3" font-family="Times,serif" font-size="14.00">Policies.EpsilonFirst</text>
</g>
<!-- 15&#45;&gt;25 -->
<g id="edge31" class="edge"><title>15&#45;&gt;25</title>
<path fill="none" stroke="black" d="M1559.22,-164.255C1647.96,-168.285 1918.6,-182.635 2140.5,-216 2141.97,-216.222 2143.46,-216.454 2144.96,-216.696"/>
<polygon fill="black" stroke="black" points="2154.95,-218.42 2144.33,-221.154 2150.02,-217.57 2145.1,-216.72 2145.1,-216.72 2145.1,-216.72 2150.02,-217.57 2145.86,-212.285 2154.95,-218.42 2154.95,-218.42"/>
</g>
<!-- 26 -->
<g id="node27" class="node"><title>26</title>
<polygon fill="none" stroke="black" points="2439.5,-324 2295.5,-324 2295.5,-288 2439.5,-288 2439.5,-324"/>
<text text-anchor="middle" x="2367.5" y="-302.3" font-family="Times,serif" font-size="14.00">Policies.EpsilonGreedy</text>
</g>
<!-- 15&#45;&gt;26 -->
<g id="edge32" class="edge"><title>15&#45;&gt;26</title>
<path fill="none" stroke="black" d="M1559.18,-163.699C1691.75,-167.004 2226.2,-182.327 2292.5,-216 2306.86,-223.294 2332.42,-256.018 2349.66,-279.671"/>
<polygon fill="black" stroke="black" points="2355.6,-287.911 2346.1,-282.43 2352.68,-283.855 2349.75,-279.799 2349.75,-279.799 2349.75,-279.799 2352.68,-283.855 2353.41,-277.167 2355.6,-287.911 2355.6,-287.911"/>
</g>
<!-- 27 -->
<g id="node28" class="node"><title>27</title>
<polygon fill="none" stroke="black" points="2655.5,-396 2563.5,-396 2563.5,-360 2655.5,-360 2655.5,-396"/>
<text text-anchor="middle" x="2609.5" y="-374.3" font-family="Times,serif" font-size="14.00">Policies.Exp3</text>
</g>
<!-- 15&#45;&gt;27 -->
<g id="edge33" class="edge"><title>15&#45;&gt;27</title>
<path fill="none" stroke="black" d="M1559.22,-162.959C1758.55,-162.823 2894.72,-164.323 2944.5,-216 3033.36,-308.255 2782.98,-354.243 2666.04,-370.246"/>
<polygon fill="black" stroke="black" points="2655.83,-371.613 2665.15,-365.826 2660.79,-370.95 2665.74,-370.286 2665.74,-370.286 2665.74,-370.286 2660.79,-370.95 2666.34,-374.746 2655.83,-371.613 2655.83,-371.613"/>
</g>
<!-- 30 -->
<g id="node31" class="node"><title>30</title>
<polygon fill="none" stroke="black" points="1487.5,-468 1383.5,-468 1383.5,-432 1487.5,-432 1487.5,-468"/>
<text text-anchor="middle" x="1435.5" y="-446.3" font-family="Times,serif" font-size="14.00">Policies.MEGA</text>
</g>
<!-- 15&#45;&gt;30 -->
<g id="edge34" class="edge"><title>15&#45;&gt;30</title>
<path fill="none" stroke="black" d="M1526.55,-180.219C1521.19,-210.003 1508.82,-272.86 1491.5,-324 1479.65,-358.996 1461.56,-397.557 1449.16,-422.465"/>
<polygon fill="black" stroke="black" points="1444.56,-431.622 1445.03,-420.666 1446.8,-427.155 1449.05,-422.689 1449.05,-422.689 1449.05,-422.689 1446.8,-427.155 1453.07,-424.711 1444.56,-431.622 1444.56,-431.622"/>
</g>
<!-- 31 -->
<g id="node32" class="node"><title>31</title>
<polygon fill="none" stroke="black" points="1017,-396 916,-396 916,-360 1017,-360 1017,-396"/>
<text text-anchor="middle" x="966.5" y="-374.3" font-family="Times,serif" font-size="14.00">Policies.MOSS</text>
</g>
<!-- 15&#45;&gt;31 -->
<g id="edge35" class="edge"><title>15&#45;&gt;31</title>
<path fill="none" stroke="black" d="M1499.81,-163.099C1377.67,-163.811 918.313,-169.577 875.5,-216 824.133,-271.699 941.85,-282.025 946.5,-288 960.141,-305.529 964.838,-330.565 966.297,-349.621"/>
<polygon fill="black" stroke="black" points="966.818,-359.777 961.812,-350.02 966.562,-354.783 966.306,-349.79 966.306,-349.79 966.306,-349.79 966.562,-354.783 970.8,-349.559 966.818,-359.777 966.818,-359.777"/>
</g>
<!-- 32 -->
<g id="node33" class="node"><title>32</title>
<polygon fill="none" stroke="black" points="1643,-468 1506,-468 1506,-432 1643,-432 1643,-468"/>
<text text-anchor="middle" x="1574.5" y="-446.3" font-family="Times,serif" font-size="14.00">Policies.MusicalChair</text>
</g>
<!-- 15&#45;&gt;32 -->
<g id="edge36" class="edge"><title>15&#45;&gt;32</title>
<path fill="none" stroke="black" d="M1532.18,-180.034C1539.7,-227.808 1561.03,-363.377 1570.21,-421.734"/>
<polygon fill="black" stroke="black" points="1571.78,-431.694 1565.78,-422.515 1571,-426.754 1570.22,-421.815 1570.22,-421.815 1570.22,-421.815 1571,-426.754 1574.67,-421.116 1571.78,-431.694 1571.78,-431.694"/>
</g>
<!-- 34 -->
<g id="node35" class="node"><title>34</title>
<polygon fill="none" stroke="black" points="1811.5,-396 1701.5,-396 1701.5,-360 1811.5,-360 1811.5,-396"/>
<text text-anchor="middle" x="1756.5" y="-374.3" font-family="Times,serif" font-size="14.00">Policies.Softmax</text>
</g>
<!-- 15&#45;&gt;34 -->
<g id="edge37" class="edge"><title>15&#45;&gt;34</title>
<path fill="none" stroke="black" d="M1541.31,-180.213C1547.99,-190.367 1556.24,-203.617 1562.5,-216 1585.8,-262.111 1568.22,-288.231 1605.5,-324 1612.24,-330.467 1653.57,-344.766 1691.29,-356.883"/>
<polygon fill="black" stroke="black" points="1701.28,-360.072 1690.39,-361.32 1696.52,-358.552 1691.76,-357.033 1691.76,-357.033 1691.76,-357.033 1696.52,-358.552 1693.12,-352.746 1701.28,-360.072 1701.28,-360.072"/>
</g>
<!-- 35 -->
<g id="node36" class="node"><title>35</title>
<polygon fill="none" stroke="black" points="1900.5,-324 1754.5,-324 1754.5,-288 1900.5,-288 1900.5,-324"/>
<text text-anchor="middle" x="1827.5" y="-302.3" font-family="Times,serif" font-size="14.00">Policies.TakeFixedArm</text>
</g>
<!-- 15&#45;&gt;35 -->
<g id="edge38" class="edge"><title>15&#45;&gt;35</title>
<path fill="none" stroke="black" d="M1559.14,-176.983C1579.83,-187.087 1607.88,-201.463 1631.5,-216 1654.82,-230.35 1657.29,-239.207 1681.5,-252 1706.02,-264.959 1734.41,-276.06 1759.6,-284.705"/>
<polygon fill="black" stroke="black" points="1769.08,-287.896 1758.17,-288.971 1764.34,-286.301 1759.6,-284.706 1759.6,-284.706 1759.6,-284.706 1764.34,-286.301 1761.04,-280.441 1769.08,-287.896 1769.08,-287.896"/>
</g>
<!-- 36 -->
<g id="node37" class="node"><title>36</title>
<polygon fill="none" stroke="black" points="1884,-252 1691,-252 1691,-216 1884,-216 1884,-252"/>
<text text-anchor="middle" x="1787.5" y="-230.3" font-family="Times,serif" font-size="14.00">Policies.TakeRandomFixedArm</text>
</g>
<!-- 15&#45;&gt;36 -->
<g id="edge39" class="edge"><title>15&#45;&gt;36</title>
<path fill="none" stroke="black" d="M1559.1,-171.03C1596.83,-181.269 1663.37,-199.322 1714.93,-213.311"/>
<polygon fill="black" stroke="black" points="1724.7,-215.962 1713.87,-217.686 1719.88,-214.653 1715.05,-213.344 1715.05,-213.344 1715.05,-213.344 1719.88,-214.653 1716.23,-209.001 1724.7,-215.962 1724.7,-215.962"/>
</g>
<!-- 37 -->
<g id="node38" class="node"><title>37</title>
<polygon fill="none" stroke="black" points="1482.5,-252 1360.5,-252 1360.5,-216 1482.5,-216 1482.5,-252"/>
<text text-anchor="middle" x="1421.5" y="-230.3" font-family="Times,serif" font-size="14.00">Policies.Thompson</text>
</g>
<!-- 15&#45;&gt;37 -->
<g id="edge40" class="edge"><title>15&#45;&gt;37</title>
<path fill="none" stroke="black" d="M1503.08,-180.124C1489.09,-189.192 1471.72,-200.448 1456.61,-210.241"/>
<polygon fill="black" stroke="black" points="1448.02,-215.81 1453.97,-206.595 1452.22,-213.091 1456.41,-210.371 1456.41,-210.371 1456.41,-210.371 1452.22,-213.091 1458.86,-214.147 1448.02,-215.81 1448.02,-215.81"/>
</g>
<!-- 38 -->
<g id="node39" class="node"><title>38</title>
<polygon fill="none" stroke="black" points="628,-396 537,-396 537,-360 628,-360 628,-396"/>
<text text-anchor="middle" x="582.5" y="-374.3" font-family="Times,serif" font-size="14.00">Policies.UCB</text>
</g>
<!-- 15&#45;&gt;38 -->
<g id="edge41" class="edge"><title>15&#45;&gt;38</title>
<path fill="none" stroke="black" d="M1499.92,-162.67C1343.91,-161.189 615.76,-157.571 399.5,-216 332.715,-234.044 297.361,-228.841 261.5,-288 253.206,-301.682 251.149,-311.8 261.5,-324 294.835,-363.29 443.697,-373.497 526.486,-376.119"/>
<polygon fill="black" stroke="black" points="536.732,-376.415 526.606,-380.624 531.734,-376.271 526.736,-376.126 526.736,-376.126 526.736,-376.126 531.734,-376.271 526.866,-371.628 536.732,-376.415 536.732,-376.415"/>
</g>
<!-- 39 -->
<g id="node40" class="node"><title>39</title>
<polygon fill="none" stroke="black" points="372,-324 271,-324 271,-288 372,-288 372,-324"/>
<text text-anchor="middle" x="321.5" y="-302.3" font-family="Times,serif" font-size="14.00">Policies.UCBV</text>
</g>
<!-- 15&#45;&gt;39 -->
<g id="edge42" class="edge"><title>15&#45;&gt;39</title>
<path fill="none" stroke="black" d="M1499.82,-162.681C1350.36,-161.352 679.385,-158.726 480.5,-216 432.496,-229.824 383.215,-260.458 352.498,-281.903"/>
<polygon fill="black" stroke="black" points="343.963,-287.96 349.514,-278.503 348.041,-285.067 352.118,-282.173 352.118,-282.173 352.118,-282.173 348.041,-285.067 354.723,-285.842 343.963,-287.96 343.963,-287.96"/>
</g>
<!-- 40 -->
<g id="node41" class="node"><title>40</title>
<polygon fill="none" stroke="black" points="621,-252 490,-252 490,-216 621,-216 621,-252"/>
<text text-anchor="middle" x="555.5" y="-230.3" font-family="Times,serif" font-size="14.00">Policies.UCBVtuned</text>
</g>
<!-- 15&#45;&gt;40 -->
<g id="edge43" class="edge"><title>15&#45;&gt;40</title>
<path fill="none" stroke="black" d="M1499.92,-163.81C1389.48,-167.044 990.957,-180.619 664.5,-216 653.712,-217.169 642.361,-218.653 631.223,-220.256"/>
<polygon fill="black" stroke="black" points="621.077,-221.756 630.312,-215.842 626.023,-221.025 630.97,-220.294 630.97,-220.294 630.97,-220.294 626.023,-221.025 631.628,-224.745 621.077,-221.756 621.077,-221.756"/>
</g>
<!-- 41 -->
<g id="node42" class="node"><title>41</title>
<polygon fill="none" stroke="black" points="510.5,-324 390.5,-324 390.5,-288 510.5,-288 510.5,-324"/>
<text text-anchor="middle" x="450.5" y="-302.3" font-family="Times,serif" font-size="14.00">Policies.UCBalpha</text>
</g>
<!-- 15&#45;&gt;41 -->
<g id="edge44" class="edge"><title>15&#45;&gt;41</title>
<path fill="none" stroke="black" d="M1499.64,-163.145C1369.34,-164.045 850.121,-170.476 694.5,-216 662.805,-225.272 659.958,-239.236 629.5,-252 609.575,-260.35 561.861,-274.376 520.703,-285.902"/>
<polygon fill="black" stroke="black" points="510.948,-288.622 519.372,-281.601 515.764,-287.279 520.581,-285.936 520.581,-285.936 520.581,-285.936 515.764,-287.279 521.789,-290.271 510.948,-288.622 510.948,-288.622"/>
</g>
<!-- 42 -->
<g id="node43" class="node"><title>42</title>
<polygon fill="none" stroke="black" points="636.5,-324 528.5,-324 528.5,-288 636.5,-288 636.5,-324"/>
<text text-anchor="middle" x="582.5" y="-302.3" font-family="Times,serif" font-size="14.00">Policies.UCBopt</text>
</g>
<!-- 15&#45;&gt;42 -->
<g id="edge45" class="edge"><title>15&#45;&gt;42</title>
<path fill="none" stroke="black" d="M1499.82,-163.67C1378.12,-166.637 917.122,-180.064 776.5,-216 761.132,-219.927 679.539,-258.414 627.182,-283.474"/>
<polygon fill="black" stroke="black" points="618.088,-287.832 625.161,-279.452 622.597,-285.671 627.106,-283.51 627.106,-283.51 627.106,-283.51 622.597,-285.671 629.051,-287.568 618.088,-287.832 618.088,-287.832"/>
</g>
<!-- 43 -->
<g id="node44" class="node"><title>43</title>
<polygon fill="none" stroke="black" points="938,-324 825,-324 825,-288 938,-288 938,-324"/>
<text text-anchor="middle" x="881.5" y="-302.3" font-family="Times,serif" font-size="14.00">Policies.UCBplus</text>
</g>
<!-- 15&#45;&gt;43 -->
<g id="edge46" class="edge"><title>15&#45;&gt;43</title>
<path fill="none" stroke="black" d="M1499.61,-162.977C1373.29,-163.184 887.706,-167.172 842.5,-216 825.678,-234.17 840.966,-260.761 857.074,-280.144"/>
<polygon fill="black" stroke="black" points="863.696,-287.704 853.722,-283.147 860.402,-283.943 857.107,-280.182 857.107,-280.182 857.107,-280.182 860.402,-283.943 860.492,-277.217 863.696,-287.704 863.696,-287.704"/>
</g>
<!-- 44 -->
<g id="node45" class="node"><title>44</title>
<polygon fill="none" stroke="black" points="806.5,-324 654.5,-324 654.5,-288 806.5,-288 806.5,-324"/>
<text text-anchor="middle" x="730.5" y="-302.3" font-family="Times,serif" font-size="14.00">Policies.UCBrandomInit</text>
</g>
<!-- 15&#45;&gt;44 -->
<g id="edge47" class="edge"><title>15&#45;&gt;44</title>
<path fill="none" stroke="black" d="M1499.68,-162.77C1382.61,-162.245 954.819,-163.999 831.5,-216 798.465,-229.93 768.755,-259.123 750.246,-280.285"/>
<polygon fill="black" stroke="black" points="743.718,-287.954 746.774,-277.423 746.959,-284.147 750.2,-280.34 750.2,-280.34 750.2,-280.34 746.959,-284.147 753.627,-283.257 743.718,-287.954 743.718,-287.954"/>
</g>
<!-- 45 -->
<g id="node46" class="node"><title>45</title>
<polygon fill="none" stroke="black" points="2028.5,-324 1918.5,-324 1918.5,-288 2028.5,-288 2028.5,-324"/>
<text text-anchor="middle" x="1973.5" y="-302.3" font-family="Times,serif" font-size="14.00">Policies.Uniform</text>
</g>
<!-- 15&#45;&gt;45 -->
<g id="edge48" class="edge"><title>15&#45;&gt;45</title>
<path fill="none" stroke="black" d="M1559,-164.751C1634.82,-169.651 1834.58,-185.202 1892.5,-216 1907.19,-223.809 1934.94,-256.334 1953.82,-279.809"/>
<polygon fill="black" stroke="black" points="1960.1,-287.679 1950.34,-282.664 1956.98,-283.769 1953.86,-279.859 1953.86,-279.859 1953.86,-279.859 1956.98,-283.769 1957.38,-277.055 1960.1,-287.679 1960.1,-287.679"/>
</g>
<!-- 46 -->
<g id="node47" class="node"><title>46</title>
<polygon fill="none" stroke="black" points="2098.5,-252 1940.5,-252 1940.5,-216 2098.5,-216 2098.5,-252"/>
<text text-anchor="middle" x="2019.5" y="-230.3" font-family="Times,serif" font-size="14.00">Policies.UniformOnSome</text>
</g>
<!-- 15&#45;&gt;46 -->
<g id="edge49" class="edge"><title>15&#45;&gt;46</title>
<path fill="none" stroke="black" d="M1559.45,-166.5C1625.74,-174.354 1789.82,-194.397 1926.5,-216 1927.78,-216.202 1929.06,-216.407 1930.36,-216.616"/>
<polygon fill="black" stroke="black" points="1940.4,-218.273 1929.8,-221.084 1935.46,-217.459 1930.53,-216.644 1930.53,-216.644 1930.53,-216.644 1935.46,-217.459 1931.26,-212.205 1940.4,-218.273 1940.4,-218.273"/>
</g>
<!-- 47 -->
<g id="node48" class="node"><title>47</title>
<polygon fill="none" stroke="black" points="1096,-324 995,-324 995,-288 1096,-288 1096,-324"/>
<text text-anchor="middle" x="1045.5" y="-302.3" font-family="Times,serif" font-size="14.00">Policies.klUCB</text>
</g>
<!-- 15&#45;&gt;47 -->
<g id="edge50" class="edge"><title>15&#45;&gt;47</title>
<path fill="none" stroke="black" d="M1499.84,-164.243C1401.29,-168.653 1089.22,-184.973 1057.5,-216 1041.44,-231.709 1039.66,-257.933 1041.17,-277.857"/>
<polygon fill="black" stroke="black" points="1042.24,-287.891 1036.7,-278.424 1041.71,-282.919 1041.18,-277.947 1041.18,-277.947 1041.18,-277.947 1041.71,-282.919 1045.65,-277.47 1042.24,-287.891 1042.24,-287.891"/>
</g>
<!-- 48 -->
<g id="node49" class="node"><title>48</title>
<polygon fill="none" stroke="black" points="1200.5,-252 1066.5,-252 1066.5,-216 1200.5,-216 1200.5,-252"/>
<text text-anchor="middle" x="1133.5" y="-230.3" font-family="Times,serif" font-size="14.00">Policies.klUCBHPlus</text>
</g>
<!-- 15&#45;&gt;48 -->
<g id="edge51" class="edge"><title>15&#45;&gt;48</title>
<path fill="none" stroke="black" d="M1499.84,-167.345C1444.83,-175.526 1323.06,-194.206 1210.42,-215.876"/>
<polygon fill="black" stroke="black" points="1200.59,-217.779 1209.56,-211.46 1205.5,-216.828 1210.41,-215.877 1210.41,-215.877 1210.41,-215.877 1205.5,-216.828 1211.27,-220.295 1200.59,-217.779 1200.59,-217.779"/>
</g>
<!-- 49 -->
<g id="node50" class="node"><title>49</title>
<polygon fill="none" stroke="black" points="1010,-252 885,-252 885,-216 1010,-216 1010,-252"/>
<text text-anchor="middle" x="947.5" y="-230.3" font-family="Times,serif" font-size="14.00">Policies.klUCBPlus</text>
</g>
<!-- 15&#45;&gt;49 -->
<g id="edge52" class="edge"><title>15&#45;&gt;49</title>
<path fill="none" stroke="black" d="M1499.75,-164.945C1421.52,-170.315 1203.75,-186.901 1024.5,-216 1023.02,-216.24 1021.53,-216.49 1020.03,-216.75"/>
<polygon fill="black" stroke="black" points="1010,-218.583 1019.03,-212.358 1014.92,-217.684 1019.84,-216.784 1019.84,-216.784 1019.84,-216.784 1014.92,-217.684 1020.65,-221.211 1010,-218.583 1010,-218.583"/>
</g>
<!-- 18 -->
<g id="node19" class="node"><title>18</title>
<polygon fill="none" stroke="black" points="1920.5,-540 1796.5,-540 1796.5,-504 1920.5,-504 1920.5,-540"/>
<text text-anchor="middle" x="1858.5" y="-518.3" font-family="Times,serif" font-size="14.00">Policies.BasePolicy</text>
</g>
<!-- 16&#45;&gt;18 -->
<g id="edge53" class="edge"><title>16&#45;&gt;18</title>
<path fill="none" stroke="black" d="M1736.34,-322.948C1770.57,-333.094 1808.76,-346.772 1820.5,-360 1853.68,-397.368 1859.31,-458.317 1859.51,-493.528"/>
<polygon fill="black" stroke="black" points="1859.43,-503.575 1855.01,-493.537 1859.47,-498.575 1859.51,-493.575 1859.51,-493.575 1859.51,-493.575 1859.47,-498.575 1864.01,-493.614 1859.43,-503.575 1859.43,-503.575"/>
</g>
<!-- 21 -->
<g id="node22" class="node"><title>21</title>
<polygon fill="none" stroke="black" points="1683.5,-396 1595.5,-396 1595.5,-360 1683.5,-360 1683.5,-396"/>
<text text-anchor="middle" x="1639.5" y="-374.3" font-family="Times,serif" font-size="14.00">Policies.Beta</text>
</g>
<!-- 16&#45;&gt;21 -->
<g id="edge54" class="edge"><title>16&#45;&gt;21</title>
<path fill="none" stroke="black" d="M1666.6,-324.303C1662.5,-332.272 1657.55,-341.9 1653.01,-350.736"/>
<polygon fill="black" stroke="black" points="1648.3,-359.896 1648.87,-348.945 1650.58,-355.449 1652.87,-351.003 1652.87,-351.003 1652.87,-351.003 1650.58,-355.449 1656.87,-353.061 1648.3,-359.896 1648.3,-359.896"/>
</g>
<!-- 17&#45;&gt;18 -->
<g id="edge55" class="edge"><title>17&#45;&gt;18</title>
<path fill="none" stroke="black" d="M2013.89,-466.884C1985.25,-476.857 1948.04,-489.818 1917.21,-500.555"/>
<polygon fill="black" stroke="black" points="1907.44,-503.956 1915.4,-496.417 1912.16,-502.311 1916.88,-500.667 1916.88,-500.667 1916.88,-500.667 1912.16,-502.311 1918.36,-504.917 1907.44,-503.956 1907.44,-503.956"/>
</g>
<!-- 20 -->
<g id="node21" class="node"><title>20</title>
<polygon fill="none" stroke="black" points="1482.5,-324 1304.5,-324 1304.5,-288 1482.5,-288 1482.5,-324"/>
<text text-anchor="middle" x="1393.5" y="-302.3" font-family="Times,serif" font-size="14.00">Policies.BayesianIndexPolicy</text>
</g>
<!-- 19&#45;&gt;20 -->
<g id="edge56" class="edge"><title>19&#45;&gt;20</title>
<path fill="none" stroke="black" d="M1308.14,-252.124C1322.92,-261.276 1341.29,-272.658 1357.2,-282.515"/>
<polygon fill="black" stroke="black" points="1365.75,-287.81 1354.88,-286.37 1361.5,-285.177 1357.25,-282.544 1357.25,-282.544 1357.25,-282.544 1361.5,-285.177 1359.62,-278.719 1365.75,-287.81 1365.75,-287.81"/>
</g>
<!-- 20&#45;&gt;21 -->
<g id="edge57" class="edge"><title>20&#45;&gt;21</title>
<path fill="none" stroke="black" d="M1453.36,-324.034C1493.57,-335.476 1546.14,-350.433 1585.15,-361.533"/>
<polygon fill="black" stroke="black" points="1595.26,-364.412 1584.41,-366.003 1590.45,-363.043 1585.64,-361.675 1585.64,-361.675 1585.64,-361.675 1590.45,-363.043 1586.87,-357.346 1595.26,-364.412 1595.26,-364.412"/>
</g>
<!-- 28 -->
<g id="node29" class="node"><title>28</title>
<polygon fill="none" stroke="black" points="1194.5,-468 1066.5,-468 1066.5,-432 1194.5,-432 1194.5,-468"/>
<text text-anchor="middle" x="1130.5" y="-446.3" font-family="Times,serif" font-size="14.00">Policies.IndexPolicy</text>
</g>
<!-- 20&#45;&gt;28 -->
<g id="edge58" class="edge"><title>20&#45;&gt;28</title>
<path fill="none" stroke="black" d="M1361.78,-324.129C1314.09,-349.876 1223.94,-398.552 1171.38,-426.928"/>
<polygon fill="black" stroke="black" points="1162.34,-431.811 1169,-423.1 1166.74,-429.435 1171.14,-427.06 1171.14,-427.06 1171.14,-427.06 1166.74,-429.435 1173.27,-431.019 1162.34,-431.811 1162.34,-431.811"/>
</g>
<!-- 33 -->
<g id="node34" class="node"><title>33</title>
<polygon fill="none" stroke="black" points="1773.5,-468 1661.5,-468 1661.5,-432 1773.5,-432 1773.5,-468"/>
<text text-anchor="middle" x="1717.5" y="-446.3" font-family="Times,serif" font-size="14.00">Policies.Posterior</text>
</g>
<!-- 21&#45;&gt;33 -->
<g id="edge59" class="edge"><title>21&#45;&gt;33</title>
<path fill="none" stroke="black" d="M1658.78,-396.303C1668.42,-404.95 1680.23,-415.551 1690.73,-424.973"/>
<polygon fill="black" stroke="black" points="1698.44,-431.896 1687.99,-428.566 1694.72,-428.556 1691,-425.217 1691,-425.217 1691,-425.217 1694.72,-428.556 1694,-421.867 1698.44,-431.896 1698.44,-431.896"/>
</g>
<!-- 22&#45;&gt;26 -->
<g id="edge60" class="edge"><title>22&#45;&gt;26</title>
<path fill="none" stroke="black" d="M2409.66,-252.303C2403.01,-260.611 2394.92,-270.723 2387.61,-279.859"/>
<polygon fill="black" stroke="black" points="2381.18,-287.896 2383.92,-277.276 2384.31,-283.991 2387.43,-280.087 2387.43,-280.087 2387.43,-280.087 2384.31,-283.991 2390.94,-282.898 2381.18,-287.896 2381.18,-287.896"/>
</g>
<!-- 23&#45;&gt;26 -->
<g id="edge61" class="edge"><title>23&#45;&gt;26</title>
<path fill="none" stroke="black" d="M2564.23,-252.034C2526.95,-262.07 2479.64,-274.81 2440.75,-285.279"/>
<polygon fill="black" stroke="black" points="2431.05,-287.889 2439.54,-280.944 2435.88,-286.589 2440.71,-285.289 2440.71,-285.289 2440.71,-285.289 2435.88,-286.589 2441.88,-289.635 2431.05,-287.889 2431.05,-287.889"/>
</g>
<!-- 24&#45;&gt;26 -->
<g id="edge62" class="edge"><title>24&#45;&gt;26</title>
<path fill="none" stroke="black" d="M2748.77,-250.561C2745.64,-251.051 2742.55,-251.532 2739.5,-252 2639.84,-267.322 2524.92,-283.462 2449.49,-293.847"/>
<polygon fill="black" stroke="black" points="2439.58,-295.21 2448.87,-289.39 2444.53,-294.529 2449.49,-293.848 2449.49,-293.848 2449.49,-293.848 2444.53,-294.529 2450.1,-298.306 2439.58,-295.21 2439.58,-295.21"/>
</g>
<!-- 25&#45;&gt;26 -->
<g id="edge63" class="edge"><title>25&#45;&gt;26</title>
<path fill="none" stroke="black" d="M2255.7,-252.124C2275.76,-261.608 2300.87,-273.487 2322.21,-283.581"/>
<polygon fill="black" stroke="black" points="2331.41,-287.932 2320.45,-287.724 2326.89,-285.794 2322.37,-283.656 2322.37,-283.656 2322.37,-283.656 2326.89,-285.794 2324.3,-279.588 2331.41,-287.932 2331.41,-287.932"/>
</g>
<!-- 26&#45;&gt;18 -->
<g id="edge64" class="edge"><title>26&#45;&gt;18</title>
<path fill="none" stroke="black" d="M2346.54,-324.064C2304.84,-357.119 2207.37,-429.967 2113.5,-468 2054.37,-491.956 1982.96,-505.605 1930.77,-513.031"/>
<polygon fill="black" stroke="black" points="1920.59,-514.435 1929.88,-508.61 1925.55,-513.751 1930.5,-513.068 1930.5,-513.068 1930.5,-513.068 1925.55,-513.751 1931.11,-517.526 1920.59,-514.435 1920.59,-514.435"/>
</g>
<!-- 27&#45;&gt;18 -->
<g id="edge65" class="edge"><title>27&#45;&gt;18</title>
<path fill="none" stroke="black" d="M2563.22,-389.871C2487.02,-407.566 2330.27,-443.12 2196.5,-468 2105.27,-484.969 1999.51,-500.965 1930.93,-510.857"/>
<polygon fill="black" stroke="black" points="1920.67,-512.331 1929.92,-506.454 1925.62,-511.62 1930.56,-510.909 1930.56,-510.909 1930.56,-510.909 1925.62,-511.62 1931.2,-515.363 1920.67,-512.331 1920.67,-512.331"/>
</g>
<!-- 28&#45;&gt;18 -->
<g id="edge66" class="edge"><title>28&#45;&gt;18</title>
<path fill="none" stroke="black" d="M1194.79,-457.181C1330.13,-470.195 1643.66,-500.343 1785.94,-514.024"/>
<polygon fill="black" stroke="black" points="1796.3,-515.019 1785.91,-518.541 1791.32,-514.541 1786.35,-514.062 1786.35,-514.062 1786.35,-514.062 1791.32,-514.541 1786.78,-509.583 1796.3,-515.019 1796.3,-515.019"/>
</g>
<!-- 29 -->
<g id="node30" class="node"><title>29</title>
<polygon fill="none" stroke="black" points="1286,-324 1153,-324 1153,-288 1286,-288 1286,-324"/>
<text text-anchor="middle" x="1219.5" y="-302.3" font-family="Times,serif" font-size="14.00">Policies.KLempUCB</text>
</g>
<!-- 29&#45;&gt;28 -->
<g id="edge67" class="edge"><title>29&#45;&gt;28</title>
<path fill="none" stroke="black" d="M1217.22,-324.289C1214.08,-343.174 1207.08,-373.701 1192.5,-396 1185.22,-407.129 1174.94,-417.225 1164.84,-425.547"/>
<polygon fill="black" stroke="black" points="1156.84,-431.828 1161.93,-422.114 1160.77,-428.741 1164.71,-425.654 1164.71,-425.654 1164.71,-425.654 1160.77,-428.741 1167.49,-429.194 1156.84,-431.828 1156.84,-431.828"/>
</g>
<!-- 50 -->
<g id="node51" class="node"><title>50</title>
<polygon fill="none" stroke="black" points="1183.5,-396 1073.5,-396 1073.5,-360 1183.5,-360 1183.5,-396"/>
<text text-anchor="middle" x="1128.5" y="-374.3" font-family="Times,serif" font-size="14.00">Policies.kullback</text>
</g>
<!-- 29&#45;&gt;50 -->
<g id="edge68" class="edge"><title>29&#45;&gt;50</title>
<path fill="none" stroke="black" d="M1197.01,-324.303C1185.54,-333.119 1171.44,-343.968 1159.02,-353.526"/>
<polygon fill="black" stroke="black" points="1150.74,-359.896 1155.92,-350.232 1154.7,-356.847 1158.66,-353.799 1158.66,-353.799 1158.66,-353.799 1154.7,-356.847 1161.41,-357.365 1150.74,-359.896 1150.74,-359.896"/>
</g>
<!-- 30&#45;&gt;18 -->
<g id="edge69" class="edge"><title>30&#45;&gt;18</title>
<path fill="none" stroke="black" d="M1487.64,-465.997C1490.63,-466.711 1493.6,-467.385 1496.5,-468 1596.06,-489.073 1712.79,-504.528 1786.2,-513.143"/>
<polygon fill="black" stroke="black" points="1796.27,-514.313 1785.81,-517.628 1791.3,-513.736 1786.33,-513.159 1786.33,-513.159 1786.33,-513.159 1791.3,-513.736 1786.85,-508.689 1796.27,-514.313 1796.27,-514.313"/>
</g>
<!-- 31&#45;&gt;28 -->
<g id="edge70" class="edge"><title>31&#45;&gt;28</title>
<path fill="none" stroke="black" d="M1006.62,-396.124C1029.14,-405.736 1057.42,-417.807 1081.27,-427.987"/>
<polygon fill="black" stroke="black" points="1090.51,-431.932 1079.55,-432.145 1085.91,-429.969 1081.31,-428.006 1081.31,-428.006 1081.31,-428.006 1085.91,-429.969 1083.08,-423.867 1090.51,-431.932 1090.51,-431.932"/>
</g>
<!-- 32&#45;&gt;18 -->
<g id="edge71" class="edge"><title>32&#45;&gt;18</title>
<path fill="none" stroke="black" d="M1643.25,-467.945C1686.59,-478.628 1742.47,-492.402 1786.44,-503.238"/>
<polygon fill="black" stroke="black" points="1796.2,-505.644 1785.41,-507.62 1791.34,-504.447 1786.49,-503.25 1786.49,-503.25 1786.49,-503.25 1791.34,-504.447 1787.56,-498.881 1796.2,-505.644 1796.2,-505.644"/>
</g>
<!-- 34&#45;&gt;18 -->
<g id="edge72" class="edge"><title>34&#45;&gt;18</title>
<path fill="none" stroke="black" d="M1768.8,-396.129C1786.57,-420.863 1819.54,-466.758 1840.17,-495.488"/>
<polygon fill="black" stroke="black" points="1846.15,-503.811 1836.66,-498.314 1843.24,-499.75 1840.32,-495.689 1840.32,-495.689 1840.32,-495.689 1843.24,-499.75 1843.97,-493.064 1846.15,-503.811 1846.15,-503.811"/>
</g>
<!-- 35&#45;&gt;18 -->
<g id="edge73" class="edge"><title>35&#45;&gt;18</title>
<path fill="none" stroke="black" d="M1838.4,-324.426C1844.04,-334.432 1850.39,-347.467 1853.5,-360 1864.89,-405.84 1863.43,-461.278 1861.11,-493.693"/>
<polygon fill="black" stroke="black" points="1860.31,-503.756 1856.62,-493.431 1860.71,-498.772 1861.11,-493.787 1861.11,-493.787 1861.11,-493.787 1860.71,-498.772 1865.59,-494.144 1860.31,-503.756 1860.31,-503.756"/>
</g>
<!-- 36&#45;&gt;35 -->
<g id="edge74" class="edge"><title>36&#45;&gt;35</title>
<path fill="none" stroke="black" d="M1797.39,-252.303C1801.99,-260.356 1807.56,-270.106 1812.65,-279.018"/>
<polygon fill="black" stroke="black" points="1817.73,-287.896 1808.86,-281.446 1815.25,-283.554 1812.76,-279.213 1812.76,-279.213 1812.76,-279.213 1815.25,-283.554 1816.67,-276.981 1817.73,-287.896 1817.73,-287.896"/>
</g>
<!-- 37&#45;&gt;20 -->
<g id="edge75" class="edge"><title>37&#45;&gt;20</title>
<path fill="none" stroke="black" d="M1414.58,-252.303C1411.43,-260.187 1407.62,-269.696 1404.12,-278.454"/>
<polygon fill="black" stroke="black" points="1400.34,-287.896 1399.88,-276.94 1402.2,-283.253 1404.06,-278.611 1404.06,-278.611 1404.06,-278.611 1402.2,-283.253 1408.23,-280.282 1400.34,-287.896 1400.34,-287.896"/>
</g>
<!-- 38&#45;&gt;28 -->
<g id="edge76" class="edge"><title>38&#45;&gt;28</title>
<path fill="none" stroke="black" d="M628.28,-384.848C722.917,-396.936 940.853,-424.775 1056.03,-439.488"/>
<polygon fill="black" stroke="black" points="1066.18,-440.783 1055.69,-443.98 1061.22,-440.15 1056.26,-439.516 1056.26,-439.516 1056.26,-439.516 1061.22,-440.15 1056.83,-435.052 1066.18,-440.783 1066.18,-440.783"/>
</g>
<!-- 39&#45;&gt;38 -->
<g id="edge77" class="edge"><title>39&#45;&gt;38</title>
<path fill="none" stroke="black" d="M372.221,-321.441C375.359,-322.313 378.471,-323.172 381.5,-324 430.599,-337.428 486.61,-352.148 527.012,-362.66"/>
<polygon fill="black" stroke="black" points="536.934,-365.239 526.124,-367.078 532.095,-363.981 527.256,-362.723 527.256,-362.723 527.256,-362.723 532.095,-363.981 528.388,-358.368 536.934,-365.239 536.934,-365.239"/>
</g>
<!-- 40&#45;&gt;39 -->
<g id="edge78" class="edge"><title>40&#45;&gt;39</title>
<path fill="none" stroke="black" d="M498.556,-252.034C463.314,-262.577 418.098,-276.103 382.181,-286.848"/>
<polygon fill="black" stroke="black" points="372.313,-289.799 380.604,-282.622 377.104,-288.366 381.894,-286.933 381.894,-286.933 381.894,-286.933 377.104,-288.366 383.184,-291.245 372.313,-289.799 372.313,-289.799"/>
</g>
<!-- 41&#45;&gt;38 -->
<g id="edge79" class="edge"><title>41&#45;&gt;38</title>
<path fill="none" stroke="black" d="M482.791,-324.124C500.369,-333.446 522.309,-345.081 541.129,-355.061"/>
<polygon fill="black" stroke="black" points="550.085,-359.81 539.142,-359.101 545.668,-357.468 541.25,-355.125 541.25,-355.125 541.25,-355.125 545.668,-357.468 543.359,-351.15 550.085,-359.81 550.085,-359.81"/>
</g>
<!-- 42&#45;&gt;38 -->
<g id="edge80" class="edge"><title>42&#45;&gt;38</title>
<path fill="none" stroke="black" d="M582.5,-324.303C582.5,-332.017 582.5,-341.288 582.5,-349.888"/>
<polygon fill="black" stroke="black" points="582.5,-359.896 578,-349.896 582.5,-354.896 582.5,-349.896 582.5,-349.896 582.5,-349.896 582.5,-354.896 587,-349.896 582.5,-359.896 582.5,-359.896"/>
</g>
<!-- 43&#45;&gt;38 -->
<g id="edge81" class="edge"><title>43&#45;&gt;38</title>
<path fill="none" stroke="black" d="M824.644,-321.754C821.553,-322.522 818.49,-323.275 815.5,-324 755.028,-338.663 685.431,-354.338 638.161,-364.806"/>
<polygon fill="black" stroke="black" points="628.129,-367.023 636.922,-360.471 633.011,-365.944 637.894,-364.865 637.894,-364.865 637.894,-364.865 633.011,-365.944 638.865,-369.259 628.129,-367.023 628.129,-367.023"/>
</g>
<!-- 44&#45;&gt;38 -->
<g id="edge82" class="edge"><title>44&#45;&gt;38</title>
<path fill="none" stroke="black" d="M694.295,-324.124C674.242,-333.608 649.128,-345.487 627.786,-355.581"/>
<polygon fill="black" stroke="black" points="618.587,-359.932 625.703,-351.588 623.107,-357.794 627.627,-355.656 627.627,-355.656 627.627,-355.656 623.107,-357.794 629.551,-359.724 618.587,-359.932 618.587,-359.932"/>
</g>
<!-- 45&#45;&gt;18 -->
<g id="edge83" class="edge"><title>45&#45;&gt;18</title>
<path fill="none" stroke="black" d="M1964.28,-324.151C1944.22,-361.481 1896.49,-450.305 1872.61,-494.741"/>
<polygon fill="black" stroke="black" points="1867.76,-503.768 1868.53,-492.829 1870.13,-499.363 1872.49,-494.959 1872.49,-494.959 1872.49,-494.959 1870.13,-499.363 1876.46,-497.089 1867.76,-503.768 1867.76,-503.768"/>
</g>
<!-- 46&#45;&gt;45 -->
<g id="edge84" class="edge"><title>46&#45;&gt;45</title>
<path fill="none" stroke="black" d="M2008.13,-252.303C2002.78,-260.441 1996.3,-270.311 1990.39,-279.299"/>
<polygon fill="black" stroke="black" points="1984.74,-287.896 1986.47,-277.067 1987.49,-283.717 1990.23,-279.539 1990.23,-279.539 1990.23,-279.539 1987.49,-283.717 1993.99,-282.01 1984.74,-287.896 1984.74,-287.896"/>
</g>
<!-- 47&#45;&gt;28 -->
<g id="edge85" class="edge"><title>47&#45;&gt;28</title>
<path fill="none" stroke="black" d="M1045.81,-324.329C1046.88,-343.249 1050.82,-373.806 1064.5,-396 1071.56,-407.451 1082,-417.489 1092.52,-425.661"/>
<polygon fill="black" stroke="black" points="1100.9,-431.805 1090.17,-429.521 1096.86,-428.849 1092.83,-425.892 1092.83,-425.892 1092.83,-425.892 1096.86,-428.849 1095.49,-422.263 1100.9,-431.805 1100.9,-431.805"/>
</g>
<!-- 47&#45;&gt;50 -->
<g id="edge86" class="edge"><title>47&#45;&gt;50</title>
<path fill="none" stroke="black" d="M1066.02,-324.303C1076.37,-333.035 1089.09,-343.76 1100.34,-353.25"/>
<polygon fill="black" stroke="black" points="1108.22,-359.896 1097.67,-356.889 1104.4,-356.672 1100.57,-353.449 1100.57,-353.449 1100.57,-353.449 1104.4,-356.672 1103.48,-350.009 1108.22,-359.896 1108.22,-359.896"/>
</g>
<!-- 48&#45;&gt;47 -->
<g id="edge87" class="edge"><title>48&#45;&gt;47</title>
<path fill="none" stroke="black" d="M1111.75,-252.303C1100.66,-261.119 1087.03,-271.968 1075.01,-281.526"/>
<polygon fill="black" stroke="black" points="1067,-287.896 1072.03,-278.149 1070.92,-284.783 1074.83,-281.67 1074.83,-281.67 1074.83,-281.67 1070.92,-284.783 1077.63,-285.192 1067,-287.896 1067,-287.896"/>
</g>
<!-- 48&#45;&gt;50 -->
<g id="edge88" class="edge"><title>48&#45;&gt;50</title>
<path fill="none" stroke="black" d="M1132.9,-252.129C1132.04,-276.33 1130.48,-320.789 1129.46,-349.607"/>
<polygon fill="black" stroke="black" points="1129.11,-359.811 1124.96,-349.659 1129.28,-354.814 1129.46,-349.817 1129.46,-349.817 1129.46,-349.817 1129.28,-354.814 1133.95,-349.975 1129.11,-359.811 1129.11,-359.811"/>
</g>
<!-- 49&#45;&gt;47 -->
<g id="edge89" class="edge"><title>49&#45;&gt;47</title>
<path fill="none" stroke="black" d="M971.473,-252.124C984.05,-261.107 999.632,-272.237 1013.25,-281.966"/>
<polygon fill="black" stroke="black" points="1021.43,-287.81 1010.68,-285.66 1017.37,-284.904 1013.3,-281.998 1013.3,-281.998 1013.3,-281.998 1017.37,-284.904 1015.91,-278.336 1021.43,-287.81 1021.43,-287.81"/>
</g>
<!-- 51 -->
<g id="node52" class="node"><title>51</title>
<polygon fill="none" stroke="black" points="4643.5,-180 4513.5,-180 4513.5,-144 4643.5,-144 4643.5,-180"/>
<text text-anchor="middle" x="4578.5" y="-158.3" font-family="Times,serif" font-size="14.00">PoliciesMultiPlayers</text>
</g>
<!-- 52 -->
<g id="node53" class="node"><title>52</title>
<polygon fill="none" stroke="black" points="5279,-252 5098,-252 5098,-216 5279,-216 5279,-252"/>
<text text-anchor="middle" x="5188.5" y="-230.3" font-family="Times,serif" font-size="14.00">PoliciesMultiPlayers.ALOHA</text>
</g>
<!-- 51&#45;&gt;52 -->
<g id="edge90" class="edge"><title>51&#45;&gt;52</title>
<path fill="none" stroke="black" d="M4643.87,-168.427C4739.07,-176.633 4921.62,-193.509 5087.4,-215.901"/>
<polygon fill="black" stroke="black" points="5097.79,-217.315 5087.27,-220.426 5092.83,-216.641 5087.88,-215.967 5087.88,-215.967 5087.88,-215.967 5092.83,-216.641 5088.49,-211.508 5097.79,-217.315 5097.79,-217.315"/>
</g>
<!-- 55 -->
<g id="node56" class="node"><title>55</title>
<polygon fill="none" stroke="black" points="4447,-252 4208,-252 4208,-216 4447,-216 4447,-252"/>
<text text-anchor="middle" x="4327.5" y="-230.3" font-family="Times,serif" font-size="14.00">PoliciesMultiPlayers.CentralizedCycling</text>
</g>
<!-- 51&#45;&gt;55 -->
<g id="edge91" class="edge"><title>51&#45;&gt;55</title>
<path fill="none" stroke="black" d="M4517.42,-180.034C4481.59,-190.028 4436.14,-202.702 4398.69,-213.146"/>
<polygon fill="black" stroke="black" points="4388.85,-215.889 4397.28,-208.868 4393.67,-214.546 4398.49,-213.203 4398.49,-213.203 4398.49,-213.203 4393.67,-214.546 4399.7,-217.537 4388.85,-215.889 4388.85,-215.889"/>
</g>
<!-- 56 -->
<g id="node57" class="node"><title>56</title>
<polygon fill="none" stroke="black" points="4692,-252 4465,-252 4465,-216 4692,-216 4692,-252"/>
<text text-anchor="middle" x="4578.5" y="-230.3" font-family="Times,serif" font-size="14.00">PoliciesMultiPlayers.CentralizedFixed</text>
</g>
<!-- 51&#45;&gt;56 -->
<g id="edge92" class="edge"><title>51&#45;&gt;56</title>
<path fill="none" stroke="black" d="M4578.5,-180.303C4578.5,-188.017 4578.5,-197.288 4578.5,-205.888"/>
<polygon fill="black" stroke="black" points="4578.5,-215.896 4574,-205.896 4578.5,-210.896 4578.5,-205.896 4578.5,-205.896 4578.5,-205.896 4578.5,-210.896 4583,-205.896 4578.5,-215.896 4578.5,-215.896"/>
</g>
<!-- 57 -->
<g id="node58" class="node"><title>57</title>
<polygon fill="none" stroke="black" points="5564,-252 5297,-252 5297,-216 5564,-216 5564,-252"/>
<text text-anchor="middle" x="5430.5" y="-230.3" font-family="Times,serif" font-size="14.00">PoliciesMultiPlayers.CentralizedMultiplePlay</text>
</g>
<!-- 51&#45;&gt;57 -->
<g id="edge93" class="edge"><title>51&#45;&gt;57</title>
<path fill="none" stroke="black" d="M4643.68,-166.889C4767.11,-174.467 5043.67,-192.465 5286.65,-215.842"/>
<polygon fill="black" stroke="black" points="5296.73,-216.817 5286.35,-220.333 5291.76,-216.336 5286.78,-215.854 5286.78,-215.854 5286.78,-215.854 5291.76,-216.336 5287.21,-211.375 5296.73,-216.817 5296.73,-216.817"/>
</g>
<!-- 60 -->
<g id="node61" class="node"><title>60</title>
<polygon fill="none" stroke="black" points="3960,-252 3769,-252 3769,-216 3960,-216 3960,-252"/>
<text text-anchor="middle" x="3864.5" y="-230.3" font-family="Times,serif" font-size="14.00">PoliciesMultiPlayers.OracleFair</text>
</g>
<!-- 51&#45;&gt;60 -->
<g id="edge94" class="edge"><title>51&#45;&gt;60</title>
<path fill="none" stroke="black" d="M4513.44,-167.081C4403.67,-174.315 4174.51,-190.909 3970.05,-215.988"/>
<polygon fill="black" stroke="black" points="3960.03,-217.227 3969.4,-211.535 3964.99,-216.614 3969.95,-216.001 3969.95,-216.001 3969.95,-216.001 3964.99,-216.614 3970.5,-220.467 3960.03,-217.227 3960.03,-217.227"/>
</g>
<!-- 61 -->
<g id="node62" class="node"><title>61</title>
<polygon fill="none" stroke="black" points="4190.5,-252 3978.5,-252 3978.5,-216 4190.5,-216 4190.5,-252"/>
<text text-anchor="middle" x="4084.5" y="-230.3" font-family="Times,serif" font-size="14.00">PoliciesMultiPlayers.OracleNotFair</text>
</g>
<!-- 51&#45;&gt;61 -->
<g id="edge95" class="edge"><title>51&#45;&gt;61</title>
<path fill="none" stroke="black" d="M4513.25,-171.91C4439.68,-181.999 4316.17,-199.065 4200.76,-215.68"/>
<polygon fill="black" stroke="black" points="4190.69,-217.131 4199.94,-211.251 4195.64,-216.418 4200.59,-215.705 4200.59,-215.705 4200.59,-215.705 4195.64,-216.418 4201.23,-220.158 4190.69,-217.131 4190.69,-217.131"/>
</g>
<!-- 62 -->
<g id="node63" class="node"><title>62</title>
<polygon fill="none" stroke="black" points="4881,-252 4710,-252 4710,-216 4881,-216 4881,-252"/>
<text text-anchor="middle" x="4795.5" y="-230.3" font-family="Times,serif" font-size="14.00">PoliciesMultiPlayers.Selfish</text>
</g>
<!-- 51&#45;&gt;62 -->
<g id="edge96" class="edge"><title>51&#45;&gt;62</title>
<path fill="none" stroke="black" d="M4631.31,-180.034C4661.89,-189.9 4700.57,-202.378 4732.71,-212.745"/>
<polygon fill="black" stroke="black" points="4742.46,-215.889 4731.56,-217.102 4737.7,-214.354 4732.94,-212.819 4732.94,-212.819 4732.94,-212.819 4737.7,-214.354 4734.32,-208.536 4742.46,-215.889 4742.46,-215.889"/>
</g>
<!-- 64 -->
<g id="node65" class="node"><title>64</title>
<polygon fill="none" stroke="black" points="5079.5,-252 4899.5,-252 4899.5,-216 5079.5,-216 5079.5,-252"/>
<text text-anchor="middle" x="4989.5" y="-230.3" font-family="Times,serif" font-size="14.00">PoliciesMultiPlayers.rhoRand</text>
</g>
<!-- 51&#45;&gt;64 -->
<g id="edge97" class="edge"><title>51&#45;&gt;64</title>
<path fill="none" stroke="black" d="M4643.64,-174.031C4704.54,-184.352 4798.32,-200.264 4889.44,-215.821"/>
<polygon fill="black" stroke="black" points="4899.39,-217.52 4888.78,-220.272 4894.46,-216.678 4889.54,-215.837 4889.54,-215.837 4889.54,-215.837 4894.46,-216.678 4890.29,-211.401 4899.39,-217.52 4899.39,-217.52"/>
</g>
<!-- 54 -->
<g id="node55" class="node"><title>54</title>
<polygon fill="none" stroke="black" points="4906,-324 4691,-324 4691,-288 4906,-288 4906,-324"/>
<text text-anchor="middle" x="4798.5" y="-302.3" font-family="Times,serif" font-size="14.00">PoliciesMultiPlayers.BaseMPPolicy</text>
</g>
<!-- 52&#45;&gt;54 -->
<g id="edge98" class="edge"><title>52&#45;&gt;54</title>
<path fill="none" stroke="black" d="M5097.55,-251.324C5039.45,-261.752 4963.92,-275.308 4903.31,-286.188"/>
<polygon fill="black" stroke="black" points="4893.33,-287.979 4902.38,-281.784 4898.25,-287.096 4903.17,-286.213 4903.17,-286.213 4903.17,-286.213 4898.25,-287.096 4903.97,-290.642 4893.33,-287.979 4893.33,-287.979"/>
</g>
<!-- 58 -->
<g id="node59" class="node"><title>58</title>
<polygon fill="none" stroke="black" points="4673,-324 4470,-324 4470,-288 4673,-288 4673,-324"/>
<text text-anchor="middle" x="4571.5" y="-302.3" font-family="Times,serif" font-size="14.00">PoliciesMultiPlayers.ChildPointer</text>
</g>
<!-- 52&#45;&gt;58 -->
<g id="edge99" class="edge"><title>52&#45;&gt;58</title>
<path fill="none" stroke="black" d="M5097.8,-250.746C5094.66,-251.186 5091.56,-251.606 5088.5,-252 4911.65,-274.816 4863.5,-266.439 4683.15,-287.847"/>
<polygon fill="black" stroke="black" points="4673.06,-289.059 4682.45,-283.398 4678.02,-288.462 4682.98,-287.866 4682.98,-287.866 4682.98,-287.866 4678.02,-288.462 4683.52,-292.334 4673.06,-289.059 4673.06,-289.059"/>
</g>
<!-- 53 -->
<g id="node54" class="node"><title>53</title>
<polygon fill="none" stroke="black" points="4333,-324 4076,-324 4076,-288 4333,-288 4333,-324"/>
<text text-anchor="middle" x="4204.5" y="-302.3" font-family="Times,serif" font-size="14.00">PoliciesMultiPlayers.BaseCentralizedPolicy</text>
</g>
<!-- 55&#45;&gt;53 -->
<g id="edge100" class="edge"><title>55&#45;&gt;53</title>
<path fill="none" stroke="black" d="M4297.41,-252.124C4281.18,-261.361 4260.96,-272.869 4243.53,-282.788"/>
<polygon fill="black" stroke="black" points="4234.7,-287.81 4241.17,-278.953 4239.05,-285.337 4243.4,-282.864 4243.4,-282.864 4243.4,-282.864 4239.05,-285.337 4245.62,-286.775 4234.7,-287.81 4234.7,-287.81"/>
</g>
<!-- 55&#45;&gt;54 -->
<g id="edge101" class="edge"><title>55&#45;&gt;54</title>
<path fill="none" stroke="black" d="M4442.12,-252.034C4514.42,-262.779 4607.57,-276.624 4680.5,-287.464"/>
<polygon fill="black" stroke="black" points="4690.66,-288.972 4680.1,-291.953 4685.71,-288.237 4680.77,-287.502 4680.77,-287.502 4680.77,-287.502 4685.71,-288.237 4681.43,-283.051 4690.66,-288.972 4690.66,-288.972"/>
</g>
<!-- 55&#45;&gt;58 -->
<g id="edge102" class="edge"><title>55&#45;&gt;58</title>
<path fill="none" stroke="black" d="M4386.88,-252.034C4421.56,-261.985 4465.51,-274.594 4501.83,-285.013"/>
<polygon fill="black" stroke="black" points="4511.86,-287.889 4501,-289.457 4507.05,-286.51 4502.24,-285.132 4502.24,-285.132 4502.24,-285.132 4507.05,-286.51 4503.49,-280.806 4511.86,-287.889 4511.86,-287.889"/>
</g>
<!-- 56&#45;&gt;53 -->
<g id="edge103" class="edge"><title>56&#45;&gt;53</title>
<path fill="none" stroke="black" d="M4487.49,-252.034C4432.52,-262.323 4362.36,-275.453 4305.66,-286.067"/>
<polygon fill="black" stroke="black" points="4295.6,-287.95 4304.6,-281.687 4300.51,-287.03 4305.43,-286.11 4305.43,-286.11 4305.43,-286.11 4300.51,-287.03 4306.25,-290.533 4295.6,-287.95 4295.6,-287.95"/>
</g>
<!-- 56&#45;&gt;54 -->
<g id="edge104" class="edge"><title>56&#45;&gt;54</title>
<path fill="none" stroke="black" d="M4632.04,-252.034C4663.04,-261.9 4702.26,-274.378 4734.84,-284.745"/>
<polygon fill="black" stroke="black" points="4744.72,-287.889 4733.83,-289.145 4739.96,-286.373 4735.19,-284.857 4735.19,-284.857 4735.19,-284.857 4739.96,-286.373 4736.56,-280.569 4744.72,-287.889 4744.72,-287.889"/>
</g>
<!-- 56&#45;&gt;58 -->
<g id="edge105" class="edge"><title>56&#45;&gt;58</title>
<path fill="none" stroke="black" d="M4576.77,-252.303C4576,-260.017 4575.07,-269.288 4574.21,-277.888"/>
<polygon fill="black" stroke="black" points="4573.21,-287.896 4569.73,-277.497 4573.71,-282.92 4574.21,-277.945 4574.21,-277.945 4574.21,-277.945 4573.71,-282.92 4578.68,-278.393 4573.21,-287.896 4573.21,-287.896"/>
</g>
<!-- 57&#45;&gt;54 -->
<g id="edge106" class="edge"><title>57&#45;&gt;54</title>
<path fill="none" stroke="black" d="M5296.72,-251.059C5293.96,-251.377 5291.21,-251.691 5288.5,-252 5161.31,-266.492 5015.42,-282.147 4916.14,-292.656"/>
<polygon fill="black" stroke="black" points="4906.08,-293.721 4915.55,-288.194 4911.05,-293.195 4916.02,-292.669 4916.02,-292.669 4916.02,-292.669 4911.05,-293.195 4916.5,-297.144 4906.08,-293.721 4906.08,-293.721"/>
</g>
<!-- 57&#45;&gt;58 -->
<g id="edge107" class="edge"><title>57&#45;&gt;58</title>
<path fill="none" stroke="black" d="M5296.74,-251.24C5293.97,-251.503 5291.22,-251.757 5288.5,-252 5022.61,-275.779 4951.94,-259.733 4683.1,-287.887"/>
<polygon fill="black" stroke="black" points="4673.04,-288.951 4682.51,-283.424 4678.02,-288.425 4682.99,-287.899 4682.99,-287.899 4682.99,-287.899 4678.02,-288.425 4683.46,-292.374 4673.04,-288.951 4673.04,-288.951"/>
</g>
<!-- 59 -->
<g id="node60" class="node"><title>59</title>
<polygon fill="none" stroke="black" points="3516,-36 3351,-36 3351,-0 3516,-0 3516,-36"/>
<text text-anchor="middle" x="3433.5" y="-14.3" font-family="Times,serif" font-size="14.00">PoliciesMultiPlayers.DMC</text>
</g>
<!-- 60&#45;&gt;53 -->
<g id="edge108" class="edge"><title>60&#45;&gt;53</title>
<path fill="none" stroke="black" d="M3947.24,-252.034C3996.9,-262.259 4060.2,-275.29 4111.58,-285.869"/>
<polygon fill="black" stroke="black" points="4121.69,-287.95 4110.98,-290.341 4116.79,-286.942 4111.89,-285.933 4111.89,-285.933 4111.89,-285.933 4116.79,-286.942 4112.8,-281.526 4121.69,-287.95 4121.69,-287.95"/>
</g>
<!-- 60&#45;&gt;54 -->
<g id="edge109" class="edge"><title>60&#45;&gt;54</title>
<path fill="none" stroke="black" d="M3960.01,-250.921C3963.21,-251.308 3966.38,-251.669 3969.5,-252 4281.2,-285.012 4364.37,-257.785 4680.43,-287.961"/>
<polygon fill="black" stroke="black" points="4690.81,-288.964 4680.42,-292.481 4685.83,-288.483 4680.85,-288.002 4680.85,-288.002 4680.85,-288.002 4685.83,-288.483 4681.28,-283.523 4690.81,-288.964 4690.81,-288.964"/>
</g>
<!-- 60&#45;&gt;58 -->
<g id="edge110" class="edge"><title>60&#45;&gt;58</title>
<path fill="none" stroke="black" d="M3960.03,-250.768C3963.22,-251.199 3966.38,-251.611 3969.5,-252 4061.35,-263.463 4312.57,-284.302 4459.84,-296.147"/>
<polygon fill="black" stroke="black" points="4469.82,-296.949 4459.49,-300.634 4464.83,-296.549 4459.85,-296.149 4459.85,-296.149 4459.85,-296.149 4464.83,-296.549 4460.21,-291.663 4469.82,-296.949 4469.82,-296.949"/>
</g>
<!-- 61&#45;&gt;53 -->
<g id="edge111" class="edge"><title>61&#45;&gt;53</title>
<path fill="none" stroke="black" d="M4113.86,-252.124C4129.55,-261.276 4149.06,-272.658 4165.95,-282.515"/>
<polygon fill="black" stroke="black" points="4175.03,-287.81 4164.13,-286.659 4170.71,-285.291 4166.39,-282.771 4166.39,-282.771 4166.39,-282.771 4170.71,-285.291 4168.66,-278.884 4175.03,-287.81 4175.03,-287.81"/>
</g>
<!-- 61&#45;&gt;54 -->
<g id="edge112" class="edge"><title>61&#45;&gt;54</title>
<path fill="none" stroke="black" d="M4190.66,-251.093C4193.3,-251.408 4195.91,-251.711 4198.5,-252 4409.19,-275.529 4465.82,-264.846 4680.77,-287.971"/>
<polygon fill="black" stroke="black" points="4690.8,-289.062 4680.37,-292.454 4685.82,-288.521 4680.85,-287.98 4680.85,-287.98 4680.85,-287.98 4685.82,-288.521 4681.34,-283.506 4690.8,-289.062 4690.8,-289.062"/>
</g>
<!-- 61&#45;&gt;58 -->
<g id="edge113" class="edge"><title>61&#45;&gt;58</title>
<path fill="none" stroke="black" d="M4190.69,-250.86C4193.32,-251.245 4195.93,-251.625 4198.5,-252 4286.13,-264.759 4385.39,-278.845 4459.47,-289.287"/>
<polygon fill="black" stroke="black" points="4469.76,-290.736 4459.23,-293.797 4464.81,-290.038 4459.85,-289.341 4459.85,-289.341 4459.85,-289.341 4464.81,-290.038 4460.48,-284.885 4469.76,-290.736 4469.76,-290.736"/>
</g>
<!-- 62&#45;&gt;54 -->
<g id="edge114" class="edge"><title>62&#45;&gt;54</title>
<path fill="none" stroke="black" d="M4796.24,-252.303C4796.57,-260.017 4796.97,-269.288 4797.34,-277.888"/>
<polygon fill="black" stroke="black" points="4797.77,-287.896 4792.84,-278.098 4797.55,-282.9 4797.34,-277.905 4797.34,-277.905 4797.34,-277.905 4797.55,-282.9 4801.83,-277.712 4797.77,-287.896 4797.77,-287.896"/>
</g>
<!-- 62&#45;&gt;58 -->
<g id="edge115" class="edge"><title>62&#45;&gt;58</title>
<path fill="none" stroke="black" d="M4740.99,-252.034C4709.28,-261.943 4669.14,-274.486 4635.89,-284.879"/>
<polygon fill="black" stroke="black" points="4626.25,-287.889 4634.46,-280.611 4631.03,-286.398 4635.8,-284.906 4635.8,-284.906 4635.8,-284.906 4631.03,-286.398 4637.14,-289.202 4626.25,-287.889 4626.25,-287.889"/>
</g>
<!-- 63 -->
<g id="node64" class="node"><title>63</title>
<polygon fill="none" stroke="black" points="3701,-36 3534,-36 3534,-0 3701,-0 3701,-36"/>
<text text-anchor="middle" x="3617.5" y="-14.3" font-family="Times,serif" font-size="14.00">PoliciesMultiPlayers.TDFS</text>
</g>
<!-- 64&#45;&gt;54 -->
<g id="edge116" class="edge"><title>64&#45;&gt;54</title>
<path fill="none" stroke="black" d="M4942.78,-252.124C4916.2,-261.863 4882.74,-274.128 4854.73,-284.392"/>
<polygon fill="black" stroke="black" points="4845.07,-287.932 4852.91,-280.265 4849.77,-286.211 4854.46,-284.491 4854.46,-284.491 4854.46,-284.491 4849.77,-286.211 4856.01,-288.716 4845.07,-287.932 4845.07,-287.932"/>
</g>
<!-- 64&#45;&gt;58 -->
<g id="edge117" class="edge"><title>64&#45;&gt;58</title>
<path fill="none" stroke="black" d="M4899.4,-250.494C4896.39,-251.003 4893.42,-251.506 4890.5,-252 4821.68,-263.626 4744.46,-276.461 4683.24,-286.587"/>
<polygon fill="black" stroke="black" points="4673.17,-288.253 4682.3,-282.182 4678.1,-287.437 4683.03,-286.621 4683.03,-286.621 4683.03,-286.621 4678.1,-287.437 4683.77,-291.061 4673.17,-288.253 4673.17,-288.253"/>
</g>
<!-- 65 -->
<g id="node66" class="node"><title>65</title>
<polygon fill="none" stroke="black" points="401,-108 312,-108 312,-72 401,-72 401,-108"/>
<text text-anchor="middle" x="356.5" y="-86.3" font-family="Times,serif" font-size="14.00">configuration</text>
</g>
<!-- 65&#45;&gt;2 -->
<g id="edge118" class="edge"><title>65&#45;&gt;2</title>
<path fill="none" stroke="black" d="M371.331,-108.303C378.525,-116.695 387.297,-126.93 395.19,-136.139"/>
<polygon fill="black" stroke="black" points="401.839,-143.896 391.915,-139.232 398.585,-140.099 395.331,-136.303 395.331,-136.303 395.331,-136.303 398.585,-140.099 398.748,-133.375 401.839,-143.896 401.839,-143.896"/>
</g>
<!-- 65&#45;&gt;3 -->
<g id="edge119" class="edge"><title>65&#45;&gt;3</title>
<path fill="none" stroke="black" d="M311.709,-107.767C285.612,-117.536 252.491,-129.934 224.78,-140.307"/>
<polygon fill="black" stroke="black" points="215.225,-143.884 223.013,-136.164 219.907,-142.131 224.59,-140.378 224.59,-140.378 224.59,-140.378 219.907,-142.131 226.168,-144.592 215.225,-143.884 215.225,-143.884"/>
</g>
<!-- 65&#45;&gt;4 -->
<g id="edge120" class="edge"><title>65&#45;&gt;4</title>
<path fill="none" stroke="black" d="M341.669,-108.303C334.475,-116.695 325.703,-126.93 317.81,-136.139"/>
<polygon fill="black" stroke="black" points="311.161,-143.896 314.252,-133.375 314.415,-140.099 317.669,-136.303 317.669,-136.303 317.669,-136.303 314.415,-140.099 321.085,-139.232 311.161,-143.896 311.161,-143.896"/>
</g>
<!-- 65&#45;&gt;5 -->
<g id="edge121" class="edge"><title>65&#45;&gt;5</title>
<path fill="none" stroke="black" d="M311.717,-99.0945C262.845,-108.205 182.13,-124.059 103.269,-143.924"/>
<polygon fill="black" stroke="black" points="93.1635,-146.495 101.745,-139.668 98.0092,-145.262 102.855,-144.03 102.855,-144.03 102.855,-144.03 98.0092,-145.262 103.964,-148.391 93.1635,-146.495 93.1635,-146.495"/>
</g>
<!-- 65&#45;&gt;15 -->
<g id="edge122" class="edge"><title>65&#45;&gt;15</title>
<path fill="none" stroke="black" d="M401.051,-93.6586C588.468,-104.843 1311.41,-147.985 1489.62,-158.62"/>
<polygon fill="black" stroke="black" points="1499.85,-159.231 1489.6,-163.127 1494.86,-158.933 1489.87,-158.635 1489.87,-158.635 1489.87,-158.635 1494.86,-158.933 1490.14,-154.143 1499.85,-159.231 1499.85,-159.231"/>
</g>
<!-- 66 -->
<g id="node67" class="node"><title>66</title>
<polygon fill="none" stroke="black" points="3355.5,-108 3191.5,-108 3191.5,-72 3355.5,-72 3355.5,-108"/>
<text text-anchor="middle" x="3273.5" y="-86.3" font-family="Times,serif" font-size="14.00">configuration_multiplayers</text>
</g>
<!-- 66&#45;&gt;2 -->
<g id="edge123" class="edge"><title>66&#45;&gt;2</title>
<path fill="none" stroke="black" d="M3191.25,-106.996C3188.3,-107.369 3185.38,-107.706 3182.5,-108 3112.92,-115.116 878.753,-153.182 477.802,-159.965"/>
<polygon fill="black" stroke="black" points="467.571,-160.138 477.494,-155.47 472.571,-160.054 477.57,-159.969 477.57,-159.969 477.57,-159.969 472.571,-160.054 477.646,-164.469 467.571,-160.138 467.571,-160.138"/>
</g>
<!-- 66&#45;&gt;8 -->
<g id="edge124" class="edge"><title>66&#45;&gt;8</title>
<path fill="none" stroke="black" d="M3272.83,-108.31C3272.98,-127.78 3276.05,-159.367 3292.5,-180 3303.42,-193.697 3318.69,-204.014 3334.52,-211.725"/>
<polygon fill="black" stroke="black" points="3343.88,-215.97 3332.91,-215.936 3339.32,-213.904 3334.77,-211.838 3334.77,-211.838 3334.77,-211.838 3339.32,-213.904 3336.63,-207.74 3343.88,-215.97 3343.88,-215.97"/>
</g>
<!-- 66&#45;&gt;11 -->
<g id="edge125" class="edge"><title>66&#45;&gt;11</title>
<path fill="none" stroke="black" d="M3268.92,-108.129C3262.41,-132.436 3250.44,-177.181 3242.73,-205.987"/>
<polygon fill="black" stroke="black" points="3240.1,-215.811 3238.34,-204.987 3241.39,-210.981 3242.69,-206.151 3242.69,-206.151 3242.69,-206.151 3241.39,-210.981 3247.03,-207.314 3240.1,-215.811 3240.1,-215.811"/>
</g>
<!-- 66&#45;&gt;15 -->
<g id="edge126" class="edge"><title>66&#45;&gt;15</title>
<path fill="none" stroke="black" d="M3191.24,-106.948C3188.3,-107.334 3185.38,-107.687 3182.5,-108 2855.32,-143.596 1788.57,-157.941 1569.17,-160.551"/>
<polygon fill="black" stroke="black" points="1559.08,-160.67 1569.02,-156.052 1564.08,-160.611 1569.08,-160.552 1569.08,-160.552 1569.08,-160.552 1564.08,-160.611 1569.13,-165.051 1559.08,-160.67 1559.08,-160.67"/>
</g>
<!-- 66&#45;&gt;51 -->
<g id="edge127" class="edge"><title>66&#45;&gt;51</title>
<path fill="none" stroke="black" d="M3355.63,-95.4053C3592.56,-108.114 4274.91,-144.716 4503.13,-156.957"/>
<polygon fill="black" stroke="black" points="4513.33,-157.504 4503.1,-161.462 4508.33,-157.236 4503.34,-156.968 4503.34,-156.968 4503.34,-156.968 4508.33,-157.236 4503.58,-152.475 4513.33,-157.504 4513.33,-157.504"/>
</g>
<!-- 67 -->
<g id="node68" class="node"><title>67</title>
<polygon fill="none" stroke="black" points="3070.5,-36 3016.5,-36 3016.5,-0 3070.5,-0 3070.5,-36"/>
<text text-anchor="middle" x="3043.5" y="-14.3" font-family="Times,serif" font-size="14.00">main</text>
</g>
<!-- 67&#45;&gt;7 -->
<g id="edge128" class="edge"><title>67&#45;&gt;7</title>
<path fill="none" stroke="black" d="M3064.76,-36.3034C3075.59,-45.1193 3088.92,-55.9679 3100.66,-65.5258"/>
<polygon fill="black" stroke="black" points="3108.49,-71.8957 3097.89,-69.073 3104.61,-68.7393 3100.73,-65.5829 3100.73,-65.5829 3100.73,-65.5829 3104.61,-68.7393 3103.57,-62.0929 3108.49,-71.8957 3108.49,-71.8957"/>
</g>
<!-- 67&#45;&gt;9 -->
<g id="edge129" class="edge"><title>67&#45;&gt;9</title>
<path fill="none" stroke="black" d="M3043.5,-36.1285C3043.5,-60.3298 3043.5,-104.789 3043.5,-133.607"/>
<polygon fill="black" stroke="black" points="3043.5,-143.811 3039,-133.811 3043.5,-138.811 3043.5,-133.811 3043.5,-133.811 3043.5,-133.811 3043.5,-138.811 3048,-133.811 3043.5,-143.811 3043.5,-143.811"/>
</g>
<!-- 67&#45;&gt;65 -->
<g id="edge130" class="edge"><title>67&#45;&gt;65</title>
<path fill="none" stroke="black" d="M3016.47,-19.7042C2760.68,-26.3679 767.831,-78.2843 411.077,-87.5782"/>
<polygon fill="black" stroke="black" points="401.003,-87.8406 410.882,-83.0816 406.001,-87.7104 410.999,-87.5801 410.999,-87.5801 410.999,-87.5801 406.001,-87.7104 411.117,-92.0786 401.003,-87.8406 401.003,-87.8406"/>
</g>
<!-- 68 -->
<g id="node69" class="node"><title>68</title>
<polygon fill="none" stroke="black" points="3333,-36 3214,-36 3214,-0 3333,-0 3333,-36"/>
<text text-anchor="middle" x="3273.5" y="-14.3" font-family="Times,serif" font-size="14.00">main_multiplayers</text>
</g>
<!-- 68&#45;&gt;7 -->
<g id="edge131" class="edge"><title>68&#45;&gt;7</title>
<path fill="none" stroke="black" d="M3238.27,-36.1239C3218.92,-45.5307 3194.73,-57.2923 3174.07,-67.3328"/>
<polygon fill="black" stroke="black" points="3164.86,-71.8102 3171.89,-63.3911 3169.36,-69.6243 3173.86,-67.4383 3173.86,-67.4383 3173.86,-67.4383 3169.36,-69.6243 3175.82,-71.4854 3164.86,-71.8102 3164.86,-71.8102"/>
</g>
<!-- 68&#45;&gt;10 -->
<g id="edge132" class="edge"><title>68&#45;&gt;10</title>
<path fill="none" stroke="black" d="M3313.7,-36.063C3330.94,-44.8767 3350.33,-56.9651 3364.5,-72 3381.31,-89.8368 3393.29,-115.161 3400.64,-134.238"/>
<polygon fill="black" stroke="black" points="3404.16,-143.838 3396.49,-135.996 3402.44,-139.143 3400.72,-134.448 3400.72,-134.448 3400.72,-134.448 3402.44,-139.143 3404.94,-132.901 3404.16,-143.838 3404.16,-143.838"/>
</g>
<!-- 68&#45;&gt;66 -->
<g id="edge133" class="edge"><title>68&#45;&gt;66</title>
<path fill="none" stroke="black" d="M3273.5,-36.3034C3273.5,-44.0173 3273.5,-53.2875 3273.5,-61.8876"/>
<polygon fill="black" stroke="black" points="3273.5,-71.8957 3269,-61.8956 3273.5,-66.8957 3273.5,-61.8957 3273.5,-61.8957 3273.5,-61.8957 3273.5,-66.8957 3278,-61.8957 3273.5,-71.8957 3273.5,-71.8957"/>
</g>
</g>
</svg>
