<?xml version="1.0" encoding="UTF-8" standalone="no"?>
<!DOCTYPE svg PUBLIC "-//W3C//DTD SVG 1.1//EN"
 "http://www.w3.org/Graphics/SVG/1.1/DTD/svg11.dtd">
<!-- Generated by graphviz version 2.38.0 (20140413.2041)
 -->
<!-- Title: packages_AlgoBandits Pages: 1 -->
<svg width="4173pt" height="332pt"
 viewBox="0.00 0.00 4172.50 332.00" xmlns="http://www.w3.org/2000/svg" xmlns:xlink="http://www.w3.org/1999/xlink">
<g id="graph0" class="graph" transform="scale(1 1) rotate(0) translate(4 328)">
<title>packages_AlgoBandits</title>
<polygon fill="white" stroke="none" points="-4,4 -4,-328 4168.5,-328 4168.5,4 -4,4"/>
<!-- 0 -->
<g id="node1" class="node"><title>0</title>
<polygon fill="none" stroke="black" points="253,-108 199,-108 199,-72 253,-72 253,-108"/>
<text text-anchor="middle" x="226" y="-86.3" font-family="Times,serif" font-size="14.00">Arms</text>
</g>
<!-- 2 -->
<g id="node3" class="node"><title>2</title>
<polygon fill="none" stroke="black" points="466,-180 364,-180 364,-144 466,-144 466,-180"/>
<text text-anchor="middle" x="415" y="-158.3" font-family="Times,serif" font-size="14.00">Arms.Bernoulli</text>
</g>
<!-- 0&#45;&gt;2 -->
<g id="edge1" class="edge"><title>0&#45;&gt;2</title>
<path fill="none" stroke="black" d="M253.079,-101.029C280.696,-111.258 324.341,-127.423 359.363,-140.394"/>
<polygon fill="black" stroke="black" points="368.992,-143.96 358.052,-144.707 364.303,-142.223 359.614,-140.487 359.614,-140.487 359.614,-140.487 364.303,-142.223 361.177,-136.267 368.992,-143.96 368.992,-143.96"/>
</g>
<!-- 3 -->
<g id="node4" class="node"><title>3</title>
<polygon fill="none" stroke="black" points="116,-180 7.10543e-15,-180 7.10543e-15,-144 116,-144 116,-180"/>
<text text-anchor="middle" x="58" y="-158.3" font-family="Times,serif" font-size="14.00">Arms.Exponential</text>
</g>
<!-- 0&#45;&gt;3 -->
<g id="edge2" class="edge"><title>0&#45;&gt;3</title>
<path fill="none" stroke="black" d="M198.634,-102.403C174.22,-112.575 137.858,-127.726 108.224,-140.073"/>
<polygon fill="black" stroke="black" points="98.8633,-143.974 106.363,-135.974 103.479,-142.051 108.094,-140.127 108.094,-140.127 108.094,-140.127 103.479,-142.051 109.825,-144.281 98.8633,-143.974 98.8633,-143.974"/>
</g>
<!-- 4 -->
<g id="node5" class="node"><title>4</title>
<polygon fill="none" stroke="black" points="235.5,-180 134.5,-180 134.5,-144 235.5,-144 235.5,-180"/>
<text text-anchor="middle" x="185" y="-158.3" font-family="Times,serif" font-size="14.00">Arms.Gaussian</text>
</g>
<!-- 0&#45;&gt;4 -->
<g id="edge3" class="edge"><title>0&#45;&gt;4</title>
<path fill="none" stroke="black" d="M215.865,-108.303C211.148,-116.356 205.438,-126.106 200.218,-135.018"/>
<polygon fill="black" stroke="black" points="195.018,-143.896 196.189,-132.992 197.545,-139.581 200.072,-135.267 200.072,-135.267 200.072,-135.267 197.545,-139.581 203.955,-137.541 195.018,-143.896 195.018,-143.896"/>
</g>
<!-- 5 -->
<g id="node6" class="node"><title>5</title>
<polygon fill="none" stroke="black" points="346.5,-180 253.5,-180 253.5,-144 346.5,-144 346.5,-180"/>
<text text-anchor="middle" x="300" y="-158.3" font-family="Times,serif" font-size="14.00">Arms.Poisson</text>
</g>
<!-- 0&#45;&gt;5 -->
<g id="edge4" class="edge"><title>0&#45;&gt;5</title>
<path fill="none" stroke="black" d="M244.292,-108.303C253.433,-116.95 264.64,-127.551 274.6,-136.973"/>
<polygon fill="black" stroke="black" points="281.918,-143.896 271.561,-140.293 278.286,-140.46 274.654,-137.024 274.654,-137.024 274.654,-137.024 278.286,-140.46 277.746,-133.755 281.918,-143.896 281.918,-143.896"/>
</g>
<!-- 1 -->
<g id="node2" class="node"><title>1</title>
<polygon fill="none" stroke="black" points="96.5,-252 19.5,-252 19.5,-216 96.5,-216 96.5,-252"/>
<text text-anchor="middle" x="58" y="-230.3" font-family="Times,serif" font-size="14.00">Arms.Arm</text>
</g>
<!-- 2&#45;&gt;1 -->
<g id="edge5" class="edge"><title>2&#45;&gt;1</title>
<path fill="none" stroke="black" d="M363.725,-178.013C360.783,-178.723 357.859,-179.392 355,-180 248.308,-202.691 215.739,-189.563 106.303,-215.946"/>
<polygon fill="black" stroke="black" points="96.5347,-218.356 105.166,-211.592 101.389,-217.158 106.244,-215.961 106.244,-215.961 106.244,-215.961 101.389,-217.158 107.321,-220.33 96.5347,-218.356 96.5347,-218.356"/>
</g>
<!-- 3&#45;&gt;1 -->
<g id="edge6" class="edge"><title>3&#45;&gt;1</title>
<path fill="none" stroke="black" d="M58,-180.303C58,-188.017 58,-197.288 58,-205.888"/>
<polygon fill="black" stroke="black" points="58,-215.896 53.5001,-205.896 58,-210.896 58.0001,-205.896 58.0001,-205.896 58.0001,-205.896 58,-210.896 62.5001,-205.896 58,-215.896 58,-215.896"/>
</g>
<!-- 4&#45;&gt;1 -->
<g id="edge7" class="edge"><title>4&#45;&gt;1</title>
<path fill="none" stroke="black" d="M153.932,-180.124C137.173,-189.361 116.294,-200.869 98.2982,-210.788"/>
<polygon fill="black" stroke="black" points="89.1871,-215.81 95.7727,-207.042 93.566,-213.397 97.9449,-210.983 97.9449,-210.983 97.9449,-210.983 93.566,-213.397 100.117,-214.924 89.1871,-215.81 89.1871,-215.81"/>
</g>
<!-- 5&#45;&gt;1 -->
<g id="edge8" class="edge"><title>5&#45;&gt;1</title>
<path fill="none" stroke="black" d="M253.291,-177.337C250.151,-178.252 247.032,-179.148 244,-180 185.566,-196.429 167.69,-197.099 106.422,-215.693"/>
<polygon fill="black" stroke="black" points="96.6316,-218.702 104.868,-211.462 101.411,-217.233 106.19,-215.764 106.19,-215.764 106.19,-215.764 101.411,-217.233 107.513,-220.065 96.6316,-218.702 96.6316,-218.702"/>
</g>
<!-- 6 -->
<g id="node7" class="node"><title>6</title>
<polygon fill="none" stroke="black" points="3103,-108 3015,-108 3015,-72 3103,-72 3103,-108"/>
<text text-anchor="middle" x="3059" y="-86.3" font-family="Times,serif" font-size="14.00">Environment</text>
</g>
<!-- 8 -->
<g id="node9" class="node"><title>8</title>
<polygon fill="none" stroke="black" points="3231,-180 3087,-180 3087,-144 3231,-144 3231,-180"/>
<text text-anchor="middle" x="3159" y="-158.3" font-family="Times,serif" font-size="14.00">Environment.Evaluator</text>
</g>
<!-- 6&#45;&gt;8 -->
<g id="edge9" class="edge"><title>6&#45;&gt;8</title>
<path fill="none" stroke="black" d="M3083.46,-108.124C3096.3,-117.107 3112.2,-128.237 3126.09,-137.966"/>
<polygon fill="black" stroke="black" points="3134.44,-143.81 3123.67,-141.762 3130.35,-140.943 3126.25,-138.076 3126.25,-138.076 3126.25,-138.076 3130.35,-140.943 3128.83,-134.389 3134.44,-143.81 3134.44,-143.81"/>
</g>
<!-- 9 -->
<g id="node10" class="node"><title>9</title>
<polygon fill="none" stroke="black" points="3030.5,-180 2815.5,-180 2815.5,-144 3030.5,-144 3030.5,-180"/>
<text text-anchor="middle" x="2923" y="-158.3" font-family="Times,serif" font-size="14.00">Environment.EvaluatorMultiPlayers</text>
</g>
<!-- 6&#45;&gt;9 -->
<g id="edge10" class="edge"><title>6&#45;&gt;9</title>
<path fill="none" stroke="black" d="M3025.73,-108.124C3007.54,-117.488 2984.81,-129.186 2965.36,-139.197"/>
<polygon fill="black" stroke="black" points="2956.4,-143.81 2963.23,-135.233 2960.84,-141.522 2965.29,-139.234 2965.29,-139.234 2965.29,-139.234 2960.84,-141.522 2967.35,-143.235 2956.4,-143.81 2956.4,-143.81"/>
</g>
<!-- 10 -->
<g id="node11" class="node"><title>10</title>
<polygon fill="none" stroke="black" points="3120.5,-252 2997.5,-252 2997.5,-216 3120.5,-216 3120.5,-252"/>
<text text-anchor="middle" x="3059" y="-230.3" font-family="Times,serif" font-size="14.00">Environment.MAB</text>
</g>
<!-- 6&#45;&gt;10 -->
<g id="edge11" class="edge"><title>6&#45;&gt;10</title>
<path fill="none" stroke="black" d="M3059,-108.129C3059,-132.33 3059,-176.789 3059,-205.607"/>
<polygon fill="black" stroke="black" points="3059,-215.811 3054.5,-205.811 3059,-210.811 3059,-205.811 3059,-205.811 3059,-205.811 3059,-210.811 3063.5,-205.811 3059,-215.811 3059,-215.811"/>
</g>
<!-- 11 -->
<g id="node12" class="node"><title>11</title>
<polygon fill="none" stroke="black" points="3483,-252 3357,-252 3357,-216 3483,-216 3483,-252"/>
<text text-anchor="middle" x="3420" y="-230.3" font-family="Times,serif" font-size="14.00">Environment.Result</text>
</g>
<!-- 6&#45;&gt;11 -->
<g id="edge12" class="edge"><title>6&#45;&gt;11</title>
<path fill="none" stroke="black" d="M3103.24,-101.647C3140.33,-111.12 3194.4,-126.206 3240,-144 3289.79,-163.426 3344.49,-191.502 3380.37,-210.901"/>
<polygon fill="black" stroke="black" points="3389.53,-215.882 3378.59,-215.054 3385.13,-213.492 3380.74,-211.102 3380.74,-211.102 3380.74,-211.102 3385.13,-213.492 3382.89,-207.149 3389.53,-215.882 3389.53,-215.882"/>
</g>
<!-- 7 -->
<g id="node8" class="node"><title>7</title>
<polygon fill="none" stroke="black" points="2764,-252 2582,-252 2582,-216 2764,-216 2764,-252"/>
<text text-anchor="middle" x="2673" y="-230.3" font-family="Times,serif" font-size="14.00">Environment.CollisionModels</text>
</g>
<!-- 8&#45;&gt;10 -->
<g id="edge13" class="edge"><title>8&#45;&gt;10</title>
<path fill="none" stroke="black" d="M3134.54,-180.124C3121.7,-189.107 3105.8,-200.237 3091.91,-209.966"/>
<polygon fill="black" stroke="black" points="3083.56,-215.81 3089.17,-206.389 3087.65,-212.943 3091.75,-210.076 3091.75,-210.076 3091.75,-210.076 3087.65,-212.943 3094.33,-213.762 3083.56,-215.81 3083.56,-215.81"/>
</g>
<!-- 8&#45;&gt;11 -->
<g id="edge14" class="edge"><title>8&#45;&gt;11</title>
<path fill="none" stroke="black" d="M3222.51,-180.034C3260.07,-190.107 3307.79,-202.904 3346.91,-213.396"/>
<polygon fill="black" stroke="black" points="3356.65,-216.011 3345.83,-217.767 3351.82,-214.715 3347,-213.42 3347,-213.42 3347,-213.42 3351.82,-214.715 3348.16,-209.074 3356.65,-216.011 3356.65,-216.011"/>
</g>
<!-- 13 -->
<g id="node14" class="node"><title>13</title>
<polygon fill="none" stroke="black" points="3339,-252 3139,-252 3139,-216 3339,-216 3339,-252"/>
<text text-anchor="middle" x="3239" y="-230.3" font-family="Times,serif" font-size="14.00">Environment._maximizeWindow</text>
</g>
<!-- 8&#45;&gt;13 -->
<g id="edge15" class="edge"><title>8&#45;&gt;13</title>
<path fill="none" stroke="black" d="M3178.78,-180.303C3188.75,-189.035 3201.01,-199.76 3211.86,-209.25"/>
<polygon fill="black" stroke="black" points="3219.45,-215.896 3208.96,-212.697 3215.69,-212.603 3211.93,-209.311 3211.93,-209.311 3211.93,-209.311 3215.69,-212.603 3214.89,-205.924 3219.45,-215.896 3219.45,-215.896"/>
</g>
<!-- 9&#45;&gt;7 -->
<g id="edge16" class="edge"><title>9&#45;&gt;7</title>
<path fill="none" stroke="black" d="M2862.16,-180.034C2826.47,-190.028 2781.21,-202.702 2743.91,-213.146"/>
<polygon fill="black" stroke="black" points="2734.11,-215.889 2742.53,-208.859 2738.92,-214.541 2743.74,-213.193 2743.74,-213.193 2743.74,-213.193 2738.92,-214.541 2744.95,-217.526 2734.11,-215.889 2734.11,-215.889"/>
</g>
<!-- 9&#45;&gt;10 -->
<g id="edge17" class="edge"><title>9&#45;&gt;10</title>
<path fill="none" stroke="black" d="M2956.27,-180.124C2974.46,-189.488 2997.19,-201.186 3016.64,-211.197"/>
<polygon fill="black" stroke="black" points="3025.6,-215.81 3014.65,-215.235 3021.16,-213.522 3016.71,-211.234 3016.71,-211.234 3016.71,-211.234 3021.16,-213.522 3018.77,-207.233 3025.6,-215.81 3025.6,-215.81"/>
</g>
<!-- 12 -->
<g id="node13" class="node"><title>12</title>
<polygon fill="none" stroke="black" points="2979.5,-252 2782.5,-252 2782.5,-216 2979.5,-216 2979.5,-252"/>
<text text-anchor="middle" x="2881" y="-230.3" font-family="Times,serif" font-size="14.00">Environment.ResultMultiPlayers</text>
</g>
<!-- 9&#45;&gt;12 -->
<g id="edge18" class="edge"><title>9&#45;&gt;12</title>
<path fill="none" stroke="black" d="M2912.62,-180.303C2907.74,-188.441 2901.81,-198.311 2896.42,-207.299"/>
<polygon fill="black" stroke="black" points="2891.26,-215.896 2892.55,-205.005 2893.84,-211.608 2896.41,-207.321 2896.41,-207.321 2896.41,-207.321 2893.84,-211.608 2900.27,-209.636 2891.26,-215.896 2891.26,-215.896"/>
</g>
<!-- 9&#45;&gt;13 -->
<g id="edge19" class="edge"><title>9&#45;&gt;13</title>
<path fill="none" stroke="black" d="M2999.9,-180.034C3045.86,-190.217 3104.39,-203.182 3152.04,-213.736"/>
<polygon fill="black" stroke="black" points="3162.03,-215.95 3151.29,-218.181 3157.15,-214.869 3152.27,-213.787 3152.27,-213.787 3152.27,-213.787 3157.15,-214.869 3153.24,-209.394 3162.03,-215.95 3162.03,-215.95"/>
</g>
<!-- 14 -->
<g id="node15" class="node"><title>14</title>
<polygon fill="none" stroke="black" points="1389.5,-180 1330.5,-180 1330.5,-144 1389.5,-144 1389.5,-180"/>
<text text-anchor="middle" x="1360" y="-158.3" font-family="Times,serif" font-size="14.00">Policies</text>
</g>
<!-- 15 -->
<g id="node16" class="node"><title>15</title>
<polygon fill="none" stroke="black" points="235.5,-252 114.5,-252 114.5,-216 235.5,-216 235.5,-252"/>
<text text-anchor="middle" x="175" y="-230.3" font-family="Times,serif" font-size="14.00">Policies.AdBandits</text>
</g>
<!-- 14&#45;&gt;15 -->
<g id="edge20" class="edge"><title>14&#45;&gt;15</title>
<path fill="none" stroke="black" d="M1330.5,-163.64C1178.67,-167.049 483.634,-184.069 245.542,-216.15"/>
<polygon fill="black" stroke="black" points="235.568,-217.542 244.851,-211.703 240.52,-216.851 245.472,-216.16 245.472,-216.16 245.472,-216.16 240.52,-216.851 246.094,-220.617 235.568,-217.542 235.568,-217.542"/>
</g>
<!-- 16 -->
<g id="node17" class="node"><title>16</title>
<polygon fill="none" stroke="black" points="1016.5,-252 925.5,-252 925.5,-216 1016.5,-216 1016.5,-252"/>
<text text-anchor="middle" x="971" y="-230.3" font-family="Times,serif" font-size="14.00">Policies.Aggr</text>
</g>
<!-- 14&#45;&gt;16 -->
<g id="edge21" class="edge"><title>14&#45;&gt;16</title>
<path fill="none" stroke="black" d="M1330.14,-166.219C1272.86,-172.715 1143.53,-188.932 1026.38,-215.849"/>
<polygon fill="black" stroke="black" points="1016.53,-218.144 1025.25,-211.492 1021.4,-217.009 1026.27,-215.874 1026.27,-215.874 1026.27,-215.874 1021.4,-217.009 1027.29,-220.257 1016.53,-218.144 1016.53,-218.144"/>
</g>
<!-- 17 -->
<g id="node18" class="node"><title>17</title>
<polygon fill="none" stroke="black" points="378,-252 254,-252 254,-216 378,-216 378,-252"/>
<text text-anchor="middle" x="316" y="-230.3" font-family="Times,serif" font-size="14.00">Policies.BayesUCB</text>
</g>
<!-- 14&#45;&gt;17 -->
<g id="edge22" class="edge"><title>14&#45;&gt;17</title>
<path fill="none" stroke="black" d="M1330.35,-162.672C1212.28,-161.768 764.103,-162.198 388.197,-215.988"/>
<polygon fill="black" stroke="black" points="378.215,-217.432 387.468,-211.547 383.163,-216.716 388.112,-216 388.112,-216 388.112,-216 383.163,-216.716 388.756,-220.454 378.215,-217.432 378.215,-217.432"/>
</g>
<!-- 19 -->
<g id="node20" class="node"><title>19</title>
<polygon fill="none" stroke="black" points="1199.5,-252 1034.5,-252 1034.5,-216 1199.5,-216 1199.5,-252"/>
<text text-anchor="middle" x="1117" y="-230.3" font-family="Times,serif" font-size="14.00">Policies.EpsilonDecreasing</text>
</g>
<!-- 14&#45;&gt;19 -->
<g id="edge23" class="edge"><title>14&#45;&gt;19</title>
<path fill="none" stroke="black" d="M1330.2,-171.583C1294.52,-181.864 1233.59,-199.414 1185.98,-213.128"/>
<polygon fill="black" stroke="black" points="1176.35,-215.904 1184.71,-208.812 1181.15,-214.52 1185.96,-213.136 1185.96,-213.136 1185.96,-213.136 1181.15,-214.52 1187.2,-217.46 1176.35,-215.904 1176.35,-215.904"/>
</g>
<!-- 20 -->
<g id="node21" class="node"><title>20</title>
<polygon fill="none" stroke="black" points="1346.5,-252 1217.5,-252 1217.5,-216 1346.5,-216 1346.5,-252"/>
<text text-anchor="middle" x="1282" y="-230.3" font-family="Times,serif" font-size="14.00">Policies.EpsilonFirst</text>
</g>
<!-- 14&#45;&gt;20 -->
<g id="edge24" class="edge"><title>14&#45;&gt;20</title>
<path fill="none" stroke="black" d="M1340.72,-180.303C1331.08,-188.95 1319.27,-199.551 1308.77,-208.973"/>
<polygon fill="black" stroke="black" points="1301.06,-215.896 1305.5,-205.867 1304.78,-212.556 1308.5,-209.217 1308.5,-209.217 1308.5,-209.217 1304.78,-212.556 1311.51,-212.566 1301.06,-215.896 1301.06,-215.896"/>
</g>
<!-- 21 -->
<g id="node22" class="node"><title>21</title>
<polygon fill="none" stroke="black" points="1509,-252 1365,-252 1365,-216 1509,-216 1509,-252"/>
<text text-anchor="middle" x="1437" y="-230.3" font-family="Times,serif" font-size="14.00">Policies.EpsilonGreedy</text>
</g>
<!-- 14&#45;&gt;21 -->
<g id="edge25" class="edge"><title>14&#45;&gt;21</title>
<path fill="none" stroke="black" d="M1379.03,-180.303C1388.54,-188.95 1400.21,-199.551 1410.57,-208.973"/>
<polygon fill="black" stroke="black" points="1418.19,-215.896 1407.76,-212.499 1414.49,-212.532 1410.79,-209.169 1410.79,-209.169 1410.79,-209.169 1414.49,-212.532 1413.81,-205.839 1418.19,-215.896 1418.19,-215.896"/>
</g>
<!-- 24 -->
<g id="node25" class="node"><title>24</title>
<polygon fill="none" stroke="black" points="1637,-252 1527,-252 1527,-216 1637,-216 1637,-252"/>
<text text-anchor="middle" x="1582" y="-230.3" font-family="Times,serif" font-size="14.00">Policies.Softmax</text>
</g>
<!-- 14&#45;&gt;24 -->
<g id="edge26" class="edge"><title>14&#45;&gt;24</title>
<path fill="none" stroke="black" d="M1389.94,-172.441C1422.66,-182.758 1476.04,-199.59 1518.23,-212.894"/>
<polygon fill="black" stroke="black" points="1527.87,-215.933 1516.98,-217.218 1523.11,-214.43 1518.34,-212.926 1518.34,-212.926 1518.34,-212.926 1523.11,-214.43 1519.69,-208.634 1527.87,-215.933 1527.87,-215.933"/>
</g>
<!-- 25 -->
<g id="node26" class="node"><title>25</title>
<polygon fill="none" stroke="black" points="1801,-252 1655,-252 1655,-216 1801,-216 1801,-252"/>
<text text-anchor="middle" x="1728" y="-230.3" font-family="Times,serif" font-size="14.00">Policies.TakeFixedArm</text>
</g>
<!-- 14&#45;&gt;25 -->
<g id="edge27" class="edge"><title>14&#45;&gt;25</title>
<path fill="none" stroke="black" d="M1389.68,-168.287C1440,-177.296 1545.51,-196.383 1644.8,-215.784"/>
<polygon fill="black" stroke="black" points="1654.7,-217.723 1644.02,-220.216 1649.79,-216.762 1644.88,-215.8 1644.88,-215.8 1644.88,-215.8 1649.79,-216.762 1645.75,-211.384 1654.7,-217.723 1654.7,-217.723"/>
</g>
<!-- 26 -->
<g id="node27" class="node"><title>26</title>
<polygon fill="none" stroke="black" points="2012.5,-252 1819.5,-252 1819.5,-216 2012.5,-216 2012.5,-252"/>
<text text-anchor="middle" x="1916" y="-230.3" font-family="Times,serif" font-size="14.00">Policies.TakeRandomFixedArm</text>
</g>
<!-- 14&#45;&gt;26 -->
<g id="edge28" class="edge"><title>14&#45;&gt;26</title>
<path fill="none" stroke="black" d="M1389.54,-166.047C1460.07,-173.415 1644.08,-193.179 1808.93,-215.885"/>
<polygon fill="black" stroke="black" points="1819.26,-217.315 1808.74,-220.401 1814.31,-216.629 1809.36,-215.943 1809.36,-215.943 1809.36,-215.943 1814.31,-216.629 1809.97,-211.486 1819.26,-217.315 1819.26,-217.315"/>
</g>
<!-- 27 -->
<g id="node28" class="node"><title>27</title>
<polygon fill="none" stroke="black" points="518,-252 396,-252 396,-216 518,-216 518,-252"/>
<text text-anchor="middle" x="457" y="-230.3" font-family="Times,serif" font-size="14.00">Policies.Thompson</text>
</g>
<!-- 14&#45;&gt;27 -->
<g id="edge29" class="edge"><title>14&#45;&gt;27</title>
<path fill="none" stroke="black" d="M1330.29,-163.021C1223.18,-163.487 846.805,-168.512 528.682,-215.903"/>
<polygon fill="black" stroke="black" points="518.339,-217.462 527.557,-211.521 523.284,-216.716 528.228,-215.971 528.228,-215.971 528.228,-215.971 523.284,-216.716 528.898,-220.421 518.339,-217.462 518.339,-217.462"/>
</g>
<!-- 28 -->
<g id="node29" class="node"><title>28</title>
<polygon fill="none" stroke="black" points="2121.5,-252 2030.5,-252 2030.5,-216 2121.5,-216 2121.5,-252"/>
<text text-anchor="middle" x="2076" y="-230.3" font-family="Times,serif" font-size="14.00">Policies.UCB</text>
</g>
<!-- 14&#45;&gt;28 -->
<g id="edge30" class="edge"><title>14&#45;&gt;28</title>
<path fill="none" stroke="black" d="M1389.63,-163.068C1481.97,-163.765 1772.67,-169.612 2020.37,-216.155"/>
<polygon fill="black" stroke="black" points="2030.28,-218.043 2019.61,-220.591 2025.36,-217.107 2020.45,-216.171 2020.45,-216.171 2020.45,-216.171 2025.36,-217.107 2021.29,-211.75 2030.28,-218.043 2030.28,-218.043"/>
</g>
<!-- 29 -->
<g id="node30" class="node"><title>29</title>
<polygon fill="none" stroke="black" points="637.5,-252 536.5,-252 536.5,-216 637.5,-216 637.5,-252"/>
<text text-anchor="middle" x="587" y="-230.3" font-family="Times,serif" font-size="14.00">Policies.UCBV</text>
</g>
<!-- 14&#45;&gt;29 -->
<g id="edge31" class="edge"><title>14&#45;&gt;29</title>
<path fill="none" stroke="black" d="M1330.48,-163.019C1233.56,-163.537 916.316,-168.839 647.63,-215.91"/>
<polygon fill="black" stroke="black" points="637.692,-217.674 646.751,-211.496 642.615,-216.8 647.538,-215.926 647.538,-215.926 647.538,-215.926 642.615,-216.8 648.324,-220.357 637.692,-217.674 637.692,-217.674"/>
</g>
<!-- 30 -->
<g id="node31" class="node"><title>30</title>
<polygon fill="none" stroke="black" points="2260,-252 2140,-252 2140,-216 2260,-216 2260,-252"/>
<text text-anchor="middle" x="2200" y="-230.3" font-family="Times,serif" font-size="14.00">Policies.UCBalpha</text>
</g>
<!-- 14&#45;&gt;30 -->
<g id="edge32" class="edge"><title>14&#45;&gt;30</title>
<path fill="none" stroke="black" d="M1389.57,-163.237C1491.29,-164.427 1836.1,-171.587 2129.81,-216.161"/>
<polygon fill="black" stroke="black" points="2139.8,-217.694 2129.23,-220.625 2134.86,-216.935 2129.92,-216.177 2129.92,-216.177 2129.92,-216.177 2134.86,-216.935 2130.6,-211.729 2139.8,-217.694 2139.8,-217.694"/>
</g>
<!-- 31 -->
<g id="node32" class="node"><title>31</title>
<polygon fill="none" stroke="black" points="2388,-252 2278,-252 2278,-216 2388,-216 2388,-252"/>
<text text-anchor="middle" x="2333" y="-230.3" font-family="Times,serif" font-size="14.00">Policies.Uniform</text>
</g>
<!-- 14&#45;&gt;31 -->
<g id="edge33" class="edge"><title>14&#45;&gt;31</title>
<path fill="none" stroke="black" d="M1389.66,-162.572C1502.91,-161.387 1918.75,-161.151 2267.94,-216.038"/>
<polygon fill="black" stroke="black" points="2277.99,-217.636 2267.41,-220.51 2273.06,-216.851 2268.12,-216.066 2268.12,-216.066 2268.12,-216.066 2273.06,-216.851 2268.82,-211.621 2277.99,-217.636 2277.99,-217.636"/>
</g>
<!-- 32 -->
<g id="node33" class="node"><title>32</title>
<polygon fill="none" stroke="black" points="2564,-252 2406,-252 2406,-216 2564,-216 2564,-252"/>
<text text-anchor="middle" x="2485" y="-230.3" font-family="Times,serif" font-size="14.00">Policies.UniformOnSome</text>
</g>
<!-- 14&#45;&gt;32 -->
<g id="edge34" class="edge"><title>14&#45;&gt;32</title>
<path fill="none" stroke="black" d="M1389.83,-163.003C1512.8,-163.335 1992.56,-167.749 2395.82,-215.964"/>
<polygon fill="black" stroke="black" points="2405.93,-217.184 2395.46,-220.454 2400.96,-216.585 2396,-215.986 2396,-215.986 2396,-215.986 2400.96,-216.585 2396.54,-211.519 2405.93,-217.184 2405.93,-217.184"/>
</g>
<!-- 33 -->
<g id="node34" class="node"><title>33</title>
<polygon fill="none" stroke="black" points="907.5,-252 806.5,-252 806.5,-216 907.5,-216 907.5,-252"/>
<text text-anchor="middle" x="857" y="-230.3" font-family="Times,serif" font-size="14.00">Policies.klUCB</text>
</g>
<!-- 14&#45;&gt;33 -->
<g id="edge35" class="edge"><title>14&#45;&gt;33</title>
<path fill="none" stroke="black" d="M1330.38,-164.873C1260.15,-169.668 1077.95,-184.169 917.752,-215.812"/>
<polygon fill="black" stroke="black" points="907.72,-217.822 916.641,-211.445 912.622,-216.839 917.525,-215.857 917.525,-215.857 917.525,-215.857 912.622,-216.839 918.409,-220.269 907.72,-217.822 907.72,-217.822"/>
</g>
<!-- 18 -->
<g id="node19" class="node"><title>18</title>
<polygon fill="none" stroke="black" points="360,-324 272,-324 272,-288 360,-288 360,-324"/>
<text text-anchor="middle" x="316" y="-302.3" font-family="Times,serif" font-size="14.00">Policies.Beta</text>
</g>
<!-- 15&#45;&gt;18 -->
<g id="edge36" class="edge"><title>15&#45;&gt;18</title>
<path fill="none" stroke="black" d="M209.492,-252.124C228.44,-261.531 252.132,-273.292 272.356,-283.333"/>
<polygon fill="black" stroke="black" points="281.375,-287.81 270.417,-287.394 276.896,-285.587 272.418,-283.363 272.418,-283.363 272.418,-283.363 276.896,-285.587 274.419,-279.333 281.375,-287.81 281.375,-287.81"/>
</g>
<!-- 17&#45;&gt;18 -->
<g id="edge37" class="edge"><title>17&#45;&gt;18</title>
<path fill="none" stroke="black" d="M316,-252.303C316,-260.017 316,-269.288 316,-277.888"/>
<polygon fill="black" stroke="black" points="316,-287.896 311.5,-277.896 316,-282.896 316,-277.896 316,-277.896 316,-277.896 316,-282.896 320.5,-277.896 316,-287.896 316,-287.896"/>
</g>
<!-- 22 -->
<g id="node23" class="node"><title>22</title>
<polygon fill="none" stroke="black" points="651,-324 523,-324 523,-288 651,-288 651,-324"/>
<text text-anchor="middle" x="587" y="-302.3" font-family="Times,serif" font-size="14.00">Policies.IndexPolicy</text>
</g>
<!-- 17&#45;&gt;22 -->
<g id="edge38" class="edge"><title>17&#45;&gt;22</title>
<path fill="none" stroke="black" d="M378.173,-251.059C418.331,-261.432 470.785,-274.981 513.075,-285.905"/>
<polygon fill="black" stroke="black" points="522.762,-288.407 511.954,-290.263 517.921,-287.157 513.08,-285.906 513.08,-285.906 513.08,-285.906 517.921,-287.157 514.205,-281.549 522.762,-288.407 522.762,-288.407"/>
</g>
<!-- 23 -->
<g id="node24" class="node"><title>23</title>
<polygon fill="none" stroke="black" points="788.5,-252 655.5,-252 655.5,-216 788.5,-216 788.5,-252"/>
<text text-anchor="middle" x="722" y="-230.3" font-family="Times,serif" font-size="14.00">Policies.KLempUCB</text>
</g>
<!-- 23&#45;&gt;22 -->
<g id="edge39" class="edge"><title>23&#45;&gt;22</title>
<path fill="none" stroke="black" d="M688.975,-252.124C670.915,-261.488 648.355,-273.186 629.049,-283.197"/>
<polygon fill="black" stroke="black" points="620.152,-287.81 626.958,-279.212 624.59,-285.509 629.029,-283.207 629.029,-283.207 629.029,-283.207 624.59,-285.509 631.101,-287.202 620.152,-287.81 620.152,-287.81"/>
</g>
<!-- 34 -->
<g id="node35" class="node"><title>34</title>
<polygon fill="none" stroke="black" points="845,-324 735,-324 735,-288 845,-288 845,-324"/>
<text text-anchor="middle" x="790" y="-302.3" font-family="Times,serif" font-size="14.00">Policies.kullback</text>
</g>
<!-- 23&#45;&gt;34 -->
<g id="edge40" class="edge"><title>23&#45;&gt;34</title>
<path fill="none" stroke="black" d="M738.809,-252.303C747.126,-260.865 757.305,-271.344 766.39,-280.696"/>
<polygon fill="black" stroke="black" points="773.384,-287.896 763.189,-283.858 769.9,-284.309 766.416,-280.723 766.416,-280.723 766.416,-280.723 769.9,-284.309 769.644,-277.587 773.384,-287.896 773.384,-287.896"/>
</g>
<!-- 27&#45;&gt;18 -->
<g id="edge41" class="edge"><title>27&#45;&gt;18</title>
<path fill="none" stroke="black" d="M422.508,-252.124C403.56,-261.531 379.868,-273.292 359.644,-283.333"/>
<polygon fill="black" stroke="black" points="350.625,-287.81 357.581,-279.333 355.104,-285.587 359.582,-283.363 359.582,-283.363 359.582,-283.363 355.104,-285.587 361.583,-287.394 350.625,-287.81 350.625,-287.81"/>
</g>
<!-- 27&#45;&gt;22 -->
<g id="edge42" class="edge"><title>27&#45;&gt;22</title>
<path fill="none" stroke="black" d="M488.802,-252.124C506.114,-261.446 527.721,-273.081 546.256,-283.061"/>
<polygon fill="black" stroke="black" points="555.076,-287.81 544.138,-287.031 550.674,-285.44 546.271,-283.069 546.271,-283.069 546.271,-283.069 550.674,-285.44 548.405,-279.107 555.076,-287.81 555.076,-287.81"/>
</g>
<!-- 29&#45;&gt;22 -->
<g id="edge43" class="edge"><title>29&#45;&gt;22</title>
<path fill="none" stroke="black" d="M587,-252.303C587,-260.017 587,-269.288 587,-277.888"/>
<polygon fill="black" stroke="black" points="587,-287.896 582.5,-277.896 587,-282.896 587,-277.896 587,-277.896 587,-277.896 587,-282.896 591.5,-277.896 587,-287.896 587,-287.896"/>
</g>
<!-- 33&#45;&gt;22 -->
<g id="edge44" class="edge"><title>33&#45;&gt;22</title>
<path fill="none" stroke="black" d="M806.289,-249.479C803.149,-250.341 800.033,-251.188 797,-252 752.036,-264.041 701.453,-276.83 661.199,-286.828"/>
<polygon fill="black" stroke="black" points="651.461,-289.242 660.085,-282.468 656.314,-288.039 661.167,-286.836 661.167,-286.836 661.167,-286.836 656.314,-288.039 662.25,-291.204 651.461,-289.242 651.461,-289.242"/>
</g>
<!-- 33&#45;&gt;34 -->
<g id="edge45" class="edge"><title>33&#45;&gt;34</title>
<path fill="none" stroke="black" d="M840.438,-252.303C832.325,-260.78 822.412,-271.136 813.529,-280.417"/>
<polygon fill="black" stroke="black" points="806.371,-287.896 810.035,-277.56 809.829,-284.284 813.286,-280.671 813.286,-280.671 813.286,-280.671 809.829,-284.284 816.537,-283.783 806.371,-287.896 806.371,-287.896"/>
</g>
<!-- 35 -->
<g id="node36" class="node"><title>35</title>
<polygon fill="none" stroke="black" points="3798,-180 3668,-180 3668,-144 3798,-144 3798,-180"/>
<text text-anchor="middle" x="3733" y="-158.3" font-family="Times,serif" font-size="14.00">PoliciesMultiPlayers</text>
</g>
<!-- 36 -->
<g id="node37" class="node"><title>36</title>
<polygon fill="none" stroke="black" points="3719,-252 3501,-252 3501,-216 3719,-216 3719,-252"/>
<text text-anchor="middle" x="3610" y="-230.3" font-family="Times,serif" font-size="14.00">PoliciesMultiPlayers.CentralizedFair</text>
</g>
<!-- 35&#45;&gt;36 -->
<g id="edge46" class="edge"><title>35&#45;&gt;36</title>
<path fill="none" stroke="black" d="M3702.91,-180.124C3686.68,-189.361 3666.46,-200.869 3649.03,-210.788"/>
<polygon fill="black" stroke="black" points="3640.2,-215.81 3646.67,-206.953 3644.55,-213.337 3648.9,-210.864 3648.9,-210.864 3648.9,-210.864 3644.55,-213.337 3651.12,-214.775 3640.2,-215.81 3640.2,-215.81"/>
</g>
<!-- 37 -->
<g id="node38" class="node"><title>37</title>
<polygon fill="none" stroke="black" points="3975,-252 3737,-252 3737,-216 3975,-216 3975,-252"/>
<text text-anchor="middle" x="3856" y="-230.3" font-family="Times,serif" font-size="14.00">PoliciesMultiPlayers.CentralizedNotFair</text>
</g>
<!-- 35&#45;&gt;37 -->
<g id="edge47" class="edge"><title>35&#45;&gt;37</title>
<path fill="none" stroke="black" d="M3763.09,-180.124C3779.32,-189.361 3799.54,-200.869 3816.97,-210.788"/>
<polygon fill="black" stroke="black" points="3825.8,-215.81 3814.88,-214.775 3821.45,-213.337 3817.1,-210.864 3817.1,-210.864 3817.1,-210.864 3821.45,-213.337 3819.33,-206.953 3825.8,-215.81 3825.8,-215.81"/>
</g>
<!-- 41 -->
<g id="node42" class="node"><title>41</title>
<polygon fill="none" stroke="black" points="4164.5,-252 3993.5,-252 3993.5,-216 4164.5,-216 4164.5,-252"/>
<text text-anchor="middle" x="4079" y="-230.3" font-family="Times,serif" font-size="14.00">PoliciesMultiPlayers.Selfish</text>
</g>
<!-- 35&#45;&gt;41 -->
<g id="edge48" class="edge"><title>35&#45;&gt;41</title>
<path fill="none" stroke="black" d="M3798.08,-176.166C3850.73,-186.818 3925.58,-201.96 3984.78,-213.937"/>
<polygon fill="black" stroke="black" points="3994.89,-215.983 3984.19,-218.41 3989.99,-214.991 3985.08,-214 3985.08,-214 3985.08,-214 3989.99,-214.991 3985.98,-209.589 3994.89,-215.983 3994.89,-215.983"/>
</g>
<!-- 38 -->
<g id="node39" class="node"><title>38</title>
<polygon fill="none" stroke="black" points="3957.5,-324 3754.5,-324 3754.5,-288 3957.5,-288 3957.5,-324"/>
<text text-anchor="middle" x="3856" y="-302.3" font-family="Times,serif" font-size="14.00">PoliciesMultiPlayers.ChildPointer</text>
</g>
<!-- 36&#45;&gt;38 -->
<g id="edge49" class="edge"><title>36&#45;&gt;38</title>
<path fill="none" stroke="black" d="M3669.86,-252.034C3704.98,-262.028 3749.52,-274.702 3786.23,-285.146"/>
<polygon fill="black" stroke="black" points="3795.87,-287.889 3785.02,-289.48 3791.06,-286.521 3786.25,-285.152 3786.25,-285.152 3786.25,-285.152 3791.06,-286.521 3787.48,-280.824 3795.87,-287.889 3795.87,-287.889"/>
</g>
<!-- 37&#45;&gt;38 -->
<g id="edge50" class="edge"><title>37&#45;&gt;38</title>
<path fill="none" stroke="black" d="M3856,-252.303C3856,-260.017 3856,-269.288 3856,-277.888"/>
<polygon fill="black" stroke="black" points="3856,-287.896 3851.5,-277.896 3856,-282.896 3856,-277.896 3856,-277.896 3856,-277.896 3856,-282.896 3860.5,-277.896 3856,-287.896 3856,-287.896"/>
</g>
<!-- 39 -->
<g id="node40" class="node"><title>39</title>
<polygon fill="none" stroke="black" points="3278,-36 3104,-36 3104,-0 3278,-0 3278,-36"/>
<text text-anchor="middle" x="3191" y="-14.3" font-family="Times,serif" font-size="14.00">PoliciesMultiPlayers.MEGA</text>
</g>
<!-- 40 -->
<g id="node41" class="node"><title>40</title>
<polygon fill="none" stroke="black" points="3481.5,-36 3296.5,-36 3296.5,-0 3481.5,-0 3481.5,-36"/>
<text text-anchor="middle" x="3389" y="-14.3" font-family="Times,serif" font-size="14.00">PoliciesMultiPlayers.RhoRand</text>
</g>
<!-- 41&#45;&gt;38 -->
<g id="edge51" class="edge"><title>41&#45;&gt;38</title>
<path fill="none" stroke="black" d="M4024.73,-252.034C3993.17,-261.943 3953.21,-274.486 3920.1,-284.879"/>
<polygon fill="black" stroke="black" points="3910.51,-287.889 3918.7,-280.601 3915.28,-286.392 3920.05,-284.894 3920.05,-284.894 3920.05,-284.894 3915.28,-286.392 3921.4,-289.188 3910.51,-287.889 3910.51,-287.889"/>
</g>
<!-- 42 -->
<g id="node43" class="node"><title>42</title>
<polygon fill="none" stroke="black" points="3666.5,-36 3499.5,-36 3499.5,-0 3666.5,-0 3666.5,-36"/>
<text text-anchor="middle" x="3583" y="-14.3" font-family="Times,serif" font-size="14.00">PoliciesMultiPlayers.TDFS</text>
</g>
<!-- 43 -->
<g id="node44" class="node"><title>43</title>
<polygon fill="none" stroke="black" points="402.5,-108 313.5,-108 313.5,-72 402.5,-72 402.5,-108"/>
<text text-anchor="middle" x="358" y="-86.3" font-family="Times,serif" font-size="14.00">configuration</text>
</g>
<!-- 43&#45;&gt;2 -->
<g id="edge52" class="edge"><title>43&#45;&gt;2</title>
<path fill="none" stroke="black" d="M372.09,-108.303C378.923,-116.695 387.257,-126.93 394.756,-136.139"/>
<polygon fill="black" stroke="black" points="401.072,-143.896 391.268,-138.983 397.915,-140.018 394.758,-136.141 394.758,-136.141 394.758,-136.141 397.915,-140.018 398.247,-133.3 401.072,-143.896 401.072,-143.896"/>
</g>
<!-- 43&#45;&gt;3 -->
<g id="edge53" class="edge"><title>43&#45;&gt;3</title>
<path fill="none" stroke="black" d="M313.255,-100.832C268.4,-110.766 197.106,-126.763 126.098,-143.764"/>
<polygon fill="black" stroke="black" points="116.083,-146.169 124.756,-139.458 120.945,-145.001 125.806,-143.834 125.806,-143.834 125.806,-143.834 120.945,-145.001 126.857,-148.209 116.083,-146.169 116.083,-146.169"/>
</g>
<!-- 43&#45;&gt;4 -->
<g id="edge54" class="edge"><title>43&#45;&gt;4</title>
<path fill="none" stroke="black" d="M315.679,-108.124C291.819,-117.778 261.828,-129.913 236.597,-140.122"/>
<polygon fill="black" stroke="black" points="227.183,-143.932 234.765,-136.009 231.818,-142.056 236.453,-140.181 236.453,-140.181 236.453,-140.181 231.818,-142.056 238.141,-144.352 227.183,-143.932 227.183,-143.932"/>
</g>
<!-- 43&#45;&gt;5 -->
<g id="edge55" class="edge"><title>43&#45;&gt;5</title>
<path fill="none" stroke="black" d="M343.663,-108.303C336.709,-116.695 328.23,-126.93 320.599,-136.139"/>
<polygon fill="black" stroke="black" points="314.172,-143.896 317.087,-133.324 317.362,-140.046 320.552,-136.195 320.552,-136.195 320.552,-136.195 317.362,-140.046 324.017,-139.067 314.172,-143.896 314.172,-143.896"/>
</g>
<!-- 43&#45;&gt;14 -->
<g id="edge56" class="edge"><title>43&#45;&gt;14</title>
<path fill="none" stroke="black" d="M402.673,-94.1209C570.291,-105.831 1160.31,-147.05 1319.93,-158.201"/>
<polygon fill="black" stroke="black" points="1330.24,-158.921 1319.95,-162.713 1325.25,-158.573 1320.27,-158.224 1320.27,-158.224 1320.27,-158.224 1325.25,-158.573 1320.58,-153.735 1330.24,-158.921 1330.24,-158.921"/>
</g>
<!-- 44 -->
<g id="node45" class="node"><title>44</title>
<polygon fill="none" stroke="black" points="2755,-108 2591,-108 2591,-72 2755,-72 2755,-108"/>
<text text-anchor="middle" x="2673" y="-86.3" font-family="Times,serif" font-size="14.00">configuration_multiplayers</text>
</g>
<!-- 44&#45;&gt;2 -->
<g id="edge57" class="edge"><title>44&#45;&gt;2</title>
<path fill="none" stroke="black" d="M2590.97,-93.5431C2230.59,-104.715 791.784,-149.319 476.336,-159.099"/>
<polygon fill="black" stroke="black" points="466.025,-159.418 475.881,-154.61 471.023,-159.263 476.02,-159.108 476.02,-159.108 476.02,-159.108 471.023,-159.263 476.16,-163.606 466.025,-159.418 466.025,-159.418"/>
</g>
<!-- 44&#45;&gt;7 -->
<g id="edge58" class="edge"><title>44&#45;&gt;7</title>
<path fill="none" stroke="black" d="M2673,-108.129C2673,-132.33 2673,-176.789 2673,-205.607"/>
<polygon fill="black" stroke="black" points="2673,-215.811 2668.5,-205.811 2673,-210.811 2673,-205.811 2673,-205.811 2673,-205.811 2673,-210.811 2677.5,-205.811 2673,-215.811 2673,-215.811"/>
</g>
<!-- 44&#45;&gt;14 -->
<g id="edge59" class="edge"><title>44&#45;&gt;14</title>
<path fill="none" stroke="black" d="M2590.87,-95.3788C2338.76,-108.82 1582.05,-149.162 1399.81,-158.878"/>
<polygon fill="black" stroke="black" points="1389.61,-159.422 1399.35,-154.396 1394.6,-159.155 1399.59,-158.889 1399.59,-158.889 1399.59,-158.889 1394.6,-159.155 1399.83,-163.383 1389.61,-159.422 1389.61,-159.422"/>
</g>
<!-- 44&#45;&gt;35 -->
<g id="edge60" class="edge"><title>44&#45;&gt;35</title>
<path fill="none" stroke="black" d="M2755.29,-96.4345C2955.41,-109.649 3465.15,-143.312 3657.76,-156.031"/>
<polygon fill="black" stroke="black" points="3667.79,-156.694 3657.51,-160.525 3662.8,-156.364 3657.81,-156.035 3657.81,-156.035 3657.81,-156.035 3662.8,-156.364 3658.11,-151.544 3667.79,-156.694 3667.79,-156.694"/>
</g>
<!-- 45 -->
<g id="node46" class="node"><title>45</title>
<polygon fill="none" stroke="black" points="3086,-36 3032,-36 3032,-0 3086,-0 3086,-36"/>
<text text-anchor="middle" x="3059" y="-14.3" font-family="Times,serif" font-size="14.00">main</text>
</g>
<!-- 45&#45;&gt;6 -->
<g id="edge61" class="edge"><title>45&#45;&gt;6</title>
<path fill="none" stroke="black" d="M3059,-36.3034C3059,-44.0173 3059,-53.2875 3059,-61.8876"/>
<polygon fill="black" stroke="black" points="3059,-71.8957 3054.5,-61.8956 3059,-66.8957 3059,-61.8957 3059,-61.8957 3059,-61.8957 3059,-66.8957 3063.5,-61.8957 3059,-71.8957 3059,-71.8957"/>
</g>
<!-- 45&#45;&gt;8 -->
<g id="edge62" class="edge"><title>45&#45;&gt;8</title>
<path fill="none" stroke="black" d="M3078.85,-36.1491C3089.48,-45.9679 3102.34,-58.9109 3112,-72 3126.42,-91.5469 3139.04,-116.109 3147.56,-134.476"/>
<polygon fill="black" stroke="black" points="3151.74,-143.713 3143.52,-136.46 3149.68,-139.158 3147.62,-134.604 3147.62,-134.604 3147.62,-134.604 3149.68,-139.158 3151.72,-132.747 3151.74,-143.713 3151.74,-143.713"/>
</g>
<!-- 45&#45;&gt;43 -->
<g id="edge63" class="edge"><title>45&#45;&gt;43</title>
<path fill="none" stroke="black" d="M3031.81,-27.2861C3019.48,-30.6574 3004.63,-34.1826 2991,-36 2727.34,-71.1549 767.323,-86.1917 412.868,-88.6367"/>
<polygon fill="black" stroke="black" points="402.612,-88.707 412.581,-84.1385 407.612,-88.6727 412.612,-88.6384 412.612,-88.6384 412.612,-88.6384 407.612,-88.6727 412.643,-93.1383 402.612,-88.707 402.612,-88.707"/>
</g>
<!-- 46 -->
<g id="node47" class="node"><title>46</title>
<polygon fill="none" stroke="black" points="2982.5,-36 2863.5,-36 2863.5,-0 2982.5,-0 2982.5,-36"/>
<text text-anchor="middle" x="2923" y="-14.3" font-family="Times,serif" font-size="14.00">main_multiplayers</text>
</g>
<!-- 46&#45;&gt;6 -->
<g id="edge64" class="edge"><title>46&#45;&gt;6</title>
<path fill="none" stroke="black" d="M2956.27,-36.1239C2974.46,-45.4883 2997.19,-57.1864 3016.64,-67.197"/>
<polygon fill="black" stroke="black" points="3025.6,-71.8102 3014.65,-71.2349 3021.16,-69.522 3016.71,-67.2338 3016.71,-67.2338 3016.71,-67.2338 3021.16,-69.522 3018.77,-63.2326 3025.6,-71.8102 3025.6,-71.8102"/>
</g>
<!-- 46&#45;&gt;9 -->
<g id="edge65" class="edge"><title>46&#45;&gt;9</title>
<path fill="none" stroke="black" d="M2923,-36.1285C2923,-60.3298 2923,-104.789 2923,-133.607"/>
<polygon fill="black" stroke="black" points="2923,-143.811 2918.5,-133.811 2923,-138.811 2923,-133.811 2923,-133.811 2923,-133.811 2923,-138.811 2927.5,-133.811 2923,-143.811 2923,-143.811"/>
</g>
<!-- 46&#45;&gt;44 -->
<g id="edge66" class="edge"><title>46&#45;&gt;44</title>
<path fill="none" stroke="black" d="M2863.44,-35.6778C2827.51,-45.7377 2781.54,-58.61 2743.76,-69.1868"/>
<polygon fill="black" stroke="black" points="2733.84,-71.9637 2742.26,-64.934 2738.66,-70.6155 2743.47,-69.2673 2743.47,-69.2673 2743.47,-69.2673 2738.66,-70.6155 2744.69,-73.6006 2733.84,-71.9637 2733.84,-71.9637"/>
</g>
</g>
</svg>
