<?xml version="1.0" encoding="UTF-8" standalone="no"?>
<!DOCTYPE svg PUBLIC "-//W3C//DTD SVG 1.1//EN"
 "http://www.w3.org/Graphics/SVG/1.1/DTD/svg11.dtd">
<!-- Generated by graphviz version 2.38.0 (20140413.2041)
 -->
<!-- Title: packages_AlgoBandits Pages: 1 -->
<svg width="4326pt" height="548pt"
 viewBox="0.00 0.00 4326.00 548.00" xmlns="http://www.w3.org/2000/svg" xmlns:xlink="http://www.w3.org/1999/xlink">
<g id="graph0" class="graph" transform="scale(1 1) rotate(0) translate(4 544)">
<title>packages_AlgoBandits</title>
<polygon fill="white" stroke="none" points="-4,4 -4,-544 4322,-544 4322,4 -4,4"/>
<!-- 0 -->
<g id="node1" class="node"><title>0</title>
<polygon fill="none" stroke="black" points="253,-108 199,-108 199,-72 253,-72 253,-108"/>
<text text-anchor="middle" x="226" y="-86.3" font-family="Times,serif" font-size="14.00">Arms</text>
</g>
<!-- 2 -->
<g id="node3" class="node"><title>2</title>
<polygon fill="none" stroke="black" points="467,-180 365,-180 365,-144 467,-144 467,-180"/>
<text text-anchor="middle" x="416" y="-158.3" font-family="Times,serif" font-size="14.00">Arms.Bernoulli</text>
</g>
<!-- 0&#45;&gt;2 -->
<g id="edge1" class="edge"><title>0&#45;&gt;2</title>
<path fill="none" stroke="black" d="M253.222,-101.029C280.985,-111.258 324.862,-127.423 360.069,-140.394"/>
<polygon fill="black" stroke="black" points="369.749,-143.96 358.809,-144.725 365.057,-142.231 360.365,-140.503 360.365,-140.503 360.365,-140.503 365.057,-142.231 361.921,-136.28 369.749,-143.96 369.749,-143.96"/>
</g>
<!-- 3 -->
<g id="node4" class="node"><title>3</title>
<polygon fill="none" stroke="black" points="116,-180 7.10543e-15,-180 7.10543e-15,-144 116,-144 116,-180"/>
<text text-anchor="middle" x="58" y="-158.3" font-family="Times,serif" font-size="14.00">Arms.Exponential</text>
</g>
<!-- 0&#45;&gt;3 -->
<g id="edge2" class="edge"><title>0&#45;&gt;3</title>
<path fill="none" stroke="black" d="M198.634,-102.403C174.22,-112.575 137.858,-127.726 108.224,-140.073"/>
<polygon fill="black" stroke="black" points="98.8633,-143.974 106.363,-135.974 103.479,-142.051 108.094,-140.127 108.094,-140.127 108.094,-140.127 103.479,-142.051 109.825,-144.281 98.8633,-143.974 98.8633,-143.974"/>
</g>
<!-- 4 -->
<g id="node5" class="node"><title>4</title>
<polygon fill="none" stroke="black" points="235.5,-180 134.5,-180 134.5,-144 235.5,-144 235.5,-180"/>
<text text-anchor="middle" x="185" y="-158.3" font-family="Times,serif" font-size="14.00">Arms.Gaussian</text>
</g>
<!-- 0&#45;&gt;4 -->
<g id="edge3" class="edge"><title>0&#45;&gt;4</title>
<path fill="none" stroke="black" d="M215.865,-108.303C211.148,-116.356 205.438,-126.106 200.218,-135.018"/>
<polygon fill="black" stroke="black" points="195.018,-143.896 196.189,-132.992 197.545,-139.581 200.072,-135.267 200.072,-135.267 200.072,-135.267 197.545,-139.581 203.955,-137.541 195.018,-143.896 195.018,-143.896"/>
</g>
<!-- 5 -->
<g id="node6" class="node"><title>5</title>
<polygon fill="none" stroke="black" points="346.5,-180 253.5,-180 253.5,-144 346.5,-144 346.5,-180"/>
<text text-anchor="middle" x="300" y="-158.3" font-family="Times,serif" font-size="14.00">Arms.Poisson</text>
</g>
<!-- 0&#45;&gt;5 -->
<g id="edge4" class="edge"><title>0&#45;&gt;5</title>
<path fill="none" stroke="black" d="M244.292,-108.303C253.433,-116.95 264.64,-127.551 274.6,-136.973"/>
<polygon fill="black" stroke="black" points="281.918,-143.896 271.561,-140.293 278.286,-140.46 274.654,-137.024 274.654,-137.024 274.654,-137.024 278.286,-140.46 277.746,-133.755 281.918,-143.896 281.918,-143.896"/>
</g>
<!-- 1 -->
<g id="node2" class="node"><title>1</title>
<polygon fill="none" stroke="black" points="96.5,-252 19.5,-252 19.5,-216 96.5,-216 96.5,-252"/>
<text text-anchor="middle" x="58" y="-230.3" font-family="Times,serif" font-size="14.00">Arms.Arm</text>
</g>
<!-- 2&#45;&gt;1 -->
<g id="edge5" class="edge"><title>2&#45;&gt;1</title>
<path fill="none" stroke="black" d="M364.86,-177.753C361.534,-178.558 358.226,-179.315 355,-180 247.77,-202.759 217.771,-191.176 111,-216 109.529,-216.342 108.041,-216.705 106.542,-217.087"/>
<polygon fill="black" stroke="black" points="96.5826,-219.818 105.037,-212.833 101.405,-218.495 106.227,-217.173 106.227,-217.173 106.227,-217.173 101.405,-218.495 107.417,-221.513 96.5826,-219.818 96.5826,-219.818"/>
</g>
<!-- 3&#45;&gt;1 -->
<g id="edge6" class="edge"><title>3&#45;&gt;1</title>
<path fill="none" stroke="black" d="M58,-180.303C58,-188.017 58,-197.288 58,-205.888"/>
<polygon fill="black" stroke="black" points="58,-215.896 53.5001,-205.896 58,-210.896 58.0001,-205.896 58.0001,-205.896 58.0001,-205.896 58,-210.896 62.5001,-205.896 58,-215.896 58,-215.896"/>
</g>
<!-- 4&#45;&gt;1 -->
<g id="edge7" class="edge"><title>4&#45;&gt;1</title>
<path fill="none" stroke="black" d="M153.932,-180.124C137.173,-189.361 116.294,-200.869 98.2982,-210.788"/>
<polygon fill="black" stroke="black" points="89.1871,-215.81 95.7727,-207.042 93.566,-213.397 97.9449,-210.983 97.9449,-210.983 97.9449,-210.983 93.566,-213.397 100.117,-214.924 89.1871,-215.81 89.1871,-215.81"/>
</g>
<!-- 5&#45;&gt;1 -->
<g id="edge8" class="edge"><title>5&#45;&gt;1</title>
<path fill="none" stroke="black" d="M253.281,-177.299C250.143,-178.223 247.027,-179.131 244,-180 185.139,-196.896 169.727,-198.643 111,-216 109.552,-216.428 108.083,-216.867 106.602,-217.314"/>
<polygon fill="black" stroke="black" points="96.7236,-220.352 104.959,-213.111 101.503,-218.882 106.282,-217.413 106.282,-217.413 106.282,-217.413 101.503,-218.882 107.605,-221.714 96.7236,-220.352 96.7236,-220.352"/>
</g>
<!-- 6 -->
<g id="node7" class="node"><title>6</title>
<polygon fill="none" stroke="black" points="2297,-108 2209,-108 2209,-72 2297,-72 2297,-108"/>
<text text-anchor="middle" x="2253" y="-86.3" font-family="Times,serif" font-size="14.00">Environment</text>
</g>
<!-- 8 -->
<g id="node9" class="node"><title>8</title>
<polygon fill="none" stroke="black" points="2320,-180 2176,-180 2176,-144 2320,-144 2320,-180"/>
<text text-anchor="middle" x="2248" y="-158.3" font-family="Times,serif" font-size="14.00">Environment.Evaluator</text>
</g>
<!-- 6&#45;&gt;8 -->
<g id="edge9" class="edge"><title>6&#45;&gt;8</title>
<path fill="none" stroke="black" d="M2251.76,-108.303C2251.21,-116.017 2250.55,-125.288 2249.94,-133.888"/>
<polygon fill="black" stroke="black" points="2249.22,-143.896 2245.45,-133.6 2249.58,-138.908 2249.93,-133.921 2249.93,-133.921 2249.93,-133.921 2249.58,-138.908 2254.42,-134.242 2249.22,-143.896 2249.22,-143.896"/>
</g>
<!-- 9 -->
<g id="node10" class="node"><title>9</title>
<polygon fill="none" stroke="black" points="2629.5,-180 2414.5,-180 2414.5,-144 2629.5,-144 2629.5,-180"/>
<text text-anchor="middle" x="2522" y="-158.3" font-family="Times,serif" font-size="14.00">Environment.EvaluatorMultiPlayers</text>
</g>
<!-- 6&#45;&gt;9 -->
<g id="edge10" class="edge"><title>6&#45;&gt;9</title>
<path fill="none" stroke="black" d="M2297.18,-105.424C2300.16,-106.318 2303.12,-107.185 2306,-108 2348.82,-120.104 2396.85,-132.05 2436.73,-141.528"/>
<polygon fill="black" stroke="black" points="2446.69,-143.883 2435.92,-145.96 2441.82,-142.732 2436.96,-141.581 2436.96,-141.581 2436.96,-141.581 2441.82,-142.732 2437.99,-137.202 2446.69,-143.883 2446.69,-143.883"/>
</g>
<!-- 10 -->
<g id="node11" class="node"><title>10</title>
<polygon fill="none" stroke="black" points="2409.5,-252 2286.5,-252 2286.5,-216 2409.5,-216 2409.5,-252"/>
<text text-anchor="middle" x="2348" y="-230.3" font-family="Times,serif" font-size="14.00">Environment.MAB</text>
</g>
<!-- 6&#45;&gt;10 -->
<g id="edge11" class="edge"><title>6&#45;&gt;10</title>
<path fill="none" stroke="black" d="M2288.63,-108.195C2303.24,-116.97 2319.04,-128.99 2329,-144 2341.18,-162.351 2345.73,-187.11 2347.35,-205.854"/>
<polygon fill="black" stroke="black" points="2347.98,-215.836 2342.86,-206.143 2347.67,-210.846 2347.35,-205.856 2347.35,-205.856 2347.35,-205.856 2347.67,-210.846 2351.84,-205.57 2347.98,-215.836 2347.98,-215.836"/>
</g>
<!-- 11 -->
<g id="node12" class="node"><title>11</title>
<polygon fill="none" stroke="black" points="2268,-252 2142,-252 2142,-216 2268,-216 2268,-252"/>
<text text-anchor="middle" x="2205" y="-230.3" font-family="Times,serif" font-size="14.00">Environment.Result</text>
</g>
<!-- 6&#45;&gt;11 -->
<g id="edge12" class="edge"><title>6&#45;&gt;11</title>
<path fill="none" stroke="black" d="M2208.81,-107.312C2192.67,-115.668 2176.15,-127.615 2167,-144 2155.42,-164.735 2168.22,-189.706 2182,-207.914"/>
<polygon fill="black" stroke="black" points="2188.31,-215.764 2178.54,-210.794 2185.18,-211.868 2182.04,-207.973 2182.04,-207.973 2182.04,-207.973 2185.18,-211.868 2185.55,-205.152 2188.31,-215.764 2188.31,-215.764"/>
</g>
<!-- 7 -->
<g id="node8" class="node"><title>7</title>
<polygon fill="none" stroke="black" points="2998,-252 2816,-252 2816,-216 2998,-216 2998,-252"/>
<text text-anchor="middle" x="2907" y="-230.3" font-family="Times,serif" font-size="14.00">Environment.CollisionModels</text>
</g>
<!-- 8&#45;&gt;10 -->
<g id="edge13" class="edge"><title>8&#45;&gt;10</title>
<path fill="none" stroke="black" d="M2272.46,-180.124C2285.3,-189.107 2301.2,-200.237 2315.09,-209.966"/>
<polygon fill="black" stroke="black" points="2323.44,-215.81 2312.67,-213.762 2319.35,-212.943 2315.25,-210.076 2315.25,-210.076 2315.25,-210.076 2319.35,-212.943 2317.83,-206.389 2323.44,-215.81 2323.44,-215.81"/>
</g>
<!-- 8&#45;&gt;11 -->
<g id="edge14" class="edge"><title>8&#45;&gt;11</title>
<path fill="none" stroke="black" d="M2237.37,-180.303C2232.37,-188.441 2226.31,-198.311 2220.79,-207.299"/>
<polygon fill="black" stroke="black" points="2215.51,-215.896 2216.91,-205.019 2218.12,-211.635 2220.74,-207.375 2220.74,-207.375 2220.74,-207.375 2218.12,-211.635 2224.58,-209.73 2215.51,-215.896 2215.51,-215.896"/>
</g>
<!-- 13 -->
<g id="node14" class="node"><title>13</title>
<polygon fill="none" stroke="black" points="2582,-252 2428,-252 2428,-216 2582,-216 2582,-252"/>
<text text-anchor="middle" x="2505" y="-230.3" font-family="Times,serif" font-size="14.00">Environment.plotsettings</text>
</g>
<!-- 8&#45;&gt;13 -->
<g id="edge15" class="edge"><title>8&#45;&gt;13</title>
<path fill="none" stroke="black" d="M2310.54,-180.034C2347.23,-190.028 2393.76,-202.702 2432.11,-213.146"/>
<polygon fill="black" stroke="black" points="2442.18,-215.889 2431.35,-217.603 2437.35,-214.575 2432.53,-213.261 2432.53,-213.261 2432.53,-213.261 2437.35,-214.575 2433.71,-208.919 2442.18,-215.889 2442.18,-215.889"/>
</g>
<!-- 9&#45;&gt;7 -->
<g id="edge16" class="edge"><title>9&#45;&gt;7</title>
<path fill="none" stroke="black" d="M2615.69,-180.034C2673.24,-190.497 2746.95,-203.899 2805.82,-214.604"/>
<polygon fill="black" stroke="black" points="2815.88,-216.434 2805.24,-219.072 2810.97,-215.539 2806.05,-214.645 2806.05,-214.645 2806.05,-214.645 2810.97,-215.539 2806.85,-210.217 2815.88,-216.434 2815.88,-216.434"/>
</g>
<!-- 9&#45;&gt;10 -->
<g id="edge17" class="edge"><title>9&#45;&gt;10</title>
<path fill="none" stroke="black" d="M2479.43,-180.124C2455.44,-189.778 2425.27,-201.913 2399.9,-212.122"/>
<polygon fill="black" stroke="black" points="2390.43,-215.932 2398.02,-208.025 2395.07,-214.066 2399.7,-212.199 2399.7,-212.199 2399.7,-212.199 2395.07,-214.066 2401.38,-216.374 2390.43,-215.932 2390.43,-215.932"/>
</g>
<!-- 12 -->
<g id="node13" class="node"><title>12</title>
<polygon fill="none" stroke="black" points="2797.5,-252 2600.5,-252 2600.5,-216 2797.5,-216 2797.5,-252"/>
<text text-anchor="middle" x="2699" y="-230.3" font-family="Times,serif" font-size="14.00">Environment.ResultMultiPlayers</text>
</g>
<!-- 9&#45;&gt;12 -->
<g id="edge18" class="edge"><title>9&#45;&gt;12</title>
<path fill="none" stroke="black" d="M2565.3,-180.124C2589.71,-189.778 2620.4,-201.913 2646.21,-212.122"/>
<polygon fill="black" stroke="black" points="2655.84,-215.932 2644.89,-216.439 2651.19,-214.093 2646.54,-212.254 2646.54,-212.254 2646.54,-212.254 2651.19,-214.093 2648.2,-208.069 2655.84,-215.932 2655.84,-215.932"/>
</g>
<!-- 9&#45;&gt;13 -->
<g id="edge19" class="edge"><title>9&#45;&gt;13</title>
<path fill="none" stroke="black" d="M2517.8,-180.303C2515.9,-188.102 2513.62,-197.491 2511.52,-206.171"/>
<polygon fill="black" stroke="black" points="2509.15,-215.896 2507.14,-205.116 2510.33,-211.037 2511.51,-206.178 2511.51,-206.178 2511.51,-206.178 2510.33,-211.037 2515.89,-207.24 2509.15,-215.896 2509.15,-215.896"/>
</g>
<!-- 14 -->
<g id="node15" class="node"><title>14</title>
<polygon fill="none" stroke="black" points="1110.5,-180 1051.5,-180 1051.5,-144 1110.5,-144 1110.5,-180"/>
<text text-anchor="middle" x="1081" y="-158.3" font-family="Times,serif" font-size="14.00">Policies</text>
</g>
<!-- 15 -->
<g id="node16" class="node"><title>15</title>
<polygon fill="none" stroke="black" points="1778.5,-324 1657.5,-324 1657.5,-288 1778.5,-288 1778.5,-324"/>
<text text-anchor="middle" x="1718" y="-302.3" font-family="Times,serif" font-size="14.00">Policies.AdBandits</text>
</g>
<!-- 14&#45;&gt;15 -->
<g id="edge20" class="edge"><title>14&#45;&gt;15</title>
<path fill="none" stroke="black" d="M1110.61,-163.201C1230.31,-164.314 1674.07,-171.437 1716,-216 1731.17,-232.124 1729.99,-258.072 1726.01,-277.8"/>
<polygon fill="black" stroke="black" points="1723.67,-287.74 1721.58,-276.975 1724.81,-282.874 1725.96,-278.007 1725.96,-278.007 1725.96,-278.007 1724.81,-282.874 1730.34,-279.038 1723.67,-287.74 1723.67,-287.74"/>
</g>
<!-- 16 -->
<g id="node17" class="node"><title>16</title>
<polygon fill="none" stroke="black" points="1459.5,-468 1368.5,-468 1368.5,-432 1459.5,-432 1459.5,-468"/>
<text text-anchor="middle" x="1414" y="-446.3" font-family="Times,serif" font-size="14.00">Policies.Aggr</text>
</g>
<!-- 14&#45;&gt;16 -->
<g id="edge21" class="edge"><title>14&#45;&gt;16</title>
<path fill="none" stroke="black" d="M1110.51,-163.518C1181.34,-165.428 1357.93,-174.354 1396,-216 1448.05,-272.931 1432.71,-373.811 1421.38,-421.962"/>
<polygon fill="black" stroke="black" points="1418.9,-431.94 1416.94,-421.151 1420.11,-427.087 1421.31,-422.234 1421.31,-422.234 1421.31,-422.234 1420.11,-427.087 1425.68,-423.316 1418.9,-431.94 1418.9,-431.94"/>
</g>
<!-- 18 -->
<g id="node19" class="node"><title>18</title>
<polygon fill="none" stroke="black" points="1707,-252 1583,-252 1583,-216 1707,-216 1707,-252"/>
<text text-anchor="middle" x="1645" y="-230.3" font-family="Times,serif" font-size="14.00">Policies.BayesUCB</text>
</g>
<!-- 14&#45;&gt;18 -->
<g id="edge22" class="edge"><title>14&#45;&gt;18</title>
<path fill="none" stroke="black" d="M1110.63,-164.858C1186.16,-169.875 1392.06,-185.316 1572.81,-215.916"/>
<polygon fill="black" stroke="black" points="1582.76,-217.62 1572.14,-220.367 1577.83,-216.776 1572.9,-215.932 1572.9,-215.932 1572.9,-215.932 1577.83,-216.776 1573.66,-211.496 1582.76,-217.62 1582.76,-217.62"/>
</g>
<!-- 21 -->
<g id="node22" class="node"><title>21</title>
<polygon fill="none" stroke="black" points="1809.5,-396 1644.5,-396 1644.5,-360 1809.5,-360 1809.5,-396"/>
<text text-anchor="middle" x="1727" y="-374.3" font-family="Times,serif" font-size="14.00">Policies.EpsilonDecreasing</text>
</g>
<!-- 14&#45;&gt;21 -->
<g id="edge23" class="edge"><title>14&#45;&gt;21</title>
<path fill="none" stroke="black" d="M1110.54,-163.909C1231.12,-167.816 1682.16,-184.44 1737,-216 1782.84,-242.384 1808.74,-275.781 1787,-324 1781.82,-335.482 1772.79,-345.477 1763.28,-353.598"/>
<polygon fill="black" stroke="black" points="1755.26,-359.971 1760.29,-350.228 1759.18,-356.861 1763.09,-353.752 1763.09,-353.752 1763.09,-353.752 1759.18,-356.861 1765.89,-357.275 1755.26,-359.971 1755.26,-359.971"/>
</g>
<!-- 22 -->
<g id="node23" class="node"><title>22</title>
<polygon fill="none" stroke="black" points="1814.5,-468 1685.5,-468 1685.5,-432 1814.5,-432 1814.5,-468"/>
<text text-anchor="middle" x="1750" y="-446.3" font-family="Times,serif" font-size="14.00">Policies.EpsilonFirst</text>
</g>
<!-- 14&#45;&gt;22 -->
<g id="edge24" class="edge"><title>14&#45;&gt;22</title>
<path fill="none" stroke="black" d="M1110.64,-163.5C1235.93,-165.85 1718.24,-177.358 1773,-216 1840.38,-263.544 1854.19,-321.905 1818,-396 1812.19,-407.886 1802.29,-417.881 1791.82,-425.875"/>
<polygon fill="black" stroke="black" points="1783.36,-431.855 1788.93,-422.408 1787.44,-428.969 1791.52,-426.083 1791.52,-426.083 1791.52,-426.083 1787.44,-428.969 1794.12,-429.757 1783.36,-431.855 1783.36,-431.855"/>
</g>
<!-- 23 -->
<g id="node24" class="node"><title>23</title>
<polygon fill="none" stroke="black" points="2010,-396 1866,-396 1866,-360 2010,-360 2010,-396"/>
<text text-anchor="middle" x="1938" y="-374.3" font-family="Times,serif" font-size="14.00">Policies.EpsilonGreedy</text>
</g>
<!-- 14&#45;&gt;23 -->
<g id="edge25" class="edge"><title>14&#45;&gt;23</title>
<path fill="none" stroke="black" d="M1110.57,-163.286C1245.16,-164.817 1795.92,-173.642 1859,-216 1904.99,-246.883 1925.22,-312.616 1933.27,-349.833"/>
<polygon fill="black" stroke="black" points="1935.32,-359.96 1928.93,-351.047 1934.33,-355.058 1933.34,-350.157 1933.34,-350.157 1933.34,-350.157 1934.33,-355.058 1937.75,-349.267 1935.32,-359.96 1935.32,-359.96"/>
</g>
<!-- 26 -->
<g id="node27" class="node"><title>26</title>
<polygon fill="none" stroke="black" points="1975,-468 1871,-468 1871,-432 1975,-432 1975,-468"/>
<text text-anchor="middle" x="1923" y="-446.3" font-family="Times,serif" font-size="14.00">Policies.MEGA</text>
</g>
<!-- 14&#45;&gt;26 -->
<g id="edge26" class="edge"><title>14&#45;&gt;26</title>
<path fill="none" stroke="black" d="M1110.58,-163.619C1247.82,-166.669 1818.81,-181.359 1890,-216 1967.26,-253.595 1988.31,-279.743 2019,-360 2024.71,-374.945 2027.13,-382.221 2019,-396 2010.98,-409.584 1998.1,-419.927 1984.34,-427.703"/>
<polygon fill="black" stroke="black" points="1975.21,-432.451 1982.01,-423.844 1979.65,-430.143 1984.09,-427.836 1984.09,-427.836 1984.09,-427.836 1979.65,-430.143 1986.16,-431.828 1975.21,-432.451 1975.21,-432.451"/>
</g>
<!-- 27 -->
<g id="node28" class="node"><title>27</title>
<polygon fill="none" stroke="black" points="566.5,-396 465.5,-396 465.5,-360 566.5,-360 566.5,-396"/>
<text text-anchor="middle" x="516" y="-374.3" font-family="Times,serif" font-size="14.00">Policies.MOSS</text>
</g>
<!-- 14&#45;&gt;27 -->
<g id="edge27" class="edge"><title>14&#45;&gt;27</title>
<path fill="none" stroke="black" d="M1051.19,-163.694C959.438,-166.233 682.689,-177.018 603,-216 582.955,-225.806 587.633,-241.393 568,-252 493.919,-292.023 435.584,-223.05 382,-288 371.818,-300.342 373.004,-310.768 382,-324 398.536,-348.323 428.144,-361.483 455.33,-368.604"/>
<polygon fill="black" stroke="black" points="465.208,-370.964 454.436,-373.017 460.345,-369.802 455.481,-368.64 455.481,-368.64 455.481,-368.64 460.345,-369.802 456.527,-364.263 465.208,-370.964 465.208,-370.964"/>
</g>
<!-- 28 -->
<g id="node29" class="node"><title>28</title>
<polygon fill="none" stroke="black" points="2130.5,-468 1993.5,-468 1993.5,-432 2130.5,-432 2130.5,-468"/>
<text text-anchor="middle" x="2062" y="-446.3" font-family="Times,serif" font-size="14.00">Policies.MusicalChair</text>
</g>
<!-- 14&#45;&gt;28 -->
<g id="edge28" class="edge"><title>14&#45;&gt;28</title>
<path fill="none" stroke="black" d="M1110.71,-163.625C1252.58,-166.772 1857.43,-182.093 1934,-216 2016.32,-252.453 2047.5,-368.63 2057.69,-421.874"/>
<polygon fill="black" stroke="black" points="2059.5,-431.936 2053.3,-422.894 2058.61,-427.016 2057.73,-422.095 2057.73,-422.095 2057.73,-422.095 2058.61,-427.016 2062.16,-421.296 2059.5,-431.936 2059.5,-431.936"/>
</g>
<!-- 30 -->
<g id="node31" class="node"><title>30</title>
<polygon fill="none" stroke="black" points="2214,-396 2104,-396 2104,-360 2214,-360 2214,-396"/>
<text text-anchor="middle" x="2159" y="-374.3" font-family="Times,serif" font-size="14.00">Policies.Softmax</text>
</g>
<!-- 14&#45;&gt;30 -->
<g id="edge29" class="edge"><title>14&#45;&gt;30</title>
<path fill="none" stroke="black" d="M1110.58,-162.718C1268.48,-161.456 2007.82,-158.662 2090,-216 2134.38,-246.962 2150.4,-312.664 2156.04,-349.855"/>
<polygon fill="black" stroke="black" points="2157.43,-359.974 2151.61,-350.677 2156.75,-355.02 2156.07,-350.066 2156.07,-350.066 2156.07,-350.066 2156.75,-355.02 2160.53,-349.456 2157.43,-359.974 2157.43,-359.974"/>
</g>
<!-- 31 -->
<g id="node32" class="node"><title>31</title>
<polygon fill="none" stroke="black" points="207,-324 61,-324 61,-288 207,-288 207,-324"/>
<text text-anchor="middle" x="134" y="-302.3" font-family="Times,serif" font-size="14.00">Policies.TakeFixedArm</text>
</g>
<!-- 14&#45;&gt;31 -->
<g id="edge30" class="edge"><title>14&#45;&gt;31</title>
<path fill="none" stroke="black" d="M1051.29,-163.613C895.406,-166.96 177.75,-184.069 144,-216 127.724,-231.399 126.603,-257.661 128.733,-277.679"/>
<polygon fill="black" stroke="black" points="130.127,-287.767 124.3,-278.477 129.442,-282.814 128.758,-277.861 128.758,-277.861 128.758,-277.861 129.442,-282.814 133.215,-277.245 130.127,-287.767 130.127,-287.767"/>
</g>
<!-- 32 -->
<g id="node33" class="node"><title>32</title>
<polygon fill="none" stroke="black" points="346.5,-252 153.5,-252 153.5,-216 346.5,-216 346.5,-252"/>
<text text-anchor="middle" x="250" y="-230.3" font-family="Times,serif" font-size="14.00">Policies.TakeRandomFixedArm</text>
</g>
<!-- 14&#45;&gt;32 -->
<g id="edge31" class="edge"><title>14&#45;&gt;32</title>
<path fill="none" stroke="black" d="M1051.22,-164.257C953.382,-168.579 632.845,-184.279 356.924,-215.956"/>
<polygon fill="black" stroke="black" points="346.715,-217.137 356.131,-211.517 351.682,-216.562 356.649,-215.987 356.649,-215.987 356.649,-215.987 351.682,-216.562 357.166,-220.458 346.715,-217.137 346.715,-217.137"/>
</g>
<!-- 33 -->
<g id="node34" class="node"><title>33</title>
<polygon fill="none" stroke="black" points="1565,-252 1443,-252 1443,-216 1565,-216 1565,-252"/>
<text text-anchor="middle" x="1504" y="-230.3" font-family="Times,serif" font-size="14.00">Policies.Thompson</text>
</g>
<!-- 14&#45;&gt;33 -->
<g id="edge32" class="edge"><title>14&#45;&gt;33</title>
<path fill="none" stroke="black" d="M1110.92,-166.819C1171.28,-174.689 1311.91,-193.842 1429,-216 1430.25,-216.237 1431.52,-216.481 1432.79,-216.729"/>
<polygon fill="black" stroke="black" points="1442.68,-218.724 1431.99,-221.157 1437.78,-217.735 1432.88,-216.746 1432.88,-216.746 1432.88,-216.746 1437.78,-217.735 1433.77,-212.335 1442.68,-218.724 1442.68,-218.724"/>
</g>
<!-- 34 -->
<g id="node35" class="node"><title>34</title>
<polygon fill="none" stroke="black" points="827.5,-396 736.5,-396 736.5,-360 827.5,-360 827.5,-396"/>
<text text-anchor="middle" x="782" y="-374.3" font-family="Times,serif" font-size="14.00">Policies.UCB</text>
</g>
<!-- 14&#45;&gt;34 -->
<g id="edge33" class="edge"><title>14&#45;&gt;34</title>
<path fill="none" stroke="black" d="M1051.43,-163.056C997.75,-164.301 881.982,-172.324 797,-216 755.903,-237.122 740.117,-245.493 722,-288 715.727,-302.719 715.423,-309.414 722,-324 727.178,-335.482 736.209,-345.477 745.716,-353.598"/>
<polygon fill="black" stroke="black" points="753.74,-359.971 743.111,-357.275 749.825,-356.861 745.909,-353.752 745.909,-353.752 745.909,-353.752 749.825,-356.861 748.708,-350.228 753.74,-359.971 753.74,-359.971"/>
</g>
<!-- 35 -->
<g id="node36" class="node"><title>35</title>
<polygon fill="none" stroke="black" points="832.5,-324 731.5,-324 731.5,-288 832.5,-288 832.5,-324"/>
<text text-anchor="middle" x="782" y="-302.3" font-family="Times,serif" font-size="14.00">Policies.UCBV</text>
</g>
<!-- 14&#45;&gt;35 -->
<g id="edge34" class="edge"><title>14&#45;&gt;35</title>
<path fill="none" stroke="black" d="M1051.28,-166.073C992.457,-172.654 863.892,-189.688 829,-216 808.71,-231.3 796.305,-257.939 789.375,-278.096"/>
<polygon fill="black" stroke="black" points="786.319,-287.672 785.072,-276.777 787.839,-282.908 789.359,-278.145 789.359,-278.145 789.359,-278.145 787.839,-282.908 793.646,-279.513 786.319,-287.672 786.319,-287.672"/>
</g>
<!-- 36 -->
<g id="node37" class="node"><title>36</title>
<polygon fill="none" stroke="black" points="971,-324 851,-324 851,-288 971,-288 971,-324"/>
<text text-anchor="middle" x="911" y="-302.3" font-family="Times,serif" font-size="14.00">Policies.UCBalpha</text>
</g>
<!-- 14&#45;&gt;36 -->
<g id="edge35" class="edge"><title>14&#45;&gt;36</title>
<path fill="none" stroke="black" d="M1060.49,-180.129C1030.24,-205.396 973.558,-252.746 939.348,-281.321"/>
<polygon fill="black" stroke="black" points="931.579,-287.811 936.369,-277.946 935.416,-284.605 939.254,-281.4 939.254,-281.4 939.254,-281.4 935.416,-284.605 942.138,-284.854 931.579,-287.811 931.579,-287.811"/>
</g>
<!-- 37 -->
<g id="node38" class="node"><title>37</title>
<polygon fill="none" stroke="black" points="1097,-324 989,-324 989,-288 1097,-288 1097,-324"/>
<text text-anchor="middle" x="1043" y="-302.3" font-family="Times,serif" font-size="14.00">Policies.UCBopt</text>
</g>
<!-- 14&#45;&gt;37 -->
<g id="edge36" class="edge"><title>14&#45;&gt;37</title>
<path fill="none" stroke="black" d="M1076.42,-180.129C1069.91,-204.436 1057.94,-249.181 1050.23,-277.987"/>
<polygon fill="black" stroke="black" points="1047.6,-287.811 1045.84,-276.987 1048.89,-282.981 1050.19,-278.151 1050.19,-278.151 1050.19,-278.151 1048.89,-282.981 1054.53,-279.314 1047.6,-287.811 1047.6,-287.811"/>
</g>
<!-- 38 -->
<g id="node39" class="node"><title>38</title>
<polygon fill="none" stroke="black" points="504.5,-324 391.5,-324 391.5,-288 504.5,-288 504.5,-324"/>
<text text-anchor="middle" x="448" y="-302.3" font-family="Times,serif" font-size="14.00">Policies.UCBplus</text>
</g>
<!-- 14&#45;&gt;38 -->
<g id="edge37" class="edge"><title>14&#45;&gt;38</title>
<path fill="none" stroke="black" d="M1051.5,-164.151C965.143,-167.895 714.384,-181.53 641,-216 619.943,-225.891 622.907,-239.961 603,-252 587.485,-261.383 548.971,-274.568 514.218,-285.44"/>
<polygon fill="black" stroke="black" points="504.538,-288.439 512.758,-281.181 509.314,-286.959 514.09,-285.479 514.09,-285.479 514.09,-285.479 509.314,-286.959 515.422,-289.778 504.538,-288.439 504.538,-288.439"/>
</g>
<!-- 39 -->
<g id="node40" class="node"><title>39</title>
<polygon fill="none" stroke="black" points="675,-324 523,-324 523,-288 675,-288 675,-324"/>
<text text-anchor="middle" x="599" y="-302.3" font-family="Times,serif" font-size="14.00">Policies.UCBrandomInit</text>
</g>
<!-- 14&#45;&gt;39 -->
<g id="edge38" class="edge"><title>14&#45;&gt;39</title>
<path fill="none" stroke="black" d="M1051.3,-164.583C971.289,-169.228 753.012,-184.516 689,-216 659.191,-230.661 633.204,-259.042 616.919,-279.827"/>
<polygon fill="black" stroke="black" points="610.756,-287.93 613.228,-277.246 613.783,-283.95 616.81,-279.97 616.81,-279.97 616.81,-279.97 613.783,-283.95 620.392,-282.695 610.756,-287.93 610.756,-287.93"/>
</g>
<!-- 40 -->
<g id="node41" class="node"><title>40</title>
<polygon fill="none" stroke="black" points="959.5,-252 838.5,-252 838.5,-216 959.5,-216 959.5,-252"/>
<text text-anchor="middle" x="899" y="-230.3" font-family="Times,serif" font-size="14.00">Policies.UCBtuned</text>
</g>
<!-- 14&#45;&gt;40 -->
<g id="edge39" class="edge"><title>14&#45;&gt;40</title>
<path fill="none" stroke="black" d="M1051.35,-174.403C1024.79,-184.619 985.171,-199.857 952.993,-212.233"/>
<polygon fill="black" stroke="black" points="943.269,-215.974 950.987,-208.184 947.935,-214.179 952.602,-212.384 952.602,-212.384 952.602,-212.384 947.935,-214.179 954.217,-216.584 943.269,-215.974 943.269,-215.974"/>
</g>
<!-- 41 -->
<g id="node42" class="node"><title>41</title>
<polygon fill="none" stroke="black" points="335,-324 225,-324 225,-288 335,-288 335,-324"/>
<text text-anchor="middle" x="280" y="-302.3" font-family="Times,serif" font-size="14.00">Policies.Uniform</text>
</g>
<!-- 14&#45;&gt;41 -->
<g id="edge40" class="edge"><title>14&#45;&gt;41</title>
<path fill="none" stroke="black" d="M1051.3,-163.846C956.454,-166.897 661.923,-179.179 575,-216 552.05,-225.722 554.49,-241.257 532,-252 457.203,-287.729 429.932,-270.08 349,-288 347.747,-288.278 346.481,-288.561 345.206,-288.848"/>
<polygon fill="black" stroke="black" points="335.308,-291.129 344.042,-284.499 340.18,-290.007 345.052,-288.884 345.052,-288.884 345.052,-288.884 340.18,-290.007 346.063,-293.269 335.308,-291.129 335.308,-291.129"/>
</g>
<!-- 42 -->
<g id="node43" class="node"><title>42</title>
<polygon fill="none" stroke="black" points="523,-252 365,-252 365,-216 523,-216 523,-252"/>
<text text-anchor="middle" x="444" y="-230.3" font-family="Times,serif" font-size="14.00">Policies.UniformOnSome</text>
</g>
<!-- 14&#45;&gt;42 -->
<g id="edge41" class="edge"><title>14&#45;&gt;42</title>
<path fill="none" stroke="black" d="M1051.41,-165.008C969.427,-170.76 732.472,-188.661 537,-216 535.72,-216.179 534.431,-216.363 533.134,-216.552"/>
<polygon fill="black" stroke="black" points="523.075,-218.08 532.285,-212.129 528.018,-217.329 532.961,-216.578 532.961,-216.578 532.961,-216.578 528.018,-217.329 533.638,-221.027 523.075,-218.08 523.075,-218.08"/>
</g>
<!-- 43 -->
<g id="node44" class="node"><title>43</title>
<polygon fill="none" stroke="black" points="1367.5,-324 1266.5,-324 1266.5,-288 1367.5,-288 1367.5,-324"/>
<text text-anchor="middle" x="1317" y="-302.3" font-family="Times,serif" font-size="14.00">Policies.klUCB</text>
</g>
<!-- 14&#45;&gt;43 -->
<g id="edge42" class="edge"><title>14&#45;&gt;43</title>
<path fill="none" stroke="black" d="M1079.6,-180.259C1078.98,-200.284 1081.26,-232.978 1100,-252 1148.08,-300.81 1184.41,-272.898 1256.39,-288.121"/>
<polygon fill="black" stroke="black" points="1266.31,-290.443 1255.55,-292.544 1261.44,-289.303 1256.57,-288.162 1256.57,-288.162 1256.57,-288.162 1261.44,-289.303 1257.6,-283.781 1266.31,-290.443 1266.31,-290.443"/>
</g>
<!-- 44 -->
<g id="node45" class="node"><title>44</title>
<polygon fill="none" stroke="black" points="1387,-252 1253,-252 1253,-216 1387,-216 1387,-252"/>
<text text-anchor="middle" x="1320" y="-230.3" font-family="Times,serif" font-size="14.00">Policies.klUCBHPlus</text>
</g>
<!-- 14&#45;&gt;44 -->
<g id="edge43" class="edge"><title>14&#45;&gt;44</title>
<path fill="none" stroke="black" d="M1110.79,-171.724C1145.95,-182.023 1205.54,-199.475 1252.15,-213.126"/>
<polygon fill="black" stroke="black" points="1261.88,-215.978 1251.02,-217.486 1257.08,-214.572 1252.28,-213.167 1252.28,-213.167 1252.28,-213.167 1257.08,-214.572 1253.55,-208.848 1261.88,-215.978 1261.88,-215.978"/>
</g>
<!-- 45 -->
<g id="node46" class="node"><title>45</title>
<polygon fill="none" stroke="black" points="1234.5,-252 1109.5,-252 1109.5,-216 1234.5,-216 1234.5,-252"/>
<text text-anchor="middle" x="1172" y="-230.3" font-family="Times,serif" font-size="14.00">Policies.klUCBPlus</text>
</g>
<!-- 14&#45;&gt;45 -->
<g id="edge44" class="edge"><title>14&#45;&gt;45</title>
<path fill="none" stroke="black" d="M1103.49,-180.303C1114.96,-189.119 1129.06,-199.968 1141.48,-209.526"/>
<polygon fill="black" stroke="black" points="1149.76,-215.896 1139.09,-213.365 1145.8,-212.847 1141.84,-209.799 1141.84,-209.799 1141.84,-209.799 1145.8,-212.847 1144.58,-206.232 1149.76,-215.896 1149.76,-215.896"/>
</g>
<!-- 17 -->
<g id="node18" class="node"><title>17</title>
<polygon fill="none" stroke="black" points="1719,-540 1595,-540 1595,-504 1719,-504 1719,-540"/>
<text text-anchor="middle" x="1657" y="-518.3" font-family="Times,serif" font-size="14.00">Policies.BasePolicy</text>
</g>
<!-- 15&#45;&gt;17 -->
<g id="edge45" class="edge"><title>15&#45;&gt;17</title>
<path fill="none" stroke="black" d="M1674.44,-324.134C1659.14,-332.512 1643.63,-344.257 1635,-360 1611.66,-402.6 1629.67,-460.731 1643.96,-494.227"/>
<polygon fill="black" stroke="black" points="1648.23,-503.787 1640.05,-496.49 1646.19,-499.222 1644.16,-494.656 1644.16,-494.656 1644.16,-494.656 1646.19,-499.222 1648.26,-492.822 1648.23,-503.787 1648.23,-503.787"/>
</g>
<!-- 20 -->
<g id="node21" class="node"><title>20</title>
<polygon fill="none" stroke="black" points="1588,-396 1500,-396 1500,-360 1588,-360 1588,-396"/>
<text text-anchor="middle" x="1544" y="-374.3" font-family="Times,serif" font-size="14.00">Policies.Beta</text>
</g>
<!-- 15&#45;&gt;20 -->
<g id="edge46" class="edge"><title>15&#45;&gt;20</title>
<path fill="none" stroke="black" d="M1675.43,-324.124C1651.44,-333.778 1621.27,-345.913 1595.9,-356.122"/>
<polygon fill="black" stroke="black" points="1586.43,-359.932 1594.02,-352.025 1591.07,-358.066 1595.7,-356.199 1595.7,-356.199 1595.7,-356.199 1591.07,-358.066 1597.38,-360.374 1586.43,-359.932 1586.43,-359.932"/>
</g>
<!-- 16&#45;&gt;17 -->
<g id="edge47" class="edge"><title>16&#45;&gt;17</title>
<path fill="none" stroke="black" d="M1459.59,-465.188C1462.77,-466.149 1465.93,-467.094 1469,-468 1507.35,-479.33 1550.25,-491.467 1585.38,-501.264"/>
<polygon fill="black" stroke="black" points="1595.08,-503.962 1584.24,-505.615 1590.26,-502.621 1585.44,-501.28 1585.44,-501.28 1585.44,-501.28 1590.26,-502.621 1586.65,-496.945 1595.08,-503.962 1595.08,-503.962"/>
</g>
<!-- 19 -->
<g id="node20" class="node"><title>19</title>
<polygon fill="none" stroke="black" points="1640,-324 1462,-324 1462,-288 1640,-288 1640,-324"/>
<text text-anchor="middle" x="1551" y="-302.3" font-family="Times,serif" font-size="14.00">Policies.BayesianIndexPolicy</text>
</g>
<!-- 18&#45;&gt;19 -->
<g id="edge48" class="edge"><title>18&#45;&gt;19</title>
<path fill="none" stroke="black" d="M1621.76,-252.303C1609.81,-261.204 1595.08,-272.177 1582.15,-281.801"/>
<polygon fill="black" stroke="black" points="1573.97,-287.896 1579.3,-278.314 1577.98,-284.909 1581.99,-281.923 1581.99,-281.923 1581.99,-281.923 1577.98,-284.909 1584.68,-285.532 1573.97,-287.896 1573.97,-287.896"/>
</g>
<!-- 19&#45;&gt;20 -->
<g id="edge49" class="edge"><title>19&#45;&gt;20</title>
<path fill="none" stroke="black" d="M1549.27,-324.303C1548.5,-332.017 1547.57,-341.288 1546.71,-349.888"/>
<polygon fill="black" stroke="black" points="1545.71,-359.896 1542.23,-349.497 1546.21,-354.92 1546.71,-349.945 1546.71,-349.945 1546.71,-349.945 1546.21,-354.92 1551.18,-350.393 1545.71,-359.896 1545.71,-359.896"/>
</g>
<!-- 24 -->
<g id="node25" class="node"><title>24</title>
<polygon fill="none" stroke="black" points="1298,-468 1170,-468 1170,-432 1298,-432 1298,-468"/>
<text text-anchor="middle" x="1234" y="-446.3" font-family="Times,serif" font-size="14.00">Policies.IndexPolicy</text>
</g>
<!-- 19&#45;&gt;24 -->
<g id="edge50" class="edge"><title>19&#45;&gt;24</title>
<path fill="none" stroke="black" d="M1512.76,-324.129C1454.81,-350.089 1344.82,-399.36 1281.71,-427.629"/>
<polygon fill="black" stroke="black" points="1272.37,-431.811 1279.66,-423.616 1276.94,-429.767 1281.5,-427.723 1281.5,-427.723 1281.5,-427.723 1276.94,-429.767 1283.34,-431.829 1272.37,-431.811 1272.37,-431.811"/>
</g>
<!-- 29 -->
<g id="node30" class="node"><title>29</title>
<polygon fill="none" stroke="black" points="1590,-468 1478,-468 1478,-432 1590,-432 1590,-468"/>
<text text-anchor="middle" x="1534" y="-446.3" font-family="Times,serif" font-size="14.00">Policies.Posterior</text>
</g>
<!-- 20&#45;&gt;29 -->
<g id="edge51" class="edge"><title>20&#45;&gt;29</title>
<path fill="none" stroke="black" d="M1541.53,-396.303C1540.43,-404.017 1539.1,-413.288 1537.87,-421.888"/>
<polygon fill="black" stroke="black" points="1536.44,-431.896 1533.4,-421.36 1537.15,-426.946 1537.86,-421.996 1537.86,-421.996 1537.86,-421.996 1537.15,-426.946 1542.31,-422.633 1536.44,-431.896 1536.44,-431.896"/>
</g>
<!-- 21&#45;&gt;17 -->
<g id="edge52" class="edge"><title>21&#45;&gt;17</title>
<path fill="none" stroke="black" d="M1705.72,-396.053C1695.23,-405.56 1683.31,-418.241 1676,-432 1665.78,-451.246 1661.06,-475.589 1658.87,-493.95"/>
<polygon fill="black" stroke="black" points="1657.86,-503.985 1654.39,-493.583 1658.36,-499.01 1658.86,-494.036 1658.86,-494.036 1658.86,-494.036 1658.36,-499.01 1663.34,-494.488 1657.86,-503.985 1657.86,-503.985"/>
</g>
<!-- 22&#45;&gt;17 -->
<g id="edge53" class="edge"><title>22&#45;&gt;17</title>
<path fill="none" stroke="black" d="M1727.01,-468.303C1715.19,-477.204 1700.61,-488.177 1687.82,-497.801"/>
<polygon fill="black" stroke="black" points="1679.72,-503.896 1685.01,-494.287 1683.72,-500.889 1687.71,-497.882 1687.71,-497.882 1687.71,-497.882 1683.72,-500.889 1690.42,-501.477 1679.72,-503.896 1679.72,-503.896"/>
</g>
<!-- 23&#45;&gt;17 -->
<g id="edge54" class="edge"><title>23&#45;&gt;17</title>
<path fill="none" stroke="black" d="M1911.68,-396.059C1896.75,-406.055 1877.92,-419.199 1862,-432 1843.62,-446.781 1843.39,-456.131 1823,-468 1794.1,-484.825 1759.21,-497.002 1728.89,-505.408"/>
<polygon fill="black" stroke="black" points="1719.22,-508.005 1727.71,-501.065 1724.05,-506.708 1728.88,-505.411 1728.88,-505.411 1728.88,-505.411 1724.05,-506.708 1730.04,-509.757 1719.22,-508.005 1719.22,-508.005"/>
</g>
<!-- 24&#45;&gt;17 -->
<g id="edge55" class="edge"><title>24&#45;&gt;17</title>
<path fill="none" stroke="black" d="M1298.24,-461.631C1375.38,-474.395 1504.38,-495.743 1584.86,-509.062"/>
<polygon fill="black" stroke="black" points="1594.91,-510.725 1584.31,-513.532 1589.98,-509.909 1585.05,-509.093 1585.05,-509.093 1585.05,-509.093 1589.98,-509.909 1585.78,-504.653 1594.91,-510.725 1594.91,-510.725"/>
</g>
<!-- 25 -->
<g id="node26" class="node"><title>25</title>
<polygon fill="none" stroke="black" points="1248.5,-324 1115.5,-324 1115.5,-288 1248.5,-288 1248.5,-324"/>
<text text-anchor="middle" x="1182" y="-302.3" font-family="Times,serif" font-size="14.00">Policies.KLempUCB</text>
</g>
<!-- 25&#45;&gt;24 -->
<g id="edge56" class="edge"><title>25&#45;&gt;24</title>
<path fill="none" stroke="black" d="M1183.88,-324.248C1186.29,-342.567 1191.36,-372.119 1201,-396 1204.75,-405.301 1210.11,-414.802 1215.41,-423.144"/>
<polygon fill="black" stroke="black" points="1221.07,-431.677 1211.79,-425.83 1218.3,-427.51 1215.54,-423.343 1215.54,-423.343 1215.54,-423.343 1218.3,-427.51 1219.29,-420.856 1221.07,-431.677 1221.07,-431.677"/>
</g>
<!-- 46 -->
<g id="node47" class="node"><title>46</title>
<polygon fill="none" stroke="black" points="1320,-396 1210,-396 1210,-360 1320,-360 1320,-396"/>
<text text-anchor="middle" x="1265" y="-374.3" font-family="Times,serif" font-size="14.00">Policies.kullback</text>
</g>
<!-- 25&#45;&gt;46 -->
<g id="edge57" class="edge"><title>25&#45;&gt;46</title>
<path fill="none" stroke="black" d="M1202.52,-324.303C1212.87,-333.035 1225.59,-343.76 1236.84,-353.25"/>
<polygon fill="black" stroke="black" points="1244.72,-359.896 1234.17,-356.889 1240.9,-356.672 1237.07,-353.449 1237.07,-353.449 1237.07,-353.449 1240.9,-356.672 1239.98,-350.009 1244.72,-359.896 1244.72,-359.896"/>
</g>
<!-- 26&#45;&gt;17 -->
<g id="edge58" class="edge"><title>26&#45;&gt;17</title>
<path fill="none" stroke="black" d="M1870.76,-464.746C1830.39,-475.37 1774.05,-490.198 1729.34,-501.964"/>
<polygon fill="black" stroke="black" points="1719.41,-504.578 1727.93,-497.681 1724.24,-503.305 1729.08,-502.033 1729.08,-502.033 1729.08,-502.033 1724.24,-503.305 1730.22,-506.384 1719.41,-504.578 1719.41,-504.578"/>
</g>
<!-- 27&#45;&gt;24 -->
<g id="edge59" class="edge"><title>27&#45;&gt;24</title>
<path fill="none" stroke="black" d="M566.774,-383.95C691.459,-396.106 1013.17,-427.47 1159.53,-441.739"/>
<polygon fill="black" stroke="black" points="1169.76,-442.737 1159.37,-446.245 1164.78,-442.251 1159.8,-441.766 1159.8,-441.766 1159.8,-441.766 1164.78,-442.251 1160.24,-437.287 1169.76,-442.737 1169.76,-442.737"/>
</g>
<!-- 28&#45;&gt;17 -->
<g id="edge60" class="edge"><title>28&#45;&gt;17</title>
<path fill="none" stroke="black" d="M1993.14,-466.219C1990.05,-466.835 1987,-467.431 1984,-468 1896.67,-484.582 1795.59,-500.461 1729.2,-510.441"/>
<polygon fill="black" stroke="black" points="1719.25,-511.931 1728.48,-505.999 1724.2,-511.19 1729.14,-510.449 1729.14,-510.449 1729.14,-510.449 1724.2,-511.19 1729.81,-514.9 1719.25,-511.931 1719.25,-511.931"/>
</g>
<!-- 30&#45;&gt;17 -->
<g id="edge61" class="edge"><title>30&#45;&gt;17</title>
<path fill="none" stroke="black" d="M2160.54,-396.308C2161.3,-416.695 2159.07,-450.054 2139,-468 2109.1,-494.738 1856.57,-511.04 1729.47,-517.625"/>
<polygon fill="black" stroke="black" points="1719.42,-518.138 1729.18,-513.133 1724.42,-517.883 1729.41,-517.627 1729.41,-517.627 1729.41,-517.627 1724.42,-517.883 1729.64,-522.122 1719.42,-518.138 1719.42,-518.138"/>
</g>
<!-- 31&#45;&gt;17 -->
<g id="edge62" class="edge"><title>31&#45;&gt;17</title>
<path fill="none" stroke="black" d="M174.785,-324.066C220.94,-343.028 298.605,-373.885 367,-396 485.169,-434.21 514.32,-448.673 637,-468 819.929,-496.819 1383.35,-513.893 1584.61,-519.203"/>
<polygon fill="black" stroke="black" points="1594.78,-519.469 1584.66,-523.705 1589.78,-519.338 1584.78,-519.207 1584.78,-519.207 1584.78,-519.207 1589.78,-519.338 1584.9,-514.708 1594.78,-519.469 1594.78,-519.469"/>
</g>
<!-- 32&#45;&gt;31 -->
<g id="edge63" class="edge"><title>32&#45;&gt;31</title>
<path fill="none" stroke="black" d="M221.623,-252.124C206.456,-261.276 187.595,-272.658 171.261,-282.515"/>
<polygon fill="black" stroke="black" points="162.486,-287.81 168.723,-278.791 166.767,-285.227 171.048,-282.644 171.048,-282.644 171.048,-282.644 166.767,-285.227 173.373,-286.496 162.486,-287.81 162.486,-287.81"/>
</g>
<!-- 33&#45;&gt;19 -->
<g id="edge64" class="edge"><title>33&#45;&gt;19</title>
<path fill="none" stroke="black" d="M1515.62,-252.303C1521.14,-260.526 1527.85,-270.517 1533.93,-279.579"/>
<polygon fill="black" stroke="black" points="1539.52,-287.896 1530.21,-282.102 1536.73,-283.745 1533.94,-279.593 1533.94,-279.593 1533.94,-279.593 1536.73,-283.745 1537.68,-277.085 1539.52,-287.896 1539.52,-287.896"/>
</g>
<!-- 34&#45;&gt;24 -->
<g id="edge65" class="edge"><title>34&#45;&gt;24</title>
<path fill="none" stroke="black" d="M827.828,-386.097C906.001,-398.204 1065.79,-422.949 1159.97,-437.535"/>
<polygon fill="black" stroke="black" points="1169.99,-439.088 1159.42,-442.004 1165.05,-438.322 1160.11,-437.557 1160.11,-437.557 1160.11,-437.557 1165.05,-438.322 1160.8,-433.11 1169.99,-439.088 1169.99,-439.088"/>
</g>
<!-- 35&#45;&gt;34 -->
<g id="edge66" class="edge"><title>35&#45;&gt;34</title>
<path fill="none" stroke="black" d="M782,-324.303C782,-332.017 782,-341.288 782,-349.888"/>
<polygon fill="black" stroke="black" points="782,-359.896 777.5,-349.896 782,-354.896 782,-349.896 782,-349.896 782,-349.896 782,-354.896 786.5,-349.896 782,-359.896 782,-359.896"/>
</g>
<!-- 36&#45;&gt;34 -->
<g id="edge67" class="edge"><title>36&#45;&gt;34</title>
<path fill="none" stroke="black" d="M879.443,-324.124C862.342,-333.404 841.018,-344.975 822.681,-354.925"/>
<polygon fill="black" stroke="black" points="813.678,-359.81 820.321,-351.086 818.073,-357.426 822.468,-355.041 822.468,-355.041 822.468,-355.041 818.073,-357.426 824.614,-358.996 813.678,-359.81 813.678,-359.81"/>
</g>
<!-- 37&#45;&gt;34 -->
<g id="edge68" class="edge"><title>37&#45;&gt;34</title>
<path fill="none" stroke="black" d="M988.706,-321.658C985.761,-322.451 982.845,-323.236 980,-324 931.845,-336.942 877.085,-351.595 837.377,-362.209"/>
<polygon fill="black" stroke="black" points="827.62,-364.817 836.119,-357.887 832.45,-363.526 837.281,-362.235 837.281,-362.235 837.281,-362.235 832.45,-363.526 838.443,-366.582 827.62,-364.817 827.62,-364.817"/>
</g>
<!-- 38&#45;&gt;34 -->
<g id="edge69" class="edge"><title>38&#45;&gt;34</title>
<path fill="none" stroke="black" d="M504.832,-321.857C507.929,-322.599 511,-323.318 514,-324 586.991,-340.604 671.847,-356.879 726.194,-366.921"/>
<polygon fill="black" stroke="black" points="736.31,-368.783 725.661,-371.398 731.393,-367.878 726.476,-366.972 726.476,-366.972 726.476,-366.972 731.393,-367.878 727.29,-362.547 736.31,-368.783 736.31,-368.783"/>
</g>
<!-- 39&#45;&gt;34 -->
<g id="edge70" class="edge"><title>39&#45;&gt;34</title>
<path fill="none" stroke="black" d="M643.767,-324.124C669.118,-333.821 701.011,-346.02 727.773,-356.257"/>
<polygon fill="black" stroke="black" points="737.379,-359.932 726.431,-360.562 732.709,-358.145 728.039,-356.359 728.039,-356.359 728.039,-356.359 732.709,-358.145 729.646,-352.156 737.379,-359.932 737.379,-359.932"/>
</g>
<!-- 40&#45;&gt;35 -->
<g id="edge71" class="edge"><title>40&#45;&gt;35</title>
<path fill="none" stroke="black" d="M870.379,-252.124C855.081,-261.276 836.057,-272.658 819.582,-282.515"/>
<polygon fill="black" stroke="black" points="810.731,-287.81 817.002,-278.814 815.022,-285.243 819.313,-282.676 819.313,-282.676 819.313,-282.676 815.022,-285.243 821.623,-286.538 810.731,-287.81 810.731,-287.81"/>
</g>
<!-- 41&#45;&gt;17 -->
<g id="edge72" class="edge"><title>41&#45;&gt;17</title>
<path fill="none" stroke="black" d="M306.162,-324.093C339.472,-344.923 399.498,-379.388 456,-396 670.171,-458.967 1359.23,-503.68 1584.79,-516.93"/>
<polygon fill="black" stroke="black" points="1594.85,-517.519 1584.61,-521.428 1589.86,-517.227 1584.87,-516.935 1584.87,-516.935 1584.87,-516.935 1589.86,-517.227 1585.13,-512.443 1594.85,-517.519 1594.85,-517.519"/>
</g>
<!-- 42&#45;&gt;41 -->
<g id="edge73" class="edge"><title>42&#45;&gt;41</title>
<path fill="none" stroke="black" d="M403.881,-252.124C381.362,-261.736 353.082,-273.807 329.229,-283.987"/>
<polygon fill="black" stroke="black" points="319.989,-287.932 327.419,-279.867 324.587,-285.969 329.186,-284.006 329.186,-284.006 329.186,-284.006 324.587,-285.969 330.952,-288.145 319.989,-287.932 319.989,-287.932"/>
</g>
<!-- 43&#45;&gt;24 -->
<g id="edge74" class="edge"><title>43&#45;&gt;24</title>
<path fill="none" stroke="black" d="M1325.41,-324.333C1333.28,-343.256 1342.03,-373.816 1329,-396 1321.23,-409.226 1308.83,-419.394 1295.52,-427.114"/>
<polygon fill="black" stroke="black" points="1286.68,-431.841 1293.38,-423.157 1291.09,-429.483 1295.5,-427.125 1295.5,-427.125 1295.5,-427.125 1291.09,-429.483 1297.62,-431.093 1286.68,-431.841 1286.68,-431.841"/>
</g>
<!-- 43&#45;&gt;46 -->
<g id="edge75" class="edge"><title>43&#45;&gt;46</title>
<path fill="none" stroke="black" d="M1304.15,-324.303C1297.97,-332.611 1290.46,-342.723 1283.68,-351.859"/>
<polygon fill="black" stroke="black" points="1277.71,-359.896 1280.06,-349.185 1280.69,-355.882 1283.67,-351.868 1283.67,-351.868 1283.67,-351.868 1280.69,-355.882 1287.28,-354.552 1277.71,-359.896 1277.71,-359.896"/>
</g>
<!-- 44&#45;&gt;43 -->
<g id="edge76" class="edge"><title>44&#45;&gt;43</title>
<path fill="none" stroke="black" d="M1319.26,-252.303C1318.93,-260.017 1318.53,-269.288 1318.16,-277.888"/>
<polygon fill="black" stroke="black" points="1317.73,-287.896 1313.67,-277.712 1317.95,-282.9 1318.16,-277.905 1318.16,-277.905 1318.16,-277.905 1317.95,-282.9 1322.66,-278.098 1317.73,-287.896 1317.73,-287.896"/>
</g>
<!-- 44&#45;&gt;46 -->
<g id="edge77" class="edge"><title>44&#45;&gt;46</title>
<path fill="none" stroke="black" d="M1346.12,-252.184C1357.58,-261.308 1369.81,-273.614 1376,-288 1382.33,-302.696 1384.54,-310.467 1376,-324 1365.38,-340.843 1347.77,-352.448 1329.67,-360.395"/>
<polygon fill="black" stroke="black" points="1320.19,-364.227 1327.78,-356.306 1324.83,-362.352 1329.46,-360.478 1329.46,-360.478 1329.46,-360.478 1324.83,-362.352 1331.15,-364.65 1320.19,-364.227 1320.19,-364.227"/>
</g>
<!-- 45&#45;&gt;43 -->
<g id="edge78" class="edge"><title>45&#45;&gt;43</title>
<path fill="none" stroke="black" d="M1207.47,-252.124C1227.12,-261.608 1251.72,-273.487 1272.63,-283.581"/>
<polygon fill="black" stroke="black" points="1281.64,-287.932 1270.68,-287.637 1277.14,-285.758 1272.64,-283.584 1272.64,-283.584 1272.64,-283.584 1277.14,-285.758 1274.6,-279.532 1281.64,-287.932 1281.64,-287.932"/>
</g>
<!-- 47 -->
<g id="node48" class="node"><title>47</title>
<polygon fill="none" stroke="black" points="3653,-180 3523,-180 3523,-144 3653,-144 3653,-180"/>
<text text-anchor="middle" x="3588" y="-158.3" font-family="Times,serif" font-size="14.00">PoliciesMultiPlayers</text>
</g>
<!-- 50 -->
<g id="node51" class="node"><title>50</title>
<polygon fill="none" stroke="black" points="3930,-252 3712,-252 3712,-216 3930,-216 3930,-252"/>
<text text-anchor="middle" x="3821" y="-230.3" font-family="Times,serif" font-size="14.00">PoliciesMultiPlayers.CentralizedFair</text>
</g>
<!-- 47&#45;&gt;50 -->
<g id="edge79" class="edge"><title>47&#45;&gt;50</title>
<path fill="none" stroke="black" d="M3644.7,-180.034C3677.68,-189.943 3719.43,-202.486 3754.03,-212.879"/>
<polygon fill="black" stroke="black" points="3764.05,-215.889 3753.17,-217.322 3759.26,-214.451 3754.47,-213.012 3754.47,-213.012 3754.47,-213.012 3759.26,-214.451 3755.76,-208.702 3764.05,-215.889 3764.05,-215.889"/>
</g>
<!-- 51 -->
<g id="node52" class="node"><title>51</title>
<polygon fill="none" stroke="black" points="3254,-252 3016,-252 3016,-216 3254,-216 3254,-252"/>
<text text-anchor="middle" x="3135" y="-230.3" font-family="Times,serif" font-size="14.00">PoliciesMultiPlayers.CentralizedNotFair</text>
</g>
<!-- 47&#45;&gt;51 -->
<g id="edge80" class="edge"><title>47&#45;&gt;51</title>
<path fill="none" stroke="black" d="M3522.61,-173.104C3452.85,-183.884 3340.81,-201.198 3255.08,-214.444"/>
<polygon fill="black" stroke="black" points="3245.03,-215.998 3254.22,-210.023 3249.97,-215.234 3254.91,-214.471 3254.91,-214.471 3254.91,-214.471 3249.97,-215.234 3255.6,-218.918 3245.03,-215.998 3245.03,-215.998"/>
</g>
<!-- 54 -->
<g id="node55" class="node"><title>54</title>
<polygon fill="none" stroke="black" points="3463.5,-252 3272.5,-252 3272.5,-216 3463.5,-216 3463.5,-252"/>
<text text-anchor="middle" x="3368" y="-230.3" font-family="Times,serif" font-size="14.00">PoliciesMultiPlayers.OracleFair</text>
</g>
<!-- 47&#45;&gt;54 -->
<g id="edge81" class="edge"><title>47&#45;&gt;54</title>
<path fill="none" stroke="black" d="M3534.46,-180.034C3503.46,-189.9 3464.24,-202.378 3431.66,-212.745"/>
<polygon fill="black" stroke="black" points="3421.78,-215.889 3429.94,-208.569 3426.54,-214.373 3431.31,-212.857 3431.31,-212.857 3431.31,-212.857 3426.54,-214.373 3432.67,-217.145 3421.78,-215.889 3421.78,-215.889"/>
</g>
<!-- 55 -->
<g id="node56" class="node"><title>55</title>
<polygon fill="none" stroke="black" points="3694,-252 3482,-252 3482,-216 3694,-216 3694,-252"/>
<text text-anchor="middle" x="3588" y="-230.3" font-family="Times,serif" font-size="14.00">PoliciesMultiPlayers.OracleNotFair</text>
</g>
<!-- 47&#45;&gt;55 -->
<g id="edge82" class="edge"><title>47&#45;&gt;55</title>
<path fill="none" stroke="black" d="M3588,-180.303C3588,-188.017 3588,-197.288 3588,-205.888"/>
<polygon fill="black" stroke="black" points="3588,-215.896 3583.5,-205.896 3588,-210.896 3588,-205.896 3588,-205.896 3588,-205.896 3588,-210.896 3592.5,-205.896 3588,-215.896 3588,-215.896"/>
</g>
<!-- 56 -->
<g id="node57" class="node"><title>56</title>
<polygon fill="none" stroke="black" points="4119.5,-252 3948.5,-252 3948.5,-216 4119.5,-216 4119.5,-252"/>
<text text-anchor="middle" x="4034" y="-230.3" font-family="Times,serif" font-size="14.00">PoliciesMultiPlayers.Selfish</text>
</g>
<!-- 47&#45;&gt;56 -->
<g id="edge83" class="edge"><title>47&#45;&gt;56</title>
<path fill="none" stroke="black" d="M3653.1,-172.289C3721.49,-182.17 3832.46,-198.548 3938.41,-215.926"/>
<polygon fill="black" stroke="black" points="3948.31,-217.556 3937.72,-220.372 3943.38,-216.744 3938.45,-215.932 3938.45,-215.932 3938.45,-215.932 3943.38,-216.744 3939.18,-211.492 3948.31,-217.556 3948.31,-217.556"/>
</g>
<!-- 58 -->
<g id="node59" class="node"><title>58</title>
<polygon fill="none" stroke="black" points="4318,-252 4138,-252 4138,-216 4318,-216 4318,-252"/>
<text text-anchor="middle" x="4228" y="-230.3" font-family="Times,serif" font-size="14.00">PoliciesMultiPlayers.rhoRand</text>
</g>
<!-- 47&#45;&gt;58 -->
<g id="edge84" class="edge"><title>47&#45;&gt;58</title>
<path fill="none" stroke="black" d="M3653.13,-167.849C3753.05,-175.625 3950.35,-192.317 4127.89,-215.904"/>
<polygon fill="black" stroke="black" points="4137.93,-217.249 4127.43,-220.383 4132.98,-216.586 4128.02,-215.922 4128.02,-215.922 4128.02,-215.922 4132.98,-216.586 4128.62,-211.462 4137.93,-217.249 4137.93,-217.249"/>
</g>
<!-- 48 -->
<g id="node49" class="node"><title>48</title>
<polygon fill="none" stroke="black" points="3485.5,-324 3228.5,-324 3228.5,-288 3485.5,-288 3485.5,-324"/>
<text text-anchor="middle" x="3357" y="-302.3" font-family="Times,serif" font-size="14.00">PoliciesMultiPlayers.BaseCentralizedPolicy</text>
</g>
<!-- 49 -->
<g id="node50" class="node"><title>49</title>
<polygon fill="none" stroke="black" points="3939.5,-324 3724.5,-324 3724.5,-288 3939.5,-288 3939.5,-324"/>
<text text-anchor="middle" x="3832" y="-302.3" font-family="Times,serif" font-size="14.00">PoliciesMultiPlayers.BaseMPPolicy</text>
</g>
<!-- 50&#45;&gt;48 -->
<g id="edge85" class="edge"><title>50&#45;&gt;48</title>
<path fill="none" stroke="black" d="M3711.92,-251.456C3642.33,-261.955 3551.98,-275.584 3479.86,-286.465"/>
<polygon fill="black" stroke="black" points="3469.81,-287.981 3479.03,-282.039 3474.76,-287.235 3479.7,-286.489 3479.7,-286.489 3479.7,-286.489 3474.76,-287.235 3480.37,-290.939 3469.81,-287.981 3469.81,-287.981"/>
</g>
<!-- 50&#45;&gt;49 -->
<g id="edge86" class="edge"><title>50&#45;&gt;49</title>
<path fill="none" stroke="black" d="M3823.72,-252.303C3824.93,-260.017 3826.39,-269.288 3827.74,-277.888"/>
<polygon fill="black" stroke="black" points="3829.31,-287.896 3823.31,-278.716 3828.54,-282.956 3827.76,-278.017 3827.76,-278.017 3827.76,-278.017 3828.54,-282.956 3832.21,-277.318 3829.31,-287.896 3829.31,-287.896"/>
</g>
<!-- 52 -->
<g id="node53" class="node"><title>52</title>
<polygon fill="none" stroke="black" points="3706.5,-324 3503.5,-324 3503.5,-288 3706.5,-288 3706.5,-324"/>
<text text-anchor="middle" x="3605" y="-302.3" font-family="Times,serif" font-size="14.00">PoliciesMultiPlayers.ChildPointer</text>
</g>
<!-- 50&#45;&gt;52 -->
<g id="edge87" class="edge"><title>50&#45;&gt;52</title>
<path fill="none" stroke="black" d="M3768.44,-252.034C3737.99,-261.9 3699.49,-274.378 3667.5,-284.745"/>
<polygon fill="black" stroke="black" points="3657.8,-287.889 3665.92,-280.525 3662.56,-286.348 3667.31,-284.806 3667.31,-284.806 3667.31,-284.806 3662.56,-286.348 3668.7,-289.087 3657.8,-287.889 3657.8,-287.889"/>
</g>
<!-- 51&#45;&gt;48 -->
<g id="edge88" class="edge"><title>51&#45;&gt;48</title>
<path fill="none" stroke="black" d="M3189.02,-252.034C3220.45,-261.943 3260.23,-274.486 3293.19,-284.879"/>
<polygon fill="black" stroke="black" points="3302.73,-287.889 3291.84,-289.174 3297.97,-286.386 3293.2,-284.882 3293.2,-284.882 3293.2,-284.882 3297.97,-286.386 3294.55,-280.59 3302.73,-287.889 3302.73,-287.889"/>
</g>
<!-- 51&#45;&gt;49 -->
<g id="edge89" class="edge"><title>51&#45;&gt;49</title>
<path fill="none" stroke="black" d="M3254.21,-251.041C3257.17,-251.372 3260.1,-251.692 3263,-252 3460.17,-272.931 3513.04,-265.743 3714.28,-287.966"/>
<polygon fill="black" stroke="black" points="3724.29,-289.082 3713.86,-292.446 3719.32,-288.528 3714.35,-287.974 3714.35,-287.974 3714.35,-287.974 3719.32,-288.528 3714.85,-283.502 3724.29,-289.082 3724.29,-289.082"/>
</g>
<!-- 51&#45;&gt;52 -->
<g id="edge90" class="edge"><title>51&#45;&gt;52</title>
<path fill="none" stroke="black" d="M3251.43,-252.027C3319.09,-261.96 3406.26,-274.824 3493.32,-287.901"/>
<polygon fill="black" stroke="black" points="3503.38,-289.414 3492.82,-292.377 3498.44,-288.671 3493.49,-287.927 3493.49,-287.927 3493.49,-287.927 3498.44,-288.671 3494.16,-283.477 3503.38,-289.414 3503.38,-289.414"/>
</g>
<!-- 53 -->
<g id="node54" class="node"><title>53</title>
<polygon fill="none" stroke="black" points="2639.5,-36 2474.5,-36 2474.5,-0 2639.5,-0 2639.5,-36"/>
<text text-anchor="middle" x="2557" y="-14.3" font-family="Times,serif" font-size="14.00">PoliciesMultiPlayers.DMC</text>
</g>
<!-- 54&#45;&gt;48 -->
<g id="edge91" class="edge"><title>54&#45;&gt;48</title>
<path fill="none" stroke="black" d="M3365.28,-252.303C3364.07,-260.017 3362.61,-269.288 3361.26,-277.888"/>
<polygon fill="black" stroke="black" points="3359.69,-287.896 3356.79,-277.318 3360.46,-282.956 3361.24,-278.017 3361.24,-278.017 3361.24,-278.017 3360.46,-282.956 3365.69,-278.716 3359.69,-287.896 3359.69,-287.896"/>
</g>
<!-- 54&#45;&gt;49 -->
<g id="edge92" class="edge"><title>54&#45;&gt;49</title>
<path fill="none" stroke="black" d="M3463.56,-250.53C3466.74,-251.029 3469.9,-251.52 3473,-252 3518.22,-258.998 3627.69,-275.116 3713.95,-287.753"/>
<polygon fill="black" stroke="black" points="3724.08,-289.237 3713.54,-292.24 3719.14,-288.513 3714.19,-287.788 3714.19,-287.788 3714.19,-287.788 3719.14,-288.513 3714.84,-283.335 3724.08,-289.237 3724.08,-289.237"/>
</g>
<!-- 54&#45;&gt;52 -->
<g id="edge93" class="edge"><title>54&#45;&gt;52</title>
<path fill="none" stroke="black" d="M3425.67,-252.034C3459.36,-261.985 3502.05,-274.594 3537.33,-285.013"/>
<polygon fill="black" stroke="black" points="3547.07,-287.889 3536.2,-289.372 3542.27,-286.473 3537.48,-285.057 3537.48,-285.057 3537.48,-285.057 3542.27,-286.473 3538.75,-280.741 3547.07,-287.889 3547.07,-287.889"/>
</g>
<!-- 55&#45;&gt;48 -->
<g id="edge94" class="edge"><title>55&#45;&gt;48</title>
<path fill="none" stroke="black" d="M3531.79,-252.034C3499.09,-261.943 3457.7,-274.486 3423.4,-284.879"/>
<polygon fill="black" stroke="black" points="3413.47,-287.889 3421.73,-280.682 3418.25,-286.439 3423.04,-284.989 3423.04,-284.989 3423.04,-284.989 3418.25,-286.439 3424.34,-289.296 3413.47,-287.889 3413.47,-287.889"/>
</g>
<!-- 55&#45;&gt;49 -->
<g id="edge95" class="edge"><title>55&#45;&gt;49</title>
<path fill="none" stroke="black" d="M3647.38,-252.034C3682.06,-261.985 3726.01,-274.594 3762.33,-285.013"/>
<polygon fill="black" stroke="black" points="3772.36,-287.889 3761.5,-289.457 3767.55,-286.51 3762.74,-285.132 3762.74,-285.132 3762.74,-285.132 3767.55,-286.51 3763.99,-280.806 3772.36,-287.889 3772.36,-287.889"/>
</g>
<!-- 55&#45;&gt;52 -->
<g id="edge96" class="edge"><title>55&#45;&gt;52</title>
<path fill="none" stroke="black" d="M3592.2,-252.303C3594.1,-260.102 3596.38,-269.491 3598.48,-278.171"/>
<polygon fill="black" stroke="black" points="3600.85,-287.896 3594.11,-279.24 3599.67,-283.037 3598.49,-278.178 3598.49,-278.178 3598.49,-278.178 3599.67,-283.037 3602.86,-277.116 3600.85,-287.896 3600.85,-287.896"/>
</g>
<!-- 56&#45;&gt;49 -->
<g id="edge97" class="edge"><title>56&#45;&gt;49</title>
<path fill="none" stroke="black" d="M3984.84,-252.034C3956.5,-261.858 3920.68,-274.271 3890.84,-284.611"/>
<polygon fill="black" stroke="black" points="3881.38,-287.889 3889.35,-280.363 3886.1,-286.252 3890.83,-284.615 3890.83,-284.615 3890.83,-284.615 3886.1,-286.252 3892.3,-288.867 3881.38,-287.889 3881.38,-287.889"/>
</g>
<!-- 56&#45;&gt;52 -->
<g id="edge98" class="edge"><title>56&#45;&gt;52</title>
<path fill="none" stroke="black" d="M3948.31,-250.414C3945.17,-250.954 3942.06,-251.484 3939,-252 3897.29,-259.04 3796.73,-274.945 3716.77,-287.506"/>
<polygon fill="black" stroke="black" points="3706.63,-289.098 3715.81,-283.101 3711.57,-288.323 3716.51,-287.547 3716.51,-287.547 3716.51,-287.547 3711.57,-288.323 3717.21,-291.992 3706.63,-289.098 3706.63,-289.098"/>
</g>
<!-- 57 -->
<g id="node58" class="node"><title>57</title>
<polygon fill="none" stroke="black" points="2824.5,-36 2657.5,-36 2657.5,-0 2824.5,-0 2824.5,-36"/>
<text text-anchor="middle" x="2741" y="-14.3" font-family="Times,serif" font-size="14.00">PoliciesMultiPlayers.TDFS</text>
</g>
<!-- 58&#45;&gt;49 -->
<g id="edge99" class="edge"><title>58&#45;&gt;49</title>
<path fill="none" stroke="black" d="M4137.65,-250.972C4078.28,-261.466 4000.35,-275.241 3938.05,-286.254"/>
<polygon fill="black" stroke="black" points="3928.19,-287.997 3937.25,-281.825 3933.11,-287.127 3938.03,-286.257 3938.03,-286.257 3938.03,-286.257 3933.11,-287.127 3938.82,-290.688 3928.19,-287.997 3928.19,-287.997"/>
</g>
<!-- 58&#45;&gt;52 -->
<g id="edge100" class="edge"><title>58&#45;&gt;52</title>
<path fill="none" stroke="black" d="M4137.94,-250.792C4134.93,-251.216 4131.94,-251.62 4129,-252 3949.05,-275.234 3900.08,-266.216 3716.54,-287.862"/>
<polygon fill="black" stroke="black" points="3706.55,-289.053 3715.95,-283.4 3711.52,-288.461 3716.48,-287.868 3716.48,-287.868 3716.48,-287.868 3711.52,-288.461 3717.02,-292.336 3706.55,-289.053 3706.55,-289.053"/>
</g>
<!-- 59 -->
<g id="node60" class="node"><title>59</title>
<polygon fill="none" stroke="black" points="402.5,-108 313.5,-108 313.5,-72 402.5,-72 402.5,-108"/>
<text text-anchor="middle" x="358" y="-86.3" font-family="Times,serif" font-size="14.00">configuration</text>
</g>
<!-- 59&#45;&gt;2 -->
<g id="edge101" class="edge"><title>59&#45;&gt;2</title>
<path fill="none" stroke="black" d="M372.337,-108.303C379.291,-116.695 387.77,-126.93 395.401,-136.139"/>
<polygon fill="black" stroke="black" points="401.828,-143.896 391.983,-139.067 398.638,-140.046 395.448,-136.195 395.448,-136.195 395.448,-136.195 398.638,-140.046 398.913,-133.324 401.828,-143.896 401.828,-143.896"/>
</g>
<!-- 59&#45;&gt;3 -->
<g id="edge102" class="edge"><title>59&#45;&gt;3</title>
<path fill="none" stroke="black" d="M313.255,-100.832C268.4,-110.766 197.106,-126.763 126.098,-143.764"/>
<polygon fill="black" stroke="black" points="116.083,-146.169 124.756,-139.458 120.945,-145.001 125.806,-143.834 125.806,-143.834 125.806,-143.834 120.945,-145.001 126.857,-148.209 116.083,-146.169 116.083,-146.169"/>
</g>
<!-- 59&#45;&gt;4 -->
<g id="edge103" class="edge"><title>59&#45;&gt;4</title>
<path fill="none" stroke="black" d="M315.679,-108.124C291.819,-117.778 261.828,-129.913 236.597,-140.122"/>
<polygon fill="black" stroke="black" points="227.183,-143.932 234.765,-136.009 231.818,-142.056 236.453,-140.181 236.453,-140.181 236.453,-140.181 231.818,-142.056 238.141,-144.352 227.183,-143.932 227.183,-143.932"/>
</g>
<!-- 59&#45;&gt;5 -->
<g id="edge104" class="edge"><title>59&#45;&gt;5</title>
<path fill="none" stroke="black" d="M343.663,-108.303C336.709,-116.695 328.23,-126.93 320.599,-136.139"/>
<polygon fill="black" stroke="black" points="314.172,-143.896 317.087,-133.324 317.362,-140.046 320.552,-136.195 320.552,-136.195 320.552,-136.195 317.362,-140.046 324.017,-139.067 314.172,-143.896 314.172,-143.896"/>
</g>
<!-- 59&#45;&gt;14 -->
<g id="edge105" class="edge"><title>59&#45;&gt;14</title>
<path fill="none" stroke="black" d="M402.681,-95.326C533.86,-108.027 916.471,-145.07 1041.19,-157.145"/>
<polygon fill="black" stroke="black" points="1051.42,-158.136 1041.04,-161.652 1046.45,-157.655 1041.47,-157.173 1041.47,-157.173 1041.47,-157.173 1046.45,-157.655 1041.9,-152.694 1051.42,-158.136 1051.42,-158.136"/>
</g>
<!-- 60 -->
<g id="node61" class="node"><title>60</title>
<polygon fill="none" stroke="black" points="2479,-108 2315,-108 2315,-72 2479,-72 2479,-108"/>
<text text-anchor="middle" x="2397" y="-86.3" font-family="Times,serif" font-size="14.00">configuration_multiplayers</text>
</g>
<!-- 60&#45;&gt;2 -->
<g id="edge106" class="edge"><title>60&#45;&gt;2</title>
<path fill="none" stroke="black" d="M2314.75,-106.963C2311.8,-107.345 2308.88,-107.693 2306,-108 2294.36,-109.243 800.737,-150.41 477.308,-159.313"/>
<polygon fill="black" stroke="black" points="467.19,-159.592 477.062,-154.818 472.188,-159.454 477.186,-159.316 477.186,-159.316 477.186,-159.316 472.188,-159.454 477.31,-163.815 467.19,-159.592 467.19,-159.592"/>
</g>
<!-- 60&#45;&gt;7 -->
<g id="edge107" class="edge"><title>60&#45;&gt;7</title>
<path fill="none" stroke="black" d="M2479.22,-106.893C2526.05,-116.489 2585.64,-129.621 2638,-144 2712.35,-164.417 2796.5,-193.197 2850.58,-212.445"/>
<polygon fill="black" stroke="black" points="2860.31,-215.924 2849.38,-216.797 2855.6,-214.242 2850.9,-212.56 2850.9,-212.56 2850.9,-212.56 2855.6,-214.242 2852.41,-208.322 2860.31,-215.924 2860.31,-215.924"/>
</g>
<!-- 60&#45;&gt;10 -->
<g id="edge108" class="edge"><title>60&#45;&gt;10</title>
<path fill="none" stroke="black" d="M2391.09,-108.129C2382.7,-132.436 2367.26,-177.181 2357.32,-205.987"/>
<polygon fill="black" stroke="black" points="2353.93,-215.811 2352.94,-204.89 2355.56,-211.084 2357.19,-206.358 2357.19,-206.358 2357.19,-206.358 2355.56,-211.084 2361.45,-207.826 2353.93,-215.811 2353.93,-215.811"/>
</g>
<!-- 60&#45;&gt;14 -->
<g id="edge109" class="edge"><title>60&#45;&gt;14</title>
<path fill="none" stroke="black" d="M2314.74,-106.907C2311.79,-107.304 2308.87,-107.671 2306,-108 1842.33,-161.071 1274.39,-162.113 1120.84,-161.318"/>
<polygon fill="black" stroke="black" points="1110.51,-161.259 1120.54,-156.816 1115.51,-161.287 1120.51,-161.316 1120.51,-161.316 1120.51,-161.316 1115.51,-161.287 1120.48,-165.816 1110.51,-161.259 1110.51,-161.259"/>
</g>
<!-- 60&#45;&gt;47 -->
<g id="edge110" class="edge"><title>60&#45;&gt;47</title>
<path fill="none" stroke="black" d="M2479.33,-95.839C2699.76,-108.795 3300.94,-144.129 3512.85,-156.583"/>
<polygon fill="black" stroke="black" points="3522.94,-157.176 3512.7,-161.082 3517.95,-156.883 3512.96,-156.59 3512.96,-156.59 3512.96,-156.59 3517.95,-156.883 3513.23,-152.097 3522.94,-157.176 3522.94,-157.176"/>
</g>
<!-- 61 -->
<g id="node62" class="node"><title>61</title>
<polygon fill="none" stroke="black" points="2208,-36 2154,-36 2154,-0 2208,-0 2208,-36"/>
<text text-anchor="middle" x="2181" y="-14.3" font-family="Times,serif" font-size="14.00">main</text>
</g>
<!-- 61&#45;&gt;6 -->
<g id="edge111" class="edge"><title>61&#45;&gt;6</title>
<path fill="none" stroke="black" d="M2198.8,-36.3034C2207.6,-44.865 2218.38,-55.3438 2228,-64.6955"/>
<polygon fill="black" stroke="black" points="2235.41,-71.8957 2225.1,-68.1513 2231.82,-68.4103 2228.24,-64.9249 2228.24,-64.9249 2228.24,-64.9249 2231.82,-68.4103 2231.37,-61.6984 2235.41,-71.8957 2235.41,-71.8957"/>
</g>
<!-- 61&#45;&gt;8 -->
<g id="edge112" class="edge"><title>61&#45;&gt;8</title>
<path fill="none" stroke="black" d="M2182.02,-36.2851C2183.72,-54.8965 2188.19,-84.9352 2200,-108 2205.28,-118.322 2213.1,-128.167 2220.9,-136.51"/>
<polygon fill="black" stroke="black" points="2227.99,-143.719 2217.77,-139.741 2224.48,-140.153 2220.98,-136.587 2220.98,-136.587 2220.98,-136.587 2224.48,-140.153 2224.19,-133.433 2227.99,-143.719 2227.99,-143.719"/>
</g>
<!-- 61&#45;&gt;59 -->
<g id="edge113" class="edge"><title>61&#45;&gt;59</title>
<path fill="none" stroke="black" d="M2153.82,-20.0439C1952.44,-27.7763 692.64,-76.1504 412.96,-86.8896"/>
<polygon fill="black" stroke="black" points="402.662,-87.2851 412.482,-82.4046 407.658,-87.0932 412.654,-86.9013 412.654,-86.9013 412.654,-86.9013 407.658,-87.0932 412.827,-91.398 402.662,-87.2851 402.662,-87.2851"/>
</g>
<!-- 62 -->
<g id="node63" class="node"><title>62</title>
<polygon fill="none" stroke="black" points="2456.5,-36 2337.5,-36 2337.5,-0 2456.5,-0 2456.5,-36"/>
<text text-anchor="middle" x="2397" y="-14.3" font-family="Times,serif" font-size="14.00">main_multiplayers</text>
</g>
<!-- 62&#45;&gt;6 -->
<g id="edge114" class="edge"><title>62&#45;&gt;6</title>
<path fill="none" stroke="black" d="M2361.77,-36.1239C2342.42,-45.5307 2318.23,-57.2923 2297.57,-67.3328"/>
<polygon fill="black" stroke="black" points="2288.36,-71.8102 2295.39,-63.3911 2292.86,-69.6243 2297.36,-67.4383 2297.36,-67.4383 2297.36,-67.4383 2292.86,-69.6243 2299.32,-71.4854 2288.36,-71.8102 2288.36,-71.8102"/>
</g>
<!-- 62&#45;&gt;9 -->
<g id="edge115" class="edge"><title>62&#45;&gt;9</title>
<path fill="none" stroke="black" d="M2439.33,-36.0966C2456.35,-44.7313 2474.98,-56.6722 2488,-72 2503.09,-89.7633 2511.87,-114.935 2516.71,-133.979"/>
<polygon fill="black" stroke="black" points="2519.01,-143.842 2512.36,-135.126 2517.88,-138.973 2516.74,-134.104 2516.74,-134.104 2516.74,-134.104 2517.88,-138.973 2521.12,-133.081 2519.01,-143.842 2519.01,-143.842"/>
</g>
<!-- 62&#45;&gt;60 -->
<g id="edge116" class="edge"><title>62&#45;&gt;60</title>
<path fill="none" stroke="black" d="M2397,-36.3034C2397,-44.0173 2397,-53.2875 2397,-61.8876"/>
<polygon fill="black" stroke="black" points="2397,-71.8957 2392.5,-61.8956 2397,-66.8957 2397,-61.8957 2397,-61.8957 2397,-61.8957 2397,-66.8957 2401.5,-61.8957 2397,-71.8957 2397,-71.8957"/>
</g>
</g>
</svg>
