<?xml version="1.0" encoding="UTF-8" standalone="no"?>
<!DOCTYPE svg PUBLIC "-//W3C//DTD SVG 1.1//EN"
 "http://www.w3.org/Graphics/SVG/1.1/DTD/svg11.dtd">
<!-- Generated by graphviz version 2.40.1 (20161225.0304)
 -->
<!-- Title: packages_SMPyBandits.Environment Pages: 1 -->
<svg width="2530pt" height="332pt"
 viewBox="0.00 0.00 2530.40 332.00" xmlns="http://www.w3.org/2000/svg" xmlns:xlink="http://www.w3.org/1999/xlink">
<g id="graph0" class="graph" transform="scale(1 1) rotate(0) translate(4 328)">
<title>packages_SMPyBandits.Environment</title>
<polygon fill="#ffffff" stroke="transparent" points="-4,4 -4,-328 2526.3955,-328 2526.3955,4 -4,4"/>
<!-- 0 -->
<g id="node1" class="node">
<title>0</title>
<polygon fill="none" stroke="#000000" points="1272.8955,-36 1105.8955,-36 1105.8955,0 1272.8955,0 1272.8955,-36"/>
<text text-anchor="middle" x="1189.3955" y="-14.3" font-family="Times,serif" font-size="14.00" fill="#000000">SMPyBandits.Environment</text>
</g>
<!-- 1 -->
<g id="node2" class="node">
<title>1</title>
<polygon fill="none" stroke="#000000" points="1354.3955,-252 1092.3955,-252 1092.3955,-216 1354.3955,-216 1354.3955,-252"/>
<text text-anchor="middle" x="1223.3955" y="-230.3" font-family="Times,serif" font-size="14.00" fill="#000000">SMPyBandits.Environment.CollisionModels</text>
</g>
<!-- 0&#45;&gt;1 -->
<g id="edge1" class="edge">
<title>0&#45;&gt;1</title>
<path fill="none" stroke="#000000" d="M1191.046,-36.0878C1193.943,-66.1372 1200.5821,-128.1707 1210.3955,-180 1211.9848,-188.3938 1214.031,-197.4452 1216.0275,-205.6938"/>
<polygon fill="#000000" stroke="#000000" points="1218.4918,-215.6026 1211.7113,-206.9843 1217.285,-210.7504 1216.0783,-205.8982 1216.0783,-205.8982 1216.0783,-205.8982 1217.285,-210.7504 1220.4453,-204.8122 1218.4918,-215.6026 1218.4918,-215.6026"/>
</g>
<!-- 2 -->
<g id="node3" class="node">
<title>2</title>
<polygon fill="none" stroke="#000000" points="845.3955,-180 621.3955,-180 621.3955,-144 845.3955,-144 845.3955,-180"/>
<text text-anchor="middle" x="733.3955" y="-158.3" font-family="Times,serif" font-size="14.00" fill="#000000">SMPyBandits.Environment.Evaluator</text>
</g>
<!-- 0&#45;&gt;2 -->
<g id="edge2" class="edge">
<title>0&#45;&gt;2</title>
<path fill="none" stroke="#000000" d="M1105.8249,-25.6288C1045.2105,-32.9628 961.9977,-46.7931 892.3955,-72 846.597,-88.5862 798.5312,-117.658 767.3976,-138.2682"/>
<polygon fill="#000000" stroke="#000000" points="759.0813,-143.8396 764.8847,-134.5352 763.2353,-141.0567 767.3893,-138.2738 767.3893,-138.2738 767.3893,-138.2738 763.2353,-141.0567 769.8939,-142.0124 759.0813,-143.8396 759.0813,-143.8396"/>
</g>
<!-- 3 -->
<g id="node4" class="node">
<title>3</title>
<polygon fill="none" stroke="#000000" points="1529.3955,-180 1235.3955,-180 1235.3955,-144 1529.3955,-144 1529.3955,-180"/>
<text text-anchor="middle" x="1382.3955" y="-158.3" font-family="Times,serif" font-size="14.00" fill="#000000">SMPyBandits.Environment.EvaluatorMultiPlayers</text>
</g>
<!-- 0&#45;&gt;3 -->
<g id="edge3" class="edge">
<title>0&#45;&gt;3</title>
<path fill="none" stroke="#000000" d="M1192.7112,-36.0445C1197.3251,-56.2281 1207.5791,-88.6243 1228.3955,-108 1243.5444,-122.1005 1262.5866,-132.5508 1282.0668,-140.2859"/>
<polygon fill="#000000" stroke="#000000" points="1291.6499,-143.8691 1280.7072,-144.5817 1286.9666,-142.1179 1282.2833,-140.3667 1282.2833,-140.3667 1282.2833,-140.3667 1286.9666,-142.1179 1283.8593,-136.1517 1291.6499,-143.8691 1291.6499,-143.8691"/>
</g>
<!-- 4 -->
<g id="node5" class="node">
<title>4</title>
<polygon fill="none" stroke="#000000" points="1567.3955,-108 1237.3955,-108 1237.3955,-72 1567.3955,-72 1567.3955,-108"/>
<text text-anchor="middle" x="1402.3955" y="-86.3" font-family="Times,serif" font-size="14.00" fill="#000000">SMPyBandits.Environment.EvaluatorSparseMultiPlayers</text>
</g>
<!-- 0&#45;&gt;4 -->
<g id="edge4" class="edge">
<title>0&#45;&gt;4</title>
<path fill="none" stroke="#000000" d="M1242.8694,-36.0757C1272.1144,-45.9613 1308.5213,-58.2679 1339.1681,-68.6274"/>
<polygon fill="#000000" stroke="#000000" points="1348.8995,-71.9169 1337.985,-72.9775 1344.1628,-70.3157 1339.4261,-68.7145 1339.4261,-68.7145 1339.4261,-68.7145 1344.1628,-70.3157 1340.8671,-64.4515 1348.8995,-71.9169 1348.8995,-71.9169"/>
</g>
<!-- 5 -->
<g id="node6" class="node">
<title>5</title>
<polygon fill="none" stroke="#000000" points="804.8955,-252 601.8955,-252 601.8955,-216 804.8955,-216 804.8955,-252"/>
<text text-anchor="middle" x="703.3955" y="-230.3" font-family="Times,serif" font-size="14.00" fill="#000000">SMPyBandits.Environment.MAB</text>
</g>
<!-- 0&#45;&gt;5 -->
<g id="edge5" class="edge">
<title>0&#45;&gt;5</title>
<path fill="none" stroke="#000000" d="M1155.231,-36.0298C1095.2508,-67.3406 966.7043,-132.9218 854.3955,-180 826.4963,-191.6949 795.0777,-203.1903 768.1533,-212.5487"/>
<polygon fill="#000000" stroke="#000000" points="758.4519,-215.8962 766.4371,-208.3804 763.1785,-214.2653 767.905,-212.6343 767.905,-212.6343 767.905,-212.6343 763.1785,-214.2653 769.3729,-216.8882 758.4519,-215.8962 758.4519,-215.8962"/>
</g>
<!-- 7 -->
<g id="node8" class="node">
<title>7</title>
<polygon fill="none" stroke="#000000" points="232.3955,-252 26.3955,-252 26.3955,-216 232.3955,-216 232.3955,-252"/>
<text text-anchor="middle" x="129.3955" y="-230.3" font-family="Times,serif" font-size="14.00" fill="#000000">SMPyBandits.Environment.Result</text>
</g>
<!-- 0&#45;&gt;7 -->
<g id="edge6" class="edge">
<title>0&#45;&gt;7</title>
<path fill="none" stroke="#000000" d="M1105.5357,-22.7738C1006.5529,-29.414 837.3282,-43.9256 694.3955,-72 507.912,-108.6285 293.7284,-177.7034 190.8486,-212.6284"/>
<polygon fill="#000000" stroke="#000000" points="181.2447,-215.8994 189.2599,-208.4156 185.9777,-214.2873 190.7107,-212.6753 190.7107,-212.6753 190.7107,-212.6753 185.9777,-214.2873 192.1615,-216.935 181.2447,-215.8994 181.2447,-215.8994"/>
</g>
<!-- 8 -->
<g id="node9" class="node">
<title>8</title>
<polygon fill="none" stroke="#000000" points="2522.3955,-252 2246.3955,-252 2246.3955,-216 2522.3955,-216 2522.3955,-252"/>
<text text-anchor="middle" x="2384.3955" y="-230.3" font-family="Times,serif" font-size="14.00" fill="#000000">SMPyBandits.Environment.ResultMultiPlayers</text>
</g>
<!-- 0&#45;&gt;8 -->
<g id="edge7" class="edge">
<title>0&#45;&gt;8</title>
<path fill="none" stroke="#000000" d="M1272.9614,-34.7299C1276.1416,-35.1898 1279.2945,-35.616 1282.3955,-36 1569.974,-71.6141 1649.3989,-14.4174 1933.3955,-72 2085.5951,-102.8597 2255.6202,-174.8454 2336.5577,-211.5763"/>
<polygon fill="#000000" stroke="#000000" points="2345.9793,-215.8758 2335.0135,-215.818 2341.4305,-213.8 2336.8818,-211.7242 2336.8818,-211.7242 2336.8818,-211.7242 2341.4305,-213.8 2338.75,-207.6303 2345.9793,-215.8758 2345.9793,-215.8758"/>
</g>
<!-- 9 -->
<g id="node10" class="node">
<title>9</title>
<polygon fill="none" stroke="#000000" points="2228.3955,-252 1962.3955,-252 1962.3955,-216 2228.3955,-216 2228.3955,-252"/>
<text text-anchor="middle" x="2095.3955" y="-230.3" font-family="Times,serif" font-size="14.00" fill="#000000">SMPyBandits.Environment.fairnessMeasures</text>
</g>
<!-- 0&#45;&gt;9 -->
<g id="edge8" class="edge">
<title>0&#45;&gt;9</title>
<path fill="none" stroke="#000000" d="M1272.9852,-34.5541C1276.1587,-35.0632 1279.3037,-35.5476 1282.3955,-36 1455.7566,-61.3663 1929.3309,-31.1982 2063.3955,-144 2081.5489,-159.2743 2089.4062,-185.5838 2092.8059,-205.8247"/>
<polygon fill="#000000" stroke="#000000" points="2094.2083,-215.7655 2088.3554,-206.4922 2093.5098,-210.8146 2092.8113,-205.8636 2092.8113,-205.8636 2092.8113,-205.8636 2093.5098,-210.8146 2097.2672,-205.2349 2094.2083,-215.7655 2094.2083,-215.7655"/>
</g>
<!-- 10 -->
<g id="node11" class="node">
<title>10</title>
<polygon fill="none" stroke="#000000" points="583.8955,-252 288.8955,-252 288.8955,-216 583.8955,-216 583.8955,-252"/>
<text text-anchor="middle" x="436.3955" y="-230.3" font-family="Times,serif" font-size="14.00" fill="#000000">SMPyBandits.Environment.memory_consumption</text>
</g>
<!-- 0&#45;&gt;10 -->
<g id="edge9" class="edge">
<title>0&#45;&gt;10</title>
<path fill="none" stroke="#000000" d="M1105.5354,-25.4077C1029.3423,-33.2522 914.2358,-47.8978 816.3955,-72 723.0384,-94.9978 700.7276,-106.028 612.3955,-144 565.0742,-164.3424 512.7444,-191.7673 477.5444,-210.9779"/>
<polygon fill="#000000" stroke="#000000" points="468.5339,-215.9203 475.1374,-207.1656 472.9178,-213.5157 477.3016,-211.111 477.3016,-211.111 477.3016,-211.111 472.9178,-213.5157 479.4658,-215.0565 468.5339,-215.9203 468.5339,-215.9203"/>
</g>
<!-- 11 -->
<g id="node12" class="node">
<title>11</title>
<polygon fill="none" stroke="#000000" points="2395.8955,-108 2192.8955,-108 2192.8955,-72 2395.8955,-72 2395.8955,-108"/>
<text text-anchor="middle" x="2294.3955" y="-86.3" font-family="Times,serif" font-size="14.00" fill="#000000">SMPyBandits.Environment.notify</text>
</g>
<!-- 0&#45;&gt;11 -->
<g id="edge10" class="edge">
<title>0&#45;&gt;11</title>
<path fill="none" stroke="#000000" d="M1272.9542,-34.79C1276.1364,-35.2331 1279.2917,-35.6394 1282.3955,-36 1678.2758,-81.9971 1781.7274,-33.3817 2178.3955,-72 2179.7076,-72.1277 2181.0275,-72.2605 2182.3539,-72.398"/>
<polygon fill="#000000" stroke="#000000" points="2192.6303,-73.5385 2182.1949,-76.9079 2187.6608,-72.987 2182.6913,-72.4354 2182.6913,-72.4354 2182.6913,-72.4354 2187.6608,-72.987 2183.1877,-67.9628 2192.6303,-73.5385 2192.6303,-73.5385"/>
</g>
<!-- 13 -->
<g id="node14" class="node">
<title>13</title>
<polygon fill="none" stroke="#000000" points="1277.8955,-324 1044.8955,-324 1044.8955,-288 1277.8955,-288 1277.8955,-324"/>
<text text-anchor="middle" x="1161.3955" y="-302.3" font-family="Times,serif" font-size="14.00" fill="#000000">SMPyBandits.Environment.plotsettings</text>
</g>
<!-- 0&#45;&gt;13 -->
<g id="edge11" class="edge">
<title>0&#45;&gt;13</title>
<path fill="none" stroke="#000000" d="M1105.7569,-21.2845C813.2019,-34.2182 -138.2483,-89.1672 17.3955,-252 48.0212,-284.0403 770.1246,-285.8519 814.3955,-288 887.3239,-291.5385 968.8594,-295.7547 1034.5607,-299.2168"/>
<polygon fill="#000000" stroke="#000000" points="1044.5505,-299.7438 1034.3273,-303.7107 1039.5575,-299.4804 1034.5644,-299.2169 1034.5644,-299.2169 1034.5644,-299.2169 1039.5575,-299.4804 1034.8015,-294.7232 1044.5505,-299.7438 1044.5505,-299.7438"/>
</g>
<!-- 15 -->
<g id="node16" class="node">
<title>15</title>
<polygon fill="none" stroke="#000000" points="1073.8955,-252 822.8955,-252 822.8955,-216 1073.8955,-216 1073.8955,-252"/>
<text text-anchor="middle" x="948.3955" y="-230.3" font-family="Times,serif" font-size="14.00" fill="#000000">SMPyBandits.Environment.sortedDistance</text>
</g>
<!-- 0&#45;&gt;15 -->
<g id="edge12" class="edge">
<title>0&#45;&gt;15</title>
<path fill="none" stroke="#000000" d="M1169.2625,-36.0445C1126.2901,-74.5591 1025.5112,-164.8839 976.3519,-208.9436"/>
<polygon fill="#000000" stroke="#000000" points="968.6406,-215.8549 973.084,-205.8296 972.364,-212.5178 976.0874,-209.1806 976.0874,-209.1806 976.0874,-209.1806 972.364,-212.5178 979.0909,-212.5317 968.6406,-215.8549 968.6406,-215.8549"/>
</g>
<!-- 16 -->
<g id="node17" class="node">
<title>16</title>
<polygon fill="none" stroke="#000000" points="1631.8955,-252 1410.8955,-252 1410.8955,-216 1631.8955,-216 1631.8955,-252"/>
<text text-anchor="middle" x="1521.3955" y="-230.3" font-family="Times,serif" font-size="14.00" fill="#000000">SMPyBandits.Environment.usejoblib</text>
</g>
<!-- 0&#45;&gt;16 -->
<g id="edge13" class="edge">
<title>0&#45;&gt;16</title>
<path fill="none" stroke="#000000" d="M1272.9987,-34.4649C1276.1684,-34.999 1279.309,-35.5129 1282.3955,-36 1347.4122,-46.2599 1532.7728,-22.71 1576.3955,-72 1611.1115,-111.2263 1571.8921,-173.2907 1544.1309,-208.1096"/>
<polygon fill="#000000" stroke="#000000" points="1537.7191,-215.9327 1540.5777,-205.3459 1540.8886,-212.0656 1544.0581,-208.1985 1544.0581,-208.1985 1544.0581,-208.1985 1540.8886,-212.0656 1547.5385,-211.051 1537.7191,-215.9327 1537.7191,-215.9327"/>
</g>
<!-- 17 -->
<g id="node18" class="node">
<title>17</title>
<polygon fill="none" stroke="#000000" points="1906.3955,-252 1688.3955,-252 1688.3955,-216 1906.3955,-216 1906.3955,-252"/>
<text text-anchor="middle" x="1797.3955" y="-230.3" font-family="Times,serif" font-size="14.00" fill="#000000">SMPyBandits.Environment.usetqdm</text>
</g>
<!-- 0&#45;&gt;17 -->
<g id="edge14" class="edge">
<title>0&#45;&gt;17</title>
<path fill="none" stroke="#000000" d="M1272.994,-34.4955C1276.165,-35.021 1279.3072,-35.5248 1282.3955,-36 1421.2314,-57.362 1463.7262,-25.8414 1596.3955,-72 1673.6553,-98.8804 1742.9194,-169.7779 1776.317,-208.2641"/>
<polygon fill="#000000" stroke="#000000" points="1782.8893,-215.9572 1772.9723,-211.277 1779.6415,-212.1556 1776.3937,-208.354 1776.3937,-208.354 1776.3937,-208.354 1779.6415,-212.1556 1779.8152,-205.431 1782.8893,-215.9572 1782.8893,-215.9572"/>
</g>
<!-- 2&#45;&gt;5 -->
<g id="edge15" class="edge">
<title>2&#45;&gt;5</title>
<path fill="none" stroke="#000000" d="M725.8252,-180.1686C722.5462,-188.0383 718.6334,-197.4288 715.001,-206.1467"/>
<polygon fill="#000000" stroke="#000000" points="711.0677,-215.5867 710.76,-204.6252 712.9908,-210.9713 714.9139,-206.356 714.9139,-206.356 714.9139,-206.356 712.9908,-210.9713 719.0677,-208.0868 711.0677,-215.5867 711.0677,-215.5867"/>
</g>
<!-- 2&#45;&gt;7 -->
<g id="edge16" class="edge">
<title>2&#45;&gt;7</title>
<path fill="none" stroke="#000000" d="M621.0436,-173.0984C522.2319,-183.1834 374.5799,-199.0406 246.3955,-216 245.1062,-216.1706 243.8091,-216.3437 242.5055,-216.5192"/>
<polygon fill="#000000" stroke="#000000" points="232.4017,-217.9064 241.6966,-212.088 237.3552,-217.2263 242.3088,-216.5461 242.3088,-216.5461 242.3088,-216.5461 237.3552,-217.2263 242.9209,-221.0043 232.4017,-217.9064 232.4017,-217.9064"/>
</g>
<!-- 2&#45;&gt;10 -->
<g id="edge17" class="edge">
<title>2&#45;&gt;10</title>
<path fill="none" stroke="#000000" d="M658.8332,-180.0757C616.8279,-190.2588 564.226,-203.0108 520.722,-213.5572"/>
<polygon fill="#000000" stroke="#000000" points="510.7308,-215.9793 519.389,-209.2499 515.59,-214.8013 520.4493,-213.6232 520.4493,-213.6232 520.4493,-213.6232 515.59,-214.8013 521.5095,-217.9966 510.7308,-215.9793 510.7308,-215.9793"/>
</g>
<!-- 2&#45;&gt;13 -->
<g id="edge18" class="edge">
<title>2&#45;&gt;13</title>
<path fill="none" stroke="#000000" d="M621.1355,-167.6818C494.0837,-175.286 301.7634,-190.8139 279.3955,-216 268.7709,-227.9632 268.4329,-240.3457 279.3955,-252 285.7869,-258.7947 792.011,-286.4573 1034.551,-299.3398"/>
<polygon fill="#000000" stroke="#000000" points="1044.8368,-299.8857 1034.6123,-303.8493 1039.8438,-299.6206 1034.8508,-299.3556 1034.8508,-299.3556 1034.8508,-299.3556 1039.8438,-299.6206 1035.0894,-294.8619 1044.8368,-299.8857 1044.8368,-299.8857"/>
</g>
<!-- 2&#45;&gt;15 -->
<g id="edge19" class="edge">
<title>2&#45;&gt;15</title>
<path fill="none" stroke="#000000" d="M787.3715,-180.0757C816.8911,-189.9613 853.6399,-202.2679 884.5744,-212.6274"/>
<polygon fill="#000000" stroke="#000000" points="894.3972,-215.9169 883.4858,-217.0084 889.656,-214.3291 884.9148,-212.7413 884.9148,-212.7413 884.9148,-212.7413 889.656,-214.3291 886.3438,-208.4742 894.3972,-215.9169 894.3972,-215.9169"/>
</g>
<!-- 2&#45;&gt;16 -->
<g id="edge20" class="edge">
<title>2&#45;&gt;16</title>
<path fill="none" stroke="#000000" d="M845.5787,-170.6649C971.6384,-180.6227 1182.3411,-197.9309 1363.3955,-216 1375.4261,-217.2006 1387.9642,-218.5173 1400.4843,-219.875"/>
<polygon fill="#000000" stroke="#000000" points="1410.5112,-220.9713 1400.0813,-224.3577 1405.5409,-220.4278 1400.5705,-219.8844 1400.5705,-219.8844 1400.5705,-219.8844 1405.5409,-220.4278 1401.0596,-215.411 1410.5112,-220.9713 1410.5112,-220.9713"/>
</g>
<!-- 2&#45;&gt;17 -->
<g id="edge21" class="edge">
<title>2&#45;&gt;17</title>
<path fill="none" stroke="#000000" d="M845.7245,-166.6733C1017.3993,-174.2691 1355.2729,-191.0043 1641.3955,-216 1653.3966,-217.0484 1665.9025,-218.2712 1678.3814,-219.5769"/>
<polygon fill="#000000" stroke="#000000" points="1688.3733,-220.6401 1677.9533,-224.0566 1683.4014,-220.111 1678.4294,-219.5819 1678.4294,-219.5819 1678.4294,-219.5819 1683.4014,-220.111 1678.9056,-215.1072 1688.3733,-220.6401 1688.3733,-220.6401"/>
</g>
<!-- 3&#45;&gt;1 -->
<g id="edge22" class="edge">
<title>3&#45;&gt;1</title>
<path fill="none" stroke="#000000" d="M1342.273,-180.1686C1321.1022,-189.7554 1294.9471,-201.5992 1272.5651,-211.7345"/>
<polygon fill="#000000" stroke="#000000" points="1263.2294,-215.962 1270.4826,-207.7376 1267.7841,-213.8994 1272.3389,-211.8369 1272.3389,-211.8369 1272.3389,-211.8369 1267.7841,-213.8994 1274.1952,-215.9362 1263.2294,-215.962 1263.2294,-215.962"/>
</g>
<!-- 3&#45;&gt;5 -->
<g id="edge23" class="edge">
<title>3&#45;&gt;5</title>
<path fill="none" stroke="#000000" d="M1235.3171,-173.2121C1122.8334,-182.4348 963.6769,-196.8768 815.1666,-215.8136"/>
<polygon fill="#000000" stroke="#000000" points="804.9472,-217.126 814.2925,-211.3888 809.9065,-216.4891 814.8658,-215.8521 814.8658,-215.8521 814.8658,-215.8521 809.9065,-216.4891 815.439,-220.3155 804.9472,-217.126 804.9472,-217.126"/>
</g>
<!-- 3&#45;&gt;8 -->
<g id="edge24" class="edge">
<title>3&#45;&gt;8</title>
<path fill="none" stroke="#000000" d="M1529.7343,-168.6707C1698.0367,-176.8933 1981.9109,-192.5951 2236.1424,-215.9141"/>
<polygon fill="#000000" stroke="#000000" points="2246.3156,-216.8528 2235.9444,-220.4148 2241.3367,-216.3933 2236.3579,-215.9339 2236.3579,-215.9339 2236.3579,-215.9339 2241.3367,-216.3933 2236.7714,-211.4529 2246.3156,-216.8528 2246.3156,-216.8528"/>
</g>
<!-- 3&#45;&gt;9 -->
<g id="edge25" class="edge">
<title>3&#45;&gt;9</title>
<path fill="none" stroke="#000000" d="M1529.697,-176.8748C1653.4448,-189.371 1829.2333,-207.1225 1951.8985,-219.5094"/>
<polygon fill="#000000" stroke="#000000" points="1962.1155,-220.5412 1951.7139,-224.0136 1957.1408,-220.0388 1952.1661,-219.5364 1952.1661,-219.5364 1952.1661,-219.5364 1957.1408,-220.0388 1952.6183,-215.0591 1962.1155,-220.5412 1962.1155,-220.5412"/>
</g>
<!-- 3&#45;&gt;10 -->
<g id="edge26" class="edge">
<title>3&#45;&gt;10</title>
<path fill="none" stroke="#000000" d="M1235.1754,-170.0061C1078.7135,-178.9881 823.8223,-194.9717 594.3941,-215.837"/>
<polygon fill="#000000" stroke="#000000" points="584.1792,-216.7708 593.7279,-211.379 589.1584,-216.3156 594.1376,-215.8604 594.1376,-215.8604 594.1376,-215.8604 589.1584,-216.3156 594.5473,-220.3417 584.1792,-216.7708 584.1792,-216.7708"/>
</g>
<!-- 3&#45;&gt;13 -->
<g id="edge27" class="edge">
<title>3&#45;&gt;13</title>
<path fill="none" stroke="#000000" d="M1383.7565,-180.053C1384.2399,-200.2444 1381.7453,-232.6477 1363.3955,-252 1350.5555,-265.5413 1315.448,-276.9157 1278.0297,-285.6796"/>
<polygon fill="#000000" stroke="#000000" points="1267.9573,-287.9662 1276.7129,-281.3639 1272.8332,-286.8592 1277.7092,-285.7523 1277.7092,-285.7523 1277.7092,-285.7523 1272.8332,-286.8592 1278.7054,-290.1406 1267.9573,-287.9662 1267.9573,-287.9662"/>
</g>
<!-- 3&#45;&gt;15 -->
<g id="edge28" class="edge">
<title>3&#45;&gt;15</title>
<path fill="none" stroke="#000000" d="M1273.7189,-180.0293C1210.9186,-190.4478 1131.8389,-203.567 1067.3722,-214.2619"/>
<polygon fill="#000000" stroke="#000000" points="1057.1559,-215.9568 1066.2845,-209.8808 1062.0885,-215.1384 1067.021,-214.3201 1067.021,-214.3201 1067.021,-214.3201 1062.0885,-215.1384 1067.7576,-218.7594 1057.1559,-215.9568 1057.1559,-215.9568"/>
</g>
<!-- 3&#45;&gt;16 -->
<g id="edge29" class="edge">
<title>3&#45;&gt;16</title>
<path fill="none" stroke="#000000" d="M1417.471,-180.1686C1435.6615,-189.5911 1458.0613,-201.1938 1477.4014,-211.2117"/>
<polygon fill="#000000" stroke="#000000" points="1486.3311,-215.8372 1475.3818,-215.2334 1481.8914,-213.5374 1477.4516,-211.2377 1477.4516,-211.2377 1477.4516,-211.2377 1481.8914,-213.5374 1479.5214,-207.2419 1486.3311,-215.8372 1486.3311,-215.8372"/>
</g>
<!-- 3&#45;&gt;17 -->
<g id="edge30" class="edge">
<title>3&#45;&gt;17</title>
<path fill="none" stroke="#000000" d="M1486.3143,-180.0293C1546.2417,-190.4263 1621.6718,-203.513 1683.2467,-214.1959"/>
<polygon fill="#000000" stroke="#000000" points="1693.3964,-215.9568 1682.7744,-218.6811 1688.47,-215.1021 1683.5436,-214.2473 1683.5436,-214.2473 1683.5436,-214.2473 1688.47,-215.1021 1684.3129,-209.8135 1693.3964,-215.9568 1693.3964,-215.9568"/>
</g>
<!-- 4&#45;&gt;1 -->
<g id="edge31" class="edge">
<title>4&#45;&gt;1</title>
<path fill="none" stroke="#000000" d="M1310.2352,-108.0579C1273.5796,-117.2416 1237.4672,-129.5324 1226.3955,-144 1213.168,-161.2844 1213.4401,-186.3864 1216.441,-205.6915"/>
<polygon fill="#000000" stroke="#000000" points="1218.3205,-215.7337 1212.0576,-206.7322 1217.4006,-210.819 1216.4808,-205.9044 1216.4808,-205.9044 1216.4808,-205.9044 1217.4006,-210.819 1220.904,-205.0765 1218.3205,-215.7337 1218.3205,-215.7337"/>
</g>
<!-- 4&#45;&gt;3 -->
<g id="edge32" class="edge">
<title>4&#45;&gt;3</title>
<path fill="none" stroke="#000000" d="M1397.3486,-108.1686C1395.1861,-115.9537 1392.6102,-125.2271 1390.2107,-133.8653"/>
<polygon fill="#000000" stroke="#000000" points="1387.5103,-143.5867 1385.8509,-132.7471 1388.8485,-138.7691 1390.1868,-133.9516 1390.1868,-133.9516 1390.1868,-133.9516 1388.8485,-138.7691 1394.5226,-135.156 1387.5103,-143.5867 1387.5103,-143.5867"/>
</g>
<!-- 4&#45;&gt;5 -->
<g id="edge33" class="edge">
<title>4&#45;&gt;5</title>
<path fill="none" stroke="#000000" d="M1293.1009,-108.0065C1234.8665,-117.9394 1162.0896,-130.8924 1097.3955,-144 989.9021,-165.7792 866.7828,-194.5167 787.1975,-213.595"/>
<polygon fill="#000000" stroke="#000000" points="777.2295,-215.9886 785.9023,-209.278 782.0913,-214.8211 786.9531,-213.6536 786.9531,-213.6536 786.9531,-213.6536 782.0913,-214.8211 788.0038,-218.0293 777.2295,-215.9886 777.2295,-215.9886"/>
</g>
<!-- 4&#45;&gt;8 -->
<g id="edge34" class="edge">
<title>4&#45;&gt;8</title>
<path fill="none" stroke="#000000" d="M1567.6398,-97.641C1732.1204,-106.2999 1972.7381,-122.1097 2063.3955,-144 2104.0727,-153.822 2110.5383,-167.2516 2150.3955,-180 2192.2175,-193.3769 2239.232,-204.8866 2280.0886,-213.8015"/>
<polygon fill="#000000" stroke="#000000" points="2290.0628,-215.9534 2279.3387,-218.2432 2285.1752,-214.8989 2280.2877,-213.8444 2280.2877,-213.8444 2280.2877,-213.8444 2285.1752,-214.8989 2281.2367,-209.4456 2290.0628,-215.9534 2290.0628,-215.9534"/>
</g>
<!-- 4&#45;&gt;9 -->
<g id="edge35" class="edge">
<title>4&#45;&gt;9</title>
<path fill="none" stroke="#000000" d="M1567.4884,-97.0197C1740.2919,-105.4995 1991.9924,-121.484 2031.3955,-144 2055.9363,-158.0233 2073.4365,-185.7416 2083.8667,-206.7313"/>
<polygon fill="#000000" stroke="#000000" points="2088.1613,-215.8285 2079.8228,-208.7066 2086.0267,-211.307 2083.8922,-206.7855 2083.8922,-206.7855 2083.8922,-206.7855 2086.0267,-211.307 2087.9615,-204.8644 2088.1613,-215.8285 2088.1613,-215.8285"/>
</g>
<!-- 4&#45;&gt;13 -->
<g id="edge36" class="edge">
<title>4&#45;&gt;13</title>
<path fill="none" stroke="#000000" d="M1474.285,-108.0813C1564.4074,-134.0238 1700.3552,-186.0353 1641.3955,-252 1618.1625,-277.9932 1422.5743,-293.0026 1288.3515,-300.33"/>
<polygon fill="#000000" stroke="#000000" points="1277.9902,-300.8871 1287.7342,-295.8566 1282.983,-300.6186 1287.9758,-300.3501 1287.9758,-300.3501 1287.9758,-300.3501 1282.983,-300.6186 1288.2175,-304.8436 1277.9902,-300.8871 1277.9902,-300.8871"/>
</g>
<!-- 4&#45;&gt;15 -->
<g id="edge37" class="edge">
<title>4&#45;&gt;15</title>
<path fill="none" stroke="#000000" d="M1334.5885,-108.062C1297.7103,-118.1385 1251.3826,-131.2077 1210.3955,-144 1140.3778,-165.8529 1060.8005,-193.6096 1007.9027,-212.4804"/>
<polygon fill="#000000" stroke="#000000" points="998.3443,-215.8972 1006.246,-208.2937 1003.0525,-214.2141 1007.7608,-212.5311 1007.7608,-212.5311 1007.7608,-212.5311 1003.0525,-214.2141 1009.2755,-216.7685 998.3443,-215.8972 998.3443,-215.8972"/>
</g>
<!-- 4&#45;&gt;16 -->
<g id="edge38" class="edge">
<title>4&#45;&gt;16</title>
<path fill="none" stroke="#000000" d="M1491.7196,-108.0852C1510.0747,-116.0425 1527.1943,-127.5006 1538.3955,-144 1550.926,-162.4575 1544.6164,-187.7151 1536.3533,-206.7758"/>
<polygon fill="#000000" stroke="#000000" points="1532.0793,-215.8434 1532.2724,-204.8792 1534.2111,-211.3206 1536.3429,-206.7979 1536.3429,-206.7979 1536.3429,-206.7979 1534.2111,-211.3206 1540.4134,-208.7165 1532.0793,-215.8434 1532.0793,-215.8434"/>
</g>
<!-- 4&#45;&gt;17 -->
<g id="edge39" class="edge">
<title>4&#45;&gt;17</title>
<path fill="none" stroke="#000000" d="M1555.7455,-108.0547C1595.4852,-116.0402 1637.4651,-127.5194 1674.3955,-144 1698.7473,-154.8673 1700.9073,-164.2085 1722.3955,-180 1735.8648,-189.8985 1750.7921,-200.6835 1763.7601,-209.9942"/>
<polygon fill="#000000" stroke="#000000" points="1771.964,-215.8756 1761.2148,-213.7064 1767.9003,-212.9623 1763.8367,-210.0491 1763.8367,-210.0491 1763.8367,-210.0491 1767.9003,-212.9623 1766.4586,-206.3918 1771.964,-215.8756 1771.964,-215.8756"/>
</g>
<!-- 5&#45;&gt;13 -->
<g id="edge40" class="edge">
<title>5&#45;&gt;13</title>
<path fill="none" stroke="#000000" d="M804.9789,-250.6541C807.8146,-251.1089 810.6245,-251.5583 813.3955,-252 886.6179,-263.6718 968.5628,-276.4036 1034.5337,-286.5719"/>
<polygon fill="#000000" stroke="#000000" points="1044.5638,-288.117 1033.9952,-291.0419 1039.6221,-287.3557 1034.6804,-286.5944 1034.6804,-286.5944 1034.6804,-286.5944 1039.6221,-287.3557 1035.3656,-282.1468 1044.5638,-288.117 1044.5638,-288.117"/>
</g>
<!-- 14 -->
<g id="node15" class="node">
<title>14</title>
<polygon fill="none" stroke="#000000" points="805.8955,-324 600.8955,-324 600.8955,-288 805.8955,-288 805.8955,-324"/>
<text text-anchor="middle" x="703.3955" y="-302.3" font-family="Times,serif" font-size="14.00" fill="#000000">SMPyBandits.Environment.pykov</text>
</g>
<!-- 5&#45;&gt;14 -->
<g id="edge41" class="edge">
<title>5&#45;&gt;14</title>
<path fill="none" stroke="#000000" d="M703.3955,-252.1686C703.3955,-259.869 703.3955,-269.0257 703.3955,-277.5834"/>
<polygon fill="#000000" stroke="#000000" points="703.3955,-287.5867 698.8956,-277.5867 703.3955,-282.5867 703.3956,-277.5867 703.3956,-277.5867 703.3956,-277.5867 703.3955,-282.5867 707.8956,-277.5868 703.3955,-287.5867 703.3955,-287.5867"/>
</g>
<!-- 6 -->
<g id="node7" class="node">
<title>6</title>
<polygon fill="none" stroke="#000000" points="1535.8955,-36 1290.8955,-36 1290.8955,0 1535.8955,0 1535.8955,-36"/>
<text text-anchor="middle" x="1413.3955" y="-14.3" font-family="Times,serif" font-size="14.00" fill="#000000">SMPyBandits.Environment.MAB_rotting</text>
</g>
<!-- 12 -->
<g id="node13" class="node">
<title>12</title>
<polygon fill="none" stroke="#000000" points="2021.8955,-180 1764.8955,-180 1764.8955,-144 2021.8955,-144 2021.8955,-180"/>
<text text-anchor="middle" x="1893.3955" y="-158.3" font-family="Times,serif" font-size="14.00" fill="#000000">SMPyBandits.Environment.plot_Cmu_HOI</text>
</g>
<!-- 12&#45;&gt;13 -->
<g id="edge42" class="edge">
<title>12&#45;&gt;13</title>
<path fill="none" stroke="#000000" d="M1906.387,-180.3032C1918.9376,-200.4162 1933.5892,-232.4567 1915.3955,-252 1894.3759,-274.5788 1497.4029,-293.1236 1288.1327,-301.378"/>
<polygon fill="#000000" stroke="#000000" points="1278.0044,-301.7752 1287.8203,-296.8867 1283.0006,-301.5792 1287.9967,-301.3832 1287.9967,-301.3832 1287.9967,-301.3832 1283.0006,-301.5792 1288.1731,-305.8798 1278.0044,-301.7752 1278.0044,-301.7752"/>
</g>
<!-- 12&#45;&gt;17 -->
<g id="edge43" class="edge">
<title>12&#45;&gt;17</title>
<path fill="none" stroke="#000000" d="M1869.1706,-180.1686C1857.2327,-189.1221 1842.6699,-200.0442 1829.7894,-209.7045"/>
<polygon fill="#000000" stroke="#000000" points="1821.6126,-215.8372 1826.9126,-206.2371 1825.6126,-212.8372 1829.6126,-209.8371 1829.6126,-209.8371 1829.6126,-209.8371 1825.6126,-212.8372 1832.3126,-213.4371 1821.6126,-215.8372 1821.6126,-215.8372"/>
</g>
<!-- 18 -->
<g id="node19" class="node">
<title>18</title>
<polygon fill="none" stroke="#000000" points="1752.3955,-36 1554.3955,-36 1554.3955,0 1752.3955,0 1752.3955,-36"/>
<text text-anchor="middle" x="1653.3955" y="-14.3" font-family="Times,serif" font-size="14.00" fill="#000000">SMPyBandits.Policies.usenumba</text>
</g>
</g>
</svg>
