<?xml version="1.0" encoding="UTF-8" standalone="no"?>
<!DOCTYPE svg PUBLIC "-//W3C//DTD SVG 1.1//EN"
 "http://www.w3.org/Graphics/SVG/1.1/DTD/svg11.dtd">
<!-- Generated by graphviz version 2.38.0 (20140413.2041)
 -->
<!-- Title: packages_AlgoBandits Pages: 1 -->
<svg width="6914pt" height="548pt"
 viewBox="0.00 0.00 6913.88 548.00" xmlns="http://www.w3.org/2000/svg" xmlns:xlink="http://www.w3.org/1999/xlink">
<g id="graph0" class="graph" transform="scale(1 1) rotate(0) translate(4 544)">
<title>packages_AlgoBandits</title>
<polygon fill="white" stroke="none" points="-4,4 -4,-544 6909.88,-544 6909.88,4 -4,4"/>
<!-- 0 -->
<g id="node1" class="node"><title>0</title>
<polygon fill="none" stroke="black" points="447.378,-180 393.378,-180 393.378,-144 447.378,-144 447.378,-180"/>
<text text-anchor="middle" x="420.378" y="-158.3" font-family="Times,serif" font-size="14.00">Arms</text>
</g>
<!-- 2 -->
<g id="node3" class="node"><title>2</title>
<polygon fill="none" stroke="black" points="122.378,-252 20.3784,-252 20.3784,-216 122.378,-216 122.378,-252"/>
<text text-anchor="middle" x="71.3784" y="-230.3" font-family="Times,serif" font-size="14.00">Arms.Bernoulli</text>
</g>
<!-- 0&#45;&gt;2 -->
<g id="edge1" class="edge"><title>0&#45;&gt;2</title>
<path fill="none" stroke="black" d="M393.016,-169.185C377.835,-172.542 358.596,-176.673 341.378,-180 251.49,-197.368 225.443,-195.233 132.492,-215.87"/>
<polygon fill="black" stroke="black" points="122.673,-218.079 131.442,-211.494 127.551,-216.982 132.429,-215.884 132.429,-215.884 132.429,-215.884 127.551,-216.982 133.417,-220.275 122.673,-218.079 122.673,-218.079"/>
</g>
<!-- 3 -->
<g id="node4" class="node"><title>3</title>
<polygon fill="none" stroke="black" points="603.378,-252 487.378,-252 487.378,-216 603.378,-216 603.378,-252"/>
<text text-anchor="middle" x="545.378" y="-230.3" font-family="Times,serif" font-size="14.00">Arms.Exponential</text>
</g>
<!-- 0&#45;&gt;3 -->
<g id="edge2" class="edge"><title>0&#45;&gt;3</title>
<path fill="none" stroke="black" d="M447.501,-178.189C464.61,-187.77 486.991,-200.303 506.033,-210.967"/>
<polygon fill="black" stroke="black" points="514.795,-215.873 503.871,-214.913 510.432,-213.43 506.07,-210.987 506.07,-210.987 506.07,-210.987 510.432,-213.43 508.269,-207.061 514.795,-215.873 514.795,-215.873"/>
</g>
<!-- 4 -->
<g id="node5" class="node"><title>4</title>
<polygon fill="none" stroke="black" points="241.878,-252 140.878,-252 140.878,-216 241.878,-216 241.878,-252"/>
<text text-anchor="middle" x="191.378" y="-230.3" font-family="Times,serif" font-size="14.00">Arms.Gaussian</text>
</g>
<!-- 0&#45;&gt;4 -->
<g id="edge3" class="edge"><title>0&#45;&gt;4</title>
<path fill="none" stroke="black" d="M393.208,-174.804C388.627,-176.639 383.894,-178.44 379.378,-180 325.974,-198.448 309.321,-199.677 251.539,-215.708"/>
<polygon fill="black" stroke="black" points="241.901,-218.412 250.313,-211.378 246.715,-217.062 251.529,-215.711 251.529,-215.711 251.529,-215.711 246.715,-217.062 252.745,-220.043 241.901,-218.412 241.901,-218.412"/>
</g>
<!-- 5 -->
<g id="node6" class="node"><title>5</title>
<polygon fill="none" stroke="black" points="352.878,-252 259.878,-252 259.878,-216 352.878,-216 352.878,-252"/>
<text text-anchor="middle" x="306.378" y="-230.3" font-family="Times,serif" font-size="14.00">Arms.Poisson</text>
</g>
<!-- 0&#45;&gt;5 -->
<g id="edge4" class="edge"><title>0&#45;&gt;5</title>
<path fill="none" stroke="black" d="M393.362,-179.589C378.362,-188.799 359.49,-200.388 343.161,-210.414"/>
<polygon fill="black" stroke="black" points="334.391,-215.799 340.558,-206.732 338.652,-213.183 342.913,-210.566 342.913,-210.566 342.913,-210.566 338.652,-213.183 345.268,-214.401 334.391,-215.799 334.391,-215.799"/>
</g>
<!-- 6 -->
<g id="node7" class="node"><title>6</title>
<polygon fill="none" stroke="black" points="469.378,-252 371.378,-252 371.378,-216 469.378,-216 469.378,-252"/>
<text text-anchor="middle" x="420.378" y="-230.3" font-family="Times,serif" font-size="14.00">Arms.Uniform</text>
</g>
<!-- 0&#45;&gt;6 -->
<g id="edge5" class="edge"><title>0&#45;&gt;6</title>
<path fill="none" stroke="black" d="M420.378,-180.303C420.378,-188.017 420.378,-197.288 420.378,-205.888"/>
<polygon fill="black" stroke="black" points="420.378,-215.896 415.878,-205.896 420.378,-210.896 420.378,-205.896 420.378,-205.896 420.378,-205.896 420.378,-210.896 424.878,-205.896 420.378,-215.896 420.378,-215.896"/>
</g>
<!-- 1 -->
<g id="node2" class="node"><title>1</title>
<polygon fill="none" stroke="black" points="344.878,-324 267.878,-324 267.878,-288 344.878,-288 344.878,-324"/>
<text text-anchor="middle" x="306.378" y="-302.3" font-family="Times,serif" font-size="14.00">Arms.Arm</text>
</g>
<!-- 2&#45;&gt;1 -->
<g id="edge6" class="edge"><title>2&#45;&gt;1</title>
<path fill="none" stroke="black" d="M122.481,-249.482C159.02,-259.934 209.32,-274.522 253.378,-288 254.822,-288.442 256.287,-288.893 257.765,-289.351"/>
<polygon fill="black" stroke="black" points="267.629,-292.438 256.741,-293.745 262.857,-290.944 258.086,-289.451 258.086,-289.451 258.086,-289.451 262.857,-290.944 259.43,-285.156 267.629,-292.438 267.629,-292.438"/>
</g>
<!-- 7 -->
<g id="node8" class="node"><title>7</title>
<polygon fill="none" stroke="black" points="244.378,-324 146.378,-324 146.378,-288 244.378,-288 244.378,-324"/>
<text text-anchor="middle" x="195.378" y="-302.3" font-family="Times,serif" font-size="14.00">Arms.kullback</text>
</g>
<!-- 2&#45;&gt;7 -->
<g id="edge7" class="edge"><title>2&#45;&gt;7</title>
<path fill="none" stroke="black" d="M101.712,-252.124C118.075,-261.361 138.461,-272.869 156.032,-282.788"/>
<polygon fill="black" stroke="black" points="164.928,-287.81 154.007,-286.813 160.574,-285.352 156.22,-282.894 156.22,-282.894 156.22,-282.894 160.574,-285.352 158.432,-278.976 164.928,-287.81 164.928,-287.81"/>
</g>
<!-- 3&#45;&gt;1 -->
<g id="edge8" class="edge"><title>3&#45;&gt;1</title>
<path fill="none" stroke="black" d="M487.218,-252.034C446.63,-263.922 393.088,-279.604 354.818,-290.813"/>
<polygon fill="black" stroke="black" points="344.944,-293.705 353.276,-286.575 349.742,-292.299 354.541,-290.894 354.541,-290.894 354.541,-290.894 349.742,-292.299 355.806,-295.212 344.944,-293.705 344.944,-293.705"/>
</g>
<!-- 3&#45;&gt;7 -->
<g id="edge9" class="edge"><title>3&#45;&gt;7</title>
<path fill="none" stroke="black" d="M487.345,-250.051C484.318,-250.734 481.315,-251.388 478.378,-252 381.382,-272.202 355.22,-267.067 258.378,-288 257.102,-288.276 255.812,-288.562 254.513,-288.855"/>
<polygon fill="black" stroke="black" points="244.442,-291.245 253.133,-284.558 249.307,-290.091 254.171,-288.936 254.171,-288.936 254.171,-288.936 249.307,-290.091 255.21,-293.315 244.442,-291.245 244.442,-291.245"/>
</g>
<!-- 4&#45;&gt;1 -->
<g id="edge10" class="edge"><title>4&#45;&gt;1</title>
<path fill="none" stroke="black" d="M219.511,-252.124C234.547,-261.276 253.246,-272.658 269.439,-282.515"/>
<polygon fill="black" stroke="black" points="278.138,-287.81 267.256,-286.455 273.867,-285.21 269.596,-282.611 269.596,-282.611 269.596,-282.611 273.867,-285.21 271.936,-278.767 278.138,-287.81 278.138,-287.81"/>
</g>
<!-- 4&#45;&gt;7 -->
<g id="edge11" class="edge"><title>4&#45;&gt;7</title>
<path fill="none" stroke="black" d="M192.367,-252.303C192.808,-260.017 193.338,-269.288 193.829,-277.888"/>
<polygon fill="black" stroke="black" points="194.401,-287.896 189.338,-278.169 194.116,-282.904 193.83,-277.912 193.83,-277.912 193.83,-277.912 194.116,-282.904 198.323,-277.655 194.401,-287.896 194.401,-287.896"/>
</g>
<!-- 5&#45;&gt;1 -->
<g id="edge12" class="edge"><title>5&#45;&gt;1</title>
<path fill="none" stroke="black" d="M306.378,-252.303C306.378,-260.017 306.378,-269.288 306.378,-277.888"/>
<polygon fill="black" stroke="black" points="306.378,-287.896 301.878,-277.896 306.378,-282.896 306.378,-277.896 306.378,-277.896 306.378,-277.896 306.378,-282.896 310.878,-277.896 306.378,-287.896 306.378,-287.896"/>
</g>
<!-- 5&#45;&gt;7 -->
<g id="edge13" class="edge"><title>5&#45;&gt;7</title>
<path fill="none" stroke="black" d="M279.225,-252.124C264.846,-261.192 246.997,-272.448 231.468,-282.241"/>
<polygon fill="black" stroke="black" points="222.636,-287.81 228.695,-278.67 226.866,-285.143 231.095,-282.476 231.095,-282.476 231.095,-282.476 226.866,-285.143 233.495,-286.282 222.636,-287.81 222.636,-287.81"/>
</g>
<!-- 6&#45;&gt;1 -->
<g id="edge14" class="edge"><title>6&#45;&gt;1</title>
<path fill="none" stroke="black" d="M392.491,-252.124C377.585,-261.276 359.049,-272.658 342.997,-282.515"/>
<polygon fill="black" stroke="black" points="334.373,-287.81 340.54,-278.743 338.634,-285.194 342.895,-282.578 342.895,-282.578 342.895,-282.578 338.634,-285.194 345.25,-286.412 334.373,-287.81 334.373,-287.81"/>
</g>
<!-- 8 -->
<g id="node9" class="node"><title>8</title>
<polygon fill="none" stroke="black" points="4147.38,-108 4059.38,-108 4059.38,-72 4147.38,-72 4147.38,-108"/>
<text text-anchor="middle" x="4103.38" y="-86.3" font-family="Times,serif" font-size="14.00">Environment</text>
</g>
<!-- 10 -->
<g id="node11" class="node"><title>10</title>
<polygon fill="none" stroke="black" points="4072.38,-180 3928.38,-180 3928.38,-144 4072.38,-144 4072.38,-180"/>
<text text-anchor="middle" x="4000.38" y="-158.3" font-family="Times,serif" font-size="14.00">Environment.Evaluator</text>
</g>
<!-- 8&#45;&gt;10 -->
<g id="edge15" class="edge"><title>8&#45;&gt;10</title>
<path fill="none" stroke="black" d="M4078.18,-108.124C4064.96,-117.107 4048.59,-128.237 4034.27,-137.966"/>
<polygon fill="black" stroke="black" points="4025.67,-143.81 4031.41,-134.467 4029.81,-141 4033.94,-138.189 4033.94,-138.189 4033.94,-138.189 4029.81,-141 4036.47,-141.911 4025.67,-143.81 4025.67,-143.81"/>
</g>
<!-- 11 -->
<g id="node12" class="node"><title>11</title>
<polygon fill="none" stroke="black" points="4426.88,-180 4211.88,-180 4211.88,-144 4426.88,-144 4426.88,-180"/>
<text text-anchor="middle" x="4319.38" y="-158.3" font-family="Times,serif" font-size="14.00">Environment.EvaluatorMultiPlayers</text>
</g>
<!-- 8&#45;&gt;11 -->
<g id="edge16" class="edge"><title>8&#45;&gt;11</title>
<path fill="none" stroke="black" d="M4147.61,-105.334C4179.2,-115.572 4222.13,-129.484 4257.17,-140.839"/>
<polygon fill="black" stroke="black" points="4266.82,-143.968 4255.92,-145.166 4262.07,-142.427 4257.31,-140.885 4257.31,-140.885 4257.31,-140.885 4262.07,-142.427 4258.7,-136.605 4266.82,-143.968 4266.82,-143.968"/>
</g>
<!-- 12 -->
<g id="node13" class="node"><title>12</title>
<polygon fill="none" stroke="black" points="4204.88,-252 4081.88,-252 4081.88,-216 4204.88,-216 4204.88,-252"/>
<text text-anchor="middle" x="4143.38" y="-230.3" font-family="Times,serif" font-size="14.00">Environment.MAB</text>
</g>
<!-- 8&#45;&gt;12 -->
<g id="edge17" class="edge"><title>8&#45;&gt;12</title>
<path fill="none" stroke="black" d="M4108.2,-108.129C4115.05,-132.436 4127.65,-177.181 4135.77,-205.987"/>
<polygon fill="black" stroke="black" points="4138.54,-215.811 4131.49,-207.405 4137.18,-210.998 4135.82,-206.185 4135.82,-206.185 4135.82,-206.185 4137.18,-210.998 4140.16,-204.965 4138.54,-215.811 4138.54,-215.811"/>
</g>
<!-- 13 -->
<g id="node14" class="node"><title>13</title>
<polygon fill="none" stroke="black" points="4063.38,-252 3937.38,-252 3937.38,-216 4063.38,-216 4063.38,-252"/>
<text text-anchor="middle" x="4000.38" y="-230.3" font-family="Times,serif" font-size="14.00">Environment.Result</text>
</g>
<!-- 8&#45;&gt;13 -->
<g id="edge18" class="edge"><title>8&#45;&gt;13</title>
<path fill="none" stroke="black" d="M4102.8,-108.275C4101.38,-127.424 4096.66,-158.448 4081.38,-180 4072.61,-192.363 4059.97,-202.593 4047.27,-210.659"/>
<polygon fill="black" stroke="black" points="4038.51,-215.896 4044.78,-206.9 4042.8,-213.329 4047.09,-210.762 4047.09,-210.762 4047.09,-210.762 4042.8,-213.329 4049.41,-214.624 4038.51,-215.896 4038.51,-215.896"/>
</g>
<!-- 14 -->
<g id="node15" class="node"><title>14</title>
<polygon fill="none" stroke="black" points="4419.88,-252 4222.88,-252 4222.88,-216 4419.88,-216 4419.88,-252"/>
<text text-anchor="middle" x="4321.38" y="-230.3" font-family="Times,serif" font-size="14.00">Environment.ResultMultiPlayers</text>
</g>
<!-- 8&#45;&gt;14 -->
<g id="edge19" class="edge"><title>8&#45;&gt;14</title>
<path fill="none" stroke="black" d="M4119.42,-108.141C4138.17,-127.456 4170.8,-158.902 4203.38,-180 4222.58,-192.436 4245.18,-203.367 4265.44,-212.021"/>
<polygon fill="black" stroke="black" points="4274.87,-215.959 4263.91,-216.256 4270.26,-214.031 4265.64,-212.104 4265.64,-212.104 4265.64,-212.104 4270.26,-214.031 4267.38,-207.952 4274.87,-215.959 4274.87,-215.959"/>
</g>
<!-- 15 -->
<g id="node16" class="node"><title>15</title>
<polygon fill="none" stroke="black" points="4103.38,-324 3949.38,-324 3949.38,-288 4103.38,-288 4103.38,-324"/>
<text text-anchor="middle" x="4026.38" y="-302.3" font-family="Times,serif" font-size="14.00">Environment.plotsettings</text>
</g>
<!-- 8&#45;&gt;15 -->
<g id="edge20" class="edge"><title>8&#45;&gt;15</title>
<path fill="none" stroke="black" d="M4059.11,-97.6148C4010.27,-105.916 3936.32,-121.806 3919.38,-144 3890.25,-182.152 3892.99,-211.261 3918.38,-252 3926.89,-265.652 3940.05,-275.886 3954.3,-283.524"/>
<polygon fill="black" stroke="black" points="3963.28,-287.951 3952.32,-287.565 3958.79,-285.74 3954.31,-283.529 3954.31,-283.529 3954.31,-283.529 3958.79,-285.74 3956.3,-279.493 3963.28,-287.951 3963.28,-287.951"/>
</g>
<!-- 9 -->
<g id="node10" class="node"><title>9</title>
<polygon fill="none" stroke="black" points="4658.38,-252 4476.38,-252 4476.38,-216 4658.38,-216 4658.38,-252"/>
<text text-anchor="middle" x="4567.38" y="-230.3" font-family="Times,serif" font-size="14.00">Environment.CollisionModels</text>
</g>
<!-- 10&#45;&gt;12 -->
<g id="edge21" class="edge"><title>10&#45;&gt;12</title>
<path fill="none" stroke="black" d="M4035.36,-180.124C4054.58,-189.531 4078.6,-201.292 4099.12,-211.333"/>
<polygon fill="black" stroke="black" points="4108.26,-215.81 4097.3,-215.455 4103.77,-213.612 4099.28,-211.414 4099.28,-211.414 4099.28,-211.414 4103.77,-213.612 4101.26,-207.372 4108.26,-215.81 4108.26,-215.81"/>
</g>
<!-- 10&#45;&gt;13 -->
<g id="edge22" class="edge"><title>10&#45;&gt;13</title>
<path fill="none" stroke="black" d="M4000.38,-180.303C4000.38,-188.017 4000.38,-197.288 4000.38,-205.888"/>
<polygon fill="black" stroke="black" points="4000.38,-215.896 3995.88,-205.896 4000.38,-210.896 4000.38,-205.896 4000.38,-205.896 4000.38,-205.896 4000.38,-210.896 4004.88,-205.896 4000.38,-215.896 4000.38,-215.896"/>
</g>
<!-- 10&#45;&gt;15 -->
<g id="edge23" class="edge"><title>10&#45;&gt;15</title>
<path fill="none" stroke="black" d="M3964.35,-180.185C3950.46,-188.835 3936.08,-200.763 3928.38,-216 3921.16,-230.279 3920.19,-238.256 3928.38,-252 3936.34,-265.357 3948.97,-275.551 3962.54,-283.253"/>
<polygon fill="black" stroke="black" points="3971.56,-287.961 3960.61,-287.322 3967.13,-285.647 3962.69,-283.333 3962.69,-283.333 3962.69,-283.333 3967.13,-285.647 3964.78,-279.344 3971.56,-287.961 3971.56,-287.961"/>
</g>
<!-- 11&#45;&gt;9 -->
<g id="edge24" class="edge"><title>11&#45;&gt;9</title>
<path fill="none" stroke="black" d="M4379.73,-180.034C4415.13,-190.028 4460.04,-202.702 4497.04,-213.146"/>
<polygon fill="black" stroke="black" points="4506.76,-215.889 4495.91,-217.503 4501.95,-214.531 4497.13,-213.173 4497.13,-213.173 4497.13,-213.173 4501.95,-214.531 4498.36,-208.842 4506.76,-215.889 4506.76,-215.889"/>
</g>
<!-- 11&#45;&gt;12 -->
<g id="edge25" class="edge"><title>11&#45;&gt;12</title>
<path fill="none" stroke="black" d="M4276.32,-180.124C4252.05,-189.778 4221.54,-201.913 4195.87,-212.122"/>
<polygon fill="black" stroke="black" points="4186.29,-215.932 4193.92,-208.055 4190.94,-214.084 4195.59,-212.236 4195.59,-212.236 4195.59,-212.236 4190.94,-214.084 4197.25,-216.417 4186.29,-215.932 4186.29,-215.932"/>
</g>
<!-- 11&#45;&gt;14 -->
<g id="edge26" class="edge"><title>11&#45;&gt;14</title>
<path fill="none" stroke="black" d="M4319.87,-180.303C4320.09,-188.017 4320.36,-197.288 4320.6,-205.888"/>
<polygon fill="black" stroke="black" points="4320.89,-215.896 4316.11,-206.028 4320.75,-210.898 4320.6,-205.9 4320.6,-205.9 4320.6,-205.9 4320.75,-210.898 4325.1,-205.771 4320.89,-215.896 4320.89,-215.896"/>
</g>
<!-- 11&#45;&gt;15 -->
<g id="edge27" class="edge"><title>11&#45;&gt;15</title>
<path fill="none" stroke="black" d="M4384.2,-180.053C4401.88,-187.996 4419,-199.486 4429.38,-216 4437.89,-229.548 4439.93,-239.971 4429.38,-252 4408.9,-275.344 4226.09,-291.641 4113.84,-299.547"/>
<polygon fill="black" stroke="black" points="4103.54,-300.263 4113.2,-295.08 4108.53,-299.916 4113.52,-299.569 4113.52,-299.569 4113.52,-299.569 4108.53,-299.916 4113.83,-304.059 4103.54,-300.263 4103.54,-300.263"/>
</g>
<!-- 12&#45;&gt;15 -->
<g id="edge28" class="edge"><title>12&#45;&gt;15</title>
<path fill="none" stroke="black" d="M4114.76,-252.124C4099.46,-261.276 4080.44,-272.658 4063.96,-282.515"/>
<polygon fill="black" stroke="black" points="4055.11,-287.81 4061.38,-278.814 4059.4,-285.243 4063.69,-282.676 4063.69,-282.676 4063.69,-282.676 4059.4,-285.243 4066,-286.538 4055.11,-287.81 4055.11,-287.81"/>
</g>
<!-- 16 -->
<g id="node17" class="node"><title>16</title>
<polygon fill="none" stroke="black" points="2164.88,-180 2105.88,-180 2105.88,-144 2164.88,-144 2164.88,-180"/>
<text text-anchor="middle" x="2135.38" y="-158.3" font-family="Times,serif" font-size="14.00">Policies</text>
</g>
<!-- 17 -->
<g id="node18" class="node"><title>17</title>
<polygon fill="none" stroke="black" points="2554.88,-324 2433.88,-324 2433.88,-288 2554.88,-288 2554.88,-324"/>
<text text-anchor="middle" x="2494.38" y="-302.3" font-family="Times,serif" font-size="14.00">Policies.AdBandits</text>
</g>
<!-- 16&#45;&gt;17 -->
<g id="edge29" class="edge"><title>16&#45;&gt;17</title>
<path fill="none" stroke="black" d="M2165.12,-167.123C2207.42,-173.699 2286.75,-188.693 2349.38,-216 2376.16,-227.677 2379.56,-236.583 2404.38,-252 2420.99,-262.319 2439.57,-273.348 2455.52,-282.659"/>
<polygon fill="black" stroke="black" points="2464.58,-287.924 2453.67,-286.786 2460.25,-285.41 2455.93,-282.896 2455.93,-282.896 2455.93,-282.896 2460.25,-285.41 2458.19,-279.006 2464.58,-287.924 2464.58,-287.924"/>
</g>
<!-- 18 -->
<g id="node19" class="node"><title>18</title>
<polygon fill="none" stroke="black" points="2807.88,-468 2716.88,-468 2716.88,-432 2807.88,-432 2807.88,-468"/>
<text text-anchor="middle" x="2762.38" y="-446.3" font-family="Times,serif" font-size="14.00">Policies.Aggr</text>
</g>
<!-- 16&#45;&gt;18 -->
<g id="edge30" class="edge"><title>16&#45;&gt;18</title>
<path fill="none" stroke="black" d="M2165.15,-164.757C2214.35,-168.604 2314.79,-180.494 2391.38,-216 2414.93,-226.919 2414.25,-240.215 2437.38,-252 2489.27,-278.437 2511.7,-261.144 2563.38,-288 2634.32,-324.865 2703.82,-389.421 2738.88,-424.547"/>
<polygon fill="black" stroke="black" points="2746.23,-431.987 2736,-428.035 2742.72,-428.43 2739.2,-424.873 2739.2,-424.873 2739.2,-424.873 2742.72,-428.43 2742.4,-421.71 2746.23,-431.987 2746.23,-431.987"/>
</g>
<!-- 20 -->
<g id="node21" class="node"><title>20</title>
<polygon fill="none" stroke="black" points="1974.38,-252 1850.38,-252 1850.38,-216 1974.38,-216 1974.38,-252"/>
<text text-anchor="middle" x="1912.38" y="-230.3" font-family="Times,serif" font-size="14.00">Policies.BayesUCB</text>
</g>
<!-- 16&#45;&gt;20 -->
<g id="edge31" class="edge"><title>16&#45;&gt;20</title>
<path fill="none" stroke="black" d="M2105.77,-172.295C2072.9,-182.612 2018.88,-199.568 1976.28,-212.942"/>
<polygon fill="black" stroke="black" points="1966.55,-215.997 1974.74,-208.708 1971.32,-214.499 1976.09,-213.002 1976.09,-213.002 1976.09,-213.002 1971.32,-214.499 1977.43,-217.295 1966.55,-215.997 1966.55,-215.997"/>
</g>
<!-- 23 -->
<g id="node24" class="node"><title>23</title>
<polygon fill="none" stroke="black" points="2611.88,-252 2446.88,-252 2446.88,-216 2611.88,-216 2611.88,-252"/>
<text text-anchor="middle" x="2529.38" y="-230.3" font-family="Times,serif" font-size="14.00">Policies.EpsilonDecreasing</text>
</g>
<!-- 16&#45;&gt;23 -->
<g id="edge32" class="edge"><title>16&#45;&gt;23</title>
<path fill="none" stroke="black" d="M2164.99,-168.261C2221.94,-178.38 2348.87,-200.93 2436.79,-216.55"/>
<polygon fill="black" stroke="black" points="2446.77,-218.323 2436.14,-221.005 2441.85,-217.449 2436.92,-216.574 2436.92,-216.574 2436.92,-216.574 2441.85,-217.449 2437.71,-212.143 2446.77,-218.323 2446.77,-218.323"/>
</g>
<!-- 24 -->
<g id="node25" class="node"><title>24</title>
<polygon fill="none" stroke="black" points="2836.38,-252 2630.38,-252 2630.38,-216 2836.38,-216 2836.38,-252"/>
<text text-anchor="middle" x="2733.38" y="-230.3" font-family="Times,serif" font-size="14.00">Policies.EpsilonDecreasingMEGA</text>
</g>
<!-- 16&#45;&gt;24 -->
<g id="edge33" class="edge"><title>16&#45;&gt;24</title>
<path fill="none" stroke="black" d="M2164.95,-165.811C2239.36,-172.972 2440.53,-192.89 2620.09,-215.995"/>
<polygon fill="black" stroke="black" points="2630.25,-217.309 2619.76,-220.489 2625.29,-216.668 2620.33,-216.027 2620.33,-216.027 2620.33,-216.027 2625.29,-216.668 2620.91,-211.564 2630.25,-217.309 2630.25,-217.309"/>
</g>
<!-- 25 -->
<g id="node26" class="node"><title>25</title>
<polygon fill="none" stroke="black" points="3041.88,-252 2854.88,-252 2854.88,-216 3041.88,-216 3041.88,-252"/>
<text text-anchor="middle" x="2948.38" y="-230.3" font-family="Times,serif" font-size="14.00">Policies.EpsilonExpDecreasing</text>
</g>
<!-- 16&#45;&gt;25 -->
<g id="edge34" class="edge"><title>16&#45;&gt;25</title>
<path fill="none" stroke="black" d="M2164.89,-164.26C2261.12,-168.566 2574.64,-184.162 2844.69,-215.984"/>
<polygon fill="black" stroke="black" points="2854.68,-217.172 2844.22,-220.46 2849.71,-216.582 2844.75,-215.992 2844.75,-215.992 2844.75,-215.992 2849.71,-216.582 2845.28,-211.523 2854.68,-217.172 2854.68,-217.172"/>
</g>
<!-- 26 -->
<g id="node27" class="node"><title>26</title>
<polygon fill="none" stroke="black" points="3188.88,-252 3059.88,-252 3059.88,-216 3188.88,-216 3188.88,-252"/>
<text text-anchor="middle" x="3124.38" y="-230.3" font-family="Times,serif" font-size="14.00">Policies.EpsilonFirst</text>
</g>
<!-- 16&#45;&gt;26 -->
<g id="edge35" class="edge"><title>16&#45;&gt;26</title>
<path fill="none" stroke="black" d="M2165.18,-162.914C2278.97,-162.965 2696.95,-166.613 3049.38,-216.015"/>
<polygon fill="black" stroke="black" points="3059.52,-217.452 3048.99,-220.505 3054.57,-216.751 3049.62,-216.049 3049.62,-216.049 3049.62,-216.049 3054.57,-216.751 3050.25,-211.594 3059.52,-217.452 3059.52,-217.452"/>
</g>
<!-- 27 -->
<g id="node28" class="node"><title>27</title>
<polygon fill="none" stroke="black" points="3036.38,-324 2892.38,-324 2892.38,-288 3036.38,-288 3036.38,-324"/>
<text text-anchor="middle" x="2964.38" y="-302.3" font-family="Times,serif" font-size="14.00">Policies.EpsilonGreedy</text>
</g>
<!-- 16&#45;&gt;27 -->
<g id="edge36" class="edge"><title>16&#45;&gt;27</title>
<path fill="none" stroke="black" d="M2164.88,-163.339C2332.71,-165.408 3160.8,-177.547 3197.38,-216 3247.4,-268.585 3132.04,-290.464 3046.41,-299.303"/>
<polygon fill="black" stroke="black" points="3036.39,-300.293 3045.9,-294.832 3041.37,-299.802 3046.35,-299.31 3046.35,-299.31 3046.35,-299.31 3041.37,-299.802 3046.79,-303.788 3036.39,-300.293 3036.39,-300.293"/>
</g>
<!-- 28 -->
<g id="node29" class="node"><title>28</title>
<polygon fill="none" stroke="black" points="3172.38,-396 3080.38,-396 3080.38,-360 3172.38,-360 3172.38,-396"/>
<text text-anchor="middle" x="3126.38" y="-374.3" font-family="Times,serif" font-size="14.00">Policies.Exp3</text>
</g>
<!-- 16&#45;&gt;28 -->
<g id="edge37" class="edge"><title>16&#45;&gt;28</title>
<path fill="none" stroke="black" d="M2164.91,-163.31C2334.77,-165.233 3181.02,-176.764 3218.38,-216 3258.15,-257.768 3197.2,-319.927 3157.02,-353.48"/>
<polygon fill="black" stroke="black" points="3149.05,-359.991 3153.95,-350.179 3152.92,-356.828 3156.8,-353.664 3156.8,-353.664 3156.8,-353.664 3152.92,-356.828 3159.64,-357.148 3149.05,-359.991 3149.05,-359.991"/>
</g>
<!-- 31 -->
<g id="node32" class="node"><title>31</title>
<polygon fill="none" stroke="black" points="3150.38,-468 3046.38,-468 3046.38,-432 3150.38,-432 3150.38,-468"/>
<text text-anchor="middle" x="3098.38" y="-446.3" font-family="Times,serif" font-size="14.00">Policies.MEGA</text>
</g>
<!-- 16&#45;&gt;31 -->
<g id="edge38" class="edge"><title>16&#45;&gt;31</title>
<path fill="none" stroke="black" d="M2164.92,-163.282C2336.76,-165.06 3201.23,-175.979 3239.38,-216 3297.37,-276.841 3237.97,-333.852 3181.38,-396 3170.43,-408.029 3156.15,-418.439 3142.53,-426.77"/>
<polygon fill="black" stroke="black" points="3133.72,-431.941 3140.06,-422.999 3138.03,-429.411 3142.34,-426.88 3142.34,-426.88 3142.34,-426.88 3138.03,-429.411 3144.62,-430.761 3133.72,-431.941 3133.72,-431.941"/>
</g>
<!-- 32 -->
<g id="node33" class="node"><title>32</title>
<polygon fill="none" stroke="black" points="913.878,-396 812.878,-396 812.878,-360 913.878,-360 913.878,-396"/>
<text text-anchor="middle" x="863.378" y="-374.3" font-family="Times,serif" font-size="14.00">Policies.MOSS</text>
</g>
<!-- 16&#45;&gt;32 -->
<g id="edge39" class="edge"><title>16&#45;&gt;32</title>
<path fill="none" stroke="black" d="M2105.72,-163.521C1901.75,-167.169 713.895,-189.532 688.378,-216 637.41,-268.869 741.768,-326 810.201,-355.944"/>
<polygon fill="black" stroke="black" points="819.599,-359.985 808.635,-360.169 815.006,-358.01 810.413,-356.035 810.413,-356.035 810.413,-356.035 815.006,-358.01 812.191,-351.901 819.599,-359.985 819.599,-359.985"/>
</g>
<!-- 33 -->
<g id="node34" class="node"><title>33</title>
<polygon fill="none" stroke="black" points="3305.88,-468 3168.88,-468 3168.88,-432 3305.88,-432 3305.88,-468"/>
<text text-anchor="middle" x="3237.38" y="-446.3" font-family="Times,serif" font-size="14.00">Policies.MusicalChair</text>
</g>
<!-- 16&#45;&gt;33 -->
<g id="edge40" class="edge"><title>16&#45;&gt;33</title>
<path fill="none" stroke="black" d="M2165.01,-163.258C2339.34,-164.915 3225.02,-175.324 3264.38,-216 3318.66,-272.109 3276.5,-374.857 3251.9,-422.918"/>
<polygon fill="black" stroke="black" points="3247.25,-431.772 3247.91,-420.826 3249.57,-427.345 3251.9,-422.919 3251.9,-422.919 3251.9,-422.919 3249.57,-427.345 3255.88,-425.012 3247.25,-431.772 3247.25,-431.772"/>
</g>
<!-- 35 -->
<g id="node36" class="node"><title>35</title>
<polygon fill="none" stroke="black" points="3434.38,-468 3324.38,-468 3324.38,-432 3434.38,-432 3434.38,-468"/>
<text text-anchor="middle" x="3379.38" y="-446.3" font-family="Times,serif" font-size="14.00">Policies.Softmax</text>
</g>
<!-- 16&#45;&gt;35 -->
<g id="edge41" class="edge"><title>16&#45;&gt;35</title>
<path fill="none" stroke="black" d="M2164.9,-163.449C2340.58,-166.237 3242.38,-182.161 3289.38,-216 3356.92,-264.629 3373.77,-371.296 3377.98,-421.651"/>
<polygon fill="black" stroke="black" points="3378.72,-431.781 3373.5,-422.134 3378.35,-426.794 3377.99,-421.807 3377.99,-421.807 3377.99,-421.807 3378.35,-426.794 3382.48,-421.481 3378.72,-431.781 3378.72,-431.781"/>
</g>
<!-- 36 -->
<g id="node37" class="node"><title>36</title>
<polygon fill="none" stroke="black" points="3567.38,-324 3421.38,-324 3421.38,-288 3567.38,-288 3567.38,-324"/>
<text text-anchor="middle" x="3494.38" y="-302.3" font-family="Times,serif" font-size="14.00">Policies.TakeFixedArm</text>
</g>
<!-- 16&#45;&gt;36 -->
<g id="edge42" class="edge"><title>16&#45;&gt;36</title>
<path fill="none" stroke="black" d="M2165.07,-163.508C2370.63,-167.09 3574.53,-189.194 3600.38,-216 3611.49,-227.516 3608.79,-238.39 3600.38,-252 3592.04,-265.496 3579.1,-275.67 3565.1,-283.299"/>
<polygon fill="black" stroke="black" points="3555.78,-287.954 3562.72,-279.46 3560.26,-285.72 3564.73,-283.485 3564.73,-283.485 3564.73,-283.485 3560.26,-285.72 3566.74,-287.511 3555.78,-287.954 3555.78,-287.954"/>
</g>
<!-- 37 -->
<g id="node38" class="node"><title>37</title>
<polygon fill="none" stroke="black" points="3590.88,-252 3397.88,-252 3397.88,-216 3590.88,-216 3590.88,-252"/>
<text text-anchor="middle" x="3494.38" y="-230.3" font-family="Times,serif" font-size="14.00">Policies.TakeRandomFixedArm</text>
</g>
<!-- 16&#45;&gt;37 -->
<g id="edge43" class="edge"><title>16&#45;&gt;37</title>
<path fill="none" stroke="black" d="M2164.94,-163.062C2303.04,-163.601 2898.28,-168.696 3383.38,-216 3384.69,-216.128 3386.01,-216.261 3387.33,-216.398"/>
<polygon fill="black" stroke="black" points="3397.6,-217.539 3387.16,-220.907 3392.63,-216.987 3387.66,-216.434 3387.66,-216.434 3387.66,-216.434 3392.63,-216.987 3388.15,-211.962 3397.6,-217.539 3397.6,-217.539"/>
</g>
<!-- 38 -->
<g id="node39" class="node"><title>38</title>
<polygon fill="none" stroke="black" points="1832.38,-252 1710.38,-252 1710.38,-216 1832.38,-216 1832.38,-252"/>
<text text-anchor="middle" x="1771.38" y="-230.3" font-family="Times,serif" font-size="14.00">Policies.Thompson</text>
</g>
<!-- 16&#45;&gt;38 -->
<g id="edge44" class="edge"><title>16&#45;&gt;38</title>
<path fill="none" stroke="black" d="M2105.64,-167.757C2054.09,-176.129 1944.66,-194.481 1842.29,-215.87"/>
<polygon fill="black" stroke="black" points="1832.41,-217.95 1841.27,-211.487 1837.31,-216.92 1842.2,-215.89 1842.2,-215.89 1842.2,-215.89 1837.31,-216.92 1843.13,-220.294 1832.41,-217.95 1832.41,-217.95"/>
</g>
<!-- 39 -->
<g id="node40" class="node"><title>39</title>
<polygon fill="none" stroke="black" points="2076.88,-396 1985.88,-396 1985.88,-360 2076.88,-360 2076.88,-396"/>
<text text-anchor="middle" x="2031.38" y="-374.3" font-family="Times,serif" font-size="14.00">Policies.UCB</text>
</g>
<!-- 16&#45;&gt;39 -->
<g id="edge45" class="edge"><title>16&#45;&gt;39</title>
<path fill="none" stroke="black" d="M2134.75,-180.367C2132.88,-211.475 2125.51,-277.767 2096.38,-324 2089.21,-335.373 2078.76,-345.436 2068.33,-353.655"/>
<polygon fill="black" stroke="black" points="2060.03,-359.841 2065.36,-350.257 2064.04,-356.853 2068.04,-353.866 2068.04,-353.866 2068.04,-353.866 2064.04,-356.853 2070.73,-357.474 2060.03,-359.841 2060.03,-359.841"/>
</g>
<!-- 40 -->
<g id="node41" class="node"><title>40</title>
<polygon fill="none" stroke="black" points="2415.88,-324 2314.88,-324 2314.88,-288 2415.88,-288 2415.88,-324"/>
<text text-anchor="middle" x="2365.38" y="-302.3" font-family="Times,serif" font-size="14.00">Policies.UCBV</text>
</g>
<!-- 16&#45;&gt;40 -->
<g id="edge46" class="edge"><title>16&#45;&gt;40</title>
<path fill="none" stroke="black" d="M2165.08,-164.079C2205.16,-167.02 2276.77,-177.702 2322.38,-216 2341.4,-231.974 2352.66,-258.342 2358.85,-278.241"/>
<polygon fill="black" stroke="black" points="2361.64,-287.967 2354.56,-279.596 2360.27,-283.161 2358.89,-278.355 2358.89,-278.355 2358.89,-278.355 2360.27,-283.161 2363.21,-277.114 2361.64,-287.967 2361.64,-287.967"/>
</g>
<!-- 41 -->
<g id="node42" class="node"><title>41</title>
<polygon fill="none" stroke="black" points="2313.88,-252 2182.88,-252 2182.88,-216 2313.88,-216 2313.88,-252"/>
<text text-anchor="middle" x="2248.38" y="-230.3" font-family="Times,serif" font-size="14.00">Policies.UCBVtuned</text>
</g>
<!-- 16&#45;&gt;41 -->
<g id="edge47" class="edge"><title>16&#45;&gt;41</title>
<path fill="none" stroke="black" d="M2163.02,-180.124C2177.8,-189.276 2196.17,-200.658 2212.08,-210.515"/>
<polygon fill="black" stroke="black" points="2220.63,-215.81 2209.76,-214.37 2216.38,-213.177 2212.13,-210.544 2212.13,-210.544 2212.13,-210.544 2216.38,-213.177 2214.5,-206.719 2220.63,-215.81 2220.63,-215.81"/>
</g>
<!-- 42 -->
<g id="node43" class="node"><title>42</title>
<polygon fill="none" stroke="black" points="1830.38,-324 1710.38,-324 1710.38,-288 1830.38,-288 1830.38,-324"/>
<text text-anchor="middle" x="1770.38" y="-302.3" font-family="Times,serif" font-size="14.00">Policies.UCBalpha</text>
</g>
<!-- 16&#45;&gt;42 -->
<g id="edge48" class="edge"><title>16&#45;&gt;42</title>
<path fill="none" stroke="black" d="M2105.73,-172.365C2080.52,-181.194 2044.09,-196.048 2016.38,-216 1998.76,-228.681 2002.04,-240.908 1983.38,-252 1982.57,-252.479 1902.06,-272.448 1840.27,-287.732"/>
<polygon fill="black" stroke="black" points="1830.53,-290.141 1839.16,-283.372 1835.38,-288.941 1840.24,-287.74 1840.24,-287.74 1840.24,-287.74 1835.38,-288.941 1841.32,-292.109 1830.53,-290.141 1830.53,-290.141"/>
</g>
<!-- 43 -->
<g id="node44" class="node"><title>43</title>
<polygon fill="none" stroke="black" points="938.378,-324 816.378,-324 816.378,-288 938.378,-288 938.378,-324"/>
<text text-anchor="middle" x="877.378" y="-302.3" font-family="Times,serif" font-size="14.00">Policies.UCBlog10</text>
</g>
<!-- 16&#45;&gt;43 -->
<g id="edge49" class="edge"><title>16&#45;&gt;43</title>
<path fill="none" stroke="black" d="M2105.71,-163.25C1921.84,-164.927 944.042,-175.722 896.378,-216 878.886,-230.782 875.111,-257.357 875.128,-277.632"/>
<polygon fill="black" stroke="black" points="875.446,-287.848 870.637,-277.993 875.29,-282.85 875.134,-277.853 875.134,-277.853 875.134,-277.853 875.29,-282.85 879.632,-277.712 875.446,-287.848 875.446,-287.848"/>
</g>
<!-- 44 -->
<g id="node45" class="node"><title>44</title>
<polygon fill="none" stroke="black" points="848.878,-252 697.878,-252 697.878,-216 848.878,-216 848.878,-252"/>
<text text-anchor="middle" x="773.378" y="-230.3" font-family="Times,serif" font-size="14.00">Policies.UCBlog10alpha</text>
</g>
<!-- 16&#45;&gt;44 -->
<g id="edge50" class="edge"><title>16&#45;&gt;44</title>
<path fill="none" stroke="black" d="M2105.68,-163.651C1938.73,-167.402 1115.49,-187.092 863.378,-216 861.897,-216.17 860.404,-216.35 858.901,-216.54"/>
<polygon fill="black" stroke="black" points="848.879,-217.916 858.174,-212.097 853.833,-217.236 858.786,-216.555 858.786,-216.555 858.786,-216.555 853.833,-217.236 859.399,-221.013 848.879,-217.916 848.879,-217.916"/>
</g>
<!-- 45 -->
<g id="node46" class="node"><title>45</title>
<polygon fill="none" stroke="black" points="1956.38,-324 1848.38,-324 1848.38,-288 1956.38,-288 1956.38,-324"/>
<text text-anchor="middle" x="1902.38" y="-302.3" font-family="Times,serif" font-size="14.00">Policies.UCBopt</text>
</g>
<!-- 16&#45;&gt;45 -->
<g id="edge51" class="edge"><title>16&#45;&gt;45</title>
<path fill="none" stroke="black" d="M2113.49,-180.23C2084.8,-202.655 2035.87,-240.354 2016.38,-252 1996.57,-263.841 1973.67,-274.943 1953.62,-283.896"/>
<polygon fill="black" stroke="black" points="1944.33,-287.983 1951.67,-279.837 1948.9,-285.97 1953.48,-283.956 1953.48,-283.956 1953.48,-283.956 1948.9,-285.97 1955.29,-288.075 1944.33,-287.983 1944.33,-287.983"/>
</g>
<!-- 46 -->
<g id="node47" class="node"><title>46</title>
<polygon fill="none" stroke="black" points="2087.88,-324 1974.88,-324 1974.88,-288 2087.88,-288 2087.88,-324"/>
<text text-anchor="middle" x="2031.38" y="-302.3" font-family="Times,serif" font-size="14.00">Policies.UCBplus</text>
</g>
<!-- 16&#45;&gt;46 -->
<g id="edge52" class="edge"><title>16&#45;&gt;46</title>
<path fill="none" stroke="black" d="M2122.83,-180.129C2104.72,-204.863 2071.11,-250.758 2050.06,-279.488"/>
<polygon fill="black" stroke="black" points="2043.97,-287.811 2046.25,-277.084 2046.92,-283.777 2049.88,-279.743 2049.88,-279.743 2049.88,-279.743 2046.92,-283.777 2053.51,-282.402 2043.97,-287.811 2043.97,-287.811"/>
</g>
<!-- 47 -->
<g id="node48" class="node"><title>47</title>
<polygon fill="none" stroke="black" points="2296.38,-324 2144.38,-324 2144.38,-288 2296.38,-288 2296.38,-324"/>
<text text-anchor="middle" x="2220.38" y="-302.3" font-family="Times,serif" font-size="14.00">Policies.UCBrandomInit</text>
</g>
<!-- 16&#45;&gt;47 -->
<g id="edge53" class="edge"><title>16&#45;&gt;47</title>
<path fill="none" stroke="black" d="M2140.86,-180.202C2147.19,-198.743 2158.64,-228.721 2173.38,-252 2179.62,-261.864 2187.7,-271.701 2195.39,-280.175"/>
<polygon fill="black" stroke="black" points="2202.28,-287.534 2192.16,-283.31 2198.87,-283.885 2195.45,-280.235 2195.45,-280.235 2195.45,-280.235 2198.87,-283.885 2198.73,-277.159 2202.28,-287.534 2202.28,-287.534"/>
</g>
<!-- 48 -->
<g id="node49" class="node"><title>48</title>
<polygon fill="none" stroke="black" points="744.878,-396 619.878,-396 619.878,-360 744.878,-360 744.878,-396"/>
<text text-anchor="middle" x="682.378" y="-374.3" font-family="Times,serif" font-size="14.00">Policies.UCBwrong</text>
</g>
<!-- 16&#45;&gt;48 -->
<g id="edge54" class="edge"><title>16&#45;&gt;48</title>
<path fill="none" stroke="black" d="M2105.7,-163.508C1900.29,-167.093 697.214,-189.212 671.378,-216 636.979,-251.668 655.363,-314.902 670.015,-350.586"/>
<polygon fill="black" stroke="black" points="674.002,-359.874 665.923,-352.46 672.03,-355.28 670.058,-350.685 670.058,-350.685 670.058,-350.685 672.03,-355.28 674.193,-348.91 674.002,-359.874 674.002,-359.874"/>
</g>
<!-- 49 -->
<g id="node50" class="node"><title>49</title>
<polygon fill="none" stroke="black" points="3781.38,-324 3671.38,-324 3671.38,-288 3781.38,-288 3781.38,-324"/>
<text text-anchor="middle" x="3726.38" y="-302.3" font-family="Times,serif" font-size="14.00">Policies.Uniform</text>
</g>
<!-- 16&#45;&gt;49 -->
<g id="edge55" class="edge"><title>16&#45;&gt;49</title>
<path fill="none" stroke="black" d="M2164.95,-163.653C2388.13,-168.612 3799.43,-200.57 3814.38,-216 3825.51,-227.491 3822.25,-238.07 3814.38,-252 3807.04,-264.994 3795.09,-275.157 3782.33,-282.95"/>
<polygon fill="black" stroke="black" points="3773.42,-287.973 3779.92,-279.143 3777.78,-285.518 3782.13,-283.063 3782.13,-283.063 3782.13,-283.063 3777.78,-285.518 3784.34,-286.984 3773.42,-287.973 3773.42,-287.973"/>
</g>
<!-- 50 -->
<g id="node51" class="node"><title>50</title>
<polygon fill="none" stroke="black" points="3805.38,-252 3647.38,-252 3647.38,-216 3805.38,-216 3805.38,-252"/>
<text text-anchor="middle" x="3726.38" y="-230.3" font-family="Times,serif" font-size="14.00">Policies.UniformOnSome</text>
</g>
<!-- 16&#45;&gt;50 -->
<g id="edge56" class="edge"><title>16&#45;&gt;50</title>
<path fill="none" stroke="black" d="M2165.09,-163.461C2348.94,-166.403 3333.59,-183.472 3633.38,-216 3634.66,-216.139 3635.96,-216.286 3637.26,-216.44"/>
<polygon fill="black" stroke="black" points="3647.35,-217.745 3636.85,-220.925 3642.39,-217.104 3637.43,-216.462 3637.43,-216.462 3637.43,-216.462 3642.39,-217.104 3638.01,-211.999 3647.35,-217.745 3647.35,-217.745"/>
</g>
<!-- 51 -->
<g id="node52" class="node"><title>51</title>
<polygon fill="none" stroke="black" points="1296.88,-324 1195.88,-324 1195.88,-288 1296.88,-288 1296.88,-324"/>
<text text-anchor="middle" x="1246.38" y="-302.3" font-family="Times,serif" font-size="14.00">Policies.klUCB</text>
</g>
<!-- 16&#45;&gt;51 -->
<g id="edge57" class="edge"><title>16&#45;&gt;51</title>
<path fill="none" stroke="black" d="M2105.76,-163.716C1955.86,-167.472 1286.74,-185.888 1255.38,-216 1239.24,-231.5 1238.41,-257.75 1240.78,-277.737"/>
<polygon fill="black" stroke="black" points="1242.3,-287.807 1236.36,-278.587 1241.55,-282.863 1240.81,-277.918 1240.81,-277.918 1240.81,-277.918 1241.55,-282.863 1245.26,-277.249 1242.3,-287.807 1242.3,-287.807"/>
</g>
<!-- 52 -->
<g id="node53" class="node"><title>52</title>
<polygon fill="none" stroke="black" points="1692.38,-252 1558.38,-252 1558.38,-216 1692.38,-216 1692.38,-252"/>
<text text-anchor="middle" x="1625.38" y="-230.3" font-family="Times,serif" font-size="14.00">Policies.klUCBHPlus</text>
</g>
<!-- 16&#45;&gt;52 -->
<g id="edge58" class="edge"><title>16&#45;&gt;52</title>
<path fill="none" stroke="black" d="M2105.76,-165.601C2036.79,-171.876 1859.93,-189.209 1702.32,-215.931"/>
<polygon fill="black" stroke="black" points="1692.44,-217.622 1701.54,-211.499 1697.37,-216.778 1702.3,-215.934 1702.3,-215.934 1702.3,-215.934 1697.37,-216.778 1703.06,-220.37 1692.44,-217.622 1692.44,-217.622"/>
</g>
<!-- 53 -->
<g id="node54" class="node"><title>53</title>
<polygon fill="none" stroke="black" points="1389.88,-252 1264.88,-252 1264.88,-216 1389.88,-216 1389.88,-252"/>
<text text-anchor="middle" x="1327.38" y="-230.3" font-family="Times,serif" font-size="14.00">Policies.klUCBPlus</text>
</g>
<!-- 16&#45;&gt;53 -->
<g id="edge59" class="edge"><title>16&#45;&gt;53</title>
<path fill="none" stroke="black" d="M2105.74,-163.436C2006.89,-165.248 1679.44,-174.118 1400.01,-216.063"/>
<polygon fill="black" stroke="black" points="1390.09,-217.569 1399.3,-211.619 1395.03,-216.819 1399.98,-216.068 1399.98,-216.068 1399.98,-216.068 1395.03,-216.819 1400.65,-220.517 1390.09,-217.569 1390.09,-217.569"/>
</g>
<!-- 54 -->
<g id="node55" class="node"><title>54</title>
<polygon fill="none" stroke="black" points="1540.38,-252 1408.38,-252 1408.38,-216 1540.38,-216 1540.38,-252"/>
<text text-anchor="middle" x="1474.38" y="-230.3" font-family="Times,serif" font-size="14.00">Policies.klUCBlog10</text>
</g>
<!-- 16&#45;&gt;54 -->
<g id="edge60" class="edge"><title>16&#45;&gt;54</title>
<path fill="none" stroke="black" d="M2105.63,-164.294C2020.55,-168.289 1768.8,-182.165 1550.58,-215.932"/>
<polygon fill="black" stroke="black" points="1540.54,-217.503 1549.72,-211.511 1545.48,-216.73 1550.42,-215.956 1550.42,-215.956 1550.42,-215.956 1545.48,-216.73 1551.12,-220.402 1540.54,-217.503 1540.54,-217.503"/>
</g>
<!-- 55 -->
<g id="node56" class="node"><title>55</title>
<polygon fill="none" stroke="black" points="1041.38,-252 905.378,-252 905.378,-216 1041.38,-216 1041.38,-252"/>
<text text-anchor="middle" x="973.378" y="-230.3" font-family="Times,serif" font-size="14.00">Policies.klUCBloglog</text>
</g>
<!-- 16&#45;&gt;55 -->
<g id="edge61" class="edge"><title>16&#45;&gt;55</title>
<path fill="none" stroke="black" d="M2105.87,-162.625C1979.84,-161.404 1474.27,-160.35 1051.67,-215.964"/>
<polygon fill="black" stroke="black" points="1041.71,-217.289 1051.03,-211.511 1046.66,-216.63 1051.62,-215.971 1051.62,-215.971 1051.62,-215.971 1046.66,-216.63 1052.21,-220.432 1041.71,-217.289 1041.71,-217.289"/>
</g>
<!-- 56 -->
<g id="node57" class="node"><title>56</title>
<polygon fill="none" stroke="black" points="1208.88,-252 1059.88,-252 1059.88,-216 1208.88,-216 1208.88,-252"/>
<text text-anchor="middle" x="1134.38" y="-230.3" font-family="Times,serif" font-size="14.00">Policies.klUCBloglog10</text>
</g>
<!-- 16&#45;&gt;56 -->
<g id="edge62" class="edge"><title>16&#45;&gt;56</title>
<path fill="none" stroke="black" d="M2105.69,-163.293C1991.24,-164.723 1567.8,-172.804 1222.38,-216 1221.3,-216.135 1220.21,-216.276 1219.12,-216.421"/>
<polygon fill="black" stroke="black" points="1209.16,-217.852 1218.42,-211.975 1214.11,-217.141 1219.06,-216.429 1219.06,-216.429 1219.06,-216.429 1214.11,-217.141 1219.7,-220.883 1209.16,-217.852 1209.16,-217.852"/>
</g>
<!-- 19 -->
<g id="node20" class="node"><title>19</title>
<polygon fill="none" stroke="black" points="3120.38,-540 2996.38,-540 2996.38,-504 3120.38,-504 3120.38,-540"/>
<text text-anchor="middle" x="3058.38" y="-518.3" font-family="Times,serif" font-size="14.00">Policies.BasePolicy</text>
</g>
<!-- 17&#45;&gt;19 -->
<g id="edge63" class="edge"><title>17&#45;&gt;19</title>
<path fill="none" stroke="black" d="M2505.72,-324.139C2519.15,-343.451 2543.05,-374.894 2569.38,-396 2623.36,-439.269 2641.61,-446.542 2707.38,-468 2800.64,-498.426 2913.62,-511.506 2985.74,-517.048"/>
<polygon fill="black" stroke="black" points="2996.08,-517.812 2985.78,-521.562 2991.1,-517.443 2986.11,-517.074 2986.11,-517.074 2986.11,-517.074 2991.1,-517.443 2986.44,-512.587 2996.08,-517.812 2996.08,-517.812"/>
</g>
<!-- 22 -->
<g id="node23" class="node"><title>22</title>
<polygon fill="none" stroke="black" points="2319.38,-396 2231.38,-396 2231.38,-360 2319.38,-360 2319.38,-396"/>
<text text-anchor="middle" x="2275.38" y="-374.3" font-family="Times,serif" font-size="14.00">Policies.Beta</text>
</g>
<!-- 17&#45;&gt;22 -->
<g id="edge64" class="edge"><title>17&#45;&gt;22</title>
<path fill="none" stroke="black" d="M2441.08,-324.034C2407.21,-334.863 2363.48,-348.84 2329.45,-359.717"/>
<polygon fill="black" stroke="black" points="2319.67,-362.841 2327.83,-355.51 2324.44,-361.319 2329.2,-359.797 2329.2,-359.797 2329.2,-359.797 2324.44,-361.319 2330.57,-364.083 2319.67,-362.841 2319.67,-362.841"/>
</g>
<!-- 18&#45;&gt;19 -->
<g id="edge65" class="edge"><title>18&#45;&gt;19</title>
<path fill="none" stroke="black" d="M2807.98,-461.784C2855.56,-473.036 2930.83,-490.836 2986.43,-503.986"/>
<polygon fill="black" stroke="black" points="2996.22,-506.301 2985.46,-508.379 2991.36,-505.151 2986.49,-504 2986.49,-504 2986.49,-504 2991.36,-505.151 2987.53,-499.621 2996.22,-506.301 2996.22,-506.301"/>
</g>
<!-- 21 -->
<g id="node22" class="node"><title>21</title>
<polygon fill="none" stroke="black" points="1692.38,-324 1514.38,-324 1514.38,-288 1692.38,-288 1692.38,-324"/>
<text text-anchor="middle" x="1603.38" y="-302.3" font-family="Times,serif" font-size="14.00">Policies.BayesianIndexPolicy</text>
</g>
<!-- 20&#45;&gt;21 -->
<g id="edge66" class="edge"><title>20&#45;&gt;21</title>
<path fill="none" stroke="black" d="M1850.05,-249.982C1847.12,-250.668 1844.22,-251.344 1841.38,-252 1791.82,-263.451 1736.35,-275.829 1691.43,-285.741"/>
<polygon fill="black" stroke="black" points="1681.43,-287.946 1690.23,-281.399 1686.31,-286.87 1691.2,-285.793 1691.2,-285.793 1691.2,-285.793 1686.31,-286.87 1692.16,-290.188 1681.43,-287.946 1681.43,-287.946"/>
</g>
<!-- 21&#45;&gt;22 -->
<g id="edge67" class="edge"><title>21&#45;&gt;22</title>
<path fill="none" stroke="black" d="M1692.53,-322.775C1695.51,-323.204 1698.47,-323.614 1701.38,-324 1726.91,-327.388 2082.64,-359.607 2220.94,-372.092"/>
<polygon fill="black" stroke="black" points="2231.29,-373.026 2220.93,-376.609 2226.31,-372.577 2221.33,-372.127 2221.33,-372.127 2221.33,-372.127 2226.31,-372.577 2221.74,-367.646 2231.29,-373.026 2231.29,-373.026"/>
</g>
<!-- 29 -->
<g id="node30" class="node"><title>29</title>
<polygon fill="none" stroke="black" points="1393.38,-468 1265.38,-468 1265.38,-432 1393.38,-432 1393.38,-468"/>
<text text-anchor="middle" x="1329.38" y="-446.3" font-family="Times,serif" font-size="14.00">Policies.IndexPolicy</text>
</g>
<!-- 21&#45;&gt;29 -->
<g id="edge68" class="edge"><title>21&#45;&gt;29</title>
<path fill="none" stroke="black" d="M1570.33,-324.129C1520.54,-349.929 1426.33,-398.753 1371.63,-427.104"/>
<polygon fill="black" stroke="black" points="1362.55,-431.811 1369.35,-423.214 1366.99,-429.51 1371.42,-427.209 1371.42,-427.209 1371.42,-427.209 1366.99,-429.51 1373.5,-431.205 1362.55,-431.811 1362.55,-431.811"/>
</g>
<!-- 34 -->
<g id="node35" class="node"><title>34</title>
<polygon fill="none" stroke="black" points="2331.38,-468 2219.38,-468 2219.38,-432 2331.38,-432 2331.38,-468"/>
<text text-anchor="middle" x="2275.38" y="-446.3" font-family="Times,serif" font-size="14.00">Policies.Posterior</text>
</g>
<!-- 22&#45;&gt;34 -->
<g id="edge69" class="edge"><title>22&#45;&gt;34</title>
<path fill="none" stroke="black" d="M2275.38,-396.303C2275.38,-404.017 2275.38,-413.288 2275.38,-421.888"/>
<polygon fill="black" stroke="black" points="2275.38,-431.896 2270.88,-421.896 2275.38,-426.896 2275.38,-421.896 2275.38,-421.896 2275.38,-421.896 2275.38,-426.896 2279.88,-421.896 2275.38,-431.896 2275.38,-431.896"/>
</g>
<!-- 23&#45;&gt;27 -->
<g id="edge70" class="edge"><title>23&#45;&gt;27</title>
<path fill="none" stroke="black" d="M2612.11,-250.406C2615.24,-250.951 2618.34,-251.484 2621.38,-252 2710.42,-267.102 2812.77,-282.687 2882.32,-293.014"/>
<polygon fill="black" stroke="black" points="2892.34,-294.498 2881.79,-297.484 2887.4,-293.765 2882.45,-293.032 2882.45,-293.032 2882.45,-293.032 2887.4,-293.765 2883.11,-288.581 2892.34,-294.498 2892.34,-294.498"/>
</g>
<!-- 24&#45;&gt;27 -->
<g id="edge71" class="edge"><title>24&#45;&gt;27</title>
<path fill="none" stroke="black" d="M2789.59,-252.034C2822.29,-261.943 2863.68,-274.486 2897.98,-284.879"/>
<polygon fill="black" stroke="black" points="2907.91,-287.889 2897.04,-289.296 2903.13,-286.439 2898.34,-284.989 2898.34,-284.989 2898.34,-284.989 2903.13,-286.439 2899.65,-280.682 2907.91,-287.889 2907.91,-287.889"/>
</g>
<!-- 25&#45;&gt;27 -->
<g id="edge72" class="edge"><title>25&#45;&gt;27</title>
<path fill="none" stroke="black" d="M2952.33,-252.303C2954.1,-260.017 2956.22,-269.288 2958.18,-277.888"/>
<polygon fill="black" stroke="black" points="2960.47,-287.896 2953.85,-279.15 2959.35,-283.021 2958.24,-278.147 2958.24,-278.147 2958.24,-278.147 2959.35,-283.021 2962.63,-277.144 2960.47,-287.896 2960.47,-287.896"/>
</g>
<!-- 26&#45;&gt;27 -->
<g id="edge73" class="edge"><title>26&#45;&gt;27</title>
<path fill="none" stroke="black" d="M3085.24,-252.124C3063.36,-261.693 3035.92,-273.7 3012.72,-283.852"/>
<polygon fill="black" stroke="black" points="3003.39,-287.932 3010.75,-279.801 3007.97,-285.928 3012.55,-283.923 3012.55,-283.923 3012.55,-283.923 3007.97,-285.928 3014.36,-288.046 3003.39,-287.932 3003.39,-287.932"/>
</g>
<!-- 27&#45;&gt;19 -->
<g id="edge74" class="edge"><title>27&#45;&gt;19</title>
<path fill="none" stroke="black" d="M2970.36,-324.249C2980.88,-354.078 3003.95,-417.001 3028.38,-468 3032.67,-476.964 3037.86,-486.49 3042.7,-494.958"/>
<polygon fill="black" stroke="black" points="3047.76,-503.654 3038.84,-497.276 3045.25,-499.333 3042.73,-495.012 3042.73,-495.012 3042.73,-495.012 3045.25,-499.333 3046.62,-492.748 3047.76,-503.654 3047.76,-503.654"/>
</g>
<!-- 28&#45;&gt;19 -->
<g id="edge75" class="edge"><title>28&#45;&gt;19</title>
<path fill="none" stroke="black" d="M3080.22,-395.195C3063.68,-403.492 3046.8,-415.427 3037.38,-432 3026.36,-451.393 3033.76,-476.309 3042.68,-494.843"/>
<polygon fill="black" stroke="black" points="3047.4,-503.89 3038.79,-497.102 3045.09,-499.456 3042.78,-495.022 3042.78,-495.022 3042.78,-495.022 3045.09,-499.456 3046.77,-492.943 3047.4,-503.89 3047.4,-503.89"/>
</g>
<!-- 29&#45;&gt;19 -->
<g id="edge76" class="edge"><title>29&#45;&gt;19</title>
<path fill="none" stroke="black" d="M1393.48,-453.595C1662.73,-464.496 2701.3,-506.543 2985.9,-518.066"/>
<polygon fill="black" stroke="black" points="2996.1,-518.479 2985.93,-522.57 2991.11,-518.276 2986.11,-518.074 2986.11,-518.074 2986.11,-518.074 2991.11,-518.276 2986.29,-513.578 2996.1,-518.479 2996.1,-518.479"/>
</g>
<!-- 30 -->
<g id="node31" class="node"><title>30</title>
<polygon fill="none" stroke="black" points="1487.88,-324 1354.88,-324 1354.88,-288 1487.88,-288 1487.88,-324"/>
<text text-anchor="middle" x="1421.38" y="-302.3" font-family="Times,serif" font-size="14.00">Policies.KLempUCB</text>
</g>
<!-- 30&#45;&gt;29 -->
<g id="edge77" class="edge"><title>30&#45;&gt;29</title>
<path fill="none" stroke="black" d="M1418.41,-324.293C1414.55,-343.18 1406.44,-373.709 1391.38,-396 1383.87,-407.109 1373.43,-417.251 1363.26,-425.622"/>
<polygon fill="black" stroke="black" points="1355.22,-431.939 1360.31,-422.222 1359.16,-428.85 1363.09,-425.76 1363.09,-425.76 1363.09,-425.76 1359.16,-428.85 1365.87,-429.299 1355.22,-431.939 1355.22,-431.939"/>
</g>
<!-- 57 -->
<g id="node58" class="node"><title>57</title>
<polygon fill="none" stroke="black" points="1382.38,-396 1272.38,-396 1272.38,-360 1382.38,-360 1382.38,-396"/>
<text text-anchor="middle" x="1327.38" y="-374.3" font-family="Times,serif" font-size="14.00">Policies.kullback</text>
</g>
<!-- 30&#45;&gt;57 -->
<g id="edge78" class="edge"><title>30&#45;&gt;57</title>
<path fill="none" stroke="black" d="M1398.14,-324.303C1386.19,-333.204 1371.46,-344.177 1358.53,-353.801"/>
<polygon fill="black" stroke="black" points="1350.35,-359.896 1355.68,-350.314 1354.36,-356.909 1358.37,-353.923 1358.37,-353.923 1358.37,-353.923 1354.36,-356.909 1361.06,-357.532 1350.35,-359.896 1350.35,-359.896"/>
</g>
<!-- 31&#45;&gt;19 -->
<g id="edge79" class="edge"><title>31&#45;&gt;19</title>
<path fill="none" stroke="black" d="M3088.49,-468.303C3083.89,-476.356 3078.32,-486.106 3073.23,-495.018"/>
<polygon fill="black" stroke="black" points="3068.15,-503.896 3069.21,-492.981 3070.63,-499.554 3073.11,-495.213 3073.11,-495.213 3073.11,-495.213 3070.63,-499.554 3077.02,-497.446 3068.15,-503.896 3068.15,-503.896"/>
</g>
<!-- 32&#45;&gt;29 -->
<g id="edge80" class="edge"><title>32&#45;&gt;29</title>
<path fill="none" stroke="black" d="M914.136,-386.624C996.527,-399.001 1159.75,-423.519 1255.17,-437.853"/>
<polygon fill="black" stroke="black" points="1265.33,-439.379 1254.77,-442.343 1260.38,-438.636 1255.44,-437.893 1255.44,-437.893 1255.44,-437.893 1260.38,-438.636 1256.11,-433.443 1265.33,-439.379 1265.33,-439.379"/>
</g>
<!-- 33&#45;&gt;19 -->
<g id="edge81" class="edge"><title>33&#45;&gt;19</title>
<path fill="none" stroke="black" d="M3193.59,-468.124C3168.79,-477.821 3137.6,-490.02 3111.42,-500.257"/>
<polygon fill="black" stroke="black" points="3102.02,-503.932 3109.7,-496.099 3106.68,-502.111 3111.34,-500.29 3111.34,-500.29 3111.34,-500.29 3106.68,-502.111 3112.98,-504.481 3102.02,-503.932 3102.02,-503.932"/>
</g>
<!-- 35&#45;&gt;19 -->
<g id="edge82" class="edge"><title>35&#45;&gt;19</title>
<path fill="none" stroke="black" d="M3324.11,-465.663C3320.82,-466.47 3317.56,-467.255 3314.38,-468 3252.54,-482.477 3181.83,-496.961 3130.41,-507.121"/>
<polygon fill="black" stroke="black" points="3120.39,-509.094 3129.33,-502.746 3125.3,-508.127 3130.2,-507.161 3130.2,-507.161 3130.2,-507.161 3125.3,-508.127 3131.07,-511.576 3120.39,-509.094 3120.39,-509.094"/>
</g>
<!-- 36&#45;&gt;19 -->
<g id="edge83" class="edge"><title>36&#45;&gt;19</title>
<path fill="none" stroke="black" d="M3494.51,-324.047C3493.77,-357.403 3486.98,-431.244 3443.38,-468 3397.42,-506.746 3228.9,-517.231 3130.72,-520.026"/>
<polygon fill="black" stroke="black" points="3120.56,-520.295 3130.44,-515.531 3125.56,-520.162 3130.56,-520.03 3130.56,-520.03 3130.56,-520.03 3125.56,-520.162 3130.68,-524.528 3120.56,-520.295 3120.56,-520.295"/>
</g>
<!-- 37&#45;&gt;36 -->
<g id="edge84" class="edge"><title>37&#45;&gt;36</title>
<path fill="none" stroke="black" d="M3494.38,-252.303C3494.38,-260.017 3494.38,-269.288 3494.38,-277.888"/>
<polygon fill="black" stroke="black" points="3494.38,-287.896 3489.88,-277.896 3494.38,-282.896 3494.38,-277.896 3494.38,-277.896 3494.38,-277.896 3494.38,-282.896 3498.88,-277.896 3494.38,-287.896 3494.38,-287.896"/>
</g>
<!-- 38&#45;&gt;21 -->
<g id="edge85" class="edge"><title>38&#45;&gt;21</title>
<path fill="none" stroke="black" d="M1730.28,-252.124C1707.21,-261.736 1678.24,-273.807 1653.81,-283.987"/>
<polygon fill="black" stroke="black" points="1644.34,-287.932 1651.84,-279.932 1648.96,-286.009 1653.57,-284.085 1653.57,-284.085 1653.57,-284.085 1648.96,-286.009 1655.3,-288.239 1644.34,-287.932 1644.34,-287.932"/>
</g>
<!-- 39&#45;&gt;29 -->
<g id="edge86" class="edge"><title>39&#45;&gt;29</title>
<path fill="none" stroke="black" d="M1985.86,-383.539C1867.47,-395.344 1549.06,-427.094 1403.65,-441.594"/>
<polygon fill="black" stroke="black" points="1393.48,-442.608 1402.98,-437.138 1398.46,-442.112 1403.43,-441.616 1403.43,-441.616 1403.43,-441.616 1398.46,-442.112 1403.88,-446.094 1393.48,-442.608 1393.48,-442.608"/>
</g>
<!-- 40&#45;&gt;39 -->
<g id="edge87" class="edge"><title>40&#45;&gt;39</title>
<path fill="none" stroke="black" d="M2314.72,-321.681C2311.57,-322.493 2308.43,-323.273 2305.38,-324 2230.39,-341.842 2142.78,-357.978 2087.2,-367.637"/>
<polygon fill="black" stroke="black" points="2077.21,-369.364 2086.29,-363.227 2082.13,-368.512 2087.06,-367.661 2087.06,-367.661 2087.06,-367.661 2082.13,-368.512 2087.83,-372.095 2077.21,-369.364 2077.21,-369.364"/>
</g>
<!-- 41&#45;&gt;40 -->
<g id="edge88" class="edge"><title>41&#45;&gt;40</title>
<path fill="none" stroke="black" d="M2277,-252.124C2292.3,-261.276 2311.32,-272.658 2327.8,-282.515"/>
<polygon fill="black" stroke="black" points="2336.65,-287.81 2325.76,-286.538 2332.36,-285.243 2328.07,-282.676 2328.07,-282.676 2328.07,-282.676 2332.36,-285.243 2330.38,-278.814 2336.65,-287.81 2336.65,-287.81"/>
</g>
<!-- 42&#45;&gt;39 -->
<g id="edge89" class="edge"><title>42&#45;&gt;39</title>
<path fill="none" stroke="black" d="M1830.58,-323.147C1874.44,-334.909 1933.39,-350.72 1976.06,-362.165"/>
<polygon fill="black" stroke="black" points="1985.73,-364.756 1974.9,-366.512 1980.9,-363.461 1976.07,-362.165 1976.07,-362.165 1976.07,-362.165 1980.9,-363.461 1977.23,-357.819 1985.73,-364.756 1985.73,-364.756"/>
</g>
<!-- 43&#45;&gt;29 -->
<g id="edge90" class="edge"><title>43&#45;&gt;29</title>
<path fill="none" stroke="black" d="M931.9,-324.129C1015.75,-350.471 1176,-400.815 1265.28,-428.863"/>
<polygon fill="black" stroke="black" points="1275.02,-431.921 1264.13,-433.217 1270.25,-430.423 1265.48,-428.924 1265.48,-428.924 1265.48,-428.924 1270.25,-430.423 1266.82,-424.631 1275.02,-431.921 1275.02,-431.921"/>
</g>
<!-- 44&#45;&gt;43 -->
<g id="edge91" class="edge"><title>44&#45;&gt;43</title>
<path fill="none" stroke="black" d="M798.82,-252.124C812.166,-261.107 828.703,-272.237 843.156,-281.966"/>
<polygon fill="black" stroke="black" points="851.839,-287.81 841.031,-285.96 847.691,-285.018 843.543,-282.226 843.543,-282.226 843.543,-282.226 847.691,-285.018 846.056,-278.493 851.839,-287.81 851.839,-287.81"/>
</g>
<!-- 45&#45;&gt;39 -->
<g id="edge92" class="edge"><title>45&#45;&gt;39</title>
<path fill="none" stroke="black" d="M1933.94,-324.124C1951.04,-333.404 1972.36,-344.975 1990.7,-354.925"/>
<polygon fill="black" stroke="black" points="1999.7,-359.81 1988.76,-358.996 1995.31,-357.426 1990.91,-355.041 1990.91,-355.041 1990.91,-355.041 1995.31,-357.426 1993.06,-351.086 1999.7,-359.81 1999.7,-359.81"/>
</g>
<!-- 46&#45;&gt;39 -->
<g id="edge93" class="edge"><title>46&#45;&gt;39</title>
<path fill="none" stroke="black" d="M2031.38,-324.303C2031.38,-332.017 2031.38,-341.288 2031.38,-349.888"/>
<polygon fill="black" stroke="black" points="2031.38,-359.896 2026.88,-349.896 2031.38,-354.896 2031.38,-349.896 2031.38,-349.896 2031.38,-349.896 2031.38,-354.896 2035.88,-349.896 2031.38,-359.896 2031.38,-359.896"/>
</g>
<!-- 47&#45;&gt;39 -->
<g id="edge94" class="edge"><title>47&#45;&gt;39</title>
<path fill="none" stroke="black" d="M2174.14,-324.124C2147.75,-333.9 2114.49,-346.219 2086.71,-356.506"/>
<polygon fill="black" stroke="black" points="2077.14,-360.053 2084.95,-352.36 2081.82,-358.316 2086.51,-356.58 2086.51,-356.58 2086.51,-356.58 2081.82,-358.316 2088.08,-360.8 2077.14,-360.053 2077.14,-360.053"/>
</g>
<!-- 48&#45;&gt;29 -->
<g id="edge95" class="edge"><title>48&#45;&gt;29</title>
<path fill="none" stroke="black" d="M745.119,-388.291C763.841,-390.935 784.424,-393.714 803.378,-396 964.154,-415.387 1153.17,-433.226 1255.13,-442.442"/>
<polygon fill="black" stroke="black" points="1265.32,-443.361 1254.96,-446.945 1260.34,-442.912 1255.36,-442.463 1255.36,-442.463 1255.36,-442.463 1260.34,-442.912 1255.77,-437.981 1265.32,-443.361 1265.32,-443.361"/>
</g>
<!-- 49&#45;&gt;19 -->
<g id="edge96" class="edge"><title>49&#45;&gt;19</title>
<path fill="none" stroke="black" d="M3706.11,-324.175C3664.84,-358.099 3566.74,-433.407 3470.38,-468 3356.51,-508.877 3214.96,-518.94 3130.91,-521.02"/>
<polygon fill="black" stroke="black" points="3120.69,-521.241 3130.6,-516.526 3125.69,-521.133 3130.69,-521.025 3130.69,-521.025 3130.69,-521.025 3125.69,-521.133 3130.79,-525.524 3120.69,-521.241 3120.69,-521.241"/>
</g>
<!-- 50&#45;&gt;49 -->
<g id="edge97" class="edge"><title>50&#45;&gt;49</title>
<path fill="none" stroke="black" d="M3726.38,-252.303C3726.38,-260.017 3726.38,-269.288 3726.38,-277.888"/>
<polygon fill="black" stroke="black" points="3726.38,-287.896 3721.88,-277.896 3726.38,-282.896 3726.38,-277.896 3726.38,-277.896 3726.38,-277.896 3726.38,-282.896 3730.88,-277.896 3726.38,-287.896 3726.38,-287.896"/>
</g>
<!-- 51&#45;&gt;29 -->
<g id="edge98" class="edge"><title>51&#45;&gt;29</title>
<path fill="none" stroke="black" d="M1246.22,-324.311C1246.81,-343.214 1250,-373.757 1263.38,-396 1270.38,-407.641 1280.93,-417.785 1291.55,-425.996"/>
<polygon fill="black" stroke="black" points="1299.63,-431.891 1288.9,-429.633 1295.59,-428.944 1291.56,-425.998 1291.56,-425.998 1291.56,-425.998 1295.59,-428.944 1294.21,-422.362 1299.63,-431.891 1299.63,-431.891"/>
</g>
<!-- 51&#45;&gt;57 -->
<g id="edge99" class="edge"><title>51&#45;&gt;57</title>
<path fill="none" stroke="black" d="M1266.4,-324.303C1276.5,-333.035 1288.91,-343.76 1299.9,-353.25"/>
<polygon fill="black" stroke="black" points="1307.59,-359.896 1297.08,-356.762 1303.8,-356.626 1300.02,-353.357 1300.02,-353.357 1300.02,-353.357 1303.8,-356.626 1302.96,-349.952 1307.59,-359.896 1307.59,-359.896"/>
</g>
<!-- 52&#45;&gt;51 -->
<g id="edge100" class="edge"><title>52&#45;&gt;51</title>
<path fill="none" stroke="black" d="M1558.29,-250.271C1555.28,-250.872 1552.3,-251.452 1549.38,-252 1444.66,-271.64 1416.77,-266.685 1312.38,-288 1310.66,-288.35 1308.93,-288.716 1307.18,-289.095"/>
<polygon fill="black" stroke="black" points="1297.06,-291.392 1305.82,-284.789 1301.94,-290.285 1306.82,-289.178 1306.82,-289.178 1306.82,-289.178 1301.94,-290.285 1307.81,-293.566 1297.06,-291.392 1297.06,-291.392"/>
</g>
<!-- 52&#45;&gt;57 -->
<g id="edge101" class="edge"><title>52&#45;&gt;57</title>
<path fill="none" stroke="black" d="M1558.28,-250.183C1555.27,-250.808 1552.3,-251.417 1549.38,-252 1459.1,-270.053 1411.28,-223.713 1345.38,-288 1329.12,-303.862 1325.46,-330.066 1325.37,-349.944"/>
<polygon fill="black" stroke="black" points="1325.61,-359.952 1320.87,-350.065 1325.49,-354.953 1325.37,-349.955 1325.37,-349.955 1325.37,-349.955 1325.49,-354.953 1329.87,-349.845 1325.61,-359.952 1325.61,-359.952"/>
</g>
<!-- 53&#45;&gt;51 -->
<g id="edge102" class="edge"><title>53&#45;&gt;51</title>
<path fill="none" stroke="black" d="M1307.36,-252.303C1297.25,-261.035 1284.84,-271.76 1273.86,-281.25"/>
<polygon fill="black" stroke="black" points="1266.17,-287.896 1270.79,-277.952 1269.95,-284.626 1273.74,-281.357 1273.74,-281.357 1273.74,-281.357 1269.95,-284.626 1276.68,-284.762 1266.17,-287.896 1266.17,-287.896"/>
</g>
<!-- 54&#45;&gt;51 -->
<g id="edge103" class="edge"><title>54&#45;&gt;51</title>
<path fill="none" stroke="black" d="M1418.89,-252.034C1384.92,-262.466 1341.43,-275.819 1306.61,-286.507"/>
<polygon fill="black" stroke="black" points="1297.04,-289.447 1305.28,-282.21 1301.82,-287.979 1306.6,-286.512 1306.6,-286.512 1306.6,-286.512 1301.82,-287.979 1307.92,-290.814 1297.04,-289.447 1297.04,-289.447"/>
</g>
<!-- 55&#45;&gt;51 -->
<g id="edge104" class="edge"><title>55&#45;&gt;51</title>
<path fill="none" stroke="black" d="M1039.81,-252.034C1084.33,-263.448 1142.48,-278.359 1185.74,-289.45"/>
<polygon fill="black" stroke="black" points="1195.56,-291.969 1184.75,-293.845 1190.72,-290.728 1185.87,-289.486 1185.87,-289.486 1185.87,-289.486 1190.72,-290.728 1186.99,-285.127 1195.56,-291.969 1195.56,-291.969"/>
</g>
<!-- 56&#45;&gt;51 -->
<g id="edge105" class="edge"><title>56&#45;&gt;51</title>
<path fill="none" stroke="black" d="M1161.78,-252.124C1176.29,-261.192 1194.29,-272.448 1209.96,-282.241"/>
<polygon fill="black" stroke="black" points="1218.87,-287.81 1208.01,-286.326 1214.63,-285.16 1210.39,-282.51 1210.39,-282.51 1210.39,-282.51 1214.63,-285.16 1212.78,-278.694 1218.87,-287.81 1218.87,-287.81"/>
</g>
<!-- 58 -->
<g id="node59" class="node"><title>58</title>
<polygon fill="none" stroke="black" points="5726.38,-180 5596.38,-180 5596.38,-144 5726.38,-144 5726.38,-180"/>
<text text-anchor="middle" x="5661.38" y="-158.3" font-family="Times,serif" font-size="14.00">PoliciesMultiPlayers</text>
</g>
<!-- 59 -->
<g id="node60" class="node"><title>59</title>
<polygon fill="none" stroke="black" points="5964.88,-252 5783.88,-252 5783.88,-216 5964.88,-216 5964.88,-252"/>
<text text-anchor="middle" x="5874.38" y="-230.3" font-family="Times,serif" font-size="14.00">PoliciesMultiPlayers.ALOHA</text>
</g>
<!-- 58&#45;&gt;59 -->
<g id="edge106" class="edge"><title>58&#45;&gt;59</title>
<path fill="none" stroke="black" d="M5713.21,-180.034C5743.23,-189.9 5781.2,-202.378 5812.75,-212.745"/>
<polygon fill="black" stroke="black" points="5822.31,-215.889 5811.41,-217.042 5817.56,-214.328 5812.81,-212.767 5812.81,-212.767 5812.81,-212.767 5817.56,-214.328 5814.22,-208.492 5822.31,-215.889 5822.31,-215.889"/>
</g>
<!-- 62 -->
<g id="node63" class="node"><title>62</title>
<polygon fill="none" stroke="black" points="6660.88,-252 6421.88,-252 6421.88,-216 6660.88,-216 6660.88,-252"/>
<text text-anchor="middle" x="6541.38" y="-230.3" font-family="Times,serif" font-size="14.00">PoliciesMultiPlayers.CentralizedCycling</text>
</g>
<!-- 58&#45;&gt;62 -->
<g id="edge107" class="edge"><title>58&#45;&gt;62</title>
<path fill="none" stroke="black" d="M5726.63,-166.241C5855.56,-172.941 6152.3,-189.83 6411.84,-215.877"/>
<polygon fill="black" stroke="black" points="6421.83,-216.886 6411.43,-220.358 6416.86,-216.384 6411.88,-215.881 6411.88,-215.881 6411.88,-215.881 6416.86,-216.384 6412.33,-211.404 6421.83,-216.886 6421.83,-216.886"/>
</g>
<!-- 63 -->
<g id="node64" class="node"><title>63</title>
<polygon fill="none" stroke="black" points="6905.88,-252 6678.88,-252 6678.88,-216 6905.88,-216 6905.88,-252"/>
<text text-anchor="middle" x="6792.38" y="-230.3" font-family="Times,serif" font-size="14.00">PoliciesMultiPlayers.CentralizedFixed</text>
</g>
<!-- 58&#45;&gt;63 -->
<g id="edge108" class="edge"><title>58&#45;&gt;63</title>
<path fill="none" stroke="black" d="M5726.45,-164.48C5885.55,-168.515 6307.12,-181.725 6668.63,-215.878"/>
<polygon fill="black" stroke="black" points="6678.77,-216.843 6668.39,-220.376 6673.79,-216.37 6668.82,-215.896 6668.82,-215.896 6668.82,-215.896 6673.79,-216.37 6669.24,-211.416 6678.77,-216.843 6678.77,-216.843"/>
</g>
<!-- 64 -->
<g id="node65" class="node"><title>64</title>
<polygon fill="none" stroke="black" points="4943.88,-252 4676.88,-252 4676.88,-216 4943.88,-216 4943.88,-252"/>
<text text-anchor="middle" x="4810.38" y="-230.3" font-family="Times,serif" font-size="14.00">PoliciesMultiPlayers.CentralizedMultiplePlay</text>
</g>
<!-- 58&#45;&gt;64 -->
<g id="edge109" class="edge"><title>58&#45;&gt;64</title>
<path fill="none" stroke="black" d="M5595.9,-166.944C5472.58,-174.582 5197.21,-192.631 4954.04,-215.962"/>
<polygon fill="black" stroke="black" points="4943.95,-216.935 4953.47,-211.496 4948.92,-216.455 4953.9,-215.975 4953.9,-215.975 4953.9,-215.975 4948.92,-216.455 4954.33,-220.454 4943.95,-216.935 4943.95,-216.935"/>
</g>
<!-- 67 -->
<g id="node68" class="node"><title>67</title>
<polygon fill="none" stroke="black" points="6173.88,-252 5982.88,-252 5982.88,-216 6173.88,-216 6173.88,-252"/>
<text text-anchor="middle" x="6078.38" y="-230.3" font-family="Times,serif" font-size="14.00">PoliciesMultiPlayers.OracleFair</text>
</g>
<!-- 58&#45;&gt;67 -->
<g id="edge110" class="edge"><title>58&#45;&gt;67</title>
<path fill="none" stroke="black" d="M5726.53,-173.938C5792.3,-184.977 5894.95,-202.208 5972.43,-215.215"/>
<polygon fill="black" stroke="black" points="5982.71,-216.941 5972.1,-219.723 5977.78,-216.113 5972.85,-215.285 5972.85,-215.285 5972.85,-215.285 5977.78,-216.113 5973.59,-210.847 5982.71,-216.941 5982.71,-216.941"/>
</g>
<!-- 68 -->
<g id="node69" class="node"><title>68</title>
<polygon fill="none" stroke="black" points="6404.38,-252 6192.38,-252 6192.38,-216 6404.38,-216 6404.38,-252"/>
<text text-anchor="middle" x="6298.38" y="-230.3" font-family="Times,serif" font-size="14.00">PoliciesMultiPlayers.OracleNotFair</text>
</g>
<!-- 58&#45;&gt;68 -->
<g id="edge111" class="edge"><title>58&#45;&gt;68</title>
<path fill="none" stroke="black" d="M5726.59,-168.659C5823.57,-177.288 6011.78,-194.852 6182.04,-215.864"/>
<polygon fill="black" stroke="black" points="6192.2,-217.124 6181.72,-220.358 6187.23,-216.508 6182.27,-215.892 6182.27,-215.892 6182.27,-215.892 6187.23,-216.508 6182.83,-211.426 6192.2,-217.124 6192.2,-217.124"/>
</g>
<!-- 69 -->
<g id="node70" class="node"><title>69</title>
<polygon fill="none" stroke="black" points="5150.38,-252 4962.38,-252 4962.38,-216 5150.38,-216 5150.38,-252"/>
<text text-anchor="middle" x="5056.38" y="-230.3" font-family="Times,serif" font-size="14.00">PoliciesMultiPlayers.Scenario1</text>
</g>
<!-- 58&#45;&gt;69 -->
<g id="edge112" class="edge"><title>58&#45;&gt;69</title>
<path fill="none" stroke="black" d="M5595.99,-168.727C5500.2,-177.385 5316.19,-195.041 5160.38,-216 5160.28,-216.014 5160.17,-216.027 5160.07,-216.041"/>
<polygon fill="black" stroke="black" points="5150.45,-217.379 5159.73,-211.545 5155.4,-216.691 5160.35,-216.002 5160.35,-216.002 5160.35,-216.002 5155.4,-216.691 5160.97,-220.46 5150.45,-217.379 5150.45,-217.379"/>
</g>
<!-- 70 -->
<g id="node71" class="node"><title>70</title>
<polygon fill="none" stroke="black" points="5339.88,-252 5168.88,-252 5168.88,-216 5339.88,-216 5339.88,-252"/>
<text text-anchor="middle" x="5254.38" y="-230.3" font-family="Times,serif" font-size="14.00">PoliciesMultiPlayers.Selfish</text>
</g>
<!-- 58&#45;&gt;70 -->
<g id="edge113" class="edge"><title>58&#45;&gt;70</title>
<path fill="none" stroke="black" d="M5596.21,-173.898C5535.3,-184.125 5441.5,-199.97 5350.06,-215.889"/>
<polygon fill="black" stroke="black" points="5340.08,-217.629 5349.16,-211.478 5345,-216.77 5349.93,-215.912 5349.93,-215.912 5349.93,-215.912 5345,-216.77 5350.7,-220.345 5340.08,-217.629 5340.08,-217.629"/>
</g>
<!-- 72 -->
<g id="node73" class="node"><title>72</title>
<polygon fill="none" stroke="black" points="5538.38,-252 5358.38,-252 5358.38,-216 5538.38,-216 5538.38,-252"/>
<text text-anchor="middle" x="5448.38" y="-230.3" font-family="Times,serif" font-size="14.00">PoliciesMultiPlayers.rhoRand</text>
</g>
<!-- 58&#45;&gt;72 -->
<g id="edge114" class="edge"><title>58&#45;&gt;72</title>
<path fill="none" stroke="black" d="M5609.55,-180.034C5579.53,-189.9 5541.56,-202.378 5510.01,-212.745"/>
<polygon fill="black" stroke="black" points="5500.44,-215.889 5508.54,-208.492 5505.19,-214.328 5509.94,-212.767 5509.94,-212.767 5509.94,-212.767 5505.19,-214.328 5511.35,-217.042 5500.44,-215.889 5500.44,-215.889"/>
</g>
<!-- 73 -->
<g id="node74" class="node"><title>73</title>
<polygon fill="none" stroke="black" points="5765.88,-252 5556.88,-252 5556.88,-216 5765.88,-216 5765.88,-252"/>
<text text-anchor="middle" x="5661.38" y="-230.3" font-family="Times,serif" font-size="14.00">PoliciesMultiPlayers.rhoRandRand</text>
</g>
<!-- 58&#45;&gt;73 -->
<g id="edge115" class="edge"><title>58&#45;&gt;73</title>
<path fill="none" stroke="black" d="M5661.38,-180.303C5661.38,-188.017 5661.38,-197.288 5661.38,-205.888"/>
<polygon fill="black" stroke="black" points="5661.38,-215.896 5656.88,-205.896 5661.38,-210.896 5661.38,-205.896 5661.38,-205.896 5661.38,-205.896 5661.38,-210.896 5665.88,-205.896 5661.38,-215.896 5661.38,-215.896"/>
</g>
<!-- 61 -->
<g id="node62" class="node"><title>61</title>
<polygon fill="none" stroke="black" points="5988.88,-324 5773.88,-324 5773.88,-288 5988.88,-288 5988.88,-324"/>
<text text-anchor="middle" x="5881.38" y="-302.3" font-family="Times,serif" font-size="14.00">PoliciesMultiPlayers.BaseMPPolicy</text>
</g>
<!-- 59&#45;&gt;61 -->
<g id="edge116" class="edge"><title>59&#45;&gt;61</title>
<path fill="none" stroke="black" d="M5876.11,-252.303C5876.88,-260.017 5877.81,-269.288 5878.67,-277.888"/>
<polygon fill="black" stroke="black" points="5879.67,-287.896 5874.2,-278.393 5879.17,-282.92 5878.67,-277.945 5878.67,-277.945 5878.67,-277.945 5879.17,-282.92 5883.15,-277.497 5879.67,-287.896 5879.67,-287.896"/>
</g>
<!-- 65 -->
<g id="node66" class="node"><title>65</title>
<polygon fill="none" stroke="black" points="5755.88,-324 5552.88,-324 5552.88,-288 5755.88,-288 5755.88,-324"/>
<text text-anchor="middle" x="5654.38" y="-302.3" font-family="Times,serif" font-size="14.00">PoliciesMultiPlayers.ChildPointer</text>
</g>
<!-- 59&#45;&gt;65 -->
<g id="edge117" class="edge"><title>59&#45;&gt;65</title>
<path fill="none" stroke="black" d="M5820.84,-252.034C5789.84,-261.9 5750.62,-274.378 5718.04,-284.745"/>
<polygon fill="black" stroke="black" points="5708.16,-287.889 5716.32,-280.569 5712.92,-286.373 5717.68,-284.857 5717.68,-284.857 5717.68,-284.857 5712.92,-286.373 5719.05,-289.145 5708.16,-287.889 5708.16,-287.889"/>
</g>
<!-- 60 -->
<g id="node61" class="node"><title>60</title>
<polygon fill="none" stroke="black" points="6547.88,-324 6290.88,-324 6290.88,-288 6547.88,-288 6547.88,-324"/>
<text text-anchor="middle" x="6419.38" y="-302.3" font-family="Times,serif" font-size="14.00">PoliciesMultiPlayers.BaseCentralizedPolicy</text>
</g>
<!-- 62&#45;&gt;60 -->
<g id="edge118" class="edge"><title>62&#45;&gt;60</title>
<path fill="none" stroke="black" d="M6511.53,-252.124C6495.43,-261.361 6475.38,-272.869 6458.09,-282.788"/>
<polygon fill="black" stroke="black" points="6449.34,-287.81 6455.77,-278.93 6453.67,-285.322 6458.01,-282.834 6458.01,-282.834 6458.01,-282.834 6453.67,-285.322 6460.25,-286.737 6449.34,-287.81 6449.34,-287.81"/>
</g>
<!-- 62&#45;&gt;61 -->
<g id="edge119" class="edge"><title>62&#45;&gt;61</title>
<path fill="none" stroke="black" d="M6421.82,-251.005C6418.98,-251.344 6416.16,-251.677 6413.38,-252 6271.14,-268.526 6107.13,-284.382 5999.25,-294.373"/>
<polygon fill="black" stroke="black" points="5988.99,-295.322 5998.53,-289.92 5993.97,-294.861 5998.95,-294.401 5998.95,-294.401 5998.95,-294.401 5993.97,-294.861 5999.36,-298.882 5988.99,-295.322 5988.99,-295.322"/>
</g>
<!-- 62&#45;&gt;65 -->
<g id="edge120" class="edge"><title>62&#45;&gt;65</title>
<path fill="none" stroke="black" d="M6421.84,-251.17C6418.99,-251.46 6416.17,-251.738 6413.38,-252 6129.57,-278.691 6054.03,-258.614 5766.28,-287.977"/>
<polygon fill="black" stroke="black" points="5755.95,-289.043 5765.44,-283.54 5760.92,-288.529 5765.9,-288.016 5765.9,-288.016 5765.9,-288.016 5760.92,-288.529 5766.36,-292.492 5755.95,-289.043 5755.95,-289.043"/>
</g>
<!-- 63&#45;&gt;60 -->
<g id="edge121" class="edge"><title>63&#45;&gt;60</title>
<path fill="none" stroke="black" d="M6701.61,-252.034C6646.79,-262.323 6576.82,-275.453 6520.27,-286.067"/>
<polygon fill="black" stroke="black" points="6510.23,-287.95 6519.23,-281.683 6515.14,-287.028 6520.06,-286.105 6520.06,-286.105 6520.06,-286.105 6515.14,-287.028 6520.89,-290.528 6510.23,-287.95 6510.23,-287.95"/>
</g>
<!-- 63&#45;&gt;61 -->
<g id="edge122" class="edge"><title>63&#45;&gt;61</title>
<path fill="none" stroke="black" d="M6678.77,-251.102C6675.94,-251.415 6673.14,-251.715 6670.38,-252 6432.92,-276.488 6154.04,-292.161 5999.55,-299.697"/>
<polygon fill="black" stroke="black" points="5989.1,-300.204 5998.87,-295.225 5994.1,-299.962 5999.09,-299.719 5999.09,-299.719 5999.09,-299.719 5994.1,-299.962 5999.31,-304.214 5989.1,-300.204 5989.1,-300.204"/>
</g>
<!-- 63&#45;&gt;65 -->
<g id="edge123" class="edge"><title>63&#45;&gt;65</title>
<path fill="none" stroke="black" d="M6678.78,-251.204C6675.95,-251.487 6673.15,-251.753 6670.38,-252 6272.76,-287.524 6167.81,-250.101 5766.09,-288.01"/>
<polygon fill="black" stroke="black" points="5755.94,-288.978 5765.47,-283.549 5760.92,-288.504 5765.9,-288.029 5765.9,-288.029 5765.9,-288.029 5760.92,-288.504 5766.33,-292.509 5755.94,-288.978 5755.94,-288.978"/>
</g>
<!-- 64&#45;&gt;61 -->
<g id="edge124" class="edge"><title>64&#45;&gt;61</title>
<path fill="none" stroke="black" d="M4943.93,-251.193C4947.11,-251.477 4950.26,-251.746 4953.38,-252 5310.09,-281.07 5404.02,-254.272 5763.51,-287.878"/>
<polygon fill="black" stroke="black" points="5773.68,-288.838 5763.3,-292.378 5768.7,-288.368 5763.72,-287.898 5763.72,-287.898 5763.72,-287.898 5768.7,-288.368 5764.14,-283.418 5773.68,-288.838 5773.68,-288.838"/>
</g>
<!-- 64&#45;&gt;65 -->
<g id="edge125" class="edge"><title>64&#45;&gt;65</title>
<path fill="none" stroke="black" d="M4943.95,-251.062C4947.12,-251.384 4950.27,-251.698 4953.38,-252 5161.07,-272.187 5404.01,-289.05 5542.49,-298.024"/>
<polygon fill="black" stroke="black" points="5552.68,-298.683 5542.41,-302.529 5547.69,-298.361 5542.7,-298.038 5542.7,-298.038 5542.7,-298.038 5547.69,-298.361 5542.99,-293.548 5552.68,-298.683 5552.68,-298.683"/>
</g>
<!-- 66 -->
<g id="node67" class="node"><title>66</title>
<polygon fill="none" stroke="black" points="4345.88,-36 4180.88,-36 4180.88,-0 4345.88,-0 4345.88,-36"/>
<text text-anchor="middle" x="4263.38" y="-14.3" font-family="Times,serif" font-size="14.00">PoliciesMultiPlayers.DMC</text>
</g>
<!-- 67&#45;&gt;60 -->
<g id="edge126" class="edge"><title>67&#45;&gt;60</title>
<path fill="none" stroke="black" d="M6161.36,-252.034C6211.27,-262.28 6274.92,-275.345 6326.5,-285.935"/>
<polygon fill="black" stroke="black" points="6336.32,-287.95 6325.62,-290.347 6331.42,-286.944 6326.52,-285.939 6326.52,-285.939 6326.52,-285.939 6331.42,-286.944 6327.43,-281.531 6336.32,-287.95 6336.32,-287.95"/>
</g>
<!-- 67&#45;&gt;61 -->
<g id="edge127" class="edge"><title>67&#45;&gt;61</title>
<path fill="none" stroke="black" d="M6030.44,-252.034C6002.91,-261.815 5968.16,-274.164 5939.14,-284.476"/>
<polygon fill="black" stroke="black" points="5929.53,-287.889 5937.45,-280.301 5934.24,-286.215 5938.96,-284.541 5938.96,-284.541 5938.96,-284.541 5934.24,-286.215 5940.46,-288.781 5929.53,-287.889 5929.53,-287.889"/>
</g>
<!-- 67&#45;&gt;65 -->
<g id="edge128" class="edge"><title>67&#45;&gt;65</title>
<path fill="none" stroke="black" d="M5982.7,-250.797C5918.46,-261.402 5833.59,-275.414 5766.23,-286.534"/>
<polygon fill="black" stroke="black" points="5756,-288.223 5765.13,-282.154 5760.93,-287.409 5765.86,-286.594 5765.86,-286.594 5765.86,-286.594 5760.93,-287.409 5766.6,-291.034 5756,-288.223 5756,-288.223"/>
</g>
<!-- 68&#45;&gt;60 -->
<g id="edge129" class="edge"><title>68&#45;&gt;60</title>
<path fill="none" stroke="black" d="M6327.98,-252.124C6343.95,-261.361 6363.84,-272.869 6380.98,-282.788"/>
<polygon fill="black" stroke="black" points="6389.66,-287.81 6378.76,-286.698 6385.34,-285.306 6381.01,-282.803 6381.01,-282.803 6381.01,-282.803 6385.34,-285.306 6383.26,-278.907 6389.66,-287.81 6389.66,-287.81"/>
</g>
<!-- 68&#45;&gt;61 -->
<g id="edge130" class="edge"><title>68&#45;&gt;61</title>
<path fill="none" stroke="black" d="M6196.9,-252.034C6135.23,-262.387 6056.42,-275.617 5992.99,-286.264"/>
<polygon fill="black" stroke="black" points="5982.95,-287.95 5992.06,-281.856 5987.88,-287.122 5992.81,-286.294 5992.81,-286.294 5992.81,-286.294 5987.88,-287.122 5993.55,-290.732 5982.95,-287.95 5982.95,-287.95"/>
</g>
<!-- 68&#45;&gt;65 -->
<g id="edge131" class="edge"><title>68&#45;&gt;65</title>
<path fill="none" stroke="black" d="M6192.2,-250.936C6189.23,-251.305 6186.29,-251.66 6183.38,-252 6001.43,-273.264 5952.24,-266.138 5766.09,-287.967"/>
<polygon fill="black" stroke="black" points="5755.97,-289.167 5765.37,-283.521 5760.93,-288.578 5765.9,-287.99 5765.9,-287.99 5765.9,-287.99 5760.93,-288.578 5766.43,-292.459 5755.97,-289.167 5755.97,-289.167"/>
</g>
<!-- 69&#45;&gt;61 -->
<g id="edge132" class="edge"><title>69&#45;&gt;61</title>
<path fill="none" stroke="black" d="M5150.42,-250.816C5153.78,-251.239 5157.11,-251.636 5160.38,-252 5424.83,-281.403 5495.7,-260.958 5763.65,-287.874"/>
<polygon fill="black" stroke="black" points="5773.67,-288.894 5763.27,-292.358 5768.7,-288.387 5763.72,-287.881 5763.72,-287.881 5763.72,-287.881 5768.7,-288.387 5764.18,-283.405 5773.67,-288.894 5773.67,-288.894"/>
</g>
<!-- 69&#45;&gt;65 -->
<g id="edge133" class="edge"><title>69&#45;&gt;65</title>
<path fill="none" stroke="black" d="M5150.45,-250.615C5153.8,-251.095 5157.11,-251.559 5160.38,-252 5291.16,-269.69 5442.06,-285.166 5542.33,-294.755"/>
<polygon fill="black" stroke="black" points="5552.47,-295.722 5542.09,-299.253 5547.5,-295.248 5542.52,-294.774 5542.52,-294.774 5542.52,-294.774 5547.5,-295.248 5542.95,-290.294 5552.47,-295.722 5552.47,-295.722"/>
</g>
<!-- 70&#45;&gt;61 -->
<g id="edge134" class="edge"><title>70&#45;&gt;61</title>
<path fill="none" stroke="black" d="M5340.03,-250.695C5343.18,-251.156 5346.31,-251.593 5349.38,-252 5530.12,-275.942 5579.33,-266.871 5763.63,-287.838"/>
<polygon fill="black" stroke="black" points="5773.66,-288.992 5763.21,-292.318 5768.69,-288.42 5763.73,-287.848 5763.73,-287.848 5763.73,-287.848 5768.69,-288.42 5764.24,-283.378 5773.66,-288.992 5773.66,-288.992"/>
</g>
<!-- 70&#45;&gt;65 -->
<g id="edge135" class="edge"><title>70&#45;&gt;65</title>
<path fill="none" stroke="black" d="M5340.08,-250.356C5343.22,-250.912 5346.33,-251.462 5349.38,-252 5414.55,-263.493 5487.58,-276.191 5545.84,-286.276"/>
<polygon fill="black" stroke="black" points="5555.8,-287.999 5545.18,-290.728 5550.87,-287.147 5545.95,-286.294 5545.95,-286.294 5545.95,-286.294 5550.87,-287.147 5546.72,-281.86 5555.8,-287.999 5555.8,-287.999"/>
</g>
<!-- 71 -->
<g id="node72" class="node"><title>71</title>
<polygon fill="none" stroke="black" points="4530.88,-36 4363.88,-36 4363.88,-0 4530.88,-0 4530.88,-36"/>
<text text-anchor="middle" x="4447.38" y="-14.3" font-family="Times,serif" font-size="14.00">PoliciesMultiPlayers.TDFS</text>
</g>
<!-- 72&#45;&gt;61 -->
<g id="edge136" class="edge"><title>72&#45;&gt;61</title>
<path fill="none" stroke="black" d="M5538.59,-250.38C5541.89,-250.93 5545.16,-251.471 5548.38,-252 5619.79,-263.753 5699.9,-276.516 5763.64,-286.572"/>
<polygon fill="black" stroke="black" points="5773.73,-288.162 5763.15,-291.049 5768.79,-287.383 5763.85,-286.604 5763.85,-286.604 5763.85,-286.604 5768.79,-287.383 5764.55,-282.159 5773.73,-288.162 5773.73,-288.162"/>
</g>
<!-- 72&#45;&gt;65 -->
<g id="edge137" class="edge"><title>72&#45;&gt;65</title>
<path fill="none" stroke="black" d="M5498.51,-252.034C5527.42,-261.858 5563.95,-274.271 5594.38,-284.611"/>
<polygon fill="black" stroke="black" points="5604.02,-287.889 5593.11,-288.932 5599.29,-286.28 5594.56,-284.672 5594.56,-284.672 5594.56,-284.672 5599.29,-286.28 5596,-280.411 5604.02,-287.889 5604.02,-287.889"/>
</g>
<!-- 73&#45;&gt;61 -->
<g id="edge138" class="edge"><title>73&#45;&gt;61</title>
<path fill="none" stroke="black" d="M5714.92,-252.034C5745.92,-261.9 5785.14,-274.378 5817.72,-284.745"/>
<polygon fill="black" stroke="black" points="5827.6,-287.889 5816.71,-289.145 5822.84,-286.373 5818.07,-284.857 5818.07,-284.857 5818.07,-284.857 5822.84,-286.373 5819.44,-280.569 5827.6,-287.889 5827.6,-287.889"/>
</g>
<!-- 73&#45;&gt;65 -->
<g id="edge139" class="edge"><title>73&#45;&gt;65</title>
<path fill="none" stroke="black" d="M5659.65,-252.303C5658.88,-260.017 5657.95,-269.288 5657.09,-277.888"/>
<polygon fill="black" stroke="black" points="5656.09,-287.896 5652.61,-277.497 5656.59,-282.92 5657.08,-277.945 5657.08,-277.945 5657.08,-277.945 5656.59,-282.92 5661.56,-278.393 5656.09,-287.896 5656.09,-287.896"/>
</g>
<!-- 74 -->
<g id="node75" class="node"><title>74</title>
<polygon fill="none" stroke="black" points="4603.38,-36 4549.38,-36 4549.38,-0 4603.38,-0 4603.38,-36"/>
<text text-anchor="middle" x="4576.38" y="-14.3" font-family="Times,serif" font-size="14.00">conf</text>
</g>
<!-- 75 -->
<g id="node76" class="node"><title>75</title>
<polygon fill="none" stroke="black" points="399.878,-108 310.878,-108 310.878,-72 399.878,-72 399.878,-108"/>
<text text-anchor="middle" x="355.378" y="-86.3" font-family="Times,serif" font-size="14.00">configuration</text>
</g>
<!-- 75&#45;&gt;0 -->
<g id="edge140" class="edge"><title>75&#45;&gt;0</title>
<path fill="none" stroke="black" d="M371.446,-108.303C379.317,-116.78 388.934,-127.136 397.552,-136.417"/>
<polygon fill="black" stroke="black" points="404.496,-143.896 394.394,-139.63 401.093,-140.232 397.691,-136.568 397.691,-136.568 397.691,-136.568 401.093,-140.232 400.989,-133.506 404.496,-143.896 404.496,-143.896"/>
</g>
<!-- 75&#45;&gt;2 -->
<g id="edge141" class="edge"><title>75&#45;&gt;2</title>
<path fill="none" stroke="black" d="M321.121,-108.129C269.414,-133.982 171.468,-182.955 114.819,-211.28"/>
<polygon fill="black" stroke="black" points="105.757,-215.811 112.689,-207.314 110.229,-213.575 114.701,-211.339 114.701,-211.339 114.701,-211.339 110.229,-213.575 116.714,-215.363 105.757,-215.811 105.757,-215.811"/>
</g>
<!-- 75&#45;&gt;3 -->
<g id="edge142" class="edge"><title>75&#45;&gt;3</title>
<path fill="none" stroke="black" d="M394.401,-108.058C413.849,-117.392 437.238,-129.917 456.378,-144 481.944,-162.81 507.149,-188.926 524.174,-208.002"/>
<polygon fill="black" stroke="black" points="530.946,-215.705 520.964,-211.166 527.645,-211.95 524.343,-208.195 524.343,-208.195 524.343,-208.195 527.645,-211.95 527.723,-205.224 530.946,-215.705 530.946,-215.705"/>
</g>
<!-- 75&#45;&gt;4 -->
<g id="edge143" class="edge"><title>75&#45;&gt;4</title>
<path fill="none" stroke="black" d="M335.596,-108.129C306.537,-133.289 252.189,-180.346 219.145,-208.958"/>
<polygon fill="black" stroke="black" points="211.231,-215.811 215.845,-205.863 215.011,-212.538 218.791,-209.265 218.791,-209.265 218.791,-209.265 215.011,-212.538 221.736,-212.667 211.231,-215.811 211.231,-215.811"/>
</g>
<!-- 75&#45;&gt;5 -->
<g id="edge144" class="edge"><title>75&#45;&gt;5</title>
<path fill="none" stroke="black" d="M349.468,-108.129C341.08,-132.436 325.64,-177.181 315.7,-205.987"/>
<polygon fill="black" stroke="black" points="312.31,-215.811 311.318,-204.89 313.941,-211.084 315.572,-206.358 315.572,-206.358 315.572,-206.358 313.941,-211.084 319.826,-207.826 312.31,-215.811 312.31,-215.811"/>
</g>
<!-- 75&#45;&gt;16 -->
<g id="edge145" class="edge"><title>75&#45;&gt;16</title>
<path fill="none" stroke="black" d="M400.269,-92.7654C649.458,-102.565 1859.93,-150.168 2095.58,-159.435"/>
<polygon fill="black" stroke="black" points="2105.74,-159.835 2095.57,-163.938 2100.75,-159.638 2095.75,-159.442 2095.75,-159.442 2095.75,-159.442 2100.75,-159.638 2095.93,-154.945 2105.74,-159.835 2105.74,-159.835"/>
</g>
<!-- 75&#45;&gt;57 -->
<g id="edge146" class="edge"><title>75&#45;&gt;57</title>
<path fill="none" stroke="black" d="M310.603,-93.797C203.027,-102.417 -56.2219,-135.513 11.3784,-252 43.7517,-307.785 75.4248,-306.062 137.378,-324 144.19,-325.972 1013.96,-363.517 1262.03,-374.191"/>
<polygon fill="black" stroke="black" points="1272.33,-374.634 1262.14,-378.7 1267.33,-374.419 1262.34,-374.205 1262.34,-374.205 1262.34,-374.205 1267.33,-374.419 1262.53,-369.709 1272.33,-374.634 1272.33,-374.634"/>
</g>
<!-- 76 -->
<g id="node77" class="node"><title>76</title>
<polygon fill="none" stroke="black" points="1811.38,-108 1647.38,-108 1647.38,-72 1811.38,-72 1811.38,-108"/>
<text text-anchor="middle" x="1729.38" y="-86.3" font-family="Times,serif" font-size="14.00">configuration_multiplayers</text>
</g>
<!-- 76&#45;&gt;0 -->
<g id="edge147" class="edge"><title>76&#45;&gt;0</title>
<path fill="none" stroke="black" d="M1647.05,-91.8301C1405.82,-94.6828 703.474,-106.102 477.378,-144 470.895,-145.087 464.112,-146.684 457.579,-148.471"/>
<polygon fill="black" stroke="black" points="447.597,-151.389 455.933,-144.264 452.396,-149.986 457.195,-148.583 457.195,-148.583 457.195,-148.583 452.396,-149.986 458.458,-152.902 447.597,-151.389 447.597,-151.389"/>
</g>
<!-- 76&#45;&gt;2 -->
<g id="edge148" class="edge"><title>76&#45;&gt;2</title>
<path fill="none" stroke="black" d="M1647.36,-91.1255C1389.03,-91.9935 594.426,-98.3999 341.378,-144 330.723,-145.92 207.792,-187.033 131.528,-212.701"/>
<polygon fill="black" stroke="black" points="122.011,-215.905 130.052,-208.449 126.75,-214.309 131.488,-212.714 131.488,-212.714 131.488,-212.714 126.75,-214.309 132.924,-216.979 122.011,-215.905 122.011,-215.905"/>
</g>
<!-- 76&#45;&gt;3 -->
<g id="edge149" class="edge"><title>76&#45;&gt;3</title>
<path fill="none" stroke="black" d="M1647.29,-96.8384C1462.41,-110.726 999.716,-149.62 617.378,-216 616.097,-216.222 614.805,-216.454 613.504,-216.693"/>
<polygon fill="black" stroke="black" points="603.414,-218.666 612.365,-212.331 608.321,-217.707 613.228,-216.747 613.228,-216.747 613.228,-216.747 608.321,-217.707 614.092,-221.163 603.414,-218.666 603.414,-218.666"/>
</g>
<!-- 76&#45;&gt;4 -->
<g id="edge150" class="edge"><title>76&#45;&gt;4</title>
<path fill="none" stroke="black" d="M1646.91,-91.1605C1372.62,-92.12 501.703,-98.7364 384.378,-144 361.124,-152.971 363.029,-167.652 341.378,-180 325.534,-189.037 286.109,-202.857 251.654,-214.119"/>
<polygon fill="black" stroke="black" points="242.092,-217.222 250.215,-209.855 246.848,-215.679 251.604,-214.136 251.604,-214.136 251.604,-214.136 246.848,-215.679 252.993,-218.416 242.092,-217.222 242.092,-217.222"/>
</g>
<!-- 76&#45;&gt;5 -->
<g id="edge151" class="edge"><title>76&#45;&gt;5</title>
<path fill="none" stroke="black" d="M1647.35,-93.6782C1492.44,-99.2459 1146.38,-114.117 856.378,-144 638.905,-166.41 580.617,-167.608 362.811,-216.085"/>
<polygon fill="black" stroke="black" points="352.99,-218.278 361.769,-211.707 357.87,-217.188 362.75,-216.098 362.75,-216.098 362.75,-216.098 357.87,-217.188 363.731,-220.49 352.99,-218.278 352.99,-218.278"/>
</g>
<!-- 76&#45;&gt;9 -->
<g id="edge152" class="edge"><title>76&#45;&gt;9</title>
<path fill="none" stroke="black" d="M1811.59,-91.2922C2251.11,-93.0205 4308.41,-103.266 4436.38,-144 4477.51,-157.094 4517.47,-187.604 4542.22,-209.242"/>
<polygon fill="black" stroke="black" points="4549.7,-215.922 4539.24,-212.619 4545.97,-212.592 4542.24,-209.262 4542.24,-209.262 4542.24,-209.262 4545.97,-212.592 4545.24,-205.906 4549.7,-215.922 4549.7,-215.922"/>
</g>
<!-- 76&#45;&gt;12 -->
<g id="edge153" class="edge"><title>76&#45;&gt;12</title>
<path fill="none" stroke="black" d="M1811.6,-93.3795C2170.39,-104.069 3601.55,-149.967 4071.64,-216.08"/>
<polygon fill="black" stroke="black" points="4081.55,-217.497 4071.01,-220.536 4076.6,-216.789 4071.65,-216.081 4071.65,-216.081 4071.65,-216.081 4076.6,-216.789 4072.29,-211.626 4081.55,-217.497 4081.55,-217.497"/>
</g>
<!-- 76&#45;&gt;16 -->
<g id="edge154" class="edge"><title>76&#45;&gt;16</title>
<path fill="none" stroke="black" d="M1811.54,-105.166C1897.98,-120.068 2030.37,-142.895 2095.87,-154.188"/>
<polygon fill="black" stroke="black" points="2105.79,-155.898 2095.17,-158.633 2100.86,-155.048 2095.93,-154.199 2095.93,-154.199 2095.93,-154.199 2100.86,-155.048 2096.7,-149.764 2105.79,-155.898 2105.79,-155.898"/>
</g>
<!-- 76&#45;&gt;58 -->
<g id="edge155" class="edge"><title>76&#45;&gt;58</title>
<path fill="none" stroke="black" d="M1811.5,-92.462C2325.34,-101.61 5092.17,-150.867 5585.95,-159.657"/>
<polygon fill="black" stroke="black" points="5596.16,-159.839 5586.09,-164.16 5591.17,-159.75 5586.17,-159.661 5586.17,-159.661 5586.17,-159.661 5591.17,-159.75 5586.25,-155.162 5596.16,-159.839 5596.16,-159.839"/>
</g>
<!-- 77 -->
<g id="node78" class="node"><title>77</title>
<polygon fill="none" stroke="black" points="4025.38,-36 3971.38,-36 3971.38,-0 4025.38,-0 4025.38,-36"/>
<text text-anchor="middle" x="3998.38" y="-14.3" font-family="Times,serif" font-size="14.00">main</text>
</g>
<!-- 77&#45;&gt;8 -->
<g id="edge156" class="edge"><title>77&#45;&gt;8</title>
<path fill="none" stroke="black" d="M4024.06,-36.1239C4037.67,-45.1917 4054.55,-56.4477 4069.24,-66.2408"/>
<polygon fill="black" stroke="black" points="4077.59,-71.8102 4066.78,-70.0074 4073.43,-69.0367 4069.27,-66.2632 4069.27,-66.2632 4069.27,-66.2632 4073.43,-69.0367 4071.77,-62.519 4077.59,-71.8102 4077.59,-71.8102"/>
</g>
<!-- 77&#45;&gt;10 -->
<g id="edge157" class="edge"><title>77&#45;&gt;10</title>
<path fill="none" stroke="black" d="M3998.62,-36.1285C3998.96,-60.3298 3999.59,-104.789 3999.99,-133.607"/>
<polygon fill="black" stroke="black" points="4000.14,-143.811 3995.5,-133.875 4000.07,-138.811 4000,-133.812 4000,-133.812 4000,-133.812 4000.07,-138.811 4004.49,-133.748 4000.14,-143.811 4000.14,-143.811"/>
</g>
<!-- 77&#45;&gt;75 -->
<g id="edge158" class="edge"><title>77&#45;&gt;75</title>
<path fill="none" stroke="black" d="M3971.15,-19.5232C3663.31,-25.4383 840.798,-79.6727 410.324,-87.9442"/>
<polygon fill="black" stroke="black" points="400.021,-88.1422 409.932,-83.4508 405.02,-88.0461 410.019,-87.95 410.019,-87.95 410.019,-87.95 405.02,-88.0461 410.105,-92.4492 400.021,-88.1422 400.021,-88.1422"/>
</g>
<!-- 78 -->
<g id="node79" class="node"><title>78</title>
<polygon fill="none" stroke="black" points="4162.88,-36 4043.88,-36 4043.88,-0 4162.88,-0 4162.88,-36"/>
<text text-anchor="middle" x="4103.38" y="-14.3" font-family="Times,serif" font-size="14.00">main_multiplayers</text>
</g>
<!-- 78&#45;&gt;8 -->
<g id="edge159" class="edge"><title>78&#45;&gt;8</title>
<path fill="none" stroke="black" d="M4103.38,-36.3034C4103.38,-44.0173 4103.38,-53.2875 4103.38,-61.8876"/>
<polygon fill="black" stroke="black" points="4103.38,-71.8957 4098.88,-61.8956 4103.38,-66.8957 4103.38,-61.8957 4103.38,-61.8957 4103.38,-61.8957 4103.38,-66.8957 4107.88,-61.8957 4103.38,-71.8957 4103.38,-71.8957"/>
</g>
<!-- 78&#45;&gt;11 -->
<g id="edge160" class="edge"><title>78&#45;&gt;11</title>
<path fill="none" stroke="black" d="M4129.43,-36.1285C4168.27,-61.6624 4241.42,-109.747 4284.73,-138.219"/>
<polygon fill="black" stroke="black" points="4293.23,-143.811 4282.4,-142.078 4289.05,-141.064 4284.88,-138.317 4284.88,-138.317 4284.88,-138.317 4289.05,-141.064 4287.35,-134.557 4293.23,-143.811 4293.23,-143.811"/>
</g>
<!-- 78&#45;&gt;76 -->
<g id="edge161" class="edge"><title>78&#45;&gt;76</title>
<path fill="none" stroke="black" d="M4043.69,-34.5516C4040.55,-35.1037 4037.44,-35.5932 4034.38,-36 3812.85,-65.4754 2223.68,-83.8583 1821.62,-88.0707"/>
<polygon fill="black" stroke="black" points="1811.49,-88.1765 1821.44,-83.5722 1816.49,-88.1242 1821.49,-88.072 1821.49,-88.072 1821.49,-88.072 1816.49,-88.1242 1821.53,-92.5717 1811.49,-88.1765 1811.49,-88.1765"/>
</g>
</g>
</svg>
