<?xml version="1.0" encoding="UTF-8" standalone="no"?>
<!DOCTYPE svg PUBLIC "-//W3C//DTD SVG 1.1//EN"
 "http://www.w3.org/Graphics/SVG/1.1/DTD/svg11.dtd">
<!-- Generated by graphviz version 2.40.1 (20161225.0304)
 -->
<!-- Title: packages_SMPyBandits.Arms Pages: 1 -->
<svg width="2310pt" height="188pt"
 viewBox="0.00 0.00 2310.22 188.00" xmlns="http://www.w3.org/2000/svg" xmlns:xlink="http://www.w3.org/1999/xlink">
<g id="graph0" class="graph" transform="scale(1 1) rotate(0) translate(4 184)">
<title>packages_SMPyBandits.Arms</title>
<polygon fill="#ffffff" stroke="transparent" points="-4,4 -4,-184 2306.2199,-184 2306.2199,4 -4,4"/>
<!-- 0 -->
<g id="node1" class="node">
<title>0</title>
<polygon fill="none" stroke="#000000" points="995.7199,-36 868.7199,-36 868.7199,0 995.7199,0 995.7199,-36"/>
<text text-anchor="middle" x="932.2199" y="-14.3" font-family="Times,serif" font-size="14.00" fill="#000000">SMPyBandits.Arms</text>
</g>
<!-- 1 -->
<g id="node2" class="node">
<title>1</title>
<polygon fill="none" stroke="#000000" points="901.2199,-180 745.2199,-180 745.2199,-144 901.2199,-144 901.2199,-180"/>
<text text-anchor="middle" x="823.2199" y="-158.3" font-family="Times,serif" font-size="14.00" fill="#000000">SMPyBandits.Arms.Arm</text>
</g>
<!-- 0&#45;&gt;1 -->
<g id="edge1" class="edge">
<title>0&#45;&gt;1</title>
<path fill="none" stroke="#000000" d="M868.5078,-19.3505C664.3125,-23.9856 37.7319,-40.7129 8.2199,-72 -2.7589,-83.6391 -2.7135,-96.3183 8.2199,-108 32.7571,-134.2168 528.8138,-152.7562 734.7713,-159.352"/>
<polygon fill="#000000" stroke="#000000" points="744.9504,-159.6758 734.8124,-163.8555 739.9529,-159.5168 734.9555,-159.3577 734.9555,-159.3577 734.9555,-159.3577 739.9529,-159.5168 735.0986,-154.86 744.9504,-159.6758 744.9504,-159.6758"/>
</g>
<!-- 2 -->
<g id="node3" class="node">
<title>2</title>
<polygon fill="none" stroke="#000000" points="199.2199,-108 17.2199,-108 17.2199,-72 199.2199,-72 199.2199,-108"/>
<text text-anchor="middle" x="108.2199" y="-86.3" font-family="Times,serif" font-size="14.00" fill="#000000">SMPyBandits.Arms.Bernoulli</text>
</g>
<!-- 0&#45;&gt;2 -->
<g id="edge2" class="edge">
<title>0&#45;&gt;2</title>
<path fill="none" stroke="#000000" d="M868.5647,-20.5279C743.9117,-25.9614 458.758,-40.7688 209.4191,-71.9199"/>
<polygon fill="#000000" stroke="#000000" points="199.4454,-73.1772 208.8041,-67.4617 204.4062,-72.5518 209.3669,-71.9264 209.3669,-71.9264 209.3669,-71.9264 204.4062,-72.5518 209.9298,-76.391 199.4454,-73.1772 199.4454,-73.1772"/>
</g>
<!-- 3 -->
<g id="node4" class="node">
<title>3</title>
<polygon fill="none" stroke="#000000" points="399.2199,-108 217.2199,-108 217.2199,-72 399.2199,-72 399.2199,-108"/>
<text text-anchor="middle" x="308.2199" y="-86.3" font-family="Times,serif" font-size="14.00" fill="#000000">SMPyBandits.Arms.Binomial</text>
</g>
<!-- 0&#45;&gt;3 -->
<g id="edge3" class="edge">
<title>0&#45;&gt;3</title>
<path fill="none" stroke="#000000" d="M868.7143,-22.989C771.8372,-30.9433 581.1466,-47.9493 409.4375,-71.8825"/>
<polygon fill="#000000" stroke="#000000" points="399.4598,-73.2841 408.7365,-67.4367 404.4112,-72.5885 409.3626,-71.8929 409.3626,-71.8929 409.3626,-71.8929 404.4112,-72.5885 409.9886,-76.3492 399.4598,-73.2841 399.4598,-73.2841"/>
</g>
<!-- 4 -->
<g id="node5" class="node">
<title>4</title>
<polygon fill="none" stroke="#000000" points="596.7199,-108 417.7199,-108 417.7199,-72 596.7199,-72 596.7199,-108"/>
<text text-anchor="middle" x="507.2199" y="-86.3" font-family="Times,serif" font-size="14.00" fill="#000000">SMPyBandits.Arms.Constant</text>
</g>
<!-- 0&#45;&gt;4 -->
<g id="edge4" class="edge">
<title>0&#45;&gt;4</title>
<path fill="none" stroke="#000000" d="M868.5575,-28.1655C804.8071,-38.4238 703.6177,-54.9197 606.8795,-71.7237"/>
<polygon fill="#000000" stroke="#000000" points="596.93,-73.4559 606.0099,-67.3073 601.8559,-72.5983 606.7818,-71.7407 606.7818,-71.7407 606.7818,-71.7407 601.8559,-72.5983 607.5536,-76.174 596.93,-73.4559 596.93,-73.4559"/>
</g>
<!-- 5 -->
<g id="node6" class="node">
<title>5</title>
<polygon fill="none" stroke="#000000" points="815.7199,-108 614.7199,-108 614.7199,-72 815.7199,-72 815.7199,-108"/>
<text text-anchor="middle" x="715.2199" y="-86.3" font-family="Times,serif" font-size="14.00" fill="#000000">SMPyBandits.Arms.DiscreteArm</text>
</g>
<!-- 0&#45;&gt;5 -->
<g id="edge5" class="edge">
<title>0&#45;&gt;5</title>
<path fill="none" stroke="#000000" d="M877.7417,-36.0757C847.8186,-46.0041 810.5356,-58.3745 779.2295,-68.7618"/>
<polygon fill="#000000" stroke="#000000" points="769.7204,-71.9169 777.7945,-64.4966 774.466,-70.3422 779.2116,-68.7676 779.2116,-68.7676 779.2116,-68.7676 774.466,-70.3422 780.6288,-73.0387 769.7204,-71.9169 769.7204,-71.9169"/>
</g>
<!-- 6 -->
<g id="node7" class="node">
<title>6</title>
<polygon fill="none" stroke="#000000" points="1030.2199,-108 834.2199,-108 834.2199,-72 1030.2199,-72 1030.2199,-108"/>
<text text-anchor="middle" x="932.2199" y="-86.3" font-family="Times,serif" font-size="14.00" fill="#000000">SMPyBandits.Arms.Exponential</text>
</g>
<!-- 0&#45;&gt;6 -->
<g id="edge6" class="edge">
<title>0&#45;&gt;6</title>
<path fill="none" stroke="#000000" d="M932.2199,-36.1686C932.2199,-43.869 932.2199,-53.0257 932.2199,-61.5834"/>
<polygon fill="#000000" stroke="#000000" points="932.2199,-71.5867 927.72,-61.5867 932.2199,-66.5867 932.22,-61.5867 932.22,-61.5867 932.22,-61.5867 932.2199,-66.5867 936.72,-61.5868 932.2199,-71.5867 932.2199,-71.5867"/>
</g>
<!-- 7 -->
<g id="node8" class="node">
<title>7</title>
<polygon fill="none" stroke="#000000" points="1223.7199,-108 1048.7199,-108 1048.7199,-72 1223.7199,-72 1223.7199,-108"/>
<text text-anchor="middle" x="1136.2199" y="-86.3" font-family="Times,serif" font-size="14.00" fill="#000000">SMPyBandits.Arms.Gamma</text>
</g>
<!-- 0&#45;&gt;7 -->
<g id="edge7" class="edge">
<title>0&#45;&gt;7</title>
<path fill="none" stroke="#000000" d="M983.4343,-36.0757C1011.3223,-45.9185 1046.0105,-58.1614 1075.2825,-68.4927"/>
<polygon fill="#000000" stroke="#000000" points="1084.9843,-71.9169 1074.0567,-72.8321 1080.2693,-70.2527 1075.5544,-68.5886 1075.5544,-68.5886 1075.5544,-68.5886 1080.2693,-70.2527 1077.0521,-64.3451 1084.9843,-71.9169 1084.9843,-71.9169"/>
</g>
<!-- 8 -->
<g id="node9" class="node">
<title>8</title>
<polygon fill="none" stroke="#000000" points="1422.2199,-108 1242.2199,-108 1242.2199,-72 1422.2199,-72 1422.2199,-108"/>
<text text-anchor="middle" x="1332.2199" y="-86.3" font-family="Times,serif" font-size="14.00" fill="#000000">SMPyBandits.Arms.Gaussian</text>
</g>
<!-- 0&#45;&gt;8 -->
<g id="edge8" class="edge">
<title>0&#45;&gt;8</title>
<path fill="none" stroke="#000000" d="M996.0433,-29.4882C1059.5573,-40.9207 1157.9648,-58.6341 1231.9266,-71.9472"/>
<polygon fill="#000000" stroke="#000000" points="1242.1945,-73.7954 1231.5554,-76.4527 1237.2736,-72.9096 1232.3527,-72.0238 1232.3527,-72.0238 1232.3527,-72.0238 1237.2736,-72.9096 1233.1499,-67.595 1242.1945,-73.7954 1242.1945,-73.7954"/>
</g>
<!-- 9 -->
<g id="node10" class="node">
<title>9</title>
<polygon fill="none" stroke="#000000" points="1613.7199,-108 1440.7199,-108 1440.7199,-72 1613.7199,-72 1613.7199,-108"/>
<text text-anchor="middle" x="1527.2199" y="-86.3" font-family="Times,serif" font-size="14.00" fill="#000000">SMPyBandits.Arms.Poisson</text>
</g>
<!-- 0&#45;&gt;9 -->
<g id="edge9" class="edge">
<title>0&#45;&gt;9</title>
<path fill="none" stroke="#000000" d="M995.8308,-23.2918C1088.9121,-31.3877 1267.8756,-48.2857 1430.4741,-71.9558"/>
<polygon fill="#000000" stroke="#000000" points="1440.6647,-73.4514 1430.1172,-76.4515 1435.7177,-72.7253 1430.7707,-71.9992 1430.7707,-71.9992 1430.7707,-71.9992 1435.7177,-72.7253 1431.4242,-67.5469 1440.6647,-73.4514 1440.6647,-73.4514"/>
</g>
<!-- 10 -->
<g id="node11" class="node">
<title>10</title>
<polygon fill="none" stroke="#000000" points="1864.7199,-108 1631.7199,-108 1631.7199,-72 1864.7199,-72 1864.7199,-108"/>
<text text-anchor="middle" x="1748.2199" y="-86.3" font-family="Times,serif" font-size="14.00" fill="#000000">SMPyBandits.Arms.RestedRottingArm</text>
</g>
<!-- 0&#45;&gt;10 -->
<g id="edge10" class="edge">
<title>0&#45;&gt;10</title>
<path fill="none" stroke="#000000" d="M996.0837,-21.6323C1116.2892,-28.7673 1384.5761,-46.1077 1621.3689,-71.9473"/>
<polygon fill="#000000" stroke="#000000" points="1631.5525,-73.066 1621.1208,-76.4471 1626.5824,-72.52 1621.6123,-71.974 1621.6123,-71.974 1621.6123,-71.974 1626.5824,-72.52 1622.1037,-67.5009 1631.5525,-73.066 1631.5525,-73.066"/>
</g>
<!-- 11 -->
<g id="node12" class="node">
<title>11</title>
<polygon fill="none" stroke="#000000" points="2085.7199,-108 1882.7199,-108 1882.7199,-72 2085.7199,-72 2085.7199,-108"/>
<text text-anchor="middle" x="1984.2199" y="-86.3" font-family="Times,serif" font-size="14.00" fill="#000000">SMPyBandits.Arms.UniformArm</text>
</g>
<!-- 0&#45;&gt;11 -->
<g id="edge11" class="edge">
<title>0&#45;&gt;11</title>
<path fill="none" stroke="#000000" d="M995.7392,-19.3787C1146.1751,-23.1321 1536.1244,-35.7214 1872.2251,-71.9644"/>
<polygon fill="#000000" stroke="#000000" points="1882.6536,-73.0985 1872.2257,-76.4909 1877.6829,-72.5579 1872.7122,-72.0173 1872.7122,-72.0173 1872.7122,-72.0173 1877.6829,-72.5579 1873.1988,-67.5436 1882.6536,-73.0985 1882.6536,-73.0985"/>
</g>
<!-- 2&#45;&gt;1 -->
<g id="edge12" class="edge">
<title>2&#45;&gt;1</title>
<path fill="none" stroke="#000000" d="M199.4519,-106.7731C202.4064,-107.2039 205.3349,-107.6145 208.2199,-108 394.8057,-132.9323 614.8401,-149.0711 734.606,-156.747"/>
<polygon fill="#000000" stroke="#000000" points="744.8192,-157.3967 734.5536,-161.2527 739.8292,-157.0792 734.8393,-156.7618 734.8393,-156.7618 734.8393,-156.7618 739.8292,-157.0792 735.125,-152.2709 744.8192,-157.3967 744.8192,-157.3967"/>
</g>
<!-- 3&#45;&gt;1 -->
<g id="edge13" class="edge">
<title>3&#45;&gt;1</title>
<path fill="none" stroke="#000000" d="M399.4747,-106.6149C402.4226,-107.0912 405.3436,-107.5543 408.2199,-108 520.6806,-125.4276 650.8819,-141.7444 735.0142,-151.7856"/>
<polygon fill="#000000" stroke="#000000" points="745.0416,-152.9786 734.5799,-156.2656 740.0766,-152.3879 735.1116,-151.7971 735.1116,-151.7971 735.1116,-151.7971 740.0766,-152.3879 735.6433,-147.3286 745.0416,-152.9786 745.0416,-152.9786"/>
</g>
<!-- 4&#45;&gt;1 -->
<g id="edge14" class="edge">
<title>4&#45;&gt;1</title>
<path fill="none" stroke="#000000" d="M586.5521,-108.0757C631.7829,-118.3815 688.5615,-131.3183 735.1669,-141.9373"/>
<polygon fill="#000000" stroke="#000000" points="744.9497,-144.1663 734.1999,-146.3322 740.0747,-143.0555 735.1996,-141.9447 735.1996,-141.9447 735.1996,-141.9447 740.0747,-143.0555 736.1994,-137.5571 744.9497,-144.1663 744.9497,-144.1663"/>
</g>
<!-- 5&#45;&gt;1 -->
<g id="edge15" class="edge">
<title>5&#45;&gt;1</title>
<path fill="none" stroke="#000000" d="M742.4728,-108.1686C756.1588,-117.2926 772.9113,-128.461 787.6026,-138.2551"/>
<polygon fill="#000000" stroke="#000000" points="795.9756,-143.8372 785.1589,-142.0344 791.8154,-141.0636 787.6551,-138.2901 787.6551,-138.2901 787.6551,-138.2901 791.8154,-141.0636 790.1513,-134.5459 795.9756,-143.8372 795.9756,-143.8372"/>
</g>
<!-- 6&#45;&gt;1 -->
<g id="edge16" class="edge">
<title>6&#45;&gt;1</title>
<path fill="none" stroke="#000000" d="M904.7145,-108.1686C890.9019,-117.2926 873.9942,-128.461 859.1669,-138.2551"/>
<polygon fill="#000000" stroke="#000000" points="850.7164,-143.8372 856.5801,-134.5707 854.8884,-141.0813 859.0604,-138.3255 859.0604,-138.3255 859.0604,-138.3255 854.8884,-141.0813 861.5406,-142.0803 850.7164,-143.8372 850.7164,-143.8372"/>
</g>
<!-- 7&#45;&gt;1 -->
<g id="edge17" class="edge">
<title>7&#45;&gt;1</title>
<path fill="none" stroke="#000000" d="M1057.6407,-108.0757C1013.1018,-118.3211 957.2583,-131.1669 911.2491,-141.7505"/>
<polygon fill="#000000" stroke="#000000" points="901.2885,-144.0417 910.0252,-137.4144 906.1613,-142.9208 911.034,-141.7999 911.034,-141.7999 911.034,-141.7999 906.1613,-142.9208 912.0428,-146.1853 901.2885,-144.0417 901.2885,-144.0417"/>
</g>
<!-- 8&#45;&gt;1 -->
<g id="edge18" class="edge">
<title>8&#45;&gt;1</title>
<path fill="none" stroke="#000000" d="M1242.0369,-106.4334C1238.725,-106.9731 1235.4443,-107.4972 1232.2199,-108 1121.9961,-125.1869 994.4975,-141.4493 911.5456,-151.5502"/>
<polygon fill="#000000" stroke="#000000" points="901.403,-152.7815 910.7878,-147.109 906.3666,-152.1789 911.3301,-151.5762 911.3301,-151.5762 911.3301,-151.5762 906.3666,-152.1789 911.8725,-156.0434 901.403,-152.7815 901.403,-152.7815"/>
</g>
<!-- 9&#45;&gt;1 -->
<g id="edge19" class="edge">
<title>9&#45;&gt;1</title>
<path fill="none" stroke="#000000" d="M1440.6757,-106.6256C1437.4874,-107.1112 1434.3275,-107.5717 1431.2199,-108 1247.0997,-133.377 1029.8842,-149.3282 911.3428,-156.8577"/>
<polygon fill="#000000" stroke="#000000" points="901.2326,-157.4946 910.9299,-152.3747 906.2227,-157.1802 911.2128,-156.8658 911.2128,-156.8658 911.2128,-156.8658 906.2227,-157.1802 911.4958,-161.3569 901.2326,-157.4946 901.2326,-157.4946"/>
</g>
<!-- 11&#45;&gt;1 -->
<g id="edge20" class="edge">
<title>11&#45;&gt;1</title>
<path fill="none" stroke="#000000" d="M1882.6562,-106.9259C1879.4773,-107.3096 1876.3259,-107.6693 1873.2199,-108 1518.2322,-145.7965 1092.8048,-157.3594 911.7592,-160.7121"/>
<polygon fill="#000000" stroke="#000000" points="901.4941,-160.8982 911.4108,-156.2175 906.4933,-160.8075 911.4924,-160.7168 911.4924,-160.7168 911.4924,-160.7168 906.4933,-160.8075 911.5741,-165.2161 901.4941,-160.8982 901.4941,-160.8982"/>
</g>
<!-- 12 -->
<g id="node13" class="node">
<title>12</title>
<polygon fill="none" stroke="#000000" points="2297.7199,-36 2108.7199,-36 2108.7199,0 2297.7199,0 2297.7199,-36"/>
<text text-anchor="middle" x="2203.2199" y="-14.3" font-family="Times,serif" font-size="14.00" fill="#000000">SMPyBandits.Policies.kullback</text>
</g>
<!-- 13 -->
<g id="node14" class="node">
<title>13</title>
<polygon fill="none" stroke="#000000" points="2302.2199,-108 2104.2199,-108 2104.2199,-72 2302.2199,-72 2302.2199,-108"/>
<text text-anchor="middle" x="2203.2199" y="-86.3" font-family="Times,serif" font-size="14.00" fill="#000000">SMPyBandits.Policies.usenumba</text>
</g>
<!-- 12&#45;&gt;13 -->
<g id="edge21" class="edge">
<title>12&#45;&gt;13</title>
<path fill="none" stroke="#000000" d="M2203.2199,-36.1686C2203.2199,-43.869 2203.2199,-53.0257 2203.2199,-61.5834"/>
<polygon fill="#000000" stroke="#000000" points="2203.2199,-71.5867 2198.72,-61.5867 2203.2199,-66.5867 2203.22,-61.5867 2203.22,-61.5867 2203.22,-61.5867 2203.2199,-66.5867 2207.72,-61.5868 2203.2199,-71.5867 2203.2199,-71.5867"/>
</g>
</g>
</svg>
