<?xml version="1.0" encoding="UTF-8" standalone="no"?>
<!DOCTYPE svg PUBLIC "-//W3C//DTD SVG 1.1//EN"
 "http://www.w3.org/Graphics/SVG/1.1/DTD/svg11.dtd">
<!-- Generated by graphviz version 2.38.0 (20140413.2041)
 -->
<!-- Title: packages_AlgoBandits Pages: 1 -->
<svg width="5350pt" height="548pt"
 viewBox="0.00 0.00 5350.00 548.00" xmlns="http://www.w3.org/2000/svg" xmlns:xlink="http://www.w3.org/1999/xlink">
<g id="graph0" class="graph" transform="scale(1 1) rotate(0) translate(4 544)">
<title>packages_AlgoBandits</title>
<polygon fill="white" stroke="none" points="-4,4 -4,-544 5346,-544 5346,4 -4,4"/>
<!-- 0 -->
<g id="node1" class="node"><title>0</title>
<polygon fill="none" stroke="black" points="253,-108 199,-108 199,-72 253,-72 253,-108"/>
<text text-anchor="middle" x="226" y="-86.3" font-family="Times,serif" font-size="14.00">Arms</text>
</g>
<!-- 2 -->
<g id="node3" class="node"><title>2</title>
<polygon fill="none" stroke="black" points="467,-180 365,-180 365,-144 467,-144 467,-180"/>
<text text-anchor="middle" x="416" y="-158.3" font-family="Times,serif" font-size="14.00">Arms.Bernoulli</text>
</g>
<!-- 0&#45;&gt;2 -->
<g id="edge1" class="edge"><title>0&#45;&gt;2</title>
<path fill="none" stroke="black" d="M253.222,-101.029C280.985,-111.258 324.862,-127.423 360.069,-140.394"/>
<polygon fill="black" stroke="black" points="369.749,-143.96 358.809,-144.725 365.057,-142.231 360.365,-140.503 360.365,-140.503 360.365,-140.503 365.057,-142.231 361.921,-136.28 369.749,-143.96 369.749,-143.96"/>
</g>
<!-- 3 -->
<g id="node4" class="node"><title>3</title>
<polygon fill="none" stroke="black" points="116,-180 7.10543e-15,-180 7.10543e-15,-144 116,-144 116,-180"/>
<text text-anchor="middle" x="58" y="-158.3" font-family="Times,serif" font-size="14.00">Arms.Exponential</text>
</g>
<!-- 0&#45;&gt;3 -->
<g id="edge2" class="edge"><title>0&#45;&gt;3</title>
<path fill="none" stroke="black" d="M198.634,-102.403C174.22,-112.575 137.858,-127.726 108.224,-140.073"/>
<polygon fill="black" stroke="black" points="98.8633,-143.974 106.363,-135.974 103.479,-142.051 108.094,-140.127 108.094,-140.127 108.094,-140.127 103.479,-142.051 109.825,-144.281 98.8633,-143.974 98.8633,-143.974"/>
</g>
<!-- 4 -->
<g id="node5" class="node"><title>4</title>
<polygon fill="none" stroke="black" points="235.5,-180 134.5,-180 134.5,-144 235.5,-144 235.5,-180"/>
<text text-anchor="middle" x="185" y="-158.3" font-family="Times,serif" font-size="14.00">Arms.Gaussian</text>
</g>
<!-- 0&#45;&gt;4 -->
<g id="edge3" class="edge"><title>0&#45;&gt;4</title>
<path fill="none" stroke="black" d="M215.865,-108.303C211.148,-116.356 205.438,-126.106 200.218,-135.018"/>
<polygon fill="black" stroke="black" points="195.018,-143.896 196.189,-132.992 197.545,-139.581 200.072,-135.267 200.072,-135.267 200.072,-135.267 197.545,-139.581 203.955,-137.541 195.018,-143.896 195.018,-143.896"/>
</g>
<!-- 5 -->
<g id="node6" class="node"><title>5</title>
<polygon fill="none" stroke="black" points="346.5,-180 253.5,-180 253.5,-144 346.5,-144 346.5,-180"/>
<text text-anchor="middle" x="300" y="-158.3" font-family="Times,serif" font-size="14.00">Arms.Poisson</text>
</g>
<!-- 0&#45;&gt;5 -->
<g id="edge4" class="edge"><title>0&#45;&gt;5</title>
<path fill="none" stroke="black" d="M244.292,-108.303C253.433,-116.95 264.64,-127.551 274.6,-136.973"/>
<polygon fill="black" stroke="black" points="281.918,-143.896 271.561,-140.293 278.286,-140.46 274.654,-137.024 274.654,-137.024 274.654,-137.024 278.286,-140.46 277.746,-133.755 281.918,-143.896 281.918,-143.896"/>
</g>
<!-- 1 -->
<g id="node2" class="node"><title>1</title>
<polygon fill="none" stroke="black" points="117.5,-252 40.5,-252 40.5,-216 117.5,-216 117.5,-252"/>
<text text-anchor="middle" x="79" y="-230.3" font-family="Times,serif" font-size="14.00">Arms.Arm</text>
</g>
<!-- 2&#45;&gt;1 -->
<g id="edge5" class="edge"><title>2&#45;&gt;1</title>
<path fill="none" stroke="black" d="M364.852,-177.715C361.528,-178.529 358.223,-179.299 355,-180 257.888,-201.125 228.278,-191.427 127.558,-216.146"/>
<polygon fill="black" stroke="black" points="117.585,-218.648 126.189,-211.85 122.434,-217.432 127.284,-216.215 127.284,-216.215 127.284,-216.215 122.434,-217.432 128.379,-220.58 117.585,-218.648 117.585,-218.648"/>
</g>
<!-- 6 -->
<g id="node7" class="node"><title>6</title>
<polygon fill="none" stroke="black" points="234,-252 136,-252 136,-216 234,-216 234,-252"/>
<text text-anchor="middle" x="185" y="-230.3" font-family="Times,serif" font-size="14.00">Arms.kullback</text>
</g>
<!-- 2&#45;&gt;6 -->
<g id="edge6" class="edge"><title>2&#45;&gt;6</title>
<path fill="none" stroke="black" d="M364.734,-178.535C328.983,-189.369 281.194,-203.85 243.88,-215.158"/>
<polygon fill="black" stroke="black" points="234.144,-218.108 242.409,-210.901 238.929,-216.658 243.714,-215.208 243.714,-215.208 243.714,-215.208 238.929,-216.658 245.019,-219.514 234.144,-218.108 234.144,-218.108"/>
</g>
<!-- 3&#45;&gt;1 -->
<g id="edge7" class="edge"><title>3&#45;&gt;1</title>
<path fill="none" stroke="black" d="M63.191,-180.303C65.5306,-188.102 68.3474,-197.491 70.9513,-206.171"/>
<polygon fill="black" stroke="black" points="73.8687,-215.896 66.6849,-207.61 72.4319,-211.107 70.9952,-206.317 70.9952,-206.317 70.9952,-206.317 72.4319,-211.107 75.3054,-205.024 73.8687,-215.896 73.8687,-215.896"/>
</g>
<!-- 3&#45;&gt;6 -->
<g id="edge8" class="edge"><title>3&#45;&gt;6</title>
<path fill="none" stroke="black" d="M89.0677,-180.124C105.827,-189.361 126.706,-200.869 144.702,-210.788"/>
<polygon fill="black" stroke="black" points="153.813,-215.81 142.883,-214.924 149.434,-213.397 145.055,-210.983 145.055,-210.983 145.055,-210.983 149.434,-213.397 147.227,-207.042 153.813,-215.81 153.813,-215.81"/>
</g>
<!-- 4&#45;&gt;1 -->
<g id="edge9" class="edge"><title>4&#45;&gt;1</title>
<path fill="none" stroke="black" d="M159.069,-180.124C145.338,-189.192 128.294,-200.448 113.464,-210.241"/>
<polygon fill="black" stroke="black" points="105.03,-215.81 110.895,-206.544 109.203,-213.055 113.375,-210.3 113.375,-210.3 113.375,-210.3 109.203,-213.055 115.855,-214.055 105.03,-215.81 105.03,-215.81"/>
</g>
<!-- 4&#45;&gt;6 -->
<g id="edge10" class="edge"><title>4&#45;&gt;6</title>
<path fill="none" stroke="black" d="M185,-180.303C185,-188.017 185,-197.288 185,-205.888"/>
<polygon fill="black" stroke="black" points="185,-215.896 180.5,-205.896 185,-210.896 185,-205.896 185,-205.896 185,-205.896 185,-210.896 189.5,-205.896 185,-215.896 185,-215.896"/>
</g>
<!-- 5&#45;&gt;1 -->
<g id="edge11" class="edge"><title>5&#45;&gt;1</title>
<path fill="none" stroke="black" d="M253.338,-177.182C212.065,-189.742 155.168,-207.101 127.417,-215.974"/>
<polygon fill="black" stroke="black" points="117.723,-219.124 125.843,-211.754 122.479,-217.579 127.234,-216.034 127.234,-216.034 127.234,-216.034 122.479,-217.579 128.625,-220.314 117.723,-219.124 117.723,-219.124"/>
</g>
<!-- 5&#45;&gt;6 -->
<g id="edge12" class="edge"><title>5&#45;&gt;6</title>
<path fill="none" stroke="black" d="M271.868,-180.124C256.832,-189.276 238.133,-200.658 221.94,-210.515"/>
<polygon fill="black" stroke="black" points="213.24,-215.81 219.443,-206.767 217.511,-213.21 221.782,-210.611 221.782,-210.611 221.782,-210.611 217.511,-213.21 224.122,-214.455 213.24,-215.81 213.24,-215.81"/>
</g>
<!-- 7 -->
<g id="node8" class="node"><title>7</title>
<polygon fill="none" stroke="black" points="2951,-108 2863,-108 2863,-72 2951,-72 2951,-108"/>
<text text-anchor="middle" x="2907" y="-86.3" font-family="Times,serif" font-size="14.00">Environment</text>
</g>
<!-- 9 -->
<g id="node10" class="node"><title>9</title>
<polygon fill="none" stroke="black" points="2893,-180 2749,-180 2749,-144 2893,-144 2893,-180"/>
<text text-anchor="middle" x="2821" y="-158.3" font-family="Times,serif" font-size="14.00">Environment.Evaluator</text>
</g>
<!-- 7&#45;&gt;9 -->
<g id="edge13" class="edge"><title>7&#45;&gt;9</title>
<path fill="none" stroke="black" d="M2885.74,-108.303C2874.91,-117.119 2861.58,-127.968 2849.84,-137.526"/>
<polygon fill="black" stroke="black" points="2842.01,-143.896 2846.93,-134.093 2845.89,-140.739 2849.77,-137.583 2849.77,-137.583 2849.77,-137.583 2845.89,-140.739 2852.61,-141.073 2842.01,-143.896 2842.01,-143.896"/>
</g>
<!-- 10 -->
<g id="node11" class="node"><title>10</title>
<polygon fill="none" stroke="black" points="3294.5,-180 3079.5,-180 3079.5,-144 3294.5,-144 3294.5,-180"/>
<text text-anchor="middle" x="3187" y="-158.3" font-family="Times,serif" font-size="14.00">Environment.EvaluatorMultiPlayers</text>
</g>
<!-- 7&#45;&gt;10 -->
<g id="edge14" class="edge"><title>7&#45;&gt;10</title>
<path fill="none" stroke="black" d="M2951.17,-105.462C2954.15,-106.347 2957.11,-107.201 2960,-108 3004.87,-120.411 3055.24,-132.37 3097.12,-141.776"/>
<polygon fill="black" stroke="black" points="3107.02,-143.988 3096.28,-146.199 3102.14,-142.898 3097.26,-141.808 3097.26,-141.808 3097.26,-141.808 3102.14,-142.898 3098.24,-137.416 3107.02,-143.988 3107.02,-143.988"/>
</g>
<!-- 11 -->
<g id="node12" class="node"><title>11</title>
<polygon fill="none" stroke="black" points="3074.5,-252 2951.5,-252 2951.5,-216 3074.5,-216 3074.5,-252"/>
<text text-anchor="middle" x="3013" y="-230.3" font-family="Times,serif" font-size="14.00">Environment.MAB</text>
</g>
<!-- 7&#45;&gt;11 -->
<g id="edge15" class="edge"><title>7&#45;&gt;11</title>
<path fill="none" stroke="black" d="M2919.79,-108.129C2938.25,-132.863 2972.51,-178.758 2993.96,-207.488"/>
<polygon fill="black" stroke="black" points="3000.17,-215.811 2990.58,-210.489 2997.18,-211.804 2994.19,-207.797 2994.19,-207.797 2994.19,-207.797 2997.18,-211.804 2997.79,-205.105 3000.17,-215.811 3000.17,-215.811"/>
</g>
<!-- 12 -->
<g id="node13" class="node"><title>12</title>
<polygon fill="none" stroke="black" points="2933,-252 2807,-252 2807,-216 2933,-216 2933,-252"/>
<text text-anchor="middle" x="2870" y="-230.3" font-family="Times,serif" font-size="14.00">Environment.Result</text>
</g>
<!-- 7&#45;&gt;12 -->
<g id="edge16" class="edge"><title>7&#45;&gt;12</title>
<path fill="none" stroke="black" d="M2908.45,-108.161C2909.44,-126.407 2909.45,-155.899 2902,-180 2899.06,-189.503 2894.07,-199.06 2888.89,-207.391"/>
<polygon fill="black" stroke="black" points="2883.28,-215.889 2885.03,-205.064 2886.04,-211.716 2888.79,-207.542 2888.79,-207.542 2888.79,-207.542 2886.04,-211.716 2892.55,-210.02 2883.28,-215.889 2883.28,-215.889"/>
</g>
<!-- 8 -->
<g id="node9" class="node"><title>8</title>
<polygon fill="none" stroke="black" points="3275,-252 3093,-252 3093,-216 3275,-216 3275,-252"/>
<text text-anchor="middle" x="3184" y="-230.3" font-family="Times,serif" font-size="14.00">Environment.CollisionModels</text>
</g>
<!-- 9&#45;&gt;11 -->
<g id="edge17" class="edge"><title>9&#45;&gt;11</title>
<path fill="none" stroke="black" d="M2867.97,-180.124C2894.68,-189.863 2928.32,-202.128 2956.47,-212.392"/>
<polygon fill="black" stroke="black" points="2966.18,-215.932 2955.25,-216.734 2961.49,-214.219 2956.79,-212.506 2956.79,-212.506 2956.79,-212.506 2961.49,-214.219 2958.33,-208.279 2966.18,-215.932 2966.18,-215.932"/>
</g>
<!-- 9&#45;&gt;12 -->
<g id="edge18" class="edge"><title>9&#45;&gt;12</title>
<path fill="none" stroke="black" d="M2833.11,-180.303C2838.87,-188.526 2845.86,-198.517 2852.21,-207.579"/>
<polygon fill="black" stroke="black" points="2858.03,-215.896 2848.61,-210.284 2855.16,-211.799 2852.29,-207.703 2852.29,-207.703 2852.29,-207.703 2855.16,-211.799 2855.98,-205.123 2858.03,-215.896 2858.03,-215.896"/>
</g>
<!-- 14 -->
<g id="node15" class="node"><title>14</title>
<polygon fill="none" stroke="black" points="3090,-324 2936,-324 2936,-288 3090,-288 3090,-324"/>
<text text-anchor="middle" x="3013" y="-302.3" font-family="Times,serif" font-size="14.00">Environment.plotsettings</text>
</g>
<!-- 9&#45;&gt;14 -->
<g id="edge19" class="edge"><title>9&#45;&gt;14</title>
<path fill="none" stroke="black" d="M2808.63,-180.184C2796.36,-199.538 2781.56,-231.02 2798,-252 2814.09,-272.541 2873.57,-286.2 2925.9,-294.501"/>
<polygon fill="black" stroke="black" points="2935.92,-296.039 2925.35,-298.968 2930.98,-295.28 2926.04,-294.521 2926.04,-294.521 2926.04,-294.521 2930.98,-295.28 2926.72,-290.073 2935.92,-296.039 2935.92,-296.039"/>
</g>
<!-- 10&#45;&gt;8 -->
<g id="edge20" class="edge"><title>10&#45;&gt;8</title>
<path fill="none" stroke="black" d="M3186.26,-180.303C3185.93,-188.017 3185.53,-197.288 3185.16,-205.888"/>
<polygon fill="black" stroke="black" points="3184.73,-215.896 3180.67,-205.712 3184.95,-210.9 3185.16,-205.905 3185.16,-205.905 3185.16,-205.905 3184.95,-210.9 3189.66,-206.098 3184.73,-215.896 3184.73,-215.896"/>
</g>
<!-- 10&#45;&gt;11 -->
<g id="edge21" class="edge"><title>10&#45;&gt;11</title>
<path fill="none" stroke="black" d="M3144.43,-180.124C3120.44,-189.778 3090.27,-201.913 3064.9,-212.122"/>
<polygon fill="black" stroke="black" points="3055.43,-215.932 3063.02,-208.025 3060.07,-214.066 3064.7,-212.199 3064.7,-212.199 3064.7,-212.199 3060.07,-214.066 3066.38,-216.374 3055.43,-215.932 3055.43,-215.932"/>
</g>
<!-- 13 -->
<g id="node14" class="node"><title>13</title>
<polygon fill="none" stroke="black" points="3528.5,-252 3331.5,-252 3331.5,-216 3528.5,-216 3528.5,-252"/>
<text text-anchor="middle" x="3430" y="-230.3" font-family="Times,serif" font-size="14.00">Environment.ResultMultiPlayers</text>
</g>
<!-- 10&#45;&gt;13 -->
<g id="edge22" class="edge"><title>10&#45;&gt;13</title>
<path fill="none" stroke="black" d="M3246.13,-180.034C3280.68,-189.985 3324.45,-202.594 3360.62,-213.013"/>
<polygon fill="black" stroke="black" points="3370.6,-215.889 3359.75,-217.445 3365.8,-214.505 3360.99,-213.121 3360.99,-213.121 3360.99,-213.121 3365.8,-214.505 3362.24,-208.797 3370.6,-215.889 3370.6,-215.889"/>
</g>
<!-- 10&#45;&gt;14 -->
<g id="edge23" class="edge"><title>10&#45;&gt;14</title>
<path fill="none" stroke="black" d="M3241.02,-180.038C3257.77,-188.149 3274.36,-199.742 3284,-216 3292.16,-229.761 3294.17,-239.648 3284,-252 3260.95,-279.999 3170.47,-293.415 3100.33,-299.706"/>
<polygon fill="black" stroke="black" points="3090.14,-300.583 3099.72,-295.242 3095.12,-300.155 3100.1,-299.726 3100.1,-299.726 3100.1,-299.726 3095.12,-300.155 3100.49,-304.209 3090.14,-300.583 3090.14,-300.583"/>
</g>
<!-- 11&#45;&gt;14 -->
<g id="edge24" class="edge"><title>11&#45;&gt;14</title>
<path fill="none" stroke="black" d="M3013,-252.303C3013,-260.017 3013,-269.288 3013,-277.888"/>
<polygon fill="black" stroke="black" points="3013,-287.896 3008.5,-277.896 3013,-282.896 3013,-277.896 3013,-277.896 3013,-277.896 3013,-282.896 3017.5,-277.896 3013,-287.896 3013,-287.896"/>
</g>
<!-- 15 -->
<g id="node16" class="node"><title>15</title>
<polygon fill="none" stroke="black" points="1719.5,-180 1660.5,-180 1660.5,-144 1719.5,-144 1719.5,-180"/>
<text text-anchor="middle" x="1690" y="-158.3" font-family="Times,serif" font-size="14.00">Policies</text>
</g>
<!-- 16 -->
<g id="node17" class="node"><title>16</title>
<polygon fill="none" stroke="black" points="690.5,-324 569.5,-324 569.5,-288 690.5,-288 690.5,-324"/>
<text text-anchor="middle" x="630" y="-302.3" font-family="Times,serif" font-size="14.00">Policies.AdBandits</text>
</g>
<!-- 15&#45;&gt;16 -->
<g id="edge25" class="edge"><title>15&#45;&gt;16</title>
<path fill="none" stroke="black" d="M1660.25,-163.468C1493.79,-166.216 683.95,-181.336 645,-216 628.034,-231.1 625.471,-257.633 626.441,-277.811"/>
<polygon fill="black" stroke="black" points="627.243,-287.972 621.97,-278.357 626.85,-282.987 626.456,-278.003 626.456,-278.003 626.456,-278.003 626.85,-282.987 630.942,-277.649 627.243,-287.972 627.243,-287.972"/>
</g>
<!-- 17 -->
<g id="node18" class="node"><title>17</title>
<polygon fill="none" stroke="black" points="1045.5,-468 954.5,-468 954.5,-432 1045.5,-432 1045.5,-468"/>
<text text-anchor="middle" x="1000" y="-446.3" font-family="Times,serif" font-size="14.00">Policies.Aggr</text>
</g>
<!-- 15&#45;&gt;17 -->
<g id="edge26" class="edge"><title>15&#45;&gt;17</title>
<path fill="none" stroke="black" d="M1660.32,-163.051C1564.12,-163.676 1262.41,-169.395 1179,-216 1156.55,-228.543 1058.41,-365.892 1017.74,-423.648"/>
<polygon fill="black" stroke="black" points="1011.95,-431.886 1014.02,-421.117 1014.83,-427.795 1017.7,-423.704 1017.7,-423.704 1017.7,-423.704 1014.83,-427.795 1021.39,-426.292 1011.95,-431.886 1011.95,-431.886"/>
</g>
<!-- 19 -->
<g id="node20" class="node"><title>19</title>
<polygon fill="none" stroke="black" points="992,-252 868,-252 868,-216 992,-216 992,-252"/>
<text text-anchor="middle" x="930" y="-230.3" font-family="Times,serif" font-size="14.00">Policies.BayesUCB</text>
</g>
<!-- 15&#45;&gt;19 -->
<g id="edge27" class="edge"><title>15&#45;&gt;19</title>
<path fill="none" stroke="black" d="M1660.26,-163.609C1565.45,-165.903 1261.87,-175.971 1002.22,-215.955"/>
<polygon fill="black" stroke="black" points="992.227,-217.512 1001.41,-211.526 997.167,-216.742 1002.11,-215.972 1002.11,-215.972 1002.11,-215.972 997.167,-216.742 1002.8,-220.418 992.227,-217.512 992.227,-217.512"/>
</g>
<!-- 22 -->
<g id="node23" class="node"><title>22</title>
<polygon fill="none" stroke="black" points="1353.5,-252 1188.5,-252 1188.5,-216 1353.5,-216 1353.5,-252"/>
<text text-anchor="middle" x="1271" y="-230.3" font-family="Times,serif" font-size="14.00">Policies.EpsilonDecreasing</text>
</g>
<!-- 15&#45;&gt;22 -->
<g id="edge28" class="edge"><title>15&#45;&gt;22</title>
<path fill="none" stroke="black" d="M1660.21,-167.604C1604.32,-176.289 1479.69,-195.884 1363.84,-215.874"/>
<polygon fill="black" stroke="black" points="1353.74,-217.623 1362.82,-211.483 1358.66,-216.77 1363.59,-215.918 1363.59,-215.918 1363.59,-215.918 1358.66,-216.77 1364.36,-220.352 1353.74,-217.623 1353.74,-217.623"/>
</g>
<!-- 23 -->
<g id="node24" class="node"><title>23</title>
<polygon fill="none" stroke="black" points="1578,-252 1372,-252 1372,-216 1578,-216 1578,-252"/>
<text text-anchor="middle" x="1475" y="-230.3" font-family="Times,serif" font-size="14.00">Policies.EpsilonDecreasingMEGA</text>
</g>
<!-- 15&#45;&gt;23 -->
<g id="edge29" class="edge"><title>15&#45;&gt;23</title>
<path fill="none" stroke="black" d="M1660.11,-172.733C1628.38,-183.062 1577.35,-199.678 1536.89,-212.85"/>
<polygon fill="black" stroke="black" points="1527.38,-215.946 1535.5,-208.571 1532.13,-214.398 1536.89,-212.85 1536.89,-212.85 1536.89,-212.85 1532.13,-214.398 1538.28,-217.129 1527.38,-215.946 1527.38,-215.946"/>
</g>
<!-- 24 -->
<g id="node25" class="node"><title>24</title>
<polygon fill="none" stroke="black" points="1783.5,-252 1596.5,-252 1596.5,-216 1783.5,-216 1783.5,-252"/>
<text text-anchor="middle" x="1690" y="-230.3" font-family="Times,serif" font-size="14.00">Policies.EpsilonExpDecreasing</text>
</g>
<!-- 15&#45;&gt;24 -->
<g id="edge30" class="edge"><title>15&#45;&gt;24</title>
<path fill="none" stroke="black" d="M1690,-180.303C1690,-188.017 1690,-197.288 1690,-205.888"/>
<polygon fill="black" stroke="black" points="1690,-215.896 1685.5,-205.896 1690,-210.896 1690,-205.896 1690,-205.896 1690,-205.896 1690,-210.896 1694.5,-205.896 1690,-215.896 1690,-215.896"/>
</g>
<!-- 25 -->
<g id="node26" class="node"><title>25</title>
<polygon fill="none" stroke="black" points="1930.5,-252 1801.5,-252 1801.5,-216 1930.5,-216 1930.5,-252"/>
<text text-anchor="middle" x="1866" y="-230.3" font-family="Times,serif" font-size="14.00">Policies.EpsilonFirst</text>
</g>
<!-- 15&#45;&gt;25 -->
<g id="edge31" class="edge"><title>15&#45;&gt;25</title>
<path fill="none" stroke="black" d="M1719.86,-174.875C1745.43,-185.047 1782.87,-199.936 1813.45,-212.098"/>
<polygon fill="black" stroke="black" points="1823.11,-215.941 1812.15,-216.427 1818.46,-214.093 1813.82,-212.245 1813.82,-212.245 1813.82,-212.245 1818.46,-214.093 1815.48,-208.064 1823.11,-215.941 1823.11,-215.941"/>
</g>
<!-- 26 -->
<g id="node27" class="node"><title>26</title>
<polygon fill="none" stroke="black" points="1607,-324 1463,-324 1463,-288 1607,-288 1607,-324"/>
<text text-anchor="middle" x="1535" y="-302.3" font-family="Times,serif" font-size="14.00">Policies.EpsilonGreedy</text>
</g>
<!-- 15&#45;&gt;26 -->
<g id="edge32" class="edge"><title>15&#45;&gt;26</title>
<path fill="none" stroke="black" d="M1719.62,-163.643C1798.24,-166.33 2001.98,-180.223 1939,-252 1936.35,-255.015 1734.47,-280.385 1617.13,-294.904"/>
<polygon fill="black" stroke="black" points="1607.1,-296.145 1616.47,-290.452 1612.06,-295.531 1617.02,-294.918 1617.02,-294.918 1617.02,-294.918 1612.06,-295.531 1617.57,-299.384 1607.1,-296.145 1607.1,-296.145"/>
</g>
<!-- 29 -->
<g id="node30" class="node"><title>29</title>
<polygon fill="none" stroke="black" points="328,-468 224,-468 224,-432 328,-432 328,-468"/>
<text text-anchor="middle" x="276" y="-446.3" font-family="Times,serif" font-size="14.00">Policies.MEGA</text>
</g>
<!-- 15&#45;&gt;29 -->
<g id="edge33" class="edge"><title>15&#45;&gt;29</title>
<path fill="none" stroke="black" d="M1660.38,-163.083C1464.13,-163.761 357.655,-169.636 305,-216 246.427,-267.574 259.244,-372.324 269.43,-421.868"/>
<polygon fill="black" stroke="black" points="271.601,-431.839 265.077,-423.025 270.537,-426.954 269.474,-422.068 269.474,-422.068 269.474,-422.068 270.537,-426.954 273.871,-421.111 271.601,-431.839 271.601,-431.839"/>
</g>
<!-- 30 -->
<g id="node31" class="node"><title>30</title>
<polygon fill="none" stroke="black" points="2383.5,-396 2282.5,-396 2282.5,-360 2383.5,-360 2383.5,-396"/>
<text text-anchor="middle" x="2333" y="-374.3" font-family="Times,serif" font-size="14.00">Policies.MOSS</text>
</g>
<!-- 15&#45;&gt;30 -->
<g id="edge34" class="edge"><title>15&#45;&gt;30</title>
<path fill="none" stroke="black" d="M1719.79,-162.877C1830.14,-162.819 2214.85,-166.263 2325,-216 2378.26,-240.049 2425.46,-271.398 2400,-324 2394.24,-335.903 2384.36,-345.944 2373.94,-353.976"/>
<polygon fill="black" stroke="black" points="2365.53,-359.984 2371.05,-350.51 2369.6,-357.078 2373.66,-354.172 2373.66,-354.172 2373.66,-354.172 2369.6,-357.078 2376.28,-357.833 2365.53,-359.984 2365.53,-359.984"/>
</g>
<!-- 31 -->
<g id="node32" class="node"><title>31</title>
<polygon fill="none" stroke="black" points="427.5,-396 290.5,-396 290.5,-360 427.5,-360 427.5,-396"/>
<text text-anchor="middle" x="359" y="-374.3" font-family="Times,serif" font-size="14.00">Policies.MusicalChair</text>
</g>
<!-- 15&#45;&gt;31 -->
<g id="edge35" class="edge"><title>15&#45;&gt;31</title>
<path fill="none" stroke="black" d="M1660.38,-163C1465.36,-163.141 371.946,-166.158 324,-216 288.867,-252.522 319.126,-315.604 341.093,-350.992"/>
<polygon fill="black" stroke="black" points="346.731,-359.776 337.542,-353.791 344.03,-355.568 341.329,-351.36 341.329,-351.36 341.329,-351.36 344.03,-355.568 345.117,-348.93 346.731,-359.776 346.731,-359.776"/>
</g>
<!-- 33 -->
<g id="node34" class="node"><title>33</title>
<polygon fill="none" stroke="black" points="516,-468 406,-468 406,-432 516,-432 516,-468"/>
<text text-anchor="middle" x="461" y="-446.3" font-family="Times,serif" font-size="14.00">Policies.Softmax</text>
</g>
<!-- 15&#45;&gt;33 -->
<g id="edge36" class="edge"><title>15&#45;&gt;33</title>
<path fill="none" stroke="black" d="M1660.47,-163.054C1470.74,-163.545 429.703,-168.405 384,-216 369.317,-231.291 384.86,-303.684 396,-324 407.5,-344.972 423.378,-339.684 436,-360 447.682,-378.804 454.033,-403.181 457.407,-421.667"/>
<polygon fill="black" stroke="black" points="459.066,-431.784 453.007,-422.645 458.257,-426.85 457.447,-421.916 457.447,-421.916 457.447,-421.916 458.257,-426.85 461.888,-421.188 459.066,-431.784 459.066,-431.784"/>
</g>
<!-- 34 -->
<g id="node35" class="node"><title>34</title>
<polygon fill="none" stroke="black" points="551,-324 405,-324 405,-288 551,-288 551,-324"/>
<text text-anchor="middle" x="478" y="-302.3" font-family="Times,serif" font-size="14.00">Policies.TakeFixedArm</text>
</g>
<!-- 15&#45;&gt;34 -->
<g id="edge37" class="edge"><title>15&#45;&gt;34</title>
<path fill="none" stroke="black" d="M1660.41,-163.065C1471.47,-163.622 440.286,-168.823 395,-216 383.92,-227.543 387.312,-237.968 395,-252 401.941,-264.668 413.342,-274.748 425.503,-282.567"/>
<polygon fill="black" stroke="black" points="434.439,-287.866 423.542,-286.636 430.138,-285.316 425.837,-282.766 425.837,-282.766 425.837,-282.766 430.138,-285.316 428.132,-278.895 434.439,-287.866 434.439,-287.866"/>
</g>
<!-- 35 -->
<g id="node36" class="node"><title>35</title>
<polygon fill="none" stroke="black" points="597.5,-252 404.5,-252 404.5,-216 597.5,-216 597.5,-252"/>
<text text-anchor="middle" x="501" y="-230.3" font-family="Times,serif" font-size="14.00">Policies.TakeRandomFixedArm</text>
</g>
<!-- 15&#45;&gt;35 -->
<g id="edge38" class="edge"><title>15&#45;&gt;35</title>
<path fill="none" stroke="black" d="M1660.34,-163.341C1533.75,-165.031 1026.35,-174.197 612,-216 610.691,-216.132 609.373,-216.269 608.049,-216.41"/>
<polygon fill="black" stroke="black" points="597.786,-217.577 607.214,-211.976 602.754,-217.013 607.722,-216.448 607.722,-216.448 607.722,-216.448 602.754,-217.013 608.231,-220.919 597.786,-217.577 597.786,-217.577"/>
</g>
<!-- 36 -->
<g id="node37" class="node"><title>36</title>
<polygon fill="none" stroke="black" points="1132,-252 1010,-252 1010,-216 1132,-216 1132,-252"/>
<text text-anchor="middle" x="1071" y="-230.3" font-family="Times,serif" font-size="14.00">Policies.Thompson</text>
</g>
<!-- 15&#45;&gt;36 -->
<g id="edge39" class="edge"><title>15&#45;&gt;36</title>
<path fill="none" stroke="black" d="M1660.35,-164.574C1578.19,-169.219 1340.85,-184.553 1146,-216 1144.74,-216.203 1143.47,-216.415 1142.19,-216.635"/>
<polygon fill="black" stroke="black" points="1132.27,-218.452 1141.3,-212.223 1137.19,-217.551 1142.11,-216.65 1142.11,-216.65 1142.11,-216.65 1137.19,-217.551 1142.92,-221.076 1132.27,-218.452 1132.27,-218.452"/>
</g>
<!-- 37 -->
<g id="node38" class="node"><title>37</title>
<polygon fill="none" stroke="black" points="2121.5,-396 2030.5,-396 2030.5,-360 2121.5,-360 2121.5,-396"/>
<text text-anchor="middle" x="2076" y="-374.3" font-family="Times,serif" font-size="14.00">Policies.UCB</text>
</g>
<!-- 15&#45;&gt;37 -->
<g id="edge40" class="edge"><title>15&#45;&gt;37</title>
<path fill="none" stroke="black" d="M1719.66,-163.101C1793.17,-164.044 1980.59,-170.912 2019,-216 2050.14,-252.555 1996.26,-280.226 2016,-324 2021.18,-335.482 2030.21,-345.477 2039.72,-353.598"/>
<polygon fill="black" stroke="black" points="2047.74,-359.971 2037.11,-357.275 2043.82,-356.861 2039.91,-353.752 2039.91,-353.752 2039.91,-353.752 2043.82,-356.861 2042.71,-350.228 2047.74,-359.971 2047.74,-359.971"/>
</g>
<!-- 38 -->
<g id="node39" class="node"><title>38</title>
<polygon fill="none" stroke="black" points="2126.5,-324 2025.5,-324 2025.5,-288 2126.5,-288 2126.5,-324"/>
<text text-anchor="middle" x="2076" y="-302.3" font-family="Times,serif" font-size="14.00">Policies.UCBV</text>
</g>
<!-- 15&#45;&gt;38 -->
<g id="edge41" class="edge"><title>15&#45;&gt;38</title>
<path fill="none" stroke="black" d="M1719.62,-164.74C1807.6,-170.207 2062.78,-188.335 2087,-216 2101.74,-232.836 2096.46,-258.819 2089,-278.372"/>
<polygon fill="black" stroke="black" points="2085.11,-287.657 2084.82,-276.695 2087.04,-283.044 2088.97,-278.432 2088.97,-278.432 2088.97,-278.432 2087.04,-283.044 2093.12,-280.169 2085.11,-287.657 2085.11,-287.657"/>
</g>
<!-- 39 -->
<g id="node40" class="node"><title>39</title>
<polygon fill="none" stroke="black" points="2270.5,-252 2139.5,-252 2139.5,-216 2270.5,-216 2270.5,-252"/>
<text text-anchor="middle" x="2205" y="-230.3" font-family="Times,serif" font-size="14.00">Policies.UCBVtuned</text>
</g>
<!-- 15&#45;&gt;39 -->
<g id="edge42" class="edge"><title>15&#45;&gt;39</title>
<path fill="none" stroke="black" d="M1719.67,-165.704C1790.21,-172.332 1973.41,-190.71 2125,-216 2126.3,-216.217 2127.61,-216.44 2128.93,-216.67"/>
<polygon fill="black" stroke="black" points="2139.17,-218.53 2128.52,-221.169 2134.25,-217.636 2129.33,-216.742 2129.33,-216.742 2129.33,-216.742 2134.25,-217.636 2130.13,-212.314 2139.17,-218.53 2139.17,-218.53"/>
</g>
<!-- 40 -->
<g id="node41" class="node"><title>40</title>
<polygon fill="none" stroke="black" points="2265,-324 2145,-324 2145,-288 2265,-288 2265,-324"/>
<text text-anchor="middle" x="2205" y="-302.3" font-family="Times,serif" font-size="14.00">Policies.UCBalpha</text>
</g>
<!-- 15&#45;&gt;40 -->
<g id="edge43" class="edge"><title>15&#45;&gt;40</title>
<path fill="none" stroke="black" d="M1719.8,-163.383C1834.22,-165.157 2240.95,-174.367 2279,-216 2289.79,-227.81 2286.31,-237.769 2279,-252 2272.73,-264.209 2262.19,-274.234 2251.01,-282.152"/>
<polygon fill="black" stroke="black" points="2242.39,-287.798 2248.29,-278.554 2246.57,-285.058 2250.76,-282.318 2250.76,-282.318 2250.76,-282.318 2246.57,-285.058 2253.22,-286.082 2242.39,-287.798 2242.39,-287.798"/>
</g>
<!-- 41 -->
<g id="node42" class="node"><title>41</title>
<polygon fill="none" stroke="black" points="2391,-324 2283,-324 2283,-288 2391,-288 2391,-324"/>
<text text-anchor="middle" x="2337" y="-302.3" font-family="Times,serif" font-size="14.00">Policies.UCBopt</text>
</g>
<!-- 15&#45;&gt;41 -->
<g id="edge44" class="edge"><title>15&#45;&gt;41</title>
<path fill="none" stroke="black" d="M1719.82,-163.85C1835.38,-167.38 2249.57,-182.302 2297,-216 2317.23,-230.371 2327.4,-257.432 2332.41,-277.957"/>
<polygon fill="black" stroke="black" points="2334.58,-287.993 2328.06,-279.171 2333.52,-283.106 2332.46,-278.219 2332.46,-278.219 2332.46,-278.219 2333.52,-283.106 2336.86,-277.267 2334.58,-287.993 2334.58,-287.993"/>
</g>
<!-- 42 -->
<g id="node43" class="node"><title>42</title>
<polygon fill="none" stroke="black" points="1798.5,-324 1685.5,-324 1685.5,-288 1798.5,-288 1798.5,-324"/>
<text text-anchor="middle" x="1742" y="-302.3" font-family="Times,serif" font-size="14.00">Policies.UCBplus</text>
</g>
<!-- 15&#45;&gt;42 -->
<g id="edge45" class="edge"><title>15&#45;&gt;42</title>
<path fill="none" stroke="black" d="M1719.62,-163.956C1785.53,-166.771 1940.99,-177.442 1973,-216 2057.4,-317.673 1978.81,-250.696 1808.6,-287.985"/>
<polygon fill="black" stroke="black" points="1798.85,-290.214 1807.59,-283.599 1803.72,-289.1 1808.6,-287.986 1808.6,-287.986 1808.6,-287.986 1803.72,-289.1 1809.6,-292.373 1798.85,-290.214 1798.85,-290.214"/>
</g>
<!-- 43 -->
<g id="node44" class="node"><title>43</title>
<polygon fill="none" stroke="black" points="1969,-324 1817,-324 1817,-288 1969,-288 1969,-324"/>
<text text-anchor="middle" x="1893" y="-302.3" font-family="Times,serif" font-size="14.00">Policies.UCBrandomInit</text>
</g>
<!-- 15&#45;&gt;43 -->
<g id="edge46" class="edge"><title>15&#45;&gt;43</title>
<path fill="none" stroke="black" d="M1719.6,-163.405C1790.17,-165.062 1965.1,-173.464 2001,-216 2011.32,-228.227 2009.46,-238.421 2001,-252 1992.49,-265.652 1979.33,-275.886 1965.08,-283.524"/>
<polygon fill="black" stroke="black" points="1956.1,-287.951 1963.08,-279.493 1960.59,-285.74 1965.07,-283.529 1965.07,-283.529 1965.07,-283.529 1960.59,-285.74 1967.06,-287.565 1956.1,-287.951 1956.1,-287.951"/>
</g>
<!-- 44 -->
<g id="node45" class="node"><title>44</title>
<polygon fill="none" stroke="black" points="821,-324 711,-324 711,-288 821,-288 821,-324"/>
<text text-anchor="middle" x="766" y="-302.3" font-family="Times,serif" font-size="14.00">Policies.Uniform</text>
</g>
<!-- 15&#45;&gt;44 -->
<g id="edge47" class="edge"><title>15&#45;&gt;44</title>
<path fill="none" stroke="black" d="M1660.14,-163.694C1520.26,-167.108 933.545,-183.285 859,-216 857.924,-216.472 818.121,-254.739 790.941,-280.935"/>
<polygon fill="black" stroke="black" points="783.652,-287.962 787.728,-277.782 787.252,-284.492 790.851,-281.022 790.851,-281.022 790.851,-281.022 787.252,-284.492 793.975,-284.261 783.652,-287.962 783.652,-287.962"/>
</g>
<!-- 45 -->
<g id="node46" class="node"><title>45</title>
<polygon fill="none" stroke="black" points="812,-252 654,-252 654,-216 812,-216 812,-252"/>
<text text-anchor="middle" x="733" y="-230.3" font-family="Times,serif" font-size="14.00">Policies.UniformOnSome</text>
</g>
<!-- 15&#45;&gt;45 -->
<g id="edge48" class="edge"><title>15&#45;&gt;45</title>
<path fill="none" stroke="black" d="M1660.42,-163.534C1550,-165.799 1151.59,-176.399 826,-216 824.717,-216.156 823.425,-216.319 822.125,-216.487"/>
<polygon fill="black" stroke="black" points="812.05,-217.886 821.336,-212.053 817.002,-217.198 821.955,-216.511 821.955,-216.511 821.955,-216.511 817.002,-217.198 822.573,-220.968 812.05,-217.886 812.05,-217.886"/>
</g>
<!-- 46 -->
<g id="node47" class="node"><title>46</title>
<polygon fill="none" stroke="black" points="2738.5,-324 2637.5,-324 2637.5,-288 2738.5,-288 2738.5,-324"/>
<text text-anchor="middle" x="2688" y="-302.3" font-family="Times,serif" font-size="14.00">Policies.klUCB</text>
</g>
<!-- 15&#45;&gt;46 -->
<g id="edge49" class="edge"><title>15&#45;&gt;46</title>
<path fill="none" stroke="black" d="M1719.94,-163.573C1865.77,-166.528 2497.85,-181.26 2578,-216 2599.35,-225.252 2598.15,-237.076 2616,-252 2628.29,-262.275 2642.37,-272.877 2654.8,-281.874"/>
<polygon fill="black" stroke="black" points="2663.1,-287.822 2652.35,-285.655 2659.03,-284.91 2654.97,-281.997 2654.97,-281.997 2654.97,-281.997 2659.03,-284.91 2657.59,-278.34 2663.1,-287.822 2663.1,-287.822"/>
</g>
<!-- 47 -->
<g id="node48" class="node"><title>47</title>
<polygon fill="none" stroke="black" points="2569,-252 2435,-252 2435,-216 2569,-216 2569,-252"/>
<text text-anchor="middle" x="2502" y="-230.3" font-family="Times,serif" font-size="14.00">Policies.klUCBHPlus</text>
</g>
<!-- 15&#45;&gt;47 -->
<g id="edge50" class="edge"><title>15&#45;&gt;47</title>
<path fill="none" stroke="black" d="M1719.75,-163.723C1819.39,-166.448 2150.41,-177.971 2421,-216 2422.28,-216.18 2423.57,-216.368 2424.87,-216.564"/>
<polygon fill="black" stroke="black" points="2434.94,-218.2 2424.35,-221.038 2430,-217.398 2425.07,-216.596 2425.07,-216.596 2425.07,-216.596 2430,-217.398 2425.79,-212.155 2434.94,-218.2 2434.94,-218.2"/>
</g>
<!-- 48 -->
<g id="node49" class="node"><title>48</title>
<polygon fill="none" stroke="black" points="2750.5,-252 2625.5,-252 2625.5,-216 2750.5,-216 2750.5,-252"/>
<text text-anchor="middle" x="2688" y="-230.3" font-family="Times,serif" font-size="14.00">Policies.klUCBPlus</text>
</g>
<!-- 15&#45;&gt;48 -->
<g id="edge51" class="edge"><title>15&#45;&gt;48</title>
<path fill="none" stroke="black" d="M1719.59,-162.989C1834.6,-163.306 2262.76,-167.853 2611,-216 2612.3,-216.179 2613.6,-216.369 2614.92,-216.568"/>
<polygon fill="black" stroke="black" points="2625.12,-218.258 2614.51,-221.062 2620.18,-217.44 2615.25,-216.623 2615.25,-216.623 2615.25,-216.623 2620.18,-217.44 2615.99,-212.183 2625.12,-218.258 2625.12,-218.258"/>
</g>
<!-- 18 -->
<g id="node19" class="node"><title>18</title>
<polygon fill="none" stroke="black" points="660,-540 536,-540 536,-504 660,-504 660,-540"/>
<text text-anchor="middle" x="598" y="-518.3" font-family="Times,serif" font-size="14.00">Policies.BasePolicy</text>
</g>
<!-- 16&#45;&gt;18 -->
<g id="edge52" class="edge"><title>16&#45;&gt;18</title>
<path fill="none" stroke="black" d="M627.435,-324.151C621.9,-361.168 608.793,-448.819 602.095,-493.614"/>
<polygon fill="black" stroke="black" points="600.577,-503.768 597.605,-493.212 601.316,-498.823 602.056,-493.878 602.056,-493.878 602.056,-493.878 601.316,-498.823 606.506,-494.543 600.577,-503.768 600.577,-503.768"/>
</g>
<!-- 21 -->
<g id="node22" class="node"><title>21</title>
<polygon fill="none" stroke="black" points="726,-396 638,-396 638,-360 726,-360 726,-396"/>
<text text-anchor="middle" x="682" y="-374.3" font-family="Times,serif" font-size="14.00">Policies.Beta</text>
</g>
<!-- 16&#45;&gt;21 -->
<g id="edge53" class="edge"><title>16&#45;&gt;21</title>
<path fill="none" stroke="black" d="M642.854,-324.303C649.025,-332.611 656.537,-342.723 663.324,-351.859"/>
<polygon fill="black" stroke="black" points="669.294,-359.896 659.718,-354.552 666.312,-355.882 663.331,-351.868 663.331,-351.868 663.331,-351.868 666.312,-355.882 666.943,-349.185 669.294,-359.896 669.294,-359.896"/>
</g>
<!-- 17&#45;&gt;18 -->
<g id="edge54" class="edge"><title>17&#45;&gt;18</title>
<path fill="none" stroke="black" d="M954.277,-458.962C884.937,-471.036 752.561,-494.086 670.147,-508.437"/>
<polygon fill="black" stroke="black" points="660.104,-510.186 669.184,-504.037 665.03,-509.328 669.956,-508.47 669.956,-508.47 669.956,-508.47 665.03,-509.328 670.728,-512.904 660.104,-510.186 660.104,-510.186"/>
</g>
<!-- 20 -->
<g id="node21" class="node"><title>20</title>
<polygon fill="none" stroke="black" points="1075,-324 897,-324 897,-288 1075,-288 1075,-324"/>
<text text-anchor="middle" x="986" y="-302.3" font-family="Times,serif" font-size="14.00">Policies.BayesianIndexPolicy</text>
</g>
<!-- 19&#45;&gt;20 -->
<g id="edge55" class="edge"><title>19&#45;&gt;20</title>
<path fill="none" stroke="black" d="M943.843,-252.303C950.489,-260.611 958.578,-270.723 965.887,-279.859"/>
<polygon fill="black" stroke="black" points="972.317,-287.896 962.556,-282.898 969.193,-283.991 966.07,-280.087 966.07,-280.087 966.07,-280.087 969.193,-283.991 969.583,-277.276 972.317,-287.896 972.317,-287.896"/>
</g>
<!-- 20&#45;&gt;21 -->
<g id="edge56" class="edge"><title>20&#45;&gt;21</title>
<path fill="none" stroke="black" d="M912.022,-324.034C857.598,-336.566 784.864,-353.314 735.877,-364.594"/>
<polygon fill="black" stroke="black" points="726.105,-366.844 734.84,-360.215 730.977,-365.722 735.85,-364.6 735.85,-364.6 735.85,-364.6 730.977,-365.722 736.859,-368.986 726.105,-366.844 726.105,-366.844"/>
</g>
<!-- 27 -->
<g id="node28" class="node"><title>27</title>
<polygon fill="none" stroke="black" points="2311,-468 2183,-468 2183,-432 2311,-432 2311,-468"/>
<text text-anchor="middle" x="2247" y="-446.3" font-family="Times,serif" font-size="14.00">Policies.IndexPolicy</text>
</g>
<!-- 20&#45;&gt;27 -->
<g id="edge57" class="edge"><title>20&#45;&gt;27</title>
<path fill="none" stroke="black" d="M1075.17,-317.042C1312.08,-343.719 1953.97,-416.002 2172.77,-440.641"/>
<polygon fill="black" stroke="black" points="2182.87,-441.778 2172.43,-445.131 2177.9,-441.219 2172.93,-440.659 2172.93,-440.659 2172.93,-440.659 2177.9,-441.219 2173.43,-436.187 2182.87,-441.778 2182.87,-441.778"/>
</g>
<!-- 32 -->
<g id="node33" class="node"><title>32</title>
<polygon fill="none" stroke="black" points="738,-468 626,-468 626,-432 738,-432 738,-468"/>
<text text-anchor="middle" x="682" y="-446.3" font-family="Times,serif" font-size="14.00">Policies.Posterior</text>
</g>
<!-- 21&#45;&gt;32 -->
<g id="edge58" class="edge"><title>21&#45;&gt;32</title>
<path fill="none" stroke="black" d="M682,-396.303C682,-404.017 682,-413.288 682,-421.888"/>
<polygon fill="black" stroke="black" points="682,-431.896 677.5,-421.896 682,-426.896 682,-421.896 682,-421.896 682,-421.896 682,-426.896 686.5,-421.896 682,-431.896 682,-431.896"/>
</g>
<!-- 22&#45;&gt;26 -->
<g id="edge59" class="edge"><title>22&#45;&gt;26</title>
<path fill="none" stroke="black" d="M1335.24,-252.034C1373.09,-262.07 1421.14,-274.81 1460.62,-285.279"/>
<polygon fill="black" stroke="black" points="1470.47,-287.889 1459.65,-289.676 1465.63,-286.608 1460.8,-285.326 1460.8,-285.326 1460.8,-285.326 1465.63,-286.608 1461.96,-280.976 1470.47,-287.889 1470.47,-287.889"/>
</g>
<!-- 23&#45;&gt;26 -->
<g id="edge60" class="edge"><title>23&#45;&gt;26</title>
<path fill="none" stroke="black" d="M1489.83,-252.303C1497.02,-260.695 1505.8,-270.93 1513.69,-280.139"/>
<polygon fill="black" stroke="black" points="1520.34,-287.896 1510.41,-283.232 1517.09,-284.099 1513.83,-280.303 1513.83,-280.303 1513.83,-280.303 1517.09,-284.099 1517.25,-277.375 1520.34,-287.896 1520.34,-287.896"/>
</g>
<!-- 24&#45;&gt;26 -->
<g id="edge61" class="edge"><title>24&#45;&gt;26</title>
<path fill="none" stroke="black" d="M1652.08,-252.124C1630.99,-261.651 1604.54,-273.593 1582.13,-283.717"/>
<polygon fill="black" stroke="black" points="1572.79,-287.932 1580.06,-279.715 1577.35,-285.874 1581.91,-283.816 1581.91,-283.816 1581.91,-283.816 1577.35,-285.874 1583.76,-287.917 1572.79,-287.932 1572.79,-287.932"/>
</g>
<!-- 25&#45;&gt;26 -->
<g id="edge62" class="edge"><title>25&#45;&gt;26</title>
<path fill="none" stroke="black" d="M1801.45,-249.92C1798.25,-250.63 1795.09,-251.326 1792,-252 1733.58,-264.733 1667.51,-278.341 1616.99,-288.58"/>
<polygon fill="black" stroke="black" points="1607.1,-290.582 1616.01,-284.187 1612,-289.59 1616.9,-288.598 1616.9,-288.598 1616.9,-288.598 1612,-289.59 1617.79,-293.008 1607.1,-290.582 1607.1,-290.582"/>
</g>
<!-- 26&#45;&gt;18 -->
<g id="edge63" class="edge"><title>26&#45;&gt;18</title>
<path fill="none" stroke="black" d="M1493.69,-324.086C1411.49,-357.346 1220.96,-430.778 1054,-468 920.485,-497.766 761.027,-511.442 670.428,-517.224"/>
<polygon fill="black" stroke="black" points="660.265,-517.858 669.966,-512.744 665.256,-517.546 670.246,-517.235 670.246,-517.235 670.246,-517.235 665.256,-517.546 670.526,-521.726 660.265,-517.858 660.265,-517.858"/>
</g>
<!-- 27&#45;&gt;18 -->
<g id="edge64" class="edge"><title>27&#45;&gt;18</title>
<path fill="none" stroke="black" d="M2182.86,-453.723C1922.47,-464.776 945.135,-506.264 670.304,-517.931"/>
<polygon fill="black" stroke="black" points="660.053,-518.366 669.853,-513.446 665.049,-518.154 670.044,-517.942 670.044,-517.942 670.044,-517.942 665.049,-518.154 670.235,-522.438 660.053,-518.366 660.053,-518.366"/>
</g>
<!-- 28 -->
<g id="node29" class="node"><title>28</title>
<polygon fill="none" stroke="black" points="2580.5,-324 2447.5,-324 2447.5,-288 2580.5,-288 2580.5,-324"/>
<text text-anchor="middle" x="2514" y="-302.3" font-family="Times,serif" font-size="14.00">Policies.KLempUCB</text>
</g>
<!-- 28&#45;&gt;27 -->
<g id="edge65" class="edge"><title>28&#45;&gt;27</title>
<path fill="none" stroke="black" d="M2494.02,-324.315C2470.77,-343.789 2430.62,-375.381 2392,-396 2367.79,-408.926 2339.74,-419.991 2314.81,-428.617"/>
<polygon fill="black" stroke="black" points="2305.06,-431.921 2313.08,-424.449 2309.79,-430.316 2314.53,-428.711 2314.53,-428.711 2314.53,-428.711 2309.79,-430.316 2315.97,-432.973 2305.06,-431.921 2305.06,-431.921"/>
</g>
<!-- 49 -->
<g id="node50" class="node"><title>49</title>
<polygon fill="none" stroke="black" points="2660,-396 2550,-396 2550,-360 2660,-360 2660,-396"/>
<text text-anchor="middle" x="2605" y="-374.3" font-family="Times,serif" font-size="14.00">Policies.kullback</text>
</g>
<!-- 28&#45;&gt;49 -->
<g id="edge66" class="edge"><title>28&#45;&gt;49</title>
<path fill="none" stroke="black" d="M2536.49,-324.303C2547.96,-333.119 2562.06,-343.968 2574.48,-353.526"/>
<polygon fill="black" stroke="black" points="2582.76,-359.896 2572.09,-357.365 2578.8,-356.847 2574.84,-353.799 2574.84,-353.799 2574.84,-353.799 2578.8,-356.847 2577.58,-350.232 2582.76,-359.896 2582.76,-359.896"/>
</g>
<!-- 29&#45;&gt;18 -->
<g id="edge67" class="edge"><title>29&#45;&gt;18</title>
<path fill="none" stroke="black" d="M328.093,-462.325C381.794,-473.999 465.928,-492.289 525.981,-505.344"/>
<polygon fill="black" stroke="black" points="535.778,-507.473 525.05,-509.746 530.892,-506.411 526.006,-505.349 526.006,-505.349 526.006,-505.349 530.892,-506.411 526.962,-500.952 535.778,-507.473 535.778,-507.473"/>
</g>
<!-- 30&#45;&gt;27 -->
<g id="edge68" class="edge"><title>30&#45;&gt;27</title>
<path fill="none" stroke="black" d="M2311.74,-396.303C2300.91,-405.119 2287.58,-415.968 2275.84,-425.526"/>
<polygon fill="black" stroke="black" points="2268.01,-431.896 2272.93,-422.093 2271.89,-428.739 2275.77,-425.583 2275.77,-425.583 2275.77,-425.583 2271.89,-428.739 2278.61,-429.073 2268.01,-431.896 2268.01,-431.896"/>
</g>
<!-- 31&#45;&gt;18 -->
<g id="edge69" class="edge"><title>31&#45;&gt;18</title>
<path fill="none" stroke="black" d="M361.667,-396.062C365.722,-416.207 375.387,-449.328 397,-468 432.446,-498.623 483.619,-511.818 525.46,-517.385"/>
<polygon fill="black" stroke="black" points="535.605,-518.612 525.137,-521.879 530.641,-518.012 525.678,-517.411 525.678,-517.411 525.678,-517.411 530.641,-518.012 526.218,-512.944 535.605,-518.612 535.605,-518.612"/>
</g>
<!-- 33&#45;&gt;18 -->
<g id="edge70" class="edge"><title>33&#45;&gt;18</title>
<path fill="none" stroke="black" d="M494.514,-468.124C512.841,-477.488 535.736,-489.186 555.328,-499.197"/>
<polygon fill="black" stroke="black" points="564.357,-503.81 553.405,-503.267 559.905,-501.535 555.452,-499.26 555.452,-499.26 555.452,-499.26 559.905,-501.535 557.5,-495.253 564.357,-503.81 564.357,-503.81"/>
</g>
<!-- 34&#45;&gt;18 -->
<g id="edge71" class="edge"><title>34&#45;&gt;18</title>
<path fill="none" stroke="black" d="M487.617,-324.151C508.594,-361.56 558.567,-450.678 583.432,-495.02"/>
<polygon fill="black" stroke="black" points="588.337,-503.768 579.521,-497.246 585.891,-499.406 583.446,-495.045 583.446,-495.045 583.446,-495.045 585.891,-499.406 587.371,-492.844 588.337,-503.768 588.337,-503.768"/>
</g>
<!-- 35&#45;&gt;34 -->
<g id="edge72" class="edge"><title>35&#45;&gt;34</title>
<path fill="none" stroke="black" d="M495.315,-252.303C492.752,-260.102 489.667,-269.491 486.815,-278.171"/>
<polygon fill="black" stroke="black" points="483.62,-287.896 482.466,-276.991 485.181,-283.146 486.742,-278.395 486.742,-278.395 486.742,-278.395 485.181,-283.146 491.017,-279.8 483.62,-287.896 483.62,-287.896"/>
</g>
<!-- 36&#45;&gt;20 -->
<g id="edge73" class="edge"><title>36&#45;&gt;20</title>
<path fill="none" stroke="black" d="M1049.99,-252.303C1039.28,-261.119 1026.11,-271.968 1014.5,-281.526"/>
<polygon fill="black" stroke="black" points="1006.77,-287.896 1011.63,-278.065 1010.63,-284.717 1014.49,-281.539 1014.49,-281.539 1014.49,-281.539 1010.63,-284.717 1017.35,-285.012 1006.77,-287.896 1006.77,-287.896"/>
</g>
<!-- 37&#45;&gt;27 -->
<g id="edge74" class="edge"><title>37&#45;&gt;27</title>
<path fill="none" stroke="black" d="M2117.83,-396.124C2141.42,-405.778 2171.06,-417.913 2196,-428.122"/>
<polygon fill="black" stroke="black" points="2205.3,-431.932 2194.35,-432.308 2200.68,-430.037 2196.05,-428.143 2196.05,-428.143 2196.05,-428.143 2200.68,-430.037 2197.75,-423.979 2205.3,-431.932 2205.3,-431.932"/>
</g>
<!-- 38&#45;&gt;37 -->
<g id="edge75" class="edge"><title>38&#45;&gt;37</title>
<path fill="none" stroke="black" d="M2076,-324.303C2076,-332.017 2076,-341.288 2076,-349.888"/>
<polygon fill="black" stroke="black" points="2076,-359.896 2071.5,-349.896 2076,-354.896 2076,-349.896 2076,-349.896 2076,-349.896 2076,-354.896 2080.5,-349.896 2076,-359.896 2076,-359.896"/>
</g>
<!-- 39&#45;&gt;38 -->
<g id="edge76" class="edge"><title>39&#45;&gt;38</title>
<path fill="none" stroke="black" d="M2173.44,-252.124C2156.34,-261.404 2135.02,-272.975 2116.68,-282.925"/>
<polygon fill="black" stroke="black" points="2107.68,-287.81 2114.32,-279.086 2112.07,-285.426 2116.47,-283.041 2116.47,-283.041 2116.47,-283.041 2112.07,-285.426 2118.61,-286.996 2107.68,-287.81 2107.68,-287.81"/>
</g>
<!-- 40&#45;&gt;37 -->
<g id="edge77" class="edge"><title>40&#45;&gt;37</title>
<path fill="none" stroke="black" d="M2173.44,-324.124C2156.34,-333.404 2135.02,-344.975 2116.68,-354.925"/>
<polygon fill="black" stroke="black" points="2107.68,-359.81 2114.32,-351.086 2112.07,-357.426 2116.47,-355.041 2116.47,-355.041 2116.47,-355.041 2112.07,-357.426 2118.61,-358.996 2107.68,-359.81 2107.68,-359.81"/>
</g>
<!-- 41&#45;&gt;37 -->
<g id="edge78" class="edge"><title>41&#45;&gt;37</title>
<path fill="none" stroke="black" d="M2282.71,-321.658C2279.76,-322.451 2276.84,-323.236 2274,-324 2225.85,-336.942 2171.08,-351.595 2131.38,-362.209"/>
<polygon fill="black" stroke="black" points="2121.62,-364.817 2130.12,-357.887 2126.45,-363.526 2131.28,-362.235 2131.28,-362.235 2131.28,-362.235 2126.45,-363.526 2132.44,-366.582 2121.62,-364.817 2121.62,-364.817"/>
</g>
<!-- 42&#45;&gt;37 -->
<g id="edge79" class="edge"><title>42&#45;&gt;37</title>
<path fill="none" stroke="black" d="M1798.83,-321.857C1801.93,-322.599 1805,-323.318 1808,-324 1880.99,-340.604 1965.85,-356.879 2020.19,-366.921"/>
<polygon fill="black" stroke="black" points="2030.31,-368.783 2019.66,-371.398 2025.39,-367.878 2020.48,-366.972 2020.48,-366.972 2020.48,-366.972 2025.39,-367.878 2021.29,-362.547 2030.31,-368.783 2030.31,-368.783"/>
</g>
<!-- 43&#45;&gt;37 -->
<g id="edge80" class="edge"><title>43&#45;&gt;37</title>
<path fill="none" stroke="black" d="M1937.77,-324.124C1963.12,-333.821 1995.01,-346.02 2021.77,-356.257"/>
<polygon fill="black" stroke="black" points="2031.38,-359.932 2020.43,-360.562 2026.71,-358.145 2022.04,-356.359 2022.04,-356.359 2022.04,-356.359 2026.71,-358.145 2023.65,-352.156 2031.38,-359.932 2031.38,-359.932"/>
</g>
<!-- 44&#45;&gt;18 -->
<g id="edge81" class="edge"><title>44&#45;&gt;18</title>
<path fill="none" stroke="black" d="M769.349,-324.235C774.535,-356.314 780.695,-425.753 747,-468 728.24,-491.521 698.24,-504.617 670.06,-511.903"/>
<polygon fill="black" stroke="black" points="660.189,-514.245 668.88,-507.558 665.054,-513.09 669.919,-511.936 669.919,-511.936 669.919,-511.936 665.054,-513.09 670.958,-516.314 660.189,-514.245 660.189,-514.245"/>
</g>
<!-- 45&#45;&gt;44 -->
<g id="edge82" class="edge"><title>45&#45;&gt;44</title>
<path fill="none" stroke="black" d="M741.157,-252.303C744.914,-260.272 749.453,-269.9 753.618,-278.736"/>
<polygon fill="black" stroke="black" points="757.937,-287.896 749.602,-280.769 755.804,-283.373 753.672,-278.85 753.672,-278.85 753.672,-278.85 755.804,-283.373 757.743,-276.931 757.937,-287.896 757.937,-287.896"/>
</g>
<!-- 46&#45;&gt;27 -->
<g id="edge83" class="edge"><title>46&#45;&gt;27</title>
<path fill="none" stroke="black" d="M2689.71,-324.234C2690.67,-344.549 2688.79,-377.836 2669,-396 2619.73,-441.231 2428.87,-448.988 2321.49,-449.657"/>
<polygon fill="black" stroke="black" points="2311.36,-449.7 2321.34,-445.157 2316.36,-449.679 2321.36,-449.657 2321.36,-449.657 2321.36,-449.657 2316.36,-449.679 2321.38,-454.157 2311.36,-449.7 2311.36,-449.7"/>
</g>
<!-- 46&#45;&gt;49 -->
<g id="edge84" class="edge"><title>46&#45;&gt;49</title>
<path fill="none" stroke="black" d="M2667.48,-324.303C2657.13,-333.035 2644.41,-343.76 2633.16,-353.25"/>
<polygon fill="black" stroke="black" points="2625.28,-359.896 2630.02,-350.009 2629.1,-356.672 2632.93,-353.449 2632.93,-353.449 2632.93,-353.449 2629.1,-356.672 2635.83,-356.889 2625.28,-359.896 2625.28,-359.896"/>
</g>
<!-- 47&#45;&gt;46 -->
<g id="edge85" class="edge"><title>47&#45;&gt;46</title>
<path fill="none" stroke="black" d="M2547.5,-252.124C2573.38,-261.863 2605.97,-274.128 2633.24,-284.392"/>
<polygon fill="black" stroke="black" points="2642.65,-287.932 2631.7,-288.621 2637.97,-286.171 2633.29,-284.409 2633.29,-284.409 2633.29,-284.409 2637.97,-286.171 2634.87,-280.198 2642.65,-287.932 2642.65,-287.932"/>
</g>
<!-- 47&#45;&gt;49 -->
<g id="edge86" class="edge"><title>47&#45;&gt;49</title>
<path fill="none" stroke="black" d="M2545.24,-252.098C2561.35,-260.569 2578.3,-272.389 2589,-288 2601.37,-306.055 2605.01,-330.84 2605.77,-349.67"/>
<polygon fill="black" stroke="black" points="2605.92,-359.705 2601.27,-349.776 2605.84,-354.706 2605.77,-349.706 2605.77,-349.706 2605.77,-349.706 2605.84,-354.706 2610.27,-349.637 2605.92,-359.705 2605.92,-359.705"/>
</g>
<!-- 48&#45;&gt;46 -->
<g id="edge87" class="edge"><title>48&#45;&gt;46</title>
<path fill="none" stroke="black" d="M2688,-252.303C2688,-260.017 2688,-269.288 2688,-277.888"/>
<polygon fill="black" stroke="black" points="2688,-287.896 2683.5,-277.896 2688,-282.896 2688,-277.896 2688,-277.896 2688,-277.896 2688,-282.896 2692.5,-277.896 2688,-287.896 2688,-287.896"/>
</g>
<!-- 50 -->
<g id="node51" class="node"><title>50</title>
<polygon fill="none" stroke="black" points="4429,-180 4299,-180 4299,-144 4429,-144 4429,-180"/>
<text text-anchor="middle" x="4364" y="-158.3" font-family="Times,serif" font-size="14.00">PoliciesMultiPlayers</text>
</g>
<!-- 51 -->
<g id="node52" class="node"><title>51</title>
<polygon fill="none" stroke="black" points="4669.5,-252 4488.5,-252 4488.5,-216 4669.5,-216 4669.5,-252"/>
<text text-anchor="middle" x="4579" y="-230.3" font-family="Times,serif" font-size="14.00">PoliciesMultiPlayers.ALOHA</text>
</g>
<!-- 50&#45;&gt;51 -->
<g id="edge88" class="edge"><title>50&#45;&gt;51</title>
<path fill="none" stroke="black" d="M4416.32,-180.034C4446.62,-189.9 4484.95,-202.378 4516.79,-212.745"/>
<polygon fill="black" stroke="black" points="4526.45,-215.889 4515.54,-217.072 4521.69,-214.341 4516.94,-212.793 4516.94,-212.793 4516.94,-212.793 4521.69,-214.341 4518.33,-208.514 4526.45,-215.889 4526.45,-215.889"/>
</g>
<!-- 54 -->
<g id="node55" class="node"><title>54</title>
<polygon fill="none" stroke="black" points="3785.5,-252 3546.5,-252 3546.5,-216 3785.5,-216 3785.5,-252"/>
<text text-anchor="middle" x="3666" y="-230.3" font-family="Times,serif" font-size="14.00">PoliciesMultiPlayers.CentralizedCycling</text>
</g>
<!-- 50&#45;&gt;54 -->
<g id="edge89" class="edge"><title>50&#45;&gt;54</title>
<path fill="none" stroke="black" d="M4298.95,-168.211C4194.88,-176.732 3984.27,-194.734 3795.66,-215.835"/>
<polygon fill="black" stroke="black" points="3785.56,-216.971 3794.99,-211.382 3790.53,-216.412 3795.49,-215.853 3795.49,-215.853 3795.49,-215.853 3790.53,-216.412 3796,-220.325 3785.56,-216.971 3785.56,-216.971"/>
</g>
<!-- 55 -->
<g id="node56" class="node"><title>55</title>
<polygon fill="none" stroke="black" points="4030.5,-252 3803.5,-252 3803.5,-216 4030.5,-216 4030.5,-252"/>
<text text-anchor="middle" x="3917" y="-230.3" font-family="Times,serif" font-size="14.00">PoliciesMultiPlayers.CentralizedFixed</text>
</g>
<!-- 50&#45;&gt;55 -->
<g id="edge90" class="edge"><title>50&#45;&gt;55</title>
<path fill="none" stroke="black" d="M4298.52,-173.254C4229.78,-184.019 4120.21,-201.178 4036.08,-214.351"/>
<polygon fill="black" stroke="black" points="4025.96,-215.937 4035.14,-209.944 4030.9,-215.164 4035.84,-214.39 4035.84,-214.39 4035.84,-214.39 4030.9,-215.164 4036.53,-218.836 4025.96,-215.937 4025.96,-215.937"/>
</g>
<!-- 56 -->
<g id="node57" class="node"><title>56</title>
<polygon fill="none" stroke="black" points="4954.5,-252 4687.5,-252 4687.5,-216 4954.5,-216 4954.5,-252"/>
<text text-anchor="middle" x="4821" y="-230.3" font-family="Times,serif" font-size="14.00">PoliciesMultiPlayers.CentralizedMultiplePlay</text>
</g>
<!-- 50&#45;&gt;56 -->
<g id="edge91" class="edge"><title>50&#45;&gt;56</title>
<path fill="none" stroke="black" d="M4429.48,-173.029C4499.82,-183.804 4613.17,-201.167 4699.85,-214.444"/>
<polygon fill="black" stroke="black" points="4709.75,-215.96 4699.19,-218.894 4704.81,-215.203 4699.87,-214.446 4699.87,-214.446 4699.87,-214.446 4704.81,-215.203 4700.55,-209.998 4709.75,-215.96 4709.75,-215.96"/>
</g>
<!-- 59 -->
<g id="node60" class="node"><title>59</title>
<polygon fill="none" stroke="black" points="4239.5,-252 4048.5,-252 4048.5,-216 4239.5,-216 4239.5,-252"/>
<text text-anchor="middle" x="4144" y="-230.3" font-family="Times,serif" font-size="14.00">PoliciesMultiPlayers.OracleFair</text>
</g>
<!-- 50&#45;&gt;59 -->
<g id="edge92" class="edge"><title>50&#45;&gt;59</title>
<path fill="none" stroke="black" d="M4310.46,-180.034C4279.46,-189.9 4240.24,-202.378 4207.66,-212.745"/>
<polygon fill="black" stroke="black" points="4197.78,-215.889 4205.94,-208.569 4202.54,-214.373 4207.31,-212.857 4207.31,-212.857 4207.31,-212.857 4202.54,-214.373 4208.67,-217.145 4197.78,-215.889 4197.78,-215.889"/>
</g>
<!-- 60 -->
<g id="node61" class="node"><title>60</title>
<polygon fill="none" stroke="black" points="4470,-252 4258,-252 4258,-216 4470,-216 4470,-252"/>
<text text-anchor="middle" x="4364" y="-230.3" font-family="Times,serif" font-size="14.00">PoliciesMultiPlayers.OracleNotFair</text>
</g>
<!-- 50&#45;&gt;60 -->
<g id="edge93" class="edge"><title>50&#45;&gt;60</title>
<path fill="none" stroke="black" d="M4364,-180.303C4364,-188.017 4364,-197.288 4364,-205.888"/>
<polygon fill="black" stroke="black" points="4364,-215.896 4359.5,-205.896 4364,-210.896 4364,-205.896 4364,-205.896 4364,-205.896 4364,-210.896 4368.5,-205.896 4364,-215.896 4364,-215.896"/>
</g>
<!-- 61 -->
<g id="node62" class="node"><title>61</title>
<polygon fill="none" stroke="black" points="5143.5,-252 4972.5,-252 4972.5,-216 5143.5,-216 5143.5,-252"/>
<text text-anchor="middle" x="5058" y="-230.3" font-family="Times,serif" font-size="14.00">PoliciesMultiPlayers.Selfish</text>
</g>
<!-- 50&#45;&gt;61 -->
<g id="edge94" class="edge"><title>50&#45;&gt;61</title>
<path fill="none" stroke="black" d="M4429.03,-166.802C4537.54,-173.574 4762.56,-189.431 4962.4,-215.849"/>
<polygon fill="black" stroke="black" points="4972.49,-217.196 4961.99,-220.335 4967.54,-216.535 4962.58,-215.874 4962.58,-215.874 4962.58,-215.874 4967.54,-216.535 4963.18,-211.414 4972.49,-217.196 4972.49,-217.196"/>
</g>
<!-- 63 -->
<g id="node64" class="node"><title>63</title>
<polygon fill="none" stroke="black" points="5342,-252 5162,-252 5162,-216 5342,-216 5342,-252"/>
<text text-anchor="middle" x="5252" y="-230.3" font-family="Times,serif" font-size="14.00">PoliciesMultiPlayers.rhoRand</text>
</g>
<!-- 50&#45;&gt;63 -->
<g id="edge95" class="edge"><title>50&#45;&gt;63</title>
<path fill="none" stroke="black" d="M4429.16,-165.105C4562.79,-169.917 4877.65,-183.786 5151.8,-215.932"/>
<polygon fill="black" stroke="black" points="5161.95,-217.132 5151.49,-220.426 5156.98,-216.544 5152.02,-215.957 5152.02,-215.957 5152.02,-215.957 5156.98,-216.544 5152.55,-211.488 5161.95,-217.132 5161.95,-217.132"/>
</g>
<!-- 53 -->
<g id="node54" class="node"><title>53</title>
<polygon fill="none" stroke="black" points="4465.5,-324 4250.5,-324 4250.5,-288 4465.5,-288 4465.5,-324"/>
<text text-anchor="middle" x="4358" y="-302.3" font-family="Times,serif" font-size="14.00">PoliciesMultiPlayers.BaseMPPolicy</text>
</g>
<!-- 51&#45;&gt;53 -->
<g id="edge96" class="edge"><title>51&#45;&gt;53</title>
<path fill="none" stroke="black" d="M4525.22,-252.034C4494.07,-261.9 4454.68,-274.378 4421.95,-284.745"/>
<polygon fill="black" stroke="black" points="4412.02,-287.889 4420.2,-280.58 4416.79,-286.379 4421.55,-284.87 4421.55,-284.87 4421.55,-284.87 4416.79,-286.379 4422.91,-289.16 4412.02,-287.889 4412.02,-287.889"/>
</g>
<!-- 57 -->
<g id="node58" class="node"><title>57</title>
<polygon fill="none" stroke="black" points="4686.5,-324 4483.5,-324 4483.5,-288 4686.5,-288 4686.5,-324"/>
<text text-anchor="middle" x="4585" y="-302.3" font-family="Times,serif" font-size="14.00">PoliciesMultiPlayers.ChildPointer</text>
</g>
<!-- 51&#45;&gt;57 -->
<g id="edge97" class="edge"><title>51&#45;&gt;57</title>
<path fill="none" stroke="black" d="M4580.48,-252.303C4581.14,-260.017 4581.94,-269.288 4582.68,-277.888"/>
<polygon fill="black" stroke="black" points="4583.53,-287.896 4578.2,-278.317 4583.11,-282.914 4582.68,-277.932 4582.68,-277.932 4582.68,-277.932 4583.11,-282.914 4587.16,-277.548 4583.53,-287.896 4583.53,-287.896"/>
</g>
<!-- 52 -->
<g id="node53" class="node"><title>52</title>
<polygon fill="none" stroke="black" points="4142.5,-324 3885.5,-324 3885.5,-288 4142.5,-288 4142.5,-324"/>
<text text-anchor="middle" x="4014" y="-302.3" font-family="Times,serif" font-size="14.00">PoliciesMultiPlayers.BaseCentralizedPolicy</text>
</g>
<!-- 54&#45;&gt;52 -->
<g id="edge98" class="edge"><title>54&#45;&gt;52</title>
<path fill="none" stroke="black" d="M3750.69,-252.034C3801.62,-262.28 3866.57,-275.345 3919.22,-285.935"/>
<polygon fill="black" stroke="black" points="3929.24,-287.95 3918.55,-290.39 3924.34,-286.964 3919.43,-285.978 3919.43,-285.978 3919.43,-285.978 3924.34,-286.964 3920.32,-281.566 3929.24,-287.95 3929.24,-287.95"/>
</g>
<!-- 54&#45;&gt;53 -->
<g id="edge99" class="edge"><title>54&#45;&gt;53</title>
<path fill="none" stroke="black" d="M3785.56,-251.026C3788.4,-251.359 3791.22,-251.684 3794,-252 3947.91,-269.446 4125.91,-285.486 4240.11,-295.247"/>
<polygon fill="black" stroke="black" points="4250.28,-296.113 4239.93,-299.747 4245.29,-295.688 4240.31,-295.264 4240.31,-295.264 4240.31,-295.264 4245.29,-295.688 4240.69,-290.78 4250.28,-296.113 4250.28,-296.113"/>
</g>
<!-- 54&#45;&gt;57 -->
<g id="edge100" class="edge"><title>54&#45;&gt;57</title>
<path fill="none" stroke="black" d="M3785.54,-251.18C3788.39,-251.467 3791.21,-251.741 3794,-252 4091.97,-279.631 4171.17,-257.561 4473.05,-287.975"/>
<polygon fill="black" stroke="black" points="4483.43,-289.032 4473.02,-292.495 4478.45,-288.525 4473.48,-288.018 4473.48,-288.018 4473.48,-288.018 4478.45,-288.525 4473.94,-283.541 4483.43,-289.032 4483.43,-289.032"/>
</g>
<!-- 55&#45;&gt;52 -->
<g id="edge101" class="edge"><title>55&#45;&gt;52</title>
<path fill="none" stroke="black" d="M3940.98,-252.303C3953.31,-261.204 3968.52,-272.177 3981.85,-281.801"/>
<polygon fill="black" stroke="black" points="3990.3,-287.896 3979.56,-285.693 3986.24,-284.97 3982.19,-282.044 3982.19,-282.044 3982.19,-282.044 3986.24,-284.97 3984.82,-278.395 3990.3,-287.896 3990.3,-287.896"/>
</g>
<!-- 55&#45;&gt;53 -->
<g id="edge102" class="edge"><title>55&#45;&gt;53</title>
<path fill="none" stroke="black" d="M4024.32,-252.034C4089.67,-262.408 4173.23,-275.671 4240.38,-286.33"/>
<polygon fill="black" stroke="black" points="4250.58,-287.95 4240,-290.827 4245.65,-287.166 4240.71,-286.382 4240.71,-286.382 4240.71,-286.382 4245.65,-287.166 4241.41,-281.938 4250.58,-287.95 4250.58,-287.95"/>
</g>
<!-- 55&#45;&gt;57 -->
<g id="edge103" class="edge"><title>55&#45;&gt;57</title>
<path fill="none" stroke="black" d="M4030.62,-251.044C4033.44,-251.374 4036.24,-251.693 4039,-252 4228.61,-273.04 4279.65,-265.563 4473.48,-287.991"/>
<polygon fill="black" stroke="black" points="4483.41,-289.153 4472.96,-292.462 4478.45,-288.573 4473.48,-287.992 4473.48,-287.992 4473.48,-287.992 4478.45,-288.573 4474,-283.523 4483.41,-289.153 4483.41,-289.153"/>
</g>
<!-- 56&#45;&gt;53 -->
<g id="edge104" class="edge"><title>56&#45;&gt;53</title>
<path fill="none" stroke="black" d="M4708.33,-252.034C4637.77,-262.702 4547,-276.425 4475.54,-287.229"/>
<polygon fill="black" stroke="black" points="4465.59,-288.734 4474.81,-282.789 4470.53,-287.986 4475.48,-287.239 4475.48,-287.239 4475.48,-287.239 4470.53,-287.986 4476.15,-291.688 4465.59,-288.734 4465.59,-288.734"/>
</g>
<!-- 56&#45;&gt;57 -->
<g id="edge105" class="edge"><title>56&#45;&gt;57</title>
<path fill="none" stroke="black" d="M4763.57,-252.034C4730.02,-261.985 4687.51,-274.594 4652.39,-285.013"/>
<polygon fill="black" stroke="black" points="4642.69,-287.889 4651,-280.731 4647.48,-286.467 4652.28,-285.045 4652.28,-285.045 4652.28,-285.045 4647.48,-286.467 4653.55,-289.36 4642.69,-287.889 4642.69,-287.889"/>
</g>
<!-- 58 -->
<g id="node59" class="node"><title>58</title>
<polygon fill="none" stroke="black" points="3293.5,-36 3128.5,-36 3128.5,-0 3293.5,-0 3293.5,-36"/>
<text text-anchor="middle" x="3211" y="-14.3" font-family="Times,serif" font-size="14.00">PoliciesMultiPlayers.DMC</text>
</g>
<!-- 59&#45;&gt;52 -->
<g id="edge106" class="edge"><title>59&#45;&gt;52</title>
<path fill="none" stroke="black" d="M4112.2,-252.124C4094.89,-261.446 4073.28,-273.081 4054.74,-283.061"/>
<polygon fill="black" stroke="black" points="4045.92,-287.81 4052.6,-279.107 4050.33,-285.44 4054.73,-283.069 4054.73,-283.069 4054.73,-283.069 4050.33,-285.44 4056.86,-287.031 4045.92,-287.81 4045.92,-287.81"/>
</g>
<!-- 59&#45;&gt;53 -->
<g id="edge107" class="edge"><title>59&#45;&gt;53</title>
<path fill="none" stroke="black" d="M4196.08,-252.034C4226.24,-261.9 4264.39,-274.378 4296.08,-284.745"/>
<polygon fill="black" stroke="black" points="4305.69,-287.889 4294.79,-289.057 4300.94,-286.335 4296.19,-284.78 4296.19,-284.78 4296.19,-284.78 4300.94,-286.335 4297.58,-280.503 4305.69,-287.889 4305.69,-287.889"/>
</g>
<!-- 59&#45;&gt;57 -->
<g id="edge108" class="edge"><title>59&#45;&gt;57</title>
<path fill="none" stroke="black" d="M4239.57,-250.49C4242.75,-251 4245.9,-251.505 4249,-252 4323.74,-263.945 4407.87,-277.215 4473.24,-287.488"/>
<polygon fill="black" stroke="black" points="4483.16,-289.046 4472.58,-291.939 4478.22,-288.27 4473.28,-287.494 4473.28,-287.494 4473.28,-287.494 4478.22,-288.27 4473.98,-283.048 4483.16,-289.046 4483.16,-289.046"/>
</g>
<!-- 60&#45;&gt;52 -->
<g id="edge109" class="edge"><title>60&#45;&gt;52</title>
<path fill="none" stroke="black" d="M4278.83,-252.034C4227.6,-262.28 4162.28,-275.345 4109.33,-285.935"/>
<polygon fill="black" stroke="black" points="4099.25,-287.95 4108.17,-281.576 4104.15,-286.969 4109.06,-285.989 4109.06,-285.989 4109.06,-285.989 4104.15,-286.969 4109.94,-290.401 4099.25,-287.95 4099.25,-287.95"/>
</g>
<!-- 60&#45;&gt;53 -->
<g id="edge110" class="edge"><title>60&#45;&gt;53</title>
<path fill="none" stroke="black" d="M4362.52,-252.303C4361.86,-260.017 4361.06,-269.288 4360.32,-277.888"/>
<polygon fill="black" stroke="black" points="4359.47,-287.896 4355.84,-277.548 4359.89,-282.914 4360.32,-277.932 4360.32,-277.932 4360.32,-277.932 4359.89,-282.914 4364.8,-278.317 4359.47,-287.896 4359.47,-287.896"/>
</g>
<!-- 60&#45;&gt;57 -->
<g id="edge111" class="edge"><title>60&#45;&gt;57</title>
<path fill="none" stroke="black" d="M4417.78,-252.034C4448.93,-261.9 4488.32,-274.378 4521.05,-284.745"/>
<polygon fill="black" stroke="black" points="4530.98,-287.889 4520.09,-289.16 4526.21,-286.379 4521.45,-284.87 4521.45,-284.87 4521.45,-284.87 4526.21,-286.379 4522.8,-280.58 4530.98,-287.889 4530.98,-287.889"/>
</g>
<!-- 61&#45;&gt;53 -->
<g id="edge112" class="edge"><title>61&#45;&gt;53</title>
<path fill="none" stroke="black" d="M4972.25,-250.893C4969.47,-251.285 4966.71,-251.656 4964,-252 4751.08,-279.014 4693.37,-264.766 4475.85,-287.961"/>
<polygon fill="black" stroke="black" points="4465.7,-289.058 4475.16,-283.509 4470.68,-288.521 4475.65,-287.983 4475.65,-287.983 4475.65,-287.983 4470.68,-288.521 4476.13,-292.457 4465.7,-289.058 4465.7,-289.058"/>
</g>
<!-- 61&#45;&gt;57 -->
<g id="edge113" class="edge"><title>61&#45;&gt;57</title>
<path fill="none" stroke="black" d="M4972.47,-250.618C4969.61,-251.092 4966.78,-251.554 4964,-252 4874.22,-266.39 4772.12,-280.541 4696.53,-290.596"/>
<polygon fill="black" stroke="black" points="4686.51,-291.926 4695.83,-286.149 4691.46,-291.268 4696.42,-290.61 4696.42,-290.61 4696.42,-290.61 4691.46,-291.268 4697.01,-295.071 4686.51,-291.926 4686.51,-291.926"/>
</g>
<!-- 62 -->
<g id="node63" class="node"><title>62</title>
<polygon fill="none" stroke="black" points="3478.5,-36 3311.5,-36 3311.5,-0 3478.5,-0 3478.5,-36"/>
<text text-anchor="middle" x="3395" y="-14.3" font-family="Times,serif" font-size="14.00">PoliciesMultiPlayers.TDFS</text>
</g>
<!-- 63&#45;&gt;53 -->
<g id="edge114" class="edge"><title>63&#45;&gt;53</title>
<path fill="none" stroke="black" d="M5161.96,-250.922C5158.94,-251.309 5155.95,-251.67 5153,-252 4856.49,-285.215 4777.07,-258.88 4476.04,-287.962"/>
<polygon fill="black" stroke="black" points="4465.7,-288.975 4475.21,-283.522 4470.67,-288.487 4475.65,-288 4475.65,-288 4475.65,-288 4470.67,-288.487 4476.09,-292.479 4465.7,-288.975 4465.7,-288.975"/>
</g>
<!-- 63&#45;&gt;57 -->
<g id="edge115" class="edge"><title>63&#45;&gt;57</title>
<path fill="none" stroke="black" d="M5161.94,-250.768C5158.92,-251.199 5155.94,-251.611 5153,-252 4995.15,-272.886 4811.54,-288.442 4696.79,-297.125"/>
<polygon fill="black" stroke="black" points="4686.59,-297.892 4696.22,-292.655 4691.57,-297.517 4696.56,-297.142 4696.56,-297.142 4696.56,-297.142 4691.57,-297.517 4696.9,-301.629 4686.59,-297.892 4686.59,-297.892"/>
</g>
<!-- 64 -->
<g id="node65" class="node"><title>64</title>
<polygon fill="none" stroke="black" points="402.5,-108 313.5,-108 313.5,-72 402.5,-72 402.5,-108"/>
<text text-anchor="middle" x="358" y="-86.3" font-family="Times,serif" font-size="14.00">configuration</text>
</g>
<!-- 64&#45;&gt;2 -->
<g id="edge116" class="edge"><title>64&#45;&gt;2</title>
<path fill="none" stroke="black" d="M372.337,-108.303C379.291,-116.695 387.77,-126.93 395.401,-136.139"/>
<polygon fill="black" stroke="black" points="401.828,-143.896 391.983,-139.067 398.638,-140.046 395.448,-136.195 395.448,-136.195 395.448,-136.195 398.638,-140.046 398.913,-133.324 401.828,-143.896 401.828,-143.896"/>
</g>
<!-- 64&#45;&gt;3 -->
<g id="edge117" class="edge"><title>64&#45;&gt;3</title>
<path fill="none" stroke="black" d="M313.255,-100.832C268.4,-110.766 197.106,-126.763 126.098,-143.764"/>
<polygon fill="black" stroke="black" points="116.083,-146.169 124.756,-139.458 120.945,-145.001 125.806,-143.834 125.806,-143.834 125.806,-143.834 120.945,-145.001 126.857,-148.209 116.083,-146.169 116.083,-146.169"/>
</g>
<!-- 64&#45;&gt;4 -->
<g id="edge118" class="edge"><title>64&#45;&gt;4</title>
<path fill="none" stroke="black" d="M315.679,-108.124C291.819,-117.778 261.828,-129.913 236.597,-140.122"/>
<polygon fill="black" stroke="black" points="227.183,-143.932 234.765,-136.009 231.818,-142.056 236.453,-140.181 236.453,-140.181 236.453,-140.181 231.818,-142.056 238.141,-144.352 227.183,-143.932 227.183,-143.932"/>
</g>
<!-- 64&#45;&gt;5 -->
<g id="edge119" class="edge"><title>64&#45;&gt;5</title>
<path fill="none" stroke="black" d="M343.663,-108.303C336.709,-116.695 328.23,-126.93 320.599,-136.139"/>
<polygon fill="black" stroke="black" points="314.172,-143.896 317.087,-133.324 317.362,-140.046 320.552,-136.195 320.552,-136.195 320.552,-136.195 317.362,-140.046 324.017,-139.067 314.172,-143.896 314.172,-143.896"/>
</g>
<!-- 64&#45;&gt;15 -->
<g id="edge120" class="edge"><title>64&#45;&gt;15</title>
<path fill="none" stroke="black" d="M402.699,-93.349C607.727,-104.124 1456.47,-148.727 1650.41,-158.919"/>
<polygon fill="black" stroke="black" points="1660.44,-159.447 1650.22,-163.416 1655.45,-159.184 1650.46,-158.922 1650.46,-158.922 1650.46,-158.922 1655.45,-159.184 1650.69,-154.428 1660.44,-159.447 1660.44,-159.447"/>
</g>
<!-- 65 -->
<g id="node66" class="node"><title>65</title>
<polygon fill="none" stroke="black" points="3133,-108 2969,-108 2969,-72 3133,-72 3133,-108"/>
<text text-anchor="middle" x="3051" y="-86.3" font-family="Times,serif" font-size="14.00">configuration_multiplayers</text>
</g>
<!-- 65&#45;&gt;2 -->
<g id="edge121" class="edge"><title>65&#45;&gt;2</title>
<path fill="none" stroke="black" d="M2968.75,-106.99C2965.8,-107.364 2962.88,-107.703 2960,-108 2832.76,-121.121 852.848,-153.891 477.249,-160.008"/>
<polygon fill="black" stroke="black" points="467.122,-160.173 477.048,-155.511 472.122,-160.092 477.121,-160.01 477.121,-160.01 477.121,-160.01 472.122,-160.092 477.194,-164.51 467.122,-160.173 467.122,-160.173"/>
</g>
<!-- 65&#45;&gt;8 -->
<g id="edge122" class="edge"><title>65&#45;&gt;8</title>
<path fill="none" stroke="black" d="M3050.33,-108.31C3050.48,-127.78 3053.55,-159.367 3070,-180 3080.92,-193.697 3096.19,-204.014 3112.02,-211.725"/>
<polygon fill="black" stroke="black" points="3121.38,-215.97 3110.41,-215.936 3116.82,-213.904 3112.27,-211.838 3112.27,-211.838 3112.27,-211.838 3116.82,-213.904 3114.13,-207.74 3121.38,-215.97 3121.38,-215.97"/>
</g>
<!-- 65&#45;&gt;11 -->
<g id="edge123" class="edge"><title>65&#45;&gt;11</title>
<path fill="none" stroke="black" d="M3046.42,-108.129C3039.91,-132.436 3027.94,-177.181 3020.23,-205.987"/>
<polygon fill="black" stroke="black" points="3017.6,-215.811 3015.84,-204.987 3018.89,-210.981 3020.19,-206.151 3020.19,-206.151 3020.19,-206.151 3018.89,-210.981 3024.53,-207.314 3017.6,-215.811 3017.6,-215.811"/>
</g>
<!-- 65&#45;&gt;15 -->
<g id="edge124" class="edge"><title>65&#45;&gt;15</title>
<path fill="none" stroke="black" d="M2968.74,-106.912C2965.79,-107.308 2962.87,-107.673 2960,-108 2477.73,-162.825 1886.69,-162.565 1729.78,-161.405"/>
<polygon fill="black" stroke="black" points="1719.66,-161.324 1729.69,-156.904 1724.66,-161.364 1729.66,-161.404 1729.66,-161.404 1729.66,-161.404 1724.66,-161.364 1729.62,-165.904 1719.66,-161.324 1719.66,-161.324"/>
</g>
<!-- 65&#45;&gt;50 -->
<g id="edge125" class="edge"><title>65&#45;&gt;50</title>
<path fill="none" stroke="black" d="M3133.13,-95.3788C3371.17,-108.069 4059.02,-144.741 4288.49,-156.974"/>
<polygon fill="black" stroke="black" points="4298.74,-157.521 4288.51,-161.482 4293.74,-157.254 4288.75,-156.988 4288.75,-156.988 4288.75,-156.988 4293.74,-157.254 4288.99,-152.495 4298.74,-157.521 4298.74,-157.521"/>
</g>
<!-- 66 -->
<g id="node67" class="node"><title>66</title>
<polygon fill="none" stroke="black" points="2848,-36 2794,-36 2794,-0 2848,-0 2848,-36"/>
<text text-anchor="middle" x="2821" y="-14.3" font-family="Times,serif" font-size="14.00">main</text>
</g>
<!-- 66&#45;&gt;7 -->
<g id="edge126" class="edge"><title>66&#45;&gt;7</title>
<path fill="none" stroke="black" d="M2842.26,-36.3034C2853.09,-45.1193 2866.42,-55.9679 2878.16,-65.5258"/>
<polygon fill="black" stroke="black" points="2885.99,-71.8957 2875.39,-69.073 2882.11,-68.7393 2878.23,-65.5829 2878.23,-65.5829 2878.23,-65.5829 2882.11,-68.7393 2881.07,-62.0929 2885.99,-71.8957 2885.99,-71.8957"/>
</g>
<!-- 66&#45;&gt;9 -->
<g id="edge127" class="edge"><title>66&#45;&gt;9</title>
<path fill="none" stroke="black" d="M2821,-36.1285C2821,-60.3298 2821,-104.789 2821,-133.607"/>
<polygon fill="black" stroke="black" points="2821,-143.811 2816.5,-133.811 2821,-138.811 2821,-133.811 2821,-133.811 2821,-133.811 2821,-138.811 2825.5,-133.811 2821,-143.811 2821,-143.811"/>
</g>
<!-- 66&#45;&gt;64 -->
<g id="edge128" class="edge"><title>66&#45;&gt;64</title>
<path fill="none" stroke="black" d="M2793.76,-19.7742C2550.49,-26.6881 751.911,-77.8048 412.992,-87.4371"/>
<polygon fill="black" stroke="black" points="402.931,-87.723 412.799,-82.9407 407.929,-87.5809 412.927,-87.4388 412.927,-87.4388 412.927,-87.4388 407.929,-87.5809 413.055,-91.937 402.931,-87.723 402.931,-87.723"/>
</g>
<!-- 67 -->
<g id="node68" class="node"><title>67</title>
<polygon fill="none" stroke="black" points="3110.5,-36 2991.5,-36 2991.5,-0 3110.5,-0 3110.5,-36"/>
<text text-anchor="middle" x="3051" y="-14.3" font-family="Times,serif" font-size="14.00">main_multiplayers</text>
</g>
<!-- 67&#45;&gt;7 -->
<g id="edge129" class="edge"><title>67&#45;&gt;7</title>
<path fill="none" stroke="black" d="M3015.77,-36.1239C2996.42,-45.5307 2972.23,-57.2923 2951.57,-67.3328"/>
<polygon fill="black" stroke="black" points="2942.36,-71.8102 2949.39,-63.3911 2946.86,-69.6243 2951.36,-67.4383 2951.36,-67.4383 2951.36,-67.4383 2946.86,-69.6243 2953.32,-71.4854 2942.36,-71.8102 2942.36,-71.8102"/>
</g>
<!-- 67&#45;&gt;10 -->
<g id="edge130" class="edge"><title>67&#45;&gt;10</title>
<path fill="none" stroke="black" d="M3091.2,-36.063C3108.44,-44.8767 3127.83,-56.9651 3142,-72 3158.81,-89.8368 3170.79,-115.161 3178.14,-134.238"/>
<polygon fill="black" stroke="black" points="3181.66,-143.838 3173.99,-135.996 3179.94,-139.143 3178.22,-134.448 3178.22,-134.448 3178.22,-134.448 3179.94,-139.143 3182.44,-132.901 3181.66,-143.838 3181.66,-143.838"/>
</g>
<!-- 67&#45;&gt;65 -->
<g id="edge131" class="edge"><title>67&#45;&gt;65</title>
<path fill="none" stroke="black" d="M3051,-36.3034C3051,-44.0173 3051,-53.2875 3051,-61.8876"/>
<polygon fill="black" stroke="black" points="3051,-71.8957 3046.5,-61.8956 3051,-66.8957 3051,-61.8957 3051,-61.8957 3051,-61.8957 3051,-66.8957 3055.5,-61.8957 3051,-71.8957 3051,-71.8957"/>
</g>
</g>
</svg>
