<?xml version="1.0" encoding="UTF-8" standalone="no"?>
<!DOCTYPE svg PUBLIC "-//W3C//DTD SVG 1.1//EN"
 "http://www.w3.org/Graphics/SVG/1.1/DTD/svg11.dtd">
<!-- Generated by graphviz version 2.38.0 (20140413.2041)
 -->
<!-- Title: packages_AlgoBandits Pages: 1 -->
<svg width="5745pt" height="548pt"
 viewBox="0.00 0.00 5744.50 548.00" xmlns="http://www.w3.org/2000/svg" xmlns:xlink="http://www.w3.org/1999/xlink">
<g id="graph0" class="graph" transform="scale(1 1) rotate(0) translate(4 544)">
<title>packages_AlgoBandits</title>
<polygon fill="white" stroke="none" points="-4,4 -4,-544 5740.5,-544 5740.5,4 -4,4"/>
<!-- 0 -->
<g id="node1" class="node"><title>0</title>
<polygon fill="none" stroke="black" points="313,-108 259,-108 259,-72 313,-72 313,-108"/>
<text text-anchor="middle" x="286" y="-86.3" font-family="Times,serif" font-size="14.00">Arms</text>
</g>
<!-- 2 -->
<g id="node3" class="node"><title>2</title>
<polygon fill="none" stroke="black" points="584,-180 482,-180 482,-144 584,-144 584,-180"/>
<text text-anchor="middle" x="533" y="-158.3" font-family="Times,serif" font-size="14.00">Arms.Bernoulli</text>
</g>
<!-- 0&#45;&gt;2 -->
<g id="edge1" class="edge"><title>0&#45;&gt;2</title>
<path fill="none" stroke="black" d="M313.377,-98.7587C351.412,-109.538 421.279,-129.338 472.02,-143.718"/>
<polygon fill="black" stroke="black" points="481.899,-146.518 471.051,-148.121 477.088,-145.155 472.278,-143.791 472.278,-143.791 472.278,-143.791 477.088,-145.155 473.505,-139.462 481.899,-146.518 481.899,-146.518"/>
</g>
<!-- 3 -->
<g id="node4" class="node"><title>3</title>
<polygon fill="none" stroke="black" points="344,-180 228,-180 228,-144 344,-144 344,-180"/>
<text text-anchor="middle" x="286" y="-158.3" font-family="Times,serif" font-size="14.00">Arms.Exponential</text>
</g>
<!-- 0&#45;&gt;3 -->
<g id="edge2" class="edge"><title>0&#45;&gt;3</title>
<path fill="none" stroke="black" d="M286,-108.303C286,-116.017 286,-125.288 286,-133.888"/>
<polygon fill="black" stroke="black" points="286,-143.896 281.5,-133.896 286,-138.896 286,-133.896 286,-133.896 286,-133.896 286,-138.896 290.5,-133.896 286,-143.896 286,-143.896"/>
</g>
<!-- 4 -->
<g id="node5" class="node"><title>4</title>
<polygon fill="none" stroke="black" points="463.5,-180 362.5,-180 362.5,-144 463.5,-144 463.5,-180"/>
<text text-anchor="middle" x="413" y="-158.3" font-family="Times,serif" font-size="14.00">Arms.Gaussian</text>
</g>
<!-- 0&#45;&gt;4 -->
<g id="edge3" class="edge"><title>0&#45;&gt;4</title>
<path fill="none" stroke="black" d="M313.245,-106.017C330.611,-115.588 353.417,-128.159 372.839,-138.864"/>
<polygon fill="black" stroke="black" points="381.777,-143.791 370.847,-142.904 377.398,-141.377 373.019,-138.963 373.019,-138.963 373.019,-138.963 377.398,-141.377 375.192,-135.022 381.777,-143.791 381.777,-143.791"/>
</g>
<!-- 5 -->
<g id="node6" class="node"><title>5</title>
<polygon fill="none" stroke="black" points="209.5,-180 116.5,-180 116.5,-144 209.5,-144 209.5,-180"/>
<text text-anchor="middle" x="163" y="-158.3" font-family="Times,serif" font-size="14.00">Arms.Poisson</text>
</g>
<!-- 0&#45;&gt;5 -->
<g id="edge4" class="edge"><title>0&#45;&gt;5</title>
<path fill="none" stroke="black" d="M258.702,-106.535C242.037,-116.02 220.459,-128.3 202.011,-138.799"/>
<polygon fill="black" stroke="black" points="193.242,-143.789 199.707,-134.932 197.587,-141.316 201.933,-138.843 201.933,-138.843 201.933,-138.843 197.587,-141.316 204.159,-142.754 193.242,-143.789 193.242,-143.789"/>
</g>
<!-- 6 -->
<g id="node7" class="node"><title>6</title>
<polygon fill="none" stroke="black" points="98,-180 7.10543e-15,-180 7.10543e-15,-144 98,-144 98,-180"/>
<text text-anchor="middle" x="49" y="-158.3" font-family="Times,serif" font-size="14.00">Arms.Uniform</text>
</g>
<!-- 0&#45;&gt;6 -->
<g id="edge5" class="edge"><title>0&#45;&gt;6</title>
<path fill="none" stroke="black" d="M258.813,-99.0299C222.186,-109.848 156.026,-129.389 107.766,-143.643"/>
<polygon fill="black" stroke="black" points="98.0616,-146.509 106.377,-139.361 102.857,-145.093 107.652,-143.677 107.652,-143.677 107.652,-143.677 102.857,-145.093 108.927,-147.992 98.0616,-146.509 98.0616,-146.509"/>
</g>
<!-- 1 -->
<g id="node2" class="node"><title>1</title>
<polygon fill="none" stroke="black" points="324.5,-252 247.5,-252 247.5,-216 324.5,-216 324.5,-252"/>
<text text-anchor="middle" x="286" y="-230.3" font-family="Times,serif" font-size="14.00">Arms.Arm</text>
</g>
<!-- 2&#45;&gt;1 -->
<g id="edge6" class="edge"><title>2&#45;&gt;1</title>
<path fill="none" stroke="black" d="M481.91,-177.317C444.088,-187.937 391.309,-202.801 345,-216 341.617,-216.964 338.126,-217.962 334.61,-218.97"/>
<polygon fill="black" stroke="black" points="324.71,-221.812 333.08,-214.727 329.516,-220.432 334.321,-219.053 334.321,-219.053 334.321,-219.053 329.516,-220.432 335.563,-223.378 324.71,-221.812 324.71,-221.812"/>
</g>
<!-- 7 -->
<g id="node8" class="node"><title>7</title>
<polygon fill="none" stroke="black" points="452,-252 354,-252 354,-216 452,-216 452,-252"/>
<text text-anchor="middle" x="403" y="-230.3" font-family="Times,serif" font-size="14.00">Arms.kullback</text>
</g>
<!-- 2&#45;&gt;7 -->
<g id="edge7" class="edge"><title>2&#45;&gt;7</title>
<path fill="none" stroke="black" d="M501.198,-180.124C483.886,-189.446 462.279,-201.081 443.744,-211.061"/>
<polygon fill="black" stroke="black" points="434.924,-215.81 441.595,-207.107 439.326,-213.44 443.729,-211.069 443.729,-211.069 443.729,-211.069 439.326,-213.44 445.862,-215.031 434.924,-215.81 434.924,-215.81"/>
</g>
<!-- 3&#45;&gt;1 -->
<g id="edge8" class="edge"><title>3&#45;&gt;1</title>
<path fill="none" stroke="black" d="M286,-180.303C286,-188.017 286,-197.288 286,-205.888"/>
<polygon fill="black" stroke="black" points="286,-215.896 281.5,-205.896 286,-210.896 286,-205.896 286,-205.896 286,-205.896 286,-210.896 290.5,-205.896 286,-215.896 286,-215.896"/>
</g>
<!-- 3&#45;&gt;7 -->
<g id="edge9" class="edge"><title>3&#45;&gt;7</title>
<path fill="none" stroke="black" d="M314.621,-180.124C329.919,-189.276 348.943,-200.658 365.418,-210.515"/>
<polygon fill="black" stroke="black" points="374.269,-215.81 363.377,-214.538 369.978,-213.243 365.687,-210.676 365.687,-210.676 365.687,-210.676 369.978,-213.243 367.998,-206.814 374.269,-215.81 374.269,-215.81"/>
</g>
<!-- 4&#45;&gt;1 -->
<g id="edge10" class="edge"><title>4&#45;&gt;1</title>
<path fill="none" stroke="black" d="M381.932,-180.124C365.173,-189.361 344.294,-200.869 326.298,-210.788"/>
<polygon fill="black" stroke="black" points="317.187,-215.81 323.773,-207.042 321.566,-213.397 325.945,-210.983 325.945,-210.983 325.945,-210.983 321.566,-213.397 328.117,-214.924 317.187,-215.81 317.187,-215.81"/>
</g>
<!-- 4&#45;&gt;7 -->
<g id="edge11" class="edge"><title>4&#45;&gt;7</title>
<path fill="none" stroke="black" d="M410.528,-180.303C409.426,-188.017 408.102,-197.288 406.873,-205.888"/>
<polygon fill="black" stroke="black" points="405.443,-215.896 402.403,-205.36 406.151,-210.946 406.858,-205.996 406.858,-205.996 406.858,-205.996 406.151,-210.946 411.313,-206.633 405.443,-215.896 405.443,-215.896"/>
</g>
<!-- 5&#45;&gt;1 -->
<g id="edge12" class="edge"><title>5&#45;&gt;1</title>
<path fill="none" stroke="black" d="M193.089,-180.124C209.32,-189.361 229.542,-200.869 246.971,-210.788"/>
<polygon fill="black" stroke="black" points="255.795,-215.81 244.878,-214.775 251.45,-213.337 247.104,-210.864 247.104,-210.864 247.104,-210.864 251.45,-213.337 249.33,-206.953 255.795,-215.81 255.795,-215.81"/>
</g>
<!-- 5&#45;&gt;7 -->
<g id="edge13" class="edge"><title>5&#45;&gt;7</title>
<path fill="none" stroke="black" d="M209.736,-177.242C212.87,-178.18 215.98,-179.107 219,-180 260.668,-192.325 307.755,-205.881 343.864,-216.198"/>
<polygon fill="black" stroke="black" points="353.743,-219.018 342.892,-220.601 348.935,-217.646 344.127,-216.273 344.127,-216.273 344.127,-216.273 348.935,-217.646 345.363,-211.946 353.743,-219.018 353.743,-219.018"/>
</g>
<!-- 6&#45;&gt;1 -->
<g id="edge14" class="edge"><title>6&#45;&gt;1</title>
<path fill="none" stroke="black" d="M98.1066,-177.504C139.065,-189.602 197.102,-206.743 237.804,-218.765"/>
<polygon fill="black" stroke="black" points="247.5,-221.629 236.635,-223.112 242.704,-220.212 237.909,-218.796 237.909,-218.796 237.909,-218.796 242.704,-220.212 239.184,-214.48 247.5,-221.629 247.5,-221.629"/>
</g>
<!-- 8 -->
<g id="node9" class="node"><title>8</title>
<polygon fill="none" stroke="black" points="3333,-108 3245,-108 3245,-72 3333,-72 3333,-108"/>
<text text-anchor="middle" x="3289" y="-86.3" font-family="Times,serif" font-size="14.00">Environment</text>
</g>
<!-- 10 -->
<g id="node11" class="node"><title>10</title>
<polygon fill="none" stroke="black" points="3275,-180 3131,-180 3131,-144 3275,-144 3275,-180"/>
<text text-anchor="middle" x="3203" y="-158.3" font-family="Times,serif" font-size="14.00">Environment.Evaluator</text>
</g>
<!-- 8&#45;&gt;10 -->
<g id="edge15" class="edge"><title>8&#45;&gt;10</title>
<path fill="none" stroke="black" d="M3267.74,-108.303C3256.91,-117.119 3243.58,-127.968 3231.84,-137.526"/>
<polygon fill="black" stroke="black" points="3224.01,-143.896 3228.93,-134.093 3227.89,-140.739 3231.77,-137.583 3231.77,-137.583 3231.77,-137.583 3227.89,-140.739 3234.61,-141.073 3224.01,-143.896 3224.01,-143.896"/>
</g>
<!-- 11 -->
<g id="node12" class="node"><title>11</title>
<polygon fill="none" stroke="black" points="3650.5,-180 3435.5,-180 3435.5,-144 3650.5,-144 3650.5,-180"/>
<text text-anchor="middle" x="3543" y="-158.3" font-family="Times,serif" font-size="14.00">Environment.EvaluatorMultiPlayers</text>
</g>
<!-- 8&#45;&gt;11 -->
<g id="edge16" class="edge"><title>8&#45;&gt;11</title>
<path fill="none" stroke="black" d="M3333.19,-105.367C3336.17,-106.275 3339.12,-107.16 3342,-108 3382.39,-119.793 3427.67,-131.836 3465.02,-141.456"/>
<polygon fill="black" stroke="black" points="3474.84,-143.976 3464.03,-145.848 3469.99,-142.732 3465.15,-141.489 3465.15,-141.489 3465.15,-141.489 3469.99,-142.732 3466.27,-137.13 3474.84,-143.976 3474.84,-143.976"/>
</g>
<!-- 12 -->
<g id="node13" class="node"><title>12</title>
<polygon fill="none" stroke="black" points="3468.5,-252 3345.5,-252 3345.5,-216 3468.5,-216 3468.5,-252"/>
<text text-anchor="middle" x="3407" y="-230.3" font-family="Times,serif" font-size="14.00">Environment.MAB</text>
</g>
<!-- 8&#45;&gt;12 -->
<g id="edge17" class="edge"><title>8&#45;&gt;12</title>
<path fill="none" stroke="black" d="M3303.23,-108.129C3323.88,-132.969 3362.25,-179.154 3386.11,-207.858"/>
<polygon fill="black" stroke="black" points="3392.72,-215.811 3382.86,-210.996 3389.52,-211.965 3386.32,-208.12 3386.32,-208.12 3386.32,-208.12 3389.52,-211.965 3389.79,-205.244 3392.72,-215.811 3392.72,-215.811"/>
</g>
<!-- 13 -->
<g id="node14" class="node"><title>13</title>
<polygon fill="none" stroke="black" points="3327,-252 3201,-252 3201,-216 3327,-216 3327,-252"/>
<text text-anchor="middle" x="3264" y="-230.3" font-family="Times,serif" font-size="14.00">Environment.Result</text>
</g>
<!-- 8&#45;&gt;13 -->
<g id="edge18" class="edge"><title>8&#45;&gt;13</title>
<path fill="none" stroke="black" d="M3289.57,-108.266C3289.81,-126.347 3289.19,-155.472 3284,-180 3282.15,-188.756 3279.09,-197.984 3275.91,-206.242"/>
<polygon fill="black" stroke="black" points="3272.05,-215.737 3271.64,-204.778 3273.93,-211.105 3275.81,-206.473 3275.81,-206.473 3275.81,-206.473 3273.93,-211.105 3279.98,-208.168 3272.05,-215.737 3272.05,-215.737"/>
</g>
<!-- 9 -->
<g id="node10" class="node"><title>9</title>
<polygon fill="none" stroke="black" points="5451,-252 5269,-252 5269,-216 5451,-216 5451,-252"/>
<text text-anchor="middle" x="5360" y="-230.3" font-family="Times,serif" font-size="14.00">Environment.CollisionModels</text>
</g>
<!-- 10&#45;&gt;12 -->
<g id="edge19" class="edge"><title>10&#45;&gt;12</title>
<path fill="none" stroke="black" d="M3252.64,-180.034C3281.27,-189.858 3317.45,-202.271 3347.58,-212.611"/>
<polygon fill="black" stroke="black" points="3357.13,-215.889 3346.22,-216.9 3352.4,-214.266 3347.68,-212.644 3347.68,-212.644 3347.68,-212.644 3352.4,-214.266 3349.14,-208.387 3357.13,-215.889 3357.13,-215.889"/>
</g>
<!-- 10&#45;&gt;13 -->
<g id="edge20" class="edge"><title>10&#45;&gt;13</title>
<path fill="none" stroke="black" d="M3218.08,-180.303C3225.39,-188.695 3234.31,-198.93 3242.34,-208.139"/>
<polygon fill="black" stroke="black" points="3249.09,-215.896 3239.13,-211.313 3245.81,-212.126 3242.52,-208.357 3242.52,-208.357 3242.52,-208.357 3245.81,-212.126 3245.92,-205.4 3249.09,-215.896 3249.09,-215.896"/>
</g>
<!-- 15 -->
<g id="node16" class="node"><title>15</title>
<polygon fill="none" stroke="black" points="3484,-324 3330,-324 3330,-288 3484,-288 3484,-324"/>
<text text-anchor="middle" x="3407" y="-302.3" font-family="Times,serif" font-size="14.00">Environment.plotsettings</text>
</g>
<!-- 10&#45;&gt;15 -->
<g id="edge21" class="edge"><title>10&#45;&gt;15</title>
<path fill="none" stroke="black" d="M3194.28,-180.021C3185.65,-199.515 3175.87,-231.41 3192,-252 3208.09,-272.541 3267.57,-286.2 3319.9,-294.501"/>
<polygon fill="black" stroke="black" points="3329.92,-296.039 3319.35,-298.968 3324.98,-295.28 3320.04,-294.521 3320.04,-294.521 3320.04,-294.521 3324.98,-295.28 3320.72,-290.073 3329.92,-296.039 3329.92,-296.039"/>
</g>
<!-- 11&#45;&gt;9 -->
<g id="edge22" class="edge"><title>11&#45;&gt;9</title>
<path fill="none" stroke="black" d="M3650.72,-164.384C3972.75,-168.827 4925.9,-184.265 5258.64,-215.971"/>
<polygon fill="black" stroke="black" points="5268.78,-216.962 5258.39,-220.468 5263.81,-216.475 5258.83,-215.989 5258.83,-215.989 5258.83,-215.989 5263.81,-216.475 5259.27,-211.511 5268.78,-216.962 5268.78,-216.962"/>
</g>
<!-- 11&#45;&gt;12 -->
<g id="edge23" class="edge"><title>11&#45;&gt;12</title>
<path fill="none" stroke="black" d="M3509.73,-180.124C3491.54,-189.488 3468.81,-201.186 3449.36,-211.197"/>
<polygon fill="black" stroke="black" points="3440.4,-215.81 3447.23,-207.233 3444.84,-213.522 3449.29,-211.234 3449.29,-211.234 3449.29,-211.234 3444.84,-213.522 3451.35,-215.235 3440.4,-215.81 3440.4,-215.81"/>
</g>
<!-- 14 -->
<g id="node15" class="node"><title>14</title>
<polygon fill="none" stroke="black" points="3722.5,-252 3525.5,-252 3525.5,-216 3722.5,-216 3722.5,-252"/>
<text text-anchor="middle" x="3624" y="-230.3" font-family="Times,serif" font-size="14.00">Environment.ResultMultiPlayers</text>
</g>
<!-- 11&#45;&gt;14 -->
<g id="edge24" class="edge"><title>11&#45;&gt;14</title>
<path fill="none" stroke="black" d="M3563.02,-180.303C3573.13,-189.035 3585.54,-199.76 3596.52,-209.25"/>
<polygon fill="black" stroke="black" points="3604.21,-215.896 3593.7,-212.762 3600.42,-212.626 3596.64,-209.357 3596.64,-209.357 3596.64,-209.357 3600.42,-212.626 3599.58,-205.952 3604.21,-215.896 3604.21,-215.896"/>
</g>
<!-- 11&#45;&gt;15 -->
<g id="edge25" class="edge"><title>11&#45;&gt;15</title>
<path fill="none" stroke="black" d="M3532.62,-180.236C3520.79,-199.074 3500.21,-229.56 3478,-252 3467.29,-262.821 3454.25,-273.198 3442.28,-281.855"/>
<polygon fill="black" stroke="black" points="3433.8,-287.837 3439.38,-278.395 3437.89,-284.955 3441.97,-282.072 3441.97,-282.072 3441.97,-282.072 3437.89,-284.955 3444.57,-285.749 3433.8,-287.837 3433.8,-287.837"/>
</g>
<!-- 12&#45;&gt;15 -->
<g id="edge26" class="edge"><title>12&#45;&gt;15</title>
<path fill="none" stroke="black" d="M3407,-252.303C3407,-260.017 3407,-269.288 3407,-277.888"/>
<polygon fill="black" stroke="black" points="3407,-287.896 3402.5,-277.896 3407,-282.896 3407,-277.896 3407,-277.896 3407,-277.896 3407,-282.896 3411.5,-277.896 3407,-287.896 3407,-287.896"/>
</g>
<!-- 16 -->
<g id="node17" class="node"><title>16</title>
<polygon fill="none" stroke="black" points="1836.5,-180 1777.5,-180 1777.5,-144 1836.5,-144 1836.5,-180"/>
<text text-anchor="middle" x="1807" y="-158.3" font-family="Times,serif" font-size="14.00">Policies</text>
</g>
<!-- 17 -->
<g id="node18" class="node"><title>17</title>
<polygon fill="none" stroke="black" points="2491.5,-324 2370.5,-324 2370.5,-288 2491.5,-288 2491.5,-324"/>
<text text-anchor="middle" x="2431" y="-302.3" font-family="Times,serif" font-size="14.00">Policies.AdBandits</text>
</g>
<!-- 16&#45;&gt;17 -->
<g id="edge27" class="edge"><title>16&#45;&gt;17</title>
<path fill="none" stroke="black" d="M1836.75,-162.797C1895.14,-163.476 2027.73,-170.401 2127,-216 2149.65,-226.403 2147.46,-241.357 2170,-252 2245.67,-287.734 2275.02,-270.941 2360.6,-287.834"/>
<polygon fill="black" stroke="black" points="2370.46,-289.881 2359.76,-292.256 2365.57,-288.865 2360.67,-287.85 2360.67,-287.85 2360.67,-287.85 2365.57,-288.865 2361.58,-283.444 2370.46,-289.881 2370.46,-289.881"/>
</g>
<!-- 18 -->
<g id="node19" class="node"><title>18</title>
<polygon fill="none" stroke="black" points="2571.5,-468 2480.5,-468 2480.5,-432 2571.5,-432 2571.5,-468"/>
<text text-anchor="middle" x="2526" y="-446.3" font-family="Times,serif" font-size="14.00">Policies.Aggr</text>
</g>
<!-- 16&#45;&gt;18 -->
<g id="edge28" class="edge"><title>16&#45;&gt;18</title>
<path fill="none" stroke="black" d="M1836.59,-165.2C1911.16,-171.094 2104.99,-188.668 2163,-216 2184.64,-226.194 2181.23,-242.101 2203,-252 2263.52,-279.516 2452.07,-241.927 2500,-288 2535.89,-322.497 2534.74,-385.547 2530.51,-421.661"/>
<polygon fill="black" stroke="black" points="2529.13,-431.942 2526,-421.433 2529.8,-426.986 2530.46,-422.031 2530.46,-422.031 2530.46,-422.031 2529.8,-426.986 2534.92,-422.628 2529.13,-431.942 2529.13,-431.942"/>
</g>
<!-- 20 -->
<g id="node21" class="node"><title>20</title>
<polygon fill="none" stroke="black" points="2118,-252 1994,-252 1994,-216 2118,-216 2118,-252"/>
<text text-anchor="middle" x="2056" y="-230.3" font-family="Times,serif" font-size="14.00">Policies.BayesUCB</text>
</g>
<!-- 16&#45;&gt;20 -->
<g id="edge29" class="edge"><title>16&#45;&gt;20</title>
<path fill="none" stroke="black" d="M1836.54,-171.305C1873.01,-181.558 1936.26,-199.337 1985.51,-213.184"/>
<polygon fill="black" stroke="black" points="1995.16,-215.897 1984.32,-217.523 1990.35,-214.544 1985.54,-213.191 1985.54,-213.191 1985.54,-213.191 1990.35,-214.544 1986.75,-208.859 1995.16,-215.897 1995.16,-215.897"/>
</g>
<!-- 23 -->
<g id="node24" class="node"><title>23</title>
<polygon fill="none" stroke="black" points="2563.5,-252 2398.5,-252 2398.5,-216 2563.5,-216 2563.5,-252"/>
<text text-anchor="middle" x="2481" y="-230.3" font-family="Times,serif" font-size="14.00">Policies.EpsilonDecreasing</text>
</g>
<!-- 16&#45;&gt;23 -->
<g id="edge30" class="edge"><title>16&#45;&gt;23</title>
<path fill="none" stroke="black" d="M1836.52,-164.854C1921.69,-170.387 2175.1,-188.148 2384,-216 2385.31,-216.175 2386.63,-216.354 2387.96,-216.539"/>
<polygon fill="black" stroke="black" points="2398.26,-218.031 2387.71,-221.05 2393.31,-217.314 2388.36,-216.597 2388.36,-216.597 2388.36,-216.597 2393.31,-217.314 2389.01,-212.143 2398.26,-218.031 2398.26,-218.031"/>
</g>
<!-- 24 -->
<g id="node25" class="node"><title>24</title>
<polygon fill="none" stroke="black" points="2788,-252 2582,-252 2582,-216 2788,-216 2788,-252"/>
<text text-anchor="middle" x="2685" y="-230.3" font-family="Times,serif" font-size="14.00">Policies.EpsilonDecreasingMEGA</text>
</g>
<!-- 16&#45;&gt;24 -->
<g id="edge31" class="edge"><title>16&#45;&gt;24</title>
<path fill="none" stroke="black" d="M1836.61,-164.196C1937.72,-168.46 2278.71,-184.322 2571.92,-216.053"/>
<polygon fill="black" stroke="black" points="2581.89,-217.14 2571.46,-220.529 2576.92,-216.598 2571.95,-216.056 2571.95,-216.056 2571.95,-216.056 2576.92,-216.598 2572.44,-211.582 2581.89,-217.14 2581.89,-217.14"/>
</g>
<!-- 25 -->
<g id="node26" class="node"><title>25</title>
<polygon fill="none" stroke="black" points="2993.5,-252 2806.5,-252 2806.5,-216 2993.5,-216 2993.5,-252"/>
<text text-anchor="middle" x="2900" y="-230.3" font-family="Times,serif" font-size="14.00">Policies.EpsilonExpDecreasing</text>
</g>
<!-- 16&#45;&gt;25 -->
<g id="edge32" class="edge"><title>16&#45;&gt;25</title>
<path fill="none" stroke="black" d="M1836.66,-163.397C1955.79,-165.241 2411.18,-174.677 2796.09,-215.981"/>
<polygon fill="black" stroke="black" points="2806.31,-217.088 2795.89,-220.485 2801.34,-216.55 2796.37,-216.012 2796.37,-216.012 2796.37,-216.012 2801.34,-216.55 2796.85,-211.538 2806.31,-217.088 2806.31,-217.088"/>
</g>
<!-- 26 -->
<g id="node27" class="node"><title>26</title>
<polygon fill="none" stroke="black" points="2341.5,-252 2212.5,-252 2212.5,-216 2341.5,-216 2341.5,-252"/>
<text text-anchor="middle" x="2277" y="-230.3" font-family="Times,serif" font-size="14.00">Policies.EpsilonFirst</text>
</g>
<!-- 16&#45;&gt;26 -->
<g id="edge33" class="edge"><title>16&#45;&gt;26</title>
<path fill="none" stroke="black" d="M1836.55,-166.216C1901.94,-173.504 2063.72,-192.488 2198,-216 2199.47,-216.257 2200.95,-216.522 2202.44,-216.794"/>
<polygon fill="black" stroke="black" points="2212.41,-218.676 2201.75,-221.242 2207.5,-217.748 2202.58,-216.82 2202.58,-216.82 2202.58,-216.82 2207.5,-217.748 2203.42,-212.399 2212.41,-218.676 2212.41,-218.676"/>
</g>
<!-- 27 -->
<g id="node28" class="node"><title>27</title>
<polygon fill="none" stroke="black" points="2692,-324 2548,-324 2548,-288 2692,-288 2692,-324"/>
<text text-anchor="middle" x="2620" y="-302.3" font-family="Times,serif" font-size="14.00">Policies.EpsilonGreedy</text>
</g>
<!-- 16&#45;&gt;27 -->
<g id="edge34" class="edge"><title>16&#45;&gt;27</title>
<path fill="none" stroke="black" d="M1836.82,-163.432C1936.5,-165.256 2256.98,-174.306 2350,-216 2371.53,-225.648 2368.14,-240.993 2389,-252 2402.42,-259.082 2477.1,-275.604 2537.97,-288.334"/>
<polygon fill="black" stroke="black" points="2547.99,-290.422 2537.28,-292.788 2543.1,-289.402 2538.2,-288.382 2538.2,-288.382 2538.2,-288.382 2543.1,-289.402 2539.12,-283.977 2547.99,-290.422 2547.99,-290.422"/>
</g>
<!-- 28 -->
<g id="node29" class="node"><title>28</title>
<polygon fill="none" stroke="black" points="2873,-396 2781,-396 2781,-360 2873,-360 2873,-396"/>
<text text-anchor="middle" x="2827" y="-374.3" font-family="Times,serif" font-size="14.00">Policies.Exp3</text>
</g>
<!-- 16&#45;&gt;28 -->
<g id="edge35" class="edge"><title>16&#45;&gt;28</title>
<path fill="none" stroke="black" d="M1836.6,-163.17C2016.83,-164.347 2960.46,-172.576 3002,-216 3052.7,-268.994 2948.77,-325.967 2880.4,-355.878"/>
<polygon fill="black" stroke="black" points="2871,-359.916 2878.41,-351.832 2875.6,-357.941 2880.19,-355.966 2880.19,-355.966 2880.19,-355.966 2875.6,-357.941 2881.97,-360.1 2871,-359.916 2871,-359.916"/>
</g>
<!-- 31 -->
<g id="node32" class="node"><title>31</title>
<polygon fill="none" stroke="black" points="2938,-468 2834,-468 2834,-432 2938,-432 2938,-468"/>
<text text-anchor="middle" x="2886" y="-446.3" font-family="Times,serif" font-size="14.00">Policies.MEGA</text>
</g>
<!-- 16&#45;&gt;31 -->
<g id="edge36" class="edge"><title>16&#45;&gt;31</title>
<path fill="none" stroke="black" d="M1836.53,-163.146C2018.44,-164.188 2980.67,-171.783 3023,-216 3085.63,-281.422 2975.95,-380.638 2918.18,-425.504"/>
<polygon fill="black" stroke="black" points="2910.06,-431.718 2915.27,-422.067 2914.03,-428.679 2918,-425.641 2918,-425.641 2918,-425.641 2914.03,-428.679 2920.74,-429.214 2910.06,-431.718 2910.06,-431.718"/>
</g>
<!-- 32 -->
<g id="node33" class="node"><title>32</title>
<polygon fill="none" stroke="black" points="1168.5,-396 1067.5,-396 1067.5,-360 1168.5,-360 1168.5,-396"/>
<text text-anchor="middle" x="1118" y="-374.3" font-family="Times,serif" font-size="14.00">Policies.MOSS</text>
</g>
<!-- 16&#45;&gt;32 -->
<g id="edge37" class="edge"><title>16&#45;&gt;32</title>
<path fill="none" stroke="black" d="M1777.37,-163.134C1653.25,-163.982 1179.45,-170.219 1133,-216 1097.7,-250.796 1103.96,-314.184 1111.24,-350.169"/>
<polygon fill="black" stroke="black" points="1113.39,-359.971 1106.85,-351.166 1112.32,-355.087 1111.25,-350.203 1111.25,-350.203 1111.25,-350.203 1112.32,-355.087 1115.64,-349.24 1113.39,-359.971 1113.39,-359.971"/>
</g>
<!-- 33 -->
<g id="node34" class="node"><title>33</title>
<polygon fill="none" stroke="black" points="3125.5,-468 2988.5,-468 2988.5,-432 3125.5,-432 3125.5,-468"/>
<text text-anchor="middle" x="3057" y="-446.3" font-family="Times,serif" font-size="14.00">Policies.MusicalChair</text>
</g>
<!-- 16&#45;&gt;33 -->
<g id="edge38" class="edge"><title>16&#45;&gt;33</title>
<path fill="none" stroke="black" d="M1836.76,-163.15C2021.18,-164.22 3001.78,-171.972 3046,-216 3100.81,-270.568 3079.96,-373.399 3065.84,-422.109"/>
<polygon fill="black" stroke="black" points="3062.87,-431.916 3061.46,-421.042 3064.32,-427.131 3065.77,-422.345 3065.77,-422.345 3065.77,-422.345 3064.32,-427.131 3070.07,-423.648 3062.87,-431.916 3062.87,-431.916"/>
</g>
<!-- 35 -->
<g id="node36" class="node"><title>35</title>
<polygon fill="none" stroke="black" points="3235,-396 3125,-396 3125,-360 3235,-360 3235,-396"/>
<text text-anchor="middle" x="3180" y="-374.3" font-family="Times,serif" font-size="14.00">Policies.Softmax</text>
</g>
<!-- 16&#45;&gt;35 -->
<g id="edge39" class="edge"><title>16&#45;&gt;35</title>
<path fill="none" stroke="black" d="M1836.58,-163.313C2025.46,-165.425 3056.77,-178.642 3111,-216 3155.56,-246.699 3171.51,-312.503 3177.1,-349.781"/>
<polygon fill="black" stroke="black" points="3178.46,-359.926 3172.67,-350.617 3177.79,-354.97 3177.13,-350.015 3177.13,-350.015 3177.13,-350.015 3177.79,-354.97 3181.59,-349.414 3178.46,-359.926 3178.46,-359.926"/>
</g>
<!-- 36 -->
<g id="node37" class="node"><title>36</title>
<polygon fill="none" stroke="black" points="848,-324 702,-324 702,-288 848,-288 848,-324"/>
<text text-anchor="middle" x="775" y="-302.3" font-family="Times,serif" font-size="14.00">Policies.TakeFixedArm</text>
</g>
<!-- 16&#45;&gt;36 -->
<g id="edge40" class="edge"><title>16&#45;&gt;36</title>
<path fill="none" stroke="black" d="M1777.41,-163.238C1602.32,-164.788 708.411,-174.711 669,-216 657.953,-227.574 660.588,-238.39 669,-252 677.341,-265.496 690.274,-275.67 704.276,-283.299"/>
<polygon fill="black" stroke="black" points="713.595,-287.954 702.638,-287.511 709.122,-285.72 704.649,-283.485 704.649,-283.485 704.649,-283.485 709.122,-285.72 706.66,-279.46 713.595,-287.954 713.595,-287.954"/>
</g>
<!-- 37 -->
<g id="node38" class="node"><title>37</title>
<polygon fill="none" stroke="black" points="871.5,-252 678.5,-252 678.5,-216 871.5,-216 871.5,-252"/>
<text text-anchor="middle" x="775" y="-230.3" font-family="Times,serif" font-size="14.00">Policies.TakeRandomFixedArm</text>
</g>
<!-- 16&#45;&gt;37 -->
<g id="edge41" class="edge"><title>16&#45;&gt;37</title>
<path fill="none" stroke="black" d="M1777.32,-163.599C1663.04,-166.138 1240.33,-177.65 881.764,-215.99"/>
<polygon fill="black" stroke="black" points="871.708,-217.074 881.168,-211.528 876.679,-216.538 881.65,-216.002 881.65,-216.002 881.65,-216.002 876.679,-216.538 882.133,-220.476 871.708,-217.074 871.708,-217.074"/>
</g>
<!-- 38 -->
<g id="node39" class="node"><title>38</title>
<polygon fill="none" stroke="black" points="1976,-252 1854,-252 1854,-216 1976,-216 1976,-252"/>
<text text-anchor="middle" x="1915" y="-230.3" font-family="Times,serif" font-size="14.00">Policies.Thompson</text>
</g>
<!-- 16&#45;&gt;38 -->
<g id="edge42" class="edge"><title>16&#45;&gt;38</title>
<path fill="none" stroke="black" d="M1833.42,-180.124C1847.41,-189.192 1864.78,-200.448 1879.89,-210.241"/>
<polygon fill="black" stroke="black" points="1888.48,-215.81 1877.64,-214.147 1884.28,-213.091 1880.09,-210.371 1880.09,-210.371 1880.09,-210.371 1884.28,-213.091 1882.53,-206.595 1888.48,-215.81 1888.48,-215.81"/>
</g>
<!-- 39 -->
<g id="node40" class="node"><title>39</title>
<polygon fill="none" stroke="black" points="1714.5,-396 1623.5,-396 1623.5,-360 1714.5,-360 1714.5,-396"/>
<text text-anchor="middle" x="1669" y="-374.3" font-family="Times,serif" font-size="14.00">Policies.UCB</text>
</g>
<!-- 16&#45;&gt;39 -->
<g id="edge43" class="edge"><title>16&#45;&gt;39</title>
<path fill="none" stroke="black" d="M1777.32,-164.457C1709.49,-168.364 1545.84,-181.239 1505,-216 1467.48,-247.934 1450.23,-284.739 1480,-324 1496.18,-345.341 1563.73,-360.455 1613.48,-368.944"/>
<polygon fill="black" stroke="black" points="1623.49,-370.604 1612.88,-373.406 1618.55,-369.785 1613.62,-368.967 1613.62,-368.967 1613.62,-368.967 1618.55,-369.785 1614.36,-364.528 1623.49,-370.604 1623.49,-370.604"/>
</g>
<!-- 40 -->
<g id="node41" class="node"><title>40</title>
<polygon fill="none" stroke="black" points="1590.5,-324 1489.5,-324 1489.5,-288 1590.5,-288 1590.5,-324"/>
<text text-anchor="middle" x="1540" y="-302.3" font-family="Times,serif" font-size="14.00">Policies.UCBV</text>
</g>
<!-- 16&#45;&gt;40 -->
<g id="edge44" class="edge"><title>16&#45;&gt;40</title>
<path fill="none" stroke="black" d="M1778.22,-180.166C1740.94,-202.326 1677.91,-239.524 1654,-252 1632.69,-263.122 1608.62,-274.483 1588.1,-283.82"/>
<polygon fill="black" stroke="black" points="1578.95,-287.959 1586.21,-279.738 1583.5,-285.899 1588.06,-283.839 1588.06,-283.839 1588.06,-283.839 1583.5,-285.899 1589.91,-287.939 1578.95,-287.959 1578.95,-287.959"/>
</g>
<!-- 41 -->
<g id="node42" class="node"><title>41</title>
<polygon fill="none" stroke="black" points="1645.5,-252 1514.5,-252 1514.5,-216 1645.5,-216 1645.5,-252"/>
<text text-anchor="middle" x="1580" y="-230.3" font-family="Times,serif" font-size="14.00">Policies.UCBVtuned</text>
</g>
<!-- 16&#45;&gt;41 -->
<g id="edge45" class="edge"><title>16&#45;&gt;41</title>
<path fill="none" stroke="black" d="M1777.32,-172.151C1743.92,-182.453 1688.62,-199.505 1645.05,-212.94"/>
<polygon fill="black" stroke="black" points="1635.38,-215.922 1643.61,-208.675 1640.16,-214.449 1644.94,-212.975 1644.94,-212.975 1644.94,-212.975 1640.16,-214.449 1646.26,-217.276 1635.38,-215.922 1635.38,-215.922"/>
</g>
<!-- 42 -->
<g id="node43" class="node"><title>42</title>
<polygon fill="none" stroke="black" points="1729,-324 1609,-324 1609,-288 1729,-288 1729,-324"/>
<text text-anchor="middle" x="1669" y="-302.3" font-family="Times,serif" font-size="14.00">Policies.UCBalpha</text>
</g>
<!-- 16&#45;&gt;42 -->
<g id="edge46" class="edge"><title>16&#45;&gt;42</title>
<path fill="none" stroke="black" d="M1790.35,-180.129C1766.01,-205.183 1720.56,-251.948 1692.72,-280.594"/>
<polygon fill="black" stroke="black" points="1685.71,-287.811 1689.45,-277.503 1689.19,-284.225 1692.67,-280.639 1692.67,-280.639 1692.67,-280.639 1689.19,-284.225 1695.9,-283.776 1685.71,-287.811 1685.71,-287.811"/>
</g>
<!-- 43 -->
<g id="node44" class="node"><title>43</title>
<polygon fill="none" stroke="black" points="1855,-324 1747,-324 1747,-288 1855,-288 1855,-324"/>
<text text-anchor="middle" x="1801" y="-302.3" font-family="Times,serif" font-size="14.00">Policies.UCBopt</text>
</g>
<!-- 16&#45;&gt;43 -->
<g id="edge47" class="edge"><title>16&#45;&gt;43</title>
<path fill="none" stroke="black" d="M1792.67,-180.434C1785.55,-190.238 1777.69,-203.077 1774,-216 1769.6,-231.384 1770.27,-236.442 1774,-252 1776.21,-261.193 1780.29,-270.588 1784.62,-278.866"/>
<polygon fill="black" stroke="black" points="1789.53,-287.667 1780.73,-281.128 1787.1,-283.301 1784.66,-278.935 1784.66,-278.935 1784.66,-278.935 1787.1,-283.301 1788.59,-276.742 1789.53,-287.667 1789.53,-287.667"/>
</g>
<!-- 44 -->
<g id="node45" class="node"><title>44</title>
<polygon fill="none" stroke="black" points="1986.5,-324 1873.5,-324 1873.5,-288 1986.5,-288 1986.5,-324"/>
<text text-anchor="middle" x="1930" y="-302.3" font-family="Times,serif" font-size="14.00">Policies.UCBplus</text>
</g>
<!-- 16&#45;&gt;44 -->
<g id="edge48" class="edge"><title>16&#45;&gt;44</title>
<path fill="none" stroke="black" d="M1803.08,-180.07C1799.69,-199.319 1797.36,-230.704 1812,-252 1819.36,-262.707 1844.18,-274.563 1869.17,-284.342"/>
<polygon fill="black" stroke="black" points="1878.71,-287.982 1867.77,-288.625 1874.04,-286.201 1869.37,-284.42 1869.37,-284.42 1869.37,-284.42 1874.04,-286.201 1870.97,-280.215 1878.71,-287.982 1878.71,-287.982"/>
</g>
<!-- 45 -->
<g id="node46" class="node"><title>45</title>
<polygon fill="none" stroke="black" points="2157,-324 2005,-324 2005,-288 2157,-288 2157,-324"/>
<text text-anchor="middle" x="2081" y="-302.3" font-family="Times,serif" font-size="14.00">Policies.UCBrandomInit</text>
</g>
<!-- 16&#45;&gt;45 -->
<g id="edge49" class="edge"><title>16&#45;&gt;45</title>
<path fill="none" stroke="black" d="M1809.55,-180.198C1813.49,-200.478 1823.05,-233.73 1845,-252 1851.02,-257.006 1930.07,-274.159 1995.05,-287.611"/>
<polygon fill="black" stroke="black" points="2004.94,-289.651 1994.24,-292.037 2000.04,-288.641 1995.15,-287.63 1995.15,-287.63 1995.15,-287.63 2000.04,-288.641 1996.06,-283.223 2004.94,-289.651 2004.94,-289.651"/>
</g>
<!-- 46 -->
<g id="node47" class="node"><title>46</title>
<polygon fill="none" stroke="black" points="1086,-324 976,-324 976,-288 1086,-288 1086,-324"/>
<text text-anchor="middle" x="1031" y="-302.3" font-family="Times,serif" font-size="14.00">Policies.Uniform</text>
</g>
<!-- 16&#45;&gt;46 -->
<g id="edge50" class="edge"><title>16&#45;&gt;46</title>
<path fill="none" stroke="black" d="M1777.37,-163.808C1650.96,-167.446 1160.38,-183.556 1100,-216 1074.31,-229.803 1055.13,-257.735 1043.6,-278.645"/>
<polygon fill="black" stroke="black" points="1038.84,-287.683 1039.52,-276.738 1041.17,-283.258 1043.5,-278.834 1043.5,-278.834 1043.5,-278.834 1041.17,-283.258 1047.48,-280.93 1038.84,-287.683 1038.84,-287.683"/>
</g>
<!-- 47 -->
<g id="node48" class="node"><title>47</title>
<polygon fill="none" stroke="black" points="1048,-252 890,-252 890,-216 1048,-216 1048,-252"/>
<text text-anchor="middle" x="969" y="-230.3" font-family="Times,serif" font-size="14.00">Policies.UniformOnSome</text>
</g>
<!-- 16&#45;&gt;47 -->
<g id="edge51" class="edge"><title>16&#45;&gt;47</title>
<path fill="none" stroke="black" d="M1777.43,-163.937C1676.85,-167.372 1338.9,-180.95 1062,-216 1060.72,-216.162 1059.43,-216.331 1058.13,-216.505"/>
<polygon fill="black" stroke="black" points="1048.06,-217.939 1057.32,-212.074 1053.01,-217.234 1057.96,-216.529 1057.96,-216.529 1057.96,-216.529 1053.01,-217.234 1058.59,-220.984 1048.06,-217.939 1048.06,-217.939"/>
</g>
<!-- 48 -->
<g id="node49" class="node"><title>48</title>
<polygon fill="none" stroke="black" points="1432.5,-324 1331.5,-324 1331.5,-288 1432.5,-288 1432.5,-324"/>
<text text-anchor="middle" x="1382" y="-302.3" font-family="Times,serif" font-size="14.00">Policies.klUCB</text>
</g>
<!-- 16&#45;&gt;48 -->
<g id="edge52" class="edge"><title>16&#45;&gt;48</title>
<path fill="none" stroke="black" d="M1777.48,-163.988C1677.09,-167.647 1353.47,-182.012 1323,-216 1304.74,-236.374 1327.14,-262.839 1349.4,-281.599"/>
<polygon fill="black" stroke="black" points="1357.19,-287.891 1346.59,-285.114 1353.3,-284.751 1349.41,-281.612 1349.41,-281.612 1349.41,-281.612 1353.3,-284.751 1352.24,-278.11 1357.19,-287.891 1357.19,-287.891"/>
</g>
<!-- 49 -->
<g id="node50" class="node"><title>49</title>
<polygon fill="none" stroke="black" points="1276,-252 1142,-252 1142,-216 1276,-216 1276,-252"/>
<text text-anchor="middle" x="1209" y="-230.3" font-family="Times,serif" font-size="14.00">Policies.klUCBHPlus</text>
</g>
<!-- 16&#45;&gt;49 -->
<g id="edge53" class="edge"><title>16&#45;&gt;49</title>
<path fill="none" stroke="black" d="M1777.42,-164.942C1698.13,-170.385 1474.32,-187.29 1290,-216 1288.72,-216.199 1287.43,-216.405 1286.14,-216.617"/>
<polygon fill="black" stroke="black" points="1276.08,-218.356 1285.17,-212.218 1281.01,-217.504 1285.94,-216.652 1285.94,-216.652 1285.94,-216.652 1281.01,-217.504 1286.7,-221.086 1276.08,-218.356 1276.08,-218.356"/>
</g>
<!-- 50 -->
<g id="node51" class="node"><title>50</title>
<polygon fill="none" stroke="black" points="1457.5,-252 1332.5,-252 1332.5,-216 1457.5,-216 1457.5,-252"/>
<text text-anchor="middle" x="1395" y="-230.3" font-family="Times,serif" font-size="14.00">Policies.klUCBPlus</text>
</g>
<!-- 16&#45;&gt;50 -->
<g id="edge54" class="edge"><title>16&#45;&gt;50</title>
<path fill="none" stroke="black" d="M1777.32,-167.081C1718.75,-175.271 1584.24,-194.751 1472,-216 1470.53,-216.279 1469.04,-216.564 1467.55,-216.856"/>
<polygon fill="black" stroke="black" points="1457.55,-218.859 1466.47,-212.482 1462.45,-217.877 1467.36,-216.894 1467.36,-216.894 1467.36,-216.894 1462.45,-217.877 1468.24,-221.307 1457.55,-218.859 1457.55,-218.859"/>
</g>
<!-- 19 -->
<g id="node20" class="node"><title>19</title>
<polygon fill="none" stroke="black" points="2631,-540 2507,-540 2507,-504 2631,-504 2631,-540"/>
<text text-anchor="middle" x="2569" y="-518.3" font-family="Times,serif" font-size="14.00">Policies.BasePolicy</text>
</g>
<!-- 17&#45;&gt;19 -->
<g id="edge55" class="edge"><title>17&#45;&gt;19</title>
<path fill="none" stroke="black" d="M2430.9,-324.208C2431.59,-355.94 2437.22,-424.404 2471,-468 2481.2,-481.168 2495.63,-491.474 2510.29,-499.354"/>
<polygon fill="black" stroke="black" points="2519.41,-503.951 2508.46,-503.469 2514.95,-501.701 2510.48,-499.45 2510.48,-499.45 2510.48,-499.45 2514.95,-501.701 2512.51,-495.432 2519.41,-503.951 2519.41,-503.951"/>
</g>
<!-- 22 -->
<g id="node23" class="node"><title>22</title>
<polygon fill="none" stroke="black" points="2356,-396 2268,-396 2268,-360 2356,-360 2356,-396"/>
<text text-anchor="middle" x="2312" y="-374.3" font-family="Times,serif" font-size="14.00">Policies.Beta</text>
</g>
<!-- 17&#45;&gt;22 -->
<g id="edge56" class="edge"><title>17&#45;&gt;22</title>
<path fill="none" stroke="black" d="M2401.89,-324.124C2386.33,-333.276 2366.98,-344.658 2350.22,-354.515"/>
<polygon fill="black" stroke="black" points="2341.22,-359.81 2347.56,-350.861 2345.53,-357.275 2349.84,-354.74 2349.84,-354.74 2349.84,-354.74 2345.53,-357.275 2352.12,-358.619 2341.22,-359.81 2341.22,-359.81"/>
</g>
<!-- 18&#45;&gt;19 -->
<g id="edge57" class="edge"><title>18&#45;&gt;19</title>
<path fill="none" stroke="black" d="M2536.63,-468.303C2541.63,-476.441 2547.69,-486.311 2553.21,-495.299"/>
<polygon fill="black" stroke="black" points="2558.49,-503.896 2549.42,-497.73 2555.88,-499.635 2553.26,-495.375 2553.26,-495.375 2553.26,-495.375 2555.88,-499.635 2557.09,-493.019 2558.49,-503.896 2558.49,-503.896"/>
</g>
<!-- 21 -->
<g id="node22" class="node"><title>21</title>
<polygon fill="none" stroke="black" points="2353,-324 2175,-324 2175,-288 2353,-288 2353,-324"/>
<text text-anchor="middle" x="2264" y="-302.3" font-family="Times,serif" font-size="14.00">Policies.BayesianIndexPolicy</text>
</g>
<!-- 20&#45;&gt;21 -->
<g id="edge58" class="edge"><title>20&#45;&gt;21</title>
<path fill="none" stroke="black" d="M2106.62,-252.034C2135.81,-261.858 2172.69,-274.271 2203.42,-284.611"/>
<polygon fill="black" stroke="black" points="2213.16,-287.889 2202.24,-288.964 2208.42,-286.294 2203.68,-284.7 2203.68,-284.7 2203.68,-284.7 2208.42,-286.294 2205.11,-280.435 2213.16,-287.889 2213.16,-287.889"/>
</g>
<!-- 21&#45;&gt;22 -->
<g id="edge59" class="edge"><title>21&#45;&gt;22</title>
<path fill="none" stroke="black" d="M2275.87,-324.303C2281.5,-332.526 2288.35,-342.517 2294.57,-351.579"/>
<polygon fill="black" stroke="black" points="2300.27,-359.896 2290.9,-354.193 2297.44,-355.772 2294.62,-351.648 2294.62,-351.648 2294.62,-351.648 2297.44,-355.772 2298.33,-349.103 2300.27,-359.896 2300.27,-359.896"/>
</g>
<!-- 29 -->
<g id="node30" class="node"><title>29</title>
<polygon fill="none" stroke="black" points="1668,-468 1540,-468 1540,-432 1668,-432 1668,-468"/>
<text text-anchor="middle" x="1604" y="-446.3" font-family="Times,serif" font-size="14.00">Policies.IndexPolicy</text>
</g>
<!-- 21&#45;&gt;29 -->
<g id="edge60" class="edge"><title>21&#45;&gt;29</title>
<path fill="none" stroke="black" d="M2184.72,-324.058C2056,-351.753 1803.36,-406.108 1678.07,-433.063"/>
<polygon fill="black" stroke="black" points="1668.18,-435.192 1677.01,-428.689 1673.07,-434.14 1677.95,-433.089 1677.95,-433.089 1677.95,-433.089 1673.07,-434.14 1678.9,-437.488 1668.18,-435.192 1668.18,-435.192"/>
</g>
<!-- 34 -->
<g id="node35" class="node"><title>34</title>
<polygon fill="none" stroke="black" points="2368,-468 2256,-468 2256,-432 2368,-432 2368,-468"/>
<text text-anchor="middle" x="2312" y="-446.3" font-family="Times,serif" font-size="14.00">Policies.Posterior</text>
</g>
<!-- 22&#45;&gt;34 -->
<g id="edge61" class="edge"><title>22&#45;&gt;34</title>
<path fill="none" stroke="black" d="M2312,-396.303C2312,-404.017 2312,-413.288 2312,-421.888"/>
<polygon fill="black" stroke="black" points="2312,-431.896 2307.5,-421.896 2312,-426.896 2312,-421.896 2312,-421.896 2312,-421.896 2312,-426.896 2316.5,-421.896 2312,-431.896 2312,-431.896"/>
</g>
<!-- 23&#45;&gt;27 -->
<g id="edge62" class="edge"><title>23&#45;&gt;27</title>
<path fill="none" stroke="black" d="M2515,-252.124C2533.6,-261.488 2556.83,-273.186 2576.71,-283.197"/>
<polygon fill="black" stroke="black" points="2585.87,-287.81 2574.91,-287.332 2581.4,-285.561 2576.93,-283.312 2576.93,-283.312 2576.93,-283.312 2581.4,-285.561 2578.96,-279.293 2585.87,-287.81 2585.87,-287.81"/>
</g>
<!-- 24&#45;&gt;27 -->
<g id="edge63" class="edge"><title>24&#45;&gt;27</title>
<path fill="none" stroke="black" d="M2668.93,-252.303C2661.06,-260.78 2651.44,-271.136 2642.83,-280.417"/>
<polygon fill="black" stroke="black" points="2635.88,-287.896 2639.39,-277.506 2639.28,-284.232 2642.69,-280.568 2642.69,-280.568 2642.69,-280.568 2639.28,-284.232 2645.98,-283.63 2635.88,-287.896 2635.88,-287.896"/>
</g>
<!-- 25&#45;&gt;27 -->
<g id="edge64" class="edge"><title>25&#45;&gt;27</title>
<path fill="none" stroke="black" d="M2831.86,-252.034C2791.55,-262.113 2740.33,-274.918 2698.35,-285.412"/>
<polygon fill="black" stroke="black" points="2688.44,-287.889 2697.05,-281.098 2693.29,-286.676 2698.14,-285.464 2698.14,-285.464 2698.14,-285.464 2693.29,-286.676 2699.24,-289.829 2688.44,-287.889 2688.44,-287.889"/>
</g>
<!-- 26&#45;&gt;27 -->
<g id="edge65" class="edge"><title>26&#45;&gt;27</title>
<path fill="none" stroke="black" d="M2341.65,-248.989C2346.51,-250.016 2351.33,-251.029 2356,-252 2390.05,-259.081 2473.7,-275.835 2537.79,-288.625"/>
<polygon fill="black" stroke="black" points="2547.9,-290.642 2537.21,-293.098 2543,-289.664 2538.09,-288.685 2538.09,-288.685 2538.09,-288.685 2543,-289.664 2538.97,-284.272 2547.9,-290.642 2547.9,-290.642"/>
</g>
<!-- 27&#45;&gt;19 -->
<g id="edge66" class="edge"><title>27&#45;&gt;19</title>
<path fill="none" stroke="black" d="M2615.91,-324.151C2607.07,-361.247 2586.11,-449.19 2575.46,-493.897"/>
<polygon fill="black" stroke="black" points="2573.11,-503.768 2571.05,-492.997 2574.27,-498.904 2575.43,-494.04 2575.43,-494.04 2575.43,-494.04 2574.27,-498.904 2579.8,-495.083 2573.11,-503.768 2573.11,-503.768"/>
</g>
<!-- 28&#45;&gt;19 -->
<g id="edge67" class="edge"><title>28&#45;&gt;19</title>
<path fill="none" stroke="black" d="M2795.88,-396.129C2749.1,-421.876 2660.66,-470.552 2609.1,-498.928"/>
<polygon fill="black" stroke="black" points="2600.23,-503.811 2606.82,-495.047 2604.61,-501.4 2608.99,-498.989 2608.99,-498.989 2608.99,-498.989 2604.61,-501.4 2611.16,-502.931 2600.23,-503.811 2600.23,-503.811"/>
</g>
<!-- 29&#45;&gt;19 -->
<g id="edge68" class="edge"><title>29&#45;&gt;19</title>
<path fill="none" stroke="black" d="M1668.06,-455.647C1840.76,-468.174 2315.12,-502.584 2496.85,-515.766"/>
<polygon fill="black" stroke="black" points="2506.84,-516.491 2496.54,-520.256 2501.85,-516.129 2496.87,-515.767 2496.87,-515.767 2496.87,-515.767 2501.85,-516.129 2497.19,-511.279 2506.84,-516.491 2506.84,-516.491"/>
</g>
<!-- 30 -->
<g id="node31" class="node"><title>30</title>
<polygon fill="none" stroke="black" points="1313.5,-324 1180.5,-324 1180.5,-288 1313.5,-288 1313.5,-324"/>
<text text-anchor="middle" x="1247" y="-302.3" font-family="Times,serif" font-size="14.00">Policies.KLempUCB</text>
</g>
<!-- 30&#45;&gt;29 -->
<g id="edge69" class="edge"><title>30&#45;&gt;29</title>
<path fill="none" stroke="black" d="M1287.45,-324.111C1330.74,-342.316 1401.49,-371.774 1463,-396 1490.83,-406.962 1521.94,-418.709 1547.85,-428.352"/>
<polygon fill="black" stroke="black" points="1557.5,-431.938 1546.56,-432.674 1552.81,-430.197 1548.13,-428.456 1548.13,-428.456 1548.13,-428.456 1552.81,-430.197 1549.69,-424.237 1557.5,-431.938 1557.5,-431.938"/>
</g>
<!-- 51 -->
<g id="node52" class="node"><title>51</title>
<polygon fill="none" stroke="black" points="1300,-396 1190,-396 1190,-360 1300,-360 1300,-396"/>
<text text-anchor="middle" x="1245" y="-374.3" font-family="Times,serif" font-size="14.00">Policies.kullback</text>
</g>
<!-- 30&#45;&gt;51 -->
<g id="edge70" class="edge"><title>30&#45;&gt;51</title>
<path fill="none" stroke="black" d="M1246.51,-324.303C1246.29,-332.017 1246.02,-341.288 1245.77,-349.888"/>
<polygon fill="black" stroke="black" points="1245.49,-359.896 1241.28,-349.771 1245.63,-354.898 1245.77,-349.9 1245.77,-349.9 1245.77,-349.9 1245.63,-354.898 1250.27,-350.028 1245.49,-359.896 1245.49,-359.896"/>
</g>
<!-- 31&#45;&gt;19 -->
<g id="edge71" class="edge"><title>31&#45;&gt;19</title>
<path fill="none" stroke="black" d="M2833.65,-462.559C2781.12,-474.159 2699.8,-492.116 2641.17,-505.064"/>
<polygon fill="black" stroke="black" points="2631.23,-507.259 2640.02,-500.709 2636.11,-506.181 2640.99,-505.103 2640.99,-505.103 2640.99,-505.103 2636.11,-506.181 2641.96,-509.497 2631.23,-507.259 2631.23,-507.259"/>
</g>
<!-- 32&#45;&gt;29 -->
<g id="edge72" class="edge"><title>32&#45;&gt;29</title>
<path fill="none" stroke="black" d="M1168.75,-393.343C1172.88,-394.312 1177,-395.213 1181,-396 1302.08,-419.801 1444.86,-435.08 1529.72,-442.842"/>
<polygon fill="black" stroke="black" points="1539.78,-443.752 1529.41,-447.333 1534.8,-443.302 1529.82,-442.851 1529.82,-442.851 1529.82,-442.851 1534.8,-443.302 1530.23,-438.369 1539.78,-443.752 1539.78,-443.752"/>
</g>
<!-- 33&#45;&gt;19 -->
<g id="edge73" class="edge"><title>33&#45;&gt;19</title>
<path fill="none" stroke="black" d="M2988.37,-461.759C2974.67,-463.863 2960.38,-466.028 2947,-468 2840.65,-483.673 2717.31,-500.764 2641.2,-511.183"/>
<polygon fill="black" stroke="black" points="2631.24,-512.545 2640.54,-506.731 2636.2,-511.867 2641.15,-511.19 2641.15,-511.19 2641.15,-511.19 2636.2,-511.867 2641.76,-515.648 2631.24,-512.545 2631.24,-512.545"/>
</g>
<!-- 35&#45;&gt;19 -->
<g id="edge74" class="edge"><title>35&#45;&gt;19</title>
<path fill="none" stroke="black" d="M3176.59,-396.043C3171.47,-416.821 3159.61,-451.234 3135,-468 3095.05,-495.216 2784.73,-511.817 2641.28,-518.11"/>
<polygon fill="black" stroke="black" points="2631.25,-518.545 2641.04,-513.616 2636.24,-518.329 2641.24,-518.112 2641.24,-518.112 2641.24,-518.112 2636.24,-518.329 2641.43,-522.608 2631.25,-518.545 2631.25,-518.545"/>
</g>
<!-- 36&#45;&gt;19 -->
<g id="edge75" class="edge"><title>36&#45;&gt;19</title>
<path fill="none" stroke="black" d="M800.757,-324.122C854.877,-359.012 985.534,-437.601 1108,-468 1243.13,-501.543 2220,-516.522 2496.34,-520.118"/>
<polygon fill="black" stroke="black" points="2506.65,-520.251 2496.6,-524.621 2501.65,-520.186 2496.65,-520.122 2496.65,-520.122 2496.65,-520.122 2501.65,-520.186 2496.71,-515.622 2506.65,-520.251 2506.65,-520.251"/>
</g>
<!-- 37&#45;&gt;36 -->
<g id="edge76" class="edge"><title>37&#45;&gt;36</title>
<path fill="none" stroke="black" d="M775,-252.303C775,-260.017 775,-269.288 775,-277.888"/>
<polygon fill="black" stroke="black" points="775,-287.896 770.5,-277.896 775,-282.896 775,-277.896 775,-277.896 775,-277.896 775,-282.896 779.5,-277.896 775,-287.896 775,-287.896"/>
</g>
<!-- 38&#45;&gt;21 -->
<g id="edge77" class="edge"><title>38&#45;&gt;21</title>
<path fill="none" stroke="black" d="M1976.04,-250.017C1979.07,-250.701 1982.07,-251.366 1985,-252 2044.42,-264.85 2111.32,-277.617 2164.72,-287.4"/>
<polygon fill="black" stroke="black" points="2174.87,-289.254 2164.22,-291.884 2169.95,-288.355 2165.03,-287.457 2165.03,-287.457 2165.03,-287.457 2169.95,-288.355 2165.84,-283.03 2174.87,-289.254 2174.87,-289.254"/>
</g>
<!-- 39&#45;&gt;29 -->
<g id="edge78" class="edge"><title>39&#45;&gt;29</title>
<path fill="none" stroke="black" d="M1652.93,-396.303C1645.06,-404.78 1635.44,-415.136 1626.83,-424.417"/>
<polygon fill="black" stroke="black" points="1619.88,-431.896 1623.39,-421.506 1623.28,-428.232 1626.69,-424.568 1626.69,-424.568 1626.69,-424.568 1623.28,-428.232 1629.98,-427.63 1619.88,-431.896 1619.88,-431.896"/>
</g>
<!-- 40&#45;&gt;39 -->
<g id="edge79" class="edge"><title>40&#45;&gt;39</title>
<path fill="none" stroke="black" d="M1571.56,-324.124C1588.66,-333.404 1609.98,-344.975 1628.32,-354.925"/>
<polygon fill="black" stroke="black" points="1637.32,-359.81 1626.39,-358.996 1632.93,-357.426 1628.53,-355.041 1628.53,-355.041 1628.53,-355.041 1632.93,-357.426 1630.68,-351.086 1637.32,-359.81 1637.32,-359.81"/>
</g>
<!-- 41&#45;&gt;40 -->
<g id="edge80" class="edge"><title>41&#45;&gt;40</title>
<path fill="none" stroke="black" d="M1570.11,-252.303C1565.51,-260.356 1559.94,-270.106 1554.85,-279.018"/>
<polygon fill="black" stroke="black" points="1549.77,-287.896 1550.83,-276.981 1552.25,-283.554 1554.74,-279.213 1554.74,-279.213 1554.74,-279.213 1552.25,-283.554 1558.64,-281.446 1549.77,-287.896 1549.77,-287.896"/>
</g>
<!-- 42&#45;&gt;39 -->
<g id="edge81" class="edge"><title>42&#45;&gt;39</title>
<path fill="none" stroke="black" d="M1669,-324.303C1669,-332.017 1669,-341.288 1669,-349.888"/>
<polygon fill="black" stroke="black" points="1669,-359.896 1664.5,-349.896 1669,-354.896 1669,-349.896 1669,-349.896 1669,-349.896 1669,-354.896 1673.5,-349.896 1669,-359.896 1669,-359.896"/>
</g>
<!-- 43&#45;&gt;39 -->
<g id="edge82" class="edge"><title>43&#45;&gt;39</title>
<path fill="none" stroke="black" d="M1768.71,-324.124C1751.13,-333.446 1729.19,-345.081 1710.37,-355.061"/>
<polygon fill="black" stroke="black" points="1701.41,-359.81 1708.14,-351.15 1705.83,-357.468 1710.25,-355.125 1710.25,-355.125 1710.25,-355.125 1705.83,-357.468 1712.36,-359.101 1701.41,-359.81 1701.41,-359.81"/>
</g>
<!-- 44&#45;&gt;39 -->
<g id="edge83" class="edge"><title>44&#45;&gt;39</title>
<path fill="none" stroke="black" d="M1873.37,-322.189C1829.27,-334.014 1768.41,-350.339 1724.58,-362.092"/>
<polygon fill="black" stroke="black" points="1714.67,-364.751 1723.16,-357.814 1719.5,-363.456 1724.33,-362.161 1724.33,-362.161 1724.33,-362.161 1719.5,-363.456 1725.49,-366.507 1714.67,-364.751 1714.67,-364.751"/>
</g>
<!-- 45&#45;&gt;39 -->
<g id="edge84" class="edge"><title>45&#45;&gt;39</title>
<path fill="none" stroke="black" d="M2004.59,-322.244C2001.35,-322.846 1998.15,-323.434 1995,-324 1900.32,-341.049 1789.72,-358.515 1724.73,-368.529"/>
<polygon fill="black" stroke="black" points="1714.71,-370.071 1723.91,-364.104 1719.65,-369.311 1724.59,-368.551 1724.59,-368.551 1724.59,-368.551 1719.65,-369.311 1725.27,-372.999 1714.71,-370.071 1714.71,-370.071"/>
</g>
<!-- 46&#45;&gt;19 -->
<g id="edge85" class="edge"><title>46&#45;&gt;19</title>
<path fill="none" stroke="black" d="M1031.07,-324.3C1032.15,-344.68 1037.25,-378.032 1058,-396 1218.75,-535.197 1319.44,-446.551 1531,-468 1892.53,-504.653 2327.61,-516.438 2496.79,-519.797"/>
<polygon fill="black" stroke="black" points="2506.83,-519.993 2496.74,-524.297 2501.83,-519.895 2496.83,-519.798 2496.83,-519.798 2496.83,-519.798 2501.83,-519.895 2496.92,-515.299 2506.83,-519.993 2506.83,-519.993"/>
</g>
<!-- 47&#45;&gt;46 -->
<g id="edge86" class="edge"><title>47&#45;&gt;46</title>
<path fill="none" stroke="black" d="M984.326,-252.303C991.759,-260.695 1000.82,-270.93 1008.98,-280.139"/>
<polygon fill="black" stroke="black" points="1015.85,-287.896 1005.85,-283.393 1012.54,-284.153 1009.22,-280.41 1009.22,-280.41 1009.22,-280.41 1012.54,-284.153 1012.59,-277.426 1015.85,-287.896 1015.85,-287.896"/>
</g>
<!-- 48&#45;&gt;29 -->
<g id="edge87" class="edge"><title>48&#45;&gt;29</title>
<path fill="none" stroke="black" d="M1408.78,-324.129C1448.78,-349.716 1524.19,-397.948 1568.66,-426.397"/>
<polygon fill="black" stroke="black" points="1577.13,-431.811 1566.28,-430.213 1572.91,-429.117 1568.7,-426.422 1568.7,-426.422 1568.7,-426.422 1572.91,-429.117 1571.13,-422.631 1577.13,-431.811 1577.13,-431.811"/>
</g>
<!-- 48&#45;&gt;51 -->
<g id="edge88" class="edge"><title>48&#45;&gt;51</title>
<path fill="none" stroke="black" d="M1348.49,-324.124C1330.16,-333.488 1307.26,-345.186 1287.67,-355.197"/>
<polygon fill="black" stroke="black" points="1278.64,-359.81 1285.5,-351.253 1283.1,-357.535 1287.55,-355.26 1287.55,-355.26 1287.55,-355.26 1283.1,-357.535 1289.6,-359.267 1278.64,-359.81 1278.64,-359.81"/>
</g>
<!-- 49&#45;&gt;48 -->
<g id="edge89" class="edge"><title>49&#45;&gt;48</title>
<path fill="none" stroke="black" d="M1251.32,-252.124C1275.18,-261.778 1305.17,-273.913 1330.4,-284.122"/>
<polygon fill="black" stroke="black" points="1339.82,-287.932 1328.86,-288.352 1335.18,-286.056 1330.55,-284.181 1330.55,-284.181 1330.55,-284.181 1335.18,-286.056 1332.23,-280.009 1339.82,-287.932 1339.82,-287.932"/>
</g>
<!-- 49&#45;&gt;51 -->
<g id="edge90" class="edge"><title>49&#45;&gt;51</title>
<path fill="none" stroke="black" d="M1192.64,-252.059C1177.31,-270.221 1158.48,-299.642 1171,-324 1177.27,-336.209 1187.81,-346.234 1198.99,-354.152"/>
<polygon fill="black" stroke="black" points="1207.61,-359.798 1196.78,-358.082 1203.43,-357.058 1199.24,-354.318 1199.24,-354.318 1199.24,-354.318 1203.43,-357.058 1201.71,-350.554 1207.61,-359.798 1207.61,-359.798"/>
</g>
<!-- 50&#45;&gt;48 -->
<g id="edge91" class="edge"><title>50&#45;&gt;48</title>
<path fill="none" stroke="black" d="M1391.79,-252.303C1390.35,-260.017 1388.63,-269.288 1387.04,-277.888"/>
<polygon fill="black" stroke="black" points="1385.18,-287.896 1382.58,-277.242 1386.09,-282.98 1387,-278.064 1387,-278.064 1387,-278.064 1386.09,-282.98 1391.43,-278.885 1385.18,-287.896 1385.18,-287.896"/>
</g>
<!-- 52 -->
<g id="node53" class="node"><title>52</title>
<polygon fill="none" stroke="black" points="4615,-180 4485,-180 4485,-144 4615,-144 4615,-180"/>
<text text-anchor="middle" x="4550" y="-158.3" font-family="Times,serif" font-size="14.00">PoliciesMultiPlayers</text>
</g>
<!-- 53 -->
<g id="node54" class="node"><title>53</title>
<polygon fill="none" stroke="black" points="5250.5,-252 5069.5,-252 5069.5,-216 5250.5,-216 5250.5,-252"/>
<text text-anchor="middle" x="5160" y="-230.3" font-family="Times,serif" font-size="14.00">PoliciesMultiPlayers.ALOHA</text>
</g>
<!-- 52&#45;&gt;53 -->
<g id="edge92" class="edge"><title>52&#45;&gt;53</title>
<path fill="none" stroke="black" d="M4615.37,-168.427C4710.57,-176.633 4893.12,-193.509 5058.9,-215.901"/>
<polygon fill="black" stroke="black" points="5069.29,-217.315 5058.77,-220.426 5064.33,-216.641 5059.38,-215.967 5059.38,-215.967 5059.38,-215.967 5064.33,-216.641 5059.99,-211.508 5069.29,-217.315 5069.29,-217.315"/>
</g>
<!-- 56 -->
<g id="node57" class="node"><title>56</title>
<polygon fill="none" stroke="black" points="4418.5,-252 4179.5,-252 4179.5,-216 4418.5,-216 4418.5,-252"/>
<text text-anchor="middle" x="4299" y="-230.3" font-family="Times,serif" font-size="14.00">PoliciesMultiPlayers.CentralizedCycling</text>
</g>
<!-- 52&#45;&gt;56 -->
<g id="edge93" class="edge"><title>52&#45;&gt;56</title>
<path fill="none" stroke="black" d="M4488.92,-180.034C4453.09,-190.028 4407.64,-202.702 4370.19,-213.146"/>
<polygon fill="black" stroke="black" points="4360.35,-215.889 4368.78,-208.868 4365.17,-214.546 4369.99,-213.203 4369.99,-213.203 4369.99,-213.203 4365.17,-214.546 4371.2,-217.537 4360.35,-215.889 4360.35,-215.889"/>
</g>
<!-- 57 -->
<g id="node58" class="node"><title>57</title>
<polygon fill="none" stroke="black" points="4663.5,-252 4436.5,-252 4436.5,-216 4663.5,-216 4663.5,-252"/>
<text text-anchor="middle" x="4550" y="-230.3" font-family="Times,serif" font-size="14.00">PoliciesMultiPlayers.CentralizedFixed</text>
</g>
<!-- 52&#45;&gt;57 -->
<g id="edge94" class="edge"><title>52&#45;&gt;57</title>
<path fill="none" stroke="black" d="M4550,-180.303C4550,-188.017 4550,-197.288 4550,-205.888"/>
<polygon fill="black" stroke="black" points="4550,-215.896 4545.5,-205.896 4550,-210.896 4550,-205.896 4550,-205.896 4550,-205.896 4550,-210.896 4554.5,-205.896 4550,-215.896 4550,-215.896"/>
</g>
<!-- 58 -->
<g id="node59" class="node"><title>58</title>
<polygon fill="none" stroke="black" points="5736.5,-252 5469.5,-252 5469.5,-216 5736.5,-216 5736.5,-252"/>
<text text-anchor="middle" x="5603" y="-230.3" font-family="Times,serif" font-size="14.00">PoliciesMultiPlayers.CentralizedMultiplePlay</text>
</g>
<!-- 52&#45;&gt;58 -->
<g id="edge95" class="edge"><title>52&#45;&gt;58</title>
<path fill="none" stroke="black" d="M4615.2,-165.45C4763.22,-171.303 5136.18,-187.694 5459.41,-215.982"/>
<polygon fill="black" stroke="black" points="5469.44,-216.865 5459.08,-220.471 5464.46,-216.427 5459.48,-215.988 5459.48,-215.988 5459.48,-215.988 5464.46,-216.427 5459.87,-211.505 5469.44,-216.865 5469.44,-216.865"/>
</g>
<!-- 61 -->
<g id="node62" class="node"><title>61</title>
<polygon fill="none" stroke="black" points="3931.5,-252 3740.5,-252 3740.5,-216 3931.5,-216 3931.5,-252"/>
<text text-anchor="middle" x="3836" y="-230.3" font-family="Times,serif" font-size="14.00">PoliciesMultiPlayers.OracleFair</text>
</g>
<!-- 52&#45;&gt;61 -->
<g id="edge96" class="edge"><title>52&#45;&gt;61</title>
<path fill="none" stroke="black" d="M4484.94,-167.081C4375.17,-174.315 4146.01,-190.909 3941.55,-215.988"/>
<polygon fill="black" stroke="black" points="3931.53,-217.227 3940.9,-211.535 3936.49,-216.614 3941.45,-216.001 3941.45,-216.001 3941.45,-216.001 3936.49,-216.614 3942,-220.467 3931.53,-217.227 3931.53,-217.227"/>
</g>
<!-- 62 -->
<g id="node63" class="node"><title>62</title>
<polygon fill="none" stroke="black" points="4162,-252 3950,-252 3950,-216 4162,-216 4162,-252"/>
<text text-anchor="middle" x="4056" y="-230.3" font-family="Times,serif" font-size="14.00">PoliciesMultiPlayers.OracleNotFair</text>
</g>
<!-- 52&#45;&gt;62 -->
<g id="edge97" class="edge"><title>52&#45;&gt;62</title>
<path fill="none" stroke="black" d="M4484.93,-171.942C4411.55,-182.061 4288.37,-199.154 4172.33,-215.814"/>
<polygon fill="black" stroke="black" points="4162.2,-217.27 4171.46,-211.393 4167.15,-216.558 4172.1,-215.847 4172.1,-215.847 4172.1,-215.847 4167.15,-216.558 4172.74,-220.301 4162.2,-217.27 4162.2,-217.27"/>
</g>
<!-- 63 -->
<g id="node64" class="node"><title>63</title>
<polygon fill="none" stroke="black" points="4852.5,-252 4681.5,-252 4681.5,-216 4852.5,-216 4852.5,-252"/>
<text text-anchor="middle" x="4767" y="-230.3" font-family="Times,serif" font-size="14.00">PoliciesMultiPlayers.Selfish</text>
</g>
<!-- 52&#45;&gt;63 -->
<g id="edge98" class="edge"><title>52&#45;&gt;63</title>
<path fill="none" stroke="black" d="M4602.81,-180.034C4633.39,-189.9 4672.07,-202.378 4704.21,-212.745"/>
<polygon fill="black" stroke="black" points="4713.96,-215.889 4703.06,-217.102 4709.2,-214.354 4704.44,-212.819 4704.44,-212.819 4704.44,-212.819 4709.2,-214.354 4705.82,-208.536 4713.96,-215.889 4713.96,-215.889"/>
</g>
<!-- 65 -->
<g id="node66" class="node"><title>65</title>
<polygon fill="none" stroke="black" points="5051,-252 4871,-252 4871,-216 5051,-216 5051,-252"/>
<text text-anchor="middle" x="4961" y="-230.3" font-family="Times,serif" font-size="14.00">PoliciesMultiPlayers.rhoRand</text>
</g>
<!-- 52&#45;&gt;65 -->
<g id="edge99" class="edge"><title>52&#45;&gt;65</title>
<path fill="none" stroke="black" d="M4615.14,-174.031C4676.04,-184.352 4769.82,-200.264 4860.94,-215.821"/>
<polygon fill="black" stroke="black" points="4870.89,-217.52 4860.28,-220.272 4865.96,-216.678 4861.04,-215.837 4861.04,-215.837 4861.04,-215.837 4865.96,-216.678 4861.79,-211.401 4870.89,-217.52 4870.89,-217.52"/>
</g>
<!-- 55 -->
<g id="node56" class="node"><title>55</title>
<polygon fill="none" stroke="black" points="4652.5,-324 4437.5,-324 4437.5,-288 4652.5,-288 4652.5,-324"/>
<text text-anchor="middle" x="4545" y="-302.3" font-family="Times,serif" font-size="14.00">PoliciesMultiPlayers.BaseMPPolicy</text>
</g>
<!-- 53&#45;&gt;55 -->
<g id="edge100" class="edge"><title>53&#45;&gt;55</title>
<path fill="none" stroke="black" d="M5069.3,-250.738C5066.16,-251.18 5063.06,-251.603 5060,-252 4887.14,-274.476 4840.12,-267.498 4662.9,-287.937"/>
<polygon fill="black" stroke="black" points="4652.71,-289.126 4662.12,-283.497 4657.68,-288.546 4662.64,-287.967 4662.64,-287.967 4662.64,-287.967 4657.68,-288.546 4663.17,-292.437 4652.71,-289.126 4652.71,-289.126"/>
</g>
<!-- 59 -->
<g id="node60" class="node"><title>59</title>
<polygon fill="none" stroke="black" points="4873.5,-324 4670.5,-324 4670.5,-288 4873.5,-288 4873.5,-324"/>
<text text-anchor="middle" x="4772" y="-302.3" font-family="Times,serif" font-size="14.00">PoliciesMultiPlayers.ChildPointer</text>
</g>
<!-- 53&#45;&gt;59 -->
<g id="edge101" class="edge"><title>53&#45;&gt;59</title>
<path fill="none" stroke="black" d="M5069.03,-251.412C5011.32,-261.824 4936.47,-275.327 4876.35,-286.174"/>
<polygon fill="black" stroke="black" points="4866.45,-287.96 4875.49,-281.756 4871.37,-287.072 4876.29,-286.184 4876.29,-286.184 4876.29,-286.184 4871.37,-287.072 4877.09,-290.613 4866.45,-287.96 4866.45,-287.96"/>
</g>
<!-- 54 -->
<g id="node55" class="node"><title>54</title>
<polygon fill="none" stroke="black" points="4301.5,-324 4044.5,-324 4044.5,-288 4301.5,-288 4301.5,-324"/>
<text text-anchor="middle" x="4173" y="-302.3" font-family="Times,serif" font-size="14.00">PoliciesMultiPlayers.BaseCentralizedPolicy</text>
</g>
<!-- 56&#45;&gt;54 -->
<g id="edge102" class="edge"><title>56&#45;&gt;54</title>
<path fill="none" stroke="black" d="M4268.18,-252.124C4251.55,-261.361 4230.84,-272.869 4212.98,-282.788"/>
<polygon fill="black" stroke="black" points="4203.94,-287.81 4210.5,-279.02 4208.31,-285.382 4212.68,-282.954 4212.68,-282.954 4212.68,-282.954 4208.31,-285.382 4214.87,-286.887 4203.94,-287.81 4203.94,-287.81"/>
</g>
<!-- 56&#45;&gt;55 -->
<g id="edge103" class="edge"><title>56&#45;&gt;55</title>
<path fill="none" stroke="black" d="M4358.86,-252.034C4393.98,-262.028 4438.52,-274.702 4475.23,-285.146"/>
<polygon fill="black" stroke="black" points="4484.87,-287.889 4474.02,-289.48 4480.06,-286.521 4475.25,-285.152 4475.25,-285.152 4475.25,-285.152 4480.06,-286.521 4476.48,-280.824 4484.87,-287.889 4484.87,-287.889"/>
</g>
<!-- 56&#45;&gt;59 -->
<g id="edge104" class="edge"><title>56&#45;&gt;59</title>
<path fill="none" stroke="black" d="M4417.56,-252.056C4485.87,-261.944 4573.64,-274.752 4660.39,-287.764"/>
<polygon fill="black" stroke="black" points="4670.42,-289.269 4659.86,-292.234 4665.47,-288.527 4660.53,-287.784 4660.53,-287.784 4660.53,-287.784 4665.47,-288.527 4661.2,-283.334 4670.42,-289.269 4670.42,-289.269"/>
</g>
<!-- 57&#45;&gt;54 -->
<g id="edge105" class="edge"><title>57&#45;&gt;54</title>
<path fill="none" stroke="black" d="M4458.26,-252.034C4402.85,-262.323 4332.13,-275.453 4274.97,-286.067"/>
<polygon fill="black" stroke="black" points="4264.83,-287.95 4273.84,-281.7 4269.74,-287.037 4274.66,-286.124 4274.66,-286.124 4274.66,-286.124 4269.74,-287.037 4275.48,-290.549 4264.83,-287.95 4264.83,-287.95"/>
</g>
<!-- 57&#45;&gt;55 -->
<g id="edge106" class="edge"><title>57&#45;&gt;55</title>
<path fill="none" stroke="black" d="M4548.76,-252.303C4548.21,-260.017 4547.55,-269.288 4546.94,-277.888"/>
<polygon fill="black" stroke="black" points="4546.22,-287.896 4542.45,-277.6 4546.58,-282.908 4546.93,-277.921 4546.93,-277.921 4546.93,-277.921 4546.58,-282.908 4551.42,-278.242 4546.22,-287.896 4546.22,-287.896"/>
</g>
<!-- 57&#45;&gt;59 -->
<g id="edge107" class="edge"><title>57&#45;&gt;59</title>
<path fill="none" stroke="black" d="M4604.02,-252.034C4635.45,-261.943 4675.23,-274.486 4708.19,-284.879"/>
<polygon fill="black" stroke="black" points="4717.73,-287.889 4706.84,-289.174 4712.97,-286.386 4708.2,-284.882 4708.2,-284.882 4708.2,-284.882 4712.97,-286.386 4709.55,-280.59 4717.73,-287.889 4717.73,-287.889"/>
</g>
<!-- 58&#45;&gt;55 -->
<g id="edge108" class="edge"><title>58&#45;&gt;55</title>
<path fill="none" stroke="black" d="M5469.44,-251.19C5466.27,-251.474 5463.11,-251.745 5460,-252 5109.44,-280.706 5017.14,-254.922 4662.72,-287.997"/>
<polygon fill="black" stroke="black" points="4652.69,-288.942 4662.23,-283.524 4657.67,-288.473 4662.65,-288.004 4662.65,-288.004 4662.65,-288.004 4657.67,-288.473 4663.07,-292.484 4652.69,-288.942 4652.69,-288.942"/>
</g>
<!-- 58&#45;&gt;59 -->
<g id="edge109" class="edge"><title>58&#45;&gt;59</title>
<path fill="none" stroke="black" d="M5469.43,-251.056C5466.26,-251.38 5463.11,-251.695 5460,-252 5257.03,-271.874 5019.76,-288.754 4883.57,-297.832"/>
<polygon fill="black" stroke="black" points="4873.53,-298.499 4883.21,-293.346 4878.52,-298.168 4883.51,-297.836 4883.51,-297.836 4883.51,-297.836 4878.52,-298.168 4883.81,-302.326 4873.53,-298.499 4873.53,-298.499"/>
</g>
<!-- 60 -->
<g id="node61" class="node"><title>60</title>
<polygon fill="none" stroke="black" points="3675.5,-36 3510.5,-36 3510.5,-0 3675.5,-0 3675.5,-36"/>
<text text-anchor="middle" x="3593" y="-14.3" font-family="Times,serif" font-size="14.00">PoliciesMultiPlayers.DMC</text>
</g>
<!-- 61&#45;&gt;54 -->
<g id="edge110" class="edge"><title>61&#45;&gt;54</title>
<path fill="none" stroke="black" d="M3918.01,-252.034C3967.23,-262.259 4029.97,-275.29 4080.9,-285.869"/>
<polygon fill="black" stroke="black" points="4090.92,-287.95 4080.21,-290.322 4086.02,-286.933 4081.13,-285.916 4081.13,-285.916 4081.13,-285.916 4086.02,-286.933 4082.04,-281.51 4090.92,-287.95 4090.92,-287.95"/>
</g>
<!-- 61&#45;&gt;55 -->
<g id="edge111" class="edge"><title>61&#45;&gt;55</title>
<path fill="none" stroke="black" d="M3931.53,-250.77C3934.72,-251.2 3937.88,-251.612 3941,-252 4032.01,-263.344 4278.95,-283.8 4427.39,-295.708"/>
<polygon fill="black" stroke="black" points="4437.46,-296.515 4427.14,-300.202 4432.48,-296.115 4427.5,-295.716 4427.5,-295.716 4427.5,-295.716 4432.48,-296.115 4427.85,-291.23 4437.46,-296.515 4437.46,-296.515"/>
</g>
<!-- 61&#45;&gt;59 -->
<g id="edge112" class="edge"><title>61&#45;&gt;59</title>
<path fill="none" stroke="black" d="M3931.51,-250.923C3934.71,-251.31 3937.88,-251.67 3941,-252 4256.8,-285.345 4341.09,-256.068 4660.46,-287.907"/>
<polygon fill="black" stroke="black" points="4670.46,-288.916 4660.06,-292.389 4665.49,-288.414 4660.51,-287.912 4660.51,-287.912 4660.51,-287.912 4665.49,-288.414 4660.96,-283.435 4670.46,-288.916 4670.46,-288.916"/>
</g>
<!-- 62&#45;&gt;54 -->
<g id="edge113" class="edge"><title>62&#45;&gt;54</title>
<path fill="none" stroke="black" d="M4084.62,-252.124C4099.92,-261.276 4118.94,-272.658 4135.42,-282.515"/>
<polygon fill="black" stroke="black" points="4144.27,-287.81 4133.38,-286.538 4139.98,-285.243 4135.69,-282.676 4135.69,-282.676 4135.69,-282.676 4139.98,-285.243 4138,-278.814 4144.27,-287.81 4144.27,-287.81"/>
</g>
<!-- 62&#45;&gt;55 -->
<g id="edge114" class="edge"><title>62&#45;&gt;55</title>
<path fill="none" stroke="black" d="M4162.2,-250.723C4165.17,-251.154 4168.1,-251.581 4171,-252 4256.7,-264.406 4353.49,-278.114 4427.13,-288.481"/>
<polygon fill="black" stroke="black" points="4437.36,-289.921 4426.83,-292.983 4432.41,-289.224 4427.46,-288.527 4427.46,-288.527 4427.46,-288.527 4432.41,-289.224 4428.09,-284.071 4437.36,-289.921 4437.36,-289.921"/>
</g>
<!-- 62&#45;&gt;59 -->
<g id="edge115" class="edge"><title>62&#45;&gt;59</title>
<path fill="none" stroke="black" d="M4162.17,-250.985C4165.14,-251.339 4168.09,-251.679 4171,-252 4385.19,-275.652 4442.86,-263.648 4660.31,-287.861"/>
<polygon fill="black" stroke="black" points="4670.45,-289.003 4660.01,-292.355 4665.48,-288.443 4660.51,-287.883 4660.51,-287.883 4660.51,-287.883 4665.48,-288.443 4661.02,-283.412 4670.45,-289.003 4670.45,-289.003"/>
</g>
<!-- 63&#45;&gt;55 -->
<g id="edge116" class="edge"><title>63&#45;&gt;55</title>
<path fill="none" stroke="black" d="M4712.98,-252.034C4681.55,-261.943 4641.77,-274.486 4608.81,-284.879"/>
<polygon fill="black" stroke="black" points="4599.27,-287.889 4607.45,-280.59 4604.03,-286.386 4608.8,-284.882 4608.8,-284.882 4608.8,-284.882 4604.03,-286.386 4610.16,-289.174 4599.27,-287.889 4599.27,-287.889"/>
</g>
<!-- 63&#45;&gt;59 -->
<g id="edge117" class="edge"><title>63&#45;&gt;59</title>
<path fill="none" stroke="black" d="M4768.24,-252.303C4768.79,-260.017 4769.45,-269.288 4770.06,-277.888"/>
<polygon fill="black" stroke="black" points="4770.78,-287.896 4765.58,-278.242 4770.42,-282.908 4770.07,-277.921 4770.07,-277.921 4770.07,-277.921 4770.42,-282.908 4774.55,-277.6 4770.78,-287.896 4770.78,-287.896"/>
</g>
<!-- 64 -->
<g id="node65" class="node"><title>64</title>
<polygon fill="none" stroke="black" points="3860.5,-36 3693.5,-36 3693.5,-0 3860.5,-0 3860.5,-36"/>
<text text-anchor="middle" x="3777" y="-14.3" font-family="Times,serif" font-size="14.00">PoliciesMultiPlayers.TDFS</text>
</g>
<!-- 65&#45;&gt;55 -->
<g id="edge118" class="edge"><title>65&#45;&gt;55</title>
<path fill="none" stroke="black" d="M4870.89,-250.49C4867.89,-251 4864.92,-251.505 4862,-252 4794.12,-263.502 4718.04,-276.228 4657.43,-286.327"/>
<polygon fill="black" stroke="black" points="4647.45,-287.988 4656.58,-281.906 4652.38,-287.167 4657.32,-286.345 4657.32,-286.345 4657.32,-286.345 4652.38,-287.167 4658.06,-290.784 4647.45,-287.988 4647.45,-287.988"/>
</g>
<!-- 65&#45;&gt;59 -->
<g id="edge119" class="edge"><title>65&#45;&gt;59</title>
<path fill="none" stroke="black" d="M4914.77,-252.124C4888.47,-261.863 4855.36,-274.128 4827.64,-284.392"/>
<polygon fill="black" stroke="black" points="4818.08,-287.932 4825.9,-280.239 4822.77,-286.195 4827.46,-284.458 4827.46,-284.458 4827.46,-284.458 4822.77,-286.195 4829.02,-288.678 4818.08,-287.932 4818.08,-287.932"/>
</g>
<!-- 66 -->
<g id="node67" class="node"><title>66</title>
<polygon fill="none" stroke="black" points="577.5,-108 488.5,-108 488.5,-72 577.5,-72 577.5,-108"/>
<text text-anchor="middle" x="533" y="-86.3" font-family="Times,serif" font-size="14.00">configuration</text>
</g>
<!-- 66&#45;&gt;2 -->
<g id="edge120" class="edge"><title>66&#45;&gt;2</title>
<path fill="none" stroke="black" d="M533,-108.303C533,-116.017 533,-125.288 533,-133.888"/>
<polygon fill="black" stroke="black" points="533,-143.896 528.5,-133.896 533,-138.896 533,-133.896 533,-133.896 533,-133.896 533,-138.896 537.5,-133.896 533,-143.896 533,-143.896"/>
</g>
<!-- 66&#45;&gt;3 -->
<g id="edge121" class="edge"><title>66&#45;&gt;3</title>
<path fill="none" stroke="black" d="M488.27,-103.676C450.868,-114.276 396.922,-129.565 354.146,-141.687"/>
<polygon fill="black" stroke="black" points="344.367,-144.459 352.761,-137.403 349.177,-143.095 353.988,-141.732 353.988,-141.732 353.988,-141.732 349.177,-143.095 355.215,-146.062 344.367,-144.459 344.367,-144.459"/>
</g>
<!-- 66&#45;&gt;4 -->
<g id="edge122" class="edge"><title>66&#45;&gt;4</title>
<path fill="none" stroke="black" d="M503.645,-108.124C487.955,-117.276 468.443,-128.658 451.546,-138.515"/>
<polygon fill="black" stroke="black" points="442.468,-143.81 448.839,-134.884 446.787,-141.291 451.106,-138.771 451.106,-138.771 451.106,-138.771 446.787,-141.291 453.373,-142.659 442.468,-143.81 442.468,-143.81"/>
</g>
<!-- 66&#45;&gt;5 -->
<g id="edge123" class="edge"><title>66&#45;&gt;5</title>
<path fill="none" stroke="black" d="M488.443,-96.6965C429.166,-104.675 321.015,-120.625 219.438,-144.067"/>
<polygon fill="black" stroke="black" points="209.63,-146.358 218.344,-139.701 214.499,-145.221 219.368,-144.083 219.368,-144.083 219.368,-144.083 214.499,-145.221 220.392,-148.465 209.63,-146.358 209.63,-146.358"/>
</g>
<!-- 66&#45;&gt;16 -->
<g id="edge124" class="edge"><title>66&#45;&gt;16</title>
<path fill="none" stroke="black" d="M577.595,-93.4503C776.208,-104.363 1578.74,-148.458 1767.23,-158.815"/>
<polygon fill="black" stroke="black" points="1777.26,-159.366 1767.02,-163.31 1772.26,-159.091 1767.27,-158.817 1767.27,-158.817 1767.27,-158.817 1772.26,-159.091 1767.52,-154.324 1777.26,-159.366 1777.26,-159.366"/>
</g>
<!-- 66&#45;&gt;51 -->
<g id="edge125" class="edge"><title>66&#45;&gt;51</title>
<path fill="none" stroke="black" d="M555.792,-108.029C567.786,-117.714 582.201,-130.569 593,-144 650.344,-215.323 615.901,-274.694 693,-324 783.861,-382.107 1070.52,-342.859 1177,-360 1177.92,-360.148 1178.85,-360.303 1179.78,-360.463"/>
<polygon fill="black" stroke="black" points="1189.87,-362.38 1179.2,-364.934 1184.95,-361.447 1180.04,-360.513 1180.04,-360.513 1180.04,-360.513 1184.95,-361.447 1180.88,-356.092 1189.87,-362.38 1189.87,-362.38"/>
</g>
<!-- 67 -->
<g id="node68" class="node"><title>67</title>
<polygon fill="none" stroke="black" points="3515,-108 3351,-108 3351,-72 3515,-72 3515,-108"/>
<text text-anchor="middle" x="3433" y="-86.3" font-family="Times,serif" font-size="14.00">configuration_multiplayers</text>
</g>
<!-- 67&#45;&gt;2 -->
<g id="edge126" class="edge"><title>67&#45;&gt;2</title>
<path fill="none" stroke="black" d="M3350.75,-106.998C3347.8,-107.369 3344.88,-107.706 3342,-108 3200.75,-122.425 992.091,-154.463 594.177,-160.134"/>
<polygon fill="black" stroke="black" points="584.022,-160.278 593.957,-155.636 589.021,-160.207 594.021,-160.136 594.021,-160.136 594.021,-160.136 589.021,-160.207 594.085,-164.635 584.022,-160.278 584.022,-160.278"/>
</g>
<!-- 67&#45;&gt;9 -->
<g id="edge127" class="edge"><title>67&#45;&gt;9</title>
<path fill="none" stroke="black" d="M3515.06,-92.7227C3708.48,-97.204 4207.97,-111.233 4624,-144 4904.27,-166.075 4976.65,-175.915 5258.63,-215.839"/>
<polygon fill="black" stroke="black" points="5268.75,-217.272 5258.21,-220.325 5263.8,-216.571 5258.85,-215.87 5258.85,-215.87 5258.85,-215.87 5263.8,-216.571 5259.48,-211.414 5268.75,-217.272 5268.75,-217.272"/>
</g>
<!-- 67&#45;&gt;12 -->
<g id="edge128" class="edge"><title>67&#45;&gt;12</title>
<path fill="none" stroke="black" d="M3429.86,-108.129C3425.43,-132.33 3417.29,-176.789 3412.02,-205.607"/>
<polygon fill="black" stroke="black" points="3410.15,-215.811 3407.52,-205.164 3411.05,-210.892 3411.95,-205.974 3411.95,-205.974 3411.95,-205.974 3411.05,-210.892 3416.37,-206.785 3410.15,-215.811 3410.15,-215.811"/>
</g>
<!-- 67&#45;&gt;16 -->
<g id="edge129" class="edge"><title>67&#45;&gt;16</title>
<path fill="none" stroke="black" d="M3350.74,-106.939C3347.8,-107.328 3344.88,-107.684 3342,-108 3039.63,-141.273 2056.96,-157.336 1846.79,-160.436"/>
<polygon fill="black" stroke="black" points="1836.54,-160.586 1846.47,-155.94 1841.54,-160.513 1846.53,-160.44 1846.53,-160.44 1846.53,-160.44 1841.54,-160.513 1846.6,-164.94 1836.54,-160.586 1836.54,-160.586"/>
</g>
<!-- 67&#45;&gt;52 -->
<g id="edge130" class="edge"><title>67&#45;&gt;52</title>
<path fill="none" stroke="black" d="M3515.14,-96.1473C3723.99,-109.236 4273.04,-143.643 4474.49,-156.268"/>
<polygon fill="black" stroke="black" points="4484.68,-156.907 4474.42,-160.772 4479.69,-156.594 4474.7,-156.281 4474.7,-156.281 4474.7,-156.281 4479.69,-156.594 4474.98,-151.79 4484.68,-156.907 4484.68,-156.907"/>
</g>
<!-- 68 -->
<g id="node69" class="node"><title>68</title>
<polygon fill="none" stroke="black" points="3230,-36 3176,-36 3176,-0 3230,-0 3230,-36"/>
<text text-anchor="middle" x="3203" y="-14.3" font-family="Times,serif" font-size="14.00">main</text>
</g>
<!-- 68&#45;&gt;8 -->
<g id="edge131" class="edge"><title>68&#45;&gt;8</title>
<path fill="none" stroke="black" d="M3224.26,-36.3034C3235.09,-45.1193 3248.42,-55.9679 3260.16,-65.5258"/>
<polygon fill="black" stroke="black" points="3267.99,-71.8957 3257.39,-69.073 3264.11,-68.7393 3260.23,-65.5829 3260.23,-65.5829 3260.23,-65.5829 3264.11,-68.7393 3263.07,-62.0929 3267.99,-71.8957 3267.99,-71.8957"/>
</g>
<!-- 68&#45;&gt;10 -->
<g id="edge132" class="edge"><title>68&#45;&gt;10</title>
<path fill="none" stroke="black" d="M3203,-36.1285C3203,-60.3298 3203,-104.789 3203,-133.607"/>
<polygon fill="black" stroke="black" points="3203,-143.811 3198.5,-133.811 3203,-138.811 3203,-133.811 3203,-133.811 3203,-133.811 3203,-138.811 3207.5,-133.811 3203,-143.811 3203,-143.811"/>
</g>
<!-- 68&#45;&gt;66 -->
<g id="edge133" class="edge"><title>68&#45;&gt;66</title>
<path fill="none" stroke="black" d="M3175.7,-19.7156C2919.83,-26.4238 943.425,-78.2398 587.743,-87.5648"/>
<polygon fill="black" stroke="black" points="577.696,-87.8282 587.575,-83.0676 582.694,-87.6971 587.692,-87.566 587.692,-87.566 587.692,-87.566 582.694,-87.6971 587.81,-92.0645 577.696,-87.8282 577.696,-87.8282"/>
</g>
<!-- 69 -->
<g id="node70" class="node"><title>69</title>
<polygon fill="none" stroke="black" points="3492.5,-36 3373.5,-36 3373.5,-0 3492.5,-0 3492.5,-36"/>
<text text-anchor="middle" x="3433" y="-14.3" font-family="Times,serif" font-size="14.00">main_multiplayers</text>
</g>
<!-- 69&#45;&gt;8 -->
<g id="edge134" class="edge"><title>69&#45;&gt;8</title>
<path fill="none" stroke="black" d="M3397.77,-36.1239C3378.42,-45.5307 3354.23,-57.2923 3333.57,-67.3328"/>
<polygon fill="black" stroke="black" points="3324.36,-71.8102 3331.39,-63.3911 3328.86,-69.6243 3333.36,-67.4383 3333.36,-67.4383 3333.36,-67.4383 3328.86,-69.6243 3335.32,-71.4854 3324.36,-71.8102 3324.36,-71.8102"/>
</g>
<!-- 69&#45;&gt;11 -->
<g id="edge135" class="edge"><title>69&#45;&gt;11</title>
<path fill="none" stroke="black" d="M3478.41,-36.0993C3495.08,-44.5206 3512.63,-56.3049 3524,-72 3537,-89.9463 3541.46,-114.942 3542.83,-133.877"/>
<polygon fill="black" stroke="black" points="3543.32,-143.957 3538.34,-134.186 3543.08,-138.963 3542.84,-133.968 3542.84,-133.968 3542.84,-133.968 3543.08,-138.963 3547.33,-133.751 3543.32,-143.957 3543.32,-143.957"/>
</g>
<!-- 69&#45;&gt;67 -->
<g id="edge136" class="edge"><title>69&#45;&gt;67</title>
<path fill="none" stroke="black" d="M3433,-36.3034C3433,-44.0173 3433,-53.2875 3433,-61.8876"/>
<polygon fill="black" stroke="black" points="3433,-71.8957 3428.5,-61.8956 3433,-66.8957 3433,-61.8957 3433,-61.8957 3433,-61.8957 3433,-66.8957 3437.5,-61.8957 3433,-71.8957 3433,-71.8957"/>
</g>
</g>
</svg>
