<?xml version="1.0" encoding="UTF-8" standalone="no"?>
<!DOCTYPE svg PUBLIC "-//W3C//DTD SVG 1.1//EN"
 "http://www.w3.org/Graphics/SVG/1.1/DTD/svg11.dtd">
<!-- Generated by graphviz version 2.38.0 (20140413.2041)
 -->
<!-- Title: packages_AlgoBandits Pages: 1 -->
<svg width="4616pt" height="548pt"
 viewBox="0.00 0.00 4615.50 548.00" xmlns="http://www.w3.org/2000/svg" xmlns:xlink="http://www.w3.org/1999/xlink">
<g id="graph0" class="graph" transform="scale(1 1) rotate(0) translate(4 544)">
<title>packages_AlgoBandits</title>
<polygon fill="white" stroke="none" points="-4,4 -4,-544 4611.5,-544 4611.5,4 -4,4"/>
<!-- 0 -->
<g id="node1" class="node"><title>0</title>
<polygon fill="none" stroke="black" points="253,-108 199,-108 199,-72 253,-72 253,-108"/>
<text text-anchor="middle" x="226" y="-86.3" font-family="Times,serif" font-size="14.00">Arms</text>
</g>
<!-- 2 -->
<g id="node3" class="node"><title>2</title>
<polygon fill="none" stroke="black" points="467,-180 365,-180 365,-144 467,-144 467,-180"/>
<text text-anchor="middle" x="416" y="-158.3" font-family="Times,serif" font-size="14.00">Arms.Bernoulli</text>
</g>
<!-- 0&#45;&gt;2 -->
<g id="edge1" class="edge"><title>0&#45;&gt;2</title>
<path fill="none" stroke="black" d="M253.222,-101.029C280.985,-111.258 324.862,-127.423 360.069,-140.394"/>
<polygon fill="black" stroke="black" points="369.749,-143.96 358.809,-144.725 365.057,-142.231 360.365,-140.503 360.365,-140.503 360.365,-140.503 365.057,-142.231 361.921,-136.28 369.749,-143.96 369.749,-143.96"/>
</g>
<!-- 3 -->
<g id="node4" class="node"><title>3</title>
<polygon fill="none" stroke="black" points="116,-180 7.10543e-15,-180 7.10543e-15,-144 116,-144 116,-180"/>
<text text-anchor="middle" x="58" y="-158.3" font-family="Times,serif" font-size="14.00">Arms.Exponential</text>
</g>
<!-- 0&#45;&gt;3 -->
<g id="edge2" class="edge"><title>0&#45;&gt;3</title>
<path fill="none" stroke="black" d="M198.634,-102.403C174.22,-112.575 137.858,-127.726 108.224,-140.073"/>
<polygon fill="black" stroke="black" points="98.8633,-143.974 106.363,-135.974 103.479,-142.051 108.094,-140.127 108.094,-140.127 108.094,-140.127 103.479,-142.051 109.825,-144.281 98.8633,-143.974 98.8633,-143.974"/>
</g>
<!-- 4 -->
<g id="node5" class="node"><title>4</title>
<polygon fill="none" stroke="black" points="235.5,-180 134.5,-180 134.5,-144 235.5,-144 235.5,-180"/>
<text text-anchor="middle" x="185" y="-158.3" font-family="Times,serif" font-size="14.00">Arms.Gaussian</text>
</g>
<!-- 0&#45;&gt;4 -->
<g id="edge3" class="edge"><title>0&#45;&gt;4</title>
<path fill="none" stroke="black" d="M215.865,-108.303C211.148,-116.356 205.438,-126.106 200.218,-135.018"/>
<polygon fill="black" stroke="black" points="195.018,-143.896 196.189,-132.992 197.545,-139.581 200.072,-135.267 200.072,-135.267 200.072,-135.267 197.545,-139.581 203.955,-137.541 195.018,-143.896 195.018,-143.896"/>
</g>
<!-- 5 -->
<g id="node6" class="node"><title>5</title>
<polygon fill="none" stroke="black" points="346.5,-180 253.5,-180 253.5,-144 346.5,-144 346.5,-180"/>
<text text-anchor="middle" x="300" y="-158.3" font-family="Times,serif" font-size="14.00">Arms.Poisson</text>
</g>
<!-- 0&#45;&gt;5 -->
<g id="edge4" class="edge"><title>0&#45;&gt;5</title>
<path fill="none" stroke="black" d="M244.292,-108.303C253.433,-116.95 264.64,-127.551 274.6,-136.973"/>
<polygon fill="black" stroke="black" points="281.918,-143.896 271.561,-140.293 278.286,-140.46 274.654,-137.024 274.654,-137.024 274.654,-137.024 278.286,-140.46 277.746,-133.755 281.918,-143.896 281.918,-143.896"/>
</g>
<!-- 1 -->
<g id="node2" class="node"><title>1</title>
<polygon fill="none" stroke="black" points="223.5,-252 146.5,-252 146.5,-216 223.5,-216 223.5,-252"/>
<text text-anchor="middle" x="185" y="-230.3" font-family="Times,serif" font-size="14.00">Arms.Arm</text>
</g>
<!-- 2&#45;&gt;1 -->
<g id="edge5" class="edge"><title>2&#45;&gt;1</title>
<path fill="none" stroke="black" d="M364.853,-177.451C323.795,-189.112 268.531,-204.958 233.467,-215.964"/>
<polygon fill="black" stroke="black" points="223.707,-219.073 231.869,-211.75 228.471,-217.555 233.235,-216.037 233.235,-216.037 233.235,-216.037 228.471,-217.555 234.601,-220.325 223.707,-219.073 223.707,-219.073"/>
</g>
<!-- 6 -->
<g id="node7" class="node"><title>6</title>
<polygon fill="none" stroke="black" points="128,-252 30,-252 30,-216 128,-216 128,-252"/>
<text text-anchor="middle" x="79" y="-230.3" font-family="Times,serif" font-size="14.00">Arms.kullback</text>
</g>
<!-- 2&#45;&gt;6 -->
<g id="edge6" class="edge"><title>2&#45;&gt;6</title>
<path fill="none" stroke="black" d="M364.846,-177.689C361.524,-178.509 358.22,-179.288 355,-180 262.207,-200.529 234.512,-194.575 138.117,-215.898"/>
<polygon fill="black" stroke="black" points="128.254,-218.121 137.02,-211.533 133.132,-217.022 138.009,-215.923 138.009,-215.923 138.009,-215.923 133.132,-217.022 138.999,-220.313 128.254,-218.121 128.254,-218.121"/>
</g>
<!-- 3&#45;&gt;1 -->
<g id="edge7" class="edge"><title>3&#45;&gt;1</title>
<path fill="none" stroke="black" d="M89.0677,-180.124C105.827,-189.361 126.706,-200.869 144.702,-210.788"/>
<polygon fill="black" stroke="black" points="153.813,-215.81 142.883,-214.924 149.434,-213.397 145.055,-210.983 145.055,-210.983 145.055,-210.983 149.434,-213.397 147.227,-207.042 153.813,-215.81 153.813,-215.81"/>
</g>
<!-- 3&#45;&gt;6 -->
<g id="edge8" class="edge"><title>3&#45;&gt;6</title>
<path fill="none" stroke="black" d="M63.191,-180.303C65.5306,-188.102 68.3474,-197.491 70.9513,-206.171"/>
<polygon fill="black" stroke="black" points="73.8687,-215.896 66.6849,-207.61 72.4319,-211.107 70.9952,-206.317 70.9952,-206.317 70.9952,-206.317 72.4319,-211.107 75.3054,-205.024 73.8687,-215.896 73.8687,-215.896"/>
</g>
<!-- 4&#45;&gt;1 -->
<g id="edge9" class="edge"><title>4&#45;&gt;1</title>
<path fill="none" stroke="black" d="M185,-180.303C185,-188.017 185,-197.288 185,-205.888"/>
<polygon fill="black" stroke="black" points="185,-215.896 180.5,-205.896 185,-210.896 185,-205.896 185,-205.896 185,-205.896 185,-210.896 189.5,-205.896 185,-215.896 185,-215.896"/>
</g>
<!-- 4&#45;&gt;6 -->
<g id="edge10" class="edge"><title>4&#45;&gt;6</title>
<path fill="none" stroke="black" d="M159.069,-180.124C145.338,-189.192 128.294,-200.448 113.464,-210.241"/>
<polygon fill="black" stroke="black" points="105.03,-215.81 110.895,-206.544 109.203,-213.055 113.375,-210.3 113.375,-210.3 113.375,-210.3 109.203,-213.055 115.855,-214.055 105.03,-215.81 105.03,-215.81"/>
</g>
<!-- 5&#45;&gt;1 -->
<g id="edge11" class="edge"><title>5&#45;&gt;1</title>
<path fill="none" stroke="black" d="M271.868,-180.124C256.832,-189.276 238.133,-200.658 221.94,-210.515"/>
<polygon fill="black" stroke="black" points="213.24,-215.81 219.443,-206.767 217.511,-213.21 221.782,-210.611 221.782,-210.611 221.782,-210.611 217.511,-213.21 224.122,-214.455 213.24,-215.81 213.24,-215.81"/>
</g>
<!-- 5&#45;&gt;6 -->
<g id="edge12" class="edge"><title>5&#45;&gt;6</title>
<path fill="none" stroke="black" d="M253.402,-177.76C219.833,-188.392 174.275,-202.822 138.141,-214.267"/>
<polygon fill="black" stroke="black" points="128.218,-217.411 136.392,-210.101 132.984,-215.901 137.751,-214.391 137.751,-214.391 137.751,-214.391 132.984,-215.901 139.11,-218.681 128.218,-217.411 128.218,-217.411"/>
</g>
<!-- 7 -->
<g id="node8" class="node"><title>7</title>
<polygon fill="none" stroke="black" points="2587,-108 2499,-108 2499,-72 2587,-72 2587,-108"/>
<text text-anchor="middle" x="2543" y="-86.3" font-family="Times,serif" font-size="14.00">Environment</text>
</g>
<!-- 9 -->
<g id="node10" class="node"><title>9</title>
<polygon fill="none" stroke="black" points="2610,-180 2466,-180 2466,-144 2610,-144 2610,-180"/>
<text text-anchor="middle" x="2538" y="-158.3" font-family="Times,serif" font-size="14.00">Environment.Evaluator</text>
</g>
<!-- 7&#45;&gt;9 -->
<g id="edge13" class="edge"><title>7&#45;&gt;9</title>
<path fill="none" stroke="black" d="M2541.76,-108.303C2541.21,-116.017 2540.55,-125.288 2539.94,-133.888"/>
<polygon fill="black" stroke="black" points="2539.22,-143.896 2535.45,-133.6 2539.58,-138.908 2539.93,-133.921 2539.93,-133.921 2539.93,-133.921 2539.58,-138.908 2544.42,-134.242 2539.22,-143.896 2539.22,-143.896"/>
</g>
<!-- 10 -->
<g id="node11" class="node"><title>10</title>
<polygon fill="none" stroke="black" points="2919.5,-180 2704.5,-180 2704.5,-144 2919.5,-144 2919.5,-180"/>
<text text-anchor="middle" x="2812" y="-158.3" font-family="Times,serif" font-size="14.00">Environment.EvaluatorMultiPlayers</text>
</g>
<!-- 7&#45;&gt;10 -->
<g id="edge14" class="edge"><title>7&#45;&gt;10</title>
<path fill="none" stroke="black" d="M2587.18,-105.424C2590.16,-106.318 2593.12,-107.185 2596,-108 2638.82,-120.104 2686.85,-132.05 2726.73,-141.528"/>
<polygon fill="black" stroke="black" points="2736.69,-143.883 2725.92,-145.96 2731.82,-142.732 2726.96,-141.581 2726.96,-141.581 2726.96,-141.581 2731.82,-142.732 2727.99,-137.202 2736.69,-143.883 2736.69,-143.883"/>
</g>
<!-- 11 -->
<g id="node12" class="node"><title>11</title>
<polygon fill="none" stroke="black" points="2699.5,-252 2576.5,-252 2576.5,-216 2699.5,-216 2699.5,-252"/>
<text text-anchor="middle" x="2638" y="-230.3" font-family="Times,serif" font-size="14.00">Environment.MAB</text>
</g>
<!-- 7&#45;&gt;11 -->
<g id="edge15" class="edge"><title>7&#45;&gt;11</title>
<path fill="none" stroke="black" d="M2578.63,-108.195C2593.24,-116.97 2609.04,-128.99 2619,-144 2631.18,-162.351 2635.73,-187.11 2637.35,-205.854"/>
<polygon fill="black" stroke="black" points="2637.98,-215.836 2632.86,-206.143 2637.67,-210.846 2637.35,-205.856 2637.35,-205.856 2637.35,-205.856 2637.67,-210.846 2641.84,-205.57 2637.98,-215.836 2637.98,-215.836"/>
</g>
<!-- 12 -->
<g id="node13" class="node"><title>12</title>
<polygon fill="none" stroke="black" points="2558,-252 2432,-252 2432,-216 2558,-216 2558,-252"/>
<text text-anchor="middle" x="2495" y="-230.3" font-family="Times,serif" font-size="14.00">Environment.Result</text>
</g>
<!-- 7&#45;&gt;12 -->
<g id="edge16" class="edge"><title>7&#45;&gt;12</title>
<path fill="none" stroke="black" d="M2498.81,-107.312C2482.67,-115.668 2466.15,-127.615 2457,-144 2445.42,-164.735 2458.22,-189.706 2472,-207.914"/>
<polygon fill="black" stroke="black" points="2478.31,-215.764 2468.54,-210.794 2475.18,-211.868 2472.04,-207.973 2472.04,-207.973 2472.04,-207.973 2475.18,-211.868 2475.55,-205.152 2478.31,-215.764 2478.31,-215.764"/>
</g>
<!-- 8 -->
<g id="node9" class="node"><title>8</title>
<polygon fill="none" stroke="black" points="3288,-252 3106,-252 3106,-216 3288,-216 3288,-252"/>
<text text-anchor="middle" x="3197" y="-230.3" font-family="Times,serif" font-size="14.00">Environment.CollisionModels</text>
</g>
<!-- 9&#45;&gt;11 -->
<g id="edge17" class="edge"><title>9&#45;&gt;11</title>
<path fill="none" stroke="black" d="M2562.46,-180.124C2575.3,-189.107 2591.2,-200.237 2605.09,-209.966"/>
<polygon fill="black" stroke="black" points="2613.44,-215.81 2602.67,-213.762 2609.35,-212.943 2605.25,-210.076 2605.25,-210.076 2605.25,-210.076 2609.35,-212.943 2607.83,-206.389 2613.44,-215.81 2613.44,-215.81"/>
</g>
<!-- 9&#45;&gt;12 -->
<g id="edge18" class="edge"><title>9&#45;&gt;12</title>
<path fill="none" stroke="black" d="M2527.37,-180.303C2522.37,-188.441 2516.31,-198.311 2510.79,-207.299"/>
<polygon fill="black" stroke="black" points="2505.51,-215.896 2506.91,-205.019 2508.12,-211.635 2510.74,-207.375 2510.74,-207.375 2510.74,-207.375 2508.12,-211.635 2514.58,-209.73 2505.51,-215.896 2505.51,-215.896"/>
</g>
<!-- 14 -->
<g id="node15" class="node"><title>14</title>
<polygon fill="none" stroke="black" points="2872,-252 2718,-252 2718,-216 2872,-216 2872,-252"/>
<text text-anchor="middle" x="2795" y="-230.3" font-family="Times,serif" font-size="14.00">Environment.plotsettings</text>
</g>
<!-- 9&#45;&gt;14 -->
<g id="edge19" class="edge"><title>9&#45;&gt;14</title>
<path fill="none" stroke="black" d="M2600.54,-180.034C2637.23,-190.028 2683.76,-202.702 2722.11,-213.146"/>
<polygon fill="black" stroke="black" points="2732.18,-215.889 2721.35,-217.603 2727.35,-214.575 2722.53,-213.261 2722.53,-213.261 2722.53,-213.261 2727.35,-214.575 2723.71,-208.919 2732.18,-215.889 2732.18,-215.889"/>
</g>
<!-- 10&#45;&gt;8 -->
<g id="edge20" class="edge"><title>10&#45;&gt;8</title>
<path fill="none" stroke="black" d="M2905.69,-180.034C2963.24,-190.497 3036.95,-203.899 3095.82,-214.604"/>
<polygon fill="black" stroke="black" points="3105.88,-216.434 3095.24,-219.072 3100.97,-215.539 3096.05,-214.645 3096.05,-214.645 3096.05,-214.645 3100.97,-215.539 3096.85,-210.217 3105.88,-216.434 3105.88,-216.434"/>
</g>
<!-- 10&#45;&gt;11 -->
<g id="edge21" class="edge"><title>10&#45;&gt;11</title>
<path fill="none" stroke="black" d="M2769.43,-180.124C2745.44,-189.778 2715.27,-201.913 2689.9,-212.122"/>
<polygon fill="black" stroke="black" points="2680.43,-215.932 2688.02,-208.025 2685.07,-214.066 2689.7,-212.199 2689.7,-212.199 2689.7,-212.199 2685.07,-214.066 2691.38,-216.374 2680.43,-215.932 2680.43,-215.932"/>
</g>
<!-- 13 -->
<g id="node14" class="node"><title>13</title>
<polygon fill="none" stroke="black" points="3087.5,-252 2890.5,-252 2890.5,-216 3087.5,-216 3087.5,-252"/>
<text text-anchor="middle" x="2989" y="-230.3" font-family="Times,serif" font-size="14.00">Environment.ResultMultiPlayers</text>
</g>
<!-- 10&#45;&gt;13 -->
<g id="edge22" class="edge"><title>10&#45;&gt;13</title>
<path fill="none" stroke="black" d="M2855.3,-180.124C2879.71,-189.778 2910.4,-201.913 2936.21,-212.122"/>
<polygon fill="black" stroke="black" points="2945.84,-215.932 2934.89,-216.439 2941.19,-214.093 2936.54,-212.254 2936.54,-212.254 2936.54,-212.254 2941.19,-214.093 2938.2,-208.069 2945.84,-215.932 2945.84,-215.932"/>
</g>
<!-- 10&#45;&gt;14 -->
<g id="edge23" class="edge"><title>10&#45;&gt;14</title>
<path fill="none" stroke="black" d="M2807.8,-180.303C2805.9,-188.102 2803.62,-197.491 2801.52,-206.171"/>
<polygon fill="black" stroke="black" points="2799.15,-215.896 2797.14,-205.116 2800.33,-211.037 2801.51,-206.178 2801.51,-206.178 2801.51,-206.178 2800.33,-211.037 2805.89,-207.24 2799.15,-215.896 2799.15,-215.896"/>
</g>
<!-- 15 -->
<g id="node16" class="node"><title>15</title>
<polygon fill="none" stroke="black" points="1426.5,-180 1367.5,-180 1367.5,-144 1426.5,-144 1426.5,-180"/>
<text text-anchor="middle" x="1397" y="-158.3" font-family="Times,serif" font-size="14.00">Policies</text>
</g>
<!-- 16 -->
<g id="node17" class="node"><title>16</title>
<polygon fill="none" stroke="black" points="1818.5,-324 1697.5,-324 1697.5,-288 1818.5,-288 1818.5,-324"/>
<text text-anchor="middle" x="1758" y="-302.3" font-family="Times,serif" font-size="14.00">Policies.AdBandits</text>
</g>
<!-- 15&#45;&gt;16 -->
<g id="edge24" class="edge"><title>15&#45;&gt;16</title>
<path fill="none" stroke="black" d="M1426.56,-164.789C1513.72,-170.362 1765.13,-188.69 1789,-216 1804.66,-233.923 1792.51,-260.215 1779.1,-279.578"/>
<polygon fill="black" stroke="black" points="1773.15,-287.669 1775.45,-276.947 1776.12,-283.641 1779.08,-279.613 1779.08,-279.613 1779.08,-279.613 1776.12,-283.641 1782.7,-282.279 1773.15,-287.669 1773.15,-287.669"/>
</g>
<!-- 17 -->
<g id="node18" class="node"><title>17</title>
<polygon fill="none" stroke="black" points="1503.5,-468 1412.5,-468 1412.5,-432 1503.5,-432 1503.5,-468"/>
<text text-anchor="middle" x="1458" y="-446.3" font-family="Times,serif" font-size="14.00">Policies.Aggr</text>
</g>
<!-- 15&#45;&gt;17 -->
<g id="edge25" class="edge"><title>15&#45;&gt;17</title>
<path fill="none" stroke="black" d="M1426.61,-176.718C1441.98,-185.565 1459.31,-198.675 1468,-216 1501.93,-283.66 1480.97,-376.749 1467.2,-422.05"/>
<polygon fill="black" stroke="black" points="1464.14,-431.732 1462.86,-420.841 1465.65,-426.964 1467.15,-422.197 1467.15,-422.197 1467.15,-422.197 1465.65,-426.964 1471.44,-423.552 1464.14,-431.732 1464.14,-431.732"/>
</g>
<!-- 19 -->
<g id="node20" class="node"><title>19</title>
<polygon fill="none" stroke="black" points="1780,-252 1656,-252 1656,-216 1780,-216 1780,-252"/>
<text text-anchor="middle" x="1718" y="-230.3" font-family="Times,serif" font-size="14.00">Policies.BayesUCB</text>
</g>
<!-- 15&#45;&gt;19 -->
<g id="edge26" class="edge"><title>15&#45;&gt;19</title>
<path fill="none" stroke="black" d="M1426.69,-169.032C1471.83,-178.262 1560.67,-196.647 1645.85,-215.768"/>
<polygon fill="black" stroke="black" points="1655.68,-217.982 1644.94,-220.175 1650.81,-216.883 1645.93,-215.785 1645.93,-215.785 1645.93,-215.785 1650.81,-216.883 1646.92,-211.395 1655.68,-217.982 1655.68,-217.982"/>
</g>
<!-- 22 -->
<g id="node23" class="node"><title>22</title>
<polygon fill="none" stroke="black" points="1849.5,-396 1684.5,-396 1684.5,-360 1849.5,-360 1849.5,-396"/>
<text text-anchor="middle" x="1767" y="-374.3" font-family="Times,serif" font-size="14.00">Policies.EpsilonDecreasing</text>
</g>
<!-- 15&#45;&gt;22 -->
<g id="edge27" class="edge"><title>15&#45;&gt;22</title>
<path fill="none" stroke="black" d="M1426.74,-162.737C1511.21,-162.606 1750.12,-166.696 1807,-216 1843.89,-247.975 1847.07,-279.499 1827,-324 1821.82,-335.482 1812.79,-345.477 1803.28,-353.598"/>
<polygon fill="black" stroke="black" points="1795.26,-359.971 1800.29,-350.228 1799.18,-356.861 1803.09,-353.752 1803.09,-353.752 1803.09,-353.752 1799.18,-356.861 1805.89,-357.275 1795.26,-359.971 1795.26,-359.971"/>
</g>
<!-- 23 -->
<g id="node24" class="node"><title>23</title>
<polygon fill="none" stroke="black" points="1868.5,-468 1739.5,-468 1739.5,-432 1868.5,-432 1868.5,-468"/>
<text text-anchor="middle" x="1804" y="-446.3" font-family="Times,serif" font-size="14.00">Policies.EpsilonFirst</text>
</g>
<!-- 15&#45;&gt;23 -->
<g id="edge28" class="edge"><title>15&#45;&gt;23</title>
<path fill="none" stroke="black" d="M1426.76,-164.561C1520.55,-169.755 1805.45,-187.745 1835,-216 1893.29,-271.739 1889.21,-321.634 1858,-396 1853.36,-407.055 1845.17,-416.963 1836.54,-425.138"/>
<polygon fill="black" stroke="black" points="1828.93,-431.861 1833.44,-421.868 1832.68,-428.551 1836.42,-425.241 1836.42,-425.241 1836.42,-425.241 1832.68,-428.551 1839.4,-428.614 1828.93,-431.861 1828.93,-431.861"/>
</g>
<!-- 24 -->
<g id="node25" class="node"><title>24</title>
<polygon fill="none" stroke="black" points="2050,-396 1906,-396 1906,-360 2050,-360 2050,-396"/>
<text text-anchor="middle" x="1978" y="-374.3" font-family="Times,serif" font-size="14.00">Policies.EpsilonGreedy</text>
</g>
<!-- 15&#45;&gt;24 -->
<g id="edge29" class="edge"><title>15&#45;&gt;24</title>
<path fill="none" stroke="black" d="M1426.56,-162.478C1522.29,-161.338 1822.05,-162.225 1899,-216 1944.3,-247.652 1964.76,-312.8 1973.05,-349.786"/>
<polygon fill="black" stroke="black" points="1975.16,-359.856 1968.7,-350.992 1974.13,-354.963 1973.11,-350.069 1973.11,-350.069 1973.11,-350.069 1974.13,-354.963 1977.51,-349.146 1975.16,-359.856 1975.16,-359.856"/>
</g>
<!-- 27 -->
<g id="node28" class="node"><title>27</title>
<polygon fill="none" stroke="black" points="2029,-468 1925,-468 1925,-432 2029,-432 2029,-468"/>
<text text-anchor="middle" x="1977" y="-446.3" font-family="Times,serif" font-size="14.00">Policies.MEGA</text>
</g>
<!-- 15&#45;&gt;27 -->
<g id="edge30" class="edge"><title>15&#45;&gt;27</title>
<path fill="none" stroke="black" d="M1426.78,-163.161C1525.5,-164.124 1840.86,-170.754 1930,-216 2006.62,-254.891 2028.31,-279.743 2059,-360 2064.71,-374.945 2066.65,-381.947 2059,-396 2052.09,-408.699 2040.68,-418.819 2028.54,-426.67"/>
<polygon fill="black" stroke="black" points="2019.62,-431.989 2025.9,-423.002 2023.91,-429.428 2028.21,-426.866 2028.21,-426.866 2028.21,-426.866 2023.91,-429.428 2030.51,-430.731 2019.62,-431.989 2019.62,-431.989"/>
</g>
<!-- 28 -->
<g id="node29" class="node"><title>28</title>
<polygon fill="none" stroke="black" points="717.5,-396 616.5,-396 616.5,-360 717.5,-360 717.5,-396"/>
<text text-anchor="middle" x="667" y="-374.3" font-family="Times,serif" font-size="14.00">Policies.MOSS</text>
</g>
<!-- 15&#45;&gt;28 -->
<g id="edge31" class="edge"><title>15&#45;&gt;28</title>
<path fill="none" stroke="black" d="M1367.16,-163.988C1243.69,-168.238 772.534,-186.123 627,-216 531.995,-235.504 477.138,-208.911 421,-288 372.954,-355.688 518.892,-372.09 606.324,-375.935"/>
<polygon fill="black" stroke="black" points="616.418,-376.335 606.248,-380.435 611.422,-376.137 606.426,-375.939 606.426,-375.939 606.426,-375.939 611.422,-376.137 606.604,-371.443 616.418,-376.335 616.418,-376.335"/>
</g>
<!-- 29 -->
<g id="node30" class="node"><title>29</title>
<polygon fill="none" stroke="black" points="2184.5,-468 2047.5,-468 2047.5,-432 2184.5,-432 2184.5,-468"/>
<text text-anchor="middle" x="2116" y="-446.3" font-family="Times,serif" font-size="14.00">Policies.MusicalChair</text>
</g>
<!-- 15&#45;&gt;29 -->
<g id="edge32" class="edge"><title>15&#45;&gt;29</title>
<path fill="none" stroke="black" d="M1426.55,-163.139C1530,-164.02 1874.98,-170.389 1974,-216 2057.73,-254.566 2096.21,-369.129 2109.86,-421.87"/>
<polygon fill="black" stroke="black" points="2112.33,-431.845 2105.56,-423.222 2111.13,-426.992 2109.93,-422.139 2109.93,-422.139 2109.93,-422.139 2111.13,-426.992 2114.3,-421.056 2112.33,-431.845 2112.33,-431.845"/>
</g>
<!-- 31 -->
<g id="node32" class="node"><title>31</title>
<polygon fill="none" stroke="black" points="2254,-396 2144,-396 2144,-360 2254,-360 2254,-396"/>
<text text-anchor="middle" x="2199" y="-374.3" font-family="Times,serif" font-size="14.00">Policies.Softmax</text>
</g>
<!-- 15&#45;&gt;31 -->
<g id="edge33" class="edge"><title>15&#45;&gt;31</title>
<path fill="none" stroke="black" d="M1426.63,-163.346C1556.56,-165.1 2071.94,-174.633 2130,-216 2173.96,-247.318 2190.13,-312.595 2195.91,-349.691"/>
<polygon fill="black" stroke="black" points="2197.34,-359.794 2191.49,-350.521 2196.64,-354.843 2195.94,-349.892 2195.94,-349.892 2195.94,-349.892 2196.64,-354.843 2200.4,-349.263 2197.34,-359.794 2197.34,-359.794"/>
</g>
<!-- 32 -->
<g id="node33" class="node"><title>32</title>
<polygon fill="none" stroke="black" points="2355,-324 2209,-324 2209,-288 2355,-288 2355,-324"/>
<text text-anchor="middle" x="2282" y="-302.3" font-family="Times,serif" font-size="14.00">Policies.TakeFixedArm</text>
</g>
<!-- 15&#45;&gt;32 -->
<g id="edge34" class="edge"><title>15&#45;&gt;32</title>
<path fill="none" stroke="black" d="M1426.88,-162.612C1551.5,-161.366 2029.85,-160.368 2168,-216 2191.12,-225.31 2191.45,-236.539 2211,-252 2223.65,-262.001 2237.84,-272.697 2250.19,-281.842"/>
<polygon fill="black" stroke="black" points="2258.41,-287.898 2247.69,-285.587 2254.38,-284.932 2250.36,-281.965 2250.36,-281.965 2250.36,-281.965 2254.38,-284.932 2253.03,-278.343 2258.41,-287.898 2258.41,-287.898"/>
</g>
<!-- 33 -->
<g id="node34" class="node"><title>33</title>
<polygon fill="none" stroke="black" points="2413.5,-252 2220.5,-252 2220.5,-216 2413.5,-216 2413.5,-252"/>
<text text-anchor="middle" x="2317" y="-230.3" font-family="Times,serif" font-size="14.00">Policies.TakeRandomFixedArm</text>
</g>
<!-- 15&#45;&gt;33 -->
<g id="edge35" class="edge"><title>15&#45;&gt;33</title>
<path fill="none" stroke="black" d="M1426.83,-164.022C1533.06,-167.858 1902.72,-182.904 2206,-216 2207.31,-216.143 2208.62,-216.29 2209.95,-216.441"/>
<polygon fill="black" stroke="black" points="2220.2,-217.671 2209.74,-220.948 2215.24,-217.075 2210.28,-216.48 2210.28,-216.48 2210.28,-216.48 2215.24,-217.075 2210.81,-212.012 2220.2,-217.671 2220.2,-217.671"/>
</g>
<!-- 34 -->
<g id="node35" class="node"><title>34</title>
<polygon fill="none" stroke="black" points="1638,-252 1516,-252 1516,-216 1638,-216 1638,-252"/>
<text text-anchor="middle" x="1577" y="-230.3" font-family="Times,serif" font-size="14.00">Policies.Thompson</text>
</g>
<!-- 15&#45;&gt;34 -->
<g id="edge36" class="edge"><title>15&#45;&gt;34</title>
<path fill="none" stroke="black" d="M1426.72,-174.559C1452.97,-184.765 1491.86,-199.891 1523.51,-212.198"/>
<polygon fill="black" stroke="black" points="1533.07,-215.918 1522.12,-216.488 1528.41,-214.106 1523.75,-212.294 1523.75,-212.294 1523.75,-212.294 1528.41,-214.106 1525.39,-208.1 1533.07,-215.918 1533.07,-215.918"/>
</g>
<!-- 35 -->
<g id="node36" class="node"><title>35</title>
<polygon fill="none" stroke="black" points="916.5,-396 825.5,-396 825.5,-360 916.5,-360 916.5,-396"/>
<text text-anchor="middle" x="871" y="-374.3" font-family="Times,serif" font-size="14.00">Policies.UCB</text>
</g>
<!-- 15&#45;&gt;35 -->
<g id="edge37" class="edge"><title>15&#45;&gt;35</title>
<path fill="none" stroke="black" d="M1367.42,-165.101C1306.14,-170.051 1168.27,-184.483 1135,-216 1099,-250.102 1142.63,-289.516 1107,-324 1081.67,-348.516 988.045,-363.672 926.609,-371.2"/>
<polygon fill="black" stroke="black" points="916.665,-372.387 926.062,-366.734 921.63,-371.794 926.595,-371.202 926.595,-371.202 926.595,-371.202 921.63,-371.794 927.128,-375.67 916.665,-372.387 916.665,-372.387"/>
</g>
<!-- 36 -->
<g id="node37" class="node"><title>36</title>
<polygon fill="none" stroke="black" points="531.5,-324 430.5,-324 430.5,-288 531.5,-288 531.5,-324"/>
<text text-anchor="middle" x="481" y="-302.3" font-family="Times,serif" font-size="14.00">Policies.UCBV</text>
</g>
<!-- 15&#45;&gt;36 -->
<g id="edge38" class="edge"><title>15&#45;&gt;36</title>
<path fill="none" stroke="black" d="M1367.26,-163.612C1286.52,-165.782 1056.82,-175.351 871,-216 822.806,-226.542 813.866,-240.059 766,-252 670.81,-275.747 641.698,-266.772 541.551,-288.047"/>
<polygon fill="black" stroke="black" points="531.633,-290.202 540.449,-283.681 536.519,-289.14 541.405,-288.079 541.405,-288.079 541.405,-288.079 536.519,-289.14 542.36,-292.476 531.633,-290.202 531.633,-290.202"/>
</g>
<!-- 37 -->
<g id="node38" class="node"><title>37</title>
<polygon fill="none" stroke="black" points="670,-324 550,-324 550,-288 670,-288 670,-324"/>
<text text-anchor="middle" x="610" y="-302.3" font-family="Times,serif" font-size="14.00">Policies.UCBalpha</text>
</g>
<!-- 15&#45;&gt;37 -->
<g id="edge39" class="edge"><title>15&#45;&gt;37</title>
<path fill="none" stroke="black" d="M1367.24,-163.074C1293.91,-163.984 1099.31,-170.833 945,-216 909.898,-226.274 905.728,-240.527 871,-252 791.54,-278.25 765.711,-270.255 680.056,-287.873"/>
<polygon fill="black" stroke="black" points="670.165,-289.966 679.017,-283.493 675.056,-288.931 679.948,-287.896 679.948,-287.896 679.948,-287.896 675.056,-288.931 680.879,-292.299 670.165,-289.966 670.165,-289.966"/>
</g>
<!-- 38 -->
<g id="node39" class="node"><title>38</title>
<polygon fill="none" stroke="black" points="796,-324 688,-324 688,-288 796,-288 796,-324"/>
<text text-anchor="middle" x="742" y="-302.3" font-family="Times,serif" font-size="14.00">Policies.UCBopt</text>
</g>
<!-- 15&#45;&gt;38 -->
<g id="edge40" class="edge"><title>15&#45;&gt;38</title>
<path fill="none" stroke="black" d="M1367.39,-162.629C1300.09,-162.702 1131.37,-168.086 1001,-216 973.228,-226.207 972.118,-240.165 945,-252 888.992,-276.444 869.076,-272.148 806.302,-287.742"/>
<polygon fill="black" stroke="black" points="796.285,-290.308 804.856,-283.467 801.129,-289.067 805.973,-287.827 805.973,-287.827 805.973,-287.827 801.129,-289.067 807.089,-292.186 796.285,-290.308 796.285,-290.308"/>
</g>
<!-- 39 -->
<g id="node40" class="node"><title>39</title>
<polygon fill="none" stroke="black" points="927.5,-324 814.5,-324 814.5,-288 927.5,-288 927.5,-324"/>
<text text-anchor="middle" x="871" y="-302.3" font-family="Times,serif" font-size="14.00">Policies.UCBplus</text>
</g>
<!-- 15&#45;&gt;39 -->
<g id="edge41" class="edge"><title>15&#45;&gt;39</title>
<path fill="none" stroke="black" d="M1367.19,-163.442C1306.55,-165.232 1165.33,-173.986 1056,-216 1028.73,-226.48 1026.87,-238.422 1001,-252 977.962,-264.092 951.533,-275.315 928.546,-284.291"/>
<polygon fill="black" stroke="black" points="918.926,-287.997 926.64,-280.203 923.592,-286.2 928.257,-284.403 928.257,-284.403 928.257,-284.403 923.592,-286.2 929.875,-288.602 918.926,-287.997 918.926,-287.997"/>
</g>
<!-- 40 -->
<g id="node41" class="node"><title>40</title>
<polygon fill="none" stroke="black" points="1098,-324 946,-324 946,-288 1098,-288 1098,-324"/>
<text text-anchor="middle" x="1022" y="-302.3" font-family="Times,serif" font-size="14.00">Policies.UCBrandomInit</text>
</g>
<!-- 15&#45;&gt;40 -->
<g id="edge42" class="edge"><title>15&#45;&gt;40</title>
<path fill="none" stroke="black" d="M1367.27,-162.166C1311.58,-161.88 1189.28,-167.386 1102,-216 1074.96,-231.059 1052.3,-258.726 1038.08,-279.23"/>
<polygon fill="black" stroke="black" points="1032.34,-287.798 1034.17,-276.986 1035.12,-283.645 1037.91,-279.493 1037.91,-279.493 1037.91,-279.493 1035.12,-283.645 1041.64,-281.999 1032.34,-287.798 1032.34,-287.798"/>
</g>
<!-- 41 -->
<g id="node42" class="node"><title>41</title>
<polygon fill="none" stroke="black" points="757.5,-252 636.5,-252 636.5,-216 757.5,-216 757.5,-252"/>
<text text-anchor="middle" x="697" y="-230.3" font-family="Times,serif" font-size="14.00">Policies.UCBtuned</text>
</g>
<!-- 15&#45;&gt;41 -->
<g id="edge43" class="edge"><title>15&#45;&gt;41</title>
<path fill="none" stroke="black" d="M1367.25,-165.629C1284.25,-173.012 1043.09,-194.782 843,-216 818.464,-218.602 791.636,-221.663 767.746,-224.466"/>
<polygon fill="black" stroke="black" points="757.703,-225.649 767.108,-220.01 762.669,-225.064 767.635,-224.479 767.635,-224.479 767.635,-224.479 762.669,-225.064 768.161,-228.948 757.703,-225.649 757.703,-225.649"/>
</g>
<!-- 42 -->
<g id="node43" class="node"><title>42</title>
<polygon fill="none" stroke="black" points="374,-324 264,-324 264,-288 374,-288 374,-324"/>
<text text-anchor="middle" x="319" y="-302.3" font-family="Times,serif" font-size="14.00">Policies.Uniform</text>
</g>
<!-- 15&#45;&gt;42 -->
<g id="edge44" class="edge"><title>15&#45;&gt;42</title>
<path fill="none" stroke="black" d="M1367.21,-163.556C1216.16,-166.526 538.815,-181.674 452,-216 428.821,-225.165 429.363,-237.627 409,-252 393.52,-262.926 375.682,-273.763 359.991,-282.763"/>
<polygon fill="black" stroke="black" points="351.034,-287.836 357.518,-278.992 355.385,-285.372 359.735,-282.907 359.735,-282.907 359.735,-282.907 355.385,-285.372 361.953,-286.823 351.034,-287.836 351.034,-287.836"/>
</g>
<!-- 43 -->
<g id="node44" class="node"><title>43</title>
<polygon fill="none" stroke="black" points="400,-252 242,-252 242,-216 400,-216 400,-252"/>
<text text-anchor="middle" x="321" y="-230.3" font-family="Times,serif" font-size="14.00">Policies.UniformOnSome</text>
</g>
<!-- 15&#45;&gt;43 -->
<g id="edge45" class="edge"><title>15&#45;&gt;43</title>
<path fill="none" stroke="black" d="M1367.12,-163.23C1247.07,-164.445 788.26,-171.885 414,-216 412.716,-216.151 411.424,-216.309 410.124,-216.474"/>
<polygon fill="black" stroke="black" points="400.045,-217.846 409.346,-212.038 404.999,-217.171 409.953,-216.497 409.953,-216.497 409.953,-216.497 404.999,-217.171 410.56,-220.956 400.045,-217.846 400.045,-217.846"/>
</g>
<!-- 44 -->
<g id="node45" class="node"><title>44</title>
<polygon fill="none" stroke="black" points="1445.5,-324 1344.5,-324 1344.5,-288 1445.5,-288 1445.5,-324"/>
<text text-anchor="middle" x="1395" y="-302.3" font-family="Times,serif" font-size="14.00">Policies.klUCB</text>
</g>
<!-- 15&#45;&gt;44 -->
<g id="edge46" class="edge"><title>15&#45;&gt;44</title>
<path fill="none" stroke="black" d="M1367.35,-176.41C1351.68,-185.227 1333.89,-198.408 1325,-216 1317.78,-230.279 1317.88,-237.673 1325,-252 1331,-264.073 1341.21,-274.131 1352.01,-282.124"/>
<polygon fill="black" stroke="black" points="1360.32,-287.834 1349.53,-285.879 1356.2,-285.002 1352.08,-282.17 1352.08,-282.17 1352.08,-282.17 1356.2,-285.002 1354.62,-278.462 1360.32,-287.834 1360.32,-287.834"/>
</g>
<!-- 45 -->
<g id="node46" class="node"><title>45</title>
<polygon fill="none" stroke="black" points="1278,-252 1144,-252 1144,-216 1278,-216 1278,-252"/>
<text text-anchor="middle" x="1211" y="-230.3" font-family="Times,serif" font-size="14.00">Policies.klUCBHPlus</text>
</g>
<!-- 15&#45;&gt;45 -->
<g id="edge47" class="edge"><title>15&#45;&gt;45</title>
<path fill="none" stroke="black" d="M1367.12,-174.247C1339.92,-184.483 1299.08,-199.851 1266,-212.302"/>
<polygon fill="black" stroke="black" points="1256.45,-215.896 1264.22,-208.162 1261.13,-214.135 1265.81,-212.374 1265.81,-212.374 1265.81,-212.374 1261.13,-214.135 1267.39,-216.586 1256.45,-215.896 1256.45,-215.896"/>
</g>
<!-- 46 -->
<g id="node47" class="node"><title>46</title>
<polygon fill="none" stroke="black" points="1459.5,-252 1334.5,-252 1334.5,-216 1459.5,-216 1459.5,-252"/>
<text text-anchor="middle" x="1397" y="-230.3" font-family="Times,serif" font-size="14.00">Policies.klUCBPlus</text>
</g>
<!-- 15&#45;&gt;46 -->
<g id="edge48" class="edge"><title>15&#45;&gt;46</title>
<path fill="none" stroke="black" d="M1397,-180.303C1397,-188.017 1397,-197.288 1397,-205.888"/>
<polygon fill="black" stroke="black" points="1397,-215.896 1392.5,-205.896 1397,-210.896 1397,-205.896 1397,-205.896 1397,-205.896 1397,-210.896 1401.5,-205.896 1397,-215.896 1397,-215.896"/>
</g>
<!-- 18 -->
<g id="node19" class="node"><title>18</title>
<polygon fill="none" stroke="black" points="1866,-540 1742,-540 1742,-504 1866,-504 1866,-540"/>
<text text-anchor="middle" x="1804" y="-518.3" font-family="Times,serif" font-size="14.00">Policies.BasePolicy</text>
</g>
<!-- 16&#45;&gt;18 -->
<g id="edge49" class="edge"><title>16&#45;&gt;18</title>
<path fill="none" stroke="black" d="M1714.44,-324.134C1699.14,-332.512 1683.63,-344.257 1675,-360 1667.31,-374.032 1670.44,-380.664 1675,-396 1685.9,-432.628 1694.92,-441.04 1722,-468 1733.73,-479.674 1748.43,-490.151 1762.14,-498.647"/>
<polygon fill="black" stroke="black" points="1770.97,-503.937 1760.07,-502.654 1766.68,-501.366 1762.39,-498.795 1762.39,-498.795 1762.39,-498.795 1766.68,-501.366 1764.7,-494.935 1770.97,-503.937 1770.97,-503.937"/>
</g>
<!-- 21 -->
<g id="node22" class="node"><title>21</title>
<polygon fill="none" stroke="black" points="1628,-396 1540,-396 1540,-360 1628,-360 1628,-396"/>
<text text-anchor="middle" x="1584" y="-374.3" font-family="Times,serif" font-size="14.00">Policies.Beta</text>
</g>
<!-- 16&#45;&gt;21 -->
<g id="edge50" class="edge"><title>16&#45;&gt;21</title>
<path fill="none" stroke="black" d="M1715.43,-324.124C1691.44,-333.778 1661.27,-345.913 1635.9,-356.122"/>
<polygon fill="black" stroke="black" points="1626.43,-359.932 1634.02,-352.025 1631.07,-358.066 1635.7,-356.199 1635.7,-356.199 1635.7,-356.199 1631.07,-358.066 1637.38,-360.374 1626.43,-359.932 1626.43,-359.932"/>
</g>
<!-- 17&#45;&gt;18 -->
<g id="edge51" class="edge"><title>17&#45;&gt;18</title>
<path fill="none" stroke="black" d="M1503.5,-465.524C1506.7,-466.404 1509.89,-467.24 1513,-468 1586.91,-486.085 1672.75,-500.991 1731.95,-510.339"/>
<polygon fill="black" stroke="black" points="1741.95,-511.905 1731.38,-514.803 1737.01,-511.131 1732.07,-510.357 1732.07,-510.357 1732.07,-510.357 1737.01,-511.131 1732.77,-505.911 1741.95,-511.905 1741.95,-511.905"/>
</g>
<!-- 20 -->
<g id="node21" class="node"><title>20</title>
<polygon fill="none" stroke="black" points="1680,-324 1502,-324 1502,-288 1680,-288 1680,-324"/>
<text text-anchor="middle" x="1591" y="-302.3" font-family="Times,serif" font-size="14.00">Policies.BayesianIndexPolicy</text>
</g>
<!-- 19&#45;&gt;20 -->
<g id="edge52" class="edge"><title>19&#45;&gt;20</title>
<path fill="none" stroke="black" d="M1686.93,-252.124C1670.17,-261.361 1649.29,-272.869 1631.3,-282.788"/>
<polygon fill="black" stroke="black" points="1622.19,-287.81 1628.77,-279.042 1626.57,-285.397 1630.94,-282.983 1630.94,-282.983 1630.94,-282.983 1626.57,-285.397 1633.12,-286.924 1622.19,-287.81 1622.19,-287.81"/>
</g>
<!-- 20&#45;&gt;21 -->
<g id="edge53" class="edge"><title>20&#45;&gt;21</title>
<path fill="none" stroke="black" d="M1589.27,-324.303C1588.5,-332.017 1587.57,-341.288 1586.71,-349.888"/>
<polygon fill="black" stroke="black" points="1585.71,-359.896 1582.23,-349.497 1586.21,-354.92 1586.71,-349.945 1586.71,-349.945 1586.71,-349.945 1586.21,-354.92 1591.18,-350.393 1585.71,-359.896 1585.71,-359.896"/>
</g>
<!-- 25 -->
<g id="node26" class="node"><title>25</title>
<polygon fill="none" stroke="black" points="1339,-468 1211,-468 1211,-432 1339,-432 1339,-468"/>
<text text-anchor="middle" x="1275" y="-446.3" font-family="Times,serif" font-size="14.00">Policies.IndexPolicy</text>
</g>
<!-- 20&#45;&gt;25 -->
<g id="edge54" class="edge"><title>20&#45;&gt;25</title>
<path fill="none" stroke="black" d="M1554.84,-324.005C1516.15,-342.121 1452.93,-371.505 1398,-396 1373.94,-406.731 1347.08,-418.346 1324.61,-427.96"/>
<polygon fill="black" stroke="black" points="1315.27,-431.949 1322.7,-423.882 1319.87,-429.985 1324.47,-428.02 1324.47,-428.02 1324.47,-428.02 1319.87,-429.985 1326.24,-432.159 1315.27,-431.949 1315.27,-431.949"/>
</g>
<!-- 30 -->
<g id="node31" class="node"><title>30</title>
<polygon fill="none" stroke="black" points="1634,-468 1522,-468 1522,-432 1634,-432 1634,-468"/>
<text text-anchor="middle" x="1578" y="-446.3" font-family="Times,serif" font-size="14.00">Policies.Posterior</text>
</g>
<!-- 21&#45;&gt;30 -->
<g id="edge55" class="edge"><title>21&#45;&gt;30</title>
<path fill="none" stroke="black" d="M1582.52,-396.303C1581.86,-404.017 1581.06,-413.288 1580.32,-421.888"/>
<polygon fill="black" stroke="black" points="1579.47,-431.896 1575.84,-421.548 1579.89,-426.914 1580.32,-421.932 1580.32,-421.932 1580.32,-421.932 1579.89,-426.914 1584.8,-422.317 1579.47,-431.896 1579.47,-431.896"/>
</g>
<!-- 22&#45;&gt;18 -->
<g id="edge56" class="edge"><title>22&#45;&gt;18</title>
<path fill="none" stroke="black" d="M1750.96,-396.098C1735.94,-414.292 1717.53,-443.74 1730,-468 1736.27,-480.209 1746.81,-490.234 1757.99,-498.152"/>
<polygon fill="black" stroke="black" points="1766.61,-503.798 1755.78,-502.082 1762.43,-501.058 1758.24,-498.318 1758.24,-498.318 1758.24,-498.318 1762.43,-501.058 1760.71,-494.554 1766.61,-503.798 1766.61,-503.798"/>
</g>
<!-- 23&#45;&gt;18 -->
<g id="edge57" class="edge"><title>23&#45;&gt;18</title>
<path fill="none" stroke="black" d="M1804,-468.303C1804,-476.017 1804,-485.288 1804,-493.888"/>
<polygon fill="black" stroke="black" points="1804,-503.896 1799.5,-493.896 1804,-498.896 1804,-493.896 1804,-493.896 1804,-493.896 1804,-498.896 1808.5,-493.896 1804,-503.896 1804,-503.896"/>
</g>
<!-- 24&#45;&gt;18 -->
<g id="edge58" class="edge"><title>24&#45;&gt;18</title>
<path fill="none" stroke="black" d="M1957.45,-396.232C1945.29,-406.505 1929.66,-419.868 1916,-432 1898.36,-447.667 1895.24,-453.045 1877,-468 1864.5,-478.246 1850.22,-488.843 1837.62,-497.843"/>
<polygon fill="black" stroke="black" points="1829.21,-503.795 1834.77,-494.345 1833.29,-500.907 1837.37,-498.019 1837.37,-498.019 1837.37,-498.019 1833.29,-500.907 1839.97,-501.692 1829.21,-503.795 1829.21,-503.795"/>
</g>
<!-- 25&#45;&gt;18 -->
<g id="edge59" class="edge"><title>25&#45;&gt;18</title>
<path fill="none" stroke="black" d="M1339.13,-459.526C1359.55,-462.237 1382.22,-465.247 1403,-468 1517.99,-483.236 1651.54,-500.876 1731.83,-511.475"/>
<polygon fill="black" stroke="black" points="1741.83,-512.795 1731.33,-515.948 1736.87,-512.141 1731.92,-511.486 1731.92,-511.486 1731.92,-511.486 1736.87,-512.141 1732.5,-507.025 1741.83,-512.795 1741.83,-512.795"/>
</g>
<!-- 26 -->
<g id="node27" class="node"><title>26</title>
<polygon fill="none" stroke="black" points="1287.5,-324 1154.5,-324 1154.5,-288 1287.5,-288 1287.5,-324"/>
<text text-anchor="middle" x="1221" y="-302.3" font-family="Times,serif" font-size="14.00">Policies.KLempUCB</text>
</g>
<!-- 26&#45;&gt;25 -->
<g id="edge60" class="edge"><title>26&#45;&gt;25</title>
<path fill="none" stroke="black" d="M1225.21,-324.037C1229.91,-342.18 1238.17,-371.586 1248,-396 1251.59,-404.908 1256.13,-414.339 1260.46,-422.736"/>
<polygon fill="black" stroke="black" points="1265.2,-431.696 1256.55,-424.96 1262.87,-427.276 1260.53,-422.856 1260.53,-422.856 1260.53,-422.856 1262.87,-427.276 1264.51,-420.752 1265.2,-431.696 1265.2,-431.696"/>
</g>
<!-- 47 -->
<g id="node48" class="node"><title>47</title>
<polygon fill="none" stroke="black" points="1367,-396 1257,-396 1257,-360 1367,-360 1367,-396"/>
<text text-anchor="middle" x="1312" y="-374.3" font-family="Times,serif" font-size="14.00">Policies.kullback</text>
</g>
<!-- 26&#45;&gt;47 -->
<g id="edge61" class="edge"><title>26&#45;&gt;47</title>
<path fill="none" stroke="black" d="M1243.49,-324.303C1254.96,-333.119 1269.06,-343.968 1281.48,-353.526"/>
<polygon fill="black" stroke="black" points="1289.76,-359.896 1279.09,-357.365 1285.8,-356.847 1281.84,-353.799 1281.84,-353.799 1281.84,-353.799 1285.8,-356.847 1284.58,-350.232 1289.76,-359.896 1289.76,-359.896"/>
</g>
<!-- 27&#45;&gt;18 -->
<g id="edge62" class="edge"><title>27&#45;&gt;18</title>
<path fill="none" stroke="black" d="M1934.68,-468.124C1910.82,-477.778 1880.83,-489.913 1855.6,-500.122"/>
<polygon fill="black" stroke="black" points="1846.18,-503.932 1853.77,-496.009 1850.82,-502.056 1855.45,-500.181 1855.45,-500.181 1855.45,-500.181 1850.82,-502.056 1857.14,-504.352 1846.18,-503.932 1846.18,-503.932"/>
</g>
<!-- 28&#45;&gt;25 -->
<g id="edge63" class="edge"><title>28&#45;&gt;25</title>
<path fill="none" stroke="black" d="M717.532,-384.818C824.657,-397.151 1075.01,-425.975 1200.51,-440.424"/>
<polygon fill="black" stroke="black" points="1210.79,-441.607 1200.34,-444.934 1205.82,-441.035 1200.86,-440.464 1200.86,-440.464 1200.86,-440.464 1205.82,-441.035 1201.37,-435.993 1210.79,-441.607 1210.79,-441.607"/>
</g>
<!-- 29&#45;&gt;18 -->
<g id="edge64" class="edge"><title>29&#45;&gt;18</title>
<path fill="none" stroke="black" d="M2047.14,-466.448C1996.42,-477.829 1927.6,-493.27 1876.12,-504.819"/>
<polygon fill="black" stroke="black" points="1866.07,-507.075 1874.84,-500.495 1870.94,-505.98 1875.82,-504.886 1875.82,-504.886 1875.82,-504.886 1870.94,-505.98 1876.81,-509.277 1866.07,-507.075 1866.07,-507.075"/>
</g>
<!-- 31&#45;&gt;18 -->
<g id="edge65" class="edge"><title>31&#45;&gt;18</title>
<path fill="none" stroke="black" d="M2203.58,-396.224C2207.76,-416.214 2210.87,-448.874 2193,-468 2151.22,-512.723 1976.63,-520.781 1876.12,-521.607"/>
<polygon fill="black" stroke="black" points="1866.04,-521.668 1876.01,-517.107 1871.04,-521.638 1876.04,-521.607 1876.04,-521.607 1876.04,-521.607 1871.04,-521.638 1876.07,-526.107 1866.04,-521.668 1866.04,-521.668"/>
</g>
<!-- 32&#45;&gt;18 -->
<g id="edge66" class="edge"><title>32&#45;&gt;18</title>
<path fill="none" stroke="black" d="M2280.9,-324.256C2277.61,-359.033 2264.67,-436.87 2214,-468 2158.94,-501.825 1978.49,-514.288 1876.29,-518.705"/>
<polygon fill="black" stroke="black" points="1866.04,-519.132 1875.84,-514.22 1871.04,-518.924 1876.03,-518.716 1876.03,-518.716 1876.03,-518.716 1871.04,-518.924 1876.22,-523.212 1866.04,-519.132 1866.04,-519.132"/>
</g>
<!-- 33&#45;&gt;32 -->
<g id="edge67" class="edge"><title>33&#45;&gt;32</title>
<path fill="none" stroke="black" d="M2308.35,-252.303C2304.36,-260.272 2299.55,-269.9 2295.13,-278.736"/>
<polygon fill="black" stroke="black" points="2290.55,-287.896 2291,-276.939 2292.79,-283.424 2295.02,-278.951 2295.02,-278.951 2295.02,-278.951 2292.79,-283.424 2299.05,-280.964 2290.55,-287.896 2290.55,-287.896"/>
</g>
<!-- 34&#45;&gt;20 -->
<g id="edge68" class="edge"><title>34&#45;&gt;20</title>
<path fill="none" stroke="black" d="M1580.46,-252.303C1582,-260.017 1583.86,-269.288 1585.58,-277.888"/>
<polygon fill="black" stroke="black" points="1587.58,-287.896 1581.21,-278.972 1586.6,-282.993 1585.62,-278.09 1585.62,-278.09 1585.62,-278.09 1586.6,-282.993 1590.03,-277.207 1587.58,-287.896 1587.58,-287.896"/>
</g>
<!-- 35&#45;&gt;25 -->
<g id="edge69" class="edge"><title>35&#45;&gt;25</title>
<path fill="none" stroke="black" d="M916.559,-386.894C985.666,-398.868 1117.72,-421.748 1200.81,-436.145"/>
<polygon fill="black" stroke="black" points="1210.69,-437.857 1200.07,-440.584 1205.76,-437.003 1200.84,-436.15 1200.84,-436.15 1200.84,-436.15 1205.76,-437.003 1201.6,-431.716 1210.69,-437.857 1210.69,-437.857"/>
</g>
<!-- 36&#45;&gt;35 -->
<g id="edge70" class="edge"><title>36&#45;&gt;35</title>
<path fill="none" stroke="black" d="M531.633,-321.796C534.793,-322.579 537.934,-323.322 541,-324 636.459,-345.113 749.208,-361.393 815.14,-370.056"/>
<polygon fill="black" stroke="black" points="825.31,-371.38 814.812,-374.551 820.351,-370.734 815.393,-370.089 815.393,-370.089 815.393,-370.089 820.351,-370.734 815.975,-365.626 825.31,-371.38 825.31,-371.38"/>
</g>
<!-- 37&#45;&gt;35 -->
<g id="edge71" class="edge"><title>37&#45;&gt;35</title>
<path fill="none" stroke="black" d="M670.206,-323.147C714.062,-334.909 773.014,-350.72 815.686,-362.165"/>
<polygon fill="black" stroke="black" points="825.347,-364.756 814.523,-366.512 820.518,-363.461 815.689,-362.165 815.689,-362.165 815.689,-362.165 820.518,-363.461 816.854,-357.819 825.347,-364.756 825.347,-364.756"/>
</g>
<!-- 38&#45;&gt;35 -->
<g id="edge72" class="edge"><title>38&#45;&gt;35</title>
<path fill="none" stroke="black" d="M773.557,-324.124C790.658,-333.404 811.982,-344.975 830.319,-354.925"/>
<polygon fill="black" stroke="black" points="839.322,-359.81 828.386,-358.996 834.927,-357.426 830.532,-355.041 830.532,-355.041 830.532,-355.041 834.927,-357.426 832.679,-351.086 839.322,-359.81 839.322,-359.81"/>
</g>
<!-- 39&#45;&gt;35 -->
<g id="edge73" class="edge"><title>39&#45;&gt;35</title>
<path fill="none" stroke="black" d="M871,-324.303C871,-332.017 871,-341.288 871,-349.888"/>
<polygon fill="black" stroke="black" points="871,-359.896 866.5,-349.896 871,-354.896 871,-349.896 871,-349.896 871,-349.896 871,-354.896 875.5,-349.896 871,-359.896 871,-359.896"/>
</g>
<!-- 40&#45;&gt;35 -->
<g id="edge74" class="edge"><title>40&#45;&gt;35</title>
<path fill="none" stroke="black" d="M985.061,-324.124C964.51,-333.651 938.749,-345.593 916.911,-355.717"/>
<polygon fill="black" stroke="black" points="907.819,-359.932 914.999,-351.643 912.355,-357.829 916.891,-355.726 916.891,-355.726 916.891,-355.726 912.355,-357.829 918.784,-359.808 907.819,-359.932 907.819,-359.932"/>
</g>
<!-- 41&#45;&gt;36 -->
<g id="edge75" class="edge"><title>41&#45;&gt;36</title>
<path fill="none" stroke="black" d="M644.437,-252.034C613.315,-262.12 573.768,-274.936 541.37,-285.435"/>
<polygon fill="black" stroke="black" points="531.563,-288.614 539.689,-281.25 536.319,-287.072 541.076,-285.531 541.076,-285.531 541.076,-285.531 536.319,-287.072 542.463,-289.812 531.563,-288.614 531.563,-288.614"/>
</g>
<!-- 42&#45;&gt;18 -->
<g id="edge76" class="edge"><title>42&#45;&gt;18</title>
<path fill="none" stroke="black" d="M365.21,-324.103C421.538,-344.288 519.99,-377.448 607,-396 1027.13,-485.578 1544.47,-511.897 1731.91,-518.788"/>
<polygon fill="black" stroke="black" points="1741.92,-519.149 1731.77,-523.286 1736.93,-518.969 1731.93,-518.789 1731.93,-518.789 1731.93,-518.789 1736.93,-518.969 1732.09,-514.292 1741.92,-519.149 1741.92,-519.149"/>
</g>
<!-- 43&#45;&gt;42 -->
<g id="edge77" class="edge"><title>43&#45;&gt;42</title>
<path fill="none" stroke="black" d="M320.506,-252.303C320.285,-260.017 320.02,-269.288 319.775,-277.888"/>
<polygon fill="black" stroke="black" points="319.489,-287.896 315.276,-277.771 319.632,-282.898 319.774,-277.9 319.774,-277.9 319.774,-277.9 319.632,-282.898 324.273,-278.028 319.489,-287.896 319.489,-287.896"/>
</g>
<!-- 44&#45;&gt;25 -->
<g id="edge78" class="edge"><title>44&#45;&gt;25</title>
<path fill="none" stroke="black" d="M1395.49,-324.169C1395.17,-343.509 1391.95,-374.978 1376,-396 1365.94,-409.261 1351.6,-419.528 1336.87,-427.337"/>
<polygon fill="black" stroke="black" points="1327.69,-431.886 1334.65,-423.415 1332.17,-429.667 1336.65,-427.448 1336.65,-427.448 1336.65,-427.448 1332.17,-429.667 1338.64,-431.48 1327.69,-431.886 1327.69,-431.886"/>
</g>
<!-- 44&#45;&gt;47 -->
<g id="edge79" class="edge"><title>44&#45;&gt;47</title>
<path fill="none" stroke="black" d="M1374.48,-324.303C1364.13,-333.035 1351.41,-343.76 1340.16,-353.25"/>
<polygon fill="black" stroke="black" points="1332.28,-359.896 1337.02,-350.009 1336.1,-356.672 1339.93,-353.449 1339.93,-353.449 1339.93,-353.449 1336.1,-356.672 1342.83,-356.889 1332.28,-359.896 1332.28,-359.896"/>
</g>
<!-- 45&#45;&gt;44 -->
<g id="edge80" class="edge"><title>45&#45;&gt;44</title>
<path fill="none" stroke="black" d="M1256.01,-252.124C1281.5,-261.821 1313.57,-274.02 1340.48,-284.257"/>
<polygon fill="black" stroke="black" points="1350.13,-287.932 1339.19,-288.582 1345.46,-286.154 1340.79,-284.376 1340.79,-284.376 1340.79,-284.376 1345.46,-286.154 1342.39,-280.17 1350.13,-287.932 1350.13,-287.932"/>
</g>
<!-- 45&#45;&gt;47 -->
<g id="edge81" class="edge"><title>45&#45;&gt;47</title>
<path fill="none" stroke="black" d="M1252.82,-252.07C1268.69,-260.59 1285.46,-272.452 1296,-288 1308.28,-306.119 1311.93,-330.898 1312.71,-349.71"/>
<polygon fill="black" stroke="black" points="1312.88,-359.734 1308.21,-349.812 1312.79,-354.734 1312.71,-349.735 1312.71,-349.735 1312.71,-349.735 1312.79,-354.734 1317.21,-349.658 1312.88,-359.734 1312.88,-359.734"/>
</g>
<!-- 46&#45;&gt;44 -->
<g id="edge82" class="edge"><title>46&#45;&gt;44</title>
<path fill="none" stroke="black" d="M1396.51,-252.303C1396.29,-260.017 1396.02,-269.288 1395.77,-277.888"/>
<polygon fill="black" stroke="black" points="1395.49,-287.896 1391.28,-277.771 1395.63,-282.898 1395.77,-277.9 1395.77,-277.9 1395.77,-277.9 1395.63,-282.898 1400.27,-278.028 1395.49,-287.896 1395.49,-287.896"/>
</g>
<!-- 48 -->
<g id="node49" class="node"><title>48</title>
<polygon fill="none" stroke="black" points="3956,-180 3826,-180 3826,-144 3956,-144 3956,-180"/>
<text text-anchor="middle" x="3891" y="-158.3" font-family="Times,serif" font-size="14.00">PoliciesMultiPlayers</text>
</g>
<!-- 51 -->
<g id="node52" class="node"><title>51</title>
<polygon fill="none" stroke="black" points="3754,-252 3536,-252 3536,-216 3754,-216 3754,-252"/>
<text text-anchor="middle" x="3645" y="-230.3" font-family="Times,serif" font-size="14.00">PoliciesMultiPlayers.CentralizedFair</text>
</g>
<!-- 48&#45;&gt;51 -->
<g id="edge83" class="edge"><title>48&#45;&gt;51</title>
<path fill="none" stroke="black" d="M3831.14,-180.034C3796.02,-190.028 3751.48,-202.702 3714.77,-213.146"/>
<polygon fill="black" stroke="black" points="3705.13,-215.889 3713.52,-208.824 3709.94,-214.521 3714.75,-213.152 3714.75,-213.152 3714.75,-213.152 3709.94,-214.521 3715.98,-217.48 3705.13,-215.889 3705.13,-215.889"/>
</g>
<!-- 52 -->
<g id="node53" class="node"><title>52</title>
<polygon fill="none" stroke="black" points="4010,-252 3772,-252 3772,-216 4010,-216 4010,-252"/>
<text text-anchor="middle" x="3891" y="-230.3" font-family="Times,serif" font-size="14.00">PoliciesMultiPlayers.CentralizedNotFair</text>
</g>
<!-- 48&#45;&gt;52 -->
<g id="edge84" class="edge"><title>48&#45;&gt;52</title>
<path fill="none" stroke="black" d="M3891,-180.303C3891,-188.017 3891,-197.288 3891,-205.888"/>
<polygon fill="black" stroke="black" points="3891,-215.896 3886.5,-205.896 3891,-210.896 3891,-205.896 3891,-205.896 3891,-205.896 3891,-210.896 3895.5,-205.896 3891,-215.896 3891,-215.896"/>
</g>
<!-- 55 -->
<g id="node56" class="node"><title>55</title>
<polygon fill="none" stroke="black" points="4219.5,-252 4028.5,-252 4028.5,-216 4219.5,-216 4219.5,-252"/>
<text text-anchor="middle" x="4124" y="-230.3" font-family="Times,serif" font-size="14.00">PoliciesMultiPlayers.OracleFair</text>
</g>
<!-- 48&#45;&gt;55 -->
<g id="edge85" class="edge"><title>48&#45;&gt;55</title>
<path fill="none" stroke="black" d="M3947.7,-180.034C3980.68,-189.943 4022.43,-202.486 4057.03,-212.879"/>
<polygon fill="black" stroke="black" points="4067.05,-215.889 4056.17,-217.322 4062.26,-214.451 4057.47,-213.012 4057.47,-213.012 4057.47,-213.012 4062.26,-214.451 4058.76,-208.702 4067.05,-215.889 4067.05,-215.889"/>
</g>
<!-- 56 -->
<g id="node57" class="node"><title>56</title>
<polygon fill="none" stroke="black" points="3518,-252 3306,-252 3306,-216 3518,-216 3518,-252"/>
<text text-anchor="middle" x="3412" y="-230.3" font-family="Times,serif" font-size="14.00">PoliciesMultiPlayers.OracleNotFair</text>
</g>
<!-- 48&#45;&gt;56 -->
<g id="edge86" class="edge"><title>48&#45;&gt;56</title>
<path fill="none" stroke="black" d="M3825.9,-172.436C3755.2,-182.692 3638.65,-199.63 3528.19,-215.827"/>
<polygon fill="black" stroke="black" points="3518.2,-217.292 3527.45,-211.388 3523.15,-216.566 3528.1,-215.84 3528.1,-215.84 3528.1,-215.84 3523.15,-216.566 3528.75,-220.293 3518.2,-217.292 3518.2,-217.292"/>
</g>
<!-- 57 -->
<g id="node58" class="node"><title>57</title>
<polygon fill="none" stroke="black" points="4607.5,-252 4436.5,-252 4436.5,-216 4607.5,-216 4607.5,-252"/>
<text text-anchor="middle" x="4522" y="-230.3" font-family="Times,serif" font-size="14.00">PoliciesMultiPlayers.Selfish</text>
</g>
<!-- 48&#45;&gt;57 -->
<g id="edge87" class="edge"><title>48&#45;&gt;57</title>
<path fill="none" stroke="black" d="M3956.38,-167.8C4055.66,-175.458 4250.56,-191.929 4426.39,-215.981"/>
<polygon fill="black" stroke="black" points="4436.34,-217.353 4425.82,-220.445 4431.39,-216.67 4426.44,-215.987 4426.44,-215.987 4426.44,-215.987 4431.39,-216.67 4427.05,-211.529 4436.34,-217.353 4436.34,-217.353"/>
</g>
<!-- 59 -->
<g id="node60" class="node"><title>59</title>
<polygon fill="none" stroke="black" points="4418,-252 4238,-252 4238,-216 4418,-216 4418,-252"/>
<text text-anchor="middle" x="4328" y="-230.3" font-family="Times,serif" font-size="14.00">PoliciesMultiPlayers.rhoRand</text>
</g>
<!-- 48&#45;&gt;59 -->
<g id="edge88" class="edge"><title>48&#45;&gt;59</title>
<path fill="none" stroke="black" d="M3956.16,-172.93C4022.06,-183.039 4127.15,-199.336 4227.86,-215.824"/>
<polygon fill="black" stroke="black" points="4237.9,-217.471 4227.3,-220.293 4232.97,-216.662 4228.03,-215.853 4228.03,-215.853 4228.03,-215.853 4232.97,-216.662 4228.76,-211.412 4237.9,-217.471 4237.9,-217.471"/>
</g>
<!-- 49 -->
<g id="node50" class="node"><title>49</title>
<polygon fill="none" stroke="black" points="3773.5,-324 3516.5,-324 3516.5,-288 3773.5,-288 3773.5,-324"/>
<text text-anchor="middle" x="3645" y="-302.3" font-family="Times,serif" font-size="14.00">PoliciesMultiPlayers.BaseCentralizedPolicy</text>
</g>
<!-- 50 -->
<g id="node51" class="node"><title>50</title>
<polygon fill="none" stroke="black" points="4230.5,-324 4015.5,-324 4015.5,-288 4230.5,-288 4230.5,-324"/>
<text text-anchor="middle" x="4123" y="-302.3" font-family="Times,serif" font-size="14.00">PoliciesMultiPlayers.BaseMPPolicy</text>
</g>
<!-- 51&#45;&gt;49 -->
<g id="edge89" class="edge"><title>51&#45;&gt;49</title>
<path fill="none" stroke="black" d="M3645,-252.303C3645,-260.017 3645,-269.288 3645,-277.888"/>
<polygon fill="black" stroke="black" points="3645,-287.896 3640.5,-277.896 3645,-282.896 3645,-277.896 3645,-277.896 3645,-277.896 3645,-282.896 3649.5,-277.896 3645,-287.896 3645,-287.896"/>
</g>
<!-- 51&#45;&gt;50 -->
<g id="edge90" class="edge"><title>51&#45;&gt;50</title>
<path fill="none" stroke="black" d="M3754.06,-250.972C3828.95,-261.939 3928.3,-276.488 4005.03,-287.725"/>
<polygon fill="black" stroke="black" points="4015.23,-289.218 4004.68,-292.221 4010.28,-288.493 4005.33,-287.769 4005.33,-287.769 4005.33,-287.769 4010.28,-288.493 4005.99,-283.316 4015.23,-289.218 4015.23,-289.218"/>
</g>
<!-- 53 -->
<g id="node54" class="node"><title>53</title>
<polygon fill="none" stroke="black" points="3995.5,-324 3792.5,-324 3792.5,-288 3995.5,-288 3995.5,-324"/>
<text text-anchor="middle" x="3894" y="-302.3" font-family="Times,serif" font-size="14.00">PoliciesMultiPlayers.ChildPointer</text>
</g>
<!-- 51&#45;&gt;53 -->
<g id="edge91" class="edge"><title>51&#45;&gt;53</title>
<path fill="none" stroke="black" d="M3705.59,-252.034C3741.14,-262.028 3786.22,-274.702 3823.38,-285.146"/>
<polygon fill="black" stroke="black" points="3833.13,-287.889 3822.29,-289.515 3828.32,-286.536 3823.51,-285.183 3823.51,-285.183 3823.51,-285.183 3828.32,-286.536 3824.73,-280.851 3833.13,-287.889 3833.13,-287.889"/>
</g>
<!-- 52&#45;&gt;49 -->
<g id="edge92" class="edge"><title>52&#45;&gt;49</title>
<path fill="none" stroke="black" d="M3831.14,-252.034C3796.02,-262.028 3751.48,-274.702 3714.77,-285.146"/>
<polygon fill="black" stroke="black" points="3705.13,-287.889 3713.52,-280.824 3709.94,-286.521 3714.75,-285.152 3714.75,-285.152 3714.75,-285.152 3709.94,-286.521 3715.98,-289.48 3705.13,-287.889 3705.13,-287.889"/>
</g>
<!-- 52&#45;&gt;50 -->
<g id="edge93" class="edge"><title>52&#45;&gt;50</title>
<path fill="none" stroke="black" d="M3947.46,-252.034C3980.3,-261.943 4021.87,-274.486 4056.31,-284.879"/>
<polygon fill="black" stroke="black" points="4066.29,-287.889 4055.42,-289.309 4061.5,-286.445 4056.72,-285.001 4056.72,-285.001 4056.72,-285.001 4061.5,-286.445 4058.02,-280.692 4066.29,-287.889 4066.29,-287.889"/>
</g>
<!-- 52&#45;&gt;53 -->
<g id="edge94" class="edge"><title>52&#45;&gt;53</title>
<path fill="none" stroke="black" d="M3891.74,-252.303C3892.07,-260.017 3892.47,-269.288 3892.84,-277.888"/>
<polygon fill="black" stroke="black" points="3893.27,-287.896 3888.34,-278.098 3893.05,-282.9 3892.84,-277.905 3892.84,-277.905 3892.84,-277.905 3893.05,-282.9 3897.33,-277.712 3893.27,-287.896 3893.27,-287.896"/>
</g>
<!-- 54 -->
<g id="node55" class="node"><title>54</title>
<polygon fill="none" stroke="black" points="2929.5,-36 2764.5,-36 2764.5,-0 2929.5,-0 2929.5,-36"/>
<text text-anchor="middle" x="2847" y="-14.3" font-family="Times,serif" font-size="14.00">PoliciesMultiPlayers.DMC</text>
</g>
<!-- 55&#45;&gt;49 -->
<g id="edge95" class="edge"><title>55&#45;&gt;49</title>
<path fill="none" stroke="black" d="M4028.44,-250.553C4025.26,-251.045 4022.1,-251.529 4019,-252 3939.74,-264.032 3850.89,-276.658 3779.68,-286.568"/>
<polygon fill="black" stroke="black" points="3769.76,-287.948 3779.04,-282.114 3774.71,-287.26 3779.66,-286.571 3779.66,-286.571 3779.66,-286.571 3774.71,-287.26 3780.28,-291.028 3769.76,-287.948 3769.76,-287.948"/>
</g>
<!-- 55&#45;&gt;50 -->
<g id="edge96" class="edge"><title>55&#45;&gt;50</title>
<path fill="none" stroke="black" d="M4123.75,-252.303C4123.64,-260.017 4123.51,-269.288 4123.39,-277.888"/>
<polygon fill="black" stroke="black" points="4123.24,-287.896 4118.89,-277.832 4123.32,-282.896 4123.39,-277.897 4123.39,-277.897 4123.39,-277.897 4123.32,-282.896 4127.89,-277.961 4123.24,-287.896 4123.24,-287.896"/>
</g>
<!-- 55&#45;&gt;53 -->
<g id="edge97" class="edge"><title>55&#45;&gt;53</title>
<path fill="none" stroke="black" d="M4068.03,-252.034C4035.47,-261.943 3994.26,-274.486 3960.11,-284.879"/>
<polygon fill="black" stroke="black" points="3950.22,-287.889 3958.48,-280.672 3955,-286.433 3959.79,-284.978 3959.79,-284.978 3959.79,-284.978 3955,-286.433 3961.1,-289.283 3950.22,-287.889 3950.22,-287.889"/>
</g>
<!-- 56&#45;&gt;49 -->
<g id="edge98" class="edge"><title>56&#45;&gt;49</title>
<path fill="none" stroke="black" d="M3468.7,-252.034C3501.68,-261.943 3543.43,-274.486 3578.03,-284.879"/>
<polygon fill="black" stroke="black" points="3588.05,-287.889 3577.17,-289.322 3583.26,-286.451 3578.47,-285.012 3578.47,-285.012 3578.47,-285.012 3583.26,-286.451 3579.76,-280.702 3588.05,-287.889 3588.05,-287.889"/>
</g>
<!-- 56&#45;&gt;50 -->
<g id="edge99" class="edge"><title>56&#45;&gt;50</title>
<path fill="none" stroke="black" d="M3518.17,-250.977C3521.14,-251.334 3524.09,-251.676 3527,-252 3738.29,-275.56 3792.65,-264.954 4004,-288 4004.47,-288.051 4004.93,-288.102 4005.4,-288.154"/>
<polygon fill="black" stroke="black" points="4015.37,-289.296 4004.92,-292.628 4010.4,-288.727 4005.43,-288.157 4005.43,-288.157 4005.43,-288.157 4010.4,-288.727 4005.94,-283.686 4015.37,-289.296 4015.37,-289.296"/>
</g>
<!-- 56&#45;&gt;53 -->
<g id="edge100" class="edge"><title>56&#45;&gt;53</title>
<path fill="none" stroke="black" d="M3518.2,-250.725C3521.17,-251.156 3524.1,-251.581 3527,-252 3640.28,-268.369 3668.75,-271.412 3782,-288 3782.11,-288.016 3782.21,-288.031 3782.32,-288.047"/>
<polygon fill="black" stroke="black" points="3792.37,-289.526 3781.82,-292.521 3787.42,-288.798 3782.47,-288.069 3782.47,-288.069 3782.47,-288.069 3787.42,-288.798 3783.13,-283.617 3792.37,-289.526 3792.37,-289.526"/>
</g>
<!-- 57&#45;&gt;50 -->
<g id="edge101" class="edge"><title>57&#45;&gt;50</title>
<path fill="none" stroke="black" d="M4436.3,-250.354C4433.16,-250.911 4430.05,-251.461 4427,-252 4362.04,-263.474 4289.25,-276.172 4231.18,-286.261"/>
<polygon fill="black" stroke="black" points="4221.25,-287.985 4230.33,-281.84 4226.18,-287.129 4231.1,-286.274 4231.1,-286.274 4231.1,-286.274 4226.18,-287.129 4231.87,-290.707 4221.25,-287.985 4221.25,-287.985"/>
</g>
<!-- 57&#45;&gt;53 -->
<g id="edge102" class="edge"><title>57&#45;&gt;53</title>
<path fill="none" stroke="black" d="M4436.35,-250.7C4433.2,-251.159 4430.07,-251.595 4427,-252 4240.82,-276.566 4192.49,-265.897 4006,-288 4005.89,-288.013 4005.79,-288.025 4005.68,-288.038"/>
<polygon fill="black" stroke="black" points="3995.6,-289.282 4004.98,-283.591 4000.56,-288.67 4005.53,-288.057 4005.53,-288.057 4005.53,-288.057 4000.56,-288.67 4006.08,-292.523 3995.6,-289.282 3995.6,-289.282"/>
</g>
<!-- 58 -->
<g id="node59" class="node"><title>58</title>
<polygon fill="none" stroke="black" points="3114.5,-36 2947.5,-36 2947.5,-0 3114.5,-0 3114.5,-36"/>
<text text-anchor="middle" x="3031" y="-14.3" font-family="Times,serif" font-size="14.00">PoliciesMultiPlayers.TDFS</text>
</g>
<!-- 59&#45;&gt;50 -->
<g id="edge103" class="edge"><title>59&#45;&gt;50</title>
<path fill="none" stroke="black" d="M4278.11,-252.034C4249.35,-261.858 4212.99,-274.271 4182.71,-284.611"/>
<polygon fill="black" stroke="black" points="4173.11,-287.889 4181.12,-280.399 4177.84,-286.273 4182.57,-284.658 4182.57,-284.658 4182.57,-284.658 4177.84,-286.273 4184.03,-288.916 4173.11,-287.889 4173.11,-287.889"/>
</g>
<!-- 59&#45;&gt;53 -->
<g id="edge104" class="edge"><title>59&#45;&gt;53</title>
<path fill="none" stroke="black" d="M4237.9,-250.523C4234.9,-251.024 4231.93,-251.517 4229,-252 4154.54,-264.283 4070.66,-277.552 4005.47,-287.741"/>
<polygon fill="black" stroke="black" points="3995.58,-289.285 4004.76,-283.296 4000.52,-288.514 4005.46,-287.742 4005.46,-287.742 4005.46,-287.742 4000.52,-288.514 4006.15,-292.188 3995.58,-289.285 3995.58,-289.285"/>
</g>
<!-- 60 -->
<g id="node61" class="node"><title>60</title>
<polygon fill="none" stroke="black" points="402.5,-108 313.5,-108 313.5,-72 402.5,-72 402.5,-108"/>
<text text-anchor="middle" x="358" y="-86.3" font-family="Times,serif" font-size="14.00">configuration</text>
</g>
<!-- 60&#45;&gt;2 -->
<g id="edge105" class="edge"><title>60&#45;&gt;2</title>
<path fill="none" stroke="black" d="M372.337,-108.303C379.291,-116.695 387.77,-126.93 395.401,-136.139"/>
<polygon fill="black" stroke="black" points="401.828,-143.896 391.983,-139.067 398.638,-140.046 395.448,-136.195 395.448,-136.195 395.448,-136.195 398.638,-140.046 398.913,-133.324 401.828,-143.896 401.828,-143.896"/>
</g>
<!-- 60&#45;&gt;3 -->
<g id="edge106" class="edge"><title>60&#45;&gt;3</title>
<path fill="none" stroke="black" d="M313.255,-100.832C268.4,-110.766 197.106,-126.763 126.098,-143.764"/>
<polygon fill="black" stroke="black" points="116.083,-146.169 124.756,-139.458 120.945,-145.001 125.806,-143.834 125.806,-143.834 125.806,-143.834 120.945,-145.001 126.857,-148.209 116.083,-146.169 116.083,-146.169"/>
</g>
<!-- 60&#45;&gt;4 -->
<g id="edge107" class="edge"><title>60&#45;&gt;4</title>
<path fill="none" stroke="black" d="M315.679,-108.124C291.819,-117.778 261.828,-129.913 236.597,-140.122"/>
<polygon fill="black" stroke="black" points="227.183,-143.932 234.765,-136.009 231.818,-142.056 236.453,-140.181 236.453,-140.181 236.453,-140.181 231.818,-142.056 238.141,-144.352 227.183,-143.932 227.183,-143.932"/>
</g>
<!-- 60&#45;&gt;5 -->
<g id="edge108" class="edge"><title>60&#45;&gt;5</title>
<path fill="none" stroke="black" d="M343.663,-108.303C336.709,-116.695 328.23,-126.93 320.599,-136.139"/>
<polygon fill="black" stroke="black" points="314.172,-143.896 317.087,-133.324 317.362,-140.046 320.552,-136.195 320.552,-136.195 320.552,-136.195 317.362,-140.046 324.017,-139.067 314.172,-143.896 314.172,-143.896"/>
</g>
<!-- 60&#45;&gt;15 -->
<g id="edge109" class="edge"><title>60&#45;&gt;15</title>
<path fill="none" stroke="black" d="M402.645,-94.0078C574.819,-105.608 1194.18,-147.335 1357.36,-158.329"/>
<polygon fill="black" stroke="black" points="1367.44,-159.009 1357.16,-162.826 1362.45,-158.672 1357.46,-158.336 1357.46,-158.336 1357.46,-158.336 1362.45,-158.672 1357.77,-153.846 1367.44,-159.009 1367.44,-159.009"/>
</g>
<!-- 61 -->
<g id="node62" class="node"><title>61</title>
<polygon fill="none" stroke="black" points="2769,-108 2605,-108 2605,-72 2769,-72 2769,-108"/>
<text text-anchor="middle" x="2687" y="-86.3" font-family="Times,serif" font-size="14.00">configuration_multiplayers</text>
</g>
<!-- 61&#45;&gt;2 -->
<g id="edge110" class="edge"><title>61&#45;&gt;2</title>
<path fill="none" stroke="black" d="M2604.75,-106.977C2601.8,-107.355 2598.88,-107.698 2596,-108 2487.93,-119.334 819.847,-152.976 477.228,-159.789"/>
<polygon fill="black" stroke="black" points="467.009,-159.992 476.917,-155.294 472.008,-159.892 477.007,-159.793 477.007,-159.793 477.007,-159.793 472.008,-159.892 477.096,-164.292 467.009,-159.992 467.009,-159.992"/>
</g>
<!-- 61&#45;&gt;8 -->
<g id="edge111" class="edge"><title>61&#45;&gt;8</title>
<path fill="none" stroke="black" d="M2769.22,-106.893C2816.05,-116.489 2875.64,-129.621 2928,-144 3002.35,-164.417 3086.5,-193.197 3140.58,-212.445"/>
<polygon fill="black" stroke="black" points="3150.31,-215.924 3139.38,-216.797 3145.6,-214.242 3140.9,-212.56 3140.9,-212.56 3140.9,-212.56 3145.6,-214.242 3142.41,-208.322 3150.31,-215.924 3150.31,-215.924"/>
</g>
<!-- 61&#45;&gt;11 -->
<g id="edge112" class="edge"><title>61&#45;&gt;11</title>
<path fill="none" stroke="black" d="M2681.09,-108.129C2672.7,-132.436 2657.26,-177.181 2647.32,-205.987"/>
<polygon fill="black" stroke="black" points="2643.93,-215.811 2642.94,-204.89 2645.56,-211.084 2647.19,-206.358 2647.19,-206.358 2647.19,-206.358 2645.56,-211.084 2651.45,-207.826 2643.93,-215.811 2643.93,-215.811"/>
</g>
<!-- 61&#45;&gt;15 -->
<g id="edge113" class="edge"><title>61&#45;&gt;15</title>
<path fill="none" stroke="black" d="M2604.74,-106.903C2601.79,-107.302 2598.87,-107.67 2596,-108 2143.19,-160.043 1588.77,-161.844 1437.01,-161.266"/>
<polygon fill="black" stroke="black" points="1426.78,-161.221 1436.8,-156.765 1431.78,-161.243 1436.78,-161.265 1436.78,-161.265 1436.78,-161.265 1431.78,-161.243 1436.76,-165.765 1426.78,-161.221 1426.78,-161.221"/>
</g>
<!-- 61&#45;&gt;48 -->
<g id="edge114" class="edge"><title>61&#45;&gt;48</title>
<path fill="none" stroke="black" d="M2769.28,-95.7838C2991.54,-108.706 3601.62,-144.176 3815.62,-156.617"/>
<polygon fill="black" stroke="black" points="3825.81,-157.21 3815.56,-161.122 3820.82,-156.92 3815.83,-156.629 3815.83,-156.629 3815.83,-156.629 3820.82,-156.92 3816.09,-152.137 3825.81,-157.21 3825.81,-157.21"/>
</g>
<!-- 62 -->
<g id="node63" class="node"><title>62</title>
<polygon fill="none" stroke="black" points="2498,-36 2444,-36 2444,-0 2498,-0 2498,-36"/>
<text text-anchor="middle" x="2471" y="-14.3" font-family="Times,serif" font-size="14.00">main</text>
</g>
<!-- 62&#45;&gt;7 -->
<g id="edge115" class="edge"><title>62&#45;&gt;7</title>
<path fill="none" stroke="black" d="M2488.8,-36.3034C2497.6,-44.865 2508.38,-55.3438 2518,-64.6955"/>
<polygon fill="black" stroke="black" points="2525.41,-71.8957 2515.1,-68.1513 2521.82,-68.4103 2518.24,-64.9249 2518.24,-64.9249 2518.24,-64.9249 2521.82,-68.4103 2521.37,-61.6984 2525.41,-71.8957 2525.41,-71.8957"/>
</g>
<!-- 62&#45;&gt;9 -->
<g id="edge116" class="edge"><title>62&#45;&gt;9</title>
<path fill="none" stroke="black" d="M2472.02,-36.2851C2473.72,-54.8965 2478.19,-84.9352 2490,-108 2495.28,-118.322 2503.1,-128.167 2510.9,-136.51"/>
<polygon fill="black" stroke="black" points="2517.99,-143.719 2507.77,-139.741 2514.48,-140.153 2510.98,-136.587 2510.98,-136.587 2510.98,-136.587 2514.48,-140.153 2514.19,-133.433 2517.99,-143.719 2517.99,-143.719"/>
</g>
<!-- 62&#45;&gt;60 -->
<g id="edge117" class="edge"><title>62&#45;&gt;60</title>
<path fill="none" stroke="black" d="M2443.9,-19.8978C2223.1,-27.2124 719.956,-77.009 412.763,-87.1858"/>
<polygon fill="black" stroke="black" points="402.762,-87.5171 412.608,-82.6884 407.76,-87.3515 412.757,-87.1859 412.757,-87.1859 412.757,-87.1859 407.76,-87.3515 412.906,-91.6834 402.762,-87.5171 402.762,-87.5171"/>
</g>
<!-- 63 -->
<g id="node64" class="node"><title>63</title>
<polygon fill="none" stroke="black" points="2746.5,-36 2627.5,-36 2627.5,-0 2746.5,-0 2746.5,-36"/>
<text text-anchor="middle" x="2687" y="-14.3" font-family="Times,serif" font-size="14.00">main_multiplayers</text>
</g>
<!-- 63&#45;&gt;7 -->
<g id="edge118" class="edge"><title>63&#45;&gt;7</title>
<path fill="none" stroke="black" d="M2651.77,-36.1239C2632.42,-45.5307 2608.23,-57.2923 2587.57,-67.3328"/>
<polygon fill="black" stroke="black" points="2578.36,-71.8102 2585.39,-63.3911 2582.86,-69.6243 2587.36,-67.4383 2587.36,-67.4383 2587.36,-67.4383 2582.86,-69.6243 2589.32,-71.4854 2578.36,-71.8102 2578.36,-71.8102"/>
</g>
<!-- 63&#45;&gt;10 -->
<g id="edge119" class="edge"><title>63&#45;&gt;10</title>
<path fill="none" stroke="black" d="M2729.33,-36.0966C2746.35,-44.7313 2764.98,-56.6722 2778,-72 2793.09,-89.7633 2801.87,-114.935 2806.71,-133.979"/>
<polygon fill="black" stroke="black" points="2809.01,-143.842 2802.36,-135.126 2807.88,-138.973 2806.74,-134.104 2806.74,-134.104 2806.74,-134.104 2807.88,-138.973 2811.12,-133.081 2809.01,-143.842 2809.01,-143.842"/>
</g>
<!-- 63&#45;&gt;61 -->
<g id="edge120" class="edge"><title>63&#45;&gt;61</title>
<path fill="none" stroke="black" d="M2687,-36.3034C2687,-44.0173 2687,-53.2875 2687,-61.8876"/>
<polygon fill="black" stroke="black" points="2687,-71.8957 2682.5,-61.8956 2687,-66.8957 2687,-61.8957 2687,-61.8957 2687,-61.8957 2687,-66.8957 2691.5,-61.8957 2687,-71.8957 2687,-71.8957"/>
</g>
</g>
</svg>
