<?xml version="1.0" encoding="UTF-8" standalone="no"?>
<!DOCTYPE svg PUBLIC "-//W3C//DTD SVG 1.1//EN"
 "http://www.w3.org/Graphics/SVG/1.1/DTD/svg11.dtd">
<!-- Generated by graphviz version 2.38.0 (20140413.2041)
 -->
<!-- Title: packages_AlgoBandits Pages: 1 -->
<svg width="5487pt" height="548pt"
 viewBox="0.00 0.00 5486.50 548.00" xmlns="http://www.w3.org/2000/svg" xmlns:xlink="http://www.w3.org/1999/xlink">
<g id="graph0" class="graph" transform="scale(1 1) rotate(0) translate(4 544)">
<title>packages_AlgoBandits</title>
<polygon fill="white" stroke="none" points="-4,4 -4,-544 5482.5,-544 5482.5,4 -4,4"/>
<!-- 0 -->
<g id="node1" class="node"><title>0</title>
<polygon fill="none" stroke="black" points="304,-108 250,-108 250,-72 304,-72 304,-108"/>
<text text-anchor="middle" x="277" y="-86.3" font-family="Times,serif" font-size="14.00">Arms</text>
</g>
<!-- 2 -->
<g id="node3" class="node"><title>2</title>
<polygon fill="none" stroke="black" points="328,-180 226,-180 226,-144 328,-144 328,-180"/>
<text text-anchor="middle" x="277" y="-158.3" font-family="Times,serif" font-size="14.00">Arms.Bernoulli</text>
</g>
<!-- 0&#45;&gt;2 -->
<g id="edge1" class="edge"><title>0&#45;&gt;2</title>
<path fill="none" stroke="black" d="M277,-108.303C277,-116.017 277,-125.288 277,-133.888"/>
<polygon fill="black" stroke="black" points="277,-143.896 272.5,-133.896 277,-138.896 277,-133.896 277,-133.896 277,-133.896 277,-138.896 281.5,-133.896 277,-143.896 277,-143.896"/>
</g>
<!-- 3 -->
<g id="node4" class="node"><title>3</title>
<polygon fill="none" stroke="black" points="462,-180 346,-180 346,-144 462,-144 462,-180"/>
<text text-anchor="middle" x="404" y="-158.3" font-family="Times,serif" font-size="14.00">Arms.Exponential</text>
</g>
<!-- 0&#45;&gt;3 -->
<g id="edge2" class="edge"><title>0&#45;&gt;3</title>
<path fill="none" stroke="black" d="M304.245,-106.017C321.611,-115.588 344.417,-128.159 363.839,-138.864"/>
<polygon fill="black" stroke="black" points="372.777,-143.791 361.847,-142.904 368.398,-141.377 364.019,-138.963 364.019,-138.963 364.019,-138.963 368.398,-141.377 366.192,-135.022 372.777,-143.791 372.777,-143.791"/>
</g>
<!-- 4 -->
<g id="node5" class="node"><title>4</title>
<polygon fill="none" stroke="black" points="581.5,-180 480.5,-180 480.5,-144 581.5,-144 581.5,-180"/>
<text text-anchor="middle" x="531" y="-158.3" font-family="Times,serif" font-size="14.00">Arms.Gaussian</text>
</g>
<!-- 0&#45;&gt;4 -->
<g id="edge3" class="edge"><title>0&#45;&gt;4</title>
<path fill="none" stroke="black" d="M304.012,-98.2936C339.756,-107.963 404.976,-125.672 470.59,-143.898"/>
<polygon fill="black" stroke="black" points="480.27,-146.59 469.43,-148.247 475.453,-145.251 470.636,-143.911 470.636,-143.911 470.636,-143.911 475.453,-145.251 471.842,-139.576 480.27,-146.59 480.27,-146.59"/>
</g>
<!-- 5 -->
<g id="node6" class="node"><title>5</title>
<polygon fill="none" stroke="black" points="208.5,-180 115.5,-180 115.5,-144 208.5,-144 208.5,-180"/>
<text text-anchor="middle" x="162" y="-158.3" font-family="Times,serif" font-size="14.00">Arms.Poisson</text>
</g>
<!-- 0&#45;&gt;5 -->
<g id="edge4" class="edge"><title>0&#45;&gt;5</title>
<path fill="none" stroke="black" d="M249.747,-107.589C234.615,-116.799 215.577,-128.388 199.105,-138.414"/>
<polygon fill="black" stroke="black" points="190.259,-143.799 196.461,-134.756 194.53,-141.199 198.801,-138.6 198.801,-138.6 198.801,-138.6 194.53,-141.199 201.141,-142.443 190.259,-143.799 190.259,-143.799"/>
</g>
<!-- 6 -->
<g id="node7" class="node"><title>6</title>
<polygon fill="none" stroke="black" points="98,-180 7.10543e-15,-180 7.10543e-15,-144 98,-144 98,-180"/>
<text text-anchor="middle" x="49" y="-158.3" font-family="Times,serif" font-size="14.00">Arms.Uniform</text>
</g>
<!-- 0&#45;&gt;6 -->
<g id="edge5" class="edge"><title>0&#45;&gt;6</title>
<path fill="none" stroke="black" d="M249.95,-99.3048C215.223,-109.967 153.994,-128.765 108.221,-142.818"/>
<polygon fill="black" stroke="black" points="98.4112,-145.83 106.65,-138.593 103.191,-144.362 107.971,-142.895 107.971,-142.895 107.971,-142.895 103.191,-144.362 109.292,-147.197 98.4112,-145.83 98.4112,-145.83"/>
</g>
<!-- 1 -->
<g id="node2" class="node"><title>1</title>
<polygon fill="none" stroke="black" points="209.5,-252 132.5,-252 132.5,-216 209.5,-216 209.5,-252"/>
<text text-anchor="middle" x="171" y="-230.3" font-family="Times,serif" font-size="14.00">Arms.Arm</text>
</g>
<!-- 2&#45;&gt;1 -->
<g id="edge6" class="edge"><title>2&#45;&gt;1</title>
<path fill="none" stroke="black" d="M251.069,-180.124C237.338,-189.192 220.294,-200.448 205.464,-210.241"/>
<polygon fill="black" stroke="black" points="197.03,-215.81 202.895,-206.544 201.203,-213.055 205.375,-210.3 205.375,-210.3 205.375,-210.3 201.203,-213.055 207.855,-214.055 197.03,-215.81 197.03,-215.81"/>
</g>
<!-- 7 -->
<g id="node8" class="node"><title>7</title>
<polygon fill="none" stroke="black" points="326,-252 228,-252 228,-216 326,-216 326,-252"/>
<text text-anchor="middle" x="277" y="-230.3" font-family="Times,serif" font-size="14.00">Arms.kullback</text>
</g>
<!-- 2&#45;&gt;7 -->
<g id="edge7" class="edge"><title>2&#45;&gt;7</title>
<path fill="none" stroke="black" d="M277,-180.303C277,-188.017 277,-197.288 277,-205.888"/>
<polygon fill="black" stroke="black" points="277,-215.896 272.5,-205.896 277,-210.896 277,-205.896 277,-205.896 277,-205.896 277,-210.896 281.5,-205.896 277,-215.896 277,-215.896"/>
</g>
<!-- 3&#45;&gt;1 -->
<g id="edge8" class="edge"><title>3&#45;&gt;1</title>
<path fill="none" stroke="black" d="M345.813,-178.683C311.525,-188.153 267.127,-200.807 219.31,-215.992"/>
<polygon fill="black" stroke="black" points="209.703,-219.063 217.859,-211.732 214.466,-217.541 219.229,-216.018 219.229,-216.018 219.229,-216.018 214.466,-217.541 220.599,-220.305 209.703,-219.063 209.703,-219.063"/>
</g>
<!-- 3&#45;&gt;7 -->
<g id="edge9" class="edge"><title>3&#45;&gt;7</title>
<path fill="none" stroke="black" d="M372.932,-180.124C356.173,-189.361 335.294,-200.869 317.298,-210.788"/>
<polygon fill="black" stroke="black" points="308.187,-215.81 314.773,-207.042 312.566,-213.397 316.945,-210.983 316.945,-210.983 316.945,-210.983 312.566,-213.397 319.117,-214.924 308.187,-215.81 308.187,-215.81"/>
</g>
<!-- 4&#45;&gt;1 -->
<g id="edge10" class="edge"><title>4&#45;&gt;1</title>
<path fill="none" stroke="black" d="M480.38,-177.858C477.217,-178.627 474.071,-179.349 471,-180 363.459,-202.809 330.709,-189.772 219.5,-216.186"/>
<polygon fill="black" stroke="black" points="209.572,-218.598 218.227,-211.864 214.431,-217.417 219.289,-216.237 219.289,-216.237 219.289,-216.237 214.431,-217.417 220.352,-220.61 209.572,-218.598 209.572,-218.598"/>
</g>
<!-- 4&#45;&gt;7 -->
<g id="edge11" class="edge"><title>4&#45;&gt;7</title>
<path fill="none" stroke="black" d="M480.27,-177.41C477.134,-178.289 474.025,-179.158 471,-180 425.764,-192.587 374.518,-206.576 336.06,-217.02"/>
<polygon fill="black" stroke="black" points="326.07,-219.731 334.542,-212.769 330.895,-218.422 335.721,-217.112 335.721,-217.112 335.721,-217.112 330.895,-218.422 336.899,-221.455 326.07,-219.731 326.07,-219.731"/>
</g>
<!-- 5&#45;&gt;1 -->
<g id="edge12" class="edge"><title>5&#45;&gt;1</title>
<path fill="none" stroke="black" d="M164.225,-180.303C165.217,-188.017 166.408,-197.288 167.514,-205.888"/>
<polygon fill="black" stroke="black" points="168.801,-215.896 163.062,-206.551 168.163,-210.936 167.526,-205.977 167.526,-205.977 167.526,-205.977 168.163,-210.936 171.989,-205.403 168.801,-215.896 168.801,-215.896"/>
</g>
<!-- 5&#45;&gt;7 -->
<g id="edge13" class="edge"><title>5&#45;&gt;7</title>
<path fill="none" stroke="black" d="M190.132,-180.124C205.168,-189.276 223.867,-200.658 240.06,-210.515"/>
<polygon fill="black" stroke="black" points="248.76,-215.81 237.878,-214.455 244.489,-213.21 240.218,-210.611 240.218,-210.611 240.218,-210.611 244.489,-213.21 242.557,-206.767 248.76,-215.81 248.76,-215.81"/>
</g>
<!-- 6&#45;&gt;1 -->
<g id="edge14" class="edge"><title>6&#45;&gt;1</title>
<path fill="none" stroke="black" d="M78.8446,-180.124C94.9438,-189.361 115.001,-200.869 132.288,-210.788"/>
<polygon fill="black" stroke="black" points="141.041,-215.81 130.128,-214.737 136.704,-213.322 132.367,-210.834 132.367,-210.834 132.367,-210.834 136.704,-213.322 134.607,-206.93 141.041,-215.81 141.041,-215.81"/>
</g>
<!-- 8 -->
<g id="node9" class="node"><title>8</title>
<polygon fill="none" stroke="black" points="3072,-108 2984,-108 2984,-72 3072,-72 3072,-108"/>
<text text-anchor="middle" x="3028" y="-86.3" font-family="Times,serif" font-size="14.00">Environment</text>
</g>
<!-- 10 -->
<g id="node11" class="node"><title>10</title>
<polygon fill="none" stroke="black" points="2999,-180 2855,-180 2855,-144 2999,-144 2999,-180"/>
<text text-anchor="middle" x="2927" y="-158.3" font-family="Times,serif" font-size="14.00">Environment.Evaluator</text>
</g>
<!-- 8&#45;&gt;10 -->
<g id="edge15" class="edge"><title>8&#45;&gt;10</title>
<path fill="none" stroke="black" d="M3003.29,-108.124C2990.33,-117.107 2974.27,-128.237 2960.23,-137.966"/>
<polygon fill="black" stroke="black" points="2951.8,-143.81 2957.46,-134.415 2955.91,-140.962 2960.02,-138.114 2960.02,-138.114 2960.02,-138.114 2955.91,-140.962 2962.58,-141.812 2951.8,-143.81 2951.8,-143.81"/>
</g>
<!-- 11 -->
<g id="node12" class="node"><title>11</title>
<polygon fill="none" stroke="black" points="3346.5,-180 3131.5,-180 3131.5,-144 3346.5,-144 3346.5,-180"/>
<text text-anchor="middle" x="3239" y="-158.3" font-family="Times,serif" font-size="14.00">Environment.EvaluatorMultiPlayers</text>
</g>
<!-- 8&#45;&gt;11 -->
<g id="edge16" class="edge"><title>8&#45;&gt;11</title>
<path fill="none" stroke="black" d="M3072.23,-105.674C3102.81,-115.818 3143.89,-129.448 3177.63,-140.64"/>
<polygon fill="black" stroke="black" points="3187.39,-143.878 3176.48,-145 3182.64,-142.304 3177.9,-140.729 3177.9,-140.729 3177.9,-140.729 3182.64,-142.304 3179.32,-136.458 3187.39,-143.878 3187.39,-143.878"/>
</g>
<!-- 12 -->
<g id="node13" class="node"><title>12</title>
<polygon fill="none" stroke="black" points="3210.5,-252 3087.5,-252 3087.5,-216 3210.5,-216 3210.5,-252"/>
<text text-anchor="middle" x="3149" y="-230.3" font-family="Times,serif" font-size="14.00">Environment.MAB</text>
</g>
<!-- 8&#45;&gt;12 -->
<g id="edge17" class="edge"><title>8&#45;&gt;12</title>
<path fill="none" stroke="black" d="M3045.45,-108.254C3055.52,-118.422 3068.27,-131.672 3079,-144 3097.08,-164.769 3116.33,-189.456 3130.06,-207.556"/>
<polygon fill="black" stroke="black" points="3136.33,-215.865 3126.71,-210.59 3133.32,-211.873 3130.31,-207.881 3130.31,-207.881 3130.31,-207.881 3133.32,-211.873 3133.9,-205.172 3136.33,-215.865 3136.33,-215.865"/>
</g>
<!-- 13 -->
<g id="node14" class="node"><title>13</title>
<polygon fill="none" stroke="black" points="3069,-252 2943,-252 2943,-216 3069,-216 3069,-252"/>
<text text-anchor="middle" x="3006" y="-230.3" font-family="Times,serif" font-size="14.00">Environment.Result</text>
</g>
<!-- 8&#45;&gt;13 -->
<g id="edge18" class="edge"><title>8&#45;&gt;13</title>
<path fill="none" stroke="black" d="M3025.35,-108.129C3021.6,-132.33 3014.71,-176.789 3010.24,-205.607"/>
<polygon fill="black" stroke="black" points="3008.66,-215.811 3005.75,-205.24 3009.43,-210.87 3010.19,-205.929 3010.19,-205.929 3010.19,-205.929 3009.43,-210.87 3014.64,-206.618 3008.66,-215.811 3008.66,-215.811"/>
</g>
<!-- 9 -->
<g id="node10" class="node"><title>9</title>
<polygon fill="none" stroke="black" points="3665,-252 3483,-252 3483,-216 3665,-216 3665,-252"/>
<text text-anchor="middle" x="3574" y="-230.3" font-family="Times,serif" font-size="14.00">Environment.CollisionModels</text>
</g>
<!-- 10&#45;&gt;12 -->
<g id="edge19" class="edge"><title>10&#45;&gt;12</title>
<path fill="none" stroke="black" d="M2981.02,-180.034C3012.45,-189.943 3052.23,-202.486 3085.19,-212.879"/>
<polygon fill="black" stroke="black" points="3094.73,-215.889 3083.84,-217.174 3089.97,-214.386 3085.2,-212.882 3085.2,-212.882 3085.2,-212.882 3089.97,-214.386 3086.55,-208.59 3094.73,-215.889 3094.73,-215.889"/>
</g>
<!-- 10&#45;&gt;13 -->
<g id="edge20" class="edge"><title>10&#45;&gt;13</title>
<path fill="none" stroke="black" d="M2946.53,-180.303C2956.38,-189.035 2968.49,-199.76 2979.2,-209.25"/>
<polygon fill="black" stroke="black" points="2986.7,-215.896 2976.23,-212.632 2982.95,-212.58 2979.21,-209.264 2979.21,-209.264 2979.21,-209.264 2982.95,-212.58 2982.2,-205.896 2986.7,-215.896 2986.7,-215.896"/>
</g>
<!-- 15 -->
<g id="node16" class="node"><title>15</title>
<polygon fill="none" stroke="black" points="3226,-324 3072,-324 3072,-288 3226,-288 3226,-324"/>
<text text-anchor="middle" x="3149" y="-302.3" font-family="Times,serif" font-size="14.00">Environment.plotsettings</text>
</g>
<!-- 10&#45;&gt;15 -->
<g id="edge21" class="edge"><title>10&#45;&gt;15</title>
<path fill="none" stroke="black" d="M2922.94,-180.282C2919.4,-200.023 2917.15,-232.148 2934,-252 2950.83,-271.825 3009.91,-285.498 3061.89,-293.984"/>
<polygon fill="black" stroke="black" points="3071.84,-295.56 3061.26,-298.44 3066.9,-294.778 3061.96,-293.995 3061.96,-293.995 3061.96,-293.995 3066.9,-294.778 3062.66,-289.551 3071.84,-295.56 3071.84,-295.56"/>
</g>
<!-- 11&#45;&gt;9 -->
<g id="edge22" class="edge"><title>11&#45;&gt;9</title>
<path fill="none" stroke="black" d="M3320.52,-180.034C3369.45,-190.259 3431.82,-203.29 3482.44,-213.869"/>
<polygon fill="black" stroke="black" points="3492.4,-215.95 3481.69,-218.309 3487.51,-214.927 3482.61,-213.904 3482.61,-213.904 3482.61,-213.904 3487.51,-214.927 3483.54,-209.5 3492.4,-215.95 3492.4,-215.95"/>
</g>
<!-- 11&#45;&gt;12 -->
<g id="edge23" class="edge"><title>11&#45;&gt;12</title>
<path fill="none" stroke="black" d="M3216.75,-180.303C3205.42,-189.119 3191.47,-199.968 3179.18,-209.526"/>
<polygon fill="black" stroke="black" points="3170.99,-215.896 3176.12,-206.204 3174.94,-212.826 3178.88,-209.756 3178.88,-209.756 3178.88,-209.756 3174.94,-212.826 3181.65,-213.308 3170.99,-215.896 3170.99,-215.896"/>
</g>
<!-- 14 -->
<g id="node15" class="node"><title>14</title>
<polygon fill="none" stroke="black" points="3464.5,-252 3267.5,-252 3267.5,-216 3464.5,-216 3464.5,-252"/>
<text text-anchor="middle" x="3366" y="-230.3" font-family="Times,serif" font-size="14.00">Environment.ResultMultiPlayers</text>
</g>
<!-- 11&#45;&gt;14 -->
<g id="edge24" class="edge"><title>11&#45;&gt;14</title>
<path fill="none" stroke="black" d="M3270.07,-180.124C3286.83,-189.361 3307.71,-200.869 3325.7,-210.788"/>
<polygon fill="black" stroke="black" points="3334.81,-215.81 3323.88,-214.924 3330.43,-213.397 3326.06,-210.983 3326.06,-210.983 3326.06,-210.983 3330.43,-213.397 3328.23,-207.042 3334.81,-215.81 3334.81,-215.81"/>
</g>
<!-- 11&#45;&gt;15 -->
<g id="edge25" class="edge"><title>11&#45;&gt;15</title>
<path fill="none" stroke="black" d="M3238.85,-180.078C3237.94,-199.052 3234.15,-229.918 3220,-252 3212.46,-263.765 3201.33,-273.854 3190.11,-281.975"/>
<polygon fill="black" stroke="black" points="3181.57,-287.797 3187.3,-278.446 3185.7,-284.981 3189.83,-282.165 3189.83,-282.165 3189.83,-282.165 3185.7,-284.981 3192.37,-285.883 3181.57,-287.797 3181.57,-287.797"/>
</g>
<!-- 12&#45;&gt;15 -->
<g id="edge26" class="edge"><title>12&#45;&gt;15</title>
<path fill="none" stroke="black" d="M3149,-252.303C3149,-260.017 3149,-269.288 3149,-277.888"/>
<polygon fill="black" stroke="black" points="3149,-287.896 3144.5,-277.896 3149,-282.896 3149,-277.896 3149,-277.896 3149,-277.896 3149,-282.896 3153.5,-277.896 3149,-287.896 3149,-287.896"/>
</g>
<!-- 16 -->
<g id="node17" class="node"><title>16</title>
<polygon fill="none" stroke="black" points="1709.5,-180 1650.5,-180 1650.5,-144 1709.5,-144 1709.5,-180"/>
<text text-anchor="middle" x="1680" y="-158.3" font-family="Times,serif" font-size="14.00">Policies</text>
</g>
<!-- 17 -->
<g id="node18" class="node"><title>17</title>
<polygon fill="none" stroke="black" points="976.5,-324 855.5,-324 855.5,-288 976.5,-288 976.5,-324"/>
<text text-anchor="middle" x="916" y="-302.3" font-family="Times,serif" font-size="14.00">Policies.AdBandits</text>
</g>
<!-- 16&#45;&gt;17 -->
<g id="edge27" class="edge"><title>16&#45;&gt;17</title>
<path fill="none" stroke="black" d="M1650.34,-162.722C1515.44,-161.763 964.114,-161.232 913,-216 897.819,-232.266 900.655,-258.37 906.048,-278.111"/>
<polygon fill="black" stroke="black" points="909.019,-287.768 901.777,-279.534 907.549,-282.989 906.078,-278.21 906.078,-278.21 906.078,-278.21 907.549,-282.989 910.379,-276.887 909.019,-287.768 909.019,-287.768"/>
</g>
<!-- 18 -->
<g id="node19" class="node"><title>18</title>
<polygon fill="none" stroke="black" points="907.5,-468 816.5,-468 816.5,-432 907.5,-432 907.5,-468"/>
<text text-anchor="middle" x="862" y="-446.3" font-family="Times,serif" font-size="14.00">Policies.Aggr</text>
</g>
<!-- 16&#45;&gt;18 -->
<g id="edge28" class="edge"><title>16&#45;&gt;18</title>
<path fill="none" stroke="black" d="M1650.43,-163.527C1515.83,-166.123 964.784,-178.951 898,-216 863.483,-235.149 858.145,-250.442 846,-288 831.339,-333.339 843.135,-389.287 852.761,-421.875"/>
<polygon fill="black" stroke="black" points="855.774,-431.591 848.514,-423.373 854.293,-426.816 852.812,-422.04 852.812,-422.04 852.812,-422.04 854.293,-426.816 857.11,-420.707 855.774,-431.591 855.774,-431.591"/>
</g>
<!-- 20 -->
<g id="node21" class="node"><title>20</title>
<polygon fill="none" stroke="black" points="1046,-252 922,-252 922,-216 1046,-216 1046,-252"/>
<text text-anchor="middle" x="984" y="-230.3" font-family="Times,serif" font-size="14.00">Policies.BayesUCB</text>
</g>
<!-- 16&#45;&gt;20 -->
<g id="edge29" class="edge"><title>16&#45;&gt;20</title>
<path fill="none" stroke="black" d="M1650.2,-163.937C1561.27,-167.067 1289.94,-179.048 1056.28,-215.935"/>
<polygon fill="black" stroke="black" points="1046.23,-217.54 1055.4,-211.518 1051.17,-216.751 1056.11,-215.962 1056.11,-215.962 1056.11,-215.962 1051.17,-216.751 1056.82,-220.406 1046.23,-217.54 1046.23,-217.54"/>
</g>
<!-- 23 -->
<g id="node24" class="node"><title>23</title>
<polygon fill="none" stroke="black" points="2305.5,-252 2140.5,-252 2140.5,-216 2305.5,-216 2305.5,-252"/>
<text text-anchor="middle" x="2223" y="-230.3" font-family="Times,serif" font-size="14.00">Policies.EpsilonDecreasing</text>
</g>
<!-- 16&#45;&gt;23 -->
<g id="edge30" class="edge"><title>16&#45;&gt;23</title>
<path fill="none" stroke="black" d="M1709.56,-165.942C1781.17,-173.195 1969.58,-193.018 2126,-216 2127.48,-216.217 2128.97,-216.44 2130.47,-216.667"/>
<polygon fill="black" stroke="black" points="2140.5,-218.222 2129.93,-221.136 2135.56,-217.455 2130.62,-216.689 2130.62,-216.689 2130.62,-216.689 2135.56,-217.455 2131.31,-212.242 2140.5,-218.222 2140.5,-218.222"/>
</g>
<!-- 24 -->
<g id="node25" class="node"><title>24</title>
<polygon fill="none" stroke="black" points="2530,-252 2324,-252 2324,-216 2530,-216 2530,-252"/>
<text text-anchor="middle" x="2427" y="-230.3" font-family="Times,serif" font-size="14.00">Policies.EpsilonDecreasingMEGA</text>
</g>
<!-- 16&#45;&gt;24 -->
<g id="edge31" class="edge"><title>16&#45;&gt;24</title>
<path fill="none" stroke="black" d="M1709.78,-164.789C1799.35,-170.319 2074.31,-188.375 2313.94,-216.045"/>
<polygon fill="black" stroke="black" points="2323.88,-217.201 2313.43,-220.516 2318.92,-216.623 2313.95,-216.046 2313.95,-216.046 2313.95,-216.046 2318.92,-216.623 2314.47,-211.576 2323.88,-217.201 2323.88,-217.201"/>
</g>
<!-- 25 -->
<g id="node26" class="node"><title>25</title>
<polygon fill="none" stroke="black" points="2735.5,-252 2548.5,-252 2548.5,-216 2735.5,-216 2735.5,-252"/>
<text text-anchor="middle" x="2642" y="-230.3" font-family="Times,serif" font-size="14.00">Policies.EpsilonExpDecreasing</text>
</g>
<!-- 16&#45;&gt;25 -->
<g id="edge32" class="edge"><title>16&#45;&gt;25</title>
<path fill="none" stroke="black" d="M1709.77,-163.737C1818.87,-166.671 2207.26,-179.142 2538.05,-215.968"/>
<polygon fill="black" stroke="black" points="2548.31,-217.12 2537.87,-220.476 2543.34,-216.562 2538.37,-216.004 2538.37,-216.004 2538.37,-216.004 2543.34,-216.562 2538.87,-211.532 2548.31,-217.12 2548.31,-217.12"/>
</g>
<!-- 26 -->
<g id="node27" class="node"><title>26</title>
<polygon fill="none" stroke="black" points="2083.5,-252 1954.5,-252 1954.5,-216 2083.5,-216 2083.5,-252"/>
<text text-anchor="middle" x="2019" y="-230.3" font-family="Times,serif" font-size="14.00">Policies.EpsilonFirst</text>
</g>
<!-- 16&#45;&gt;26 -->
<g id="edge33" class="edge"><title>16&#45;&gt;26</title>
<path fill="none" stroke="black" d="M1709.66,-168.936C1757.95,-178.628 1856.59,-198.524 1940,-216 1941.46,-216.306 1942.93,-216.615 1944.42,-216.928"/>
<polygon fill="black" stroke="black" points="1954.34,-219.027 1943.63,-221.36 1949.45,-217.992 1944.56,-216.958 1944.56,-216.958 1944.56,-216.958 1949.45,-217.992 1945.49,-212.555 1954.34,-219.027 1954.34,-219.027"/>
</g>
<!-- 27 -->
<g id="node28" class="node"><title>27</title>
<polygon fill="none" stroke="black" points="2444,-324 2300,-324 2300,-288 2444,-288 2444,-324"/>
<text text-anchor="middle" x="2372" y="-302.3" font-family="Times,serif" font-size="14.00">Policies.EpsilonGreedy</text>
</g>
<!-- 16&#45;&gt;27 -->
<g id="edge34" class="edge"><title>16&#45;&gt;27</title>
<path fill="none" stroke="black" d="M1709.66,-164.48C1792.32,-168.971 2023.71,-184.127 2092,-216 2113.38,-225.977 2110.09,-241.087 2131,-252 2134.67,-253.913 2221.58,-272.799 2289.99,-287.488"/>
<polygon fill="black" stroke="black" points="2299.94,-289.622 2289.22,-291.924 2295.05,-288.573 2290.16,-287.524 2290.16,-287.524 2290.16,-287.524 2295.05,-288.573 2291.1,-283.124 2299.94,-289.622 2299.94,-289.622"/>
</g>
<!-- 28 -->
<g id="node29" class="node"><title>28</title>
<polygon fill="none" stroke="black" points="2507,-396 2415,-396 2415,-360 2507,-360 2507,-396"/>
<text text-anchor="middle" x="2461" y="-374.3" font-family="Times,serif" font-size="14.00">Policies.Exp3</text>
</g>
<!-- 16&#45;&gt;28 -->
<g id="edge35" class="edge"><title>16&#45;&gt;28</title>
<path fill="none" stroke="black" d="M1709.56,-163.337C1877.7,-165.394 2707.35,-177.477 2744,-216 2819.32,-295.166 2619.52,-346.576 2517.15,-367.007"/>
<polygon fill="black" stroke="black" points="2507.26,-368.945 2516.21,-362.606 2512.16,-367.983 2517.07,-367.022 2517.07,-367.022 2517.07,-367.022 2512.16,-367.983 2517.94,-371.438 2507.26,-368.945 2507.26,-368.945"/>
</g>
<!-- 31 -->
<g id="node32" class="node"><title>31</title>
<polygon fill="none" stroke="black" points="2589,-468 2485,-468 2485,-432 2589,-432 2589,-468"/>
<text text-anchor="middle" x="2537" y="-446.3" font-family="Times,serif" font-size="14.00">Policies.MEGA</text>
</g>
<!-- 16&#45;&gt;31 -->
<g id="edge36" class="edge"><title>16&#45;&gt;31</title>
<path fill="none" stroke="black" d="M1709.64,-163.306C1880.13,-165.204 2729.5,-176.623 2767,-216 2842.46,-295.225 2674.41,-387.039 2586.38,-427.72"/>
<polygon fill="black" stroke="black" points="2577.09,-431.96 2584.32,-423.714 2581.64,-429.884 2586.19,-427.808 2586.19,-427.808 2586.19,-427.808 2581.64,-429.884 2588.06,-431.901 2577.09,-431.96 2577.09,-431.96"/>
</g>
<!-- 32 -->
<g id="node33" class="node"><title>32</title>
<polygon fill="none" stroke="black" points="1598.5,-396 1497.5,-396 1497.5,-360 1598.5,-360 1598.5,-396"/>
<text text-anchor="middle" x="1548" y="-374.3" font-family="Times,serif" font-size="14.00">Policies.MOSS</text>
</g>
<!-- 16&#45;&gt;32 -->
<g id="edge37" class="edge"><title>16&#45;&gt;32</title>
<path fill="none" stroke="black" d="M1650.19,-172.519C1629.16,-180.754 1601.99,-194.735 1586,-216 1556.18,-255.669 1549.3,-315.14 1547.98,-349.606"/>
<polygon fill="black" stroke="black" points="1547.73,-359.861 1543.48,-349.752 1547.85,-354.863 1547.98,-349.864 1547.98,-349.864 1547.98,-349.864 1547.85,-354.863 1552.48,-349.976 1547.73,-359.861 1547.73,-359.861"/>
</g>
<!-- 33 -->
<g id="node34" class="node"><title>33</title>
<polygon fill="none" stroke="black" points="2818.5,-468 2681.5,-468 2681.5,-432 2818.5,-432 2818.5,-468"/>
<text text-anchor="middle" x="2750" y="-446.3" font-family="Times,serif" font-size="14.00">Policies.MusicalChair</text>
</g>
<!-- 16&#45;&gt;33 -->
<g id="edge38" class="edge"><title>16&#45;&gt;33</title>
<path fill="none" stroke="black" d="M1709.73,-163.274C1882.66,-165.011 2752.61,-175.732 2791,-216 2845.34,-272.992 2795.29,-375.3 2766.74,-423.085"/>
<polygon fill="black" stroke="black" points="2761.35,-431.886 2762.73,-421.008 2763.96,-427.622 2766.57,-423.357 2766.57,-423.357 2766.57,-423.357 2763.96,-427.622 2770.41,-425.707 2761.35,-431.886 2761.35,-431.886"/>
</g>
<!-- 35 -->
<g id="node36" class="node"><title>35</title>
<polygon fill="none" stroke="black" points="2977,-396 2867,-396 2867,-360 2977,-360 2977,-396"/>
<text text-anchor="middle" x="2922" y="-374.3" font-family="Times,serif" font-size="14.00">Policies.Softmax</text>
</g>
<!-- 16&#45;&gt;35 -->
<g id="edge39" class="edge"><title>16&#45;&gt;35</title>
<path fill="none" stroke="black" d="M1709.7,-163.454C1887.47,-166.285 2804.58,-182.477 2853,-216 2897.49,-246.8 2913.47,-312.565 2919.08,-349.809"/>
<polygon fill="black" stroke="black" points="2920.45,-359.944 2914.65,-350.64 2919.78,-354.989 2919.11,-350.035 2919.11,-350.035 2919.11,-350.035 2919.78,-354.989 2923.57,-349.43 2920.45,-359.944 2920.45,-359.944"/>
</g>
<!-- 36 -->
<g id="node37" class="node"><title>36</title>
<polygon fill="none" stroke="black" points="552,-324 406,-324 406,-288 552,-288 552,-324"/>
<text text-anchor="middle" x="479" y="-302.3" font-family="Times,serif" font-size="14.00">Policies.TakeFixedArm</text>
</g>
<!-- 16&#45;&gt;36 -->
<g id="edge40" class="edge"><title>16&#45;&gt;36</title>
<path fill="none" stroke="black" d="M1650.44,-163.054C1460.57,-163.539 418.738,-168.369 373,-216 361.918,-227.541 364.588,-238.39 373,-252 381.341,-265.496 394.274,-275.67 408.276,-283.299"/>
<polygon fill="black" stroke="black" points="417.595,-287.954 406.638,-287.511 413.122,-285.72 408.649,-283.485 408.649,-283.485 408.649,-283.485 413.122,-285.72 410.66,-279.46 417.595,-287.954 417.595,-287.954"/>
</g>
<!-- 37 -->
<g id="node38" class="node"><title>37</title>
<polygon fill="none" stroke="black" points="575.5,-252 382.5,-252 382.5,-216 575.5,-216 575.5,-252"/>
<text text-anchor="middle" x="479" y="-230.3" font-family="Times,serif" font-size="14.00">Policies.TakeRandomFixedArm</text>
</g>
<!-- 16&#45;&gt;37 -->
<g id="edge41" class="edge"><title>16&#45;&gt;37</title>
<path fill="none" stroke="black" d="M1650.11,-163.761C1524.73,-167.107 1029.01,-181.894 623,-216 610.926,-217.014 598.301,-218.248 585.76,-219.583"/>
<polygon fill="black" stroke="black" points="575.733,-220.673 585.188,-215.119 580.704,-220.133 585.674,-219.592 585.674,-219.592 585.674,-219.592 580.704,-220.133 586.161,-224.066 575.733,-220.673 575.733,-220.673"/>
</g>
<!-- 38 -->
<g id="node39" class="node"><title>38</title>
<polygon fill="none" stroke="black" points="1186,-252 1064,-252 1064,-216 1186,-216 1186,-252"/>
<text text-anchor="middle" x="1125" y="-230.3" font-family="Times,serif" font-size="14.00">Policies.Thompson</text>
</g>
<!-- 16&#45;&gt;38 -->
<g id="edge42" class="edge"><title>16&#45;&gt;38</title>
<path fill="none" stroke="black" d="M1650.29,-164.902C1575.56,-169.971 1373.71,-185.428 1196.39,-215.878"/>
<polygon fill="black" stroke="black" points="1186.37,-217.621 1195.45,-211.475 1191.29,-216.765 1196.22,-215.909 1196.22,-215.909 1196.22,-215.909 1191.29,-216.765 1196.99,-220.342 1186.37,-217.621 1186.37,-217.621"/>
</g>
<!-- 39 -->
<g id="node40" class="node"><title>39</title>
<polygon fill="none" stroke="black" points="1839.5,-396 1748.5,-396 1748.5,-360 1839.5,-360 1839.5,-396"/>
<text text-anchor="middle" x="1794" y="-374.3" font-family="Times,serif" font-size="14.00">Policies.UCB</text>
</g>
<!-- 16&#45;&gt;39 -->
<g id="edge43" class="edge"><title>16&#45;&gt;39</title>
<path fill="none" stroke="black" d="M1650.31,-175.503C1633.72,-184.215 1614.53,-197.594 1605,-216 1582.93,-258.624 1576,-285.75 1605,-324 1621.18,-345.341 1688.73,-360.455 1738.48,-368.944"/>
<polygon fill="black" stroke="black" points="1748.49,-370.604 1737.88,-373.406 1743.55,-369.785 1738.62,-368.967 1738.62,-368.967 1738.62,-368.967 1743.55,-369.785 1739.36,-364.528 1748.49,-370.604 1748.49,-370.604"/>
</g>
<!-- 40 -->
<g id="node41" class="node"><title>40</title>
<polygon fill="none" stroke="black" points="1715.5,-324 1614.5,-324 1614.5,-288 1715.5,-288 1715.5,-324"/>
<text text-anchor="middle" x="1665" y="-302.3" font-family="Times,serif" font-size="14.00">Policies.UCBV</text>
</g>
<!-- 16&#45;&gt;40 -->
<g id="edge44" class="edge"><title>16&#45;&gt;40</title>
<path fill="none" stroke="black" d="M1709.69,-175.802C1725.97,-184.552 1744.68,-197.868 1754,-216 1761.31,-230.231 1761.91,-238.09 1754,-252 1746.64,-264.957 1734.71,-275.08 1721.95,-282.845"/>
<polygon fill="black" stroke="black" points="1713.03,-287.85 1719.55,-279.032 1717.39,-285.403 1721.75,-282.957 1721.75,-282.957 1721.75,-282.957 1717.39,-285.403 1723.95,-286.881 1713.03,-287.85 1713.03,-287.85"/>
</g>
<!-- 41 -->
<g id="node42" class="node"><title>41</title>
<polygon fill="none" stroke="black" points="1745.5,-252 1614.5,-252 1614.5,-216 1745.5,-216 1745.5,-252"/>
<text text-anchor="middle" x="1680" y="-230.3" font-family="Times,serif" font-size="14.00">Policies.UCBVtuned</text>
</g>
<!-- 16&#45;&gt;41 -->
<g id="edge45" class="edge"><title>16&#45;&gt;41</title>
<path fill="none" stroke="black" d="M1680,-180.303C1680,-188.017 1680,-197.288 1680,-205.888"/>
<polygon fill="black" stroke="black" points="1680,-215.896 1675.5,-205.896 1680,-210.896 1680,-205.896 1680,-205.896 1680,-205.896 1680,-210.896 1684.5,-205.896 1680,-215.896 1680,-215.896"/>
</g>
<!-- 42 -->
<g id="node43" class="node"><title>42</title>
<polygon fill="none" stroke="black" points="1854,-324 1734,-324 1734,-288 1854,-288 1854,-324"/>
<text text-anchor="middle" x="1794" y="-302.3" font-family="Times,serif" font-size="14.00">Policies.UCBalpha</text>
</g>
<!-- 16&#45;&gt;42 -->
<g id="edge46" class="edge"><title>16&#45;&gt;42</title>
<path fill="none" stroke="black" d="M1709.6,-173.215C1729.78,-181.657 1755.55,-195.595 1771,-216 1784.51,-233.844 1790.12,-258.85 1792.43,-277.814"/>
<polygon fill="black" stroke="black" points="1793.43,-287.912 1787.97,-278.401 1792.94,-282.937 1792.45,-277.961 1792.45,-277.961 1792.45,-277.961 1792.94,-282.937 1796.93,-277.52 1793.43,-287.912 1793.43,-287.912"/>
</g>
<!-- 43 -->
<g id="node44" class="node"><title>43</title>
<polygon fill="none" stroke="black" points="1980,-324 1872,-324 1872,-288 1980,-288 1980,-324"/>
<text text-anchor="middle" x="1926" y="-302.3" font-family="Times,serif" font-size="14.00">Policies.UCBopt</text>
</g>
<!-- 16&#45;&gt;43 -->
<g id="edge47" class="edge"><title>16&#45;&gt;43</title>
<path fill="none" stroke="black" d="M1709.69,-175.266C1733.08,-185.292 1766.25,-200.327 1794,-216 1829.67,-236.152 1868.3,-262.809 1894.49,-281.68"/>
<polygon fill="black" stroke="black" points="1902.87,-287.76 1892.13,-285.532 1898.82,-284.825 1894.78,-281.889 1894.78,-281.889 1894.78,-281.889 1898.82,-284.825 1897.42,-278.246 1902.87,-287.76 1902.87,-287.76"/>
</g>
<!-- 44 -->
<g id="node45" class="node"><title>44</title>
<polygon fill="none" stroke="black" points="2111.5,-324 1998.5,-324 1998.5,-288 2111.5,-288 2111.5,-324"/>
<text text-anchor="middle" x="2055" y="-302.3" font-family="Times,serif" font-size="14.00">Policies.UCBplus</text>
</g>
<!-- 16&#45;&gt;44 -->
<g id="edge48" class="edge"><title>16&#45;&gt;44</title>
<path fill="none" stroke="black" d="M1709.7,-171.97C1741.36,-181.793 1792.79,-198.492 1836,-216 1870.64,-230.035 1877.56,-237.492 1912,-252 1939.26,-263.483 1969.97,-275.038 1995.91,-284.415"/>
<polygon fill="black" stroke="black" points="2005.61,-287.897 1994.68,-288.752 2000.9,-286.207 1996.2,-284.517 1996.2,-284.517 1996.2,-284.517 2000.9,-286.207 1997.72,-280.282 2005.61,-287.897 2005.61,-287.897"/>
</g>
<!-- 45 -->
<g id="node46" class="node"><title>45</title>
<polygon fill="none" stroke="black" points="2282,-324 2130,-324 2130,-288 2282,-288 2282,-324"/>
<text text-anchor="middle" x="2206" y="-302.3" font-family="Times,serif" font-size="14.00">Policies.UCBrandomInit</text>
</g>
<!-- 16&#45;&gt;45 -->
<g id="edge49" class="edge"><title>16&#45;&gt;45</title>
<path fill="none" stroke="black" d="M1709.54,-167.518C1750.74,-174.484 1827.24,-189.852 1888,-216 1915.52,-227.845 1917.19,-240.835 1945,-252 1949.19,-253.682 2045.48,-273.052 2119.89,-287.893"/>
<polygon fill="black" stroke="black" points="2129.77,-289.862 2119.08,-292.32 2124.87,-288.885 2119.96,-287.907 2119.96,-287.907 2119.96,-287.907 2124.87,-288.885 2120.84,-283.494 2129.77,-289.862 2129.77,-289.862"/>
</g>
<!-- 46 -->
<g id="node47" class="node"><title>46</title>
<polygon fill="none" stroke="black" points="799,-324 689,-324 689,-288 799,-288 799,-324"/>
<text text-anchor="middle" x="744" y="-302.3" font-family="Times,serif" font-size="14.00">Policies.Uniform</text>
</g>
<!-- 16&#45;&gt;46 -->
<g id="edge50" class="edge"><title>16&#45;&gt;46</title>
<path fill="none" stroke="black" d="M1650.37,-163.714C1510.25,-167.247 917.687,-183.979 842,-216 833.283,-219.688 795.202,-255.485 769.16,-280.538"/>
<polygon fill="black" stroke="black" points="761.839,-287.603 765.911,-277.42 765.437,-284.131 769.035,-280.659 769.035,-280.659 769.035,-280.659 765.437,-284.131 772.16,-283.897 761.839,-287.603 761.839,-287.603"/>
</g>
<!-- 47 -->
<g id="node48" class="node"><title>47</title>
<polygon fill="none" stroke="black" points="790,-252 632,-252 632,-216 790,-216 790,-252"/>
<text text-anchor="middle" x="711" y="-230.3" font-family="Times,serif" font-size="14.00">Policies.UniformOnSome</text>
</g>
<!-- 16&#45;&gt;47 -->
<g id="edge51" class="edge"><title>16&#45;&gt;47</title>
<path fill="none" stroke="black" d="M1650.39,-163.5C1538.98,-165.655 1134.49,-175.944 804,-216 802.717,-216.156 801.425,-216.318 800.125,-216.486"/>
<polygon fill="black" stroke="black" points="790.049,-217.881 799.337,-212.052 795.002,-217.195 799.954,-216.509 799.954,-216.509 799.954,-216.509 795.002,-217.195 800.572,-220.967 790.049,-217.881 790.049,-217.881"/>
</g>
<!-- 48 -->
<g id="node49" class="node"><title>48</title>
<polygon fill="none" stroke="black" points="1519.5,-324 1418.5,-324 1418.5,-288 1519.5,-288 1519.5,-324"/>
<text text-anchor="middle" x="1469" y="-302.3" font-family="Times,serif" font-size="14.00">Policies.klUCB</text>
</g>
<!-- 16&#45;&gt;48 -->
<g id="edge52" class="edge"><title>16&#45;&gt;48</title>
<path fill="none" stroke="black" d="M1650.41,-163.707C1582.49,-166.018 1418.68,-175.735 1385,-216 1374.74,-228.273 1377.27,-237.989 1385,-252 1392.1,-264.882 1403.8,-275.064 1416.24,-282.915"/>
<polygon fill="black" stroke="black" points="1424.93,-287.983 1414.02,-286.829 1420.61,-285.463 1416.29,-282.943 1416.29,-282.943 1416.29,-282.943 1420.61,-285.463 1418.56,-279.056 1424.93,-287.983 1424.93,-287.983"/>
</g>
<!-- 49 -->
<g id="node50" class="node"><title>49</title>
<polygon fill="none" stroke="black" points="1338,-252 1204,-252 1204,-216 1338,-216 1338,-252"/>
<text text-anchor="middle" x="1271" y="-230.3" font-family="Times,serif" font-size="14.00">Policies.klUCBHPlus</text>
</g>
<!-- 16&#45;&gt;49 -->
<g id="edge53" class="edge"><title>16&#45;&gt;49</title>
<path fill="none" stroke="black" d="M1650.07,-167.358C1592.3,-175.876 1461.46,-195.682 1352,-216 1350.73,-216.236 1349.45,-216.476 1348.16,-216.721"/>
<polygon fill="black" stroke="black" points="1338.14,-218.658 1347.1,-212.341 1343.04,-217.709 1347.95,-216.76 1347.95,-216.76 1347.95,-216.76 1343.04,-217.709 1348.81,-221.178 1338.14,-218.658 1338.14,-218.658"/>
</g>
<!-- 50 -->
<g id="node51" class="node"><title>50</title>
<polygon fill="none" stroke="black" points="1519.5,-252 1394.5,-252 1394.5,-216 1519.5,-216 1519.5,-252"/>
<text text-anchor="middle" x="1457" y="-230.3" font-family="Times,serif" font-size="14.00">Policies.klUCBPlus</text>
</g>
<!-- 16&#45;&gt;50 -->
<g id="edge54" class="edge"><title>16&#45;&gt;50</title>
<path fill="none" stroke="black" d="M1650.39,-172.295C1617.52,-182.612 1563.5,-199.568 1520.9,-212.942"/>
<polygon fill="black" stroke="black" points="1511.17,-215.997 1519.36,-208.708 1515.94,-214.499 1520.71,-213.002 1520.71,-213.002 1520.71,-213.002 1515.94,-214.499 1522.06,-217.295 1511.17,-215.997 1511.17,-215.997"/>
</g>
<!-- 19 -->
<g id="node20" class="node"><title>19</title>
<polygon fill="none" stroke="black" points="1876,-540 1752,-540 1752,-504 1876,-504 1876,-540"/>
<text text-anchor="middle" x="1814" y="-518.3" font-family="Times,serif" font-size="14.00">Policies.BasePolicy</text>
</g>
<!-- 17&#45;&gt;19 -->
<g id="edge55" class="edge"><title>17&#45;&gt;19</title>
<path fill="none" stroke="black" d="M920.978,-324.183C931.922,-358.47 961.62,-434.919 1017,-468 1078.31,-504.62 1556.94,-516.623 1741.63,-519.915"/>
<polygon fill="black" stroke="black" points="1751.79,-520.092 1741.71,-524.417 1746.79,-520.005 1741.79,-519.917 1741.79,-519.917 1741.79,-519.917 1746.79,-520.005 1741.87,-515.418 1751.79,-520.092 1751.79,-520.092"/>
</g>
<!-- 22 -->
<g id="node23" class="node"><title>22</title>
<polygon fill="none" stroke="black" points="1126,-396 1038,-396 1038,-360 1126,-360 1126,-396"/>
<text text-anchor="middle" x="1082" y="-374.3" font-family="Times,serif" font-size="14.00">Policies.Beta</text>
</g>
<!-- 17&#45;&gt;22 -->
<g id="edge56" class="edge"><title>17&#45;&gt;22</title>
<path fill="none" stroke="black" d="M956.608,-324.124C979.402,-333.736 1008.03,-345.807 1032.17,-355.987"/>
<polygon fill="black" stroke="black" points="1041.52,-359.932 1030.56,-360.193 1036.92,-357.989 1032.31,-356.046 1032.31,-356.046 1032.31,-356.046 1036.92,-357.989 1034.06,-351.9 1041.52,-359.932 1041.52,-359.932"/>
</g>
<!-- 18&#45;&gt;19 -->
<g id="edge57" class="edge"><title>18&#45;&gt;19</title>
<path fill="none" stroke="black" d="M907.609,-459.717C924.901,-462.747 944.805,-465.908 963,-468 1250.23,-501.025 1594.53,-514.508 1741.63,-519.045"/>
<polygon fill="black" stroke="black" points="1751.87,-519.356 1741.74,-523.55 1746.88,-519.204 1741.88,-519.052 1741.88,-519.052 1741.88,-519.052 1746.88,-519.204 1742.01,-514.554 1751.87,-519.356 1751.87,-519.356"/>
</g>
<!-- 21 -->
<g id="node22" class="node"><title>21</title>
<polygon fill="none" stroke="black" points="1211,-324 1033,-324 1033,-288 1211,-288 1211,-324"/>
<text text-anchor="middle" x="1122" y="-302.3" font-family="Times,serif" font-size="14.00">Policies.BayesianIndexPolicy</text>
</g>
<!-- 20&#45;&gt;21 -->
<g id="edge58" class="edge"><title>20&#45;&gt;21</title>
<path fill="none" stroke="black" d="M1017.76,-252.124C1036.22,-261.488 1059.28,-273.186 1079.02,-283.197"/>
<polygon fill="black" stroke="black" points="1088.11,-287.81 1077.16,-287.3 1083.65,-285.548 1079.19,-283.286 1079.19,-283.286 1079.19,-283.286 1083.65,-285.548 1081.23,-279.273 1088.11,-287.81 1088.11,-287.81"/>
</g>
<!-- 21&#45;&gt;22 -->
<g id="edge59" class="edge"><title>21&#45;&gt;22</title>
<path fill="none" stroke="black" d="M1112.11,-324.303C1107.51,-332.356 1101.94,-342.106 1096.85,-351.018"/>
<polygon fill="black" stroke="black" points="1091.77,-359.896 1092.83,-348.981 1094.25,-355.554 1096.74,-351.213 1096.74,-351.213 1096.74,-351.213 1094.25,-355.554 1100.64,-353.446 1091.77,-359.896 1091.77,-359.896"/>
</g>
<!-- 29 -->
<g id="node30" class="node"><title>29</title>
<polygon fill="none" stroke="black" points="1572,-468 1444,-468 1444,-432 1572,-432 1572,-468"/>
<text text-anchor="middle" x="1508" y="-446.3" font-family="Times,serif" font-size="14.00">Policies.IndexPolicy</text>
</g>
<!-- 21&#45;&gt;29 -->
<g id="edge60" class="edge"><title>21&#45;&gt;29</title>
<path fill="none" stroke="black" d="M1134.69,-324.182C1150.89,-344.77 1180.95,-378.652 1215,-396 1283.83,-431.066 1372.14,-443.253 1433.73,-447.323"/>
<polygon fill="black" stroke="black" points="1443.76,-447.93 1433.51,-451.818 1438.77,-447.628 1433.78,-447.326 1433.78,-447.326 1433.78,-447.326 1438.77,-447.628 1434.05,-442.834 1443.76,-447.93 1443.76,-447.93"/>
</g>
<!-- 34 -->
<g id="node35" class="node"><title>34</title>
<polygon fill="none" stroke="black" points="1138,-468 1026,-468 1026,-432 1138,-432 1138,-468"/>
<text text-anchor="middle" x="1082" y="-446.3" font-family="Times,serif" font-size="14.00">Policies.Posterior</text>
</g>
<!-- 22&#45;&gt;34 -->
<g id="edge61" class="edge"><title>22&#45;&gt;34</title>
<path fill="none" stroke="black" d="M1082,-396.303C1082,-404.017 1082,-413.288 1082,-421.888"/>
<polygon fill="black" stroke="black" points="1082,-431.896 1077.5,-421.896 1082,-426.896 1082,-421.896 1082,-421.896 1082,-421.896 1082,-426.896 1086.5,-421.896 1082,-431.896 1082,-431.896"/>
</g>
<!-- 23&#45;&gt;27 -->
<g id="edge62" class="edge"><title>23&#45;&gt;27</title>
<path fill="none" stroke="black" d="M2259.45,-252.124C2279.64,-261.608 2304.92,-273.487 2326.41,-283.581"/>
<polygon fill="black" stroke="black" points="2335.67,-287.932 2324.7,-287.752 2331.14,-285.806 2326.62,-283.68 2326.62,-283.68 2326.62,-283.68 2331.14,-285.806 2328.53,-279.607 2335.67,-287.932 2335.67,-287.932"/>
</g>
<!-- 24&#45;&gt;27 -->
<g id="edge63" class="edge"><title>24&#45;&gt;27</title>
<path fill="none" stroke="black" d="M2413.4,-252.303C2406.88,-260.611 2398.93,-270.723 2391.75,-279.859"/>
<polygon fill="black" stroke="black" points="2385.44,-287.896 2388.08,-277.252 2388.53,-283.964 2391.62,-280.032 2391.62,-280.032 2391.62,-280.032 2388.53,-283.964 2395.16,-282.813 2385.44,-287.896 2385.44,-287.896"/>
</g>
<!-- 25&#45;&gt;27 -->
<g id="edge64" class="edge"><title>25&#45;&gt;27</title>
<path fill="none" stroke="black" d="M2576.3,-252.034C2537.5,-262.091 2488.24,-274.864 2447.81,-285.346"/>
<polygon fill="black" stroke="black" points="2438,-287.889 2446.55,-281.024 2442.84,-286.634 2447.68,-285.379 2447.68,-285.379 2447.68,-285.379 2442.84,-286.634 2448.81,-289.735 2438,-287.889 2438,-287.889"/>
</g>
<!-- 26&#45;&gt;27 -->
<g id="edge65" class="edge"><title>26&#45;&gt;27</title>
<path fill="none" stroke="black" d="M2083.64,-249.061C2088.5,-250.071 2093.32,-251.061 2098,-252 2180.46,-268.559 2203.74,-270.883 2289.66,-287.759"/>
<polygon fill="black" stroke="black" points="2299.59,-289.719 2288.91,-292.197 2294.69,-288.751 2289.78,-287.783 2289.78,-287.783 2289.78,-287.783 2294.69,-288.751 2290.65,-283.368 2299.59,-289.719 2299.59,-289.719"/>
</g>
<!-- 27&#45;&gt;19 -->
<g id="edge66" class="edge"><title>27&#45;&gt;19</title>
<path fill="none" stroke="black" d="M2327.28,-324.151C2225.73,-363.095 1978.07,-458.079 1868.12,-500.246"/>
<polygon fill="black" stroke="black" points="1858.55,-503.916 1866.27,-496.134 1863.21,-502.126 1867.88,-500.335 1867.88,-500.335 1867.88,-500.335 1863.21,-502.126 1869.49,-504.537 1858.55,-503.916 1858.55,-503.916"/>
</g>
<!-- 28&#45;&gt;19 -->
<g id="edge67" class="edge"><title>28&#45;&gt;19</title>
<path fill="none" stroke="black" d="M2414.8,-393.172C2351.79,-412.13 2235.17,-445.914 2134,-468 2049.66,-486.412 1951.58,-501.778 1886.46,-511.144"/>
<polygon fill="black" stroke="black" points="1876.3,-512.595 1885.56,-506.726 1881.25,-511.888 1886.2,-511.181 1886.2,-511.181 1886.2,-511.181 1881.25,-511.888 1886.84,-515.636 1876.3,-512.595 1876.3,-512.595"/>
</g>
<!-- 29&#45;&gt;19 -->
<g id="edge68" class="edge"><title>29&#45;&gt;19</title>
<path fill="none" stroke="black" d="M1572.15,-465.674C1621.68,-477.006 1690.24,-492.688 1741.71,-504.463"/>
<polygon fill="black" stroke="black" points="1751.77,-506.764 1741.02,-508.92 1746.89,-505.649 1742.02,-504.534 1742.02,-504.534 1742.02,-504.534 1746.89,-505.649 1743.02,-500.147 1751.77,-506.764 1751.77,-506.764"/>
</g>
<!-- 30 -->
<g id="node31" class="node"><title>30</title>
<polygon fill="none" stroke="black" points="1400.5,-324 1267.5,-324 1267.5,-288 1400.5,-288 1400.5,-324"/>
<text text-anchor="middle" x="1334" y="-302.3" font-family="Times,serif" font-size="14.00">Policies.KLempUCB</text>
</g>
<!-- 30&#45;&gt;29 -->
<g id="edge69" class="edge"><title>30&#45;&gt;29</title>
<path fill="none" stroke="black" d="M1354.99,-324.129C1385.95,-349.396 1443.97,-396.746 1478.99,-425.321"/>
<polygon fill="black" stroke="black" points="1486.94,-431.811 1476.34,-428.974 1483.06,-428.649 1479.19,-425.488 1479.19,-425.488 1479.19,-425.488 1483.06,-428.649 1482.03,-422.002 1486.94,-431.811 1486.94,-431.811"/>
</g>
<!-- 51 -->
<g id="node52" class="node"><title>51</title>
<polygon fill="none" stroke="black" points="1334,-396 1224,-396 1224,-360 1334,-360 1334,-396"/>
<text text-anchor="middle" x="1279" y="-374.3" font-family="Times,serif" font-size="14.00">Policies.kullback</text>
</g>
<!-- 30&#45;&gt;51 -->
<g id="edge70" class="edge"><title>30&#45;&gt;51</title>
<path fill="none" stroke="black" d="M1320.4,-324.303C1313.88,-332.611 1305.93,-342.723 1298.75,-351.859"/>
<polygon fill="black" stroke="black" points="1292.44,-359.896 1295.08,-349.252 1295.53,-355.964 1298.62,-352.032 1298.62,-352.032 1298.62,-352.032 1295.53,-355.964 1302.16,-354.813 1292.44,-359.896 1292.44,-359.896"/>
</g>
<!-- 31&#45;&gt;19 -->
<g id="edge71" class="edge"><title>31&#45;&gt;19</title>
<path fill="none" stroke="black" d="M2484.71,-456.062C2357.53,-468.376 2031.8,-499.913 1886.21,-514.009"/>
<polygon fill="black" stroke="black" points="1876.04,-514.993 1885.56,-509.551 1881.02,-514.512 1885.99,-514.03 1885.99,-514.03 1885.99,-514.03 1881.02,-514.512 1886.43,-518.509 1876.04,-514.993 1876.04,-514.993"/>
</g>
<!-- 32&#45;&gt;29 -->
<g id="edge72" class="edge"><title>32&#45;&gt;29</title>
<path fill="none" stroke="black" d="M1538.11,-396.303C1533.51,-404.356 1527.94,-414.106 1522.85,-423.018"/>
<polygon fill="black" stroke="black" points="1517.77,-431.896 1518.83,-420.981 1520.25,-427.554 1522.74,-423.213 1522.74,-423.213 1522.74,-423.213 1520.25,-427.554 1526.64,-425.446 1517.77,-431.896 1517.77,-431.896"/>
</g>
<!-- 33&#45;&gt;19 -->
<g id="edge73" class="edge"><title>33&#45;&gt;19</title>
<path fill="none" stroke="black" d="M2681.21,-459.341C2655.17,-462.328 2625.24,-465.557 2598,-468 2336.2,-491.478 2024.36,-509.638 1886.12,-517.186"/>
<polygon fill="black" stroke="black" points="1876.07,-517.732 1885.81,-512.696 1881.06,-517.461 1886.05,-517.189 1886.05,-517.189 1886.05,-517.189 1881.06,-517.461 1886.3,-521.682 1876.07,-517.732 1876.07,-517.732"/>
</g>
<!-- 35&#45;&gt;19 -->
<g id="edge74" class="edge"><title>35&#45;&gt;19</title>
<path fill="none" stroke="black" d="M2909.86,-396.17C2893.71,-417.423 2862.97,-452.683 2827,-468 2741.17,-504.546 2103.46,-516.903 1886.23,-520.077"/>
<polygon fill="black" stroke="black" points="1876.2,-520.221 1886.14,-515.577 1881.2,-520.149 1886.2,-520.077 1886.2,-520.077 1886.2,-520.077 1881.2,-520.149 1886.27,-524.576 1876.2,-520.221 1876.2,-520.221"/>
</g>
<!-- 36&#45;&gt;19 -->
<g id="edge75" class="edge"><title>36&#45;&gt;19</title>
<path fill="none" stroke="black" d="M501.794,-324.265C549.22,-359.058 663.255,-436.924 773,-468 955.463,-519.667 1536.91,-522.259 1741.75,-521.5"/>
<polygon fill="black" stroke="black" points="1751.79,-521.459 1741.81,-526 1746.79,-521.48 1741.79,-521.5 1741.79,-521.5 1741.79,-521.5 1746.79,-521.48 1741.78,-517 1751.79,-521.459 1751.79,-521.459"/>
</g>
<!-- 37&#45;&gt;36 -->
<g id="edge76" class="edge"><title>37&#45;&gt;36</title>
<path fill="none" stroke="black" d="M479,-252.303C479,-260.017 479,-269.288 479,-277.888"/>
<polygon fill="black" stroke="black" points="479,-287.896 474.5,-277.896 479,-282.896 479,-277.896 479,-277.896 479,-277.896 479,-282.896 483.5,-277.896 479,-287.896 479,-287.896"/>
</g>
<!-- 38&#45;&gt;21 -->
<g id="edge77" class="edge"><title>38&#45;&gt;21</title>
<path fill="none" stroke="black" d="M1124.26,-252.303C1123.93,-260.017 1123.53,-269.288 1123.16,-277.888"/>
<polygon fill="black" stroke="black" points="1122.73,-287.896 1118.67,-277.712 1122.95,-282.9 1123.16,-277.905 1123.16,-277.905 1123.16,-277.905 1122.95,-282.9 1127.66,-278.098 1122.73,-287.896 1122.73,-287.896"/>
</g>
<!-- 39&#45;&gt;29 -->
<g id="edge78" class="edge"><title>39&#45;&gt;29</title>
<path fill="none" stroke="black" d="M1748.37,-390.169C1703.62,-401.12 1634.66,-417.999 1582.06,-430.874"/>
<polygon fill="black" stroke="black" points="1572.1,-433.311 1580.75,-426.562 1576.96,-432.122 1581.82,-430.933 1581.82,-430.933 1581.82,-430.933 1576.96,-432.122 1582.89,-435.304 1572.1,-433.311 1572.1,-433.311"/>
</g>
<!-- 40&#45;&gt;39 -->
<g id="edge79" class="edge"><title>40&#45;&gt;39</title>
<path fill="none" stroke="black" d="M1696.56,-324.124C1713.66,-333.404 1734.98,-344.975 1753.32,-354.925"/>
<polygon fill="black" stroke="black" points="1762.32,-359.81 1751.39,-358.996 1757.93,-357.426 1753.53,-355.041 1753.53,-355.041 1753.53,-355.041 1757.93,-357.426 1755.68,-351.086 1762.32,-359.81 1762.32,-359.81"/>
</g>
<!-- 41&#45;&gt;40 -->
<g id="edge80" class="edge"><title>41&#45;&gt;40</title>
<path fill="none" stroke="black" d="M1676.29,-252.303C1674.64,-260.017 1672.65,-269.288 1670.81,-277.888"/>
<polygon fill="black" stroke="black" points="1668.67,-287.896 1666.36,-277.175 1669.71,-283.007 1670.76,-278.118 1670.76,-278.118 1670.76,-278.118 1669.71,-283.007 1675.16,-279.061 1668.67,-287.896 1668.67,-287.896"/>
</g>
<!-- 42&#45;&gt;39 -->
<g id="edge81" class="edge"><title>42&#45;&gt;39</title>
<path fill="none" stroke="black" d="M1794,-324.303C1794,-332.017 1794,-341.288 1794,-349.888"/>
<polygon fill="black" stroke="black" points="1794,-359.896 1789.5,-349.896 1794,-354.896 1794,-349.896 1794,-349.896 1794,-349.896 1794,-354.896 1798.5,-349.896 1794,-359.896 1794,-359.896"/>
</g>
<!-- 43&#45;&gt;39 -->
<g id="edge82" class="edge"><title>43&#45;&gt;39</title>
<path fill="none" stroke="black" d="M1893.71,-324.124C1876.13,-333.446 1854.19,-345.081 1835.37,-355.061"/>
<polygon fill="black" stroke="black" points="1826.41,-359.81 1833.14,-351.15 1830.83,-357.468 1835.25,-355.125 1835.25,-355.125 1835.25,-355.125 1830.83,-357.468 1837.36,-359.101 1826.41,-359.81 1826.41,-359.81"/>
</g>
<!-- 44&#45;&gt;39 -->
<g id="edge83" class="edge"><title>44&#45;&gt;39</title>
<path fill="none" stroke="black" d="M1998.37,-322.189C1954.27,-334.014 1893.41,-350.339 1849.58,-362.092"/>
<polygon fill="black" stroke="black" points="1839.67,-364.751 1848.16,-357.814 1844.5,-363.456 1849.33,-362.161 1849.33,-362.161 1849.33,-362.161 1844.5,-363.456 1850.49,-366.507 1839.67,-364.751 1839.67,-364.751"/>
</g>
<!-- 45&#45;&gt;39 -->
<g id="edge84" class="edge"><title>45&#45;&gt;39</title>
<path fill="none" stroke="black" d="M2129.59,-322.244C2126.35,-322.846 2123.15,-323.434 2120,-324 2025.32,-341.049 1914.72,-358.515 1849.73,-368.529"/>
<polygon fill="black" stroke="black" points="1839.71,-370.071 1848.91,-364.104 1844.65,-369.311 1849.59,-368.551 1849.59,-368.551 1849.59,-368.551 1844.65,-369.311 1850.27,-372.999 1839.71,-370.071 1839.71,-370.071"/>
</g>
<!-- 46&#45;&gt;19 -->
<g id="edge85" class="edge"><title>46&#45;&gt;19</title>
<path fill="none" stroke="black" d="M744.943,-324.233C747.829,-358.261 759.541,-433.745 807,-468 882.239,-522.306 1523.51,-523.014 1741.68,-521.654"/>
<polygon fill="black" stroke="black" points="1751.75,-521.587 1741.78,-526.153 1746.75,-521.62 1741.75,-521.653 1741.75,-521.653 1741.75,-521.653 1746.75,-521.62 1741.72,-517.153 1751.75,-521.587 1751.75,-521.587"/>
</g>
<!-- 47&#45;&gt;46 -->
<g id="edge86" class="edge"><title>47&#45;&gt;46</title>
<path fill="none" stroke="black" d="M719.157,-252.303C722.914,-260.272 727.453,-269.9 731.618,-278.736"/>
<polygon fill="black" stroke="black" points="735.937,-287.896 727.602,-280.769 733.804,-283.373 731.672,-278.85 731.672,-278.85 731.672,-278.85 733.804,-283.373 735.743,-276.931 735.937,-287.896 735.937,-287.896"/>
</g>
<!-- 48&#45;&gt;29 -->
<g id="edge87" class="edge"><title>48&#45;&gt;29</title>
<path fill="none" stroke="black" d="M1471.89,-324.253C1475.1,-342.325 1480.79,-371.441 1488,-396 1490.52,-404.587 1493.78,-413.766 1496.93,-422.032"/>
<polygon fill="black" stroke="black" points="1500.66,-431.559 1492.82,-423.89 1498.84,-426.904 1497.01,-422.248 1497.01,-422.248 1497.01,-422.248 1498.84,-426.904 1501.2,-420.606 1500.66,-431.559 1500.66,-431.559"/>
</g>
<!-- 48&#45;&gt;51 -->
<g id="edge88" class="edge"><title>48&#45;&gt;51</title>
<path fill="none" stroke="black" d="M1422.52,-324.124C1396.08,-333.863 1362.8,-346.128 1334.94,-356.392"/>
<polygon fill="black" stroke="black" points="1325.33,-359.932 1333.16,-352.252 1330.02,-358.203 1334.71,-356.475 1334.71,-356.475 1334.71,-356.475 1330.02,-358.203 1336.27,-360.697 1325.33,-359.932 1325.33,-359.932"/>
</g>
<!-- 49&#45;&gt;48 -->
<g id="edge89" class="edge"><title>49&#45;&gt;48</title>
<path fill="none" stroke="black" d="M1319.18,-252.034C1346.85,-261.815 1381.78,-274.164 1410.95,-284.476"/>
<polygon fill="black" stroke="black" points="1420.6,-287.889 1409.67,-288.799 1415.89,-286.223 1411.17,-284.556 1411.17,-284.556 1411.17,-284.556 1415.89,-286.223 1412.67,-280.313 1420.6,-287.889 1420.6,-287.889"/>
</g>
<!-- 49&#45;&gt;51 -->
<g id="edge90" class="edge"><title>49&#45;&gt;51</title>
<path fill="none" stroke="black" d="M1265.11,-252.136C1259.72,-270.112 1253.26,-299.152 1258,-324 1259.71,-332.944 1262.9,-342.305 1266.29,-350.627"/>
<polygon fill="black" stroke="black" points="1270.28,-359.833 1262.17,-352.449 1268.29,-355.246 1266.3,-350.659 1266.3,-350.659 1266.3,-350.659 1268.29,-355.246 1270.43,-348.868 1270.28,-359.833 1270.28,-359.833"/>
</g>
<!-- 50&#45;&gt;48 -->
<g id="edge91" class="edge"><title>50&#45;&gt;48</title>
<path fill="none" stroke="black" d="M1459.97,-252.303C1461.29,-260.017 1462.88,-269.288 1464.35,-277.888"/>
<polygon fill="black" stroke="black" points="1466.07,-287.896 1459.94,-278.8 1465.22,-282.968 1464.38,-278.039 1464.38,-278.039 1464.38,-278.039 1465.22,-282.968 1468.81,-277.279 1466.07,-287.896 1466.07,-287.896"/>
</g>
<!-- 52 -->
<g id="node53" class="node"><title>52</title>
<polygon fill="none" stroke="black" points="4552,-180 4422,-180 4422,-144 4552,-144 4552,-180"/>
<text text-anchor="middle" x="4487" y="-158.3" font-family="Times,serif" font-size="14.00">PoliciesMultiPlayers</text>
</g>
<!-- 53 -->
<g id="node54" class="node"><title>53</title>
<polygon fill="none" stroke="black" points="5478.5,-252 5297.5,-252 5297.5,-216 5478.5,-216 5478.5,-252"/>
<text text-anchor="middle" x="5388" y="-230.3" font-family="Times,serif" font-size="14.00">PoliciesMultiPlayers.ALOHA</text>
</g>
<!-- 52&#45;&gt;53 -->
<g id="edge92" class="edge"><title>52&#45;&gt;53</title>
<path fill="none" stroke="black" d="M4552.1,-165.049C4687.14,-169.79 5007.73,-183.586 5286.97,-215.957"/>
<polygon fill="black" stroke="black" points="5297.31,-217.166 5286.85,-220.474 5292.34,-216.585 5287.38,-216.004 5287.38,-216.004 5287.38,-216.004 5292.34,-216.585 5287.9,-211.535 5297.31,-217.166 5297.31,-217.166"/>
</g>
<!-- 56 -->
<g id="node57" class="node"><title>56</title>
<polygon fill="none" stroke="black" points="4606.5,-252 4367.5,-252 4367.5,-216 4606.5,-216 4606.5,-252"/>
<text text-anchor="middle" x="4487" y="-230.3" font-family="Times,serif" font-size="14.00">PoliciesMultiPlayers.CentralizedCycling</text>
</g>
<!-- 52&#45;&gt;56 -->
<g id="edge93" class="edge"><title>52&#45;&gt;56</title>
<path fill="none" stroke="black" d="M4487,-180.303C4487,-188.017 4487,-197.288 4487,-205.888"/>
<polygon fill="black" stroke="black" points="4487,-215.896 4482.5,-205.896 4487,-210.896 4487,-205.896 4487,-205.896 4487,-205.896 4487,-210.896 4491.5,-205.896 4487,-215.896 4487,-215.896"/>
</g>
<!-- 57 -->
<g id="node58" class="node"><title>57</title>
<polygon fill="none" stroke="black" points="3910.5,-252 3683.5,-252 3683.5,-216 3910.5,-216 3910.5,-252"/>
<text text-anchor="middle" x="3797" y="-230.3" font-family="Times,serif" font-size="14.00">PoliciesMultiPlayers.CentralizedFixed</text>
</g>
<!-- 52&#45;&gt;57 -->
<g id="edge94" class="edge"><title>52&#45;&gt;57</title>
<path fill="none" stroke="black" d="M4421.85,-168.149C4318.16,-176.552 4108.96,-194.351 3920.66,-215.954"/>
<polygon fill="black" stroke="black" points="3910.57,-217.117 3919.99,-211.501 3915.54,-216.544 3920.51,-215.972 3920.51,-215.972 3920.51,-215.972 3915.54,-216.544 3921.02,-220.442 3910.57,-217.117 3910.57,-217.117"/>
</g>
<!-- 58 -->
<g id="node59" class="node"><title>58</title>
<polygon fill="none" stroke="black" points="4891.5,-252 4624.5,-252 4624.5,-216 4891.5,-216 4891.5,-252"/>
<text text-anchor="middle" x="4758" y="-230.3" font-family="Times,serif" font-size="14.00">PoliciesMultiPlayers.CentralizedMultiplePlay</text>
</g>
<!-- 52&#45;&gt;58 -->
<g id="edge95" class="edge"><title>52&#45;&gt;58</title>
<path fill="none" stroke="black" d="M4552.26,-179.856C4591.32,-189.947 4641.16,-202.819 4681.99,-213.367"/>
<polygon fill="black" stroke="black" points="4691.9,-215.926 4681.09,-217.782 4687.06,-214.676 4682.22,-213.425 4682.22,-213.425 4682.22,-213.425 4687.06,-214.676 4683.34,-209.068 4691.9,-215.926 4691.9,-215.926"/>
</g>
<!-- 61 -->
<g id="node62" class="node"><title>61</title>
<polygon fill="none" stroke="black" points="4119.5,-252 3928.5,-252 3928.5,-216 4119.5,-216 4119.5,-252"/>
<text text-anchor="middle" x="4024" y="-230.3" font-family="Times,serif" font-size="14.00">PoliciesMultiPlayers.OracleFair</text>
</g>
<!-- 52&#45;&gt;61 -->
<g id="edge96" class="edge"><title>52&#45;&gt;61</title>
<path fill="none" stroke="black" d="M4421.96,-172.359C4352.37,-182.434 4238.45,-199.101 4129.73,-215.899"/>
<polygon fill="black" stroke="black" points="4119.56,-217.472 4128.75,-211.495 4124.5,-216.707 4129.44,-215.942 4129.44,-215.942 4129.44,-215.942 4124.5,-216.707 4130.13,-220.389 4119.56,-217.472 4119.56,-217.472"/>
</g>
<!-- 62 -->
<g id="node63" class="node"><title>62</title>
<polygon fill="none" stroke="black" points="4350,-252 4138,-252 4138,-216 4350,-216 4350,-252"/>
<text text-anchor="middle" x="4244" y="-230.3" font-family="Times,serif" font-size="14.00">PoliciesMultiPlayers.OracleNotFair</text>
</g>
<!-- 52&#45;&gt;62 -->
<g id="edge97" class="edge"><title>52&#45;&gt;62</title>
<path fill="none" stroke="black" d="M4427.87,-180.034C4393.32,-189.985 4349.55,-202.594 4313.38,-213.013"/>
<polygon fill="black" stroke="black" points="4303.4,-215.889 4311.76,-208.797 4308.2,-214.505 4313.01,-213.121 4313.01,-213.121 4313.01,-213.121 4308.2,-214.505 4314.25,-217.445 4303.4,-215.889 4303.4,-215.889"/>
</g>
<!-- 63 -->
<g id="node64" class="node"><title>63</title>
<polygon fill="none" stroke="black" points="5080.5,-252 4909.5,-252 4909.5,-216 5080.5,-216 5080.5,-252"/>
<text text-anchor="middle" x="4995" y="-230.3" font-family="Times,serif" font-size="14.00">PoliciesMultiPlayers.Selfish</text>
</g>
<!-- 52&#45;&gt;63 -->
<g id="edge98" class="edge"><title>52&#45;&gt;63</title>
<path fill="none" stroke="black" d="M4552.04,-170.275C4631.63,-179.412 4770.72,-196.141 4899.44,-215.797"/>
<polygon fill="black" stroke="black" points="4909.47,-217.339 4898.91,-220.269 4904.53,-216.58 4899.59,-215.821 4899.59,-215.821 4899.59,-215.821 4904.53,-216.58 4900.27,-211.373 4909.47,-217.339 4909.47,-217.339"/>
</g>
<!-- 65 -->
<g id="node66" class="node"><title>65</title>
<polygon fill="none" stroke="black" points="5279,-252 5099,-252 5099,-216 5279,-216 5279,-252"/>
<text text-anchor="middle" x="5189" y="-230.3" font-family="Times,serif" font-size="14.00">PoliciesMultiPlayers.rhoRand</text>
</g>
<!-- 52&#45;&gt;65 -->
<g id="edge99" class="edge"><title>52&#45;&gt;65</title>
<path fill="none" stroke="black" d="M4552.33,-166.971C4661.35,-173.988 4887.44,-190.196 5088.77,-215.901"/>
<polygon fill="black" stroke="black" points="5098.94,-217.211 5088.45,-220.397 5093.98,-216.573 5089.02,-215.934 5089.02,-215.934 5089.02,-215.934 5093.98,-216.573 5089.6,-211.471 5098.94,-217.211 5098.94,-217.211"/>
</g>
<!-- 55 -->
<g id="node56" class="node"><title>55</title>
<polygon fill="none" stroke="black" points="4605.5,-324 4390.5,-324 4390.5,-288 4605.5,-288 4605.5,-324"/>
<text text-anchor="middle" x="4498" y="-302.3" font-family="Times,serif" font-size="14.00">PoliciesMultiPlayers.BaseMPPolicy</text>
</g>
<!-- 53&#45;&gt;55 -->
<g id="edge100" class="edge"><title>53&#45;&gt;55</title>
<path fill="none" stroke="black" d="M5297.31,-250.877C5294.17,-251.28 5291.06,-251.656 5288,-252 5000.03,-284.334 4925.64,-262.397 4637,-288 4630.17,-288.606 4623.15,-289.285 4616.08,-290.014"/>
<polygon fill="black" stroke="black" points="4605.68,-291.114 4615.15,-285.586 4610.65,-290.588 4615.63,-290.061 4615.63,-290.061 4615.63,-290.061 4610.65,-290.588 4616.1,-294.536 4605.68,-291.114 4605.68,-291.114"/>
</g>
<!-- 59 -->
<g id="node60" class="node"><title>59</title>
<polygon fill="none" stroke="black" points="4848.5,-324 4645.5,-324 4645.5,-288 4848.5,-288 4848.5,-324"/>
<text text-anchor="middle" x="4747" y="-302.3" font-family="Times,serif" font-size="14.00">PoliciesMultiPlayers.ChildPointer</text>
</g>
<!-- 53&#45;&gt;59 -->
<g id="edge101" class="edge"><title>53&#45;&gt;59</title>
<path fill="none" stroke="black" d="M5297.29,-250.708C5294.16,-251.159 5291.05,-251.591 5288,-252 5140.15,-271.785 4968.63,-287.343 4859.03,-296.351"/>
<polygon fill="black" stroke="black" points="4848.95,-297.176 4858.55,-291.876 4853.94,-296.768 4858.92,-296.361 4858.92,-296.361 4858.92,-296.361 4853.94,-296.768 4859.29,-300.846 4848.95,-297.176 4848.95,-297.176"/>
</g>
<!-- 54 -->
<g id="node55" class="node"><title>54</title>
<polygon fill="none" stroke="black" points="4262.5,-324 4005.5,-324 4005.5,-288 4262.5,-288 4262.5,-324"/>
<text text-anchor="middle" x="4134" y="-302.3" font-family="Times,serif" font-size="14.00">PoliciesMultiPlayers.BaseCentralizedPolicy</text>
</g>
<!-- 56&#45;&gt;54 -->
<g id="edge102" class="edge"><title>56&#45;&gt;54</title>
<path fill="none" stroke="black" d="M4401.1,-252.034C4349.32,-262.302 4283.27,-275.399 4229.81,-286.001"/>
<polygon fill="black" stroke="black" points="4219.98,-287.95 4228.91,-281.591 4224.89,-286.977 4229.79,-286.005 4229.79,-286.005 4229.79,-286.005 4224.89,-286.977 4230.67,-290.419 4219.98,-287.95 4219.98,-287.95"/>
</g>
<!-- 56&#45;&gt;55 -->
<g id="edge103" class="edge"><title>56&#45;&gt;55</title>
<path fill="none" stroke="black" d="M4489.72,-252.303C4490.93,-260.017 4492.39,-269.288 4493.74,-277.888"/>
<polygon fill="black" stroke="black" points="4495.31,-287.896 4489.31,-278.716 4494.54,-282.956 4493.76,-278.017 4493.76,-278.017 4493.76,-278.017 4494.54,-282.956 4498.21,-277.318 4495.31,-287.896 4495.31,-287.896"/>
</g>
<!-- 56&#45;&gt;59 -->
<g id="edge104" class="edge"><title>56&#45;&gt;59</title>
<path fill="none" stroke="black" d="M4550.27,-252.034C4587.55,-262.07 4634.86,-274.81 4673.75,-285.279"/>
<polygon fill="black" stroke="black" points="4683.45,-287.889 4672.62,-289.635 4678.62,-286.589 4673.79,-285.289 4673.79,-285.289 4673.79,-285.289 4678.62,-286.589 4674.96,-280.944 4683.45,-287.889 4683.45,-287.889"/>
</g>
<!-- 57&#45;&gt;54 -->
<g id="edge105" class="edge"><title>57&#45;&gt;54</title>
<path fill="none" stroke="black" d="M3879.01,-252.034C3928.23,-262.259 3990.97,-275.29 4041.9,-285.869"/>
<polygon fill="black" stroke="black" points="4051.92,-287.95 4041.21,-290.322 4047.02,-286.933 4042.13,-285.916 4042.13,-285.916 4042.13,-285.916 4047.02,-286.933 4043.04,-281.51 4051.92,-287.95 4051.92,-287.95"/>
</g>
<!-- 57&#45;&gt;55 -->
<g id="edge106" class="edge"><title>57&#45;&gt;55</title>
<path fill="none" stroke="black" d="M3910.57,-250.89C3913.75,-251.272 3916.89,-251.643 3920,-252 4079.04,-270.273 4263.29,-286.278 4380.21,-295.792"/>
<polygon fill="black" stroke="black" points="4390.25,-296.607 4379.92,-300.284 4385.27,-296.203 4380.29,-295.799 4380.29,-295.799 4380.29,-295.799 4385.27,-296.203 4380.65,-291.313 4390.25,-296.607 4390.25,-296.607"/>
</g>
<!-- 57&#45;&gt;59 -->
<g id="edge107" class="edge"><title>57&#45;&gt;59</title>
<path fill="none" stroke="black" d="M3910.55,-251.055C3913.73,-251.389 3916.89,-251.705 3920,-252 4227.92,-281.2 4306.95,-260.226 4615,-288 4621.65,-288.599 4628.48,-289.28 4635.36,-290.016"/>
<polygon fill="black" stroke="black" points="4645.47,-291.131 4635.04,-294.508 4640.5,-290.583 4635.53,-290.035 4635.53,-290.035 4635.53,-290.035 4640.5,-290.583 4636.03,-285.562 4645.47,-291.131 4645.47,-291.131"/>
</g>
<!-- 58&#45;&gt;55 -->
<g id="edge108" class="edge"><title>58&#45;&gt;55</title>
<path fill="none" stroke="black" d="M4694.73,-252.034C4657.45,-262.07 4610.14,-274.81 4571.25,-285.279"/>
<polygon fill="black" stroke="black" points="4561.55,-287.889 4570.04,-280.944 4566.38,-286.589 4571.21,-285.289 4571.21,-285.289 4571.21,-285.289 4566.38,-286.589 4572.38,-289.635 4561.55,-287.889 4561.55,-287.889"/>
</g>
<!-- 58&#45;&gt;59 -->
<g id="edge109" class="edge"><title>58&#45;&gt;59</title>
<path fill="none" stroke="black" d="M4755.28,-252.303C4754.07,-260.017 4752.61,-269.288 4751.26,-277.888"/>
<polygon fill="black" stroke="black" points="4749.69,-287.896 4746.79,-277.318 4750.46,-282.956 4751.24,-278.017 4751.24,-278.017 4751.24,-278.017 4750.46,-282.956 4755.69,-278.716 4749.69,-287.896 4749.69,-287.896"/>
</g>
<!-- 60 -->
<g id="node61" class="node"><title>60</title>
<polygon fill="none" stroke="black" points="3271.5,-36 3106.5,-36 3106.5,-0 3271.5,-0 3271.5,-36"/>
<text text-anchor="middle" x="3189" y="-14.3" font-family="Times,serif" font-size="14.00">PoliciesMultiPlayers.DMC</text>
</g>
<!-- 61&#45;&gt;54 -->
<g id="edge110" class="edge"><title>61&#45;&gt;54</title>
<path fill="none" stroke="black" d="M4050.91,-252.124C4065.16,-261.192 4082.85,-272.448 4098.24,-282.241"/>
<polygon fill="black" stroke="black" points="4106.99,-287.81 4096.13,-286.238 4102.77,-285.126 4098.55,-282.441 4098.55,-282.441 4098.55,-282.441 4102.77,-285.126 4100.97,-278.645 4106.99,-287.81 4106.99,-287.81"/>
</g>
<!-- 61&#45;&gt;55 -->
<g id="edge111" class="edge"><title>61&#45;&gt;55</title>
<path fill="none" stroke="black" d="M4119.56,-250.546C4122.74,-251.04 4125.9,-251.526 4129,-252 4212.86,-264.811 4307.59,-278.398 4380.07,-288.608"/>
<polygon fill="black" stroke="black" points="4390.15,-290.026 4379.62,-293.089 4385.2,-289.329 4380.24,-288.633 4380.24,-288.633 4380.24,-288.633 4385.2,-289.329 4380.87,-284.177 4390.15,-290.026 4390.15,-290.026"/>
</g>
<!-- 61&#45;&gt;59 -->
<g id="edge112" class="edge"><title>61&#45;&gt;59</title>
<path fill="none" stroke="black" d="M4119.52,-250.825C4122.72,-251.239 4125.88,-251.633 4129,-252 4344.11,-277.332 4399.51,-266.159 4615,-288 4621.64,-288.673 4628.46,-289.411 4635.34,-290.19"/>
<polygon fill="black" stroke="black" points="4645.45,-291.359 4635,-294.68 4640.48,-290.784 4635.52,-290.21 4635.52,-290.21 4635.52,-290.21 4640.48,-290.784 4636.03,-285.74 4645.45,-291.359 4645.45,-291.359"/>
</g>
<!-- 62&#45;&gt;54 -->
<g id="edge113" class="edge"><title>62&#45;&gt;54</title>
<path fill="none" stroke="black" d="M4217.09,-252.124C4202.84,-261.192 4185.15,-272.448 4169.76,-282.241"/>
<polygon fill="black" stroke="black" points="4161.01,-287.81 4167.03,-278.645 4165.23,-285.126 4169.45,-282.441 4169.45,-282.441 4169.45,-282.441 4165.23,-285.126 4171.87,-286.238 4161.01,-287.81 4161.01,-287.81"/>
</g>
<!-- 62&#45;&gt;55 -->
<g id="edge114" class="edge"><title>62&#45;&gt;55</title>
<path fill="none" stroke="black" d="M4305.81,-252.034C4342.07,-262.028 4388.06,-274.702 4425.96,-285.146"/>
<polygon fill="black" stroke="black" points="4435.91,-287.889 4425.08,-289.571 4431.09,-286.561 4426.27,-285.232 4426.27,-285.232 4426.27,-285.232 4431.09,-286.561 4427.47,-280.894 4435.91,-287.889 4435.91,-287.889"/>
</g>
<!-- 62&#45;&gt;59 -->
<g id="edge115" class="edge"><title>62&#45;&gt;59</title>
<path fill="none" stroke="black" d="M4350.2,-250.743C4353.16,-251.168 4356.1,-251.588 4359,-252 4451.92,-265.214 4557.46,-279.589 4634.98,-290.03"/>
<polygon fill="black" stroke="black" points="4645.25,-291.412 4634.74,-294.538 4640.29,-290.745 4635.34,-290.078 4635.34,-290.078 4635.34,-290.078 4640.29,-290.745 4635.94,-285.619 4645.25,-291.412 4645.25,-291.412"/>
</g>
<!-- 63&#45;&gt;55 -->
<g id="edge116" class="edge"><title>63&#45;&gt;55</title>
<path fill="none" stroke="black" d="M4909.47,-250.648C4906.62,-251.113 4903.79,-251.565 4901,-252 4847.75,-260.312 4714.56,-277.575 4615.79,-290.147"/>
<polygon fill="black" stroke="black" points="4605.74,-291.426 4615.09,-285.7 4610.7,-290.795 4615.66,-290.164 4615.66,-290.164 4615.66,-290.164 4610.7,-290.795 4616.23,-294.628 4605.74,-291.426 4605.74,-291.426"/>
</g>
<!-- 63&#45;&gt;59 -->
<g id="edge117" class="edge"><title>63&#45;&gt;59</title>
<path fill="none" stroke="black" d="M4934.65,-252.034C4899.25,-262.028 4854.34,-274.702 4817.34,-285.146"/>
<polygon fill="black" stroke="black" points="4807.62,-287.889 4816.02,-280.842 4812.43,-286.531 4817.25,-285.173 4817.25,-285.173 4817.25,-285.173 4812.43,-286.531 4818.47,-289.503 4807.62,-287.889 4807.62,-287.889"/>
</g>
<!-- 64 -->
<g id="node65" class="node"><title>64</title>
<polygon fill="none" stroke="black" points="3456.5,-36 3289.5,-36 3289.5,-0 3456.5,-0 3456.5,-36"/>
<text text-anchor="middle" x="3373" y="-14.3" font-family="Times,serif" font-size="14.00">PoliciesMultiPlayers.TDFS</text>
</g>
<!-- 65&#45;&gt;55 -->
<g id="edge118" class="edge"><title>65&#45;&gt;55</title>
<path fill="none" stroke="black" d="M5098.94,-250.821C5095.93,-251.237 5092.94,-251.631 5090,-252 4889.6,-277.116 4837.95,-267.736 4637,-288 4630.17,-288.688 4623.16,-289.431 4616.09,-290.209"/>
<polygon fill="black" stroke="black" points="4605.71,-291.37 4615.14,-285.787 4610.67,-290.815 4615.64,-290.259 4615.64,-290.259 4615.64,-290.259 4610.67,-290.815 4616.14,-294.731 4605.71,-291.37 4605.71,-291.37"/>
</g>
<!-- 65&#45;&gt;59 -->
<g id="edge119" class="edge"><title>65&#45;&gt;59</title>
<path fill="none" stroke="black" d="M5098.9,-250.537C5095.9,-251.034 5092.93,-251.523 5090,-252 5012.93,-264.571 4925.99,-277.997 4858.92,-288.19"/>
<polygon fill="black" stroke="black" points="4848.75,-289.734 4857.96,-283.784 4853.7,-288.983 4858.64,-288.233 4858.64,-288.233 4858.64,-288.233 4853.7,-288.983 4859.32,-292.682 4848.75,-289.734 4848.75,-289.734"/>
</g>
<!-- 66 -->
<g id="node67" class="node"><title>66</title>
<polygon fill="none" stroke="black" points="3529,-36 3475,-36 3475,-0 3529,-0 3529,-36"/>
<text text-anchor="middle" x="3502" y="-14.3" font-family="Times,serif" font-size="14.00">conf</text>
</g>
<!-- 67 -->
<g id="node68" class="node"><title>67</title>
<polygon fill="none" stroke="black" points="575.5,-108 486.5,-108 486.5,-72 575.5,-72 575.5,-108"/>
<text text-anchor="middle" x="531" y="-86.3" font-family="Times,serif" font-size="14.00">configuration</text>
</g>
<!-- 67&#45;&gt;2 -->
<g id="edge120" class="edge"><title>67&#45;&gt;2</title>
<path fill="none" stroke="black" d="M486.276,-103.09C449.086,-113.173 394.502,-128.037 337.895,-143.762"/>
<polygon fill="black" stroke="black" points="328.054,-146.499 336.483,-139.485 332.871,-145.16 337.688,-143.82 337.688,-143.82 337.688,-143.82 332.871,-145.16 338.894,-148.155 328.054,-146.499 328.054,-146.499"/>
</g>
<!-- 67&#45;&gt;3 -->
<g id="edge121" class="edge"><title>67&#45;&gt;3</title>
<path fill="none" stroke="black" d="M499.932,-108.124C483.173,-117.361 462.294,-128.869 444.298,-138.788"/>
<polygon fill="black" stroke="black" points="435.187,-143.81 441.773,-135.042 439.566,-141.397 443.945,-138.983 443.945,-138.983 443.945,-138.983 439.566,-141.397 446.117,-142.924 435.187,-143.81 435.187,-143.81"/>
</g>
<!-- 67&#45;&gt;4 -->
<g id="edge122" class="edge"><title>67&#45;&gt;4</title>
<path fill="none" stroke="black" d="M531,-108.303C531,-116.017 531,-125.288 531,-133.888"/>
<polygon fill="black" stroke="black" points="531,-143.896 526.5,-133.896 531,-138.896 531,-133.896 531,-133.896 531,-133.896 531,-138.896 535.5,-133.896 531,-143.896 531,-143.896"/>
</g>
<!-- 67&#45;&gt;5 -->
<g id="edge123" class="edge"><title>67&#45;&gt;5</title>
<path fill="none" stroke="black" d="M486.427,-96.6272C427.192,-104.521 319.178,-120.359 218.702,-143.745"/>
<polygon fill="black" stroke="black" points="208.692,-146.106 217.391,-139.431 213.558,-144.958 218.424,-143.81 218.424,-143.81 218.424,-143.81 213.558,-144.958 219.458,-148.19 208.692,-146.106 208.692,-146.106"/>
</g>
<!-- 67&#45;&gt;16 -->
<g id="edge124" class="edge"><title>67&#45;&gt;16</title>
<path fill="none" stroke="black" d="M575.69,-93.7226C760.647,-104.991 1464.72,-147.885 1640.2,-158.575"/>
<polygon fill="black" stroke="black" points="1650.29,-159.19 1640.03,-163.073 1645.29,-158.886 1640.3,-158.582 1640.3,-158.582 1640.3,-158.582 1645.29,-158.886 1640.58,-154.09 1650.29,-159.19 1650.29,-159.19"/>
</g>
<!-- 67&#45;&gt;51 -->
<g id="edge125" class="edge"><title>67&#45;&gt;51</title>
<path fill="none" stroke="black" d="M555.74,-108.186C567.596,-117.553 581.115,-130.069 590,-144 616.989,-186.317 584.185,-220.18 623,-252 685.519,-303.252 911.26,-254.869 985,-288 1006.52,-297.668 1003.02,-313.208 1024,-324 1056.49,-340.715 1149.58,-357.447 1213.81,-367.514"/>
<polygon fill="black" stroke="black" points="1223.86,-369.071 1213.28,-371.986 1218.91,-368.305 1213.97,-367.539 1213.97,-367.539 1213.97,-367.539 1218.91,-368.305 1214.66,-363.093 1223.86,-369.071 1223.86,-369.071"/>
</g>
<!-- 68 -->
<g id="node69" class="node"><title>68</title>
<polygon fill="none" stroke="black" points="1762,-108 1598,-108 1598,-72 1762,-72 1762,-108"/>
<text text-anchor="middle" x="1680" y="-86.3" font-family="Times,serif" font-size="14.00">configuration_multiplayers</text>
</g>
<!-- 68&#45;&gt;2 -->
<g id="edge126" class="edge"><title>68&#45;&gt;2</title>
<path fill="none" stroke="black" d="M1597.61,-91.7012C1347.89,-94.2237 600.992,-104.797 338.107,-144.1"/>
<polygon fill="black" stroke="black" points="328.208,-145.63 337.403,-139.655 333.15,-144.866 338.091,-144.102 338.091,-144.102 338.091,-144.102 333.15,-144.866 338.779,-148.549 328.208,-145.63 328.208,-145.63"/>
</g>
<!-- 68&#45;&gt;3 -->
<g id="edge127" class="edge"><title>68&#45;&gt;3</title>
<path fill="none" stroke="black" d="M1597.64,-92.4148C1365.52,-96.7461 708.094,-111.468 472.224,-144.039"/>
<polygon fill="black" stroke="black" points="462.323,-145.454 471.586,-139.584 467.273,-144.746 472.223,-144.039 472.223,-144.039 472.223,-144.039 467.273,-144.746 472.859,-148.494 462.323,-145.454 462.323,-145.454"/>
</g>
<!-- 68&#45;&gt;4 -->
<g id="edge128" class="edge"><title>68&#45;&gt;4</title>
<path fill="none" stroke="black" d="M1597.83,-96.0061C1378.69,-109.357 783.972,-145.588 591.784,-157.297"/>
<polygon fill="black" stroke="black" points="581.59,-157.918 591.298,-152.818 586.581,-157.614 591.571,-157.31 591.571,-157.31 591.571,-157.31 586.581,-157.614 591.845,-161.801 581.59,-157.918 581.59,-157.918"/>
</g>
<!-- 68&#45;&gt;5 -->
<g id="edge129" class="edge"><title>68&#45;&gt;5</title>
<path fill="none" stroke="black" d="M1597.84,-91.1351C1333.4,-92.0108 505.31,-98.299 218.574,-144.035"/>
<polygon fill="black" stroke="black" points="208.605,-145.679 217.739,-139.612 213.538,-144.866 218.471,-144.052 218.471,-144.052 218.471,-144.052 213.538,-144.866 219.203,-148.492 208.605,-145.679 208.605,-145.679"/>
</g>
<!-- 68&#45;&gt;9 -->
<g id="edge130" class="edge"><title>68&#45;&gt;9</title>
<path fill="none" stroke="black" d="M1762.16,-91.8885C2077.38,-95.5312 3199.61,-110.731 3356,-144 3420.63,-157.749 3490.56,-189.618 3533.32,-211.243"/>
<polygon fill="black" stroke="black" points="3542.29,-215.826 3531.33,-215.279 3537.83,-213.55 3533.38,-211.273 3533.38,-211.273 3533.38,-211.273 3537.83,-213.55 3535.43,-207.267 3542.29,-215.826 3542.29,-215.826"/>
</g>
<!-- 68&#45;&gt;12 -->
<g id="edge131" class="edge"><title>68&#45;&gt;12</title>
<path fill="none" stroke="black" d="M1762.17,-91.8092C2033.38,-94.8216 2889.57,-107.175 3008,-144 3030.87,-151.112 3083.09,-186.216 3117.16,-210.153"/>
<polygon fill="black" stroke="black" points="3125.4,-215.974 3114.63,-213.88 3121.31,-213.089 3117.23,-210.205 3117.23,-210.205 3117.23,-210.205 3121.31,-213.089 3119.83,-206.529 3125.4,-215.974 3125.4,-215.974"/>
</g>
<!-- 68&#45;&gt;16 -->
<g id="edge132" class="edge"><title>68&#45;&gt;16</title>
<path fill="none" stroke="black" d="M1680,-108.303C1680,-116.017 1680,-125.288 1680,-133.888"/>
<polygon fill="black" stroke="black" points="1680,-143.896 1675.5,-133.896 1680,-138.896 1680,-133.896 1680,-133.896 1680,-133.896 1680,-138.896 1684.5,-133.896 1680,-143.896 1680,-143.896"/>
</g>
<!-- 68&#45;&gt;52 -->
<g id="edge133" class="edge"><title>68&#45;&gt;52</title>
<path fill="none" stroke="black" d="M1762.11,-93.0476C2174.48,-103.331 4015.35,-149.238 4411.67,-159.121"/>
<polygon fill="black" stroke="black" points="4421.87,-159.376 4411.76,-163.625 4416.87,-159.251 4411.87,-159.126 4411.87,-159.126 4411.87,-159.126 4416.87,-159.251 4411.98,-154.628 4421.87,-159.376 4421.87,-159.376"/>
</g>
<!-- 69 -->
<g id="node70" class="node"><title>69</title>
<polygon fill="none" stroke="black" points="2951,-36 2897,-36 2897,-0 2951,-0 2951,-36"/>
<text text-anchor="middle" x="2924" y="-14.3" font-family="Times,serif" font-size="14.00">main</text>
</g>
<!-- 69&#45;&gt;8 -->
<g id="edge134" class="edge"><title>69&#45;&gt;8</title>
<path fill="none" stroke="black" d="M2949.44,-36.1239C2962.79,-45.1069 2979.32,-56.2375 2993.78,-65.9659"/>
<polygon fill="black" stroke="black" points="3002.46,-71.8102 2991.65,-69.9596 2998.31,-69.0183 2994.17,-66.2264 2994.17,-66.2264 2994.17,-66.2264 2998.31,-69.0183 2996.68,-62.4933 3002.46,-71.8102 3002.46,-71.8102"/>
</g>
<!-- 69&#45;&gt;10 -->
<g id="edge135" class="edge"><title>69&#45;&gt;10</title>
<path fill="none" stroke="black" d="M2924.36,-36.1285C2924.87,-60.3298 2925.81,-104.789 2926.42,-133.607"/>
<polygon fill="black" stroke="black" points="2926.64,-143.811 2921.93,-133.908 2926.53,-138.812 2926.43,-133.813 2926.43,-133.813 2926.43,-133.813 2926.53,-138.812 2930.92,-133.718 2926.64,-143.811 2926.64,-143.811"/>
</g>
<!-- 69&#45;&gt;67 -->
<g id="edge136" class="edge"><title>69&#45;&gt;67</title>
<path fill="none" stroke="black" d="M2896.71,-19.7982C2657.51,-26.7955 918.397,-77.6679 585.87,-87.3949"/>
<polygon fill="black" stroke="black" points="575.539,-87.6972 585.403,-82.9066 580.537,-87.5509 585.534,-87.4047 585.534,-87.4047 585.534,-87.4047 580.537,-87.5509 585.666,-91.9027 575.539,-87.6972 575.539,-87.6972"/>
</g>
<!-- 70 -->
<g id="node71" class="node"><title>70</title>
<polygon fill="none" stroke="black" points="3088.5,-36 2969.5,-36 2969.5,-0 3088.5,-0 3088.5,-36"/>
<text text-anchor="middle" x="3029" y="-14.3" font-family="Times,serif" font-size="14.00">main_multiplayers</text>
</g>
<!-- 70&#45;&gt;8 -->
<g id="edge137" class="edge"><title>70&#45;&gt;8</title>
<path fill="none" stroke="black" d="M3028.75,-36.3034C3028.64,-44.0173 3028.51,-53.2875 3028.39,-61.8876"/>
<polygon fill="black" stroke="black" points="3028.24,-71.8957 3023.89,-61.8324 3028.32,-66.8962 3028.39,-61.8967 3028.39,-61.8967 3028.39,-61.8967 3028.32,-66.8962 3032.89,-61.961 3028.24,-71.8957 3028.24,-71.8957"/>
</g>
<!-- 70&#45;&gt;11 -->
<g id="edge138" class="edge"><title>70&#45;&gt;11</title>
<path fill="none" stroke="black" d="M3054.33,-36.1285C3092.01,-61.6091 3162.91,-109.546 3205.05,-138.041"/>
<polygon fill="black" stroke="black" points="3213.58,-143.811 3202.77,-141.937 3209.44,-141.01 3205.3,-138.209 3205.3,-138.209 3205.3,-138.209 3209.44,-141.01 3207.82,-134.481 3213.58,-143.811 3213.58,-143.811"/>
</g>
<!-- 70&#45;&gt;68 -->
<g id="edge139" class="edge"><title>70&#45;&gt;68</title>
<path fill="none" stroke="black" d="M2969.3,-34.483C2966.17,-35.053 2963.05,-35.5651 2960,-36 2730.6,-68.6719 2026.68,-83.2697 1772.65,-87.5713"/>
<polygon fill="black" stroke="black" points="1762.34,-87.7442 1772.27,-83.0769 1767.34,-87.6603 1772.34,-87.5763 1772.34,-87.5763 1772.34,-87.5763 1767.34,-87.6603 1772.42,-92.0756 1762.34,-87.7442 1762.34,-87.7442"/>
</g>
</g>
</svg>
