<?xml version="1.0" encoding="UTF-8" standalone="no"?>
<!DOCTYPE svg PUBLIC "-//W3C//DTD SVG 1.1//EN"
 "http://www.w3.org/Graphics/SVG/1.1/DTD/svg11.dtd">
<!-- Generated by graphviz version 2.38.0 (20140413.2041)
 -->
<!-- Title: packages_AlgoBandits Pages: 1 -->
<svg width="2196pt" height="332pt"
 viewBox="0.00 0.00 2195.50 332.00" xmlns="http://www.w3.org/2000/svg" xmlns:xlink="http://www.w3.org/1999/xlink">
<g id="graph0" class="graph" transform="scale(1 1) rotate(0) translate(4 328)">
<title>packages_AlgoBandits</title>
<polygon fill="white" stroke="none" points="-4,4 -4,-328 2191.5,-328 2191.5,4 -4,4"/>
<!-- 0 -->
<g id="node1" class="node"><title>0</title>
<polygon fill="none" stroke="black" points="1508,-108 1454,-108 1454,-72 1508,-72 1508,-108"/>
<text text-anchor="middle" x="1481" y="-86.3" font-family="Times,serif" font-size="14.00">Arms</text>
</g>
<!-- 1 -->
<g id="node2" class="node"><title>1</title>
<polygon fill="none" stroke="black" points="1342,-180 1240,-180 1240,-144 1342,-144 1342,-180"/>
<text text-anchor="middle" x="1291" y="-158.3" font-family="Times,serif" font-size="14.00">Arms.Bernoulli</text>
</g>
<!-- 0&#45;&gt;1 -->
<g id="edge1" class="edge"><title>0&#45;&gt;1</title>
<path fill="none" stroke="black" d="M1453.78,-101.029C1426.02,-111.258 1382.14,-127.423 1346.93,-140.394"/>
<polygon fill="black" stroke="black" points="1337.25,-143.96 1345.08,-136.28 1341.94,-142.231 1346.63,-140.503 1346.63,-140.503 1346.63,-140.503 1341.94,-142.231 1348.19,-144.725 1337.25,-143.96 1337.25,-143.96"/>
</g>
<!-- 2 -->
<g id="node3" class="node"><title>2</title>
<polygon fill="none" stroke="black" points="1476,-180 1360,-180 1360,-144 1476,-144 1476,-180"/>
<text text-anchor="middle" x="1418" y="-158.3" font-family="Times,serif" font-size="14.00">Arms.Exponential</text>
</g>
<!-- 0&#45;&gt;2 -->
<g id="edge2" class="edge"><title>0&#45;&gt;2</title>
<path fill="none" stroke="black" d="M1465.43,-108.303C1457.8,-116.78 1448.48,-127.136 1440.12,-136.417"/>
<polygon fill="black" stroke="black" points="1433.39,-143.896 1436.74,-133.452 1436.74,-140.179 1440.08,-136.463 1440.08,-136.463 1440.08,-136.463 1436.74,-140.179 1443.43,-139.473 1433.39,-143.896 1433.39,-143.896"/>
</g>
<!-- 3 -->
<g id="node4" class="node"><title>3</title>
<polygon fill="none" stroke="black" points="1595.5,-180 1494.5,-180 1494.5,-144 1595.5,-144 1595.5,-180"/>
<text text-anchor="middle" x="1545" y="-158.3" font-family="Times,serif" font-size="14.00">Arms.Gaussian</text>
</g>
<!-- 0&#45;&gt;3 -->
<g id="edge3" class="edge"><title>0&#45;&gt;3</title>
<path fill="none" stroke="black" d="M1496.82,-108.303C1504.57,-116.78 1514.04,-127.136 1522.52,-136.417"/>
<polygon fill="black" stroke="black" points="1529.36,-143.896 1519.29,-139.552 1525.99,-140.206 1522.61,-136.515 1522.61,-136.515 1522.61,-136.515 1525.99,-140.206 1525.94,-133.479 1529.36,-143.896 1529.36,-143.896"/>
</g>
<!-- 4 -->
<g id="node5" class="node"><title>4</title>
<polygon fill="none" stroke="black" points="1706.5,-180 1613.5,-180 1613.5,-144 1706.5,-144 1706.5,-180"/>
<text text-anchor="middle" x="1660" y="-158.3" font-family="Times,serif" font-size="14.00">Arms.Poisson</text>
</g>
<!-- 0&#45;&gt;4 -->
<g id="edge4" class="edge"><title>0&#45;&gt;4</title>
<path fill="none" stroke="black" d="M1508.19,-101.631C1534.36,-111.866 1574.64,-127.619 1607.13,-140.326"/>
<polygon fill="black" stroke="black" points="1616.51,-143.992 1605.56,-144.541 1611.85,-142.171 1607.2,-140.35 1607.2,-140.35 1607.2,-140.35 1611.85,-142.171 1608.83,-136.159 1616.51,-143.992 1616.51,-143.992"/>
</g>
<!-- 5 -->
<g id="node6" class="node"><title>5</title>
<polygon fill="none" stroke="black" points="216,-108 128,-108 128,-72 216,-72 216,-108"/>
<text text-anchor="middle" x="172" y="-86.3" font-family="Times,serif" font-size="14.00">Environment</text>
</g>
<!-- 6 -->
<g id="node7" class="node"><title>6</title>
<polygon fill="none" stroke="black" points="144,-180 0,-180 0,-144 144,-144 144,-180"/>
<text text-anchor="middle" x="72" y="-158.3" font-family="Times,serif" font-size="14.00">Environment.Evaluator</text>
</g>
<!-- 5&#45;&gt;6 -->
<g id="edge5" class="edge"><title>5&#45;&gt;6</title>
<path fill="none" stroke="black" d="M147.537,-108.124C134.704,-117.107 118.804,-128.237 104.906,-137.966"/>
<polygon fill="black" stroke="black" points="96.5568,-143.81 102.169,-134.389 100.653,-140.943 104.749,-138.076 104.749,-138.076 104.749,-138.076 100.653,-140.943 107.33,-141.762 96.5568,-143.81 96.5568,-143.81"/>
</g>
<!-- 7 -->
<g id="node8" class="node"><title>7</title>
<polygon fill="none" stroke="black" points="271.5,-252 148.5,-252 148.5,-216 271.5,-216 271.5,-252"/>
<text text-anchor="middle" x="210" y="-230.3" font-family="Times,serif" font-size="14.00">Environment.MAB</text>
</g>
<!-- 5&#45;&gt;7 -->
<g id="edge6" class="edge"><title>5&#45;&gt;7</title>
<path fill="none" stroke="black" d="M176.584,-108.129C183.089,-132.436 195.063,-177.181 202.771,-205.987"/>
<polygon fill="black" stroke="black" points="205.4,-215.811 198.468,-207.314 204.107,-210.981 202.815,-206.151 202.815,-206.151 202.815,-206.151 204.107,-210.981 207.162,-204.987 205.4,-215.811 205.4,-215.811"/>
</g>
<!-- 8 -->
<g id="node9" class="node"><title>8</title>
<polygon fill="none" stroke="black" points="130,-252 4,-252 4,-216 130,-216 130,-252"/>
<text text-anchor="middle" x="67" y="-230.3" font-family="Times,serif" font-size="14.00">Environment.Result</text>
</g>
<!-- 5&#45;&gt;8 -->
<g id="edge7" class="edge"><title>5&#45;&gt;8</title>
<path fill="none" stroke="black" d="M172.212,-108.32C171.62,-127.51 168.119,-158.569 153,-180 144.128,-192.575 131.234,-202.757 118.117,-210.708"/>
<polygon fill="black" stroke="black" points="109.048,-215.858 115.521,-207.007 113.395,-213.389 117.743,-210.92 117.743,-210.92 117.743,-210.92 113.395,-213.389 119.966,-214.833 109.048,-215.858 109.048,-215.858"/>
</g>
<!-- 6&#45;&gt;7 -->
<g id="edge8" class="edge"><title>6&#45;&gt;7</title>
<path fill="none" stroke="black" d="M105.759,-180.124C124.22,-189.488 147.282,-201.186 167.017,-211.197"/>
<polygon fill="black" stroke="black" points="176.112,-215.81 165.158,-215.3 171.652,-213.548 167.193,-211.286 167.193,-211.286 167.193,-211.286 171.652,-213.548 169.229,-207.273 176.112,-215.81 176.112,-215.81"/>
</g>
<!-- 6&#45;&gt;8 -->
<g id="edge9" class="edge"><title>6&#45;&gt;8</title>
<path fill="none" stroke="black" d="M70.764,-180.303C70.2131,-188.017 69.5509,-197.288 68.9366,-205.888"/>
<polygon fill="black" stroke="black" points="68.2217,-215.896 64.4457,-205.6 68.578,-210.908 68.9343,-205.921 68.9343,-205.921 68.9343,-205.921 68.578,-210.908 73.4229,-206.242 68.2217,-215.896 68.2217,-215.896"/>
</g>
<!-- 9 -->
<g id="node10" class="node"><title>9</title>
<polygon fill="none" stroke="black" points="1221.5,-180 1162.5,-180 1162.5,-144 1221.5,-144 1221.5,-180"/>
<text text-anchor="middle" x="1192" y="-158.3" font-family="Times,serif" font-size="14.00">Policies</text>
</g>
<!-- 10 -->
<g id="node11" class="node"><title>10</title>
<polygon fill="none" stroke="black" points="2187.5,-252 2066.5,-252 2066.5,-216 2187.5,-216 2187.5,-252"/>
<text text-anchor="middle" x="2127" y="-230.3" font-family="Times,serif" font-size="14.00">Policies.AdBandits</text>
</g>
<!-- 9&#45;&gt;10 -->
<g id="edge10" class="edge"><title>9&#45;&gt;10</title>
<path fill="none" stroke="black" d="M1221.86,-177.312C1224.9,-178.374 1227.98,-179.301 1231,-180 1585.77,-262.062 1691.28,-166.159 2056.38,-216.124"/>
<polygon fill="black" stroke="black" points="2066.43,-217.527 2055.91,-220.601 2061.48,-216.836 2056.53,-216.144 2056.53,-216.144 2056.53,-216.144 2061.48,-216.836 2057.15,-211.688 2066.43,-217.527 2066.43,-217.527"/>
</g>
<!-- 11 -->
<g id="node12" class="node"><title>11</title>
<polygon fill="none" stroke="black" points="380.5,-252 289.5,-252 289.5,-216 380.5,-216 380.5,-252"/>
<text text-anchor="middle" x="335" y="-230.3" font-family="Times,serif" font-size="14.00">Policies.Aggr</text>
</g>
<!-- 9&#45;&gt;11 -->
<g id="edge11" class="edge"><title>9&#45;&gt;11</title>
<path fill="none" stroke="black" d="M1162.19,-164.013C1038.11,-168.374 561.39,-186.59 390.831,-215.959"/>
<polygon fill="black" stroke="black" points="380.767,-217.773 389.81,-211.571 385.688,-216.886 390.608,-215.999 390.608,-215.999 390.608,-215.999 385.688,-216.886 391.406,-220.428 380.767,-217.773 380.767,-217.773"/>
</g>
<!-- 12 -->
<g id="node13" class="node"><title>12</title>
<polygon fill="none" stroke="black" points="2048,-252 1924,-252 1924,-216 2048,-216 2048,-252"/>
<text text-anchor="middle" x="1986" y="-230.3" font-family="Times,serif" font-size="14.00">Policies.BayesUCB</text>
</g>
<!-- 9&#45;&gt;12 -->
<g id="edge12" class="edge"><title>9&#45;&gt;12</title>
<path fill="none" stroke="black" d="M1221.87,-177.283C1224.9,-178.351 1227.98,-179.287 1231,-180 1524.09,-249.19 1611.84,-174.025 1913.87,-216.016"/>
<polygon fill="black" stroke="black" points="1923.79,-217.425 1913.25,-220.473 1918.84,-216.721 1913.89,-216.018 1913.89,-216.018 1913.89,-216.018 1918.84,-216.721 1914.52,-211.562 1923.79,-217.425 1923.79,-217.425"/>
</g>
<!-- 14 -->
<g id="node15" class="node"><title>14</title>
<polygon fill="none" stroke="black" points="507.5,-252 398.5,-252 398.5,-216 507.5,-216 507.5,-252"/>
<text text-anchor="middle" x="453" y="-230.3" font-family="Times,serif" font-size="14.00">Policies.Dummy</text>
</g>
<!-- 9&#45;&gt;14 -->
<g id="edge13" class="edge"><title>9&#45;&gt;14</title>
<path fill="none" stroke="black" d="M1162.44,-163.368C1068.95,-164.943 771.371,-173.086 517.973,-215.828"/>
<polygon fill="black" stroke="black" points="507.841,-217.56 516.94,-211.439 512.77,-216.717 517.698,-215.875 517.698,-215.875 517.698,-215.875 512.77,-216.717 518.457,-220.31 507.841,-217.56 507.841,-217.56"/>
</g>
<!-- 15 -->
<g id="node16" class="node"><title>15</title>
<polygon fill="none" stroke="black" points="690.5,-252 525.5,-252 525.5,-216 690.5,-216 690.5,-252"/>
<text text-anchor="middle" x="608" y="-230.3" font-family="Times,serif" font-size="14.00">Policies.EpsilonDecreasing</text>
</g>
<!-- 9&#45;&gt;15 -->
<g id="edge14" class="edge"><title>9&#45;&gt;15</title>
<path fill="none" stroke="black" d="M1162.45,-165.371C1087.12,-171.587 881.628,-189.616 700.74,-215.8"/>
<polygon fill="black" stroke="black" points="690.781,-217.254 700.026,-211.356 695.729,-216.531 700.676,-215.809 700.676,-215.809 700.676,-215.809 695.729,-216.531 701.326,-220.262 690.781,-217.254 690.781,-217.254"/>
</g>
<!-- 16 -->
<g id="node17" class="node"><title>16</title>
<polygon fill="none" stroke="black" points="837.5,-252 708.5,-252 708.5,-216 837.5,-216 837.5,-252"/>
<text text-anchor="middle" x="773" y="-230.3" font-family="Times,serif" font-size="14.00">Policies.EpsilonFirst</text>
</g>
<!-- 9&#45;&gt;16 -->
<g id="edge15" class="edge"><title>9&#45;&gt;16</title>
<path fill="none" stroke="black" d="M1162.34,-166.81C1104.06,-174.455 970.357,-192.784 847.473,-215.99"/>
<polygon fill="black" stroke="black" points="837.515,-217.886 846.497,-211.595 842.427,-216.95 847.338,-216.015 847.338,-216.015 847.338,-216.015 842.427,-216.95 848.18,-220.436 837.515,-217.886 837.515,-217.886"/>
</g>
<!-- 17 -->
<g id="node18" class="node"><title>17</title>
<polygon fill="none" stroke="black" points="1000,-252 856,-252 856,-216 1000,-216 1000,-252"/>
<text text-anchor="middle" x="928" y="-230.3" font-family="Times,serif" font-size="14.00">Policies.EpsilonGreedy</text>
</g>
<!-- 9&#45;&gt;17 -->
<g id="edge16" class="edge"><title>9&#45;&gt;17</title>
<path fill="none" stroke="black" d="M1162.48,-170.826C1123.91,-181.053 1055.03,-199.318 1001.87,-213.414"/>
<polygon fill="black" stroke="black" points="992.135,-215.994 1000.65,-209.082 996.968,-214.713 1001.8,-213.431 1001.8,-213.431 1001.8,-213.431 996.968,-214.713 1002.95,-217.781 992.135,-215.994 992.135,-215.994"/>
</g>
<!-- 19 -->
<g id="node20" class="node"><title>19</title>
<polygon fill="none" stroke="black" points="1527.5,-252 1394.5,-252 1394.5,-216 1527.5,-216 1527.5,-252"/>
<text text-anchor="middle" x="1461" y="-230.3" font-family="Times,serif" font-size="14.00">Policies.KLempUCB</text>
</g>
<!-- 9&#45;&gt;19 -->
<g id="edge17" class="edge"><title>9&#45;&gt;19</title>
<path fill="none" stroke="black" d="M1221.59,-176.571C1224.74,-177.811 1227.91,-178.981 1231,-180 1238.49,-182.472 1320.21,-201.152 1384.14,-215.644"/>
<polygon fill="black" stroke="black" points="1394.23,-217.93 1383.48,-220.109 1389.35,-216.825 1384.48,-215.721 1384.48,-215.721 1384.48,-215.721 1389.35,-216.825 1385.47,-211.332 1394.23,-217.93 1394.23,-217.93"/>
</g>
<!-- 20 -->
<g id="node21" class="node"><title>20</title>
<polygon fill="none" stroke="black" points="1128,-252 1018,-252 1018,-216 1128,-216 1128,-252"/>
<text text-anchor="middle" x="1073" y="-230.3" font-family="Times,serif" font-size="14.00">Policies.Softmax</text>
</g>
<!-- 9&#45;&gt;20 -->
<g id="edge18" class="edge"><title>9&#45;&gt;20</title>
<path fill="none" stroke="black" d="M1162.89,-180.124C1147.33,-189.276 1127.98,-200.658 1111.22,-210.515"/>
<polygon fill="black" stroke="black" points="1102.22,-215.81 1108.56,-206.861 1106.53,-213.275 1110.84,-210.74 1110.84,-210.74 1110.84,-210.74 1106.53,-213.275 1113.12,-214.619 1102.22,-215.81 1102.22,-215.81"/>
</g>
<!-- 21 -->
<g id="node22" class="node"><title>21</title>
<polygon fill="none" stroke="black" points="1906,-252 1784,-252 1784,-216 1906,-216 1906,-252"/>
<text text-anchor="middle" x="1845" y="-230.3" font-family="Times,serif" font-size="14.00">Policies.Thompson</text>
</g>
<!-- 9&#45;&gt;21 -->
<g id="edge19" class="edge"><title>9&#45;&gt;21</title>
<path fill="none" stroke="black" d="M1221.88,-177.241C1224.91,-178.317 1227.99,-179.267 1231,-180 1463.22,-236.478 1533.57,-180.836 1773.58,-215.957"/>
<polygon fill="black" stroke="black" points="1783.66,-217.471 1773.1,-220.436 1778.71,-216.728 1773.77,-215.986 1773.77,-215.986 1773.77,-215.986 1778.71,-216.728 1774.44,-211.536 1783.66,-217.471 1783.66,-217.471"/>
</g>
<!-- 22 -->
<g id="node23" class="node"><title>22</title>
<polygon fill="none" stroke="black" points="1237.5,-252 1146.5,-252 1146.5,-216 1237.5,-216 1237.5,-252"/>
<text text-anchor="middle" x="1192" y="-230.3" font-family="Times,serif" font-size="14.00">Policies.UCB</text>
</g>
<!-- 9&#45;&gt;22 -->
<g id="edge20" class="edge"><title>9&#45;&gt;22</title>
<path fill="none" stroke="black" d="M1192,-180.303C1192,-188.017 1192,-197.288 1192,-205.888"/>
<polygon fill="black" stroke="black" points="1192,-215.896 1187.5,-205.896 1192,-210.896 1192,-205.896 1192,-205.896 1192,-205.896 1192,-210.896 1196.5,-205.896 1192,-215.896 1192,-215.896"/>
</g>
<!-- 23 -->
<g id="node24" class="node"><title>23</title>
<polygon fill="none" stroke="black" points="1765.5,-252 1664.5,-252 1664.5,-216 1765.5,-216 1765.5,-252"/>
<text text-anchor="middle" x="1715" y="-230.3" font-family="Times,serif" font-size="14.00">Policies.UCBV</text>
</g>
<!-- 9&#45;&gt;23 -->
<g id="edge21" class="edge"><title>9&#45;&gt;23</title>
<path fill="none" stroke="black" d="M1221.89,-177.182C1224.92,-178.27 1227.99,-179.239 1231,-180 1411.21,-225.609 1467.04,-183.556 1654.52,-216.164"/>
<polygon fill="black" stroke="black" points="1664.42,-217.934 1653.79,-220.604 1659.5,-217.054 1654.58,-216.174 1654.58,-216.174 1654.58,-216.174 1659.5,-217.054 1655.37,-211.744 1664.42,-217.934 1664.42,-217.934"/>
</g>
<!-- 24 -->
<g id="node25" class="node"><title>24</title>
<polygon fill="none" stroke="black" points="1376,-252 1256,-252 1256,-216 1376,-216 1376,-252"/>
<text text-anchor="middle" x="1316" y="-230.3" font-family="Times,serif" font-size="14.00">Policies.UCBalpha</text>
</g>
<!-- 9&#45;&gt;24 -->
<g id="edge22" class="edge"><title>9&#45;&gt;24</title>
<path fill="none" stroke="black" d="M1221.7,-179.767C1238.17,-189.066 1258.87,-200.749 1276.67,-210.799"/>
<polygon fill="black" stroke="black" points="1285.68,-215.884 1274.76,-214.886 1281.33,-213.426 1276.97,-210.968 1276.97,-210.968 1276.97,-210.968 1281.33,-213.426 1279.18,-207.049 1285.68,-215.884 1285.68,-215.884"/>
</g>
<!-- 25 -->
<g id="node26" class="node"><title>25</title>
<polygon fill="none" stroke="black" points="1646.5,-252 1545.5,-252 1545.5,-216 1646.5,-216 1646.5,-252"/>
<text text-anchor="middle" x="1596" y="-230.3" font-family="Times,serif" font-size="14.00">Policies.klUCB</text>
</g>
<!-- 9&#45;&gt;25 -->
<g id="edge23" class="edge"><title>9&#45;&gt;25</title>
<path fill="none" stroke="black" d="M1221.92,-177.079C1224.94,-178.188 1228.01,-179.19 1231,-180 1359.67,-214.819 1400.24,-190.512 1535.49,-216.121"/>
<polygon fill="black" stroke="black" points="1545.4,-218.053 1534.72,-220.556 1540.49,-217.096 1535.58,-216.139 1535.58,-216.139 1535.58,-216.139 1540.49,-217.096 1536.44,-211.722 1545.4,-218.053 1545.4,-218.053"/>
</g>
<!-- 13 -->
<g id="node14" class="node"><title>13</title>
<polygon fill="none" stroke="black" points="2030,-324 1942,-324 1942,-288 2030,-288 2030,-324"/>
<text text-anchor="middle" x="1986" y="-302.3" font-family="Times,serif" font-size="14.00">Policies.Beta</text>
</g>
<!-- 10&#45;&gt;13 -->
<g id="edge24" class="edge"><title>10&#45;&gt;13</title>
<path fill="none" stroke="black" d="M2092.51,-252.124C2073.56,-261.531 2049.87,-273.292 2029.64,-283.333"/>
<polygon fill="black" stroke="black" points="2020.63,-287.81 2027.58,-279.333 2025.1,-285.587 2029.58,-283.363 2029.58,-283.363 2029.58,-283.363 2025.1,-285.587 2031.58,-287.394 2020.63,-287.81 2020.63,-287.81"/>
</g>
<!-- 12&#45;&gt;13 -->
<g id="edge25" class="edge"><title>12&#45;&gt;13</title>
<path fill="none" stroke="black" d="M1986,-252.303C1986,-260.017 1986,-269.288 1986,-277.888"/>
<polygon fill="black" stroke="black" points="1986,-287.896 1981.5,-277.896 1986,-282.896 1986,-277.896 1986,-277.896 1986,-277.896 1986,-282.896 1990.5,-277.896 1986,-287.896 1986,-287.896"/>
</g>
<!-- 18 -->
<g id="node19" class="node"><title>18</title>
<polygon fill="none" stroke="black" points="1779,-324 1651,-324 1651,-288 1779,-288 1779,-324"/>
<text text-anchor="middle" x="1715" y="-302.3" font-family="Times,serif" font-size="14.00">Policies.IndexPolicy</text>
</g>
<!-- 12&#45;&gt;18 -->
<g id="edge26" class="edge"><title>12&#45;&gt;18</title>
<path fill="none" stroke="black" d="M1923.83,-251.059C1883.67,-261.432 1831.22,-274.981 1788.92,-285.905"/>
<polygon fill="black" stroke="black" points="1779.24,-288.407 1787.79,-281.549 1784.08,-287.157 1788.92,-285.906 1788.92,-285.906 1788.92,-285.906 1784.08,-287.157 1790.05,-290.263 1779.24,-288.407 1779.24,-288.407"/>
</g>
<!-- 19&#45;&gt;18 -->
<g id="edge27" class="edge"><title>19&#45;&gt;18</title>
<path fill="none" stroke="black" d="M1522.81,-252.034C1559.07,-262.028 1605.06,-274.702 1642.96,-285.146"/>
<polygon fill="black" stroke="black" points="1652.91,-287.889 1642.08,-289.571 1648.09,-286.561 1643.27,-285.232 1643.27,-285.232 1643.27,-285.232 1648.09,-286.561 1644.47,-280.894 1652.91,-287.889 1652.91,-287.889"/>
</g>
<!-- 26 -->
<g id="node27" class="node"><title>26</title>
<polygon fill="none" stroke="black" points="1575,-324 1465,-324 1465,-288 1575,-288 1575,-324"/>
<text text-anchor="middle" x="1520" y="-302.3" font-family="Times,serif" font-size="14.00">Policies.kullback</text>
</g>
<!-- 19&#45;&gt;26 -->
<g id="edge28" class="edge"><title>19&#45;&gt;26</title>
<path fill="none" stroke="black" d="M1475.58,-252.303C1482.66,-260.695 1491.28,-270.93 1499.05,-280.139"/>
<polygon fill="black" stroke="black" points="1505.58,-287.896 1495.7,-283.15 1502.36,-284.073 1499.14,-280.249 1499.14,-280.249 1499.14,-280.249 1502.36,-284.073 1502.58,-277.349 1505.58,-287.896 1505.58,-287.896"/>
</g>
<!-- 21&#45;&gt;13 -->
<g id="edge29" class="edge"><title>21&#45;&gt;13</title>
<path fill="none" stroke="black" d="M1879.49,-252.124C1898.44,-261.531 1922.13,-273.292 1942.36,-283.333"/>
<polygon fill="black" stroke="black" points="1951.37,-287.81 1940.42,-287.394 1946.9,-285.587 1942.42,-283.363 1942.42,-283.363 1942.42,-283.363 1946.9,-285.587 1944.42,-279.333 1951.37,-287.81 1951.37,-287.81"/>
</g>
<!-- 21&#45;&gt;18 -->
<g id="edge30" class="edge"><title>21&#45;&gt;18</title>
<path fill="none" stroke="black" d="M1813.2,-252.124C1795.89,-261.446 1774.28,-273.081 1755.74,-283.061"/>
<polygon fill="black" stroke="black" points="1746.92,-287.81 1753.6,-279.107 1751.33,-285.44 1755.73,-283.069 1755.73,-283.069 1755.73,-283.069 1751.33,-285.44 1757.86,-287.031 1746.92,-287.81 1746.92,-287.81"/>
</g>
<!-- 23&#45;&gt;18 -->
<g id="edge31" class="edge"><title>23&#45;&gt;18</title>
<path fill="none" stroke="black" d="M1715,-252.303C1715,-260.017 1715,-269.288 1715,-277.888"/>
<polygon fill="black" stroke="black" points="1715,-287.896 1710.5,-277.896 1715,-282.896 1715,-277.896 1715,-277.896 1715,-277.896 1715,-282.896 1719.5,-277.896 1715,-287.896 1715,-287.896"/>
</g>
<!-- 25&#45;&gt;18 -->
<g id="edge32" class="edge"><title>25&#45;&gt;18</title>
<path fill="none" stroke="black" d="M1625.11,-252.124C1640.67,-261.276 1660.02,-272.658 1676.78,-282.515"/>
<polygon fill="black" stroke="black" points="1685.78,-287.81 1674.88,-286.619 1681.47,-285.275 1677.16,-282.74 1677.16,-282.74 1677.16,-282.74 1681.47,-285.275 1679.44,-278.861 1685.78,-287.81 1685.78,-287.81"/>
</g>
<!-- 25&#45;&gt;26 -->
<g id="edge33" class="edge"><title>25&#45;&gt;26</title>
<path fill="none" stroke="black" d="M1577.21,-252.303C1567.83,-260.95 1556.32,-271.551 1546.09,-280.973"/>
<polygon fill="black" stroke="black" points="1538.57,-287.896 1542.88,-277.811 1542.25,-284.508 1545.93,-281.121 1545.93,-281.121 1545.93,-281.121 1542.25,-284.508 1548.97,-284.431 1538.57,-287.896 1538.57,-287.896"/>
</g>
<!-- 27 -->
<g id="node28" class="node"><title>27</title>
<polygon fill="none" stroke="black" points="1236.5,-108 1147.5,-108 1147.5,-72 1236.5,-72 1236.5,-108"/>
<text text-anchor="middle" x="1192" y="-86.3" font-family="Times,serif" font-size="14.00">configuration</text>
</g>
<!-- 27&#45;&gt;1 -->
<g id="edge34" class="edge"><title>27&#45;&gt;1</title>
<path fill="none" stroke="black" d="M1216.22,-108.124C1228.92,-117.107 1244.66,-128.237 1258.42,-137.966"/>
<polygon fill="black" stroke="black" points="1266.69,-143.81 1255.93,-141.711 1262.61,-140.924 1258.52,-138.037 1258.52,-138.037 1258.52,-138.037 1262.61,-140.924 1261.12,-134.363 1266.69,-143.81 1266.69,-143.81"/>
</g>
<!-- 27&#45;&gt;9 -->
<g id="edge35" class="edge"><title>27&#45;&gt;9</title>
<path fill="none" stroke="black" d="M1192,-108.303C1192,-116.017 1192,-125.288 1192,-133.888"/>
<polygon fill="black" stroke="black" points="1192,-143.896 1187.5,-133.896 1192,-138.896 1192,-133.896 1192,-133.896 1192,-133.896 1192,-138.896 1196.5,-133.896 1192,-143.896 1192,-143.896"/>
</g>
<!-- 28 -->
<g id="node29" class="node"><title>28</title>
<polygon fill="none" stroke="black" points="199,-36 145,-36 145,-0 199,-0 199,-36"/>
<text text-anchor="middle" x="172" y="-14.3" font-family="Times,serif" font-size="14.00">main</text>
</g>
<!-- 28&#45;&gt;5 -->
<g id="edge36" class="edge"><title>28&#45;&gt;5</title>
<path fill="none" stroke="black" d="M172,-36.3034C172,-44.0173 172,-53.2875 172,-61.8876"/>
<polygon fill="black" stroke="black" points="172,-71.8957 167.5,-61.8956 172,-66.8957 172,-61.8957 172,-61.8957 172,-61.8957 172,-66.8957 176.5,-61.8957 172,-71.8957 172,-71.8957"/>
</g>
<!-- 28&#45;&gt;6 -->
<g id="edge37" class="edge"><title>28&#45;&gt;6</title>
<path fill="none" stroke="black" d="M152.155,-36.1491C141.519,-45.9679 128.657,-58.9109 119,-72 104.579,-91.5469 91.9604,-116.109 83.4395,-134.476"/>
<polygon fill="black" stroke="black" points="79.2556,-143.713 79.2824,-132.747 81.3186,-139.158 83.3815,-134.604 83.3815,-134.604 83.3815,-134.604 81.3186,-139.158 87.4807,-136.46 79.2556,-143.713 79.2556,-143.713"/>
</g>
<!-- 28&#45;&gt;27 -->
<g id="edge38" class="edge"><title>28&#45;&gt;27</title>
<path fill="none" stroke="black" d="M199.02,-20.8543C335.45,-30.2171 949.466,-72.3555 1137.26,-85.2433"/>
<polygon fill="black" stroke="black" points="1147.45,-85.9424 1137.16,-89.7471 1142.46,-85.6001 1137.47,-85.2577 1137.47,-85.2577 1137.47,-85.2577 1142.46,-85.6001 1137.78,-80.7682 1147.45,-85.9424 1147.45,-85.9424"/>
</g>
</g>
</svg>
