<?xml version="1.0" encoding="UTF-8" standalone="no"?>
<!DOCTYPE svg PUBLIC "-//W3C//DTD SVG 1.1//EN"
 "http://www.w3.org/Graphics/SVG/1.1/DTD/svg11.dtd">
<!-- Generated by graphviz version 2.38.0 (20140413.2041)
 -->
<!-- Title: %3 Pages: 1 -->
<svg width="649pt" height="154pt"
 viewBox="0.00 0.00 649.00 154.00" xmlns="http://www.w3.org/2000/svg" xmlns:xlink="http://www.w3.org/1999/xlink">
<g id="graph0" class="graph" transform="scale(1 1) rotate(0) translate(4 150)">
<title>%3</title>
<polygon fill="white" stroke="none" points="-4,4 -4,-150 645,-150 645,4 -4,4"/>
<text text-anchor="middle" x="320.5" y="-7.8" font-family="Times,serif" font-size="14.00">Tree exploration for K=2 arms and M=2 players using Selfish_KLUCB_Ubar, for depth=2 : 16 leafs, 2 absorbing</text>
<!-- 0 -->
<g id="node1" class="node"><title>0</title>
<ellipse fill="none" stroke="green" cx="320.5" cy="-128" rx="83.3857" ry="18"/>
<text text-anchor="middle" x="320.5" y="-124.3" font-family="Times,serif" font-size="14.00">[[0/0,0/0], [0/0,0/0]]</text>
</g>
<!-- 9 -->
<g id="node2" class="node"><title>9</title>
<ellipse fill="none" stroke="red" cx="228.5" cy="-41" rx="83.3857" ry="18"/>
<text text-anchor="middle" x="228.5" y="-37.3" font-family="Times,serif" font-size="14.00">[[0/1,1/1], [0/1,1/1]]</text>
</g>
<!-- 0&#45;&gt;9 -->
<g id="edge1" class="edge"><title>0&#45;&gt;9</title>
<path fill="none" stroke="black" d="M302.324,-110.207C288.589,-97.517 269.553,-79.9297 254.252,-65.7925"/>
<polygon fill="black" stroke="black" points="256.359,-62.9738 246.638,-58.7584 251.608,-68.1153 256.359,-62.9738"/>
<text text-anchor="middle" x="327" y="-80.8" font-family="Times,serif" font-size="14.00">µ2^2(µ1 &#45; 1)^2/2</text>
</g>
<!-- 15 -->
<g id="node3" class="node"><title>15</title>
<ellipse fill="none" stroke="red" cx="412.5" cy="-41" rx="83.3857" ry="18"/>
<text text-anchor="middle" x="412.5" y="-37.3" font-family="Times,serif" font-size="14.00">[[1/1,0/1], [1/1,0/1]]</text>
</g>
<!-- 0&#45;&gt;15 -->
<g id="edge2" class="edge"><title>0&#45;&gt;15</title>
<path fill="none" stroke="black" d="M351.425,-111.152C360.381,-105.761 369.807,-99.2446 377.5,-92 385.057,-84.8834 391.956,-75.8911 397.594,-67.501"/>
<polygon fill="black" stroke="black" points="400.542,-69.3882 402.987,-59.0794 394.647,-65.6131 400.542,-69.3882"/>
<text text-anchor="middle" x="437" y="-80.8" font-family="Times,serif" font-size="14.00">µ1^2(µ2 &#45; 1)^2/2</text>
</g>
</g>
</svg>
