<?xml version="1.0" encoding="UTF-8" standalone="no"?>
<!DOCTYPE svg PUBLIC "-//W3C//DTD SVG 1.1//EN"
 "http://www.w3.org/Graphics/SVG/1.1/DTD/svg11.dtd">
<!-- Generated by graphviz version 2.38.0 (20140413.2041)
 -->
<!-- Title: %3 Pages: 1 -->
<svg width="6443pt" height="154pt"
 viewBox="0.00 0.00 6442.98 154.00" xmlns="http://www.w3.org/2000/svg" xmlns:xlink="http://www.w3.org/1999/xlink">
<g id="graph0" class="graph" transform="scale(1 1) rotate(0) translate(4 150)">
<title>%3</title>
<polygon fill="white" stroke="none" points="-4,4 -4,-150 6438.98,-150 6438.98,4 -4,4"/>
<text text-anchor="middle" x="3217.49" y="-7.8" font-family="Times,serif" font-size="14.00">Tree exploration for K=3 arms and M=2 players using Selfish_UCB_Ubar, for depth=1 : 27 leafs, 0 absorbing</text>
<!-- 0 -->
<g id="node1" class="node"><title>0</title>
<ellipse fill="none" stroke="green" cx="3217.49" cy="-128" rx="110.48" ry="18"/>
<text text-anchor="middle" x="3217.49" y="-124.3" font-family="Times,serif" font-size="14.00">[[0/0,0/0,0/0], [0/0,0/0,0/0]]</text>
</g>
<!-- 1 -->
<g id="node2" class="node"><title>1</title>
<ellipse fill="none" stroke="black" cx="110.49" cy="-41" rx="110.48" ry="18"/>
<text text-anchor="middle" x="110.49" y="-37.3" font-family="Times,serif" font-size="14.00">[[0/0,1/1,0/0], [0/0,0/0,0/1]]</text>
</g>
<!-- 0&#45;&gt;1 -->
<g id="edge1" class="edge"><title>0&#45;&gt;1</title>
<path fill="none" stroke="black" d="M3107.22,-126.831C2671.19,-125.965 1066.52,-120.845 558.49,-92 412.212,-83.6946 375.941,-76.6124 230.49,-59 220.438,-57.7828 209.925,-56.4226 199.48,-55.016"/>
<polygon fill="black" stroke="black" points="199.884,-51.5388 189.503,-53.6565 198.939,-58.4747 199.884,-51.5388"/>
<text text-anchor="middle" x="587.49" y="-80.8" font-family="Times,serif" font-size="14.00">µ2(1&#45;µ3)/9</text>
</g>
<!-- 2 -->
<g id="node3" class="node"><title>2</title>
<ellipse fill="none" stroke="black" cx="349.49" cy="-41" rx="110.48" ry="18"/>
<text text-anchor="middle" x="349.49" y="-37.3" font-family="Times,serif" font-size="14.00">[[0/0,0/0,1/1], [0/1,0/0,0/0]]</text>
</g>
<!-- 0&#45;&gt;2 -->
<g id="edge2" class="edge"><title>0&#45;&gt;2</title>
<path fill="none" stroke="black" d="M3107.14,-126.623C2697.26,-125.031 1262.43,-117.709 805.49,-92 655.675,-83.5708 618.475,-76.861 469.49,-59 459.358,-57.7853 448.757,-56.4206 438.23,-55.0065"/>
<polygon fill="black" stroke="black" points="438.558,-51.5189 428.177,-53.6388 437.614,-58.455 438.558,-51.5189"/>
<text text-anchor="middle" x="834.49" y="-80.8" font-family="Times,serif" font-size="14.00">µ3(1&#45;µ1)/9</text>
</g>
<!-- 3 -->
<g id="node4" class="node"><title>3</title>
<ellipse fill="none" stroke="black" cx="588.49" cy="-41" rx="110.48" ry="18"/>
<text text-anchor="middle" x="588.49" y="-37.3" font-family="Times,serif" font-size="14.00">[[0/0,0/0,1/1], [0/0,1/1,0/0]]</text>
</g>
<!-- 0&#45;&gt;3 -->
<g id="edge3" class="edge"><title>0&#45;&gt;3</title>
<path fill="none" stroke="black" d="M3107.31,-126.33C2726.4,-123.836 1466.59,-114.084 1062.49,-92 904.71,-83.3773 865.428,-77.4207 708.49,-59 698.355,-57.8103 687.753,-56.4613 677.224,-55.0559"/>
<polygon fill="black" stroke="black" points="677.55,-51.5681 667.17,-53.6946 676.61,-58.5048 677.55,-51.5681"/>
<text text-anchor="middle" x="1081.49" y="-80.8" font-family="Times,serif" font-size="14.00">µ2µ3/9</text>
</g>
<!-- 4 -->
<g id="node5" class="node"><title>4</title>
<ellipse fill="none" stroke="black" cx="827.49" cy="-41" rx="110.48" ry="18"/>
<text text-anchor="middle" x="827.49" y="-37.3" font-family="Times,serif" font-size="14.00">[[0/0,0/0,1/1], [1/1,0/0,0/0]]</text>
</g>
<!-- 0&#45;&gt;4 -->
<g id="edge4" class="edge"><title>0&#45;&gt;4</title>
<path fill="none" stroke="black" d="M3107.44,-126.102C2754.26,-123.047 1651.81,-112.109 1295.49,-92 1140.38,-83.246 1101.78,-77.2341 947.49,-59 937.356,-57.8023 926.754,-56.4482 916.226,-55.04"/>
<polygon fill="black" stroke="black" points="916.552,-51.5523 906.173,-53.6766 915.612,-58.4888 916.552,-51.5523"/>
<text text-anchor="middle" x="1314.49" y="-80.8" font-family="Times,serif" font-size="14.00">µ1µ3/9</text>
</g>
<!-- 5 -->
<g id="node6" class="node"><title>5</title>
<ellipse fill="none" stroke="black" cx="1066.49" cy="-41" rx="110.48" ry="18"/>
<text text-anchor="middle" x="1066.49" y="-37.3" font-family="Times,serif" font-size="14.00">[[0/0,0/0,0/1], [1/1,0/0,0/0]]</text>
</g>
<!-- 0&#45;&gt;5 -->
<g id="edge5" class="edge"><title>0&#45;&gt;5</title>
<path fill="none" stroke="black" d="M3107.63,-125.937C2781.1,-122.588 1819.72,-111.322 1506.49,-92 1384.76,-84.4911 1244.94,-67.0886 1156.19,-54.9375"/>
<polygon fill="black" stroke="black" points="1156.55,-51.4533 1146.16,-53.5568 1155.59,-58.3879 1156.55,-51.4533"/>
<text text-anchor="middle" x="1535.49" y="-80.8" font-family="Times,serif" font-size="14.00">µ1(1&#45;µ3)/9</text>
</g>
<!-- 6 -->
<g id="node7" class="node"><title>6</title>
<ellipse fill="none" stroke="black" cx="1305.49" cy="-41" rx="110.48" ry="18"/>
<text text-anchor="middle" x="1305.49" y="-37.3" font-family="Times,serif" font-size="14.00">[[0/1,0/0,0/0], [0/0,0/0,0/1]]</text>
</g>
<!-- 0&#45;&gt;6 -->
<g id="edge6" class="edge"><title>0&#45;&gt;6</title>
<path fill="none" stroke="black" d="M3106.97,-127.546C2860.18,-128.076 2245.55,-125.562 1732.49,-92 1615.18,-84.3258 1480.57,-67.1663 1394.37,-55.0993"/>
<polygon fill="black" stroke="black" points="1394.75,-51.6187 1384.36,-53.6908 1393.78,-58.5504 1394.75,-51.6187"/>
<text text-anchor="middle" x="1771.99" y="-80.8" font-family="Times,serif" font-size="14.00">(1&#45;µ1)(1&#45;µ3)/9</text>
</g>
<!-- 7 -->
<g id="node8" class="node"><title>7</title>
<ellipse fill="none" stroke="black" cx="1544.49" cy="-41" rx="110.48" ry="18"/>
<text text-anchor="middle" x="1544.49" y="-37.3" font-family="Times,serif" font-size="14.00">[[1/1,0/0,0/0], [0/0,0/0,0/1]]</text>
</g>
<!-- 0&#45;&gt;7 -->
<g id="edge7" class="edge"><title>0&#45;&gt;7</title>
<path fill="none" stroke="black" d="M3107.2,-126.556C2891.9,-125.093 2400.65,-118.823 1988.49,-92 1844.05,-82.6002 1808.17,-76.4881 1664.49,-59 1654.44,-57.7767 1643.93,-56.4125 1633.48,-55.0038"/>
<polygon fill="black" stroke="black" points="1633.89,-51.5267 1623.5,-53.6427 1632.94,-58.4624 1633.89,-51.5267"/>
<text text-anchor="middle" x="2017.49" y="-80.8" font-family="Times,serif" font-size="14.00">µ1(1&#45;µ3)/9</text>
</g>
<!-- 8 -->
<g id="node9" class="node"><title>8</title>
<ellipse fill="none" stroke="black" cx="1783.49" cy="-41" rx="110.48" ry="18"/>
<text text-anchor="middle" x="1783.49" y="-37.3" font-family="Times,serif" font-size="14.00">[[0/0,0/1,0/0], [0/0,0/0,0/1]]</text>
</g>
<!-- 0&#45;&gt;8 -->
<g id="edge8" class="edge"><title>0&#45;&gt;8</title>
<path fill="none" stroke="black" d="M3107.6,-125.64C2923.49,-122.804 2541.15,-114.526 2218.49,-92 2078.07,-82.1964 2043.2,-76.2085 1903.49,-59 1893.44,-57.7622 1882.93,-56.3891 1872.48,-54.9752"/>
<polygon fill="black" stroke="black" points="1872.89,-51.4982 1862.51,-53.6103 1871.94,-58.4336 1872.89,-51.4982"/>
<text text-anchor="middle" x="2257.99" y="-80.8" font-family="Times,serif" font-size="14.00">(1&#45;µ2)(1&#45;µ3)/9</text>
</g>
<!-- 9 -->
<g id="node10" class="node"><title>9</title>
<ellipse fill="none" stroke="black" cx="2022.49" cy="-41" rx="110.48" ry="18"/>
<text text-anchor="middle" x="2022.49" y="-37.3" font-family="Times,serif" font-size="14.00">[[1/1,0/0,0/0], [0/0,0/1,0/0]]</text>
</g>
<!-- 0&#45;&gt;9 -->
<g id="edge9" class="edge"><title>0&#45;&gt;9</title>
<path fill="none" stroke="black" d="M3110.27,-123.547C2967.06,-118.557 2705.47,-108.12 2482.49,-92 2331.06,-81.0527 2293.24,-76.9854 2142.49,-59 2132.36,-57.7911 2121.76,-56.43 2111.23,-55.0179"/>
<polygon fill="black" stroke="black" points="2111.56,-51.5303 2101.18,-53.6517 2110.61,-58.4665 2111.56,-51.5303"/>
<text text-anchor="middle" x="2511.49" y="-80.8" font-family="Times,serif" font-size="14.00">µ1(1&#45;µ2)/9</text>
</g>
<!-- 10 -->
<g id="node11" class="node"><title>10</title>
<ellipse fill="none" stroke="black" cx="2261.49" cy="-41" rx="110.48" ry="18"/>
<text text-anchor="middle" x="2261.49" y="-37.3" font-family="Times,serif" font-size="14.00">[[0/1,0/0,0/0], [0/0,0/0,1/1]]</text>
</g>
<!-- 0&#45;&gt;10 -->
<g id="edge10" class="edge"><title>0&#45;&gt;10</title>
<path fill="none" stroke="black" d="M3115.61,-121.009C3012.42,-114.709 2848.26,-104.049 2706.49,-92 2561.82,-79.7045 2525.62,-76.5192 2381.49,-59 2371.44,-57.7782 2360.93,-56.4151 2350.48,-55.0069"/>
<polygon fill="black" stroke="black" points="2350.89,-51.5298 2340.5,-53.6461 2349.94,-58.4655 2350.89,-51.5298"/>
<text text-anchor="middle" x="2735.49" y="-80.8" font-family="Times,serif" font-size="14.00">µ3(1&#45;µ1)/9</text>
</g>
<!-- 11 -->
<g id="node12" class="node"><title>11</title>
<ellipse fill="none" stroke="black" cx="2500.49" cy="-41" rx="110.48" ry="18"/>
<text text-anchor="middle" x="2500.49" y="-37.3" font-family="Times,serif" font-size="14.00">[[1/1,0/0,0/0], [0/0,1/1,0/0]]</text>
</g>
<!-- 0&#45;&gt;11 -->
<g id="edge11" class="edge"><title>0&#45;&gt;11</title>
<path fill="none" stroke="black" d="M3127.38,-117.53C3010.41,-105.056 2800.01,-81.997 2620.49,-59 2610.63,-57.7367 2600.32,-56.3607 2590.06,-54.9565"/>
<polygon fill="black" stroke="black" points="2590.23,-51.4462 2579.84,-53.546 2589.27,-58.3805 2590.23,-51.4462"/>
<text text-anchor="middle" x="2901.49" y="-80.8" font-family="Times,serif" font-size="14.00">µ1µ2/9</text>
</g>
<!-- 12 -->
<g id="node13" class="node"><title>12</title>
<ellipse fill="none" stroke="black" cx="2739.49" cy="-41" rx="110.48" ry="18"/>
<text text-anchor="middle" x="2739.49" y="-37.3" font-family="Times,serif" font-size="14.00">[[0/0,0/0,0/1], [0/0,0/0,0/1]]</text>
</g>
<!-- 0&#45;&gt;12 -->
<g id="edge12" class="edge"><title>0&#45;&gt;12</title>
<path fill="none" stroke="black" d="M3145.93,-114.275C3058.95,-98.8071 2912.5,-72.7657 2821.18,-56.5267"/>
<polygon fill="black" stroke="black" points="2821.61,-53.0477 2811.15,-54.7428 2820.38,-59.9396 2821.61,-53.0477"/>
<text text-anchor="middle" x="3016.49" y="-80.8" font-family="Times,serif" font-size="14.00">1/9</text>
</g>
<!-- 13 -->
<g id="node14" class="node"><title>13</title>
<ellipse fill="none" stroke="black" cx="2978.49" cy="-41" rx="110.48" ry="18"/>
<text text-anchor="middle" x="2978.49" y="-37.3" font-family="Times,serif" font-size="14.00">[[0/0,0/0,0/1], [0/1,0/0,0/0]]</text>
</g>
<!-- 0&#45;&gt;13 -->
<g id="edge13" class="edge"><title>0&#45;&gt;13</title>
<path fill="none" stroke="black" d="M3173.65,-111.41C3133.77,-97.2257 3074.79,-76.2486 3032.11,-61.0705"/>
<polygon fill="black" stroke="black" points="3033.05,-57.6885 3022.45,-57.6352 3030.7,-64.2838 3033.05,-57.6885"/>
<text text-anchor="middle" x="3151.99" y="-80.8" font-family="Times,serif" font-size="14.00">(1&#45;µ1)(1&#45;µ3)/9</text>
</g>
<!-- 14 -->
<g id="node15" class="node"><title>14</title>
<ellipse fill="none" stroke="black" cx="3217.49" cy="-41" rx="110.48" ry="18"/>
<text text-anchor="middle" x="3217.49" y="-37.3" font-family="Times,serif" font-size="14.00">[[0/0,0/0,0/1], [0/0,1/1,0/0]]</text>
</g>
<!-- 0&#45;&gt;14 -->
<g id="edge14" class="edge"><title>0&#45;&gt;14</title>
<path fill="none" stroke="black" d="M3217.49,-109.799C3217.49,-98.1626 3217.49,-82.5479 3217.49,-69.2368"/>
<polygon fill="black" stroke="black" points="3220.99,-69.1754 3217.49,-59.1754 3213.99,-69.1755 3220.99,-69.1754"/>
<text text-anchor="middle" x="3246.49" y="-80.8" font-family="Times,serif" font-size="14.00">µ2(1&#45;µ3)/9</text>
</g>
<!-- 15 -->
<g id="node16" class="node"><title>15</title>
<ellipse fill="none" stroke="black" cx="3456.49" cy="-41" rx="110.48" ry="18"/>
<text text-anchor="middle" x="3456.49" y="-37.3" font-family="Times,serif" font-size="14.00">[[1/1,0/0,0/0], [0/0,0/0,1/1]]</text>
</g>
<!-- 0&#45;&gt;15 -->
<g id="edge15" class="edge"><title>0&#45;&gt;15</title>
<path fill="none" stroke="black" d="M3261.33,-111.41C3301.21,-97.2257 3360.19,-76.2486 3402.87,-61.0705"/>
<polygon fill="black" stroke="black" points="3404.28,-64.2838 3412.53,-57.6352 3401.93,-57.6885 3404.28,-64.2838"/>
<text text-anchor="middle" x="3370.49" y="-80.8" font-family="Times,serif" font-size="14.00">µ1µ3/9</text>
</g>
<!-- 16 -->
<g id="node17" class="node"><title>16</title>
<ellipse fill="none" stroke="black" cx="3695.49" cy="-41" rx="110.48" ry="18"/>
<text text-anchor="middle" x="3695.49" y="-37.3" font-family="Times,serif" font-size="14.00">[[0/0,1/1,0/0], [0/0,0/0,1/1]]</text>
</g>
<!-- 0&#45;&gt;16 -->
<g id="edge16" class="edge"><title>0&#45;&gt;16</title>
<path fill="none" stroke="black" d="M3289.05,-114.275C3376.03,-98.8071 3522.48,-72.7657 3613.8,-56.5267"/>
<polygon fill="black" stroke="black" points="3614.6,-59.9396 3623.83,-54.7428 3613.37,-53.0477 3614.6,-59.9396"/>
<text text-anchor="middle" x="3504.49" y="-80.8" font-family="Times,serif" font-size="14.00">µ2µ3/9</text>
</g>
<!-- 17 -->
<g id="node18" class="node"><title>17</title>
<ellipse fill="none" stroke="black" cx="3934.49" cy="-41" rx="110.48" ry="18"/>
<text text-anchor="middle" x="3934.49" y="-37.3" font-family="Times,serif" font-size="14.00">[[0/0,1/1,0/0], [0/1,0/0,0/0]]</text>
</g>
<!-- 0&#45;&gt;17 -->
<g id="edge17" class="edge"><title>0&#45;&gt;17</title>
<path fill="none" stroke="black" d="M3307.6,-117.541C3424.57,-105.079 3634.97,-82.0324 3814.49,-59 3824.35,-57.7348 3834.66,-56.3575 3844.92,-54.9526"/>
<polygon fill="black" stroke="black" points="3845.71,-58.3765 3855.14,-53.5416 3844.75,-51.4423 3845.71,-58.3765"/>
<text text-anchor="middle" x="3696.49" y="-80.8" font-family="Times,serif" font-size="14.00">µ2(1&#45;µ1)/9</text>
</g>
<!-- 18 -->
<g id="node19" class="node"><title>18</title>
<ellipse fill="none" stroke="black" cx="4173.49" cy="-41" rx="110.48" ry="18"/>
<text text-anchor="middle" x="4173.49" y="-37.3" font-family="Times,serif" font-size="14.00">[[0/0,0/1,0/0], [0/0,0/0,1/1]]</text>
</g>
<!-- 0&#45;&gt;18 -->
<g id="edge18" class="edge"><title>0&#45;&gt;18</title>
<path fill="none" stroke="black" d="M3319.57,-121.024C3422.96,-114.736 3587.45,-104.085 3729.49,-92 3873.71,-79.7292 3909.81,-76.4881 4053.49,-59 4063.54,-57.7767 4074.05,-56.4125 4084.5,-55.0038"/>
<polygon fill="black" stroke="black" points="4085.04,-58.4624 4094.48,-53.6427 4084.09,-51.5267 4085.04,-58.4624"/>
<text text-anchor="middle" x="3921.49" y="-80.8" font-family="Times,serif" font-size="14.00">µ3(1&#45;µ2)/9</text>
</g>
<!-- 19 -->
<g id="node20" class="node"><title>19</title>
<ellipse fill="none" stroke="black" cx="4412.49" cy="-41" rx="110.48" ry="18"/>
<text text-anchor="middle" x="4412.49" y="-37.3" font-family="Times,serif" font-size="14.00">[[0/0,1/1,0/0], [1/1,0/0,0/0]]</text>
</g>
<!-- 0&#45;&gt;19 -->
<g id="edge19" class="edge"><title>0&#45;&gt;19</title>
<path fill="none" stroke="black" d="M3324.69,-123.586C3468.23,-118.63 3730.75,-108.225 3954.49,-92 4105.03,-81.0833 4142.62,-76.9232 4292.49,-59 4302.62,-57.7882 4313.22,-56.4254 4323.75,-55.0122"/>
<polygon fill="black" stroke="black" points="4324.37,-58.4608 4333.8,-53.6453 4323.42,-51.5246 4324.37,-58.4608"/>
<text text-anchor="middle" x="4148.49" y="-80.8" font-family="Times,serif" font-size="14.00">µ1µ2/9</text>
</g>
<!-- 20 -->
<g id="node21" class="node"><title>20</title>
<ellipse fill="none" stroke="black" cx="4651.49" cy="-41" rx="110.48" ry="18"/>
<text text-anchor="middle" x="4651.49" y="-37.3" font-family="Times,serif" font-size="14.00">[[0/1,0/0,0/0], [0/1,0/0,0/0]]</text>
</g>
<!-- 0&#45;&gt;20 -->
<g id="edge20" class="edge"><title>0&#45;&gt;20</title>
<path fill="none" stroke="black" d="M3326.68,-124.937C3504.04,-121.15 3865.71,-111.609 4171.49,-92 4331.83,-81.7175 4371.9,-77.6073 4531.49,-59 4541.63,-57.8181 4552.23,-56.4739 4562.76,-55.0713"/>
<polygon fill="black" stroke="black" points="4563.37,-58.5203 4572.81,-53.712 4562.43,-51.5834 4563.37,-58.5203"/>
<text text-anchor="middle" x="4373.49" y="-80.8" font-family="Times,serif" font-size="14.00">1/9</text>
</g>
<!-- 21 -->
<g id="node22" class="node"><title>21</title>
<ellipse fill="none" stroke="black" cx="4890.49" cy="-41" rx="110.48" ry="18"/>
<text text-anchor="middle" x="4890.49" y="-37.3" font-family="Times,serif" font-size="14.00">[[0/1,0/0,0/0], [0/0,0/1,0/0]]</text>
</g>
<!-- 0&#45;&gt;21 -->
<g id="edge21" class="edge"><title>0&#45;&gt;21</title>
<path fill="none" stroke="black" d="M3327.17,-125.756C3534.33,-122.953 3997.3,-114.532 4386.49,-92 4557.5,-82.0997 4600.29,-78.3541 4770.49,-59 4780.71,-57.838 4791.4,-56.4999 4802.01,-55.0954"/>
<polygon fill="black" stroke="black" points="4802.7,-58.5347 4812.14,-53.7321 4801.76,-51.5972 4802.7,-58.5347"/>
<text text-anchor="middle" x="4637.99" y="-80.8" font-family="Times,serif" font-size="14.00">(1&#45;µ1)(1&#45;µ2)/9</text>
</g>
<!-- 22 -->
<g id="node23" class="node"><title>22</title>
<ellipse fill="none" stroke="black" cx="5129.49" cy="-41" rx="110.48" ry="18"/>
<text text-anchor="middle" x="5129.49" y="-37.3" font-family="Times,serif" font-size="14.00">[[0/0,0/1,0/0], [0/0,0/1,0/0]]</text>
</g>
<!-- 0&#45;&gt;22 -->
<g id="edge22" class="edge"><title>0&#45;&gt;22</title>
<path fill="none" stroke="black" d="M3328.27,-127.236C3572.74,-127.124 4176.85,-123.372 4681.49,-92 4827.72,-82.9092 4864.04,-76.6124 5009.49,-59 5019.54,-57.7828 5030.06,-56.4226 5040.5,-55.016"/>
<polygon fill="black" stroke="black" points="5041.04,-58.4747 5050.48,-53.6565 5040.1,-51.5388 5041.04,-58.4747"/>
<text text-anchor="middle" x="4866.49" y="-80.8" font-family="Times,serif" font-size="14.00">1/9</text>
</g>
<!-- 23 -->
<g id="node24" class="node"><title>23</title>
<ellipse fill="none" stroke="black" cx="5368.49" cy="-41" rx="110.48" ry="18"/>
<text text-anchor="middle" x="5368.49" y="-37.3" font-family="Times,serif" font-size="14.00">[[0/1,0/0,0/0], [0/0,1/1,0/0]]</text>
</g>
<!-- 0&#45;&gt;23 -->
<g id="edge23" class="edge"><title>0&#45;&gt;23</title>
<path fill="none" stroke="black" d="M3327.96,-127.272C3594.8,-127.362 4295.59,-124.22 4879.49,-92 5043.89,-82.9281 5084.92,-77.8873 5248.49,-59 5258.71,-57.8202 5269.4,-56.4713 5280.01,-55.0607"/>
<polygon fill="black" stroke="black" points="5280.7,-58.4996 5290.14,-53.6929 5279.76,-51.5625 5280.7,-58.4996"/>
<text text-anchor="middle" x="5112.49" y="-80.8" font-family="Times,serif" font-size="14.00">µ2(1&#45;µ1)/9</text>
</g>
<!-- 24 -->
<g id="node25" class="node"><title>24</title>
<ellipse fill="none" stroke="black" cx="5607.49" cy="-41" rx="110.48" ry="18"/>
<text text-anchor="middle" x="5607.49" y="-37.3" font-family="Times,serif" font-size="14.00">[[0/0,0/0,1/1], [0/0,0/1,0/0]]</text>
</g>
<!-- 0&#45;&gt;24 -->
<g id="edge24" class="edge"><title>0&#45;&gt;24</title>
<path fill="none" stroke="black" d="M3327.58,-126.133C3681.52,-123.168 4787.97,-112.463 5145.49,-92 5297.95,-83.2742 5335.85,-77.0475 5487.49,-59 5497.62,-57.7939 5508.22,-56.4347 5518.75,-55.0235"/>
<polygon fill="black" stroke="black" points="5519.37,-58.4722 5528.81,-53.658 5518.43,-51.5359 5519.37,-58.4722"/>
<text text-anchor="middle" x="5363.49" y="-80.8" font-family="Times,serif" font-size="14.00">µ3(1&#45;µ2)/9</text>
</g>
<!-- 25 -->
<g id="node26" class="node"><title>25</title>
<ellipse fill="none" stroke="black" cx="5846.49" cy="-41" rx="110.48" ry="18"/>
<text text-anchor="middle" x="5846.49" y="-37.3" font-family="Times,serif" font-size="14.00">[[0/0,0/1,0/0], [1/1,0/0,0/0]]</text>
</g>
<!-- 0&#45;&gt;25 -->
<g id="edge25" class="edge"><title>0&#45;&gt;25</title>
<path fill="none" stroke="black" d="M3327.58,-126.451C3711.13,-124.347 4987.5,-115.693 5396.49,-92 5543.64,-83.4756 5580.16,-76.6745 5726.49,-59 5736.54,-57.7859 5747.06,-56.4275 5757.5,-55.022"/>
<polygon fill="black" stroke="black" points="5758.04,-58.4808 5767.48,-53.6633 5757.1,-51.5448 5758.04,-58.4808"/>
<text text-anchor="middle" x="5607.49" y="-80.8" font-family="Times,serif" font-size="14.00">µ1(1&#45;µ2)/9</text>
</g>
<!-- 26 -->
<g id="node27" class="node"><title>26</title>
<ellipse fill="none" stroke="black" cx="6085.49" cy="-41" rx="110.48" ry="18"/>
<text text-anchor="middle" x="6085.49" y="-37.3" font-family="Times,serif" font-size="14.00">[[0/0,0/1,0/0], [0/1,0/0,0/0]]</text>
</g>
<!-- 0&#45;&gt;26 -->
<g id="edge26" class="edge"><title>0&#45;&gt;26</title>
<path fill="none" stroke="black" d="M3327.99,-126.679C3739.28,-125.286 5181.38,-118.575 5640.49,-92 5764.17,-84.8409 5906.31,-67.2199 5996,-54.936"/>
<polygon fill="black" stroke="black" points="5996.7,-58.3723 6006.13,-53.5405 5995.75,-51.4378 5996.7,-58.3723"/>
<text text-anchor="middle" x="5851.99" y="-80.8" font-family="Times,serif" font-size="14.00">(1&#45;µ1)(1&#45;µ2)/9</text>
</g>
<!-- 27 -->
<g id="node28" class="node"><title>27</title>
<ellipse fill="none" stroke="black" cx="6324.49" cy="-41" rx="110.48" ry="18"/>
<text text-anchor="middle" x="6324.49" y="-37.3" font-family="Times,serif" font-size="14.00">[[0/0,0/0,0/1], [0/0,0/1,0/0]]</text>
</g>
<!-- 0&#45;&gt;27 -->
<g id="edge27" class="edge"><title>0&#45;&gt;27</title>
<path fill="none" stroke="black" d="M3327.81,-126.933C3765.88,-126.455 5383.63,-122.61 5895.49,-92 6013.93,-84.9172 6149.85,-67.4875 6236.4,-55.2079"/>
<polygon fill="black" stroke="black" points="6237.04,-58.6524 6246.44,-53.7745 6236.05,-51.7226 6237.04,-58.6524"/>
<text text-anchor="middle" x="6100.99" y="-80.8" font-family="Times,serif" font-size="14.00">(1&#45;µ2)(1&#45;µ3)/9</text>
</g>
</g>
</svg>
