<?xml version="1.0" encoding="UTF-8" standalone="no"?>
<!DOCTYPE svg PUBLIC "-//W3C//DTD SVG 1.1//EN"
 "http://www.w3.org/Graphics/SVG/1.1/DTD/svg11.dtd">
<!-- Generated by graphviz version 2.38.0 (20140413.2041)
 -->
<!-- Title: %3 Pages: 1 -->
<svg width="3584pt" height="154pt"
 viewBox="0.00 0.00 3584.17 154.00" xmlns="http://www.w3.org/2000/svg" xmlns:xlink="http://www.w3.org/1999/xlink">
<g id="graph0" class="graph" transform="scale(1 1) rotate(0) translate(4 150)">
<title>%3</title>
<polygon fill="white" stroke="none" points="-4,4 -4,-150 3580.17,-150 3580.17,4 -4,4"/>
<text text-anchor="middle" x="1788.08" y="-7.8" font-family="Times,serif" font-size="14.00">Tree exploration for K=2 arms and M=2 players using TopBestMC UCB U and TopBestMC RandomNewChosenArm, for depth=1 : 10 leafs, 0 absorbing</text>
<!-- 0 -->
<g id="node1" class="node"><title>0</title>
<ellipse fill="none" stroke="green" cx="1787.58" cy="-128" rx="177.369" ry="18"/>
<text text-anchor="middle" x="1787.58" y="-124.3" font-family="Times,serif" font-size="14.00">[[0/0,0/0], [0/0,0/0]] r=[(&#45;1, False), (&#45;1, False)]</text>
</g>
<!-- 1 -->
<g id="node2" class="node"><title>1</title>
<ellipse fill="none" stroke="black" cx="171.585" cy="-41" rx="171.67" ry="18"/>
<text text-anchor="middle" x="171.585" y="-37.3" font-family="Times,serif" font-size="14.00">[[0/1,0/0], [0/1,0/0]] r=[(1, False), (1, False)]</text>
</g>
<!-- 0&#45;&gt;1 -->
<g id="edge1" class="edge"><title>0&#45;&gt;1</title>
<path fill="none" stroke="black" d="M1619.93,-122.1C1351.75,-113.578 809.832,-93.552 351.585,-59 335.232,-57.767 318.056,-56.3292 301.075,-54.8215"/>
<polygon fill="black" stroke="black" points="301.38,-51.3349 291.107,-53.9268 300.754,-58.3069 301.38,-51.3349"/>
<text text-anchor="middle" x="883.585" y="-80.8" font-family="Times,serif" font-size="14.00">0.0625</text>
</g>
<!-- 2 -->
<g id="node3" class="node"><title>2</title>
<ellipse fill="none" stroke="black" cx="532.585" cy="-41" rx="171.67" ry="18"/>
<text text-anchor="middle" x="532.585" y="-37.3" font-family="Times,serif" font-size="14.00">[[0/0,0/1], [0/0,0/1]] r=[(0, False), (0, False)]</text>
</g>
<!-- 0&#45;&gt;2 -->
<g id="edge2" class="edge"><title>0&#45;&gt;2</title>
<path fill="none" stroke="black" d="M1634.38,-118.876C1425.75,-107.455 1040.68,-85.1022 712.585,-59 696.649,-57.7322 679.929,-56.296 663.369,-54.8085"/>
<polygon fill="black" stroke="black" points="663.362,-51.2936 653.087,-53.8768 662.73,-58.2651 663.362,-51.2936"/>
<text text-anchor="middle" x="1174.58" y="-80.8" font-family="Times,serif" font-size="14.00">0.0625</text>
</g>
<!-- 3 -->
<g id="node4" class="node"><title>3</title>
<ellipse fill="none" stroke="black" cx="889.585" cy="-41" rx="167.87" ry="18"/>
<text text-anchor="middle" x="889.585" y="-37.3" font-family="Times,serif" font-size="14.00">[[0/0,1/1], [0/1,0/0]] r=[(1, True), (0, True)]</text>
</g>
<!-- 0&#45;&gt;3 -->
<g id="edge3" class="edge"><title>0&#45;&gt;3</title>
<path fill="none" stroke="black" d="M1662.04,-115.267C1518,-101.785 1274.73,-78.9501 1065.58,-59 1050.67,-57.5773 1035.04,-56.0791 1019.52,-54.5859"/>
<polygon fill="black" stroke="black" points="1019.63,-51.0806 1009.34,-53.6063 1018.96,-58.0484 1019.63,-51.0806"/>
<text text-anchor="middle" x="1415.08" y="-80.8" font-family="Times,serif" font-size="14.00">0.25</text>
</g>
<!-- 4 -->
<g id="node5" class="node"><title>4</title>
<ellipse fill="none" stroke="black" cx="1246.58" cy="-41" rx="171.67" ry="18"/>
<text text-anchor="middle" x="1246.58" y="-37.3" font-family="Times,serif" font-size="14.00">[[0/1,0/0], [0/1,0/0]] r=[(0, False), (1, False)]</text>
</g>
<!-- 0&#45;&gt;4 -->
<g id="edge4" class="edge"><title>0&#45;&gt;4</title>
<path fill="none" stroke="black" d="M1695.81,-112.581C1599.19,-97.4008 1447.51,-73.5693 1347.56,-57.8654"/>
<polygon fill="black" stroke="black" points="1347.87,-54.3715 1337.45,-56.2769 1346.79,-61.2867 1347.87,-54.3715"/>
<text text-anchor="middle" x="1568.58" y="-80.8" font-family="Times,serif" font-size="14.00">0.0625</text>
</g>
<!-- 5 -->
<g id="node6" class="node"><title>5</title>
<ellipse fill="none" stroke="black" cx="1607.58" cy="-41" rx="171.67" ry="18"/>
<text text-anchor="middle" x="1607.58" y="-37.3" font-family="Times,serif" font-size="14.00">[[0/1,0/0], [0/1,0/0]] r=[(1, False), (0, False)]</text>
</g>
<!-- 0&#45;&gt;5 -->
<g id="edge5" class="edge"><title>0&#45;&gt;5</title>
<path fill="none" stroke="black" d="M1752.02,-110.207C1723.42,-96.7021 1683.08,-77.6506 1652.3,-63.1137"/>
<polygon fill="black" stroke="black" points="1653.61,-59.8636 1643.07,-58.7584 1650.62,-66.1934 1653.61,-59.8636"/>
<text text-anchor="middle" x="1727.58" y="-80.8" font-family="Times,serif" font-size="14.00">0.0625</text>
</g>
<!-- 6 -->
<g id="node7" class="node"><title>6</title>
<ellipse fill="none" stroke="black" cx="1968.58" cy="-41" rx="171.67" ry="18"/>
<text text-anchor="middle" x="1968.58" y="-37.3" font-family="Times,serif" font-size="14.00">[[0/0,0/1], [0/0,0/1]] r=[(1, False), (1, False)]</text>
</g>
<!-- 0&#45;&gt;6 -->
<g id="edge6" class="edge"><title>0&#45;&gt;6</title>
<path fill="none" stroke="black" d="M1823.34,-110.207C1852.19,-96.6583 1892.93,-77.5268 1923.93,-62.9723"/>
<polygon fill="black" stroke="black" points="1925.64,-66.0324 1933.21,-58.6135 1922.67,-59.6963 1925.64,-66.0324"/>
<text text-anchor="middle" x="1908.58" y="-80.8" font-family="Times,serif" font-size="14.00">0.0625</text>
</g>
<!-- 7 -->
<g id="node8" class="node"><title>7</title>
<ellipse fill="none" stroke="black" cx="2329.58" cy="-41" rx="171.67" ry="18"/>
<text text-anchor="middle" x="2329.58" y="-37.3" font-family="Times,serif" font-size="14.00">[[0/1,0/0], [0/1,0/0]] r=[(0, False), (0, False)]</text>
</g>
<!-- 0&#45;&gt;7 -->
<g id="edge7" class="edge"><title>0&#45;&gt;7</title>
<path fill="none" stroke="black" d="M1879.53,-112.581C1976.32,-97.4008 2128.28,-73.5693 2228.42,-57.8654"/>
<polygon fill="black" stroke="black" points="2229.21,-61.284 2238.55,-56.2769 2228.13,-54.3685 2229.21,-61.284"/>
<text text-anchor="middle" x="2110.58" y="-80.8" font-family="Times,serif" font-size="14.00">0.0625</text>
</g>
<!-- 8 -->
<g id="node9" class="node"><title>8</title>
<ellipse fill="none" stroke="black" cx="2690.58" cy="-41" rx="171.67" ry="18"/>
<text text-anchor="middle" x="2690.58" y="-37.3" font-family="Times,serif" font-size="14.00">[[0/0,0/1], [0/0,0/1]] r=[(1, False), (0, False)]</text>
</g>
<!-- 0&#45;&gt;8 -->
<g id="edge8" class="edge"><title>0&#45;&gt;8</title>
<path fill="none" stroke="black" d="M1912.97,-115.222C2057.16,-101.674 2300.97,-78.756 2510.58,-59 2525.71,-57.5745 2541.55,-56.0804 2557.29,-54.5946"/>
<polygon fill="black" stroke="black" points="2557.99,-58.0445 2567.62,-53.6202 2557.33,-51.0754 2557.99,-58.0445"/>
<text text-anchor="middle" x="2331.58" y="-80.8" font-family="Times,serif" font-size="14.00">0.0625</text>
</g>
<!-- 9 -->
<g id="node10" class="node"><title>9</title>
<ellipse fill="none" stroke="black" cx="3047.58" cy="-41" rx="167.87" ry="18"/>
<text text-anchor="middle" x="3047.58" y="-37.3" font-family="Times,serif" font-size="14.00">[[0/1,0/0], [0/0,1/1]] r=[(0, True), (1, True)]</text>
</g>
<!-- 0&#45;&gt;9 -->
<g id="edge9" class="edge"><title>0&#45;&gt;9</title>
<path fill="none" stroke="black" d="M1941.64,-119.024C2151.92,-107.752 2540.54,-85.5463 2871.58,-59 2887.3,-57.7402 2903.78,-56.3018 2920.11,-54.8073"/>
<polygon fill="black" stroke="black" points="2920.6,-58.2763 2930.24,-53.8706 2919.96,-51.3061 2920.6,-58.2763"/>
<text text-anchor="middle" x="2617.08" y="-80.8" font-family="Times,serif" font-size="14.00">0.25</text>
</g>
<!-- 10 -->
<g id="node11" class="node"><title>10</title>
<ellipse fill="none" stroke="black" cx="3404.58" cy="-41" rx="171.67" ry="18"/>
<text text-anchor="middle" x="3404.58" y="-37.3" font-family="Times,serif" font-size="14.00">[[0/0,0/1], [0/0,0/1]] r=[(0, False), (1, False)]</text>
</g>
<!-- 0&#45;&gt;10 -->
<g id="edge10" class="edge"><title>0&#45;&gt;10</title>
<path fill="none" stroke="black" d="M1955.36,-122.075C2223.72,-113.518 2766.01,-93.4451 3224.58,-59 3240.94,-57.7716 3258.11,-56.3366 3275.1,-54.8304"/>
<polygon fill="black" stroke="black" points="3275.42,-58.3158 3285.06,-53.9363 3274.79,-51.3437 3275.42,-58.3158"/>
<text text-anchor="middle" x="2968.58" y="-80.8" font-family="Times,serif" font-size="14.00">0.0625</text>
</g>
</g>
</svg>
