<?xml version="1.0" encoding="UTF-8" standalone="no"?>
<!DOCTYPE svg PUBLIC "-//W3C//DTD SVG 1.1//EN"
 "http://www.w3.org/Graphics/SVG/1.1/DTD/svg11.dtd">
<!-- Generated by graphviz version 2.38.0 (20140413.2041)
 -->
<!-- Title: %3 Pages: 1 -->
<svg width="631pt" height="154pt"
 viewBox="0.00 0.00 631.00 154.00" xmlns="http://www.w3.org/2000/svg" xmlns:xlink="http://www.w3.org/1999/xlink">
<g id="graph0" class="graph" transform="scale(1 1) rotate(0) translate(4 150)">
<title>%3</title>
<polygon fill="white" stroke="none" points="-4,4 -4,-150 627,-150 627,4 -4,4"/>
<text text-anchor="middle" x="311.5" y="-7.8" font-family="Times,serif" font-size="14.00">Tree exploration for K=2 arms and M=2 players using Selfish_UCB_Ubar, for depth=3 : 68 leafs, 2 absorbing</text>
<!-- 0 -->
<g id="node1" class="node"><title>0</title>
<ellipse fill="none" stroke="green" cx="311.5" cy="-128" rx="83.3857" ry="18"/>
<text text-anchor="middle" x="311.5" y="-124.3" font-family="Times,serif" font-size="14.00">[[0/0,0/0], [0/0,0/0]]</text>
</g>
<!-- 25 -->
<g id="node2" class="node"><title>25</title>
<ellipse fill="none" stroke="red" cx="219.5" cy="-41" rx="83.3857" ry="18"/>
<text text-anchor="middle" x="219.5" y="-37.3" font-family="Times,serif" font-size="14.00">[[0/1,1/2], [0/1,1/2]]</text>
</g>
<!-- 0&#45;&gt;25 -->
<g id="edge1" class="edge"><title>0&#45;&gt;25</title>
<path fill="none" stroke="black" d="M293.324,-110.207C279.589,-97.517 260.553,-79.9297 245.252,-65.7925"/>
<polygon fill="black" stroke="black" points="247.359,-62.9738 237.638,-58.7584 242.608,-68.1153 247.359,-62.9738"/>
<text text-anchor="middle" x="318" y="-80.8" font-family="Times,serif" font-size="14.00">µ2^2(µ1 &#45; 1)^2/2</text>
</g>
<!-- 66 -->
<g id="node3" class="node"><title>66</title>
<ellipse fill="none" stroke="red" cx="403.5" cy="-41" rx="83.3857" ry="18"/>
<text text-anchor="middle" x="403.5" y="-37.3" font-family="Times,serif" font-size="14.00">[[1/2,0/1], [1/2,0/1]]</text>
</g>
<!-- 0&#45;&gt;66 -->
<g id="edge2" class="edge"><title>0&#45;&gt;66</title>
<path fill="none" stroke="black" d="M342.425,-111.152C351.381,-105.761 360.807,-99.2446 368.5,-92 376.057,-84.8834 382.956,-75.8911 388.594,-67.501"/>
<polygon fill="black" stroke="black" points="391.542,-69.3882 393.987,-59.0794 385.647,-65.6131 391.542,-69.3882"/>
<text text-anchor="middle" x="428" y="-80.8" font-family="Times,serif" font-size="14.00">µ1^2(µ2 &#45; 1)^2/2</text>
</g>
</g>
</svg>
