<?xml version="1.0" encoding="UTF-8" standalone="no"?>
<!DOCTYPE svg PUBLIC "-//W3C//DTD SVG 1.1//EN"
 "http://www.w3.org/Graphics/SVG/1.1/DTD/svg11.dtd">
<!-- Generated by graphviz version 2.38.0 (20140413.2041)
 -->
<!-- Title: %3 Pages: 1 -->
<svg width="726pt" height="154pt"
 viewBox="0.00 0.00 726.39 154.00" xmlns="http://www.w3.org/2000/svg" xmlns:xlink="http://www.w3.org/1999/xlink">
<g id="graph0" class="graph" transform="scale(1 1) rotate(0) translate(4 150)">
<title>%3</title>
<polygon fill="white" stroke="none" points="-4,4 -4,-150 722.385,-150 722.385,4 -4,4"/>
<text text-anchor="middle" x="359.193" y="-7.8" font-family="Times,serif" font-size="14.00">Tree exploration for K=2 arms and M=2 players using Selfish UCB Ubar, for depth=4 : 99 leafs, 4 absorbing</text>
<!-- 0 -->
<g id="node1" class="node"><title>0</title>
<ellipse fill="none" stroke="green" cx="359.193" cy="-128" rx="83.3857" ry="18"/>
<text text-anchor="middle" x="359.193" y="-124.3" font-family="Times,serif" font-size="14.00">[[0/0,0/0], [0/0,0/0]]</text>
</g>
<!-- 38 -->
<g id="node2" class="node"><title>38</title>
<ellipse fill="none" stroke="red" cx="83.1926" cy="-41" rx="83.3857" ry="18"/>
<text text-anchor="middle" x="83.1926" y="-37.3" font-family="Times,serif" font-size="14.00">[[2/2,1/2], [2/2,1/2]]</text>
</g>
<!-- 0&#45;&gt;38 -->
<g id="edge1" class="edge"><title>0&#45;&gt;38</title>
<path fill="none" stroke="black" d="M286.276,-119.176C250.806,-113.934 207.988,-105.447 171.193,-92 151.697,-84.8753 131.457,-73.6799 115.31,-63.6875"/>
<polygon fill="black" stroke="black" points="117.112,-60.6861 106.791,-58.2934 113.367,-66.6002 117.112,-60.6861"/>
<text text-anchor="middle" x="231.193" y="-80.8" font-family="Times,serif" font-size="14.00">µ1^4µ2^2(µ2 &#45; 1)^2/4</text>
</g>
<!-- 58 -->
<g id="node3" class="node"><title>58</title>
<ellipse fill="none" stroke="red" cx="267.193" cy="-41" rx="83.3857" ry="18"/>
<text text-anchor="middle" x="267.193" y="-37.3" font-family="Times,serif" font-size="14.00">[[1/2,2/2], [1/2,2/2]]</text>
</g>
<!-- 0&#45;&gt;58 -->
<g id="edge2" class="edge"><title>0&#45;&gt;58</title>
<path fill="none" stroke="black" d="M333.291,-110.772C325.231,-105.232 316.538,-98.7266 309.193,-92 301.041,-84.5352 293.006,-75.5038 286.182,-67.1819"/>
<polygon fill="black" stroke="black" points="288.773,-64.8171 279.801,-59.1808 283.3,-69.1814 288.773,-64.8171"/>
<text text-anchor="middle" x="369.193" y="-80.8" font-family="Times,serif" font-size="14.00">µ1^2µ2^4(µ1 &#45; 1)^2/4</text>
</g>
<!-- 76 -->
<g id="node4" class="node"><title>76</title>
<ellipse fill="none" stroke="red" cx="451.193" cy="-41" rx="83.3857" ry="18"/>
<text text-anchor="middle" x="451.193" y="-37.3" font-family="Times,serif" font-size="14.00">[[0/1,1/3], [0/1,1/3]]</text>
</g>
<!-- 0&#45;&gt;76 -->
<g id="edge3" class="edge"><title>0&#45;&gt;76</title>
<path fill="none" stroke="black" d="M400.507,-112.21C410.837,-107.033 421.229,-100.365 429.193,-92 435.329,-85.5542 439.923,-77.1152 443.281,-69.0105"/>
<polygon fill="black" stroke="black" points="446.631,-70.0406 446.784,-59.4469 440.058,-67.633 446.631,-70.0406"/>
<text text-anchor="middle" x="485.693" y="-80.8" font-family="Times,serif" font-size="14.00">µ2^2(µ1 &#45; 1)^2/2</text>
</g>
<!-- 90 -->
<g id="node5" class="node"><title>90</title>
<ellipse fill="none" stroke="red" cx="635.193" cy="-41" rx="83.3857" ry="18"/>
<text text-anchor="middle" x="635.193" y="-37.3" font-family="Times,serif" font-size="14.00">[[1/3,0/1], [1/3,0/1]]</text>
</g>
<!-- 0&#45;&gt;90 -->
<g id="edge4" class="edge"><title>0&#45;&gt;90</title>
<path fill="none" stroke="black" d="M427.998,-117.869C461.247,-112.333 501.39,-103.977 536.193,-92 557.999,-84.4956 581.069,-73.0693 599.449,-63.0333"/>
<polygon fill="black" stroke="black" points="601.296,-66.0108 608.334,-58.0912 597.894,-59.8934 601.296,-66.0108"/>
<text text-anchor="middle" x="615.693" y="-80.8" font-family="Times,serif" font-size="14.00">µ1^2(µ2 &#45; 1)^2/2</text>
</g>
</g>
</svg>
