<?xml version="1.0" encoding="UTF-8" standalone="no"?>
<!DOCTYPE svg PUBLIC "-//W3C//DTD SVG 1.1//EN"
 "http://www.w3.org/Graphics/SVG/1.1/DTD/svg11.dtd">
<!-- Generated by graphviz version 2.38.0 (20140413.2041)
 -->
<!-- Title: %3 Pages: 1 -->
<svg width="2198pt" height="415pt"
 viewBox="0.00 0.00 2198.39 415.00" xmlns="http://www.w3.org/2000/svg" xmlns:xlink="http://www.w3.org/1999/xlink">
<g id="graph0" class="graph" transform="scale(1 1) rotate(0) translate(4 411)">
<title>%3</title>
<polygon fill="white" stroke="none" points="-4,4 -4,-411 2194.39,-411 2194.39,4 -4,4"/>
<text text-anchor="middle" x="1095.19" y="-7.8" font-family="Times,serif" font-size="14.00">Tree exploration for K=2 arms and M=2 players using Selfish UCB Ubar, for depth=4 : 99 leafs, 4 absorbing</text>
<!-- 0 -->
<g id="node1" class="node"><title>0</title>
<ellipse fill="none" stroke="green" cx="921.193" cy="-389" rx="83.3857" ry="18"/>
<text text-anchor="middle" x="921.193" y="-385.3" font-family="Times,serif" font-size="14.00">[[0/0,0/0], [0/0,0/0]]</text>
</g>
<!-- 1 -->
<g id="node2" class="node"><title>1</title>
<ellipse fill="none" stroke="black" cx="395.193" cy="-302" rx="83.3857" ry="18"/>
<text text-anchor="middle" x="395.193" y="-298.3" font-family="Times,serif" font-size="14.00">[[1/1,0/0], [0/0,0/1]]</text>
</g>
<!-- 0&#45;&gt;1 -->
<g id="edge1" class="edge"><title>0&#45;&gt;1</title>
<path fill="none" stroke="black" d="M854.808,-378.059C809.3,-371.182 747.56,-361.734 693.193,-353 616.444,-340.671 528.703,-325.863 468.408,-315.576"/>
<polygon fill="black" stroke="black" points="468.673,-312.071 458.227,-313.838 467.495,-318.971 468.673,-312.071"/>
<text text-anchor="middle" x="722.193" y="-341.8" font-family="Times,serif" font-size="14.00">µ1(1&#45;µ2)/4</text>
</g>
<!-- 5 -->
<g id="node3" class="node"><title>5</title>
<ellipse fill="none" stroke="black" cx="623.193" cy="-302" rx="83.3857" ry="18"/>
<text text-anchor="middle" x="623.193" y="-298.3" font-family="Times,serif" font-size="14.00">[[0/1,0/0], [0/0,1/1]]</text>
</g>
<!-- 0&#45;&gt;5 -->
<g id="edge2" class="edge"><title>0&#45;&gt;5</title>
<path fill="none" stroke="black" d="M872.983,-374.249C820.614,-359.311 736.974,-335.454 681.087,-319.514"/>
<polygon fill="black" stroke="black" points="681.91,-316.109 671.333,-316.731 679.99,-322.84 681.91,-316.109"/>
<text text-anchor="middle" x="819.193" y="-341.8" font-family="Times,serif" font-size="14.00">µ2(1&#45;µ1)/4</text>
</g>
<!-- 6 -->
<g id="node4" class="node"><title>6</title>
<ellipse fill="none" stroke="black" cx="829.193" cy="-302" rx="83.3857" ry="18"/>
<text text-anchor="middle" x="829.193" y="-298.3" font-family="Times,serif" font-size="14.00">[[0/0,1/1], [1/1,0/0]]</text>
</g>
<!-- 0&#45;&gt;6 -->
<g id="edge3" class="edge"><title>0&#45;&gt;6</title>
<path fill="none" stroke="black" d="M903.016,-371.207C889.282,-358.517 870.246,-340.93 854.945,-326.793"/>
<polygon fill="black" stroke="black" points="857.051,-323.974 847.331,-319.758 852.301,-329.115 857.051,-323.974"/>
<text text-anchor="middle" x="900.193" y="-341.8" font-family="Times,serif" font-size="14.00">µ1µ2/4</text>
</g>
<!-- 8 -->
<g id="node5" class="node"><title>8</title>
<ellipse fill="none" stroke="black" cx="1015.19" cy="-302" rx="83.3857" ry="18"/>
<text text-anchor="middle" x="1015.19" y="-298.3" font-family="Times,serif" font-size="14.00">[[0/0,0/1], [1/1,0/0]]</text>
</g>
<!-- 0&#45;&gt;8 -->
<g id="edge4" class="edge"><title>0&#45;&gt;8</title>
<path fill="none" stroke="black" d="M939.764,-371.207C953.797,-358.517 973.247,-340.93 988.881,-326.793"/>
<polygon fill="black" stroke="black" points="991.59,-329.062 996.66,-319.758 986.895,-323.869 991.59,-329.062"/>
<text text-anchor="middle" x="1003.19" y="-341.8" font-family="Times,serif" font-size="14.00">µ1(1&#45;µ2)/4</text>
</g>
<!-- 9 -->
<g id="node6" class="node"><title>9</title>
<ellipse fill="none" stroke="black" cx="1287.19" cy="-302" rx="83.3857" ry="18"/>
<text text-anchor="middle" x="1287.19" y="-298.3" font-family="Times,serif" font-size="14.00">[[1/1,0/0], [0/0,1/1]]</text>
</g>
<!-- 0&#45;&gt;9 -->
<g id="edge5" class="edge"><title>0&#45;&gt;9</title>
<path fill="none" stroke="black" d="M975.591,-375.366C1041.55,-360.049 1152.57,-334.266 1222.75,-317.967"/>
<polygon fill="black" stroke="black" points="1223.85,-321.305 1232.79,-315.633 1222.26,-314.486 1223.85,-321.305"/>
<text text-anchor="middle" x="1145.19" y="-341.8" font-family="Times,serif" font-size="14.00">µ1µ2/4</text>
</g>
<!-- 10 -->
<g id="node7" class="node"><title>10</title>
<ellipse fill="none" stroke="black" cx="1549.19" cy="-302" rx="83.3857" ry="18"/>
<text text-anchor="middle" x="1549.19" y="-298.3" font-family="Times,serif" font-size="14.00">[[0/0,1/1], [0/1,0/0]]</text>
</g>
<!-- 0&#45;&gt;10 -->
<g id="edge6" class="edge"><title>0&#45;&gt;10</title>
<path fill="none" stroke="black" d="M989.595,-378.742C1106.94,-362.859 1345.94,-330.51 1470.2,-313.692"/>
<polygon fill="black" stroke="black" points="1470.96,-317.121 1480.4,-312.311 1470.02,-310.184 1470.96,-317.121"/>
<text text-anchor="middle" x="1302.19" y="-341.8" font-family="Times,serif" font-size="14.00">µ2(1&#45;µ1)/4</text>
</g>
<!-- 13 -->
<g id="node8" class="node"><title>13</title>
<ellipse fill="none" stroke="red" cx="285.193" cy="-215" rx="83.3857" ry="18"/>
<text text-anchor="middle" x="285.193" y="-211.3" font-family="Times,serif" font-size="14.00">[[1/1,0/1], [1/1,0/1]]</text>
</g>
<!-- 1&#45;&gt;13 -->
<g id="edge7" class="edge"><title>1&#45;&gt;13</title>
<path fill="none" stroke="black" d="M373.722,-284.409C356.914,-271.421 333.35,-253.213 314.759,-238.847"/>
<polygon fill="black" stroke="black" points="316.662,-235.894 306.609,-232.549 312.381,-241.433 316.662,-235.894"/>
<text text-anchor="middle" x="371.193" y="-254.8" font-family="Times,serif" font-size="14.00">µ1(1&#45;µ2)</text>
</g>
<!-- 26 -->
<g id="node9" class="node"><title>26</title>
<ellipse fill="none" stroke="red" cx="536.193" cy="-215" rx="83.3857" ry="18"/>
<text text-anchor="middle" x="536.193" y="-211.3" font-family="Times,serif" font-size="14.00">[[0/1,1/1], [0/1,1/1]]</text>
</g>
<!-- 5&#45;&gt;26 -->
<g id="edge8" class="edge"><title>5&#45;&gt;26</title>
<path fill="none" stroke="black" d="M606.004,-284.207C593.016,-271.517 575.015,-253.93 560.545,-239.793"/>
<polygon fill="black" stroke="black" points="562.944,-237.243 553.345,-232.758 558.052,-242.25 562.944,-237.243"/>
<text text-anchor="middle" x="609.193" y="-254.8" font-family="Times,serif" font-size="14.00">µ2(1&#45;µ1)</text>
</g>
<!-- 29 -->
<g id="node10" class="node"><title>29</title>
<ellipse fill="none" stroke="black" cx="819.193" cy="-215" rx="83.3857" ry="18"/>
<text text-anchor="middle" x="819.193" y="-211.3" font-family="Times,serif" font-size="14.00">[[1/1,1/1], [1/1,1/1]]</text>
</g>
<!-- 6&#45;&gt;29 -->
<g id="edge9" class="edge"><title>6&#45;&gt;29</title>
<path fill="none" stroke="black" d="M827.169,-283.799C825.8,-272.163 823.963,-256.548 822.397,-243.237"/>
<polygon fill="black" stroke="black" points="825.858,-242.698 821.213,-233.175 818.906,-243.516 825.858,-242.698"/>
<text text-anchor="middle" x="839.193" y="-254.8" font-family="Times,serif" font-size="14.00">µ1µ2</text>
</g>
<!-- 35 -->
<g id="node11" class="node"><title>35</title>
<ellipse fill="none" stroke="red" cx="1046.19" cy="-215" rx="83.3857" ry="18"/>
<text text-anchor="middle" x="1046.19" y="-211.3" font-family="Times,serif" font-size="14.00">[[1/1,0/1], [1/1,0/1]]</text>
</g>
<!-- 8&#45;&gt;35 -->
<g id="edge10" class="edge"><title>8&#45;&gt;35</title>
<path fill="none" stroke="black" d="M1021.47,-283.799C1025.75,-272.047 1031.52,-256.238 1036.4,-242.842"/>
<polygon fill="black" stroke="black" points="1039.79,-243.769 1039.93,-233.175 1033.21,-241.371 1039.79,-243.769"/>
<text text-anchor="middle" x="1057.19" y="-254.8" font-family="Times,serif" font-size="14.00">µ1(1&#45;µ2)</text>
</g>
<!-- 39 -->
<g id="node12" class="node"><title>39</title>
<ellipse fill="none" stroke="black" cx="1555.19" cy="-215" rx="83.3857" ry="18"/>
<text text-anchor="middle" x="1555.19" y="-211.3" font-family="Times,serif" font-size="14.00">[[1/1,1/1], [1/1,1/1]]</text>
</g>
<!-- 9&#45;&gt;39 -->
<g id="edge11" class="edge"><title>9&#45;&gt;39</title>
<path fill="none" stroke="black" d="M1332.05,-286.773C1378.43,-272.063 1450.88,-249.083 1500.57,-233.324"/>
<polygon fill="black" stroke="black" points="1501.72,-236.633 1510.19,-230.274 1499.6,-229.961 1501.72,-236.633"/>
<text text-anchor="middle" x="1452.19" y="-254.8" font-family="Times,serif" font-size="14.00">µ1µ2</text>
</g>
<!-- 43 -->
<g id="node13" class="node"><title>43</title>
<ellipse fill="none" stroke="red" cx="1877.19" cy="-215" rx="83.3857" ry="18"/>
<text text-anchor="middle" x="1877.19" y="-211.3" font-family="Times,serif" font-size="14.00">[[0/1,1/1], [0/1,1/1]]</text>
</g>
<!-- 10&#45;&gt;43 -->
<g id="edge12" class="edge"><title>10&#45;&gt;43</title>
<path fill="none" stroke="black" d="M1600.44,-287.719C1658.73,-272.614 1753.84,-247.967 1815.97,-231.865"/>
<polygon fill="black" stroke="black" points="1817.23,-235.155 1826.03,-229.258 1815.47,-228.378 1817.23,-235.155"/>
<text text-anchor="middle" x="1756.19" y="-254.8" font-family="Times,serif" font-size="14.00">µ2(1&#45;µ1)</text>
</g>
<!-- 60 -->
<g id="node14" class="node"><title>60</title>
<ellipse fill="none" stroke="red" cx="83.1926" cy="-128" rx="83.3857" ry="18"/>
<text text-anchor="middle" x="83.1926" y="-124.3" font-family="Times,serif" font-size="14.00">[[1/2,0/1], [1/2,0/1]]</text>
</g>
<!-- 13&#45;&gt;60 -->
<g id="edge13" class="edge"><title>13&#45;&gt;60</title>
<path fill="none" stroke="red" d="M248.612,-198.607C215.006,-184.466 165.069,-163.453 128.858,-148.216"/>
<polygon fill="red" stroke="red" points="130.076,-144.931 119.501,-144.278 127.361,-151.383 130.076,-144.931"/>
<text text-anchor="middle" x="200.693" y="-167.8" font-family="Times,serif" font-size="14.00">1</text>
</g>
<!-- 139 -->
<g id="node15" class="node"><title>139</title>
<ellipse fill="none" stroke="red" cx="267.193" cy="-128" rx="83.3857" ry="18"/>
<text text-anchor="middle" x="267.193" y="-124.3" font-family="Times,serif" font-size="14.00">[[0/1,1/2], [0/1,1/2]]</text>
</g>
<!-- 26&#45;&gt;139 -->
<g id="edge14" class="edge"><title>26&#45;&gt;139</title>
<path fill="none" stroke="red" d="M491.168,-199.773C444.616,-185.063 371.891,-162.083 322.019,-146.324"/>
<polygon fill="red" stroke="red" points="322.954,-142.949 312.364,-143.274 320.845,-149.624 322.954,-142.949"/>
<text text-anchor="middle" x="421.693" y="-167.8" font-family="Times,serif" font-size="14.00">1</text>
</g>
<!-- 150 -->
<g id="node16" class="node"><title>150</title>
<ellipse fill="none" stroke="black" cx="451.193" cy="-128" rx="83.3857" ry="18"/>
<text text-anchor="middle" x="451.193" y="-124.3" font-family="Times,serif" font-size="14.00">[[1/1,1/2], [2/2,1/1]]</text>
</g>
<!-- 29&#45;&gt;150 -->
<g id="edge15" class="edge"><title>29&#45;&gt;150</title>
<path fill="none" stroke="black" d="M760.674,-202.069C729.084,-195.507 689.444,-187.078 654.193,-179 606.574,-168.088 552.914,-154.829 512.728,-144.708"/>
<polygon fill="black" stroke="black" points="513.365,-141.259 502.813,-142.205 511.652,-148.046 513.365,-141.259"/>
<text text-anchor="middle" x="683.193" y="-167.8" font-family="Times,serif" font-size="14.00">µ1(1&#45;µ2)/4</text>
</g>
<!-- 153 -->
<g id="node17" class="node"><title>153</title>
<ellipse fill="none" stroke="black" cx="635.193" cy="-128" rx="83.3857" ry="18"/>
<text text-anchor="middle" x="635.193" y="-124.3" font-family="Times,serif" font-size="14.00">[[1/2,1/1], [1/1,2/2]]</text>
</g>
<!-- 29&#45;&gt;153 -->
<g id="edge16" class="edge"><title>29&#45;&gt;153</title>
<path fill="none" stroke="black" d="M785.444,-198.41C755.227,-184.451 710.769,-163.913 678.049,-148.798"/>
<polygon fill="black" stroke="black" points="679.273,-145.508 668.727,-144.491 676.337,-151.863 679.273,-145.508"/>
<text text-anchor="middle" x="768.193" y="-167.8" font-family="Times,serif" font-size="14.00">µ2(1&#45;µ1)/4</text>
</g>
<!-- 154 -->
<g id="node18" class="node"><title>154</title>
<ellipse fill="none" stroke="black" cx="819.193" cy="-128" rx="83.3857" ry="18"/>
<text text-anchor="middle" x="819.193" y="-124.3" font-family="Times,serif" font-size="14.00">[[1/1,2/2], [1/2,1/1]]</text>
</g>
<!-- 29&#45;&gt;154 -->
<g id="edge17" class="edge"><title>29&#45;&gt;154</title>
<path fill="none" stroke="black" d="M819.193,-196.799C819.193,-185.163 819.193,-169.548 819.193,-156.237"/>
<polygon fill="black" stroke="black" points="822.693,-156.175 819.193,-146.175 815.693,-156.175 822.693,-156.175"/>
<text text-anchor="middle" x="848.193" y="-167.8" font-family="Times,serif" font-size="14.00">µ2(1&#45;µ1)/4</text>
</g>
<!-- 155 -->
<g id="node19" class="node"><title>155</title>
<ellipse fill="none" stroke="black" cx="1003.19" cy="-128" rx="83.3857" ry="18"/>
<text text-anchor="middle" x="1003.19" y="-124.3" font-family="Times,serif" font-size="14.00">[[2/2,1/1], [1/1,1/2]]</text>
</g>
<!-- 29&#45;&gt;155 -->
<g id="edge18" class="edge"><title>29&#45;&gt;155</title>
<path fill="none" stroke="black" d="M852.941,-198.41C883.158,-184.451 927.617,-163.913 960.337,-148.798"/>
<polygon fill="black" stroke="black" points="962.048,-151.863 969.658,-144.491 959.112,-145.508 962.048,-151.863"/>
<text text-anchor="middle" x="952.193" y="-167.8" font-family="Times,serif" font-size="14.00">µ1(1&#45;µ2)/4</text>
</g>
<!-- 194 -->
<g id="node20" class="node"><title>194</title>
<ellipse fill="none" stroke="red" cx="1187.19" cy="-128" rx="83.3857" ry="18"/>
<text text-anchor="middle" x="1187.19" y="-124.3" font-family="Times,serif" font-size="14.00">[[1/2,0/1], [1/2,0/1]]</text>
</g>
<!-- 35&#45;&gt;194 -->
<g id="edge19" class="edge"><title>35&#45;&gt;194</title>
<path fill="none" stroke="red" d="M1073.05,-197.812C1095.39,-184.342 1127.38,-165.057 1151.81,-150.329"/>
<polygon fill="red" stroke="red" points="1153.68,-153.288 1160.44,-145.128 1150.07,-147.293 1153.68,-153.288"/>
<text text-anchor="middle" x="1128.69" y="-167.8" font-family="Times,serif" font-size="14.00">1</text>
</g>
<!-- 209 -->
<g id="node21" class="node"><title>209</title>
<ellipse fill="none" stroke="black" cx="1371.19" cy="-128" rx="83.3857" ry="18"/>
<text text-anchor="middle" x="1371.19" y="-124.3" font-family="Times,serif" font-size="14.00">[[1/1,1/2], [2/2,1/1]]</text>
</g>
<!-- 39&#45;&gt;209 -->
<g id="edge20" class="edge"><title>39&#45;&gt;209</title>
<path fill="none" stroke="black" d="M1521.44,-198.41C1491.23,-184.451 1446.77,-163.913 1414.05,-148.798"/>
<polygon fill="black" stroke="black" points="1415.27,-145.508 1404.73,-144.491 1412.34,-151.863 1415.27,-145.508"/>
<text text-anchor="middle" x="1503.19" y="-167.8" font-family="Times,serif" font-size="14.00">µ1(1&#45;µ2)/4</text>
</g>
<!-- 212 -->
<g id="node22" class="node"><title>212</title>
<ellipse fill="none" stroke="black" cx="1555.19" cy="-128" rx="83.3857" ry="18"/>
<text text-anchor="middle" x="1555.19" y="-124.3" font-family="Times,serif" font-size="14.00">[[1/2,1/1], [1/1,2/2]]</text>
</g>
<!-- 39&#45;&gt;212 -->
<g id="edge21" class="edge"><title>39&#45;&gt;212</title>
<path fill="none" stroke="black" d="M1555.19,-196.799C1555.19,-185.163 1555.19,-169.548 1555.19,-156.237"/>
<polygon fill="black" stroke="black" points="1558.69,-156.175 1555.19,-146.175 1551.69,-156.175 1558.69,-156.175"/>
<text text-anchor="middle" x="1584.19" y="-167.8" font-family="Times,serif" font-size="14.00">µ2(1&#45;µ1)/4</text>
</g>
<!-- 213 -->
<g id="node23" class="node"><title>213</title>
<ellipse fill="none" stroke="black" cx="1739.19" cy="-128" rx="83.3857" ry="18"/>
<text text-anchor="middle" x="1739.19" y="-124.3" font-family="Times,serif" font-size="14.00">[[1/1,2/2], [1/2,1/1]]</text>
</g>
<!-- 39&#45;&gt;213 -->
<g id="edge22" class="edge"><title>39&#45;&gt;213</title>
<path fill="none" stroke="black" d="M1588.94,-198.41C1619.16,-184.451 1663.62,-163.913 1696.34,-148.798"/>
<polygon fill="black" stroke="black" points="1698.05,-151.863 1705.66,-144.491 1695.11,-145.508 1698.05,-151.863"/>
<text text-anchor="middle" x="1687.19" y="-167.8" font-family="Times,serif" font-size="14.00">µ2(1&#45;µ1)/4</text>
</g>
<!-- 214 -->
<g id="node24" class="node"><title>214</title>
<ellipse fill="none" stroke="black" cx="1923.19" cy="-128" rx="83.3857" ry="18"/>
<text text-anchor="middle" x="1923.19" y="-124.3" font-family="Times,serif" font-size="14.00">[[2/2,1/1], [1/1,1/2]]</text>
</g>
<!-- 39&#45;&gt;214 -->
<g id="edge23" class="edge"><title>39&#45;&gt;214</title>
<path fill="none" stroke="black" d="M1613.71,-202.069C1645.3,-195.507 1684.94,-187.078 1720.19,-179 1767.81,-168.088 1821.47,-154.829 1861.66,-144.708"/>
<polygon fill="black" stroke="black" points="1862.73,-148.046 1871.57,-142.205 1861.02,-141.259 1862.73,-148.046"/>
<text text-anchor="middle" x="1810.19" y="-167.8" font-family="Times,serif" font-size="14.00">µ1(1&#45;µ2)/4</text>
</g>
<!-- 239 -->
<g id="node25" class="node"><title>239</title>
<ellipse fill="none" stroke="red" cx="2107.19" cy="-128" rx="83.3857" ry="18"/>
<text text-anchor="middle" x="2107.19" y="-124.3" font-family="Times,serif" font-size="14.00">[[0/1,1/2], [0/1,1/2]]</text>
</g>
<!-- 43&#45;&gt;239 -->
<g id="edge24" class="edge"><title>43&#45;&gt;239</title>
<path fill="none" stroke="red" d="M1917.26,-199.194C1956.18,-184.809 2015.39,-162.925 2057.35,-147.422"/>
<polygon fill="red" stroke="red" points="2058.65,-150.671 2066.82,-143.921 2056.22,-144.105 2058.65,-150.671"/>
<text text-anchor="middle" x="2008.69" y="-167.8" font-family="Times,serif" font-size="14.00">1</text>
</g>
<!-- 275 -->
<g id="node26" class="node"><title>275</title>
<ellipse fill="none" stroke="red" cx="83.1926" cy="-41" rx="83.3857" ry="18"/>
<text text-anchor="middle" x="83.1926" y="-37.3" font-family="Times,serif" font-size="14.00">[[1/3,0/1], [1/3,0/1]]</text>
</g>
<!-- 60&#45;&gt;275 -->
<g id="edge25" class="edge"><title>60&#45;&gt;275</title>
<path fill="none" stroke="red" d="M83.1926,-109.799C83.1926,-98.1626 83.1926,-82.5479 83.1926,-69.2368"/>
<polygon fill="red" stroke="red" points="86.6927,-69.1754 83.1926,-59.1754 79.6927,-69.1755 86.6927,-69.1754"/>
<text text-anchor="middle" x="86.6926" y="-80.8" font-family="Times,serif" font-size="14.00">1</text>
</g>
<!-- 480 -->
<g id="node27" class="node"><title>480</title>
<ellipse fill="none" stroke="red" cx="267.193" cy="-41" rx="83.3857" ry="18"/>
<text text-anchor="middle" x="267.193" y="-37.3" font-family="Times,serif" font-size="14.00">[[0/1,1/3], [0/1,1/3]]</text>
</g>
<!-- 139&#45;&gt;480 -->
<g id="edge26" class="edge"><title>139&#45;&gt;480</title>
<path fill="none" stroke="red" d="M267.193,-109.799C267.193,-98.1626 267.193,-82.5479 267.193,-69.2368"/>
<polygon fill="red" stroke="red" points="270.693,-69.1754 267.193,-59.1754 263.693,-69.1755 270.693,-69.1754"/>
<text text-anchor="middle" x="270.693" y="-80.8" font-family="Times,serif" font-size="14.00">1</text>
</g>
<!-- 498 -->
<g id="node28" class="node"><title>498</title>
<ellipse fill="none" stroke="red" cx="451.193" cy="-41" rx="83.3857" ry="18"/>
<text text-anchor="middle" x="451.193" y="-37.3" font-family="Times,serif" font-size="14.00">[[2/2,1/2], [2/2,1/2]]</text>
</g>
<!-- 150&#45;&gt;498 -->
<g id="edge27" class="edge"><title>150&#45;&gt;498</title>
<path fill="none" stroke="black" d="M451.193,-109.799C451.193,-98.1626 451.193,-82.5479 451.193,-69.2368"/>
<polygon fill="black" stroke="black" points="454.693,-69.1754 451.193,-59.1754 447.693,-69.1755 454.693,-69.1754"/>
<text text-anchor="middle" x="475.193" y="-80.8" font-family="Times,serif" font-size="14.00">µ1(1&#45;µ2)</text>
</g>
<!-- 508 -->
<g id="node29" class="node"><title>508</title>
<ellipse fill="none" stroke="red" cx="635.193" cy="-41" rx="83.3857" ry="18"/>
<text text-anchor="middle" x="635.193" y="-37.3" font-family="Times,serif" font-size="14.00">[[1/2,2/2], [1/2,2/2]]</text>
</g>
<!-- 153&#45;&gt;508 -->
<g id="edge28" class="edge"><title>153&#45;&gt;508</title>
<path fill="none" stroke="black" d="M635.193,-109.799C635.193,-98.1626 635.193,-82.5479 635.193,-69.2368"/>
<polygon fill="black" stroke="black" points="638.693,-69.1754 635.193,-59.1754 631.693,-69.1755 638.693,-69.1754"/>
<text text-anchor="middle" x="659.193" y="-80.8" font-family="Times,serif" font-size="14.00">µ2(1&#45;µ1)</text>
</g>
<!-- 511 -->
<g id="node30" class="node"><title>511</title>
<ellipse fill="none" stroke="red" cx="819.193" cy="-41" rx="83.3857" ry="18"/>
<text text-anchor="middle" x="819.193" y="-37.3" font-family="Times,serif" font-size="14.00">[[1/2,2/2], [1/2,2/2]]</text>
</g>
<!-- 154&#45;&gt;511 -->
<g id="edge29" class="edge"><title>154&#45;&gt;511</title>
<path fill="none" stroke="black" d="M819.193,-109.799C819.193,-98.1626 819.193,-82.5479 819.193,-69.2368"/>
<polygon fill="black" stroke="black" points="822.693,-69.1754 819.193,-59.1754 815.693,-69.1755 822.693,-69.1754"/>
<text text-anchor="middle" x="843.193" y="-80.8" font-family="Times,serif" font-size="14.00">µ2(1&#45;µ1)</text>
</g>
<!-- 517 -->
<g id="node31" class="node"><title>517</title>
<ellipse fill="none" stroke="red" cx="1003.19" cy="-41" rx="83.3857" ry="18"/>
<text text-anchor="middle" x="1003.19" y="-37.3" font-family="Times,serif" font-size="14.00">[[2/2,1/2], [2/2,1/2]]</text>
</g>
<!-- 155&#45;&gt;517 -->
<g id="edge30" class="edge"><title>155&#45;&gt;517</title>
<path fill="none" stroke="black" d="M1003.19,-109.799C1003.19,-98.1626 1003.19,-82.5479 1003.19,-69.2368"/>
<polygon fill="black" stroke="black" points="1006.69,-69.1754 1003.19,-59.1754 999.693,-69.1755 1006.69,-69.1754"/>
<text text-anchor="middle" x="1027.19" y="-80.8" font-family="Times,serif" font-size="14.00">µ1(1&#45;µ2)</text>
</g>
<!-- 607 -->
<g id="node32" class="node"><title>607</title>
<ellipse fill="none" stroke="red" cx="1187.19" cy="-41" rx="83.3857" ry="18"/>
<text text-anchor="middle" x="1187.19" y="-37.3" font-family="Times,serif" font-size="14.00">[[1/3,0/1], [1/3,0/1]]</text>
</g>
<!-- 194&#45;&gt;607 -->
<g id="edge31" class="edge"><title>194&#45;&gt;607</title>
<path fill="none" stroke="red" d="M1187.19,-109.799C1187.19,-98.1626 1187.19,-82.5479 1187.19,-69.2368"/>
<polygon fill="red" stroke="red" points="1190.69,-69.1754 1187.19,-59.1754 1183.69,-69.1755 1190.69,-69.1754"/>
<text text-anchor="middle" x="1190.69" y="-80.8" font-family="Times,serif" font-size="14.00">1</text>
</g>
<!-- 647 -->
<g id="node33" class="node"><title>647</title>
<ellipse fill="none" stroke="red" cx="1371.19" cy="-41" rx="83.3857" ry="18"/>
<text text-anchor="middle" x="1371.19" y="-37.3" font-family="Times,serif" font-size="14.00">[[2/2,1/2], [2/2,1/2]]</text>
</g>
<!-- 209&#45;&gt;647 -->
<g id="edge32" class="edge"><title>209&#45;&gt;647</title>
<path fill="none" stroke="black" d="M1371.19,-109.799C1371.19,-98.1626 1371.19,-82.5479 1371.19,-69.2368"/>
<polygon fill="black" stroke="black" points="1374.69,-69.1754 1371.19,-59.1754 1367.69,-69.1755 1374.69,-69.1754"/>
<text text-anchor="middle" x="1395.19" y="-80.8" font-family="Times,serif" font-size="14.00">µ1(1&#45;µ2)</text>
</g>
<!-- 657 -->
<g id="node34" class="node"><title>657</title>
<ellipse fill="none" stroke="red" cx="1555.19" cy="-41" rx="83.3857" ry="18"/>
<text text-anchor="middle" x="1555.19" y="-37.3" font-family="Times,serif" font-size="14.00">[[1/2,2/2], [1/2,2/2]]</text>
</g>
<!-- 212&#45;&gt;657 -->
<g id="edge33" class="edge"><title>212&#45;&gt;657</title>
<path fill="none" stroke="black" d="M1555.19,-109.799C1555.19,-98.1626 1555.19,-82.5479 1555.19,-69.2368"/>
<polygon fill="black" stroke="black" points="1558.69,-69.1754 1555.19,-59.1754 1551.69,-69.1755 1558.69,-69.1754"/>
<text text-anchor="middle" x="1579.19" y="-80.8" font-family="Times,serif" font-size="14.00">µ2(1&#45;µ1)</text>
</g>
<!-- 660 -->
<g id="node35" class="node"><title>660</title>
<ellipse fill="none" stroke="red" cx="1739.19" cy="-41" rx="83.3857" ry="18"/>
<text text-anchor="middle" x="1739.19" y="-37.3" font-family="Times,serif" font-size="14.00">[[1/2,2/2], [1/2,2/2]]</text>
</g>
<!-- 213&#45;&gt;660 -->
<g id="edge34" class="edge"><title>213&#45;&gt;660</title>
<path fill="none" stroke="black" d="M1739.19,-109.799C1739.19,-98.1626 1739.19,-82.5479 1739.19,-69.2368"/>
<polygon fill="black" stroke="black" points="1742.69,-69.1754 1739.19,-59.1754 1735.69,-69.1755 1742.69,-69.1754"/>
<text text-anchor="middle" x="1763.19" y="-80.8" font-family="Times,serif" font-size="14.00">µ2(1&#45;µ1)</text>
</g>
<!-- 666 -->
<g id="node36" class="node"><title>666</title>
<ellipse fill="none" stroke="red" cx="1923.19" cy="-41" rx="83.3857" ry="18"/>
<text text-anchor="middle" x="1923.19" y="-37.3" font-family="Times,serif" font-size="14.00">[[2/2,1/2], [2/2,1/2]]</text>
</g>
<!-- 214&#45;&gt;666 -->
<g id="edge35" class="edge"><title>214&#45;&gt;666</title>
<path fill="none" stroke="black" d="M1923.19,-109.799C1923.19,-98.1626 1923.19,-82.5479 1923.19,-69.2368"/>
<polygon fill="black" stroke="black" points="1926.69,-69.1754 1923.19,-59.1754 1919.69,-69.1755 1926.69,-69.1754"/>
<text text-anchor="middle" x="1947.19" y="-80.8" font-family="Times,serif" font-size="14.00">µ1(1&#45;µ2)</text>
</g>
<!-- 724 -->
<g id="node37" class="node"><title>724</title>
<ellipse fill="none" stroke="red" cx="2107.19" cy="-41" rx="83.3857" ry="18"/>
<text text-anchor="middle" x="2107.19" y="-37.3" font-family="Times,serif" font-size="14.00">[[0/1,1/3], [0/1,1/3]]</text>
</g>
<!-- 239&#45;&gt;724 -->
<g id="edge36" class="edge"><title>239&#45;&gt;724</title>
<path fill="none" stroke="red" d="M2107.19,-109.799C2107.19,-98.1626 2107.19,-82.5479 2107.19,-69.2368"/>
<polygon fill="red" stroke="red" points="2110.69,-69.1754 2107.19,-59.1754 2103.69,-69.1755 2110.69,-69.1754"/>
<text text-anchor="middle" x="2110.69" y="-80.8" font-family="Times,serif" font-size="14.00">1</text>
</g>
</g>
</svg>
