<?xml version="1.0" encoding="UTF-8" standalone="no"?>
<!DOCTYPE svg PUBLIC "-//W3C//DTD SVG 1.1//EN"
 "http://www.w3.org/Graphics/SVG/1.1/DTD/svg11.dtd">
<!-- Generated by graphviz version 2.38.0 (20140413.2041)
 -->
<!-- Title: %3 Pages: 1 -->
<svg width="726pt" height="328pt"
 viewBox="0.00 0.00 726.39 328.00" xmlns="http://www.w3.org/2000/svg" xmlns:xlink="http://www.w3.org/1999/xlink">
<g id="graph0" class="graph" transform="scale(1 1) rotate(0) translate(4 324)">
<title>%3</title>
<polygon fill="white" stroke="none" points="-4,4 -4,-324 722.385,-324 722.385,4 -4,4"/>
<text text-anchor="middle" x="359.193" y="-7.8" font-family="Times,serif" font-size="14.00">Tree exploration for K=2 arms and M=2 players using Selfish_UCB_Ubar, for depth=3 : 68 leafs, 2 absorbing</text>
<!-- 0 -->
<g id="node1" class="node"><title>0</title>
<ellipse fill="none" stroke="green" cx="359.193" cy="-302" rx="83.3857" ry="18"/>
<text text-anchor="middle" x="359.193" y="-298.3" font-family="Times,serif" font-size="14.00">[[0/0,0/0], [0/0,0/0]]</text>
</g>
<!-- 1 -->
<g id="node2" class="node"><title>1</title>
<ellipse fill="none" stroke="black" cx="83.1926" cy="-215" rx="83.3857" ry="18"/>
<text text-anchor="middle" x="83.1926" y="-211.3" font-family="Times,serif" font-size="14.00">[[1/1,0/0], [0/0,0/1]]</text>
</g>
<!-- 0&#45;&gt;1 -->
<g id="edge1" class="edge"><title>0&#45;&gt;1</title>
<path fill="none" stroke="black" d="M313.307,-286.869C265.354,-272.1 190.091,-248.922 138.794,-233.124"/>
<polygon fill="black" stroke="black" points="139.775,-229.764 129.188,-230.165 137.715,-236.454 139.775,-229.764"/>
<text text-anchor="middle" x="267.193" y="-254.8" font-family="Times,serif" font-size="14.00">µ1(1&#45;µ2)/4</text>
</g>
<!-- 5 -->
<g id="node3" class="node"><title>5</title>
<ellipse fill="none" stroke="black" cx="267.193" cy="-215" rx="83.3857" ry="18"/>
<text text-anchor="middle" x="267.193" y="-211.3" font-family="Times,serif" font-size="14.00">[[0/1,0/0], [0/0,1/1]]</text>
</g>
<!-- 0&#45;&gt;5 -->
<g id="edge2" class="edge"><title>0&#45;&gt;5</title>
<path fill="none" stroke="black" d="M341.016,-284.207C327.282,-271.517 308.246,-253.93 292.945,-239.793"/>
<polygon fill="black" stroke="black" points="295.051,-236.974 285.331,-232.758 290.301,-242.115 295.051,-236.974"/>
<text text-anchor="middle" x="348.193" y="-254.8" font-family="Times,serif" font-size="14.00">µ2(1&#45;µ1)/4</text>
</g>
<!-- 8 -->
<g id="node4" class="node"><title>8</title>
<ellipse fill="none" stroke="black" cx="451.193" cy="-215" rx="83.3857" ry="18"/>
<text text-anchor="middle" x="451.193" y="-211.3" font-family="Times,serif" font-size="14.00">[[0/0,0/1], [1/1,0/0]]</text>
</g>
<!-- 0&#45;&gt;8 -->
<g id="edge3" class="edge"><title>0&#45;&gt;8</title>
<path fill="none" stroke="black" d="M377.369,-284.207C391.104,-271.517 410.139,-253.93 425.441,-239.793"/>
<polygon fill="black" stroke="black" points="428.084,-242.115 433.054,-232.758 423.334,-236.974 428.084,-242.115"/>
<text text-anchor="middle" x="440.193" y="-254.8" font-family="Times,serif" font-size="14.00">µ1(1&#45;µ2)/4</text>
</g>
<!-- 10 -->
<g id="node5" class="node"><title>10</title>
<ellipse fill="none" stroke="black" cx="635.193" cy="-215" rx="83.3857" ry="18"/>
<text text-anchor="middle" x="635.193" y="-211.3" font-family="Times,serif" font-size="14.00">[[0/0,1/1], [0/1,0/0]]</text>
</g>
<!-- 0&#45;&gt;10 -->
<g id="edge4" class="edge"><title>0&#45;&gt;10</title>
<path fill="none" stroke="black" d="M404.961,-286.965C425.781,-280.576 450.734,-272.913 473.193,-266 508.604,-255.099 548.359,-242.83 579.624,-233.173"/>
<polygon fill="black" stroke="black" points="580.939,-236.43 589.461,-230.135 578.873,-229.742 580.939,-236.43"/>
<text text-anchor="middle" x="547.193" y="-254.8" font-family="Times,serif" font-size="14.00">µ2(1&#45;µ1)/4</text>
</g>
<!-- 13 -->
<g id="node6" class="node"><title>13</title>
<ellipse fill="none" stroke="red" cx="83.1926" cy="-128" rx="83.3857" ry="18"/>
<text text-anchor="middle" x="83.1926" y="-124.3" font-family="Times,serif" font-size="14.00">[[1/1,0/1], [1/1,0/1]]</text>
</g>
<!-- 1&#45;&gt;13 -->
<g id="edge5" class="edge"><title>1&#45;&gt;13</title>
<path fill="none" stroke="black" d="M83.1926,-196.799C83.1926,-185.163 83.1926,-169.548 83.1926,-156.237"/>
<polygon fill="black" stroke="black" points="86.6927,-156.175 83.1926,-146.175 79.6927,-156.175 86.6927,-156.175"/>
<text text-anchor="middle" x="107.193" y="-167.8" font-family="Times,serif" font-size="14.00">µ1(1&#45;µ2)</text>
</g>
<!-- 26 -->
<g id="node7" class="node"><title>26</title>
<ellipse fill="none" stroke="red" cx="267.193" cy="-128" rx="83.3857" ry="18"/>
<text text-anchor="middle" x="267.193" y="-124.3" font-family="Times,serif" font-size="14.00">[[0/1,1/1], [0/1,1/1]]</text>
</g>
<!-- 5&#45;&gt;26 -->
<g id="edge6" class="edge"><title>5&#45;&gt;26</title>
<path fill="none" stroke="black" d="M267.193,-196.799C267.193,-185.163 267.193,-169.548 267.193,-156.237"/>
<polygon fill="black" stroke="black" points="270.693,-156.175 267.193,-146.175 263.693,-156.175 270.693,-156.175"/>
<text text-anchor="middle" x="291.193" y="-167.8" font-family="Times,serif" font-size="14.00">µ2(1&#45;µ1)</text>
</g>
<!-- 35 -->
<g id="node8" class="node"><title>35</title>
<ellipse fill="none" stroke="red" cx="451.193" cy="-128" rx="83.3857" ry="18"/>
<text text-anchor="middle" x="451.193" y="-124.3" font-family="Times,serif" font-size="14.00">[[1/1,0/1], [1/1,0/1]]</text>
</g>
<!-- 8&#45;&gt;35 -->
<g id="edge7" class="edge"><title>8&#45;&gt;35</title>
<path fill="none" stroke="black" d="M451.193,-196.799C451.193,-185.163 451.193,-169.548 451.193,-156.237"/>
<polygon fill="black" stroke="black" points="454.693,-156.175 451.193,-146.175 447.693,-156.175 454.693,-156.175"/>
<text text-anchor="middle" x="475.193" y="-167.8" font-family="Times,serif" font-size="14.00">µ1(1&#45;µ2)</text>
</g>
<!-- 43 -->
<g id="node9" class="node"><title>43</title>
<ellipse fill="none" stroke="red" cx="635.193" cy="-128" rx="83.3857" ry="18"/>
<text text-anchor="middle" x="635.193" y="-124.3" font-family="Times,serif" font-size="14.00">[[0/1,1/1], [0/1,1/1]]</text>
</g>
<!-- 10&#45;&gt;43 -->
<g id="edge8" class="edge"><title>10&#45;&gt;43</title>
<path fill="none" stroke="black" d="M635.193,-196.799C635.193,-185.163 635.193,-169.548 635.193,-156.237"/>
<polygon fill="black" stroke="black" points="638.693,-156.175 635.193,-146.175 631.693,-156.175 638.693,-156.175"/>
<text text-anchor="middle" x="659.193" y="-167.8" font-family="Times,serif" font-size="14.00">µ2(1&#45;µ1)</text>
</g>
<!-- 60 -->
<g id="node10" class="node"><title>60</title>
<ellipse fill="none" stroke="red" cx="83.1926" cy="-41" rx="83.3857" ry="18"/>
<text text-anchor="middle" x="83.1926" y="-37.3" font-family="Times,serif" font-size="14.00">[[1/2,0/1], [1/2,0/1]]</text>
</g>
<!-- 13&#45;&gt;60 -->
<g id="edge9" class="edge"><title>13&#45;&gt;60</title>
<path fill="none" stroke="red" d="M83.1926,-109.799C83.1926,-98.1626 83.1926,-82.5479 83.1926,-69.2368"/>
<polygon fill="red" stroke="red" points="86.6927,-69.1754 83.1926,-59.1754 79.6927,-69.1755 86.6927,-69.1754"/>
<text text-anchor="middle" x="86.6926" y="-80.8" font-family="Times,serif" font-size="14.00">1</text>
</g>
<!-- 139 -->
<g id="node11" class="node"><title>139</title>
<ellipse fill="none" stroke="red" cx="267.193" cy="-41" rx="83.3857" ry="18"/>
<text text-anchor="middle" x="267.193" y="-37.3" font-family="Times,serif" font-size="14.00">[[0/1,1/2], [0/1,1/2]]</text>
</g>
<!-- 26&#45;&gt;139 -->
<g id="edge10" class="edge"><title>26&#45;&gt;139</title>
<path fill="none" stroke="red" d="M267.193,-109.799C267.193,-98.1626 267.193,-82.5479 267.193,-69.2368"/>
<polygon fill="red" stroke="red" points="270.693,-69.1754 267.193,-59.1754 263.693,-69.1755 270.693,-69.1754"/>
<text text-anchor="middle" x="270.693" y="-80.8" font-family="Times,serif" font-size="14.00">1</text>
</g>
<!-- 194 -->
<g id="node12" class="node"><title>194</title>
<ellipse fill="none" stroke="red" cx="451.193" cy="-41" rx="83.3857" ry="18"/>
<text text-anchor="middle" x="451.193" y="-37.3" font-family="Times,serif" font-size="14.00">[[1/2,0/1], [1/2,0/1]]</text>
</g>
<!-- 35&#45;&gt;194 -->
<g id="edge11" class="edge"><title>35&#45;&gt;194</title>
<path fill="none" stroke="red" d="M451.193,-109.799C451.193,-98.1626 451.193,-82.5479 451.193,-69.2368"/>
<polygon fill="red" stroke="red" points="454.693,-69.1754 451.193,-59.1754 447.693,-69.1755 454.693,-69.1754"/>
<text text-anchor="middle" x="454.693" y="-80.8" font-family="Times,serif" font-size="14.00">1</text>
</g>
<!-- 239 -->
<g id="node13" class="node"><title>239</title>
<ellipse fill="none" stroke="red" cx="635.193" cy="-41" rx="83.3857" ry="18"/>
<text text-anchor="middle" x="635.193" y="-37.3" font-family="Times,serif" font-size="14.00">[[0/1,1/2], [0/1,1/2]]</text>
</g>
<!-- 43&#45;&gt;239 -->
<g id="edge12" class="edge"><title>43&#45;&gt;239</title>
<path fill="none" stroke="red" d="M635.193,-109.799C635.193,-98.1626 635.193,-82.5479 635.193,-69.2368"/>
<polygon fill="red" stroke="red" points="638.693,-69.1754 635.193,-59.1754 631.693,-69.1755 638.693,-69.1754"/>
<text text-anchor="middle" x="638.693" y="-80.8" font-family="Times,serif" font-size="14.00">1</text>
</g>
</g>
</svg>
