<?xml version="1.0" encoding="UTF-8" standalone="no"?>
<!DOCTYPE svg PUBLIC "-//W3C//DTD SVG 1.1//EN"
 "http://www.w3.org/Graphics/SVG/1.1/DTD/svg11.dtd">
<!-- Generated by graphviz version 2.38.0 (20140413.2041)
 -->
<!-- Title: %3 Pages: 1 -->
<svg width="1431pt" height="154pt"
 viewBox="0.00 0.00 1431.19 154.00" xmlns="http://www.w3.org/2000/svg" xmlns:xlink="http://www.w3.org/1999/xlink">
<g id="graph0" class="graph" transform="scale(1 1) rotate(0) translate(4 150)">
<title>%3</title>
<polygon fill="white" stroke="none" points="-4,4 -4,-150 1427.19,-150 1427.19,4 -4,4"/>
<text text-anchor="middle" x="711.596" y="-7.8" font-family="Times,serif" font-size="14.00">Tree exploration for K=2 arms and M=2 players using Selfish UCB Ubar, for depth=5 : 248 leafs, 4 absorbing</text>
<!-- 0 -->
<g id="node1" class="node"><title>0</title>
<ellipse fill="none" stroke="green" cx="530.193" cy="-128" rx="83.3857" ry="18"/>
<text text-anchor="middle" x="530.193" y="-124.3" font-family="Times,serif" font-size="14.00">[[0/0,0/0], [0/0,0/0]]</text>
</g>
<!-- 62 -->
<g id="node2" class="node"><title>62</title>
<ellipse fill="none" stroke="red" cx="83.1926" cy="-41" rx="83.3857" ry="18"/>
<text text-anchor="middle" x="83.1926" y="-37.3" font-family="Times,serif" font-size="14.00">[[1/2,2/3], [1/2,2/3]]</text>
</g>
<!-- 0&#45;&gt;62 -->
<g id="edge1" class="edge"><title>0&#45;&gt;62</title>
<path fill="none" stroke="black" d="M447.367,-125.76C349.081,-123.225 191.768,-115.504 138.193,-92 125.138,-86.2728 113.109,-76.1779 103.651,-66.5514"/>
<polygon fill="black" stroke="black" points="106.021,-63.9604 96.646,-59.0238 100.896,-68.7289 106.021,-63.9604"/>
<text text-anchor="middle" x="198.193" y="-80.8" font-family="Times,serif" font-size="14.00">µ1^2µ2^4(µ1 &#45; 1)^2/4</text>
</g>
<!-- 172 -->
<g id="node3" class="node"><title>172</title>
<ellipse fill="none" stroke="red" cx="267.193" cy="-41" rx="83.3857" ry="18"/>
<text text-anchor="middle" x="267.193" y="-37.3" font-family="Times,serif" font-size="14.00">[[0/2,1/3], [0/2,1/3]]</text>
</g>
<!-- 0&#45;&gt;172 -->
<g id="edge2" class="edge"><title>0&#45;&gt;172</title>
<path fill="none" stroke="black" d="M446.773,-127.235C379.145,-125.449 291.386,-117.97 268.193,-92 262.744,-85.8987 261.17,-77.5158 261.357,-69.3571"/>
<polygon fill="black" stroke="black" points="264.847,-69.6342 262.377,-59.3313 257.883,-68.9257 264.847,-69.6342"/>
<text text-anchor="middle" x="519.693" y="-80.8" font-family="Times,serif" font-size="14.00">5µ2^2(µ1 &#45; 1)^2(µ1^2µ2^2 &#45; 2µ1^2µ2 + µ1^2 &#45; 2µ1µ2^2 + 4µ1µ2 &#45; 2µ1 + µ2^2 &#45; 2µ2 + 2)/8</text>
</g>
<!-- 200 -->
<g id="node4" class="node"><title>200</title>
<ellipse fill="none" stroke="red" cx="793.193" cy="-41" rx="83.3857" ry="18"/>
<text text-anchor="middle" x="793.193" y="-37.3" font-family="Times,serif" font-size="14.00">[[1/3,0/2], [1/3,0/2]]</text>
</g>
<!-- 0&#45;&gt;200 -->
<g id="edge3" class="edge"><title>0&#45;&gt;200</title>
<path fill="none" stroke="black" d="M610.914,-123.579C670.924,-119.531 746.501,-110.781 771.193,-92 778.761,-86.2434 783.776,-77.3261 787.076,-68.6071"/>
<polygon fill="black" stroke="black" points="790.428,-69.6165 790.119,-59.0262 783.756,-67.4978 790.428,-69.6165"/>
<text text-anchor="middle" x="1033.69" y="-80.8" font-family="Times,serif" font-size="14.00">5µ1^2(µ2 &#45; 1)^2(µ1^2µ2^2 &#45; 2µ1^2µ2 + µ1^2 &#45; 2µ1µ2^2 + 4µ1µ2 &#45; 2µ1 + µ2^2 &#45; 2µ2 + 2)/8</text>
</g>
<!-- 210 -->
<g id="node5" class="node"><title>210</title>
<ellipse fill="none" stroke="red" cx="1319.19" cy="-41" rx="83.3857" ry="18"/>
<text text-anchor="middle" x="1319.19" y="-37.3" font-family="Times,serif" font-size="14.00">[[2/3,1/2], [2/3,1/2]]</text>
</g>
<!-- 0&#45;&gt;210 -->
<g id="edge4" class="edge"><title>0&#45;&gt;210</title>
<path fill="none" stroke="black" d="M613.395,-127.556C798.46,-128.168 1232.39,-125.915 1289.19,-92 1298.22,-86.608 1304.87,-77.356 1309.57,-68.2656"/>
<polygon fill="black" stroke="black" points="1312.82,-69.5702 1313.79,-59.0197 1306.45,-66.6635 1312.82,-69.5702"/>
<text text-anchor="middle" x="1363.19" y="-80.8" font-family="Times,serif" font-size="14.00">µ1^4µ2^2(µ2 &#45; 1)^2/4</text>
</g>
</g>
</svg>
