<?xml version="1.0" encoding="UTF-8" standalone="no"?>
<!DOCTYPE svg PUBLIC "-//W3C//DTD SVG 1.1//EN"
 "http://www.w3.org/Graphics/SVG/1.1/DTD/svg11.dtd">
<!-- Generated by graphviz version 2.38.0 (20140413.2041)
 -->
<!-- Title: %3 Pages: 1 -->
<svg width="5785pt" height="154pt"
 viewBox="0.00 0.00 5785.27 154.00" xmlns="http://www.w3.org/2000/svg" xmlns:xlink="http://www.w3.org/1999/xlink">
<g id="graph0" class="graph" transform="scale(1 1) rotate(0) translate(4 150)">
<title>%3</title>
<polygon fill="white" stroke="none" points="-4,4 -4,-150 5781.27,-150 5781.27,4 -4,4"/>
<text text-anchor="middle" x="2888.64" y="-7.8" font-family="Times,serif" font-size="14.00">Tree exploration for K=2 arms and M=2 players using Selfish KLUCB U and RandomNewRank, for depth=2 : 19 leafs, 0 absorbing</text>
<!-- 0 -->
<g id="node1" class="node"><title>0</title>
<ellipse fill="none" stroke="green" cx="2888.64" cy="-128" rx="143.775" ry="18"/>
<text text-anchor="middle" x="2888.64" y="-124.3" font-family="Times,serif" font-size="14.00">[[0/0 r=1,0/0 r=1], [0/0 r=1,0/0 r=1]]</text>
</g>
<!-- 1 -->
<g id="node2" class="node"><title>1</title>
<ellipse fill="none" stroke="black" cx="143.637" cy="-41" rx="143.775" ry="18"/>
<text text-anchor="middle" x="143.637" y="-37.3" font-family="Times,serif" font-size="14.00">[[1/1 r=1,0/1 r=1], [0/1 r=1,1/1 r=1]]</text>
</g>
<!-- 0&#45;&gt;1 -->
<g id="edge1" class="edge"><title>0&#45;&gt;1</title>
<path fill="none" stroke="black" d="M2744.93,-127.26C2402.55,-127.304 1511.75,-124.034 768.637,-92 558.1,-82.9242 505.508,-78.0489 295.637,-59 282.337,-57.7928 268.397,-56.4039 254.58,-54.9511"/>
<polygon fill="black" stroke="black" points="254.867,-51.462 244.553,-53.8837 254.126,-58.4226 254.867,-51.462"/>
<text text-anchor="middle" x="791.137" y="-80.8" font-family="Times,serif" font-size="14.00">0.00405</text>
</g>
<!-- 2 -->
<g id="node3" class="node"><title>2</title>
<ellipse fill="none" stroke="black" cx="448.637" cy="-41" rx="143.775" ry="18"/>
<text text-anchor="middle" x="448.637" y="-37.3" font-family="Times,serif" font-size="14.00">[[0/1 r=1,1/1 r=1], [0/1 r=1,1/1 r=1]]</text>
</g>
<!-- 0&#45;&gt;2 -->
<g id="edge2" class="edge"><title>0&#45;&gt;2</title>
<path fill="none" stroke="black" d="M2745.45,-126.447C2442.05,-124.78 1712.1,-118.149 1100.64,-92 878.135,-82.4848 822.469,-78.7152 600.637,-59 587.229,-57.8083 573.17,-56.422 559.245,-54.9647"/>
<polygon fill="black" stroke="black" points="559.453,-51.4673 549.139,-53.8929 558.714,-58.4282 559.453,-51.4673"/>
<text text-anchor="middle" x="1116.14" y="-80.8" font-family="Times,serif" font-size="14.00">0.328</text>
</g>
<!-- 3 -->
<g id="node4" class="node"><title>3</title>
<ellipse fill="none" stroke="black" cx="753.637" cy="-41" rx="143.775" ry="18"/>
<text text-anchor="middle" x="753.637" y="-37.3" font-family="Times,serif" font-size="14.00">[[0/1 r=1,0/1 r=1], [1/1 r=1,1/1 r=1]]</text>
</g>
<!-- 0&#45;&gt;3 -->
<g id="edge3" class="edge"><title>0&#45;&gt;3</title>
<path fill="none" stroke="black" d="M2746.53,-125.373C2486.35,-121.994 1916.04,-112.734 1435.64,-92 1199.85,-81.8231 1140.76,-79.4558 905.637,-59 892.227,-57.8333 878.167,-56.462 864.24,-55.0129"/>
<polygon fill="black" stroke="black" points="864.447,-51.5153 854.135,-53.9458 863.712,-58.4766 864.447,-51.5153"/>
<text text-anchor="middle" x="1458.14" y="-80.8" font-family="Times,serif" font-size="14.00">0.00405</text>
</g>
<!-- 4 -->
<g id="node5" class="node"><title>4</title>
<ellipse fill="none" stroke="black" cx="1058.64" cy="-41" rx="143.775" ry="18"/>
<text text-anchor="middle" x="1058.64" y="-37.3" font-family="Times,serif" font-size="14.00">[[0/1 r=1,0/1 r=1], [1/1 r=1,0/1 r=1]]</text>
</g>
<!-- 0&#45;&gt;4 -->
<g id="edge4" class="edge"><title>0&#45;&gt;4</title>
<path fill="none" stroke="black" d="M2746.09,-125.731C2456.32,-122.159 1777.91,-108.729 1210.64,-59 1197.23,-57.8245 1183.17,-56.4478 1169.24,-54.9959"/>
<polygon fill="black" stroke="black" points="1169.45,-51.4983 1159.14,-53.9271 1168.71,-58.4595 1169.45,-51.4983"/>
<text text-anchor="middle" x="1694.14" y="-80.8" font-family="Times,serif" font-size="14.00">0.00045</text>
</g>
<!-- 5 -->
<g id="node6" class="node"><title>5</title>
<ellipse fill="none" stroke="black" cx="1363.64" cy="-41" rx="143.775" ry="18"/>
<text text-anchor="middle" x="1363.64" y="-37.3" font-family="Times,serif" font-size="14.00">[[0/1 r=1,0/1 r=1], [0/1 r=1,1/1 r=1]]</text>
</g>
<!-- 0&#45;&gt;5 -->
<g id="edge5" class="edge"><title>0&#45;&gt;5</title>
<path fill="none" stroke="black" d="M2749.04,-123.715C2500.59,-117.06 1965.52,-99.0732 1515.64,-59 1502.23,-57.8057 1488.17,-56.4177 1474.24,-54.9596"/>
<polygon fill="black" stroke="black" points="1474.45,-51.4622 1464.14,-53.8873 1473.71,-58.4231 1474.45,-51.4622"/>
<text text-anchor="middle" x="1987.64" y="-80.8" font-family="Times,serif" font-size="14.00">0.0364</text>
</g>
<!-- 6 -->
<g id="node7" class="node"><title>6</title>
<ellipse fill="none" stroke="black" cx="1668.64" cy="-41" rx="143.775" ry="18"/>
<text text-anchor="middle" x="1668.64" y="-37.3" font-family="Times,serif" font-size="14.00">[[0/1 r=1,1/1 r=1], [1/1 r=1,0/1 r=1]]</text>
</g>
<!-- 0&#45;&gt;6 -->
<g id="edge6" class="edge"><title>0&#45;&gt;6</title>
<path fill="none" stroke="black" d="M2756.08,-121.046C2553.99,-111.407 2156.86,-90.258 1820.64,-59 1807.34,-57.7638 1793.4,-56.3572 1779.59,-54.8949"/>
<polygon fill="black" stroke="black" points="1779.87,-51.4059 1769.56,-53.8218 1779.13,-58.3661 1779.87,-51.4059"/>
<text text-anchor="middle" x="2254.14" y="-80.8" font-family="Times,serif" font-size="14.00">0.00405</text>
</g>
<!-- 7 -->
<g id="node8" class="node"><title>7</title>
<ellipse fill="none" stroke="black" cx="1973.64" cy="-41" rx="143.775" ry="18"/>
<text text-anchor="middle" x="1973.64" y="-37.3" font-family="Times,serif" font-size="14.00">[[0/1 r=1,1/1 r=1], [0/1 r=1,0/1 r=1]]</text>
</g>
<!-- 0&#45;&gt;7 -->
<g id="edge7" class="edge"><title>0&#45;&gt;7</title>
<path fill="none" stroke="black" d="M2772.22,-117.444C2622.53,-104.968 2354.56,-81.9995 2125.64,-59 2112.79,-57.7097 2099.35,-56.2965 2085.99,-54.8535"/>
<polygon fill="black" stroke="black" points="2086.13,-51.3476 2075.81,-53.7458 2085.37,-58.3066 2086.13,-51.3476"/>
<text text-anchor="middle" x="2479.64" y="-80.8" font-family="Times,serif" font-size="14.00">0.0364</text>
</g>
<!-- 8 -->
<g id="node9" class="node"><title>8</title>
<ellipse fill="none" stroke="black" cx="2278.64" cy="-41" rx="143.775" ry="18"/>
<text text-anchor="middle" x="2278.64" y="-37.3" font-family="Times,serif" font-size="14.00">[[0/1 r=0,0/1 r=0], [0/1 r=1,0/1 r=1]]</text>
</g>
<!-- 0&#45;&gt;8 -->
<g id="edge8" class="edge"><title>0&#45;&gt;8</title>
<path fill="none" stroke="black" d="M2796.32,-114.137C2684.51,-98.5559 2496.76,-72.3935 2380.72,-56.2248"/>
<polygon fill="black" stroke="black" points="2381.15,-52.7507 2370.76,-54.8371 2380.18,-59.6838 2381.15,-52.7507"/>
<text text-anchor="middle" x="2636.14" y="-80.8" font-family="Times,serif" font-size="14.00">0.125</text>
</g>
<!-- 9 -->
<g id="node10" class="node"><title>9</title>
<ellipse fill="none" stroke="black" cx="2583.64" cy="-41" rx="143.775" ry="18"/>
<text text-anchor="middle" x="2583.64" y="-37.3" font-family="Times,serif" font-size="14.00">[[1/1 r=1,0/1 r=1], [0/1 r=1,0/1 r=1]]</text>
</g>
<!-- 0&#45;&gt;9 -->
<g id="edge9" class="edge"><title>0&#45;&gt;9</title>
<path fill="none" stroke="black" d="M2832.7,-111.41C2781.05,-97.0167 2704.31,-75.6289 2649.67,-60.4033"/>
<polygon fill="black" stroke="black" points="2650.31,-56.9483 2639.74,-57.6352 2648.43,-63.6913 2650.31,-56.9483"/>
<text text-anchor="middle" x="2777.14" y="-80.8" font-family="Times,serif" font-size="14.00">0.00045</text>
</g>
<!-- 10 -->
<g id="node11" class="node"><title>10</title>
<ellipse fill="none" stroke="black" cx="2888.64" cy="-41" rx="143.775" ry="18"/>
<text text-anchor="middle" x="2888.64" y="-37.3" font-family="Times,serif" font-size="14.00">[[1/1 r=1,0/1 r=1], [1/1 r=1,0/1 r=1]]</text>
</g>
<!-- 0&#45;&gt;10 -->
<g id="edge10" class="edge"><title>0&#45;&gt;10</title>
<path fill="none" stroke="black" d="M2888.64,-109.799C2888.64,-98.1626 2888.64,-82.5479 2888.64,-69.2368"/>
<polygon fill="black" stroke="black" points="2892.14,-69.1754 2888.64,-59.1754 2885.14,-69.1755 2892.14,-69.1754"/>
<text text-anchor="middle" x="2904.14" y="-80.8" font-family="Times,serif" font-size="14.00">5e&#45;05</text>
</g>
<!-- 11 -->
<g id="node12" class="node"><title>11</title>
<ellipse fill="none" stroke="black" cx="3193.64" cy="-41" rx="143.775" ry="18"/>
<text text-anchor="middle" x="3193.64" y="-37.3" font-family="Times,serif" font-size="14.00">[[0/1 r=0,0/1 r=0], [0/1 r=0,0/1 r=0]]</text>
</g>
<!-- 0&#45;&gt;11 -->
<g id="edge11" class="edge"><title>0&#45;&gt;11</title>
<path fill="none" stroke="black" d="M2944.58,-111.41C2996.22,-97.0167 3072.97,-75.6289 3127.6,-60.4033"/>
<polygon fill="black" stroke="black" points="3128.84,-63.6913 3137.53,-57.6352 3126.96,-56.9483 3128.84,-63.6913"/>
<text text-anchor="middle" x="3075.14" y="-80.8" font-family="Times,serif" font-size="14.00">0.125</text>
</g>
<!-- 12 -->
<g id="node13" class="node"><title>12</title>
<ellipse fill="none" stroke="black" cx="3498.64" cy="-41" rx="143.775" ry="18"/>
<text text-anchor="middle" x="3498.64" y="-37.3" font-family="Times,serif" font-size="14.00">[[1/1 r=1,1/1 r=1], [1/1 r=1,1/1 r=1]]</text>
</g>
<!-- 0&#45;&gt;12 -->
<g id="edge12" class="edge"><title>0&#45;&gt;12</title>
<path fill="none" stroke="black" d="M2980.95,-114.137C3092.77,-98.5559 3280.52,-72.3935 3396.55,-56.2248"/>
<polygon fill="black" stroke="black" points="3397.09,-59.6838 3406.51,-54.8371 3396.13,-52.7507 3397.09,-59.6838"/>
<text text-anchor="middle" x="3253.14" y="-80.8" font-family="Times,serif" font-size="14.00">0.00405</text>
</g>
<!-- 13 -->
<g id="node14" class="node"><title>13</title>
<ellipse fill="none" stroke="black" cx="3803.64" cy="-41" rx="143.775" ry="18"/>
<text text-anchor="middle" x="3803.64" y="-37.3" font-family="Times,serif" font-size="14.00">[[0/1 r=1,0/1 r=1], [0/1 r=0,0/1 r=0]]</text>
</g>
<!-- 0&#45;&gt;13 -->
<g id="edge13" class="edge"><title>0&#45;&gt;13</title>
<path fill="none" stroke="black" d="M3005.05,-117.444C3154.75,-104.968 3422.72,-81.9995 3651.64,-59 3664.48,-57.7097 3677.93,-56.2965 3691.28,-54.8535"/>
<polygon fill="black" stroke="black" points="3691.91,-58.3066 3701.47,-53.7458 3691.15,-51.3476 3691.91,-58.3066"/>
<text text-anchor="middle" x="3479.14" y="-80.8" font-family="Times,serif" font-size="14.00">0.125</text>
</g>
<!-- 14 -->
<g id="node15" class="node"><title>14</title>
<ellipse fill="none" stroke="black" cx="4108.64" cy="-41" rx="143.775" ry="18"/>
<text text-anchor="middle" x="4108.64" y="-37.3" font-family="Times,serif" font-size="14.00">[[0/1 r=1,1/1 r=1], [1/1 r=1,1/1 r=1]]</text>
</g>
<!-- 0&#45;&gt;14 -->
<g id="edge14" class="edge"><title>0&#45;&gt;14</title>
<path fill="none" stroke="black" d="M3021.19,-120.957C3223.26,-111.203 3620.38,-89.906 3956.64,-59 3969.94,-57.7777 3983.88,-56.3796 3997.69,-54.9218"/>
<polygon fill="black" stroke="black" points="3998.15,-58.3932 4007.72,-53.8515 3997.4,-51.4328 3998.15,-58.3932"/>
<text text-anchor="middle" x="3742.64" y="-80.8" font-family="Times,serif" font-size="14.00">0.0365</text>
</g>
<!-- 15 -->
<g id="node16" class="node"><title>15</title>
<ellipse fill="none" stroke="black" cx="4413.64" cy="-41" rx="143.775" ry="18"/>
<text text-anchor="middle" x="4413.64" y="-37.3" font-family="Times,serif" font-size="14.00">[[1/1 r=1,1/1 r=1], [1/1 r=1,0/1 r=1]]</text>
</g>
<!-- 0&#45;&gt;15 -->
<g id="edge15" class="edge"><title>0&#45;&gt;15</title>
<path fill="none" stroke="black" d="M3028.24,-123.721C3276.68,-117.075 3811.76,-99.1032 4261.64,-59 4275.05,-57.8048 4289.1,-56.4163 4303.03,-54.9579"/>
<polygon fill="black" stroke="black" points="4303.56,-58.4213 4313.13,-53.8854 4302.82,-51.4604 4303.56,-58.4213"/>
<text text-anchor="middle" x="4022.14" y="-80.8" font-family="Times,serif" font-size="14.00">0.00045</text>
</g>
<!-- 16 -->
<g id="node17" class="node"><title>16</title>
<ellipse fill="none" stroke="black" cx="4718.64" cy="-41" rx="143.775" ry="18"/>
<text text-anchor="middle" x="4718.64" y="-37.3" font-family="Times,serif" font-size="14.00">[[1/1 r=1,0/1 r=1], [1/1 r=1,1/1 r=1]]</text>
</g>
<!-- 0&#45;&gt;16 -->
<g id="edge16" class="edge"><title>0&#45;&gt;16</title>
<path fill="none" stroke="black" d="M3031.19,-125.737C3320.96,-122.175 3999.37,-108.763 4566.64,-59 4580.05,-57.8236 4594.11,-56.4465 4608.03,-54.9943"/>
<polygon fill="black" stroke="black" points="4608.56,-58.4579 4618.14,-53.9254 4607.83,-51.4968 4608.56,-58.4579"/>
<text text-anchor="middle" x="4316.14" y="-80.8" font-family="Times,serif" font-size="14.00">0.00045</text>
</g>
<!-- 17 -->
<g id="node18" class="node"><title>17</title>
<ellipse fill="none" stroke="black" cx="5023.64" cy="-41" rx="143.775" ry="18"/>
<text text-anchor="middle" x="5023.64" y="-37.3" font-family="Times,serif" font-size="14.00">[[1/1 r=1,1/1 r=1], [0/1 r=1,1/1 r=1]]</text>
</g>
<!-- 0&#45;&gt;17 -->
<g id="edge17" class="edge"><title>0&#45;&gt;17</title>
<path fill="none" stroke="black" d="M3030.85,-125.38C3291.2,-122.013 3861.91,-112.773 4342.64,-92 4577.99,-81.8304 4636.96,-79.4311 4871.64,-59 4885.05,-57.8325 4899.11,-56.4607 4913.03,-55.0114"/>
<polygon fill="black" stroke="black" points="4913.56,-58.4751 4923.14,-53.9441 4912.83,-51.5138 4913.56,-58.4751"/>
<text text-anchor="middle" x="4661.64" y="-80.8" font-family="Times,serif" font-size="14.00">0.0365</text>
</g>
<!-- 18 -->
<g id="node19" class="node"><title>18</title>
<ellipse fill="none" stroke="black" cx="5328.64" cy="-41" rx="143.775" ry="18"/>
<text text-anchor="middle" x="5328.64" y="-37.3" font-family="Times,serif" font-size="14.00">[[0/1 r=1,0/1 r=1], [0/1 r=1,0/1 r=1]]</text>
</g>
<!-- 0&#45;&gt;18 -->
<g id="edge18" class="edge"><title>0&#45;&gt;18</title>
<path fill="none" stroke="black" d="M3031.89,-126.516C3336.3,-124.981 4070.06,-118.584 4684.64,-92 4903.59,-82.529 4958.35,-78.5178 5176.64,-59 5190.05,-57.8012 5204.1,-56.4105 5218.03,-54.9509"/>
<polygon fill="black" stroke="black" points="5218.56,-58.4143 5228.13,-53.8777 5217.82,-51.4535 5218.56,-58.4143"/>
<text text-anchor="middle" x="4970.14" y="-80.8" font-family="Times,serif" font-size="14.00">0.129</text>
</g>
<!-- 19 -->
<g id="node20" class="node"><title>19</title>
<ellipse fill="none" stroke="black" cx="5633.64" cy="-41" rx="143.775" ry="18"/>
<text text-anchor="middle" x="5633.64" y="-37.3" font-family="Times,serif" font-size="14.00">[[1/1 r=1,1/1 r=1], [0/1 r=1,0/1 r=1]]</text>
</g>
<!-- 0&#45;&gt;19 -->
<g id="edge19" class="edge"><title>0&#45;&gt;19</title>
<path fill="none" stroke="black" d="M3032.32,-127.096C3372.54,-126.78 4254.05,-122.776 4989.64,-92 5208.6,-82.8386 5263.35,-78.5178 5481.64,-59 5495.05,-57.8012 5509.1,-56.4105 5523.03,-54.9509"/>
<polygon fill="black" stroke="black" points="5523.56,-58.4143 5533.13,-53.8777 5522.82,-51.4535 5523.56,-58.4143"/>
<text text-anchor="middle" x="5291.14" y="-80.8" font-family="Times,serif" font-size="14.00">0.00405</text>
</g>
</g>
</svg>
