<?xml version="1.0" encoding="UTF-8" standalone="no"?>
<!DOCTYPE svg PUBLIC "-//W3C//DTD SVG 1.1//EN"
 "http://www.w3.org/Graphics/SVG/1.1/DTD/svg11.dtd">
<!-- Generated by graphviz version 2.38.0 (20140413.2041)
 -->
<!-- Title: %3 Pages: 1 -->
<svg width="6246pt" height="241pt"
 viewBox="0.00 0.00 6246.39 241.00" xmlns="http://www.w3.org/2000/svg" xmlns:xlink="http://www.w3.org/1999/xlink">
<g id="graph0" class="graph" transform="scale(1 1) rotate(0) translate(4 237)">
<title>%3</title>
<polygon fill="white" stroke="none" points="-4,4 -4,-237 6242.39,-237 6242.39,4 -4,4"/>
<text text-anchor="middle" x="3119.19" y="-7.8" font-family="Times,serif" font-size="14.00">Tree exploration for K=2 arms and M=2 players using Selfish UCB Ubar, for depth=2 : 16 leafs, 2 absorbing</text>
<!-- 0 -->
<g id="node1" class="node"><title>0</title>
<ellipse fill="none" stroke="green" cx="3119.19" cy="-215" rx="83.3857" ry="18"/>
<text text-anchor="middle" x="3119.19" y="-211.3" font-family="Times,serif" font-size="14.00">[[0/0,0/0], [0/0,0/0]]</text>
</g>
<!-- 1 -->
<g id="node2" class="node"><title>1</title>
<ellipse fill="none" stroke="black" cx="451.193" cy="-128" rx="83.3857" ry="18"/>
<text text-anchor="middle" x="451.193" y="-124.3" font-family="Times,serif" font-size="14.00">[[1/1,0/0], [0/0,0/1]]</text>
</g>
<!-- 0&#45;&gt;1 -->
<g id="edge1" class="edge"><title>0&#45;&gt;1</title>
<path fill="none" stroke="black" d="M3036.36,-212.627C2809.78,-208.75 2160.69,-196.829 1621.19,-179 1218.44,-165.69 737.997,-143.018 541.587,-133.46"/>
<polygon fill="black" stroke="black" points="541.478,-129.95 531.319,-132.959 541.137,-136.942 541.478,-129.95"/>
<text text-anchor="middle" x="1650.19" y="-167.8" font-family="Times,serif" font-size="14.00">µ1(1&#45;µ2)/4</text>
</g>
<!-- 2 -->
<g id="node3" class="node"><title>2</title>
<ellipse fill="none" stroke="black" cx="1003.19" cy="-128" rx="83.3857" ry="18"/>
<text text-anchor="middle" x="1003.19" y="-124.3" font-family="Times,serif" font-size="14.00">[[0/0,0/1], [0/0,0/1]]</text>
</g>
<!-- 0&#45;&gt;2 -->
<g id="edge2" class="edge"><title>0&#45;&gt;2</title>
<path fill="none" stroke="black" d="M3037.09,-211.754C2778.53,-204.51 1958.01,-180.235 1279.19,-146 1216.47,-142.837 1145.78,-138.467 1091.64,-134.95"/>
<polygon fill="black" stroke="black" points="1091.59,-131.44 1081.39,-134.281 1091.14,-138.425 1091.59,-131.44"/>
<text text-anchor="middle" x="2046.19" y="-167.8" font-family="Times,serif" font-size="14.00">1/4</text>
</g>
<!-- 3 -->
<g id="node4" class="node"><title>3</title>
<ellipse fill="none" stroke="black" cx="1371.19" cy="-128" rx="83.3857" ry="18"/>
<text text-anchor="middle" x="1371.19" y="-124.3" font-family="Times,serif" font-size="14.00">[[0/1,0/0], [0/0,0/1]]</text>
</g>
<!-- 0&#45;&gt;3 -->
<g id="edge3" class="edge"><title>0&#45;&gt;3</title>
<path fill="none" stroke="black" d="M3038.97,-210.099C2750.35,-196.064 1765.91,-148.194 1461.58,-133.395"/>
<polygon fill="black" stroke="black" points="1461.63,-129.894 1451.48,-132.904 1461.29,-136.886 1461.63,-129.894"/>
<text text-anchor="middle" x="2389.69" y="-167.8" font-family="Times,serif" font-size="14.00">(1&#45;µ1)(1&#45;µ2)/4</text>
</g>
<!-- 4 -->
<g id="node5" class="node"><title>4</title>
<ellipse fill="none" stroke="black" cx="2107.19" cy="-128" rx="83.3857" ry="18"/>
<text text-anchor="middle" x="2107.19" y="-124.3" font-family="Times,serif" font-size="14.00">[[0/0,0/1], [0/1,0/0]]</text>
</g>
<!-- 0&#45;&gt;4 -->
<g id="edge4" class="edge"><title>0&#45;&gt;4</title>
<path fill="none" stroke="black" d="M3043.13,-207.611C2858.54,-192.107 2387.77,-152.566 2193.27,-136.23"/>
<polygon fill="black" stroke="black" points="2193.36,-132.725 2183.1,-135.376 2192.78,-139.701 2193.36,-132.725"/>
<text text-anchor="middle" x="2713.69" y="-167.8" font-family="Times,serif" font-size="14.00">(1&#45;µ1)(1&#45;µ2)/4</text>
</g>
<!-- 5 -->
<g id="node6" class="node"><title>5</title>
<ellipse fill="none" stroke="black" cx="2843.19" cy="-128" rx="83.3857" ry="18"/>
<text text-anchor="middle" x="2843.19" y="-124.3" font-family="Times,serif" font-size="14.00">[[0/1,0/0], [0/0,1/1]]</text>
</g>
<!-- 0&#45;&gt;5 -->
<g id="edge5" class="edge"><title>0&#45;&gt;5</title>
<path fill="none" stroke="black" d="M3073.31,-199.869C3025.35,-185.1 2950.09,-161.922 2898.79,-146.124"/>
<polygon fill="black" stroke="black" points="2899.78,-142.764 2889.19,-143.165 2897.71,-149.454 2899.78,-142.764"/>
<text text-anchor="middle" x="3027.19" y="-167.8" font-family="Times,serif" font-size="14.00">µ2(1&#45;µ1)/4</text>
</g>
<!-- 6 -->
<g id="node7" class="node"><title>6</title>
<ellipse fill="none" stroke="black" cx="3395.19" cy="-128" rx="83.3857" ry="18"/>
<text text-anchor="middle" x="3395.19" y="-124.3" font-family="Times,serif" font-size="14.00">[[0/0,1/1], [1/1,0/0]]</text>
</g>
<!-- 0&#45;&gt;6 -->
<g id="edge6" class="edge"><title>0&#45;&gt;6</title>
<path fill="none" stroke="black" d="M3165.08,-199.869C3213.03,-185.1 3288.29,-161.922 3339.59,-146.124"/>
<polygon fill="black" stroke="black" points="3340.67,-149.454 3349.2,-143.165 3338.61,-142.764 3340.67,-149.454"/>
<text text-anchor="middle" x="3293.19" y="-167.8" font-family="Times,serif" font-size="14.00">µ1µ2/4</text>
</g>
<!-- 7 -->
<g id="node8" class="node"><title>7</title>
<ellipse fill="none" stroke="black" cx="3763.19" cy="-128" rx="83.3857" ry="18"/>
<text text-anchor="middle" x="3763.19" y="-124.3" font-family="Times,serif" font-size="14.00">[[0/1,0/0], [0/1,0/0]]</text>
</g>
<!-- 0&#45;&gt;7 -->
<g id="edge7" class="edge"><title>0&#45;&gt;7</title>
<path fill="none" stroke="black" d="M3188.11,-204.904C3308.64,-188.996 3556.96,-156.221 3684.22,-139.424"/>
<polygon fill="black" stroke="black" points="3684.83,-142.874 3694.28,-138.095 3683.91,-135.934 3684.83,-142.874"/>
<text text-anchor="middle" x="3489.19" y="-167.8" font-family="Times,serif" font-size="14.00">1/4</text>
</g>
<!-- 8 -->
<g id="node9" class="node"><title>8</title>
<ellipse fill="none" stroke="black" cx="4315.19" cy="-128" rx="83.3857" ry="18"/>
<text text-anchor="middle" x="4315.19" y="-124.3" font-family="Times,serif" font-size="14.00">[[0/0,0/1], [1/1,0/0]]</text>
</g>
<!-- 0&#45;&gt;8 -->
<g id="edge8" class="edge"><title>0&#45;&gt;8</title>
<path fill="none" stroke="black" d="M3197.2,-208.456C3410.59,-193.29 4002.95,-151.191 4227.43,-135.238"/>
<polygon fill="black" stroke="black" points="4227.79,-138.721 4237.51,-134.521 4227.29,-131.738 4227.79,-138.721"/>
<text text-anchor="middle" x="3818.19" y="-167.8" font-family="Times,serif" font-size="14.00">µ1(1&#45;µ2)/4</text>
</g>
<!-- 9 -->
<g id="node10" class="node"><title>9</title>
<ellipse fill="none" stroke="black" cx="5051.19" cy="-128" rx="83.3857" ry="18"/>
<text text-anchor="middle" x="5051.19" y="-124.3" font-family="Times,serif" font-size="14.00">[[1/1,0/0], [0/0,1/1]]</text>
</g>
<!-- 0&#45;&gt;9 -->
<g id="edge9" class="edge"><title>0&#45;&gt;9</title>
<path fill="none" stroke="black" d="M3199.75,-210.456C3510.69,-196.776 4631.67,-147.457 4960.14,-133.006"/>
<polygon fill="black" stroke="black" points="4960.72,-136.484 4970.56,-132.547 4960.42,-129.49 4960.72,-136.484"/>
<text text-anchor="middle" x="4219.19" y="-167.8" font-family="Times,serif" font-size="14.00">µ1µ2/4</text>
</g>
<!-- 10 -->
<g id="node11" class="node"><title>10</title>
<ellipse fill="none" stroke="black" cx="5787.19" cy="-128" rx="83.3857" ry="18"/>
<text text-anchor="middle" x="5787.19" y="-124.3" font-family="Times,serif" font-size="14.00">[[0/0,1/1], [0/1,0/0]]</text>
</g>
<!-- 0&#45;&gt;10 -->
<g id="edge10" class="edge"><title>0&#45;&gt;10</title>
<path fill="none" stroke="black" d="M3200.92,-211.486C3386.18,-205.781 3852.27,-191.386 4242.19,-179 4793.87,-161.476 5456.34,-139.837 5695.49,-132.006"/>
<polygon fill="black" stroke="black" points="5695.66,-135.503 5705.54,-131.677 5695.43,-128.506 5695.66,-135.503"/>
<text text-anchor="middle" x="4738.19" y="-167.8" font-family="Times,serif" font-size="14.00">µ2(1&#45;µ1)/4</text>
</g>
<!-- 11 -->
<g id="node12" class="node"><title>11</title>
<ellipse fill="none" stroke="black" cx="83.1926" cy="-41" rx="83.3857" ry="18"/>
<text text-anchor="middle" x="83.1926" y="-37.3" font-family="Times,serif" font-size="14.00">[[1/1,1/1], [1/1,0/1]]</text>
</g>
<!-- 1&#45;&gt;11 -->
<g id="edge11" class="edge"><title>1&#45;&gt;11</title>
<path fill="none" stroke="black" d="M396.497,-114.366C330.181,-99.049 218.554,-73.2656 147.991,-56.967"/>
<polygon fill="black" stroke="black" points="148.419,-53.4739 137.888,-54.6335 146.844,-60.2943 148.419,-53.4739"/>
<text text-anchor="middle" x="304.193" y="-80.8" font-family="Times,serif" font-size="14.00">µ1µ2</text>
</g>
<!-- 12 -->
<g id="node13" class="node"><title>12</title>
<ellipse fill="none" stroke="black" cx="267.193" cy="-41" rx="83.3857" ry="18"/>
<text text-anchor="middle" x="267.193" y="-37.3" font-family="Times,serif" font-size="14.00">[[1/1,1/1], [0/1,0/1]]</text>
</g>
<!-- 1&#45;&gt;12 -->
<g id="edge12" class="edge"><title>1&#45;&gt;12</title>
<path fill="none" stroke="black" d="M417.444,-111.41C387.227,-97.4509 342.769,-76.9128 310.049,-61.7976"/>
<polygon fill="black" stroke="black" points="311.273,-58.5079 300.727,-57.4915 308.337,-64.8626 311.273,-58.5079"/>
<text text-anchor="middle" x="395.193" y="-80.8" font-family="Times,serif" font-size="14.00">µ2(1&#45;µ1)</text>
</g>
<!-- 13 -->
<g id="node14" class="node"><title>13</title>
<ellipse fill="none" stroke="red" cx="451.193" cy="-41" rx="83.3857" ry="18"/>
<text text-anchor="middle" x="451.193" y="-37.3" font-family="Times,serif" font-size="14.00">[[1/1,0/1], [1/1,0/1]]</text>
</g>
<!-- 1&#45;&gt;13 -->
<g id="edge13" class="edge"><title>1&#45;&gt;13</title>
<path fill="none" stroke="black" d="M451.193,-109.799C451.193,-98.1626 451.193,-82.5479 451.193,-69.2368"/>
<polygon fill="black" stroke="black" points="454.693,-69.1754 451.193,-59.1754 447.693,-69.1755 454.693,-69.1754"/>
<text text-anchor="middle" x="475.193" y="-80.8" font-family="Times,serif" font-size="14.00">µ1(1&#45;µ2)</text>
</g>
<!-- 14 -->
<g id="node15" class="node"><title>14</title>
<ellipse fill="none" stroke="black" cx="635.193" cy="-41" rx="83.3857" ry="18"/>
<text text-anchor="middle" x="635.193" y="-37.3" font-family="Times,serif" font-size="14.00">[[1/1,0/1], [0/1,0/1]]</text>
</g>
<!-- 1&#45;&gt;14 -->
<g id="edge14" class="edge"><title>1&#45;&gt;14</title>
<path fill="none" stroke="black" d="M484.941,-111.41C515.158,-97.4509 559.617,-76.9128 592.337,-61.7976"/>
<polygon fill="black" stroke="black" points="594.048,-64.8626 601.658,-57.4915 591.112,-58.5079 594.048,-64.8626"/>
<text text-anchor="middle" x="589.193" y="-80.8" font-family="Times,serif" font-size="14.00">(1&#45;µ1)(1&#45;µ2)</text>
</g>
<!-- 15 -->
<g id="node16" class="node"><title>15</title>
<ellipse fill="none" stroke="black" cx="819.193" cy="-41" rx="83.3857" ry="18"/>
<text text-anchor="middle" x="819.193" y="-37.3" font-family="Times,serif" font-size="14.00">[[0/1,0/1], [0/1,0/1]]</text>
</g>
<!-- 2&#45;&gt;15 -->
<g id="edge15" class="edge"><title>2&#45;&gt;15</title>
<path fill="none" stroke="black" d="M969.444,-111.41C939.227,-97.4509 894.769,-76.9128 862.049,-61.7976"/>
<polygon fill="black" stroke="black" points="863.273,-58.5079 852.727,-57.4915 860.337,-64.8626 863.273,-58.5079"/>
<text text-anchor="middle" x="926.693" y="-80.8" font-family="Times,serif" font-size="14.00">1</text>
</g>
<!-- 16 -->
<g id="node17" class="node"><title>16</title>
<ellipse fill="none" stroke="black" cx="1003.19" cy="-41" rx="83.3857" ry="18"/>
<text text-anchor="middle" x="1003.19" y="-37.3" font-family="Times,serif" font-size="14.00">[[0/1,0/1], [0/1,0/1]]</text>
</g>
<!-- 3&#45;&gt;16 -->
<g id="edge16" class="edge"><title>3&#45;&gt;16</title>
<path fill="none" stroke="black" d="M1310.27,-115.686C1276.55,-109.205 1233.94,-100.658 1196.19,-92 1151.13,-81.6656 1100.55,-68.5044 1062.48,-58.2792"/>
<polygon fill="black" stroke="black" points="1063.16,-54.8356 1052.59,-55.6125 1061.33,-61.5944 1063.16,-54.8356"/>
<text text-anchor="middle" x="1230.19" y="-80.8" font-family="Times,serif" font-size="14.00">(1&#45;µ1)(1&#45;µ2)</text>
</g>
<!-- 17 -->
<g id="node18" class="node"><title>17</title>
<ellipse fill="none" stroke="black" cx="1187.19" cy="-41" rx="83.3857" ry="18"/>
<text text-anchor="middle" x="1187.19" y="-37.3" font-family="Times,serif" font-size="14.00">[[0/1,1/1], [0/1,0/1]]</text>
</g>
<!-- 3&#45;&gt;17 -->
<g id="edge17" class="edge"><title>3&#45;&gt;17</title>
<path fill="none" stroke="black" d="M1337.44,-111.41C1307.23,-97.4509 1262.77,-76.9128 1230.05,-61.7976"/>
<polygon fill="black" stroke="black" points="1231.27,-58.5079 1220.73,-57.4915 1228.34,-64.8626 1231.27,-58.5079"/>
<text text-anchor="middle" x="1315.19" y="-80.8" font-family="Times,serif" font-size="14.00">µ2(1&#45;µ1)</text>
</g>
<!-- 18 -->
<g id="node19" class="node"><title>18</title>
<ellipse fill="none" stroke="black" cx="1371.19" cy="-41" rx="83.3857" ry="18"/>
<text text-anchor="middle" x="1371.19" y="-37.3" font-family="Times,serif" font-size="14.00">[[0/1,1/1], [1/1,0/1]]</text>
</g>
<!-- 3&#45;&gt;18 -->
<g id="edge18" class="edge"><title>3&#45;&gt;18</title>
<path fill="none" stroke="black" d="M1371.19,-109.799C1371.19,-98.1626 1371.19,-82.5479 1371.19,-69.2368"/>
<polygon fill="black" stroke="black" points="1374.69,-69.1754 1371.19,-59.1754 1367.69,-69.1755 1374.69,-69.1754"/>
<text text-anchor="middle" x="1385.19" y="-80.8" font-family="Times,serif" font-size="14.00">µ1µ2</text>
</g>
<!-- 19 -->
<g id="node20" class="node"><title>19</title>
<ellipse fill="none" stroke="black" cx="1555.19" cy="-41" rx="83.3857" ry="18"/>
<text text-anchor="middle" x="1555.19" y="-37.3" font-family="Times,serif" font-size="14.00">[[0/1,0/1], [1/1,0/1]]</text>
</g>
<!-- 3&#45;&gt;19 -->
<g id="edge19" class="edge"><title>3&#45;&gt;19</title>
<path fill="none" stroke="black" d="M1404.94,-111.41C1435.16,-97.4509 1479.62,-76.9128 1512.34,-61.7976"/>
<polygon fill="black" stroke="black" points="1514.05,-64.8626 1521.66,-57.4915 1511.11,-58.5079 1514.05,-64.8626"/>
<text text-anchor="middle" x="1499.19" y="-80.8" font-family="Times,serif" font-size="14.00">µ1(1&#45;µ2)</text>
</g>
<!-- 20 -->
<g id="node21" class="node"><title>20</title>
<ellipse fill="none" stroke="black" cx="1739.19" cy="-41" rx="83.3857" ry="18"/>
<text text-anchor="middle" x="1739.19" y="-37.3" font-family="Times,serif" font-size="14.00">[[0/1,0/1], [0/1,0/1]]</text>
</g>
<!-- 4&#45;&gt;20 -->
<g id="edge20" class="edge"><title>4&#45;&gt;20</title>
<path fill="none" stroke="black" d="M2046.27,-115.686C2012.55,-109.205 1969.94,-100.658 1932.19,-92 1887.13,-81.6656 1836.55,-68.5044 1798.48,-58.2792"/>
<polygon fill="black" stroke="black" points="1799.16,-54.8356 1788.59,-55.6125 1797.33,-61.5944 1799.16,-54.8356"/>
<text text-anchor="middle" x="1966.19" y="-80.8" font-family="Times,serif" font-size="14.00">(1&#45;µ1)(1&#45;µ2)</text>
</g>
<!-- 21 -->
<g id="node22" class="node"><title>21</title>
<ellipse fill="none" stroke="black" cx="1923.19" cy="-41" rx="83.3857" ry="18"/>
<text text-anchor="middle" x="1923.19" y="-37.3" font-family="Times,serif" font-size="14.00">[[1/1,0/1], [0/1,1/1]]</text>
</g>
<!-- 4&#45;&gt;21 -->
<g id="edge21" class="edge"><title>4&#45;&gt;21</title>
<path fill="none" stroke="black" d="M2073.44,-111.41C2043.23,-97.4509 1998.77,-76.9128 1966.05,-61.7976"/>
<polygon fill="black" stroke="black" points="1967.27,-58.5079 1956.73,-57.4915 1964.34,-64.8626 1967.27,-58.5079"/>
<text text-anchor="middle" x="2041.19" y="-80.8" font-family="Times,serif" font-size="14.00">µ1µ2</text>
</g>
<!-- 22 -->
<g id="node23" class="node"><title>22</title>
<ellipse fill="none" stroke="black" cx="2107.19" cy="-41" rx="83.3857" ry="18"/>
<text text-anchor="middle" x="2107.19" y="-37.3" font-family="Times,serif" font-size="14.00">[[0/1,0/1], [0/1,1/1]]</text>
</g>
<!-- 4&#45;&gt;22 -->
<g id="edge22" class="edge"><title>4&#45;&gt;22</title>
<path fill="none" stroke="black" d="M2107.19,-109.799C2107.19,-98.1626 2107.19,-82.5479 2107.19,-69.2368"/>
<polygon fill="black" stroke="black" points="2110.69,-69.1754 2107.19,-59.1754 2103.69,-69.1755 2110.69,-69.1754"/>
<text text-anchor="middle" x="2131.19" y="-80.8" font-family="Times,serif" font-size="14.00">µ2(1&#45;µ1)</text>
</g>
<!-- 23 -->
<g id="node24" class="node"><title>23</title>
<ellipse fill="none" stroke="black" cx="2291.19" cy="-41" rx="83.3857" ry="18"/>
<text text-anchor="middle" x="2291.19" y="-37.3" font-family="Times,serif" font-size="14.00">[[1/1,0/1], [0/1,0/1]]</text>
</g>
<!-- 4&#45;&gt;23 -->
<g id="edge23" class="edge"><title>4&#45;&gt;23</title>
<path fill="none" stroke="black" d="M2140.94,-111.41C2171.16,-97.4509 2215.62,-76.9128 2248.34,-61.7976"/>
<polygon fill="black" stroke="black" points="2250.05,-64.8626 2257.66,-57.4915 2247.11,-58.5079 2250.05,-64.8626"/>
<text text-anchor="middle" x="2235.19" y="-80.8" font-family="Times,serif" font-size="14.00">µ1(1&#45;µ2)</text>
</g>
<!-- 24 -->
<g id="node25" class="node"><title>24</title>
<ellipse fill="none" stroke="black" cx="2475.19" cy="-41" rx="83.3857" ry="18"/>
<text text-anchor="middle" x="2475.19" y="-37.3" font-family="Times,serif" font-size="14.00">[[0/1,0/1], [0/1,1/1]]</text>
</g>
<!-- 5&#45;&gt;24 -->
<g id="edge24" class="edge"><title>5&#45;&gt;24</title>
<path fill="none" stroke="black" d="M2782.27,-115.686C2748.55,-109.205 2705.94,-100.658 2668.19,-92 2623.13,-81.6656 2572.55,-68.5044 2534.48,-58.2792"/>
<polygon fill="black" stroke="black" points="2535.16,-54.8356 2524.59,-55.6125 2533.33,-61.5944 2535.16,-54.8356"/>
<text text-anchor="middle" x="2702.19" y="-80.8" font-family="Times,serif" font-size="14.00">(1&#45;µ1)(1&#45;µ2)</text>
</g>
<!-- 25 -->
<g id="node26" class="node"><title>25</title>
<ellipse fill="none" stroke="black" cx="2659.19" cy="-41" rx="83.3857" ry="18"/>
<text text-anchor="middle" x="2659.19" y="-37.3" font-family="Times,serif" font-size="14.00">[[0/1,0/1], [1/1,1/1]]</text>
</g>
<!-- 5&#45;&gt;25 -->
<g id="edge25" class="edge"><title>5&#45;&gt;25</title>
<path fill="none" stroke="black" d="M2809.44,-111.41C2779.23,-97.4509 2734.77,-76.9128 2702.05,-61.7976"/>
<polygon fill="black" stroke="black" points="2703.27,-58.5079 2692.73,-57.4915 2700.34,-64.8626 2703.27,-58.5079"/>
<text text-anchor="middle" x="2787.19" y="-80.8" font-family="Times,serif" font-size="14.00">µ1(1&#45;µ2)</text>
</g>
<!-- 26 -->
<g id="node27" class="node"><title>26</title>
<ellipse fill="none" stroke="red" cx="2843.19" cy="-41" rx="83.3857" ry="18"/>
<text text-anchor="middle" x="2843.19" y="-37.3" font-family="Times,serif" font-size="14.00">[[0/1,1/1], [0/1,1/1]]</text>
</g>
<!-- 5&#45;&gt;26 -->
<g id="edge26" class="edge"><title>5&#45;&gt;26</title>
<path fill="none" stroke="black" d="M2843.19,-109.799C2843.19,-98.1626 2843.19,-82.5479 2843.19,-69.2368"/>
<polygon fill="black" stroke="black" points="2846.69,-69.1754 2843.19,-59.1754 2839.69,-69.1755 2846.69,-69.1754"/>
<text text-anchor="middle" x="2867.19" y="-80.8" font-family="Times,serif" font-size="14.00">µ2(1&#45;µ1)</text>
</g>
<!-- 27 -->
<g id="node28" class="node"><title>27</title>
<ellipse fill="none" stroke="black" cx="3027.19" cy="-41" rx="83.3857" ry="18"/>
<text text-anchor="middle" x="3027.19" y="-37.3" font-family="Times,serif" font-size="14.00">[[0/1,1/1], [1/1,1/1]]</text>
</g>
<!-- 5&#45;&gt;27 -->
<g id="edge27" class="edge"><title>5&#45;&gt;27</title>
<path fill="none" stroke="black" d="M2876.94,-111.41C2907.16,-97.4509 2951.62,-76.9128 2984.34,-61.7976"/>
<polygon fill="black" stroke="black" points="2986.05,-64.8626 2993.66,-57.4915 2983.11,-58.5079 2986.05,-64.8626"/>
<text text-anchor="middle" x="2961.19" y="-80.8" font-family="Times,serif" font-size="14.00">µ1µ2</text>
</g>
<!-- 28 -->
<g id="node29" class="node"><title>28</title>
<ellipse fill="none" stroke="black" cx="3211.19" cy="-41" rx="83.3857" ry="18"/>
<text text-anchor="middle" x="3211.19" y="-37.3" font-family="Times,serif" font-size="14.00">[[1/1,1/1], [1/1,0/1]]</text>
</g>
<!-- 6&#45;&gt;28 -->
<g id="edge28" class="edge"><title>6&#45;&gt;28</title>
<path fill="none" stroke="black" d="M3361.44,-111.41C3331.23,-97.4509 3286.77,-76.9128 3254.05,-61.7976"/>
<polygon fill="black" stroke="black" points="3255.27,-58.5079 3244.73,-57.4915 3252.34,-64.8626 3255.27,-58.5079"/>
<text text-anchor="middle" x="3339.19" y="-80.8" font-family="Times,serif" font-size="14.00">µ1(1&#45;µ2)</text>
</g>
<!-- 29 -->
<g id="node30" class="node"><title>29</title>
<ellipse fill="none" stroke="black" cx="3395.19" cy="-41" rx="83.3857" ry="18"/>
<text text-anchor="middle" x="3395.19" y="-37.3" font-family="Times,serif" font-size="14.00">[[1/1,1/1], [1/1,1/1]]</text>
</g>
<!-- 6&#45;&gt;29 -->
<g id="edge29" class="edge"><title>6&#45;&gt;29</title>
<path fill="none" stroke="black" d="M3395.19,-109.799C3395.19,-98.1626 3395.19,-82.5479 3395.19,-69.2368"/>
<polygon fill="black" stroke="black" points="3398.69,-69.1754 3395.19,-59.1754 3391.69,-69.1755 3398.69,-69.1754"/>
<text text-anchor="middle" x="3409.19" y="-80.8" font-family="Times,serif" font-size="14.00">µ1µ2</text>
</g>
<!-- 30 -->
<g id="node31" class="node"><title>30</title>
<ellipse fill="none" stroke="black" cx="3579.19" cy="-41" rx="83.3857" ry="18"/>
<text text-anchor="middle" x="3579.19" y="-37.3" font-family="Times,serif" font-size="14.00">[[0/1,1/1], [1/1,0/1]]</text>
</g>
<!-- 6&#45;&gt;30 -->
<g id="edge30" class="edge"><title>6&#45;&gt;30</title>
<path fill="none" stroke="black" d="M3428.94,-111.41C3459.16,-97.4509 3503.62,-76.9128 3536.34,-61.7976"/>
<polygon fill="black" stroke="black" points="3538.05,-64.8626 3545.66,-57.4915 3535.11,-58.5079 3538.05,-64.8626"/>
<text text-anchor="middle" x="3533.19" y="-80.8" font-family="Times,serif" font-size="14.00">(1&#45;µ1)(1&#45;µ2)</text>
</g>
<!-- 31 -->
<g id="node32" class="node"><title>31</title>
<ellipse fill="none" stroke="black" cx="3763.19" cy="-41" rx="83.3857" ry="18"/>
<text text-anchor="middle" x="3763.19" y="-37.3" font-family="Times,serif" font-size="14.00">[[0/1,1/1], [1/1,1/1]]</text>
</g>
<!-- 6&#45;&gt;31 -->
<g id="edge31" class="edge"><title>6&#45;&gt;31</title>
<path fill="none" stroke="black" d="M3456.47,-115.726C3490.39,-109.257 3533.24,-100.708 3571.19,-92 3616.03,-81.7119 3666.35,-68.5487 3704.22,-58.311"/>
<polygon fill="black" stroke="black" points="3705.33,-61.6373 3714.06,-55.6407 3703.49,-54.8815 3705.33,-61.6373"/>
<text text-anchor="middle" x="3654.19" y="-80.8" font-family="Times,serif" font-size="14.00">µ2(1&#45;µ1)</text>
</g>
<!-- 32 -->
<g id="node33" class="node"><title>32</title>
<ellipse fill="none" stroke="black" cx="3947.19" cy="-41" rx="83.3857" ry="18"/>
<text text-anchor="middle" x="3947.19" y="-37.3" font-family="Times,serif" font-size="14.00">[[0/1,0/1], [0/1,0/1]]</text>
</g>
<!-- 7&#45;&gt;32 -->
<g id="edge32" class="edge"><title>7&#45;&gt;32</title>
<path fill="none" stroke="black" d="M3796.94,-111.41C3827.16,-97.4509 3871.62,-76.9128 3904.34,-61.7976"/>
<polygon fill="black" stroke="black" points="3906.05,-64.8626 3913.66,-57.4915 3903.11,-58.5079 3906.05,-64.8626"/>
<text text-anchor="middle" x="3870.69" y="-80.8" font-family="Times,serif" font-size="14.00">1</text>
</g>
<!-- 33 -->
<g id="node34" class="node"><title>33</title>
<ellipse fill="none" stroke="black" cx="4131.19" cy="-41" rx="83.3857" ry="18"/>
<text text-anchor="middle" x="4131.19" y="-37.3" font-family="Times,serif" font-size="14.00">[[1/1,0/1], [1/1,1/1]]</text>
</g>
<!-- 8&#45;&gt;33 -->
<g id="edge33" class="edge"><title>8&#45;&gt;33</title>
<path fill="none" stroke="black" d="M4281.44,-111.41C4251.23,-97.4509 4206.77,-76.9128 4174.05,-61.7976"/>
<polygon fill="black" stroke="black" points="4175.27,-58.5079 4164.73,-57.4915 4172.34,-64.8626 4175.27,-58.5079"/>
<text text-anchor="middle" x="4248.19" y="-80.8" font-family="Times,serif" font-size="14.00">µ1µ2</text>
</g>
<!-- 34 -->
<g id="node35" class="node"><title>34</title>
<ellipse fill="none" stroke="black" cx="4315.19" cy="-41" rx="83.3857" ry="18"/>
<text text-anchor="middle" x="4315.19" y="-37.3" font-family="Times,serif" font-size="14.00">[[0/1,0/1], [1/1,1/1]]</text>
</g>
<!-- 8&#45;&gt;34 -->
<g id="edge34" class="edge"><title>8&#45;&gt;34</title>
<path fill="none" stroke="black" d="M4315.19,-109.799C4315.19,-98.1626 4315.19,-82.5479 4315.19,-69.2368"/>
<polygon fill="black" stroke="black" points="4318.69,-69.1754 4315.19,-59.1754 4311.69,-69.1755 4318.69,-69.1754"/>
<text text-anchor="middle" x="4339.19" y="-80.8" font-family="Times,serif" font-size="14.00">µ2(1&#45;µ1)</text>
</g>
<!-- 35 -->
<g id="node36" class="node"><title>35</title>
<ellipse fill="none" stroke="red" cx="4499.19" cy="-41" rx="83.3857" ry="18"/>
<text text-anchor="middle" x="4499.19" y="-37.3" font-family="Times,serif" font-size="14.00">[[1/1,0/1], [1/1,0/1]]</text>
</g>
<!-- 8&#45;&gt;35 -->
<g id="edge35" class="edge"><title>8&#45;&gt;35</title>
<path fill="none" stroke="black" d="M4348.94,-111.41C4379.16,-97.4509 4423.62,-76.9128 4456.34,-61.7976"/>
<polygon fill="black" stroke="black" points="4458.05,-64.8626 4465.66,-57.4915 4455.11,-58.5079 4458.05,-64.8626"/>
<text text-anchor="middle" x="4442.19" y="-80.8" font-family="Times,serif" font-size="14.00">µ1(1&#45;µ2)</text>
</g>
<!-- 36 -->
<g id="node37" class="node"><title>36</title>
<ellipse fill="none" stroke="black" cx="4683.19" cy="-41" rx="83.3857" ry="18"/>
<text text-anchor="middle" x="4683.19" y="-37.3" font-family="Times,serif" font-size="14.00">[[0/1,0/1], [1/1,0/1]]</text>
</g>
<!-- 8&#45;&gt;36 -->
<g id="edge36" class="edge"><title>8&#45;&gt;36</title>
<path fill="none" stroke="black" d="M4370.82,-114.56C4400.35,-107.923 4437.26,-99.5834 4470.19,-92 4520.4,-80.4397 4577.19,-67.0945 4619.5,-57.1004"/>
<polygon fill="black" stroke="black" points="4620.46,-60.4703 4629.38,-54.764 4618.85,-53.658 4620.46,-60.4703"/>
<text text-anchor="middle" x="4568.19" y="-80.8" font-family="Times,serif" font-size="14.00">(1&#45;µ1)(1&#45;µ2)</text>
</g>
<!-- 37 -->
<g id="node38" class="node"><title>37</title>
<ellipse fill="none" stroke="black" cx="4867.19" cy="-41" rx="83.3857" ry="18"/>
<text text-anchor="middle" x="4867.19" y="-37.3" font-family="Times,serif" font-size="14.00">[[1/1,0/1], [1/1,1/1]]</text>
</g>
<!-- 9&#45;&gt;37 -->
<g id="edge37" class="edge"><title>9&#45;&gt;37</title>
<path fill="none" stroke="black" d="M5017.44,-111.41C4987.23,-97.4509 4942.77,-76.9128 4910.05,-61.7976"/>
<polygon fill="black" stroke="black" points="4911.27,-58.5079 4900.73,-57.4915 4908.34,-64.8626 4911.27,-58.5079"/>
<text text-anchor="middle" x="4994.19" y="-80.8" font-family="Times,serif" font-size="14.00">µ1(1&#45;µ2)</text>
</g>
<!-- 38 -->
<g id="node39" class="node"><title>38</title>
<ellipse fill="none" stroke="black" cx="5051.19" cy="-41" rx="83.3857" ry="18"/>
<text text-anchor="middle" x="5051.19" y="-37.3" font-family="Times,serif" font-size="14.00">[[1/1,0/1], [0/1,1/1]]</text>
</g>
<!-- 9&#45;&gt;38 -->
<g id="edge38" class="edge"><title>9&#45;&gt;38</title>
<path fill="none" stroke="black" d="M5051.19,-109.799C5051.19,-98.1626 5051.19,-82.5479 5051.19,-69.2368"/>
<polygon fill="black" stroke="black" points="5054.69,-69.1754 5051.19,-59.1754 5047.69,-69.1755 5054.69,-69.1754"/>
<text text-anchor="middle" x="5085.19" y="-80.8" font-family="Times,serif" font-size="14.00">(1&#45;µ1)(1&#45;µ2)</text>
</g>
<!-- 39 -->
<g id="node40" class="node"><title>39</title>
<ellipse fill="none" stroke="black" cx="5235.19" cy="-41" rx="83.3857" ry="18"/>
<text text-anchor="middle" x="5235.19" y="-37.3" font-family="Times,serif" font-size="14.00">[[1/1,1/1], [1/1,1/1]]</text>
</g>
<!-- 9&#45;&gt;39 -->
<g id="edge39" class="edge"><title>9&#45;&gt;39</title>
<path fill="none" stroke="black" d="M5084.94,-111.41C5115.16,-97.4509 5159.62,-76.9128 5192.34,-61.7976"/>
<polygon fill="black" stroke="black" points="5194.05,-64.8626 5201.66,-57.4915 5191.11,-58.5079 5194.05,-64.8626"/>
<text text-anchor="middle" x="5168.19" y="-80.8" font-family="Times,serif" font-size="14.00">µ1µ2</text>
</g>
<!-- 40 -->
<g id="node41" class="node"><title>40</title>
<ellipse fill="none" stroke="black" cx="5419.19" cy="-41" rx="83.3857" ry="18"/>
<text text-anchor="middle" x="5419.19" y="-37.3" font-family="Times,serif" font-size="14.00">[[1/1,1/1], [0/1,1/1]]</text>
</g>
<!-- 9&#45;&gt;40 -->
<g id="edge40" class="edge"><title>9&#45;&gt;40</title>
<path fill="none" stroke="black" d="M5105.89,-114.366C5172.2,-99.049 5283.83,-73.2656 5354.39,-56.967"/>
<polygon fill="black" stroke="black" points="5355.54,-60.2943 5364.5,-54.6335 5353.97,-53.4739 5355.54,-60.2943"/>
<text text-anchor="middle" x="5281.19" y="-80.8" font-family="Times,serif" font-size="14.00">µ2(1&#45;µ1)</text>
</g>
<!-- 41 -->
<g id="node42" class="node"><title>41</title>
<ellipse fill="none" stroke="black" cx="5603.19" cy="-41" rx="83.3857" ry="18"/>
<text text-anchor="middle" x="5603.19" y="-37.3" font-family="Times,serif" font-size="14.00">[[0/1,1/1], [0/1,0/1]]</text>
</g>
<!-- 10&#45;&gt;41 -->
<g id="edge41" class="edge"><title>10&#45;&gt;41</title>
<path fill="none" stroke="black" d="M5753.44,-111.41C5723.23,-97.4509 5678.77,-76.9128 5646.05,-61.7976"/>
<polygon fill="black" stroke="black" points="5647.27,-58.5079 5636.73,-57.4915 5644.34,-64.8626 5647.27,-58.5079"/>
<text text-anchor="middle" x="5740.19" y="-80.8" font-family="Times,serif" font-size="14.00">(1&#45;µ1)(1&#45;µ2)</text>
</g>
<!-- 42 -->
<g id="node43" class="node"><title>42</title>
<ellipse fill="none" stroke="black" cx="5787.19" cy="-41" rx="83.3857" ry="18"/>
<text text-anchor="middle" x="5787.19" y="-37.3" font-family="Times,serif" font-size="14.00">[[1/1,1/1], [0/1,0/1]]</text>
</g>
<!-- 10&#45;&gt;42 -->
<g id="edge42" class="edge"><title>10&#45;&gt;42</title>
<path fill="none" stroke="black" d="M5787.19,-109.799C5787.19,-98.1626 5787.19,-82.5479 5787.19,-69.2368"/>
<polygon fill="black" stroke="black" points="5790.69,-69.1754 5787.19,-59.1754 5783.69,-69.1755 5790.69,-69.1754"/>
<text text-anchor="middle" x="5811.19" y="-80.8" font-family="Times,serif" font-size="14.00">µ1(1&#45;µ2)</text>
</g>
<!-- 43 -->
<g id="node44" class="node"><title>43</title>
<ellipse fill="none" stroke="red" cx="5971.19" cy="-41" rx="83.3857" ry="18"/>
<text text-anchor="middle" x="5971.19" y="-37.3" font-family="Times,serif" font-size="14.00">[[0/1,1/1], [0/1,1/1]]</text>
</g>
<!-- 10&#45;&gt;43 -->
<g id="edge43" class="edge"><title>10&#45;&gt;43</title>
<path fill="none" stroke="black" d="M5820.94,-111.41C5851.16,-97.4509 5895.62,-76.9128 5928.34,-61.7976"/>
<polygon fill="black" stroke="black" points="5930.05,-64.8626 5937.66,-57.4915 5927.11,-58.5079 5930.05,-64.8626"/>
<text text-anchor="middle" x="5914.19" y="-80.8" font-family="Times,serif" font-size="14.00">µ2(1&#45;µ1)</text>
</g>
<!-- 44 -->
<g id="node45" class="node"><title>44</title>
<ellipse fill="none" stroke="black" cx="6155.19" cy="-41" rx="83.3857" ry="18"/>
<text text-anchor="middle" x="6155.19" y="-37.3" font-family="Times,serif" font-size="14.00">[[1/1,1/1], [0/1,1/1]]</text>
</g>
<!-- 10&#45;&gt;44 -->
<g id="edge44" class="edge"><title>10&#45;&gt;44</title>
<path fill="none" stroke="black" d="M5842.82,-114.56C5872.35,-107.923 5909.26,-99.5834 5942.19,-92 5992.4,-80.4397 6049.19,-67.0945 6091.5,-57.1004"/>
<polygon fill="black" stroke="black" points="6092.46,-60.4703 6101.38,-54.764 6090.85,-53.658 6092.46,-60.4703"/>
<text text-anchor="middle" x="6020.19" y="-80.8" font-family="Times,serif" font-size="14.00">µ1µ2</text>
</g>
</g>
</svg>
