<?xml version="1.0" encoding="UTF-8" standalone="no"?>
<!DOCTYPE svg PUBLIC "-//W3C//DTD SVG 1.1//EN"
 "http://www.w3.org/Graphics/SVG/1.1/DTD/svg11.dtd">
<!-- Generated by graphviz version 2.38.0 (20140413.2041)
 -->
<!-- Title: %3 Pages: 1 -->
<svg width="4774pt" height="241pt"
 viewBox="0.00 0.00 4773.78 241.00" xmlns="http://www.w3.org/2000/svg" xmlns:xlink="http://www.w3.org/1999/xlink">
<g id="graph0" class="graph" transform="scale(1 1) rotate(0) translate(4 237)">
<title>%3</title>
<polygon fill="white" stroke="none" points="-4,4 -4,-237 4769.78,-237 4769.78,4 -4,4"/>
<text text-anchor="middle" x="2382.89" y="-7.8" font-family="Times,serif" font-size="14.00">Tree exploration for K=3 arms and M=2 players using Selfish UCB U and RandomNewRank, for depth=2 : 4 leafs, 0 absorbing</text>
<!-- 0 -->
<g id="node1" class="node"><title>0</title>
<ellipse fill="none" stroke="green" cx="2382.39" cy="-215" rx="140.275" ry="18"/>
<text text-anchor="middle" x="2382.39" y="-211.3" font-family="Times,serif" font-size="14.00">[[2/4,1/3,0/1], [2/4,1/3,0/1]] r=[1, 1]</text>
</g>
<!-- 1 -->
<g id="node2" class="node"><title>1</title>
<ellipse fill="none" stroke="black" cx="738.388" cy="-128" rx="140.275" ry="18"/>
<text text-anchor="middle" x="738.388" y="-124.3" font-family="Times,serif" font-size="14.00">[[2/4,1/3,0/2], [2/4,1/3,0/2]] r=[2, 2]</text>
</g>
<!-- 0&#45;&gt;1 -->
<g id="edge1" class="edge"><title>0&#45;&gt;1</title>
<path fill="none" stroke="black" d="M2254.75,-207.401C1951.37,-191.715 1189.14,-152.305 875.982,-136.114"/>
<polygon fill="black" stroke="black" points="876.108,-132.616 865.94,-135.595 875.746,-139.607 876.108,-132.616"/>
<text text-anchor="middle" x="1668.39" y="-167.8" font-family="Times,serif" font-size="14.00">1/4</text>
</g>
<!-- 2 -->
<g id="node3" class="node"><title>2</title>
<ellipse fill="none" stroke="black" cx="1934.39" cy="-128" rx="140.275" ry="18"/>
<text text-anchor="middle" x="1934.39" y="-124.3" font-family="Times,serif" font-size="14.00">[[2/4,1/3,0/2], [2/4,1/3,0/2]] r=[1, 2]</text>
</g>
<!-- 0&#45;&gt;2 -->
<g id="edge2" class="edge"><title>0&#45;&gt;2</title>
<path fill="none" stroke="black" d="M2307.4,-199.773C2227.93,-184.695 2102.67,-160.929 2019.54,-145.156"/>
<polygon fill="black" stroke="black" points="2020.09,-141.699 2009.62,-143.274 2018.79,-148.576 2020.09,-141.699"/>
<text text-anchor="middle" x="2194.39" y="-167.8" font-family="Times,serif" font-size="14.00">1/4</text>
</g>
<!-- 3 -->
<g id="node4" class="node"><title>3</title>
<ellipse fill="none" stroke="black" cx="2831.39" cy="-128" rx="140.275" ry="18"/>
<text text-anchor="middle" x="2831.39" y="-124.3" font-family="Times,serif" font-size="14.00">[[2/4,1/3,0/2], [2/4,1/3,0/2]] r=[1, 1]</text>
</g>
<!-- 0&#45;&gt;3 -->
<g id="edge3" class="edge"><title>0&#45;&gt;3</title>
<path fill="none" stroke="black" d="M2457.54,-199.773C2537.19,-184.695 2662.73,-160.929 2746.04,-145.156"/>
<polygon fill="black" stroke="black" points="2746.82,-148.573 2755.99,-143.274 2745.51,-141.695 2746.82,-148.573"/>
<text text-anchor="middle" x="2643.39" y="-167.8" font-family="Times,serif" font-size="14.00">1/4</text>
</g>
<!-- 4 -->
<g id="node5" class="node"><title>4</title>
<ellipse fill="none" stroke="black" cx="4027.39" cy="-128" rx="140.275" ry="18"/>
<text text-anchor="middle" x="4027.39" y="-124.3" font-family="Times,serif" font-size="14.00">[[2/4,1/3,0/2], [2/4,1/3,0/2]] r=[2, 1]</text>
</g>
<!-- 0&#45;&gt;4 -->
<g id="edge4" class="edge"><title>0&#45;&gt;4</title>
<path fill="none" stroke="black" d="M2509.76,-207.419C2813.16,-191.741 3576.59,-152.293 3889.92,-136.103"/>
<polygon fill="black" stroke="black" points="3890.16,-139.595 3899.97,-135.584 3889.8,-132.605 3890.16,-139.595"/>
<text text-anchor="middle" x="3312.39" y="-167.8" font-family="Times,serif" font-size="14.00">1/4</text>
</g>
<!-- 5 -->
<g id="node6" class="node"><title>5</title>
<ellipse fill="none" stroke="black" cx="140.388" cy="-41" rx="140.275" ry="18"/>
<text text-anchor="middle" x="140.388" y="-37.3" font-family="Times,serif" font-size="14.00">[[2/5,1/3,0/2], [2/5,1/3,0/2]] r=[2, 2]</text>
</g>
<!-- 1&#45;&gt;5 -->
<g id="edge5" class="edge"><title>1&#45;&gt;5</title>
<path fill="none" stroke="black" d="M648.213,-114.183C538.785,-98.6285 354.822,-72.4799 240.923,-56.2901"/>
<polygon fill="black" stroke="black" points="241.199,-52.7942 230.806,-54.8521 240.213,-59.7246 241.199,-52.7942"/>
<text text-anchor="middle" x="484.388" y="-80.8" font-family="Times,serif" font-size="14.00">1/4</text>
</g>
<!-- 6 -->
<g id="node7" class="node"><title>6</title>
<ellipse fill="none" stroke="black" cx="439.388" cy="-41" rx="140.275" ry="18"/>
<text text-anchor="middle" x="439.388" y="-37.3" font-family="Times,serif" font-size="14.00">[[2/5,1/3,0/2], [2/5,1/3,0/2]] r=[1, 2]</text>
</g>
<!-- 1&#45;&gt;6 -->
<g id="edge6" class="edge"><title>1&#45;&gt;6</title>
<path fill="none" stroke="black" d="M683.546,-111.41C632.917,-97.0167 557.682,-75.6289 504.124,-60.4033"/>
<polygon fill="black" stroke="black" points="504.963,-57.0031 494.387,-57.6352 503.048,-63.7363 504.963,-57.0031"/>
<text text-anchor="middle" x="616.388" y="-80.8" font-family="Times,serif" font-size="14.00">1/4</text>
</g>
<!-- 7 -->
<g id="node8" class="node"><title>7</title>
<ellipse fill="none" stroke="black" cx="738.388" cy="-41" rx="140.275" ry="18"/>
<text text-anchor="middle" x="738.388" y="-37.3" font-family="Times,serif" font-size="14.00">[[2/5,1/3,0/2], [2/5,1/3,0/2]] r=[1, 1]</text>
</g>
<!-- 1&#45;&gt;7 -->
<g id="edge7" class="edge"><title>1&#45;&gt;7</title>
<path fill="none" stroke="black" d="M738.388,-109.799C738.388,-98.1626 738.388,-82.5479 738.388,-69.2368"/>
<polygon fill="black" stroke="black" points="741.888,-69.1754 738.388,-59.1754 734.888,-69.1755 741.888,-69.1754"/>
<text text-anchor="middle" x="747.388" y="-80.8" font-family="Times,serif" font-size="14.00">1/4</text>
</g>
<!-- 8 -->
<g id="node9" class="node"><title>8</title>
<ellipse fill="none" stroke="black" cx="1037.39" cy="-41" rx="140.275" ry="18"/>
<text text-anchor="middle" x="1037.39" y="-37.3" font-family="Times,serif" font-size="14.00">[[2/5,1/3,0/2], [2/5,1/3,0/2]] r=[2, 1]</text>
</g>
<!-- 1&#45;&gt;8 -->
<g id="edge8" class="edge"><title>1&#45;&gt;8</title>
<path fill="none" stroke="black" d="M793.229,-111.41C843.858,-97.0167 919.093,-75.6289 972.651,-60.4033"/>
<polygon fill="black" stroke="black" points="973.727,-63.7363 982.389,-57.6352 971.813,-57.0031 973.727,-63.7363"/>
<text text-anchor="middle" x="915.388" y="-80.8" font-family="Times,serif" font-size="14.00">1/4</text>
</g>
<!-- 9 -->
<g id="node10" class="node"><title>9</title>
<ellipse fill="none" stroke="black" cx="1336.39" cy="-41" rx="140.275" ry="18"/>
<text text-anchor="middle" x="1336.39" y="-37.3" font-family="Times,serif" font-size="14.00">[[2/5,1/3,0/2], [2/5,1/3,0/2]] r=[2, 2]</text>
</g>
<!-- 2&#45;&gt;9 -->
<g id="edge9" class="edge"><title>2&#45;&gt;9</title>
<path fill="none" stroke="black" d="M1844.21,-114.183C1734.79,-98.6285 1550.82,-72.4799 1436.92,-56.2901"/>
<polygon fill="black" stroke="black" points="1437.2,-52.7942 1426.81,-54.8521 1436.21,-59.7246 1437.2,-52.7942"/>
<text text-anchor="middle" x="1680.39" y="-80.8" font-family="Times,serif" font-size="14.00">1/4</text>
</g>
<!-- 10 -->
<g id="node11" class="node"><title>10</title>
<ellipse fill="none" stroke="black" cx="1635.39" cy="-41" rx="140.275" ry="18"/>
<text text-anchor="middle" x="1635.39" y="-37.3" font-family="Times,serif" font-size="14.00">[[2/5,1/3,0/2], [2/5,1/3,0/2]] r=[1, 2]</text>
</g>
<!-- 2&#45;&gt;10 -->
<g id="edge10" class="edge"><title>2&#45;&gt;10</title>
<path fill="none" stroke="black" d="M1879.55,-111.41C1828.92,-97.0167 1753.68,-75.6289 1700.12,-60.4033"/>
<polygon fill="black" stroke="black" points="1700.96,-57.0031 1690.39,-57.6352 1699.05,-63.7363 1700.96,-57.0031"/>
<text text-anchor="middle" x="1812.39" y="-80.8" font-family="Times,serif" font-size="14.00">1/4</text>
</g>
<!-- 11 -->
<g id="node12" class="node"><title>11</title>
<ellipse fill="none" stroke="black" cx="1934.39" cy="-41" rx="140.275" ry="18"/>
<text text-anchor="middle" x="1934.39" y="-37.3" font-family="Times,serif" font-size="14.00">[[2/5,1/3,0/2], [2/5,1/3,0/2]] r=[1, 1]</text>
</g>
<!-- 2&#45;&gt;11 -->
<g id="edge11" class="edge"><title>2&#45;&gt;11</title>
<path fill="none" stroke="black" d="M1934.39,-109.799C1934.39,-98.1626 1934.39,-82.5479 1934.39,-69.2368"/>
<polygon fill="black" stroke="black" points="1937.89,-69.1754 1934.39,-59.1754 1930.89,-69.1755 1937.89,-69.1754"/>
<text text-anchor="middle" x="1943.39" y="-80.8" font-family="Times,serif" font-size="14.00">1/4</text>
</g>
<!-- 12 -->
<g id="node13" class="node"><title>12</title>
<ellipse fill="none" stroke="black" cx="2233.39" cy="-41" rx="140.275" ry="18"/>
<text text-anchor="middle" x="2233.39" y="-37.3" font-family="Times,serif" font-size="14.00">[[2/5,1/3,0/2], [2/5,1/3,0/2]] r=[2, 1]</text>
</g>
<!-- 2&#45;&gt;12 -->
<g id="edge12" class="edge"><title>2&#45;&gt;12</title>
<path fill="none" stroke="black" d="M1989.23,-111.41C2039.86,-97.0167 2115.09,-75.6289 2168.65,-60.4033"/>
<polygon fill="black" stroke="black" points="2169.73,-63.7363 2178.39,-57.6352 2167.81,-57.0031 2169.73,-63.7363"/>
<text text-anchor="middle" x="2111.39" y="-80.8" font-family="Times,serif" font-size="14.00">1/4</text>
</g>
<!-- 13 -->
<g id="node14" class="node"><title>13</title>
<ellipse fill="none" stroke="black" cx="2532.39" cy="-41" rx="140.275" ry="18"/>
<text text-anchor="middle" x="2532.39" y="-37.3" font-family="Times,serif" font-size="14.00">[[2/5,1/3,0/2], [2/5,1/3,0/2]] r=[2, 2]</text>
</g>
<!-- 3&#45;&gt;13 -->
<g id="edge13" class="edge"><title>3&#45;&gt;13</title>
<path fill="none" stroke="black" d="M2776.55,-111.41C2725.92,-97.0167 2650.68,-75.6289 2597.12,-60.4033"/>
<polygon fill="black" stroke="black" points="2597.96,-57.0031 2587.39,-57.6352 2596.05,-63.7363 2597.96,-57.0031"/>
<text text-anchor="middle" x="2709.39" y="-80.8" font-family="Times,serif" font-size="14.00">1/4</text>
</g>
<!-- 14 -->
<g id="node15" class="node"><title>14</title>
<ellipse fill="none" stroke="black" cx="2831.39" cy="-41" rx="140.275" ry="18"/>
<text text-anchor="middle" x="2831.39" y="-37.3" font-family="Times,serif" font-size="14.00">[[2/5,1/3,0/2], [2/5,1/3,0/2]] r=[1, 2]</text>
</g>
<!-- 3&#45;&gt;14 -->
<g id="edge14" class="edge"><title>3&#45;&gt;14</title>
<path fill="none" stroke="black" d="M2831.39,-109.799C2831.39,-98.1626 2831.39,-82.5479 2831.39,-69.2368"/>
<polygon fill="black" stroke="black" points="2834.89,-69.1754 2831.39,-59.1754 2827.89,-69.1755 2834.89,-69.1754"/>
<text text-anchor="middle" x="2840.39" y="-80.8" font-family="Times,serif" font-size="14.00">1/4</text>
</g>
<!-- 15 -->
<g id="node16" class="node"><title>15</title>
<ellipse fill="none" stroke="black" cx="3130.39" cy="-41" rx="140.275" ry="18"/>
<text text-anchor="middle" x="3130.39" y="-37.3" font-family="Times,serif" font-size="14.00">[[2/5,1/3,0/2], [2/5,1/3,0/2]] r=[1, 1]</text>
</g>
<!-- 3&#45;&gt;15 -->
<g id="edge15" class="edge"><title>3&#45;&gt;15</title>
<path fill="none" stroke="black" d="M2886.23,-111.41C2936.86,-97.0167 3012.09,-75.6289 3065.65,-60.4033"/>
<polygon fill="black" stroke="black" points="3066.73,-63.7363 3075.39,-57.6352 3064.81,-57.0031 3066.73,-63.7363"/>
<text text-anchor="middle" x="3008.39" y="-80.8" font-family="Times,serif" font-size="14.00">1/4</text>
</g>
<!-- 16 -->
<g id="node17" class="node"><title>16</title>
<ellipse fill="none" stroke="black" cx="3429.39" cy="-41" rx="140.275" ry="18"/>
<text text-anchor="middle" x="3429.39" y="-37.3" font-family="Times,serif" font-size="14.00">[[2/5,1/3,0/2], [2/5,1/3,0/2]] r=[2, 1]</text>
</g>
<!-- 3&#45;&gt;16 -->
<g id="edge16" class="edge"><title>3&#45;&gt;16</title>
<path fill="none" stroke="black" d="M2921.56,-114.183C3030.99,-98.6285 3214.95,-72.4799 3328.85,-56.2901"/>
<polygon fill="black" stroke="black" points="3329.56,-59.7246 3338.97,-54.8521 3328.58,-52.7942 3329.56,-59.7246"/>
<text text-anchor="middle" x="3175.39" y="-80.8" font-family="Times,serif" font-size="14.00">1/4</text>
</g>
<!-- 17 -->
<g id="node18" class="node"><title>17</title>
<ellipse fill="none" stroke="black" cx="3728.39" cy="-41" rx="140.275" ry="18"/>
<text text-anchor="middle" x="3728.39" y="-37.3" font-family="Times,serif" font-size="14.00">[[2/5,1/3,0/2], [2/5,1/3,0/2]] r=[2, 2]</text>
</g>
<!-- 4&#45;&gt;17 -->
<g id="edge17" class="edge"><title>4&#45;&gt;17</title>
<path fill="none" stroke="black" d="M3972.55,-111.41C3921.92,-97.0167 3846.68,-75.6289 3793.12,-60.4033"/>
<polygon fill="black" stroke="black" points="3793.96,-57.0031 3783.39,-57.6352 3792.05,-63.7363 3793.96,-57.0031"/>
<text text-anchor="middle" x="3905.39" y="-80.8" font-family="Times,serif" font-size="14.00">1/4</text>
</g>
<!-- 18 -->
<g id="node19" class="node"><title>18</title>
<ellipse fill="none" stroke="black" cx="4027.39" cy="-41" rx="140.275" ry="18"/>
<text text-anchor="middle" x="4027.39" y="-37.3" font-family="Times,serif" font-size="14.00">[[2/5,1/3,0/2], [2/5,1/3,0/2]] r=[1, 2]</text>
</g>
<!-- 4&#45;&gt;18 -->
<g id="edge18" class="edge"><title>4&#45;&gt;18</title>
<path fill="none" stroke="black" d="M4027.39,-109.799C4027.39,-98.1626 4027.39,-82.5479 4027.39,-69.2368"/>
<polygon fill="black" stroke="black" points="4030.89,-69.1754 4027.39,-59.1754 4023.89,-69.1755 4030.89,-69.1754"/>
<text text-anchor="middle" x="4036.39" y="-80.8" font-family="Times,serif" font-size="14.00">1/4</text>
</g>
<!-- 19 -->
<g id="node20" class="node"><title>19</title>
<ellipse fill="none" stroke="black" cx="4326.39" cy="-41" rx="140.275" ry="18"/>
<text text-anchor="middle" x="4326.39" y="-37.3" font-family="Times,serif" font-size="14.00">[[2/5,1/3,0/2], [2/5,1/3,0/2]] r=[1, 1]</text>
</g>
<!-- 4&#45;&gt;19 -->
<g id="edge19" class="edge"><title>4&#45;&gt;19</title>
<path fill="none" stroke="black" d="M4082.23,-111.41C4132.86,-97.0167 4208.09,-75.6289 4261.65,-60.4033"/>
<polygon fill="black" stroke="black" points="4262.73,-63.7363 4271.39,-57.6352 4260.81,-57.0031 4262.73,-63.7363"/>
<text text-anchor="middle" x="4204.39" y="-80.8" font-family="Times,serif" font-size="14.00">1/4</text>
</g>
<!-- 20 -->
<g id="node21" class="node"><title>20</title>
<ellipse fill="none" stroke="black" cx="4625.39" cy="-41" rx="140.275" ry="18"/>
<text text-anchor="middle" x="4625.39" y="-37.3" font-family="Times,serif" font-size="14.00">[[2/5,1/3,0/2], [2/5,1/3,0/2]] r=[2, 1]</text>
</g>
<!-- 4&#45;&gt;20 -->
<g id="edge20" class="edge"><title>4&#45;&gt;20</title>
<path fill="none" stroke="black" d="M4117.56,-114.183C4226.99,-98.6285 4410.95,-72.4799 4524.85,-56.2901"/>
<polygon fill="black" stroke="black" points="4525.56,-59.7246 4534.97,-54.8521 4524.58,-52.7942 4525.56,-59.7246"/>
<text text-anchor="middle" x="4371.39" y="-80.8" font-family="Times,serif" font-size="14.00">1/4</text>
</g>
</g>
</svg>
