<?xml version="1.0" encoding="UTF-8" standalone="no"?>
<!DOCTYPE svg PUBLIC "-//W3C//DTD SVG 1.1//EN"
 "http://www.w3.org/Graphics/SVG/1.1/DTD/svg11.dtd">
<!-- Generated by graphviz version 2.38.0 (20140413.2041)
 -->
<!-- Title: %3 Pages: 1 -->
<svg width="1186pt" height="154pt"
 viewBox="0.00 0.00 1185.78 154.00" xmlns="http://www.w3.org/2000/svg" xmlns:xlink="http://www.w3.org/1999/xlink">
<g id="graph0" class="graph" transform="scale(1 1) rotate(0) translate(4 150)">
<title>%3</title>
<polygon fill="white" stroke="none" points="-4,4 -4,-150 1181.78,-150 1181.78,4 -4,4"/>
<text text-anchor="middle" x="588.888" y="-7.8" font-family="Times,serif" font-size="14.00">Tree exploration for K=3 arms and M=2 players using Selfish UCB U and RandomNewRank, for depth=2 : 4 leafs, 0 absorbing</text>
<!-- 0 -->
<g id="node1" class="node"><title>0</title>
<ellipse fill="none" stroke="green" cx="588.388" cy="-128" rx="140.275" ry="18"/>
<text text-anchor="middle" x="588.388" y="-124.3" font-family="Times,serif" font-size="14.00">[[2/4,1/3,0/1], [2/4,1/3,0/1]] r=[1, 1]</text>
</g>
<!-- 1 -->
<g id="node2" class="node"><title>1</title>
<ellipse fill="none" stroke="black" cx="140.388" cy="-41" rx="140.275" ry="18"/>
<text text-anchor="middle" x="140.388" y="-37.3" font-family="Times,serif" font-size="14.00">[[2/5,1/3,0/2], [2/5,1/3,0/2]] r=[2, 2]</text>
</g>
<!-- 0&#45;&gt;1 -->
<g id="edge1" class="edge"><title>0&#45;&gt;1</title>
<path fill="none" stroke="black" d="M513.402,-112.773C433.935,-97.6953 308.673,-73.9291 225.541,-58.1563"/>
<polygon fill="black" stroke="black" points="226.094,-54.699 215.617,-56.2735 224.79,-61.5763 226.094,-54.699"/>
<text text-anchor="middle" x="400.388" y="-80.8" font-family="Times,serif" font-size="14.00">1/4</text>
</g>
<!-- 2 -->
<g id="node3" class="node"><title>2</title>
<ellipse fill="none" stroke="black" cx="439.388" cy="-41" rx="140.275" ry="18"/>
<text text-anchor="middle" x="439.388" y="-37.3" font-family="Times,serif" font-size="14.00">[[2/5,1/3,0/2], [2/5,1/3,0/2]] r=[1, 2]</text>
</g>
<!-- 0&#45;&gt;2 -->
<g id="edge2" class="edge"><title>0&#45;&gt;2</title>
<path fill="none" stroke="black" d="M558.95,-110.207C535.61,-96.8918 502.817,-78.1848 477.477,-63.7291"/>
<polygon fill="black" stroke="black" points="478.93,-60.5286 468.51,-58.6135 475.462,-66.6088 478.93,-60.5286"/>
<text text-anchor="middle" x="532.388" y="-80.8" font-family="Times,serif" font-size="14.00">1/4</text>
</g>
<!-- 3 -->
<g id="node4" class="node"><title>3</title>
<ellipse fill="none" stroke="black" cx="738.388" cy="-41" rx="140.275" ry="18"/>
<text text-anchor="middle" x="738.388" y="-37.3" font-family="Times,serif" font-size="14.00">[[2/5,1/3,0/2], [2/5,1/3,0/2]] r=[1, 1]</text>
</g>
<!-- 0&#45;&gt;3 -->
<g id="edge3" class="edge"><title>0&#45;&gt;3</title>
<path fill="none" stroke="black" d="M618.023,-110.207C641.52,-96.8918 674.532,-78.1848 700.042,-63.7291"/>
<polygon fill="black" stroke="black" points="702.095,-66.5888 709.07,-58.6135 698.644,-60.4986 702.095,-66.5888"/>
<text text-anchor="middle" x="681.388" y="-80.8" font-family="Times,serif" font-size="14.00">1/4</text>
</g>
<!-- 4 -->
<g id="node5" class="node"><title>4</title>
<ellipse fill="none" stroke="black" cx="1037.39" cy="-41" rx="140.275" ry="18"/>
<text text-anchor="middle" x="1037.39" y="-37.3" font-family="Times,serif" font-size="14.00">[[2/5,1/3,0/2], [2/5,1/3,0/2]] r=[2, 1]</text>
</g>
<!-- 0&#45;&gt;4 -->
<g id="edge4" class="edge"><title>0&#45;&gt;4</title>
<path fill="none" stroke="black" d="M663.54,-112.773C743.185,-97.6953 868.727,-73.9291 952.044,-58.1563"/>
<polygon fill="black" stroke="black" points="952.815,-61.5726 961.99,-56.2735 951.513,-54.6947 952.815,-61.5726"/>
<text text-anchor="middle" x="849.388" y="-80.8" font-family="Times,serif" font-size="14.00">1/4</text>
</g>
</g>
</svg>
