<?xml version="1.0" encoding="UTF-8" standalone="no"?>
<!DOCTYPE svg PUBLIC "-//W3C//DTD SVG 1.1//EN"
 "http://www.w3.org/Graphics/SVG/1.1/DTD/svg11.dtd">
<!-- Generated by graphviz version 2.38.0 (20140413.2041)
 -->
<!-- Title: %3 Pages: 1 -->
<svg width="6987pt" height="154pt"
 viewBox="0.00 0.00 6987.17 154.00" xmlns="http://www.w3.org/2000/svg" xmlns:xlink="http://www.w3.org/1999/xlink">
<g id="graph0" class="graph" transform="scale(1 1) rotate(0) translate(4 150)">
<title>%3</title>
<polygon fill="white" stroke="none" points="-4,4 -4,-150 6983.17,-150 6983.17,4 -4,4"/>
<text text-anchor="middle" x="3489.58" y="-7.8" font-family="Times,serif" font-size="14.00">Tree exploration for K=2 arms and M=2 players using TopBestMC UCB U and TopBestMC RandomNewChosenArm, for depth=1 : 24 leafs, 0 absorbing</text>
<!-- 0 -->
<g id="node1" class="node"><title>0</title>
<ellipse fill="none" stroke="green" cx="3624.58" cy="-128" rx="177.369" ry="18"/>
<text text-anchor="middle" x="3624.58" y="-124.3" font-family="Times,serif" font-size="14.00">[[0/0,0/0], [0/0,0/0]] r=[(&#45;1, False), (&#45;1, False)]</text>
</g>
<!-- 1 -->
<g id="node2" class="node"><title>1</title>
<ellipse fill="none" stroke="black" cx="171.585" cy="-41" rx="171.67" ry="18"/>
<text text-anchor="middle" x="171.585" y="-37.3" font-family="Times,serif" font-size="14.00">[[0/1,0/0], [0/1,0/0]] r=[(1, False), (0, False)]</text>
</g>
<!-- 0&#45;&gt;1 -->
<g id="edge1" class="edge"><title>0&#45;&gt;1</title>
<path fill="none" stroke="black" d="M3447.61,-126.374C2909.15,-124.224 1295.45,-115.91 770.585,-92 606.957,-84.5459 418.796,-67.4359 297.7,-55.3129"/>
<polygon fill="black" stroke="black" points="297.948,-51.8203 287.648,-54.3026 297.248,-58.7852 297.948,-51.8203"/>
<text text-anchor="middle" x="783.085" y="-80.8" font-family="Times,serif" font-size="14.00">1/16</text>
</g>
<!-- 2 -->
<g id="node3" class="node"><title>2</title>
<ellipse fill="none" stroke="black" cx="474.585" cy="-41" rx="113.18" ry="18"/>
<text text-anchor="middle" x="474.585" y="-37.3" font-family="Times,serif" font-size="14.00">[[0/0,0/1], [1/1,0/0]] r=[1, 0]</text>
</g>
<!-- 0&#45;&gt;2 -->
<g id="edge2" class="edge"><title>0&#45;&gt;2</title>
<path fill="none" stroke="black" d="M3446.92,-127.643C3035.04,-128.452 1983.09,-126.612 1104.58,-92 878.507,-83.0927 821.67,-81.9616 596.585,-59 585.997,-57.9199 574.916,-56.6174 563.932,-55.2196"/>
<polygon fill="black" stroke="black" points="564.258,-51.7326 553.89,-53.9128 563.355,-58.6741 564.258,-51.7326"/>
<text text-anchor="middle" x="1133.58" y="-80.8" font-family="Times,serif" font-size="14.00">µ1(1&#45;µ2)/8</text>
</g>
<!-- 3 -->
<g id="node4" class="node"><title>3</title>
<ellipse fill="none" stroke="black" cx="777.585" cy="-41" rx="171.67" ry="18"/>
<text text-anchor="middle" x="777.585" y="-37.3" font-family="Times,serif" font-size="14.00">[[0/0,0/1], [0/0,0/1]] r=[(0, False), (0, False)]</text>
</g>
<!-- 0&#45;&gt;3 -->
<g id="edge3" class="edge"><title>0&#45;&gt;3</title>
<path fill="none" stroke="black" d="M3448.5,-125.666C2992.98,-121.986 1783.48,-110.712 1382.58,-92 1217.34,-84.287 1027.29,-67.2355 904.972,-55.1966"/>
<polygon fill="black" stroke="black" points="905.115,-51.6938 894.819,-54.1935 904.427,-58.6598 905.115,-51.6938"/>
<text text-anchor="middle" x="1395.08" y="-80.8" font-family="Times,serif" font-size="14.00">1/16</text>
</g>
<!-- 4 -->
<g id="node5" class="node"><title>4</title>
<ellipse fill="none" stroke="black" cx="1080.58" cy="-41" rx="113.18" ry="18"/>
<text text-anchor="middle" x="1080.58" y="-37.3" font-family="Times,serif" font-size="14.00">[[0/0,0/1], [0/1,0/0]] r=[1, 0]</text>
</g>
<!-- 0&#45;&gt;4 -->
<g id="edge4" class="edge"><title>0&#45;&gt;4</title>
<path fill="none" stroke="black" d="M3447.79,-126.371C3112.02,-124.592 2358.99,-117.807 1725.58,-92 1492.87,-82.5184 1434.31,-82.4218 1202.58,-59 1191.91,-57.9215 1180.74,-56.6132 1169.68,-55.2065"/>
<polygon fill="black" stroke="black" points="1169.93,-51.7098 1159.56,-53.8908 1169.03,-58.6514 1169.93,-51.7098"/>
<text text-anchor="middle" x="1765.08" y="-80.8" font-family="Times,serif" font-size="14.00">(1&#45;µ1)(1&#45;µ2)/8</text>
</g>
<!-- 5 -->
<g id="node6" class="node"><title>5</title>
<ellipse fill="none" stroke="black" cx="1383.58" cy="-41" rx="171.67" ry="18"/>
<text text-anchor="middle" x="1383.58" y="-37.3" font-family="Times,serif" font-size="14.00">[[0/1,0/0], [0/1,0/0]] r=[(0, False), (1, False)]</text>
</g>
<!-- 0&#45;&gt;5 -->
<g id="edge5" class="edge"><title>0&#45;&gt;5</title>
<path fill="none" stroke="black" d="M3449.44,-125.082C3167.1,-121.512 2593.88,-112.288 2108.58,-92 1866.13,-81.8644 1805.53,-77.7444 1563.58,-59 1547.52,-57.7551 1530.65,-56.3258 1513.96,-54.836"/>
<polygon fill="black" stroke="black" points="1513.87,-51.3138 1503.6,-53.9017 1513.24,-58.2856 1513.87,-51.3138"/>
<text text-anchor="middle" x="2121.08" y="-80.8" font-family="Times,serif" font-size="14.00">1/16</text>
</g>
<!-- 6 -->
<g id="node7" class="node"><title>6</title>
<ellipse fill="none" stroke="black" cx="1744.58" cy="-41" rx="171.67" ry="18"/>
<text text-anchor="middle" x="1744.58" y="-37.3" font-family="Times,serif" font-size="14.00">[[0/1,0/0], [0/1,0/0]] r=[(0, False), (0, False)]</text>
</g>
<!-- 0&#45;&gt;6 -->
<g id="edge6" class="edge"><title>0&#45;&gt;6</title>
<path fill="none" stroke="black" d="M3449.74,-124.887C3204.92,-121.31 2746.12,-112.359 2355.58,-92 2189.4,-83.3367 1998.29,-66.6044 1874.7,-54.8912"/>
<polygon fill="black" stroke="black" points="1874.72,-51.3779 1864.44,-53.9155 1874.06,-58.3464 1874.72,-51.3779"/>
<text text-anchor="middle" x="2368.08" y="-80.8" font-family="Times,serif" font-size="14.00">1/16</text>
</g>
<!-- 7 -->
<g id="node8" class="node"><title>7</title>
<ellipse fill="none" stroke="black" cx="2059.58" cy="-41" rx="125.378" ry="18"/>
<text text-anchor="middle" x="2059.58" y="-37.3" font-family="Times,serif" font-size="14.00">[[0/1,0/0], [0/0,0/1]] r=[True, 1]</text>
</g>
<!-- 0&#45;&gt;7 -->
<g id="edge7" class="edge"><title>0&#45;&gt;7</title>
<path fill="none" stroke="black" d="M3452.52,-123.565C3249.14,-118.937 2900.53,-109.224 2601.58,-92 2420.4,-81.5611 2375.1,-77.6751 2194.58,-59 2182.93,-57.7941 2170.72,-56.4171 2158.61,-54.9807"/>
<polygon fill="black" stroke="black" points="2158.82,-51.4812 2148.48,-53.7626 2157.99,-58.4312 2158.82,-51.4812"/>
<text text-anchor="middle" x="2641.08" y="-80.8" font-family="Times,serif" font-size="14.00">(1&#45;µ1)(1&#45;µ2)/8</text>
</g>
<!-- 8 -->
<g id="node9" class="node"><title>8</title>
<ellipse fill="none" stroke="black" cx="2328.58" cy="-41" rx="125.378" ry="18"/>
<text text-anchor="middle" x="2328.58" y="-37.3" font-family="Times,serif" font-size="14.00">[[0/0,1/1], [1/1,0/0]] r=[1, True]</text>
</g>
<!-- 0&#45;&gt;8 -->
<g id="edge8" class="edge"><title>0&#45;&gt;8</title>
<path fill="none" stroke="black" d="M3460.74,-121.045C3235.49,-112.031 2817.7,-92.3407 2462.58,-59 2450.82,-57.8954 2438.49,-56.567 2426.29,-55.1457"/>
<polygon fill="black" stroke="black" points="2426.41,-51.6365 2416.07,-53.9328 2425.59,-58.5877 2426.41,-51.6365"/>
<text text-anchor="middle" x="2896.58" y="-80.8" font-family="Times,serif" font-size="14.00">µ1µ2/8</text>
</g>
<!-- 9 -->
<g id="node10" class="node"><title>9</title>
<ellipse fill="none" stroke="black" cx="2643.58" cy="-41" rx="171.67" ry="18"/>
<text text-anchor="middle" x="2643.58" y="-37.3" font-family="Times,serif" font-size="14.00">[[0/0,0/1], [0/0,0/1]] r=[(1, False), (0, False)]</text>
</g>
<!-- 0&#45;&gt;9 -->
<g id="edge9" class="edge"><title>0&#45;&gt;9</title>
<path fill="none" stroke="black" d="M3491.49,-116.05C3332.71,-102.901 3059.22,-79.99 2824.58,-59 2808.96,-57.6026 2792.59,-56.1073 2776.34,-54.6047"/>
<polygon fill="black" stroke="black" points="2776.53,-51.1071 2766.25,-53.6689 2775.88,-58.0772 2776.53,-51.1071"/>
<text text-anchor="middle" x="3210.08" y="-80.8" font-family="Times,serif" font-size="14.00">1/16</text>
</g>
<!-- 10 -->
<g id="node11" class="node"><title>10</title>
<ellipse fill="none" stroke="black" cx="2958.58" cy="-41" rx="125.378" ry="18"/>
<text text-anchor="middle" x="2958.58" y="-37.3" font-family="Times,serif" font-size="14.00">[[1/1,0/0], [0/0,1/1]] r=[True, 1]</text>
</g>
<!-- 0&#45;&gt;10 -->
<g id="edge10" class="edge"><title>0&#45;&gt;10</title>
<path fill="none" stroke="black" d="M3518.69,-113.485C3392.41,-97.3675 3182.9,-70.6288 3059.06,-54.8233"/>
<polygon fill="black" stroke="black" points="3059.18,-51.311 3048.82,-53.5167 3058.3,-58.2547 3059.18,-51.311"/>
<text text-anchor="middle" x="3350.58" y="-80.8" font-family="Times,serif" font-size="14.00">µ1µ2/8</text>
</g>
<!-- 11 -->
<g id="node12" class="node"><title>11</title>
<ellipse fill="none" stroke="black" cx="3227.58" cy="-41" rx="125.378" ry="18"/>
<text text-anchor="middle" x="3227.58" y="-37.3" font-family="Times,serif" font-size="14.00">[[0/1,0/0], [0/0,1/1]] r=[True, 1]</text>
</g>
<!-- 0&#45;&gt;11 -->
<g id="edge11" class="edge"><title>0&#45;&gt;11</title>
<path fill="none" stroke="black" d="M3552.23,-111.509C3482.06,-96.4851 3375.99,-73.7734 3304.36,-58.4371"/>
<polygon fill="black" stroke="black" points="3305,-54.9949 3294.48,-56.3236 3303.53,-61.8398 3305,-54.9949"/>
<text text-anchor="middle" x="3479.58" y="-80.8" font-family="Times,serif" font-size="14.00">µ2(1&#45;µ1)/8</text>
</g>
<!-- 12 -->
<g id="node13" class="node"><title>12</title>
<ellipse fill="none" stroke="black" cx="3496.58" cy="-41" rx="125.378" ry="18"/>
<text text-anchor="middle" x="3496.58" y="-37.3" font-family="Times,serif" font-size="14.00">[[1/1,0/0], [0/0,0/1]] r=[True, 1]</text>
</g>
<!-- 0&#45;&gt;12 -->
<g id="edge12" class="edge"><title>0&#45;&gt;12</title>
<path fill="none" stroke="black" d="M3598.99,-110.003C3579.24,-96.8884 3551.75,-78.6319 3530.22,-64.3368"/>
<polygon fill="black" stroke="black" points="3531.97,-61.2939 3521.7,-58.6776 3528.09,-67.1253 3531.97,-61.2939"/>
<text text-anchor="middle" x="3597.58" y="-80.8" font-family="Times,serif" font-size="14.00">µ1(1&#45;µ2)/8</text>
</g>
<!-- 13 -->
<g id="node14" class="node"><title>13</title>
<ellipse fill="none" stroke="black" cx="3753.58" cy="-41" rx="113.18" ry="18"/>
<text text-anchor="middle" x="3753.58" y="-37.3" font-family="Times,serif" font-size="14.00">[[0/0,1/1], [0/1,0/0]] r=[1, 0]</text>
</g>
<!-- 0&#45;&gt;13 -->
<g id="edge13" class="edge"><title>0&#45;&gt;13</title>
<path fill="none" stroke="black" d="M3650.38,-110.003C3670.28,-96.8884 3697.99,-78.6319 3719.69,-64.3368"/>
<polygon fill="black" stroke="black" points="3721.85,-67.1023 3728.27,-58.6776 3718,-61.2572 3721.85,-67.1023"/>
<text text-anchor="middle" x="3726.58" y="-80.8" font-family="Times,serif" font-size="14.00">µ2(1&#45;µ1)/8</text>
</g>
<!-- 14 -->
<g id="node15" class="node"><title>14</title>
<ellipse fill="none" stroke="black" cx="4010.58" cy="-41" rx="125.378" ry="18"/>
<text text-anchor="middle" x="4010.58" y="-37.3" font-family="Times,serif" font-size="14.00">[[0/0,0/1], [1/1,0/0]] r=[1, True]</text>
</g>
<!-- 0&#45;&gt;14 -->
<g id="edge14" class="edge"><title>0&#45;&gt;14</title>
<path fill="none" stroke="black" d="M3695.38,-111.41C3763.32,-96.4493 3865.58,-73.9315 3935.06,-58.632"/>
<polygon fill="black" stroke="black" points="3936.05,-61.9976 3945.06,-56.4289 3934.54,-55.1614 3936.05,-61.9976"/>
<text text-anchor="middle" x="3870.58" y="-80.8" font-family="Times,serif" font-size="14.00">µ1(1&#45;µ2)/8</text>
</g>
<!-- 15 -->
<g id="node16" class="node"><title>15</title>
<ellipse fill="none" stroke="black" cx="4279.58" cy="-41" rx="125.378" ry="18"/>
<text text-anchor="middle" x="4279.58" y="-37.3" font-family="Times,serif" font-size="14.00">[[0/0,0/1], [0/1,0/0]] r=[1, True]</text>
</g>
<!-- 0&#45;&gt;15 -->
<g id="edge15" class="edge"><title>0&#45;&gt;15</title>
<path fill="none" stroke="black" d="M3732.26,-113.682C3784.06,-107.225 3847.06,-99.3036 3903.58,-92 3997.96,-79.805 4105.61,-65.4452 4181.46,-55.2507"/>
<polygon fill="black" stroke="black" points="4182.04,-58.7047 4191.48,-53.9033 4181.1,-51.7672 4182.04,-58.7047"/>
<text text-anchor="middle" x="4057.08" y="-80.8" font-family="Times,serif" font-size="14.00">(1&#45;µ1)(1&#45;µ2)/8</text>
</g>
<!-- 16 -->
<g id="node17" class="node"><title>16</title>
<ellipse fill="none" stroke="black" cx="4594.58" cy="-41" rx="171.67" ry="18"/>
<text text-anchor="middle" x="4594.58" y="-37.3" font-family="Times,serif" font-size="14.00">[[0/0,0/1], [0/0,0/1]] r=[(1, False), (1, False)]</text>
</g>
<!-- 0&#45;&gt;16 -->
<g id="edge16" class="edge"><title>0&#45;&gt;16</title>
<path fill="none" stroke="black" d="M3768.66,-117.44C3863.1,-110.919 3989.25,-101.726 4100.58,-92 4226.57,-80.9942 4370.4,-66.1814 4470.24,-55.5398"/>
<polygon fill="black" stroke="black" points="4470.8,-59.0003 4480.37,-54.4584 4470.06,-52.0399 4470.8,-59.0003"/>
<text text-anchor="middle" x="4263.08" y="-80.8" font-family="Times,serif" font-size="14.00">1/16</text>
</g>
<!-- 17 -->
<g id="node18" class="node"><title>17</title>
<ellipse fill="none" stroke="black" cx="4897.58" cy="-41" rx="113.18" ry="18"/>
<text text-anchor="middle" x="4897.58" y="-37.3" font-family="Times,serif" font-size="14.00">[[0/0,1/1], [1/1,0/0]] r=[1, 0]</text>
</g>
<!-- 0&#45;&gt;17 -->
<g id="edge17" class="edge"><title>0&#45;&gt;17</title>
<path fill="none" stroke="black" d="M3791.26,-121.697C4015.45,-113.526 4426.37,-94.9006 4775.58,-59 4786.17,-57.9117 4797.25,-56.604 4808.24,-55.2035"/>
<polygon fill="black" stroke="black" points="4808.81,-58.6578 4818.28,-53.8948 4807.91,-51.7165 4808.81,-58.6578"/>
<text text-anchor="middle" x="4575.58" y="-80.8" font-family="Times,serif" font-size="14.00">µ1µ2/8</text>
</g>
<!-- 18 -->
<g id="node19" class="node"><title>18</title>
<ellipse fill="none" stroke="black" cx="5141.58" cy="-41" rx="113.18" ry="18"/>
<text text-anchor="middle" x="5141.58" y="-37.3" font-family="Times,serif" font-size="14.00">[[0/1,0/0], [0/0,0/1]] r=[0, 1]</text>
</g>
<!-- 0&#45;&gt;18 -->
<g id="edge18" class="edge"><title>0&#45;&gt;18</title>
<path fill="none" stroke="black" d="M3795.35,-123.05C3989.91,-118.042 4317.31,-108.07 4598.58,-92 4785.96,-81.2943 4833,-79.2938 5019.58,-59 5030.08,-57.8581 5041.07,-56.5242 5051.97,-55.1148"/>
<polygon fill="black" stroke="black" points="5052.48,-58.5781 5061.94,-53.8026 5051.56,-51.638 5052.48,-58.5781"/>
<text text-anchor="middle" x="4870.08" y="-80.8" font-family="Times,serif" font-size="14.00">(1&#45;µ1)(1&#45;µ2)/8</text>
</g>
<!-- 19 -->
<g id="node20" class="node"><title>19</title>
<ellipse fill="none" stroke="black" cx="5444.58" cy="-41" rx="171.67" ry="18"/>
<text text-anchor="middle" x="5444.58" y="-37.3" font-family="Times,serif" font-size="14.00">[[0/1,0/0], [0/1,0/0]] r=[(1, False), (1, False)]</text>
</g>
<!-- 0&#45;&gt;19 -->
<g id="edge19" class="edge"><title>0&#45;&gt;19</title>
<path fill="none" stroke="black" d="M3800.93,-125.934C4049.34,-123.586 4516.39,-116.066 4913.58,-92 5054.16,-83.4827 5215.13,-67.4372 5322.64,-55.8152"/>
<polygon fill="black" stroke="black" points="5323.31,-59.263 5332.87,-54.7047 5322.55,-52.3039 5323.31,-59.263"/>
<text text-anchor="middle" x="5117.08" y="-80.8" font-family="Times,serif" font-size="14.00">1/16</text>
</g>
<!-- 20 -->
<g id="node21" class="node"><title>20</title>
<ellipse fill="none" stroke="black" cx="5747.58" cy="-41" rx="113.18" ry="18"/>
<text text-anchor="middle" x="5747.58" y="-37.3" font-family="Times,serif" font-size="14.00">[[0/1,0/0], [0/0,1/1]] r=[0, 1]</text>
</g>
<!-- 0&#45;&gt;20 -->
<g id="edge20" class="edge"><title>0&#45;&gt;20</title>
<path fill="none" stroke="black" d="M3800.37,-125.418C4081.93,-122.321 4651.41,-113.752 5133.58,-92 5352.52,-82.1234 5407.58,-81.4708 5625.58,-59 5636.17,-57.9088 5647.25,-56.5994 5658.24,-55.1979"/>
<polygon fill="black" stroke="black" points="5658.81,-58.6522 5668.28,-53.8886 5657.91,-51.711 5658.81,-58.6522"/>
<text text-anchor="middle" x="5450.58" y="-80.8" font-family="Times,serif" font-size="14.00">µ2(1&#45;µ1)/8</text>
</g>
<!-- 21 -->
<g id="node22" class="node"><title>21</title>
<ellipse fill="none" stroke="black" cx="5991.58" cy="-41" rx="113.18" ry="18"/>
<text text-anchor="middle" x="5991.58" y="-37.3" font-family="Times,serif" font-size="14.00">[[1/1,0/0], [0/0,1/1]] r=[0, 1]</text>
</g>
<!-- 0&#45;&gt;21 -->
<g id="edge21" class="edge"><title>0&#45;&gt;21</title>
<path fill="none" stroke="black" d="M3802.23,-127.58C4133.22,-127.788 4866.66,-124.143 5483.58,-92 5655.53,-83.0412 5698.48,-78.2216 5869.58,-59 5879.89,-57.8421 5890.67,-56.5128 5901.38,-55.1186"/>
<polygon fill="black" stroke="black" points="5902.14,-58.5476 5911.6,-53.7654 5901.23,-51.6081 5902.14,-58.5476"/>
<text text-anchor="middle" x="5715.58" y="-80.8" font-family="Times,serif" font-size="14.00">µ1µ2/8</text>
</g>
<!-- 22 -->
<g id="node23" class="node"><title>22</title>
<ellipse fill="none" stroke="black" cx="6235.58" cy="-41" rx="113.18" ry="18"/>
<text text-anchor="middle" x="6235.58" y="-37.3" font-family="Times,serif" font-size="14.00">[[1/1,0/0], [0/0,0/1]] r=[0, 1]</text>
</g>
<!-- 0&#45;&gt;22 -->
<g id="edge22" class="edge"><title>0&#45;&gt;22</title>
<path fill="none" stroke="black" d="M3800.92,-125.7C4238.09,-122.215 5363.66,-111.576 5738.58,-92 5905.67,-83.2763 5947.34,-77.8847 6113.58,-59 6123.89,-57.8293 6134.67,-56.492 6145.37,-55.0933"/>
<polygon fill="black" stroke="black" points="6146.14,-58.522 6155.6,-53.7369 6145.22,-51.5829 6146.14,-58.522"/>
<text text-anchor="middle" x="5974.58" y="-80.8" font-family="Times,serif" font-size="14.00">µ1(1&#45;µ2)/8</text>
</g>
<!-- 23 -->
<g id="node24" class="node"><title>23</title>
<ellipse fill="none" stroke="black" cx="6492.58" cy="-41" rx="125.378" ry="18"/>
<text text-anchor="middle" x="6492.58" y="-37.3" font-family="Times,serif" font-size="14.00">[[0/0,1/1], [0/1,0/0]] r=[1, True]</text>
</g>
<!-- 0&#45;&gt;23 -->
<g id="edge23" class="edge"><title>0&#45;&gt;23</title>
<path fill="none" stroke="black" d="M3801.33,-126.225C4277.22,-123.845 5578.56,-115.339 6007.58,-92 6141.67,-84.7058 6295.81,-67.2519 6393.67,-55.0307"/>
<polygon fill="black" stroke="black" points="6394.36,-58.4719 6403.84,-53.7535 6393.49,-51.5264 6394.36,-58.4719"/>
<text text-anchor="middle" x="6224.58" y="-80.8" font-family="Times,serif" font-size="14.00">µ2(1&#45;µ1)/8</text>
</g>
<!-- 24 -->
<g id="node25" class="node"><title>24</title>
<ellipse fill="none" stroke="black" cx="6807.58" cy="-41" rx="171.67" ry="18"/>
<text text-anchor="middle" x="6807.58" y="-37.3" font-family="Times,serif" font-size="14.00">[[0/0,0/1], [0/0,0/1]] r=[(0, False), (1, False)]</text>
</g>
<!-- 0&#45;&gt;24 -->
<g id="edge24" class="edge"><title>0&#45;&gt;24</title>
<path fill="none" stroke="black" d="M3801.73,-126.401C4311.78,-124.397 5777.91,-116.601 6257.58,-92 6405.22,-84.4279 6574.54,-67.8393 6685.86,-55.8421"/>
<polygon fill="black" stroke="black" points="6686.54,-59.2881 6696.11,-54.7323 6685.79,-52.3288 6686.54,-59.2881"/>
<text text-anchor="middle" x="6467.08" y="-80.8" font-family="Times,serif" font-size="14.00">1/16</text>
</g>
</g>
</svg>
