<?xml version="1.0" encoding="UTF-8" standalone="no"?>
<!DOCTYPE svg PUBLIC "-//W3C//DTD SVG 1.1//EN"
 "http://www.w3.org/Graphics/SVG/1.1/DTD/svg11.dtd">
<!-- Generated by graphviz version 2.38.0 (20140413.2041)
 -->
<!-- Title: %3 Pages: 1 -->
<svg width="5036pt" height="154pt"
 viewBox="0.00 0.00 5036.19 154.00" xmlns="http://www.w3.org/2000/svg" xmlns:xlink="http://www.w3.org/1999/xlink">
<g id="graph0" class="graph" transform="scale(1 1) rotate(0) translate(4 150)">
<title>%3</title>
<polygon fill="white" stroke="none" points="-4,4 -4,-150 5032.19,-150 5032.19,4 -4,4"/>
<text text-anchor="middle" x="2514.1" y="-7.8" font-family="Times,serif" font-size="14.00">Tree exploration for K=2 arms and M=2 players using Selfish_UCB_Ubar, for depth=7 : 660 leafs, 6 absorbing</text>
<!-- 0 -->
<g id="node1" class="node"><title>0</title>
<ellipse fill="none" stroke="green" cx="1096.19" cy="-128" rx="83.3857" ry="18"/>
<text text-anchor="middle" x="1096.19" y="-124.3" font-family="Times,serif" font-size="14.00">[[0/0,0/0], [0/0,0/0]]</text>
</g>
<!-- 14 -->
<g id="node2" class="node"><title>14</title>
<ellipse fill="none" stroke="red" cx="83.1926" cy="-41" rx="83.3857" ry="18"/>
<text text-anchor="middle" x="83.1926" y="-37.3" font-family="Times,serif" font-size="14.00">[[1/3,2/4], [1/3,2/4]]</text>
</g>
<!-- 0&#45;&gt;14 -->
<g id="edge1" class="edge"><title>0&#45;&gt;14</title>
<path fill="none" stroke="black" d="M1013.44,-126.009C784.738,-123.009 158.289,-112.919 119.193,-92 109.187,-86.6463 101.291,-77.1425 95.4753,-67.8479"/>
<polygon fill="black" stroke="black" points="98.5151,-66.1129 90.5356,-59.1431 92.427,-69.5677 98.5151,-66.1129"/>
<text text-anchor="middle" x="391.193" y="-80.8" font-family="Times,serif" font-size="14.00">µ1^2µ2^4(µ1 &#45; 1)^2(2µ1^2µ2^2 &#45; 4µ1^2µ2 + 2µ1^2 &#45; 4µ1µ2^2 + 8µ1µ2 &#45; 4µ1 + 2µ2^2 &#45; 4µ2 + 3)/4</text>
</g>
<!-- 168 -->
<g id="node3" class="node"><title>168</title>
<ellipse fill="none" stroke="red" cx="639.193" cy="-41" rx="83.3857" ry="18"/>
<text text-anchor="middle" x="639.193" y="-37.3" font-family="Times,serif" font-size="14.00">[[3/4,2/3], [3/4,2/3]]</text>
</g>
<!-- 0&#45;&gt;168 -->
<g id="edge2" class="edge"><title>0&#45;&gt;168</title>
<path fill="none" stroke="black" d="M1012.83,-126.844C909.985,-125.458 741.896,-118.959 686.193,-92 674.581,-86.3803 664.383,-76.5692 656.481,-67.1179"/>
<polygon fill="black" stroke="black" points="659.066,-64.7418 650.15,-59.0191 653.552,-69.0531 659.066,-64.7418"/>
<text text-anchor="middle" x="746.193" y="-80.8" font-family="Times,serif" font-size="14.00">µ1^6µ2^4(µ2 &#45; 1)^2/8</text>
</g>
<!-- 250 -->
<g id="node4" class="node"><title>250</title>
<ellipse fill="none" stroke="red" cx="823.193" cy="-41" rx="83.3857" ry="18"/>
<text text-anchor="middle" x="823.193" y="-37.3" font-family="Times,serif" font-size="14.00">[[2/4,1/3], [2/4,1/3]]</text>
</g>
<!-- 0&#45;&gt;250 -->
<g id="edge3" class="edge"><title>0&#45;&gt;250</title>
<path fill="none" stroke="black" d="M1016.85,-122.464C938.19,-117.135 827.504,-107.065 814.193,-92 808.629,-85.7033 808.453,-77.1689 810.424,-68.9342"/>
<polygon fill="black" stroke="black" points="813.824,-69.8027 813.677,-59.2089 807.186,-67.5824 813.824,-69.8027"/>
<text text-anchor="middle" x="1086.19" y="-80.8" font-family="Times,serif" font-size="14.00">µ1^4µ2^2(µ2 &#45; 1)^2(2µ1^2µ2^2 &#45; 4µ1^2µ2 + 2µ1^2 &#45; 4µ1µ2^2 + 8µ1µ2 &#45; 4µ1 + 2µ2^2 &#45; 4µ2 + 3)/4</text>
</g>
<!-- 392 -->
<g id="node5" class="node"><title>392</title>
<ellipse fill="none" stroke="red" cx="1369.19" cy="-41" rx="83.3857" ry="18"/>
<text text-anchor="middle" x="1369.19" y="-37.3" font-family="Times,serif" font-size="14.00">[[2/3,3/4], [2/3,3/4]]</text>
</g>
<!-- 0&#45;&gt;392 -->
<g id="edge4" class="edge"><title>0&#45;&gt;392</title>
<path fill="none" stroke="black" d="M1179.06,-126.015C1245.83,-123.441 1332.65,-115.491 1358.19,-92 1364.52,-86.183 1367.63,-77.6277 1369.06,-69.2323"/>
<polygon fill="black" stroke="black" points="1372.55,-69.5675 1370.07,-59.2658 1365.58,-68.8625 1372.55,-69.5675"/>
<text text-anchor="middle" x="1427.19" y="-80.8" font-family="Times,serif" font-size="14.00">µ1^4µ2^6(µ1 &#45; 1)^2/8</text>
</g>
<!-- 397 -->
<g id="node6" class="node"><title>397</title>
<ellipse fill="none" stroke="red" cx="1553.19" cy="-41" rx="83.3857" ry="18"/>
<text text-anchor="middle" x="1553.19" y="-37.3" font-family="Times,serif" font-size="14.00">[[1/4,0/3], [1/4,0/3]]</text>
</g>
<!-- 0&#45;&gt;397 -->
<g id="edge5" class="edge"><title>0&#45;&gt;397</title>
<path fill="none" stroke="black" d="M1178.56,-125.311C1277.31,-122.315 1436.37,-114.122 1491.19,-92 1505.64,-86.1709 1519.38,-75.7893 1530.23,-65.9909"/>
<polygon fill="black" stroke="black" points="1532.73,-68.4446 1537.6,-59.0326 1527.93,-63.3565 1532.73,-68.4446"/>
<text text-anchor="middle" x="2388.19" y="-80.8" font-family="Times,serif" font-size="14.00">µ1^2(µ2 &#45; 1)^2(6µ1^4µ2^4 &#45; 24µ1^4µ2^3 + 36µ1^4µ2^2 &#45; 24µ1^4µ2 + 6µ1^4 &#45; 24µ1^3µ2^4 + 96µ1^3µ2^3 &#45; 144µ1^3µ2^2 + 96µ1^3µ2 &#45; 24µ1^3 + 36µ1^2µ2^4 &#45; 144µ1^2µ2^3 + 231µ1^2µ2^2 &#45; 174µ1^2µ2 + 51µ1^2 &#45; 24µ1µ2^4 + 96µ1µ2^3 &#45; 174µ1µ2^2 + 156µ1µ2 &#45; 54µ1 + 6µ2^4 &#45; 24µ2^3 + 51µ2^2 &#45; 54µ2 + 35)/16</text>
</g>
<!-- 616 -->
<g id="node7" class="node"><title>616</title>
<ellipse fill="none" stroke="red" cx="3310.19" cy="-41" rx="83.3857" ry="18"/>
<text text-anchor="middle" x="3310.19" y="-37.3" font-family="Times,serif" font-size="14.00">[[0/3,1/4], [0/3,1/4]]</text>
</g>
<!-- 0&#45;&gt;616 -->
<g id="edge6" class="edge"><title>0&#45;&gt;616</title>
<path fill="none" stroke="black" d="M1179.12,-126.552C1570.48,-124.33 3215.78,-113.71 3264.19,-92 3275.85,-86.7735 3285.87,-77.023 3293.56,-67.5106"/>
<polygon fill="black" stroke="black" points="3296.5,-69.4312 3299.7,-59.3323 3290.9,-65.2293 3296.5,-69.4312"/>
<text text-anchor="middle" x="4156.19" y="-80.8" font-family="Times,serif" font-size="14.00">µ2^2(µ1 &#45; 1)^2(6µ1^4µ2^4 &#45; 24µ1^4µ2^3 + 36µ1^4µ2^2 &#45; 24µ1^4µ2 + 6µ1^4 &#45; 24µ1^3µ2^4 + 96µ1^3µ2^3 &#45; 144µ1^3µ2^2 + 96µ1^3µ2 &#45; 24µ1^3 + 36µ1^2µ2^4 &#45; 144µ1^2µ2^3 + 231µ1^2µ2^2 &#45; 174µ1^2µ2 + 51µ1^2 &#45; 24µ1µ2^4 + 96µ1µ2^3 &#45; 174µ1µ2^2 + 156µ1µ2 &#45; 54µ1 + 6µ2^4 &#45; 24µ2^3 + 51µ2^2 &#45; 54µ2 + 35)/16</text>
</g>
</g>
</svg>
