<?xml version="1.0" encoding="UTF-8" standalone="no"?>
<!DOCTYPE svg PUBLIC "-//W3C//DTD SVG 1.1//EN"
 "http://www.w3.org/Graphics/SVG/1.1/DTD/svg11.dtd">
<!-- Generated by graphviz version 2.38.0 (20140413.2041)
 -->
<!-- Title: %3 Pages: 1 -->
<svg width="4870pt" height="328pt"
 viewBox="0.00 0.00 4870.27 328.00" xmlns="http://www.w3.org/2000/svg" xmlns:xlink="http://www.w3.org/1999/xlink">
<g id="graph0" class="graph" transform="scale(1 1) rotate(0) translate(4 324)">
<title>%3</title>
<polygon fill="white" stroke="none" points="-4,4 -4,-324 4866.27,-324 4866.27,4 -4,4"/>
<text text-anchor="middle" x="2431.14" y="-7.8" font-family="Times,serif" font-size="14.00">Tree exploration for K=2 arms and M=2 players using Selfish UCB U and RhoRand UpdateRank, for depth=3 : 146 leafs, 8 absorbing</text>
<!-- 0 -->
<g id="node1" class="node"><title>0</title>
<ellipse fill="none" stroke="green" cx="2396.64" cy="-302" rx="143.775" ry="18"/>
<text text-anchor="middle" x="2396.64" y="-298.3" font-family="Times,serif" font-size="14.00">[[0/0 r=1,0/0 r=1], [0/0 r=1,0/0 r=1]]</text>
</g>
<!-- 3 -->
<g id="node2" class="node"><title>3</title>
<ellipse fill="none" stroke="black" cx="1619.64" cy="-215" rx="143.775" ry="18"/>
<text text-anchor="middle" x="1619.64" y="-211.3" font-family="Times,serif" font-size="14.00">[[0/0 r=1,1/1 r=1], [0/1 r=1,0/0 r=1]]</text>
</g>
<!-- 0&#45;&gt;3 -->
<g id="edge1" class="edge"><title>0&#45;&gt;3</title>
<path fill="none" stroke="black" d="M2292.25,-289.581C2146.9,-273.68 1884.51,-244.975 1734.01,-228.512"/>
<polygon fill="black" stroke="black" points="1734.14,-225.005 1723.81,-227.397 1733.37,-231.963 1734.14,-225.005"/>
<text text-anchor="middle" x="2084.64" y="-254.8" font-family="Times,serif" font-size="14.00">µ2(1&#45;µ1)/4</text>
</g>
<!-- 6 -->
<g id="node3" class="node"><title>6</title>
<ellipse fill="none" stroke="black" cx="2213.64" cy="-215" rx="143.775" ry="18"/>
<text text-anchor="middle" x="2213.64" y="-211.3" font-family="Times,serif" font-size="14.00">[[0/0 r=1,0/1 r=1], [1/1 r=1,0/0 r=1]]</text>
</g>
<!-- 0&#45;&gt;6 -->
<g id="edge2" class="edge"><title>0&#45;&gt;6</title>
<path fill="none" stroke="black" d="M2360.92,-284.409C2331.7,-270.836 2290.2,-251.562 2258.7,-236.929"/>
<polygon fill="black" stroke="black" points="2259.81,-233.587 2249.27,-232.549 2256.86,-239.936 2259.81,-233.587"/>
<text text-anchor="middle" x="2345.64" y="-254.8" font-family="Times,serif" font-size="14.00">µ1(1&#45;µ2)/4</text>
</g>
<!-- 9 -->
<g id="node4" class="node"><title>9</title>
<ellipse fill="none" stroke="black" cx="2580.64" cy="-215" rx="143.775" ry="18"/>
<text text-anchor="middle" x="2580.64" y="-211.3" font-family="Times,serif" font-size="14.00">[[1/1 r=1,0/0 r=1], [0/0 r=1,0/1 r=1]]</text>
</g>
<!-- 0&#45;&gt;9 -->
<g id="edge3" class="edge"><title>0&#45;&gt;9</title>
<path fill="none" stroke="black" d="M2432.55,-284.409C2461.93,-270.836 2503.66,-251.562 2535.33,-236.929"/>
<polygon fill="black" stroke="black" points="2537.2,-239.92 2544.81,-232.549 2534.27,-233.565 2537.2,-239.92"/>
<text text-anchor="middle" x="2529.64" y="-254.8" font-family="Times,serif" font-size="14.00">µ1(1&#45;µ2)/4</text>
</g>
<!-- 12 -->
<g id="node5" class="node"><title>12</title>
<ellipse fill="none" stroke="black" cx="3144.64" cy="-215" rx="143.775" ry="18"/>
<text text-anchor="middle" x="3144.64" y="-211.3" font-family="Times,serif" font-size="14.00">[[0/1 r=1,0/0 r=1], [0/0 r=1,1/1 r=1]]</text>
</g>
<!-- 0&#45;&gt;12 -->
<g id="edge4" class="edge"><title>0&#45;&gt;12</title>
<path fill="none" stroke="black" d="M2499.08,-289.359C2638.57,-273.508 2887.41,-245.23 3032.01,-228.798"/>
<polygon fill="black" stroke="black" points="3032.7,-232.243 3042.24,-227.636 3031.91,-225.288 3032.7,-232.243"/>
<text text-anchor="middle" x="2844.64" y="-254.8" font-family="Times,serif" font-size="14.00">µ2(1&#45;µ1)/4</text>
</g>
<!-- 26 -->
<g id="node6" class="node"><title>26</title>
<ellipse fill="none" stroke="red" cx="753.637" cy="-128" rx="143.775" ry="18"/>
<text text-anchor="middle" x="753.637" y="-124.3" font-family="Times,serif" font-size="14.00">[[0/1 r=1,1/1 r=1], [0/1 r=1,1/1 r=1]]</text>
</g>
<!-- 3&#45;&gt;26 -->
<g id="edge5" class="edge"><title>3&#45;&gt;26</title>
<path fill="none" stroke="black" d="M1510.4,-203.278C1347.42,-187.281 1041.76,-157.28 873.057,-140.721"/>
<polygon fill="black" stroke="black" points="873.186,-137.217 862.892,-139.724 872.502,-144.184 873.186,-137.217"/>
<text text-anchor="middle" x="1262.64" y="-167.8" font-family="Times,serif" font-size="14.00">µ2(1&#45;µ1)</text>
</g>
<!-- 40 -->
<g id="node7" class="node"><title>40</title>
<ellipse fill="none" stroke="red" cx="1973.64" cy="-128" rx="143.775" ry="18"/>
<text text-anchor="middle" x="1973.64" y="-124.3" font-family="Times,serif" font-size="14.00">[[1/1 r=1,0/1 r=1], [1/1 r=1,0/1 r=1]]</text>
</g>
<!-- 6&#45;&gt;40 -->
<g id="edge6" class="edge"><title>6&#45;&gt;40</title>
<path fill="none" stroke="black" d="M2168.21,-197.912C2128.63,-183.892 2071.1,-163.517 2028.86,-148.558"/>
<polygon fill="black" stroke="black" points="2029.88,-145.206 2019.28,-145.166 2027.54,-151.804 2029.88,-145.206"/>
<text text-anchor="middle" x="2132.64" y="-167.8" font-family="Times,serif" font-size="14.00">µ1(1&#45;µ2)</text>
</g>
<!-- 51 -->
<g id="node8" class="node"><title>51</title>
<ellipse fill="none" stroke="red" cx="2888.64" cy="-128" rx="143.775" ry="18"/>
<text text-anchor="middle" x="2888.64" y="-124.3" font-family="Times,serif" font-size="14.00">[[1/1 r=1,0/1 r=1], [1/1 r=1,0/1 r=1]]</text>
</g>
<!-- 9&#45;&gt;51 -->
<g id="edge7" class="edge"><title>9&#45;&gt;51</title>
<path fill="none" stroke="black" d="M2637.13,-198.41C2689.47,-183.964 2767.35,-162.473 2822.55,-147.237"/>
<polygon fill="black" stroke="black" points="2823.53,-150.598 2832.24,-144.563 2821.67,-143.85 2823.53,-150.598"/>
<text text-anchor="middle" x="2777.64" y="-167.8" font-family="Times,serif" font-size="14.00">µ1(1&#45;µ2)</text>
</g>
<!-- 61 -->
<g id="node9" class="node"><title>61</title>
<ellipse fill="none" stroke="red" cx="4108.64" cy="-128" rx="143.775" ry="18"/>
<text text-anchor="middle" x="4108.64" y="-124.3" font-family="Times,serif" font-size="14.00">[[0/1 r=1,1/1 r=1], [0/1 r=1,1/1 r=1]]</text>
</g>
<!-- 12&#45;&gt;61 -->
<g id="edge8" class="edge"><title>12&#45;&gt;61</title>
<path fill="none" stroke="black" d="M3258.53,-203.958C3440.77,-187.889 3796.49,-156.524 3984.81,-139.918"/>
<polygon fill="black" stroke="black" points="3985.38,-143.382 3995.03,-139.017 3984.77,-136.409 3985.38,-143.382"/>
<text text-anchor="middle" x="3708.64" y="-167.8" font-family="Times,serif" font-size="14.00">µ2(1&#45;µ1)</text>
</g>
<!-- 189 -->
<g id="node10" class="node"><title>189</title>
<ellipse fill="none" stroke="red" cx="143.637" cy="-41" rx="143.775" ry="18"/>
<text text-anchor="middle" x="143.637" y="-37.3" font-family="Times,serif" font-size="14.00">[[0/1 r=1,1/2 r=1], [0/1 r=1,1/2 r=1]]</text>
</g>
<!-- 26&#45;&gt;189 -->
<g id="edge9" class="edge"><title>26&#45;&gt;189</title>
<path fill="none" stroke="red" d="M661.323,-114.137C549.509,-98.5559 361.755,-72.3935 245.721,-56.2248"/>
<polygon fill="red" stroke="red" points="246.149,-52.7507 235.762,-54.8371 245.183,-59.6838 246.149,-52.7507"/>
<text text-anchor="middle" x="494.637" y="-80.8" font-family="Times,serif" font-size="14.00">1/4</text>
</g>
<!-- 190 -->
<g id="node11" class="node"><title>190</title>
<ellipse fill="none" stroke="red" cx="448.637" cy="-41" rx="143.775" ry="18"/>
<text text-anchor="middle" x="448.637" y="-37.3" font-family="Times,serif" font-size="14.00">[[0/1 r=1,1/2 r=1], [0/1 r=0,1/2 r=0]]</text>
</g>
<!-- 26&#45;&gt;190 -->
<g id="edge10" class="edge"><title>26&#45;&gt;190</title>
<path fill="none" stroke="red" d="M697.696,-111.41C646.05,-97.0167 569.306,-75.6289 514.673,-60.4033"/>
<polygon fill="red" stroke="red" points="515.312,-56.9483 504.74,-57.6352 513.433,-63.6913 515.312,-56.9483"/>
<text text-anchor="middle" x="628.637" y="-80.8" font-family="Times,serif" font-size="14.00">1/4</text>
</g>
<!-- 191 -->
<g id="node12" class="node"><title>191</title>
<ellipse fill="none" stroke="red" cx="753.637" cy="-41" rx="143.775" ry="18"/>
<text text-anchor="middle" x="753.637" y="-37.3" font-family="Times,serif" font-size="14.00">[[0/1 r=0,1/2 r=0], [0/1 r=0,1/2 r=0]]</text>
</g>
<!-- 26&#45;&gt;191 -->
<g id="edge11" class="edge"><title>26&#45;&gt;191</title>
<path fill="none" stroke="red" d="M753.637,-109.799C753.637,-98.1626 753.637,-82.5479 753.637,-69.2368"/>
<polygon fill="red" stroke="red" points="757.137,-69.1754 753.637,-59.1754 750.137,-69.1755 757.137,-69.1754"/>
<text text-anchor="middle" x="762.637" y="-80.8" font-family="Times,serif" font-size="14.00">1/4</text>
</g>
<!-- 192 -->
<g id="node13" class="node"><title>192</title>
<ellipse fill="none" stroke="red" cx="1058.64" cy="-41" rx="143.775" ry="18"/>
<text text-anchor="middle" x="1058.64" y="-37.3" font-family="Times,serif" font-size="14.00">[[0/1 r=0,1/2 r=0], [0/1 r=1,1/2 r=1]]</text>
</g>
<!-- 26&#45;&gt;192 -->
<g id="edge12" class="edge"><title>26&#45;&gt;192</title>
<path fill="none" stroke="red" d="M809.579,-111.41C861.224,-97.0167 937.969,-75.6289 992.602,-60.4033"/>
<polygon fill="red" stroke="red" points="993.841,-63.6913 1002.53,-57.6352 991.962,-56.9483 993.841,-63.6913"/>
<text text-anchor="middle" x="933.637" y="-80.8" font-family="Times,serif" font-size="14.00">1/4</text>
</g>
<!-- 377 -->
<g id="node14" class="node"><title>377</title>
<ellipse fill="none" stroke="red" cx="1363.64" cy="-41" rx="143.775" ry="18"/>
<text text-anchor="middle" x="1363.64" y="-37.3" font-family="Times,serif" font-size="14.00">[[1/2 r=0,0/1 r=0], [1/2 r=1,0/1 r=1]]</text>
</g>
<!-- 40&#45;&gt;377 -->
<g id="edge13" class="edge"><title>40&#45;&gt;377</title>
<path fill="none" stroke="red" d="M1881.32,-114.137C1769.51,-98.5559 1581.76,-72.3935 1465.72,-56.2248"/>
<polygon fill="red" stroke="red" points="1466.15,-52.7507 1455.76,-54.8371 1465.18,-59.6838 1466.15,-52.7507"/>
<text text-anchor="middle" x="1714.64" y="-80.8" font-family="Times,serif" font-size="14.00">1/4</text>
</g>
<!-- 378 -->
<g id="node15" class="node"><title>378</title>
<ellipse fill="none" stroke="red" cx="1668.64" cy="-41" rx="143.775" ry="18"/>
<text text-anchor="middle" x="1668.64" y="-37.3" font-family="Times,serif" font-size="14.00">[[1/2 r=1,0/1 r=1], [1/2 r=1,0/1 r=1]]</text>
</g>
<!-- 40&#45;&gt;378 -->
<g id="edge14" class="edge"><title>40&#45;&gt;378</title>
<path fill="none" stroke="red" d="M1917.7,-111.41C1866.05,-97.0167 1789.31,-75.6289 1734.67,-60.4033"/>
<polygon fill="red" stroke="red" points="1735.31,-56.9483 1724.74,-57.6352 1733.43,-63.6913 1735.31,-56.9483"/>
<text text-anchor="middle" x="1848.64" y="-80.8" font-family="Times,serif" font-size="14.00">1/4</text>
</g>
<!-- 379 -->
<g id="node16" class="node"><title>379</title>
<ellipse fill="none" stroke="red" cx="1973.64" cy="-41" rx="143.775" ry="18"/>
<text text-anchor="middle" x="1973.64" y="-37.3" font-family="Times,serif" font-size="14.00">[[1/2 r=1,0/1 r=1], [1/2 r=0,0/1 r=0]]</text>
</g>
<!-- 40&#45;&gt;379 -->
<g id="edge15" class="edge"><title>40&#45;&gt;379</title>
<path fill="none" stroke="red" d="M1973.64,-109.799C1973.64,-98.1626 1973.64,-82.5479 1973.64,-69.2368"/>
<polygon fill="red" stroke="red" points="1977.14,-69.1754 1973.64,-59.1754 1970.14,-69.1755 1977.14,-69.1754"/>
<text text-anchor="middle" x="1982.64" y="-80.8" font-family="Times,serif" font-size="14.00">1/4</text>
</g>
<!-- 380 -->
<g id="node17" class="node"><title>380</title>
<ellipse fill="none" stroke="red" cx="2278.64" cy="-41" rx="143.775" ry="18"/>
<text text-anchor="middle" x="2278.64" y="-37.3" font-family="Times,serif" font-size="14.00">[[1/2 r=0,0/1 r=0], [1/2 r=0,0/1 r=0]]</text>
</g>
<!-- 40&#45;&gt;380 -->
<g id="edge16" class="edge"><title>40&#45;&gt;380</title>
<path fill="none" stroke="red" d="M2029.58,-111.41C2081.22,-97.0167 2157.97,-75.6289 2212.6,-60.4033"/>
<polygon fill="red" stroke="red" points="2213.84,-63.6913 2222.53,-57.6352 2211.96,-56.9483 2213.84,-63.6913"/>
<text text-anchor="middle" x="2153.64" y="-80.8" font-family="Times,serif" font-size="14.00">1/4</text>
</g>
<!-- 497 -->
<g id="node18" class="node"><title>497</title>
<ellipse fill="none" stroke="red" cx="2583.64" cy="-41" rx="143.775" ry="18"/>
<text text-anchor="middle" x="2583.64" y="-37.3" font-family="Times,serif" font-size="14.00">[[1/2 r=0,0/1 r=0], [1/2 r=1,0/1 r=1]]</text>
</g>
<!-- 51&#45;&gt;497 -->
<g id="edge17" class="edge"><title>51&#45;&gt;497</title>
<path fill="none" stroke="red" d="M2832.7,-111.41C2781.05,-97.0167 2704.31,-75.6289 2649.67,-60.4033"/>
<polygon fill="red" stroke="red" points="2650.31,-56.9483 2639.74,-57.6352 2648.43,-63.6913 2650.31,-56.9483"/>
<text text-anchor="middle" x="2763.64" y="-80.8" font-family="Times,serif" font-size="14.00">1/4</text>
</g>
<!-- 498 -->
<g id="node19" class="node"><title>498</title>
<ellipse fill="none" stroke="red" cx="2888.64" cy="-41" rx="143.775" ry="18"/>
<text text-anchor="middle" x="2888.64" y="-37.3" font-family="Times,serif" font-size="14.00">[[1/2 r=1,0/1 r=1], [1/2 r=1,0/1 r=1]]</text>
</g>
<!-- 51&#45;&gt;498 -->
<g id="edge18" class="edge"><title>51&#45;&gt;498</title>
<path fill="none" stroke="red" d="M2888.64,-109.799C2888.64,-98.1626 2888.64,-82.5479 2888.64,-69.2368"/>
<polygon fill="red" stroke="red" points="2892.14,-69.1754 2888.64,-59.1754 2885.14,-69.1755 2892.14,-69.1754"/>
<text text-anchor="middle" x="2897.64" y="-80.8" font-family="Times,serif" font-size="14.00">1/4</text>
</g>
<!-- 499 -->
<g id="node20" class="node"><title>499</title>
<ellipse fill="none" stroke="red" cx="3193.64" cy="-41" rx="143.775" ry="18"/>
<text text-anchor="middle" x="3193.64" y="-37.3" font-family="Times,serif" font-size="14.00">[[1/2 r=1,0/1 r=1], [1/2 r=0,0/1 r=0]]</text>
</g>
<!-- 51&#45;&gt;499 -->
<g id="edge19" class="edge"><title>51&#45;&gt;499</title>
<path fill="none" stroke="red" d="M2944.58,-111.41C2996.22,-97.0167 3072.97,-75.6289 3127.6,-60.4033"/>
<polygon fill="red" stroke="red" points="3128.84,-63.6913 3137.53,-57.6352 3126.96,-56.9483 3128.84,-63.6913"/>
<text text-anchor="middle" x="3068.64" y="-80.8" font-family="Times,serif" font-size="14.00">1/4</text>
</g>
<!-- 500 -->
<g id="node21" class="node"><title>500</title>
<ellipse fill="none" stroke="red" cx="3498.64" cy="-41" rx="143.775" ry="18"/>
<text text-anchor="middle" x="3498.64" y="-37.3" font-family="Times,serif" font-size="14.00">[[1/2 r=0,0/1 r=0], [1/2 r=0,0/1 r=0]]</text>
</g>
<!-- 51&#45;&gt;500 -->
<g id="edge20" class="edge"><title>51&#45;&gt;500</title>
<path fill="none" stroke="red" d="M2980.95,-114.137C3092.77,-98.5559 3280.52,-72.3935 3396.55,-56.2248"/>
<polygon fill="red" stroke="red" points="3397.09,-59.6838 3406.51,-54.8371 3396.13,-52.7507 3397.09,-59.6838"/>
<text text-anchor="middle" x="3239.64" y="-80.8" font-family="Times,serif" font-size="14.00">1/4</text>
</g>
<!-- 617 -->
<g id="node22" class="node"><title>617</title>
<ellipse fill="none" stroke="red" cx="3803.64" cy="-41" rx="143.775" ry="18"/>
<text text-anchor="middle" x="3803.64" y="-37.3" font-family="Times,serif" font-size="14.00">[[0/1 r=1,1/2 r=1], [0/1 r=1,1/2 r=1]]</text>
</g>
<!-- 61&#45;&gt;617 -->
<g id="edge21" class="edge"><title>61&#45;&gt;617</title>
<path fill="none" stroke="red" d="M4052.7,-111.41C4001.05,-97.0167 3924.31,-75.6289 3869.67,-60.4033"/>
<polygon fill="red" stroke="red" points="3870.31,-56.9483 3859.74,-57.6352 3868.43,-63.6913 3870.31,-56.9483"/>
<text text-anchor="middle" x="3983.64" y="-80.8" font-family="Times,serif" font-size="14.00">1/4</text>
</g>
<!-- 618 -->
<g id="node23" class="node"><title>618</title>
<ellipse fill="none" stroke="red" cx="4108.64" cy="-41" rx="143.775" ry="18"/>
<text text-anchor="middle" x="4108.64" y="-37.3" font-family="Times,serif" font-size="14.00">[[0/1 r=1,1/2 r=1], [0/1 r=0,1/2 r=0]]</text>
</g>
<!-- 61&#45;&gt;618 -->
<g id="edge22" class="edge"><title>61&#45;&gt;618</title>
<path fill="none" stroke="red" d="M4108.64,-109.799C4108.64,-98.1626 4108.64,-82.5479 4108.64,-69.2368"/>
<polygon fill="red" stroke="red" points="4112.14,-69.1754 4108.64,-59.1754 4105.14,-69.1755 4112.14,-69.1754"/>
<text text-anchor="middle" x="4117.64" y="-80.8" font-family="Times,serif" font-size="14.00">1/4</text>
</g>
<!-- 619 -->
<g id="node24" class="node"><title>619</title>
<ellipse fill="none" stroke="red" cx="4413.64" cy="-41" rx="143.775" ry="18"/>
<text text-anchor="middle" x="4413.64" y="-37.3" font-family="Times,serif" font-size="14.00">[[0/1 r=0,1/2 r=0], [0/1 r=0,1/2 r=0]]</text>
</g>
<!-- 61&#45;&gt;619 -->
<g id="edge23" class="edge"><title>61&#45;&gt;619</title>
<path fill="none" stroke="red" d="M4164.58,-111.41C4216.22,-97.0167 4292.97,-75.6289 4347.6,-60.4033"/>
<polygon fill="red" stroke="red" points="4348.84,-63.6913 4357.53,-57.6352 4346.96,-56.9483 4348.84,-63.6913"/>
<text text-anchor="middle" x="4287.64" y="-80.8" font-family="Times,serif" font-size="14.00">1/4</text>
</g>
<!-- 620 -->
<g id="node25" class="node"><title>620</title>
<ellipse fill="none" stroke="red" cx="4718.64" cy="-41" rx="143.775" ry="18"/>
<text text-anchor="middle" x="4718.64" y="-37.3" font-family="Times,serif" font-size="14.00">[[0/1 r=0,1/2 r=0], [0/1 r=1,1/2 r=1]]</text>
</g>
<!-- 61&#45;&gt;620 -->
<g id="edge24" class="edge"><title>61&#45;&gt;620</title>
<path fill="none" stroke="red" d="M4200.95,-114.137C4312.77,-98.5559 4500.52,-72.3935 4616.55,-56.2248"/>
<polygon fill="red" stroke="red" points="4617.09,-59.6838 4626.51,-54.8371 4616.13,-52.7507 4617.09,-59.6838"/>
<text text-anchor="middle" x="4458.64" y="-80.8" font-family="Times,serif" font-size="14.00">1/4</text>
</g>
</g>
</svg>
