<?xml version="1.0" encoding="UTF-8" standalone="no"?>
<!DOCTYPE svg PUBLIC "-//W3C//DTD SVG 1.1//EN"
 "http://www.w3.org/Graphics/SVG/1.1/DTD/svg11.dtd">
<!-- Generated by graphviz version 2.38.0 (20140413.2041)
 -->
<!-- Title: %3 Pages: 1 -->
<svg width="3894pt" height="154pt"
 viewBox="0.00 0.00 3894.18 154.00" xmlns="http://www.w3.org/2000/svg" xmlns:xlink="http://www.w3.org/1999/xlink">
<g id="graph0" class="graph" transform="scale(1 1) rotate(0) translate(4 150)">
<title>%3</title>
<polygon fill="white" stroke="none" points="-4,4 -4,-150 3890.18,-150 3890.18,4 -4,4"/>
<text text-anchor="middle" x="1943.09" y="-7.8" font-family="Times,serif" font-size="14.00">Tree exploration for K=2 arms and M=2 players using TopBestM UCB U and TopBestM RandomNewChosenArm, for depth=2 : 16 leafs, 0 absorbing</text>
<!-- 0 -->
<g id="node1" class="node"><title>0</title>
<ellipse fill="none" stroke="green" cx="1943.09" cy="-128" rx="113.18" ry="18"/>
<text text-anchor="middle" x="1943.09" y="-124.3" font-family="Times,serif" font-size="14.00">[[0/0,0/0], [0/0,0/0]] r=[1, 1]</text>
</g>
<!-- 1 -->
<g id="node2" class="node"><title>1</title>
<ellipse fill="none" stroke="black" cx="113.09" cy="-41" rx="113.18" ry="18"/>
<text text-anchor="middle" x="113.09" y="-37.3" font-family="Times,serif" font-size="14.00">[[0/0,0/2], [0/1,0/1]] r=[1, 0]</text>
</g>
<!-- 0&#45;&gt;1 -->
<g id="edge1" class="edge"><title>0&#45;&gt;1</title>
<path fill="none" stroke="black" d="M1830.05,-126.731C1596.65,-125.595 1044.52,-119.901 582.09,-92 427.453,-82.6698 388.956,-77.0278 235.09,-59 224.869,-57.8025 214.18,-56.4545 203.56,-55.0549"/>
<polygon fill="black" stroke="black" points="203.792,-51.5548 193.416,-53.7004 202.865,-58.4932 203.792,-51.5548"/>
<text text-anchor="middle" x="621.59" y="-80.8" font-family="Times,serif" font-size="14.00">(1&#45;µ1)(1&#45;µ2)/4</text>
</g>
<!-- 2 -->
<g id="node3" class="node"><title>2</title>
<ellipse fill="none" stroke="black" cx="357.09" cy="-41" rx="113.18" ry="18"/>
<text text-anchor="middle" x="357.09" y="-37.3" font-family="Times,serif" font-size="14.00">[[0/1,0/1], [0/1,0/1]] r=[1, 0]</text>
</g>
<!-- 0&#45;&gt;2 -->
<g id="edge2" class="edge"><title>0&#45;&gt;2</title>
<path fill="none" stroke="black" d="M1831.51,-124.974C1639.62,-121.111 1234.76,-111.301 893.09,-92 708.8,-81.5892 662.578,-79.0793 479.09,-59 468.592,-57.8512 457.604,-56.513 446.707,-55.1013"/>
<polygon fill="black" stroke="black" points="447.112,-51.6245 436.741,-53.7874 446.197,-58.5645 447.112,-51.6245"/>
<text text-anchor="middle" x="905.59" y="-80.8" font-family="Times,serif" font-size="14.00">1/16</text>
</g>
<!-- 3 -->
<g id="node4" class="node"><title>3</title>
<ellipse fill="none" stroke="black" cx="601.09" cy="-41" rx="113.18" ry="18"/>
<text text-anchor="middle" x="601.09" y="-37.3" font-family="Times,serif" font-size="14.00">[[0/0,0/2], [0/0,0/2]] r=[1, 0]</text>
</g>
<!-- 0&#45;&gt;3 -->
<g id="edge3" class="edge"><title>0&#45;&gt;3</title>
<path fill="none" stroke="black" d="M1831.73,-124.851C1616.8,-119.807 1130.03,-104.018 723.09,-59 712.781,-57.8596 701.999,-56.5411 691.294,-55.1529"/>
<polygon fill="black" stroke="black" points="691.443,-51.6424 681.071,-53.8042 690.528,-58.5822 691.443,-51.6424"/>
<text text-anchor="middle" x="1103.59" y="-80.8" font-family="Times,serif" font-size="14.00">1/16</text>
</g>
<!-- 4 -->
<g id="node5" class="node"><title>4</title>
<ellipse fill="none" stroke="black" cx="845.09" cy="-41" rx="113.18" ry="18"/>
<text text-anchor="middle" x="845.09" y="-37.3" font-family="Times,serif" font-size="14.00">[[0/1,0/1], [0/1,0/1]] r=[1, 1]</text>
</g>
<!-- 0&#45;&gt;4 -->
<g id="edge4" class="edge"><title>0&#45;&gt;4</title>
<path fill="none" stroke="black" d="M1835.23,-122.397C1655.03,-114.054 1281.51,-93.9795 967.09,-59 956.782,-57.8532 946,-56.5307 935.295,-55.1404"/>
<polygon fill="black" stroke="black" points="935.445,-51.6298 925.073,-53.79 934.529,-58.5695 935.445,-51.6298"/>
<text text-anchor="middle" x="1328.59" y="-80.8" font-family="Times,serif" font-size="14.00">1/16</text>
</g>
<!-- 5 -->
<g id="node6" class="node"><title>5</title>
<ellipse fill="none" stroke="black" cx="1089.09" cy="-41" rx="113.18" ry="18"/>
<text text-anchor="middle" x="1089.09" y="-37.3" font-family="Times,serif" font-size="14.00">[[0/0,0/2], [0/0,0/2]] r=[1, 1]</text>
</g>
<!-- 0&#45;&gt;5 -->
<g id="edge5" class="edge"><title>0&#45;&gt;5</title>
<path fill="none" stroke="black" d="M1844.08,-119.251C1703.25,-107.899 1437.07,-85.2274 1211.09,-59 1200.87,-57.8136 1190.18,-56.4726 1179.56,-55.077"/>
<polygon fill="black" stroke="black" points="1179.79,-51.5769 1169.41,-53.7254 1178.86,-58.5155 1179.79,-51.5769"/>
<text text-anchor="middle" x="1525.59" y="-80.8" font-family="Times,serif" font-size="14.00">1/16</text>
</g>
<!-- 6 -->
<g id="node7" class="node"><title>6</title>
<ellipse fill="none" stroke="black" cx="1333.09" cy="-41" rx="113.18" ry="18"/>
<text text-anchor="middle" x="1333.09" y="-37.3" font-family="Times,serif" font-size="14.00">[[0/1,0/1], [0/1,0/1]] r=[0, 1]</text>
</g>
<!-- 0&#45;&gt;6 -->
<g id="edge6" class="edge"><title>0&#45;&gt;6</title>
<path fill="none" stroke="black" d="M1861.14,-115.581C1747.79,-99.7867 1543.78,-71.3587 1425.26,-54.8435"/>
<polygon fill="black" stroke="black" points="1425.51,-51.3441 1415.12,-53.4305 1424.54,-58.2772 1425.51,-51.3441"/>
<text text-anchor="middle" x="1687.59" y="-80.8" font-family="Times,serif" font-size="14.00">1/16</text>
</g>
<!-- 7 -->
<g id="node8" class="node"><title>7</title>
<ellipse fill="none" stroke="black" cx="1577.09" cy="-41" rx="113.18" ry="18"/>
<text text-anchor="middle" x="1577.09" y="-37.3" font-family="Times,serif" font-size="14.00">[[0/1,0/1], [0/0,0/2]] r=[0, 1]</text>
</g>
<!-- 0&#45;&gt;7 -->
<g id="edge7" class="edge"><title>0&#45;&gt;7</title>
<path fill="none" stroke="black" d="M1881.74,-112.791C1854.31,-106.435 1821.58,-98.8467 1792.09,-92 1744.05,-80.8471 1689.98,-68.2728 1648.08,-58.5242"/>
<polygon fill="black" stroke="black" points="1648.78,-55.0936 1638.25,-56.2362 1647.2,-61.9115 1648.78,-55.0936"/>
<text text-anchor="middle" x="1831.59" y="-80.8" font-family="Times,serif" font-size="14.00">(1&#45;µ1)(1&#45;µ2)/4</text>
</g>
<!-- 8 -->
<g id="node9" class="node"><title>8</title>
<ellipse fill="none" stroke="black" cx="1821.09" cy="-41" rx="113.18" ry="18"/>
<text text-anchor="middle" x="1821.09" y="-37.3" font-family="Times,serif" font-size="14.00">[[0/0,1/2], [1/1,0/1]] r=[1, 0]</text>
</g>
<!-- 0&#45;&gt;8 -->
<g id="edge8" class="edge"><title>0&#45;&gt;8</title>
<path fill="none" stroke="black" d="M1918.99,-110.207C1900.27,-97.1678 1874.14,-78.9579 1853.58,-64.6332"/>
<polygon fill="black" stroke="black" points="1855.35,-61.6032 1845.14,-58.7584 1851.35,-67.3467 1855.35,-61.6032"/>
<text text-anchor="middle" x="1909.09" y="-80.8" font-family="Times,serif" font-size="14.00">µ1µ2/4</text>
</g>
<!-- 9 -->
<g id="node10" class="node"><title>9</title>
<ellipse fill="none" stroke="black" cx="2065.09" cy="-41" rx="113.18" ry="18"/>
<text text-anchor="middle" x="2065.09" y="-37.3" font-family="Times,serif" font-size="14.00">[[0/1,0/1], [0/1,0/1]] r=[0, 0]</text>
</g>
<!-- 0&#45;&gt;9 -->
<g id="edge9" class="edge"><title>0&#45;&gt;9</title>
<path fill="none" stroke="black" d="M1967.19,-110.207C1985.91,-97.1678 2012.04,-78.9579 2032.6,-64.6332"/>
<polygon fill="black" stroke="black" points="2034.83,-67.3467 2041.04,-58.7584 2030.83,-61.6032 2034.83,-67.3467"/>
<text text-anchor="middle" x="2024.59" y="-80.8" font-family="Times,serif" font-size="14.00">1/16</text>
</g>
<!-- 10 -->
<g id="node11" class="node"><title>10</title>
<ellipse fill="none" stroke="black" cx="2309.09" cy="-41" rx="113.18" ry="18"/>
<text text-anchor="middle" x="2309.09" y="-37.3" font-family="Times,serif" font-size="14.00">[[0/0,0/2], [0/0,0/2]] r=[0, 0]</text>
</g>
<!-- 0&#45;&gt;10 -->
<g id="edge10" class="edge"><title>0&#45;&gt;10</title>
<path fill="none" stroke="black" d="M2004.35,-112.773C2068.84,-97.7954 2170.25,-74.2442 2238.17,-58.4713"/>
<polygon fill="black" stroke="black" points="2238.99,-61.8741 2247.94,-56.2026 2237.4,-55.0556 2238.99,-61.8741"/>
<text text-anchor="middle" x="2160.59" y="-80.8" font-family="Times,serif" font-size="14.00">1/16</text>
</g>
<!-- 11 -->
<g id="node12" class="node"><title>11</title>
<ellipse fill="none" stroke="black" cx="2553.09" cy="-41" rx="113.18" ry="18"/>
<text text-anchor="middle" x="2553.09" y="-37.3" font-family="Times,serif" font-size="14.00">[[0/1,0/1], [0/0,1/2]] r=[0, 1]</text>
</g>
<!-- 0&#45;&gt;11 -->
<g id="edge11" class="edge"><title>0&#45;&gt;11</title>
<path fill="none" stroke="black" d="M2025.04,-115.581C2138.39,-99.7867 2342.4,-71.3587 2460.92,-54.8435"/>
<polygon fill="black" stroke="black" points="2461.64,-58.2772 2471.06,-53.4305 2460.67,-51.3441 2461.64,-58.2772"/>
<text text-anchor="middle" x="2314.09" y="-80.8" font-family="Times,serif" font-size="14.00">µ2(1&#45;µ1)/4</text>
</g>
<!-- 12 -->
<g id="node13" class="node"><title>12</title>
<ellipse fill="none" stroke="black" cx="2797.09" cy="-41" rx="113.18" ry="18"/>
<text text-anchor="middle" x="2797.09" y="-37.3" font-family="Times,serif" font-size="14.00">[[1/1,0/1], [0/0,1/2]] r=[0, 1]</text>
</g>
<!-- 0&#45;&gt;12 -->
<g id="edge12" class="edge"><title>0&#45;&gt;12</title>
<path fill="none" stroke="black" d="M2042.72,-119.443C2183.74,-108.36 2449.52,-86.0527 2675.09,-59 2685.23,-57.7842 2695.83,-56.4307 2706.36,-55.033"/>
<polygon fill="black" stroke="black" points="2706.98,-58.4813 2716.43,-53.6825 2706.05,-51.5435 2706.98,-58.4813"/>
<text text-anchor="middle" x="2514.09" y="-80.8" font-family="Times,serif" font-size="14.00">µ1µ2/4</text>
</g>
<!-- 13 -->
<g id="node14" class="node"><title>13</title>
<ellipse fill="none" stroke="black" cx="3041.09" cy="-41" rx="113.18" ry="18"/>
<text text-anchor="middle" x="3041.09" y="-37.3" font-family="Times,serif" font-size="14.00">[[1/1,0/1], [0/0,0/2]] r=[0, 1]</text>
</g>
<!-- 0&#45;&gt;13 -->
<g id="edge13" class="edge"><title>0&#45;&gt;13</title>
<path fill="none" stroke="black" d="M2050.96,-122.503C2231.18,-114.314 2604.73,-94.4562 2919.09,-59 2929.4,-57.8376 2940.18,-56.5054 2950.88,-55.1096"/>
<polygon fill="black" stroke="black" points="2951.65,-58.5384 2961.1,-53.7552 2950.73,-51.5991 2951.65,-58.5384"/>
<text text-anchor="middle" x="2762.09" y="-80.8" font-family="Times,serif" font-size="14.00">µ1(1&#45;µ2)/4</text>
</g>
<!-- 14 -->
<g id="node15" class="node"><title>14</title>
<ellipse fill="none" stroke="black" cx="3285.09" cy="-41" rx="113.18" ry="18"/>
<text text-anchor="middle" x="3285.09" y="-37.3" font-family="Times,serif" font-size="14.00">[[0/0,1/2], [0/1,0/1]] r=[1, 0]</text>
</g>
<!-- 0&#45;&gt;14 -->
<g id="edge14" class="edge"><title>0&#45;&gt;14</title>
<path fill="none" stroke="black" d="M2054.9,-125.121C2270.1,-120.541 2756.59,-105.52 3163.09,-59 3173.31,-57.83 3184.01,-56.4991 3194.63,-55.1093"/>
<polygon fill="black" stroke="black" points="3195.32,-58.5482 3204.77,-53.762 3194.4,-51.6091 3195.32,-58.5482"/>
<text text-anchor="middle" x="2993.09" y="-80.8" font-family="Times,serif" font-size="14.00">µ2(1&#45;µ1)/4</text>
</g>
<!-- 15 -->
<g id="node16" class="node"><title>15</title>
<ellipse fill="none" stroke="black" cx="3529.09" cy="-41" rx="113.18" ry="18"/>
<text text-anchor="middle" x="3529.09" y="-37.3" font-family="Times,serif" font-size="14.00">[[0/0,0/2], [1/1,0/1]] r=[1, 0]</text>
</g>
<!-- 0&#45;&gt;15 -->
<g id="edge15" class="edge"><title>0&#45;&gt;15</title>
<path fill="none" stroke="black" d="M2055.04,-125.377C2251.68,-122.081 2671.88,-113.048 3026.09,-92 3195.76,-81.9179 3238.2,-78.0685 3407.09,-59 3417.4,-57.8364 3428.18,-56.5035 3438.88,-55.1073"/>
<polygon fill="black" stroke="black" points="3439.65,-58.5361 3449.1,-53.7526 3438.73,-51.5968 3439.65,-58.5361"/>
<text text-anchor="middle" x="3264.09" y="-80.8" font-family="Times,serif" font-size="14.00">µ1(1&#45;µ2)/4</text>
</g>
<!-- 16 -->
<g id="node17" class="node"><title>16</title>
<ellipse fill="none" stroke="black" cx="3773.09" cy="-41" rx="113.18" ry="18"/>
<text text-anchor="middle" x="3773.09" y="-37.3" font-family="Times,serif" font-size="14.00">[[0/0,0/2], [0/0,0/2]] r=[0, 1]</text>
</g>
<!-- 0&#45;&gt;16 -->
<g id="edge16" class="edge"><title>0&#45;&gt;16</title>
<path fill="none" stroke="black" d="M2055.98,-126.64C2288.44,-125.334 2837.31,-119.342 3297.09,-92 3454.83,-82.6198 3494.13,-77.242 3651.09,-59 3661.31,-57.812 3672,-56.4699 3682.62,-55.0737"/>
<polygon fill="black" stroke="black" points="3683.32,-58.5123 3692.77,-53.7217 3682.39,-51.5736 3683.32,-58.5123"/>
<text text-anchor="middle" x="3504.59" y="-80.8" font-family="Times,serif" font-size="14.00">1/16</text>
</g>
</g>
</svg>
