<?xml version="1.0" encoding="UTF-8" standalone="no"?>
<!DOCTYPE svg PUBLIC "-//W3C//DTD SVG 1.1//EN"
 "http://www.w3.org/Graphics/SVG/1.1/DTD/svg11.dtd">
<!-- Generated by graphviz version 2.38.0 (20140413.2041)
 -->
<!-- Title: %3 Pages: 1 -->
<svg width="6443pt" height="154pt"
 viewBox="0.00 0.00 6442.98 154.00" xmlns="http://www.w3.org/2000/svg" xmlns:xlink="http://www.w3.org/1999/xlink">
<g id="graph0" class="graph" transform="scale(1 1) rotate(0) translate(4 150)">
<title>%3</title>
<polygon fill="white" stroke="none" points="-4,4 -4,-150 6438.98,-150 6438.98,4 -4,4"/>
<text text-anchor="middle" x="3217.49" y="-7.8" font-family="Times,serif" font-size="14.00">Tree exploration for K=3 arms and M=2 players using Selfish_UCB_Ubar, for depth=1 : 27 leafs, 0 absorbing</text>
<!-- 0 -->
<g id="node1" class="node"><title>0</title>
<ellipse fill="none" stroke="green" cx="3217.49" cy="-128" rx="110.48" ry="18"/>
<text text-anchor="middle" x="3217.49" y="-124.3" font-family="Times,serif" font-size="14.00">[[0/0,0/0,0/0], [0/0,0/0,0/0]]</text>
</g>
<!-- 1 -->
<g id="node2" class="node"><title>1</title>
<ellipse fill="none" stroke="black" cx="110.49" cy="-41" rx="110.48" ry="18"/>
<text text-anchor="middle" x="110.49" y="-37.3" font-family="Times,serif" font-size="14.00">[[0/0,1/1,0/0], [0/0,0/0,0/1]]</text>
</g>
<!-- 0&#45;&gt;1 -->
<g id="edge1" class="edge"><title>0&#45;&gt;1</title>
<path fill="none" stroke="black" d="M3107.22,-126.831C2671.19,-125.965 1066.52,-120.845 558.49,-92 412.212,-83.6946 375.941,-76.6124 230.49,-59 220.438,-57.7828 209.925,-56.4226 199.48,-55.016"/>
<polygon fill="black" stroke="black" points="199.884,-51.5388 189.503,-53.6565 198.939,-58.4747 199.884,-51.5388"/>
<text text-anchor="middle" x="587.49" y="-80.8" font-family="Times,serif" font-size="14.00">µ2(1&#45;µ3)/9</text>
</g>
<!-- 2 -->
<g id="node3" class="node"><title>2</title>
<ellipse fill="none" stroke="black" cx="349.49" cy="-41" rx="110.48" ry="18"/>
<text text-anchor="middle" x="349.49" y="-37.3" font-family="Times,serif" font-size="14.00">[[0/0,0/0,1/1], [0/1,0/0,0/0]]</text>
</g>
<!-- 0&#45;&gt;2 -->
<g id="edge2" class="edge"><title>0&#45;&gt;2</title>
<path fill="none" stroke="black" d="M3107.14,-126.623C2697.26,-125.031 1262.43,-117.709 805.49,-92 655.675,-83.5708 618.475,-76.861 469.49,-59 459.358,-57.7853 448.757,-56.4206 438.23,-55.0065"/>
<polygon fill="black" stroke="black" points="438.558,-51.5189 428.177,-53.6388 437.614,-58.455 438.558,-51.5189"/>
<text text-anchor="middle" x="834.49" y="-80.8" font-family="Times,serif" font-size="14.00">µ3(1&#45;µ1)/9</text>
</g>
<!-- 3 -->
<g id="node4" class="node"><title>3</title>
<ellipse fill="none" stroke="black" cx="588.49" cy="-41" rx="110.48" ry="18"/>
<text text-anchor="middle" x="588.49" y="-37.3" font-family="Times,serif" font-size="14.00">[[0/0,0/0,1/1], [0/0,1/1,0/0]]</text>
</g>
<!-- 0&#45;&gt;3 -->
<g id="edge3" class="edge"><title>0&#45;&gt;3</title>
<path fill="none" stroke="black" d="M3107.31,-126.33C2726.4,-123.836 1466.59,-114.084 1062.49,-92 904.71,-83.3773 865.428,-77.4207 708.49,-59 698.355,-57.8103 687.753,-56.4613 677.224,-55.0559"/>
<polygon fill="black" stroke="black" points="677.55,-51.5681 667.17,-53.6946 676.61,-58.5048 677.55,-51.5681"/>
<text text-anchor="middle" x="1081.49" y="-80.8" font-family="Times,serif" font-size="14.00">µ2µ3/9</text>
</g>
<!-- 4 -->
<g id="node5" class="node"><title>4</title>
<ellipse fill="none" stroke="black" cx="827.49" cy="-41" rx="110.48" ry="18"/>
<text text-anchor="middle" x="827.49" y="-37.3" font-family="Times,serif" font-size="14.00">[[0/0,0/0,1/1], [1/1,0/0,0/0]]</text>
</g>
<!-- 0&#45;&gt;4 -->
<g id="edge4" class="edge"><title>0&#45;&gt;4</title>
<path fill="none" stroke="black" d="M3107.49,-126.098C2754.51,-123.029 1652.63,-112.053 1296.49,-92 1140.93,-83.2412 1102.22,-77.2652 947.49,-59 937.356,-57.8036 926.754,-56.4504 916.226,-55.0427"/>
<polygon fill="black" stroke="black" points="916.552,-51.5549 906.172,-53.6797 915.611,-58.4915 916.552,-51.5549"/>
<text text-anchor="middle" x="1315.49" y="-80.8" font-family="Times,serif" font-size="14.00">µ1µ3/9</text>
</g>
<!-- 5 -->
<g id="node6" class="node"><title>5</title>
<ellipse fill="none" stroke="black" cx="1066.49" cy="-41" rx="110.48" ry="18"/>
<text text-anchor="middle" x="1066.49" y="-37.3" font-family="Times,serif" font-size="14.00">[[0/1,0/0,0/0], [0/0,1/1,0/0]]</text>
</g>
<!-- 0&#45;&gt;5 -->
<g id="edge5" class="edge"><title>0&#45;&gt;5</title>
<path fill="none" stroke="black" d="M3107.73,-125.902C2782.07,-122.459 1824.55,-110.966 1512.49,-92 1367.13,-83.1651 1331.06,-76.5502 1186.49,-59 1176.44,-57.7798 1165.93,-56.4176 1155.48,-55.01"/>
<polygon fill="black" stroke="black" points="1155.88,-51.5328 1145.5,-53.6496 1154.94,-58.4686 1155.88,-51.5328"/>
<text text-anchor="middle" x="1541.49" y="-80.8" font-family="Times,serif" font-size="14.00">µ2(1&#45;µ1)/9</text>
</g>
<!-- 6 -->
<g id="node7" class="node"><title>6</title>
<ellipse fill="none" stroke="black" cx="1305.49" cy="-41" rx="110.48" ry="18"/>
<text text-anchor="middle" x="1305.49" y="-37.3" font-family="Times,serif" font-size="14.00">[[0/1,0/0,0/0], [0/0,0/0,0/1]]</text>
</g>
<!-- 0&#45;&gt;6 -->
<g id="edge6" class="edge"><title>0&#45;&gt;6</title>
<path fill="none" stroke="black" d="M3106.8,-127.395C2861.07,-127.609 2251.51,-124.482 1742.49,-92 1621.78,-84.2972 1483.15,-66.9849 1394.98,-54.9033"/>
<polygon fill="black" stroke="black" points="1395.4,-51.4281 1385.02,-53.5306 1394.45,-58.3626 1395.4,-51.4281"/>
<text text-anchor="middle" x="1781.99" y="-80.8" font-family="Times,serif" font-size="14.00">(1&#45;µ1)(1&#45;µ3)/9</text>
</g>
<!-- 7 -->
<g id="node8" class="node"><title>7</title>
<ellipse fill="none" stroke="black" cx="1544.49" cy="-41" rx="110.48" ry="18"/>
<text text-anchor="middle" x="1544.49" y="-37.3" font-family="Times,serif" font-size="14.00">[[1/1,0/0,0/0], [0/0,0/0,0/1]]</text>
</g>
<!-- 0&#45;&gt;7 -->
<g id="edge7" class="edge"><title>0&#45;&gt;7</title>
<path fill="none" stroke="black" d="M3107.36,-126.268C2894.74,-124.31 2412.97,-117.228 2008.49,-92 1855.2,-82.4391 1817.01,-77.1097 1664.49,-59 1654.36,-57.7967 1643.76,-56.4392 1633.23,-55.0291"/>
<polygon fill="black" stroke="black" points="1633.55,-51.5414 1623.17,-53.6643 1632.61,-58.4778 1633.55,-51.5414"/>
<text text-anchor="middle" x="2037.49" y="-80.8" font-family="Times,serif" font-size="14.00">µ1(1&#45;µ3)/9</text>
</g>
<!-- 8 -->
<g id="node9" class="node"><title>8</title>
<ellipse fill="none" stroke="black" cx="1783.49" cy="-41" rx="110.48" ry="18"/>
<text text-anchor="middle" x="1783.49" y="-37.3" font-family="Times,serif" font-size="14.00">[[0/1,0/0,0/0], [0/1,0/0,0/0]]</text>
</g>
<!-- 0&#45;&gt;8 -->
<g id="edge8" class="edge"><title>0&#45;&gt;8</title>
<path fill="none" stroke="black" d="M3108.5,-124.781C2932.8,-120.794 2576.15,-111.002 2274.49,-92 2109.28,-81.5933 2067.94,-77.9496 1903.49,-59 1893.27,-57.8227 1882.58,-56.4752 1871.97,-55.0655"/>
<polygon fill="black" stroke="black" points="1872.22,-51.5673 1861.84,-53.6983 1871.28,-58.5044 1872.22,-51.5673"/>
<text text-anchor="middle" x="2283.49" y="-80.8" font-family="Times,serif" font-size="14.00">1/9</text>
</g>
<!-- 9 -->
<g id="node10" class="node"><title>9</title>
<ellipse fill="none" stroke="black" cx="2022.49" cy="-41" rx="110.48" ry="18"/>
<text text-anchor="middle" x="2022.49" y="-37.3" font-family="Times,serif" font-size="14.00">[[0/0,0/1,0/0], [0/0,0/0,0/1]]</text>
</g>
<!-- 0&#45;&gt;9 -->
<g id="edge9" class="edge"><title>0&#45;&gt;9</title>
<path fill="none" stroke="black" d="M3109.71,-123.937C2962.95,-119.325 2692.09,-109.252 2461.49,-92 2319.35,-81.3665 2283.97,-76.3328 2142.49,-59 2132.44,-57.7687 2121.93,-56.3997 2111.48,-54.9881"/>
<polygon fill="black" stroke="black" points="2111.89,-51.5111 2101.51,-53.6249 2110.94,-58.4466 2111.89,-51.5111"/>
<text text-anchor="middle" x="2500.99" y="-80.8" font-family="Times,serif" font-size="14.00">(1&#45;µ2)(1&#45;µ3)/9</text>
</g>
<!-- 10 -->
<g id="node11" class="node"><title>10</title>
<ellipse fill="none" stroke="black" cx="2261.49" cy="-41" rx="110.48" ry="18"/>
<text text-anchor="middle" x="2261.49" y="-37.3" font-family="Times,serif" font-size="14.00">[[0/1,0/0,0/0], [0/0,0/0,1/1]]</text>
</g>
<!-- 0&#45;&gt;10 -->
<g id="edge10" class="edge"><title>0&#45;&gt;10</title>
<path fill="none" stroke="black" d="M3115.61,-121.009C3012.42,-114.709 2848.26,-104.049 2706.49,-92 2561.82,-79.7045 2525.62,-76.5192 2381.49,-59 2371.44,-57.7782 2360.93,-56.4151 2350.48,-55.0069"/>
<polygon fill="black" stroke="black" points="2350.89,-51.5298 2340.5,-53.6461 2349.94,-58.4655 2350.89,-51.5298"/>
<text text-anchor="middle" x="2735.49" y="-80.8" font-family="Times,serif" font-size="14.00">µ3(1&#45;µ1)/9</text>
</g>
<!-- 11 -->
<g id="node12" class="node"><title>11</title>
<ellipse fill="none" stroke="black" cx="2500.49" cy="-41" rx="110.48" ry="18"/>
<text text-anchor="middle" x="2500.49" y="-37.3" font-family="Times,serif" font-size="14.00">[[1/1,0/0,0/0], [0/0,1/1,0/0]]</text>
</g>
<!-- 0&#45;&gt;11 -->
<g id="edge11" class="edge"><title>0&#45;&gt;11</title>
<path fill="none" stroke="black" d="M3127.38,-117.53C3010.41,-105.056 2800.01,-81.997 2620.49,-59 2610.63,-57.7367 2600.32,-56.3607 2590.06,-54.9565"/>
<polygon fill="black" stroke="black" points="2590.23,-51.4462 2579.84,-53.546 2589.27,-58.3805 2590.23,-51.4462"/>
<text text-anchor="middle" x="2901.49" y="-80.8" font-family="Times,serif" font-size="14.00">µ1µ2/9</text>
</g>
<!-- 12 -->
<g id="node13" class="node"><title>12</title>
<ellipse fill="none" stroke="black" cx="2739.49" cy="-41" rx="110.48" ry="18"/>
<text text-anchor="middle" x="2739.49" y="-37.3" font-family="Times,serif" font-size="14.00">[[0/0,0/0,1/1], [0/0,0/1,0/0]]</text>
</g>
<!-- 0&#45;&gt;12 -->
<g id="edge12" class="edge"><title>0&#45;&gt;12</title>
<path fill="none" stroke="black" d="M3145.93,-114.275C3058.95,-98.8071 2912.5,-72.7657 2821.18,-56.5267"/>
<polygon fill="black" stroke="black" points="2821.61,-53.0477 2811.15,-54.7428 2820.38,-59.9396 2821.61,-53.0477"/>
<text text-anchor="middle" x="3036.49" y="-80.8" font-family="Times,serif" font-size="14.00">µ3(1&#45;µ2)/9</text>
</g>
<!-- 13 -->
<g id="node14" class="node"><title>13</title>
<ellipse fill="none" stroke="black" cx="2978.49" cy="-41" rx="110.48" ry="18"/>
<text text-anchor="middle" x="2978.49" y="-37.3" font-family="Times,serif" font-size="14.00">[[0/0,0/0,0/1], [0/1,0/0,0/0]]</text>
</g>
<!-- 0&#45;&gt;13 -->
<g id="edge13" class="edge"><title>0&#45;&gt;13</title>
<path fill="none" stroke="black" d="M3173.65,-111.41C3133.77,-97.2257 3074.79,-76.2486 3032.11,-61.0705"/>
<polygon fill="black" stroke="black" points="3033.05,-57.6885 3022.45,-57.6352 3030.7,-64.2838 3033.05,-57.6885"/>
<text text-anchor="middle" x="3151.99" y="-80.8" font-family="Times,serif" font-size="14.00">(1&#45;µ1)(1&#45;µ3)/9</text>
</g>
<!-- 14 -->
<g id="node15" class="node"><title>14</title>
<ellipse fill="none" stroke="black" cx="3217.49" cy="-41" rx="110.48" ry="18"/>
<text text-anchor="middle" x="3217.49" y="-37.3" font-family="Times,serif" font-size="14.00">[[0/0,0/0,0/1], [0/0,1/1,0/0]]</text>
</g>
<!-- 0&#45;&gt;14 -->
<g id="edge14" class="edge"><title>0&#45;&gt;14</title>
<path fill="none" stroke="black" d="M3217.49,-109.799C3217.49,-98.1626 3217.49,-82.5479 3217.49,-69.2368"/>
<polygon fill="black" stroke="black" points="3220.99,-69.1754 3217.49,-59.1754 3213.99,-69.1755 3220.99,-69.1754"/>
<text text-anchor="middle" x="3246.49" y="-80.8" font-family="Times,serif" font-size="14.00">µ2(1&#45;µ3)/9</text>
</g>
<!-- 15 -->
<g id="node16" class="node"><title>15</title>
<ellipse fill="none" stroke="black" cx="3456.49" cy="-41" rx="110.48" ry="18"/>
<text text-anchor="middle" x="3456.49" y="-37.3" font-family="Times,serif" font-size="14.00">[[0/0,1/1,0/0], [0/0,0/0,1/1]]</text>
</g>
<!-- 0&#45;&gt;15 -->
<g id="edge15" class="edge"><title>0&#45;&gt;15</title>
<path fill="none" stroke="black" d="M3261.33,-111.41C3301.21,-97.2257 3360.19,-76.2486 3402.87,-61.0705"/>
<polygon fill="black" stroke="black" points="3404.28,-64.2838 3412.53,-57.6352 3401.93,-57.6885 3404.28,-64.2838"/>
<text text-anchor="middle" x="3370.49" y="-80.8" font-family="Times,serif" font-size="14.00">µ2µ3/9</text>
</g>
<!-- 16 -->
<g id="node17" class="node"><title>16</title>
<ellipse fill="none" stroke="black" cx="3695.49" cy="-41" rx="110.48" ry="18"/>
<text text-anchor="middle" x="3695.49" y="-37.3" font-family="Times,serif" font-size="14.00">[[0/0,1/1,0/0], [0/1,0/0,0/0]]</text>
</g>
<!-- 0&#45;&gt;16 -->
<g id="edge16" class="edge"><title>0&#45;&gt;16</title>
<path fill="none" stroke="black" d="M3289.05,-114.275C3376.03,-98.8071 3522.48,-72.7657 3613.8,-56.5267"/>
<polygon fill="black" stroke="black" points="3614.6,-59.9396 3623.83,-54.7428 3613.37,-53.0477 3614.6,-59.9396"/>
<text text-anchor="middle" x="3514.49" y="-80.8" font-family="Times,serif" font-size="14.00">µ2(1&#45;µ1)/9</text>
</g>
<!-- 17 -->
<g id="node18" class="node"><title>17</title>
<ellipse fill="none" stroke="black" cx="3934.49" cy="-41" rx="110.48" ry="18"/>
<text text-anchor="middle" x="3934.49" y="-37.3" font-family="Times,serif" font-size="14.00">[[0/0,0/0,0/1], [0/0,0/0,0/1]]</text>
</g>
<!-- 0&#45;&gt;17 -->
<g id="edge17" class="edge"><title>0&#45;&gt;17</title>
<path fill="none" stroke="black" d="M3308.58,-117.767C3374.87,-110.943 3466.79,-101.266 3547.49,-92 3666.28,-78.3607 3695.96,-74.7197 3814.49,-59 3824.27,-57.7033 3834.49,-56.3115 3844.66,-54.9029"/>
<polygon fill="black" stroke="black" points="3845.38,-58.3369 3854.8,-53.4916 3844.41,-51.4038 3845.38,-58.3369"/>
<text text-anchor="middle" x="3681.49" y="-80.8" font-family="Times,serif" font-size="14.00">1/9</text>
</g>
<!-- 18 -->
<g id="node19" class="node"><title>18</title>
<ellipse fill="none" stroke="black" cx="4173.49" cy="-41" rx="110.48" ry="18"/>
<text text-anchor="middle" x="4173.49" y="-37.3" font-family="Times,serif" font-size="14.00">[[0/0,0/1,0/0], [0/0,0/0,1/1]]</text>
</g>
<!-- 0&#45;&gt;18 -->
<g id="edge18" class="edge"><title>0&#45;&gt;18</title>
<path fill="none" stroke="black" d="M3319.38,-121.022C3477.05,-111.25 3789.53,-89.8104 4053.49,-59 4063.63,-57.8169 4074.23,-56.4719 4084.76,-55.0688"/>
<polygon fill="black" stroke="black" points="4085.37,-58.5178 4094.81,-53.7091 4084.43,-51.5809 4085.37,-58.5178"/>
<text text-anchor="middle" x="3900.49" y="-80.8" font-family="Times,serif" font-size="14.00">µ3(1&#45;µ2)/9</text>
</g>
<!-- 19 -->
<g id="node20" class="node"><title>19</title>
<ellipse fill="none" stroke="black" cx="4412.49" cy="-41" rx="110.48" ry="18"/>
<text text-anchor="middle" x="4412.49" y="-37.3" font-family="Times,serif" font-size="14.00">[[0/0,1/1,0/0], [1/1,0/0,0/0]]</text>
</g>
<!-- 0&#45;&gt;19 -->
<g id="edge19" class="edge"><title>0&#45;&gt;19</title>
<path fill="none" stroke="black" d="M3325.4,-123.96C3519.47,-117.651 3940.04,-100.139 4292.49,-59 4302.63,-57.8169 4313.23,-56.4719 4323.76,-55.0688"/>
<polygon fill="black" stroke="black" points="4324.37,-58.5178 4333.81,-53.7091 4323.43,-51.5809 4324.37,-58.5178"/>
<text text-anchor="middle" x="4136.49" y="-80.8" font-family="Times,serif" font-size="14.00">µ1µ2/9</text>
</g>
<!-- 20 -->
<g id="node21" class="node"><title>20</title>
<ellipse fill="none" stroke="black" cx="4651.49" cy="-41" rx="110.48" ry="18"/>
<text text-anchor="middle" x="4651.49" y="-37.3" font-family="Times,serif" font-size="14.00">[[0/0,0/0,0/1], [0/0,0/1,0/0]]</text>
</g>
<!-- 0&#45;&gt;20 -->
<g id="edge20" class="edge"><title>0&#45;&gt;20</title>
<path fill="none" stroke="black" d="M3326.37,-124.77C3501.87,-120.766 3858.14,-110.952 4159.49,-92 4325.15,-81.5818 4366.6,-77.9807 4531.49,-59 4541.71,-57.8239 4552.4,-56.4772 4563.01,-55.0678"/>
<polygon fill="black" stroke="black" points="4563.7,-58.5068 4573.14,-53.701 4562.76,-51.5697 4563.7,-58.5068"/>
<text text-anchor="middle" x="4403.99" y="-80.8" font-family="Times,serif" font-size="14.00">(1&#45;µ2)(1&#45;µ3)/9</text>
</g>
<!-- 21 -->
<g id="node22" class="node"><title>21</title>
<ellipse fill="none" stroke="black" cx="4890.49" cy="-41" rx="110.48" ry="18"/>
<text text-anchor="middle" x="4890.49" y="-37.3" font-family="Times,serif" font-size="14.00">[[1/1,0/0,0/0], [0/0,0/0,1/1]]</text>
</g>
<!-- 0&#45;&gt;21 -->
<g id="edge21" class="edge"><title>0&#45;&gt;21</title>
<path fill="none" stroke="black" d="M3327.87,-126.571C3543.35,-125.133 4035,-118.904 4447.49,-92 4591.49,-82.6081 4627.25,-76.457 4770.49,-59 4780.54,-57.7751 4791.05,-56.41 4801.5,-55.0007"/>
<polygon fill="black" stroke="black" points="4802.04,-58.4593 4811.48,-53.6391 4801.09,-51.5236 4802.04,-58.4593"/>
<text text-anchor="middle" x="4639.49" y="-80.8" font-family="Times,serif" font-size="14.00">µ1µ3/9</text>
</g>
<!-- 22 -->
<g id="node23" class="node"><title>22</title>
<ellipse fill="none" stroke="black" cx="5129.49" cy="-41" rx="110.48" ry="18"/>
<text text-anchor="middle" x="5129.49" y="-37.3" font-family="Times,serif" font-size="14.00">[[0/1,0/0,0/0], [0/0,0/1,0/0]]</text>
</g>
<!-- 0&#45;&gt;22 -->
<g id="edge22" class="edge"><title>0&#45;&gt;22</title>
<path fill="none" stroke="black" d="M3328.18,-126.98C3570.34,-126.353 4165.25,-121.629 4662.49,-92 4817.13,-82.7853 4855.65,-77.203 5009.49,-59 5019.62,-57.8009 5030.23,-56.446 5040.75,-55.0373"/>
<polygon fill="black" stroke="black" points="5041.37,-58.4861 5050.81,-53.6736 5040.43,-51.5496 5041.37,-58.4861"/>
<text text-anchor="middle" x="4893.99" y="-80.8" font-family="Times,serif" font-size="14.00">(1&#45;µ1)(1&#45;µ2)/9</text>
</g>
<!-- 23 -->
<g id="node24" class="node"><title>23</title>
<ellipse fill="none" stroke="black" cx="5368.49" cy="-41" rx="110.48" ry="18"/>
<text text-anchor="middle" x="5368.49" y="-37.3" font-family="Times,serif" font-size="14.00">[[0/0,0/0,0/1], [1/1,0/0,0/0]]</text>
</g>
<!-- 0&#45;&gt;23 -->
<g id="edge23" class="edge"><title>0&#45;&gt;23</title>
<path fill="none" stroke="black" d="M3327.34,-125.993C3655.04,-122.793 4622.46,-111.883 4937.49,-92 5056.27,-84.5035 5192.6,-67.2155 5279.58,-55.0773"/>
<polygon fill="black" stroke="black" points="5280.25,-58.5165 5289.67,-53.6607 5279.28,-51.5844 5280.25,-58.5165"/>
<text text-anchor="middle" x="5133.49" y="-80.8" font-family="Times,serif" font-size="14.00">µ1(1&#45;µ3)/9</text>
</g>
<!-- 24 -->
<g id="node25" class="node"><title>24</title>
<ellipse fill="none" stroke="black" cx="5607.49" cy="-41" rx="110.48" ry="18"/>
<text text-anchor="middle" x="5607.49" y="-37.3" font-family="Times,serif" font-size="14.00">[[1/1,0/0,0/0], [0/0,0/1,0/0]]</text>
</g>
<!-- 0&#45;&gt;24 -->
<g id="edge24" class="edge"><title>0&#45;&gt;24</title>
<path fill="none" stroke="black" d="M3327.53,-126.249C3683.98,-123.623 4804.72,-113.805 5166.49,-92 5288.69,-84.6348 5429.07,-67.1535 5517.99,-54.9492"/>
<polygon fill="black" stroke="black" points="5518.61,-58.3968 5528.04,-53.5625 5517.66,-51.4625 5518.61,-58.3968"/>
<text text-anchor="middle" x="5366.49" y="-80.8" font-family="Times,serif" font-size="14.00">µ1(1&#45;µ2)/9</text>
</g>
<!-- 25 -->
<g id="node26" class="node"><title>25</title>
<ellipse fill="none" stroke="black" cx="5846.49" cy="-41" rx="110.48" ry="18"/>
<text text-anchor="middle" x="5846.49" y="-37.3" font-family="Times,serif" font-size="14.00">[[0/0,0/1,0/0], [1/1,0/0,0/0]]</text>
</g>
<!-- 0&#45;&gt;25 -->
<g id="edge25" class="edge"><title>0&#45;&gt;25</title>
<path fill="none" stroke="black" d="M3327.73,-126.466C3711.81,-124.413 4989.94,-115.907 5399.49,-92 5545.31,-83.4877 5581.48,-76.5813 5726.49,-59 5736.54,-57.7813 5747.05,-56.4201 5757.5,-55.013"/>
<polygon fill="black" stroke="black" points="5758.04,-58.4717 5767.48,-53.6531 5757.1,-51.5358 5758.04,-58.4717"/>
<text text-anchor="middle" x="5609.49" y="-80.8" font-family="Times,serif" font-size="14.00">µ1(1&#45;µ2)/9</text>
</g>
<!-- 26 -->
<g id="node27" class="node"><title>26</title>
<ellipse fill="none" stroke="black" cx="6085.49" cy="-41" rx="110.48" ry="18"/>
<text text-anchor="middle" x="6085.49" y="-37.3" font-family="Times,serif" font-size="14.00">[[0/0,0/1,0/0], [0/1,0/0,0/0]]</text>
</g>
<!-- 0&#45;&gt;26 -->
<g id="edge26" class="edge"><title>0&#45;&gt;26</title>
<path fill="none" stroke="black" d="M3327.73,-126.691C3738.89,-125.337 5182.87,-118.744 5642.49,-92 5765.44,-84.846 5906.69,-67.2687 5996,-54.9892"/>
<polygon fill="black" stroke="black" points="5996.66,-58.4309 6006.09,-53.594 5995.7,-51.4968 5996.66,-58.4309"/>
<text text-anchor="middle" x="5852.99" y="-80.8" font-family="Times,serif" font-size="14.00">(1&#45;µ1)(1&#45;µ2)/9</text>
</g>
<!-- 27 -->
<g id="node28" class="node"><title>27</title>
<ellipse fill="none" stroke="black" cx="6324.49" cy="-41" rx="110.48" ry="18"/>
<text text-anchor="middle" x="6324.49" y="-37.3" font-family="Times,serif" font-size="14.00">[[0/0,0/1,0/0], [0/0,0/1,0/0]]</text>
</g>
<!-- 0&#45;&gt;27 -->
<g id="edge27" class="edge"><title>0&#45;&gt;27</title>
<path fill="none" stroke="black" d="M3327.85,-126.939C3766.09,-126.482 5384.44,-122.708 5896.49,-92 6014.65,-84.9135 6150.26,-67.4847 6236.6,-55.2063"/>
<polygon fill="black" stroke="black" points="6237.22,-58.6538 6246.62,-53.773 6236.23,-51.7244 6237.22,-58.6538"/>
<text text-anchor="middle" x="6071.49" y="-80.8" font-family="Times,serif" font-size="14.00">1/9</text>
</g>
</g>
</svg>
