<?xml version="1.0" encoding="UTF-8" standalone="no"?>
<!DOCTYPE svg PUBLIC "-//W3C//DTD SVG 1.1//EN"
 "http://www.w3.org/Graphics/SVG/1.1/DTD/svg11.dtd">
<!-- Generated by graphviz version 2.38.0 (20140413.2041)
 -->
<!-- Title: %3 Pages: 1 -->
<svg width="4774pt" height="154pt"
 viewBox="0.00 0.00 4773.78 154.00" xmlns="http://www.w3.org/2000/svg" xmlns:xlink="http://www.w3.org/1999/xlink">
<g id="graph0" class="graph" transform="scale(1 1) rotate(0) translate(4 150)">
<title>%3</title>
<polygon fill="white" stroke="none" points="-4,4 -4,-150 4769.78,-150 4769.78,4 -4,4"/>
<text text-anchor="middle" x="2382.89" y="-7.8" font-family="Times,serif" font-size="14.00">Tree exploration for K=3 arms and M=2 players using RhoRand UCB U and RandomNewRank, for depth=2 : 16 leafs, 0 absorbing</text>
<!-- 0 -->
<g id="node1" class="node"><title>0</title>
<ellipse fill="none" stroke="green" cx="2382.39" cy="-128" rx="140.275" ry="18"/>
<text text-anchor="middle" x="2382.39" y="-124.3" font-family="Times,serif" font-size="14.00">[[2/4,1/3,0/1], [2/4,1/3,0/1]] r=[1, 1]</text>
</g>
<!-- 1 -->
<g id="node2" class="node"><title>1</title>
<ellipse fill="none" stroke="black" cx="140.388" cy="-41" rx="140.275" ry="18"/>
<text text-anchor="middle" x="140.388" y="-37.3" font-family="Times,serif" font-size="14.00">[[2/4,2/4,0/2], [2/5,1/3,0/2]] r=[2, 1]</text>
</g>
<!-- 0&#45;&gt;1 -->
<g id="edge1" class="edge"><title>0&#45;&gt;1</title>
<path fill="none" stroke="black" d="M2242.35,-126.422C1959.24,-124.721 1298.61,-118.047 744.388,-92 542.3,-82.5026 491.829,-77.7284 290.388,-59 277.158,-57.77 263.286,-56.3605 249.545,-54.8909"/>
<polygon fill="black" stroke="black" points="249.891,-51.408 239.573,-53.8118 249.138,-58.3674 249.891,-51.408"/>
<text text-anchor="middle" x="773.388" y="-80.8" font-family="Times,serif" font-size="14.00">µ2(1&#45;µ1)/4</text>
</g>
<!-- 2 -->
<g id="node3" class="node"><title>2</title>
<ellipse fill="none" stroke="black" cx="439.388" cy="-41" rx="140.275" ry="18"/>
<text text-anchor="middle" x="439.388" y="-37.3" font-family="Times,serif" font-size="14.00">[[2/4,1/4,0/2], [3/5,1/3,0/2]] r=[2, 1]</text>
</g>
<!-- 0&#45;&gt;2 -->
<g id="edge2" class="edge"><title>0&#45;&gt;2</title>
<path fill="none" stroke="black" d="M2243.47,-125.203C2003.93,-121.676 1497.71,-112.349 1070.39,-92 856.35,-81.8073 802.788,-78.4034 589.388,-59 576.051,-57.7873 562.062,-56.3815 548.213,-54.9079"/>
<polygon fill="black" stroke="black" points="548.482,-51.4167 538.164,-53.8247 547.732,-58.3764 548.482,-51.4167"/>
<text text-anchor="middle" x="1099.39" y="-80.8" font-family="Times,serif" font-size="14.00">µ1(1&#45;µ2)/4</text>
</g>
<!-- 3 -->
<g id="node4" class="node"><title>3</title>
<ellipse fill="none" stroke="black" cx="738.388" cy="-41" rx="140.275" ry="18"/>
<text text-anchor="middle" x="738.388" y="-37.3" font-family="Times,serif" font-size="14.00">[[2/5,1/3,0/2], [2/5,1/3,0/2]] r=[2, 1]</text>
</g>
<!-- 0&#45;&gt;3 -->
<g id="edge3" class="edge"><title>0&#45;&gt;3</title>
<path fill="none" stroke="black" d="M2244.11,-124.765C1980.11,-119.598 1386.2,-103.646 888.388,-59 875.049,-57.8038 861.06,-56.4078 847.21,-54.9395"/>
<polygon fill="black" stroke="black" points="847.478,-51.4482 837.161,-53.8593 846.73,-58.4081 847.478,-51.4482"/>
<text text-anchor="middle" x="1351.89" y="-80.8" font-family="Times,serif" font-size="14.00">1/16</text>
</g>
<!-- 4 -->
<g id="node5" class="node"><title>4</title>
<ellipse fill="none" stroke="black" cx="1037.39" cy="-41" rx="140.275" ry="18"/>
<text text-anchor="middle" x="1037.39" y="-37.3" font-family="Times,serif" font-size="14.00">[[2/4,1/4,0/2], [2/4,1/4,0/2]] r=[2, 2]</text>
</g>
<!-- 0&#45;&gt;4 -->
<g id="edge4" class="edge"><title>0&#45;&gt;4</title>
<path fill="none" stroke="black" d="M2248.64,-122.446C2027.47,-114.231 1571.75,-94.4035 1187.39,-59 1174.05,-57.7717 1160.06,-56.3564 1146.22,-54.8778"/>
<polygon fill="black" stroke="black" points="1146.49,-51.3867 1136.17,-53.7917 1145.73,-58.3462 1146.49,-51.3867"/>
<text text-anchor="middle" x="1626.89" y="-80.8" font-family="Times,serif" font-size="14.00">1/16</text>
</g>
<!-- 5 -->
<g id="node6" class="node"><title>5</title>
<ellipse fill="none" stroke="black" cx="1336.39" cy="-41" rx="140.275" ry="18"/>
<text text-anchor="middle" x="1336.39" y="-37.3" font-family="Times,serif" font-size="14.00">[[2/5,1/3,0/2], [2/4,2/4,0/2]] r=[1, 2]</text>
</g>
<!-- 0&#45;&gt;5 -->
<g id="edge5" class="edge"><title>0&#45;&gt;5</title>
<path fill="none" stroke="black" d="M2258.88,-119.397C2153.49,-112.738 1997.93,-102.508 1862.39,-92 1695.14,-79.0332 1653.3,-75.7802 1486.39,-59 1473.5,-57.7048 1460.01,-56.2763 1446.61,-54.8142"/>
<polygon fill="black" stroke="black" points="1446.72,-51.3055 1436.4,-53.6913 1445.96,-58.2635 1446.72,-51.3055"/>
<text text-anchor="middle" x="1891.39" y="-80.8" font-family="Times,serif" font-size="14.00">µ2(1&#45;µ1)/4</text>
</g>
<!-- 6 -->
<g id="node7" class="node"><title>6</title>
<ellipse fill="none" stroke="black" cx="1635.39" cy="-41" rx="140.275" ry="18"/>
<text text-anchor="middle" x="1635.39" y="-37.3" font-family="Times,serif" font-size="14.00">[[2/5,1/3,0/2], [2/4,1/4,0/2]] r=[1, 2]</text>
</g>
<!-- 0&#45;&gt;6 -->
<g id="edge6" class="edge"><title>0&#45;&gt;6</title>
<path fill="none" stroke="black" d="M2275.86,-116.227C2210.48,-109.51 2125.06,-100.546 2049.39,-92 1944.83,-80.1919 1825.55,-65.6752 1741.97,-55.3316"/>
<polygon fill="black" stroke="black" points="1742.31,-51.8472 1731.96,-54.0913 1741.45,-58.7941 1742.31,-51.8472"/>
<text text-anchor="middle" x="2088.89" y="-80.8" font-family="Times,serif" font-size="14.00">(1&#45;µ1)(1&#45;µ2)/4</text>
</g>
<!-- 7 -->
<g id="node8" class="node"><title>7</title>
<ellipse fill="none" stroke="black" cx="1934.39" cy="-41" rx="140.275" ry="18"/>
<text text-anchor="middle" x="1934.39" y="-37.3" font-family="Times,serif" font-size="14.00">[[2/4,1/4,0/2], [2/4,1/4,0/2]] r=[1, 1]</text>
</g>
<!-- 0&#45;&gt;7 -->
<g id="edge7" class="edge"><title>0&#45;&gt;7</title>
<path fill="none" stroke="black" d="M2307.4,-112.773C2227.93,-97.6953 2102.67,-73.9291 2019.54,-58.1563"/>
<polygon fill="black" stroke="black" points="2020.09,-54.699 2009.62,-56.2735 2018.79,-61.5763 2020.09,-54.699"/>
<text text-anchor="middle" x="2197.89" y="-80.8" font-family="Times,serif" font-size="14.00">1/16</text>
</g>
<!-- 8 -->
<g id="node9" class="node"><title>8</title>
<ellipse fill="none" stroke="black" cx="2233.39" cy="-41" rx="140.275" ry="18"/>
<text text-anchor="middle" x="2233.39" y="-37.3" font-family="Times,serif" font-size="14.00">[[2/5,1/3,0/2], [2/5,1/3,0/2]] r=[2, 2]</text>
</g>
<!-- 0&#45;&gt;8 -->
<g id="edge8" class="edge"><title>0&#45;&gt;8</title>
<path fill="none" stroke="black" d="M2352.95,-110.207C2329.61,-96.8918 2296.82,-78.1848 2271.48,-63.7291"/>
<polygon fill="black" stroke="black" points="2272.93,-60.5286 2262.51,-58.6135 2269.46,-66.6088 2272.93,-60.5286"/>
<text text-anchor="middle" x="2329.89" y="-80.8" font-family="Times,serif" font-size="14.00">1/16</text>
</g>
<!-- 9 -->
<g id="node10" class="node"><title>9</title>
<ellipse fill="none" stroke="black" cx="2532.39" cy="-41" rx="140.275" ry="18"/>
<text text-anchor="middle" x="2532.39" y="-37.3" font-family="Times,serif" font-size="14.00">[[2/4,1/4,0/2], [2/4,1/4,0/2]] r=[1, 2]</text>
</g>
<!-- 0&#45;&gt;9 -->
<g id="edge9" class="edge"><title>0&#45;&gt;9</title>
<path fill="none" stroke="black" d="M2412.02,-110.207C2435.52,-96.8918 2468.53,-78.1848 2494.04,-63.7291"/>
<polygon fill="black" stroke="black" points="2496.09,-66.5888 2503.07,-58.6135 2492.64,-60.4986 2496.09,-66.5888"/>
<text text-anchor="middle" x="2478.89" y="-80.8" font-family="Times,serif" font-size="14.00">1/16</text>
</g>
<!-- 10 -->
<g id="node11" class="node"><title>10</title>
<ellipse fill="none" stroke="black" cx="2831.39" cy="-41" rx="140.275" ry="18"/>
<text text-anchor="middle" x="2831.39" y="-37.3" font-family="Times,serif" font-size="14.00">[[2/4,1/4,0/2], [2/5,1/3,0/2]] r=[2, 1]</text>
</g>
<!-- 0&#45;&gt;10 -->
<g id="edge10" class="edge"><title>0&#45;&gt;10</title>
<path fill="none" stroke="black" d="M2457.54,-112.773C2537.19,-97.6953 2662.73,-73.9291 2746.04,-58.1563"/>
<polygon fill="black" stroke="black" points="2746.82,-61.5726 2755.99,-56.2735 2745.51,-54.6947 2746.82,-61.5726"/>
<text text-anchor="middle" x="2673.89" y="-80.8" font-family="Times,serif" font-size="14.00">(1&#45;µ1)(1&#45;µ2)/4</text>
</g>
<!-- 11 -->
<g id="node12" class="node"><title>11</title>
<ellipse fill="none" stroke="black" cx="3130.39" cy="-41" rx="140.275" ry="18"/>
<text text-anchor="middle" x="3130.39" y="-37.3" font-family="Times,serif" font-size="14.00">[[2/5,1/3,0/2], [2/5,1/3,0/2]] r=[1, 1]</text>
</g>
<!-- 0&#45;&gt;11 -->
<g id="edge11" class="edge"><title>0&#45;&gt;11</title>
<path fill="none" stroke="black" d="M2489.18,-116.293C2555,-109.582 2641.12,-100.6 2717.39,-92 2821.7,-80.2374 2940.69,-65.7145 3024.07,-55.357"/>
<polygon fill="black" stroke="black" points="3024.56,-58.8223 3034.06,-54.115 3023.7,-51.8758 3024.56,-58.8223"/>
<text text-anchor="middle" x="2854.89" y="-80.8" font-family="Times,serif" font-size="14.00">1/16</text>
</g>
<!-- 12 -->
<g id="node13" class="node"><title>12</title>
<ellipse fill="none" stroke="black" cx="3429.39" cy="-41" rx="140.275" ry="18"/>
<text text-anchor="middle" x="3429.39" y="-37.3" font-family="Times,serif" font-size="14.00">[[3/5,1/3,0/2], [2/4,1/4,0/2]] r=[1, 2]</text>
</g>
<!-- 0&#45;&gt;12 -->
<g id="edge12" class="edge"><title>0&#45;&gt;12</title>
<path fill="none" stroke="black" d="M2505.49,-119.319C2678.49,-108.15 3003.28,-85.8054 3279.39,-59 3292.38,-57.7387 3305.99,-56.3247 3319.5,-54.8653"/>
<polygon fill="black" stroke="black" points="3320.23,-58.3064 3329.79,-53.7421 3319.47,-51.3477 3320.23,-58.3064"/>
<text text-anchor="middle" x="3087.39" y="-80.8" font-family="Times,serif" font-size="14.00">µ1(1&#45;µ2)/4</text>
</g>
<!-- 13 -->
<g id="node14" class="node"><title>13</title>
<ellipse fill="none" stroke="black" cx="3728.39" cy="-41" rx="140.275" ry="18"/>
<text text-anchor="middle" x="3728.39" y="-37.3" font-family="Times,serif" font-size="14.00">[[2/5,1/3,0/2], [2/5,1/3,0/2]] r=[1, 2]</text>
</g>
<!-- 0&#45;&gt;13 -->
<g id="edge13" class="edge"><title>0&#45;&gt;13</title>
<path fill="none" stroke="black" d="M2516.25,-122.5C2737.61,-114.361 3193.72,-94.6406 3578.39,-59 3591.62,-57.7742 3605.49,-56.3672 3619.23,-54.8989"/>
<polygon fill="black" stroke="black" points="3619.64,-58.3755 3629.2,-53.8206 3618.88,-51.4161 3619.64,-58.3755"/>
<text text-anchor="middle" x="3362.89" y="-80.8" font-family="Times,serif" font-size="14.00">1/16</text>
</g>
<!-- 14 -->
<g id="node15" class="node"><title>14</title>
<ellipse fill="none" stroke="black" cx="4027.39" cy="-41" rx="140.275" ry="18"/>
<text text-anchor="middle" x="4027.39" y="-37.3" font-family="Times,serif" font-size="14.00">[[2/4,2/4,0/2], [3/5,1/3,0/2]] r=[2, 1]</text>
</g>
<!-- 0&#45;&gt;14 -->
<g id="edge14" class="edge"><title>0&#45;&gt;14</title>
<path fill="none" stroke="black" d="M2520.76,-124.776C2784.94,-119.629 3379.24,-103.708 3877.39,-59 3890.73,-57.8029 3904.72,-56.4064 3918.57,-54.9378"/>
<polygon fill="black" stroke="black" points="3919.05,-58.4064 3928.61,-53.8575 3918.3,-51.4465 3919.05,-58.4064"/>
<text text-anchor="middle" x="3652.39" y="-80.8" font-family="Times,serif" font-size="14.00">µ1µ2/4</text>
</g>
<!-- 15 -->
<g id="node16" class="node"><title>15</title>
<ellipse fill="none" stroke="black" cx="4326.39" cy="-41" rx="140.275" ry="18"/>
<text text-anchor="middle" x="4326.39" y="-37.3" font-family="Times,serif" font-size="14.00">[[3/5,1/3,0/2], [2/4,2/4,0/2]] r=[1, 2]</text>
</g>
<!-- 0&#45;&gt;15 -->
<g id="edge15" class="edge"><title>0&#45;&gt;15</title>
<path fill="none" stroke="black" d="M2521.18,-125.005C2758.01,-121.205 3255.35,-111.511 3675.39,-92 3898.3,-81.6456 3954.13,-78.9035 4176.39,-59 4189.73,-57.8055 4203.72,-56.4106 4217.57,-54.9428"/>
<polygon fill="black" stroke="black" points="4218.05,-58.4115 4227.61,-53.863 4217.3,-51.4516 4218.05,-58.4115"/>
<text text-anchor="middle" x="3970.39" y="-80.8" font-family="Times,serif" font-size="14.00">µ1µ2/4</text>
</g>
<!-- 16 -->
<g id="node17" class="node"><title>16</title>
<ellipse fill="none" stroke="black" cx="4625.39" cy="-41" rx="140.275" ry="18"/>
<text text-anchor="middle" x="4625.39" y="-37.3" font-family="Times,serif" font-size="14.00">[[2/4,1/4,0/2], [2/4,1/4,0/2]] r=[2, 1]</text>
</g>
<!-- 0&#45;&gt;16 -->
<g id="edge16" class="edge"><title>0&#45;&gt;16</title>
<path fill="none" stroke="black" d="M2522.26,-126.154C2801.86,-123.979 3449.64,-116.507 3993.39,-92 4207.89,-82.3321 4261.54,-78.4284 4475.39,-59 4488.72,-57.7883 4502.71,-56.383 4516.56,-54.9097"/>
<polygon fill="black" stroke="black" points="4517.04,-58.3782 4526.61,-53.8267 4516.29,-51.4185 4517.04,-58.3782"/>
<text text-anchor="middle" x="4271.89" y="-80.8" font-family="Times,serif" font-size="14.00">1/16</text>
</g>
</g>
</svg>
