<?xml version="1.0" encoding="UTF-8" standalone="no"?>
<!DOCTYPE svg PUBLIC "-//W3C//DTD SVG 1.1//EN"
 "http://www.w3.org/Graphics/SVG/1.1/DTD/svg11.dtd">
<!-- Generated by graphviz version 2.38.0 (20140413.2041)
 -->
<!-- Title: %3 Pages: 1 -->
<svg width="1830pt" height="154pt"
 viewBox="0.00 0.00 1830.39 154.00" xmlns="http://www.w3.org/2000/svg" xmlns:xlink="http://www.w3.org/1999/xlink">
<g id="graph0" class="graph" transform="scale(1 1) rotate(0) translate(4 150)">
<title>%3</title>
<polygon fill="white" stroke="none" points="-4,4 -4,-150 1826.39,-150 1826.39,4 -4,4"/>
<text text-anchor="middle" x="911.193" y="-7.8" font-family="Times,serif" font-size="14.00">Tree exploration for K=2 arms and M=2 players using Selfish_UCB_Ubar, for depth=1 : 10 leafs, 0 absorbing</text>
<!-- 0 -->
<g id="node1" class="node"><title>0</title>
<ellipse fill="none" stroke="green" cx="911.193" cy="-128" rx="83.3857" ry="18"/>
<text text-anchor="middle" x="911.193" y="-124.3" font-family="Times,serif" font-size="14.00">[[0/0,0/0], [0/0,0/0]]</text>
</g>
<!-- 1 -->
<g id="node2" class="node"><title>1</title>
<ellipse fill="none" stroke="black" cx="83.1926" cy="-41" rx="83.3857" ry="18"/>
<text text-anchor="middle" x="83.1926" y="-37.3" font-family="Times,serif" font-size="14.00">[[1/1,0/0], [0/0,0/1]]</text>
</g>
<!-- 0&#45;&gt;1 -->
<g id="edge1" class="edge"><title>0&#45;&gt;1</title>
<path fill="none" stroke="black" d="M830.525,-123.312C730.188,-118.294 553.73,-108.057 403.193,-92 301.381,-81.1402 276.221,-75.6389 175.193,-59 168.141,-57.8386 160.795,-56.5742 153.465,-55.2766"/>
<polygon fill="black" stroke="black" points="153.969,-51.8112 143.509,-53.4931 152.735,-58.7016 153.969,-51.8112"/>
<text text-anchor="middle" x="432.193" y="-80.8" font-family="Times,serif" font-size="14.00">µ1(1&#45;µ2)/4</text>
</g>
<!-- 2 -->
<g id="node3" class="node"><title>2</title>
<ellipse fill="none" stroke="black" cx="267.193" cy="-41" rx="83.3857" ry="18"/>
<text text-anchor="middle" x="267.193" y="-37.3" font-family="Times,serif" font-size="14.00">[[0/0,0/1], [0/0,0/1]]</text>
</g>
<!-- 0&#45;&gt;2 -->
<g id="edge2" class="edge"><title>0&#45;&gt;2</title>
<path fill="none" stroke="black" d="M835.008,-120.666C764.402,-114.481 656.513,-104.23 563.193,-92 472.126,-80.0658 449.69,-74.6788 359.193,-59 352.418,-57.8263 345.369,-56.576 338.321,-55.3065"/>
<polygon fill="black" stroke="black" points="338.492,-51.7805 328.028,-53.4395 337.242,-58.6681 338.492,-51.7805"/>
<text text-anchor="middle" x="572.193" y="-80.8" font-family="Times,serif" font-size="14.00">1/4</text>
</g>
<!-- 3 -->
<g id="node4" class="node"><title>3</title>
<ellipse fill="none" stroke="black" cx="451.193" cy="-41" rx="83.3857" ry="18"/>
<text text-anchor="middle" x="451.193" y="-37.3" font-family="Times,serif" font-size="14.00">[[0/1,0/0], [0/0,0/1]]</text>
</g>
<!-- 0&#45;&gt;3 -->
<g id="edge3" class="edge"><title>0&#45;&gt;3</title>
<path fill="none" stroke="black" d="M837.995,-119.348C785.705,-113.347 713.817,-104.005 651.193,-92 603.072,-82.7756 549.223,-69.1185 509.534,-58.4074"/>
<polygon fill="black" stroke="black" points="510.329,-54.9965 499.761,-55.7522 508.494,-61.7516 510.329,-54.9965"/>
<text text-anchor="middle" x="690.693" y="-80.8" font-family="Times,serif" font-size="14.00">(1&#45;µ1)(1&#45;µ2)/4</text>
</g>
<!-- 4 -->
<g id="node5" class="node"><title>4</title>
<ellipse fill="none" stroke="black" cx="635.193" cy="-41" rx="83.3857" ry="18"/>
<text text-anchor="middle" x="635.193" y="-37.3" font-family="Times,serif" font-size="14.00">[[0/0,0/1], [0/1,0/0]]</text>
</g>
<!-- 0&#45;&gt;4 -->
<g id="edge4" class="edge"><title>0&#45;&gt;4</title>
<path fill="none" stroke="black" d="M857.761,-114.127C833.101,-107.909 803.518,-100.058 777.193,-92 746.031,-82.4621 711.538,-70.3539 684.351,-60.4418"/>
<polygon fill="black" stroke="black" points="685.279,-57.0542 674.686,-56.8982 682.87,-63.6265 685.279,-57.0542"/>
<text text-anchor="middle" x="816.693" y="-80.8" font-family="Times,serif" font-size="14.00">(1&#45;µ1)(1&#45;µ2)/4</text>
</g>
<!-- 5 -->
<g id="node6" class="node"><title>5</title>
<ellipse fill="none" stroke="black" cx="819.193" cy="-41" rx="83.3857" ry="18"/>
<text text-anchor="middle" x="819.193" y="-37.3" font-family="Times,serif" font-size="14.00">[[0/1,0/0], [0/0,1/1]]</text>
</g>
<!-- 0&#45;&gt;5 -->
<g id="edge5" class="edge"><title>0&#45;&gt;5</title>
<path fill="none" stroke="black" d="M893.016,-110.207C879.282,-97.517 860.246,-79.9297 844.945,-65.7925"/>
<polygon fill="black" stroke="black" points="847.051,-62.9738 837.331,-58.7584 842.301,-68.1153 847.051,-62.9738"/>
<text text-anchor="middle" x="900.193" y="-80.8" font-family="Times,serif" font-size="14.00">µ2(1&#45;µ1)/4</text>
</g>
<!-- 6 -->
<g id="node7" class="node"><title>6</title>
<ellipse fill="none" stroke="black" cx="1003.19" cy="-41" rx="83.3857" ry="18"/>
<text text-anchor="middle" x="1003.19" y="-37.3" font-family="Times,serif" font-size="14.00">[[0/0,1/1], [1/1,0/0]]</text>
</g>
<!-- 0&#45;&gt;6 -->
<g id="edge6" class="edge"><title>0&#45;&gt;6</title>
<path fill="none" stroke="black" d="M929.369,-110.207C943.104,-97.517 962.139,-79.9297 977.441,-65.7925"/>
<polygon fill="black" stroke="black" points="980.084,-68.1153 985.054,-58.7584 975.334,-62.9738 980.084,-68.1153"/>
<text text-anchor="middle" x="982.193" y="-80.8" font-family="Times,serif" font-size="14.00">µ1µ2/4</text>
</g>
<!-- 7 -->
<g id="node8" class="node"><title>7</title>
<ellipse fill="none" stroke="black" cx="1187.19" cy="-41" rx="83.3857" ry="18"/>
<text text-anchor="middle" x="1187.19" y="-37.3" font-family="Times,serif" font-size="14.00">[[0/1,0/0], [0/1,0/0]]</text>
</g>
<!-- 0&#45;&gt;7 -->
<g id="edge7" class="edge"><title>0&#45;&gt;7</title>
<path fill="none" stroke="black" d="M957.078,-112.869C1005.03,-98.1004 1080.29,-74.9215 1131.59,-59.1235"/>
<polygon fill="black" stroke="black" points="1132.67,-62.4536 1141.2,-56.1652 1130.61,-55.7636 1132.67,-62.4536"/>
<text text-anchor="middle" x="1075.19" y="-80.8" font-family="Times,serif" font-size="14.00">1/4</text>
</g>
<!-- 8 -->
<g id="node9" class="node"><title>8</title>
<ellipse fill="none" stroke="black" cx="1371.19" cy="-41" rx="83.3857" ry="18"/>
<text text-anchor="middle" x="1371.19" y="-37.3" font-family="Times,serif" font-size="14.00">[[0/0,0/1], [1/1,0/0]]</text>
</g>
<!-- 0&#45;&gt;8 -->
<g id="edge8" class="edge"><title>0&#45;&gt;8</title>
<path fill="none" stroke="black" d="M972.277,-115.713C1057.11,-100.037 1210.28,-71.7347 1300.12,-55.1323"/>
<polygon fill="black" stroke="black" points="1301.02,-58.5251 1310.22,-53.2663 1299.75,-51.6417 1301.02,-58.5251"/>
<text text-anchor="middle" x="1197.19" y="-80.8" font-family="Times,serif" font-size="14.00">µ1(1&#45;µ2)/4</text>
</g>
<!-- 9 -->
<g id="node10" class="node"><title>9</title>
<ellipse fill="none" stroke="black" cx="1555.19" cy="-41" rx="83.3857" ry="18"/>
<text text-anchor="middle" x="1555.19" y="-37.3" font-family="Times,serif" font-size="14.00">[[1/1,0/0], [0/0,1/1]]</text>
</g>
<!-- 0&#45;&gt;9 -->
<g id="edge9" class="edge"><title>0&#45;&gt;9</title>
<path fill="none" stroke="black" d="M985.561,-119.707C1091.83,-108.862 1293.09,-86.75 1463.19,-59 1470.25,-57.8493 1477.59,-56.592 1484.92,-55.2987"/>
<polygon fill="black" stroke="black" points="1485.65,-58.724 1494.88,-53.5194 1484.42,-51.8331 1485.65,-58.724"/>
<text text-anchor="middle" x="1361.19" y="-80.8" font-family="Times,serif" font-size="14.00">µ1µ2/4</text>
</g>
<!-- 10 -->
<g id="node11" class="node"><title>10</title>
<ellipse fill="none" stroke="black" cx="1739.19" cy="-41" rx="83.3857" ry="18"/>
<text text-anchor="middle" x="1739.19" y="-37.3" font-family="Times,serif" font-size="14.00">[[0/0,1/1], [0/1,0/0]]</text>
</g>
<!-- 0&#45;&gt;10 -->
<g id="edge10" class="edge"><title>0&#45;&gt;10</title>
<path fill="none" stroke="black" d="M990.387,-122.377C1084.42,-116.602 1245.92,-105.781 1384.19,-92 1501.42,-80.3162 1530.78,-77.0439 1647.19,-59 1654.45,-57.8756 1662.01,-56.6184 1669.54,-55.3103"/>
<polygon fill="black" stroke="black" points="1670.16,-58.7551 1679.4,-53.5682 1668.94,-51.862 1670.16,-58.7551"/>
<text text-anchor="middle" x="1549.19" y="-80.8" font-family="Times,serif" font-size="14.00">µ2(1&#45;µ1)/4</text>
</g>
</g>
</svg>
