<?xml version="1.0" encoding="UTF-8" standalone="no"?>
<!DOCTYPE svg PUBLIC "-//W3C//DTD SVG 1.1//EN"
 "http://www.w3.org/Graphics/SVG/1.1/DTD/svg11.dtd">
<!-- Generated by graphviz version 2.38.0 (20140413.2041)
 -->
<!-- Title: %3 Pages: 1 -->
<svg width="3102pt" height="154pt"
 viewBox="0.00 0.00 3102.39 154.00" xmlns="http://www.w3.org/2000/svg" xmlns:xlink="http://www.w3.org/1999/xlink">
<g id="graph0" class="graph" transform="scale(1 1) rotate(0) translate(4 150)">
<title>%3</title>
<polygon fill="white" stroke="none" points="-4,4 -4,-150 3098.39,-150 3098.39,4 -4,4"/>
<text text-anchor="middle" x="1547.19" y="-7.8" font-family="Times,serif" font-size="14.00">Tree exploration for K=2 arms and M=2 players using Selfish_KLUCB_Ubar, for depth=2 : 16 leafs, 2 absorbing</text>
<!-- 0 -->
<g id="node1" class="node"><title>0</title>
<ellipse fill="none" stroke="green" cx="1631.19" cy="-128" rx="83.3857" ry="18"/>
<text text-anchor="middle" x="1631.19" y="-124.3" font-family="Times,serif" font-size="14.00">[[0/0,0/0], [0/0,0/0]]</text>
</g>
<!-- 1 -->
<g id="node2" class="node"><title>1</title>
<ellipse fill="none" stroke="black" cx="83.1926" cy="-41" rx="83.3857" ry="18"/>
<text text-anchor="middle" x="83.1926" y="-37.3" font-family="Times,serif" font-size="14.00">[[1/1,1/1], [1/1,0/1]]</text>
</g>
<!-- 0&#45;&gt;1 -->
<g id="edge1" class="edge"><title>0&#45;&gt;1</title>
<path fill="none" stroke="black" d="M1548.07,-126.521C1265.06,-124.673 349.262,-116.819 219.193,-92 186.731,-85.806 151.773,-72.8026 125.428,-61.6094"/>
<polygon fill="black" stroke="black" points="126.7,-58.3461 116.132,-57.5835 123.918,-64.7695 126.7,-58.3461"/>
<text text-anchor="middle" x="261.693" y="-80.8" font-family="Times,serif" font-size="14.00">µ1^2µ2(1&#45;µ2)/2</text>
</g>
<!-- 2 -->
<g id="node3" class="node"><title>2</title>
<ellipse fill="none" stroke="black" cx="267.193" cy="-41" rx="83.3857" ry="18"/>
<text text-anchor="middle" x="267.193" y="-37.3" font-family="Times,serif" font-size="14.00">[[0/1,0/1], [0/1,0/1]]</text>
</g>
<!-- 0&#45;&gt;2 -->
<g id="edge2" class="edge"><title>0&#45;&gt;2</title>
<path fill="none" stroke="black" d="M1548.04,-126.105C1270.99,-122.947 393.533,-111.451 336.193,-92 319.759,-86.4252 303.898,-75.461 291.535,-65.2171"/>
<polygon fill="black" stroke="black" points="293.799,-62.5474 283.946,-58.6532 289.22,-67.842 293.799,-62.5474"/>
<text text-anchor="middle" x="543.693" y="-80.8" font-family="Times,serif" font-size="14.00">(µ1^2µ2^2 &#45; 2µ1^2µ2 + µ1^2 &#45; 2µ1µ2^2 + 4µ1µ2 &#45; 2µ1 + µ2^2 &#45; 2µ2 + 2)/2</text>
</g>
<!-- 3 -->
<g id="node4" class="node"><title>3</title>
<ellipse fill="none" stroke="black" cx="619.193" cy="-41" rx="83.3857" ry="18"/>
<text text-anchor="middle" x="619.193" y="-37.3" font-family="Times,serif" font-size="14.00">[[0/1,1/1], [0/1,0/1]]</text>
</g>
<!-- 0&#45;&gt;3 -->
<g id="edge3" class="edge"><title>0&#45;&gt;3</title>
<path fill="none" stroke="black" d="M1548.6,-125.355C1373.06,-121.536 967.78,-110.924 831.193,-92 778.136,-84.6492 718.89,-70.1258 676.547,-58.6174"/>
<polygon fill="black" stroke="black" points="677.271,-55.1866 666.701,-55.9129 675.416,-61.9366 677.271,-55.1866"/>
<text text-anchor="middle" x="887.693" y="-80.8" font-family="Times,serif" font-size="14.00">µ2(µ1 &#45; 1)^2(1&#45;µ2)/2</text>
</g>
<!-- 4 -->
<g id="node5" class="node"><title>4</title>
<ellipse fill="none" stroke="black" cx="803.193" cy="-41" rx="83.3857" ry="18"/>
<text text-anchor="middle" x="803.193" y="-37.3" font-family="Times,serif" font-size="14.00">[[0/1,1/1], [1/1,1/1]]</text>
</g>
<!-- 0&#45;&gt;4 -->
<g id="edge4" class="edge"><title>0&#45;&gt;4</title>
<path fill="none" stroke="black" d="M1548.15,-126.318C1431.82,-124.419 1213.96,-117.426 1030.19,-92 972.841,-84.0649 908.475,-69.3195 862.97,-57.8896"/>
<polygon fill="black" stroke="black" points="863.821,-54.4948 853.268,-55.4311 862.102,-61.2803 863.821,-54.4948"/>
<text text-anchor="middle" x="1072.69" y="-80.8" font-family="Times,serif" font-size="14.00">µ1µ2^2(1&#45;µ1)/2</text>
</g>
<!-- 5 -->
<g id="node6" class="node"><title>5</title>
<ellipse fill="none" stroke="black" cx="987.193" cy="-41" rx="83.3857" ry="18"/>
<text text-anchor="middle" x="987.193" y="-37.3" font-family="Times,serif" font-size="14.00">[[1/1,1/1], [1/1,1/1]]</text>
</g>
<!-- 0&#45;&gt;5 -->
<g id="edge5" class="edge"><title>0&#45;&gt;5</title>
<path fill="none" stroke="black" d="M1549.39,-124.285C1461.25,-120.467 1317.07,-111.637 1194.19,-92 1143.1,-83.8346 1086,-69.6525 1044.73,-58.4732"/>
<polygon fill="black" stroke="black" points="1045.43,-55.0354 1034.86,-55.7743 1043.58,-61.7876 1045.43,-55.0354"/>
<text text-anchor="middle" x="1226.69" y="-80.8" font-family="Times,serif" font-size="14.00">µ1^2µ2^2/2</text>
</g>
<!-- 6 -->
<g id="node7" class="node"><title>6</title>
<ellipse fill="none" stroke="black" cx="1171.19" cy="-41" rx="83.3857" ry="18"/>
<text text-anchor="middle" x="1171.19" y="-37.3" font-family="Times,serif" font-size="14.00">[[0/1,0/1], [1/1,1/1]]</text>
</g>
<!-- 0&#45;&gt;6 -->
<g id="edge6" class="edge"><title>0&#45;&gt;6</title>
<path fill="none" stroke="black" d="M1551.36,-122.936C1487.42,-118.526 1395.74,-109.604 1317.19,-92 1283.17,-84.3738 1246,-71.5778 1217.68,-60.8402"/>
<polygon fill="black" stroke="black" points="1218.64,-57.4605 1208.05,-57.1398 1216.13,-63.9945 1218.64,-57.4605"/>
<text text-anchor="middle" x="1370.19" y="-80.8" font-family="Times,serif" font-size="14.00">µ1µ2(1&#45;µ1)(1&#45;µ2)/2</text>
</g>
<!-- 7 -->
<g id="node8" class="node"><title>7</title>
<ellipse fill="none" stroke="black" cx="1355.19" cy="-41" rx="83.3857" ry="18"/>
<text text-anchor="middle" x="1355.19" y="-37.3" font-family="Times,serif" font-size="14.00">[[1/1,1/1], [0/1,0/1]]</text>
</g>
<!-- 0&#45;&gt;7 -->
<g id="edge7" class="edge"><title>0&#45;&gt;7</title>
<path fill="none" stroke="black" d="M1566.08,-116.682C1535.1,-110.913 1497.79,-102.703 1465.19,-92 1441,-84.056 1415.01,-72.4015 1394.37,-62.3424"/>
<polygon fill="black" stroke="black" points="1395.81,-59.1479 1385.29,-57.852 1392.71,-65.4225 1395.81,-59.1479"/>
<text text-anchor="middle" x="1518.19" y="-80.8" font-family="Times,serif" font-size="14.00">µ1µ2(1&#45;µ1)(1&#45;µ2)/2</text>
</g>
<!-- 8 -->
<g id="node9" class="node"><title>8</title>
<ellipse fill="none" stroke="black" cx="1539.19" cy="-41" rx="83.3857" ry="18"/>
<text text-anchor="middle" x="1539.19" y="-37.3" font-family="Times,serif" font-size="14.00">[[1/1,0/1], [0/1,0/1]]</text>
</g>
<!-- 0&#45;&gt;8 -->
<g id="edge8" class="edge"><title>0&#45;&gt;8</title>
<path fill="none" stroke="black" d="M1611.91,-110.446C1605.28,-104.675 1597.86,-98.113 1591.19,-92 1582.06,-83.6185 1572.21,-74.242 1563.57,-65.8935"/>
<polygon fill="black" stroke="black" points="1565.95,-63.3247 1556.33,-58.8725 1561.07,-68.3483 1565.95,-63.3247"/>
<text text-anchor="middle" x="1646.19" y="-80.8" font-family="Times,serif" font-size="14.00">&#45;µ1(1&#45;µ1)(1&#45;µ2)^2/2</text>
</g>
<!-- 9 -->
<g id="node10" class="node"><title>9</title>
<ellipse fill="none" stroke="red" cx="1723.19" cy="-41" rx="83.3857" ry="18"/>
<text text-anchor="middle" x="1723.19" y="-37.3" font-family="Times,serif" font-size="14.00">[[0/1,1/1], [0/1,1/1]]</text>
</g>
<!-- 0&#45;&gt;9 -->
<g id="edge9" class="edge"><title>0&#45;&gt;9</title>
<path fill="none" stroke="black" d="M1672.51,-112.21C1682.84,-107.033 1693.23,-100.365 1701.19,-92 1707.33,-85.5542 1711.92,-77.1152 1715.28,-69.0105"/>
<polygon fill="black" stroke="black" points="1718.63,-70.0406 1718.78,-59.4469 1712.06,-67.633 1718.63,-70.0406"/>
<text text-anchor="middle" x="1757.69" y="-80.8" font-family="Times,serif" font-size="14.00">µ2^2(µ1 &#45; 1)^2/2</text>
</g>
<!-- 10 -->
<g id="node11" class="node"><title>10</title>
<ellipse fill="none" stroke="black" cx="1907.19" cy="-41" rx="83.3857" ry="18"/>
<text text-anchor="middle" x="1907.19" y="-37.3" font-family="Times,serif" font-size="14.00">[[1/1,0/1], [1/1,1/1]]</text>
</g>
<!-- 0&#45;&gt;10 -->
<g id="edge10" class="edge"><title>0&#45;&gt;10</title>
<path fill="none" stroke="black" d="M1700,-117.869C1733.25,-112.333 1773.39,-103.977 1808.19,-92 1830,-84.4956 1853.07,-73.0693 1871.45,-63.0333"/>
<polygon fill="black" stroke="black" points="1873.3,-66.0108 1880.33,-58.0912 1869.89,-59.8934 1873.3,-66.0108"/>
<text text-anchor="middle" x="1883.69" y="-80.8" font-family="Times,serif" font-size="14.00">µ1^2µ2(1&#45;µ2)/2</text>
</g>
<!-- 11 -->
<g id="node12" class="node"><title>11</title>
<ellipse fill="none" stroke="black" cx="2091.19" cy="-41" rx="83.3857" ry="18"/>
<text text-anchor="middle" x="2091.19" y="-37.3" font-family="Times,serif" font-size="14.00">[[0/1,0/1], [0/1,1/1]]</text>
</g>
<!-- 0&#45;&gt;11 -->
<g id="edge11" class="edge"><title>0&#45;&gt;11</title>
<path fill="none" stroke="black" d="M1709.58,-121.801C1770.27,-116.821 1856.18,-107.683 1930.19,-92 1967.91,-84.0065 2009.45,-70.9986 2040.88,-60.2543"/>
<polygon fill="black" stroke="black" points="2042.41,-63.4301 2050.72,-56.8546 2040.12,-56.8143 2042.41,-63.4301"/>
<text text-anchor="middle" x="2039.69" y="-80.8" font-family="Times,serif" font-size="14.00">µ2(µ1 &#45; 1)^2(1&#45;µ2)/2</text>
</g>
<!-- 12 -->
<g id="node13" class="node"><title>12</title>
<ellipse fill="none" stroke="black" cx="2275.19" cy="-41" rx="83.3857" ry="18"/>
<text text-anchor="middle" x="2275.19" y="-37.3" font-family="Times,serif" font-size="14.00">[[1/1,0/1], [0/1,1/1]]</text>
</g>
<!-- 0&#45;&gt;12 -->
<g id="edge12" class="edge"><title>0&#45;&gt;12</title>
<path fill="none" stroke="black" d="M1714.01,-125.905C1808.22,-123.486 1966.35,-115.856 2100.19,-92 2142.38,-84.4805 2188.98,-70.8966 2223.48,-59.7835"/>
<polygon fill="black" stroke="black" points="2224.9,-63.0005 2233.32,-56.5729 2222.73,-56.3453 2224.9,-63.0005"/>
<text text-anchor="middle" x="2216.19" y="-80.8" font-family="Times,serif" font-size="14.00">µ1µ2(1&#45;µ1)(1&#45;µ2)/2</text>
</g>
<!-- 13 -->
<g id="node14" class="node"><title>13</title>
<ellipse fill="none" stroke="black" cx="2459.19" cy="-41" rx="83.3857" ry="18"/>
<text text-anchor="middle" x="2459.19" y="-37.3" font-family="Times,serif" font-size="14.00">[[1/1,1/1], [0/1,1/1]]</text>
</g>
<!-- 0&#45;&gt;13 -->
<g id="edge13" class="edge"><title>0&#45;&gt;13</title>
<path fill="none" stroke="black" d="M1714.63,-127.964C1837.67,-128.144 2074.65,-123.742 2273.19,-92 2318.62,-84.7379 2368.93,-70.8424 2405.76,-59.5397"/>
<polygon fill="black" stroke="black" points="2407.27,-62.7373 2415.78,-56.4282 2405.19,-56.0525 2407.27,-62.7373"/>
<text text-anchor="middle" x="2382.69" y="-80.8" font-family="Times,serif" font-size="14.00">µ1µ2^2(1&#45;µ1)/2</text>
</g>
<!-- 14 -->
<g id="node15" class="node"><title>14</title>
<ellipse fill="none" stroke="black" cx="2643.19" cy="-41" rx="83.3857" ry="18"/>
<text text-anchor="middle" x="2643.19" y="-37.3" font-family="Times,serif" font-size="14.00">[[0/1,1/1], [1/1,0/1]]</text>
</g>
<!-- 0&#45;&gt;14 -->
<g id="edge14" class="edge"><title>0&#45;&gt;14</title>
<path fill="none" stroke="black" d="M1713.58,-125.327C1888.67,-121.454 2292.93,-110.742 2429.19,-92 2483.02,-84.5969 2543.18,-69.9579 2585.98,-58.4242"/>
<polygon fill="black" stroke="black" points="2586.92,-61.7947 2595.65,-55.7903 2585.08,-55.0407 2586.92,-61.7947"/>
<text text-anchor="middle" x="2559.19" y="-80.8" font-family="Times,serif" font-size="14.00">µ1µ2(1&#45;µ1)(1&#45;µ2)/2</text>
</g>
<!-- 15 -->
<g id="node16" class="node"><title>15</title>
<ellipse fill="none" stroke="red" cx="2827.19" cy="-41" rx="83.3857" ry="18"/>
<text text-anchor="middle" x="2827.19" y="-37.3" font-family="Times,serif" font-size="14.00">[[1/1,0/1], [1/1,0/1]]</text>
</g>
<!-- 0&#45;&gt;15 -->
<g id="edge15" class="edge"><title>0&#45;&gt;15</title>
<path fill="none" stroke="black" d="M1714.07,-126.156C1918.52,-123.736 2442.9,-115.378 2616.19,-92 2669.21,-84.8475 2728.39,-70.2286 2770.54,-58.6366"/>
<polygon fill="black" stroke="black" points="2771.65,-61.963 2780.34,-55.9125 2769.77,-55.2188 2771.65,-61.963"/>
<text text-anchor="middle" x="2738.69" y="-80.8" font-family="Times,serif" font-size="14.00">µ1^2(µ2 &#45; 1)^2/2</text>
</g>
<!-- 16 -->
<g id="node17" class="node"><title>16</title>
<ellipse fill="none" stroke="black" cx="3011.19" cy="-41" rx="83.3857" ry="18"/>
<text text-anchor="middle" x="3011.19" y="-37.3" font-family="Times,serif" font-size="14.00">[[0/1,0/1], [1/1,0/1]]</text>
</g>
<!-- 0&#45;&gt;16 -->
<g id="edge16" class="edge"><title>0&#45;&gt;16</title>
<path fill="none" stroke="black" d="M1714.51,-126.551C1943.86,-124.985 2581.17,-118.323 2789.19,-92 2845.49,-84.876 2908.5,-70.0057 2952.97,-58.3244"/>
<polygon fill="black" stroke="black" points="2953.96,-61.6821 2962.73,-55.7335 2952.17,-54.9165 2953.96,-61.6821"/>
<text text-anchor="middle" x="2924.19" y="-80.8" font-family="Times,serif" font-size="14.00">&#45;µ1(1&#45;µ1)(1&#45;µ2)^2/2</text>
</g>
</g>
</svg>
