<?xml version="1.0" encoding="UTF-8" standalone="no"?>
<!DOCTYPE svg PUBLIC "-//W3C//DTD SVG 1.1//EN"
 "http://www.w3.org/Graphics/SVG/1.1/DTD/svg11.dtd">
<!-- Generated by graphviz version 2.38.0 (20140413.2041)
 -->
<!-- Title: %3 Pages: 1 -->
<svg width="2430pt" height="154pt"
 viewBox="0.00 0.00 2430.27 154.00" xmlns="http://www.w3.org/2000/svg" xmlns:xlink="http://www.w3.org/1999/xlink">
<g id="graph0" class="graph" transform="scale(1 1) rotate(0) translate(4 150)">
<title>%3</title>
<polygon fill="white" stroke="none" points="-4,4 -4,-150 2426.27,-150 2426.27,4 -4,4"/>
<text text-anchor="middle" x="1211.14" y="-7.8" font-family="Times,serif" font-size="14.00">Tree exploration for K=2 arms and M=2 players using Selfish UCB U and RhoRand UpdateRank, for depth=3 : 146 leafs, 8 absorbing</text>
<!-- 0 -->
<g id="node1" class="node"><title>0</title>
<ellipse fill="none" stroke="green" cx="1210.64" cy="-128" rx="143.775" ry="18"/>
<text text-anchor="middle" x="1210.64" y="-124.3" font-family="Times,serif" font-size="14.00">[[0/0 r=1,0/0 r=1], [0/0 r=1,0/0 r=1]]</text>
</g>
<!-- 8 -->
<g id="node2" class="node"><title>8</title>
<ellipse fill="none" stroke="red" cx="143.637" cy="-41" rx="143.775" ry="18"/>
<text text-anchor="middle" x="143.637" y="-37.3" font-family="Times,serif" font-size="14.00">[[1/2 r=1,0/1 r=1], [1/2 r=0,0/1 r=0]]</text>
</g>
<!-- 0&#45;&gt;8 -->
<g id="edge1" class="edge"><title>0&#45;&gt;8</title>
<path fill="none" stroke="black" d="M1080.55,-120.361C964.348,-114.12 789.529,-103.963 637.637,-92 485.403,-80.0097 447.522,-74.8204 295.637,-59 282.904,-57.6737 269.577,-56.2441 256.33,-54.797"/>
<polygon fill="black" stroke="black" points="256.548,-51.3001 246.226,-53.6885 255.785,-58.2584 256.548,-51.3001"/>
<text text-anchor="middle" x="684.137" y="-80.8" font-family="Times,serif" font-size="14.00">µ1^2(µ2 &#45; 1)^2/8</text>
</g>
<!-- 18 -->
<g id="node3" class="node"><title>18</title>
<ellipse fill="none" stroke="red" cx="448.637" cy="-41" rx="143.775" ry="18"/>
<text text-anchor="middle" x="448.637" y="-37.3" font-family="Times,serif" font-size="14.00">[[0/1 r=0,1/2 r=0], [0/1 r=1,1/2 r=1]]</text>
</g>
<!-- 0&#45;&gt;18 -->
<g id="edge2" class="edge"><title>0&#45;&gt;18</title>
<path fill="none" stroke="black" d="M1099.2,-116.559C1029.93,-109.91 939.057,-100.901 858.637,-92 755.496,-80.5845 637.947,-66.0975 555.239,-55.6595"/>
<polygon fill="black" stroke="black" points="555.436,-52.1565 545.076,-54.375 554.558,-59.1013 555.436,-52.1565"/>
<text text-anchor="middle" x="905.137" y="-80.8" font-family="Times,serif" font-size="14.00">µ2^2(µ1 &#45; 1)^2/8</text>
</g>
<!-- 20 -->
<g id="node4" class="node"><title>20</title>
<ellipse fill="none" stroke="red" cx="753.637" cy="-41" rx="143.775" ry="18"/>
<text text-anchor="middle" x="753.637" y="-37.3" font-family="Times,serif" font-size="14.00">[[1/2 r=0,0/1 r=0], [1/2 r=1,0/1 r=1]]</text>
</g>
<!-- 0&#45;&gt;20 -->
<g id="edge3" class="edge"><title>0&#45;&gt;20</title>
<path fill="none" stroke="black" d="M1133.89,-112.725C1052.7,-97.6236 924.852,-73.8452 840.141,-58.0894"/>
<polygon fill="black" stroke="black" points="840.759,-54.6443 830.288,-56.2567 839.479,-61.5263 840.759,-54.6443"/>
<text text-anchor="middle" x="1056.14" y="-80.8" font-family="Times,serif" font-size="14.00">µ1^2(µ2 &#45; 1)^2/8</text>
</g>
<!-- 38 -->
<g id="node5" class="node"><title>38</title>
<ellipse fill="none" stroke="red" cx="1058.64" cy="-41" rx="143.775" ry="18"/>
<text text-anchor="middle" x="1058.64" y="-37.3" font-family="Times,serif" font-size="14.00">[[0/1 r=1,1/2 r=1], [0/1 r=1,1/2 r=1]]</text>
</g>
<!-- 0&#45;&gt;38 -->
<g id="edge4" class="edge"><title>0&#45;&gt;38</title>
<path fill="none" stroke="black" d="M1180.61,-110.207C1156.69,-96.8335 1123.05,-78.0206 1097.15,-63.5392"/>
<polygon fill="black" stroke="black" points="1098.78,-60.4396 1088.35,-58.6135 1095.37,-66.5492 1098.78,-60.4396"/>
<text text-anchor="middle" x="1191.14" y="-80.8" font-family="Times,serif" font-size="14.00">µ2^2(µ1 &#45; 1)^2/8</text>
</g>
<!-- 46 -->
<g id="node6" class="node"><title>46</title>
<ellipse fill="none" stroke="red" cx="1363.64" cy="-41" rx="143.775" ry="18"/>
<text text-anchor="middle" x="1363.64" y="-37.3" font-family="Times,serif" font-size="14.00">[[1/2 r=0,0/1 r=0], [1/2 r=0,0/1 r=0]]</text>
</g>
<!-- 0&#45;&gt;46 -->
<g id="edge5" class="edge"><title>0&#45;&gt;46</title>
<path fill="none" stroke="black" d="M1240.87,-110.207C1264.94,-96.8335 1298.8,-78.0206 1324.87,-63.5392"/>
<polygon fill="black" stroke="black" points="1326.69,-66.5296 1333.73,-58.6135 1323.29,-60.4105 1326.69,-66.5296"/>
<text text-anchor="middle" x="1343.14" y="-80.8" font-family="Times,serif" font-size="14.00">µ1^2(µ2 &#45; 1)^2/8</text>
</g>
<!-- 55 -->
<g id="node7" class="node"><title>55</title>
<ellipse fill="none" stroke="red" cx="1668.64" cy="-41" rx="143.775" ry="18"/>
<text text-anchor="middle" x="1668.64" y="-37.3" font-family="Times,serif" font-size="14.00">[[0/1 r=1,1/2 r=1], [0/1 r=0,1/2 r=0]]</text>
</g>
<!-- 0&#45;&gt;55 -->
<g id="edge6" class="edge"><title>0&#45;&gt;55</title>
<path fill="none" stroke="black" d="M1287.3,-112.773C1368.62,-97.68 1496.86,-73.8808 1581.84,-58.1082"/>
<polygon fill="black" stroke="black" points="1582.53,-61.5396 1591.73,-56.2735 1581.26,-54.6571 1582.53,-61.5396"/>
<text text-anchor="middle" x="1513.14" y="-80.8" font-family="Times,serif" font-size="14.00">µ2^2(µ1 &#45; 1)^2/8</text>
</g>
<!-- 106 -->
<g id="node8" class="node"><title>106</title>
<ellipse fill="none" stroke="red" cx="1973.64" cy="-41" rx="143.775" ry="18"/>
<text text-anchor="middle" x="1973.64" y="-37.3" font-family="Times,serif" font-size="14.00">[[0/1 r=0,1/2 r=0], [0/1 r=0,1/2 r=0]]</text>
</g>
<!-- 0&#45;&gt;106 -->
<g id="edge7" class="edge"><title>0&#45;&gt;106</title>
<path fill="none" stroke="black" d="M1321.99,-116.606C1391.51,-109.958 1482.84,-100.931 1563.64,-92 1666.78,-80.5989 1784.33,-66.11 1867.04,-55.6676"/>
<polygon fill="black" stroke="black" points="1867.72,-59.1094 1877.2,-54.3826 1866.84,-52.1647 1867.72,-59.1094"/>
<text text-anchor="middle" x="1734.14" y="-80.8" font-family="Times,serif" font-size="14.00">µ2^2(µ1 &#45; 1)^2/8</text>
</g>
<!-- 136 -->
<g id="node9" class="node"><title>136</title>
<ellipse fill="none" stroke="red" cx="2278.64" cy="-41" rx="143.775" ry="18"/>
<text text-anchor="middle" x="2278.64" y="-37.3" font-family="Times,serif" font-size="14.00">[[1/2 r=1,0/1 r=1], [1/2 r=1,0/1 r=1]]</text>
</g>
<!-- 0&#45;&gt;136 -->
<g id="edge8" class="edge"><title>0&#45;&gt;136</title>
<path fill="none" stroke="black" d="M1340.96,-120.367C1457.36,-114.13 1632.48,-103.976 1784.64,-92 1936.87,-80.0178 1974.75,-74.8204 2126.64,-59 2139.37,-57.6737 2152.7,-56.2441 2165.95,-54.797"/>
<polygon fill="black" stroke="black" points="2166.49,-58.2584 2176.05,-53.6885 2165.73,-51.3001 2166.49,-58.2584"/>
<text text-anchor="middle" x="1996.14" y="-80.8" font-family="Times,serif" font-size="14.00">µ1^2(µ2 &#45; 1)^2/8</text>
</g>
</g>
</svg>
