<?xml version="1.0" encoding="UTF-8" standalone="no"?>
<!DOCTYPE svg PUBLIC "-//W3C//DTD SVG 1.1//EN"
 "http://www.w3.org/Graphics/SVG/1.1/DTD/svg11.dtd">
<!-- Generated by graphviz version 2.38.0 (20140413.2041)
 -->
<!-- Title: %3 Pages: 1 -->
<svg width="3894pt" height="241pt"
 viewBox="0.00 0.00 3894.18 241.00" xmlns="http://www.w3.org/2000/svg" xmlns:xlink="http://www.w3.org/1999/xlink">
<g id="graph0" class="graph" transform="scale(1 1) rotate(0) translate(4 237)">
<title>%3</title>
<polygon fill="white" stroke="none" points="-4,4 -4,-237 3890.18,-237 3890.18,4 -4,4"/>
<text text-anchor="middle" x="1943.09" y="-7.8" font-family="Times,serif" font-size="14.00">Tree exploration for K=2 arms and M=2 players using TopBestM UCB U and TopBestM RandomNewChosenArm, for depth=2 : 16 leafs, 0 absorbing</text>
<!-- 0 -->
<g id="node1" class="node"><title>0</title>
<ellipse fill="none" stroke="green" cx="1943.09" cy="-215" rx="113.18" ry="18"/>
<text text-anchor="middle" x="1943.09" y="-211.3" font-family="Times,serif" font-size="14.00">[[0/0,0/0], [0/0,0/0]] r=[1, 1]</text>
</g>
<!-- 1 -->
<g id="node2" class="node"><title>1</title>
<ellipse fill="none" stroke="black" cx="601.09" cy="-128" rx="113.18" ry="18"/>
<text text-anchor="middle" x="601.09" y="-124.3" font-family="Times,serif" font-size="14.00">[[0/0,0/1], [0/0,0/1]] r=[1, 1]</text>
</g>
<!-- 0&#45;&gt;1 -->
<g id="edge1" class="edge"><title>0&#45;&gt;1</title>
<path fill="none" stroke="black" d="M1840.29,-207.489C1593.84,-191.879 970.802,-152.417 714.2,-136.164"/>
<polygon fill="black" stroke="black" points="714.315,-132.665 704.113,-135.525 713.872,-139.651 714.315,-132.665"/>
<text text-anchor="middle" x="1362.09" y="-167.8" font-family="Times,serif" font-size="14.00">1/4</text>
</g>
<!-- 2 -->
<g id="node3" class="node"><title>2</title>
<ellipse fill="none" stroke="black" cx="1577.09" cy="-128" rx="113.18" ry="18"/>
<text text-anchor="middle" x="1577.09" y="-124.3" font-family="Times,serif" font-size="14.00">[[0/0,0/1], [0/0,0/1]] r=[0, 1]</text>
</g>
<!-- 0&#45;&gt;2 -->
<g id="edge2" class="edge"><title>0&#45;&gt;2</title>
<path fill="none" stroke="black" d="M1881.83,-199.773C1817.34,-184.795 1715.93,-161.244 1648.01,-145.471"/>
<polygon fill="black" stroke="black" points="1648.78,-142.056 1638.24,-143.203 1647.19,-148.874 1648.78,-142.056"/>
<text text-anchor="middle" x="1791.09" y="-167.8" font-family="Times,serif" font-size="14.00">1/4</text>
</g>
<!-- 3 -->
<g id="node4" class="node"><title>3</title>
<ellipse fill="none" stroke="black" cx="2309.09" cy="-128" rx="113.18" ry="18"/>
<text text-anchor="middle" x="2309.09" y="-124.3" font-family="Times,serif" font-size="14.00">[[0/0,0/1], [0/0,0/1]] r=[1, 0]</text>
</g>
<!-- 0&#45;&gt;3 -->
<g id="edge3" class="edge"><title>0&#45;&gt;3</title>
<path fill="none" stroke="black" d="M2004.35,-199.773C2068.84,-184.795 2170.25,-161.244 2238.17,-145.471"/>
<polygon fill="black" stroke="black" points="2238.99,-148.874 2247.94,-143.203 2237.4,-142.056 2238.99,-148.874"/>
<text text-anchor="middle" x="2157.09" y="-167.8" font-family="Times,serif" font-size="14.00">1/4</text>
</g>
<!-- 4 -->
<g id="node5" class="node"><title>4</title>
<ellipse fill="none" stroke="black" cx="3285.09" cy="-128" rx="113.18" ry="18"/>
<text text-anchor="middle" x="3285.09" y="-124.3" font-family="Times,serif" font-size="14.00">[[0/0,0/1], [0/0,0/1]] r=[0, 0]</text>
</g>
<!-- 0&#45;&gt;4 -->
<g id="edge4" class="edge"><title>0&#45;&gt;4</title>
<path fill="none" stroke="black" d="M2045.89,-207.489C2292.34,-191.879 2915.38,-152.417 3171.98,-136.164"/>
<polygon fill="black" stroke="black" points="3172.31,-139.651 3182.07,-135.525 3171.87,-132.665 3172.31,-139.651"/>
<text text-anchor="middle" x="2704.09" y="-167.8" font-family="Times,serif" font-size="14.00">1/4</text>
</g>
<!-- 5 -->
<g id="node6" class="node"><title>5</title>
<ellipse fill="none" stroke="black" cx="113.09" cy="-41" rx="113.18" ry="18"/>
<text text-anchor="middle" x="113.09" y="-37.3" font-family="Times,serif" font-size="14.00">[[0/0,0/2], [0/0,0/2]] r=[0, 1]</text>
</g>
<!-- 1&#45;&gt;5 -->
<g id="edge5" class="edge"><title>1&#45;&gt;5</title>
<path fill="none" stroke="black" d="M527.767,-114.229C438.941,-98.7569 289.655,-72.7541 196.514,-56.5309"/>
<polygon fill="black" stroke="black" points="197.014,-53.0654 186.562,-54.7974 195.813,-59.9616 197.014,-53.0654"/>
<text text-anchor="middle" x="396.09" y="-80.8" font-family="Times,serif" font-size="14.00">1/4</text>
</g>
<!-- 6 -->
<g id="node7" class="node"><title>6</title>
<ellipse fill="none" stroke="black" cx="357.09" cy="-41" rx="113.18" ry="18"/>
<text text-anchor="middle" x="357.09" y="-37.3" font-family="Times,serif" font-size="14.00">[[0/0,0/2], [0/0,0/2]] r=[1, 0]</text>
</g>
<!-- 1&#45;&gt;6 -->
<g id="edge6" class="edge"><title>1&#45;&gt;6</title>
<path fill="none" stroke="black" d="M556.337,-111.41C515.535,-97.1959 455.15,-76.1603 411.559,-60.9748"/>
<polygon fill="black" stroke="black" points="412.567,-57.6198 401.972,-57.6352 410.264,-64.2301 412.567,-57.6198"/>
<text text-anchor="middle" x="503.09" y="-80.8" font-family="Times,serif" font-size="14.00">1/4</text>
</g>
<!-- 7 -->
<g id="node8" class="node"><title>7</title>
<ellipse fill="none" stroke="black" cx="601.09" cy="-41" rx="113.18" ry="18"/>
<text text-anchor="middle" x="601.09" y="-37.3" font-family="Times,serif" font-size="14.00">[[0/0,0/2], [0/0,0/2]] r=[0, 0]</text>
</g>
<!-- 1&#45;&gt;7 -->
<g id="edge7" class="edge"><title>1&#45;&gt;7</title>
<path fill="none" stroke="black" d="M601.09,-109.799C601.09,-98.1626 601.09,-82.5479 601.09,-69.2368"/>
<polygon fill="black" stroke="black" points="604.59,-69.1754 601.09,-59.1754 597.59,-69.1755 604.59,-69.1754"/>
<text text-anchor="middle" x="610.09" y="-80.8" font-family="Times,serif" font-size="14.00">1/4</text>
</g>
<!-- 8 -->
<g id="node9" class="node"><title>8</title>
<ellipse fill="none" stroke="black" cx="845.09" cy="-41" rx="113.18" ry="18"/>
<text text-anchor="middle" x="845.09" y="-37.3" font-family="Times,serif" font-size="14.00">[[0/0,0/2], [0/0,0/2]] r=[1, 1]</text>
</g>
<!-- 1&#45;&gt;8 -->
<g id="edge8" class="edge"><title>1&#45;&gt;8</title>
<path fill="none" stroke="black" d="M645.843,-111.41C686.645,-97.1959 747.03,-76.1603 790.621,-60.9748"/>
<polygon fill="black" stroke="black" points="791.916,-64.2301 800.208,-57.6352 789.613,-57.6198 791.916,-64.2301"/>
<text text-anchor="middle" x="747.09" y="-80.8" font-family="Times,serif" font-size="14.00">1/4</text>
</g>
<!-- 9 -->
<g id="node10" class="node"><title>9</title>
<ellipse fill="none" stroke="black" cx="1089.09" cy="-41" rx="113.18" ry="18"/>
<text text-anchor="middle" x="1089.09" y="-37.3" font-family="Times,serif" font-size="14.00">[[1/1,0/1], [0/0,1/2]] r=[0, 1]</text>
</g>
<!-- 2&#45;&gt;9 -->
<g id="edge9" class="edge"><title>2&#45;&gt;9</title>
<path fill="none" stroke="black" d="M1503.77,-114.229C1414.94,-98.7569 1265.65,-72.7541 1172.51,-56.5309"/>
<polygon fill="black" stroke="black" points="1173.01,-53.0654 1162.56,-54.7974 1171.81,-59.9616 1173.01,-53.0654"/>
<text text-anchor="middle" x="1377.09" y="-80.8" font-family="Times,serif" font-size="14.00">µ1µ2</text>
</g>
<!-- 10 -->
<g id="node11" class="node"><title>10</title>
<ellipse fill="none" stroke="black" cx="1333.09" cy="-41" rx="113.18" ry="18"/>
<text text-anchor="middle" x="1333.09" y="-37.3" font-family="Times,serif" font-size="14.00">[[0/1,0/1], [0/0,0/2]] r=[0, 1]</text>
</g>
<!-- 2&#45;&gt;10 -->
<g id="edge10" class="edge"><title>2&#45;&gt;10</title>
<path fill="none" stroke="black" d="M1532.34,-111.41C1491.53,-97.1959 1431.15,-76.1603 1387.56,-60.9748"/>
<polygon fill="black" stroke="black" points="1388.57,-57.6198 1377.97,-57.6352 1386.26,-64.2301 1388.57,-57.6198"/>
<text text-anchor="middle" x="1504.09" y="-80.8" font-family="Times,serif" font-size="14.00">(1&#45;µ1)(1&#45;µ2)</text>
</g>
<!-- 11 -->
<g id="node12" class="node"><title>11</title>
<ellipse fill="none" stroke="black" cx="1577.09" cy="-41" rx="113.18" ry="18"/>
<text text-anchor="middle" x="1577.09" y="-37.3" font-family="Times,serif" font-size="14.00">[[0/1,0/1], [0/0,1/2]] r=[0, 1]</text>
</g>
<!-- 2&#45;&gt;11 -->
<g id="edge11" class="edge"><title>2&#45;&gt;11</title>
<path fill="none" stroke="black" d="M1577.09,-109.799C1577.09,-98.1626 1577.09,-82.5479 1577.09,-69.2368"/>
<polygon fill="black" stroke="black" points="1580.59,-69.1754 1577.09,-59.1754 1573.59,-69.1755 1580.59,-69.1754"/>
<text text-anchor="middle" x="1601.09" y="-80.8" font-family="Times,serif" font-size="14.00">µ2(1&#45;µ1)</text>
</g>
<!-- 12 -->
<g id="node13" class="node"><title>12</title>
<ellipse fill="none" stroke="black" cx="1821.09" cy="-41" rx="113.18" ry="18"/>
<text text-anchor="middle" x="1821.09" y="-37.3" font-family="Times,serif" font-size="14.00">[[1/1,0/1], [0/0,0/2]] r=[0, 1]</text>
</g>
<!-- 2&#45;&gt;12 -->
<g id="edge12" class="edge"><title>2&#45;&gt;12</title>
<path fill="none" stroke="black" d="M1621.84,-111.41C1662.65,-97.1959 1723.03,-76.1603 1766.62,-60.9748"/>
<polygon fill="black" stroke="black" points="1767.92,-64.2301 1776.21,-57.6352 1765.61,-57.6198 1767.92,-64.2301"/>
<text text-anchor="middle" x="1738.09" y="-80.8" font-family="Times,serif" font-size="14.00">µ1(1&#45;µ2)</text>
</g>
<!-- 13 -->
<g id="node14" class="node"><title>13</title>
<ellipse fill="none" stroke="black" cx="2065.09" cy="-41" rx="113.18" ry="18"/>
<text text-anchor="middle" x="2065.09" y="-37.3" font-family="Times,serif" font-size="14.00">[[0/0,0/2], [0/1,0/1]] r=[1, 0]</text>
</g>
<!-- 3&#45;&gt;13 -->
<g id="edge13" class="edge"><title>3&#45;&gt;13</title>
<path fill="none" stroke="black" d="M2264.34,-111.41C2223.53,-97.1959 2163.15,-76.1603 2119.56,-60.9748"/>
<polygon fill="black" stroke="black" points="2120.57,-57.6198 2109.97,-57.6352 2118.26,-64.2301 2120.57,-57.6198"/>
<text text-anchor="middle" x="2236.09" y="-80.8" font-family="Times,serif" font-size="14.00">(1&#45;µ1)(1&#45;µ2)</text>
</g>
<!-- 14 -->
<g id="node15" class="node"><title>14</title>
<ellipse fill="none" stroke="black" cx="2309.09" cy="-41" rx="113.18" ry="18"/>
<text text-anchor="middle" x="2309.09" y="-37.3" font-family="Times,serif" font-size="14.00">[[0/0,0/2], [1/1,0/1]] r=[1, 0]</text>
</g>
<!-- 3&#45;&gt;14 -->
<g id="edge14" class="edge"><title>3&#45;&gt;14</title>
<path fill="none" stroke="black" d="M2309.09,-109.799C2309.09,-98.1626 2309.09,-82.5479 2309.09,-69.2368"/>
<polygon fill="black" stroke="black" points="2312.59,-69.1754 2309.09,-59.1754 2305.59,-69.1755 2312.59,-69.1754"/>
<text text-anchor="middle" x="2333.09" y="-80.8" font-family="Times,serif" font-size="14.00">µ1(1&#45;µ2)</text>
</g>
<!-- 15 -->
<g id="node16" class="node"><title>15</title>
<ellipse fill="none" stroke="black" cx="2553.09" cy="-41" rx="113.18" ry="18"/>
<text text-anchor="middle" x="2553.09" y="-37.3" font-family="Times,serif" font-size="14.00">[[0/0,1/2], [0/1,0/1]] r=[1, 0]</text>
</g>
<!-- 3&#45;&gt;15 -->
<g id="edge15" class="edge"><title>3&#45;&gt;15</title>
<path fill="none" stroke="black" d="M2353.84,-111.41C2394.65,-97.1959 2455.03,-76.1603 2498.62,-60.9748"/>
<polygon fill="black" stroke="black" points="2499.92,-64.2301 2508.21,-57.6352 2497.61,-57.6198 2499.92,-64.2301"/>
<text text-anchor="middle" x="2470.09" y="-80.8" font-family="Times,serif" font-size="14.00">µ2(1&#45;µ1)</text>
</g>
<!-- 16 -->
<g id="node17" class="node"><title>16</title>
<ellipse fill="none" stroke="black" cx="2797.09" cy="-41" rx="113.18" ry="18"/>
<text text-anchor="middle" x="2797.09" y="-37.3" font-family="Times,serif" font-size="14.00">[[0/0,1/2], [1/1,0/1]] r=[1, 0]</text>
</g>
<!-- 3&#45;&gt;16 -->
<g id="edge16" class="edge"><title>3&#45;&gt;16</title>
<path fill="none" stroke="black" d="M2382.41,-114.229C2471.24,-98.7569 2620.53,-72.7541 2713.67,-56.5309"/>
<polygon fill="black" stroke="black" points="2714.37,-59.9616 2723.62,-54.7974 2713.17,-53.0654 2714.37,-59.9616"/>
<text text-anchor="middle" x="2597.09" y="-80.8" font-family="Times,serif" font-size="14.00">µ1µ2</text>
</g>
<!-- 17 -->
<g id="node18" class="node"><title>17</title>
<ellipse fill="none" stroke="black" cx="3041.09" cy="-41" rx="113.18" ry="18"/>
<text text-anchor="middle" x="3041.09" y="-37.3" font-family="Times,serif" font-size="14.00">[[0/1,0/1], [0/1,0/1]] r=[0, 1]</text>
</g>
<!-- 4&#45;&gt;17 -->
<g id="edge17" class="edge"><title>4&#45;&gt;17</title>
<path fill="none" stroke="black" d="M3240.34,-111.41C3199.53,-97.1959 3139.15,-76.1603 3095.56,-60.9748"/>
<polygon fill="black" stroke="black" points="3096.57,-57.6198 3085.97,-57.6352 3094.26,-64.2301 3096.57,-57.6198"/>
<text text-anchor="middle" x="3186.09" y="-80.8" font-family="Times,serif" font-size="14.00">1/4</text>
</g>
<!-- 18 -->
<g id="node19" class="node"><title>18</title>
<ellipse fill="none" stroke="black" cx="3285.09" cy="-41" rx="113.18" ry="18"/>
<text text-anchor="middle" x="3285.09" y="-37.3" font-family="Times,serif" font-size="14.00">[[0/1,0/1], [0/1,0/1]] r=[1, 0]</text>
</g>
<!-- 4&#45;&gt;18 -->
<g id="edge18" class="edge"><title>4&#45;&gt;18</title>
<path fill="none" stroke="black" d="M3285.09,-109.799C3285.09,-98.1626 3285.09,-82.5479 3285.09,-69.2368"/>
<polygon fill="black" stroke="black" points="3288.59,-69.1754 3285.09,-59.1754 3281.59,-69.1755 3288.59,-69.1754"/>
<text text-anchor="middle" x="3294.09" y="-80.8" font-family="Times,serif" font-size="14.00">1/4</text>
</g>
<!-- 19 -->
<g id="node20" class="node"><title>19</title>
<ellipse fill="none" stroke="black" cx="3529.09" cy="-41" rx="113.18" ry="18"/>
<text text-anchor="middle" x="3529.09" y="-37.3" font-family="Times,serif" font-size="14.00">[[0/1,0/1], [0/1,0/1]] r=[0, 0]</text>
</g>
<!-- 4&#45;&gt;19 -->
<g id="edge19" class="edge"><title>4&#45;&gt;19</title>
<path fill="none" stroke="black" d="M3329.84,-111.41C3370.65,-97.1959 3431.03,-76.1603 3474.62,-60.9748"/>
<polygon fill="black" stroke="black" points="3475.92,-64.2301 3484.21,-57.6352 3473.61,-57.6198 3475.92,-64.2301"/>
<text text-anchor="middle" x="3430.09" y="-80.8" font-family="Times,serif" font-size="14.00">1/4</text>
</g>
<!-- 20 -->
<g id="node21" class="node"><title>20</title>
<ellipse fill="none" stroke="black" cx="3773.09" cy="-41" rx="113.18" ry="18"/>
<text text-anchor="middle" x="3773.09" y="-37.3" font-family="Times,serif" font-size="14.00">[[0/1,0/1], [0/1,0/1]] r=[1, 1]</text>
</g>
<!-- 4&#45;&gt;20 -->
<g id="edge20" class="edge"><title>4&#45;&gt;20</title>
<path fill="none" stroke="black" d="M3358.41,-114.229C3447.24,-98.7569 3596.53,-72.7541 3689.67,-56.5309"/>
<polygon fill="black" stroke="black" points="3690.37,-59.9616 3699.62,-54.7974 3689.17,-53.0654 3690.37,-59.9616"/>
<text text-anchor="middle" x="3567.09" y="-80.8" font-family="Times,serif" font-size="14.00">1/4</text>
</g>
</g>
</svg>
